<?xml version="1.0" encoding="UTF-8" standalone="no"?>
<!DOCTYPE svg PUBLIC "-//W3C//DTD SVG 1.1//EN"
 "http://www.w3.org/Graphics/SVG/1.1/DTD/svg11.dtd">
<!-- Generated by graphviz version 2.36.0 (20140111.2315)
 -->
<!-- Title: /home/travis/build/STORM&#45;IRIT/Radium&#45;Engine/Plugins/Animation/src/AnimationSystem.hpp Pages: 1 -->
<svg width="1245pt" height="522pt"
 viewBox="0.00 0.00 1245.00 522.00" xmlns="http://www.w3.org/2000/svg" xmlns:xlink="http://www.w3.org/1999/xlink">
<g id="graph0" class="graph" transform="scale(1 1) rotate(0) translate(4 518)">
<title>/home/travis/build/STORM&#45;IRIT/Radium&#45;Engine/Plugins/Animation/src/AnimationSystem.hpp</title>
<polygon fill="white" stroke="none" points="-4,4 -4,-518 1241,-518 1241,4 -4,4"/>
<!-- Node1 -->
<g id="node1" class="node"><title>Node1</title>
<polygon fill="#bfbfbf" stroke="black" points="810.5,-461 810.5,-513 971.5,-513 971.5,-461 810.5,-461"/>
<text text-anchor="start" x="818.5" y="-501" font-family="Helvetica,sans-Serif" font-size="10.00">/home/travis/build</text>
<text text-anchor="start" x="818.5" y="-490" font-family="Helvetica,sans-Serif" font-size="10.00">/STORM&#45;IRIT/Radium&#45;Engine</text>
<text text-anchor="start" x="818.5" y="-479" font-family="Helvetica,sans-Serif" font-size="10.00">/Plugins/Animation/src/Animation</text>
<text text-anchor="middle" x="891" y="-468" font-family="Helvetica,sans-Serif" font-size="10.00">System.hpp</text>
</g>
<!-- Node2 -->
<g id="node2" class="node"><title>Node2</title>
<g id="a_node2"><a xlink:href="System_8hpp.html" target="_top" xlink:title="Engine/System/System.hpp">
<polygon fill="white" stroke="black" points="1058.5,-292.5 1058.5,-311.5 1197.5,-311.5 1197.5,-292.5 1058.5,-292.5"/>
<text text-anchor="middle" x="1128" y="-299.5" font-family="Helvetica,sans-Serif" font-size="10.00">Engine/System/System.hpp</text>
</a>
</g>
</g>
<!-- Node1&#45;&gt;Node2 -->
<g id="edge1" class="edge"><title>Node1&#45;&gt;Node2</title>
<path fill="none" stroke="midnightblue" d="M929.034,-460.84C963.145,-437.802 1014.13,-402.188 1056,-368 1075.63,-351.975 1097.06,-332.332 1111.39,-318.861"/>
<polygon fill="midnightblue" stroke="midnightblue" points="1114.08,-321.131 1118.94,-311.716 1109.27,-316.047 1114.08,-321.131"/>
</g>
<!-- Node12 -->
<g id="node12" class="node"><title>Node12</title>
<g id="a_node12"><a xlink:href="AnimationPluginMacros_8hpp.html" target="_top" xlink:title="AnimationPluginMacros.hpp">
<polygon fill="white" stroke="black" points="314,-404.5 314,-423.5 452,-423.5 452,-404.5 314,-404.5"/>
<text text-anchor="middle" x="383" y="-411.5" font-family="Helvetica,sans-Serif" font-size="10.00">AnimationPluginMacros.hpp</text>
</a>
</g>
</g>
<!-- Node1&#45;&gt;Node12 -->
<g id="edge11" class="edge"><title>Node1&#45;&gt;Node12</title>
<path fill="none" stroke="midnightblue" d="M810.225,-474.711C711.907,-460.969 547.453,-437.985 453.854,-424.903"/>
<polygon fill="midnightblue" stroke="midnightblue" points="454.3,-421.431 443.912,-423.513 453.331,-428.364 454.3,-421.431"/>
</g>
<!-- Node13 -->
<g id="node13" class="node"><title>Node13</title>
<g id="a_node13"><a xlink:href="ItemEntry_8hpp.html" target="_top" xlink:title="Engine/ItemModel/ItemEntry.hpp">
<polygon fill="white" stroke="black" points="811,-404.5 811,-423.5 971,-423.5 971,-404.5 811,-404.5"/>
<text text-anchor="middle" x="891" y="-411.5" font-family="Helvetica,sans-Serif" font-size="10.00">Engine/ItemModel/ItemEntry.hpp</text>
</a>
</g>
</g>
<!-- Node1&#45;&gt;Node13 -->
<g id="edge13" class="edge"><title>Node1&#45;&gt;Node13</title>
<path fill="none" stroke="midnightblue" d="M891,-460.768C891,-451.89 891,-442.074 891,-433.816"/>
<polygon fill="midnightblue" stroke="midnightblue" points="894.5,-433.757 891,-423.757 887.5,-433.757 894.5,-433.757"/>
</g>
<!-- Node3 -->
<g id="node3" class="node"><title>Node3</title>
<g id="a_node3"><a xlink:href="RaEngine_8hpp.html" target="_top" xlink:title="Engine/RaEngine.hpp">
<polygon fill="white" stroke="black" points="1125.5,-236.5 1125.5,-255.5 1236.5,-255.5 1236.5,-236.5 1125.5,-236.5"/>
<text text-anchor="middle" x="1181" y="-243.5" font-family="Helvetica,sans-Serif" font-size="10.00">Engine/RaEngine.hpp</text>
</a>
</g>
</g>
<!-- Node2&#45;&gt;Node3 -->
<g id="edge2" class="edge"><title>Node2&#45;&gt;Node3</title>
<path fill="none" stroke="midnightblue" d="M1136.75,-292.083C1144.47,-284.22 1155.9,-272.569 1165.22,-263.081"/>
<polygon fill="midnightblue" stroke="midnightblue" points="1167.9,-265.34 1172.41,-255.751 1162.91,-260.436 1167.9,-265.34"/>
</g>
<!-- Node10 -->
<g id="node10" class="node"><title>Node10</title>
<polygon fill="white" stroke="#bfbfbf" points="993,-236.5 993,-255.5 1037,-255.5 1037,-236.5 993,-236.5"/>
<text text-anchor="middle" x="1015" y="-243.5" font-family="Helvetica,sans-Serif" font-size="10.00">vector</text>
</g>
<!-- Node2&#45;&gt;Node10 -->
<g id="edge9" class="edge"><title>Node2&#45;&gt;Node10</title>
<path fill="none" stroke="midnightblue" d="M1110.09,-292.444C1091.75,-283.675 1062.99,-269.935 1041.91,-259.858"/>
<polygon fill="midnightblue" stroke="midnightblue" points="1043.35,-256.67 1032.82,-255.516 1040.33,-262.986 1043.35,-256.67"/>
</g>
<!-- Node11 -->
<g id="node11" class="node"><title>Node11</title>
<polygon fill="white" stroke="#bfbfbf" points="1055,-236.5 1055,-255.5 1107,-255.5 1107,-236.5 1055,-236.5"/>
<text text-anchor="middle" x="1081" y="-243.5" font-family="Helvetica,sans-Serif" font-size="10.00">memory</text>
</g>
<!-- Node2&#45;&gt;Node11 -->
<g id="edge10" class="edge"><title>Node2&#45;&gt;Node11</title>
<path fill="none" stroke="midnightblue" d="M1120.24,-292.083C1113.46,-284.298 1103.46,-272.801 1095.24,-263.367"/>
<polygon fill="midnightblue" stroke="midnightblue" points="1097.82,-260.996 1088.62,-255.751 1092.54,-265.592 1097.82,-260.996"/>
</g>
<!-- Node4 -->
<g id="node4" class="node"><title>Node4</title>
<g id="a_node4"><a xlink:href="CoreMacros_8hpp.html" target="_top" xlink:title="Core/CoreMacros.hpp">
<polygon fill="white" stroke="black" points="516.5,-56.5 516.5,-75.5 629.5,-75.5 629.5,-56.5 516.5,-56.5"/>
<text text-anchor="middle" x="573" y="-63.5" font-family="Helvetica,sans-Serif" font-size="10.00">Core/CoreMacros.hpp</text>
</a>
</g>
</g>
<!-- Node3&#45;&gt;Node4 -->
<g id="edge3" class="edge"><title>Node3&#45;&gt;Node4</title>
<path fill="none" stroke="midnightblue" d="M1168.11,-236.375C1131.25,-212.185 1021.54,-143.423 920,-112 825.417,-82.7293 710.617,-72.4894 639.681,-68.9126"/>
<polygon fill="midnightblue" stroke="midnightblue" points="639.695,-65.4094 629.541,-68.4317 639.364,-72.4015 639.695,-65.4094"/>
</g>
<!-- Node5 -->
<g id="node5" class="node"><title>Node5</title>
<polygon fill="white" stroke="#bfbfbf" points="417.5,-0.5 417.5,-19.5 466.5,-19.5 466.5,-0.5 417.5,-0.5"/>
<text text-anchor="middle" x="442" y="-7.5" font-family="Helvetica,sans-Serif" font-size="10.00">cassert</text>
</g>
<!-- Node4&#45;&gt;Node5 -->
<g id="edge4" class="edge"><title>Node4&#45;&gt;Node5</title>
<path fill="none" stroke="midnightblue" d="M552.243,-56.4435C530.684,-47.5566 496.737,-33.5632 472.206,-23.4514"/>
<polygon fill="midnightblue" stroke="midnightblue" points="473.239,-20.0917 462.66,-19.5164 470.572,-26.5634 473.239,-20.0917"/>
</g>
<!-- Node6 -->
<g id="node6" class="node"><title>Node6</title>
<polygon fill="white" stroke="#bfbfbf" points="484.5,-0.5 484.5,-19.5 527.5,-19.5 527.5,-0.5 484.5,-0.5"/>
<text text-anchor="middle" x="506" y="-7.5" font-family="Helvetica,sans-Serif" font-size="10.00">cstdio</text>
</g>
<!-- Node4&#45;&gt;Node6 -->
<g id="edge5" class="edge"><title>Node4&#45;&gt;Node6</title>
<path fill="none" stroke="midnightblue" d="M562.235,-56.324C552.234,-48.2631 537.113,-36.0765 525.07,-26.3695"/>
<polygon fill="midnightblue" stroke="midnightblue" points="526.943,-23.3841 516.961,-19.8339 522.55,-28.8343 526.943,-23.3841"/>
</g>
<!-- Node7 -->
<g id="node7" class="node"><title>Node7</title>
<polygon fill="white" stroke="#bfbfbf" points="546,-0.5 546,-19.5 600,-19.5 600,-0.5 546,-0.5"/>
<text text-anchor="middle" x="573" y="-7.5" font-family="Helvetica,sans-Serif" font-size="10.00">iostream</text>
</g>
<!-- Node4&#45;&gt;Node7 -->
<g id="edge6" class="edge"><title>Node4&#45;&gt;Node7</title>
<path fill="none" stroke="midnightblue" d="M573,-56.083C573,-49.0059 573,-38.8611 573,-29.9865"/>
<polygon fill="midnightblue" stroke="midnightblue" points="576.5,-29.751 573,-19.7511 569.5,-29.7511 576.5,-29.751"/>
</g>
<!-- Node8 -->
<g id="node8" class="node"><title>Node8</title>
<polygon fill="white" stroke="#bfbfbf" points="618,-0.5 618,-19.5 670,-19.5 670,-0.5 618,-0.5"/>
<text text-anchor="middle" x="644" y="-7.5" font-family="Helvetica,sans-Serif" font-size="10.00">sstream</text>
</g>
<!-- Node4&#45;&gt;Node8 -->
<g id="edge7" class="edge"><title>Node4&#45;&gt;Node8</title>
<path fill="none" stroke="midnightblue" d="M584.407,-56.324C595.109,-48.1849 611.341,-35.8395 624.163,-26.0874"/>
<polygon fill="midnightblue" stroke="midnightblue" points="626.544,-28.6734 632.385,-19.8339 622.307,-23.1018 626.544,-28.6734"/>
</g>
<!-- Node9 -->
<g id="node9" class="node"><title>Node9</title>
<polygon fill="white" stroke="#bfbfbf" points="688,-0.5 688,-19.5 732,-19.5 732,-0.5 688,-0.5"/>
<text text-anchor="middle" x="710" y="-7.5" font-family="Helvetica,sans-Serif" font-size="10.00">thread</text>
</g>
<!-- Node4&#45;&gt;Node9 -->
<g id="edge8" class="edge"><title>Node4&#45;&gt;Node9</title>
<path fill="none" stroke="midnightblue" d="M594.708,-56.4435C617.355,-47.5171 653.072,-33.4387 678.752,-23.3168"/>
<polygon fill="midnightblue" stroke="midnightblue" points="680.374,-26.4397 688.394,-19.5164 677.807,-19.9273 680.374,-26.4397"/>
</g>
<!-- Node12&#45;&gt;Node4 -->
<g id="edge12" class="edge"><title>Node12&#45;&gt;Node4</title>
<path fill="none" stroke="midnightblue" d="M313.642,-407.344C203.272,-396.409 0,-367.511 0,-303 0,-303 0,-303 0,-183 0,-80.682 355.411,-67.5782 506.412,-66.6282"/>
<polygon fill="midnightblue" stroke="midnightblue" points="506.507,-70.1279 516.49,-66.5811 506.474,-63.128 506.507,-70.1279"/>
</g>
<!-- Node13&#45;&gt;Node3 -->
<g id="edge14" class="edge"><title>Node13&#45;&gt;Node3</title>
<path fill="none" stroke="midnightblue" d="M940.967,-404.497C1021.83,-389.582 1175.42,-356.054 1206,-312 1216.29,-297.171 1206.08,-277.531 1195.77,-263.735"/>
<polygon fill="midnightblue" stroke="midnightblue" points="1198.22,-261.191 1189.2,-255.622 1192.78,-265.596 1198.22,-261.191"/>
</g>
<!-- Node13&#45;&gt;Node10 -->
<g id="edge19" class="edge"><title>Node13&#45;&gt;Node10</title>
<path fill="none" stroke="midnightblue" d="M885.444,-404.388C872.461,-383.072 843.131,-327.043 869,-292 870.755,-289.623 940.82,-268.748 983.238,-256.281"/>
<polygon fill="midnightblue" stroke="midnightblue" points="984.247,-259.633 992.857,-253.459 982.276,-252.916 984.247,-259.633"/>
</g>
<!-- Node14 -->
<g id="node14" class="node"><title>Node14</title>
<g id="a_node14"><a xlink:href="Index_8hpp.html" target="_top" xlink:title="Core/Index/Index.hpp">
<polygon fill="white" stroke="black" points="878,-348.5 878,-367.5 988,-367.5 988,-348.5 878,-348.5"/>
<text text-anchor="middle" x="933" y="-355.5" font-family="Helvetica,sans-Serif" font-size="10.00">Core/Index/Index.hpp</text>
</a>
</g>
</g>
<!-- Node13&#45;&gt;Node14 -->
<g id="edge15" class="edge"><title>Node13&#45;&gt;Node14</title>
<path fill="none" stroke="midnightblue" d="M897.935,-404.083C903.929,-396.377 912.752,-385.033 920.048,-375.653"/>
<polygon fill="midnightblue" stroke="midnightblue" points="922.817,-377.793 926.194,-367.751 917.291,-373.496 922.817,-377.793"/>
</g>
<!-- Node17 -->
<g id="node17" class="node"><title>Node17</title>
<polygon fill="white" stroke="#bfbfbf" points="1006.5,-348.5 1006.5,-367.5 1047.5,-367.5 1047.5,-348.5 1006.5,-348.5"/>
<text text-anchor="middle" x="1027" y="-355.5" font-family="Helvetica,sans-Serif" font-size="10.00">string</text>
</g>
<!-- Node13&#45;&gt;Node17 -->
<g id="edge18" class="edge"><title>Node13&#45;&gt;Node17</title>
<path fill="none" stroke="midnightblue" d="M912.55,-404.444C935.296,-395.412 971.324,-381.107 996.875,-370.961"/>
<polygon fill="midnightblue" stroke="midnightblue" points="998.439,-374.106 1006.44,-367.163 995.856,-367.6 998.439,-374.106"/>
</g>
<!-- Node18 -->
<g id="node18" class="node"><title>Node18</title>
<g id="a_node18"><a xlink:href="PickingManager_8hpp.html" target="_top" xlink:title="GuiBase/Utils/PickingManager.hpp">
<polygon fill="white" stroke="black" points="480.5,-348.5 480.5,-367.5 649.5,-367.5 649.5,-348.5 480.5,-348.5"/>
<text text-anchor="middle" x="565" y="-355.5" font-family="Helvetica,sans-Serif" font-size="10.00">GuiBase/Utils/PickingManager.hpp</text>
</a>
</g>
</g>
<!-- Node13&#45;&gt;Node18 -->
<g id="edge20" class="edge"><title>Node13&#45;&gt;Node18</title>
<path fill="none" stroke="midnightblue" d="M839.344,-404.444C781.521,-394.865 687.887,-379.356 626.377,-369.167"/>
<polygon fill="midnightblue" stroke="midnightblue" points="626.852,-365.698 616.414,-367.516 625.708,-372.604 626.852,-365.698"/>
</g>
<!-- Node39 -->
<g id="node39" class="node"><title>Node39</title>
<g id="a_node39"><a xlink:href="ItemEntry_8inl.html" target="_top" xlink:title="Engine/ItemModel/ItemEntry.inl">
<polygon fill="white" stroke="black" points="668,-348.5 668,-367.5 822,-367.5 822,-348.5 668,-348.5"/>
<text text-anchor="middle" x="745" y="-355.5" font-family="Helvetica,sans-Serif" font-size="10.00">Engine/ItemModel/ItemEntry.inl</text>
</a>
</g>
</g>
<!-- Node13&#45;&gt;Node39 -->
<g id="edge51" class="edge"><title>Node13&#45;&gt;Node39</title>
<path fill="none" stroke="midnightblue" d="M867.866,-404.444C843.518,-395.438 804.993,-381.189 777.577,-371.049"/>
<polygon fill="midnightblue" stroke="midnightblue" points="778.619,-367.703 768.026,-367.516 776.191,-374.268 778.619,-367.703"/>
</g>
<!-- Node15 -->
<g id="node15" class="node"><title>Node15</title>
<polygon fill="white" stroke="#bfbfbf" points="878,-292.5 878,-311.5 918,-311.5 918,-292.5 878,-292.5"/>
<text text-anchor="middle" x="898" y="-299.5" font-family="Helvetica,sans-Serif" font-size="10.00">limits</text>
</g>
<!-- Node14&#45;&gt;Node15 -->
<g id="edge16" class="edge"><title>Node14&#45;&gt;Node15</title>
<path fill="none" stroke="midnightblue" d="M927.22,-348.083C922.328,-340.534 915.173,-329.495 909.167,-320.23"/>
<polygon fill="midnightblue" stroke="midnightblue" points="912.048,-318.239 903.672,-311.751 906.174,-322.046 912.048,-318.239"/>
</g>
<!-- Node16 -->
<g id="node16" class="node"><title>Node16</title>
<g id="a_node16"><a xlink:href="Index_8inl.html" target="_top" xlink:title="Core/Index/Index.inl">
<polygon fill="white" stroke="black" points="936,-292.5 936,-311.5 1040,-311.5 1040,-292.5 936,-292.5"/>
<text text-anchor="middle" x="988" y="-299.5" font-family="Helvetica,sans-Serif" font-size="10.00">Core/Index/Index.inl</text>
</a>
</g>
</g>
<!-- Node14&#45;&gt;Node16 -->
<g id="edge17" class="edge"><title>Node14&#45;&gt;Node16</title>
<path fill="none" stroke="midnightblue" d="M942.082,-348.083C950.171,-340.141 962.195,-328.335 971.91,-318.797"/>
<polygon fill="midnightblue" stroke="midnightblue" points="974.403,-321.254 979.087,-311.751 969.499,-316.26 974.403,-321.254"/>
</g>
<!-- Node19 -->
<g id="node19" class="node"><title>Node19</title>
<g id="a_node19"><a xlink:href="RaGuiBase_8hpp.html" target="_top" xlink:title="GuiBase/RaGuiBase.hpp">
<polygon fill="white" stroke="black" points="219,-112.5 219,-131.5 345,-131.5 345,-112.5 219,-112.5"/>
<text text-anchor="middle" x="282" y="-119.5" font-family="Helvetica,sans-Serif" font-size="10.00">GuiBase/RaGuiBase.hpp</text>
</a>
</g>
</g>
<!-- Node18&#45;&gt;Node19 -->
<g id="edge21" class="edge"><title>Node18&#45;&gt;Node19</title>
<path fill="none" stroke="midnightblue" d="M511.023,-348.488C391.73,-328.461 111.864,-274.38 57,-200 15.3417,-143.523 128.201,-128.098 208.75,-124.109"/>
<polygon fill="midnightblue" stroke="midnightblue" points="209.059,-127.599 218.893,-123.658 208.747,-120.606 209.059,-127.599"/>
</g>
<!-- Node20 -->
<g id="node20" class="node"><title>Node20</title>
<g id="a_node20"><a xlink:href="Renderer_8hpp.html" target="_top" xlink:title="Engine/Renderer/Renderer.hpp">
<polygon fill="white" stroke="black" points="599.5,-292.5 599.5,-311.5 750.5,-311.5 750.5,-292.5 599.5,-292.5"/>
<text text-anchor="middle" x="675" y="-299.5" font-family="Helvetica,sans-Serif" font-size="10.00">Engine/Renderer/Renderer.hpp</text>
</a>
</g>
</g>
<!-- Node18&#45;&gt;Node20 -->
<g id="edge23" class="edge"><title>Node18&#45;&gt;Node20</title>
<path fill="none" stroke="midnightblue" d="M582.673,-348.324C600.394,-339.625 627.903,-326.12 648.288,-316.113"/>
<polygon fill="midnightblue" stroke="midnightblue" points="649.936,-319.203 657.37,-311.655 646.851,-312.919 649.936,-319.203"/>
</g>
<!-- Node38 -->
<g id="node38" class="node"><title>Node38</title>
<polygon fill="white" stroke="#bfbfbf" points="768.5,-292.5 768.5,-311.5 821.5,-311.5 821.5,-292.5 768.5,-292.5"/>
<text text-anchor="middle" x="795" y="-299.5" font-family="Helvetica,sans-Serif" font-size="10.00">QObject</text>
</g>
<!-- Node18&#45;&gt;Node38 -->
<g id="edge50" class="edge"><title>Node18&#45;&gt;Node38</title>
<path fill="none" stroke="midnightblue" d="M602.598,-348.479C639.651,-340.036 698.137,-326.593 758.229,-312.155"/>
<polygon fill="midnightblue" stroke="midnightblue" points="759.374,-315.479 768.276,-309.735 757.735,-308.674 759.374,-315.479"/>
</g>
<!-- Node19&#45;&gt;Node4 -->
<g id="edge22" class="edge"><title>Node19&#45;&gt;Node4</title>
<path fill="none" stroke="midnightblue" d="M328.11,-112.444C379.406,-102.925 462.273,-87.5472 517.191,-77.3563"/>
<polygon fill="midnightblue" stroke="midnightblue" points="517.912,-80.7823 527.106,-75.5164 516.635,-73.8998 517.912,-80.7823"/>
</g>
<!-- Node20&#45;&gt;Node3 -->
<g id="edge24" class="edge"><title>Node20&#45;&gt;Node3</title>
<path fill="none" stroke="midnightblue" d="M750.554,-292.882C753.405,-292.583 756.228,-292.288 759,-292 914.363,-275.844 955.965,-274.969 1115.19,-256.056"/>
<polygon fill="midnightblue" stroke="midnightblue" points="1115.83,-259.504 1125.35,-254.844 1115,-252.553 1115.83,-259.504"/>
</g>
<!-- Node20&#45;&gt;Node10 -->
<g id="edge29" class="edge"><title>Node20&#45;&gt;Node10</title>
<path fill="none" stroke="midnightblue" d="M750.764,-292.923C811.247,-285.797 898.26,-274.032 982.724,-256.028"/>
<polygon fill="midnightblue" stroke="midnightblue" points="983.709,-259.396 992.743,-253.86 982.229,-252.554 983.709,-259.396"/>
</g>
<!-- Node20&#45;&gt;Node11 -->
<g id="edge27" class="edge"><title>Node20&#45;&gt;Node11</title>
<path fill="none" stroke="midnightblue" d="M749.229,-292.472C841.86,-281.759 993.423,-263.971 1044.85,-255.677"/>
<polygon fill="midnightblue" stroke="midnightblue" points="1045.48,-259.121 1054.74,-253.965 1044.29,-252.224 1045.48,-259.121"/>
</g>
<!-- Node21 -->
<g id="node21" class="node"><title>Node21</title>
<polygon fill="white" stroke="#bfbfbf" points="386,-236.5 386,-255.5 424,-255.5 424,-236.5 386,-236.5"/>
<text text-anchor="middle" x="405" y="-243.5" font-family="Helvetica,sans-Serif" font-size="10.00">array</text>
</g>
<!-- Node20&#45;&gt;Node21 -->
<g id="edge25" class="edge"><title>Node20&#45;&gt;Node21</title>
<path fill="none" stroke="midnightblue" d="M617.837,-292.475C570.829,-284.988 502.351,-272.994 434.232,-256.057"/>
<polygon fill="midnightblue" stroke="midnightblue" points="434.739,-252.575 424.187,-253.522 433.026,-259.362 434.739,-252.575"/>
</g>
<!-- Node22 -->
<g id="node22" class="node"><title>Node22</title>
<polygon fill="white" stroke="#bfbfbf" points="931,-174.5 931,-193.5 977,-193.5 977,-174.5 931,-174.5"/>
<text text-anchor="middle" x="954" y="-181.5" font-family="Helvetica,sans-Serif" font-size="10.00">chrono</text>
</g>
<!-- Node20&#45;&gt;Node22 -->
<g id="edge26" class="edge"><title>Node20&#45;&gt;Node22</title>
<path fill="none" stroke="midnightblue" d="M697.147,-292.368C719.136,-283.658 753.702,-269.59 783,-256 800.671,-247.803 804.223,-243.966 822,-236 855.2,-221.123 894.158,-206.393 921.104,-196.617"/>
<polygon fill="midnightblue" stroke="midnightblue" points="922.584,-199.804 930.806,-193.123 920.212,-193.218 922.584,-199.804"/>
</g>
<!-- Node23 -->
<g id="node23" class="node"><title>Node23</title>
<polygon fill="white" stroke="#bfbfbf" points="442,-236.5 442,-255.5 486,-255.5 486,-236.5 442,-236.5"/>
<text text-anchor="middle" x="464" y="-243.5" font-family="Helvetica,sans-Serif" font-size="10.00">mutex</text>
</g>
<!-- Node20&#45;&gt;Node23 -->
<g id="edge28" class="edge"><title>Node20&#45;&gt;Node23</title>
<path fill="none" stroke="midnightblue" d="M639.038,-292.431C604.692,-284.153 551.243,-271.03 496.243,-256.266"/>
<polygon fill="midnightblue" stroke="midnightblue" points="496.889,-252.815 486.323,-253.589 495.066,-259.574 496.889,-252.815"/>
</g>
<!-- Node24 -->
<g id="node24" class="node"><title>Node24</title>
<g id="a_node24"><a xlink:href="EventEnums_8hpp.html" target="_top" xlink:title="Core/Event/EventEnums.hpp">
<polygon fill="white" stroke="black" points="831,-236.5 831,-255.5 975,-255.5 975,-236.5 831,-236.5"/>
<text text-anchor="middle" x="903" y="-243.5" font-family="Helvetica,sans-Serif" font-size="10.00">Core/Event/EventEnums.hpp</text>
</a>
</g>
</g>
<!-- Node20&#45;&gt;Node24 -->
<g id="edge30" class="edge"><title>Node20&#45;&gt;Node24</title>
<path fill="none" stroke="midnightblue" d="M711.127,-292.444C750.651,-283.083 814.097,-268.056 857.113,-257.868"/>
<polygon fill="midnightblue" stroke="midnightblue" points="858.118,-261.227 867.042,-255.516 856.504,-254.415 858.118,-261.227"/>
</g>
<!-- Node26 -->
<g id="node26" class="node"><title>Node26</title>
<g id="a_node26"><a xlink:href="LinearAlgebra_8hpp.html" target="_top" xlink:title="Core/Math/LinearAlgebra.hpp">
<polygon fill="white" stroke="black" points="504.5,-236.5 504.5,-255.5 647.5,-255.5 647.5,-236.5 504.5,-236.5"/>
<text text-anchor="middle" x="576" y="-243.5" font-family="Helvetica,sans-Serif" font-size="10.00">Core/Math/LinearAlgebra.hpp</text>
</a>
</g>
</g>
<!-- Node20&#45;&gt;Node26 -->
<g id="edge33" class="edge"><title>Node20&#45;&gt;Node26</title>
<path fill="none" stroke="midnightblue" d="M659.094,-292.324C643.362,-283.743 619.058,-270.486 600.791,-260.522"/>
<polygon fill="midnightblue" stroke="midnightblue" points="602.322,-257.37 591.867,-255.655 598.97,-263.516 602.322,-257.37"/>
</g>
<!-- Node37 -->
<g id="node37" class="node"><title>Node37</title>
<g id="a_node37"><a xlink:href="Timer_8hpp.html" target="_top" xlink:title="Core/Time/Timer.hpp">
<polygon fill="white" stroke="black" points="665.5,-236.5 665.5,-255.5 774.5,-255.5 774.5,-236.5 665.5,-236.5"/>
<text text-anchor="middle" x="720" y="-243.5" font-family="Helvetica,sans-Serif" font-size="10.00">Core/Time/Timer.hpp</text>
</a>
</g>
</g>
<!-- Node20&#45;&gt;Node37 -->
<g id="edge47" class="edge"><title>Node20&#45;&gt;Node37</title>
<path fill="none" stroke="midnightblue" d="M682.431,-292.083C688.853,-284.377 698.306,-273.033 706.122,-263.653"/>
<polygon fill="midnightblue" stroke="midnightblue" points="708.994,-265.674 712.707,-255.751 703.617,-261.193 708.994,-265.674"/>
</g>
<!-- Node25 -->
<g id="node25" class="node"><title>Node25</title>
<g id="a_node25"><a xlink:href="RaCore_8hpp.html" target="_top" xlink:title="Core/RaCore.hpp">
<polygon fill="white" stroke="black" points="818.5,-112.5 818.5,-131.5 911.5,-131.5 911.5,-112.5 818.5,-112.5"/>
<text text-anchor="middle" x="865" y="-119.5" font-family="Helvetica,sans-Serif" font-size="10.00">Core/RaCore.hpp</text>
</a>
</g>
</g>
<!-- Node24&#45;&gt;Node25 -->
<g id="edge31" class="edge"><title>Node24&#45;&gt;Node25</title>
<path fill="none" stroke="midnightblue" d="M935.185,-236.488C953.539,-229.801 975.016,-218.45 986,-200 993.275,-187.78 994.117,-179.679 986,-168 971.329,-146.891 945.515,-135.664 921.488,-129.701"/>
<polygon fill="midnightblue" stroke="midnightblue" points="922.214,-126.277 911.693,-127.525 920.695,-133.111 922.214,-126.277"/>
</g>
<!-- Node25&#45;&gt;Node4 -->
<g id="edge32" class="edge"><title>Node25&#45;&gt;Node4</title>
<path fill="none" stroke="midnightblue" d="M818.732,-112.444C767.259,-102.925 684.107,-87.5472 629.001,-77.3563"/>
<polygon fill="midnightblue" stroke="midnightblue" points="629.522,-73.8933 619.052,-75.5164 628.249,-80.7766 629.522,-73.8933"/>
</g>
<!-- Node26&#45;&gt;Node25 -->
<g id="edge34" class="edge"><title>Node26&#45;&gt;Node25</title>
<path fill="none" stroke="midnightblue" d="M637.125,-236.483C714.11,-225.507 837.349,-207.003 845,-200 861.046,-185.313 864.918,-159.552 865.523,-141.903"/>
<polygon fill="midnightblue" stroke="midnightblue" points="869.023,-141.681 865.543,-131.674 862.023,-141.667 869.023,-141.681"/>
</g>
<!-- Node27 -->
<g id="node27" class="node"><title>Node27</title>
<polygon fill="white" stroke="#bfbfbf" points="449.5,-174.5 449.5,-193.5 514.5,-193.5 514.5,-174.5 449.5,-174.5"/>
<text text-anchor="middle" x="482" y="-181.5" font-family="Helvetica,sans-Serif" font-size="10.00">Eigen/Core</text>
</g>
<!-- Node26&#45;&gt;Node27 -->
<g id="edge35" class="edge"><title>Node26&#45;&gt;Node27</title>
<path fill="none" stroke="midnightblue" d="M562.532,-236.403C547.315,-226.691 522.313,-210.732 504.199,-199.17"/>
<polygon fill="midnightblue" stroke="midnightblue" points="505.755,-196.011 495.443,-193.581 501.989,-201.911 505.755,-196.011"/>
</g>
<!-- Node28 -->
<g id="node28" class="node"><title>Node28</title>
<polygon fill="white" stroke="#bfbfbf" points="532.5,-174.5 532.5,-193.5 619.5,-193.5 619.5,-174.5 532.5,-174.5"/>
<text text-anchor="middle" x="576" y="-181.5" font-family="Helvetica,sans-Serif" font-size="10.00">Eigen/Geometry</text>
</g>
<!-- Node26&#45;&gt;Node28 -->
<g id="edge36" class="edge"><title>Node26&#45;&gt;Node28</title>
<path fill="none" stroke="midnightblue" d="M576,-236.403C576,-227.938 576,-214.728 576,-203.82"/>
<polygon fill="midnightblue" stroke="midnightblue" points="579.5,-203.581 576,-193.581 572.5,-203.581 579.5,-203.581"/>
</g>
<!-- Node29 -->
<g id="node29" class="node"><title>Node29</title>
<polygon fill="white" stroke="#bfbfbf" points="761.5,-174.5 761.5,-193.5 836.5,-193.5 836.5,-174.5 761.5,-174.5"/>
<text text-anchor="middle" x="799" y="-181.5" font-family="Helvetica,sans-Serif" font-size="10.00">Eigen/Sparse</text>
</g>
<!-- Node26&#45;&gt;Node29 -->
<g id="edge37" class="edge"><title>Node26&#45;&gt;Node29</title>
<path fill="none" stroke="midnightblue" d="M611.897,-236.475C647.581,-227.847 703.802,-213.84 752,-200 755.782,-198.914 759.72,-197.735 763.636,-196.531"/>
<polygon fill="midnightblue" stroke="midnightblue" points="764.729,-199.856 773.225,-193.526 762.636,-193.176 764.729,-199.856"/>
</g>
<!-- Node30 -->
<g id="node30" class="node"><title>Node30</title>
<polygon fill="white" stroke="#bfbfbf" points="66.5,-174.5 66.5,-193.5 125.5,-193.5 125.5,-174.5 66.5,-174.5"/>
<text text-anchor="middle" x="96" y="-181.5" font-family="Helvetica,sans-Serif" font-size="10.00">functional</text>
</g>
<!-- Node26&#45;&gt;Node30 -->
<g id="edge38" class="edge"><title>Node26&#45;&gt;Node30</title>
<path fill="none" stroke="midnightblue" d="M504.45,-237.106C500.917,-236.729 497.418,-236.359 494,-236 334.079,-219.228 290.272,-237.881 134,-200 130.76,-199.215 127.429,-198.212 124.15,-197.099"/>
<polygon fill="midnightblue" stroke="midnightblue" points="125.201,-193.755 114.608,-193.531 122.749,-200.312 125.201,-193.755"/>
</g>
<!-- Node31 -->
<g id="node31" class="node"><title>Node31</title>
<polygon fill="white" stroke="#bfbfbf" points="143.5,-169 143.5,-199 276.5,-199 276.5,-169 143.5,-169"/>
<text text-anchor="start" x="151.5" y="-187" font-family="Helvetica,sans-Serif" font-size="10.00">unsupported/Eigen/Aligned</text>
<text text-anchor="middle" x="210" y="-176" font-family="Helvetica,sans-Serif" font-size="10.00">Vector3</text>
</g>
<!-- Node26&#45;&gt;Node31 -->
<g id="edge39" class="edge"><title>Node26&#45;&gt;Node31</title>
<path fill="none" stroke="midnightblue" d="M515.681,-236.462C458.985,-228.258 371.508,-215.142 286.688,-200.259"/>
<polygon fill="midnightblue" stroke="midnightblue" points="287.084,-196.775 276.628,-198.484 285.867,-203.669 287.084,-196.775"/>
</g>
<!-- Node32 -->
<g id="node32" class="node"><title>Node32</title>
<g id="a_node32"><a xlink:href="Math_8hpp.html" target="_top" xlink:title="Core/Math/Math.hpp">
<polygon fill="white" stroke="black" points="638,-174.5 638,-193.5 744,-193.5 744,-174.5 638,-174.5"/>
<text text-anchor="middle" x="691" y="-181.5" font-family="Helvetica,sans-Serif" font-size="10.00">Core/Math/Math.hpp</text>
</a>
</g>
</g>
<!-- Node26&#45;&gt;Node32 -->
<g id="edge40" class="edge"><title>Node26&#45;&gt;Node32</title>
<path fill="none" stroke="midnightblue" d="M592.477,-236.403C611.605,-226.423 643.373,-209.849 665.652,-198.225"/>
<polygon fill="midnightblue" stroke="midnightblue" points="667.307,-201.309 674.554,-193.581 664.069,-195.103 667.307,-201.309"/>
</g>
<!-- Node36 -->
<g id="node36" class="node"><title>Node36</title>
<g id="a_node36"><a xlink:href="LinearAlgebra_8inl.html" target="_top" xlink:title="Core/Math/LinearAlgebra.inl">
<polygon fill="white" stroke="black" points="294.5,-174.5 294.5,-193.5 431.5,-193.5 431.5,-174.5 294.5,-174.5"/>
<text text-anchor="middle" x="363" y="-181.5" font-family="Helvetica,sans-Serif" font-size="10.00">Core/Math/LinearAlgebra.inl</text>
</a>
</g>
</g>
<!-- Node26&#45;&gt;Node36 -->
<g id="edge46" class="edge"><title>Node26&#45;&gt;Node36</title>
<path fill="none" stroke="midnightblue" d="M545.482,-236.403C508.075,-225.866 444.573,-207.978 403.213,-196.328"/>
<polygon fill="midnightblue" stroke="midnightblue" points="404.036,-192.923 393.461,-193.581 402.137,-199.661 404.036,-192.923"/>
</g>
<!-- Node32&#45;&gt;Node25 -->
<g id="edge41" class="edge"><title>Node32&#45;&gt;Node25</title>
<path fill="none" stroke="midnightblue" d="M715.93,-174.403C746.036,-164.022 796.832,-146.506 830.638,-134.849"/>
<polygon fill="midnightblue" stroke="midnightblue" points="831.804,-138.149 840.116,-131.581 829.522,-131.532 831.804,-138.149"/>
</g>
<!-- Node33 -->
<g id="node33" class="node"><title>Node33</title>
<polygon fill="white" stroke="#bfbfbf" points="673,-112.5 673,-131.5 729,-131.5 729,-112.5 673,-112.5"/>
<text text-anchor="middle" x="701" y="-119.5" font-family="Helvetica,sans-Serif" font-size="10.00">algorithm</text>
</g>
<!-- Node32&#45;&gt;Node33 -->
<g id="edge42" class="edge"><title>Node32&#45;&gt;Node33</title>
<path fill="none" stroke="midnightblue" d="M692.433,-174.403C693.859,-165.849 696.092,-152.45 697.921,-141.476"/>
<polygon fill="midnightblue" stroke="midnightblue" points="701.378,-142.02 699.57,-131.581 694.473,-140.869 701.378,-142.02"/>
</g>
<!-- Node34 -->
<g id="node34" class="node"><title>Node34</title>
<polygon fill="white" stroke="#bfbfbf" points="747,-112.5 747,-131.5 791,-131.5 791,-112.5 747,-112.5"/>
<text text-anchor="middle" x="769" y="-119.5" font-family="Helvetica,sans-Serif" font-size="10.00">cmath</text>
</g>
<!-- Node32&#45;&gt;Node34 -->
<g id="edge43" class="edge"><title>Node32&#45;&gt;Node34</title>
<path fill="none" stroke="midnightblue" d="M702.175,-174.403C714.571,-164.869 734.79,-149.315 749.746,-137.811"/>
<polygon fill="midnightblue" stroke="midnightblue" points="752.053,-140.452 757.845,-131.581 747.785,-134.904 752.053,-140.452"/>
</g>
<!-- Node35 -->
<g id="node35" class="node"><title>Node35</title>
<g id="a_node35"><a xlink:href="Math_8inl.html" target="_top" xlink:title="Core/Math/Math.inl">
<polygon fill="white" stroke="black" points="555,-112.5 555,-131.5 655,-131.5 655,-112.5 555,-112.5"/>
<text text-anchor="middle" x="605" y="-119.5" font-family="Helvetica,sans-Serif" font-size="10.00">Core/Math/Math.inl</text>
</a>
</g>
</g>
<!-- Node32&#45;&gt;Node35 -->
<g id="edge44" class="edge"><title>Node32&#45;&gt;Node35</title>
<path fill="none" stroke="midnightblue" d="M673.778,-174.403C658.049,-164.869 635.418,-149.315 620.315,-137.811"/>
<polygon fill="midnightblue" stroke="midnightblue" points="622.424,-135.016 612.402,-131.581 618.094,-140.516 622.424,-135.016"/>
</g>
<!-- Node35&#45;&gt;Node32 -->
<g id="edge45" class="edge"><title>Node35&#45;&gt;Node32</title>
<path fill="none" stroke="midnightblue" d="M622.196,-131.581C637.917,-141.109 660.548,-156.661 675.659,-168.17"/>
<polygon fill="midnightblue" stroke="midnightblue" points="673.556,-170.969 683.579,-174.403 677.886,-165.468 673.556,-170.969"/>
</g>
<!-- Node37&#45;&gt;Node22 -->
<g id="edge49" class="edge"><title>Node37&#45;&gt;Node22</title>
<path fill="none" stroke="midnightblue" d="M767.135,-236.446C807.403,-228.615 866.636,-215.848 917,-200 919.636,-199.17 922.349,-198.235 925.051,-197.248"/>
<polygon fill="midnightblue" stroke="midnightblue" points="926.568,-200.413 934.628,-193.536 924.039,-193.886 926.568,-200.413"/>
</g>
<!-- Node37&#45;&gt;Node25 -->
<g id="edge48" class="edge"><title>Node37&#45;&gt;Node25</title>
<path fill="none" stroke="midnightblue" d="M774.596,-236.696C815.398,-229.243 866.238,-216.875 879,-200 892.017,-182.788 883.493,-157.294 875.146,-140.42"/>
<polygon fill="midnightblue" stroke="midnightblue" points="878.23,-138.765 870.417,-131.609 872.063,-142.075 878.23,-138.765"/>
</g>
</g>
</svg>
