<?xml version="1.0" encoding="UTF-8" standalone="no"?>
<!DOCTYPE svg PUBLIC "-//W3C//DTD SVG 1.1//EN"
 "http://www.w3.org/Graphics/SVG/1.1/DTD/svg11.dtd">
<!-- Generated by graphviz version 2.36.0 (20140111.2315)
 -->
<!-- Title: /home/travis/build/STORM&#45;IRIT/Radium&#45;Engine/src/Core/File/KeyFrame/AnimationTime.hpp Pages: 1 -->
<svg width="2571pt" height="680pt"
 viewBox="0.00 0.00 2571.00 680.00" xmlns="http://www.w3.org/2000/svg" xmlns:xlink="http://www.w3.org/1999/xlink">
<g id="graph0" class="graph" transform="scale(1 1) rotate(0) translate(4 676)">
<title>/home/travis/build/STORM&#45;IRIT/Radium&#45;Engine/src/Core/File/KeyFrame/AnimationTime.hpp</title>
<polygon fill="white" stroke="none" points="-4,4 -4,-676 2567,-676 2567,4 -4,4"/>
<!-- Node1 -->
<g id="node1" class="node"><title>Node1</title>
<polygon fill="#bfbfbf" stroke="black" points="1653,-619 1653,-671 1801,-671 1801,-619 1653,-619"/>
<text text-anchor="start" x="1661" y="-659" font-family="Helvetica,sans-Serif" font-size="10.00">/home/travis/build</text>
<text text-anchor="start" x="1661" y="-648" font-family="Helvetica,sans-Serif" font-size="10.00">/STORM&#45;IRIT/Radium&#45;Engine</text>
<text text-anchor="start" x="1661" y="-637" font-family="Helvetica,sans-Serif" font-size="10.00">/src/Core/File/KeyFrame</text>
<text text-anchor="middle" x="1727" y="-626" font-family="Helvetica,sans-Serif" font-size="10.00">/AnimationTime.hpp</text>
</g>
<!-- Node2 -->
<g id="node2" class="node"><title>Node2</title>
<g id="a_node2"><a xlink:href="AnimationData_8hpp.html" target="_top" xlink:title="/home/travis/build\l/STORM&#45;IRIT/Radium&#45;Engine\l/src/Core/File/AnimationData.hpp">
<polygon fill="white" stroke="black" points="1863,-354.5 1863,-395.5 2025,-395.5 2025,-354.5 1863,-354.5"/>
<text text-anchor="start" x="1871" y="-383.5" font-family="Helvetica,sans-Serif" font-size="10.00">/home/travis/build</text>
<text text-anchor="start" x="1871" y="-372.5" font-family="Helvetica,sans-Serif" font-size="10.00">/STORM&#45;IRIT/Radium&#45;Engine</text>
<text text-anchor="middle" x="1944" y="-361.5" font-family="Helvetica,sans-Serif" font-size="10.00">/src/Core/File/AnimationData.hpp</text>
</a>
</g>
</g>
<!-- Node1&#45;&gt;Node2 -->
<g id="edge1" class="edge"><title>Node1&#45;&gt;Node2</title>
<path fill="none" stroke="midnightblue" d="M1810.69,-617.543C1868.44,-594.41 1940.9,-554.549 1976,-492 1993.48,-460.846 1973.33,-419.555 1958.02,-395.569"/>
<polygon fill="midnightblue" stroke="midnightblue" points="1809.23,-614.355 1801.19,-621.252 1811.78,-620.875 1809.23,-614.355"/>
</g>
<!-- Node25 -->
<g id="node25" class="node"><title>Node25</title>
<g id="a_node25"><a xlink:href="KeyFrame_8hpp.html" target="_top" xlink:title="/home/travis/build\l/STORM&#45;IRIT/Radium&#45;Engine\l/src/Core/File/KeyFrame\l/KeyFrame.hpp">
<polygon fill="white" stroke="black" points="1653,-529 1653,-581 1801,-581 1801,-529 1653,-529"/>
<text text-anchor="start" x="1661" y="-569" font-family="Helvetica,sans-Serif" font-size="10.00">/home/travis/build</text>
<text text-anchor="start" x="1661" y="-558" font-family="Helvetica,sans-Serif" font-size="10.00">/STORM&#45;IRIT/Radium&#45;Engine</text>
<text text-anchor="start" x="1661" y="-547" font-family="Helvetica,sans-Serif" font-size="10.00">/src/Core/File/KeyFrame</text>
<text text-anchor="middle" x="1727" y="-536" font-family="Helvetica,sans-Serif" font-size="10.00">/KeyFrame.hpp</text>
</a>
</g>
</g>
<!-- Node1&#45;&gt;Node25 -->
<g id="edge28" class="edge"><title>Node1&#45;&gt;Node25</title>
<path fill="none" stroke="midnightblue" d="M1727,-608.489C1727,-599.309 1727,-589.616 1727,-581.092"/>
<polygon fill="midnightblue" stroke="midnightblue" points="1723.5,-608.547 1727,-618.547 1730.5,-608.547 1723.5,-608.547"/>
</g>
<!-- Node31 -->
<g id="node31" class="node"><title>Node31</title>
<g id="a_node31"><a xlink:href="AssimpAnimationDataLoader_8hpp.html" target="_top" xlink:title="/home/travis/build\l/STORM&#45;IRIT/Radium&#45;Engine\l/src/IO/AssimpLoader/AssimpAnimation\lDataLoader.hpp">
<polygon fill="white" stroke="black" points="1303.5,-349 1303.5,-401 1494.5,-401 1494.5,-349 1303.5,-349"/>
<text text-anchor="start" x="1311.5" y="-389" font-family="Helvetica,sans-Serif" font-size="10.00">/home/travis/build</text>
<text text-anchor="start" x="1311.5" y="-378" font-family="Helvetica,sans-Serif" font-size="10.00">/STORM&#45;IRIT/Radium&#45;Engine</text>
<text text-anchor="start" x="1311.5" y="-367" font-family="Helvetica,sans-Serif" font-size="10.00">/src/IO/AssimpLoader/AssimpAnimation</text>
<text text-anchor="middle" x="1399" y="-356" font-family="Helvetica,sans-Serif" font-size="10.00">DataLoader.hpp</text>
</a>
</g>
</g>
<!-- Node1&#45;&gt;Node31 -->
<g id="edge40" class="edge"><title>Node1&#45;&gt;Node31</title>
<path fill="none" stroke="midnightblue" d="M1643.05,-618.34C1579.28,-594.878 1493.68,-554.235 1440,-492 1417.54,-465.96 1407.11,-426.792 1402.47,-401.309"/>
<polygon fill="midnightblue" stroke="midnightblue" points="1642.09,-621.716 1652.69,-621.818 1644.47,-615.132 1642.09,-621.716"/>
</g>
<!-- Node3 -->
<g id="node3" class="node"><title>Node3</title>
<g id="a_node3"><a xlink:href="AnimationData_8cpp.html" target="_top" xlink:title="/home/travis/build\l/STORM&#45;IRIT/Radium&#45;Engine\l/src/Core/File/AnimationData.cpp">
<polygon fill="white" stroke="black" points="1803,-264.5 1803,-305.5 1965,-305.5 1965,-264.5 1803,-264.5"/>
<text text-anchor="start" x="1811" y="-293.5" font-family="Helvetica,sans-Serif" font-size="10.00">/home/travis/build</text>
<text text-anchor="start" x="1811" y="-282.5" font-family="Helvetica,sans-Serif" font-size="10.00">/STORM&#45;IRIT/Radium&#45;Engine</text>
<text text-anchor="middle" x="1884" y="-271.5" font-family="Helvetica,sans-Serif" font-size="10.00">/src/Core/File/AnimationData.cpp</text>
</a>
</g>
</g>
<!-- Node2&#45;&gt;Node3 -->
<g id="edge2" class="edge"><title>Node2&#45;&gt;Node3</title>
<path fill="none" stroke="midnightblue" d="M1924.8,-345.845C1915.9,-332.793 1905.54,-317.594 1897.49,-305.78"/>
<polygon fill="midnightblue" stroke="midnightblue" points="1922.16,-348.179 1930.68,-354.47 1927.94,-344.236 1922.16,-348.179"/>
</g>
<!-- Node4 -->
<g id="node4" class="node"><title>Node4</title>
<g id="a_node4"><a xlink:href="AnimationData_8inl.html" target="_top" xlink:title="/home/travis/build\l/STORM&#45;IRIT/Radium&#45;Engine\l/src/Core/File/AnimationData.inl">
<polygon fill="white" stroke="black" points="1983,-264.5 1983,-305.5 2139,-305.5 2139,-264.5 1983,-264.5"/>
<text text-anchor="start" x="1991" y="-293.5" font-family="Helvetica,sans-Serif" font-size="10.00">/home/travis/build</text>
<text text-anchor="start" x="1991" y="-282.5" font-family="Helvetica,sans-Serif" font-size="10.00">/STORM&#45;IRIT/Radium&#45;Engine</text>
<text text-anchor="middle" x="2061" y="-271.5" font-family="Helvetica,sans-Serif" font-size="10.00">/src/Core/File/AnimationData.inl</text>
</a>
</g>
</g>
<!-- Node2&#45;&gt;Node4 -->
<g id="edge3" class="edge"><title>Node2&#45;&gt;Node4</title>
<path fill="none" stroke="midnightblue" d="M1972.24,-348.081C1989.38,-334.558 2011.18,-318.276 2028.96,-305.78"/>
<polygon fill="midnightblue" stroke="midnightblue" points="1969.88,-345.494 1964.25,-354.47 1974.24,-350.964 1969.88,-345.494"/>
</g>
<!-- Node5 -->
<g id="node5" class="node"><title>Node5</title>
<g id="a_node5"><a xlink:href="FileData_8inl.html" target="_top" xlink:title="/home/travis/build\l/STORM&#45;IRIT/Radium&#45;Engine\l/src/Core/File/FileData.inl">
<polygon fill="white" stroke="black" points="1637,-264.5 1637,-305.5 1785,-305.5 1785,-264.5 1637,-264.5"/>
<text text-anchor="start" x="1645" y="-293.5" font-family="Helvetica,sans-Serif" font-size="10.00">/home/travis/build</text>
<text text-anchor="start" x="1645" y="-282.5" font-family="Helvetica,sans-Serif" font-size="10.00">/STORM&#45;IRIT/Radium&#45;Engine</text>
<text text-anchor="middle" x="1711" y="-271.5" font-family="Helvetica,sans-Serif" font-size="10.00">/src/Core/File/FileData.inl</text>
</a>
</g>
</g>
<!-- Node2&#45;&gt;Node5 -->
<g id="edge5" class="edge"><title>Node2&#45;&gt;Node5</title>
<path fill="none" stroke="midnightblue" d="M1882.56,-350.794C1845.32,-336.732 1798.35,-318.989 1762.97,-305.627"/>
<polygon fill="midnightblue" stroke="midnightblue" points="1881.7,-354.211 1892.29,-354.47 1884.17,-347.662 1881.7,-354.211"/>
</g>
<!-- Node20 -->
<g id="node20" class="node"><title>Node20</title>
<g id="a_node20"><a xlink:href="AssimpAnimationDataLoader_8cpp.html" target="_top" xlink:title="/home/travis/build\l/STORM&#45;IRIT/Radium&#45;Engine\l/src/IO/AssimpLoader/AssimpAnimation\lDataLoader.cpp">
<polygon fill="white" stroke="black" points="1427.5,-259 1427.5,-311 1618.5,-311 1618.5,-259 1427.5,-259"/>
<text text-anchor="start" x="1435.5" y="-299" font-family="Helvetica,sans-Serif" font-size="10.00">/home/travis/build</text>
<text text-anchor="start" x="1435.5" y="-288" font-family="Helvetica,sans-Serif" font-size="10.00">/STORM&#45;IRIT/Radium&#45;Engine</text>
<text text-anchor="start" x="1435.5" y="-277" font-family="Helvetica,sans-Serif" font-size="10.00">/src/IO/AssimpLoader/AssimpAnimation</text>
<text text-anchor="middle" x="1523" y="-266" font-family="Helvetica,sans-Serif" font-size="10.00">DataLoader.cpp</text>
</a>
</g>
</g>
<!-- Node2&#45;&gt;Node20 -->
<g id="edge20" class="edge"><title>Node2&#45;&gt;Node20</title>
<path fill="none" stroke="midnightblue" d="M1852.97,-357.362C1789.7,-345.5 1703.51,-328.746 1628,-312 1624.88,-311.309 1621.72,-310.595 1618.52,-309.864"/>
<polygon fill="midnightblue" stroke="midnightblue" points="1852.45,-360.826 1862.92,-359.223 1853.73,-353.945 1852.45,-360.826"/>
</g>
<!-- Node21 -->
<g id="node21" class="node"><title>Node21</title>
<g id="a_node21"><a xlink:href="AnimationComponent_8hpp.html" target="_top" xlink:title="/home/travis/build\l/STORM&#45;IRIT/Radium&#45;Engine\l/Plugins/Animation/src/Animation\lComponent.hpp">
<polygon fill="white" stroke="black" points="2157.5,-259 2157.5,-311 2318.5,-311 2318.5,-259 2157.5,-259"/>
<text text-anchor="start" x="2165.5" y="-299" font-family="Helvetica,sans-Serif" font-size="10.00">/home/travis/build</text>
<text text-anchor="start" x="2165.5" y="-288" font-family="Helvetica,sans-Serif" font-size="10.00">/STORM&#45;IRIT/Radium&#45;Engine</text>
<text text-anchor="start" x="2165.5" y="-277" font-family="Helvetica,sans-Serif" font-size="10.00">/Plugins/Animation/src/Animation</text>
<text text-anchor="middle" x="2238" y="-266" font-family="Helvetica,sans-Serif" font-size="10.00">Component.hpp</text>
</a>
</g>
</g>
<!-- Node2&#45;&gt;Node21 -->
<g id="edge21" class="edge"><title>Node2&#45;&gt;Node21</title>
<path fill="none" stroke="midnightblue" d="M2018.94,-351.569C2061.29,-338.894 2114.23,-323.047 2157.46,-310.107"/>
<polygon fill="midnightblue" stroke="midnightblue" points="2017.82,-348.249 2009.25,-354.47 2019.83,-354.955 2017.82,-348.249"/>
</g>
<!-- Node4&#45;&gt;Node2 -->
<g id="edge4" class="edge"><title>Node4&#45;&gt;Node2</title>
<path fill="none" stroke="midnightblue" d="M2032.41,-312.19C2015.22,-325.75 1993.41,-342.025 1975.69,-354.47"/>
<polygon fill="midnightblue" stroke="midnightblue" points="2034.81,-314.753 2040.45,-305.78 2030.45,-309.281 2034.81,-314.753"/>
</g>
<!-- Node6 -->
<g id="node6" class="node"><title>Node6</title>
<g id="a_node6"><a xlink:href="FileData_8hpp.html" target="_top" xlink:title="/home/travis/build\l/STORM&#45;IRIT/Radium&#45;Engine\l/src/Core/File/FileData.hpp">
<polygon fill="white" stroke="black" points="1127,-174.5 1127,-215.5 1275,-215.5 1275,-174.5 1127,-174.5"/>
<text text-anchor="start" x="1135" y="-203.5" font-family="Helvetica,sans-Serif" font-size="10.00">/home/travis/build</text>
<text text-anchor="start" x="1135" y="-192.5" font-family="Helvetica,sans-Serif" font-size="10.00">/STORM&#45;IRIT/Radium&#45;Engine</text>
<text text-anchor="middle" x="1201" y="-181.5" font-family="Helvetica,sans-Serif" font-size="10.00">/src/Core/File/FileData.hpp</text>
</a>
</g>
</g>
<!-- Node5&#45;&gt;Node6 -->
<g id="edge6" class="edge"><title>Node5&#45;&gt;Node6</title>
<path fill="none" stroke="midnightblue" d="M1641.97,-261.702C1636.93,-260.36 1631.9,-259.108 1627,-258 1505.08,-230.435 1360.64,-212.424 1275.14,-203.249"/>
<polygon fill="midnightblue" stroke="midnightblue" points="1641.08,-265.088 1651.65,-264.378 1642.95,-258.341 1641.08,-265.088"/>
</g>
<!-- Node7 -->
<g id="node7" class="node"><title>Node7</title>
<g id="a_node7"><a xlink:href="FileData_8cpp.html" target="_top" xlink:title="/home/travis/build\l/STORM&#45;IRIT/Radium&#45;Engine\l/src/Core/File/FileData.cpp">
<polygon fill="white" stroke="black" points="588,-84.5 588,-125.5 736,-125.5 736,-84.5 588,-84.5"/>
<text text-anchor="start" x="596" y="-113.5" font-family="Helvetica,sans-Serif" font-size="10.00">/home/travis/build</text>
<text text-anchor="start" x="596" y="-102.5" font-family="Helvetica,sans-Serif" font-size="10.00">/STORM&#45;IRIT/Radium&#45;Engine</text>
<text text-anchor="middle" x="662" y="-91.5" font-family="Helvetica,sans-Serif" font-size="10.00">/src/Core/File/FileData.cpp</text>
</a>
</g>
</g>
<!-- Node6&#45;&gt;Node7 -->
<g id="edge7" class="edge"><title>Node6&#45;&gt;Node7</title>
<path fill="none" stroke="midnightblue" d="M1116.57,-186.696C1024.67,-177.772 873.734,-160.269 746,-132 737.802,-130.186 729.249,-127.951 720.873,-125.56"/>
<polygon fill="midnightblue" stroke="midnightblue" points="1116.37,-190.192 1126.65,-187.663 1117.03,-183.224 1116.37,-190.192"/>
</g>
<!-- Node8 -->
<g id="node8" class="node"><title>Node8</title>
<g id="a_node8"><a xlink:href="LightManager_8cpp.html" target="_top" xlink:title="/home/travis/build\l/STORM&#45;IRIT/Radium&#45;Engine\l/src/Engine/Managers/LightManager\l/LightManager.cpp">
<polygon fill="white" stroke="black" points="754.5,-79 754.5,-131 927.5,-131 927.5,-79 754.5,-79"/>
<text text-anchor="start" x="762.5" y="-119" font-family="Helvetica,sans-Serif" font-size="10.00">/home/travis/build</text>
<text text-anchor="start" x="762.5" y="-108" font-family="Helvetica,sans-Serif" font-size="10.00">/STORM&#45;IRIT/Radium&#45;Engine</text>
<text text-anchor="start" x="762.5" y="-97" font-family="Helvetica,sans-Serif" font-size="10.00">/src/Engine/Managers/LightManager</text>
<text text-anchor="middle" x="841" y="-86" font-family="Helvetica,sans-Serif" font-size="10.00">/LightManager.cpp</text>
</a>
</g>
</g>
<!-- Node6&#45;&gt;Node8 -->
<g id="edge8" class="edge"><title>Node6&#45;&gt;Node8</title>
<path fill="none" stroke="midnightblue" d="M1117.03,-175.042C1065.06,-163.122 997.034,-147.174 937,-132 933.903,-131.217 930.752,-130.412 927.572,-129.591"/>
<polygon fill="midnightblue" stroke="midnightblue" points="1116.34,-178.475 1126.87,-177.296 1117.9,-171.652 1116.34,-178.475"/>
</g>
<!-- Node9 -->
<g id="node9" class="node"><title>Node9</title>
<g id="a_node9"><a xlink:href="RadiumEngine_8cpp.html" target="_top" xlink:title="/home/travis/build\l/STORM&#45;IRIT/Radium&#45;Engine\l/src/Engine/RadiumEngine.cpp">
<polygon fill="white" stroke="black" points="946,-84.5 946,-125.5 1098,-125.5 1098,-84.5 946,-84.5"/>
<text text-anchor="start" x="954" y="-113.5" font-family="Helvetica,sans-Serif" font-size="10.00">/home/travis/build</text>
<text text-anchor="start" x="954" y="-102.5" font-family="Helvetica,sans-Serif" font-size="10.00">/STORM&#45;IRIT/Radium&#45;Engine</text>
<text text-anchor="middle" x="1022" y="-91.5" font-family="Helvetica,sans-Serif" font-size="10.00">/src/Engine/RadiumEngine.cpp</text>
</a>
</g>
</g>
<!-- Node6&#45;&gt;Node9 -->
<g id="edge9" class="edge"><title>Node6&#45;&gt;Node9</title>
<path fill="none" stroke="midnightblue" d="M1151.96,-169.891C1123.66,-155.979 1088.52,-138.705 1061.92,-125.627"/>
<polygon fill="midnightblue" stroke="midnightblue" points="1150.76,-173.199 1161.27,-174.47 1153.84,-166.917 1150.76,-173.199"/>
</g>
<!-- Node10 -->
<g id="node10" class="node"><title>Node10</title>
<g id="a_node10"><a xlink:href="Renderer_8cpp.html" target="_top" xlink:title="/home/travis/build\l/STORM&#45;IRIT/Radium&#45;Engine\l/src/Engine/Renderer/Renderer.cpp">
<polygon fill="white" stroke="black" points="1116,-84.5 1116,-125.5 1286,-125.5 1286,-84.5 1116,-84.5"/>
<text text-anchor="start" x="1124" y="-113.5" font-family="Helvetica,sans-Serif" font-size="10.00">/home/travis/build</text>
<text text-anchor="start" x="1124" y="-102.5" font-family="Helvetica,sans-Serif" font-size="10.00">/STORM&#45;IRIT/Radium&#45;Engine</text>
<text text-anchor="middle" x="1201" y="-91.5" font-family="Helvetica,sans-Serif" font-size="10.00">/src/Engine/Renderer/Renderer.cpp</text>
</a>
</g>
</g>
<!-- Node6&#45;&gt;Node10 -->
<g id="edge10" class="edge"><title>Node6&#45;&gt;Node10</title>
<path fill="none" stroke="midnightblue" d="M1201,-164.33C1201,-151.629 1201,-137.14 1201,-125.78"/>
<polygon fill="midnightblue" stroke="midnightblue" points="1197.5,-164.47 1201,-174.47 1204.5,-164.47 1197.5,-164.47"/>
</g>
<!-- Node11 -->
<g id="node11" class="node"><title>Node11</title>
<g id="a_node11"><a xlink:href="Viewer_8cpp.html" target="_top" xlink:title="/home/travis/build\l/STORM&#45;IRIT/Radium&#45;Engine\l/src/GuiBase/Viewer/Viewer.cpp">
<polygon fill="white" stroke="black" points="1304,-84.5 1304,-125.5 1462,-125.5 1462,-84.5 1304,-84.5"/>
<text text-anchor="start" x="1312" y="-113.5" font-family="Helvetica,sans-Serif" font-size="10.00">/home/travis/build</text>
<text text-anchor="start" x="1312" y="-102.5" font-family="Helvetica,sans-Serif" font-size="10.00">/STORM&#45;IRIT/Radium&#45;Engine</text>
<text text-anchor="middle" x="1383" y="-91.5" font-family="Helvetica,sans-Serif" font-size="10.00">/src/GuiBase/Viewer/Viewer.cpp</text>
</a>
</g>
</g>
<!-- Node6&#45;&gt;Node11 -->
<g id="edge11" class="edge"><title>Node6&#45;&gt;Node11</title>
<path fill="none" stroke="midnightblue" d="M1250.49,-170.073C1279.32,-156.129 1315.24,-138.762 1342.41,-125.627"/>
<polygon fill="midnightblue" stroke="midnightblue" points="1248.87,-166.966 1241.39,-174.47 1251.92,-173.268 1248.87,-166.966"/>
</g>
<!-- Node12 -->
<g id="node12" class="node"><title>Node12</title>
<g id="a_node12"><a xlink:href="AssimpFileLoader_8cpp.html" target="_top" xlink:title="/home/travis/build\l/STORM&#45;IRIT/Radium&#45;Engine\l/src/IO/AssimpLoader/AssimpFile\lLoader.cpp">
<polygon fill="white" stroke="black" points="0,-79 0,-131 164,-131 164,-79 0,-79"/>
<text text-anchor="start" x="8" y="-119" font-family="Helvetica,sans-Serif" font-size="10.00">/home/travis/build</text>
<text text-anchor="start" x="8" y="-108" font-family="Helvetica,sans-Serif" font-size="10.00">/STORM&#45;IRIT/Radium&#45;Engine</text>
<text text-anchor="start" x="8" y="-97" font-family="Helvetica,sans-Serif" font-size="10.00">/src/IO/AssimpLoader/AssimpFile</text>
<text text-anchor="middle" x="82" y="-86" font-family="Helvetica,sans-Serif" font-size="10.00">Loader.cpp</text>
</a>
</g>
</g>
<!-- Node6&#45;&gt;Node12 -->
<g id="edge12" class="edge"><title>Node6&#45;&gt;Node12</title>
<path fill="none" stroke="midnightblue" d="M1116.38,-189.958C887.056,-178.856 264.723,-147.676 173,-132 170.085,-131.502 167.13,-130.945 164.154,-130.341"/>
<polygon fill="midnightblue" stroke="midnightblue" points="1116.51,-193.469 1126.67,-190.456 1116.85,-186.477 1116.51,-193.469"/>
</g>
<!-- Node13 -->
<g id="node13" class="node"><title>Node13</title>
<g id="a_node13"><a xlink:href="TinyPlyFileLoader_8cpp.html" target="_top" xlink:title="/home/travis/build\l/STORM&#45;IRIT/Radium&#45;Engine\l/src/IO/TinyPlyLoader/TinyPlyFile\lLoader.cpp">
<polygon fill="white" stroke="black" points="1480,-79 1480,-131 1644,-131 1644,-79 1480,-79"/>
<text text-anchor="start" x="1488" y="-119" font-family="Helvetica,sans-Serif" font-size="10.00">/home/travis/build</text>
<text text-anchor="start" x="1488" y="-108" font-family="Helvetica,sans-Serif" font-size="10.00">/STORM&#45;IRIT/Radium&#45;Engine</text>
<text text-anchor="start" x="1488" y="-97" font-family="Helvetica,sans-Serif" font-size="10.00">/src/IO/TinyPlyLoader/TinyPlyFile</text>
<text text-anchor="middle" x="1562" y="-86" font-family="Helvetica,sans-Serif" font-size="10.00">Loader.cpp</text>
</a>
</g>
</g>
<!-- Node6&#45;&gt;Node13 -->
<g id="edge13" class="edge"><title>Node6&#45;&gt;Node13</title>
<path fill="none" stroke="midnightblue" d="M1285.23,-175.698C1338.38,-163.873 1408.4,-147.794 1470,-132 1473.22,-131.176 1476.49,-130.321 1479.8,-129.447"/>
<polygon fill="midnightblue" stroke="midnightblue" points="1284.17,-172.347 1275.16,-177.93 1285.69,-179.181 1284.17,-172.347"/>
</g>
<!-- Node14 -->
<g id="node14" class="node"><title>Node14</title>
<g id="a_node14"><a xlink:href="AnimationSystem_8cpp.html" target="_top" xlink:title="/home/travis/build\l/STORM&#45;IRIT/Radium&#45;Engine\l/Plugins/Animation/src/Animation\lSystem.cpp">
<polygon fill="white" stroke="black" points="2050.5,-79 2050.5,-131 2211.5,-131 2211.5,-79 2050.5,-79"/>
<text text-anchor="start" x="2058.5" y="-119" font-family="Helvetica,sans-Serif" font-size="10.00">/home/travis/build</text>
<text text-anchor="start" x="2058.5" y="-108" font-family="Helvetica,sans-Serif" font-size="10.00">/STORM&#45;IRIT/Radium&#45;Engine</text>
<text text-anchor="start" x="2058.5" y="-97" font-family="Helvetica,sans-Serif" font-size="10.00">/Plugins/Animation/src/Animation</text>
<text text-anchor="middle" x="2131" y="-86" font-family="Helvetica,sans-Serif" font-size="10.00">System.cpp</text>
</a>
</g>
</g>
<!-- Node6&#45;&gt;Node14 -->
<g id="edge14" class="edge"><title>Node6&#45;&gt;Node14</title>
<path fill="none" stroke="midnightblue" d="M1285.33,-193.449C1437.36,-191.198 1766.94,-180.569 2040,-132 2043.4,-131.396 2046.85,-130.716 2050.32,-129.976"/>
<polygon fill="midnightblue" stroke="midnightblue" points="1285.09,-189.952 1275.14,-193.591 1285.19,-196.951 1285.09,-189.952"/>
</g>
<!-- Node15 -->
<g id="node15" class="node"><title>Node15</title>
<g id="a_node15"><a xlink:href="FancyMeshComponent_8cpp.html" target="_top" xlink:title="/home/travis/build\l/STORM&#45;IRIT/Radium&#45;Engine\l/Plugins/FancyMesh/src/FancyMesh\lComponent.cpp">
<polygon fill="white" stroke="black" points="1662,-79 1662,-131 1838,-131 1838,-79 1662,-79"/>
<text text-anchor="start" x="1670" y="-119" font-family="Helvetica,sans-Serif" font-size="10.00">/home/travis/build</text>
<text text-anchor="start" x="1670" y="-108" font-family="Helvetica,sans-Serif" font-size="10.00">/STORM&#45;IRIT/Radium&#45;Engine</text>
<text text-anchor="start" x="1670" y="-97" font-family="Helvetica,sans-Serif" font-size="10.00">/Plugins/FancyMesh/src/FancyMesh</text>
<text text-anchor="middle" x="1750" y="-86" font-family="Helvetica,sans-Serif" font-size="10.00">Component.cpp</text>
</a>
</g>
</g>
<!-- Node6&#45;&gt;Node15 -->
<g id="edge15" class="edge"><title>Node6&#45;&gt;Node15</title>
<path fill="none" stroke="midnightblue" d="M1285.07,-185.662C1376.24,-175.88 1525.78,-157.67 1653,-132 1655.91,-131.414 1658.85,-130.791 1661.82,-130.138"/>
<polygon fill="midnightblue" stroke="midnightblue" points="1284.64,-182.188 1275.07,-186.727 1285.38,-189.149 1284.64,-182.188"/>
</g>
<!-- Node16 -->
<g id="node16" class="node"><title>Node16</title>
<g id="a_node16"><a xlink:href="FancyMeshSystem_8cpp.html" target="_top" xlink:title="/home/travis/build\l/STORM&#45;IRIT/Radium&#45;Engine\l/Plugins/FancyMesh/src/FancyMesh\lSystem.cpp">
<polygon fill="white" stroke="black" points="1856,-79 1856,-131 2032,-131 2032,-79 1856,-79"/>
<text text-anchor="start" x="1864" y="-119" font-family="Helvetica,sans-Serif" font-size="10.00">/home/travis/build</text>
<text text-anchor="start" x="1864" y="-108" font-family="Helvetica,sans-Serif" font-size="10.00">/STORM&#45;IRIT/Radium&#45;Engine</text>
<text text-anchor="start" x="1864" y="-97" font-family="Helvetica,sans-Serif" font-size="10.00">/Plugins/FancyMesh/src/FancyMesh</text>
<text text-anchor="middle" x="1944" y="-86" font-family="Helvetica,sans-Serif" font-size="10.00">System.cpp</text>
</a>
</g>
</g>
<!-- Node6&#45;&gt;Node16 -->
<g id="edge16" class="edge"><title>Node6&#45;&gt;Node16</title>
<path fill="none" stroke="midnightblue" d="M1285.21,-190.303C1408.94,-183.88 1646.76,-167.758 1846,-132 1849.21,-131.425 1852.46,-130.797 1855.74,-130.127"/>
<polygon fill="midnightblue" stroke="midnightblue" points="1284.86,-186.816 1275.05,-190.822 1285.22,-193.807 1284.86,-186.816"/>
</g>
<!-- Node17 -->
<g id="node17" class="node"><title>Node17</title>
<g id="a_node17"><a xlink:href="MeshPaintSystem_8cpp.html" target="_top" xlink:title="/home/travis/build\l/STORM&#45;IRIT/Radium&#45;Engine\l/Plugins/MeshPaint/src/MeshPaint\lSystem.cpp">
<polygon fill="white" stroke="black" points="182.5,-79 182.5,-131 349.5,-131 349.5,-79 182.5,-79"/>
<text text-anchor="start" x="190.5" y="-119" font-family="Helvetica,sans-Serif" font-size="10.00">/home/travis/build</text>
<text text-anchor="start" x="190.5" y="-108" font-family="Helvetica,sans-Serif" font-size="10.00">/STORM&#45;IRIT/Radium&#45;Engine</text>
<text text-anchor="start" x="190.5" y="-97" font-family="Helvetica,sans-Serif" font-size="10.00">/Plugins/MeshPaint/src/MeshPaint</text>
<text text-anchor="middle" x="266" y="-86" font-family="Helvetica,sans-Serif" font-size="10.00">System.cpp</text>
</a>
</g>
</g>
<!-- Node6&#45;&gt;Node17 -->
<g id="edge17" class="edge"><title>Node6&#45;&gt;Node17</title>
<path fill="none" stroke="midnightblue" d="M1116.69,-193.325C964.295,-190.88 633.348,-179.957 359,-132 355.945,-131.466 352.846,-130.873 349.724,-130.233"/>
<polygon fill="midnightblue" stroke="midnightblue" points="1116.85,-196.827 1126.9,-193.48 1116.96,-189.828 1116.85,-196.827"/>
</g>
<!-- Node18 -->
<g id="node18" class="node"><title>Node18</title>
<g id="a_node18"><a xlink:href="SkinningSystem_8hpp.html" target="_top" xlink:title="/home/travis/build\l/STORM&#45;IRIT/Radium&#45;Engine\l/Plugins/Skinning/src/SkinningSystem.hpp">
<polygon fill="white" stroke="black" points="368,-84.5 368,-125.5 570,-125.5 570,-84.5 368,-84.5"/>
<text text-anchor="start" x="376" y="-113.5" font-family="Helvetica,sans-Serif" font-size="10.00">/home/travis/build</text>
<text text-anchor="start" x="376" y="-102.5" font-family="Helvetica,sans-Serif" font-size="10.00">/STORM&#45;IRIT/Radium&#45;Engine</text>
<text text-anchor="middle" x="469" y="-91.5" font-family="Helvetica,sans-Serif" font-size="10.00">/Plugins/Skinning/src/SkinningSystem.hpp</text>
</a>
</g>
</g>
<!-- Node6&#45;&gt;Node18 -->
<g id="edge18" class="edge"><title>Node6&#45;&gt;Node18</title>
<path fill="none" stroke="midnightblue" d="M1116.63,-189.155C996.582,-181.453 769.846,-163.921 579,-132 568.258,-130.203 557.004,-127.964 545.964,-125.557"/>
<polygon fill="midnightblue" stroke="midnightblue" points="1116.65,-192.663 1126.85,-189.803 1117.1,-185.677 1116.65,-192.663"/>
</g>
<!-- Node19 -->
<g id="node19" class="node"><title>Node19</title>
<g id="a_node19"><a xlink:href="SkinningPlugin_8cpp.html" target="_top" xlink:title="/home/travis/build\l/STORM&#45;IRIT/Radium&#45;Engine\l/Plugins/Skinning/src/SkinningPlugin.cpp">
<polygon fill="white" stroke="black" points="371.5,-0.5 371.5,-41.5 566.5,-41.5 566.5,-0.5 371.5,-0.5"/>
<text text-anchor="start" x="379.5" y="-29.5" font-family="Helvetica,sans-Serif" font-size="10.00">/home/travis/build</text>
<text text-anchor="start" x="379.5" y="-18.5" font-family="Helvetica,sans-Serif" font-size="10.00">/STORM&#45;IRIT/Radium&#45;Engine</text>
<text text-anchor="middle" x="469" y="-7.5" font-family="Helvetica,sans-Serif" font-size="10.00">/Plugins/Skinning/src/SkinningPlugin.cpp</text>
</a>
</g>
</g>
<!-- Node18&#45;&gt;Node19 -->
<g id="edge19" class="edge"><title>Node18&#45;&gt;Node19</title>
<path fill="none" stroke="midnightblue" d="M469,-73.881C469,-63.1328 469,-51.309 469,-41.6671"/>
<polygon fill="midnightblue" stroke="midnightblue" points="465.5,-74.1501 469,-84.1501 472.5,-74.1501 465.5,-74.1501"/>
</g>
<!-- Node21&#45;&gt;Node14 -->
<g id="edge23" class="edge"><title>Node21&#45;&gt;Node14</title>
<path fill="none" stroke="midnightblue" d="M2181.5,-252.849C2170.2,-244.224 2159.51,-233.902 2152,-222 2134.53,-194.302 2130.7,-155.914 2130.28,-131.018"/>
<polygon fill="midnightblue" stroke="midnightblue" points="2179.65,-255.825 2189.81,-258.827 2183.74,-250.144 2179.65,-255.825"/>
</g>
<!-- Node22 -->
<g id="node22" class="node"><title>Node22</title>
<g id="a_node22"><a xlink:href="AnimationComponent_8cpp.html" target="_top" xlink:title="/home/travis/build\l/STORM&#45;IRIT/Radium&#45;Engine\l/Plugins/Animation/src/Animation\lComponent.cpp">
<polygon fill="white" stroke="black" points="2402.5,-79 2402.5,-131 2563.5,-131 2563.5,-79 2402.5,-79"/>
<text text-anchor="start" x="2410.5" y="-119" font-family="Helvetica,sans-Serif" font-size="10.00">/home/travis/build</text>
<text text-anchor="start" x="2410.5" y="-108" font-family="Helvetica,sans-Serif" font-size="10.00">/STORM&#45;IRIT/Radium&#45;Engine</text>
<text text-anchor="start" x="2410.5" y="-97" font-family="Helvetica,sans-Serif" font-size="10.00">/Plugins/Animation/src/Animation</text>
<text text-anchor="middle" x="2483" y="-86" font-family="Helvetica,sans-Serif" font-size="10.00">Component.cpp</text>
</a>
</g>
</g>
<!-- Node21&#45;&gt;Node22 -->
<g id="edge22" class="edge"><title>Node21&#45;&gt;Node22</title>
<path fill="none" stroke="midnightblue" d="M2285.82,-253.045C2298.78,-243.737 2312.42,-233.043 2324,-222 2346.21,-200.831 2343.43,-187.637 2367,-168 2384.37,-153.53 2405.65,-140.98 2425.22,-131.028"/>
<polygon fill="midnightblue" stroke="midnightblue" points="2283.59,-250.333 2277.43,-258.952 2287.62,-256.057 2283.59,-250.333"/>
</g>
<!-- Node23 -->
<g id="node23" class="node"><title>Node23</title>
<g id="a_node23"><a xlink:href="SkeletonBoneDrawable_8hpp.html" target="_top" xlink:title="/home/travis/build\l/STORM&#45;IRIT/Radium&#45;Engine\l/Plugins/Animation/src/Drawing\l/SkeletonBoneDrawable.hpp">
<polygon fill="white" stroke="black" points="2161,-169 2161,-221 2315,-221 2315,-169 2161,-169"/>
<text text-anchor="start" x="2169" y="-209" font-family="Helvetica,sans-Serif" font-size="10.00">/home/travis/build</text>
<text text-anchor="start" x="2169" y="-198" font-family="Helvetica,sans-Serif" font-size="10.00">/STORM&#45;IRIT/Radium&#45;Engine</text>
<text text-anchor="start" x="2169" y="-187" font-family="Helvetica,sans-Serif" font-size="10.00">/Plugins/Animation/src/Drawing</text>
<text text-anchor="middle" x="2238" y="-176" font-family="Helvetica,sans-Serif" font-size="10.00">/SkeletonBoneDrawable.hpp</text>
</a>
</g>
</g>
<!-- Node21&#45;&gt;Node23 -->
<g id="edge24" class="edge"><title>Node21&#45;&gt;Node23</title>
<path fill="none" stroke="midnightblue" d="M2238,-248.489C2238,-239.309 2238,-229.616 2238,-221.092"/>
<polygon fill="midnightblue" stroke="midnightblue" points="2234.5,-248.547 2238,-258.547 2241.5,-248.547 2234.5,-248.547"/>
</g>
<!-- Node23&#45;&gt;Node14 -->
<g id="edge26" class="edge"><title>Node23&#45;&gt;Node14</title>
<path fill="none" stroke="midnightblue" d="M2199.39,-162.242C2186.98,-152.042 2173.42,-140.887 2161.67,-131.221"/>
<polygon fill="midnightblue" stroke="midnightblue" points="2197.39,-165.134 2207.34,-168.783 2201.84,-159.727 2197.39,-165.134"/>
</g>
<!-- Node23&#45;&gt;Node22 -->
<g id="edge25" class="edge"><title>Node23&#45;&gt;Node22</title>
<path fill="none" stroke="midnightblue" d="M2317.3,-165.516C2348.13,-154.442 2383.15,-141.864 2413.03,-131.133"/>
<polygon fill="midnightblue" stroke="midnightblue" points="2316.11,-162.226 2307.88,-168.901 2318.47,-168.814 2316.11,-162.226"/>
</g>
<!-- Node24 -->
<g id="node24" class="node"><title>Node24</title>
<g id="a_node24"><a xlink:href="SkeletonBoneDrawable_8cpp.html" target="_top" xlink:title="/home/travis/build\l/STORM&#45;IRIT/Radium&#45;Engine\l/Plugins/Animation/src/Drawing\l/SkeletonBoneDrawable.cpp">
<polygon fill="white" stroke="black" points="2230,-79 2230,-131 2384,-131 2384,-79 2230,-79"/>
<text text-anchor="start" x="2238" y="-119" font-family="Helvetica,sans-Serif" font-size="10.00">/home/travis/build</text>
<text text-anchor="start" x="2238" y="-108" font-family="Helvetica,sans-Serif" font-size="10.00">/STORM&#45;IRIT/Radium&#45;Engine</text>
<text text-anchor="start" x="2238" y="-97" font-family="Helvetica,sans-Serif" font-size="10.00">/Plugins/Animation/src/Drawing</text>
<text text-anchor="middle" x="2307" y="-86" font-family="Helvetica,sans-Serif" font-size="10.00">/SkeletonBoneDrawable.cpp</text>
</a>
</g>
</g>
<!-- Node23&#45;&gt;Node24 -->
<g id="edge27" class="edge"><title>Node23&#45;&gt;Node24</title>
<path fill="none" stroke="midnightblue" d="M2264.23,-160.553C2271.89,-150.775 2280.14,-140.258 2287.33,-131.092"/>
<polygon fill="midnightblue" stroke="midnightblue" points="2261.37,-158.518 2257.96,-168.547 2266.88,-162.837 2261.37,-158.518"/>
</g>
<!-- Node26 -->
<g id="node26" class="node"><title>Node26</title>
<g id="a_node26"><a xlink:href="KeyPose_8hpp.html" target="_top" xlink:title="/home/travis/build\l/STORM&#45;IRIT/Radium&#45;Engine\l/src/Core/File/KeyFrame\l/KeyPose.hpp">
<polygon fill="white" stroke="black" points="2409,-169 2409,-221 2557,-221 2557,-169 2409,-169"/>
<text text-anchor="start" x="2417" y="-209" font-family="Helvetica,sans-Serif" font-size="10.00">/home/travis/build</text>
<text text-anchor="start" x="2417" y="-198" font-family="Helvetica,sans-Serif" font-size="10.00">/STORM&#45;IRIT/Radium&#45;Engine</text>
<text text-anchor="start" x="2417" y="-187" font-family="Helvetica,sans-Serif" font-size="10.00">/src/Core/File/KeyFrame</text>
<text text-anchor="middle" x="2483" y="-176" font-family="Helvetica,sans-Serif" font-size="10.00">/KeyPose.hpp</text>
</a>
</g>
</g>
<!-- Node25&#45;&gt;Node26 -->
<g id="edge29" class="edge"><title>Node25&#45;&gt;Node26</title>
<path fill="none" stroke="midnightblue" d="M1811.04,-539.614C1915.62,-519.38 2097.56,-476.403 2238,-402 2330.57,-352.96 2419.65,-264.45 2460.19,-221.184"/>
<polygon fill="midnightblue" stroke="midnightblue" points="1810.33,-536.187 1801.16,-541.502 1811.64,-543.062 1810.33,-536.187"/>
</g>
<!-- Node27 -->
<g id="node27" class="node"><title>Node27</title>
<g id="a_node27"><a xlink:href="KeyRotation_8hpp.html" target="_top" xlink:title="/home/travis/build\l/STORM&#45;IRIT/Radium&#45;Engine\l/src/Core/File/KeyFrame\l/KeyRotation.hpp">
<polygon fill="white" stroke="black" points="1551,-349 1551,-401 1699,-401 1699,-349 1551,-349"/>
<text text-anchor="start" x="1559" y="-389" font-family="Helvetica,sans-Serif" font-size="10.00">/home/travis/build</text>
<text text-anchor="start" x="1559" y="-378" font-family="Helvetica,sans-Serif" font-size="10.00">/STORM&#45;IRIT/Radium&#45;Engine</text>
<text text-anchor="start" x="1559" y="-367" font-family="Helvetica,sans-Serif" font-size="10.00">/src/Core/File/KeyFrame</text>
<text text-anchor="middle" x="1625" y="-356" font-family="Helvetica,sans-Serif" font-size="10.00">/KeyRotation.hpp</text>
</a>
</g>
</g>
<!-- Node25&#45;&gt;Node27 -->
<g id="edge31" class="edge"><title>Node25&#45;&gt;Node27</title>
<path fill="none" stroke="midnightblue" d="M1672.66,-522.899C1661.63,-514.23 1651.21,-503.876 1644,-492 1627.16,-464.267 1623.91,-426.235 1623.86,-401.397"/>
<polygon fill="midnightblue" stroke="midnightblue" points="1670.65,-525.764 1680.77,-528.912 1674.82,-520.143 1670.65,-525.764"/>
</g>
<!-- Node28 -->
<g id="node28" class="node"><title>Node28</title>
<g id="a_node28"><a xlink:href="KeyScaling_8hpp.html" target="_top" xlink:title="/home/travis/build\l/STORM&#45;IRIT/Radium&#45;Engine\l/src/Core/File/KeyFrame\l/KeyScaling.hpp">
<polygon fill="white" stroke="black" points="1653,-439 1653,-491 1801,-491 1801,-439 1653,-439"/>
<text text-anchor="start" x="1661" y="-479" font-family="Helvetica,sans-Serif" font-size="10.00">/home/travis/build</text>
<text text-anchor="start" x="1661" y="-468" font-family="Helvetica,sans-Serif" font-size="10.00">/STORM&#45;IRIT/Radium&#45;Engine</text>
<text text-anchor="start" x="1661" y="-457" font-family="Helvetica,sans-Serif" font-size="10.00">/src/Core/File/KeyFrame</text>
<text text-anchor="middle" x="1727" y="-446" font-family="Helvetica,sans-Serif" font-size="10.00">/KeyScaling.hpp</text>
</a>
</g>
</g>
<!-- Node25&#45;&gt;Node28 -->
<g id="edge33" class="edge"><title>Node25&#45;&gt;Node28</title>
<path fill="none" stroke="midnightblue" d="M1727,-518.489C1727,-509.309 1727,-499.616 1727,-491.092"/>
<polygon fill="midnightblue" stroke="midnightblue" points="1723.5,-518.547 1727,-528.547 1730.5,-518.547 1723.5,-518.547"/>
</g>
<!-- Node29 -->
<g id="node29" class="node"><title>Node29</title>
<g id="a_node29"><a xlink:href="KeyTransform_8hpp.html" target="_top" xlink:title="/home/travis/build\l/STORM&#45;IRIT/Radium&#45;Engine\l/src/Core/File/KeyFrame\l/KeyTransform.hpp">
<polygon fill="white" stroke="black" points="1819,-439 1819,-491 1967,-491 1967,-439 1819,-439"/>
<text text-anchor="start" x="1827" y="-479" font-family="Helvetica,sans-Serif" font-size="10.00">/home/travis/build</text>
<text text-anchor="start" x="1827" y="-468" font-family="Helvetica,sans-Serif" font-size="10.00">/STORM&#45;IRIT/Radium&#45;Engine</text>
<text text-anchor="start" x="1827" y="-457" font-family="Helvetica,sans-Serif" font-size="10.00">/src/Core/File/KeyFrame</text>
<text text-anchor="middle" x="1893" y="-446" font-family="Helvetica,sans-Serif" font-size="10.00">/KeyTransform.hpp</text>
</a>
</g>
</g>
<!-- Node25&#45;&gt;Node29 -->
<g id="edge35" class="edge"><title>Node25&#45;&gt;Node29</title>
<path fill="none" stroke="midnightblue" d="M1783.67,-523.96C1803.86,-513.253 1826.38,-501.315 1845.71,-491.069"/>
<polygon fill="midnightblue" stroke="midnightblue" points="1781.76,-521.007 1774.57,-528.783 1785.04,-527.191 1781.76,-521.007"/>
</g>
<!-- Node30 -->
<g id="node30" class="node"><title>Node30</title>
<g id="a_node30"><a xlink:href="KeyTranslation_8hpp.html" target="_top" xlink:title="/home/travis/build\l/STORM&#45;IRIT/Radium&#45;Engine\l/src/Core/File/KeyFrame\l/KeyTranslation.hpp">
<polygon fill="white" stroke="black" points="1449,-439 1449,-491 1597,-491 1597,-439 1449,-439"/>
<text text-anchor="start" x="1457" y="-479" font-family="Helvetica,sans-Serif" font-size="10.00">/home/travis/build</text>
<text text-anchor="start" x="1457" y="-468" font-family="Helvetica,sans-Serif" font-size="10.00">/STORM&#45;IRIT/Radium&#45;Engine</text>
<text text-anchor="start" x="1457" y="-457" font-family="Helvetica,sans-Serif" font-size="10.00">/src/Core/File/KeyFrame</text>
<text text-anchor="middle" x="1523" y="-446" font-family="Helvetica,sans-Serif" font-size="10.00">/KeyTranslation.hpp</text>
</a>
</g>
</g>
<!-- Node25&#45;&gt;Node30 -->
<g id="edge38" class="edge"><title>Node25&#45;&gt;Node30</title>
<path fill="none" stroke="midnightblue" d="M1659.3,-524.798C1634.04,-513.9 1605.6,-501.632 1581.26,-491.133"/>
<polygon fill="midnightblue" stroke="midnightblue" points="1658.25,-528.153 1668.81,-528.901 1661.02,-521.726 1658.25,-528.153"/>
</g>
<!-- Node26&#45;&gt;Node22 -->
<g id="edge30" class="edge"><title>Node26&#45;&gt;Node22</title>
<path fill="none" stroke="midnightblue" d="M2483,-158.489C2483,-149.309 2483,-139.616 2483,-131.092"/>
<polygon fill="midnightblue" stroke="midnightblue" points="2479.5,-158.547 2483,-168.547 2486.5,-158.547 2479.5,-158.547"/>
</g>
<!-- Node27&#45;&gt;Node20 -->
<g id="edge32" class="edge"><title>Node27&#45;&gt;Node20</title>
<path fill="none" stroke="midnightblue" d="M1588.19,-342.242C1576.37,-332.042 1563.44,-320.887 1552.23,-311.221"/>
<polygon fill="midnightblue" stroke="midnightblue" points="1585.91,-344.9 1595.77,-348.783 1590.49,-339.6 1585.91,-344.9"/>
</g>
<!-- Node28&#45;&gt;Node20 -->
<g id="edge34" class="edge"><title>Node28&#45;&gt;Node20</title>
<path fill="none" stroke="midnightblue" d="M1730.22,-428.475C1730.56,-403.232 1726.74,-370.033 1708,-348 1701.02,-339.792 1655.27,-324.425 1611.01,-311.044"/>
<polygon fill="midnightblue" stroke="midnightblue" points="1726.72,-428.633 1729.86,-438.751 1733.71,-428.881 1726.72,-428.633"/>
</g>
<!-- Node29&#45;&gt;Node2 -->
<g id="edge36" class="edge"><title>Node29&#45;&gt;Node2</title>
<path fill="none" stroke="midnightblue" d="M1912.77,-429.889C1919.52,-418.243 1926.83,-405.623 1932.68,-395.525"/>
<polygon fill="midnightblue" stroke="midnightblue" points="1909.74,-428.14 1907.75,-438.547 1915.79,-431.65 1909.74,-428.14"/>
</g>
<!-- Node29&#45;&gt;Node22 -->
<g id="edge37" class="edge"><title>Node29&#45;&gt;Node22</title>
<path fill="none" stroke="midnightblue" d="M1977.25,-453.553C2072.28,-437.83 2226.6,-399.92 2327,-312 2380.98,-264.727 2353.82,-222.917 2400,-168 2411.81,-153.959 2427.38,-141.264 2441.85,-131.072"/>
<polygon fill="midnightblue" stroke="midnightblue" points="1976.43,-450.141 1967.11,-455.185 1977.54,-457.053 1976.43,-450.141"/>
</g>
<!-- Node30&#45;&gt;Node20 -->
<g id="edge39" class="edge"><title>Node30&#45;&gt;Node20</title>
<path fill="none" stroke="midnightblue" d="M1523,-428.717C1523,-394.052 1523,-342.016 1523,-311.285"/>
<polygon fill="midnightblue" stroke="midnightblue" points="1519.5,-428.874 1523,-438.874 1526.5,-428.875 1519.5,-428.874"/>
</g>
<!-- Node31&#45;&gt;Node12 -->
<g id="edge42" class="edge"><title>Node31&#45;&gt;Node12</title>
<path fill="none" stroke="midnightblue" d="M1293.49,-356.234C1080.49,-319.695 584.337,-231.177 173,-132 170.125,-131.307 167.204,-130.583 164.258,-129.835"/>
<polygon fill="midnightblue" stroke="midnightblue" points="1292.97,-359.696 1303.42,-357.935 1294.16,-352.797 1292.97,-359.696"/>
</g>
<!-- Node31&#45;&gt;Node20 -->
<g id="edge41" class="edge"><title>Node31&#45;&gt;Node20</title>
<path fill="none" stroke="midnightblue" d="M1442.93,-342.824C1457.52,-332.467 1473.58,-321.071 1487.46,-311.221"/>
<polygon fill="midnightblue" stroke="midnightblue" points="1440.66,-340.141 1434.53,-348.783 1444.71,-345.85 1440.66,-340.141"/>
</g>
</g>
</svg>
