<?xml version="1.0" encoding="UTF-8" standalone="no"?>
<!DOCTYPE svg PUBLIC "-//W3C//DTD SVG 1.1//EN"
 "http://www.w3.org/Graphics/SVG/1.1/DTD/svg11.dtd">
<!-- Generated by graphviz version 2.36.0 (20140111.2315)
 -->
<!-- Title: /home/travis/build/STORM&#45;IRIT/Radium&#45;Engine/src/IO/AssimpLoader/AssimpWrapper.hpp Pages: 1 -->
<svg width="791pt" height="140pt"
 viewBox="0.00 0.00 791.00 140.00" xmlns="http://www.w3.org/2000/svg" xmlns:xlink="http://www.w3.org/1999/xlink">
<g id="graph0" class="graph" transform="scale(1 1) rotate(0) translate(4 136)">
<title>/home/travis/build/STORM&#45;IRIT/Radium&#45;Engine/src/IO/AssimpLoader/AssimpWrapper.hpp</title>
<polygon fill="white" stroke="none" points="-4,4 -4,-136 787,-136 787,4 -4,4"/>
<!-- Node1 -->
<g id="node1" class="node"><title>Node1</title>
<polygon fill="#bfbfbf" stroke="black" points="303.5,-90.5 303.5,-131.5 506.5,-131.5 506.5,-90.5 303.5,-90.5"/>
<text text-anchor="start" x="311.5" y="-119.5" font-family="Helvetica,sans-Serif" font-size="10.00">/home/travis/build</text>
<text text-anchor="start" x="311.5" y="-108.5" font-family="Helvetica,sans-Serif" font-size="10.00">/STORM&#45;IRIT/Radium&#45;Engine</text>
<text text-anchor="middle" x="405" y="-97.5" font-family="Helvetica,sans-Serif" font-size="10.00">/src/IO/AssimpLoader/AssimpWrapper.hpp</text>
</g>
<!-- Node2 -->
<g id="node2" class="node"><title>Node2</title>
<g id="a_node2"><a xlink:href="AssimpAnimationDataLoader_8cpp.html" target="_top" xlink:title="/home/travis/build\l/STORM&#45;IRIT/Radium&#45;Engine\l/src/IO/AssimpLoader/AssimpAnimation\lDataLoader.cpp">
<polygon fill="white" stroke="black" points="-0.5,-1 -0.5,-53 190.5,-53 190.5,-1 -0.5,-1"/>
<text text-anchor="start" x="7.5" y="-41" font-family="Helvetica,sans-Serif" font-size="10.00">/home/travis/build</text>
<text text-anchor="start" x="7.5" y="-30" font-family="Helvetica,sans-Serif" font-size="10.00">/STORM&#45;IRIT/Radium&#45;Engine</text>
<text text-anchor="start" x="7.5" y="-19" font-family="Helvetica,sans-Serif" font-size="10.00">/src/IO/AssimpLoader/AssimpAnimation</text>
<text text-anchor="middle" x="95" y="-8" font-family="Helvetica,sans-Serif" font-size="10.00">DataLoader.cpp</text>
</a>
</g>
</g>
<!-- Node1&#45;&gt;Node2 -->
<g id="edge1" class="edge"><title>Node1&#45;&gt;Node2</title>
<path fill="none" stroke="midnightblue" d="M321.275,-87.8535C280.668,-77.1121 231.717,-64.1637 189.746,-53.0619"/>
<polygon fill="midnightblue" stroke="midnightblue" points="320.579,-91.2895 331.141,-90.4631 322.369,-84.5222 320.579,-91.2895"/>
</g>
<!-- Node3 -->
<g id="node3" class="node"><title>Node3</title>
<g id="a_node3"><a xlink:href="AssimpGeometryDataLoader_8cpp.html" target="_top" xlink:title="/home/travis/build\l/STORM&#45;IRIT/Radium&#45;Engine\l/src/IO/AssimpLoader/AssimpGeometry\lDataLoader.cpp">
<polygon fill="white" stroke="black" points="208.5,-1 208.5,-53 399.5,-53 399.5,-1 208.5,-1"/>
<text text-anchor="start" x="216.5" y="-41" font-family="Helvetica,sans-Serif" font-size="10.00">/home/travis/build</text>
<text text-anchor="start" x="216.5" y="-30" font-family="Helvetica,sans-Serif" font-size="10.00">/STORM&#45;IRIT/Radium&#45;Engine</text>
<text text-anchor="start" x="216.5" y="-19" font-family="Helvetica,sans-Serif" font-size="10.00">/src/IO/AssimpLoader/AssimpGeometry</text>
<text text-anchor="middle" x="304" y="-8" font-family="Helvetica,sans-Serif" font-size="10.00">DataLoader.cpp</text>
</a>
</g>
</g>
<!-- Node1&#45;&gt;Node3 -->
<g id="edge2" class="edge"><title>Node1&#45;&gt;Node3</title>
<path fill="none" stroke="midnightblue" d="M372.72,-83.7925C360.605,-73.9566 346.874,-62.8089 334.889,-53.0779"/>
<polygon fill="midnightblue" stroke="midnightblue" points="370.838,-86.7731 380.808,-90.359 375.251,-81.3387 370.838,-86.7731"/>
</g>
<!-- Node4 -->
<g id="node4" class="node"><title>Node4</title>
<g id="a_node4"><a xlink:href="AssimpHandleDataLoader_8cpp.html" target="_top" xlink:title="/home/travis/build\l/STORM&#45;IRIT/Radium&#45;Engine\l/src/IO/AssimpLoader/AssimpHandle\lDataLoader.cpp">
<polygon fill="white" stroke="black" points="417.5,-1 417.5,-53 596.5,-53 596.5,-1 417.5,-1"/>
<text text-anchor="start" x="425.5" y="-41" font-family="Helvetica,sans-Serif" font-size="10.00">/home/travis/build</text>
<text text-anchor="start" x="425.5" y="-30" font-family="Helvetica,sans-Serif" font-size="10.00">/STORM&#45;IRIT/Radium&#45;Engine</text>
<text text-anchor="start" x="425.5" y="-19" font-family="Helvetica,sans-Serif" font-size="10.00">/src/IO/AssimpLoader/AssimpHandle</text>
<text text-anchor="middle" x="507" y="-8" font-family="Helvetica,sans-Serif" font-size="10.00">DataLoader.cpp</text>
</a>
</g>
</g>
<!-- Node1&#45;&gt;Node4 -->
<g id="edge3" class="edge"><title>Node1&#45;&gt;Node4</title>
<path fill="none" stroke="midnightblue" d="M437.247,-84.0759C449.568,-74.1711 463.585,-62.9025 475.806,-53.0779"/>
<polygon fill="midnightblue" stroke="midnightblue" points="435.032,-81.3655 429.432,-90.359 439.418,-86.8212 435.032,-81.3655"/>
</g>
<!-- Node5 -->
<g id="node5" class="node"><title>Node5</title>
<g id="a_node5"><a xlink:href="AssimpLightDataLoader_8cpp.html" target="_top" xlink:title="/home/travis/build\l/STORM&#45;IRIT/Radium&#45;Engine\l/src/IO/AssimpLoader/AssimpLight\lDataLoader.cpp">
<polygon fill="white" stroke="black" points="614.5,-1 614.5,-53 783.5,-53 783.5,-1 614.5,-1"/>
<text text-anchor="start" x="622.5" y="-41" font-family="Helvetica,sans-Serif" font-size="10.00">/home/travis/build</text>
<text text-anchor="start" x="622.5" y="-30" font-family="Helvetica,sans-Serif" font-size="10.00">/STORM&#45;IRIT/Radium&#45;Engine</text>
<text text-anchor="start" x="622.5" y="-19" font-family="Helvetica,sans-Serif" font-size="10.00">/src/IO/AssimpLoader/AssimpLight</text>
<text text-anchor="middle" x="699" y="-8" font-family="Helvetica,sans-Serif" font-size="10.00">DataLoader.cpp</text>
</a>
</g>
</g>
<!-- Node1&#45;&gt;Node5 -->
<g id="edge4" class="edge"><title>Node1&#45;&gt;Node5</title>
<path fill="none" stroke="midnightblue" d="M484.786,-87.7467C524.899,-76.5587 573.522,-62.9973 614.297,-51.6245"/>
<polygon fill="midnightblue" stroke="midnightblue" points="483.739,-84.4052 475.047,-90.4631 485.619,-91.1478 483.739,-84.4052"/>
</g>
</g>
</svg>
