<?xml version="1.0" encoding="UTF-8" standalone="no"?>
<!DOCTYPE svg PUBLIC "-//W3C//DTD SVG 1.1//EN"
 "http://www.w3.org/Graphics/SVG/1.1/DTD/svg11.dtd">
<!-- Generated by graphviz version 2.36.0 (20140111.2315)
 -->
<!-- Title: /home/travis/build/STORM&#45;IRIT/Radium&#45;Engine/src/Core/Utils/Attribs.hpp Pages: 1 -->
<svg width="1521pt" height="398pt"
 viewBox="0.00 0.00 1521.00 398.00" xmlns="http://www.w3.org/2000/svg" xmlns:xlink="http://www.w3.org/1999/xlink">
<g id="graph0" class="graph" transform="scale(1 1) rotate(0) translate(4 394)">
<title>/home/travis/build/STORM&#45;IRIT/Radium&#45;Engine/src/Core/Utils/Attribs.hpp</title>
<polygon fill="white" stroke="none" points="-4,4 -4,-394 1517,-394 1517,4 -4,4"/>
<!-- Node1 -->
<g id="node1" class="node"><title>Node1</title>
<polygon fill="#bfbfbf" stroke="black" points="889,-348.5 889,-389.5 1037,-389.5 1037,-348.5 889,-348.5"/>
<text text-anchor="start" x="897" y="-377.5" font-family="Helvetica,sans-Serif" font-size="10.00">/home/travis/build</text>
<text text-anchor="start" x="897" y="-366.5" font-family="Helvetica,sans-Serif" font-size="10.00">/STORM&#45;IRIT/Radium&#45;Engine</text>
<text text-anchor="middle" x="963" y="-355.5" font-family="Helvetica,sans-Serif" font-size="10.00">/src/Core/Utils/Attribs.hpp</text>
</g>
<!-- Node2 -->
<g id="node2" class="node"><title>Node2</title>
<g id="a_node2"><a xlink:href="VectorArray_8hpp.html" target="_top" xlink:title="Core/Containers/VectorArray.hpp">
<polygon fill="white" stroke="black" points="882.5,-292.5 882.5,-311.5 1043.5,-311.5 1043.5,-292.5 882.5,-292.5"/>
<text text-anchor="middle" x="963" y="-299.5" font-family="Helvetica,sans-Serif" font-size="10.00">Core/Containers/VectorArray.hpp</text>
</a>
</g>
</g>
<!-- Node1&#45;&gt;Node2 -->
<g id="edge1" class="edge"><title>Node1&#45;&gt;Node2</title>
<path fill="none" stroke="midnightblue" d="M963,-348.498C963,-340.065 963,-330.235 963,-321.874"/>
<polygon fill="midnightblue" stroke="midnightblue" points="966.5,-321.652 963,-311.652 959.5,-321.653 966.5,-321.652"/>
</g>
<!-- Node4 -->
<g id="node4" class="node"><title>Node4</title>
<g id="a_node4"><a xlink:href="RaCore_8hpp.html" target="_top" xlink:title="Core/RaCore.hpp">
<polygon fill="white" stroke="black" points="887.5,-112.5 887.5,-131.5 980.5,-131.5 980.5,-112.5 887.5,-112.5"/>
<text text-anchor="middle" x="934" y="-119.5" font-family="Helvetica,sans-Serif" font-size="10.00">Core/RaCore.hpp</text>
</a>
</g>
</g>
<!-- Node1&#45;&gt;Node4 -->
<g id="edge38" class="edge"><title>Node1&#45;&gt;Node4</title>
<path fill="none" stroke="midnightblue" d="M888.962,-361.192C678.662,-340.472 99.1189,-273.111 198,-168 221.198,-143.341 708.75,-128.705 877.284,-124.368"/>
<polygon fill="midnightblue" stroke="midnightblue" points="877.536,-127.862 887.444,-124.109 877.358,-120.865 877.536,-127.862"/>
</g>
<!-- Node24 -->
<g id="node24" class="node"><title>Node24</title>
<g id="a_node24"><a xlink:href="Log_8hpp.html" target="_top" xlink:title="Core/Log/Log.hpp">
<polygon fill="white" stroke="black" points="1308,-236.5 1308,-255.5 1402,-255.5 1402,-236.5 1308,-236.5"/>
<text text-anchor="middle" x="1355" y="-243.5" font-family="Helvetica,sans-Serif" font-size="10.00">Core/Log/Log.hpp</text>
</a>
</g>
</g>
<!-- Node1&#45;&gt;Node24 -->
<g id="edge28" class="edge"><title>Node1&#45;&gt;Node24</title>
<path fill="none" stroke="midnightblue" d="M1026.42,-348.425C1108.86,-322.977 1250.22,-279.343 1317.41,-258.603"/>
<polygon fill="midnightblue" stroke="midnightblue" points="1318.63,-261.89 1327.15,-255.596 1316.56,-255.201 1318.63,-261.89"/>
</g>
<!-- Node3 -->
<g id="node3" class="node"><title>Node3</title>
<g id="a_node3"><a xlink:href="AlignedStdVector_8hpp.html" target="_top" xlink:title="Core/Containers/AlignedStd\lVector.hpp">
<polygon fill="white" stroke="black" points="986,-169 986,-199 1124,-199 1124,-169 986,-169"/>
<text text-anchor="start" x="994" y="-187" font-family="Helvetica,sans-Serif" font-size="10.00">Core/Containers/AlignedStd</text>
<text text-anchor="middle" x="1055" y="-176" font-family="Helvetica,sans-Serif" font-size="10.00">Vector.hpp</text>
</a>
</g>
</g>
<!-- Node2&#45;&gt;Node3 -->
<g id="edge2" class="edge"><title>Node2&#45;&gt;Node3</title>
<path fill="none" stroke="midnightblue" d="M969.915,-292.281C984.107,-274.387 1016.91,-233.031 1037.38,-207.211"/>
<polygon fill="midnightblue" stroke="midnightblue" points="1040.34,-209.116 1043.81,-199.106 1034.86,-204.766 1040.34,-209.116"/>
</g>
<!-- Node2&#45;&gt;Node4 -->
<g id="edge26" class="edge"><title>Node2&#45;&gt;Node4</title>
<path fill="none" stroke="midnightblue" d="M961.509,-292.359C958.507,-274.913 951.547,-234.227 946,-200 942.76,-180.011 939.207,-157.075 936.814,-141.471"/>
<polygon fill="midnightblue" stroke="midnightblue" points="940.269,-140.907 935.298,-131.551 933.349,-141.965 940.269,-140.907"/>
</g>
<!-- Node12 -->
<g id="node12" class="node"><title>Node12</title>
<polygon fill="white" stroke="#bfbfbf" points="1130,-112.5 1130,-131.5 1174,-131.5 1174,-112.5 1130,-112.5"/>
<text text-anchor="middle" x="1152" y="-119.5" font-family="Helvetica,sans-Serif" font-size="10.00">vector</text>
</g>
<!-- Node2&#45;&gt;Node12 -->
<g id="edge27" class="edge"><title>Node2&#45;&gt;Node12</title>
<path fill="none" stroke="midnightblue" d="M989.95,-292.479C1027.86,-279.067 1096.39,-249.351 1133,-200 1145.67,-182.929 1149.96,-158.446 1151.38,-141.698"/>
<polygon fill="midnightblue" stroke="midnightblue" points="1154.89,-141.711 1151.97,-131.526 1147.9,-141.307 1154.89,-141.711"/>
</g>
<!-- Node13 -->
<g id="node13" class="node"><title>Node13</title>
<g id="a_node13"><a xlink:href="LinearAlgebra_8hpp.html" target="_top" xlink:title="Core/Math/LinearAlgebra.hpp">
<polygon fill="white" stroke="black" points="525.5,-236.5 525.5,-255.5 668.5,-255.5 668.5,-236.5 525.5,-236.5"/>
<text text-anchor="middle" x="597" y="-243.5" font-family="Helvetica,sans-Serif" font-size="10.00">Core/Math/LinearAlgebra.hpp</text>
</a>
</g>
</g>
<!-- Node2&#45;&gt;Node13 -->
<g id="edge12" class="edge"><title>Node2&#45;&gt;Node13</title>
<path fill="none" stroke="midnightblue" d="M905.006,-292.444C839.686,-282.806 733.663,-267.163 664.63,-256.978"/>
<polygon fill="midnightblue" stroke="midnightblue" points="665.126,-253.514 654.722,-255.516 664.104,-260.439 665.126,-253.514"/>
</g>
<!-- Node3&#45;&gt;Node4 -->
<g id="edge3" class="edge"><title>Node3&#45;&gt;Node4</title>
<path fill="none" stroke="midnightblue" d="M1026.63,-168.933C1006.58,-158.991 979.899,-145.76 960.323,-136.053"/>
<polygon fill="midnightblue" stroke="midnightblue" points="961.857,-132.907 951.343,-131.6 958.748,-139.178 961.857,-132.907"/>
</g>
<!-- Node11 -->
<g id="node11" class="node"><title>Node11</title>
<polygon fill="white" stroke="#bfbfbf" points="1011,-112.5 1011,-131.5 1099,-131.5 1099,-112.5 1011,-112.5"/>
<text text-anchor="middle" x="1055" y="-119.5" font-family="Helvetica,sans-Serif" font-size="10.00">Eigen/StdVector</text>
</g>
<!-- Node3&#45;&gt;Node11 -->
<g id="edge10" class="edge"><title>Node3&#45;&gt;Node11</title>
<path fill="none" stroke="midnightblue" d="M1055,-168.781C1055,-160.781 1055,-150.689 1055,-142.017"/>
<polygon fill="midnightblue" stroke="midnightblue" points="1058.5,-141.73 1055,-131.731 1051.5,-141.731 1058.5,-141.73"/>
</g>
<!-- Node3&#45;&gt;Node12 -->
<g id="edge11" class="edge"><title>Node3&#45;&gt;Node12</title>
<path fill="none" stroke="midnightblue" d="M1077.99,-168.781C1093.48,-159.196 1113.84,-146.606 1129.28,-137.056"/>
<polygon fill="midnightblue" stroke="midnightblue" points="1131.5,-139.793 1138.17,-131.556 1127.82,-133.84 1131.5,-139.793"/>
</g>
<!-- Node5 -->
<g id="node5" class="node"><title>Node5</title>
<g id="a_node5"><a xlink:href="CoreMacros_8hpp.html" target="_top" xlink:title="Core/CoreMacros.hpp">
<polygon fill="white" stroke="black" points="988.5,-56.5 988.5,-75.5 1101.5,-75.5 1101.5,-56.5 988.5,-56.5"/>
<text text-anchor="middle" x="1045" y="-63.5" font-family="Helvetica,sans-Serif" font-size="10.00">Core/CoreMacros.hpp</text>
</a>
</g>
</g>
<!-- Node4&#45;&gt;Node5 -->
<g id="edge4" class="edge"><title>Node4&#45;&gt;Node5</title>
<path fill="none" stroke="midnightblue" d="M951.834,-112.324C969.716,-103.625 997.475,-90.1202 1018.05,-80.113"/>
<polygon fill="midnightblue" stroke="midnightblue" points="1019.75,-83.1765 1027.21,-75.6545 1016.69,-76.8819 1019.75,-83.1765"/>
</g>
<!-- Node6 -->
<g id="node6" class="node"><title>Node6</title>
<polygon fill="white" stroke="#bfbfbf" points="1119.5,-0.5 1119.5,-19.5 1168.5,-19.5 1168.5,-0.5 1119.5,-0.5"/>
<text text-anchor="middle" x="1144" y="-7.5" font-family="Helvetica,sans-Serif" font-size="10.00">cassert</text>
</g>
<!-- Node5&#45;&gt;Node6 -->
<g id="edge5" class="edge"><title>Node5&#45;&gt;Node6</title>
<path fill="none" stroke="midnightblue" d="M1060.91,-56.324C1076.64,-47.7428 1100.94,-34.486 1119.21,-24.5224"/>
<polygon fill="midnightblue" stroke="midnightblue" points="1121.03,-27.5157 1128.13,-19.6545 1117.68,-21.3704 1121.03,-27.5157"/>
</g>
<!-- Node7 -->
<g id="node7" class="node"><title>Node7</title>
<polygon fill="white" stroke="#bfbfbf" points="923.5,-0.5 923.5,-19.5 966.5,-19.5 966.5,-0.5 923.5,-0.5"/>
<text text-anchor="middle" x="945" y="-7.5" font-family="Helvetica,sans-Serif" font-size="10.00">cstdio</text>
</g>
<!-- Node5&#45;&gt;Node7 -->
<g id="edge6" class="edge"><title>Node5&#45;&gt;Node7</title>
<path fill="none" stroke="midnightblue" d="M1028.93,-56.324C1013.04,-47.7428 988.493,-34.486 970.042,-24.5224"/>
<polygon fill="midnightblue" stroke="midnightblue" points="971.489,-21.3264 961.027,-19.6545 968.163,-27.4857 971.489,-21.3264"/>
</g>
<!-- Node8 -->
<g id="node8" class="node"><title>Node8</title>
<polygon fill="white" stroke="#bfbfbf" points="985,-0.5 985,-19.5 1039,-19.5 1039,-0.5 985,-0.5"/>
<text text-anchor="middle" x="1012" y="-7.5" font-family="Helvetica,sans-Serif" font-size="10.00">iostream</text>
</g>
<!-- Node5&#45;&gt;Node8 -->
<g id="edge7" class="edge"><title>Node5&#45;&gt;Node8</title>
<path fill="none" stroke="midnightblue" d="M1039.55,-56.083C1034.99,-48.6127 1028.33,-37.7244 1022.71,-28.5199"/>
<polygon fill="midnightblue" stroke="midnightblue" points="1025.55,-26.4588 1017.35,-19.7511 1019.58,-30.109 1025.55,-26.4588"/>
</g>
<!-- Node9 -->
<g id="node9" class="node"><title>Node9</title>
<polygon fill="white" stroke="#bfbfbf" points="1264,-0.5 1264,-19.5 1316,-19.5 1316,-0.5 1264,-0.5"/>
<text text-anchor="middle" x="1290" y="-7.5" font-family="Helvetica,sans-Serif" font-size="10.00">sstream</text>
</g>
<!-- Node5&#45;&gt;Node9 -->
<g id="edge8" class="edge"><title>Node5&#45;&gt;Node9</title>
<path fill="none" stroke="midnightblue" d="M1083.82,-56.4435C1130.51,-46.1524 1208.27,-29.0136 1253.77,-18.9844"/>
<polygon fill="midnightblue" stroke="midnightblue" points="1254.78,-22.3472 1263.79,-16.7767 1253.27,-15.5113 1254.78,-22.3472"/>
</g>
<!-- Node10 -->
<g id="node10" class="node"><title>Node10</title>
<polygon fill="white" stroke="#bfbfbf" points="1057,-0.5 1057,-19.5 1101,-19.5 1101,-0.5 1057,-0.5"/>
<text text-anchor="middle" x="1079" y="-7.5" font-family="Helvetica,sans-Serif" font-size="10.00">thread</text>
</g>
<!-- Node5&#45;&gt;Node10 -->
<g id="edge9" class="edge"><title>Node5&#45;&gt;Node10</title>
<path fill="none" stroke="midnightblue" d="M1050.61,-56.083C1055.37,-48.5341 1062.32,-37.4948 1068.15,-28.2298"/>
<polygon fill="midnightblue" stroke="midnightblue" points="1071.12,-30.0783 1073.49,-19.7511 1065.2,-26.3486 1071.12,-30.0783"/>
</g>
<!-- Node13&#45;&gt;Node4 -->
<g id="edge13" class="edge"><title>Node13&#45;&gt;Node4</title>
<path fill="none" stroke="midnightblue" d="M668.501,-245.094C724.245,-242.377 802,-232.279 862,-200 888.352,-185.823 910.412,-158.346 922.914,-140.341"/>
<polygon fill="midnightblue" stroke="midnightblue" points="925.903,-142.168 928.552,-131.91 920.084,-138.277 925.903,-142.168"/>
</g>
<!-- Node14 -->
<g id="node14" class="node"><title>Node14</title>
<polygon fill="white" stroke="#bfbfbf" points="683.5,-174.5 683.5,-193.5 748.5,-193.5 748.5,-174.5 683.5,-174.5"/>
<text text-anchor="middle" x="716" y="-181.5" font-family="Helvetica,sans-Serif" font-size="10.00">Eigen/Core</text>
</g>
<!-- Node13&#45;&gt;Node14 -->
<g id="edge14" class="edge"><title>Node13&#45;&gt;Node14</title>
<path fill="none" stroke="midnightblue" d="M614.05,-236.403C633.844,-226.423 666.717,-209.849 689.77,-198.225"/>
<polygon fill="midnightblue" stroke="midnightblue" points="691.628,-201.208 698.982,-193.581 688.477,-194.958 691.628,-201.208"/>
</g>
<!-- Node15 -->
<g id="node15" class="node"><title>Node15</title>
<polygon fill="white" stroke="#bfbfbf" points="766.5,-174.5 766.5,-193.5 853.5,-193.5 853.5,-174.5 766.5,-174.5"/>
<text text-anchor="middle" x="810" y="-181.5" font-family="Helvetica,sans-Serif" font-size="10.00">Eigen/Geometry</text>
</g>
<!-- Node13&#45;&gt;Node15 -->
<g id="edge15" class="edge"><title>Node13&#45;&gt;Node15</title>
<path fill="none" stroke="midnightblue" d="M627.38,-236.472C659.567,-227.432 711.872,-212.732 757,-200 761.142,-198.832 765.465,-197.61 769.778,-196.391"/>
<polygon fill="midnightblue" stroke="midnightblue" points="771.063,-199.665 779.733,-193.575 769.158,-192.929 771.063,-199.665"/>
</g>
<!-- Node16 -->
<g id="node16" class="node"><title>Node16</title>
<polygon fill="white" stroke="#bfbfbf" points="207.5,-174.5 207.5,-193.5 282.5,-193.5 282.5,-174.5 207.5,-174.5"/>
<text text-anchor="middle" x="245" y="-181.5" font-family="Helvetica,sans-Serif" font-size="10.00">Eigen/Sparse</text>
</g>
<!-- Node13&#45;&gt;Node16 -->
<g id="edge16" class="edge"><title>Node13&#45;&gt;Node16</title>
<path fill="none" stroke="midnightblue" d="M525.251,-237.922C462.825,-230.941 370.196,-218.595 291,-200 286.86,-199.028 282.559,-197.854 278.321,-196.595"/>
<polygon fill="midnightblue" stroke="midnightblue" points="279.247,-193.218 268.657,-193.562 277.15,-199.896 279.247,-193.218"/>
</g>
<!-- Node17 -->
<g id="node17" class="node"><title>Node17</title>
<polygon fill="white" stroke="#bfbfbf" points="300.5,-174.5 300.5,-193.5 359.5,-193.5 359.5,-174.5 300.5,-174.5"/>
<text text-anchor="middle" x="330" y="-181.5" font-family="Helvetica,sans-Serif" font-size="10.00">functional</text>
</g>
<!-- Node13&#45;&gt;Node17 -->
<g id="edge17" class="edge"><title>Node13&#45;&gt;Node17</title>
<path fill="none" stroke="midnightblue" d="M537.937,-236.427C491.27,-228.929 424.769,-216.632 368,-200 365.192,-199.177 362.303,-198.23 359.431,-197.221"/>
<polygon fill="midnightblue" stroke="midnightblue" points="360.47,-193.872 349.878,-193.634 358.009,-200.426 360.47,-193.872"/>
</g>
<!-- Node18 -->
<g id="node18" class="node"><title>Node18</title>
<polygon fill="white" stroke="#bfbfbf" points="377.5,-169 377.5,-199 510.5,-199 510.5,-169 377.5,-169"/>
<text text-anchor="start" x="385.5" y="-187" font-family="Helvetica,sans-Serif" font-size="10.00">unsupported/Eigen/Aligned</text>
<text text-anchor="middle" x="444" y="-176" font-family="Helvetica,sans-Serif" font-size="10.00">Vector3</text>
</g>
<!-- Node13&#45;&gt;Node18 -->
<g id="edge18" class="edge"><title>Node13&#45;&gt;Node18</title>
<path fill="none" stroke="midnightblue" d="M575.079,-236.403C552.734,-227.641 517.425,-213.794 489.081,-202.679"/>
<polygon fill="midnightblue" stroke="midnightblue" points="490.352,-199.418 479.765,-199.025 487.796,-205.935 490.352,-199.418"/>
</g>
<!-- Node19 -->
<g id="node19" class="node"><title>Node19</title>
<g id="a_node19"><a xlink:href="Math_8hpp.html" target="_top" xlink:title="Core/Math/Math.hpp">
<polygon fill="white" stroke="black" points="45,-174.5 45,-193.5 151,-193.5 151,-174.5 45,-174.5"/>
<text text-anchor="middle" x="98" y="-181.5" font-family="Helvetica,sans-Serif" font-size="10.00">Core/Math/Math.hpp</text>
</a>
</g>
</g>
<!-- Node13&#45;&gt;Node19 -->
<g id="edge19" class="edge"><title>Node13&#45;&gt;Node19</title>
<path fill="none" stroke="midnightblue" d="M525.186,-237.7C445.232,-229.387 312.215,-215.002 198,-200 186.101,-198.437 173.427,-196.639 161.239,-194.844"/>
<polygon fill="midnightblue" stroke="midnightblue" points="161.55,-191.351 151.144,-193.341 160.52,-198.275 161.55,-191.351"/>
</g>
<!-- Node23 -->
<g id="node23" class="node"><title>Node23</title>
<g id="a_node23"><a xlink:href="LinearAlgebra_8inl.html" target="_top" xlink:title="Core/Math/LinearAlgebra.inl">
<polygon fill="white" stroke="black" points="528.5,-174.5 528.5,-193.5 665.5,-193.5 665.5,-174.5 528.5,-174.5"/>
<text text-anchor="middle" x="597" y="-181.5" font-family="Helvetica,sans-Serif" font-size="10.00">Core/Math/LinearAlgebra.inl</text>
</a>
</g>
</g>
<!-- Node13&#45;&gt;Node23 -->
<g id="edge25" class="edge"><title>Node13&#45;&gt;Node23</title>
<path fill="none" stroke="midnightblue" d="M597,-236.403C597,-227.938 597,-214.728 597,-203.82"/>
<polygon fill="midnightblue" stroke="midnightblue" points="600.5,-203.581 597,-193.581 593.5,-203.581 600.5,-203.581"/>
</g>
<!-- Node19&#45;&gt;Node4 -->
<g id="edge20" class="edge"><title>Node19&#45;&gt;Node4</title>
<path fill="none" stroke="midnightblue" d="M131.203,-174.452C141.923,-171.992 153.904,-169.556 165,-168 429.398,-130.916 749.084,-124.304 877.035,-123.191"/>
<polygon fill="midnightblue" stroke="midnightblue" points="877.394,-126.688 887.366,-123.109 877.339,-119.688 877.394,-126.688"/>
</g>
<!-- Node20 -->
<g id="node20" class="node"><title>Node20</title>
<polygon fill="white" stroke="#bfbfbf" points="118,-112.5 118,-131.5 174,-131.5 174,-112.5 118,-112.5"/>
<text text-anchor="middle" x="146" y="-119.5" font-family="Helvetica,sans-Serif" font-size="10.00">algorithm</text>
</g>
<!-- Node19&#45;&gt;Node20 -->
<g id="edge21" class="edge"><title>Node19&#45;&gt;Node20</title>
<path fill="none" stroke="midnightblue" d="M104.877,-174.403C112.149,-165.314 123.795,-150.756 132.841,-139.449"/>
<polygon fill="midnightblue" stroke="midnightblue" points="135.622,-141.576 139.136,-131.581 130.155,-137.203 135.622,-141.576"/>
</g>
<!-- Node21 -->
<g id="node21" class="node"><title>Node21</title>
<polygon fill="white" stroke="#bfbfbf" points="192,-112.5 192,-131.5 236,-131.5 236,-112.5 192,-112.5"/>
<text text-anchor="middle" x="214" y="-119.5" font-family="Helvetica,sans-Serif" font-size="10.00">cmath</text>
</g>
<!-- Node19&#45;&gt;Node21 -->
<g id="edge22" class="edge"><title>Node19&#45;&gt;Node21</title>
<path fill="none" stroke="midnightblue" d="M114.62,-174.403C133.915,-164.423 165.959,-147.849 188.431,-136.225"/>
<polygon fill="midnightblue" stroke="midnightblue" points="190.137,-139.284 197.411,-131.581 186.921,-133.066 190.137,-139.284"/>
</g>
<!-- Node22 -->
<g id="node22" class="node"><title>Node22</title>
<g id="a_node22"><a xlink:href="Math_8inl.html" target="_top" xlink:title="Core/Math/Math.inl">
<polygon fill="white" stroke="black" points="0,-112.5 0,-131.5 100,-131.5 100,-112.5 0,-112.5"/>
<text text-anchor="middle" x="50" y="-119.5" font-family="Helvetica,sans-Serif" font-size="10.00">Core/Math/Math.inl</text>
</a>
</g>
</g>
<!-- Node19&#45;&gt;Node22 -->
<g id="edge23" class="edge"><title>Node19&#45;&gt;Node22</title>
<path fill="none" stroke="midnightblue" d="M86.2222,-174.403C77.1661,-165.493 65.4109,-151.325 57.5308,-140.118"/>
<polygon fill="midnightblue" stroke="midnightblue" points="60.3595,-138.048 51.9673,-131.581 54.4949,-141.87 60.3595,-138.048"/>
</g>
<!-- Node22&#45;&gt;Node19 -->
<g id="edge24" class="edge"><title>Node22&#45;&gt;Node19</title>
<path fill="none" stroke="midnightblue" d="M61.7616,-131.581C70.8145,-140.485 82.5704,-154.652 90.4551,-165.862"/>
<polygon fill="midnightblue" stroke="midnightblue" points="87.6301,-167.938 96.0234,-174.403 93.494,-164.115 87.6301,-167.938"/>
</g>
<!-- Node24&#45;&gt;Node4 -->
<g id="edge29" class="edge"><title>Node24&#45;&gt;Node4</title>
<path fill="none" stroke="midnightblue" d="M1307.91,-244.624C1218.9,-243.079 1030.13,-235.574 977,-200 956.675,-186.392 944.972,-159.783 939.045,-141.698"/>
<polygon fill="midnightblue" stroke="midnightblue" points="942.354,-140.545 936.139,-131.965 935.646,-142.548 942.354,-140.545"/>
</g>
<!-- Node24&#45;&gt;Node9 -->
<g id="edge30" class="edge"><title>Node24&#45;&gt;Node9</title>
<path fill="none" stroke="midnightblue" d="M1369.08,-236.259C1380.35,-228.355 1395.35,-215.584 1402,-200 1407.59,-186.92 1406.34,-181.545 1402,-168 1383.13,-109.048 1333.1,-53.3627 1306.76,-26.9711"/>
<polygon fill="midnightblue" stroke="midnightblue" points="1309,-24.2592 1299.41,-19.7498 1304.09,-29.2537 1309,-24.2592"/>
</g>
<!-- Node25 -->
<g id="node25" class="node"><title>Node25</title>
<polygon fill="white" stroke="#bfbfbf" points="1332,-174.5 1332,-193.5 1378,-193.5 1378,-174.5 1332,-174.5"/>
<text text-anchor="middle" x="1355" y="-181.5" font-family="Helvetica,sans-Serif" font-size="10.00">stdio.h</text>
</g>
<!-- Node24&#45;&gt;Node25 -->
<g id="edge31" class="edge"><title>Node24&#45;&gt;Node25</title>
<path fill="none" stroke="midnightblue" d="M1355,-236.403C1355,-227.938 1355,-214.728 1355,-203.82"/>
<polygon fill="midnightblue" stroke="midnightblue" points="1358.5,-203.581 1355,-193.581 1351.5,-203.581 1358.5,-203.581"/>
</g>
<!-- Node26 -->
<g id="node26" class="node"><title>Node26</title>
<polygon fill="white" stroke="#bfbfbf" points="1300.5,-112.5 1300.5,-131.5 1341.5,-131.5 1341.5,-112.5 1300.5,-112.5"/>
<text text-anchor="middle" x="1321" y="-119.5" font-family="Helvetica,sans-Serif" font-size="10.00">string</text>
</g>
<!-- Node24&#45;&gt;Node26 -->
<g id="edge32" class="edge"><title>Node24&#45;&gt;Node26</title>
<path fill="none" stroke="midnightblue" d="M1363.69,-236.217C1376.99,-221.667 1399.58,-191.806 1387,-168 1379.26,-153.356 1364.38,-142.581 1350.7,-135.252"/>
<polygon fill="midnightblue" stroke="midnightblue" points="1352.04,-132.012 1341.53,-130.724 1348.94,-138.289 1352.04,-132.012"/>
</g>
<!-- Node27 -->
<g id="node27" class="node"><title>Node27</title>
<g id="a_node27"><a xlink:href="StringUtils_8hpp.html" target="_top" xlink:title="Core/String/StringUtils.hpp">
<polygon fill="white" stroke="black" points="1180,-174.5 1180,-193.5 1314,-193.5 1314,-174.5 1180,-174.5"/>
<text text-anchor="middle" x="1247" y="-181.5" font-family="Helvetica,sans-Serif" font-size="10.00">Core/String/StringUtils.hpp</text>
</a>
</g>
</g>
<!-- Node24&#45;&gt;Node27 -->
<g id="edge33" class="edge"><title>Node24&#45;&gt;Node27</title>
<path fill="none" stroke="midnightblue" d="M1339.53,-236.403C1321.72,-226.512 1292.26,-210.144 1271.37,-198.538"/>
<polygon fill="midnightblue" stroke="midnightblue" points="1272.89,-195.378 1262.45,-193.581 1269.49,-201.497 1272.89,-195.378"/>
</g>
<!-- Node28 -->
<g id="node28" class="node"><title>Node28</title>
<polygon fill="white" stroke="#bfbfbf" points="1472.5,-174.5 1472.5,-193.5 1513.5,-193.5 1513.5,-174.5 1472.5,-174.5"/>
<text text-anchor="middle" x="1493" y="-181.5" font-family="Helvetica,sans-Serif" font-size="10.00">ctime</text>
</g>
<!-- Node24&#45;&gt;Node28 -->
<g id="edge37" class="edge"><title>Node24&#45;&gt;Node28</title>
<path fill="none" stroke="midnightblue" d="M1374.77,-236.403C1398.14,-226.245 1437.21,-209.255 1464,-197.607"/>
<polygon fill="midnightblue" stroke="midnightblue" points="1465.49,-200.778 1473.26,-193.581 1462.7,-194.358 1465.49,-200.778"/>
</g>
<!-- Node27&#45;&gt;Node4 -->
<g id="edge34" class="edge"><title>Node27&#45;&gt;Node4</title>
<path fill="none" stroke="midnightblue" d="M1202.49,-174.467C1146.17,-163.671 1049.21,-145.086 988.515,-133.45"/>
<polygon fill="midnightblue" stroke="midnightblue" points="988.839,-129.949 978.359,-131.503 987.522,-136.824 988.839,-129.949"/>
</g>
<!-- Node27&#45;&gt;Node12 -->
<g id="edge36" class="edge"><title>Node27&#45;&gt;Node12</title>
<path fill="none" stroke="midnightblue" d="M1233.39,-174.403C1217.94,-164.646 1192.51,-148.585 1174.18,-137.011"/>
<polygon fill="midnightblue" stroke="midnightblue" points="1175.91,-133.961 1165.59,-131.581 1172.17,-139.88 1175.91,-133.961"/>
</g>
<!-- Node27&#45;&gt;Node26 -->
<g id="edge35" class="edge"><title>Node27&#45;&gt;Node26</title>
<path fill="none" stroke="midnightblue" d="M1257.6,-174.403C1269.25,-164.958 1288.19,-149.606 1302.33,-138.134"/>
<polygon fill="midnightblue" stroke="midnightblue" points="1304.85,-140.597 1310.42,-131.581 1300.45,-135.16 1304.85,-140.597"/>
</g>
</g>
</svg>
