<?xml version="1.0" encoding="UTF-8" standalone="no"?>
<!DOCTYPE svg PUBLIC "-//W3C//DTD SVG 1.1//EN"
 "http://www.w3.org/Graphics/SVG/1.1/DTD/svg11.dtd">
<!-- Generated by graphviz version 2.36.0 (20140111.2315)
 -->
<!-- Title: /home/travis/build/STORM&#45;IRIT/Radium&#45;Engine/src/Engine/Renderer/Camera/Camera.cpp Pages: 1 -->
<svg width="943pt" height="490pt"
 viewBox="0.00 0.00 942.52 490.00" xmlns="http://www.w3.org/2000/svg" xmlns:xlink="http://www.w3.org/1999/xlink">
<g id="graph0" class="graph" transform="scale(1 1) rotate(0) translate(4 486)">
<title>/home/travis/build/STORM&#45;IRIT/Radium&#45;Engine/src/Engine/Renderer/Camera/Camera.cpp</title>
<polygon fill="white" stroke="none" points="-4,4 -4,-486 938.524,-486 938.524,4 -4,4"/>
<!-- Node1 -->
<g id="node1" class="node"><title>Node1</title>
<polygon fill="#bfbfbf" stroke="black" points="583.524,-429 583.524,-481 731.524,-481 731.524,-429 583.524,-429"/>
<text text-anchor="start" x="591.524" y="-469" font-family="Helvetica,sans-Serif" font-size="10.00">/home/travis/build</text>
<text text-anchor="start" x="591.524" y="-458" font-family="Helvetica,sans-Serif" font-size="10.00">/STORM&#45;IRIT/Radium&#45;Engine</text>
<text text-anchor="start" x="591.524" y="-447" font-family="Helvetica,sans-Serif" font-size="10.00">/src/Engine/Renderer/Camera</text>
<text text-anchor="middle" x="657.524" y="-436" font-family="Helvetica,sans-Serif" font-size="10.00">/Camera.cpp</text>
</g>
<!-- Node2 -->
<g id="node2" class="node"><title>Node2</title>
<g id="a_node2"><a xlink:href="Camera_8hpp.html" target="_top" xlink:title="Engine/Renderer/Camera\l/Camera.hpp">
<polygon fill="white" stroke="black" points="472.024,-361 472.024,-391 599.024,-391 599.024,-361 472.024,-361"/>
<text text-anchor="start" x="480.024" y="-379" font-family="Helvetica,sans-Serif" font-size="10.00">Engine/Renderer/Camera</text>
<text text-anchor="middle" x="535.524" y="-368" font-family="Helvetica,sans-Serif" font-size="10.00">/Camera.hpp</text>
</a>
</g>
</g>
<!-- Node1&#45;&gt;Node2 -->
<g id="edge1" class="edge"><title>Node1&#45;&gt;Node2</title>
<path fill="none" stroke="midnightblue" d="M617.577,-428.787C600.962,-418.301 581.973,-406.316 566.45,-396.519"/>
<polygon fill="midnightblue" stroke="midnightblue" points="568.079,-393.408 557.754,-391.031 564.343,-399.328 568.079,-393.408"/>
</g>
<!-- Node17 -->
<g id="node17" class="node"><title>Node17</title>
<g id="a_node17"><a xlink:href="Math_8hpp.html" target="_top" xlink:title="Core/Math/Math.hpp">
<polygon fill="white" stroke="black" points="758.524,-174.5 758.524,-193.5 864.524,-193.5 864.524,-174.5 758.524,-174.5"/>
<text text-anchor="middle" x="811.524" y="-181.5" font-family="Helvetica,sans-Serif" font-size="10.00">Core/Math/Math.hpp</text>
</a>
</g>
</g>
<!-- Node1&#45;&gt;Node17 -->
<g id="edge29" class="edge"><title>Node1&#45;&gt;Node17</title>
<path fill="none" stroke="midnightblue" d="M672.012,-428.693C702.984,-374.593 774.972,-248.847 801.487,-202.533"/>
<polygon fill="midnightblue" stroke="midnightblue" points="804.623,-204.098 806.554,-193.681 798.548,-200.62 804.623,-204.098"/>
</g>
<!-- Node3 -->
<g id="node3" class="node"><title>Node3</title>
<g id="a_node3"><a xlink:href="RaEngine_8hpp.html" target="_top" xlink:title="Engine/RaEngine.hpp">
<polygon fill="white" stroke="black" points="129.024,-236.5 129.024,-255.5 240.024,-255.5 240.024,-236.5 129.024,-236.5"/>
<text text-anchor="middle" x="184.524" y="-243.5" font-family="Helvetica,sans-Serif" font-size="10.00">Engine/RaEngine.hpp</text>
</a>
</g>
</g>
<!-- Node2&#45;&gt;Node3 -->
<g id="edge2" class="edge"><title>Node2&#45;&gt;Node3</title>
<path fill="none" stroke="midnightblue" d="M529.91,-360.863C521.555,-341.824 503.942,-308.439 477.524,-292 440.643,-269.05 324.997,-256.8 250.501,-251.118"/>
<polygon fill="midnightblue" stroke="midnightblue" points="250.506,-247.608 240.275,-250.359 249.988,-254.589 250.506,-247.608"/>
</g>
<!-- Node10 -->
<g id="node10" class="node"><title>Node10</title>
<g id="a_node10"><a xlink:href="LinearAlgebra_8hpp.html" target="_top" xlink:title="Core/Math/LinearAlgebra.hpp">
<polygon fill="white" stroke="black" points="459.024,-236.5 459.024,-255.5 602.024,-255.5 602.024,-236.5 459.024,-236.5"/>
<text text-anchor="middle" x="530.524" y="-243.5" font-family="Helvetica,sans-Serif" font-size="10.00">Core/Math/LinearAlgebra.hpp</text>
</a>
</g>
</g>
<!-- Node2&#45;&gt;Node10 -->
<g id="edge9" class="edge"><title>Node2&#45;&gt;Node10</title>
<path fill="none" stroke="midnightblue" d="M534.97,-360.813C534.066,-337.67 532.273,-291.785 531.262,-265.904"/>
<polygon fill="midnightblue" stroke="midnightblue" points="534.747,-265.43 530.859,-255.574 527.752,-265.703 534.747,-265.43"/>
</g>
<!-- Node22 -->
<g id="node22" class="node"><title>Node22</title>
<g id="a_node22"><a xlink:href="Ray_8hpp.html" target="_top" xlink:title="Core/Math/Ray.hpp">
<polygon fill="white" stroke="black" points="582.524,-298.5 582.524,-317.5 684.524,-317.5 684.524,-298.5 582.524,-298.5"/>
<text text-anchor="middle" x="633.524" y="-305.5" font-family="Helvetica,sans-Serif" font-size="10.00">Core/Math/Ray.hpp</text>
</a>
</g>
</g>
<!-- Node2&#45;&gt;Node22 -->
<g id="edge24" class="edge"><title>Node2&#45;&gt;Node22</title>
<path fill="none" stroke="midnightblue" d="M556.789,-360.679C573.223,-349.611 595.864,-334.363 612.29,-323.3"/>
<polygon fill="midnightblue" stroke="midnightblue" points="614.359,-326.127 620.698,-317.638 610.449,-320.321 614.359,-326.127"/>
</g>
<!-- Node23 -->
<g id="node23" class="node"><title>Node23</title>
<g id="a_node23"><a xlink:href="Camera_8inl.html" target="_top" xlink:title="Engine/Renderer/Camera\l/Camera.inl">
<polygon fill="white" stroke="black" points="342.024,-293 342.024,-323 469.024,-323 469.024,-293 342.024,-293"/>
<text text-anchor="start" x="350.024" y="-311" font-family="Helvetica,sans-Serif" font-size="10.00">Engine/Renderer/Camera</text>
<text text-anchor="middle" x="405.524" y="-300" font-family="Helvetica,sans-Serif" font-size="10.00">/Camera.inl</text>
</a>
</g>
</g>
<!-- Node2&#45;&gt;Node23 -->
<g id="edge28" class="edge"><title>Node2&#45;&gt;Node23</title>
<path fill="none" stroke="midnightblue" d="M507.636,-360.841C488.615,-351.185 463.217,-338.29 442.51,-327.778"/>
<polygon fill="midnightblue" stroke="midnightblue" points="443.867,-324.541 433.366,-323.135 440.698,-330.783 443.867,-324.541"/>
</g>
<!-- Node4 -->
<g id="node4" class="node"><title>Node4</title>
<g id="a_node4"><a xlink:href="CoreMacros_8hpp.html" target="_top" xlink:title="Core/CoreMacros.hpp">
<polygon fill="white" stroke="black" points="239.024,-56.5 239.024,-75.5 352.024,-75.5 352.024,-56.5 239.024,-56.5"/>
<text text-anchor="middle" x="295.524" y="-63.5" font-family="Helvetica,sans-Serif" font-size="10.00">Core/CoreMacros.hpp</text>
</a>
</g>
</g>
<!-- Node3&#45;&gt;Node4 -->
<g id="edge3" class="edge"><title>Node3&#45;&gt;Node4</title>
<path fill="none" stroke="midnightblue" d="M128.814,-240.726C65.2815,-233.562 -25.7652,-214.951 7.52403,-168 57.4431,-97.5939 160.435,-75.8937 228.751,-69.4223"/>
<polygon fill="midnightblue" stroke="midnightblue" points="229.323,-72.8862 238.986,-68.5416 228.723,-65.9119 229.323,-72.8862"/>
</g>
<!-- Node5 -->
<g id="node5" class="node"><title>Node5</title>
<polygon fill="white" stroke="#bfbfbf" points="140.024,-0.5 140.024,-19.5 189.024,-19.5 189.024,-0.5 140.024,-0.5"/>
<text text-anchor="middle" x="164.524" y="-7.5" font-family="Helvetica,sans-Serif" font-size="10.00">cassert</text>
</g>
<!-- Node4&#45;&gt;Node5 -->
<g id="edge4" class="edge"><title>Node4&#45;&gt;Node5</title>
<path fill="none" stroke="midnightblue" d="M274.767,-56.4435C253.208,-47.5566 219.261,-33.5632 194.73,-23.4514"/>
<polygon fill="midnightblue" stroke="midnightblue" points="195.763,-20.0917 185.184,-19.5164 193.096,-26.5634 195.763,-20.0917"/>
</g>
<!-- Node6 -->
<g id="node6" class="node"><title>Node6</title>
<polygon fill="white" stroke="#bfbfbf" points="207.024,-0.5 207.024,-19.5 250.024,-19.5 250.024,-0.5 207.024,-0.5"/>
<text text-anchor="middle" x="228.524" y="-7.5" font-family="Helvetica,sans-Serif" font-size="10.00">cstdio</text>
</g>
<!-- Node4&#45;&gt;Node6 -->
<g id="edge5" class="edge"><title>Node4&#45;&gt;Node6</title>
<path fill="none" stroke="midnightblue" d="M284.759,-56.324C274.758,-48.2631 259.637,-36.0765 247.594,-26.3695"/>
<polygon fill="midnightblue" stroke="midnightblue" points="249.467,-23.3841 239.485,-19.8339 245.074,-28.8343 249.467,-23.3841"/>
</g>
<!-- Node7 -->
<g id="node7" class="node"><title>Node7</title>
<polygon fill="white" stroke="#bfbfbf" points="268.524,-0.5 268.524,-19.5 322.524,-19.5 322.524,-0.5 268.524,-0.5"/>
<text text-anchor="middle" x="295.524" y="-7.5" font-family="Helvetica,sans-Serif" font-size="10.00">iostream</text>
</g>
<!-- Node4&#45;&gt;Node7 -->
<g id="edge6" class="edge"><title>Node4&#45;&gt;Node7</title>
<path fill="none" stroke="midnightblue" d="M295.524,-56.083C295.524,-49.0059 295.524,-38.8611 295.524,-29.9865"/>
<polygon fill="midnightblue" stroke="midnightblue" points="299.024,-29.751 295.524,-19.7511 292.024,-29.7511 299.024,-29.751"/>
</g>
<!-- Node8 -->
<g id="node8" class="node"><title>Node8</title>
<polygon fill="white" stroke="#bfbfbf" points="340.524,-0.5 340.524,-19.5 392.524,-19.5 392.524,-0.5 340.524,-0.5"/>
<text text-anchor="middle" x="366.524" y="-7.5" font-family="Helvetica,sans-Serif" font-size="10.00">sstream</text>
</g>
<!-- Node4&#45;&gt;Node8 -->
<g id="edge7" class="edge"><title>Node4&#45;&gt;Node8</title>
<path fill="none" stroke="midnightblue" d="M306.931,-56.324C317.633,-48.1849 333.865,-35.8395 346.687,-26.0874"/>
<polygon fill="midnightblue" stroke="midnightblue" points="349.068,-28.6734 354.909,-19.8339 344.831,-23.1018 349.068,-28.6734"/>
</g>
<!-- Node9 -->
<g id="node9" class="node"><title>Node9</title>
<polygon fill="white" stroke="#bfbfbf" points="410.524,-0.5 410.524,-19.5 454.524,-19.5 454.524,-0.5 410.524,-0.5"/>
<text text-anchor="middle" x="432.524" y="-7.5" font-family="Helvetica,sans-Serif" font-size="10.00">thread</text>
</g>
<!-- Node4&#45;&gt;Node9 -->
<g id="edge8" class="edge"><title>Node4&#45;&gt;Node9</title>
<path fill="none" stroke="midnightblue" d="M317.232,-56.4435C339.879,-47.5171 375.596,-33.4387 401.276,-23.3168"/>
<polygon fill="midnightblue" stroke="midnightblue" points="402.898,-26.4397 410.918,-19.5164 400.331,-19.9273 402.898,-26.4397"/>
</g>
<!-- Node11 -->
<g id="node11" class="node"><title>Node11</title>
<g id="a_node11"><a xlink:href="RaCore_8hpp.html" target="_top" xlink:title="Core/RaCore.hpp">
<polygon fill="white" stroke="black" points="556.024,-112.5 556.024,-131.5 649.024,-131.5 649.024,-112.5 556.024,-112.5"/>
<text text-anchor="middle" x="602.524" y="-119.5" font-family="Helvetica,sans-Serif" font-size="10.00">Core/RaCore.hpp</text>
</a>
</g>
</g>
<!-- Node10&#45;&gt;Node11 -->
<g id="edge10" class="edge"><title>Node10&#45;&gt;Node11</title>
<path fill="none" stroke="midnightblue" d="M538.35,-236.498C546.125,-227.775 558.075,-213.596 566.524,-200 578.408,-180.876 588.915,-157.196 595.464,-141.184"/>
<polygon fill="midnightblue" stroke="midnightblue" points="598.715,-142.479 599.171,-131.894 592.214,-139.884 598.715,-142.479"/>
</g>
<!-- Node12 -->
<g id="node12" class="node"><title>Node12</title>
<polygon fill="white" stroke="#bfbfbf" points="493.024,-174.5 493.024,-193.5 558.024,-193.5 558.024,-174.5 493.024,-174.5"/>
<text text-anchor="middle" x="525.524" y="-181.5" font-family="Helvetica,sans-Serif" font-size="10.00">Eigen/Core</text>
</g>
<!-- Node10&#45;&gt;Node12 -->
<g id="edge12" class="edge"><title>Node10&#45;&gt;Node12</title>
<path fill="none" stroke="midnightblue" d="M529.808,-236.403C529.102,-227.938 528.001,-214.728 527.092,-203.82"/>
<polygon fill="midnightblue" stroke="midnightblue" points="530.558,-203.255 526.239,-193.581 523.582,-203.837 530.558,-203.255"/>
</g>
<!-- Node13 -->
<g id="node13" class="node"><title>Node13</title>
<polygon fill="white" stroke="#bfbfbf" points="615.024,-174.5 615.024,-193.5 702.024,-193.5 702.024,-174.5 615.024,-174.5"/>
<text text-anchor="middle" x="658.524" y="-181.5" font-family="Helvetica,sans-Serif" font-size="10.00">Eigen/Geometry</text>
</g>
<!-- Node10&#45;&gt;Node13 -->
<g id="edge13" class="edge"><title>Node10&#45;&gt;Node13</title>
<path fill="none" stroke="midnightblue" d="M548.863,-236.403C570.345,-226.334 606.146,-209.552 630.972,-197.915"/>
<polygon fill="midnightblue" stroke="midnightblue" points="632.65,-200.994 640.219,-193.581 629.679,-194.656 632.65,-200.994"/>
</g>
<!-- Node14 -->
<g id="node14" class="node"><title>Node14</title>
<polygon fill="white" stroke="#bfbfbf" points="17.024,-174.5 17.024,-193.5 92.024,-193.5 92.024,-174.5 17.024,-174.5"/>
<text text-anchor="middle" x="54.524" y="-181.5" font-family="Helvetica,sans-Serif" font-size="10.00">Eigen/Sparse</text>
</g>
<!-- Node10&#45;&gt;Node14 -->
<g id="edge14" class="edge"><title>Node10&#45;&gt;Node14</title>
<path fill="none" stroke="midnightblue" d="M458.662,-242.112C372.688,-237.596 224.78,-226.451 100.524,-200 96.2723,-199.095 91.8598,-197.943 87.5252,-196.681"/>
<polygon fill="midnightblue" stroke="midnightblue" points="88.2539,-193.241 77.6651,-193.6 86.1662,-199.923 88.2539,-193.241"/>
</g>
<!-- Node15 -->
<g id="node15" class="node"><title>Node15</title>
<polygon fill="white" stroke="#bfbfbf" points="110.024,-174.5 110.024,-193.5 169.024,-193.5 169.024,-174.5 110.024,-174.5"/>
<text text-anchor="middle" x="139.524" y="-181.5" font-family="Helvetica,sans-Serif" font-size="10.00">functional</text>
</g>
<!-- Node10&#45;&gt;Node15 -->
<g id="edge15" class="edge"><title>Node10&#45;&gt;Node15</title>
<path fill="none" stroke="midnightblue" d="M458.886,-241.111C386.865,-235.983 273.117,-224.549 177.524,-200 174.463,-199.214 171.316,-198.247 168.206,-197.186"/>
<polygon fill="midnightblue" stroke="midnightblue" points="169.14,-193.799 158.547,-193.582 166.693,-200.357 169.14,-193.799"/>
</g>
<!-- Node16 -->
<g id="node16" class="node"><title>Node16</title>
<polygon fill="white" stroke="#bfbfbf" points="187.024,-169 187.024,-199 320.024,-199 320.024,-169 187.024,-169"/>
<text text-anchor="start" x="195.024" y="-187" font-family="Helvetica,sans-Serif" font-size="10.00">unsupported/Eigen/Aligned</text>
<text text-anchor="middle" x="253.524" y="-176" font-family="Helvetica,sans-Serif" font-size="10.00">Vector3</text>
</g>
<!-- Node10&#45;&gt;Node16 -->
<g id="edge16" class="edge"><title>Node10&#45;&gt;Node16</title>
<path fill="none" stroke="midnightblue" d="M491.131,-236.467C448.894,-227.318 380.834,-212.576 328.359,-201.21"/>
<polygon fill="midnightblue" stroke="midnightblue" points="328.933,-197.753 318.418,-199.057 327.451,-204.594 328.933,-197.753"/>
</g>
<!-- Node10&#45;&gt;Node17 -->
<g id="edge17" class="edge"><title>Node10&#45;&gt;Node17</title>
<path fill="none" stroke="midnightblue" d="M570.486,-236.467C620.839,-225.716 707.371,-207.239 761.905,-195.595"/>
<polygon fill="midnightblue" stroke="midnightblue" points="762.651,-199.014 771.7,-193.503 761.189,-192.169 762.651,-199.014"/>
</g>
<!-- Node21 -->
<g id="node21" class="node"><title>Node21</title>
<g id="a_node21"><a xlink:href="LinearAlgebra_8inl.html" target="_top" xlink:title="Core/Math/LinearAlgebra.inl">
<polygon fill="white" stroke="black" points="338.024,-174.5 338.024,-193.5 475.024,-193.5 475.024,-174.5 338.024,-174.5"/>
<text text-anchor="middle" x="406.524" y="-181.5" font-family="Helvetica,sans-Serif" font-size="10.00">Core/Math/LinearAlgebra.inl</text>
</a>
</g>
</g>
<!-- Node10&#45;&gt;Node21 -->
<g id="edge23" class="edge"><title>Node10&#45;&gt;Node21</title>
<path fill="none" stroke="midnightblue" d="M512.758,-236.403C492.04,-226.379 457.572,-209.701 433.535,-198.07"/>
<polygon fill="midnightblue" stroke="midnightblue" points="434.783,-194.786 424.257,-193.581 431.734,-201.087 434.783,-194.786"/>
</g>
<!-- Node11&#45;&gt;Node4 -->
<g id="edge11" class="edge"><title>Node11&#45;&gt;Node4</title>
<path fill="none" stroke="midnightblue" d="M555.897,-112.799C501.747,-103.274 412.371,-87.5528 353.717,-77.2358"/>
<polygon fill="midnightblue" stroke="midnightblue" points="354.313,-73.7871 343.858,-75.5018 353.101,-80.6813 354.313,-73.7871"/>
</g>
<!-- Node17&#45;&gt;Node11 -->
<g id="edge18" class="edge"><title>Node17&#45;&gt;Node11</title>
<path fill="none" stroke="midnightblue" d="M781.579,-174.403C744.953,-163.889 682.829,-146.054 642.24,-134.402"/>
<polygon fill="midnightblue" stroke="midnightblue" points="642.991,-130.976 632.413,-131.581 641.059,-137.704 642.991,-130.976"/>
</g>
<!-- Node18 -->
<g id="node18" class="node"><title>Node18</title>
<polygon fill="white" stroke="#bfbfbf" points="698.524,-112.5 698.524,-131.5 754.524,-131.5 754.524,-112.5 698.524,-112.5"/>
<text text-anchor="middle" x="726.524" y="-119.5" font-family="Helvetica,sans-Serif" font-size="10.00">algorithm</text>
</g>
<!-- Node17&#45;&gt;Node18 -->
<g id="edge19" class="edge"><title>Node17&#45;&gt;Node18</title>
<path fill="none" stroke="midnightblue" d="M799.346,-174.403C785.712,-164.78 763.392,-149.024 747.05,-137.489"/>
<polygon fill="midnightblue" stroke="midnightblue" points="748.868,-134.488 738.68,-131.581 744.831,-140.207 748.868,-134.488"/>
</g>
<!-- Node19 -->
<g id="node19" class="node"><title>Node19</title>
<polygon fill="white" stroke="#bfbfbf" points="772.524,-112.5 772.524,-131.5 816.524,-131.5 816.524,-112.5 772.524,-112.5"/>
<text text-anchor="middle" x="794.524" y="-119.5" font-family="Helvetica,sans-Serif" font-size="10.00">cmath</text>
</g>
<!-- Node17&#45;&gt;Node19 -->
<g id="edge20" class="edge"><title>Node17&#45;&gt;Node19</title>
<path fill="none" stroke="midnightblue" d="M809.088,-174.403C806.665,-165.849 802.868,-152.45 799.759,-141.476"/>
<polygon fill="midnightblue" stroke="midnightblue" points="803.049,-140.248 796.955,-131.581 796.314,-142.156 803.049,-140.248"/>
</g>
<!-- Node20 -->
<g id="node20" class="node"><title>Node20</title>
<g id="a_node20"><a xlink:href="Math_8inl.html" target="_top" xlink:title="Core/Math/Math.inl">
<polygon fill="white" stroke="black" points="834.524,-112.5 834.524,-131.5 934.524,-131.5 934.524,-112.5 834.524,-112.5"/>
<text text-anchor="middle" x="884.524" y="-119.5" font-family="Helvetica,sans-Serif" font-size="10.00">Core/Math/Math.inl</text>
</a>
</g>
</g>
<!-- Node17&#45;&gt;Node20 -->
<g id="edge21" class="edge"><title>Node17&#45;&gt;Node20</title>
<path fill="none" stroke="midnightblue" d="M817.083,-174.403C826.71,-164.78 845.555,-149.024 861.022,-137.489"/>
<polygon fill="midnightblue" stroke="midnightblue" points="863.137,-140.278 869.187,-131.581 859.034,-134.607 863.137,-140.278"/>
</g>
<!-- Node20&#45;&gt;Node17 -->
<g id="edge22" class="edge"><title>Node20&#45;&gt;Node17</title>
<path fill="none" stroke="midnightblue" d="M878.981,-131.581C869.364,-141.198 850.523,-156.952 835.052,-168.492"/>
<polygon fill="midnightblue" stroke="midnightblue" points="832.933,-165.705 826.884,-174.403 837.037,-171.376 832.933,-165.705"/>
</g>
<!-- Node22&#45;&gt;Node10 -->
<g id="edge25" class="edge"><title>Node22&#45;&gt;Node10</title>
<path fill="none" stroke="midnightblue" d="M618.767,-298.403C601.863,-288.557 573.941,-272.291 554.034,-260.695"/>
<polygon fill="midnightblue" stroke="midnightblue" points="555.657,-257.59 545.254,-255.581 552.133,-263.638 555.657,-257.59"/>
</g>
<!-- Node22&#45;&gt;Node11 -->
<g id="edge26" class="edge"><title>Node22&#45;&gt;Node11</title>
<path fill="none" stroke="midnightblue" d="M645.209,-298.251C673.647,-275.883 741.894,-215.056 710.524,-168 698.759,-150.353 678.625,-139.615 658.906,-133.086"/>
<polygon fill="midnightblue" stroke="midnightblue" points="659.881,-129.725 649.297,-130.207 657.872,-136.43 659.881,-129.725"/>
</g>
<!-- Node22&#45;&gt;Node13 -->
<g id="edge27" class="edge"><title>Node22&#45;&gt;Node13</title>
<path fill="none" stroke="midnightblue" d="M635.322,-298.226C639.358,-278.53 649.213,-230.437 654.692,-203.7"/>
<polygon fill="midnightblue" stroke="midnightblue" points="658.164,-204.194 656.742,-193.694 651.306,-202.788 658.164,-204.194"/>
</g>
</g>
</svg>
