<?xml version="1.0" encoding="UTF-8" standalone="no"?>
<!DOCTYPE svg PUBLIC "-//W3C//DTD SVG 1.1//EN"
 "http://www.w3.org/Graphics/SVG/1.1/DTD/svg11.dtd">
<!-- Generated by graphviz version 2.36.0 (20140111.2315)
 -->
<!-- Title: /home/travis/build/STORM&#45;IRIT/Radium&#45;Engine/src/Engine/Renderer/Camera/Camera.hpp Pages: 1 -->
<svg width="850pt" height="422pt"
 viewBox="0.00 0.00 849.55 422.00" xmlns="http://www.w3.org/2000/svg" xmlns:xlink="http://www.w3.org/1999/xlink">
<g id="graph0" class="graph" transform="scale(1 1) rotate(0) translate(4 418)">
<title>/home/travis/build/STORM&#45;IRIT/Radium&#45;Engine/src/Engine/Renderer/Camera/Camera.hpp</title>
<polygon fill="white" stroke="none" points="-4,4 -4,-418 845.551,-418 845.551,4 -4,4"/>
<!-- Node1 -->
<g id="node1" class="node"><title>Node1</title>
<polygon fill="#bfbfbf" stroke="black" points="500.104,-361 500.104,-413 648.104,-413 648.104,-361 500.104,-361"/>
<text text-anchor="start" x="508.104" y="-401" font-family="Helvetica,sans-Serif" font-size="10.00">/home/travis/build</text>
<text text-anchor="start" x="508.104" y="-390" font-family="Helvetica,sans-Serif" font-size="10.00">/STORM&#45;IRIT/Radium&#45;Engine</text>
<text text-anchor="start" x="508.104" y="-379" font-family="Helvetica,sans-Serif" font-size="10.00">/src/Engine/Renderer/Camera</text>
<text text-anchor="middle" x="574.104" y="-368" font-family="Helvetica,sans-Serif" font-size="10.00">/Camera.hpp</text>
</g>
<!-- Node2 -->
<g id="node2" class="node"><title>Node2</title>
<g id="a_node2"><a xlink:href="RaEngine_8hpp.html" target="_top" xlink:title="Engine/RaEngine.hpp">
<polygon fill="white" stroke="black" points="133.604,-236.5 133.604,-255.5 244.604,-255.5 244.604,-236.5 133.604,-236.5"/>
<text text-anchor="middle" x="189.104" y="-243.5" font-family="Helvetica,sans-Serif" font-size="10.00">Engine/RaEngine.hpp</text>
</a>
</g>
</g>
<!-- Node1&#45;&gt;Node2 -->
<g id="edge1" class="edge"><title>Node1&#45;&gt;Node2</title>
<path fill="none" stroke="midnightblue" d="M504.829,-360.989C421.568,-330.929 285.249,-281.712 222.559,-259.079"/>
<polygon fill="midnightblue" stroke="midnightblue" points="223.39,-255.658 212.796,-255.554 221.013,-262.242 223.39,-255.658"/>
</g>
<!-- Node9 -->
<g id="node9" class="node"><title>Node9</title>
<g id="a_node9"><a xlink:href="LinearAlgebra_8hpp.html" target="_top" xlink:title="Core/Math/LinearAlgebra.hpp">
<polygon fill="white" stroke="black" points="463.604,-236.5 463.604,-255.5 606.604,-255.5 606.604,-236.5 463.604,-236.5"/>
<text text-anchor="middle" x="535.104" y="-243.5" font-family="Helvetica,sans-Serif" font-size="10.00">Core/Math/LinearAlgebra.hpp</text>
</a>
</g>
</g>
<!-- Node1&#45;&gt;Node9 -->
<g id="edge8" class="edge"><title>Node1&#45;&gt;Node9</title>
<path fill="none" stroke="midnightblue" d="M565.526,-360.783C561.829,-349.575 557.567,-336.184 554.104,-324 548.468,-304.177 542.928,-281.213 539.297,-265.557"/>
<polygon fill="midnightblue" stroke="midnightblue" points="542.661,-264.564 537.018,-255.597 535.837,-266.126 542.661,-264.564"/>
</g>
<!-- Node21 -->
<g id="node21" class="node"><title>Node21</title>
<g id="a_node21"><a xlink:href="Ray_8hpp.html" target="_top" xlink:title="Core/Math/Ray.hpp">
<polygon fill="white" stroke="black" points="563.104,-298.5 563.104,-317.5 665.104,-317.5 665.104,-298.5 563.104,-298.5"/>
<text text-anchor="middle" x="614.104" y="-305.5" font-family="Helvetica,sans-Serif" font-size="10.00">Core/Math/Ray.hpp</text>
</a>
</g>
</g>
<!-- Node1&#45;&gt;Node21 -->
<g id="edge23" class="edge"><title>Node1&#45;&gt;Node21</title>
<path fill="none" stroke="midnightblue" d="M587.201,-360.787C593.011,-349.603 599.707,-336.713 604.965,-326.591"/>
<polygon fill="midnightblue" stroke="midnightblue" points="608.154,-328.045 609.658,-317.558 601.942,-324.818 608.154,-328.045"/>
</g>
<!-- Node22 -->
<g id="node22" class="node"><title>Node22</title>
<g id="a_node22"><a xlink:href="Camera_8inl.html" target="_top" xlink:title="Engine/Renderer/Camera\l/Camera.inl">
<polygon fill="white" stroke="black" points="683.604,-293 683.604,-323 810.604,-323 810.604,-293 683.604,-293"/>
<text text-anchor="start" x="691.604" y="-311" font-family="Helvetica,sans-Serif" font-size="10.00">Engine/Renderer/Camera</text>
<text text-anchor="middle" x="747.104" y="-300" font-family="Helvetica,sans-Serif" font-size="10.00">/Camera.inl</text>
</a>
</g>
</g>
<!-- Node1&#45;&gt;Node22 -->
<g id="edge27" class="edge"><title>Node1&#45;&gt;Node22</title>
<path fill="none" stroke="midnightblue" d="M630.75,-360.787C655.411,-349.811 683.761,-337.193 706.303,-327.16"/>
<polygon fill="midnightblue" stroke="midnightblue" points="707.867,-330.295 715.58,-323.031 705.021,-323.899 707.867,-330.295"/>
</g>
<!-- Node3 -->
<g id="node3" class="node"><title>Node3</title>
<g id="a_node3"><a xlink:href="CoreMacros_8hpp.html" target="_top" xlink:title="Core/CoreMacros.hpp">
<polygon fill="white" stroke="black" points="192.604,-56.5 192.604,-75.5 305.604,-75.5 305.604,-56.5 192.604,-56.5"/>
<text text-anchor="middle" x="249.104" y="-63.5" font-family="Helvetica,sans-Serif" font-size="10.00">Core/CoreMacros.hpp</text>
</a>
</g>
</g>
<!-- Node2&#45;&gt;Node3 -->
<g id="edge2" class="edge"><title>Node2&#45;&gt;Node3</title>
<path fill="none" stroke="midnightblue" d="M133.455,-241.516C68.6064,-235.143 -25.7581,-217.324 7.10357,-168 45.8585,-109.831 125.171,-85.1058 182.454,-74.6323"/>
<polygon fill="midnightblue" stroke="midnightblue" points="183.261,-78.0449 192.52,-72.8957 182.071,-71.1468 183.261,-78.0449"/>
</g>
<!-- Node4 -->
<g id="node4" class="node"><title>Node4</title>
<polygon fill="white" stroke="#bfbfbf" points="93.6036,-0.5 93.6036,-19.5 142.604,-19.5 142.604,-0.5 93.6036,-0.5"/>
<text text-anchor="middle" x="118.104" y="-7.5" font-family="Helvetica,sans-Serif" font-size="10.00">cassert</text>
</g>
<!-- Node3&#45;&gt;Node4 -->
<g id="edge3" class="edge"><title>Node3&#45;&gt;Node4</title>
<path fill="none" stroke="midnightblue" d="M228.346,-56.4435C206.787,-47.5566 172.84,-33.5632 148.31,-23.4514"/>
<polygon fill="midnightblue" stroke="midnightblue" points="149.343,-20.0917 138.764,-19.5164 146.675,-26.5634 149.343,-20.0917"/>
</g>
<!-- Node5 -->
<g id="node5" class="node"><title>Node5</title>
<polygon fill="white" stroke="#bfbfbf" points="160.604,-0.5 160.604,-19.5 203.604,-19.5 203.604,-0.5 160.604,-0.5"/>
<text text-anchor="middle" x="182.104" y="-7.5" font-family="Helvetica,sans-Serif" font-size="10.00">cstdio</text>
</g>
<!-- Node3&#45;&gt;Node5 -->
<g id="edge4" class="edge"><title>Node3&#45;&gt;Node5</title>
<path fill="none" stroke="midnightblue" d="M238.339,-56.324C228.337,-48.2631 213.217,-36.0765 201.173,-26.3695"/>
<polygon fill="midnightblue" stroke="midnightblue" points="203.046,-23.3841 193.064,-19.8339 198.654,-28.8343 203.046,-23.3841"/>
</g>
<!-- Node6 -->
<g id="node6" class="node"><title>Node6</title>
<polygon fill="white" stroke="#bfbfbf" points="222.104,-0.5 222.104,-19.5 276.104,-19.5 276.104,-0.5 222.104,-0.5"/>
<text text-anchor="middle" x="249.104" y="-7.5" font-family="Helvetica,sans-Serif" font-size="10.00">iostream</text>
</g>
<!-- Node3&#45;&gt;Node6 -->
<g id="edge5" class="edge"><title>Node3&#45;&gt;Node6</title>
<path fill="none" stroke="midnightblue" d="M249.104,-56.083C249.104,-49.0059 249.104,-38.8611 249.104,-29.9865"/>
<polygon fill="midnightblue" stroke="midnightblue" points="252.604,-29.751 249.104,-19.7511 245.604,-29.7511 252.604,-29.751"/>
</g>
<!-- Node7 -->
<g id="node7" class="node"><title>Node7</title>
<polygon fill="white" stroke="#bfbfbf" points="294.104,-0.5 294.104,-19.5 346.104,-19.5 346.104,-0.5 294.104,-0.5"/>
<text text-anchor="middle" x="320.104" y="-7.5" font-family="Helvetica,sans-Serif" font-size="10.00">sstream</text>
</g>
<!-- Node3&#45;&gt;Node7 -->
<g id="edge6" class="edge"><title>Node3&#45;&gt;Node7</title>
<path fill="none" stroke="midnightblue" d="M260.511,-56.324C271.212,-48.1849 287.444,-35.8395 300.266,-26.0874"/>
<polygon fill="midnightblue" stroke="midnightblue" points="302.648,-28.6734 308.489,-19.8339 298.41,-23.1018 302.648,-28.6734"/>
</g>
<!-- Node8 -->
<g id="node8" class="node"><title>Node8</title>
<polygon fill="white" stroke="#bfbfbf" points="364.104,-0.5 364.104,-19.5 408.104,-19.5 408.104,-0.5 364.104,-0.5"/>
<text text-anchor="middle" x="386.104" y="-7.5" font-family="Helvetica,sans-Serif" font-size="10.00">thread</text>
</g>
<!-- Node3&#45;&gt;Node8 -->
<g id="edge7" class="edge"><title>Node3&#45;&gt;Node8</title>
<path fill="none" stroke="midnightblue" d="M270.812,-56.4435C293.458,-47.5171 329.176,-33.4387 354.855,-23.3168"/>
<polygon fill="midnightblue" stroke="midnightblue" points="356.477,-26.4397 364.497,-19.5164 353.91,-19.9273 356.477,-26.4397"/>
</g>
<!-- Node10 -->
<g id="node10" class="node"><title>Node10</title>
<g id="a_node10"><a xlink:href="RaCore_8hpp.html" target="_top" xlink:title="Core/RaCore.hpp">
<polygon fill="white" stroke="black" points="463.604,-112.5 463.604,-131.5 556.604,-131.5 556.604,-112.5 463.604,-112.5"/>
<text text-anchor="middle" x="510.104" y="-119.5" font-family="Helvetica,sans-Serif" font-size="10.00">Core/RaCore.hpp</text>
</a>
</g>
</g>
<!-- Node9&#45;&gt;Node10 -->
<g id="edge9" class="edge"><title>Node9&#45;&gt;Node10</title>
<path fill="none" stroke="midnightblue" d="M533.306,-236.226C529.27,-216.53 519.414,-168.437 513.936,-141.7"/>
<polygon fill="midnightblue" stroke="midnightblue" points="517.322,-140.788 511.885,-131.694 510.464,-142.194 517.322,-140.788"/>
</g>
<!-- Node11 -->
<g id="node11" class="node"><title>Node11</title>
<polygon fill="white" stroke="#bfbfbf" points="563.604,-174.5 563.604,-193.5 628.604,-193.5 628.604,-174.5 563.604,-174.5"/>
<text text-anchor="middle" x="596.104" y="-181.5" font-family="Helvetica,sans-Serif" font-size="10.00">Eigen/Core</text>
</g>
<!-- Node9&#45;&gt;Node11 -->
<g id="edge11" class="edge"><title>Node9&#45;&gt;Node11</title>
<path fill="none" stroke="midnightblue" d="M543.843,-236.403C553.265,-227.136 568.468,-212.183 580.053,-200.788"/>
<polygon fill="midnightblue" stroke="midnightblue" points="582.705,-203.088 587.38,-193.581 577.796,-198.098 582.705,-203.088"/>
</g>
<!-- Node12 -->
<g id="node12" class="node"><title>Node12</title>
<polygon fill="white" stroke="#bfbfbf" points="739.604,-174.5 739.604,-193.5 826.604,-193.5 826.604,-174.5 739.604,-174.5"/>
<text text-anchor="middle" x="783.104" y="-181.5" font-family="Helvetica,sans-Serif" font-size="10.00">Eigen/Geometry</text>
</g>
<!-- Node9&#45;&gt;Node12 -->
<g id="edge12" class="edge"><title>Node9&#45;&gt;Node12</title>
<path fill="none" stroke="midnightblue" d="M574.83,-236.431C614.332,-227.769 676.596,-213.737 730.104,-200 734.723,-198.814 739.555,-197.521 744.34,-196.207"/>
<polygon fill="midnightblue" stroke="midnightblue" points="745.322,-199.567 754.014,-193.51 743.442,-192.824 745.322,-199.567"/>
</g>
<!-- Node13 -->
<g id="node13" class="node"><title>Node13</title>
<polygon fill="white" stroke="#bfbfbf" points="646.604,-174.5 646.604,-193.5 721.604,-193.5 721.604,-174.5 646.604,-174.5"/>
<text text-anchor="middle" x="684.104" y="-181.5" font-family="Helvetica,sans-Serif" font-size="10.00">Eigen/Sparse</text>
</g>
<!-- Node9&#45;&gt;Node13 -->
<g id="edge13" class="edge"><title>Node9&#45;&gt;Node13</title>
<path fill="none" stroke="midnightblue" d="M556.452,-236.403C581.789,-226.2 624.242,-209.105 653.175,-197.454"/>
<polygon fill="midnightblue" stroke="midnightblue" points="654.826,-200.563 662.795,-193.581 652.212,-194.069 654.826,-200.563"/>
</g>
<!-- Node14 -->
<g id="node14" class="node"><title>Node14</title>
<polygon fill="white" stroke="#bfbfbf" points="16.6036,-174.5 16.6036,-193.5 75.6036,-193.5 75.6036,-174.5 16.6036,-174.5"/>
<text text-anchor="middle" x="46.1036" y="-181.5" font-family="Helvetica,sans-Serif" font-size="10.00">functional</text>
</g>
<!-- Node9&#45;&gt;Node14 -->
<g id="edge14" class="edge"><title>Node9&#45;&gt;Node14</title>
<path fill="none" stroke="midnightblue" d="M463.391,-243.927C373.553,-241.201 215.449,-231.823 84.1036,-200 80.8638,-199.215 77.5328,-198.213 74.2532,-197.099"/>
<polygon fill="midnightblue" stroke="midnightblue" points="75.304,-193.756 64.7116,-193.532 72.8526,-200.312 75.304,-193.756"/>
</g>
<!-- Node15 -->
<g id="node15" class="node"><title>Node15</title>
<polygon fill="white" stroke="#bfbfbf" points="93.6036,-169 93.6036,-199 226.604,-199 226.604,-169 93.6036,-169"/>
<text text-anchor="start" x="101.604" y="-187" font-family="Helvetica,sans-Serif" font-size="10.00">unsupported/Eigen/Aligned</text>
<text text-anchor="middle" x="160.104" y="-176" font-family="Helvetica,sans-Serif" font-size="10.00">Vector3</text>
</g>
<!-- Node9&#45;&gt;Node15 -->
<g id="edge15" class="edge"><title>Node9&#45;&gt;Node15</title>
<path fill="none" stroke="midnightblue" d="M472.837,-236.47C414.451,-228.281 324.48,-215.173 236.665,-200.051"/>
<polygon fill="midnightblue" stroke="midnightblue" points="237.25,-196.6 226.8,-198.342 236.056,-203.498 237.25,-196.6"/>
</g>
<!-- Node16 -->
<g id="node16" class="node"><title>Node16</title>
<g id="a_node16"><a xlink:href="Math_8hpp.html" target="_top" xlink:title="Core/Math/Math.hpp">
<polygon fill="white" stroke="black" points="245.104,-174.5 245.104,-193.5 351.104,-193.5 351.104,-174.5 245.104,-174.5"/>
<text text-anchor="middle" x="298.104" y="-181.5" font-family="Helvetica,sans-Serif" font-size="10.00">Core/Math/Math.hpp</text>
</a>
</g>
</g>
<!-- Node9&#45;&gt;Node16 -->
<g id="edge16" class="edge"><title>Node9&#45;&gt;Node16</title>
<path fill="none" stroke="midnightblue" d="M501.399,-236.467C459.371,-225.827 387.459,-207.622 341.393,-195.959"/>
<polygon fill="midnightblue" stroke="midnightblue" points="342.245,-192.565 331.692,-193.503 340.527,-199.351 342.245,-192.565"/>
</g>
<!-- Node20 -->
<g id="node20" class="node"><title>Node20</title>
<g id="a_node20"><a xlink:href="LinearAlgebra_8inl.html" target="_top" xlink:title="Core/Math/LinearAlgebra.inl">
<polygon fill="white" stroke="black" points="369.604,-174.5 369.604,-193.5 506.604,-193.5 506.604,-174.5 369.604,-174.5"/>
<text text-anchor="middle" x="438.104" y="-181.5" font-family="Helvetica,sans-Serif" font-size="10.00">Core/Math/LinearAlgebra.inl</text>
</a>
</g>
</g>
<!-- Node9&#45;&gt;Node20 -->
<g id="edge22" class="edge"><title>Node9&#45;&gt;Node20</title>
<path fill="none" stroke="midnightblue" d="M521.206,-236.403C505.359,-226.601 479.229,-210.439 460.499,-198.853"/>
<polygon fill="midnightblue" stroke="midnightblue" points="462.321,-195.865 451.976,-193.581 458.639,-201.818 462.321,-195.865"/>
</g>
<!-- Node10&#45;&gt;Node3 -->
<g id="edge10" class="edge"><title>Node10&#45;&gt;Node3</title>
<path fill="none" stroke="midnightblue" d="M468.747,-112.444C423.026,-102.984 349.339,-87.7384 300.082,-77.5472"/>
<polygon fill="midnightblue" stroke="midnightblue" points="300.768,-74.1152 290.266,-75.5164 299.35,-80.97 300.768,-74.1152"/>
</g>
<!-- Node16&#45;&gt;Node10 -->
<g id="edge17" class="edge"><title>Node16&#45;&gt;Node10</title>
<path fill="none" stroke="midnightblue" d="M328.478,-174.403C365.709,-163.866 428.913,-145.978 470.079,-134.328"/>
<polygon fill="midnightblue" stroke="midnightblue" points="471.117,-137.672 479.785,-131.581 469.21,-130.936 471.117,-137.672"/>
</g>
<!-- Node17 -->
<g id="node17" class="node"><title>Node17</title>
<polygon fill="white" stroke="#bfbfbf" points="366.104,-112.5 366.104,-131.5 422.104,-131.5 422.104,-112.5 366.104,-112.5"/>
<text text-anchor="middle" x="394.104" y="-119.5" font-family="Helvetica,sans-Serif" font-size="10.00">algorithm</text>
</g>
<!-- Node16&#45;&gt;Node17 -->
<g id="edge18" class="edge"><title>Node16&#45;&gt;Node17</title>
<path fill="none" stroke="midnightblue" d="M311.858,-174.403C327.47,-164.646 353.167,-148.585 371.686,-137.011"/>
<polygon fill="midnightblue" stroke="midnightblue" points="373.75,-139.849 380.375,-131.581 370.04,-133.913 373.75,-139.849"/>
</g>
<!-- Node18 -->
<g id="node18" class="node"><title>Node18</title>
<polygon fill="white" stroke="#bfbfbf" points="186.104,-112.5 186.104,-131.5 230.104,-131.5 230.104,-112.5 186.104,-112.5"/>
<text text-anchor="middle" x="208.104" y="-119.5" font-family="Helvetica,sans-Serif" font-size="10.00">cmath</text>
</g>
<!-- Node16&#45;&gt;Node18 -->
<g id="edge19" class="edge"><title>Node16&#45;&gt;Node18</title>
<path fill="none" stroke="midnightblue" d="M285.209,-174.403C270.639,-164.691 246.701,-148.732 229.358,-137.17"/>
<polygon fill="midnightblue" stroke="midnightblue" points="231.236,-134.215 220.974,-131.581 227.354,-140.04 231.236,-134.215"/>
</g>
<!-- Node19 -->
<g id="node19" class="node"><title>Node19</title>
<g id="a_node19"><a xlink:href="Math_8inl.html" target="_top" xlink:title="Core/Math/Math.inl">
<polygon fill="white" stroke="black" points="248.104,-112.5 248.104,-131.5 348.104,-131.5 348.104,-112.5 248.104,-112.5"/>
<text text-anchor="middle" x="298.104" y="-119.5" font-family="Helvetica,sans-Serif" font-size="10.00">Core/Math/Math.inl</text>
</a>
</g>
</g>
<!-- Node16&#45;&gt;Node19 -->
<g id="edge20" class="edge"><title>Node16&#45;&gt;Node19</title>
<path fill="none" stroke="midnightblue" d="M293.203,-174.403C291.372,-165.938 290.901,-152.728 291.789,-141.82"/>
<polygon fill="midnightblue" stroke="midnightblue" points="295.302,-141.966 293.206,-131.581 288.368,-141.006 295.302,-141.966"/>
</g>
<!-- Node19&#45;&gt;Node16 -->
<g id="edge21" class="edge"><title>Node19&#45;&gt;Node16</title>
<path fill="none" stroke="midnightblue" d="M303.001,-131.581C304.833,-140.04 305.307,-153.248 304.42,-164.16"/>
<polygon fill="midnightblue" stroke="midnightblue" points="300.906,-164.018 303.004,-174.403 307.84,-164.977 300.906,-164.018"/>
</g>
<!-- Node21&#45;&gt;Node9 -->
<g id="edge24" class="edge"><title>Node21&#45;&gt;Node9</title>
<path fill="none" stroke="midnightblue" d="M602.785,-298.403C590.231,-288.869 569.752,-273.315 554.604,-261.811"/>
<polygon fill="midnightblue" stroke="midnightblue" points="556.482,-258.842 546.401,-255.581 552.248,-264.416 556.482,-258.842"/>
</g>
<!-- Node21&#45;&gt;Node10 -->
<g id="edge25" class="edge"><title>Node21&#45;&gt;Node10</title>
<path fill="none" stroke="midnightblue" d="M639.948,-298.379C693.348,-279.986 812.745,-235.667 835.104,-200 842.658,-187.95 844.445,-178.724 835.104,-168 800.983,-128.83 650.508,-122.632 566.796,-122.307"/>
<polygon fill="midnightblue" stroke="midnightblue" points="566.687,-118.806 556.683,-122.294 566.679,-125.806 566.687,-118.806"/>
</g>
<!-- Node21&#45;&gt;Node12 -->
<g id="edge26" class="edge"><title>Node21&#45;&gt;Node12</title>
<path fill="none" stroke="midnightblue" d="M625.987,-298.421C654.524,-277.821 727.183,-225.369 762.799,-199.658"/>
<polygon fill="midnightblue" stroke="midnightblue" points="764.947,-202.424 771.007,-193.733 760.85,-196.748 764.947,-202.424"/>
</g>
</g>
</svg>
