<?xml version="1.0" encoding="UTF-8" standalone="no"?>
<!DOCTYPE svg PUBLIC "-//W3C//DTD SVG 1.1//EN"
 "http://www.w3.org/Graphics/SVG/1.1/DTD/svg11.dtd">
<!-- Generated by graphviz version 2.36.0 (20140111.2315)
 -->
<!-- Title: /home/travis/build/STORM&#45;IRIT/Radium&#45;Engine/src/GuiBase/Viewer/CameraInterface.cpp Pages: 1 -->
<svg width="2029pt" height="546pt"
 viewBox="0.00 0.00 2029.00 546.00" xmlns="http://www.w3.org/2000/svg" xmlns:xlink="http://www.w3.org/1999/xlink">
<g id="graph0" class="graph" transform="scale(1 1) rotate(0) translate(4 542)">
<title>/home/travis/build/STORM&#45;IRIT/Radium&#45;Engine/src/GuiBase/Viewer/CameraInterface.cpp</title>
<polygon fill="white" stroke="none" points="-4,4 -4,-542 2025,-542 2025,4 -4,4"/>
<!-- Node1 -->
<g id="node1" class="node"><title>Node1</title>
<polygon fill="#bfbfbf" stroke="black" points="1161.5,-496.5 1161.5,-537.5 1362.5,-537.5 1362.5,-496.5 1161.5,-496.5"/>
<text text-anchor="start" x="1169.5" y="-525.5" font-family="Helvetica,sans-Serif" font-size="10.00">/home/travis/build</text>
<text text-anchor="start" x="1169.5" y="-514.5" font-family="Helvetica,sans-Serif" font-size="10.00">/STORM&#45;IRIT/Radium&#45;Engine</text>
<text text-anchor="middle" x="1262" y="-503.5" font-family="Helvetica,sans-Serif" font-size="10.00">/src/GuiBase/Viewer/CameraInterface.cpp</text>
</g>
<!-- Node2 -->
<g id="node2" class="node"><title>Node2</title>
<g id="a_node2"><a xlink:href="CameraInterface_8hpp.html" target="_top" xlink:title="GuiBase/Viewer/CameraInterface.hpp">
<polygon fill="white" stroke="black" points="191,-298.5 191,-317.5 373,-317.5 373,-298.5 191,-298.5"/>
<text text-anchor="middle" x="282" y="-305.5" font-family="Helvetica,sans-Serif" font-size="10.00">GuiBase/Viewer/CameraInterface.hpp</text>
</a>
</g>
</g>
<!-- Node1&#45;&gt;Node2 -->
<g id="edge1" class="edge"><title>Node1&#45;&gt;Node2</title>
<path fill="none" stroke="midnightblue" d="M1161.17,-498.408C1101.9,-487.821 1025.57,-473.766 958,-460 720.281,-411.573 437.416,-345.696 328.191,-319.948"/>
<polygon fill="midnightblue" stroke="midnightblue" points="328.707,-316.473 318.171,-317.583 327.1,-323.286 328.707,-316.473"/>
</g>
<!-- Node26 -->
<g id="node26" class="node"><title>Node26</title>
<g id="a_node26"><a xlink:href="Math_8hpp.html" target="_top" xlink:title="Core/Math/Math.hpp">
<polygon fill="white" stroke="black" points="1830,-174.5 1830,-193.5 1936,-193.5 1936,-174.5 1830,-174.5"/>
<text text-anchor="middle" x="1883" y="-181.5" font-family="Helvetica,sans-Serif" font-size="10.00">Core/Math/Math.hpp</text>
</a>
</g>
</g>
<!-- Node1&#45;&gt;Node26 -->
<g id="edge37" class="edge"><title>Node1&#45;&gt;Node26</title>
<path fill="none" stroke="midnightblue" d="M1362.76,-512.987C1532.23,-505.152 1856,-477.086 1856,-377 1856,-377 1856,-377 1856,-307 1856,-269.546 1868.28,-227.119 1876.28,-203.463"/>
<polygon fill="midnightblue" stroke="midnightblue" points="1879.68,-204.326 1879.69,-193.731 1873.08,-202.011 1879.68,-204.326"/>
</g>
<!-- Node31 -->
<g id="node31" class="node"><title>Node31</title>
<g id="a_node31"><a xlink:href="Camera_8hpp.html" target="_top" xlink:title="Engine/Renderer/Camera\l/Camera.hpp">
<polygon fill="white" stroke="black" points="1198.5,-361 1198.5,-391 1325.5,-391 1325.5,-361 1198.5,-361"/>
<text text-anchor="start" x="1206.5" y="-379" font-family="Helvetica,sans-Serif" font-size="10.00">Engine/Renderer/Camera</text>
<text text-anchor="middle" x="1262" y="-368" font-family="Helvetica,sans-Serif" font-size="10.00">/Camera.hpp</text>
</a>
</g>
</g>
<!-- Node1&#45;&gt;Node31 -->
<g id="edge38" class="edge"><title>Node1&#45;&gt;Node31</title>
<path fill="none" stroke="midnightblue" d="M1262,-496.38C1262,-471.386 1262,-428.202 1262,-401.195"/>
<polygon fill="midnightblue" stroke="midnightblue" points="1265.5,-401.043 1262,-391.043 1258.5,-401.043 1265.5,-401.043"/>
</g>
<!-- Node35 -->
<g id="node35" class="node"><title>Node35</title>
<g id="a_node35"><a xlink:href="Light_8hpp.html" target="_top" xlink:title="Engine/Renderer/Light\l/Light.hpp">
<polygon fill="white" stroke="black" points="1316.5,-429 1316.5,-459 1429.5,-459 1429.5,-429 1316.5,-429"/>
<text text-anchor="start" x="1324.5" y="-447" font-family="Helvetica,sans-Serif" font-size="10.00">Engine/Renderer/Light</text>
<text text-anchor="middle" x="1373" y="-436" font-family="Helvetica,sans-Serif" font-size="10.00">/Light.hpp</text>
</a>
</g>
</g>
<!-- Node1&#45;&gt;Node35 -->
<g id="edge47" class="edge"><title>Node1&#45;&gt;Node35</title>
<path fill="none" stroke="midnightblue" d="M1292.63,-496.411C1308.07,-486.529 1326.77,-474.573 1342.23,-464.679"/>
<polygon fill="midnightblue" stroke="midnightblue" points="1344.38,-467.46 1350.92,-459.123 1340.61,-461.563 1344.38,-467.46"/>
</g>
<!-- Node40 -->
<g id="node40" class="node"><title>Node40</title>
<g id="a_node40"><a xlink:href="Viewer_8hpp.html" target="_top" xlink:title="GuiBase/Viewer/Viewer.hpp">
<polygon fill="white" stroke="black" points="706.5,-366.5 706.5,-385.5 845.5,-385.5 845.5,-366.5 706.5,-366.5"/>
<text text-anchor="middle" x="776" y="-373.5" font-family="Helvetica,sans-Serif" font-size="10.00">GuiBase/Viewer/Viewer.hpp</text>
</a>
</g>
</g>
<!-- Node1&#45;&gt;Node40 -->
<g id="edge59" class="edge"><title>Node1&#45;&gt;Node40</title>
<path fill="none" stroke="midnightblue" d="M1193.66,-496.453C1090.5,-466.951 898.318,-411.984 815.57,-388.317"/>
<polygon fill="midnightblue" stroke="midnightblue" points="816.378,-384.908 805.801,-385.523 814.453,-391.638 816.378,-384.908"/>
</g>
<!-- Node3 -->
<g id="node3" class="node"><title>Node3</title>
<polygon fill="white" stroke="#bfbfbf" points="700,-236.5 700,-255.5 752,-255.5 752,-236.5 700,-236.5"/>
<text text-anchor="middle" x="726" y="-243.5" font-family="Helvetica,sans-Serif" font-size="10.00">memory</text>
</g>
<!-- Node2&#45;&gt;Node3 -->
<g id="edge2" class="edge"><title>Node2&#45;&gt;Node3</title>
<path fill="none" stroke="midnightblue" d="M373.233,-298.776C453.89,-290.774 574.852,-276.994 689.708,-255.825"/>
<polygon fill="midnightblue" stroke="midnightblue" points="690.546,-259.229 699.734,-253.955 689.262,-252.348 690.546,-259.229"/>
</g>
<!-- Node4 -->
<g id="node4" class="node"><title>Node4</title>
<polygon fill="white" stroke="#bfbfbf" points="-0.5,-236.5 -0.5,-255.5 66.5,-255.5 66.5,-236.5 -0.5,-236.5"/>
<text text-anchor="middle" x="33" y="-243.5" font-family="Helvetica,sans-Serif" font-size="10.00">QKeyEvent</text>
</g>
<!-- Node2&#45;&gt;Node4 -->
<g id="edge3" class="edge"><title>Node2&#45;&gt;Node4</title>
<path fill="none" stroke="midnightblue" d="M246.589,-298.467C201.839,-287.684 124.841,-269.13 76.5428,-257.492"/>
<polygon fill="midnightblue" stroke="midnightblue" points="77.2357,-254.059 66.694,-255.119 75.5958,-260.864 77.2357,-254.059"/>
</g>
<!-- Node5 -->
<g id="node5" class="node"><title>Node5</title>
<polygon fill="white" stroke="#bfbfbf" points="84.5,-236.5 84.5,-255.5 163.5,-255.5 163.5,-236.5 84.5,-236.5"/>
<text text-anchor="middle" x="124" y="-243.5" font-family="Helvetica,sans-Serif" font-size="10.00">QMouseEvent</text>
</g>
<!-- Node2&#45;&gt;Node5 -->
<g id="edge4" class="edge"><title>Node2&#45;&gt;Node5</title>
<path fill="none" stroke="midnightblue" d="M259.362,-298.403C232.26,-288.111 186.69,-270.806 155.996,-259.15"/>
<polygon fill="midnightblue" stroke="midnightblue" points="157.187,-255.859 146.596,-255.581 154.702,-262.403 157.187,-255.859"/>
</g>
<!-- Node6 -->
<g id="node6" class="node"><title>Node6</title>
<polygon fill="white" stroke="#bfbfbf" points="181.5,-236.5 181.5,-255.5 234.5,-255.5 234.5,-236.5 181.5,-236.5"/>
<text text-anchor="middle" x="208" y="-243.5" font-family="Helvetica,sans-Serif" font-size="10.00">QObject</text>
</g>
<!-- Node2&#45;&gt;Node6 -->
<g id="edge5" class="edge"><title>Node2&#45;&gt;Node6</title>
<path fill="none" stroke="midnightblue" d="M271.398,-298.403C259.748,-288.958 240.814,-273.606 226.665,-262.134"/>
<polygon fill="midnightblue" stroke="midnightblue" points="228.555,-259.16 218.583,-255.581 224.146,-264.597 228.555,-259.16"/>
</g>
<!-- Node7 -->
<g id="node7" class="node"><title>Node7</title>
<g id="a_node7"><a xlink:href="CoreMacros_8hpp.html" target="_top" xlink:title="Core/CoreMacros.hpp">
<polygon fill="white" stroke="black" points="654.5,-56.5 654.5,-75.5 767.5,-75.5 767.5,-56.5 654.5,-56.5"/>
<text text-anchor="middle" x="711" y="-63.5" font-family="Helvetica,sans-Serif" font-size="10.00">Core/CoreMacros.hpp</text>
</a>
</g>
</g>
<!-- Node2&#45;&gt;Node7 -->
<g id="edge6" class="edge"><title>Node2&#45;&gt;Node7</title>
<path fill="none" stroke="midnightblue" d="M276.345,-298.2C261.999,-274.654 227.36,-209.201 257,-168 301.686,-105.884 529.051,-80.3834 644.109,-71.3285"/>
<polygon fill="midnightblue" stroke="midnightblue" points="644.509,-74.8082 654.212,-70.553 643.974,-67.8287 644.509,-74.8082"/>
</g>
<!-- Node13 -->
<g id="node13" class="node"><title>Node13</title>
<g id="a_node13"><a xlink:href="Log_8hpp.html" target="_top" xlink:title="Core/Log/Log.hpp">
<polygon fill="white" stroke="black" points="316,-236.5 316,-255.5 410,-255.5 410,-236.5 316,-236.5"/>
<text text-anchor="middle" x="363" y="-243.5" font-family="Helvetica,sans-Serif" font-size="10.00">Core/Log/Log.hpp</text>
</a>
</g>
</g>
<!-- Node2&#45;&gt;Node13 -->
<g id="edge12" class="edge"><title>Node2&#45;&gt;Node13</title>
<path fill="none" stroke="midnightblue" d="M293.605,-298.403C306.477,-288.869 327.474,-273.315 343.006,-261.811"/>
<polygon fill="midnightblue" stroke="midnightblue" points="345.464,-264.345 351.416,-255.581 341.297,-258.72 345.464,-264.345"/>
</g>
<!-- Node20 -->
<g id="node20" class="node"><title>Node20</title>
<g id="a_node20"><a xlink:href="LinearAlgebra_8hpp.html" target="_top" xlink:title="Core/Math/LinearAlgebra.hpp">
<polygon fill="white" stroke="black" points="1266.5,-236.5 1266.5,-255.5 1409.5,-255.5 1409.5,-236.5 1266.5,-236.5"/>
<text text-anchor="middle" x="1338" y="-243.5" font-family="Helvetica,sans-Serif" font-size="10.00">Core/Math/LinearAlgebra.hpp</text>
</a>
</g>
</g>
<!-- Node2&#45;&gt;Node20 -->
<g id="edge23" class="edge"><title>Node2&#45;&gt;Node20</title>
<path fill="none" stroke="midnightblue" d="M363.535,-298.49C388.092,-296.135 415.125,-293.748 440,-292 789.725,-267.425 878.122,-278.298 1228,-256 1237.13,-255.418 1246.68,-254.741 1256.17,-254.023"/>
<polygon fill="midnightblue" stroke="midnightblue" points="1256.73,-257.49 1266.43,-253.231 1256.19,-250.511 1256.73,-257.49"/>
</g>
<!-- Node8 -->
<g id="node8" class="node"><title>Node8</title>
<polygon fill="white" stroke="#bfbfbf" points="719.5,-0.5 719.5,-19.5 768.5,-19.5 768.5,-0.5 719.5,-0.5"/>
<text text-anchor="middle" x="744" y="-7.5" font-family="Helvetica,sans-Serif" font-size="10.00">cassert</text>
</g>
<!-- Node7&#45;&gt;Node8 -->
<g id="edge7" class="edge"><title>Node7&#45;&gt;Node8</title>
<path fill="none" stroke="midnightblue" d="M716.449,-56.083C721.014,-48.6127 727.668,-37.7244 733.293,-28.5199"/>
<polygon fill="midnightblue" stroke="midnightblue" points="736.424,-30.109 738.652,-19.7511 730.451,-26.4588 736.424,-30.109"/>
</g>
<!-- Node9 -->
<g id="node9" class="node"><title>Node9</title>
<polygon fill="white" stroke="#bfbfbf" points="786.5,-0.5 786.5,-19.5 829.5,-19.5 829.5,-0.5 786.5,-0.5"/>
<text text-anchor="middle" x="808" y="-7.5" font-family="Helvetica,sans-Serif" font-size="10.00">cstdio</text>
</g>
<!-- Node7&#45;&gt;Node9 -->
<g id="edge8" class="edge"><title>Node7&#45;&gt;Node9</title>
<path fill="none" stroke="midnightblue" d="M726.585,-56.324C741.999,-47.7428 765.812,-34.486 783.71,-24.5224"/>
<polygon fill="midnightblue" stroke="midnightblue" points="785.419,-27.5767 792.454,-19.6545 782.014,-21.4606 785.419,-27.5767"/>
</g>
<!-- Node10 -->
<g id="node10" class="node"><title>Node10</title>
<polygon fill="white" stroke="#bfbfbf" points="585,-0.5 585,-19.5 639,-19.5 639,-0.5 585,-0.5"/>
<text text-anchor="middle" x="612" y="-7.5" font-family="Helvetica,sans-Serif" font-size="10.00">iostream</text>
</g>
<!-- Node7&#45;&gt;Node10 -->
<g id="edge9" class="edge"><title>Node7&#45;&gt;Node10</title>
<path fill="none" stroke="midnightblue" d="M695.094,-56.324C679.362,-47.7428 655.058,-34.486 636.791,-24.5224"/>
<polygon fill="midnightblue" stroke="midnightblue" points="638.322,-21.3704 627.867,-19.6545 634.97,-27.5157 638.322,-21.3704"/>
</g>
<!-- Node11 -->
<g id="node11" class="node"><title>Node11</title>
<polygon fill="white" stroke="#bfbfbf" points="447,-0.5 447,-19.5 499,-19.5 499,-0.5 447,-0.5"/>
<text text-anchor="middle" x="473" y="-7.5" font-family="Helvetica,sans-Serif" font-size="10.00">sstream</text>
</g>
<!-- Node7&#45;&gt;Node11 -->
<g id="edge10" class="edge"><title>Node7&#45;&gt;Node11</title>
<path fill="none" stroke="midnightblue" d="M673.288,-56.4435C628.174,-46.2076 553.203,-29.1972 508.904,-19.1463"/>
<polygon fill="midnightblue" stroke="midnightblue" points="509.666,-15.7303 499.139,-16.9308 508.117,-22.5568 509.666,-15.7303"/>
</g>
<!-- Node12 -->
<g id="node12" class="node"><title>Node12</title>
<polygon fill="white" stroke="#bfbfbf" points="657,-0.5 657,-19.5 701,-19.5 701,-0.5 657,-0.5"/>
<text text-anchor="middle" x="679" y="-7.5" font-family="Helvetica,sans-Serif" font-size="10.00">thread</text>
</g>
<!-- Node7&#45;&gt;Node12 -->
<g id="edge11" class="edge"><title>Node7&#45;&gt;Node12</title>
<path fill="none" stroke="midnightblue" d="M705.716,-56.083C701.289,-48.6127 694.837,-37.7244 689.382,-28.5199"/>
<polygon fill="midnightblue" stroke="midnightblue" points="692.295,-26.5697 684.186,-19.7511 686.273,-30.1383 692.295,-26.5697"/>
</g>
<!-- Node13&#45;&gt;Node11 -->
<g id="edge15" class="edge"><title>Node13&#45;&gt;Node11</title>
<path fill="none" stroke="midnightblue" d="M359.757,-236.196C354.893,-221.615 347.083,-191.712 355,-168 375.051,-107.95 428.088,-52.4192 455.716,-26.4404"/>
<polygon fill="midnightblue" stroke="midnightblue" points="458.118,-28.9863 463.099,-19.6351 453.374,-23.8394 458.118,-28.9863"/>
</g>
<!-- Node14 -->
<g id="node14" class="node"><title>Node14</title>
<g id="a_node14"><a xlink:href="RaCore_8hpp.html" target="_top" xlink:title="Core/RaCore.hpp">
<polygon fill="white" stroke="black" points="1184.5,-112.5 1184.5,-131.5 1277.5,-131.5 1277.5,-112.5 1184.5,-112.5"/>
<text text-anchor="middle" x="1231" y="-119.5" font-family="Helvetica,sans-Serif" font-size="10.00">Core/RaCore.hpp</text>
</a>
</g>
</g>
<!-- Node13&#45;&gt;Node14 -->
<g id="edge13" class="edge"><title>Node13&#45;&gt;Node14</title>
<path fill="none" stroke="midnightblue" d="M410.24,-238.708C473.041,-230.272 587.456,-214.657 685,-200 773.586,-186.689 795.349,-180.873 884,-168 986.069,-153.179 1105.38,-138.223 1174.17,-129.831"/>
<polygon fill="midnightblue" stroke="midnightblue" points="1174.85,-133.274 1184.35,-128.591 1174,-126.325 1174.85,-133.274"/>
</g>
<!-- Node15 -->
<g id="node15" class="node"><title>Node15</title>
<polygon fill="white" stroke="#bfbfbf" points="364,-174.5 364,-193.5 410,-193.5 410,-174.5 364,-174.5"/>
<text text-anchor="middle" x="387" y="-181.5" font-family="Helvetica,sans-Serif" font-size="10.00">stdio.h</text>
</g>
<!-- Node13&#45;&gt;Node15 -->
<g id="edge16" class="edge"><title>Node13&#45;&gt;Node15</title>
<path fill="none" stroke="midnightblue" d="M366.439,-236.403C369.896,-227.76 375.332,-214.17 379.746,-203.134"/>
<polygon fill="midnightblue" stroke="midnightblue" points="383.103,-204.165 383.568,-193.581 376.604,-201.565 383.103,-204.165"/>
</g>
<!-- Node16 -->
<g id="node16" class="node"><title>Node16</title>
<polygon fill="white" stroke="#bfbfbf" points="493.5,-112.5 493.5,-131.5 534.5,-131.5 534.5,-112.5 493.5,-112.5"/>
<text text-anchor="middle" x="514" y="-119.5" font-family="Helvetica,sans-Serif" font-size="10.00">string</text>
</g>
<!-- Node13&#45;&gt;Node16 -->
<g id="edge17" class="edge"><title>Node13&#45;&gt;Node16</title>
<path fill="none" stroke="midnightblue" d="M373.746,-236.387C385.028,-227.339 403.277,-212.689 419,-200 445.648,-178.494 476.429,-153.521 495.557,-137.987"/>
<polygon fill="midnightblue" stroke="midnightblue" points="497.913,-140.582 503.468,-131.56 493.5,-135.149 497.913,-140.582"/>
</g>
<!-- Node17 -->
<g id="node17" class="node"><title>Node17</title>
<g id="a_node17"><a xlink:href="StringUtils_8hpp.html" target="_top" xlink:title="Core/String/StringUtils.hpp">
<polygon fill="white" stroke="black" points="542,-174.5 542,-193.5 676,-193.5 676,-174.5 542,-174.5"/>
<text text-anchor="middle" x="609" y="-181.5" font-family="Helvetica,sans-Serif" font-size="10.00">Core/String/StringUtils.hpp</text>
</a>
</g>
</g>
<!-- Node13&#45;&gt;Node17 -->
<g id="edge18" class="edge"><title>Node13&#45;&gt;Node17</title>
<path fill="none" stroke="midnightblue" d="M397.985,-236.467C441.7,-225.805 516.565,-207.545 564.367,-195.886"/>
<polygon fill="midnightblue" stroke="midnightblue" points="565.25,-199.273 574.136,-193.503 563.592,-192.473 565.25,-199.273"/>
</g>
<!-- Node19 -->
<g id="node19" class="node"><title>Node19</title>
<polygon fill="white" stroke="#bfbfbf" points="266.5,-174.5 266.5,-193.5 307.5,-193.5 307.5,-174.5 266.5,-174.5"/>
<text text-anchor="middle" x="287" y="-181.5" font-family="Helvetica,sans-Serif" font-size="10.00">ctime</text>
</g>
<!-- Node13&#45;&gt;Node19 -->
<g id="edge22" class="edge"><title>Node13&#45;&gt;Node19</title>
<path fill="none" stroke="midnightblue" d="M352.111,-236.403C340.034,-226.869 320.333,-211.315 305.76,-199.811"/>
<polygon fill="midnightblue" stroke="midnightblue" points="307.886,-197.03 297.869,-193.581 303.549,-202.524 307.886,-197.03"/>
</g>
<!-- Node14&#45;&gt;Node7 -->
<g id="edge14" class="edge"><title>Node14&#45;&gt;Node7</title>
<path fill="none" stroke="midnightblue" d="M1184.4,-116.16C1091.9,-106.555 884.861,-85.0548 777.863,-73.9435"/>
<polygon fill="midnightblue" stroke="midnightblue" points="778.136,-70.4531 767.828,-72.9014 777.413,-77.4157 778.136,-70.4531"/>
</g>
<!-- Node17&#45;&gt;Node14 -->
<g id="edge19" class="edge"><title>Node17&#45;&gt;Node14</title>
<path fill="none" stroke="midnightblue" d="M650.495,-174.49C663.137,-172.121 677.101,-169.726 690,-168 865.708,-144.483 1075.27,-131.231 1174.09,-125.855"/>
<polygon fill="midnightblue" stroke="midnightblue" points="1174.36,-129.346 1184.15,-125.314 1173.98,-122.356 1174.36,-129.346"/>
</g>
<!-- Node17&#45;&gt;Node16 -->
<g id="edge20" class="edge"><title>Node17&#45;&gt;Node16</title>
<path fill="none" stroke="midnightblue" d="M595.389,-174.403C579.939,-164.646 554.51,-148.585 536.184,-137.011"/>
<polygon fill="midnightblue" stroke="midnightblue" points="537.91,-133.961 527.586,-131.581 534.172,-139.88 537.91,-133.961"/>
</g>
<!-- Node18 -->
<g id="node18" class="node"><title>Node18</title>
<polygon fill="white" stroke="#bfbfbf" points="655,-112.5 655,-131.5 699,-131.5 699,-112.5 655,-112.5"/>
<text text-anchor="middle" x="677" y="-119.5" font-family="Helvetica,sans-Serif" font-size="10.00">vector</text>
</g>
<!-- Node17&#45;&gt;Node18 -->
<g id="edge21" class="edge"><title>Node17&#45;&gt;Node18</title>
<path fill="none" stroke="midnightblue" d="M618.743,-174.403C629.347,-165.047 646.519,-149.895 659.479,-138.46"/>
<polygon fill="midnightblue" stroke="midnightblue" points="662.093,-140.821 667.275,-131.581 657.461,-135.572 662.093,-140.821"/>
</g>
<!-- Node20&#45;&gt;Node14 -->
<g id="edge24" class="edge"><title>Node20&#45;&gt;Node14</title>
<path fill="none" stroke="midnightblue" d="M1409.62,-237.71C1433.38,-231.484 1457.46,-220.223 1472,-200 1480.3,-188.453 1481.09,-178.941 1472,-168 1449.07,-140.396 1351.8,-129.633 1288.06,-125.501"/>
<polygon fill="midnightblue" stroke="midnightblue" points="1287.94,-121.987 1277.74,-124.871 1287.51,-128.974 1287.94,-121.987"/>
</g>
<!-- Node21 -->
<g id="node21" class="node"><title>Node21</title>
<polygon fill="white" stroke="#bfbfbf" points="1305.5,-174.5 1305.5,-193.5 1370.5,-193.5 1370.5,-174.5 1305.5,-174.5"/>
<text text-anchor="middle" x="1338" y="-181.5" font-family="Helvetica,sans-Serif" font-size="10.00">Eigen/Core</text>
</g>
<!-- Node20&#45;&gt;Node21 -->
<g id="edge25" class="edge"><title>Node20&#45;&gt;Node21</title>
<path fill="none" stroke="midnightblue" d="M1338,-236.403C1338,-227.938 1338,-214.728 1338,-203.82"/>
<polygon fill="midnightblue" stroke="midnightblue" points="1341.5,-203.581 1338,-193.581 1334.5,-203.581 1341.5,-203.581"/>
</g>
<!-- Node22 -->
<g id="node22" class="node"><title>Node22</title>
<polygon fill="white" stroke="#bfbfbf" points="1520.5,-174.5 1520.5,-193.5 1607.5,-193.5 1607.5,-174.5 1520.5,-174.5"/>
<text text-anchor="middle" x="1564" y="-181.5" font-family="Helvetica,sans-Serif" font-size="10.00">Eigen/Geometry</text>
</g>
<!-- Node20&#45;&gt;Node22 -->
<g id="edge26" class="edge"><title>Node20&#45;&gt;Node22</title>
<path fill="none" stroke="midnightblue" d="M1370.38,-236.403C1410.24,-225.822 1478.02,-207.827 1521.89,-196.18"/>
<polygon fill="midnightblue" stroke="midnightblue" points="1522.91,-199.529 1531.68,-193.581 1521.12,-192.764 1522.91,-199.529"/>
</g>
<!-- Node23 -->
<g id="node23" class="node"><title>Node23</title>
<polygon fill="white" stroke="#bfbfbf" points="1388.5,-174.5 1388.5,-193.5 1463.5,-193.5 1463.5,-174.5 1388.5,-174.5"/>
<text text-anchor="middle" x="1426" y="-181.5" font-family="Helvetica,sans-Serif" font-size="10.00">Eigen/Sparse</text>
</g>
<!-- Node20&#45;&gt;Node23 -->
<g id="edge27" class="edge"><title>Node20&#45;&gt;Node23</title>
<path fill="none" stroke="midnightblue" d="M1350.61,-236.403C1364.72,-226.78 1387.83,-211.024 1404.75,-199.489"/>
<polygon fill="midnightblue" stroke="midnightblue" points="1407.12,-202.106 1413.42,-193.581 1403.18,-196.322 1407.12,-202.106"/>
</g>
<!-- Node24 -->
<g id="node24" class="node"><title>Node24</title>
<polygon fill="white" stroke="#bfbfbf" points="922.5,-174.5 922.5,-193.5 981.5,-193.5 981.5,-174.5 922.5,-174.5"/>
<text text-anchor="middle" x="952" y="-181.5" font-family="Helvetica,sans-Serif" font-size="10.00">functional</text>
</g>
<!-- Node20&#45;&gt;Node24 -->
<g id="edge28" class="edge"><title>Node20&#45;&gt;Node24</title>
<path fill="none" stroke="midnightblue" d="M1266.2,-237.829C1179.98,-228.85 1040.66,-213.058 990,-200 986.939,-199.211 983.793,-198.242 980.683,-197.18"/>
<polygon fill="midnightblue" stroke="midnightblue" points="981.617,-193.793 971.025,-193.575 979.17,-200.351 981.617,-193.793"/>
</g>
<!-- Node25 -->
<g id="node25" class="node"><title>Node25</title>
<polygon fill="white" stroke="#bfbfbf" points="999.5,-169 999.5,-199 1132.5,-199 1132.5,-169 999.5,-169"/>
<text text-anchor="start" x="1007.5" y="-187" font-family="Helvetica,sans-Serif" font-size="10.00">unsupported/Eigen/Aligned</text>
<text text-anchor="middle" x="1066" y="-176" font-family="Helvetica,sans-Serif" font-size="10.00">Vector3</text>
</g>
<!-- Node20&#45;&gt;Node25 -->
<g id="edge29" class="edge"><title>Node20&#45;&gt;Node25</title>
<path fill="none" stroke="midnightblue" d="M1299.32,-236.467C1257.93,-227.337 1191.29,-212.638 1139.81,-201.281"/>
<polygon fill="midnightblue" stroke="midnightblue" points="1140.24,-197.793 1129.72,-199.057 1138.73,-204.629 1140.24,-197.793"/>
</g>
<!-- Node20&#45;&gt;Node26 -->
<g id="edge30" class="edge"><title>Node20&#45;&gt;Node26</title>
<path fill="none" stroke="midnightblue" d="M1409.61,-241.567C1504.28,-236.291 1676.04,-224.158 1821,-200 1827.75,-198.875 1834.86,-197.418 1841.75,-195.856"/>
<polygon fill="midnightblue" stroke="midnightblue" points="1842.71,-199.226 1851.64,-193.519 1841.1,-192.414 1842.71,-199.226"/>
</g>
<!-- Node30 -->
<g id="node30" class="node"><title>Node30</title>
<g id="a_node30"><a xlink:href="LinearAlgebra_8inl.html" target="_top" xlink:title="Core/Math/LinearAlgebra.inl">
<polygon fill="white" stroke="black" points="1150.5,-174.5 1150.5,-193.5 1287.5,-193.5 1287.5,-174.5 1150.5,-174.5"/>
<text text-anchor="middle" x="1219" y="-181.5" font-family="Helvetica,sans-Serif" font-size="10.00">Core/Math/LinearAlgebra.inl</text>
</a>
</g>
</g>
<!-- Node20&#45;&gt;Node30 -->
<g id="edge36" class="edge"><title>Node20&#45;&gt;Node30</title>
<path fill="none" stroke="midnightblue" d="M1320.95,-236.403C1301.16,-226.423 1268.28,-209.849 1245.23,-198.225"/>
<polygon fill="midnightblue" stroke="midnightblue" points="1246.52,-194.958 1236.02,-193.581 1243.37,-201.208 1246.52,-194.958"/>
</g>
<!-- Node26&#45;&gt;Node14 -->
<g id="edge31" class="edge"><title>Node26&#45;&gt;Node14</title>
<path fill="none" stroke="midnightblue" d="M1851.97,-174.456C1842.14,-172.027 1831.17,-169.608 1821,-168 1626.81,-137.309 1393.24,-127.357 1287.69,-124.288"/>
<polygon fill="midnightblue" stroke="midnightblue" points="1287.67,-120.786 1277.57,-124.004 1287.47,-127.783 1287.67,-120.786"/>
</g>
<!-- Node27 -->
<g id="node27" class="node"><title>Node27</title>
<polygon fill="white" stroke="#bfbfbf" points="1903,-112.5 1903,-131.5 1959,-131.5 1959,-112.5 1903,-112.5"/>
<text text-anchor="middle" x="1931" y="-119.5" font-family="Helvetica,sans-Serif" font-size="10.00">algorithm</text>
</g>
<!-- Node26&#45;&gt;Node27 -->
<g id="edge32" class="edge"><title>Node26&#45;&gt;Node27</title>
<path fill="none" stroke="midnightblue" d="M1889.88,-174.403C1897.15,-165.314 1908.8,-150.756 1917.84,-139.449"/>
<polygon fill="midnightblue" stroke="midnightblue" points="1920.62,-141.576 1924.14,-131.581 1915.16,-137.203 1920.62,-141.576"/>
</g>
<!-- Node28 -->
<g id="node28" class="node"><title>Node28</title>
<polygon fill="white" stroke="#bfbfbf" points="1977,-112.5 1977,-131.5 2021,-131.5 2021,-112.5 1977,-112.5"/>
<text text-anchor="middle" x="1999" y="-119.5" font-family="Helvetica,sans-Serif" font-size="10.00">cmath</text>
</g>
<!-- Node26&#45;&gt;Node28 -->
<g id="edge33" class="edge"><title>Node26&#45;&gt;Node28</title>
<path fill="none" stroke="midnightblue" d="M1899.62,-174.403C1918.92,-164.423 1950.96,-147.849 1973.43,-136.225"/>
<polygon fill="midnightblue" stroke="midnightblue" points="1975.14,-139.284 1982.41,-131.581 1971.92,-133.066 1975.14,-139.284"/>
</g>
<!-- Node29 -->
<g id="node29" class="node"><title>Node29</title>
<g id="a_node29"><a xlink:href="Math_8inl.html" target="_top" xlink:title="Core/Math/Math.inl">
<polygon fill="white" stroke="black" points="1785,-112.5 1785,-131.5 1885,-131.5 1885,-112.5 1785,-112.5"/>
<text text-anchor="middle" x="1835" y="-119.5" font-family="Helvetica,sans-Serif" font-size="10.00">Core/Math/Math.inl</text>
</a>
</g>
</g>
<!-- Node26&#45;&gt;Node29 -->
<g id="edge34" class="edge"><title>Node26&#45;&gt;Node29</title>
<path fill="none" stroke="midnightblue" d="M1871.22,-174.403C1862.17,-165.493 1850.41,-151.325 1842.53,-140.118"/>
<polygon fill="midnightblue" stroke="midnightblue" points="1845.36,-138.048 1836.97,-131.581 1839.49,-141.87 1845.36,-138.048"/>
</g>
<!-- Node29&#45;&gt;Node26 -->
<g id="edge35" class="edge"><title>Node29&#45;&gt;Node26</title>
<path fill="none" stroke="midnightblue" d="M1846.76,-131.581C1855.81,-140.485 1867.57,-154.652 1875.46,-165.862"/>
<polygon fill="midnightblue" stroke="midnightblue" points="1872.63,-167.938 1881.02,-174.403 1878.49,-164.115 1872.63,-167.938"/>
</g>
<!-- Node31&#45;&gt;Node20 -->
<g id="edge41" class="edge"><title>Node31&#45;&gt;Node20</title>
<path fill="none" stroke="midnightblue" d="M1281.08,-360.825C1292.41,-351.502 1306.23,-338.392 1315,-324 1326.09,-305.803 1332.14,-281.908 1335.21,-265.593"/>
<polygon fill="midnightblue" stroke="midnightblue" points="1338.67,-266.115 1336.88,-255.672 1331.77,-264.949 1338.67,-266.115"/>
</g>
<!-- Node32 -->
<g id="node32" class="node"><title>Node32</title>
<g id="a_node32"><a xlink:href="RaEngine_8hpp.html" target="_top" xlink:title="Engine/RaEngine.hpp">
<polygon fill="white" stroke="black" points="1108.5,-236.5 1108.5,-255.5 1219.5,-255.5 1219.5,-236.5 1108.5,-236.5"/>
<text text-anchor="middle" x="1164" y="-243.5" font-family="Helvetica,sans-Serif" font-size="10.00">Engine/RaEngine.hpp</text>
</a>
</g>
</g>
<!-- Node31&#45;&gt;Node32 -->
<g id="edge39" class="edge"><title>Node31&#45;&gt;Node32</title>
<path fill="none" stroke="midnightblue" d="M1217.44,-360.863C1199.71,-352.906 1180.96,-341.053 1170,-324 1158.93,-306.77 1158.93,-282.687 1160.74,-266.064"/>
<polygon fill="midnightblue" stroke="midnightblue" points="1164.24,-266.313 1162.16,-255.924 1157.3,-265.34 1164.24,-266.313"/>
</g>
<!-- Node33 -->
<g id="node33" class="node"><title>Node33</title>
<g id="a_node33"><a xlink:href="Ray_8hpp.html" target="_top" xlink:title="Core/Math/Ray.hpp">
<polygon fill="white" stroke="black" points="1477,-298.5 1477,-317.5 1579,-317.5 1579,-298.5 1477,-298.5"/>
<text text-anchor="middle" x="1528" y="-305.5" font-family="Helvetica,sans-Serif" font-size="10.00">Core/Math/Ray.hpp</text>
</a>
</g>
</g>
<!-- Node31&#45;&gt;Node33 -->
<g id="edge42" class="edge"><title>Node31&#45;&gt;Node33</title>
<path fill="none" stroke="midnightblue" d="M1318.74,-360.922C1368.1,-348.674 1438.64,-331.173 1483.88,-319.948"/>
<polygon fill="midnightblue" stroke="midnightblue" points="1484.82,-323.319 1493.69,-317.514 1483.14,-316.525 1484.82,-323.319"/>
</g>
<!-- Node34 -->
<g id="node34" class="node"><title>Node34</title>
<g id="a_node34"><a xlink:href="Camera_8inl.html" target="_top" xlink:title="Engine/Renderer/Camera\l/Camera.inl">
<polygon fill="white" stroke="black" points="1179.5,-293 1179.5,-323 1306.5,-323 1306.5,-293 1179.5,-293"/>
<text text-anchor="start" x="1187.5" y="-311" font-family="Helvetica,sans-Serif" font-size="10.00">Engine/Renderer/Camera</text>
<text text-anchor="middle" x="1243" y="-300" font-family="Helvetica,sans-Serif" font-size="10.00">/Camera.inl</text>
</a>
</g>
</g>
<!-- Node31&#45;&gt;Node34 -->
<g id="edge46" class="edge"><title>Node31&#45;&gt;Node34</title>
<path fill="none" stroke="midnightblue" d="M1257.88,-360.679C1255.56,-352.636 1252.61,-342.385 1249.95,-333.137"/>
<polygon fill="midnightblue" stroke="midnightblue" points="1253.24,-331.935 1247.11,-323.293 1246.52,-333.871 1253.24,-331.935"/>
</g>
<!-- Node32&#45;&gt;Node7 -->
<g id="edge40" class="edge"><title>Node32&#45;&gt;Node7</title>
<path fill="none" stroke="midnightblue" d="M1108.23,-237.311C1039.34,-227.457 929.203,-210.409 913,-200 872.961,-174.278 890.262,-140.297 852,-112 829.376,-95.2678 800.306,-84.6162 774.445,-77.9048"/>
<polygon fill="midnightblue" stroke="midnightblue" points="775.257,-74.5002 764.711,-75.5211 773.592,-81.2993 775.257,-74.5002"/>
</g>
<!-- Node33&#45;&gt;Node14 -->
<g id="edge44" class="edge"><title>Node33&#45;&gt;Node14</title>
<path fill="none" stroke="midnightblue" d="M1541.24,-298.194C1574.3,-275.175 1655.11,-211.953 1616,-168 1594.56,-143.912 1389.41,-130.668 1287.66,-125.533"/>
<polygon fill="midnightblue" stroke="midnightblue" points="1287.71,-122.032 1277.55,-125.033 1287.37,-129.023 1287.71,-122.032"/>
</g>
<!-- Node33&#45;&gt;Node20 -->
<g id="edge43" class="edge"><title>Node33&#45;&gt;Node20</title>
<path fill="none" stroke="midnightblue" d="M1500.78,-298.403C1467.76,-287.978 1411.96,-270.356 1375.05,-258.699"/>
<polygon fill="midnightblue" stroke="midnightblue" points="1375.76,-255.254 1365.17,-255.581 1373.65,-261.93 1375.76,-255.254"/>
</g>
<!-- Node33&#45;&gt;Node22 -->
<g id="edge45" class="edge"><title>Node33&#45;&gt;Node22</title>
<path fill="none" stroke="midnightblue" d="M1530.59,-298.226C1536.43,-278.442 1550.72,-230.007 1558.59,-203.344"/>
<polygon fill="midnightblue" stroke="midnightblue" points="1561.96,-204.276 1561.43,-193.694 1555.25,-202.295 1561.96,-204.276"/>
</g>
<!-- Node35&#45;&gt;Node20 -->
<g id="edge48" class="edge"><title>Node35&#45;&gt;Node20</title>
<path fill="none" stroke="midnightblue" d="M1370.48,-428.904C1364.29,-394.232 1348.32,-304.788 1341.34,-265.722"/>
<polygon fill="midnightblue" stroke="midnightblue" points="1344.76,-264.956 1339.56,-255.727 1337.87,-266.186 1344.76,-264.956"/>
</g>
<!-- Node35&#45;&gt;Node32 -->
<g id="edge57" class="edge"><title>Node35&#45;&gt;Node32</title>
<path fill="none" stroke="midnightblue" d="M1316.17,-439.56C1276.55,-434.457 1224.6,-422.028 1189,-392 1153.33,-361.914 1153.4,-338.526 1157,-292 1157.68,-283.22 1159.09,-273.563 1160.47,-265.453"/>
<polygon fill="midnightblue" stroke="midnightblue" points="1163.92,-266.045 1162.26,-255.581 1157.03,-264.796 1163.92,-266.045"/>
</g>
<!-- Node36 -->
<g id="node36" class="node"><title>Node36</title>
<g id="a_node36"><a xlink:href="Component_8hpp.html" target="_top" xlink:title="Engine/Component/Component.hpp">
<polygon fill="white" stroke="black" points="1422,-366.5 1422,-385.5 1594,-385.5 1594,-366.5 1422,-366.5"/>
<text text-anchor="middle" x="1508" y="-373.5" font-family="Helvetica,sans-Serif" font-size="10.00">Engine/Component/Component.hpp</text>
</a>
</g>
</g>
<!-- Node35&#45;&gt;Node36 -->
<g id="edge49" class="edge"><title>Node35&#45;&gt;Node36</title>
<path fill="none" stroke="midnightblue" d="M1401.96,-428.841C1425.42,-417.374 1458.21,-401.342 1481.1,-390.153"/>
<polygon fill="midnightblue" stroke="midnightblue" points="1482.8,-393.218 1490.24,-385.682 1479.72,-386.93 1482.8,-393.218"/>
</g>
<!-- Node39 -->
<g id="node39" class="node"><title>Node39</title>
<g id="a_node39"><a xlink:href="Light_8inl.html" target="_top" xlink:title="Engine/Renderer/Light\l/Light.inl">
<polygon fill="white" stroke="black" points="1612.5,-361 1612.5,-391 1725.5,-391 1725.5,-361 1612.5,-361"/>
<text text-anchor="start" x="1620.5" y="-379" font-family="Helvetica,sans-Serif" font-size="10.00">Engine/Renderer/Light</text>
<text text-anchor="middle" x="1669" y="-368" font-family="Helvetica,sans-Serif" font-size="10.00">/Light.inl</text>
</a>
</g>
</g>
<!-- Node35&#45;&gt;Node39 -->
<g id="edge58" class="edge"><title>Node35&#45;&gt;Node39</title>
<path fill="none" stroke="midnightblue" d="M1429.73,-430.508C1474.02,-420.735 1537.38,-406.711 1602.45,-392.118"/>
<polygon fill="midnightblue" stroke="midnightblue" points="1603.49,-395.471 1612.48,-389.866 1601.96,-388.641 1603.49,-395.471"/>
</g>
<!-- Node36&#45;&gt;Node20 -->
<g id="edge53" class="edge"><title>Node36&#45;&gt;Node20</title>
<path fill="none" stroke="midnightblue" d="M1500.95,-366.361C1487.48,-350.235 1456.58,-315.095 1425,-292 1407.28,-279.043 1385.31,-267.71 1367.88,-259.659"/>
<polygon fill="midnightblue" stroke="midnightblue" points="1369.27,-256.449 1358.72,-255.534 1366.4,-262.832 1369.27,-256.449"/>
</g>
<!-- Node36&#45;&gt;Node32 -->
<g id="edge50" class="edge"><title>Node36&#45;&gt;Node32</title>
<path fill="none" stroke="midnightblue" d="M1489.92,-366.383C1456.09,-350.444 1380.66,-315.812 1315,-292 1278.96,-278.93 1237.12,-266.683 1206.64,-258.275"/>
<polygon fill="midnightblue" stroke="midnightblue" points="1207.33,-254.836 1196.76,-255.575 1205.48,-261.588 1207.33,-254.836"/>
</g>
<!-- Node36&#45;&gt;Node33 -->
<g id="edge54" class="edge"><title>Node36&#45;&gt;Node33</title>
<path fill="none" stroke="midnightblue" d="M1510.61,-366.372C1513.59,-356.544 1518.54,-340.202 1522.4,-327.467"/>
<polygon fill="midnightblue" stroke="midnightblue" points="1525.77,-328.426 1525.32,-317.841 1519.07,-326.396 1525.77,-328.426"/>
</g>
<!-- Node37 -->
<g id="node37" class="node"><title>Node37</title>
<g id="a_node37"><a xlink:href="IndexedObject_8hpp.html" target="_top" xlink:title="Core/Index/IndexedObject.hpp">
<polygon fill="white" stroke="red" points="1663.5,-174.5 1663.5,-193.5 1812.5,-193.5 1812.5,-174.5 1663.5,-174.5"/>
<text text-anchor="middle" x="1738" y="-181.5" font-family="Helvetica,sans-Serif" font-size="10.00">Core/Index/IndexedObject.hpp</text>
</a>
</g>
</g>
<!-- Node36&#45;&gt;Node37 -->
<g id="edge51" class="edge"><title>Node36&#45;&gt;Node37</title>
<path fill="none" stroke="midnightblue" d="M1561.28,-366.479C1636.45,-354.206 1765.29,-332.134 1772,-324 1801.55,-288.194 1769.84,-230.594 1750.56,-202.099"/>
<polygon fill="midnightblue" stroke="midnightblue" points="1753.22,-199.794 1744.61,-193.624 1747.49,-203.818 1753.22,-199.794"/>
</g>
<!-- Node38 -->
<g id="node38" class="node"><title>Node38</title>
<g id="a_node38"><a xlink:href="Component_8inl.html" target="_top" xlink:title="Engine/Component/Component.inl">
<polygon fill="white" stroke="black" points="1597,-298.5 1597,-317.5 1763,-317.5 1763,-298.5 1597,-298.5"/>
<text text-anchor="middle" x="1680" y="-305.5" font-family="Helvetica,sans-Serif" font-size="10.00">Engine/Component/Component.inl</text>
</a>
</g>
</g>
<!-- Node36&#45;&gt;Node38 -->
<g id="edge55" class="edge"><title>Node36&#45;&gt;Node38</title>
<path fill="none" stroke="midnightblue" d="M1525.75,-366.372C1553.5,-354.778 1607.14,-334.116 1643.36,-321.009"/>
<polygon fill="midnightblue" stroke="midnightblue" points="1644.84,-324.195 1653.07,-317.526 1642.48,-317.606 1644.84,-324.195"/>
</g>
<!-- Node37&#45;&gt;Node14 -->
<g id="edge52" class="edge"><title>Node37&#45;&gt;Node14</title>
<path fill="none" stroke="midnightblue" d="M1691.04,-174.443C1677.8,-172.18 1663.36,-169.854 1650,-168 1521,-150.096 1368.81,-135.334 1288.05,-128"/>
<polygon fill="midnightblue" stroke="midnightblue" points="1287.89,-124.471 1277.62,-127.058 1287.26,-131.443 1287.89,-124.471"/>
</g>
<!-- Node38&#45;&gt;Node36 -->
<g id="edge56" class="edge"><title>Node38&#45;&gt;Node36</title>
<path fill="none" stroke="midnightblue" d="M1662.24,-317.63C1634.57,-329.193 1581.15,-349.773 1544.94,-362.885"/>
<polygon fill="midnightblue" stroke="midnightblue" points="1543.45,-359.701 1535.22,-366.372 1545.81,-366.29 1543.45,-359.701"/>
</g>
<!-- Node40&#45;&gt;Node3 -->
<g id="edge63" class="edge"><title>Node40&#45;&gt;Node3</title>
<path fill="none" stroke="midnightblue" d="M783.505,-366.283C796.028,-350.621 818.451,-317.021 804,-292 794.805,-276.08 777.6,-265.291 761.683,-258.278"/>
<polygon fill="midnightblue" stroke="midnightblue" points="762.605,-254.876 752.022,-254.387 759.99,-261.369 762.605,-254.876"/>
</g>
<!-- Node40&#45;&gt;Node7 -->
<g id="edge66" class="edge"><title>Node40&#45;&gt;Node7</title>
<path fill="none" stroke="midnightblue" d="M706.198,-369.226C612.872,-360.789 457.116,-343.91 440,-324 429.217,-311.457 437.073,-156.905 484,-112 506.592,-90.3822 585.631,-78.4165 644.123,-72.3574"/>
<polygon fill="midnightblue" stroke="midnightblue" points="644.818,-75.8056 654.42,-71.3291 644.122,-68.8402 644.818,-75.8056"/>
</g>
<!-- Node40&#45;&gt;Node20 -->
<g id="edge67" class="edge"><title>Node40&#45;&gt;Node20</title>
<path fill="none" stroke="midnightblue" d="M830.83,-366.485C887.308,-357.362 977.741,-341.772 1055,-324 1106.7,-312.107 1118.82,-305.975 1170,-292 1212.76,-280.323 1261.73,-267.239 1295.72,-258.203"/>
<polygon fill="midnightblue" stroke="midnightblue" points="1297,-261.485 1305.77,-255.534 1295.2,-254.719 1297,-261.485"/>
</g>
<!-- Node41 -->
<g id="node41" class="node"><title>Node41</title>
<g id="a_node41"><a xlink:href="RaGuiBase_8hpp.html" target="_top" xlink:title="GuiBase/RaGuiBase.hpp">
<polygon fill="white" stroke="black" points="717,-112.5 717,-131.5 843,-131.5 843,-112.5 717,-112.5"/>
<text text-anchor="middle" x="780" y="-119.5" font-family="Helvetica,sans-Serif" font-size="10.00">GuiBase/RaGuiBase.hpp</text>
</a>
</g>
</g>
<!-- Node40&#45;&gt;Node41 -->
<g id="edge60" class="edge"><title>Node40&#45;&gt;Node41</title>
<path fill="none" stroke="midnightblue" d="M787.419,-366.319C798.41,-357.176 814.318,-341.672 821,-324 826.03,-310.697 824.852,-305.691 821,-292 815.921,-273.95 805.346,-273.645 799,-256 784.973,-216.997 781.265,-168.056 780.309,-141.768"/>
<polygon fill="midnightblue" stroke="midnightblue" points="783.805,-141.594 780.04,-131.691 776.808,-141.781 783.805,-141.594"/>
</g>
<!-- Node42 -->
<g id="node42" class="node"><title>Node42</title>
<polygon fill="white" stroke="#bfbfbf" points="449,-298.5 449,-317.5 495,-317.5 495,-298.5 449,-298.5"/>
<text text-anchor="middle" x="472" y="-305.5" font-family="Helvetica,sans-Serif" font-size="10.00">atomic</text>
</g>
<!-- Node40&#45;&gt;Node42 -->
<g id="edge62" class="edge"><title>Node40&#45;&gt;Node42</title>
<path fill="none" stroke="midnightblue" d="M706.333,-366.882C650.657,-359.222 571.106,-345.632 504,-324 501.865,-323.312 499.687,-322.514 497.522,-321.652"/>
<polygon fill="midnightblue" stroke="midnightblue" points="498.85,-318.413 488.286,-317.605 496.04,-324.824 498.85,-318.413"/>
</g>
<!-- Node43 -->
<g id="node43" class="node"><title>Node43</title>
<polygon fill="white" stroke="#bfbfbf" points="513.5,-298.5 513.5,-317.5 572.5,-317.5 572.5,-298.5 513.5,-298.5"/>
<text text-anchor="middle" x="543" y="-305.5" font-family="Helvetica,sans-Serif" font-size="10.00">QWindow</text>
</g>
<!-- Node40&#45;&gt;Node43 -->
<g id="edge64" class="edge"><title>Node40&#45;&gt;Node43</title>
<path fill="none" stroke="midnightblue" d="M738.456,-366.429C699.117,-357.146 635.691,-341.324 582,-324 579.217,-323.102 576.343,-322.115 573.476,-321.089"/>
<polygon fill="midnightblue" stroke="midnightblue" points="574.491,-317.732 563.899,-317.524 572.05,-324.293 574.491,-317.732"/>
</g>
<!-- Node44 -->
<g id="node44" class="node"><title>Node44</title>
<polygon fill="white" stroke="#bfbfbf" points="591,-298.5 591,-317.5 645,-317.5 645,-298.5 591,-298.5"/>
<text text-anchor="middle" x="618" y="-305.5" font-family="Helvetica,sans-Serif" font-size="10.00">QThread</text>
</g>
<!-- Node40&#45;&gt;Node44 -->
<g id="edge65" class="edge"><title>Node40&#45;&gt;Node44</title>
<path fill="none" stroke="midnightblue" d="M755.344,-366.372C728.021,-354.958 679.659,-334.756 648.224,-321.625"/>
<polygon fill="midnightblue" stroke="midnightblue" points="649.237,-318.255 638.661,-317.63 646.539,-324.715 649.237,-318.255"/>
</g>
<!-- Node45 -->
<g id="node45" class="node"><title>Node45</title>
<g id="a_node45"><a xlink:href="RadiumEngine_8hpp.html" target="_top" xlink:title="Engine/RadiumEngine.hpp">
<polygon fill="white" stroke="black" points="663,-298.5 663,-317.5 795,-317.5 795,-298.5 663,-298.5"/>
<text text-anchor="middle" x="729" y="-305.5" font-family="Helvetica,sans-Serif" font-size="10.00">Engine/RadiumEngine.hpp</text>
</a>
</g>
</g>
<!-- Node40&#45;&gt;Node45 -->
<g id="edge68" class="edge"><title>Node40&#45;&gt;Node45</title>
<path fill="none" stroke="midnightblue" d="M769.856,-366.372C762.647,-356.25 750.517,-339.215 741.342,-326.331"/>
<polygon fill="midnightblue" stroke="midnightblue" points="743.948,-323.957 735.296,-317.841 738.246,-328.017 743.948,-323.957"/>
</g>
<!-- Node48 -->
<g id="node48" class="node"><title>Node48</title>
<g id="a_node48"><a xlink:href="Renderer_8hpp.html" target="_top" xlink:title="Engine/Renderer/Renderer.hpp">
<polygon fill="white" stroke="red" points="895.5,-298.5 895.5,-317.5 1046.5,-317.5 1046.5,-298.5 895.5,-298.5"/>
<text text-anchor="middle" x="971" y="-305.5" font-family="Helvetica,sans-Serif" font-size="10.00">Engine/Renderer/Renderer.hpp</text>
</a>
</g>
</g>
<!-- Node40&#45;&gt;Node48 -->
<g id="edge76" class="edge"><title>Node40&#45;&gt;Node48</title>
<path fill="none" stroke="midnightblue" d="M801.493,-366.372C835.894,-354.728 897.315,-333.939 936.015,-320.841"/>
<polygon fill="midnightblue" stroke="midnightblue" points="937.46,-324.047 945.81,-317.526 935.216,-317.417 937.46,-324.047"/>
</g>
<!-- Node41&#45;&gt;Node7 -->
<g id="edge61" class="edge"><title>Node41&#45;&gt;Node7</title>
<path fill="none" stroke="midnightblue" d="M768.914,-112.324C758.514,-104.185 742.739,-91.8395 730.278,-82.0874"/>
<polygon fill="midnightblue" stroke="midnightblue" points="732.32,-79.2407 722.288,-75.8339 728.006,-84.7533 732.32,-79.2407"/>
</g>
<!-- Node45&#45;&gt;Node3 -->
<g id="edge74" class="edge"><title>Node45&#45;&gt;Node3</title>
<path fill="none" stroke="midnightblue" d="M728.57,-298.403C728.147,-289.938 727.486,-276.728 726.941,-265.82"/>
<polygon fill="midnightblue" stroke="midnightblue" points="730.424,-265.393 726.429,-255.581 723.433,-265.743 730.424,-265.393"/>
</g>
<!-- Node45&#45;&gt;Node16 -->
<g id="edge75" class="edge"><title>Node45&#45;&gt;Node16</title>
<path fill="none" stroke="midnightblue" d="M696.304,-298.391C652.143,-285.004 574.23,-254.852 533,-200 520.228,-183.009 515.951,-158.51 514.567,-141.736"/>
<polygon fill="midnightblue" stroke="midnightblue" points="518.051,-141.336 514.003,-131.545 511.061,-141.723 518.051,-141.336"/>
</g>
<!-- Node45&#45;&gt;Node18 -->
<g id="edge73" class="edge"><title>Node45&#45;&gt;Node18</title>
<path fill="none" stroke="midnightblue" d="M696.988,-298.485C675.899,-291.028 649.883,-277.872 637,-256 632.489,-248.341 633.025,-243.95 637,-236 648.926,-212.149 673.074,-223.851 685,-200 694.269,-181.461 689.467,-157.315 684.184,-141.045"/>
<polygon fill="midnightblue" stroke="midnightblue" points="687.472,-139.847 680.785,-131.629 680.888,-142.223 687.472,-139.847"/>
</g>
<!-- Node45&#45;&gt;Node32 -->
<g id="edge69" class="edge"><title>Node45&#45;&gt;Node32</title>
<path fill="none" stroke="midnightblue" d="M790.867,-298.484C862.262,-288.654 983.497,-271.954 1098.31,-256.095"/>
<polygon fill="midnightblue" stroke="midnightblue" points="1098.9,-259.546 1108.33,-254.71 1097.95,-252.612 1098.9,-259.546"/>
</g>
<!-- Node46 -->
<g id="node46" class="node"><title>Node46</title>
<g id="a_node46"><a xlink:href="Singleton_8hpp.html" target="_top" xlink:title="Core/Utils/Singleton.hpp">
<polygon fill="white" stroke="black" points="808.5,-236.5 808.5,-255.5 931.5,-255.5 931.5,-236.5 808.5,-236.5"/>
<text text-anchor="middle" x="870" y="-243.5" font-family="Helvetica,sans-Serif" font-size="10.00">Core/Utils/Singleton.hpp</text>
</a>
</g>
</g>
<!-- Node45&#45;&gt;Node46 -->
<g id="edge70" class="edge"><title>Node45&#45;&gt;Node46</title>
<path fill="none" stroke="midnightblue" d="M749.202,-298.403C773.074,-288.245 813.002,-271.255 840.373,-259.607"/>
<polygon fill="midnightblue" stroke="midnightblue" points="842.005,-262.717 849.836,-255.581 839.264,-256.276 842.005,-262.717"/>
</g>
<!-- Node47 -->
<g id="node47" class="node"><title>Node47</title>
<polygon fill="white" stroke="#bfbfbf" points="646.5,-236.5 646.5,-255.5 681.5,-255.5 681.5,-236.5 646.5,-236.5"/>
<text text-anchor="middle" x="664" y="-243.5" font-family="Helvetica,sans-Serif" font-size="10.00">map</text>
</g>
<!-- Node45&#45;&gt;Node47 -->
<g id="edge72" class="edge"><title>Node45&#45;&gt;Node47</title>
<path fill="none" stroke="midnightblue" d="M719.687,-298.403C709.551,-289.047 693.136,-273.895 680.748,-262.46"/>
<polygon fill="midnightblue" stroke="midnightblue" points="683.018,-259.792 673.296,-255.581 678.27,-264.935 683.018,-259.792"/>
</g>
<!-- Node46&#45;&gt;Node14 -->
<g id="edge71" class="edge"><title>Node46&#45;&gt;Node14</title>
<path fill="none" stroke="midnightblue" d="M872.173,-236.086C876.69,-219.625 888.754,-184.624 913,-168 954.315,-139.672 1094.29,-128.941 1174.08,-125.061"/>
<polygon fill="midnightblue" stroke="midnightblue" points="1174.62,-128.539 1184.45,-124.578 1174.3,-121.547 1174.62,-128.539"/>
</g>
<!-- Node48&#45;&gt;Node3 -->
<g id="edge80" class="edge"><title>Node48&#45;&gt;Node3</title>
<path fill="none" stroke="midnightblue" d="M936.158,-298.467C889.977,-287.158 808.894,-267.3 762.093,-255.839"/>
<polygon fill="midnightblue" stroke="midnightblue" points="762.638,-252.369 752.092,-253.39 760.973,-259.168 762.638,-252.369"/>
</g>
<!-- Node48&#45;&gt;Node18 -->
<g id="edge81" class="edge"><title>Node48&#45;&gt;Node18</title>
<path fill="none" stroke="midnightblue" d="M969.396,-298.406C966.245,-283.762 957.932,-253.828 940,-236 922.568,-218.67 775,-160.636 708.853,-135.162"/>
<polygon fill="midnightblue" stroke="midnightblue" points="709.928,-131.826 699.338,-131.507 707.418,-138.36 709.928,-131.826"/>
</g>
<!-- Node48&#45;&gt;Node20 -->
<g id="edge82" class="edge"><title>Node48&#45;&gt;Node20</title>
<path fill="none" stroke="midnightblue" d="M1021.92,-298.476C1034.68,-296.35 1048.34,-294.083 1061,-292 1134.43,-279.916 1218.85,-266.232 1275,-257.16"/>
<polygon fill="midnightblue" stroke="midnightblue" points="1275.83,-260.57 1285.14,-255.521 1274.71,-253.66 1275.83,-260.57"/>
</g>
<!-- Node48&#45;&gt;Node32 -->
<g id="edge77" class="edge"><title>Node48&#45;&gt;Node32</title>
<path fill="none" stroke="midnightblue" d="M998.652,-298.403C1032.33,-287.933 1089.36,-270.205 1126.85,-258.55"/>
<polygon fill="midnightblue" stroke="midnightblue" points="1127.89,-261.892 1136.4,-255.581 1125.81,-255.207 1127.89,-261.892"/>
</g>
<!-- Node49 -->
<g id="node49" class="node"><title>Node49</title>
<polygon fill="white" stroke="#bfbfbf" points="988,-236.5 988,-255.5 1026,-255.5 1026,-236.5 988,-236.5"/>
<text text-anchor="middle" x="1007" y="-243.5" font-family="Helvetica,sans-Serif" font-size="10.00">array</text>
</g>
<!-- Node48&#45;&gt;Node49 -->
<g id="edge78" class="edge"><title>Node48&#45;&gt;Node49</title>
<path fill="none" stroke="midnightblue" d="M976.158,-298.403C981.451,-289.582 989.835,-275.608 996.527,-264.455"/>
<polygon fill="midnightblue" stroke="midnightblue" points="999.708,-265.956 1001.85,-255.581 993.705,-262.355 999.708,-265.956"/>
</g>
<!-- Node50 -->
<g id="node50" class="node"><title>Node50</title>
<polygon fill="white" stroke="#bfbfbf" points="1044,-236.5 1044,-255.5 1090,-255.5 1090,-236.5 1044,-236.5"/>
<text text-anchor="middle" x="1067" y="-243.5" font-family="Helvetica,sans-Serif" font-size="10.00">chrono</text>
</g>
<!-- Node48&#45;&gt;Node50 -->
<g id="edge79" class="edge"><title>Node48&#45;&gt;Node50</title>
<path fill="none" stroke="midnightblue" d="M984.754,-298.403C1000.37,-288.646 1026.06,-272.585 1044.58,-261.011"/>
<polygon fill="midnightblue" stroke="midnightblue" points="1046.65,-263.849 1053.27,-255.581 1042.94,-257.913 1046.65,-263.849"/>
</g>
</g>
</svg>
