<?xml version="1.0" encoding="UTF-8" standalone="no"?>
<!DOCTYPE svg PUBLIC "-//W3C//DTD SVG 1.1//EN"
 "http://www.w3.org/Graphics/SVG/1.1/DTD/svg11.dtd">
<!-- Generated by graphviz version 2.36.0 (20140111.2315)
 -->
<!-- Title: Ra::Engine::Mesh::getData Pages: 1 -->
<svg width="304pt" height="87pt"
 viewBox="0.00 0.00 304.00 87.00" xmlns="http://www.w3.org/2000/svg" xmlns:xlink="http://www.w3.org/1999/xlink">
<g id="graph0" class="graph" transform="scale(1 1) rotate(0) translate(4 83)">
<title>Ra::Engine::Mesh::getData</title>
<polygon fill="white" stroke="none" points="-4,4 -4,-83 300,-83 300,4 -4,4"/>
<!-- Node1 -->
<g id="node1" class="node"><title>Node1</title>
<polygon fill="#bfbfbf" stroke="black" points="0,-29.5 0,-48.5 136,-48.5 136,-29.5 0,-29.5"/>
<text text-anchor="middle" x="68" y="-36.5" font-family="Helvetica,sans-Serif" font-size="10.00">Ra::Engine::Mesh::getData</text>
</g>
<!-- Node2 -->
<g id="node2" class="node"><title>Node2</title>
<g id="a_node2"><a xlink:href="classRa_1_1Core_1_1TriangleMesh.html#a49ec63044477bd5bdff8d57a5114f011" target="_top" xlink:title="Ra::Core::TriangleMesh\l::attribManager">
<polygon fill="white" stroke="black" points="173.5,-49 173.5,-79 294.5,-79 294.5,-49 173.5,-49"/>
<text text-anchor="start" x="181.5" y="-67" font-family="Helvetica,sans-Serif" font-size="10.00">Ra::Core::TriangleMesh</text>
<text text-anchor="middle" x="234" y="-56" font-family="Helvetica,sans-Serif" font-size="10.00">::attribManager</text>
</a>
</g>
</g>
<!-- Node1&#45;&gt;Node2 -->
<g id="edge1" class="edge"><title>Node1&#45;&gt;Node2</title>
<path fill="none" stroke="midnightblue" d="M131.469,-48.5227C141.896,-50.1122 152.77,-51.7698 163.363,-53.3845"/>
<polygon fill="midnightblue" stroke="midnightblue" points="162.995,-56.8688 173.408,-54.9159 164.05,-49.9488 162.995,-56.8688"/>
</g>
<!-- Node3 -->
<g id="node3" class="node"><title>Node3</title>
<g id="a_node3"><a xlink:href="classRa_1_1Core_1_1AttribManager.html#a2344159a1926da905e4c44cd95744d59" target="_top" xlink:title="Get attribute by handle. ">
<polygon fill="white" stroke="black" points="172.5,-0 172.5,-30 295.5,-30 295.5,-0 172.5,-0"/>
<text text-anchor="start" x="180.5" y="-18" font-family="Helvetica,sans-Serif" font-size="10.00">Ra::Core::AttribManager</text>
<text text-anchor="middle" x="234" y="-7" font-family="Helvetica,sans-Serif" font-size="10.00">::getAttrib</text>
</a>
</g>
</g>
<!-- Node1&#45;&gt;Node3 -->
<g id="edge2" class="edge"><title>Node1&#45;&gt;Node3</title>
<path fill="none" stroke="midnightblue" d="M134.288,-29.4456C143.538,-28.092 153.083,-26.6951 162.427,-25.3278"/>
<polygon fill="midnightblue" stroke="midnightblue" points="163.075,-28.7703 172.463,-23.8591 162.062,-21.844 163.075,-28.7703"/>
</g>
</g>
</svg>
