<?xml version="1.0" encoding="UTF-8" standalone="no"?>
<!DOCTYPE svg PUBLIC "-//W3C//DTD SVG 1.1//EN"
 "http://www.w3.org/Graphics/SVG/1.1/DTD/svg11.dtd">
<!-- Generated by graphviz version 2.36.0 (20140111.2315)
 -->
<!-- Title: Ra::Gui::TranslateGizmo::TranslateGizmo Pages: 1 -->
<svg width="1146pt" height="504pt"
 viewBox="0.00 0.00 1146.00 504.00" xmlns="http://www.w3.org/2000/svg" xmlns:xlink="http://www.w3.org/1999/xlink">
<g id="graph0" class="graph" transform="scale(1 1) rotate(0) translate(4 500)">
<title>Ra::Gui::TranslateGizmo::TranslateGizmo</title>
<polygon fill="white" stroke="none" points="-4,4 -4,-500 1142,-500 1142,4 -4,4"/>
<!-- Node1 -->
<g id="node1" class="node"><title>Node1</title>
<polygon fill="#bfbfbf" stroke="black" points="0.5,-191 0.5,-221 125.5,-221 125.5,-191 0.5,-191"/>
<text text-anchor="start" x="8.5" y="-209" font-family="Helvetica,sans-Serif" font-size="10.00">Ra::Gui::TranslateGizmo</text>
<text text-anchor="middle" x="63" y="-198" font-family="Helvetica,sans-Serif" font-size="10.00">::TranslateGizmo</text>
</g>
<!-- Node2 -->
<g id="node2" class="node"><title>Node2</title>
<g id="a_node2"><a xlink:href="namespaceRa_1_1Core_1_1MeshUtils.html#a0c8378dbb382ee9bf93cfe0563e17db4" target="_top" xlink:title="Ra::Core::MeshUtils\l::makeCylinder">
<polygon fill="white" stroke="black" points="188.5,-343 188.5,-373 295.5,-373 295.5,-343 188.5,-343"/>
<text text-anchor="start" x="196.5" y="-361" font-family="Helvetica,sans-Serif" font-size="10.00">Ra::Core::MeshUtils</text>
<text text-anchor="middle" x="242" y="-350" font-family="Helvetica,sans-Serif" font-size="10.00">::makeCylinder</text>
</a>
</g>
</g>
<!-- Node1&#45;&gt;Node2 -->
<g id="edge1" class="edge"><title>Node1&#45;&gt;Node2</title>
<path fill="none" stroke="midnightblue" d="M74.9982,-221.234C91.8309,-243.785 125.854,-286.453 162,-315 173.035,-323.715 186.081,-331.619 198.358,-338.205"/>
<polygon fill="midnightblue" stroke="midnightblue" points="197.063,-341.476 207.551,-342.975 200.287,-335.262 197.063,-341.476"/>
</g>
<!-- Node3 -->
<g id="node3" class="node"><title>Node3</title>
<g id="a_node3"><a xlink:href="classRa_1_1Core_1_1TriangleMesh.html#a495116f40cfec8bb6504698d786d4b8c" target="_top" xlink:title="Ra::Core::TriangleMesh\l::vertices">
<polygon fill="white" stroke="black" points="856.5,-281 856.5,-311 977.5,-311 977.5,-281 856.5,-281"/>
<text text-anchor="start" x="864.5" y="-299" font-family="Helvetica,sans-Serif" font-size="10.00">Ra::Core::TriangleMesh</text>
<text text-anchor="middle" x="917" y="-288" font-family="Helvetica,sans-Serif" font-size="10.00">::vertices</text>
</a>
</g>
</g>
<!-- Node1&#45;&gt;Node3 -->
<g id="edge28" class="edge"><title>Node1&#45;&gt;Node3</title>
<path fill="none" stroke="midnightblue" d="M68.6015,-221.152C79.4908,-254.626 109.909,-335.583 162,-382 260.781,-470.021 304.692,-496 437,-496 437,-496 437,-496 616,-496 742.299,-496 855.868,-371.762 898.318,-319.124"/>
<polygon fill="midnightblue" stroke="midnightblue" points="901.264,-321.042 904.736,-311.033 895.78,-316.692 901.264,-321.042"/>
</g>
<!-- Node15 -->
<g id="node15" class="node"><title>Node15</title>
<g id="a_node15"><a xlink:href="namespaceRa_1_1Core_1_1MeshUtils.html#a72005b4af3d7a9c2d850395740508d8c" target="_top" xlink:title="Ra::Core::MeshUtils\l::makeCone">
<polygon fill="white" stroke="black" points="188.5,-276 188.5,-306 295.5,-306 295.5,-276 188.5,-276"/>
<text text-anchor="start" x="196.5" y="-294" font-family="Helvetica,sans-Serif" font-size="10.00">Ra::Core::MeshUtils</text>
<text text-anchor="middle" x="242" y="-283" font-family="Helvetica,sans-Serif" font-size="10.00">::makeCone</text>
</a>
</g>
</g>
<!-- Node1&#45;&gt;Node15 -->
<g id="edge18" class="edge"><title>Node1&#45;&gt;Node15</title>
<path fill="none" stroke="midnightblue" d="M90.6982,-221.024C110.214,-231.794 137.45,-246.389 162,-258 172.082,-262.768 183.04,-267.576 193.495,-271.991"/>
<polygon fill="midnightblue" stroke="midnightblue" points="192.339,-275.301 202.916,-275.922 195.035,-268.841 192.339,-275.301"/>
</g>
<!-- Node16 -->
<g id="node16" class="node"><title>Node16</title>
<g id="a_node16"><a xlink:href="classRa_1_1Core_1_1TriangleMesh.html#a6ba21a21ecbfaa364c63ba5e3fe3c5f2" target="_top" xlink:title="Ra::Core::TriangleMesh\l::append">
<polygon fill="white" stroke="black" points="377.5,-147 377.5,-177 498.5,-177 498.5,-147 377.5,-147"/>
<text text-anchor="start" x="385.5" y="-165" font-family="Helvetica,sans-Serif" font-size="10.00">Ra::Core::TriangleMesh</text>
<text text-anchor="middle" x="438" y="-154" font-family="Helvetica,sans-Serif" font-size="10.00">::append</text>
</a>
</g>
</g>
<!-- Node1&#45;&gt;Node16 -->
<g id="edge24" class="edge"><title>Node1&#45;&gt;Node16</title>
<path fill="none" stroke="midnightblue" d="M120.535,-221.026C173.962,-232.478 255.598,-242.783 322,-220 341.173,-213.422 340.329,-201.93 358,-192 365.262,-187.919 373.189,-184.172 381.129,-180.813"/>
<polygon fill="midnightblue" stroke="midnightblue" points="382.463,-184.049 390.417,-177.049 379.834,-177.561 382.463,-184.049"/>
</g>
<!-- Node17 -->
<g id="node17" class="node"><title>Node17</title>
<g id="a_node17"><a xlink:href="namespaceRa_1_1Engine_1_1ShaderConfigurationFactory.html#a0bc60f21dbabd745961037f3d2f019c8" target="_top" xlink:title="Ra::Engine::ShaderConfiguration\lFactory::getConfiguration">
<polygon fill="white" stroke="black" points="162,-49 162,-79 322,-79 322,-49 162,-49"/>
<text text-anchor="start" x="170" y="-67" font-family="Helvetica,sans-Serif" font-size="10.00">Ra::Engine::ShaderConfiguration</text>
<text text-anchor="middle" x="242" y="-56" font-family="Helvetica,sans-Serif" font-size="10.00">Factory::getConfiguration</text>
</a>
</g>
</g>
<!-- Node1&#45;&gt;Node17 -->
<g id="edge29" class="edge"><title>Node1&#45;&gt;Node17</title>
<path fill="none" stroke="midnightblue" d="M72.4801,-190.909C87.3481,-165.816 120.52,-115.554 162,-88 164.407,-86.4014 166.924,-84.9057 169.52,-83.5066"/>
<polygon fill="midnightblue" stroke="midnightblue" points="171.123,-86.6191 178.601,-79.1132 168.075,-80.3178 171.123,-86.6191"/>
</g>
<!-- Node19 -->
<g id="node19" class="node"><title>Node19</title>
<g id="a_node19"><a xlink:href="classRa_1_1Engine_1_1RenderObject.html#ae1ea453e2b698cda9956586d11b9cfbd" target="_top" xlink:title="Ra::Engine::RenderObject\l::setRenderTechnique">
<polygon fill="white" stroke="black" points="176.5,-147 176.5,-177 307.5,-177 307.5,-147 176.5,-147"/>
<text text-anchor="start" x="184.5" y="-165" font-family="Helvetica,sans-Serif" font-size="10.00">Ra::Engine::RenderObject</text>
<text text-anchor="middle" x="242" y="-154" font-family="Helvetica,sans-Serif" font-size="10.00">::setRenderTechnique</text>
</a>
</g>
</g>
<!-- Node1&#45;&gt;Node19 -->
<g id="edge31" class="edge"><title>Node1&#45;&gt;Node19</title>
<path fill="none" stroke="midnightblue" d="M124.418,-190.981C139.288,-187.284 155.337,-183.295 170.632,-179.493"/>
<polygon fill="midnightblue" stroke="midnightblue" points="171.693,-182.835 180.554,-177.026 170.005,-176.042 171.693,-182.835"/>
</g>
<!-- Node20 -->
<g id="node20" class="node"><title>Node20</title>
<g id="a_node20"><a xlink:href="classRa_1_1Engine_1_1RenderObject.html#ae8e94954e783a2012fd774598af1eb52" target="_top" xlink:title="Ra::Engine::RenderObject\l::setMesh">
<polygon fill="white" stroke="black" points="176.5,-98 176.5,-128 307.5,-128 307.5,-98 176.5,-98"/>
<text text-anchor="start" x="184.5" y="-116" font-family="Helvetica,sans-Serif" font-size="10.00">Ra::Engine::RenderObject</text>
<text text-anchor="middle" x="242" y="-105" font-family="Helvetica,sans-Serif" font-size="10.00">::setMesh</text>
</a>
</g>
</g>
<!-- Node1&#45;&gt;Node20 -->
<g id="edge32" class="edge"><title>Node1&#45;&gt;Node20</title>
<path fill="none" stroke="midnightblue" d="M81.6835,-190.905C100.511,-175.492 131.709,-151.79 162,-137 165.84,-135.125 169.857,-133.361 173.958,-131.708"/>
<polygon fill="midnightblue" stroke="midnightblue" points="175.517,-134.861 183.634,-128.052 173.043,-128.313 175.517,-134.861"/>
</g>
<!-- Node21 -->
<g id="node21" class="node"><title>Node21</title>
<g id="a_node21"><a xlink:href="classRa_1_1Gui_1_1TranslateGizmo.html#a5a100607ad14934626008ba6222a4563" target="_top" xlink:title="Called every time the underlying transform may have changed. ">
<polygon fill="white" stroke="black" points="375.5,-98 375.5,-128 500.5,-128 500.5,-98 375.5,-98"/>
<text text-anchor="start" x="383.5" y="-116" font-family="Helvetica,sans-Serif" font-size="10.00">Ra::Gui::TranslateGizmo</text>
<text text-anchor="middle" x="438" y="-105" font-family="Helvetica,sans-Serif" font-size="10.00">::updateTransform</text>
</a>
</g>
</g>
<!-- Node1&#45;&gt;Node21 -->
<g id="edge33" class="edge"><title>Node1&#45;&gt;Node21</title>
<path fill="none" stroke="midnightblue" d="M125.703,-215.036C180.709,-220.019 261.624,-219.555 322,-186 345.621,-172.872 335.944,-152.615 358,-137 360.55,-135.195 363.239,-133.523 366.023,-131.975"/>
<polygon fill="midnightblue" stroke="midnightblue" points="367.782,-135.01 375.194,-127.44 364.679,-128.735 367.782,-135.01"/>
</g>
<!-- Node22 -->
<g id="node22" class="node"><title>Node22</title>
<g id="a_node22"><a xlink:href="classRa_1_1Engine_1_1Component.html#a8faa6f03b4a5a8bc30bb8ff402e6b61f" target="_top" xlink:title="Add a new render object to the component. This adds the RO to the manager for drawing. ">
<polygon fill="white" stroke="black" points="181,-0 181,-30 303,-30 303,-0 181,-0"/>
<text text-anchor="start" x="189" y="-18" font-family="Helvetica,sans-Serif" font-size="10.00">Ra::Engine::Component</text>
<text text-anchor="middle" x="242" y="-7" font-family="Helvetica,sans-Serif" font-size="10.00">::addRenderObject</text>
</a>
</g>
</g>
<!-- Node1&#45;&gt;Node22 -->
<g id="edge35" class="edge"><title>Node1&#45;&gt;Node22</title>
<path fill="none" stroke="midnightblue" d="M68.7621,-190.513C79.6893,-157.571 109.726,-80.2042 162,-39 164.99,-36.643 168.21,-34.5167 171.581,-32.5986"/>
<polygon fill="midnightblue" stroke="midnightblue" points="173.417,-35.5936 180.798,-27.9923 170.288,-29.332 173.417,-35.5936"/>
</g>
<!-- Node2&#45;&gt;Node3 -->
<g id="edge2" class="edge"><title>Node2&#45;&gt;Node3</title>
<path fill="none" stroke="midnightblue" d="M261.061,-373.153C282.557,-390.106 320.303,-416.559 358,-427 426.531,-445.982 447.786,-438.258 518,-427 651.598,-405.579 801.165,-346.13 872.969,-315.222"/>
<polygon fill="midnightblue" stroke="midnightblue" points="874.792,-318.246 882.575,-311.057 872.008,-311.824 874.792,-318.246"/>
</g>
<!-- Node5 -->
<g id="node5" class="node"><title>Node5</title>
<g id="a_node5"><a xlink:href="classRa_1_1Core_1_1TriangleMesh.html#a40d31b7b2943947d6eac5d906f0182fd" target="_top" xlink:title="Ra::Core::TriangleMesh\l::normals">
<polygon fill="white" stroke="black" points="554.5,-188 554.5,-218 675.5,-218 675.5,-188 554.5,-188"/>
<text text-anchor="start" x="562.5" y="-206" font-family="Helvetica,sans-Serif" font-size="10.00">Ra::Core::TriangleMesh</text>
<text text-anchor="middle" x="615" y="-195" font-family="Helvetica,sans-Serif" font-size="10.00">::normals</text>
</a>
</g>
</g>
<!-- Node2&#45;&gt;Node5 -->
<g id="edge4" class="edge"><title>Node2&#45;&gt;Node5</title>
<path fill="none" stroke="midnightblue" d="M267.925,-373.006C320.503,-402.509 444,-460.187 518,-400 578.928,-350.445 503.542,-287.182 554,-227 554.721,-226.14 555.477,-225.311 556.264,-224.511"/>
<polygon fill="midnightblue" stroke="midnightblue" points="558.588,-227.132 564.095,-218.081 554.145,-221.723 558.588,-227.132"/>
</g>
<!-- Node6 -->
<g id="node6" class="node"><title>Node6</title>
<g id="a_node6"><a xlink:href="namespaceRa_1_1Core_1_1Vector.html#a0464b705193d326a5102691dd58d753d" target="_top" xlink:title="Get two vectors orthogonal to a given vector. ">
<polygon fill="white" stroke="black" points="359,-361 359,-391 517,-391 517,-361 359,-361"/>
<text text-anchor="start" x="367" y="-379" font-family="Helvetica,sans-Serif" font-size="10.00">Ra::Core::Vector::getOrthogonal</text>
<text text-anchor="middle" x="438" y="-368" font-family="Helvetica,sans-Serif" font-size="10.00">Vectors</text>
</a>
</g>
</g>
<!-- Node2&#45;&gt;Node6 -->
<g id="edge6" class="edge"><title>Node2&#45;&gt;Node6</title>
<path fill="none" stroke="midnightblue" d="M295.755,-362.895C312.133,-364.414 330.653,-366.133 348.762,-367.813"/>
<polygon fill="midnightblue" stroke="midnightblue" points="348.483,-371.302 358.764,-368.741 349.13,-364.332 348.483,-371.302"/>
</g>
<!-- Node7 -->
<g id="node7" class="node"><title>Node7</title>
<g id="a_node7"><a xlink:href="namespaceRa_1_1Core_1_1Vector.html#a42d87f3bd0658bac532d72f0ec528827" target="_top" xlink:title="Get the cosine of the angle between two vectors. ">
<polygon fill="white" stroke="black" points="381.5,-322.5 381.5,-341.5 494.5,-341.5 494.5,-322.5 381.5,-322.5"/>
<text text-anchor="middle" x="438" y="-329.5" font-family="Helvetica,sans-Serif" font-size="10.00">Ra::Core::Vector::cos</text>
</a>
</g>
</g>
<!-- Node2&#45;&gt;Node7 -->
<g id="edge7" class="edge"><title>Node2&#45;&gt;Node7</title>
<path fill="none" stroke="midnightblue" d="M295.755,-350.93C319.028,-347.811 346.626,-344.112 371.225,-340.815"/>
<polygon fill="midnightblue" stroke="midnightblue" points="371.756,-344.275 381.202,-339.478 370.826,-337.337 371.756,-344.275"/>
</g>
<!-- Node8 -->
<g id="node8" class="node"><title>Node8</title>
<g id="a_node8"><a xlink:href="namespaceRa_1_1Core_1_1MeshUtils.html#a5398f7b15335cb47b83a2d573f277640" target="_top" xlink:title="Ra::Core::MeshUtils\l::checkConsistency">
<polygon fill="white" stroke="black" points="384.5,-235 384.5,-265 491.5,-265 491.5,-235 384.5,-235"/>
<text text-anchor="start" x="392.5" y="-253" font-family="Helvetica,sans-Serif" font-size="10.00">Ra::Core::MeshUtils</text>
<text text-anchor="middle" x="438" y="-242" font-family="Helvetica,sans-Serif" font-size="10.00">::checkConsistency</text>
</a>
</g>
</g>
<!-- Node2&#45;&gt;Node8 -->
<g id="edge8" class="edge"><title>Node2&#45;&gt;Node8</title>
<path fill="none" stroke="midnightblue" d="M270.846,-342.984C286.004,-334.775 305.068,-324.393 322,-315 348.792,-300.138 378.939,-283.086 401.643,-270.177"/>
<polygon fill="midnightblue" stroke="midnightblue" points="403.615,-273.082 410.575,-265.094 400.153,-266.998 403.615,-273.082"/>
</g>
<!-- Node4 -->
<g id="node4" class="node"><title>Node4</title>
<g id="a_node4"><a xlink:href="classRa_1_1Core_1_1AttribManager.html#a2344159a1926da905e4c44cd95744d59" target="_top" xlink:title="Get attribute by handle. ">
<polygon fill="white" stroke="black" points="1014.5,-171 1014.5,-201 1137.5,-201 1137.5,-171 1014.5,-171"/>
<text text-anchor="start" x="1022.5" y="-189" font-family="Helvetica,sans-Serif" font-size="10.00">Ra::Core::AttribManager</text>
<text text-anchor="middle" x="1076" y="-178" font-family="Helvetica,sans-Serif" font-size="10.00">::getAttrib</text>
</a>
</g>
</g>
<!-- Node3&#45;&gt;Node4 -->
<g id="edge3" class="edge"><title>Node3&#45;&gt;Node4</title>
<path fill="none" stroke="midnightblue" d="M939.501,-280.936C966.906,-261.735 1014.42,-228.445 1045.28,-206.826"/>
<polygon fill="midnightblue" stroke="midnightblue" points="1047.33,-209.663 1053.51,-201.059 1043.31,-203.93 1047.33,-209.663"/>
</g>
<!-- Node5&#45;&gt;Node4 -->
<g id="edge5" class="edge"><title>Node5&#45;&gt;Node4</title>
<path fill="none" stroke="midnightblue" d="M662.506,-187.994C667.419,-185.179 672.053,-181.873 676,-178 704.409,-150.123 678.676,-117.764 712,-96 729.296,-84.7043 948.491,-87.383 978,-99 1011.08,-112.022 1040.09,-141.838 1057.57,-162.924"/>
<polygon fill="midnightblue" stroke="midnightblue" points="1054.91,-165.2 1063.91,-170.8 1060.37,-160.814 1054.91,-165.2"/>
</g>
<!-- Node8&#45;&gt;Node3 -->
<g id="edge9" class="edge"><title>Node8&#45;&gt;Node3</title>
<path fill="none" stroke="midnightblue" d="M491.618,-263.839C511.086,-268.444 533.424,-273.126 554,-276 655.065,-290.116 773.308,-294.374 846.437,-295.599"/>
<polygon fill="midnightblue" stroke="midnightblue" points="846.398,-299.098 856.45,-295.752 846.505,-292.099 846.398,-299.098"/>
</g>
<!-- Node8&#45;&gt;Node5 -->
<g id="edge17" class="edge"><title>Node8&#45;&gt;Node5</title>
<path fill="none" stroke="midnightblue" d="M491.506,-235.898C509.257,-231.131 529.308,-225.746 547.97,-220.734"/>
<polygon fill="midnightblue" stroke="midnightblue" points="549.127,-224.047 557.877,-218.073 547.311,-217.287 549.127,-224.047"/>
</g>
<!-- Node9 -->
<g id="node9" class="node"><title>Node9</title>
<g id="a_node9"><a xlink:href="namespaceRa_1_1Core_1_1Algorithm.html#aea294cdb6f4f0d85955bdcccb22886ec" target="_top" xlink:title="Ra::Core::Algorithm::t">
<polygon fill="white" stroke="black" points="558.5,-149.5 558.5,-168.5 671.5,-168.5 671.5,-149.5 558.5,-149.5"/>
<text text-anchor="middle" x="615" y="-156.5" font-family="Helvetica,sans-Serif" font-size="10.00">Ra::Core::Algorithm::t</text>
</a>
</g>
</g>
<!-- Node8&#45;&gt;Node9 -->
<g id="edge10" class="edge"><title>Node8&#45;&gt;Node9</title>
<path fill="none" stroke="midnightblue" d="M459.705,-234.777C482.056,-218.896 519.148,-194.112 554,-178 558.714,-175.821 563.746,-173.796 568.815,-171.943"/>
<polygon fill="midnightblue" stroke="midnightblue" points="570.22,-175.161 578.536,-168.596 567.941,-168.542 570.22,-175.161"/>
</g>
<!-- Node10 -->
<g id="node10" class="node"><title>Node10</title>
<g id="a_node10"><a xlink:href="namespaceRa_1_1Core_1_1MeshUtils.html#a746199d436bb1dc31c4bccb3953743b9" target="_top" xlink:title="Returns the area of a given triangle. ">
<polygon fill="white" stroke="black" points="561.5,-237 561.5,-267 668.5,-267 668.5,-237 561.5,-237"/>
<text text-anchor="start" x="569.5" y="-255" font-family="Helvetica,sans-Serif" font-size="10.00">Ra::Core::MeshUtils</text>
<text text-anchor="middle" x="615" y="-244" font-family="Helvetica,sans-Serif" font-size="10.00">::getTriangleArea</text>
</a>
</g>
</g>
<!-- Node8&#45;&gt;Node10 -->
<g id="edge11" class="edge"><title>Node8&#45;&gt;Node10</title>
<path fill="none" stroke="midnightblue" d="M491.506,-250.6C510.282,-250.815 531.631,-251.059 551.188,-251.282"/>
<polygon fill="midnightblue" stroke="midnightblue" points="551.19,-254.782 561.229,-251.397 551.27,-247.783 551.19,-254.782"/>
</g>
<!-- Node11 -->
<g id="node11" class="node"><title>Node11</title>
<g id="a_node11"><a xlink:href="namespaceRa_1_1Core_1_1MeshUtils.html#afbee0fe3203a295fb1f93b33dfb33f81" target="_top" xlink:title="Fills the given array with the vertices of a given triangle. ">
<polygon fill="white" stroke="black" points="712.5,-237 712.5,-267 819.5,-267 819.5,-237 712.5,-237"/>
<text text-anchor="start" x="720.5" y="-255" font-family="Helvetica,sans-Serif" font-size="10.00">Ra::Core::MeshUtils</text>
<text text-anchor="middle" x="766" y="-244" font-family="Helvetica,sans-Serif" font-size="10.00">::getTriangleVertices</text>
</a>
</g>
</g>
<!-- Node10&#45;&gt;Node11 -->
<g id="edge12" class="edge"><title>Node10&#45;&gt;Node11</title>
<path fill="none" stroke="midnightblue" d="M668.532,-252C679.437,-252 691.032,-252 702.261,-252"/>
<polygon fill="midnightblue" stroke="midnightblue" points="702.44,-255.5 712.44,-252 702.44,-248.5 702.44,-255.5"/>
</g>
<!-- Node12 -->
<g id="node12" class="node"><title>Node12</title>
<g id="a_node12"><a xlink:href="namespaceRa_1_1Core_1_1Geometry.html#a178f2b7309fe2ea5bc31a3abcb25368e" target="_top" xlink:title="Ra::Core::Geometry\l::triangleArea">
<polygon fill="white" stroke="black" points="713.5,-106 713.5,-136 818.5,-136 818.5,-106 713.5,-106"/>
<text text-anchor="start" x="721.5" y="-124" font-family="Helvetica,sans-Serif" font-size="10.00">Ra::Core::Geometry</text>
<text text-anchor="middle" x="766" y="-113" font-family="Helvetica,sans-Serif" font-size="10.00">::triangleArea</text>
</a>
</g>
</g>
<!-- Node10&#45;&gt;Node12 -->
<g id="edge14" class="edge"><title>Node10&#45;&gt;Node12</title>
<path fill="none" stroke="midnightblue" d="M659.317,-236.916C665.171,-234.042 670.907,-230.741 676,-227 707.081,-204.168 734.172,-168.301 750.059,-144.717"/>
<polygon fill="midnightblue" stroke="midnightblue" points="753.004,-146.609 755.585,-136.333 747.16,-142.757 753.004,-146.609"/>
</g>
<!-- Node11&#45;&gt;Node3 -->
<g id="edge13" class="edge"><title>Node11&#45;&gt;Node3</title>
<path fill="none" stroke="midnightblue" d="M817.861,-267.019C829.901,-270.575 842.861,-274.402 855.289,-278.072"/>
<polygon fill="midnightblue" stroke="midnightblue" points="854.534,-281.498 865.116,-280.974 856.516,-274.785 854.534,-281.498"/>
</g>
<!-- Node13 -->
<g id="node13" class="node"><title>Node13</title>
<g id="a_node13"><a xlink:href="namespaceOpenMesh.html#a71e7f1dd3eac016d2b8245ac408a291c" target="_top" xlink:title="OpenMesh::cross">
<polygon fill="white" stroke="black" points="870,-146.5 870,-165.5 964,-165.5 964,-146.5 870,-146.5"/>
<text text-anchor="middle" x="917" y="-153.5" font-family="Helvetica,sans-Serif" font-size="10.00">OpenMesh::cross</text>
</a>
</g>
</g>
<!-- Node12&#45;&gt;Node13 -->
<g id="edge15" class="edge"><title>Node12&#45;&gt;Node13</title>
<path fill="none" stroke="midnightblue" d="M818.695,-133.143C833.719,-136.672 850.113,-140.523 865.089,-144.041"/>
<polygon fill="midnightblue" stroke="midnightblue" points="864.66,-147.536 875.196,-146.415 866.261,-140.721 864.66,-147.536"/>
</g>
<!-- Node14 -->
<g id="node14" class="node"><title>Node14</title>
<g id="a_node14"><a xlink:href="namespaceOpenMesh.html#a8205f789ce08919bc11c58383574596c" target="_top" xlink:title="OpenMesh::norm">
<polygon fill="white" stroke="black" points="871,-108.5 871,-127.5 963,-127.5 963,-108.5 871,-108.5"/>
<text text-anchor="middle" x="917" y="-115.5" font-family="Helvetica,sans-Serif" font-size="10.00">OpenMesh::norm</text>
</a>
</g>
</g>
<!-- Node12&#45;&gt;Node14 -->
<g id="edge16" class="edge"><title>Node12&#45;&gt;Node14</title>
<path fill="none" stroke="midnightblue" d="M818.695,-119.959C832.225,-119.687 846.865,-119.392 860.58,-119.116"/>
<polygon fill="midnightblue" stroke="midnightblue" points="860.927,-122.61 870.854,-118.909 860.786,-115.611 860.927,-122.61"/>
</g>
<!-- Node15&#45;&gt;Node3 -->
<g id="edge19" class="edge"><title>Node15&#45;&gt;Node3</title>
<path fill="none" stroke="midnightblue" d="M295.551,-295.433C397.009,-303.333 626.905,-318.027 820,-307 828.579,-306.51 837.568,-305.776 846.46,-304.915"/>
<polygon fill="midnightblue" stroke="midnightblue" points="846.839,-308.394 856.431,-303.895 846.127,-301.431 846.839,-308.394"/>
</g>
<!-- Node15&#45;&gt;Node5 -->
<g id="edge20" class="edge"><title>Node15&#45;&gt;Node5</title>
<path fill="none" stroke="midnightblue" d="M266.403,-275.948C294.216,-258.353 339.217,-230.88 358,-225 418.963,-205.916 491.828,-201.299 544.204,-200.935"/>
<polygon fill="midnightblue" stroke="midnightblue" points="544.402,-204.435 554.396,-200.916 544.389,-197.435 544.402,-204.435"/>
</g>
<!-- Node15&#45;&gt;Node6 -->
<g id="edge21" class="edge"><title>Node15&#45;&gt;Node6</title>
<path fill="none" stroke="midnightblue" d="M271.328,-306.109C302.469,-322.666 349.265,-347.372 358,-351 363.447,-353.262 369.175,-355.442 374.956,-357.506"/>
<polygon fill="midnightblue" stroke="midnightblue" points="374.097,-360.912 384.692,-360.866 376.381,-354.295 374.097,-360.912"/>
</g>
<!-- Node15&#45;&gt;Node7 -->
<g id="edge22" class="edge"><title>Node15&#45;&gt;Node7</title>
<path fill="none" stroke="midnightblue" d="M295.755,-302.149C322.419,-307.784 354.759,-314.619 381.762,-320.326"/>
<polygon fill="midnightblue" stroke="midnightblue" points="381.32,-323.81 391.827,-322.453 382.767,-316.961 381.32,-323.81"/>
</g>
<!-- Node15&#45;&gt;Node8 -->
<g id="edge23" class="edge"><title>Node15&#45;&gt;Node8</title>
<path fill="none" stroke="midnightblue" d="M295.755,-279.851C320.023,-274.722 348.993,-268.599 374.362,-263.238"/>
<polygon fill="midnightblue" stroke="midnightblue" points="375.195,-266.639 384.255,-261.147 373.748,-259.79 375.195,-266.639"/>
</g>
<!-- Node16&#45;&gt;Node3 -->
<g id="edge25" class="edge"><title>Node16&#45;&gt;Node3</title>
<path fill="none" stroke="midnightblue" d="M489.414,-146.977C538.046,-134.885 613.305,-122.531 676,-140 765.984,-165.072 853.216,-237.43 893.225,-274.117"/>
<polygon fill="midnightblue" stroke="midnightblue" points="890.876,-276.711 900.584,-280.954 895.641,-271.583 890.876,-276.711"/>
</g>
<!-- Node16&#45;&gt;Node5 -->
<g id="edge26" class="edge"><title>Node16&#45;&gt;Node5</title>
<path fill="none" stroke="midnightblue" d="M498.736,-175.995C513.437,-179.44 529.305,-183.157 544.427,-186.7"/>
<polygon fill="midnightblue" stroke="midnightblue" points="543.702,-190.125 554.237,-188.998 545.299,-183.309 543.702,-190.125"/>
</g>
<!-- Node16&#45;&gt;Node9 -->
<g id="edge27" class="edge"><title>Node16&#45;&gt;Node9</title>
<path fill="none" stroke="midnightblue" d="M498.736,-160.976C514.574,-160.704 531.767,-160.41 547.922,-160.133"/>
<polygon fill="midnightblue" stroke="midnightblue" points="548.425,-163.625 558.363,-159.954 548.305,-156.626 548.425,-163.625"/>
</g>
<!-- Node18 -->
<g id="node18" class="node"><title>Node18</title>
<g id="a_node18"><a xlink:href="classRa_1_1Engine_1_1ShaderConfiguration.html#a7e20a600c78e8627f0238b342f4b42f2" target="_top" xlink:title="Ra::Engine::ShaderConfiguration\l::getDefaultShaderConfig">
<polygon fill="white" stroke="black" points="358,-49 358,-79 518,-79 518,-49 358,-49"/>
<text text-anchor="start" x="366" y="-67" font-family="Helvetica,sans-Serif" font-size="10.00">Ra::Engine::ShaderConfiguration</text>
<text text-anchor="middle" x="438" y="-56" font-family="Helvetica,sans-Serif" font-size="10.00">::getDefaultShaderConfig</text>
</a>
</g>
</g>
<!-- Node17&#45;&gt;Node18 -->
<g id="edge30" class="edge"><title>Node17&#45;&gt;Node18</title>
<path fill="none" stroke="midnightblue" d="M322.187,-64C330.529,-64 339.054,-64 347.502,-64"/>
<polygon fill="midnightblue" stroke="midnightblue" points="347.752,-67.5001 357.752,-64 347.752,-60.5001 347.752,-67.5001"/>
</g>
<!-- Node21&#45;&gt;Node9 -->
<g id="edge34" class="edge"><title>Node21&#45;&gt;Node9</title>
<path fill="none" stroke="midnightblue" d="M496.302,-128.062C519.555,-134.174 546.051,-141.139 568.009,-146.911"/>
<polygon fill="midnightblue" stroke="midnightblue" points="567.189,-150.314 577.75,-149.471 568.968,-143.544 567.189,-150.314"/>
</g>
<!-- Node23 -->
<g id="node23" class="node"><title>Node23</title>
<g id="a_node23"><a xlink:href="classRa_1_1Engine_1_1Component.html#a10b0bc182b76165744ebea603ae32dfe" target="_top" xlink:title="Shortcut to access the render object manager. ">
<polygon fill="white" stroke="black" points="377,-0 377,-30 499,-30 499,-0 377,-0"/>
<text text-anchor="start" x="385" y="-18" font-family="Helvetica,sans-Serif" font-size="10.00">Ra::Engine::Component</text>
<text text-anchor="middle" x="438" y="-7" font-family="Helvetica,sans-Serif" font-size="10.00">::getRoMgr</text>
</a>
</g>
</g>
<!-- Node22&#45;&gt;Node23 -->
<g id="edge36" class="edge"><title>Node22&#45;&gt;Node23</title>
<path fill="none" stroke="midnightblue" d="M303.054,-15C323.233,-15 345.919,-15 366.805,-15"/>
<polygon fill="midnightblue" stroke="midnightblue" points="366.896,-18.5001 376.896,-15 366.896,-11.5001 366.896,-18.5001"/>
</g>
</g>
</svg>
