<?xml version="1.0" encoding="UTF-8" standalone="no"?>
<!DOCTYPE svg PUBLIC "-//W3C//DTD SVG 1.1//EN"
 "http://www.w3.org/Graphics/SVG/1.1/DTD/svg11.dtd">
<!-- Generated by graphviz version 2.36.0 (20140111.2315)
 -->
<!-- Title: Ra::Gui::TrackballCamera::handleCameraZoom Pages: 1 -->
<svg width="404pt" height="104pt"
 viewBox="0.00 0.00 404.00 104.00" xmlns="http://www.w3.org/2000/svg" xmlns:xlink="http://www.w3.org/1999/xlink">
<g id="graph0" class="graph" transform="scale(1 1) rotate(0) translate(4 100)">
<title>Ra::Gui::TrackballCamera::handleCameraZoom</title>
<polygon fill="white" stroke="none" points="-4,4 -4,-100 400,-100 400,4 -4,4"/>
<!-- Node1 -->
<g id="node1" class="node"><title>Node1</title>
<polygon fill="#bfbfbf" stroke="black" points="0.5,-33 0.5,-63 131.5,-63 131.5,-33 0.5,-33"/>
<text text-anchor="start" x="8.5" y="-51" font-family="Helvetica,sans-Serif" font-size="10.00">Ra::Gui::TrackballCamera</text>
<text text-anchor="middle" x="66" y="-40" font-family="Helvetica,sans-Serif" font-size="10.00">::handleCameraZoom</text>
</g>
<!-- Node2 -->
<g id="node2" class="node"><title>Node2</title>
<g id="a_node2"><a xlink:href="namespaceRa_1_1Core.html#aa1955bbcafe092cdb4ea376781ef00ca" target="_top" xlink:title="FACE. ">
<polygon fill="white" stroke="black" points="191,-76.5 191,-95.5 259,-95.5 259,-76.5 191,-76.5"/>
<text text-anchor="middle" x="225" y="-83.5" font-family="Helvetica,sans-Serif" font-size="10.00">Ra::Core::F</text>
</a>
</g>
</g>
<!-- Node1&#45;&gt;Node2 -->
<g id="edge1" class="edge"><title>Node1&#45;&gt;Node2</title>
<path fill="none" stroke="midnightblue" d="M129.051,-63.0186C146.347,-67.205 164.759,-71.6613 180.72,-75.5245"/>
<polygon fill="midnightblue" stroke="midnightblue" points="180.276,-79.018 190.818,-77.9688 181.922,-72.2145 180.276,-79.018"/>
</g>
<!-- Node4 -->
<g id="node4" class="node"><title>Node4</title>
<g id="a_node4"><a xlink:href="namespaceOpenMesh.html#a8205f789ce08919bc11c58383574596c" target="_top" xlink:title="OpenMesh::norm">
<polygon fill="white" stroke="black" points="179,-38.5 179,-57.5 271,-57.5 271,-38.5 179,-38.5"/>
<text text-anchor="middle" x="225" y="-45.5" font-family="Helvetica,sans-Serif" font-size="10.00">OpenMesh::norm</text>
</a>
</g>
</g>
<!-- Node1&#45;&gt;Node4 -->
<g id="edge3" class="edge"><title>Node1&#45;&gt;Node4</title>
<path fill="none" stroke="midnightblue" d="M131.764,-48C143.916,-48 156.52,-48 168.364,-48"/>
<polygon fill="midnightblue" stroke="midnightblue" points="168.546,-51.5001 178.546,-48 168.546,-44.5001 168.546,-51.5001"/>
</g>
<!-- Node5 -->
<g id="node5" class="node"><title>Node5</title>
<g id="a_node5"><a xlink:href="namespaceRa_1_1Core_1_1Algorithm.html#aea294cdb6f4f0d85955bdcccb22886ec" target="_top" xlink:title="Ra::Core::Algorithm::t">
<polygon fill="white" stroke="black" points="168.5,-0.5 168.5,-19.5 281.5,-19.5 281.5,-0.5 168.5,-0.5"/>
<text text-anchor="middle" x="225" y="-7.5" font-family="Helvetica,sans-Serif" font-size="10.00">Ra::Core::Algorithm::t</text>
</a>
</g>
</g>
<!-- Node1&#45;&gt;Node5 -->
<g id="edge4" class="edge"><title>Node1&#45;&gt;Node5</title>
<path fill="none" stroke="midnightblue" d="M129.051,-32.9814C144.232,-29.3069 160.273,-25.4243 174.762,-21.9174"/>
<polygon fill="midnightblue" stroke="midnightblue" points="175.619,-25.3111 184.515,-19.5568 173.973,-18.5076 175.619,-25.3111"/>
</g>
<!-- Node3 -->
<g id="node3" class="node"><title>Node3</title>
<g id="a_node3"><a xlink:href="namespaceRa_1_1Core.html#a6dd9d23e2286b21c927c0cee124c6c1e" target="_top" xlink:title="HALFEDGE. ">
<polygon fill="white" stroke="black" points="318.5,-76.5 318.5,-95.5 395.5,-95.5 395.5,-76.5 318.5,-76.5"/>
<text text-anchor="middle" x="357" y="-83.5" font-family="Helvetica,sans-Serif" font-size="10.00">Ra::Core::HE</text>
</a>
</g>
</g>
<!-- Node2&#45;&gt;Node3 -->
<g id="edge2" class="edge"><title>Node2&#45;&gt;Node3</title>
<path fill="none" stroke="midnightblue" d="M259.141,-86C273.951,-86 291.693,-86 307.922,-86"/>
<polygon fill="midnightblue" stroke="midnightblue" points="308.322,-89.5001 318.322,-86 308.322,-82.5001 308.322,-89.5001"/>
</g>
</g>
</svg>
