<?xml version="1.0" encoding="UTF-8" standalone="no"?>
<!DOCTYPE svg PUBLIC "-//W3C//DTD SVG 1.1//EN"
 "http://www.w3.org/Graphics/SVG/1.1/DTD/svg11.dtd">
<!-- Generated by graphviz version 2.36.0 (20140111.2315)
 -->
<!-- Title: QFrame Pages: 1 -->
<svg width="517pt" height="204pt"
 viewBox="0.00 0.00 517.00 204.00" xmlns="http://www.w3.org/2000/svg" xmlns:xlink="http://www.w3.org/1999/xlink">
<g id="graph0" class="graph" transform="scale(1 1) rotate(0) translate(4 200)">
<title>QFrame</title>
<polygon fill="white" stroke="none" points="-4,4 -4,-200 513,-200 513,4 -4,4"/>
<!-- Node1 -->
<g id="node1" class="node"><title>Node1</title>
<polygon fill="#bfbfbf" stroke="black" points="224,-138.5 224,-195.5 276,-195.5 276,-138.5 224,-138.5"/>
<text text-anchor="middle" x="250" y="-183.5" font-family="Helvetica,sans-Serif" font-size="10.00">QFrame</text>
<polyline fill="none" stroke="black" points="224,-176.5 276,-176.5 "/>
<text text-anchor="middle" x="250" y="-164.5" font-family="Helvetica,sans-Serif" font-size="10.00"> </text>
<polyline fill="none" stroke="black" points="224,-157.5 276,-157.5 "/>
<text text-anchor="middle" x="250" y="-145.5" font-family="Helvetica,sans-Serif" font-size="10.00"> </text>
</g>
<!-- Node2 -->
<g id="node2" class="node"><title>Node2</title>
<g id="a_node2"><a xlink:href="classAnimationUI.html" target="_top" xlink:title="{AnimationUI\n||+ AnimationUI()\l+ ~AnimationUI()\l}">
<polygon fill="white" stroke="black" points="0,-17 0,-85 92,-85 92,-17 0,-17"/>
<text text-anchor="middle" x="46" y="-73" font-family="Helvetica,sans-Serif" font-size="10.00">AnimationUI</text>
<polyline fill="none" stroke="black" points="0,-66 92,-66 "/>
<text text-anchor="middle" x="46" y="-54" font-family="Helvetica,sans-Serif" font-size="10.00"> </text>
<polyline fill="none" stroke="black" points="0,-47 92,-47 "/>
<text text-anchor="start" x="8" y="-35" font-family="Helvetica,sans-Serif" font-size="10.00">+ AnimationUI()</text>
<text text-anchor="start" x="8" y="-24" font-family="Helvetica,sans-Serif" font-size="10.00">+ ~AnimationUI()</text>
</a>
</g>
</g>
<!-- Node1&#45;&gt;Node2 -->
<g id="edge1" class="edge"><title>Node1&#45;&gt;Node2</title>
<path fill="none" stroke="midnightblue" d="M214.331,-154.467C183.067,-143.496 137.104,-125.231 101,-102 93.4035,-97.112 85.8491,-91.1588 78.8818,-85.0883"/>
<polygon fill="none" stroke="midnightblue" points="213.339,-157.827 223.934,-157.77 215.616,-151.207 213.339,-157.827"/>
</g>
<!-- Node3 -->
<g id="node3" class="node"><title>Node3</title>
<g id="a_node3"><a xlink:href="classMeshFeatureTrackingUI.html" target="_top" xlink:title="{MeshFeatureTrackingUI\n||+ MeshFeatureTrackingUI()\l+ ~MeshFeatureTrackingUI()\l+ updateTracking()\l+ setMaxV()\l+ setMaxT()\l}">
<polygon fill="white" stroke="black" points="110.5,-0.5 110.5,-101.5 253.5,-101.5 253.5,-0.5 110.5,-0.5"/>
<text text-anchor="middle" x="182" y="-89.5" font-family="Helvetica,sans-Serif" font-size="10.00">MeshFeatureTrackingUI</text>
<polyline fill="none" stroke="black" points="110.5,-82.5 253.5,-82.5 "/>
<text text-anchor="middle" x="182" y="-70.5" font-family="Helvetica,sans-Serif" font-size="10.00"> </text>
<polyline fill="none" stroke="black" points="110.5,-63.5 253.5,-63.5 "/>
<text text-anchor="start" x="118.5" y="-51.5" font-family="Helvetica,sans-Serif" font-size="10.00">+ MeshFeatureTrackingUI()</text>
<text text-anchor="start" x="118.5" y="-40.5" font-family="Helvetica,sans-Serif" font-size="10.00">+ ~MeshFeatureTrackingUI()</text>
<text text-anchor="start" x="118.5" y="-29.5" font-family="Helvetica,sans-Serif" font-size="10.00">+ updateTracking()</text>
<text text-anchor="start" x="118.5" y="-18.5" font-family="Helvetica,sans-Serif" font-size="10.00">+ setMaxV()</text>
<text text-anchor="start" x="118.5" y="-7.5" font-family="Helvetica,sans-Serif" font-size="10.00">+ setMaxT()</text>
</a>
</g>
</g>
<!-- Node1&#45;&gt;Node3 -->
<g id="edge2" class="edge"><title>Node1&#45;&gt;Node3</title>
<path fill="none" stroke="midnightblue" d="M228.382,-129.758C223.044,-120.81 217.235,-111.071 211.591,-101.608"/>
<polygon fill="none" stroke="midnightblue" points="225.41,-131.609 233.539,-138.404 231.422,-128.023 225.41,-131.609"/>
</g>
<!-- Node4 -->
<g id="node4" class="node"><title>Node4</title>
<g id="a_node4"><a xlink:href="classMeshPaintUI.html" target="_top" xlink:title="{MeshPaintUI\n||+ MeshPaintUI()\l+ ~MeshPaintUI()\l}">
<polygon fill="white" stroke="black" points="271.5,-17 271.5,-85 366.5,-85 366.5,-17 271.5,-17"/>
<text text-anchor="middle" x="319" y="-73" font-family="Helvetica,sans-Serif" font-size="10.00">MeshPaintUI</text>
<polyline fill="none" stroke="black" points="271.5,-66 366.5,-66 "/>
<text text-anchor="middle" x="319" y="-54" font-family="Helvetica,sans-Serif" font-size="10.00"> </text>
<polyline fill="none" stroke="black" points="271.5,-47 366.5,-47 "/>
<text text-anchor="start" x="279.5" y="-35" font-family="Helvetica,sans-Serif" font-size="10.00">+ MeshPaintUI()</text>
<text text-anchor="start" x="279.5" y="-24" font-family="Helvetica,sans-Serif" font-size="10.00">+ ~MeshPaintUI()</text>
</a>
</g>
</g>
<!-- Node1&#45;&gt;Node4 -->
<g id="edge3" class="edge"><title>Node1&#45;&gt;Node4</title>
<path fill="none" stroke="midnightblue" d="M271.928,-129.772C280.613,-115.423 290.529,-99.0389 299.013,-85.0214"/>
<polygon fill="none" stroke="midnightblue" points="268.887,-128.036 266.703,-138.404 274.875,-131.661 268.887,-128.036"/>
</g>
<!-- Node5 -->
<g id="node5" class="node"><title>Node5</title>
<g id="a_node5"><a xlink:href="classSkinningPlugin_1_1SkinningWidget.html" target="_top" xlink:title="{SkinningPlugin::Skinning\lWidget\n||+ SkinningWidget()\l+ setCurrent()\l}">
<polygon fill="white" stroke="black" points="384.5,-11.5 384.5,-90.5 509.5,-90.5 509.5,-11.5 384.5,-11.5"/>
<text text-anchor="start" x="392.5" y="-78.5" font-family="Helvetica,sans-Serif" font-size="10.00">SkinningPlugin::Skinning</text>
<text text-anchor="middle" x="447" y="-67.5" font-family="Helvetica,sans-Serif" font-size="10.00">Widget</text>
<polyline fill="none" stroke="black" points="384.5,-60.5 509.5,-60.5 "/>
<text text-anchor="middle" x="447" y="-48.5" font-family="Helvetica,sans-Serif" font-size="10.00"> </text>
<polyline fill="none" stroke="black" points="384.5,-41.5 509.5,-41.5 "/>
<text text-anchor="start" x="392.5" y="-29.5" font-family="Helvetica,sans-Serif" font-size="10.00">+ SkinningWidget()</text>
<text text-anchor="start" x="392.5" y="-18.5" font-family="Helvetica,sans-Serif" font-size="10.00">+ setCurrent()</text>
</a>
</g>
</g>
<!-- Node1&#45;&gt;Node5 -->
<g id="edge4" class="edge"><title>Node1&#45;&gt;Node5</title>
<path fill="none" stroke="midnightblue" d="M285.65,-149.325C311.036,-137.072 345.705,-119.564 375,-102 380.874,-98.4785 386.907,-94.65 392.862,-90.7314"/>
<polygon fill="none" stroke="midnightblue" points="283.912,-146.276 276.405,-153.752 286.936,-152.589 283.912,-146.276"/>
</g>
</g>
</svg>
