<?xml version="1.0" encoding="UTF-8" standalone="no"?>
<!DOCTYPE svg PUBLIC "-//W3C//DTD SVG 1.1//EN"
 "http://www.w3.org/Graphics/SVG/1.1/DTD/svg11.dtd">
<!-- Generated by graphviz version 2.36.0 (20140111.2315)
 -->
<!-- Title: Ra::Core::TriangleMesh::append Pages: 1 -->
<svg width="448pt" height="126pt"
 viewBox="0.00 0.00 448.00 126.00" xmlns="http://www.w3.org/2000/svg" xmlns:xlink="http://www.w3.org/1999/xlink">
<g id="graph0" class="graph" transform="scale(1 1) rotate(0) translate(4 122)">
<title>Ra::Core::TriangleMesh::append</title>
<polygon fill="white" stroke="none" points="-4,4 -4,-122 444,-122 444,4 -4,4"/>
<!-- Node1 -->
<g id="node1" class="node"><title>Node1</title>
<polygon fill="#bfbfbf" stroke="black" points="0.5,-39 0.5,-69 121.5,-69 121.5,-39 0.5,-39"/>
<text text-anchor="start" x="8.5" y="-57" font-family="Helvetica,sans-Serif" font-size="10.00">Ra::Core::TriangleMesh</text>
<text text-anchor="middle" x="61" y="-46" font-family="Helvetica,sans-Serif" font-size="10.00">::append</text>
</g>
<!-- Node2 -->
<g id="node2" class="node"><title>Node2</title>
<g id="a_node2"><a xlink:href="classRa_1_1Core_1_1TriangleMesh.html#a495116f40cfec8bb6504698d786d4b8c" target="_top" xlink:title="Ra::Core::TriangleMesh\l::vertices">
<polygon fill="white" stroke="black" points="158.5,-88 158.5,-118 279.5,-118 279.5,-88 158.5,-88"/>
<text text-anchor="start" x="166.5" y="-106" font-family="Helvetica,sans-Serif" font-size="10.00">Ra::Core::TriangleMesh</text>
<text text-anchor="middle" x="219" y="-95" font-family="Helvetica,sans-Serif" font-size="10.00">::vertices</text>
</a>
</g>
</g>
<!-- Node1&#45;&gt;Node2 -->
<g id="edge1" class="edge"><title>Node1&#45;&gt;Node2</title>
<path fill="none" stroke="midnightblue" d="M110.078,-69.1014C126.018,-74.1083 143.924,-79.7324 160.5,-84.939"/>
<polygon fill="midnightblue" stroke="midnightblue" points="159.491,-88.2908 170.081,-87.9484 161.589,-81.6125 159.491,-88.2908"/>
</g>
<!-- Node4 -->
<g id="node4" class="node"><title>Node4</title>
<g id="a_node4"><a xlink:href="classRa_1_1Core_1_1TriangleMesh.html#a40d31b7b2943947d6eac5d906f0182fd" target="_top" xlink:title="Ra::Core::TriangleMesh\l::normals">
<polygon fill="white" stroke="black" points="158.5,-39 158.5,-69 279.5,-69 279.5,-39 158.5,-39"/>
<text text-anchor="start" x="166.5" y="-57" font-family="Helvetica,sans-Serif" font-size="10.00">Ra::Core::TriangleMesh</text>
<text text-anchor="middle" x="219" y="-46" font-family="Helvetica,sans-Serif" font-size="10.00">::normals</text>
</a>
</g>
</g>
<!-- Node1&#45;&gt;Node4 -->
<g id="edge3" class="edge"><title>Node1&#45;&gt;Node4</title>
<path fill="none" stroke="midnightblue" d="M121.868,-54C130.452,-54 139.346,-54 148.103,-54"/>
<polygon fill="midnightblue" stroke="midnightblue" points="148.293,-57.5001 158.293,-54 148.293,-50.5001 148.293,-57.5001"/>
</g>
<!-- Node5 -->
<g id="node5" class="node"><title>Node5</title>
<g id="a_node5"><a xlink:href="namespaceRa_1_1Core_1_1Algorithm.html#aea294cdb6f4f0d85955bdcccb22886ec" target="_top" xlink:title="Ra::Core::Algorithm::t">
<polygon fill="white" stroke="black" points="162.5,-0.5 162.5,-19.5 275.5,-19.5 275.5,-0.5 162.5,-0.5"/>
<text text-anchor="middle" x="219" y="-7.5" font-family="Helvetica,sans-Serif" font-size="10.00">Ra::Core::Algorithm::t</text>
</a>
</g>
</g>
<!-- Node1&#45;&gt;Node5 -->
<g id="edge5" class="edge"><title>Node1&#45;&gt;Node5</title>
<path fill="none" stroke="midnightblue" d="M115.25,-38.9808C134.464,-33.5613 155.914,-27.5114 174.225,-22.3468"/>
<polygon fill="midnightblue" stroke="midnightblue" points="175.366,-25.6615 184.041,-19.5783 173.466,-18.9244 175.366,-25.6615"/>
</g>
<!-- Node3 -->
<g id="node3" class="node"><title>Node3</title>
<g id="a_node3"><a xlink:href="classRa_1_1Core_1_1AttribManager.html#a2344159a1926da905e4c44cd95744d59" target="_top" xlink:title="Get attribute by handle. ">
<polygon fill="white" stroke="black" points="316.5,-63 316.5,-93 439.5,-93 439.5,-63 316.5,-63"/>
<text text-anchor="start" x="324.5" y="-81" font-family="Helvetica,sans-Serif" font-size="10.00">Ra::Core::AttribManager</text>
<text text-anchor="middle" x="378" y="-70" font-family="Helvetica,sans-Serif" font-size="10.00">::getAttrib</text>
</a>
</g>
</g>
<!-- Node2&#45;&gt;Node3 -->
<g id="edge2" class="edge"><title>Node2&#45;&gt;Node3</title>
<path fill="none" stroke="midnightblue" d="M279.803,-93.4773C288.492,-92.0937 297.505,-90.6585 306.382,-89.2449"/>
<polygon fill="midnightblue" stroke="midnightblue" points="306.997,-92.6911 316.323,-87.662 305.897,-85.7782 306.997,-92.6911"/>
</g>
<!-- Node4&#45;&gt;Node3 -->
<g id="edge4" class="edge"><title>Node4&#45;&gt;Node3</title>
<path fill="none" stroke="midnightblue" d="M279.803,-63.1418C288.492,-64.47 297.505,-65.8478 306.382,-67.2049"/>
<polygon fill="midnightblue" stroke="midnightblue" points="305.908,-70.6731 316.323,-68.7245 306.966,-63.7535 305.908,-70.6731"/>
</g>
</g>
</svg>
