<?xml version="1.0" encoding="UTF-8" standalone="no"?>
<!DOCTYPE svg PUBLIC "-//W3C//DTD SVG 1.1//EN"
 "http://www.w3.org/Graphics/SVG/1.1/DTD/svg11.dtd">
<!-- Generated by graphviz version 2.36.0 (20140111.2315)
 -->
<!-- Title: Ra::Asset::FileLoaderInterface Pages: 1 -->
<svg width="286pt" height="260pt"
 viewBox="0.00 0.00 286.00 260.00" xmlns="http://www.w3.org/2000/svg" xmlns:xlink="http://www.w3.org/1999/xlink">
<g id="graph0" class="graph" transform="scale(1 1) rotate(0) translate(4 256)">
<title>Ra::Asset::FileLoaderInterface</title>
<polygon fill="white" stroke="none" points="-4,4 -4,-256 282,-256 282,4 -4,4"/>
<!-- Node1 -->
<g id="node1" class="node"><title>Node1</title>
<polygon fill="#bfbfbf" stroke="black" points="64,-150.5 64,-251.5 214,-251.5 214,-150.5 64,-150.5"/>
<text text-anchor="middle" x="139" y="-239.5" font-family="Helvetica,sans-Serif" font-size="10.00">Ra::Asset::FileLoaderInterface</text>
<polyline fill="none" stroke="black" points="64,-232.5 214,-232.5 "/>
<text text-anchor="middle" x="139" y="-220.5" font-family="Helvetica,sans-Serif" font-size="10.00"> </text>
<polyline fill="none" stroke="black" points="64,-213.5 214,-213.5 "/>
<text text-anchor="start" x="72" y="-201.5" font-family="Helvetica,sans-Serif" font-size="10.00">+ ~FileLoaderInterface()</text>
<text text-anchor="start" x="72" y="-190.5" font-family="Helvetica,sans-Serif" font-size="10.00">+ getFileExtensions()</text>
<text text-anchor="start" x="72" y="-179.5" font-family="Helvetica,sans-Serif" font-size="10.00">+ handleFileExtension()</text>
<text text-anchor="start" x="72" y="-168.5" font-family="Helvetica,sans-Serif" font-size="10.00">+ loadFile()</text>
<text text-anchor="start" x="72" y="-157.5" font-family="Helvetica,sans-Serif" font-size="10.00">+ name()</text>
</g>
<!-- Node2 -->
<g id="node2" class="node"><title>Node2</title>
<g id="a_node2"><a xlink:href="classRa_1_1IO_1_1AssimpFileLoader.html" target="_top" xlink:title="This class loads scenes containing MESHES only (not point&#45;clouds) ">
<polygon fill="white" stroke="black" points="0,-1 0,-113 130,-113 130,-1 0,-1"/>
<text text-anchor="middle" x="65" y="-101" font-family="Helvetica,sans-Serif" font-size="10.00">Ra::IO::AssimpFileLoader</text>
<polyline fill="none" stroke="black" points="0,-94 130,-94 "/>
<text text-anchor="middle" x="65" y="-82" font-family="Helvetica,sans-Serif" font-size="10.00"> </text>
<polyline fill="none" stroke="black" points="0,-75 130,-75 "/>
<text text-anchor="start" x="8" y="-63" font-family="Helvetica,sans-Serif" font-size="10.00">+ AssimpFileLoader()</text>
<text text-anchor="start" x="8" y="-52" font-family="Helvetica,sans-Serif" font-size="10.00">+ ~AssimpFileLoader()</text>
<text text-anchor="start" x="8" y="-41" font-family="Helvetica,sans-Serif" font-size="10.00">+ getFileExtensions()</text>
<text text-anchor="start" x="8" y="-30" font-family="Helvetica,sans-Serif" font-size="10.00">+ handleFileExtension()</text>
<text text-anchor="start" x="8" y="-19" font-family="Helvetica,sans-Serif" font-size="10.00">+ loadFile()</text>
<text text-anchor="start" x="8" y="-8" font-family="Helvetica,sans-Serif" font-size="10.00">+ name()</text>
</a>
</g>
</g>
<!-- Node1&#45;&gt;Node2 -->
<g id="edge1" class="edge"><title>Node1&#45;&gt;Node2</title>
<path fill="none" stroke="midnightblue" d="M108.355,-141.194C103.529,-131.933 98.5541,-122.388 93.7725,-113.212"/>
<polygon fill="none" stroke="midnightblue" points="105.393,-143.085 113.118,-150.335 111.601,-139.85 105.393,-143.085"/>
</g>
<!-- Node3 -->
<g id="node3" class="node"><title>Node3</title>
<g id="a_node3"><a xlink:href="classRa_1_1IO_1_1TinyPlyFileLoader.html" target="_top" xlink:title="{Ra::IO::TinyPlyFileLoader\n||+ TinyPlyFileLoader()\l+ ~TinyPlyFileLoader()\l+ getFileExtensions()\l+ handleFileExtension()\l+ loadFile()\l+ name()\l}">
<polygon fill="white" stroke="black" points="148,-1 148,-113 278,-113 278,-1 148,-1"/>
<text text-anchor="middle" x="213" y="-101" font-family="Helvetica,sans-Serif" font-size="10.00">Ra::IO::TinyPlyFileLoader</text>
<polyline fill="none" stroke="black" points="148,-94 278,-94 "/>
<text text-anchor="middle" x="213" y="-82" font-family="Helvetica,sans-Serif" font-size="10.00"> </text>
<polyline fill="none" stroke="black" points="148,-75 278,-75 "/>
<text text-anchor="start" x="156" y="-63" font-family="Helvetica,sans-Serif" font-size="10.00">+ TinyPlyFileLoader()</text>
<text text-anchor="start" x="156" y="-52" font-family="Helvetica,sans-Serif" font-size="10.00">+ ~TinyPlyFileLoader()</text>
<text text-anchor="start" x="156" y="-41" font-family="Helvetica,sans-Serif" font-size="10.00">+ getFileExtensions()</text>
<text text-anchor="start" x="156" y="-30" font-family="Helvetica,sans-Serif" font-size="10.00">+ handleFileExtension()</text>
<text text-anchor="start" x="156" y="-19" font-family="Helvetica,sans-Serif" font-size="10.00">+ loadFile()</text>
<text text-anchor="start" x="156" y="-8" font-family="Helvetica,sans-Serif" font-size="10.00">+ name()</text>
</a>
</g>
</g>
<!-- Node1&#45;&gt;Node3 -->
<g id="edge2" class="edge"><title>Node1&#45;&gt;Node3</title>
<path fill="none" stroke="midnightblue" d="M169.645,-141.194C174.471,-131.933 179.446,-122.388 184.227,-113.212"/>
<polygon fill="none" stroke="midnightblue" points="166.399,-139.85 164.882,-150.335 172.607,-143.085 166.399,-139.85"/>
</g>
</g>
</svg>
