<?xml version="1.0" encoding="UTF-8" standalone="no"?>
<!DOCTYPE svg PUBLIC "-//W3C//DTD SVG 1.1//EN"
 "http://www.w3.org/Graphics/SVG/1.1/DTD/svg11.dtd">
<!-- Generated by graphviz version 2.36.0 (20140111.2315)
 -->
<!-- Title: Ra::GuiBase::BaseApplication::BaseApplication Pages: 1 -->
<svg width="974pt" height="953pt"
 viewBox="0.00 0.00 974.00 953.00" xmlns="http://www.w3.org/2000/svg" xmlns:xlink="http://www.w3.org/1999/xlink">
<g id="graph0" class="graph" transform="scale(1 1) rotate(0) translate(4 949)">
<title>Ra::GuiBase::BaseApplication::BaseApplication</title>
<polygon fill="white" stroke="none" points="-4,4 -4,-949 970,-949 970,4 -4,4"/>
<!-- Node1 -->
<g id="node1" class="node"><title>Node1</title>
<polygon fill="#bfbfbf" stroke="black" points="0.5,-697 0.5,-727 149.5,-727 149.5,-697 0.5,-697"/>
<text text-anchor="start" x="8.5" y="-715" font-family="Helvetica,sans-Serif" font-size="10.00">Ra::GuiBase::BaseApplication</text>
<text text-anchor="middle" x="75" y="-704" font-family="Helvetica,sans-Serif" font-size="10.00">::BaseApplication</text>
</g>
<!-- Node2 -->
<g id="node2" class="node"><title>Node2</title>
<g id="a_node2"><a xlink:href="namespaceRa_1_1Core_1_1StringUtils.html#a63b10a7c14473b4aa762cf00e0432690" target="_top" xlink:title="Ra::Core::StringUtils\l::stringPrintf">
<polygon fill="white" stroke="black" points="222,-890 222,-920 330,-920 330,-890 222,-890"/>
<text text-anchor="start" x="230" y="-908" font-family="Helvetica,sans-Serif" font-size="10.00">Ra::Core::StringUtils</text>
<text text-anchor="middle" x="276" y="-897" font-family="Helvetica,sans-Serif" font-size="10.00">::stringPrintf</text>
</a>
</g>
</g>
<!-- Node1&#45;&gt;Node2 -->
<g id="edge1" class="edge"><title>Node1&#45;&gt;Node2</title>
<path fill="none" stroke="midnightblue" d="M84.6051,-727.11C101.239,-755.294 140.227,-816.588 186,-856 199.283,-867.437 215.664,-877.378 230.737,-885.262"/>
<polygon fill="midnightblue" stroke="midnightblue" points="229.41,-888.513 239.914,-889.899 232.568,-882.265 229.41,-888.513"/>
</g>
<!-- Node5 -->
<g id="node5" class="node"><title>Node5</title>
<g id="a_node5"><a xlink:href="classRa_1_1GuiBase_1_1BaseApplication.html#a2578ea774df33aa24f0bf0ce684be0ed" target="_top" xlink:title="Ra::GuiBase::BaseApplication\l::addBasicShaders">
<polygon fill="white" stroke="black" points="201.5,-817 201.5,-847 350.5,-847 350.5,-817 201.5,-817"/>
<text text-anchor="start" x="209.5" y="-835" font-family="Helvetica,sans-Serif" font-size="10.00">Ra::GuiBase::BaseApplication</text>
<text text-anchor="middle" x="276" y="-824" font-family="Helvetica,sans-Serif" font-size="10.00">::addBasicShaders</text>
</a>
</g>
</g>
<!-- Node1&#45;&gt;Node5 -->
<g id="edge4" class="edge"><title>Node1&#45;&gt;Node5</title>
<path fill="none" stroke="midnightblue" d="M90.7211,-727.049C110.688,-746.713 148.218,-781.093 186,-802 193.671,-806.245 202.045,-810.03 210.489,-813.361"/>
<polygon fill="midnightblue" stroke="midnightblue" points="209.426,-816.7 220.019,-816.929 211.881,-810.145 209.426,-816.7"/>
</g>
<!-- Node8 -->
<g id="node8" class="node"><title>Node8</title>
<g id="a_node8"><a xlink:href="classRa_1_1GuiBase_1_1BaseApplication_1_1WindowFactory.html#a696337774144e7c72871cda5f297eed3" target="_top" xlink:title="Ra::GuiBase::BaseApplication\l::WindowFactory::createMainWindow">
<polygon fill="white" stroke="black" points="186,-763 186,-793 366,-793 366,-763 186,-763"/>
<text text-anchor="start" x="194" y="-781" font-family="Helvetica,sans-Serif" font-size="10.00">Ra::GuiBase::BaseApplication</text>
<text text-anchor="middle" x="276" y="-770" font-family="Helvetica,sans-Serif" font-size="10.00">::WindowFactory::createMainWindow</text>
</a>
</g>
</g>
<!-- Node1&#45;&gt;Node8 -->
<g id="edge7" class="edge"><title>Node1&#45;&gt;Node8</title>
<path fill="none" stroke="midnightblue" d="M113.907,-727.014C134.986,-735.139 161.78,-745.1 186,-753 193.403,-755.415 201.196,-757.812 208.966,-760.112"/>
<polygon fill="midnightblue" stroke="midnightblue" points="208.185,-763.53 218.764,-762.967 210.143,-756.809 208.185,-763.53"/>
</g>
<!-- Node9 -->
<g id="node9" class="node"><title>Node9</title>
<g id="a_node9"><a xlink:href="classRa_1_1Gui_1_1Viewer.html#a6a060005e30fb85c91a93f25528e19eb" target="_top" xlink:title="Ra::Gui::Viewer::getContext">
<polygon fill="white" stroke="black" points="206,-724.5 206,-743.5 346,-743.5 346,-724.5 206,-724.5"/>
<text text-anchor="middle" x="276" y="-731.5" font-family="Helvetica,sans-Serif" font-size="10.00">Ra::Gui::Viewer::getContext</text>
</a>
</g>
</g>
<!-- Node1&#45;&gt;Node9 -->
<g id="edge8" class="edge"><title>Node1&#45;&gt;Node9</title>
<path fill="none" stroke="midnightblue" d="M149.535,-720.129C164.468,-721.78 180.24,-723.524 195.373,-725.197"/>
<polygon fill="midnightblue" stroke="midnightblue" points="195.405,-728.722 205.729,-726.342 196.174,-721.764 195.405,-728.722"/>
</g>
<!-- Node10 -->
<g id="node10" class="node"><title>Node10</title>
<g id="a_node10"><a xlink:href="classRa_1_1GuiBase_1_1BaseApplication.html#a0a57ff7454c9c6b5a116844438f6d55e" target="_top" xlink:title="Create signal / slots connections. ">
<polygon fill="white" stroke="black" points="201.5,-675 201.5,-705 350.5,-705 350.5,-675 201.5,-675"/>
<text text-anchor="start" x="209.5" y="-693" font-family="Helvetica,sans-Serif" font-size="10.00">Ra::GuiBase::BaseApplication</text>
<text text-anchor="middle" x="276" y="-682" font-family="Helvetica,sans-Serif" font-size="10.00">::createConnections</text>
</a>
</g>
</g>
<!-- Node1&#45;&gt;Node10 -->
<g id="edge9" class="edge"><title>Node1&#45;&gt;Node10</title>
<path fill="none" stroke="midnightblue" d="M149.535,-703.871C163.166,-702.364 177.497,-700.779 191.402,-699.242"/>
<polygon fill="midnightblue" stroke="midnightblue" points="191.881,-702.711 201.435,-698.133 191.111,-695.753 191.881,-702.711"/>
</g>
<!-- Node16 -->
<g id="node16" class="node"><title>Node16</title>
<g id="a_node16"><a xlink:href="classRa_1_1GuiBase_1_1BaseApplication.html#a6e2e0e0982bf3edeee66fd79ce5a76ae" target="_top" xlink:title="Ra::GuiBase::BaseApplication\l::loadPlugins">
<polygon fill="white" stroke="black" points="407.5,-604 407.5,-634 556.5,-634 556.5,-604 407.5,-604"/>
<text text-anchor="start" x="415.5" y="-622" font-family="Helvetica,sans-Serif" font-size="10.00">Ra::GuiBase::BaseApplication</text>
<text text-anchor="middle" x="482" y="-611" font-family="Helvetica,sans-Serif" font-size="10.00">::loadPlugins</text>
</a>
</g>
</g>
<!-- Node1&#45;&gt;Node16 -->
<g id="edge15" class="edge"><title>Node1&#45;&gt;Node16</title>
<path fill="none" stroke="midnightblue" d="M106.585,-696.889C128.273,-686.755 158.324,-673.87 186,-666 255.79,-646.155 337.407,-633.963 397.079,-626.987"/>
<polygon fill="midnightblue" stroke="midnightblue" points="397.671,-630.442 407.208,-625.828 396.875,-623.488 397.671,-630.442"/>
</g>
<!-- Node27 -->
<g id="node27" class="node"><title>Node27</title>
<g id="a_node27"><a xlink:href="classRa_1_1GuiBase_1_1BaseApplication.html#a2910421794de7e097bb41b17643e1d34" target="_top" xlink:title="Ra::GuiBase::BaseApplication\l::setupScene">
<polygon fill="white" stroke="black" points="201.5,-289 201.5,-319 350.5,-319 350.5,-289 201.5,-289"/>
<text text-anchor="start" x="209.5" y="-307" font-family="Helvetica,sans-Serif" font-size="10.00">Ra::GuiBase::BaseApplication</text>
<text text-anchor="middle" x="276" y="-296" font-family="Helvetica,sans-Serif" font-size="10.00">::setupScene</text>
</a>
</g>
</g>
<!-- Node1&#45;&gt;Node27 -->
<g id="edge29" class="edge"><title>Node1&#45;&gt;Node27</title>
<path fill="none" stroke="midnightblue" d="M83.3185,-696.995C113.182,-635.768 225.986,-404.491 263.089,-328.42"/>
<polygon fill="midnightblue" stroke="midnightblue" points="266.377,-329.663 267.615,-319.141 260.085,-326.595 266.377,-329.663"/>
</g>
<!-- Node40 -->
<g id="node40" class="node"><title>Node40</title>
<g id="a_node40"><a xlink:href="classRa_1_1GuiBase_1_1BaseApplication.html#a75ee465cd28befc501da69d40daffd90" target="_top" xlink:title="Ra::GuiBase::BaseApplication\l::loadFile">
<polygon fill="white" stroke="black" points="201.5,-240 201.5,-270 350.5,-270 350.5,-240 201.5,-240"/>
<text text-anchor="start" x="209.5" y="-258" font-family="Helvetica,sans-Serif" font-size="10.00">Ra::GuiBase::BaseApplication</text>
<text text-anchor="middle" x="276" y="-247" font-family="Helvetica,sans-Serif" font-size="10.00">::loadFile</text>
</a>
</g>
</g>
<!-- Node1&#45;&gt;Node40 -->
<g id="edge42" class="edge"><title>Node1&#45;&gt;Node40</title>
<path fill="none" stroke="midnightblue" d="M77.8108,-696.762C86.3658,-627.258 124.889,-341.011 186,-279 188.106,-276.863 190.381,-274.91 192.789,-273.126"/>
<polygon fill="midnightblue" stroke="midnightblue" points="194.834,-275.974 201.436,-267.688 191.108,-270.049 194.834,-275.974"/>
</g>
<!-- Node3 -->
<g id="node3" class="node"><title>Node3</title>
<g id="a_node3"><a xlink:href="namespaceRa_1_1Core_1_1StringUtils.html#ac348328b878bb8f1b1c1a3335ea20c4b" target="_top" xlink:title="Ra::Core::StringUtils\l::stringvPrintf">
<polygon fill="white" stroke="black" points="428,-915 428,-945 536,-945 536,-915 428,-915"/>
<text text-anchor="start" x="436" y="-933" font-family="Helvetica,sans-Serif" font-size="10.00">Ra::Core::StringUtils</text>
<text text-anchor="middle" x="482" y="-922" font-family="Helvetica,sans-Serif" font-size="10.00">::stringvPrintf</text>
</a>
</g>
</g>
<!-- Node2&#45;&gt;Node3 -->
<g id="edge2" class="edge"><title>Node2&#45;&gt;Node3</title>
<path fill="none" stroke="midnightblue" d="M330.066,-911.503C356.878,-914.789 389.601,-918.799 417.715,-922.245"/>
<polygon fill="midnightblue" stroke="midnightblue" points="417.494,-925.744 427.846,-923.486 418.346,-918.795 417.494,-925.744"/>
</g>
<!-- Node4 -->
<g id="node4" class="node"><title>Node4</title>
<g id="a_node4"><a xlink:href="namespaceRa_1_1Core.html#abc0a3625137098b67838fe52edd480f9" target="_top" xlink:title="SIZE. ">
<polygon fill="white" stroke="black" points="644,-920.5 644,-939.5 724,-939.5 724,-920.5 644,-920.5"/>
<text text-anchor="middle" x="684" y="-927.5" font-family="Helvetica,sans-Serif" font-size="10.00">Ra::Core::size</text>
</a>
</g>
</g>
<!-- Node3&#45;&gt;Node4 -->
<g id="edge3" class="edge"><title>Node3&#45;&gt;Node4</title>
<path fill="none" stroke="midnightblue" d="M536.071,-930C566.402,-930 604.183,-930 633.837,-930"/>
<polygon fill="midnightblue" stroke="midnightblue" points="633.962,-933.5 643.962,-930 633.962,-926.5 633.962,-933.5"/>
</g>
<!-- Node6 -->
<g id="node6" class="node"><title>Node6</title>
<g id="a_node6"><a xlink:href="classRa_1_1Engine_1_1ShaderConfiguration.html#a8ffa1714a9e63a320acaa7873fb99797" target="_top" xlink:title="Ra::Engine::ShaderConfiguration\l::addShader">
<polygon fill="white" stroke="black" points="402,-817 402,-847 562,-847 562,-817 402,-817"/>
<text text-anchor="start" x="410" y="-835" font-family="Helvetica,sans-Serif" font-size="10.00">Ra::Engine::ShaderConfiguration</text>
<text text-anchor="middle" x="482" y="-824" font-family="Helvetica,sans-Serif" font-size="10.00">::addShader</text>
</a>
</g>
</g>
<!-- Node5&#45;&gt;Node6 -->
<g id="edge5" class="edge"><title>Node5&#45;&gt;Node6</title>
<path fill="none" stroke="midnightblue" d="M350.649,-832C363.927,-832 377.901,-832 391.57,-832"/>
<polygon fill="midnightblue" stroke="midnightblue" points="391.946,-835.5 401.946,-832 391.946,-828.5 391.946,-835.5"/>
</g>
<!-- Node7 -->
<g id="node7" class="node"><title>Node7</title>
<g id="a_node7"><a xlink:href="namespaceRa_1_1Engine_1_1ShaderConfigurationFactory.html#a36842535508a390108fb1205210a5c49" target="_top" xlink:title="Ra::Engine::ShaderConfiguration\lFactory::addConfiguration">
<polygon fill="white" stroke="black" points="402,-866 402,-896 562,-896 562,-866 402,-866"/>
<text text-anchor="start" x="410" y="-884" font-family="Helvetica,sans-Serif" font-size="10.00">Ra::Engine::ShaderConfiguration</text>
<text text-anchor="middle" x="482" y="-873" font-family="Helvetica,sans-Serif" font-size="10.00">Factory::addConfiguration</text>
</a>
</g>
</g>
<!-- Node5&#45;&gt;Node7 -->
<g id="edge6" class="edge"><title>Node5&#45;&gt;Node7</title>
<path fill="none" stroke="midnightblue" d="M339.593,-847.035C361.426,-852.279 386.106,-858.207 408.666,-863.626"/>
<polygon fill="midnightblue" stroke="midnightblue" points="407.984,-867.061 418.525,-865.994 409.619,-860.255 407.984,-867.061"/>
</g>
<!-- Node11 -->
<g id="node11" class="node"><title>Node11</title>
<g id="a_node11"><a xlink:href="classRa_1_1GuiBase_1_1BaseApplication.html#aa19a984e0783e70237b8050feb1a3d2a" target="_top" xlink:title="Ra::GuiBase::BaseApplication\l::appNeedsToQuit">
<polygon fill="white" stroke="black" points="407.5,-675 407.5,-705 556.5,-705 556.5,-675 407.5,-675"/>
<text text-anchor="start" x="415.5" y="-693" font-family="Helvetica,sans-Serif" font-size="10.00">Ra::GuiBase::BaseApplication</text>
<text text-anchor="middle" x="482" y="-682" font-family="Helvetica,sans-Serif" font-size="10.00">::appNeedsToQuit</text>
</a>
</g>
</g>
<!-- Node10&#45;&gt;Node11 -->
<g id="edge10" class="edge"><title>Node10&#45;&gt;Node11</title>
<path fill="none" stroke="midnightblue" d="M350.649,-690C365.815,-690 381.89,-690 397.38,-690"/>
<polygon fill="midnightblue" stroke="midnightblue" points="397.459,-693.5 407.459,-690 397.459,-686.5 397.459,-693.5"/>
</g>
<!-- Node12 -->
<g id="node12" class="node"><title>Node12</title>
<g id="a_node12"><a xlink:href="classRa_1_1GuiBase_1_1BaseApplication.html#a525be12318745eae6c4730dd7570c7bf" target="_top" xlink:title="Ra::GuiBase::BaseApplication\l::initializeOpenGlPlugins">
<polygon fill="white" stroke="black" points="407.5,-768 407.5,-798 556.5,-798 556.5,-768 407.5,-768"/>
<text text-anchor="start" x="415.5" y="-786" font-family="Helvetica,sans-Serif" font-size="10.00">Ra::GuiBase::BaseApplication</text>
<text text-anchor="middle" x="482" y="-775" font-family="Helvetica,sans-Serif" font-size="10.00">::initializeOpenGlPlugins</text>
</a>
</g>
</g>
<!-- Node10&#45;&gt;Node12 -->
<g id="edge11" class="edge"><title>Node10&#45;&gt;Node12</title>
<path fill="none" stroke="midnightblue" d="M338.529,-705.017C347.872,-707.944 357.293,-711.278 366,-715 396.314,-727.957 428.416,-747.488 450.976,-762.298"/>
<polygon fill="midnightblue" stroke="midnightblue" points="449.165,-765.297 459.43,-767.921 453.041,-759.468 449.165,-765.297"/>
</g>
<!-- Node13 -->
<g id="node13" class="node"><title>Node13</title>
<g id="a_node13"><a xlink:href="classRa_1_1Gui_1_1Viewer.html#a17094c0201376a4beedb86fa39cf3fa2" target="_top" xlink:title="Access to the feature picking manager. ">
<polygon fill="white" stroke="black" points="615,-861 615,-891 753,-891 753,-861 615,-861"/>
<text text-anchor="start" x="623" y="-879" font-family="Helvetica,sans-Serif" font-size="10.00">Ra::Gui::Viewer::getPicking</text>
<text text-anchor="middle" x="684" y="-868" font-family="Helvetica,sans-Serif" font-size="10.00">Manager</text>
</a>
</g>
</g>
<!-- Node12&#45;&gt;Node13 -->
<g id="edge12" class="edge"><title>Node12&#45;&gt;Node13</title>
<path fill="none" stroke="midnightblue" d="M543.347,-798.083C549.9,-800.877 556.263,-804.158 562,-808 582.709,-821.87 577.15,-837.343 598,-851 601.144,-853.06 604.463,-854.954 607.894,-856.696"/>
<polygon fill="midnightblue" stroke="midnightblue" points="606.647,-859.974 617.196,-860.958 609.563,-853.61 606.647,-859.974"/>
</g>
<!-- Node14 -->
<g id="node14" class="node"><title>Node14</title>
<g id="a_node14"><a xlink:href="classRa_1_1Gui_1_1Viewer.html#a19d9e6da9d196e77f7d4bf8fee5ad227" target="_top" xlink:title="Ra::Gui::Viewer::makeCurrent">
<polygon fill="white" stroke="black" points="609.5,-822.5 609.5,-841.5 758.5,-841.5 758.5,-822.5 609.5,-822.5"/>
<text text-anchor="middle" x="684" y="-829.5" font-family="Helvetica,sans-Serif" font-size="10.00">Ra::Gui::Viewer::makeCurrent</text>
</a>
</g>
</g>
<!-- Node12&#45;&gt;Node14 -->
<g id="edge13" class="edge"><title>Node12&#45;&gt;Node14</title>
<path fill="none" stroke="midnightblue" d="M539.053,-798.045C557.763,-802.955 578.748,-808.339 598,-813 607.92,-815.402 618.518,-817.858 628.747,-820.173"/>
<polygon fill="midnightblue" stroke="midnightblue" points="628.291,-823.657 638.815,-822.433 629.825,-816.828 628.291,-823.657"/>
</g>
<!-- Node15 -->
<g id="node15" class="node"><title>Node15</title>
<g id="a_node15"><a xlink:href="classRa_1_1Gui_1_1Viewer.html#aaf6cf957403cdcbfa8f4dfd0c25c8e74" target="_top" xlink:title="Ra::Gui::Viewer::doneCurrent">
<polygon fill="white" stroke="black" points="611,-784.5 611,-803.5 757,-803.5 757,-784.5 611,-784.5"/>
<text text-anchor="middle" x="684" y="-791.5" font-family="Helvetica,sans-Serif" font-size="10.00">Ra::Gui::Viewer::doneCurrent</text>
</a>
</g>
</g>
<!-- Node12&#45;&gt;Node15 -->
<g id="edge14" class="edge"><title>Node12&#45;&gt;Node15</title>
<path fill="none" stroke="midnightblue" d="M556.621,-787.049C571.009,-787.841 586.183,-788.675 600.829,-789.481"/>
<polygon fill="midnightblue" stroke="midnightblue" points="600.692,-792.978 610.869,-790.033 601.076,-785.989 600.692,-792.978"/>
</g>
<!-- Node16&#45;&gt;Node13 -->
<g id="edge16" class="edge"><title>Node16&#45;&gt;Node13</title>
<path fill="none" stroke="midnightblue" d="M522.147,-634.038C536.76,-641.532 552.174,-652.034 562,-666 610.202,-734.506 541.613,-789.056 598,-851 600.456,-853.698 603.186,-856.111 606.12,-858.268"/>
<polygon fill="midnightblue" stroke="midnightblue" points="604.52,-861.394 614.862,-863.695 608.212,-855.447 604.52,-861.394"/>
</g>
<!-- Node16&#45;&gt;Node14 -->
<g id="edge26" class="edge"><title>Node16&#45;&gt;Node14</title>
<path fill="none" stroke="midnightblue" d="M521.401,-634.072C536.084,-641.616 551.746,-652.146 562,-666 602.015,-720.067 549.958,-765.921 598,-813 599.458,-814.429 600.999,-815.76 602.609,-816.999"/>
<polygon fill="midnightblue" stroke="midnightblue" points="600.87,-820.041 611.184,-822.463 604.631,-814.138 600.87,-820.041"/>
</g>
<!-- Node16&#45;&gt;Node15 -->
<g id="edge28" class="edge"><title>Node16&#45;&gt;Node15</title>
<path fill="none" stroke="midnightblue" d="M520.034,-634.083C534.856,-641.727 550.99,-652.327 562,-666 593.733,-705.408 560.638,-739.881 598,-774 600.204,-776.013 602.572,-777.834 605.065,-779.482"/>
<polygon fill="midnightblue" stroke="midnightblue" points="603.53,-782.633 613.969,-784.439 606.935,-776.517 603.53,-782.633"/>
</g>
<!-- Node17 -->
<g id="node17" class="node"><title>Node17</title>
<g id="a_node17"><a xlink:href="namespaceRa_1_1Core_1_1StringUtils.html#a30480ab8fa5ba3ac2824bf91bcddf7bf" target="_top" xlink:title="Ra::Core::StringUtils\l::getFileExt">
<polygon fill="white" stroke="black" points="630,-735 630,-765 738,-765 738,-735 630,-735"/>
<text text-anchor="start" x="638" y="-753" font-family="Helvetica,sans-Serif" font-size="10.00">Ra::Core::StringUtils</text>
<text text-anchor="middle" x="684" y="-742" font-family="Helvetica,sans-Serif" font-size="10.00">::getFileExt</text>
</a>
</g>
</g>
<!-- Node16&#45;&gt;Node17 -->
<g id="edge17" class="edge"><title>Node16&#45;&gt;Node17</title>
<path fill="none" stroke="midnightblue" d="M516.228,-634.116C531.382,-642.113 548.837,-652.983 562,-666 583.842,-687.599 573.63,-706.3 598,-725 604.666,-730.115 612.358,-734.185 620.333,-737.424"/>
<polygon fill="midnightblue" stroke="midnightblue" points="619.188,-740.732 629.782,-740.857 621.578,-734.153 619.188,-740.732"/>
</g>
<!-- Node18 -->
<g id="node18" class="node"><title>Node18</title>
<g id="a_node18"><a xlink:href="namespaceRa_1_1Core_1_1StringUtils.html#a385372757aef49b430a523e860df4def" target="_top" xlink:title="Ra::Core::StringUtils\l::getBaseName">
<polygon fill="white" stroke="black" points="630,-686 630,-716 738,-716 738,-686 630,-686"/>
<text text-anchor="start" x="638" y="-704" font-family="Helvetica,sans-Serif" font-size="10.00">Ra::Core::StringUtils</text>
<text text-anchor="middle" x="684" y="-693" font-family="Helvetica,sans-Serif" font-size="10.00">::getBaseName</text>
</a>
</g>
</g>
<!-- Node16&#45;&gt;Node18 -->
<g id="edge18" class="edge"><title>Node16&#45;&gt;Node18</title>
<path fill="none" stroke="midnightblue" d="M510.273,-634.206C533.197,-646.574 567.082,-663.898 598,-676 605.151,-678.799 612.745,-681.457 620.338,-683.923"/>
<polygon fill="midnightblue" stroke="midnightblue" points="619.331,-687.275 629.921,-686.939 621.433,-680.598 619.331,-687.275"/>
</g>
<!-- Node19 -->
<g id="node19" class="node"><title>Node19</title>
<g id="a_node19"><a xlink:href="classRa_1_1Plugins_1_1RadiumPluginInterface.html#a89c442801ecfa6197ebf76b8b99d4249" target="_top" xlink:title="Pass arguments for plugin initialization. This method is supposed to create the system (&lt;emph&gt;new&lt;/emph&gt; ...">
<polygon fill="white" stroke="black" points="617,-637 617,-667 751,-667 751,-637 617,-637"/>
<text text-anchor="start" x="625" y="-655" font-family="Helvetica,sans-Serif" font-size="10.00">Ra::Plugins::RadiumPlugin</text>
<text text-anchor="middle" x="684" y="-644" font-family="Helvetica,sans-Serif" font-size="10.00">Interface::registerPlugin</text>
</a>
</g>
</g>
<!-- Node16&#45;&gt;Node19 -->
<g id="edge19" class="edge"><title>Node16&#45;&gt;Node19</title>
<path fill="none" stroke="midnightblue" d="M556.621,-631.147C572.946,-633.841 590.283,-636.702 606.712,-639.413"/>
<polygon fill="midnightblue" stroke="midnightblue" points="606.372,-642.904 616.808,-641.078 607.511,-635.997 606.372,-642.904"/>
</g>
<!-- Node20 -->
<g id="node20" class="node"><title>Node20</title>
<g id="a_node20"><a xlink:href="classRa_1_1Plugins_1_1RadiumPluginInterface.html#ad6ba57281f8237263a2c5e1b718a4689" target="_top" xlink:title="Ra::Plugins::RadiumPlugin\lInterface::doAddRenderer">
<polygon fill="white" stroke="black" points="617,-588 617,-618 751,-618 751,-588 617,-588"/>
<text text-anchor="start" x="625" y="-606" font-family="Helvetica,sans-Serif" font-size="10.00">Ra::Plugins::RadiumPlugin</text>
<text text-anchor="middle" x="684" y="-595" font-family="Helvetica,sans-Serif" font-size="10.00">Interface::doAddRenderer</text>
</a>
</g>
</g>
<!-- Node16&#45;&gt;Node20 -->
<g id="edge20" class="edge"><title>Node16&#45;&gt;Node20</title>
<path fill="none" stroke="midnightblue" d="M556.621,-613.11C572.946,-611.804 590.283,-610.417 606.712,-609.103"/>
<polygon fill="midnightblue" stroke="midnightblue" points="607.119,-612.582 616.808,-608.295 606.561,-605.604 607.119,-612.582"/>
</g>
<!-- Node21 -->
<g id="node21" class="node"><title>Node21</title>
<g id="a_node21"><a xlink:href="classRa_1_1Plugins_1_1RadiumPluginInterface.html#a0abb07f37722a64372c5dce4b411cd7a" target="_top" xlink:title="addRenderers ">
<polygon fill="white" stroke="black" points="617,-539 617,-569 751,-569 751,-539 617,-539"/>
<text text-anchor="start" x="625" y="-557" font-family="Helvetica,sans-Serif" font-size="10.00">Ra::Plugins::RadiumPlugin</text>
<text text-anchor="middle" x="684" y="-546" font-family="Helvetica,sans-Serif" font-size="10.00">Interface::addRenderers</text>
</a>
</g>
</g>
<!-- Node16&#45;&gt;Node21 -->
<g id="edge21" class="edge"><title>Node16&#45;&gt;Node21</title>
<path fill="none" stroke="midnightblue" d="M523.222,-603.911C545.196,-595.858 572.96,-585.989 598,-578 604.38,-575.965 611.057,-573.925 617.743,-571.942"/>
<polygon fill="midnightblue" stroke="midnightblue" points="618.898,-575.251 627.514,-569.085 616.933,-568.533 618.898,-575.251"/>
</g>
<!-- Node22 -->
<g id="node22" class="node"><title>Node22</title>
<g id="a_node22"><a xlink:href="classRa_1_1Plugins_1_1RadiumPluginInterface.html#acc10a0721a8fe34cc7e7735250b495c1" target="_top" xlink:title="Ra::Plugins::RadiumPlugin\lInterface::doAddFileLoader">
<polygon fill="white" stroke="black" points="617,-490 617,-520 751,-520 751,-490 617,-490"/>
<text text-anchor="start" x="625" y="-508" font-family="Helvetica,sans-Serif" font-size="10.00">Ra::Plugins::RadiumPlugin</text>
<text text-anchor="middle" x="684" y="-497" font-family="Helvetica,sans-Serif" font-size="10.00">Interface::doAddFileLoader</text>
</a>
</g>
</g>
<!-- Node16&#45;&gt;Node22 -->
<g id="edge22" class="edge"><title>Node16&#45;&gt;Node22</title>
<path fill="none" stroke="midnightblue" d="M498.371,-603.701C519.224,-583.763 558.436,-549.078 598,-529 601.769,-527.087 605.711,-525.308 609.747,-523.656"/>
<polygon fill="midnightblue" stroke="midnightblue" points="611.188,-526.853 619.292,-520.029 608.701,-520.31 611.188,-526.853"/>
</g>
<!-- Node23 -->
<g id="node23" class="node"><title>Node23</title>
<g id="a_node23"><a xlink:href="classRa_1_1Plugins_1_1RadiumPluginInterface.html#afa17f1d9b08c2303fc36f9b51d5bb6a1" target="_top" xlink:title="Ra::Plugins::RadiumPlugin\lInterface::addFileLoaders">
<polygon fill="white" stroke="black" points="617,-441 617,-471 751,-471 751,-441 617,-441"/>
<text text-anchor="start" x="625" y="-459" font-family="Helvetica,sans-Serif" font-size="10.00">Ra::Plugins::RadiumPlugin</text>
<text text-anchor="middle" x="684" y="-448" font-family="Helvetica,sans-Serif" font-size="10.00">Interface::addFileLoaders</text>
</a>
</g>
</g>
<!-- Node16&#45;&gt;Node23 -->
<g id="edge23" class="edge"><title>Node16&#45;&gt;Node23</title>
<path fill="none" stroke="midnightblue" d="M491.264,-603.884C507.708,-575.244 547.351,-512.995 598,-480 600.981,-478.058 604.12,-476.271 607.364,-474.626"/>
<polygon fill="midnightblue" stroke="midnightblue" points="609.087,-477.688 616.739,-470.36 606.187,-471.316 609.087,-477.688"/>
</g>
<!-- Node24 -->
<g id="node24" class="node"><title>Node24</title>
<g id="a_node24"><a xlink:href="classRa_1_1Plugins_1_1RadiumPluginInterface.html#a6feecf052a9c12e6f85b07e3eaaf0a9a" target="_top" xlink:title="Ra::Plugins::RadiumPlugin\lInterface::doAddROpenGLInitializer">
<polygon fill="white" stroke="black" points="598.5,-392 598.5,-422 769.5,-422 769.5,-392 598.5,-392"/>
<text text-anchor="start" x="606.5" y="-410" font-family="Helvetica,sans-Serif" font-size="10.00">Ra::Plugins::RadiumPlugin</text>
<text text-anchor="middle" x="684" y="-399" font-family="Helvetica,sans-Serif" font-size="10.00">Interface::doAddROpenGLInitializer</text>
</a>
</g>
</g>
<!-- Node16&#45;&gt;Node24 -->
<g id="edge24" class="edge"><title>Node16&#45;&gt;Node24</title>
<path fill="none" stroke="midnightblue" d="M487.878,-603.931C500.234,-568.192 536.25,-477.797 598,-431 599.837,-429.608 601.751,-428.296 603.727,-427.061"/>
<polygon fill="midnightblue" stroke="midnightblue" points="605.656,-429.995 612.741,-422.117 602.29,-423.858 605.656,-429.995"/>
</g>
<!-- Node25 -->
<g id="node25" class="node"><title>Node25</title>
<g id="a_node25"><a xlink:href="classRa_1_1Gui_1_1Viewer.html#a74b52eef775a13bed0ada0c261dcc397" target="_top" xlink:title="Ra::Gui::Viewer::isOpenGl\lInitialized">
<polygon fill="white" stroke="black" points="617.5,-343 617.5,-373 750.5,-373 750.5,-343 617.5,-343"/>
<text text-anchor="start" x="625.5" y="-361" font-family="Helvetica,sans-Serif" font-size="10.00">Ra::Gui::Viewer::isOpenGl</text>
<text text-anchor="middle" x="684" y="-350" font-family="Helvetica,sans-Serif" font-size="10.00">Initialized</text>
</a>
</g>
</g>
<!-- Node16&#45;&gt;Node25 -->
<g id="edge25" class="edge"><title>Node16&#45;&gt;Node25</title>
<path fill="none" stroke="midnightblue" d="M485.857,-603.873C494.586,-561.928 524.891,-443.219 598,-382 601.24,-379.287 604.768,-376.879 608.484,-374.744"/>
<polygon fill="midnightblue" stroke="midnightblue" points="610.087,-377.855 617.45,-370.237 606.943,-371.601 610.087,-377.855"/>
</g>
<!-- Node26 -->
<g id="node26" class="node"><title>Node26</title>
<g id="a_node26"><a xlink:href="classRa_1_1Plugins_1_1RadiumPluginInterface.html#a2519ee59a10501de906398a08a57b6e2" target="_top" xlink:title="openGlInitialize ">
<polygon fill="white" stroke="black" points="617,-294 617,-324 751,-324 751,-294 617,-294"/>
<text text-anchor="start" x="625" y="-312" font-family="Helvetica,sans-Serif" font-size="10.00">Ra::Plugins::RadiumPlugin</text>
<text text-anchor="middle" x="684" y="-301" font-family="Helvetica,sans-Serif" font-size="10.00">Interface::openGlInitialize</text>
</a>
</g>
</g>
<!-- Node16&#45;&gt;Node26 -->
<g id="edge27" class="edge"><title>Node16&#45;&gt;Node26</title>
<path fill="none" stroke="midnightblue" d="M484.466,-603.951C489.9,-556.58 513.197,-409.172 598,-333 600.995,-330.31 604.269,-327.92 607.734,-325.795"/>
<polygon fill="midnightblue" stroke="midnightblue" points="609.495,-328.823 616.689,-321.044 606.215,-322.639 609.495,-328.823"/>
</g>
<!-- Node28 -->
<g id="node28" class="node"><title>Node28</title>
<g id="a_node28"><a xlink:href="namespaceRa_1_1Engine_1_1DrawPrimitives.html#a70881604443264a7fceb751567eaa5b4" target="_top" xlink:title="Ra::Engine::DrawPrimitives\l::Primitive">
<polygon fill="white" stroke="black" points="413,-171 413,-201 551,-201 551,-171 413,-171"/>
<text text-anchor="start" x="421" y="-189" font-family="Helvetica,sans-Serif" font-size="10.00">Ra::Engine::DrawPrimitives</text>
<text text-anchor="middle" x="482" y="-178" font-family="Helvetica,sans-Serif" font-size="10.00">::Primitive</text>
</a>
</g>
</g>
<!-- Node27&#45;&gt;Node28 -->
<g id="edge30" class="edge"><title>Node27&#45;&gt;Node28</title>
<path fill="none" stroke="midnightblue" d="M346.859,-288.917C353.584,-286.143 360.091,-282.867 366,-279 387.142,-265.165 383.006,-251.663 402,-235 414.341,-224.174 429.347,-214.215 442.952,-206.143"/>
<polygon fill="midnightblue" stroke="midnightblue" points="444.739,-209.153 451.648,-201.121 441.238,-203.091 444.739,-209.153"/>
</g>
<!-- Node33 -->
<g id="node33" class="node"><title>Node33</title>
<g id="a_node33"><a xlink:href="classRa_1_1Engine_1_1SystemEntity.html#a2b341d35802bc8d3e1b7a49833db9730" target="_top" xlink:title="Access the UI Component. ">
<polygon fill="white" stroke="black" points="416.5,-49 416.5,-79 547.5,-79 547.5,-49 416.5,-49"/>
<text text-anchor="start" x="424.5" y="-67" font-family="Helvetica,sans-Serif" font-size="10.00">Ra::Engine::SystemEntity</text>
<text text-anchor="middle" x="482" y="-56" font-family="Helvetica,sans-Serif" font-size="10.00">::uiCmp</text>
</a>
</g>
</g>
<!-- Node27&#45;&gt;Node33 -->
<g id="edge35" class="edge"><title>Node27&#45;&gt;Node33</title>
<path fill="none" stroke="midnightblue" d="M350.787,-289.997C356.348,-287 361.525,-283.376 366,-279 405.201,-240.663 376.205,-209.384 402,-161 417.02,-132.827 440.839,-105.025 458.399,-86.4581"/>
<polygon fill="midnightblue" stroke="midnightblue" points="461.079,-88.7212 465.498,-79.0919 456.039,-83.8638 461.079,-88.7212"/>
</g>
<!-- Node36 -->
<g id="node36" class="node"><title>Node36</title>
<g id="a_node36"><a xlink:href="namespaceRa_1_1Engine_1_1DrawPrimitives.html#a4fdb84120e668a53e6d5056e59e9c29e" target="_top" xlink:title="Ra::Engine::DrawPrimitives\l::Grid">
<polygon fill="white" stroke="black" points="413,-333 413,-363 551,-363 551,-333 413,-333"/>
<text text-anchor="start" x="421" y="-351" font-family="Helvetica,sans-Serif" font-size="10.00">Ra::Engine::DrawPrimitives</text>
<text text-anchor="middle" x="482" y="-340" font-family="Helvetica,sans-Serif" font-size="10.00">::Grid</text>
</a>
</g>
</g>
<!-- Node27&#45;&gt;Node36 -->
<g id="edge38" class="edge"><title>Node27&#45;&gt;Node36</title>
<path fill="none" stroke="midnightblue" d="M346.635,-319.019C364.735,-322.923 384.352,-327.154 402.86,-331.146"/>
<polygon fill="midnightblue" stroke="midnightblue" points="402.202,-334.585 412.715,-333.272 403.678,-327.742 402.202,-334.585"/>
</g>
<!-- Node37 -->
<g id="node37" class="node"><title>Node37</title>
<g id="a_node37"><a xlink:href="namespaceRa_1_1Core_1_1Colors.html#a9b6b3be86ee487b0a0e387566756b60d" target="_top" xlink:title="Ra::Core::Colors::Grey">
<polygon fill="white" stroke="black" points="423,-294.5 423,-313.5 541,-313.5 541,-294.5 423,-294.5"/>
<text text-anchor="middle" x="482" y="-301.5" font-family="Helvetica,sans-Serif" font-size="10.00">Ra::Core::Colors::Grey</text>
</a>
</g>
</g>
<!-- Node27&#45;&gt;Node37 -->
<g id="edge39" class="edge"><title>Node27&#45;&gt;Node37</title>
<path fill="none" stroke="midnightblue" d="M350.649,-304C370.864,-304 392.692,-304 412.599,-304"/>
<polygon fill="midnightblue" stroke="midnightblue" points="412.815,-307.5 422.815,-304 412.815,-300.5 412.815,-307.5"/>
</g>
<!-- Node38 -->
<g id="node38" class="node"><title>Node38</title>
<g id="a_node38"><a xlink:href="classRa_1_1Engine_1_1Component.html#a8faa6f03b4a5a8bc30bb8ff402e6b61f" target="_top" xlink:title="Add a new render object to the component. This adds the RO to the manager for drawing. ">
<polygon fill="white" stroke="black" points="421,-245 421,-275 543,-275 543,-245 421,-245"/>
<text text-anchor="start" x="429" y="-263" font-family="Helvetica,sans-Serif" font-size="10.00">Ra::Engine::Component</text>
<text text-anchor="middle" x="482" y="-252" font-family="Helvetica,sans-Serif" font-size="10.00">::addRenderObject</text>
</a>
</g>
</g>
<!-- Node27&#45;&gt;Node38 -->
<g id="edge40" class="edge"><title>Node27&#45;&gt;Node38</title>
<path fill="none" stroke="midnightblue" d="M346.635,-288.981C367.366,-284.509 390.087,-279.609 410.851,-275.13"/>
<polygon fill="midnightblue" stroke="midnightblue" points="411.833,-278.499 420.87,-272.969 410.357,-271.656 411.833,-278.499"/>
</g>
<!-- Node29 -->
<g id="node29" class="node"><title>Node29</title>
<g id="a_node29"><a xlink:href="namespaceRa_1_1Engine_1_1ShaderConfigurationFactory.html#a0bc60f21dbabd745961037f3d2f019c8" target="_top" xlink:title="Ra::Engine::ShaderConfiguration\lFactory::getConfiguration">
<polygon fill="white" stroke="black" points="604,-98 604,-128 764,-128 764,-98 604,-98"/>
<text text-anchor="start" x="612" y="-116" font-family="Helvetica,sans-Serif" font-size="10.00">Ra::Engine::ShaderConfiguration</text>
<text text-anchor="middle" x="684" y="-105" font-family="Helvetica,sans-Serif" font-size="10.00">Factory::getConfiguration</text>
</a>
</g>
</g>
<!-- Node28&#45;&gt;Node29 -->
<g id="edge31" class="edge"><title>Node28&#45;&gt;Node29</title>
<path fill="none" stroke="midnightblue" d="M515.279,-170.936C538.092,-160.615 569.551,-147.031 598,-137 603.884,-134.925 610.045,-132.904 616.246,-130.971"/>
<polygon fill="midnightblue" stroke="midnightblue" points="617.438,-134.267 625.989,-128.012 615.403,-127.569 617.438,-134.267"/>
</g>
<!-- Node31 -->
<g id="node31" class="node"><title>Node31</title>
<g id="a_node31"><a xlink:href="classRa_1_1Engine_1_1RenderObject.html#ae1ea453e2b698cda9956586d11b9cfbd" target="_top" xlink:title="Ra::Engine::RenderObject\l::setRenderTechnique">
<polygon fill="white" stroke="black" points="618.5,-196 618.5,-226 749.5,-226 749.5,-196 618.5,-196"/>
<text text-anchor="start" x="626.5" y="-214" font-family="Helvetica,sans-Serif" font-size="10.00">Ra::Engine::RenderObject</text>
<text text-anchor="middle" x="684" y="-203" font-family="Helvetica,sans-Serif" font-size="10.00">::setRenderTechnique</text>
</a>
</g>
</g>
<!-- Node28&#45;&gt;Node31 -->
<g id="edge33" class="edge"><title>Node28&#45;&gt;Node31</title>
<path fill="none" stroke="midnightblue" d="M551.269,-194.534C569.686,-196.836 589.705,-199.338 608.447,-201.681"/>
<polygon fill="midnightblue" stroke="midnightblue" points="608.054,-205.159 618.411,-202.926 608.922,-198.213 608.054,-205.159"/>
</g>
<!-- Node32 -->
<g id="node32" class="node"><title>Node32</title>
<g id="a_node32"><a xlink:href="classRa_1_1Engine_1_1RenderObject.html#ae8e94954e783a2012fd774598af1eb52" target="_top" xlink:title="Ra::Engine::RenderObject\l::setMesh">
<polygon fill="white" stroke="black" points="618.5,-147 618.5,-177 749.5,-177 749.5,-147 618.5,-147"/>
<text text-anchor="start" x="626.5" y="-165" font-family="Helvetica,sans-Serif" font-size="10.00">Ra::Engine::RenderObject</text>
<text text-anchor="middle" x="684" y="-154" font-family="Helvetica,sans-Serif" font-size="10.00">::setMesh</text>
</a>
</g>
</g>
<!-- Node28&#45;&gt;Node32 -->
<g id="edge34" class="edge"><title>Node28&#45;&gt;Node32</title>
<path fill="none" stroke="midnightblue" d="M551.269,-177.808C569.686,-175.598 589.705,-173.195 608.447,-170.946"/>
<polygon fill="midnightblue" stroke="midnightblue" points="608.899,-174.417 618.411,-169.751 608.065,-167.467 608.899,-174.417"/>
</g>
<!-- Node30 -->
<g id="node30" class="node"><title>Node30</title>
<g id="a_node30"><a xlink:href="classRa_1_1Engine_1_1ShaderConfiguration.html#a7e20a600c78e8627f0238b342f4b42f2" target="_top" xlink:title="Ra::Engine::ShaderConfiguration\l::getDefaultShaderConfig">
<polygon fill="white" stroke="black" points="806,-98 806,-128 966,-128 966,-98 806,-98"/>
<text text-anchor="start" x="814" y="-116" font-family="Helvetica,sans-Serif" font-size="10.00">Ra::Engine::ShaderConfiguration</text>
<text text-anchor="middle" x="886" y="-105" font-family="Helvetica,sans-Serif" font-size="10.00">::getDefaultShaderConfig</text>
</a>
</g>
</g>
<!-- Node29&#45;&gt;Node30 -->
<g id="edge32" class="edge"><title>Node29&#45;&gt;Node30</title>
<path fill="none" stroke="midnightblue" d="M764.045,-113C774.471,-113 785.215,-113 795.795,-113"/>
<polygon fill="midnightblue" stroke="midnightblue" points="795.874,-116.5 805.874,-113 795.874,-109.5 795.874,-116.5"/>
</g>
<!-- Node34 -->
<g id="node34" class="node"><title>Node34</title>
<g id="a_node34"><a xlink:href="classRa_1_1Engine_1_1Entity.html#a2dbff361ff815b56c3b911fdcbb57da9" target="_top" xlink:title="Ra::Engine::Entity\l::getTransformAsMatrix">
<polygon fill="white" stroke="black" points="624.5,-0 624.5,-30 743.5,-30 743.5,-0 624.5,-0"/>
<text text-anchor="start" x="632.5" y="-18" font-family="Helvetica,sans-Serif" font-size="10.00">Ra::Engine::Entity</text>
<text text-anchor="middle" x="684" y="-7" font-family="Helvetica,sans-Serif" font-size="10.00">::getTransformAsMatrix</text>
</a>
</g>
</g>
<!-- Node33&#45;&gt;Node34 -->
<g id="edge36" class="edge"><title>Node33&#45;&gt;Node34</title>
<path fill="none" stroke="midnightblue" d="M544.366,-48.9654C566.571,-43.5251 591.78,-37.3489 614.555,-31.769"/>
<polygon fill="midnightblue" stroke="midnightblue" points="615.609,-35.1144 624.489,-29.3352 613.943,-28.3154 615.609,-35.1144"/>
</g>
<!-- Node35 -->
<g id="node35" class="node"><title>Node35</title>
<g id="a_node35"><a xlink:href="classRa_1_1Engine_1_1Entity.html#a524712805170bfce52ed0a98f7eee436" target="_top" xlink:title="Get component with a given name. ">
<polygon fill="white" stroke="black" points="635.5,-49 635.5,-79 732.5,-79 732.5,-49 635.5,-49"/>
<text text-anchor="start" x="643.5" y="-67" font-family="Helvetica,sans-Serif" font-size="10.00">Ra::Engine::Entity</text>
<text text-anchor="middle" x="684" y="-56" font-family="Helvetica,sans-Serif" font-size="10.00">::getComponent</text>
</a>
</g>
</g>
<!-- Node33&#45;&gt;Node35 -->
<g id="edge37" class="edge"><title>Node33&#45;&gt;Node35</title>
<path fill="none" stroke="midnightblue" d="M547.658,-64C572.623,-64 600.961,-64 625.233,-64"/>
<polygon fill="midnightblue" stroke="midnightblue" points="625.364,-67.5001 635.364,-64 625.364,-60.5001 625.364,-67.5001"/>
</g>
<!-- Node39 -->
<g id="node39" class="node"><title>Node39</title>
<g id="a_node39"><a xlink:href="classRa_1_1Engine_1_1Component.html#a10b0bc182b76165744ebea603ae32dfe" target="_top" xlink:title="Shortcut to access the render object manager. ">
<polygon fill="white" stroke="black" points="623,-245 623,-275 745,-275 745,-245 623,-245"/>
<text text-anchor="start" x="631" y="-263" font-family="Helvetica,sans-Serif" font-size="10.00">Ra::Engine::Component</text>
<text text-anchor="middle" x="684" y="-252" font-family="Helvetica,sans-Serif" font-size="10.00">::getRoMgr</text>
</a>
</g>
</g>
<!-- Node38&#45;&gt;Node39 -->
<g id="edge41" class="edge"><title>Node38&#45;&gt;Node39</title>
<path fill="none" stroke="midnightblue" d="M543.007,-260C564.858,-260 589.76,-260 612.444,-260"/>
<polygon fill="midnightblue" stroke="midnightblue" points="612.69,-263.5 622.69,-260 612.69,-256.5 612.69,-263.5"/>
</g>
</g>
</svg>
