<?xml version="1.0" encoding="UTF-8" standalone="no"?>
<!DOCTYPE svg PUBLIC "-//W3C//DTD SVG 1.1//EN"
 "http://www.w3.org/Graphics/SVG/1.1/DTD/svg11.dtd">
<!-- Generated by graphviz version 2.36.0 (20140111.2315)
 -->
<!-- Title: Ra::Engine::System Pages: 1 -->
<svg width="968pt" height="618pt"
 viewBox="0.00 0.00 968.00 618.00" xmlns="http://www.w3.org/2000/svg" xmlns:xlink="http://www.w3.org/1999/xlink">
<g id="graph0" class="graph" transform="scale(1 1) rotate(0) translate(4 614)">
<title>Ra::Engine::System</title>
<polygon fill="white" stroke="none" points="-4,4 -4,-614 964,-614 964,4 -4,4"/>
<!-- Node1 -->
<g id="node1" class="node"><title>Node1</title>
<polygon fill="#bfbfbf" stroke="black" points="433.5,-475 433.5,-609 574.5,-609 574.5,-475 433.5,-475"/>
<text text-anchor="middle" x="504" y="-597" font-family="Helvetica,sans-Serif" font-size="10.00">Ra::Engine::System</text>
<polyline fill="none" stroke="black" points="433.5,-590 574.5,-590 "/>
<text text-anchor="start" x="441.5" y="-578" font-family="Helvetica,sans-Serif" font-size="10.00"># m_components</text>
<polyline fill="none" stroke="black" points="433.5,-571 574.5,-571 "/>
<text text-anchor="start" x="441.5" y="-559" font-family="Helvetica,sans-Serif" font-size="10.00">+ System()</text>
<text text-anchor="start" x="441.5" y="-548" font-family="Helvetica,sans-Serif" font-size="10.00">+ ~System()</text>
<text text-anchor="start" x="441.5" y="-537" font-family="Helvetica,sans-Serif" font-size="10.00">+ generateTasks()</text>
<text text-anchor="start" x="441.5" y="-526" font-family="Helvetica,sans-Serif" font-size="10.00">+ registerComponent()</text>
<text text-anchor="start" x="441.5" y="-515" font-family="Helvetica,sans-Serif" font-size="10.00">+ unregisterComponent()</text>
<text text-anchor="start" x="441.5" y="-504" font-family="Helvetica,sans-Serif" font-size="10.00">+ unregisterAllComponents()</text>
<text text-anchor="start" x="441.5" y="-493" font-family="Helvetica,sans-Serif" font-size="10.00">+ getEntityComponents()</text>
<text text-anchor="start" x="441.5" y="-482" font-family="Helvetica,sans-Serif" font-size="10.00">+ handleAssetLoading()</text>
</g>
<!-- Node2 -->
<g id="node2" class="node"><title>Node2</title>
<g id="a_node2"><a xlink:href="classAnimationPlugin_1_1AnimationSystem.html" target="_top" xlink:title="{AnimationPlugin::Animation\lSystem\n||+ AnimationSystem()\l+ generateTasks()\l+ handleAssetLoading()\l+ setPlaying()\l+ step()\l+ reset()\l+ setXray()\l+ isXrayOn()\l+ toggleSkeleton()\l+ setAnimation()\l+ toggleAnimationTimeStep()\l+ setAnimationSpeed()\l+ toggleSlowMotion()\l+ getTime()\l}">
<polygon fill="white" stroke="black" points="-0.5,-204.5 -0.5,-415.5 142.5,-415.5 142.5,-204.5 -0.5,-204.5"/>
<text text-anchor="start" x="7.5" y="-403.5" font-family="Helvetica,sans-Serif" font-size="10.00">AnimationPlugin::Animation</text>
<text text-anchor="middle" x="71" y="-392.5" font-family="Helvetica,sans-Serif" font-size="10.00">System</text>
<polyline fill="none" stroke="black" points="-0.5,-385.5 142.5,-385.5 "/>
<text text-anchor="middle" x="71" y="-373.5" font-family="Helvetica,sans-Serif" font-size="10.00"> </text>
<polyline fill="none" stroke="black" points="-0.5,-366.5 142.5,-366.5 "/>
<text text-anchor="start" x="7.5" y="-354.5" font-family="Helvetica,sans-Serif" font-size="10.00">+ AnimationSystem()</text>
<text text-anchor="start" x="7.5" y="-343.5" font-family="Helvetica,sans-Serif" font-size="10.00">+ generateTasks()</text>
<text text-anchor="start" x="7.5" y="-332.5" font-family="Helvetica,sans-Serif" font-size="10.00">+ handleAssetLoading()</text>
<text text-anchor="start" x="7.5" y="-321.5" font-family="Helvetica,sans-Serif" font-size="10.00">+ setPlaying()</text>
<text text-anchor="start" x="7.5" y="-310.5" font-family="Helvetica,sans-Serif" font-size="10.00">+ step()</text>
<text text-anchor="start" x="7.5" y="-299.5" font-family="Helvetica,sans-Serif" font-size="10.00">+ reset()</text>
<text text-anchor="start" x="7.5" y="-288.5" font-family="Helvetica,sans-Serif" font-size="10.00">+ setXray()</text>
<text text-anchor="start" x="7.5" y="-277.5" font-family="Helvetica,sans-Serif" font-size="10.00">+ isXrayOn()</text>
<text text-anchor="start" x="7.5" y="-266.5" font-family="Helvetica,sans-Serif" font-size="10.00">+ toggleSkeleton()</text>
<text text-anchor="start" x="7.5" y="-255.5" font-family="Helvetica,sans-Serif" font-size="10.00">+ setAnimation()</text>
<text text-anchor="start" x="7.5" y="-244.5" font-family="Helvetica,sans-Serif" font-size="10.00">+ toggleAnimationTimeStep()</text>
<text text-anchor="start" x="7.5" y="-233.5" font-family="Helvetica,sans-Serif" font-size="10.00">+ setAnimationSpeed()</text>
<text text-anchor="start" x="7.5" y="-222.5" font-family="Helvetica,sans-Serif" font-size="10.00">+ toggleSlowMotion()</text>
<text text-anchor="start" x="7.5" y="-211.5" font-family="Helvetica,sans-Serif" font-size="10.00">+ getTime()</text>
</a>
</g>
</g>
<!-- Node1&#45;&gt;Node2 -->
<g id="edge1" class="edge"><title>Node1&#45;&gt;Node2</title>
<path fill="none" stroke="midnightblue" d="M423.29,-533.712C346.859,-523.291 232.173,-498.174 152,-438 143.425,-431.564 135.518,-423.931 128.287,-415.651"/>
<polygon fill="none" stroke="midnightblue" points="422.977,-537.201 433.347,-535.028 423.885,-530.26 422.977,-537.201"/>
</g>
<!-- Node3 -->
<g id="node3" class="node"><title>Node3</title>
<g id="a_node3"><a xlink:href="classDummyPlugin_1_1DummySystem.html" target="_top" xlink:title="{DummyPlugin::DummySystem\n||+ DummySystem()\l+ ~DummySystem()\l+ initialize()\l+ handleDataLoading()\l+ generateTasks()\l# addComponentToEntityInternal()\l}">
<polygon fill="white" stroke="black" points="161,-254 161,-366 327,-366 327,-254 161,-254"/>
<text text-anchor="middle" x="244" y="-354" font-family="Helvetica,sans-Serif" font-size="10.00">DummyPlugin::DummySystem</text>
<polyline fill="none" stroke="black" points="161,-347 327,-347 "/>
<text text-anchor="middle" x="244" y="-335" font-family="Helvetica,sans-Serif" font-size="10.00"> </text>
<polyline fill="none" stroke="black" points="161,-328 327,-328 "/>
<text text-anchor="start" x="169" y="-316" font-family="Helvetica,sans-Serif" font-size="10.00">+ DummySystem()</text>
<text text-anchor="start" x="169" y="-305" font-family="Helvetica,sans-Serif" font-size="10.00">+ ~DummySystem()</text>
<text text-anchor="start" x="169" y="-294" font-family="Helvetica,sans-Serif" font-size="10.00">+ initialize()</text>
<text text-anchor="start" x="169" y="-283" font-family="Helvetica,sans-Serif" font-size="10.00">+ handleDataLoading()</text>
<text text-anchor="start" x="169" y="-272" font-family="Helvetica,sans-Serif" font-size="10.00">+ generateTasks()</text>
<text text-anchor="start" x="169" y="-261" font-family="Helvetica,sans-Serif" font-size="10.00"># addComponentToEntityInternal()</text>
</a>
</g>
</g>
<!-- Node1&#45;&gt;Node3 -->
<g id="edge2" class="edge"><title>Node1&#45;&gt;Node3</title>
<path fill="none" stroke="midnightblue" d="M424.064,-500.636C394.583,-483.607 362.049,-462.119 336,-438 313.425,-417.098 292.854,-389.904 276.917,-366.045"/>
<polygon fill="none" stroke="midnightblue" points="422.682,-503.876 433.105,-505.775 426.142,-497.791 422.682,-503.876"/>
</g>
<!-- Node4 -->
<g id="node4" class="node"><title>Node4</title>
<g id="a_node4"><a xlink:href="classFancyMeshPlugin_1_1FancyMeshSystem.html" target="_top" xlink:title="{FancyMeshPlugin::FancyMesh\lSystem\n||+ FancyMeshSystem()\l+ ~FancyMeshSystem()\l+ handleAssetLoading()\l+ generateTasks()\l}">
<polygon fill="white" stroke="black" points="345,-259.5 345,-360.5 497,-360.5 497,-259.5 345,-259.5"/>
<text text-anchor="start" x="353" y="-348.5" font-family="Helvetica,sans-Serif" font-size="10.00">FancyMeshPlugin::FancyMesh</text>
<text text-anchor="middle" x="421" y="-337.5" font-family="Helvetica,sans-Serif" font-size="10.00">System</text>
<polyline fill="none" stroke="black" points="345,-330.5 497,-330.5 "/>
<text text-anchor="middle" x="421" y="-318.5" font-family="Helvetica,sans-Serif" font-size="10.00"> </text>
<polyline fill="none" stroke="black" points="345,-311.5 497,-311.5 "/>
<text text-anchor="start" x="353" y="-299.5" font-family="Helvetica,sans-Serif" font-size="10.00">+ FancyMeshSystem()</text>
<text text-anchor="start" x="353" y="-288.5" font-family="Helvetica,sans-Serif" font-size="10.00">+ ~FancyMeshSystem()</text>
<text text-anchor="start" x="353" y="-277.5" font-family="Helvetica,sans-Serif" font-size="10.00">+ handleAssetLoading()</text>
<text text-anchor="start" x="353" y="-266.5" font-family="Helvetica,sans-Serif" font-size="10.00">+ generateTasks()</text>
</a>
</g>
</g>
<!-- Node1&#45;&gt;Node4 -->
<g id="edge3" class="edge"><title>Node1&#45;&gt;Node4</title>
<path fill="none" stroke="midnightblue" d="M476.662,-465.244C464.261,-430.88 449.943,-391.203 438.934,-360.697"/>
<polygon fill="none" stroke="midnightblue" points="473.418,-466.565 480.104,-474.783 480.002,-464.189 473.418,-466.565"/>
</g>
<!-- Node5 -->
<g id="node5" class="node"><title>Node5</title>
<g id="a_node5"><a xlink:href="classMeshPaintPlugin_1_1MeshPaintSystem.html" target="_top" xlink:title="{MeshPaintPlugin::MeshPaint\lSystem\n||+ MeshPaintSystem()\l+ ~MeshPaintSystem()\l+ handleAssetLoading()\l+ generateTasks()\l+ startPaintMesh()\l+ paintMesh()\l}">
<polygon fill="white" stroke="black" points="515.5,-248.5 515.5,-371.5 658.5,-371.5 658.5,-248.5 515.5,-248.5"/>
<text text-anchor="start" x="523.5" y="-359.5" font-family="Helvetica,sans-Serif" font-size="10.00">MeshPaintPlugin::MeshPaint</text>
<text text-anchor="middle" x="587" y="-348.5" font-family="Helvetica,sans-Serif" font-size="10.00">System</text>
<polyline fill="none" stroke="black" points="515.5,-341.5 658.5,-341.5 "/>
<text text-anchor="middle" x="587" y="-329.5" font-family="Helvetica,sans-Serif" font-size="10.00"> </text>
<polyline fill="none" stroke="black" points="515.5,-322.5 658.5,-322.5 "/>
<text text-anchor="start" x="523.5" y="-310.5" font-family="Helvetica,sans-Serif" font-size="10.00">+ MeshPaintSystem()</text>
<text text-anchor="start" x="523.5" y="-299.5" font-family="Helvetica,sans-Serif" font-size="10.00">+ ~MeshPaintSystem()</text>
<text text-anchor="start" x="523.5" y="-288.5" font-family="Helvetica,sans-Serif" font-size="10.00">+ handleAssetLoading()</text>
<text text-anchor="start" x="523.5" y="-277.5" font-family="Helvetica,sans-Serif" font-size="10.00">+ generateTasks()</text>
<text text-anchor="start" x="523.5" y="-266.5" font-family="Helvetica,sans-Serif" font-size="10.00">+ startPaintMesh()</text>
<text text-anchor="start" x="523.5" y="-255.5" font-family="Helvetica,sans-Serif" font-size="10.00">+ paintMesh()</text>
</a>
</g>
</g>
<!-- Node1&#45;&gt;Node5 -->
<g id="edge4" class="edge"><title>Node1&#45;&gt;Node5</title>
<path fill="none" stroke="midnightblue" d="M531.395,-465.088C542.346,-434.74 554.785,-400.271 565.117,-371.641"/>
<polygon fill="none" stroke="midnightblue" points="527.998,-464.189 527.896,-474.783 534.582,-466.565 527.998,-464.189"/>
</g>
<!-- Node6 -->
<g id="node6" class="node"><title>Node6</title>
<g id="a_node6"><a xlink:href="classRa_1_1Engine_1_1LightManager.html" target="_top" xlink:title="{Ra::Engine::LightManager\n|# renderData\l# params\l# m_data\l|+ LightManager()\l+ LightManager()\l+ operator=()\l+ ~LightManager()\l+ getLight()\l+ addLight()\l+ count()\l+ preprocess()\l+ prerender()\l+ render()\l+ postrender()\l+ postprocess()\l+ registerComponent()\l+ unregisterComponent()\l+ unregisterAllComponents()\l+ generateTasks()\l+ handleAssetLoading()\l}">
<polygon fill="white" stroke="black" points="676.5,-182.5 676.5,-437.5 817.5,-437.5 817.5,-182.5 676.5,-182.5"/>
<text text-anchor="middle" x="747" y="-425.5" font-family="Helvetica,sans-Serif" font-size="10.00">Ra::Engine::LightManager</text>
<polyline fill="none" stroke="black" points="676.5,-418.5 817.5,-418.5 "/>
<text text-anchor="start" x="684.5" y="-406.5" font-family="Helvetica,sans-Serif" font-size="10.00"># renderData</text>
<text text-anchor="start" x="684.5" y="-395.5" font-family="Helvetica,sans-Serif" font-size="10.00"># params</text>
<text text-anchor="start" x="684.5" y="-384.5" font-family="Helvetica,sans-Serif" font-size="10.00"># m_data</text>
<polyline fill="none" stroke="black" points="676.5,-377.5 817.5,-377.5 "/>
<text text-anchor="start" x="684.5" y="-365.5" font-family="Helvetica,sans-Serif" font-size="10.00">+ LightManager()</text>
<text text-anchor="start" x="684.5" y="-354.5" font-family="Helvetica,sans-Serif" font-size="10.00">+ LightManager()</text>
<text text-anchor="start" x="684.5" y="-343.5" font-family="Helvetica,sans-Serif" font-size="10.00">+ operator=()</text>
<text text-anchor="start" x="684.5" y="-332.5" font-family="Helvetica,sans-Serif" font-size="10.00">+ ~LightManager()</text>
<text text-anchor="start" x="684.5" y="-321.5" font-family="Helvetica,sans-Serif" font-size="10.00">+ getLight()</text>
<text text-anchor="start" x="684.5" y="-310.5" font-family="Helvetica,sans-Serif" font-size="10.00">+ addLight()</text>
<text text-anchor="start" x="684.5" y="-299.5" font-family="Helvetica,sans-Serif" font-size="10.00">+ count()</text>
<text text-anchor="start" x="684.5" y="-288.5" font-family="Helvetica,sans-Serif" font-size="10.00">+ preprocess()</text>
<text text-anchor="start" x="684.5" y="-277.5" font-family="Helvetica,sans-Serif" font-size="10.00">+ prerender()</text>
<text text-anchor="start" x="684.5" y="-266.5" font-family="Helvetica,sans-Serif" font-size="10.00">+ render()</text>
<text text-anchor="start" x="684.5" y="-255.5" font-family="Helvetica,sans-Serif" font-size="10.00">+ postrender()</text>
<text text-anchor="start" x="684.5" y="-244.5" font-family="Helvetica,sans-Serif" font-size="10.00">+ postprocess()</text>
<text text-anchor="start" x="684.5" y="-233.5" font-family="Helvetica,sans-Serif" font-size="10.00">+ registerComponent()</text>
<text text-anchor="start" x="684.5" y="-222.5" font-family="Helvetica,sans-Serif" font-size="10.00">+ unregisterComponent()</text>
<text text-anchor="start" x="684.5" y="-211.5" font-family="Helvetica,sans-Serif" font-size="10.00">+ unregisterAllComponents()</text>
<text text-anchor="start" x="684.5" y="-200.5" font-family="Helvetica,sans-Serif" font-size="10.00">+ generateTasks()</text>
<text text-anchor="start" x="684.5" y="-189.5" font-family="Helvetica,sans-Serif" font-size="10.00">+ handleAssetLoading()</text>
</a>
</g>
</g>
<!-- Node1&#45;&gt;Node6 -->
<g id="edge5" class="edge"><title>Node1&#45;&gt;Node6</title>
<path fill="none" stroke="midnightblue" d="M583.46,-500.455C611.851,-483.589 642.777,-462.257 667,-438 670.222,-434.773 673.378,-431.394 676.461,-427.898"/>
<polygon fill="none" stroke="midnightblue" points="581.613,-497.481 574.74,-505.544 585.141,-503.526 581.613,-497.481"/>
</g>
<!-- Node8 -->
<g id="node8" class="node"><title>Node8</title>
<g id="a_node8"><a xlink:href="classSkinningPlugin_1_1SkinningSystem.html" target="_top" xlink:title="{SkinningPlugin::Skinning\lSystem\n||+ SkinningSystem()\l+ generateTasks()\l+ handleAssetLoading()\l}">
<polygon fill="white" stroke="black" points="835.5,-265 835.5,-355 960.5,-355 960.5,-265 835.5,-265"/>
<text text-anchor="start" x="843.5" y="-343" font-family="Helvetica,sans-Serif" font-size="10.00">SkinningPlugin::Skinning</text>
<text text-anchor="middle" x="898" y="-332" font-family="Helvetica,sans-Serif" font-size="10.00">System</text>
<polyline fill="none" stroke="black" points="835.5,-325 960.5,-325 "/>
<text text-anchor="middle" x="898" y="-313" font-family="Helvetica,sans-Serif" font-size="10.00"> </text>
<polyline fill="none" stroke="black" points="835.5,-306 960.5,-306 "/>
<text text-anchor="start" x="843.5" y="-294" font-family="Helvetica,sans-Serif" font-size="10.00">+ SkinningSystem()</text>
<text text-anchor="start" x="843.5" y="-283" font-family="Helvetica,sans-Serif" font-size="10.00">+ generateTasks()</text>
<text text-anchor="start" x="843.5" y="-272" font-family="Helvetica,sans-Serif" font-size="10.00">+ handleAssetLoading()</text>
</a>
</g>
</g>
<!-- Node1&#45;&gt;Node8 -->
<g id="edge7" class="edge"><title>Node1&#45;&gt;Node8</title>
<path fill="none" stroke="midnightblue" d="M584.946,-531.837C655.248,-520.27 756.424,-494.531 826,-438 852.457,-416.503 870.988,-382.538 882.619,-355.141"/>
<polygon fill="none" stroke="midnightblue" points="584.135,-528.422 574.805,-533.443 585.229,-535.336 584.135,-528.422"/>
</g>
<!-- Node7 -->
<g id="node7" class="node"><title>Node7</title>
<g id="a_node7"><a xlink:href="classRa_1_1Engine_1_1DefaultLightManager.html" target="_top" xlink:title="DummyLightManager. A simple Light Manager with a list of lights. ">
<polygon fill="white" stroke="black" points="685,-0.5 685,-145.5 809,-145.5 809,-0.5 685,-0.5"/>
<text text-anchor="start" x="693" y="-133.5" font-family="Helvetica,sans-Serif" font-size="10.00">Ra::Engine::DefaultLight</text>
<text text-anchor="middle" x="747" y="-122.5" font-family="Helvetica,sans-Serif" font-size="10.00">Manager</text>
<polyline fill="none" stroke="black" points="685,-115.5 809,-115.5 "/>
<text text-anchor="middle" x="747" y="-103.5" font-family="Helvetica,sans-Serif" font-size="10.00"> </text>
<polyline fill="none" stroke="black" points="685,-96.5 809,-96.5 "/>
<text text-anchor="start" x="693" y="-84.5" font-family="Helvetica,sans-Serif" font-size="10.00">+ DefaultLightManager()</text>
<text text-anchor="start" x="693" y="-73.5" font-family="Helvetica,sans-Serif" font-size="10.00">+ getLight()</text>
<text text-anchor="start" x="693" y="-62.5" font-family="Helvetica,sans-Serif" font-size="10.00">+ addLight()</text>
<text text-anchor="start" x="693" y="-51.5" font-family="Helvetica,sans-Serif" font-size="10.00">+ preprocess()</text>
<text text-anchor="start" x="693" y="-40.5" font-family="Helvetica,sans-Serif" font-size="10.00">+ prerender()</text>
<text text-anchor="start" x="693" y="-29.5" font-family="Helvetica,sans-Serif" font-size="10.00">+ render()</text>
<text text-anchor="start" x="693" y="-18.5" font-family="Helvetica,sans-Serif" font-size="10.00">+ postrender()</text>
<text text-anchor="start" x="693" y="-7.5" font-family="Helvetica,sans-Serif" font-size="10.00">+ postprocess()</text>
</a>
</g>
</g>
<!-- Node6&#45;&gt;Node7 -->
<g id="edge6" class="edge"><title>Node6&#45;&gt;Node7</title>
<path fill="none" stroke="midnightblue" d="M747,-171.944C747,-162.897 747,-154.009 747,-145.502"/>
<polygon fill="none" stroke="midnightblue" points="743.5,-172.214 747,-182.214 750.5,-172.214 743.5,-172.214"/>
</g>
</g>
</svg>
