<?xml version="1.0" encoding="UTF-8" standalone="no"?>
<!DOCTYPE svg PUBLIC "-//W3C//DTD SVG 1.1//EN"
 "http://www.w3.org/Graphics/SVG/1.1/DTD/svg11.dtd">
<!-- Generated by graphviz version 2.36.0 (20140111.2315)
 -->
<!-- Title: Ra::Core::OBJFileManager::importData Pages: 1 -->
<svg width="492pt" height="146pt"
 viewBox="0.00 0.00 492.00 146.00" xmlns="http://www.w3.org/2000/svg" xmlns:xlink="http://www.w3.org/1999/xlink">
<g id="graph0" class="graph" transform="scale(1 1) rotate(0) translate(4 142)">
<title>Ra::Core::OBJFileManager::importData</title>
<polygon fill="white" stroke="none" points="-4,4 -4,-142 488,-142 488,4 -4,4"/>
<!-- Node1 -->
<g id="node1" class="node"><title>Node1</title>
<polygon fill="#bfbfbf" stroke="black" points="0.5,-59 0.5,-89 135.5,-89 135.5,-59 0.5,-59"/>
<text text-anchor="start" x="8.5" y="-77" font-family="Helvetica,sans-Serif" font-size="10.00">Ra::Core::OBJFileManager</text>
<text text-anchor="middle" x="68" y="-66" font-family="Helvetica,sans-Serif" font-size="10.00">::importData</text>
</g>
<!-- Node2 -->
<g id="node2" class="node"><title>Node2</title>
<g id="a_node2"><a xlink:href="classRa_1_1Core_1_1TriangleMesh.html#a495116f40cfec8bb6504698d786d4b8c" target="_top" xlink:title="Ra::Core::TriangleMesh\l::vertices">
<polygon fill="white" stroke="black" points="187.5,-108 187.5,-138 308.5,-138 308.5,-108 187.5,-108"/>
<text text-anchor="start" x="195.5" y="-126" font-family="Helvetica,sans-Serif" font-size="10.00">Ra::Core::TriangleMesh</text>
<text text-anchor="middle" x="248" y="-115" font-family="Helvetica,sans-Serif" font-size="10.00">::vertices</text>
</a>
</g>
</g>
<!-- Node1&#45;&gt;Node2 -->
<g id="edge1" class="edge"><title>Node1&#45;&gt;Node2</title>
<path fill="none" stroke="midnightblue" d="M123.858,-89.1014C142.386,-94.2019 163.242,-99.9429 182.45,-105.23"/>
<polygon fill="midnightblue" stroke="midnightblue" points="181.753,-108.669 192.323,-107.948 183.61,-101.92 181.753,-108.669"/>
</g>
<!-- Node4 -->
<g id="node4" class="node"><title>Node4</title>
<g id="a_node4"><a xlink:href="classRa_1_1Core_1_1TriangleMesh.html#a40d31b7b2943947d6eac5d906f0182fd" target="_top" xlink:title="Ra::Core::TriangleMesh\l::normals">
<polygon fill="white" stroke="black" points="187.5,-59 187.5,-89 308.5,-89 308.5,-59 187.5,-59"/>
<text text-anchor="start" x="195.5" y="-77" font-family="Helvetica,sans-Serif" font-size="10.00">Ra::Core::TriangleMesh</text>
<text text-anchor="middle" x="248" y="-66" font-family="Helvetica,sans-Serif" font-size="10.00">::normals</text>
</a>
</g>
</g>
<!-- Node1&#45;&gt;Node4 -->
<g id="edge3" class="edge"><title>Node1&#45;&gt;Node4</title>
<path fill="none" stroke="midnightblue" d="M135.534,-74C149.068,-74 163.344,-74 176.995,-74"/>
<polygon fill="midnightblue" stroke="midnightblue" points="177.29,-77.5001 187.29,-74 177.29,-70.5001 177.29,-77.5001"/>
</g>
<!-- Node5 -->
<g id="node5" class="node"><title>Node5</title>
<g id="a_node5"><a xlink:href="classRa_1_1Core_1_1FileManager.html#a32776fbf23e35ba0354e941b95194e73" target="_top" xlink:title="Ra::Core::FileManager\l\&lt; TriangleMesh \&gt;::addLogError\lEntry">
<polygon fill="white" stroke="black" points="172,0.5 172,-40.5 324,-40.5 324,0.5 172,0.5"/>
<text text-anchor="start" x="180" y="-28.5" font-family="Helvetica,sans-Serif" font-size="10.00">Ra::Core::FileManager</text>
<text text-anchor="start" x="180" y="-17.5" font-family="Helvetica,sans-Serif" font-size="10.00">&lt; TriangleMesh &gt;::addLogError</text>
<text text-anchor="middle" x="248" y="-6.5" font-family="Helvetica,sans-Serif" font-size="10.00">Entry</text>
</a>
</g>
</g>
<!-- Node1&#45;&gt;Node5 -->
<g id="edge5" class="edge"><title>Node1&#45;&gt;Node5</title>
<path fill="none" stroke="midnightblue" d="M118.583,-58.958C134.466,-54.1394 152.449,-48.684 169.82,-43.4141"/>
<polygon fill="midnightblue" stroke="midnightblue" points="170.837,-46.7631 179.391,-40.5107 168.805,-40.0646 170.837,-46.7631"/>
</g>
<!-- Node3 -->
<g id="node3" class="node"><title>Node3</title>
<g id="a_node3"><a xlink:href="classRa_1_1Core_1_1AttribManager.html#a2344159a1926da905e4c44cd95744d59" target="_top" xlink:title="Get attribute by handle. ">
<polygon fill="white" stroke="black" points="360.5,-83 360.5,-113 483.5,-113 483.5,-83 360.5,-83"/>
<text text-anchor="start" x="368.5" y="-101" font-family="Helvetica,sans-Serif" font-size="10.00">Ra::Core::AttribManager</text>
<text text-anchor="middle" x="422" y="-90" font-family="Helvetica,sans-Serif" font-size="10.00">::getAttrib</text>
</a>
</g>
</g>
<!-- Node2&#45;&gt;Node3 -->
<g id="edge2" class="edge"><title>Node2&#45;&gt;Node3</title>
<path fill="none" stroke="midnightblue" d="M308.675,-114.326C322.104,-112.374 336.481,-110.285 350.311,-108.274"/>
<polygon fill="midnightblue" stroke="midnightblue" points="350.872,-111.73 360.265,-106.828 349.865,-104.803 350.872,-111.73"/>
</g>
<!-- Node4&#45;&gt;Node3 -->
<g id="edge4" class="edge"><title>Node4&#45;&gt;Node3</title>
<path fill="none" stroke="midnightblue" d="M308.675,-82.3267C322.104,-84.2005 336.481,-86.2066 350.311,-88.1365"/>
<polygon fill="midnightblue" stroke="midnightblue" points="349.877,-91.6097 360.265,-89.5253 350.844,-84.6768 349.877,-91.6097"/>
</g>
</g>
</svg>
