<?xml version="1.0" encoding="UTF-8" standalone="no"?>
<!DOCTYPE svg PUBLIC "-//W3C//DTD SVG 1.1//EN"
 "http://www.w3.org/Graphics/SVG/1.1/DTD/svg11.dtd">
<!-- Generated by graphviz version 2.36.0 (20140111.2315)
 -->
<!-- Title: Ra::Gui::TranslateGizmo::setInitialState Pages: 1 -->
<svg width="418pt" height="87pt"
 viewBox="0.00 0.00 418.00 87.00" xmlns="http://www.w3.org/2000/svg" xmlns:xlink="http://www.w3.org/1999/xlink">
<g id="graph0" class="graph" transform="scale(1 1) rotate(0) translate(4 83)">
<title>Ra::Gui::TranslateGizmo::setInitialState</title>
<polygon fill="white" stroke="none" points="-4,4 -4,-83 414,-83 414,4 -4,4"/>
<!-- Node1 -->
<g id="node1" class="node"><title>Node1</title>
<polygon fill="#bfbfbf" stroke="black" points="0.5,-24 0.5,-54 125.5,-54 125.5,-24 0.5,-24"/>
<text text-anchor="start" x="8.5" y="-42" font-family="Helvetica,sans-Serif" font-size="10.00">Ra::Gui::TranslateGizmo</text>
<text text-anchor="middle" x="63" y="-31" font-family="Helvetica,sans-Serif" font-size="10.00">::setInitialState</text>
</g>
<!-- Node2 -->
<g id="node2" class="node"><title>Node2</title>
<g id="a_node2"><a xlink:href="classRa_1_1Engine_1_1Camera.html#a50945b715a7bf5be440ce4bcfbc9c798" target="_top" xlink:title="Return the screen coordinates of the given point p (in world coordinates). ">
<polygon fill="white" stroke="black" points="162,-24 162,-54 268,-54 268,-24 162,-24"/>
<text text-anchor="start" x="170" y="-42" font-family="Helvetica,sans-Serif" font-size="10.00">Ra::Engine::Camera</text>
<text text-anchor="middle" x="215" y="-31" font-family="Helvetica,sans-Serif" font-size="10.00">::project</text>
</a>
</g>
</g>
<!-- Node1&#45;&gt;Node2 -->
<g id="edge1" class="edge"><title>Node1&#45;&gt;Node2</title>
<path fill="none" stroke="midnightblue" d="M125.877,-39C134.368,-39 143.091,-39 151.592,-39"/>
<polygon fill="midnightblue" stroke="midnightblue" points="151.82,-42.5001 161.82,-39 151.82,-35.5001 151.82,-42.5001"/>
</g>
<!-- Node3 -->
<g id="node3" class="node"><title>Node3</title>
<g id="a_node3"><a xlink:href="classRa_1_1Engine_1_1Camera.html#adb545a4a1f889d63ce4fc9a41cdeef2a" target="_top" xlink:title="Return the projection matrix. ">
<polygon fill="white" stroke="black" points="304,-49 304,-79 410,-79 410,-49 304,-49"/>
<text text-anchor="start" x="312" y="-67" font-family="Helvetica,sans-Serif" font-size="10.00">Ra::Engine::Camera</text>
<text text-anchor="middle" x="357" y="-56" font-family="Helvetica,sans-Serif" font-size="10.00">::getProjMatrix</text>
</a>
</g>
</g>
<!-- Node2&#45;&gt;Node3 -->
<g id="edge2" class="edge"><title>Node2&#45;&gt;Node3</title>
<path fill="none" stroke="midnightblue" d="M268.131,-48.3091C276.512,-49.8058 285.26,-51.3679 293.849,-52.9015"/>
<polygon fill="midnightblue" stroke="midnightblue" points="293.366,-56.3707 303.826,-54.6831 294.597,-49.4797 293.366,-56.3707"/>
</g>
<!-- Node4 -->
<g id="node4" class="node"><title>Node4</title>
<g id="a_node4"><a xlink:href="classRa_1_1Engine_1_1Camera.html#a0940bfd2c92663f462aaf02138ec35f6" target="_top" xlink:title="Return the view matrix. ">
<polygon fill="white" stroke="black" points="304,-0 304,-30 410,-30 410,-0 304,-0"/>
<text text-anchor="start" x="312" y="-18" font-family="Helvetica,sans-Serif" font-size="10.00">Ra::Engine::Camera</text>
<text text-anchor="middle" x="357" y="-7" font-family="Helvetica,sans-Serif" font-size="10.00">::getViewMatrix</text>
</a>
</g>
</g>
<!-- Node2&#45;&gt;Node4 -->
<g id="edge3" class="edge"><title>Node2&#45;&gt;Node4</title>
<path fill="none" stroke="midnightblue" d="M268.131,-30.0633C276.512,-28.6264 285.26,-27.1268 293.849,-25.6545"/>
<polygon fill="midnightblue" stroke="midnightblue" points="294.561,-29.0836 303.826,-23.9442 293.378,-22.1842 294.561,-29.0836"/>
</g>
</g>
</svg>
