<?xml version="1.0" encoding="UTF-8" standalone="no"?>
<!DOCTYPE svg PUBLIC "-//W3C//DTD SVG 1.1//EN"
 "http://www.w3.org/Graphics/SVG/1.1/DTD/svg11.dtd">
<!-- Generated by graphviz version 2.36.0 (20140111.2315)
 -->
<!-- Title: AnimationPlugin::AnimationSystem Pages: 1 -->
<svg width="299pt" height="778pt"
 viewBox="0.00 0.00 299.00 778.00" xmlns="http://www.w3.org/2000/svg" xmlns:xlink="http://www.w3.org/1999/xlink">
<g id="graph0" class="graph" transform="scale(1 1) rotate(0) translate(4 774)">
<title>AnimationPlugin::AnimationSystem</title>
<polygon fill="white" stroke="none" points="-4,4 -4,-774 295,-774 295,4 -4,4"/>
<!-- Node1 -->
<g id="node1" class="node"><title>Node1</title>
<polygon fill="#bfbfbf" stroke="black" points="34.5,-0.5 34.5,-211.5 177.5,-211.5 177.5,-0.5 34.5,-0.5"/>
<text text-anchor="start" x="42.5" y="-199.5" font-family="Helvetica,sans-Serif" font-size="10.00">AnimationPlugin::Animation</text>
<text text-anchor="middle" x="106" y="-188.5" font-family="Helvetica,sans-Serif" font-size="10.00">System</text>
<polyline fill="none" stroke="black" points="34.5,-181.5 177.5,-181.5 "/>
<text text-anchor="middle" x="106" y="-169.5" font-family="Helvetica,sans-Serif" font-size="10.00"> </text>
<polyline fill="none" stroke="black" points="34.5,-162.5 177.5,-162.5 "/>
<text text-anchor="start" x="42.5" y="-150.5" font-family="Helvetica,sans-Serif" font-size="10.00">+ AnimationSystem()</text>
<text text-anchor="start" x="42.5" y="-139.5" font-family="Helvetica,sans-Serif" font-size="10.00">+ generateTasks()</text>
<text text-anchor="start" x="42.5" y="-128.5" font-family="Helvetica,sans-Serif" font-size="10.00">+ handleAssetLoading()</text>
<text text-anchor="start" x="42.5" y="-117.5" font-family="Helvetica,sans-Serif" font-size="10.00">+ setPlaying()</text>
<text text-anchor="start" x="42.5" y="-106.5" font-family="Helvetica,sans-Serif" font-size="10.00">+ step()</text>
<text text-anchor="start" x="42.5" y="-95.5" font-family="Helvetica,sans-Serif" font-size="10.00">+ reset()</text>
<text text-anchor="start" x="42.5" y="-84.5" font-family="Helvetica,sans-Serif" font-size="10.00">+ setXray()</text>
<text text-anchor="start" x="42.5" y="-73.5" font-family="Helvetica,sans-Serif" font-size="10.00">+ isXrayOn()</text>
<text text-anchor="start" x="42.5" y="-62.5" font-family="Helvetica,sans-Serif" font-size="10.00">+ toggleSkeleton()</text>
<text text-anchor="start" x="42.5" y="-51.5" font-family="Helvetica,sans-Serif" font-size="10.00">+ setAnimation()</text>
<text text-anchor="start" x="42.5" y="-40.5" font-family="Helvetica,sans-Serif" font-size="10.00">+ toggleAnimationTimeStep()</text>
<text text-anchor="start" x="42.5" y="-29.5" font-family="Helvetica,sans-Serif" font-size="10.00">+ setAnimationSpeed()</text>
<text text-anchor="start" x="42.5" y="-18.5" font-family="Helvetica,sans-Serif" font-size="10.00">+ toggleSlowMotion()</text>
<text text-anchor="start" x="42.5" y="-7.5" font-family="Helvetica,sans-Serif" font-size="10.00">+ getTime()</text>
</g>
<!-- Node2 -->
<g id="node2" class="node"><title>Node2</title>
<g id="a_node2"><a xlink:href="classRa_1_1Engine_1_1System.html" target="_top" xlink:title="{Ra::Engine::System\n||+ System()\l+ ~System()\l+ generateTasks()\l+ registerComponent()\l+ unregisterComponent()\l+ unregisterAllComponents()\l+ getEntityComponents()\l+ handleAssetLoading()\l}">
<polygon fill="white" stroke="black" points="35.5,-251 35.5,-385 176.5,-385 176.5,-251 35.5,-251"/>
<text text-anchor="middle" x="106" y="-373" font-family="Helvetica,sans-Serif" font-size="10.00">Ra::Engine::System</text>
<polyline fill="none" stroke="black" points="35.5,-366 176.5,-366 "/>
<text text-anchor="middle" x="106" y="-354" font-family="Helvetica,sans-Serif" font-size="10.00"> </text>
<polyline fill="none" stroke="black" points="35.5,-347 176.5,-347 "/>
<text text-anchor="start" x="43.5" y="-335" font-family="Helvetica,sans-Serif" font-size="10.00">+ System()</text>
<text text-anchor="start" x="43.5" y="-324" font-family="Helvetica,sans-Serif" font-size="10.00">+ ~System()</text>
<text text-anchor="start" x="43.5" y="-313" font-family="Helvetica,sans-Serif" font-size="10.00">+ generateTasks()</text>
<text text-anchor="start" x="43.5" y="-302" font-family="Helvetica,sans-Serif" font-size="10.00">+ registerComponent()</text>
<text text-anchor="start" x="43.5" y="-291" font-family="Helvetica,sans-Serif" font-size="10.00">+ unregisterComponent()</text>
<text text-anchor="start" x="43.5" y="-280" font-family="Helvetica,sans-Serif" font-size="10.00">+ unregisterAllComponents()</text>
<text text-anchor="start" x="43.5" y="-269" font-family="Helvetica,sans-Serif" font-size="10.00">+ getEntityComponents()</text>
<text text-anchor="start" x="43.5" y="-258" font-family="Helvetica,sans-Serif" font-size="10.00">+ handleAssetLoading()</text>
</a>
</g>
</g>
<!-- Node2&#45;&gt;Node1 -->
<g id="edge1" class="edge"><title>Node2&#45;&gt;Node1</title>
<path fill="none" stroke="midnightblue" d="M106,-240.714C106,-231.243 106,-221.434 106,-211.63"/>
<polygon fill="none" stroke="midnightblue" points="102.5,-240.843 106,-250.843 109.5,-240.843 102.5,-240.843"/>
</g>
<!-- Node3 -->
<g id="node3" class="node"><title>Node3</title>
<polygon fill="white" stroke="#bfbfbf" points="26.5,-434.5 26.5,-513.5 185.5,-513.5 185.5,-434.5 26.5,-434.5"/>
<text text-anchor="start" x="34.5" y="-501.5" font-family="Helvetica,sans-Serif" font-size="10.00">std::vector&lt; std::pair</text>
<text text-anchor="start" x="34.5" y="-490.5" font-family="Helvetica,sans-Serif" font-size="10.00">&lt; const Ra::Engine::Entity</text>
<text text-anchor="middle" x="106" y="-479.5" font-family="Helvetica,sans-Serif" font-size="10.00"> *, Ra::Engine::Component * &gt; &gt;</text>
<polyline fill="none" stroke="#bfbfbf" points="26.5,-472.5 185.5,-472.5 "/>
<text text-anchor="middle" x="106" y="-460.5" font-family="Helvetica,sans-Serif" font-size="10.00"> </text>
<polyline fill="none" stroke="#bfbfbf" points="26.5,-453.5 185.5,-453.5 "/>
<text text-anchor="middle" x="106" y="-441.5" font-family="Helvetica,sans-Serif" font-size="10.00"> </text>
</g>
<!-- Node3&#45;&gt;Node2 -->
<g id="edge2" class="edge"><title>Node3&#45;&gt;Node2</title>
<path fill="none" stroke="#404040" d="M106,-434.139C106,-422.863 106,-410.126 106,-397.34"/>
<polygon fill="none" stroke="#404040" points="106,-397.113 102,-391.113 106,-385.113 110,-391.113 106,-397.113"/>
<text text-anchor="middle" x="144" y="-407.5" font-family="Helvetica,sans-Serif" font-size="10.00"> #m_components</text>
</g>
<!-- Node4 -->
<g id="node4" class="node"><title>Node4</title>
<polygon fill="white" stroke="#bfbfbf" points="-0.5,-584.5 -0.5,-663.5 116.5,-663.5 116.5,-584.5 -0.5,-584.5"/>
<text text-anchor="start" x="7.5" y="-651.5" font-family="Helvetica,sans-Serif" font-size="10.00">pair&lt; const Ra::Engine</text>
<text text-anchor="start" x="7.5" y="-640.5" font-family="Helvetica,sans-Serif" font-size="10.00">::Entity *, Ra::Engine</text>
<text text-anchor="middle" x="58" y="-629.5" font-family="Helvetica,sans-Serif" font-size="10.00">::Component * &gt;</text>
<polyline fill="none" stroke="#bfbfbf" points="-0.5,-622.5 116.5,-622.5 "/>
<text text-anchor="middle" x="58" y="-610.5" font-family="Helvetica,sans-Serif" font-size="10.00"> </text>
<polyline fill="none" stroke="#bfbfbf" points="-0.5,-603.5 116.5,-603.5 "/>
<text text-anchor="middle" x="58" y="-591.5" font-family="Helvetica,sans-Serif" font-size="10.00"> </text>
</g>
<!-- Node4&#45;&gt;Node3 -->
<g id="edge3" class="edge"><title>Node4&#45;&gt;Node3</title>
<path fill="none" stroke="#404040" d="M67.6084,-584.179C71.903,-567.928 77.2838,-548.919 83,-532 83.7557,-529.763 84.5526,-527.487 85.3779,-525.196"/>
<polygon fill="none" stroke="#404040" points="85.4691,-524.952 83.8302,-517.93 89.682,-513.716 91.3209,-520.739 85.4691,-524.952"/>
<text text-anchor="middle" x="107.5" y="-546.5" font-family="Helvetica,sans-Serif" font-size="10.00"> +elements</text>
</g>
<!-- Node5 -->
<g id="node5" class="node"><title>Node5</title>
<g id="a_node5"><a xlink:title="STL class. ">
<polygon fill="white" stroke="#bfbfbf" points="134.5,-595.5 134.5,-652.5 221.5,-652.5 221.5,-595.5 134.5,-595.5"/>
<text text-anchor="middle" x="178" y="-640.5" font-family="Helvetica,sans-Serif" font-size="10.00">std::vector&lt; T &gt;</text>
<polyline fill="none" stroke="#bfbfbf" points="134.5,-633.5 221.5,-633.5 "/>
<text text-anchor="middle" x="178" y="-621.5" font-family="Helvetica,sans-Serif" font-size="10.00"> </text>
<polyline fill="none" stroke="#bfbfbf" points="134.5,-614.5 221.5,-614.5 "/>
<text text-anchor="middle" x="178" y="-602.5" font-family="Helvetica,sans-Serif" font-size="10.00"> </text>
</a>
</g>
</g>
<!-- Node5&#45;&gt;Node3 -->
<g id="edge4" class="edge"><title>Node5&#45;&gt;Node3</title>
<path fill="none" stroke="orange" d="M160.047,-586.096C149.303,-564.012 135.667,-535.982 124.78,-513.603"/>
<polygon fill="orange" stroke="orange" points="156.935,-587.701 164.457,-595.162 163.23,-584.639 156.935,-587.701"/>
<text text-anchor="start" x="148" y="-557.5" font-family="Helvetica,sans-Serif" font-size="10.00"> &lt; std::pair&lt; const</text>
<text text-anchor="start" x="148" y="-546.5" font-family="Helvetica,sans-Serif" font-size="10.00"> Ra::Engine::Entity</text>
<text text-anchor="middle" x="219.5" y="-535.5" font-family="Helvetica,sans-Serif" font-size="10.00"> *, Ra::Engine::Component * &gt; &gt;</text>
</g>
<!-- Node6 -->
<g id="node6" class="node"><title>Node6</title>
<polygon fill="white" stroke="#bfbfbf" points="163.5,-712.5 163.5,-769.5 192.5,-769.5 192.5,-712.5 163.5,-712.5"/>
<text text-anchor="middle" x="178" y="-757.5" font-family="Helvetica,sans-Serif" font-size="10.00">T</text>
<polyline fill="none" stroke="#bfbfbf" points="163.5,-750.5 192.5,-750.5 "/>
<text text-anchor="middle" x="178" y="-738.5" font-family="Helvetica,sans-Serif" font-size="10.00"> </text>
<polyline fill="none" stroke="#bfbfbf" points="163.5,-731.5 192.5,-731.5 "/>
<text text-anchor="middle" x="178" y="-719.5" font-family="Helvetica,sans-Serif" font-size="10.00"> </text>
</g>
<!-- Node6&#45;&gt;Node5 -->
<g id="edge5" class="edge"><title>Node6&#45;&gt;Node5</title>
<path fill="none" stroke="#404040" d="M178,-712.455C178,-698.193 178,-680.521 178,-664.803"/>
<polygon fill="none" stroke="#404040" points="178,-664.719 174,-658.719 178,-652.719 182,-658.719 178,-664.719"/>
<text text-anchor="middle" x="202.5" y="-685.5" font-family="Helvetica,sans-Serif" font-size="10.00"> +elements</text>
</g>
</g>
</svg>
