<?xml version="1.0" encoding="UTF-8" standalone="no"?>
<!DOCTYPE svg PUBLIC "-//W3C//DTD SVG 1.1//EN"
 "http://www.w3.org/Graphics/SVG/1.1/DTD/svg11.dtd">
<!-- Generated by graphviz version 2.36.0 (20140111.2315)
 -->
<!-- Title: AnimationPlugin::AnimationComponent::printSkeleton Pages: 1 -->
<svg width="430pt" height="38pt"
 viewBox="0.00 0.00 430.00 38.00" xmlns="http://www.w3.org/2000/svg" xmlns:xlink="http://www.w3.org/1999/xlink">
<g id="graph0" class="graph" transform="scale(1 1) rotate(0) translate(4 34)">
<title>AnimationPlugin::AnimationComponent::printSkeleton</title>
<polygon fill="white" stroke="none" points="-4,4 -4,-34 426,-34 426,4 -4,4"/>
<!-- Node1 -->
<g id="node1" class="node"><title>Node1</title>
<polygon fill="#bfbfbf" stroke="black" points="0.5,-0 0.5,-30 137.5,-30 137.5,-0 0.5,-0"/>
<text text-anchor="start" x="8.5" y="-18" font-family="Helvetica,sans-Serif" font-size="10.00">AnimationPlugin::Animation</text>
<text text-anchor="middle" x="69" y="-7" font-family="Helvetica,sans-Serif" font-size="10.00">Component::printSkeleton</text>
</g>
<!-- Node2 -->
<g id="node2" class="node"><title>Node2</title>
<g id="a_node2"><a xlink:href="classRa_1_1Core_1_1Animation_1_1Handle.html#af2c003e7a85469470d5591b019e8ab80" target="_top" xlink:title="Ra::Core::Animation\l::Handle::getLabel">
<polygon fill="white" stroke="black" points="174,-0 174,-30 280,-30 280,-0 174,-0"/>
<text text-anchor="start" x="182" y="-18" font-family="Helvetica,sans-Serif" font-size="10.00">Ra::Core::Animation</text>
<text text-anchor="middle" x="227" y="-7" font-family="Helvetica,sans-Serif" font-size="10.00">::Handle::getLabel</text>
</a>
</g>
</g>
<!-- Node1&#45;&gt;Node2 -->
<g id="edge1" class="edge"><title>Node1&#45;&gt;Node2</title>
<path fill="none" stroke="midnightblue" d="M137.517,-15C146.276,-15 155.215,-15 163.881,-15"/>
<polygon fill="midnightblue" stroke="midnightblue" points="163.902,-18.5001 173.902,-15 163.902,-11.5001 163.902,-18.5001"/>
</g>
<!-- Node3 -->
<g id="node3" class="node"><title>Node3</title>
<g id="a_node3"><a xlink:href="classRa_1_1Core_1_1Animation_1_1Handle.html#aba876355658e5f8953033d3bb8f18533" target="_top" xlink:title="Ra::Core::Animation\l::Handle::size">
<polygon fill="white" stroke="black" points="316,-0 316,-30 422,-30 422,-0 316,-0"/>
<text text-anchor="start" x="324" y="-18" font-family="Helvetica,sans-Serif" font-size="10.00">Ra::Core::Animation</text>
<text text-anchor="middle" x="369" y="-7" font-family="Helvetica,sans-Serif" font-size="10.00">::Handle::size</text>
</a>
</g>
</g>
<!-- Node2&#45;&gt;Node3 -->
<g id="edge2" class="edge"><title>Node2&#45;&gt;Node3</title>
<path fill="none" stroke="midnightblue" d="M280.131,-15C288.421,-15 297.07,-15 305.568,-15"/>
<polygon fill="midnightblue" stroke="midnightblue" points="305.826,-18.5001 315.826,-15 305.826,-11.5001 305.826,-18.5001"/>
</g>
</g>
</svg>
