<?xml version="1.0" encoding="UTF-8" standalone="no"?>
<!DOCTYPE svg PUBLIC "-//W3C//DTD SVG 1.1//EN"
 "http://www.w3.org/Graphics/SVG/1.1/DTD/svg11.dtd">
<!-- Generated by graphviz version 2.36.0 (20140111.2315)
 -->
<!-- Title: Ra::Core::TopologicalMesh::toTriangleMesh Pages: 1 -->
<svg width="526pt" height="436pt"
 viewBox="0.00 0.00 526.00 436.00" xmlns="http://www.w3.org/2000/svg" xmlns:xlink="http://www.w3.org/1999/xlink">
<g id="graph0" class="graph" transform="scale(1 1) rotate(0) translate(4 432)">
<title>Ra::Core::TopologicalMesh::toTriangleMesh</title>
<polygon fill="white" stroke="none" points="-4,4 -4,-432 522,-432 522,4 -4,4"/>
<!-- Node1 -->
<g id="node1" class="node"><title>Node1</title>
<polygon fill="#bfbfbf" stroke="black" points="0,-220 0,-250 136,-250 136,-220 0,-220"/>
<text text-anchor="start" x="8" y="-238" font-family="Helvetica,sans-Serif" font-size="10.00">Ra::Core::TopologicalMesh</text>
<text text-anchor="middle" x="68" y="-227" font-family="Helvetica,sans-Serif" font-size="10.00">::toTriangleMesh</text>
</g>
<!-- Node2 -->
<g id="node2" class="node"><title>Node2</title>
<g id="a_node2"><a xlink:href="namespaceRa_1_1Core.html#a03b3c56e9e857ea4bc6699ca1c580ff7" target="_top" xlink:title="OPERATOR. ">
<polygon fill="white" stroke="black" points="193,-408.5 193,-427.5 303,-427.5 303,-408.5 193,-408.5"/>
<text text-anchor="middle" x="248" y="-415.5" font-family="Helvetica,sans-Serif" font-size="10.00">Ra::Core::operator==</text>
</a>
</g>
</g>
<!-- Node1&#45;&gt;Node2 -->
<g id="edge1" class="edge"><title>Node1&#45;&gt;Node2</title>
<path fill="none" stroke="midnightblue" d="M74.1763,-250.408C85.9939,-283.146 118.172,-359.83 172,-399 175.482,-401.534 179.269,-403.731 183.229,-405.636"/>
<polygon fill="midnightblue" stroke="midnightblue" points="182.143,-408.975 192.721,-409.573 184.825,-402.509 182.143,-408.975"/>
</g>
<!-- Node3 -->
<g id="node3" class="node"><title>Node3</title>
<g id="a_node3"><a xlink:href="namespaceRa_1_1Core_1_1Vector.html#af564521564244ea832d4b66d9cff6fcc" target="_top" xlink:title="Component&#45;wise floor() function on a floating&#45;point vector. ">
<polygon fill="white" stroke="black" points="190,-370.5 190,-389.5 306,-389.5 306,-370.5 190,-370.5"/>
<text text-anchor="middle" x="248" y="-377.5" font-family="Helvetica,sans-Serif" font-size="10.00">Ra::Core::Vector::floor</text>
</a>
</g>
</g>
<!-- Node1&#45;&gt;Node3 -->
<g id="edge2" class="edge"><title>Node1&#45;&gt;Node3</title>
<path fill="none" stroke="midnightblue" d="M76.978,-250.059C91.9119,-276.731 126.713,-332.176 172,-361 175.346,-363.13 178.919,-365.021 182.62,-366.701"/>
<polygon fill="midnightblue" stroke="midnightblue" points="181.448,-370.001 192.033,-370.454 184.041,-363.499 181.448,-370.001"/>
</g>
<!-- Node4 -->
<g id="node4" class="node"><title>Node4</title>
<g id="a_node4"><a xlink:href="namespaceRa_1_1Core.html#a590e99cb2e8475e6a73d1f4f3ddbc916" target="_top" xlink:title="Ra::Core::addAttribPairToCore">
<polygon fill="white" stroke="black" points="172.5,-332.5 172.5,-351.5 323.5,-351.5 323.5,-332.5 172.5,-332.5"/>
<text text-anchor="middle" x="248" y="-339.5" font-family="Helvetica,sans-Serif" font-size="10.00">Ra::Core::addAttribPairToCore</text>
</a>
</g>
</g>
<!-- Node1&#45;&gt;Node4 -->
<g id="edge3" class="edge"><title>Node1&#45;&gt;Node4</title>
<path fill="none" stroke="midnightblue" d="M82.4309,-250.173C100.736,-269.906 135.446,-304.082 172,-323 176.507,-325.333 181.317,-327.39 186.243,-329.204"/>
<polygon fill="midnightblue" stroke="midnightblue" points="185.215,-332.551 195.809,-332.398 187.432,-325.911 185.215,-332.551"/>
</g>
<!-- Node7 -->
<g id="node7" class="node"><title>Node7</title>
<g id="a_node7"><a xlink:href="classRa_1_1Core_1_1TriangleMesh.html#a495116f40cfec8bb6504698d786d4b8c" target="_top" xlink:title="Ra::Core::TriangleMesh\l::vertices">
<polygon fill="white" stroke="black" points="187.5,-147 187.5,-177 308.5,-177 308.5,-147 187.5,-147"/>
<text text-anchor="start" x="195.5" y="-165" font-family="Helvetica,sans-Serif" font-size="10.00">Ra::Core::TriangleMesh</text>
<text text-anchor="middle" x="248" y="-154" font-family="Helvetica,sans-Serif" font-size="10.00">::vertices</text>
</a>
</g>
</g>
<!-- Node1&#45;&gt;Node7 -->
<g id="edge6" class="edge"><title>Node1&#45;&gt;Node7</title>
<path fill="none" stroke="midnightblue" d="M97.8399,-219.998C118.24,-209.705 146.406,-196.13 172,-186 176.803,-184.099 181.821,-182.237 186.888,-180.443"/>
<polygon fill="midnightblue" stroke="midnightblue" points="188.328,-183.648 196.645,-177.085 186.05,-177.029 188.328,-183.648"/>
</g>
<!-- Node9 -->
<g id="node9" class="node"><title>Node9</title>
<g id="a_node9"><a xlink:href="classRa_1_1Core_1_1TriangleMesh.html#a40d31b7b2943947d6eac5d906f0182fd" target="_top" xlink:title="Ra::Core::TriangleMesh\l::normals">
<polygon fill="white" stroke="black" points="187.5,-245 187.5,-275 308.5,-275 308.5,-245 187.5,-245"/>
<text text-anchor="start" x="195.5" y="-263" font-family="Helvetica,sans-Serif" font-size="10.00">Ra::Core::TriangleMesh</text>
<text text-anchor="middle" x="248" y="-252" font-family="Helvetica,sans-Serif" font-size="10.00">::normals</text>
</a>
</g>
</g>
<!-- Node1&#45;&gt;Node9 -->
<g id="edge8" class="edge"><title>Node1&#45;&gt;Node9</title>
<path fill="none" stroke="midnightblue" d="M136.041,-244.416C149.47,-246.302 163.61,-248.288 177.132,-250.187"/>
<polygon fill="midnightblue" stroke="midnightblue" points="176.94,-253.694 187.33,-251.619 177.914,-246.762 176.94,-253.694"/>
</g>
<!-- Node10 -->
<g id="node10" class="node"><title>Node10</title>
<g id="a_node10"><a xlink:href="namespaceRa_1_1Engine_1_1DrawPrimitives.html#a2eff9774611ef4e9cdfb2ac969182123" target="_top" xlink:title="Displays given point shown as the crossing of 3 lines of length &#39;scale&#39;. ">
<polygon fill="white" stroke="black" points="179,-196 179,-226 317,-226 317,-196 179,-196"/>
<text text-anchor="start" x="187" y="-214" font-family="Helvetica,sans-Serif" font-size="10.00">Ra::Engine::DrawPrimitives</text>
<text text-anchor="middle" x="248" y="-203" font-family="Helvetica,sans-Serif" font-size="10.00">::Point</text>
</a>
</g>
</g>
<!-- Node1&#45;&gt;Node10 -->
<g id="edge10" class="edge"><title>Node1&#45;&gt;Node10</title>
<path fill="none" stroke="midnightblue" d="M136.041,-225.961C146.755,-224.516 157.922,-223.011 168.866,-221.535"/>
<polygon fill="midnightblue" stroke="midnightblue" points="169.393,-224.996 178.836,-220.191 168.458,-218.058 169.393,-224.996"/>
</g>
<!-- Node11 -->
<g id="node11" class="node"><title>Node11</title>
<g id="a_node11"><a xlink:href="namespaceRa_1_1Engine_1_1DrawPrimitives.html#a7c7d8914b3f2f176becda99c2c6453c0" target="_top" xlink:title="Ra::Engine::DrawPrimitives\l::Normal">
<polygon fill="white" stroke="black" points="179,-98 179,-128 317,-128 317,-98 179,-98"/>
<text text-anchor="start" x="187" y="-116" font-family="Helvetica,sans-Serif" font-size="10.00">Ra::Engine::DrawPrimitives</text>
<text text-anchor="middle" x="248" y="-105" font-family="Helvetica,sans-Serif" font-size="10.00">::Normal</text>
</a>
</g>
</g>
<!-- Node1&#45;&gt;Node11 -->
<g id="edge11" class="edge"><title>Node1&#45;&gt;Node11</title>
<path fill="none" stroke="midnightblue" d="M81.0344,-219.85C98.7797,-198.466 133.994,-159.53 172,-137 174.822,-135.327 177.775,-133.756 180.808,-132.284"/>
<polygon fill="midnightblue" stroke="midnightblue" points="182.382,-135.415 190.101,-128.158 179.541,-129.017 182.382,-135.415"/>
</g>
<!-- Node14 -->
<g id="node14" class="node"><title>Node14</title>
<g id="a_node14"><a xlink:href="classRa_1_1Core_1_1TopologicalMesh.html#ab2cb8423577f2627cdd4fda99c2ef263" target="_top" xlink:title="Ra::Core::TopologicalMesh\l::normal">
<polygon fill="white" stroke="black" points="180,-0 180,-30 316,-30 316,-0 180,-0"/>
<text text-anchor="start" x="188" y="-18" font-family="Helvetica,sans-Serif" font-size="10.00">Ra::Core::TopologicalMesh</text>
<text text-anchor="middle" x="248" y="-7" font-family="Helvetica,sans-Serif" font-size="10.00">::normal</text>
</a>
</g>
</g>
<!-- Node1&#45;&gt;Node14 -->
<g id="edge14" class="edge"><title>Node1&#45;&gt;Node14</title>
<path fill="none" stroke="midnightblue" d="M72.6594,-219.997C82.3398,-183.481 112.085,-89.2943 172,-39 173.531,-37.7145 175.133,-36.4975 176.791,-35.3455"/>
<polygon fill="midnightblue" stroke="midnightblue" points="178.73,-38.2636 185.494,-30.1094 175.121,-32.2654 178.73,-38.2636"/>
</g>
<!-- Node16 -->
<g id="node16" class="node"><title>Node16</title>
<g id="a_node16"><a xlink:href="namespaceRa_1_1Core.html#a2e7a509372fc164b4969198b639345ff" target="_top" xlink:title="Ra::Core::copyAttribToCore\lVertex">
<polygon fill="white" stroke="black" points="178.5,-49 178.5,-79 317.5,-79 317.5,-49 178.5,-49"/>
<text text-anchor="start" x="186.5" y="-67" font-family="Helvetica,sans-Serif" font-size="10.00">Ra::Core::copyAttribToCore</text>
<text text-anchor="middle" x="248" y="-56" font-family="Helvetica,sans-Serif" font-size="10.00">Vertex</text>
</a>
</g>
</g>
<!-- Node1&#45;&gt;Node16 -->
<g id="edge16" class="edge"><title>Node1&#45;&gt;Node16</title>
<path fill="none" stroke="midnightblue" d="M75.6316,-219.617C89.2686,-189.781 123.318,-123.844 172,-88 173.878,-86.617 175.84,-85.3117 177.864,-84.0799"/>
<polygon fill="midnightblue" stroke="midnightblue" points="179.926,-86.9457 187.087,-79.1371 176.62,-80.7759 179.926,-86.9457"/>
</g>
<!-- Node17 -->
<g id="node17" class="node"><title>Node17</title>
<g id="a_node17"><a xlink:href="namespaceRa_1_1Core.html#a12056253eedcfdb1b03622ef59928739" target="_top" xlink:title="Ra::Core::copyAttribToCore">
<polygon fill="white" stroke="black" points="178.5,-294.5 178.5,-313.5 317.5,-313.5 317.5,-294.5 178.5,-294.5"/>
<text text-anchor="middle" x="248" y="-301.5" font-family="Helvetica,sans-Serif" font-size="10.00">Ra::Core::copyAttribToCore</text>
</a>
</g>
</g>
<!-- Node1&#45;&gt;Node17 -->
<g id="edge17" class="edge"><title>Node1&#45;&gt;Node17</title>
<path fill="none" stroke="midnightblue" d="M97.2514,-250.172C117.615,-260.676 145.98,-274.433 172,-284 179.643,-286.81 187.857,-289.408 195.946,-291.737"/>
<polygon fill="midnightblue" stroke="midnightblue" points="195.133,-295.144 205.705,-294.441 197.003,-288.398 195.133,-295.144"/>
</g>
<!-- Node5 -->
<g id="node5" class="node"><title>Node5</title>
<g id="a_node5"><a xlink:href="classRa_1_1Core_1_1TriangleMesh.html#a49ec63044477bd5bdff8d57a5114f011" target="_top" xlink:title="Ra::Core::TriangleMesh\l::attribManager">
<polygon fill="white" stroke="black" points="378.5,-291 378.5,-321 499.5,-321 499.5,-291 378.5,-291"/>
<text text-anchor="start" x="386.5" y="-309" font-family="Helvetica,sans-Serif" font-size="10.00">Ra::Core::TriangleMesh</text>
<text text-anchor="middle" x="439" y="-298" font-family="Helvetica,sans-Serif" font-size="10.00">::attribManager</text>
</a>
</g>
</g>
<!-- Node4&#45;&gt;Node5 -->
<g id="edge4" class="edge"><title>Node4&#45;&gt;Node5</title>
<path fill="none" stroke="midnightblue" d="M299.152,-332.447C320.301,-328.419 345.281,-323.661 368.182,-319.299"/>
<polygon fill="midnightblue" stroke="midnightblue" points="369.025,-322.701 378.193,-317.392 367.715,-315.825 369.025,-322.701"/>
</g>
<!-- Node6 -->
<g id="node6" class="node"><title>Node6</title>
<g id="a_node6"><a xlink:href="classRa_1_1Core_1_1AttribManager.html#aba5ff01e716bf2cfe571edad8b289ed9" target="_top" xlink:title="Add attribute by name. ">
<polygon fill="white" stroke="black" points="377.5,-340 377.5,-370 500.5,-370 500.5,-340 377.5,-340"/>
<text text-anchor="start" x="385.5" y="-358" font-family="Helvetica,sans-Serif" font-size="10.00">Ra::Core::AttribManager</text>
<text text-anchor="middle" x="439" y="-347" font-family="Helvetica,sans-Serif" font-size="10.00">::addAttrib</text>
</a>
</g>
</g>
<!-- Node4&#45;&gt;Node6 -->
<g id="edge5" class="edge"><title>Node4&#45;&gt;Node6</title>
<path fill="none" stroke="midnightblue" d="M323.698,-347.138C337.979,-348.12 352.891,-349.146 367.051,-350.12"/>
<polygon fill="midnightblue" stroke="midnightblue" points="366.991,-353.624 377.208,-350.819 367.472,-346.64 366.991,-353.624"/>
</g>
<!-- Node8 -->
<g id="node8" class="node"><title>Node8</title>
<g id="a_node8"><a xlink:href="classRa_1_1Core_1_1AttribManager.html#a2344159a1926da905e4c44cd95744d59" target="_top" xlink:title="Get attribute by handle. ">
<polygon fill="white" stroke="black" points="377.5,-242 377.5,-272 500.5,-272 500.5,-242 377.5,-242"/>
<text text-anchor="start" x="385.5" y="-260" font-family="Helvetica,sans-Serif" font-size="10.00">Ra::Core::AttribManager</text>
<text text-anchor="middle" x="439" y="-249" font-family="Helvetica,sans-Serif" font-size="10.00">::getAttrib</text>
</a>
</g>
</g>
<!-- Node7&#45;&gt;Node8 -->
<g id="edge7" class="edge"><title>Node7&#45;&gt;Node8</title>
<path fill="none" stroke="midnightblue" d="M301.681,-177.028C309.287,-179.723 316.928,-182.728 324,-186 354.263,-200.003 386.292,-220.519 408.669,-235.901"/>
<polygon fill="midnightblue" stroke="midnightblue" points="406.835,-238.889 417.043,-241.728 410.833,-233.143 406.835,-238.889"/>
</g>
<!-- Node9&#45;&gt;Node8 -->
<g id="edge9" class="edge"><title>Node9&#45;&gt;Node8</title>
<path fill="none" stroke="midnightblue" d="M308.541,-259.055C327.16,-258.759 347.887,-258.43 367.201,-258.124"/>
<polygon fill="midnightblue" stroke="midnightblue" points="367.514,-261.619 377.457,-257.961 367.403,-254.62 367.514,-261.619"/>
</g>
<!-- Node12 -->
<g id="node12" class="node"><title>Node12</title>
<g id="a_node12"><a xlink:href="namespaceRa_1_1Core_1_1Vector.html#a0464b705193d326a5102691dd58d753d" target="_top" xlink:title="Get two vectors orthogonal to a given vector. ">
<polygon fill="white" stroke="black" points="360,-122 360,-152 518,-152 518,-122 360,-122"/>
<text text-anchor="start" x="368" y="-140" font-family="Helvetica,sans-Serif" font-size="10.00">Ra::Core::Vector::getOrthogonal</text>
<text text-anchor="middle" x="439" y="-129" font-family="Helvetica,sans-Serif" font-size="10.00">Vectors</text>
</a>
</g>
</g>
<!-- Node11&#45;&gt;Node12 -->
<g id="edge12" class="edge"><title>Node11&#45;&gt;Node12</title>
<path fill="none" stroke="midnightblue" d="M317.233,-121.665C327.838,-123.011 338.923,-124.419 349.892,-125.812"/>
<polygon fill="midnightblue" stroke="midnightblue" points="349.555,-129.297 359.916,-127.085 350.436,-122.353 349.555,-129.297"/>
</g>
<!-- Node13 -->
<g id="node13" class="node"><title>Node13</title>
<g id="a_node13"><a xlink:href="namespaceRa_1_1Core_1_1QuaternionUtils.html#ae49b72169aa4a3cb300979b34c6e1289" target="_top" xlink:title="Returns the quaternion q multipled by a scalar factor of k. ">
<polygon fill="white" stroke="black" points="374,-73 374,-103 504,-103 504,-73 374,-73"/>
<text text-anchor="start" x="382" y="-91" font-family="Helvetica,sans-Serif" font-size="10.00">Ra::Core::QuaternionUtils</text>
<text text-anchor="middle" x="439" y="-80" font-family="Helvetica,sans-Serif" font-size="10.00">::scale</text>
</a>
</g>
</g>
<!-- Node11&#45;&gt;Node13 -->
<g id="edge13" class="edge"><title>Node11&#45;&gt;Node13</title>
<path fill="none" stroke="midnightblue" d="M317.233,-103.974C332.412,-101.967 348.573,-99.8289 363.972,-97.792"/>
<polygon fill="midnightblue" stroke="midnightblue" points="364.509,-101.252 373.964,-96.4704 363.591,-94.312 364.509,-101.252"/>
</g>
<!-- Node15 -->
<g id="node15" class="node"><title>Node15</title>
<g id="a_node15"><a xlink:href="classRa_1_1Core_1_1TopologicalMesh.html#abe2a6ac857a94f53fa1180c12ce034f8" target="_top" xlink:title="Return the half&#45;edge associated with a given vertex and face. ">
<polygon fill="white" stroke="black" points="371,-0 371,-30 507,-30 507,-0 371,-0"/>
<text text-anchor="start" x="379" y="-18" font-family="Helvetica,sans-Serif" font-size="10.00">Ra::Core::TopologicalMesh</text>
<text text-anchor="middle" x="439" y="-7" font-family="Helvetica,sans-Serif" font-size="10.00">::halfedge_handle</text>
</a>
</g>
</g>
<!-- Node14&#45;&gt;Node15 -->
<g id="edge15" class="edge"><title>Node14&#45;&gt;Node15</title>
<path fill="none" stroke="midnightblue" d="M316.166,-15C330.563,-15 345.886,-15 360.633,-15"/>
<polygon fill="midnightblue" stroke="midnightblue" points="360.732,-18.5001 370.732,-15 360.732,-11.5001 360.732,-18.5001"/>
</g>
<!-- Node17&#45;&gt;Node5 -->
<g id="edge18" class="edge"><title>Node17&#45;&gt;Node5</title>
<path fill="none" stroke="midnightblue" d="M317.501,-304.725C334.035,-304.9 351.721,-305.087 368.31,-305.263"/>
<polygon fill="midnightblue" stroke="midnightblue" points="368.44,-308.764 378.476,-305.37 368.514,-301.764 368.44,-308.764"/>
</g>
<!-- Node17&#45;&gt;Node8 -->
<g id="edge19" class="edge"><title>Node17&#45;&gt;Node8</title>
<path fill="none" stroke="midnightblue" d="M287.247,-294.489C310.303,-288.755 340.383,-281.275 367.603,-274.506"/>
<polygon fill="midnightblue" stroke="midnightblue" points="368.625,-277.859 377.484,-272.049 366.935,-271.066 368.625,-277.859"/>
</g>
</g>
</svg>
