<?xml version="1.0" encoding="UTF-8" standalone="no"?>
<!DOCTYPE svg PUBLIC "-//W3C//DTD SVG 1.1//EN"
 "http://www.w3.org/Graphics/SVG/1.1/DTD/svg11.dtd">
<!-- Generated by graphviz version 2.36.0 (20140111.2315)
 -->
<!-- Title: Ra::Engine::Mesh::addData Pages: 1 -->
<svg width="306pt" height="136pt"
 viewBox="0.00 0.00 306.00 136.00" xmlns="http://www.w3.org/2000/svg" xmlns:xlink="http://www.w3.org/1999/xlink">
<g id="graph0" class="graph" transform="scale(1 1) rotate(0) translate(4 132)">
<title>Ra::Engine::Mesh::addData</title>
<polygon fill="white" stroke="none" points="-4,4 -4,-132 302,-132 302,4 -4,4"/>
<!-- Node1 -->
<g id="node1" class="node"><title>Node1</title>
<polygon fill="#bfbfbf" stroke="black" points="0,-54.5 0,-73.5 138,-73.5 138,-54.5 0,-54.5"/>
<text text-anchor="middle" x="69" y="-61.5" font-family="Helvetica,sans-Serif" font-size="10.00">Ra::Engine::Mesh::addData</text>
</g>
<!-- Node2 -->
<g id="node2" class="node"><title>Node2</title>
<g id="a_node2"><a xlink:href="classRa_1_1Core_1_1TriangleMesh.html#a49ec63044477bd5bdff8d57a5114f011" target="_top" xlink:title="Ra::Core::TriangleMesh\l::attribManager">
<polygon fill="white" stroke="black" points="175.5,-98 175.5,-128 296.5,-128 296.5,-98 175.5,-98"/>
<text text-anchor="start" x="183.5" y="-116" font-family="Helvetica,sans-Serif" font-size="10.00">Ra::Core::TriangleMesh</text>
<text text-anchor="middle" x="236" y="-105" font-family="Helvetica,sans-Serif" font-size="10.00">::attribManager</text>
</a>
</g>
</g>
<!-- Node1&#45;&gt;Node2 -->
<g id="edge1" class="edge"><title>Node1&#45;&gt;Node2</title>
<path fill="none" stroke="midnightblue" d="M102.205,-73.564C122.821,-79.6863 150.213,-87.8208 174.762,-95.1111"/>
<polygon fill="midnightblue" stroke="midnightblue" points="173.783,-98.4713 184.365,-97.963 175.776,-91.761 173.783,-98.4713"/>
</g>
<!-- Node3 -->
<g id="node3" class="node"><title>Node3</title>
<g id="a_node3"><a xlink:href="classRa_1_1Core_1_1AttribManager.html#aba5ff01e716bf2cfe571edad8b289ed9" target="_top" xlink:title="Add attribute by name. ">
<polygon fill="white" stroke="black" points="174.5,-49 174.5,-79 297.5,-79 297.5,-49 174.5,-49"/>
<text text-anchor="start" x="182.5" y="-67" font-family="Helvetica,sans-Serif" font-size="10.00">Ra::Core::AttribManager</text>
<text text-anchor="middle" x="236" y="-56" font-family="Helvetica,sans-Serif" font-size="10.00">::addAttrib</text>
</a>
</g>
</g>
<!-- Node1&#45;&gt;Node3 -->
<g id="edge2" class="edge"><title>Node1&#45;&gt;Node3</title>
<path fill="none" stroke="midnightblue" d="M138.064,-64C146.742,-64 155.639,-64 164.356,-64"/>
<polygon fill="midnightblue" stroke="midnightblue" points="164.482,-67.5001 174.482,-64 164.482,-60.5001 164.482,-67.5001"/>
</g>
<!-- Node4 -->
<g id="node4" class="node"><title>Node4</title>
<g id="a_node4"><a xlink:href="classRa_1_1Core_1_1AttribManager.html#a2344159a1926da905e4c44cd95744d59" target="_top" xlink:title="Get attribute by handle. ">
<polygon fill="white" stroke="black" points="174.5,-0 174.5,-30 297.5,-30 297.5,-0 174.5,-0"/>
<text text-anchor="start" x="182.5" y="-18" font-family="Helvetica,sans-Serif" font-size="10.00">Ra::Core::AttribManager</text>
<text text-anchor="middle" x="236" y="-7" font-family="Helvetica,sans-Serif" font-size="10.00">::getAttrib</text>
</a>
</g>
</g>
<!-- Node1&#45;&gt;Node4 -->
<g id="edge3" class="edge"><title>Node1&#45;&gt;Node4</title>
<path fill="none" stroke="midnightblue" d="M102.205,-54.436C122.821,-48.3137 150.213,-40.1792 174.762,-32.8889"/>
<polygon fill="midnightblue" stroke="midnightblue" points="175.776,-36.239 184.365,-30.037 173.783,-29.5287 175.776,-36.239"/>
</g>
</g>
</svg>
