<?xml version="1.0" encoding="UTF-8" standalone="no"?>
<!DOCTYPE svg PUBLIC "-//W3C//DTD SVG 1.1//EN"
 "http://www.w3.org/Graphics/SVG/1.1/DTD/svg11.dtd">
<!-- Generated by graphviz version 2.36.0 (20140111.2315)
 -->
<!-- Title: Ra::Core::Geometry::VariationalShapeApproximationBase&lt; K_Region &gt; Pages: 1 -->
<svg width="1294pt" height="1296pt"
 viewBox="0.00 0.00 1294.00 1296.00" xmlns="http://www.w3.org/2000/svg" xmlns:xlink="http://www.w3.org/1999/xlink">
<g id="graph0" class="graph" transform="scale(1 1) rotate(0) translate(4 1292)">
<title>Ra::Core::Geometry::VariationalShapeApproximationBase&lt; K_Region &gt;</title>
<polygon fill="white" stroke="none" points="-4,4 -4,-1292 1290,-1292 1290,4 -4,4"/>
<!-- Node1 -->
<g id="node1" class="node"><title>Node1</title>
<polygon fill="#bfbfbf" stroke="black" points="561,-0.5 561,-277.5 757,-277.5 757,-0.5 561,-0.5"/>
<text text-anchor="start" x="569" y="-265.5" font-family="Helvetica,sans-Serif" font-size="10.00">Ra::Core::Geometry</text>
<text text-anchor="start" x="569" y="-254.5" font-family="Helvetica,sans-Serif" font-size="10.00">::VariationalShapeApproximation</text>
<text text-anchor="middle" x="659" y="-243.5" font-family="Helvetica,sans-Serif" font-size="10.00">Base&lt; K_Region &gt;</text>
<polyline fill="none" stroke="black" points="561,-236.5 757,-236.5 "/>
<text text-anchor="middle" x="659" y="-224.5" font-family="Helvetica,sans-Serif" font-size="10.00"> </text>
<polyline fill="none" stroke="black" points="561,-217.5 757,-217.5 "/>
<text text-anchor="start" x="569" y="-205.5" font-family="Helvetica,sans-Serif" font-size="10.00">+ VariationalShapeApproximationBase()</text>
<text text-anchor="start" x="569" y="-194.5" font-family="Helvetica,sans-Serif" font-size="10.00">+ VariationalShapeApproximationBase()</text>
<text text-anchor="start" x="569" y="-183.5" font-family="Helvetica,sans-Serif" font-size="10.00">+ VariationalShapeApproximationBase()</text>
<text text-anchor="start" x="569" y="-172.5" font-family="Helvetica,sans-Serif" font-size="10.00">+ ~VariationalShapeApproximationBase()</text>
<text text-anchor="start" x="569" y="-161.5" font-family="Helvetica,sans-Serif" font-size="10.00">+ init()</text>
<text text-anchor="start" x="569" y="-150.5" font-family="Helvetica,sans-Serif" font-size="10.00">+ initialized()</text>
<text text-anchor="start" x="569" y="-139.5" font-family="Helvetica,sans-Serif" font-size="10.00">+ exec()</text>
<text text-anchor="start" x="569" y="-128.5" font-family="Helvetica,sans-Serif" font-size="10.00">+ exec()</text>
<text text-anchor="start" x="569" y="-117.5" font-family="Helvetica,sans-Serif" font-size="10.00">+ region()</text>
<text text-anchor="start" x="569" y="-106.5" font-family="Helvetica,sans-Serif" font-size="10.00">+ proxy()</text>
<text text-anchor="start" x="569" y="-95.5" font-family="Helvetica,sans-Serif" font-size="10.00">+ create_region_color()</text>
<text text-anchor="start" x="569" y="-84.5" font-family="Helvetica,sans-Serif" font-size="10.00">+ create_energy_color()</text>
<text text-anchor="start" x="569" y="-73.5" font-family="Helvetica,sans-Serif" font-size="10.00">+ shuffle_regions()</text>
<text text-anchor="start" x="569" y="-62.5" font-family="Helvetica,sans-Serif" font-size="10.00"># compute_data()</text>
<text text-anchor="start" x="569" y="-51.5" font-family="Helvetica,sans-Serif" font-size="10.00"># compute_seed()</text>
<text text-anchor="start" x="569" y="-40.5" font-family="Helvetica,sans-Serif" font-size="10.00"># geometry_partitioning()</text>
<text text-anchor="start" x="569" y="-29.5" font-family="Helvetica,sans-Serif" font-size="10.00"># add_neighbors_to_queue()</text>
<text text-anchor="start" x="569" y="-18.5" font-family="Helvetica,sans-Serif" font-size="10.00"># proxy_fitting()</text>
<text text-anchor="start" x="569" y="-7.5" font-family="Helvetica,sans-Serif" font-size="10.00"># E()</text>
</g>
<!-- Node2 -->
<g id="node2" class="node"><title>Node2</title>
<polygon fill="white" stroke="#bfbfbf" points="-0.5,-391.5 -0.5,-448.5 78.5,-448.5 78.5,-391.5 -0.5,-391.5"/>
<text text-anchor="middle" x="39" y="-436.5" font-family="Helvetica,sans-Serif" font-size="10.00">value_type &gt;&gt;</text>
<polyline fill="none" stroke="#bfbfbf" points="-0.5,-429.5 78.5,-429.5 "/>
<text text-anchor="middle" x="39" y="-417.5" font-family="Helvetica,sans-Serif" font-size="10.00"> </text>
<polyline fill="none" stroke="#bfbfbf" points="-0.5,-410.5 78.5,-410.5 "/>
<text text-anchor="middle" x="39" y="-398.5" font-family="Helvetica,sans-Serif" font-size="10.00"> </text>
</g>
<!-- Node2&#45;&gt;Node1 -->
<g id="edge1" class="edge"><title>Node2&#45;&gt;Node1</title>
<path fill="none" stroke="#404040" d="M49.2471,-391.488C57.1535,-373.565 69.6827,-350.838 87,-336 220.365,-221.728 423.716,-173.105 548.617,-153.129"/>
<polygon fill="none" stroke="#404040" points="548.971,-153.074 554.284,-148.198 560.828,-151.227 555.515,-156.103 548.971,-153.074"/>
<text text-anchor="middle" x="163.5" y="-304.5" font-family="Helvetica,sans-Serif" font-size="10.00"> #m_queue</text>
</g>
<!-- Node3 -->
<g id="node3" class="node"><title>Node3</title>
<polygon fill="white" stroke="#bfbfbf" points="96.5,-391.5 96.5,-448.5 201.5,-448.5 201.5,-391.5 96.5,-391.5"/>
<text text-anchor="middle" x="149" y="-436.5" font-family="Helvetica,sans-Serif" font-size="10.00">static constexpr uint</text>
<polyline fill="none" stroke="#bfbfbf" points="96.5,-429.5 201.5,-429.5 "/>
<text text-anchor="middle" x="149" y="-417.5" font-family="Helvetica,sans-Serif" font-size="10.00"> </text>
<polyline fill="none" stroke="#bfbfbf" points="96.5,-410.5 201.5,-410.5 "/>
<text text-anchor="middle" x="149" y="-398.5" font-family="Helvetica,sans-Serif" font-size="10.00"> </text>
</g>
<!-- Node3&#45;&gt;Node1 -->
<g id="edge2" class="edge"><title>Node3&#45;&gt;Node1</title>
<path fill="none" stroke="#404040" d="M164.467,-391.409C175.539,-373.68 191.839,-351.206 211,-336 312.764,-255.241 452.949,-200.996 549.257,-170.424"/>
<polygon fill="none" stroke="#404040" points="549.328,-170.402 553.858,-164.791 560.779,-166.813 556.25,-172.425 549.328,-170.402"/>
<text text-anchor="middle" x="273" y="-304.5" font-family="Helvetica,sans-Serif" font-size="10.00"> +K</text>
</g>
<!-- Node4 -->
<g id="node4" class="node"><title>Node4</title>
<polygon fill="white" stroke="#bfbfbf" points="220,-391.5 220,-448.5 334,-448.5 334,-391.5 220,-391.5"/>
<text text-anchor="middle" x="277" y="-436.5" font-family="Helvetica,sans-Serif" font-size="10.00">std::array&lt; Proxy, K &gt;</text>
<polyline fill="none" stroke="#bfbfbf" points="220,-429.5 334,-429.5 "/>
<text text-anchor="middle" x="277" y="-417.5" font-family="Helvetica,sans-Serif" font-size="10.00"> </text>
<polyline fill="none" stroke="#bfbfbf" points="220,-410.5 334,-410.5 "/>
<text text-anchor="middle" x="277" y="-398.5" font-family="Helvetica,sans-Serif" font-size="10.00"> </text>
</g>
<!-- Node4&#45;&gt;Node1 -->
<g id="edge3" class="edge"><title>Node4&#45;&gt;Node1</title>
<path fill="none" stroke="#404040" d="M295.398,-391.202C307.607,-374.042 324.707,-352.275 343,-336 405.707,-280.21 486.224,-230.535 550.288,-195.152"/>
<polygon fill="none" stroke="#404040" points="550.305,-195.143 553.645,-188.752 560.829,-189.377 557.489,-195.768 550.305,-195.143"/>
<text text-anchor="middle" x="413" y="-304.5" font-family="Helvetica,sans-Serif" font-size="10.00"> #m_proxy</text>
</g>
<!-- Node5 -->
<g id="node5" class="node"><title>Node5</title>
<polygon fill="white" stroke="#bfbfbf" points="226,-573.5 226,-630.5 268,-630.5 268,-573.5 226,-573.5"/>
<text text-anchor="middle" x="247" y="-618.5" font-family="Helvetica,sans-Serif" font-size="10.00">Proxy</text>
<polyline fill="none" stroke="#bfbfbf" points="226,-611.5 268,-611.5 "/>
<text text-anchor="middle" x="247" y="-599.5" font-family="Helvetica,sans-Serif" font-size="10.00"> </text>
<polyline fill="none" stroke="#bfbfbf" points="226,-592.5 268,-592.5 "/>
<text text-anchor="middle" x="247" y="-580.5" font-family="Helvetica,sans-Serif" font-size="10.00"> </text>
</g>
<!-- Node5&#45;&gt;Node4 -->
<g id="edge4" class="edge"><title>Node5&#45;&gt;Node4</title>
<path fill="none" stroke="#404040" d="M245.556,-573.437C245.206,-558.195 245.503,-538.963 248,-522 251.051,-501.272 257.201,-478.815 263.055,-460.353"/>
<polygon fill="none" stroke="#404040" points="263.086,-460.258 261.154,-453.31 266.824,-448.855 268.756,-455.802 263.086,-460.258"/>
<text text-anchor="middle" x="272.5" y="-530.5" font-family="Helvetica,sans-Serif" font-size="10.00"> +elements</text>
</g>
<!-- Node6 -->
<g id="node6" class="node"><title>Node6</title>
<g id="a_node6"><a xlink:title="STL class. ">
<polygon fill="white" stroke="#bfbfbf" points="361,-573.5 361,-630.5 443,-630.5 443,-573.5 361,-573.5"/>
<text text-anchor="middle" x="402" y="-618.5" font-family="Helvetica,sans-Serif" font-size="10.00">std::array&lt; T &gt;</text>
<polyline fill="none" stroke="#bfbfbf" points="361,-611.5 443,-611.5 "/>
<text text-anchor="middle" x="402" y="-599.5" font-family="Helvetica,sans-Serif" font-size="10.00"> </text>
<polyline fill="none" stroke="#bfbfbf" points="361,-592.5 443,-592.5 "/>
<text text-anchor="middle" x="402" y="-580.5" font-family="Helvetica,sans-Serif" font-size="10.00"> </text>
</a>
</g>
</g>
<!-- Node6&#45;&gt;Node4 -->
<g id="edge5" class="edge"><title>Node6&#45;&gt;Node4</title>
<path fill="none" stroke="orange" d="M358.943,-566.006C351.809,-559.136 344.843,-551.668 339,-544 316.245,-514.137 298.081,-474.641 287.436,-448.559"/>
<polygon fill="orange" stroke="orange" points="356.995,-568.973 366.706,-573.208 361.756,-563.841 356.995,-568.973"/>
<text text-anchor="middle" x="369" y="-530.5" font-family="Helvetica,sans-Serif" font-size="10.00"> &lt; Proxy, K &gt;</text>
</g>
<!-- Node8 -->
<g id="node8" class="node"><title>Node8</title>
<polygon fill="white" stroke="#bfbfbf" points="352.5,-391.5 352.5,-448.5 471.5,-448.5 471.5,-391.5 352.5,-391.5"/>
<text text-anchor="middle" x="412" y="-436.5" font-family="Helvetica,sans-Serif" font-size="10.00">std::array&lt; Region, K &gt;</text>
<polyline fill="none" stroke="#bfbfbf" points="352.5,-429.5 471.5,-429.5 "/>
<text text-anchor="middle" x="412" y="-417.5" font-family="Helvetica,sans-Serif" font-size="10.00"> </text>
<polyline fill="none" stroke="#bfbfbf" points="352.5,-410.5 471.5,-410.5 "/>
<text text-anchor="middle" x="412" y="-398.5" font-family="Helvetica,sans-Serif" font-size="10.00"> </text>
</g>
<!-- Node6&#45;&gt;Node8 -->
<g id="edge10" class="edge"><title>Node6&#45;&gt;Node8</title>
<path fill="none" stroke="orange" d="M401.894,-563.146C402.012,-550.101 402.319,-535.403 403,-522 404.26,-497.21 406.862,-469.088 408.946,-448.825"/>
<polygon fill="orange" stroke="orange" points="398.394,-563.177 401.835,-573.198 405.393,-563.218 398.394,-563.177"/>
<text text-anchor="middle" x="435.5" y="-530.5" font-family="Helvetica,sans-Serif" font-size="10.00"> &lt; Region, K &gt;</text>
</g>
<!-- Node7 -->
<g id="node7" class="node"><title>Node7</title>
<polygon fill="white" stroke="#bfbfbf" points="832.5,-1230.5 832.5,-1287.5 861.5,-1287.5 861.5,-1230.5 832.5,-1230.5"/>
<text text-anchor="middle" x="847" y="-1275.5" font-family="Helvetica,sans-Serif" font-size="10.00">T</text>
<polyline fill="none" stroke="#bfbfbf" points="832.5,-1268.5 861.5,-1268.5 "/>
<text text-anchor="middle" x="847" y="-1256.5" font-family="Helvetica,sans-Serif" font-size="10.00"> </text>
<polyline fill="none" stroke="#bfbfbf" points="832.5,-1249.5 861.5,-1249.5 "/>
<text text-anchor="middle" x="847" y="-1237.5" font-family="Helvetica,sans-Serif" font-size="10.00"> </text>
</g>
<!-- Node7&#45;&gt;Node6 -->
<g id="edge6" class="edge"><title>Node7&#45;&gt;Node6</title>
<path fill="none" stroke="#404040" d="M832.262,-1256.42C767.816,-1249.12 514,-1216.04 514,-1148 514,-1148 514,-1148 514,-724 514,-702.897 476.846,-665.964 445.337,-638.436"/>
<polygon fill="none" stroke="#404040" points="445.308,-638.411 438.151,-637.529 436.212,-630.583 443.369,-631.465 445.308,-638.411"/>
<text text-anchor="middle" x="538.5" y="-889.5" font-family="Helvetica,sans-Serif" font-size="10.00"> +elements</text>
</g>
<!-- Node9 -->
<g id="node9" class="node"><title>Node9</title>
<g id="a_node9"><a xlink:title="STL class. ">
<polygon fill="white" stroke="#bfbfbf" points="650.5,-573.5 650.5,-630.5 737.5,-630.5 737.5,-573.5 650.5,-573.5"/>
<text text-anchor="middle" x="694" y="-618.5" font-family="Helvetica,sans-Serif" font-size="10.00">std::vector&lt; T &gt;</text>
<polyline fill="none" stroke="#bfbfbf" points="650.5,-611.5 737.5,-611.5 "/>
<text text-anchor="middle" x="694" y="-599.5" font-family="Helvetica,sans-Serif" font-size="10.00"> </text>
<polyline fill="none" stroke="#bfbfbf" points="650.5,-592.5 737.5,-592.5 "/>
<text text-anchor="middle" x="694" y="-580.5" font-family="Helvetica,sans-Serif" font-size="10.00"> </text>
</a>
</g>
</g>
<!-- Node7&#45;&gt;Node9 -->
<g id="edge9" class="edge"><title>Node7&#45;&gt;Node9</title>
<path fill="none" stroke="#404040" d="M832.405,-1253.75C797.675,-1242.63 713,-1209.25 713,-1148 713,-1148 713,-1148 713,-724 713,-696.602 708.187,-666.133 703.406,-642.623"/>
<polygon fill="none" stroke="#404040" points="703.362,-642.417 698.199,-637.383 700.859,-630.681 706.023,-635.715 703.362,-642.417"/>
<text text-anchor="middle" x="737.5" y="-889.5" font-family="Helvetica,sans-Serif" font-size="10.00"> +elements</text>
</g>
<!-- Node12 -->
<g id="node12" class="node"><title>Node12</title>
<g id="a_node12"><a xlink:title="STL class. ">
<polygon fill="white" stroke="#bfbfbf" points="875.5,-1020 875.5,-1088 1004.5,-1088 1004.5,-1020 875.5,-1020"/>
<text text-anchor="start" x="883.5" y="-1076" font-family="Helvetica,sans-Serif" font-size="10.00">std::vector&lt; V, Eigen</text>
<text text-anchor="middle" x="940" y="-1065" font-family="Helvetica,sans-Serif" font-size="10.00">::aligned_allocator&lt; V &gt; &gt;</text>
<polyline fill="none" stroke="#bfbfbf" points="875.5,-1058 1004.5,-1058 "/>
<text text-anchor="middle" x="940" y="-1046" font-family="Helvetica,sans-Serif" font-size="10.00"> </text>
<polyline fill="none" stroke="#bfbfbf" points="875.5,-1039 1004.5,-1039 "/>
<text text-anchor="middle" x="940" y="-1027" font-family="Helvetica,sans-Serif" font-size="10.00"> </text>
</a>
</g>
</g>
<!-- Node7&#45;&gt;Node12 -->
<g id="edge14" class="edge"><title>Node7&#45;&gt;Node12</title>
<path fill="none" stroke="#404040" d="M858.218,-1230.27C870.358,-1200.69 890.593,-1152.6 910,-1112 912.031,-1107.75 914.205,-1103.36 916.421,-1098.98"/>
<polygon fill="none" stroke="#404040" points="916.461,-1098.91 915.653,-1091.74 921.957,-1088.24 922.765,-1095.4 916.461,-1098.91"/>
<text text-anchor="middle" x="895.5" y="-1203.5" font-family="Helvetica,sans-Serif" font-size="10.00"> +elements</text>
</g>
<!-- Node14 -->
<g id="node14" class="node"><title>Node14</title>
<g id="a_node14"><a xlink:title="STL class. ">
<polygon fill="white" stroke="#bfbfbf" points="919,-1113 919,-1181 1047,-1181 1047,-1113 919,-1113"/>
<text text-anchor="start" x="927" y="-1169" font-family="Helvetica,sans-Serif" font-size="10.00">std::vector&lt; T, Eigen</text>
<text text-anchor="middle" x="983" y="-1158" font-family="Helvetica,sans-Serif" font-size="10.00">::aligned_allocator&lt; T &gt; &gt;</text>
<polyline fill="none" stroke="#bfbfbf" points="919,-1151 1047,-1151 "/>
<text text-anchor="middle" x="983" y="-1139" font-family="Helvetica,sans-Serif" font-size="10.00"> </text>
<polyline fill="none" stroke="#bfbfbf" points="919,-1132 1047,-1132 "/>
<text text-anchor="middle" x="983" y="-1120" font-family="Helvetica,sans-Serif" font-size="10.00"> </text>
</a>
</g>
</g>
<!-- Node7&#45;&gt;Node14 -->
<g id="edge17" class="edge"><title>Node7&#45;&gt;Node14</title>
<path fill="none" stroke="#404040" d="M861.66,-1252.99C880.589,-1246 913.846,-1231.9 937,-1212 944.071,-1205.92 950.636,-1198.55 956.465,-1190.99"/>
<polygon fill="none" stroke="#404040" points="956.63,-1190.76 956.92,-1183.56 963.683,-1181.05 963.393,-1188.26 956.63,-1190.76"/>
<text text-anchor="middle" x="972.5" y="-1203.5" font-family="Helvetica,sans-Serif" font-size="10.00"> +elements</text>
</g>
<!-- Node23 -->
<g id="node23" class="node"><title>Node23</title>
<g id="a_node23"><a xlink:title="STL class. ">
<polygon fill="white" stroke="#bfbfbf" points="747.5,-1014.5 747.5,-1093.5 870.5,-1093.5 870.5,-1014.5 747.5,-1014.5"/>
<text text-anchor="start" x="755.5" y="-1081.5" font-family="Helvetica,sans-Serif" font-size="10.00">std::vector&lt; Triangle,</text>
<text text-anchor="start" x="755.5" y="-1070.5" font-family="Helvetica,sans-Serif" font-size="10.00"> Eigen::aligned_allocator</text>
<text text-anchor="middle" x="809" y="-1059.5" font-family="Helvetica,sans-Serif" font-size="10.00">&lt; Triangle &gt; &gt;</text>
<polyline fill="none" stroke="#bfbfbf" points="747.5,-1052.5 870.5,-1052.5 "/>
<text text-anchor="middle" x="809" y="-1040.5" font-family="Helvetica,sans-Serif" font-size="10.00"> </text>
<polyline fill="none" stroke="#bfbfbf" points="747.5,-1033.5 870.5,-1033.5 "/>
<text text-anchor="middle" x="809" y="-1021.5" font-family="Helvetica,sans-Serif" font-size="10.00"> </text>
</a>
</g>
</g>
<!-- Node7&#45;&gt;Node23 -->
<g id="edge30" class="edge"><title>Node7&#45;&gt;Node23</title>
<path fill="none" stroke="#404040" d="M832.395,-1243.21C825.104,-1234.8 817.002,-1223.65 813,-1212 801.266,-1177.85 800.601,-1137.02 802.694,-1105.56"/>
<polygon fill="none" stroke="#404040" points="802.696,-1105.53 799.187,-1099.23 803.653,-1093.57 807.162,-1099.87 802.696,-1105.53"/>
<text text-anchor="middle" x="837.5" y="-1203.5" font-family="Helvetica,sans-Serif" font-size="10.00"> +elements</text>
</g>
<!-- Node26 -->
<g id="node26" class="node"><title>Node26</title>
<g id="a_node26"><a xlink:title="STL class. ">
<polygon fill="white" stroke="#bfbfbf" points="1149.5,-916.5 1149.5,-995.5 1272.5,-995.5 1272.5,-916.5 1149.5,-916.5"/>
<text text-anchor="start" x="1157.5" y="-983.5" font-family="Helvetica,sans-Serif" font-size="10.00">std::vector&lt; Face,</text>
<text text-anchor="start" x="1157.5" y="-972.5" font-family="Helvetica,sans-Serif" font-size="10.00"> Eigen::aligned_allocator</text>
<text text-anchor="middle" x="1211" y="-961.5" font-family="Helvetica,sans-Serif" font-size="10.00">&lt; Face &gt; &gt;</text>
<polyline fill="none" stroke="#bfbfbf" points="1149.5,-954.5 1272.5,-954.5 "/>
<text text-anchor="middle" x="1211" y="-942.5" font-family="Helvetica,sans-Serif" font-size="10.00"> </text>
<polyline fill="none" stroke="#bfbfbf" points="1149.5,-935.5 1272.5,-935.5 "/>
<text text-anchor="middle" x="1211" y="-923.5" font-family="Helvetica,sans-Serif" font-size="10.00"> </text>
</a>
</g>
</g>
<!-- Node7&#45;&gt;Node26 -->
<g id="edge36" class="edge"><title>Node7&#45;&gt;Node26</title>
<path fill="none" stroke="#404040" d="M861.579,-1256.46C898.552,-1251.85 997.203,-1234.99 1056,-1182 1112.51,-1131.07 1159.05,-1055.66 1185.93,-1006.41"/>
<polygon fill="none" stroke="#404040" points="1186,-1006.28 1185.32,-999.102 1191.69,-995.714 1192.37,-1002.89 1186,-1006.28"/>
<text text-anchor="middle" x="1142.5" y="-1144.5" font-family="Helvetica,sans-Serif" font-size="10.00"> +elements</text>
</g>
<!-- Node8&#45;&gt;Node1 -->
<g id="edge7" class="edge"><title>Node8&#45;&gt;Node1</title>
<path fill="none" stroke="#404040" d="M433.993,-391.404C447.133,-375.106 464.277,-354.173 480,-336 503.161,-309.23 528.54,-280.877 552.719,-254.303"/>
<polygon fill="none" stroke="#404040" points="552.784,-254.232 553.87,-247.103 560.868,-245.364 559.782,-252.492 552.784,-254.232"/>
<text text-anchor="middle" x="538.5" y="-304.5" font-family="Helvetica,sans-Serif" font-size="10.00"> #m_region</text>
</g>
<!-- Node9&#45;&gt;Node8 -->
<g id="edge8" class="edge"><title>Node9&#45;&gt;Node8</title>
<path fill="none" stroke="#404040" d="M650.403,-587.363C623.274,-577.693 588.447,-563.052 561,-544 549.896,-536.292 551.523,-529.066 540,-522 516.266,-507.447 503.166,-519.442 480,-504 462.453,-492.304 447.128,-474.722 435.491,-458.747"/>
<polygon fill="none" stroke="#404040" points="435.251,-458.403 428.539,-455.768 428.39,-448.559 435.102,-451.194 435.251,-458.403"/>
<text text-anchor="middle" x="585.5" y="-530.5" font-family="Helvetica,sans-Serif" font-size="10.00"> +elements</text>
</g>
<!-- Node17 -->
<g id="node17" class="node"><title>Node17</title>
<polygon fill="white" stroke="#bfbfbf" points="852.5,-391.5 852.5,-448.5 951.5,-448.5 951.5,-391.5 852.5,-391.5"/>
<text text-anchor="middle" x="902" y="-436.5" font-family="Helvetica,sans-Serif" font-size="10.00">std::vector&lt; bool &gt;</text>
<polyline fill="none" stroke="#bfbfbf" points="852.5,-429.5 951.5,-429.5 "/>
<text text-anchor="middle" x="902" y="-417.5" font-family="Helvetica,sans-Serif" font-size="10.00"> </text>
<polyline fill="none" stroke="#bfbfbf" points="852.5,-410.5 951.5,-410.5 "/>
<text text-anchor="middle" x="902" y="-398.5" font-family="Helvetica,sans-Serif" font-size="10.00"> </text>
</g>
<!-- Node9&#45;&gt;Node17 -->
<g id="edge22" class="edge"><title>Node9&#45;&gt;Node17</title>
<path fill="none" stroke="orange" d="M721.779,-565.015C736.351,-547.034 753.171,-527.871 763,-522 793.916,-503.534 811.966,-523.869 842,-504 862.613,-490.364 878.53,-467.066 888.774,-448.619"/>
<polygon fill="orange" stroke="orange" points="718.791,-563.147 715.275,-573.141 724.256,-567.521 718.791,-563.147"/>
<text text-anchor="middle" x="783" y="-530.5" font-family="Helvetica,sans-Serif" font-size="10.00"> &lt; bool &gt;</text>
</g>
<!-- Node18 -->
<g id="node18" class="node"><title>Node18</title>
<polygon fill="white" stroke="#bfbfbf" points="489.5,-391.5 489.5,-448.5 586.5,-448.5 586.5,-391.5 489.5,-391.5"/>
<text text-anchor="middle" x="538" y="-436.5" font-family="Helvetica,sans-Serif" font-size="10.00">std::vector&lt; uint &gt;</text>
<polyline fill="none" stroke="#bfbfbf" points="489.5,-429.5 586.5,-429.5 "/>
<text text-anchor="middle" x="538" y="-417.5" font-family="Helvetica,sans-Serif" font-size="10.00"> </text>
<polyline fill="none" stroke="#bfbfbf" points="489.5,-410.5 586.5,-410.5 "/>
<text text-anchor="middle" x="538" y="-398.5" font-family="Helvetica,sans-Serif" font-size="10.00"> </text>
</g>
<!-- Node9&#45;&gt;Node18 -->
<g id="edge25" class="edge"><title>Node9&#45;&gt;Node18</title>
<path fill="none" stroke="orange" d="M657.802,-566.195C631.894,-541.172 600.635,-510.708 595,-504 580.271,-486.466 565.69,-465.143 554.963,-448.5"/>
<polygon fill="orange" stroke="orange" points="655.661,-568.993 665.288,-573.418 660.521,-563.955 655.661,-568.993"/>
<text text-anchor="middle" x="653.5" y="-530.5" font-family="Helvetica,sans-Serif" font-size="10.00"> &lt; uint &gt;</text>
</g>
<!-- Node27 -->
<g id="node27" class="node"><title>Node27</title>
<polygon fill="white" stroke="#bfbfbf" points="604.5,-391.5 604.5,-448.5 713.5,-448.5 713.5,-391.5 604.5,-391.5"/>
<text text-anchor="middle" x="659" y="-436.5" font-family="Helvetica,sans-Serif" font-size="10.00">std::vector&lt; Scalar &gt;</text>
<polyline fill="none" stroke="#bfbfbf" points="604.5,-429.5 713.5,-429.5 "/>
<text text-anchor="middle" x="659" y="-417.5" font-family="Helvetica,sans-Serif" font-size="10.00"> </text>
<polyline fill="none" stroke="#bfbfbf" points="604.5,-410.5 713.5,-410.5 "/>
<text text-anchor="middle" x="659" y="-398.5" font-family="Helvetica,sans-Serif" font-size="10.00"> </text>
</g>
<!-- Node9&#45;&gt;Node27 -->
<g id="edge41" class="edge"><title>Node9&#45;&gt;Node27</title>
<path fill="none" stroke="orange" d="M686.647,-563.187C679.998,-528.988 670.361,-479.429 664.398,-448.762"/>
<polygon fill="orange" stroke="orange" points="683.264,-564.121 688.608,-573.269 690.135,-562.785 683.264,-564.121"/>
<text text-anchor="middle" x="707.5" y="-530.5" font-family="Helvetica,sans-Serif" font-size="10.00"> &lt; Scalar &gt;</text>
</g>
<!-- Node10 -->
<g id="node10" class="node"><title>Node10</title>
<g id="a_node10"><a xlink:href="classRa_1_1Core_1_1VectorArray.html" target="_top" xlink:title="{Ra::Core::VectorArray\&lt; V \&gt;\n||+ getMap()\l+ getMap()\l}">
<polygon fill="white" stroke="black" points="1005.5,-691 1005.5,-759 1144.5,-759 1144.5,-691 1005.5,-691"/>
<text text-anchor="middle" x="1075" y="-747" font-family="Helvetica,sans-Serif" font-size="10.00">Ra::Core::VectorArray&lt; V &gt;</text>
<polyline fill="none" stroke="black" points="1005.5,-740 1144.5,-740 "/>
<text text-anchor="middle" x="1075" y="-728" font-family="Helvetica,sans-Serif" font-size="10.00"> </text>
<polyline fill="none" stroke="black" points="1005.5,-721 1144.5,-721 "/>
<text text-anchor="start" x="1013.5" y="-709" font-family="Helvetica,sans-Serif" font-size="10.00">+ getMap()</text>
<text text-anchor="start" x="1013.5" y="-698" font-family="Helvetica,sans-Serif" font-size="10.00">+ getMap()</text>
</a>
</g>
</g>
<!-- Node10&#45;&gt;Node1 -->
<g id="edge11" class="edge"><title>Node10&#45;&gt;Node1</title>
<path fill="none" stroke="#404040" d="M1131.31,-690.821C1147.93,-677.887 1164.05,-661.449 1173,-642 1197.44,-588.87 1237.05,-434.137 1171,-336 1082.15,-203.993 890.988,-160.811 769.039,-146.738"/>
<polygon fill="none" stroke="#404040" points="769.021,-146.736 762.62,-150.057 757.092,-145.427 763.493,-142.105 769.021,-146.736"/>
<text text-anchor="middle" x="1231" y="-536" font-family="Helvetica,sans-Serif" font-size="10.00"> #m_fbary</text>
<text text-anchor="middle" x="1231" y="-525" font-family="Helvetica,sans-Serif" font-size="10.00">#m_fnormal</text>
</g>
<!-- Node21 -->
<g id="node21" class="node"><title>Node21</title>
<g id="a_node21"><a xlink:href="classRa_1_1Core_1_1VectorArray.html" target="_top" xlink:title="{Ra::Core::VectorArray\l\&lt; Triangle \&gt;\n||+ getMap()\l+ getMap()\l}">
<polygon fill="white" stroke="black" points="918,-562.5 918,-641.5 1032,-641.5 1032,-562.5 918,-562.5"/>
<text text-anchor="start" x="926" y="-629.5" font-family="Helvetica,sans-Serif" font-size="10.00">Ra::Core::VectorArray</text>
<text text-anchor="middle" x="975" y="-618.5" font-family="Helvetica,sans-Serif" font-size="10.00">&lt; Triangle &gt;</text>
<polyline fill="none" stroke="black" points="918,-611.5 1032,-611.5 "/>
<text text-anchor="middle" x="975" y="-599.5" font-family="Helvetica,sans-Serif" font-size="10.00"> </text>
<polyline fill="none" stroke="black" points="918,-592.5 1032,-592.5 "/>
<text text-anchor="start" x="926" y="-580.5" font-family="Helvetica,sans-Serif" font-size="10.00">+ getMap()</text>
<text text-anchor="start" x="926" y="-569.5" font-family="Helvetica,sans-Serif" font-size="10.00">+ getMap()</text>
</a>
</g>
</g>
<!-- Node10&#45;&gt;Node21 -->
<g id="edge32" class="edge"><title>Node10&#45;&gt;Node21</title>
<path fill="none" stroke="orange" d="M1039.42,-683.195C1036.21,-679.427 1033.03,-675.653 1030,-672 1021.88,-662.219 1013.24,-651.528 1005.27,-641.544"/>
<polygon fill="orange" stroke="orange" points="1036.83,-685.558 1045.99,-690.882 1042.15,-681.008 1036.83,-685.558"/>
<text text-anchor="middle" x="1058" y="-663.5" font-family="Helvetica,sans-Serif" font-size="10.00"> &lt; Triangle &gt;</text>
</g>
<!-- Node24 -->
<g id="node24" class="node"><title>Node24</title>
<g id="a_node24"><a xlink:href="classRa_1_1Core_1_1VectorArray.html" target="_top" xlink:title="{Ra::Core::VectorArray\l\&lt; Face \&gt;\n||+ getMap()\l+ getMap()\l}">
<polygon fill="white" stroke="black" points="1050,-562.5 1050,-641.5 1164,-641.5 1164,-562.5 1050,-562.5"/>
<text text-anchor="start" x="1058" y="-629.5" font-family="Helvetica,sans-Serif" font-size="10.00">Ra::Core::VectorArray</text>
<text text-anchor="middle" x="1107" y="-618.5" font-family="Helvetica,sans-Serif" font-size="10.00">&lt; Face &gt;</text>
<polyline fill="none" stroke="black" points="1050,-611.5 1164,-611.5 "/>
<text text-anchor="middle" x="1107" y="-599.5" font-family="Helvetica,sans-Serif" font-size="10.00"> </text>
<polyline fill="none" stroke="black" points="1050,-592.5 1164,-592.5 "/>
<text text-anchor="start" x="1058" y="-580.5" font-family="Helvetica,sans-Serif" font-size="10.00">+ getMap()</text>
<text text-anchor="start" x="1058" y="-569.5" font-family="Helvetica,sans-Serif" font-size="10.00">+ getMap()</text>
</a>
</g>
</g>
<!-- Node10&#45;&gt;Node24 -->
<g id="edge38" class="edge"><title>Node10&#45;&gt;Node24</title>
<path fill="none" stroke="orange" d="M1086.39,-680.939C1089.78,-668.105 1093.48,-654.127 1096.79,-641.597"/>
<polygon fill="orange" stroke="orange" points="1082.92,-680.374 1083.74,-690.936 1089.68,-682.163 1082.92,-680.374"/>
<text text-anchor="middle" x="1112.5" y="-663.5" font-family="Helvetica,sans-Serif" font-size="10.00"> &lt; Face &gt;</text>
</g>
<!-- Node11 -->
<g id="node11" class="node"><title>Node11</title>
<g id="a_node11"><a xlink:href="structRa_1_1Core_1_1AlignedStdVector.html" target="_top" xlink:title="{Ra::Core::AlignedStdVector\&lt; V \&gt;\n||}">
<polygon fill="white" stroke="black" points="966.5,-804.5 966.5,-861.5 1129.5,-861.5 1129.5,-804.5 966.5,-804.5"/>
<text text-anchor="middle" x="1048" y="-849.5" font-family="Helvetica,sans-Serif" font-size="10.00">Ra::Core::AlignedStdVector&lt; V &gt;</text>
<polyline fill="none" stroke="black" points="966.5,-842.5 1129.5,-842.5 "/>
<text text-anchor="middle" x="1048" y="-830.5" font-family="Helvetica,sans-Serif" font-size="10.00"> </text>
<polyline fill="none" stroke="black" points="966.5,-823.5 1129.5,-823.5 "/>
<text text-anchor="middle" x="1048" y="-811.5" font-family="Helvetica,sans-Serif" font-size="10.00"> </text>
</a>
</g>
</g>
<!-- Node11&#45;&gt;Node10 -->
<g id="edge12" class="edge"><title>Node11&#45;&gt;Node10</title>
<path fill="none" stroke="midnightblue" d="M1057.53,-794.598C1060.48,-783.023 1063.7,-770.359 1066.57,-759.097"/>
<polygon fill="none" stroke="midnightblue" points="1054.1,-793.872 1055.02,-804.426 1060.88,-795.6 1054.1,-793.872"/>
</g>
<!-- Node12&#45;&gt;Node11 -->
<g id="edge13" class="edge"><title>Node12&#45;&gt;Node11</title>
<path fill="none" stroke="midnightblue" d="M932.674,-1009.78C928.926,-973.792 929.292,-922.677 953,-886 959.226,-876.368 967.879,-868.373 977.449,-861.783"/>
<polygon fill="none" stroke="midnightblue" points="929.229,-1010.46 933.886,-1019.97 936.18,-1009.63 929.229,-1010.46"/>
</g>
<!-- Node13 -->
<g id="node13" class="node"><title>Node13</title>
<g id="a_node13"><a xlink:href="structRa_1_1Core_1_1AlignedStdVector.html" target="_top" xlink:title="{Ra::Core::AlignedStdVector\&lt; T \&gt;\n||}">
<polygon fill="white" stroke="black" points="968,-927.5 968,-984.5 1130,-984.5 1130,-927.5 968,-927.5"/>
<text text-anchor="middle" x="1049" y="-972.5" font-family="Helvetica,sans-Serif" font-size="10.00">Ra::Core::AlignedStdVector&lt; T &gt;</text>
<polyline fill="none" stroke="black" points="968,-965.5 1130,-965.5 "/>
<text text-anchor="middle" x="1049" y="-953.5" font-family="Helvetica,sans-Serif" font-size="10.00"> </text>
<polyline fill="none" stroke="black" points="968,-946.5 1130,-946.5 "/>
<text text-anchor="middle" x="1049" y="-934.5" font-family="Helvetica,sans-Serif" font-size="10.00"> </text>
</a>
</g>
</g>
<!-- Node13&#45;&gt;Node11 -->
<g id="edge15" class="edge"><title>Node13&#45;&gt;Node11</title>
<path fill="none" stroke="orange" d="M1048.69,-917.081C1048.54,-899.118 1048.36,-878.054 1048.23,-861.631"/>
<polygon fill="orange" stroke="orange" points="1045.19,-917.269 1048.77,-927.24 1052.19,-917.212 1045.19,-917.269"/>
<text text-anchor="middle" x="1063" y="-889.5" font-family="Helvetica,sans-Serif" font-size="10.00"> &lt; V &gt;</text>
</g>
<!-- Node22 -->
<g id="node22" class="node"><title>Node22</title>
<g id="a_node22"><a xlink:href="structRa_1_1Core_1_1AlignedStdVector.html" target="_top" xlink:title="{Ra::Core::AlignedStdVector\l\&lt; Triangle \&gt;\n||}">
<polygon fill="white" stroke="black" points="810,-799 810,-867 948,-867 948,-799 810,-799"/>
<text text-anchor="start" x="818" y="-855" font-family="Helvetica,sans-Serif" font-size="10.00">Ra::Core::AlignedStdVector</text>
<text text-anchor="middle" x="879" y="-844" font-family="Helvetica,sans-Serif" font-size="10.00">&lt; Triangle &gt;</text>
<polyline fill="none" stroke="black" points="810,-837 948,-837 "/>
<text text-anchor="middle" x="879" y="-825" font-family="Helvetica,sans-Serif" font-size="10.00"> </text>
<polyline fill="none" stroke="black" points="810,-818 948,-818 "/>
<text text-anchor="middle" x="879" y="-806" font-family="Helvetica,sans-Serif" font-size="10.00"> </text>
</a>
</g>
</g>
<!-- Node13&#45;&gt;Node22 -->
<g id="edge31" class="edge"><title>Node13&#45;&gt;Node22</title>
<path fill="none" stroke="orange" d="M1001.79,-921.395C977.935,-904.419 949.1,-883.895 925.368,-867.003"/>
<polygon fill="orange" stroke="orange" points="999.822,-924.293 1010,-927.24 1003.88,-918.59 999.822,-924.293"/>
<text text-anchor="middle" x="992" y="-889.5" font-family="Helvetica,sans-Serif" font-size="10.00"> &lt; Triangle &gt;</text>
</g>
<!-- Node25 -->
<g id="node25" class="node"><title>Node25</title>
<g id="a_node25"><a xlink:href="structRa_1_1Core_1_1AlignedStdVector.html" target="_top" xlink:title="{Ra::Core::AlignedStdVector\l\&lt; Face \&gt;\n||}">
<polygon fill="white" stroke="black" points="1148,-799 1148,-867 1286,-867 1286,-799 1148,-799"/>
<text text-anchor="start" x="1156" y="-855" font-family="Helvetica,sans-Serif" font-size="10.00">Ra::Core::AlignedStdVector</text>
<text text-anchor="middle" x="1217" y="-844" font-family="Helvetica,sans-Serif" font-size="10.00">&lt; Face &gt;</text>
<polyline fill="none" stroke="black" points="1148,-837 1286,-837 "/>
<text text-anchor="middle" x="1217" y="-825" font-family="Helvetica,sans-Serif" font-size="10.00"> </text>
<polyline fill="none" stroke="black" points="1148,-818 1286,-818 "/>
<text text-anchor="middle" x="1217" y="-806" font-family="Helvetica,sans-Serif" font-size="10.00"> </text>
</a>
</g>
</g>
<!-- Node13&#45;&gt;Node25 -->
<g id="edge37" class="edge"><title>Node13&#45;&gt;Node25</title>
<path fill="none" stroke="orange" d="M1095.66,-921.395C1119.23,-904.419 1147.72,-883.895 1171.18,-867.003"/>
<polygon fill="orange" stroke="orange" points="1093.61,-918.556 1087.54,-927.24 1097.7,-924.236 1093.61,-918.556"/>
<text text-anchor="middle" x="1165.5" y="-889.5" font-family="Helvetica,sans-Serif" font-size="10.00"> &lt; Face &gt;</text>
</g>
<!-- Node14&#45;&gt;Node13 -->
<g id="edge16" class="edge"><title>Node14&#45;&gt;Node13</title>
<path fill="none" stroke="midnightblue" d="M1008.58,-1103.76C1010.18,-1100.51 1011.67,-1097.23 1013,-1094 1028.01,-1057.5 1038.35,-1012.91 1043.97,-984.731"/>
<polygon fill="none" stroke="midnightblue" points="1005.38,-1102.33 1003.88,-1112.82 1011.59,-1105.56 1005.38,-1102.33"/>
</g>
<!-- Node15 -->
<g id="node15" class="node"><title>Node15</title>
<g id="a_node15"><a xlink:href="classbool.html" target="_top" xlink:title="{bool\n||}">
<polygon fill="white" stroke="black" points="864.5,-573.5 864.5,-630.5 899.5,-630.5 899.5,-573.5 864.5,-573.5"/>
<text text-anchor="middle" x="882" y="-618.5" font-family="Helvetica,sans-Serif" font-size="10.00">bool</text>
<polyline fill="none" stroke="black" points="864.5,-611.5 899.5,-611.5 "/>
<text text-anchor="middle" x="882" y="-599.5" font-family="Helvetica,sans-Serif" font-size="10.00"> </text>
<polyline fill="none" stroke="black" points="864.5,-592.5 899.5,-592.5 "/>
<text text-anchor="middle" x="882" y="-580.5" font-family="Helvetica,sans-Serif" font-size="10.00"> </text>
</a>
</g>
</g>
<!-- Node15&#45;&gt;Node1 -->
<g id="edge18" class="edge"><title>Node15&#45;&gt;Node1</title>
<path fill="none" stroke="#404040" d="M898.714,-573.153C901.829,-569.132 905.286,-565.259 909,-562 922.149,-550.464 932.229,-556.939 944,-544 995.229,-487.686 968.443,-351.573 960,-336 919.528,-261.351 836.95,-210.661 768.509,-179.562"/>
<polygon fill="none" stroke="#404040" points="768.187,-179.42 761.08,-180.641 757.219,-174.55 764.326,-173.329 768.187,-179.42"/>
<text text-anchor="middle" x="992.5" y="-417.5" font-family="Helvetica,sans-Serif" font-size="10.00"> #m_init</text>
</g>
<!-- Node15&#45;&gt;Node17 -->
<g id="edge21" class="edge"><title>Node15&#45;&gt;Node17</title>
<path fill="none" stroke="#404040" d="M885.081,-573.269C888.414,-543.276 893.757,-495.185 897.547,-461.081"/>
<polygon fill="none" stroke="#404040" points="897.59,-460.689 894.277,-454.284 898.915,-448.762 902.228,-455.167 897.59,-460.689"/>
<text text-anchor="middle" x="915.5" y="-530.5" font-family="Helvetica,sans-Serif" font-size="10.00"> +elements</text>
</g>
<!-- Node16 -->
<g id="node16" class="node"><title>Node16</title>
<polygon fill="white" stroke="#bfbfbf" points="732,-391.5 732,-448.5 834,-448.5 834,-391.5 732,-391.5"/>
<text text-anchor="middle" x="783" y="-436.5" font-family="Helvetica,sans-Serif" font-size="10.00">set&lt; TriangleIdx &gt;&gt;</text>
<polyline fill="none" stroke="#bfbfbf" points="732,-429.5 834,-429.5 "/>
<text text-anchor="middle" x="783" y="-417.5" font-family="Helvetica,sans-Serif" font-size="10.00"> </text>
<polyline fill="none" stroke="#bfbfbf" points="732,-410.5 834,-410.5 "/>
<text text-anchor="middle" x="783" y="-398.5" font-family="Helvetica,sans-Serif" font-size="10.00"> </text>
</g>
<!-- Node16&#45;&gt;Node1 -->
<g id="edge19" class="edge"><title>Node16&#45;&gt;Node1</title>
<path fill="none" stroke="#404040" d="M770.771,-391.485C759.769,-366.73 742.68,-328.28 725.147,-288.831"/>
<polygon fill="none" stroke="#404040" points="725.069,-288.655 718.977,-284.796 720.195,-277.689 726.287,-281.547 725.069,-288.655"/>
<text text-anchor="middle" x="755" y="-304.5" font-family="Helvetica,sans-Serif" font-size="10.00"> #m_fadj</text>
</g>
<!-- Node17&#45;&gt;Node1 -->
<g id="edge20" class="edge"><title>Node17&#45;&gt;Node1</title>
<path fill="none" stroke="#404040" d="M883.377,-391.444C871.93,-374.974 856.687,-353.849 842,-336 818.178,-307.049 791.233,-276.916 765.489,-249.21"/>
<polygon fill="none" stroke="#404040" points="765.365,-249.078 758.347,-247.42 757.178,-240.305 764.196,-241.962 765.365,-249.078"/>
<text text-anchor="middle" x="851" y="-304.5" font-family="Helvetica,sans-Serif" font-size="10.00"> #m_fvisited</text>
</g>
<!-- Node18&#45;&gt;Node1 -->
<g id="edge23" class="edge"><title>Node18&#45;&gt;Node1</title>
<path fill="none" stroke="#404040" d="M549.933,-391.485C560.669,-366.73 577.344,-328.28 594.453,-288.831"/>
<polygon fill="none" stroke="#404040" points="594.511,-288.698 593.228,-281.602 599.285,-277.689 600.568,-284.785 594.511,-288.698"/>
<text text-anchor="middle" x="618" y="-304.5" font-family="Helvetica,sans-Serif" font-size="10.00"> #m_fregion</text>
</g>
<!-- Node19 -->
<g id="node19" class="node"><title>Node19</title>
<polygon fill="white" stroke="#bfbfbf" points="474,-573.5 474,-630.5 506,-630.5 506,-573.5 474,-573.5"/>
<text text-anchor="middle" x="490" y="-618.5" font-family="Helvetica,sans-Serif" font-size="10.00">uint</text>
<polyline fill="none" stroke="#bfbfbf" points="474,-611.5 506,-611.5 "/>
<text text-anchor="middle" x="490" y="-599.5" font-family="Helvetica,sans-Serif" font-size="10.00"> </text>
<polyline fill="none" stroke="#bfbfbf" points="474,-592.5 506,-592.5 "/>
<text text-anchor="middle" x="490" y="-580.5" font-family="Helvetica,sans-Serif" font-size="10.00"> </text>
</g>
<!-- Node19&#45;&gt;Node18 -->
<g id="edge24" class="edge"><title>Node19&#45;&gt;Node18</title>
<path fill="none" stroke="#404040" d="M487.524,-573.244C486.862,-557.944 487.19,-538.717 491,-522 495.947,-500.294 505.948,-477.688 515.458,-459.379"/>
<polygon fill="none" stroke="#404040" points="515.581,-459.15 514.9,-451.971 521.265,-448.582 521.946,-455.761 515.581,-459.15"/>
<text text-anchor="middle" x="515.5" y="-530.5" font-family="Helvetica,sans-Serif" font-size="10.00"> +elements</text>
</g>
<!-- Node20 -->
<g id="node20" class="node"><title>Node20</title>
<g id="a_node20"><a xlink:href="classRa_1_1Core_1_1TriangleMesh.html" target="_top" xlink:title="{Ra::Core::TriangleMesh\n||+ TriangleMesh()\l+ TriangleMesh()\l+ operator=()\l+ clear()\l+ append()\l+ vertices()\l+ normals()\l+ vertices()\l+ normals()\l+ attribManager()\l+ attribManager()\l}">
<polygon fill="white" stroke="black" points="1041.5,-336.5 1041.5,-503.5 1162.5,-503.5 1162.5,-336.5 1041.5,-336.5"/>
<text text-anchor="middle" x="1102" y="-491.5" font-family="Helvetica,sans-Serif" font-size="10.00">Ra::Core::TriangleMesh</text>
<polyline fill="none" stroke="black" points="1041.5,-484.5 1162.5,-484.5 "/>
<text text-anchor="middle" x="1102" y="-472.5" font-family="Helvetica,sans-Serif" font-size="10.00"> </text>
<polyline fill="none" stroke="black" points="1041.5,-465.5 1162.5,-465.5 "/>
<text text-anchor="start" x="1049.5" y="-453.5" font-family="Helvetica,sans-Serif" font-size="10.00">+ TriangleMesh()</text>
<text text-anchor="start" x="1049.5" y="-442.5" font-family="Helvetica,sans-Serif" font-size="10.00">+ TriangleMesh()</text>
<text text-anchor="start" x="1049.5" y="-431.5" font-family="Helvetica,sans-Serif" font-size="10.00">+ operator=()</text>
<text text-anchor="start" x="1049.5" y="-420.5" font-family="Helvetica,sans-Serif" font-size="10.00">+ clear()</text>
<text text-anchor="start" x="1049.5" y="-409.5" font-family="Helvetica,sans-Serif" font-size="10.00">+ append()</text>
<text text-anchor="start" x="1049.5" y="-398.5" font-family="Helvetica,sans-Serif" font-size="10.00">+ vertices()</text>
<text text-anchor="start" x="1049.5" y="-387.5" font-family="Helvetica,sans-Serif" font-size="10.00">+ normals()</text>
<text text-anchor="start" x="1049.5" y="-376.5" font-family="Helvetica,sans-Serif" font-size="10.00">+ vertices()</text>
<text text-anchor="start" x="1049.5" y="-365.5" font-family="Helvetica,sans-Serif" font-size="10.00">+ normals()</text>
<text text-anchor="start" x="1049.5" y="-354.5" font-family="Helvetica,sans-Serif" font-size="10.00">+ attribManager()</text>
<text text-anchor="start" x="1049.5" y="-343.5" font-family="Helvetica,sans-Serif" font-size="10.00">+ attribManager()</text>
</a>
</g>
</g>
<!-- Node20&#45;&gt;Node1 -->
<g id="edge26" class="edge"><title>Node20&#45;&gt;Node1</title>
<path fill="none" stroke="#404040" d="M1043.66,-336.248C1031.02,-321.683 1016.92,-307.521 1002,-296 931.86,-241.843 839.912,-201.321 768.873,-175.168"/>
<polygon fill="none" stroke="#404040" points="768.491,-175.029 761.486,-176.741 757.211,-170.934 764.216,-169.222 768.491,-175.029"/>
<text text-anchor="middle" x="1048" y="-304.5" font-family="Helvetica,sans-Serif" font-size="10.00"> #m_mesh</text>
</g>
<!-- Node21&#45;&gt;Node20 -->
<g id="edge27" class="edge"><title>Node21&#45;&gt;Node20</title>
<path fill="none" stroke="#404040" d="M1002.24,-562.385C1012.42,-547.965 1024.46,-530.897 1036.6,-513.697"/>
<polygon fill="none" stroke="#404040" points="1036.82,-513.379 1037.01,-506.171 1043.74,-503.574 1043.55,-510.783 1036.82,-513.379"/>
<text text-anchor="middle" x="1058" y="-530.5" font-family="Helvetica,sans-Serif" font-size="10.00"> +m_triangles</text>
</g>
<!-- Node22&#45;&gt;Node21 -->
<g id="edge28" class="edge"><title>Node22&#45;&gt;Node21</title>
<path fill="none" stroke="midnightblue" d="M896.933,-789.223C914.69,-746.865 941.639,-682.58 958.776,-641.701"/>
<polygon fill="none" stroke="midnightblue" points="893.598,-788.126 892.959,-798.701 900.053,-790.832 893.598,-788.126"/>
</g>
<!-- Node23&#45;&gt;Node22 -->
<g id="edge29" class="edge"><title>Node23&#45;&gt;Node22</title>
<path fill="none" stroke="midnightblue" d="M824.445,-1004.68C837.775,-962.974 856.678,-903.836 868.372,-867.25"/>
<polygon fill="none" stroke="midnightblue" points="821.064,-1003.76 821.353,-1014.35 827.732,-1005.89 821.064,-1003.76"/>
</g>
<!-- Node24&#45;&gt;Node20 -->
<g id="edge33" class="edge"><title>Node24&#45;&gt;Node20</title>
<path fill="none" stroke="#404040" d="M1105.93,-562.385C1105.54,-548.504 1105.09,-532.169 1104.63,-515.625"/>
<polygon fill="none" stroke="#404040" points="1104.63,-515.57 1100.46,-509.683 1104.29,-503.574 1108.46,-509.461 1104.63,-515.57"/>
<text text-anchor="middle" x="1129.5" y="-530.5" font-family="Helvetica,sans-Serif" font-size="10.00"> +m_faces</text>
</g>
<!-- Node25&#45;&gt;Node24 -->
<g id="edge34" class="edge"><title>Node25&#45;&gt;Node24</title>
<path fill="none" stroke="midnightblue" d="M1198.86,-789.395C1183.55,-754.235 1160.58,-703.273 1138,-660 1134.87,-654.008 1131.51,-647.693 1128.19,-641.537"/>
<polygon fill="none" stroke="midnightblue" points="1195.78,-791.09 1202.97,-798.873 1202.2,-788.306 1195.78,-791.09"/>
</g>
<!-- Node26&#45;&gt;Node25 -->
<g id="edge35" class="edge"><title>Node26&#45;&gt;Node25</title>
<path fill="none" stroke="midnightblue" d="M1213.42,-906.146C1214.07,-893.121 1214.75,-879.348 1215.35,-867.367"/>
<polygon fill="none" stroke="midnightblue" points="1209.91,-906.221 1212.91,-916.382 1216.91,-906.568 1209.91,-906.221"/>
</g>
<!-- Node27&#45;&gt;Node1 -->
<g id="edge39" class="edge"><title>Node27&#45;&gt;Node1</title>
<path fill="none" stroke="#404040" d="M659,-391.485C659,-366.941 659,-328.937 659,-289.843"/>
<polygon fill="none" stroke="#404040" points="659,-289.689 655,-283.689 659,-277.689 663,-283.689 659,-289.689"/>
<text text-anchor="middle" x="683.5" y="-310" font-family="Helvetica,sans-Serif" font-size="10.00"> #m_fvalue</text>
<text text-anchor="middle" x="683.5" y="-299" font-family="Helvetica,sans-Serif" font-size="10.00">#m_farea</text>
</g>
<!-- Node28 -->
<g id="node28" class="node"><title>Node28</title>
<polygon fill="white" stroke="#bfbfbf" points="811.5,-573.5 811.5,-630.5 846.5,-630.5 846.5,-573.5 811.5,-573.5"/>
<text text-anchor="middle" x="829" y="-618.5" font-family="Helvetica,sans-Serif" font-size="10.00">float</text>
<polyline fill="none" stroke="#bfbfbf" points="811.5,-611.5 846.5,-611.5 "/>
<text text-anchor="middle" x="829" y="-599.5" font-family="Helvetica,sans-Serif" font-size="10.00"> </text>
<polyline fill="none" stroke="#bfbfbf" points="811.5,-592.5 846.5,-592.5 "/>
<text text-anchor="middle" x="829" y="-580.5" font-family="Helvetica,sans-Serif" font-size="10.00"> </text>
</g>
<!-- Node28&#45;&gt;Node27 -->
<g id="edge40" class="edge"><title>Node28&#45;&gt;Node27</title>
<path fill="none" stroke="#404040" d="M828.238,-573.184C826.268,-556.108 820.892,-535.076 807,-522 779.198,-495.831 755.298,-524.362 723,-504 705.449,-492.935 690.836,-475.261 680.026,-459.06"/>
<polygon fill="none" stroke="#404040" points="679.894,-458.852 673.306,-455.92 673.478,-448.711 680.066,-451.643 679.894,-458.852"/>
<text text-anchor="middle" x="846.5" y="-530.5" font-family="Helvetica,sans-Serif" font-size="10.00"> +elements</text>
</g>
</g>
</svg>
