<?xml version="1.0" encoding="UTF-8" standalone="no"?>
<!DOCTYPE svg PUBLIC "-//W3C//DTD SVG 1.1//EN"
 "http://www.w3.org/Graphics/SVG/1.1/DTD/svg11.dtd">
<!-- Generated by graphviz version 2.36.0 (20140111.2315)
 -->
<!-- Title: AnimationPlugin::AnimationComponent::setupIO Pages: 1 -->
<svg width="336pt" height="332pt"
 viewBox="0.00 0.00 336.00 332.00" xmlns="http://www.w3.org/2000/svg" xmlns:xlink="http://www.w3.org/1999/xlink">
<g id="graph0" class="graph" transform="scale(1 1) rotate(0) translate(4 328)">
<title>AnimationPlugin::AnimationComponent::setupIO</title>
<polygon fill="white" stroke="none" points="-4,4 -4,-328 332,-328 332,4 -4,4"/>
<!-- Node1 -->
<g id="node1" class="node"><title>Node1</title>
<polygon fill="#bfbfbf" stroke="black" points="0.5,-147 0.5,-177 137.5,-177 137.5,-147 0.5,-147"/>
<text text-anchor="start" x="8.5" y="-165" font-family="Helvetica,sans-Serif" font-size="10.00">AnimationPlugin::Animation</text>
<text text-anchor="middle" x="69" y="-154" font-family="Helvetica,sans-Serif" font-size="10.00">Component::setupIO</text>
</g>
<!-- Node2 -->
<g id="node2" class="node"><title>Node2</title>
<g id="a_node2"><a xlink:href="classAnimationPlugin_1_1AnimationComponent.html#a39fe3e23030621e4f50f42478193ad00" target="_top" xlink:title="AnimationPlugin::Animation\lComponent::getSkeletonOutput">
<polygon fill="white" stroke="black" points="174,-294 174,-324 328,-324 328,-294 174,-294"/>
<text text-anchor="start" x="182" y="-312" font-family="Helvetica,sans-Serif" font-size="10.00">AnimationPlugin::Animation</text>
<text text-anchor="middle" x="251" y="-301" font-family="Helvetica,sans-Serif" font-size="10.00">Component::getSkeletonOutput</text>
</a>
</g>
</g>
<!-- Node1&#45;&gt;Node2 -->
<g id="edge1" class="edge"><title>Node1&#45;&gt;Node2</title>
<path fill="none" stroke="midnightblue" d="M78.9206,-177.077C94.835,-202.708 130.561,-254.831 174,-284 176.913,-285.956 179.992,-287.77 183.175,-289.45"/>
<polygon fill="midnightblue" stroke="midnightblue" points="181.838,-292.69 192.37,-293.839 184.853,-286.373 181.838,-292.69"/>
</g>
<!-- Node3 -->
<g id="node3" class="node"><title>Node3</title>
<g id="a_node3"><a xlink:href="classRa_1_1Engine_1_1Component.html#a207c1dc2e97856c22e0767fb77162933" target="_top" xlink:title="Return the entity the component belongs to. ">
<polygon fill="white" stroke="black" points="190,-245 190,-275 312,-275 312,-245 190,-245"/>
<text text-anchor="start" x="198" y="-263" font-family="Helvetica,sans-Serif" font-size="10.00">Ra::Engine::Component</text>
<text text-anchor="middle" x="251" y="-252" font-family="Helvetica,sans-Serif" font-size="10.00">::getEntity</text>
</a>
</g>
</g>
<!-- Node1&#45;&gt;Node3 -->
<g id="edge2" class="edge"><title>Node1&#45;&gt;Node3</title>
<path fill="none" stroke="midnightblue" d="M88.1116,-177.223C108.076,-193.383 141.662,-218.78 174,-235 178.349,-237.182 182.932,-239.234 187.601,-241.152"/>
<polygon fill="midnightblue" stroke="midnightblue" points="186.674,-244.547 197.263,-244.899 189.205,-238.02 186.674,-244.547"/>
</g>
<!-- Node4 -->
<g id="node4" class="node"><title>Node4</title>
<g id="a_node4"><a xlink:href="classAnimationPlugin_1_1AnimationComponent.html#a878356cef90f1de7b383b02be973d561" target="_top" xlink:title="AnimationPlugin::Animation\lComponent::getRefPoseOutput">
<polygon fill="white" stroke="black" points="174,-196 174,-226 328,-226 328,-196 174,-196"/>
<text text-anchor="start" x="182" y="-214" font-family="Helvetica,sans-Serif" font-size="10.00">AnimationPlugin::Animation</text>
<text text-anchor="middle" x="251" y="-203" font-family="Helvetica,sans-Serif" font-size="10.00">Component::getRefPoseOutput</text>
</a>
</g>
</g>
<!-- Node1&#45;&gt;Node4 -->
<g id="edge3" class="edge"><title>Node1&#45;&gt;Node4</title>
<path fill="none" stroke="midnightblue" d="M125.475,-177.101C144.297,-182.225 165.494,-187.996 184.991,-193.303"/>
<polygon fill="midnightblue" stroke="midnightblue" points="184.14,-196.699 194.708,-195.948 185.979,-189.945 184.14,-196.699"/>
</g>
<!-- Node5 -->
<g id="node5" class="node"><title>Node5</title>
<g id="a_node5"><a xlink:href="classAnimationPlugin_1_1AnimationComponent.html#a903f653764d3e90fc10e499948dea1e0" target="_top" xlink:title="AnimationPlugin::Animation\lComponent::getWeightsOutput">
<polygon fill="white" stroke="black" points="175,-147 175,-177 327,-177 327,-147 175,-147"/>
<text text-anchor="start" x="183" y="-165" font-family="Helvetica,sans-Serif" font-size="10.00">AnimationPlugin::Animation</text>
<text text-anchor="middle" x="251" y="-154" font-family="Helvetica,sans-Serif" font-size="10.00">Component::getWeightsOutput</text>
</a>
</g>
</g>
<!-- Node1&#45;&gt;Node5 -->
<g id="edge4" class="edge"><title>Node1&#45;&gt;Node5</title>
<path fill="none" stroke="midnightblue" d="M137.537,-162C146.38,-162 155.532,-162 164.62,-162"/>
<polygon fill="midnightblue" stroke="midnightblue" points="164.835,-165.5 174.835,-162 164.835,-158.5 164.835,-165.5"/>
</g>
<!-- Node6 -->
<g id="node6" class="node"><title>Node6</title>
<g id="a_node6"><a xlink:href="classAnimationPlugin_1_1AnimationComponent.html#a1bc2edd80668f7421ecaec99a22fa1bf" target="_top" xlink:title="AnimationPlugin::Animation\lComponent::getWasReset">
<polygon fill="white" stroke="black" points="182.5,-98 182.5,-128 319.5,-128 319.5,-98 182.5,-98"/>
<text text-anchor="start" x="190.5" y="-116" font-family="Helvetica,sans-Serif" font-size="10.00">AnimationPlugin::Animation</text>
<text text-anchor="middle" x="251" y="-105" font-family="Helvetica,sans-Serif" font-size="10.00">Component::getWasReset</text>
</a>
</g>
</g>
<!-- Node1&#45;&gt;Node6 -->
<g id="edge5" class="edge"><title>Node1&#45;&gt;Node6</title>
<path fill="none" stroke="midnightblue" d="M125.475,-146.899C144.297,-141.775 165.494,-136.004 184.991,-130.697"/>
<polygon fill="midnightblue" stroke="midnightblue" points="185.979,-134.055 194.708,-128.052 184.14,-127.301 185.979,-134.055"/>
</g>
<!-- Node7 -->
<g id="node7" class="node"><title>Node7</title>
<g id="a_node7"><a xlink:href="classAnimationPlugin_1_1AnimationComponent.html#adb46f8233101fbeb83d9b1234efbf770" target="_top" xlink:title="AnimationPlugin::Animation\lComponent::getAnimation">
<polygon fill="white" stroke="black" points="182.5,-49 182.5,-79 319.5,-79 319.5,-49 182.5,-49"/>
<text text-anchor="start" x="190.5" y="-67" font-family="Helvetica,sans-Serif" font-size="10.00">AnimationPlugin::Animation</text>
<text text-anchor="middle" x="251" y="-56" font-family="Helvetica,sans-Serif" font-size="10.00">Component::getAnimation</text>
</a>
</g>
</g>
<!-- Node1&#45;&gt;Node7 -->
<g id="edge6" class="edge"><title>Node1&#45;&gt;Node7</title>
<path fill="none" stroke="midnightblue" d="M88.1116,-146.777C108.076,-130.617 141.662,-105.22 174,-89 178.349,-86.8185 182.932,-84.7658 187.601,-82.8477"/>
<polygon fill="midnightblue" stroke="midnightblue" points="189.205,-85.9798 197.263,-79.1011 186.674,-79.4533 189.205,-85.9798"/>
</g>
<!-- Node8 -->
<g id="node8" class="node"><title>Node8</title>
<g id="a_node8"><a xlink:href="classAnimationPlugin_1_1AnimationComponent.html#ad2c3fe9ef62806d8b721c7daadbd0460" target="_top" xlink:title="AnimationPlugin::Animation\lComponent::getTimeOutput">
<polygon fill="white" stroke="black" points="182.5,-0 182.5,-30 319.5,-30 319.5,-0 182.5,-0"/>
<text text-anchor="start" x="190.5" y="-18" font-family="Helvetica,sans-Serif" font-size="10.00">AnimationPlugin::Animation</text>
<text text-anchor="middle" x="251" y="-7" font-family="Helvetica,sans-Serif" font-size="10.00">Component::getTimeOutput</text>
</a>
</g>
</g>
<!-- Node1&#45;&gt;Node8 -->
<g id="edge7" class="edge"><title>Node1&#45;&gt;Node8</title>
<path fill="none" stroke="midnightblue" d="M78.9206,-146.923C94.835,-121.292 130.561,-69.1692 174,-40 176.913,-38.0436 179.992,-36.2299 183.175,-34.5497"/>
<polygon fill="midnightblue" stroke="midnightblue" points="184.853,-37.627 192.37,-30.1607 181.838,-31.3097 184.853,-37.627"/>
</g>
</g>
</svg>
