<?xml version="1.0" encoding="UTF-8" standalone="no"?>
<!DOCTYPE svg PUBLIC "-//W3C//DTD SVG 1.1//EN"
 "http://www.w3.org/Graphics/SVG/1.1/DTD/svg11.dtd">
<!-- Generated by graphviz version 2.36.0 (20140111.2315)
 -->
<!-- Title: Ra::Core::TriangleMesh Pages: 1 -->
<svg width="485pt" height="940pt"
 viewBox="0.00 0.00 485.00 940.00" xmlns="http://www.w3.org/2000/svg" xmlns:xlink="http://www.w3.org/1999/xlink">
<g id="graph0" class="graph" transform="scale(1 1) rotate(0) translate(4 936)">
<title>Ra::Core::TriangleMesh</title>
<polygon fill="white" stroke="none" points="-4,4 -4,-936 481,-936 481,4 -4,4"/>
<!-- Node1 -->
<g id="node1" class="node"><title>Node1</title>
<polygon fill="#bfbfbf" stroke="black" points="166.5,-0.5 166.5,-167.5 287.5,-167.5 287.5,-0.5 166.5,-0.5"/>
<text text-anchor="middle" x="227" y="-155.5" font-family="Helvetica,sans-Serif" font-size="10.00">Ra::Core::TriangleMesh</text>
<polyline fill="none" stroke="black" points="166.5,-148.5 287.5,-148.5 "/>
<text text-anchor="middle" x="227" y="-136.5" font-family="Helvetica,sans-Serif" font-size="10.00"> </text>
<polyline fill="none" stroke="black" points="166.5,-129.5 287.5,-129.5 "/>
<text text-anchor="start" x="174.5" y="-117.5" font-family="Helvetica,sans-Serif" font-size="10.00">+ TriangleMesh()</text>
<text text-anchor="start" x="174.5" y="-106.5" font-family="Helvetica,sans-Serif" font-size="10.00">+ TriangleMesh()</text>
<text text-anchor="start" x="174.5" y="-95.5" font-family="Helvetica,sans-Serif" font-size="10.00">+ operator=()</text>
<text text-anchor="start" x="174.5" y="-84.5" font-family="Helvetica,sans-Serif" font-size="10.00">+ clear()</text>
<text text-anchor="start" x="174.5" y="-73.5" font-family="Helvetica,sans-Serif" font-size="10.00">+ append()</text>
<text text-anchor="start" x="174.5" y="-62.5" font-family="Helvetica,sans-Serif" font-size="10.00">+ vertices()</text>
<text text-anchor="start" x="174.5" y="-51.5" font-family="Helvetica,sans-Serif" font-size="10.00">+ normals()</text>
<text text-anchor="start" x="174.5" y="-40.5" font-family="Helvetica,sans-Serif" font-size="10.00">+ vertices()</text>
<text text-anchor="start" x="174.5" y="-29.5" font-family="Helvetica,sans-Serif" font-size="10.00">+ normals()</text>
<text text-anchor="start" x="174.5" y="-18.5" font-family="Helvetica,sans-Serif" font-size="10.00">+ attribManager()</text>
<text text-anchor="start" x="174.5" y="-7.5" font-family="Helvetica,sans-Serif" font-size="10.00">+ attribManager()</text>
</g>
<!-- Node2 -->
<g id="node2" class="node"><title>Node2</title>
<g id="a_node2"><a xlink:href="classRa_1_1Core_1_1VectorArray.html" target="_top" xlink:title="{Ra::Core::VectorArray\l\&lt; Triangle \&gt;\n||+ getMap()\l+ getMap()\l}">
<polygon fill="white" stroke="black" points="99,-216.5 99,-295.5 213,-295.5 213,-216.5 99,-216.5"/>
<text text-anchor="start" x="107" y="-283.5" font-family="Helvetica,sans-Serif" font-size="10.00">Ra::Core::VectorArray</text>
<text text-anchor="middle" x="156" y="-272.5" font-family="Helvetica,sans-Serif" font-size="10.00">&lt; Triangle &gt;</text>
<polyline fill="none" stroke="black" points="99,-265.5 213,-265.5 "/>
<text text-anchor="middle" x="156" y="-253.5" font-family="Helvetica,sans-Serif" font-size="10.00"> </text>
<polyline fill="none" stroke="black" points="99,-246.5 213,-246.5 "/>
<text text-anchor="start" x="107" y="-234.5" font-family="Helvetica,sans-Serif" font-size="10.00">+ getMap()</text>
<text text-anchor="start" x="107" y="-223.5" font-family="Helvetica,sans-Serif" font-size="10.00">+ getMap()</text>
</a>
</g>
</g>
<!-- Node2&#45;&gt;Node1 -->
<g id="edge1" class="edge"><title>Node2&#45;&gt;Node1</title>
<path fill="none" stroke="#404040" d="M172.111,-216.424C176.874,-205.021 182.308,-192.009 187.862,-178.71"/>
<polygon fill="none" stroke="#404040" points="187.919,-178.573 186.541,-171.495 192.544,-167.5 193.923,-174.578 187.919,-178.573"/>
<text text-anchor="middle" x="214" y="-189.5" font-family="Helvetica,sans-Serif" font-size="10.00"> +m_triangles</text>
</g>
<!-- Node3 -->
<g id="node3" class="node"><title>Node3</title>
<g id="a_node3"><a xlink:href="structRa_1_1Core_1_1AlignedStdVector.html" target="_top" xlink:title="{Ra::Core::AlignedStdVector\l\&lt; Triangle \&gt;\n||}">
<polygon fill="white" stroke="black" points="0,-453 0,-521 138,-521 138,-453 0,-453"/>
<text text-anchor="start" x="8" y="-509" font-family="Helvetica,sans-Serif" font-size="10.00">Ra::Core::AlignedStdVector</text>
<text text-anchor="middle" x="69" y="-498" font-family="Helvetica,sans-Serif" font-size="10.00">&lt; Triangle &gt;</text>
<polyline fill="none" stroke="black" points="0,-491 138,-491 "/>
<text text-anchor="middle" x="69" y="-479" font-family="Helvetica,sans-Serif" font-size="10.00"> </text>
<polyline fill="none" stroke="black" points="0,-472 138,-472 "/>
<text text-anchor="middle" x="69" y="-460" font-family="Helvetica,sans-Serif" font-size="10.00"> </text>
</a>
</g>
</g>
<!-- Node3&#45;&gt;Node2 -->
<g id="edge2" class="edge"><title>Node3&#45;&gt;Node2</title>
<path fill="none" stroke="midnightblue" d="M85.2514,-443.223C101.344,-400.865 125.766,-336.58 141.297,-295.701"/>
<polygon fill="none" stroke="midnightblue" points="81.9302,-442.11 81.6505,-452.701 88.4739,-444.596 81.9302,-442.11"/>
</g>
<!-- Node4 -->
<g id="node4" class="node"><title>Node4</title>
<g id="a_node4"><a xlink:title="STL class. ">
<polygon fill="white" stroke="#bfbfbf" points="3.5,-658.5 3.5,-737.5 126.5,-737.5 126.5,-658.5 3.5,-658.5"/>
<text text-anchor="start" x="11.5" y="-725.5" font-family="Helvetica,sans-Serif" font-size="10.00">std::vector&lt; Triangle,</text>
<text text-anchor="start" x="11.5" y="-714.5" font-family="Helvetica,sans-Serif" font-size="10.00"> Eigen::aligned_allocator</text>
<text text-anchor="middle" x="65" y="-703.5" font-family="Helvetica,sans-Serif" font-size="10.00">&lt; Triangle &gt; &gt;</text>
<polyline fill="none" stroke="#bfbfbf" points="3.5,-696.5 126.5,-696.5 "/>
<text text-anchor="middle" x="65" y="-684.5" font-family="Helvetica,sans-Serif" font-size="10.00"> </text>
<polyline fill="none" stroke="#bfbfbf" points="3.5,-677.5 126.5,-677.5 "/>
<text text-anchor="middle" x="65" y="-665.5" font-family="Helvetica,sans-Serif" font-size="10.00"> </text>
</a>
</g>
</g>
<!-- Node4&#45;&gt;Node3 -->
<g id="edge3" class="edge"><title>Node4&#45;&gt;Node3</title>
<path fill="none" stroke="midnightblue" d="M65.9363,-648.076C66.6843,-608.996 67.7122,-555.289 68.3664,-521.108"/>
<polygon fill="none" stroke="midnightblue" points="62.4351,-648.113 65.743,-658.179 69.4338,-648.247 62.4351,-648.113"/>
</g>
<!-- Node5 -->
<g id="node5" class="node"><title>Node5</title>
<polygon fill="white" stroke="#bfbfbf" points="182.5,-874.5 182.5,-931.5 211.5,-931.5 211.5,-874.5 182.5,-874.5"/>
<text text-anchor="middle" x="197" y="-919.5" font-family="Helvetica,sans-Serif" font-size="10.00">T</text>
<polyline fill="none" stroke="#bfbfbf" points="182.5,-912.5 211.5,-912.5 "/>
<text text-anchor="middle" x="197" y="-900.5" font-family="Helvetica,sans-Serif" font-size="10.00"> </text>
<polyline fill="none" stroke="#bfbfbf" points="182.5,-893.5 211.5,-893.5 "/>
<text text-anchor="middle" x="197" y="-881.5" font-family="Helvetica,sans-Serif" font-size="10.00"> </text>
</g>
<!-- Node5&#45;&gt;Node4 -->
<g id="edge4" class="edge"><title>Node5&#45;&gt;Node4</title>
<path fill="none" stroke="#404040" d="M182.404,-900.28C158.721,-896.661 112.239,-885.948 89,-856 65.8418,-826.156 60.5966,-783.292 60.7242,-749.889"/>
<polygon fill="none" stroke="#404040" points="60.731,-749.595 56.8716,-743.503 61.0101,-737.598 64.8694,-743.689 60.731,-749.595"/>
<text text-anchor="middle" x="113.5" y="-847.5" font-family="Helvetica,sans-Serif" font-size="10.00"> +elements</text>
</g>
<!-- Node7 -->
<g id="node7" class="node"><title>Node7</title>
<g id="a_node7"><a xlink:title="STL class. ">
<polygon fill="white" stroke="#bfbfbf" points="235,-757 235,-825 363,-825 363,-757 235,-757"/>
<text text-anchor="start" x="243" y="-813" font-family="Helvetica,sans-Serif" font-size="10.00">std::vector&lt; T, Eigen</text>
<text text-anchor="middle" x="299" y="-802" font-family="Helvetica,sans-Serif" font-size="10.00">::aligned_allocator&lt; T &gt; &gt;</text>
<polyline fill="none" stroke="#bfbfbf" points="235,-795 363,-795 "/>
<text text-anchor="middle" x="299" y="-783" font-family="Helvetica,sans-Serif" font-size="10.00"> </text>
<polyline fill="none" stroke="#bfbfbf" points="235,-776 363,-776 "/>
<text text-anchor="middle" x="299" y="-764" font-family="Helvetica,sans-Serif" font-size="10.00"> </text>
</a>
</g>
</g>
<!-- Node5&#45;&gt;Node7 -->
<g id="edge7" class="edge"><title>Node5&#45;&gt;Node7</title>
<path fill="none" stroke="#404040" d="M211.614,-886.24C224.092,-872.783 242.633,-852.788 259.43,-834.673"/>
<polygon fill="none" stroke="#404040" points="259.854,-834.216 261.001,-827.096 268.014,-825.417 266.867,-832.536 259.854,-834.216"/>
<text text-anchor="middle" x="272.5" y="-847.5" font-family="Helvetica,sans-Serif" font-size="10.00"> +elements</text>
</g>
<!-- Node10 -->
<g id="node10" class="node"><title>Node10</title>
<g id="a_node10"><a xlink:title="STL class. ">
<polygon fill="white" stroke="#bfbfbf" points="83.5,-571 83.5,-639 212.5,-639 212.5,-571 83.5,-571"/>
<text text-anchor="start" x="91.5" y="-627" font-family="Helvetica,sans-Serif" font-size="10.00">std::vector&lt; V, Eigen</text>
<text text-anchor="middle" x="148" y="-616" font-family="Helvetica,sans-Serif" font-size="10.00">::aligned_allocator&lt; V &gt; &gt;</text>
<polyline fill="none" stroke="#bfbfbf" points="83.5,-609 212.5,-609 "/>
<text text-anchor="middle" x="148" y="-597" font-family="Helvetica,sans-Serif" font-size="10.00"> </text>
<polyline fill="none" stroke="#bfbfbf" points="83.5,-590 212.5,-590 "/>
<text text-anchor="middle" x="148" y="-578" font-family="Helvetica,sans-Serif" font-size="10.00"> </text>
</a>
</g>
</g>
<!-- Node5&#45;&gt;Node10 -->
<g id="edge11" class="edge"><title>Node5&#45;&gt;Node10</title>
<path fill="none" stroke="#404040" d="M188.838,-874.4C184.828,-860.063 180.186,-842.199 177,-826 165.201,-766.008 156.886,-695.846 152.27,-651.18"/>
<polygon fill="none" stroke="#404040" points="152.246,-650.95 147.663,-645.383 151.038,-639.011 155.622,-644.578 152.246,-650.95"/>
<text text-anchor="middle" x="201.5" y="-788.5" font-family="Helvetica,sans-Serif" font-size="10.00"> +elements</text>
</g>
<!-- Node13 -->
<g id="node13" class="node"><title>Node13</title>
<g id="a_node13"><a xlink:title="STL class. ">
<polygon fill="white" stroke="#bfbfbf" points="354.5,-658.5 354.5,-737.5 477.5,-737.5 477.5,-658.5 354.5,-658.5"/>
<text text-anchor="start" x="362.5" y="-725.5" font-family="Helvetica,sans-Serif" font-size="10.00">std::vector&lt; Face,</text>
<text text-anchor="start" x="362.5" y="-714.5" font-family="Helvetica,sans-Serif" font-size="10.00"> Eigen::aligned_allocator</text>
<text text-anchor="middle" x="416" y="-703.5" font-family="Helvetica,sans-Serif" font-size="10.00">&lt; Face &gt; &gt;</text>
<polyline fill="none" stroke="#bfbfbf" points="354.5,-696.5 477.5,-696.5 "/>
<text text-anchor="middle" x="416" y="-684.5" font-family="Helvetica,sans-Serif" font-size="10.00"> </text>
<polyline fill="none" stroke="#bfbfbf" points="354.5,-677.5 477.5,-677.5 "/>
<text text-anchor="middle" x="416" y="-665.5" font-family="Helvetica,sans-Serif" font-size="10.00"> </text>
</a>
</g>
</g>
<!-- Node5&#45;&gt;Node13 -->
<g id="edge16" class="edge"><title>Node5&#45;&gt;Node13</title>
<path fill="none" stroke="#404040" d="M211.995,-899.657C245.49,-893.646 326.975,-874.594 372,-826 391.441,-805.018 402.353,-775.009 408.446,-749.43"/>
<polygon fill="none" stroke="#404040" points="408.454,-749.393 405.814,-742.682 410.993,-737.664 413.633,-744.375 408.454,-749.393"/>
<text text-anchor="middle" x="375.5" y="-847.5" font-family="Helvetica,sans-Serif" font-size="10.00"> +elements</text>
</g>
<!-- Node6 -->
<g id="node6" class="node"><title>Node6</title>
<g id="a_node6"><a xlink:href="structRa_1_1Core_1_1AlignedStdVector.html" target="_top" xlink:title="{Ra::Core::AlignedStdVector\&lt; T \&gt;\n||}">
<polygon fill="white" stroke="black" points="231,-576.5 231,-633.5 393,-633.5 393,-576.5 231,-576.5"/>
<text text-anchor="middle" x="312" y="-621.5" font-family="Helvetica,sans-Serif" font-size="10.00">Ra::Core::AlignedStdVector&lt; T &gt;</text>
<polyline fill="none" stroke="black" points="231,-614.5 393,-614.5 "/>
<text text-anchor="middle" x="312" y="-602.5" font-family="Helvetica,sans-Serif" font-size="10.00"> </text>
<polyline fill="none" stroke="black" points="231,-595.5 393,-595.5 "/>
<text text-anchor="middle" x="312" y="-583.5" font-family="Helvetica,sans-Serif" font-size="10.00"> </text>
</a>
</g>
</g>
<!-- Node6&#45;&gt;Node3 -->
<g id="edge5" class="edge"><title>Node6&#45;&gt;Node3</title>
<path fill="none" stroke="orange" d="M244.925,-571.981C211.697,-556.119 171.623,-536.989 138.121,-520.996"/>
<polygon fill="orange" stroke="orange" points="243.572,-575.213 254.104,-576.362 246.587,-568.896 243.572,-575.213"/>
<text text-anchor="middle" x="226" y="-543.5" font-family="Helvetica,sans-Serif" font-size="10.00"> &lt; Triangle &gt;</text>
</g>
<!-- Node9 -->
<g id="node9" class="node"><title>Node9</title>
<g id="a_node9"><a xlink:href="structRa_1_1Core_1_1AlignedStdVector.html" target="_top" xlink:title="{Ra::Core::AlignedStdVector\&lt; V \&gt;\n||}">
<polygon fill="white" stroke="black" points="156.5,-458.5 156.5,-515.5 319.5,-515.5 319.5,-458.5 156.5,-458.5"/>
<text text-anchor="middle" x="238" y="-503.5" font-family="Helvetica,sans-Serif" font-size="10.00">Ra::Core::AlignedStdVector&lt; V &gt;</text>
<polyline fill="none" stroke="black" points="156.5,-496.5 319.5,-496.5 "/>
<text text-anchor="middle" x="238" y="-484.5" font-family="Helvetica,sans-Serif" font-size="10.00"> </text>
<polyline fill="none" stroke="black" points="156.5,-477.5 319.5,-477.5 "/>
<text text-anchor="middle" x="238" y="-465.5" font-family="Helvetica,sans-Serif" font-size="10.00"> </text>
</a>
</g>
</g>
<!-- Node6&#45;&gt;Node9 -->
<g id="edge12" class="edge"><title>Node6&#45;&gt;Node9</title>
<path fill="none" stroke="orange" d="M288.845,-567.703C278.099,-550.857 265.532,-531.158 255.58,-515.558"/>
<polygon fill="orange" stroke="orange" points="285.946,-569.667 294.275,-576.215 291.848,-565.902 285.946,-569.667"/>
<text text-anchor="middle" x="292" y="-543.5" font-family="Helvetica,sans-Serif" font-size="10.00"> &lt; V &gt;</text>
</g>
<!-- Node12 -->
<g id="node12" class="node"><title>Node12</title>
<g id="a_node12"><a xlink:href="structRa_1_1Core_1_1AlignedStdVector.html" target="_top" xlink:title="{Ra::Core::AlignedStdVector\l\&lt; Face \&gt;\n||}">
<polygon fill="white" stroke="black" points="338,-453 338,-521 476,-521 476,-453 338,-453"/>
<text text-anchor="start" x="346" y="-509" font-family="Helvetica,sans-Serif" font-size="10.00">Ra::Core::AlignedStdVector</text>
<text text-anchor="middle" x="407" y="-498" font-family="Helvetica,sans-Serif" font-size="10.00">&lt; Face &gt;</text>
<polyline fill="none" stroke="black" points="338,-491 476,-491 "/>
<text text-anchor="middle" x="407" y="-479" font-family="Helvetica,sans-Serif" font-size="10.00"> </text>
<polyline fill="none" stroke="black" points="338,-472 476,-472 "/>
<text text-anchor="middle" x="407" y="-460" font-family="Helvetica,sans-Serif" font-size="10.00"> </text>
</a>
</g>
</g>
<!-- Node6&#45;&gt;Node12 -->
<g id="edge17" class="edge"><title>Node6&#45;&gt;Node12</title>
<path fill="none" stroke="orange" d="M340.892,-568.33C348.4,-559.09 356.489,-549.163 364,-540 368.976,-533.93 374.292,-527.475 379.43,-521.253"/>
<polygon fill="orange" stroke="orange" points="338.059,-566.266 334.472,-576.236 343.493,-570.679 338.059,-566.266"/>
<text text-anchor="middle" x="385.5" y="-543.5" font-family="Helvetica,sans-Serif" font-size="10.00"> &lt; Face &gt;</text>
</g>
<!-- Node7&#45;&gt;Node6 -->
<g id="edge6" class="edge"><title>Node7&#45;&gt;Node6</title>
<path fill="none" stroke="midnightblue" d="M302.088,-746.291C304.555,-711.369 307.938,-663.49 310.045,-633.668"/>
<polygon fill="none" stroke="midnightblue" points="298.568,-746.457 301.354,-756.679 305.55,-746.951 298.568,-746.457"/>
</g>
<!-- Node8 -->
<g id="node8" class="node"><title>Node8</title>
<g id="a_node8"><a xlink:href="classRa_1_1Core_1_1VectorArray.html" target="_top" xlink:title="{Ra::Core::VectorArray\&lt; V \&gt;\n||+ getMap()\l+ getMap()\l}">
<polygon fill="white" stroke="black" points="168.5,-345 168.5,-413 307.5,-413 307.5,-345 168.5,-345"/>
<text text-anchor="middle" x="238" y="-401" font-family="Helvetica,sans-Serif" font-size="10.00">Ra::Core::VectorArray&lt; V &gt;</text>
<polyline fill="none" stroke="black" points="168.5,-394 307.5,-394 "/>
<text text-anchor="middle" x="238" y="-382" font-family="Helvetica,sans-Serif" font-size="10.00"> </text>
<polyline fill="none" stroke="black" points="168.5,-375 307.5,-375 "/>
<text text-anchor="start" x="176.5" y="-363" font-family="Helvetica,sans-Serif" font-size="10.00">+ getMap()</text>
<text text-anchor="start" x="176.5" y="-352" font-family="Helvetica,sans-Serif" font-size="10.00">+ getMap()</text>
</a>
</g>
</g>
<!-- Node8&#45;&gt;Node2 -->
<g id="edge8" class="edge"><title>Node8&#45;&gt;Node2</title>
<path fill="none" stroke="orange" d="M208.3,-336.578C205.812,-333.012 203.351,-329.451 201,-326 194.316,-316.191 187.235,-305.489 180.718,-295.505"/>
<polygon fill="orange" stroke="orange" points="205.5,-338.681 214.112,-344.852 211.228,-334.657 205.5,-338.681"/>
<text text-anchor="middle" x="229" y="-317.5" font-family="Helvetica,sans-Serif" font-size="10.00"> &lt; Triangle &gt;</text>
</g>
<!-- Node11 -->
<g id="node11" class="node"><title>Node11</title>
<g id="a_node11"><a xlink:href="classRa_1_1Core_1_1VectorArray.html" target="_top" xlink:title="{Ra::Core::VectorArray\l\&lt; Face \&gt;\n||+ getMap()\l+ getMap()\l}">
<polygon fill="white" stroke="black" points="231,-216.5 231,-295.5 345,-295.5 345,-216.5 231,-216.5"/>
<text text-anchor="start" x="239" y="-283.5" font-family="Helvetica,sans-Serif" font-size="10.00">Ra::Core::VectorArray</text>
<text text-anchor="middle" x="288" y="-272.5" font-family="Helvetica,sans-Serif" font-size="10.00">&lt; Face &gt;</text>
<polyline fill="none" stroke="black" points="231,-265.5 345,-265.5 "/>
<text text-anchor="middle" x="288" y="-253.5" font-family="Helvetica,sans-Serif" font-size="10.00"> </text>
<polyline fill="none" stroke="black" points="231,-246.5 345,-246.5 "/>
<text text-anchor="start" x="239" y="-234.5" font-family="Helvetica,sans-Serif" font-size="10.00">+ getMap()</text>
<text text-anchor="start" x="239" y="-223.5" font-family="Helvetica,sans-Serif" font-size="10.00">+ getMap()</text>
</a>
</g>
</g>
<!-- Node8&#45;&gt;Node11 -->
<g id="edge18" class="edge"><title>Node8&#45;&gt;Node11</title>
<path fill="none" stroke="orange" d="M255.637,-335.32C260.983,-322.382 266.822,-308.251 272.051,-295.597"/>
<polygon fill="orange" stroke="orange" points="252.247,-334.358 251.663,-344.936 258.717,-337.031 252.247,-334.358"/>
<text text-anchor="middle" x="284.5" y="-317.5" font-family="Helvetica,sans-Serif" font-size="10.00"> &lt; Face &gt;</text>
</g>
<!-- Node9&#45;&gt;Node8 -->
<g id="edge9" class="edge"><title>Node9&#45;&gt;Node8</title>
<path fill="none" stroke="midnightblue" d="M238,-448.247C238,-436.768 238,-424.245 238,-413.097"/>
<polygon fill="none" stroke="midnightblue" points="234.5,-448.426 238,-458.426 241.5,-448.426 234.5,-448.426"/>
</g>
<!-- Node10&#45;&gt;Node9 -->
<g id="edge10" class="edge"><title>Node10&#45;&gt;Node9</title>
<path fill="none" stroke="midnightblue" d="M170.14,-561.916C174.709,-554.382 179.743,-546.78 185,-540 191.556,-531.545 199.432,-523.106 207.083,-515.562"/>
<polygon fill="none" stroke="midnightblue" points="167.043,-560.278 165.003,-570.674 173.081,-563.819 167.043,-560.278"/>
</g>
<!-- Node11&#45;&gt;Node1 -->
<g id="edge13" class="edge"><title>Node11&#45;&gt;Node1</title>
<path fill="none" stroke="#404040" d="M274.158,-216.424C270.107,-205.135 265.491,-192.269 260.769,-179.109"/>
<polygon fill="none" stroke="#404040" points="260.656,-178.795 254.865,-174.499 256.603,-167.5 262.394,-171.797 260.656,-178.795"/>
<text text-anchor="middle" x="290.5" y="-189.5" font-family="Helvetica,sans-Serif" font-size="10.00"> +m_faces</text>
</g>
<!-- Node12&#45;&gt;Node11 -->
<g id="edge14" class="edge"><title>Node12&#45;&gt;Node11</title>
<path fill="none" stroke="midnightblue" d="M385.049,-443.757C363.041,-401.406 329.443,-336.753 308.111,-295.701"/>
<polygon fill="none" stroke="midnightblue" points="381.98,-445.442 389.696,-452.701 388.191,-442.214 381.98,-445.442"/>
</g>
<!-- Node13&#45;&gt;Node12 -->
<g id="edge15" class="edge"><title>Node13&#45;&gt;Node12</title>
<path fill="none" stroke="midnightblue" d="M413.893,-648.076C412.21,-608.996 409.898,-555.289 408.426,-521.108"/>
<polygon fill="none" stroke="midnightblue" points="410.401,-648.338 414.328,-658.179 417.395,-648.037 410.401,-648.338"/>
</g>
</g>
</svg>
