<?xml version="1.0" encoding="UTF-8" standalone="no"?>
<!DOCTYPE svg PUBLIC "-//W3C//DTD SVG 1.1//EN"
 "http://www.w3.org/Graphics/SVG/1.1/DTD/svg11.dtd">
<!-- Generated by graphviz version 2.36.0 (20140111.2315)
 -->
<!-- Title: SkinningPlugin::SkinningComponent::setSkinningType Pages: 1 -->
<svg width="1122pt" height="354pt"
 viewBox="0.00 0.00 1122.00 354.00" xmlns="http://www.w3.org/2000/svg" xmlns:xlink="http://www.w3.org/1999/xlink">
<g id="graph0" class="graph" transform="scale(1 1) rotate(0) translate(4 350)">
<title>SkinningPlugin::SkinningComponent::setSkinningType</title>
<polygon fill="white" stroke="none" points="-4,4 -4,-350 1118,-350 1118,4 -4,4"/>
<!-- Node1 -->
<g id="node1" class="node"><title>Node1</title>
<polygon fill="#bfbfbf" stroke="black" points="0,-159 0,-189 146,-189 146,-159 0,-159"/>
<text text-anchor="start" x="8" y="-177" font-family="Helvetica,sans-Serif" font-size="10.00">SkinningPlugin::Skinning</text>
<text text-anchor="middle" x="73" y="-166" font-family="Helvetica,sans-Serif" font-size="10.00">Component::setSkinningType</text>
</g>
<!-- Node2 -->
<g id="node2" class="node"><title>Node2</title>
<g id="a_node2"><a xlink:href="classSkinningPlugin_1_1SkinningComponent.html#a0ba759710b12a03a59faca912566d328" target="_top" xlink:title="SkinningPlugin::Skinning\lComponent::setupSkinningType">
<polygon fill="white" stroke="black" points="182,-159 182,-189 338,-189 338,-159 182,-159"/>
<text text-anchor="start" x="190" y="-177" font-family="Helvetica,sans-Serif" font-size="10.00">SkinningPlugin::Skinning</text>
<text text-anchor="middle" x="260" y="-166" font-family="Helvetica,sans-Serif" font-size="10.00">Component::setupSkinningType</text>
</a>
</g>
</g>
<!-- Node1&#45;&gt;Node2 -->
<g id="edge1" class="edge"><title>Node1&#45;&gt;Node2</title>
<path fill="none" stroke="midnightblue" d="M146.056,-174C154.514,-174 163.213,-174 171.85,-174"/>
<polygon fill="midnightblue" stroke="midnightblue" points="171.942,-177.5 181.942,-174 171.941,-170.5 171.942,-177.5"/>
</g>
<!-- Node3 -->
<g id="node3" class="node"><title>Node3</title>
<g id="a_node3"><a xlink:href="namespaceRa_1_1Core_1_1Animation.html#a40700cdabdd47fdb360f6bbfe692b36d" target="_top" xlink:title="Compute the optimal center of rotations (1 per vertex) based on weight similarity. ">
<polygon fill="white" stroke="black" points="374,-159 374,-189 480,-189 480,-159 374,-159"/>
<text text-anchor="start" x="382" y="-177" font-family="Helvetica,sans-Serif" font-size="10.00">Ra::Core::Animation</text>
<text text-anchor="middle" x="427" y="-166" font-family="Helvetica,sans-Serif" font-size="10.00">::computeCoR</text>
</a>
</g>
</g>
<!-- Node2&#45;&gt;Node3 -->
<g id="edge2" class="edge"><title>Node2&#45;&gt;Node3</title>
<path fill="none" stroke="midnightblue" d="M338.186,-174C346.772,-174 355.436,-174 363.803,-174"/>
<polygon fill="midnightblue" stroke="midnightblue" points="363.835,-177.5 373.835,-174 363.835,-170.5 363.835,-177.5"/>
</g>
<!-- Node4 -->
<g id="node4" class="node"><title>Node4</title>
<g id="a_node4"><a xlink:href="namespaceRa_1_1Core.html#a1992d0f90662705985222f69287915d0" target="_top" xlink:title="Ra::Core::convert">
<polygon fill="white" stroke="black" points="533.5,-300.5 533.5,-319.5 628.5,-319.5 628.5,-300.5 533.5,-300.5"/>
<text text-anchor="middle" x="581" y="-307.5" font-family="Helvetica,sans-Serif" font-size="10.00">Ra::Core::convert</text>
</a>
</g>
</g>
<!-- Node3&#45;&gt;Node4 -->
<g id="edge3" class="edge"><title>Node3&#45;&gt;Node4</title>
<path fill="none" stroke="midnightblue" d="M436.254,-189.218C449.886,-213.025 479.283,-259.128 516,-286 521.597,-290.097 527.975,-293.574 534.486,-296.501"/>
<polygon fill="midnightblue" stroke="midnightblue" points="533.462,-299.863 544.043,-300.403 536.108,-293.383 533.462,-299.863"/>
</g>
<!-- Node5 -->
<g id="node5" class="node"><title>Node5</title>
<g id="a_node5"><a xlink:href="classRa_1_1Core_1_1TriangleMesh.html#a495116f40cfec8bb6504698d786d4b8c" target="_top" xlink:title="Ra::Core::TriangleMesh\l::vertices">
<polygon fill="white" stroke="black" points="832.5,-235 832.5,-265 953.5,-265 953.5,-235 832.5,-235"/>
<text text-anchor="start" x="840.5" y="-253" font-family="Helvetica,sans-Serif" font-size="10.00">Ra::Core::TriangleMesh</text>
<text text-anchor="middle" x="893" y="-242" font-family="Helvetica,sans-Serif" font-size="10.00">::vertices</text>
</a>
</g>
</g>
<!-- Node3&#45;&gt;Node5 -->
<g id="edge11" class="edge"><title>Node3&#45;&gt;Node5</title>
<path fill="none" stroke="midnightblue" d="M480.417,-187.317C492.088,-190.056 504.431,-192.778 516,-195 622.121,-215.382 746.37,-232.198 822.106,-241.667"/>
<polygon fill="midnightblue" stroke="midnightblue" points="822.109,-245.194 832.464,-242.954 822.972,-238.248 822.109,-245.194"/>
</g>
<!-- Node8 -->
<g id="node8" class="node"><title>Node8</title>
<g id="a_node8"><a xlink:href="namespaceRa_1_1Core_1_1Algorithm.html#aea294cdb6f4f0d85955bdcccb22886ec" target="_top" xlink:title="Ra::Core::Algorithm::t">
<polygon fill="white" stroke="black" points="682.5,-262.5 682.5,-281.5 795.5,-281.5 795.5,-262.5 682.5,-262.5"/>
<text text-anchor="middle" x="739" y="-269.5" font-family="Helvetica,sans-Serif" font-size="10.00">Ra::Core::Algorithm::t</text>
</a>
</g>
</g>
<!-- Node3&#45;&gt;Node8 -->
<g id="edge12" class="edge"><title>Node3&#45;&gt;Node8</title>
<path fill="none" stroke="midnightblue" d="M440.832,-189.242C456.561,-206.749 484.973,-234.756 516,-248 565.555,-269.153 626.739,-274.411 672.317,-274.799"/>
<polygon fill="midnightblue" stroke="midnightblue" points="672.376,-278.299 682.379,-274.808 672.382,-271.299 672.376,-278.299"/>
</g>
<!-- Node9 -->
<g id="node9" class="node"><title>Node9</title>
<g id="a_node9"><a xlink:href="namespaceOpenMesh.html#a8205f789ce08919bc11c58383574596c" target="_top" xlink:title="OpenMesh::norm">
<polygon fill="white" stroke="black" points="847,-52.5 847,-71.5 939,-71.5 939,-52.5 847,-52.5"/>
<text text-anchor="middle" x="893" y="-59.5" font-family="Helvetica,sans-Serif" font-size="10.00">OpenMesh::norm</text>
</a>
</g>
</g>
<!-- Node3&#45;&gt;Node9 -->
<g id="edge9" class="edge"><title>Node3&#45;&gt;Node9</title>
<path fill="none" stroke="midnightblue" d="M436.457,-158.926C449.955,-136.561 478.695,-95.3664 516,-78 620.8,-29.2131 760.338,-40.2195 836.54,-51.6731"/>
<polygon fill="midnightblue" stroke="midnightblue" points="836.441,-55.2001 846.861,-53.2861 837.522,-48.284 836.441,-55.2001"/>
</g>
<!-- Node10 -->
<g id="node10" class="node"><title>Node10</title>
<g id="a_node10"><a xlink:href="namespaceRa_1_1Core_1_1DcelOperations.html#aaded34dd44fea8859e294864900a11ed" target="_top" xlink:title="Ra::Core::DcelOperations\l::splitEdge">
<polygon fill="white" stroke="black" points="516,-137 516,-167 646,-167 646,-137 516,-137"/>
<text text-anchor="start" x="524" y="-155" font-family="Helvetica,sans-Serif" font-size="10.00">Ra::Core::DcelOperations</text>
<text text-anchor="middle" x="581" y="-144" font-family="Helvetica,sans-Serif" font-size="10.00">::splitEdge</text>
</a>
</g>
</g>
<!-- Node3&#45;&gt;Node10 -->
<g id="edge10" class="edge"><title>Node3&#45;&gt;Node10</title>
<path fill="none" stroke="midnightblue" d="M480.31,-166.429C488.519,-165.241 497.138,-163.993 505.727,-162.75"/>
<polygon fill="midnightblue" stroke="midnightblue" points="506.375,-166.193 515.771,-161.296 505.372,-159.265 506.375,-166.193"/>
</g>
<!-- Node11 -->
<g id="node11" class="node"><title>Node11</title>
<g id="a_node11"><a xlink:href="namespaceRa_1_1Core_1_1MeshUtils.html#afbee0fe3203a295fb1f93b33dfb33f81" target="_top" xlink:title="Fills the given array with the vertices of a given triangle. ">
<polygon fill="white" stroke="black" points="685.5,-175 685.5,-205 792.5,-205 792.5,-175 685.5,-175"/>
<text text-anchor="start" x="693.5" y="-193" font-family="Helvetica,sans-Serif" font-size="10.00">Ra::Core::MeshUtils</text>
<text text-anchor="middle" x="739" y="-182" font-family="Helvetica,sans-Serif" font-size="10.00">::getTriangleVertices</text>
</a>
</g>
</g>
<!-- Node3&#45;&gt;Node11 -->
<g id="edge13" class="edge"><title>Node3&#45;&gt;Node11</title>
<path fill="none" stroke="midnightblue" d="M480.237,-176.696C534.036,-179.473 617.896,-183.801 675.256,-186.762"/>
<polygon fill="midnightblue" stroke="midnightblue" points="675.122,-190.259 685.29,-187.279 675.483,-183.269 675.122,-190.259"/>
</g>
<!-- Node12 -->
<g id="node12" class="node"><title>Node12</title>
<g id="a_node12"><a xlink:href="namespaceRa_1_1Core_1_1MeshUtils.html#a746199d436bb1dc31c4bccb3953743b9" target="_top" xlink:title="Returns the area of a given triangle. ">
<polygon fill="white" stroke="black" points="527.5,-88 527.5,-118 634.5,-118 634.5,-88 527.5,-88"/>
<text text-anchor="start" x="535.5" y="-106" font-family="Helvetica,sans-Serif" font-size="10.00">Ra::Core::MeshUtils</text>
<text text-anchor="middle" x="581" y="-95" font-family="Helvetica,sans-Serif" font-size="10.00">::getTriangleArea</text>
</a>
</g>
</g>
<!-- Node3&#45;&gt;Node12 -->
<g id="edge15" class="edge"><title>Node3&#45;&gt;Node12</title>
<path fill="none" stroke="midnightblue" d="M454.97,-158.924C472.194,-149.541 495.131,-137.496 516,-128 520.448,-125.976 525.112,-123.959 529.808,-122"/>
<polygon fill="midnightblue" stroke="midnightblue" points="531.497,-125.091 539.434,-118.074 528.853,-118.609 531.497,-125.091"/>
</g>
<!-- Node15 -->
<g id="node15" class="node"><title>Node15</title>
<g id="a_node15"><a xlink:href="namespaceRa_1_1Core_1_1Animation.html#a71236244c5603a8a5bc63595db9b7717" target="_top" xlink:title="Computes the similarity between two weights vector. ">
<polygon fill="white" stroke="black" points="528,-0 528,-30 634,-30 634,-0 528,-0"/>
<text text-anchor="start" x="536" y="-18" font-family="Helvetica,sans-Serif" font-size="10.00">Ra::Core::Animation</text>
<text text-anchor="middle" x="581" y="-7" font-family="Helvetica,sans-Serif" font-size="10.00">::weightSimilarity</text>
</a>
</g>
</g>
<!-- Node3&#45;&gt;Node15 -->
<g id="edge20" class="edge"><title>Node3&#45;&gt;Node15</title>
<path fill="none" stroke="midnightblue" d="M434.911,-158.942C447.612,-132.698 476.984,-78.2138 516,-45 520.43,-41.2291 525.413,-37.8261 530.594,-34.7839"/>
<polygon fill="midnightblue" stroke="midnightblue" points="532.304,-37.8385 539.436,-30.0037 528.975,-31.6808 532.304,-37.8385"/>
</g>
<!-- Node4&#45;&gt;Node5 -->
<g id="edge4" class="edge"><title>Node4&#45;&gt;Node5</title>
<path fill="none" stroke="midnightblue" d="M628.618,-310.056C672.445,-309.13 739.567,-305.175 796,-291 815.873,-286.008 836.917,-277.428 854.222,-269.404"/>
<polygon fill="midnightblue" stroke="midnightblue" points="855.893,-272.485 863.42,-265.029 852.886,-266.163 855.893,-272.485"/>
</g>
<!-- Node7 -->
<g id="node7" class="node"><title>Node7</title>
<g id="a_node7"><a xlink:href="classRa_1_1Core_1_1TriangleMesh.html#a40d31b7b2943947d6eac5d906f0182fd" target="_top" xlink:title="Ra::Core::TriangleMesh\l::normals">
<polygon fill="white" stroke="black" points="832.5,-316 832.5,-346 953.5,-346 953.5,-316 832.5,-316"/>
<text text-anchor="start" x="840.5" y="-334" font-family="Helvetica,sans-Serif" font-size="10.00">Ra::Core::TriangleMesh</text>
<text text-anchor="middle" x="893" y="-323" font-family="Helvetica,sans-Serif" font-size="10.00">::normals</text>
</a>
</g>
</g>
<!-- Node4&#45;&gt;Node7 -->
<g id="edge6" class="edge"><title>Node4&#45;&gt;Node7</title>
<path fill="none" stroke="midnightblue" d="M628.688,-317.579C645.455,-320.024 664.535,-322.491 682,-324 728.57,-328.025 781.135,-329.774 822.024,-330.518"/>
<polygon fill="midnightblue" stroke="midnightblue" points="822.101,-334.019 832.157,-330.686 822.217,-327.02 822.101,-334.019"/>
</g>
<!-- Node4&#45;&gt;Node8 -->
<g id="edge8" class="edge"><title>Node4&#45;&gt;Node8</title>
<path fill="none" stroke="midnightblue" d="M621.365,-300.411C641.951,-295.396 667.34,-289.212 689.169,-283.895"/>
<polygon fill="midnightblue" stroke="midnightblue" points="690.03,-287.287 698.918,-281.52 688.373,-280.486 690.03,-287.287"/>
</g>
<!-- Node6 -->
<g id="node6" class="node"><title>Node6</title>
<g id="a_node6"><a xlink:href="classRa_1_1Core_1_1AttribManager.html#a2344159a1926da905e4c44cd95744d59" target="_top" xlink:title="Get attribute by handle. ">
<polygon fill="white" stroke="black" points="990.5,-275 990.5,-305 1113.5,-305 1113.5,-275 990.5,-275"/>
<text text-anchor="start" x="998.5" y="-293" font-family="Helvetica,sans-Serif" font-size="10.00">Ra::Core::AttribManager</text>
<text text-anchor="middle" x="1052" y="-282" font-family="Helvetica,sans-Serif" font-size="10.00">::getAttrib</text>
</a>
</g>
</g>
<!-- Node5&#45;&gt;Node6 -->
<g id="edge5" class="edge"><title>Node5&#45;&gt;Node6</title>
<path fill="none" stroke="midnightblue" d="M952.908,-265.008C962.501,-267.452 972.511,-270.003 982.313,-272.5"/>
<polygon fill="midnightblue" stroke="midnightblue" points="981.469,-275.897 992.023,-274.974 983.197,-269.113 981.469,-275.897"/>
</g>
<!-- Node7&#45;&gt;Node6 -->
<g id="edge7" class="edge"><title>Node7&#45;&gt;Node6</title>
<path fill="none" stroke="midnightblue" d="M951.57,-315.966C962.022,-313.236 973.009,-310.367 983.712,-307.572"/>
<polygon fill="midnightblue" stroke="midnightblue" points="984.646,-310.945 993.437,-305.032 982.878,-304.173 984.646,-310.945"/>
</g>
<!-- Node11&#45;&gt;Node5 -->
<g id="edge14" class="edge"><title>Node11&#45;&gt;Node5</title>
<path fill="none" stroke="midnightblue" d="M778.356,-205.141C798.414,-213.058 823.152,-222.823 844.421,-231.219"/>
<polygon fill="midnightblue" stroke="midnightblue" points="843.333,-234.552 853.92,-234.968 845.903,-228.041 843.333,-234.552"/>
</g>
<!-- Node12&#45;&gt;Node11 -->
<g id="edge16" class="edge"><title>Node12&#45;&gt;Node11</title>
<path fill="none" stroke="midnightblue" d="M624.589,-118.114C631.857,-121.122 639.238,-124.456 646,-128 668.578,-139.832 692.399,-156 710.144,-168.859"/>
<polygon fill="midnightblue" stroke="midnightblue" points="708.203,-171.776 718.335,-174.873 712.346,-166.133 708.203,-171.776"/>
</g>
<!-- Node13 -->
<g id="node13" class="node"><title>Node13</title>
<g id="a_node13"><a xlink:href="namespaceRa_1_1Core_1_1Geometry.html#a178f2b7309fe2ea5bc31a3abcb25368e" target="_top" xlink:title="Ra::Core::Geometry\l::triangleArea">
<polygon fill="white" stroke="black" points="686.5,-88 686.5,-118 791.5,-118 791.5,-88 686.5,-88"/>
<text text-anchor="start" x="694.5" y="-106" font-family="Helvetica,sans-Serif" font-size="10.00">Ra::Core::Geometry</text>
<text text-anchor="middle" x="739" y="-95" font-family="Helvetica,sans-Serif" font-size="10.00">::triangleArea</text>
</a>
</g>
</g>
<!-- Node12&#45;&gt;Node13 -->
<g id="edge17" class="edge"><title>Node12&#45;&gt;Node13</title>
<path fill="none" stroke="midnightblue" d="M634.814,-103C648.057,-103 662.384,-103 676.027,-103"/>
<polygon fill="midnightblue" stroke="midnightblue" points="676.298,-106.5 686.298,-103 676.298,-99.5001 676.298,-106.5"/>
</g>
<!-- Node13&#45;&gt;Node9 -->
<g id="edge19" class="edge"><title>Node13&#45;&gt;Node9</title>
<path fill="none" stroke="midnightblue" d="M791.885,-89.0048C809.714,-84.1956 829.519,-78.8535 846.776,-74.1985"/>
<polygon fill="midnightblue" stroke="midnightblue" points="847.865,-77.53 856.608,-71.5464 846.042,-70.7715 847.865,-77.53"/>
</g>
<!-- Node14 -->
<g id="node14" class="node"><title>Node14</title>
<g id="a_node14"><a xlink:href="namespaceOpenMesh.html#a71e7f1dd3eac016d2b8245ac408a291c" target="_top" xlink:title="OpenMesh::cross">
<polygon fill="white" stroke="black" points="846,-93.5 846,-112.5 940,-112.5 940,-93.5 846,-93.5"/>
<text text-anchor="middle" x="893" y="-100.5" font-family="Helvetica,sans-Serif" font-size="10.00">OpenMesh::cross</text>
</a>
</g>
</g>
<!-- Node13&#45;&gt;Node14 -->
<g id="edge18" class="edge"><title>Node13&#45;&gt;Node14</title>
<path fill="none" stroke="midnightblue" d="M791.885,-103C806.002,-103 821.359,-103 835.708,-103"/>
<polygon fill="midnightblue" stroke="midnightblue" points="835.947,-106.5 845.947,-103 835.947,-99.5001 835.947,-106.5"/>
</g>
</g>
</svg>
