<?xml version="1.0" encoding="UTF-8" standalone="no"?>
<!DOCTYPE svg PUBLIC "-//W3C//DTD SVG 1.1//EN"
 "http://www.w3.org/Graphics/SVG/1.1/DTD/svg11.dtd">
<!-- Generated by graphviz version 2.36.0 (20140111.2315)
 -->
<!-- Title: MeshFeatureTrackingPlugin::MeshFeatureTrackingComponent::initialize Pages: 1 -->
<svg width="1224pt" height="674pt"
 viewBox="0.00 0.00 1224.00 673.71" xmlns="http://www.w3.org/2000/svg" xmlns:xlink="http://www.w3.org/1999/xlink">
<g id="graph0" class="graph" transform="scale(1 1) rotate(0) translate(4 669.706)">
<title>MeshFeatureTrackingPlugin::MeshFeatureTrackingComponent::initialize</title>
<polygon fill="white" stroke="none" points="-4,4 -4,-669.706 1220,-669.706 1220,4 -4,4"/>
<!-- Node1 -->
<g id="node1" class="node"><title>Node1</title>
<polygon fill="#bfbfbf" stroke="black" points="0.5,-183.5 0.5,-224.5 167.5,-224.5 167.5,-183.5 0.5,-183.5"/>
<text text-anchor="start" x="8.5" y="-212.5" font-family="Helvetica,sans-Serif" font-size="10.00">MeshFeatureTrackingPlugin</text>
<text text-anchor="start" x="8.5" y="-201.5" font-family="Helvetica,sans-Serif" font-size="10.00">::MeshFeatureTrackingComponent</text>
<text text-anchor="middle" x="84" y="-190.5" font-family="Helvetica,sans-Serif" font-size="10.00">::initialize</text>
</g>
<!-- Node2 -->
<g id="node2" class="node"><title>Node2</title>
<g id="a_node2"><a xlink:href="namespaceRa_1_1Core_1_1MeshUtils.html#acf5b460cf3a22cd1e35eff5a5e1127ab" target="_top" xlink:title="Create a parametric spherical mesh of given radius. Template parameters set the resolution. ">
<polygon fill="white" stroke="black" points="220.5,-493 220.5,-523 345.5,-523 345.5,-493 220.5,-493"/>
<text text-anchor="start" x="228.5" y="-511" font-family="Helvetica,sans-Serif" font-size="10.00">Ra::Core::MeshUtils</text>
<text text-anchor="middle" x="283" y="-500" font-family="Helvetica,sans-Serif" font-size="10.00">::makeParametricSphere</text>
</a>
</g>
</g>
<!-- Node1&#45;&gt;Node2 -->
<g id="edge1" class="edge"><title>Node1&#45;&gt;Node2</title>
<path fill="none" stroke="midnightblue" d="M98.5406,-224.895C134.022,-279.648 229.524,-427.022 266.802,-484.547"/>
<polygon fill="midnightblue" stroke="midnightblue" points="263.891,-486.491 272.266,-492.98 269.765,-482.684 263.891,-486.491"/>
</g>
<!-- Node16 -->
<g id="node16" class="node"><title>Node16</title>
<g id="a_node16"><a xlink:href="classRa_1_1Engine_1_1RenderObject.html#ae9cb914f351555a60d29e8d6afedc06b" target="_top" xlink:title="Ra::Engine::RenderObject\l::createRenderObject">
<polygon fill="white" stroke="black" points="217.5,-294 217.5,-324 348.5,-324 348.5,-294 217.5,-294"/>
<text text-anchor="start" x="225.5" y="-312" font-family="Helvetica,sans-Serif" font-size="10.00">Ra::Engine::RenderObject</text>
<text text-anchor="middle" x="283" y="-301" font-family="Helvetica,sans-Serif" font-size="10.00">::createRenderObject</text>
</a>
</g>
</g>
<!-- Node1&#45;&gt;Node16 -->
<g id="edge19" class="edge"><title>Node1&#45;&gt;Node16</title>
<path fill="none" stroke="midnightblue" d="M123.921,-224.745C159.021,-243.453 210.29,-270.779 244.837,-289.192"/>
<polygon fill="midnightblue" stroke="midnightblue" points="243.204,-292.288 253.675,-293.903 246.496,-286.111 243.204,-292.288"/>
</g>
<!-- Node19 -->
<g id="node19" class="node"><title>Node19</title>
<g id="a_node19"><a xlink:href="classRa_1_1Engine_1_1RenderObject.html#a62e0eb3a7de5a7d352b565a28260cc06" target="_top" xlink:title="Ra::Engine::RenderObject\l::setVisible">
<polygon fill="white" stroke="black" points="412.5,-245 412.5,-275 543.5,-275 543.5,-245 412.5,-245"/>
<text text-anchor="start" x="420.5" y="-263" font-family="Helvetica,sans-Serif" font-size="10.00">Ra::Engine::RenderObject</text>
<text text-anchor="middle" x="478" y="-252" font-family="Helvetica,sans-Serif" font-size="10.00">::setVisible</text>
</a>
</g>
</g>
<!-- Node1&#45;&gt;Node19 -->
<g id="edge31" class="edge"><title>Node1&#45;&gt;Node19</title>
<path fill="none" stroke="midnightblue" d="M167.654,-215.808C236.986,-225.712 335.148,-239.735 402.183,-249.312"/>
<polygon fill="midnightblue" stroke="midnightblue" points="401.858,-252.801 412.252,-250.75 402.848,-245.871 401.858,-252.801"/>
</g>
<!-- Node21 -->
<g id="node21" class="node"><title>Node21</title>
<g id="a_node21"><a xlink:href="classRa_1_1Engine_1_1RenderTechnique.html#a7d0c94a20081423baa758dd6e5b3f954" target="_top" xlink:title="Ra::Engine::RenderTechnique\l::createDefaultRenderTechnique">
<polygon fill="white" stroke="black" points="204,-160 204,-190 362,-190 362,-160 204,-160"/>
<text text-anchor="start" x="212" y="-178" font-family="Helvetica,sans-Serif" font-size="10.00">Ra::Engine::RenderTechnique</text>
<text text-anchor="middle" x="283" y="-167" font-family="Helvetica,sans-Serif" font-size="10.00">::createDefaultRenderTechnique</text>
</a>
</g>
</g>
<!-- Node1&#45;&gt;Node21 -->
<g id="edge24" class="edge"><title>Node1&#45;&gt;Node21</title>
<path fill="none" stroke="midnightblue" d="M167.689,-191.827C176.317,-190.557 185.111,-189.263 193.797,-187.984"/>
<polygon fill="midnightblue" stroke="midnightblue" points="194.543,-191.412 203.927,-186.493 193.524,-184.487 194.543,-191.412"/>
</g>
<!-- Node27 -->
<g id="node27" class="node"><title>Node27</title>
<g id="a_node27"><a xlink:href="classRa_1_1Engine_1_1RenderObject.html#ab80fe6e6565273eac1984ec6e213c354" target="_top" xlink:title="Ra::Engine::RenderObject\l::setPickable">
<polygon fill="white" stroke="black" points="217.5,-111 217.5,-141 348.5,-141 348.5,-111 217.5,-111"/>
<text text-anchor="start" x="225.5" y="-129" font-family="Helvetica,sans-Serif" font-size="10.00">Ra::Engine::RenderObject</text>
<text text-anchor="middle" x="283" y="-118" font-family="Helvetica,sans-Serif" font-size="10.00">::setPickable</text>
</a>
</g>
</g>
<!-- Node1&#45;&gt;Node27 -->
<g id="edge30" class="edge"><title>Node1&#45;&gt;Node27</title>
<path fill="none" stroke="midnightblue" d="M126.855,-183.426C149.415,-172.741 177.906,-159.889 204,-150 209.134,-148.054 214.501,-146.148 219.912,-144.313"/>
<polygon fill="midnightblue" stroke="midnightblue" points="221.262,-147.554 229.661,-141.096 219.068,-140.906 221.262,-147.554"/>
</g>
<!-- Node28 -->
<g id="node28" class="node"><title>Node28</title>
<g id="a_node28"><a xlink:href="classRa_1_1Engine_1_1Component.html#a8faa6f03b4a5a8bc30bb8ff402e6b61f" target="_top" xlink:title="Add a new render object to the component. This adds the RO to the manager for drawing. ">
<polygon fill="white" stroke="black" points="222,-38 222,-68 344,-68 344,-38 222,-38"/>
<text text-anchor="start" x="230" y="-56" font-family="Helvetica,sans-Serif" font-size="10.00">Ra::Engine::Component</text>
<text text-anchor="middle" x="283" y="-45" font-family="Helvetica,sans-Serif" font-size="10.00">::addRenderObject</text>
</a>
</g>
</g>
<!-- Node1&#45;&gt;Node28 -->
<g id="edge32" class="edge"><title>Node1&#45;&gt;Node28</title>
<path fill="none" stroke="midnightblue" d="M106.91,-183.122C130.129,-161.465 168.3,-127.169 204,-101 217.36,-91.2067 232.764,-81.435 246.335,-73.2891"/>
<polygon fill="midnightblue" stroke="midnightblue" points="248.129,-76.2946 254.949,-68.1869 244.562,-70.2718 248.129,-76.2946"/>
</g>
<!-- Node3 -->
<g id="node3" class="node"><title>Node3</title>
<g id="a_node3"><a xlink:href="namespaceRa_1_1Core.html#aa7befada722c44f6bc3d4b64fc8ff100" target="_top" xlink:title="VERTEX. ">
<polygon fill="white" stroke="black" points="443.5,-441.5 443.5,-460.5 512.5,-460.5 512.5,-441.5 443.5,-441.5"/>
<text text-anchor="middle" x="478" y="-448.5" font-family="Helvetica,sans-Serif" font-size="10.00">Ra::Core::V</text>
</a>
</g>
</g>
<!-- Node2&#45;&gt;Node3 -->
<g id="edge2" class="edge"><title>Node2&#45;&gt;Node3</title>
<path fill="none" stroke="midnightblue" d="M326.227,-492.964C347.601,-485.599 374.033,-476.863 398,-470 409.433,-466.726 421.903,-463.548 433.488,-460.758"/>
<polygon fill="midnightblue" stroke="midnightblue" points="434.467,-464.123 443.392,-458.413 432.854,-457.311 434.467,-464.123"/>
</g>
<!-- Node5 -->
<g id="node5" class="node"><title>Node5</title>
<g id="a_node5"><a xlink:href="classRa_1_1Core_1_1TriangleMesh.html#a495116f40cfec8bb6504698d786d4b8c" target="_top" xlink:title="Ra::Core::TriangleMesh\l::vertices">
<polygon fill="white" stroke="black" points="934.5,-579 934.5,-609 1055.5,-609 1055.5,-579 934.5,-579"/>
<text text-anchor="start" x="942.5" y="-597" font-family="Helvetica,sans-Serif" font-size="10.00">Ra::Core::TriangleMesh</text>
<text text-anchor="middle" x="995" y="-586" font-family="Helvetica,sans-Serif" font-size="10.00">::vertices</text>
</a>
</g>
</g>
<!-- Node2&#45;&gt;Node5 -->
<g id="edge4" class="edge"><title>Node2&#45;&gt;Node5</title>
<path fill="none" stroke="midnightblue" d="M300.141,-523.216C321.184,-542.336 359.825,-575.056 398,-595 479.1,-637.369 503.603,-643.829 594,-658 664.253,-669.013 683.492,-667.24 754,-658 820.002,-649.351 893.67,-627.862 941.761,-612.163"/>
<polygon fill="midnightblue" stroke="midnightblue" points="942.926,-615.464 951.325,-609.007 940.732,-608.817 942.926,-615.464"/>
</g>
<!-- Node7 -->
<g id="node7" class="node"><title>Node7</title>
<g id="a_node7"><a xlink:href="classRa_1_1Core_1_1TriangleMesh.html#a40d31b7b2943947d6eac5d906f0182fd" target="_top" xlink:title="Ra::Core::TriangleMesh\l::normals">
<polygon fill="white" stroke="black" points="613.5,-493 613.5,-523 734.5,-523 734.5,-493 613.5,-493"/>
<text text-anchor="start" x="621.5" y="-511" font-family="Helvetica,sans-Serif" font-size="10.00">Ra::Core::TriangleMesh</text>
<text text-anchor="middle" x="674" y="-500" font-family="Helvetica,sans-Serif" font-size="10.00">::normals</text>
</a>
</g>
</g>
<!-- Node2&#45;&gt;Node7 -->
<g id="edge6" class="edge"><title>Node2&#45;&gt;Node7</title>
<path fill="none" stroke="midnightblue" d="M345.638,-508C415.717,-508 529.875,-508 603.182,-508"/>
<polygon fill="midnightblue" stroke="midnightblue" points="603.246,-511.5 613.246,-508 603.246,-504.5 603.246,-511.5"/>
</g>
<!-- Node8 -->
<g id="node8" class="node"><title>Node8</title>
<g id="a_node8"><a xlink:href="namespaceRa_1_1Core_1_1Vector.html#a42d87f3bd0658bac532d72f0ec528827" target="_top" xlink:title="Get the cosine of the angle between two vectors. ">
<polygon fill="white" stroke="black" points="421.5,-479.5 421.5,-498.5 534.5,-498.5 534.5,-479.5 421.5,-479.5"/>
<text text-anchor="middle" x="478" y="-486.5" font-family="Helvetica,sans-Serif" font-size="10.00">Ra::Core::Vector::cos</text>
</a>
</g>
</g>
<!-- Node2&#45;&gt;Node8 -->
<g id="edge8" class="edge"><title>Node2&#45;&gt;Node8</title>
<path fill="none" stroke="midnightblue" d="M345.597,-501.936C366.454,-499.883 389.825,-497.582 411.009,-495.496"/>
<polygon fill="midnightblue" stroke="midnightblue" points="411.604,-498.955 421.213,-494.492 410.918,-491.989 411.604,-498.955"/>
</g>
<!-- Node9 -->
<g id="node9" class="node"><title>Node9</title>
<g id="a_node9"><a xlink:href="namespaceRa_1_1Core_1_1MeshUtils.html#a5398f7b15335cb47b83a2d573f277640" target="_top" xlink:title="Ra::Core::MeshUtils\l::checkConsistency">
<polygon fill="white" stroke="black" points="424.5,-556 424.5,-586 531.5,-586 531.5,-556 424.5,-556"/>
<text text-anchor="start" x="432.5" y="-574" font-family="Helvetica,sans-Serif" font-size="10.00">Ra::Core::MeshUtils</text>
<text text-anchor="middle" x="478" y="-563" font-family="Helvetica,sans-Serif" font-size="10.00">::checkConsistency</text>
</a>
</g>
</g>
<!-- Node2&#45;&gt;Node9 -->
<g id="edge9" class="edge"><title>Node2&#45;&gt;Node9</title>
<path fill="none" stroke="midnightblue" d="M330.228,-523.09C357.581,-532.019 392.409,-543.387 421.274,-552.81"/>
<polygon fill="midnightblue" stroke="midnightblue" points="420.222,-556.148 430.815,-555.924 422.395,-549.494 420.222,-556.148"/>
</g>
<!-- Node4 -->
<g id="node4" class="node"><title>Node4</title>
<g id="a_node4"><a xlink:href="namespaceRa_1_1Core.html#a6dd9d23e2286b21c927c0cee124c6c1e" target="_top" xlink:title="HALFEDGE. ">
<polygon fill="white" stroke="black" points="635.5,-441.5 635.5,-460.5 712.5,-460.5 712.5,-441.5 635.5,-441.5"/>
<text text-anchor="middle" x="674" y="-448.5" font-family="Helvetica,sans-Serif" font-size="10.00">Ra::Core::HE</text>
</a>
</g>
</g>
<!-- Node3&#45;&gt;Node4 -->
<g id="edge3" class="edge"><title>Node3&#45;&gt;Node4</title>
<path fill="none" stroke="midnightblue" d="M512.792,-451C543.782,-451 590.019,-451 624.866,-451"/>
<polygon fill="midnightblue" stroke="midnightblue" points="625.286,-454.5 635.286,-451 625.286,-447.5 625.286,-454.5"/>
</g>
<!-- Node6 -->
<g id="node6" class="node"><title>Node6</title>
<g id="a_node6"><a xlink:href="classRa_1_1Core_1_1AttribManager.html#a2344159a1926da905e4c44cd95744d59" target="_top" xlink:title="Get attribute by handle. ">
<polygon fill="white" stroke="black" points="1092.5,-514 1092.5,-544 1215.5,-544 1215.5,-514 1092.5,-514"/>
<text text-anchor="start" x="1100.5" y="-532" font-family="Helvetica,sans-Serif" font-size="10.00">Ra::Core::AttribManager</text>
<text text-anchor="middle" x="1154" y="-521" font-family="Helvetica,sans-Serif" font-size="10.00">::getAttrib</text>
</a>
</g>
</g>
<!-- Node5&#45;&gt;Node6 -->
<g id="edge5" class="edge"><title>Node5&#45;&gt;Node6</title>
<path fill="none" stroke="midnightblue" d="M1032.41,-578.924C1054.63,-569.728 1083.22,-557.889 1106.99,-548.048"/>
<polygon fill="midnightblue" stroke="midnightblue" points="1108.61,-551.165 1116.51,-544.106 1105.93,-544.698 1108.61,-551.165"/>
</g>
<!-- Node7&#45;&gt;Node6 -->
<g id="edge7" class="edge"><title>Node7&#45;&gt;Node6</title>
<path fill="none" stroke="midnightblue" d="M734.618,-493.128C752.325,-489.372 771.843,-485.874 790,-484 822.376,-480.658 1048.6,-484.384 1056,-486 1077.46,-490.685 1099.96,-500.332 1117.89,-509.303"/>
<polygon fill="midnightblue" stroke="midnightblue" points="1116.33,-512.434 1126.82,-513.903 1119.53,-506.211 1116.33,-512.434"/>
</g>
<!-- Node9&#45;&gt;Node5 -->
<g id="edge10" class="edge"><title>Node9&#45;&gt;Node5</title>
<path fill="none" stroke="midnightblue" d="M531.626,-576.18C551.194,-577.947 573.595,-579.782 594,-581 709.497,-587.893 843.987,-591.319 923.891,-592.872"/>
<polygon fill="midnightblue" stroke="midnightblue" points="924.253,-596.38 934.317,-593.07 924.386,-589.381 924.253,-596.38"/>
</g>
<!-- Node9&#45;&gt;Node7 -->
<g id="edge18" class="edge"><title>Node9&#45;&gt;Node7</title>
<path fill="none" stroke="midnightblue" d="M524.015,-555.979C545.227,-548.939 570.892,-540.474 594,-533 600.869,-530.778 608.082,-528.467 615.238,-526.186"/>
<polygon fill="midnightblue" stroke="midnightblue" points="616.456,-529.472 624.925,-523.107 614.335,-522.801 616.456,-529.472"/>
</g>
<!-- Node10 -->
<g id="node10" class="node"><title>Node10</title>
<g id="a_node10"><a xlink:href="namespaceRa_1_1Core_1_1Algorithm.html#aea294cdb6f4f0d85955bdcccb22886ec" target="_top" xlink:title="Ra::Core::Algorithm::t">
<polygon fill="white" stroke="black" points="617.5,-629.5 617.5,-648.5 730.5,-648.5 730.5,-629.5 617.5,-629.5"/>
<text text-anchor="middle" x="674" y="-636.5" font-family="Helvetica,sans-Serif" font-size="10.00">Ra::Core::Algorithm::t</text>
</a>
</g>
</g>
<!-- Node9&#45;&gt;Node10 -->
<g id="edge11" class="edge"><title>Node9&#45;&gt;Node10</title>
<path fill="none" stroke="midnightblue" d="M516.306,-586.039C538.692,-594.871 567.812,-606.025 594,-615 605.653,-618.994 618.385,-623.011 630.158,-626.585"/>
<polygon fill="midnightblue" stroke="midnightblue" points="629.193,-629.95 639.777,-629.474 631.206,-623.246 629.193,-629.95"/>
</g>
<!-- Node11 -->
<g id="node11" class="node"><title>Node11</title>
<g id="a_node11"><a xlink:href="namespaceRa_1_1Core_1_1MeshUtils.html#a746199d436bb1dc31c4bccb3953743b9" target="_top" xlink:title="Returns the area of a given triangle. ">
<polygon fill="white" stroke="black" points="620.5,-542 620.5,-572 727.5,-572 727.5,-542 620.5,-542"/>
<text text-anchor="start" x="628.5" y="-560" font-family="Helvetica,sans-Serif" font-size="10.00">Ra::Core::MeshUtils</text>
<text text-anchor="middle" x="674" y="-549" font-family="Helvetica,sans-Serif" font-size="10.00">::getTriangleArea</text>
</a>
</g>
</g>
<!-- Node9&#45;&gt;Node11 -->
<g id="edge12" class="edge"><title>Node9&#45;&gt;Node11</title>
<path fill="none" stroke="midnightblue" d="M531.755,-567.193C555.916,-565.449 584.737,-563.369 610.026,-561.545"/>
<polygon fill="midnightblue" stroke="midnightblue" points="610.533,-565.017 620.255,-560.806 610.029,-558.035 610.533,-565.017"/>
</g>
<!-- Node12 -->
<g id="node12" class="node"><title>Node12</title>
<g id="a_node12"><a xlink:href="namespaceRa_1_1Core_1_1MeshUtils.html#afbee0fe3203a295fb1f93b33dfb33f81" target="_top" xlink:title="Fills the given array with the vertices of a given triangle. ">
<polygon fill="white" stroke="black" points="790.5,-542 790.5,-572 897.5,-572 897.5,-542 790.5,-542"/>
<text text-anchor="start" x="798.5" y="-560" font-family="Helvetica,sans-Serif" font-size="10.00">Ra::Core::MeshUtils</text>
<text text-anchor="middle" x="844" y="-549" font-family="Helvetica,sans-Serif" font-size="10.00">::getTriangleVertices</text>
</a>
</g>
</g>
<!-- Node11&#45;&gt;Node12 -->
<g id="edge13" class="edge"><title>Node11&#45;&gt;Node12</title>
<path fill="none" stroke="midnightblue" d="M727.695,-557C744.427,-557 763.092,-557 780.448,-557"/>
<polygon fill="midnightblue" stroke="midnightblue" points="780.492,-560.5 790.492,-557 780.492,-553.5 780.492,-560.5"/>
</g>
<!-- Node13 -->
<g id="node13" class="node"><title>Node13</title>
<g id="a_node13"><a xlink:href="namespaceRa_1_1Core_1_1Geometry.html#a178f2b7309fe2ea5bc31a3abcb25368e" target="_top" xlink:title="Ra::Core::Geometry\l::triangleArea">
<polygon fill="white" stroke="black" points="791.5,-493 791.5,-523 896.5,-523 896.5,-493 791.5,-493"/>
<text text-anchor="start" x="799.5" y="-511" font-family="Helvetica,sans-Serif" font-size="10.00">Ra::Core::Geometry</text>
<text text-anchor="middle" x="844" y="-500" font-family="Helvetica,sans-Serif" font-size="10.00">::triangleArea</text>
</a>
</g>
</g>
<!-- Node11&#45;&gt;Node13 -->
<g id="edge15" class="edge"><title>Node11&#45;&gt;Node13</title>
<path fill="none" stroke="midnightblue" d="M726.776,-541.899C744.103,-536.845 763.586,-531.162 781.577,-525.915"/>
<polygon fill="midnightblue" stroke="midnightblue" points="782.775,-529.212 791.395,-523.052 780.815,-522.492 782.775,-529.212"/>
</g>
<!-- Node12&#45;&gt;Node5 -->
<g id="edge14" class="edge"><title>Node12&#45;&gt;Node5</title>
<path fill="none" stroke="midnightblue" d="M897.532,-570.045C906.269,-572.214 915.449,-574.494 924.529,-576.749"/>
<polygon fill="midnightblue" stroke="midnightblue" points="923.768,-580.166 934.317,-579.179 925.455,-573.372 923.768,-580.166"/>
</g>
<!-- Node14 -->
<g id="node14" class="node"><title>Node14</title>
<g id="a_node14"><a xlink:href="namespaceOpenMesh.html#a71e7f1dd3eac016d2b8245ac408a291c" target="_top" xlink:title="OpenMesh::cross">
<polygon fill="white" stroke="black" points="948,-533.5 948,-552.5 1042,-552.5 1042,-533.5 948,-533.5"/>
<text text-anchor="middle" x="995" y="-540.5" font-family="Helvetica,sans-Serif" font-size="10.00">OpenMesh::cross</text>
</a>
</g>
</g>
<!-- Node13&#45;&gt;Node14 -->
<g id="edge16" class="edge"><title>Node13&#45;&gt;Node14</title>
<path fill="none" stroke="midnightblue" d="M896.695,-520.143C911.719,-523.672 928.113,-527.523 943.089,-531.041"/>
<polygon fill="midnightblue" stroke="midnightblue" points="942.66,-534.536 953.196,-533.415 944.261,-527.721 942.66,-534.536"/>
</g>
<!-- Node15 -->
<g id="node15" class="node"><title>Node15</title>
<g id="a_node15"><a xlink:href="namespaceOpenMesh.html#a8205f789ce08919bc11c58383574596c" target="_top" xlink:title="OpenMesh::norm">
<polygon fill="white" stroke="black" points="949,-495.5 949,-514.5 1041,-514.5 1041,-495.5 949,-495.5"/>
<text text-anchor="middle" x="995" y="-502.5" font-family="Helvetica,sans-Serif" font-size="10.00">OpenMesh::norm</text>
</a>
</g>
</g>
<!-- Node13&#45;&gt;Node15 -->
<g id="edge17" class="edge"><title>Node13&#45;&gt;Node15</title>
<path fill="none" stroke="midnightblue" d="M896.695,-506.959C910.225,-506.687 924.865,-506.392 938.58,-506.116"/>
<polygon fill="midnightblue" stroke="midnightblue" points="938.927,-509.61 948.854,-505.909 938.786,-502.611 938.927,-509.61"/>
</g>
<!-- Node17 -->
<g id="node17" class="node"><title>Node17</title>
<g id="a_node17"><a xlink:href="classRa_1_1Engine_1_1RenderObject.html#acf300c8fdb55fee54d27b3fb46a1e523" target="_top" xlink:title="Ra::Engine::RenderObject\l::RenderObject">
<polygon fill="white" stroke="black" points="412.5,-294 412.5,-324 543.5,-324 543.5,-294 412.5,-294"/>
<text text-anchor="start" x="420.5" y="-312" font-family="Helvetica,sans-Serif" font-size="10.00">Ra::Engine::RenderObject</text>
<text text-anchor="middle" x="478" y="-301" font-family="Helvetica,sans-Serif" font-size="10.00">::RenderObject</text>
</a>
</g>
</g>
<!-- Node16&#45;&gt;Node17 -->
<g id="edge20" class="edge"><title>Node16&#45;&gt;Node17</title>
<path fill="none" stroke="midnightblue" d="M348.535,-309C365.665,-309 384.31,-309 401.948,-309"/>
<polygon fill="midnightblue" stroke="midnightblue" points="402.197,-312.5 412.197,-309 402.197,-305.5 402.197,-312.5"/>
</g>
<!-- Node18 -->
<g id="node18" class="node"><title>Node18</title>
<g id="a_node18"><a xlink:href="classRa_1_1Engine_1_1RenderObject.html#ae8e94954e783a2012fd774598af1eb52" target="_top" xlink:title="Ra::Engine::RenderObject\l::setMesh">
<polygon fill="white" stroke="black" points="412.5,-392 412.5,-422 543.5,-422 543.5,-392 412.5,-392"/>
<text text-anchor="start" x="420.5" y="-410" font-family="Helvetica,sans-Serif" font-size="10.00">Ra::Engine::RenderObject</text>
<text text-anchor="middle" x="478" y="-399" font-family="Helvetica,sans-Serif" font-size="10.00">::setMesh</text>
</a>
</g>
</g>
<!-- Node16&#45;&gt;Node18 -->
<g id="edge21" class="edge"><title>Node16&#45;&gt;Node18</title>
<path fill="none" stroke="midnightblue" d="M304.064,-324.174C326.127,-340.291 363.096,-365.652 398,-382 402.885,-384.288 408.035,-386.442 413.266,-388.453"/>
<polygon fill="midnightblue" stroke="midnightblue" points="412.136,-391.767 422.73,-391.914 414.541,-385.192 412.136,-391.767"/>
</g>
<!-- Node16&#45;&gt;Node19 -->
<g id="edge22" class="edge"><title>Node16&#45;&gt;Node19</title>
<path fill="none" stroke="midnightblue" d="M343.218,-293.965C363.689,-288.768 386.804,-282.899 407.991,-277.52"/>
<polygon fill="midnightblue" stroke="midnightblue" points="409.063,-280.859 417.894,-275.006 407.34,-274.075 409.063,-280.859"/>
</g>
<!-- Node20 -->
<g id="node20" class="node"><title>Node20</title>
<g id="a_node20"><a xlink:href="classRa_1_1Engine_1_1RenderObject.html#ae1ea453e2b698cda9956586d11b9cfbd" target="_top" xlink:title="Ra::Engine::RenderObject\l::setRenderTechnique">
<polygon fill="white" stroke="black" points="412.5,-343 412.5,-373 543.5,-373 543.5,-343 412.5,-343"/>
<text text-anchor="start" x="420.5" y="-361" font-family="Helvetica,sans-Serif" font-size="10.00">Ra::Engine::RenderObject</text>
<text text-anchor="middle" x="478" y="-350" font-family="Helvetica,sans-Serif" font-size="10.00">::setRenderTechnique</text>
</a>
</g>
</g>
<!-- Node16&#45;&gt;Node20 -->
<g id="edge23" class="edge"><title>Node16&#45;&gt;Node20</title>
<path fill="none" stroke="midnightblue" d="M343.218,-324.035C363.689,-329.232 386.804,-335.101 407.991,-340.48"/>
<polygon fill="midnightblue" stroke="midnightblue" points="407.34,-343.925 417.894,-342.994 409.063,-337.141 407.34,-343.925"/>
</g>
<!-- Node22 -->
<g id="node22" class="node"><title>Node22</title>
<g id="a_node22"><a xlink:href="namespaceRa_1_1Engine.html#ae16a1eeeb93530e2a7604d5a53e5fbc4" target="_top" xlink:title="Ra::Engine::RadiumDefault\lRenderTechnique">
<polygon fill="white" stroke="black" points="409.5,-98 409.5,-128 546.5,-128 546.5,-98 409.5,-98"/>
<text text-anchor="start" x="417.5" y="-116" font-family="Helvetica,sans-Serif" font-size="10.00">Ra::Engine::RadiumDefault</text>
<text text-anchor="middle" x="478" y="-105" font-family="Helvetica,sans-Serif" font-size="10.00">RenderTechnique</text>
</a>
</g>
</g>
<!-- Node21&#45;&gt;Node22 -->
<g id="edge25" class="edge"><title>Node21&#45;&gt;Node22</title>
<path fill="none" stroke="midnightblue" d="M331.941,-159.937C341.898,-156.724 352.308,-153.302 362,-150 378.102,-144.514 381.856,-142.363 398,-137 403.892,-135.043 410.051,-133.061 416.22,-131.118"/>
<polygon fill="midnightblue" stroke="midnightblue" points="417.376,-134.424 425.882,-128.108 415.293,-127.741 417.376,-134.424"/>
</g>
<!-- Node23 -->
<g id="node23" class="node"><title>Node23</title>
<g id="a_node23"><a xlink:href="namespaceRa_1_1Engine_1_1ShaderConfigurationFactory.html#a0bc60f21dbabd745961037f3d2f019c8" target="_top" xlink:title="Ra::Engine::ShaderConfiguration\lFactory::getConfiguration">
<polygon fill="white" stroke="black" points="398,-49 398,-79 558,-79 558,-49 398,-49"/>
<text text-anchor="start" x="406" y="-67" font-family="Helvetica,sans-Serif" font-size="10.00">Ra::Engine::ShaderConfiguration</text>
<text text-anchor="middle" x="478" y="-56" font-family="Helvetica,sans-Serif" font-size="10.00">Factory::getConfiguration</text>
</a>
</g>
</g>
<!-- Node21&#45;&gt;Node23 -->
<g id="edge26" class="edge"><title>Node21&#45;&gt;Node23</title>
<path fill="none" stroke="midnightblue" d="M346.242,-159.839C351.871,-157.083 357.236,-153.833 362,-150 386.828,-130.027 373.021,-107.783 398,-88 399.78,-86.59 401.643,-85.2626 403.571,-84.0129"/>
<polygon fill="midnightblue" stroke="midnightblue" points="405.413,-86.9919 412.388,-79.0172 401.962,-80.9015 405.413,-86.9919"/>
</g>
<!-- Node25 -->
<g id="node25" class="node"><title>Node25</title>
<g id="a_node25"><a xlink:href="classRa_1_1Engine_1_1RenderTechnique.html#aaf860d7c30aef24f7c24016952cd8f00" target="_top" xlink:title="Ra::Engine::RenderTechnique\l::setConfiguration">
<polygon fill="white" stroke="black" points="404,-196 404,-226 552,-226 552,-196 404,-196"/>
<text text-anchor="start" x="412" y="-214" font-family="Helvetica,sans-Serif" font-size="10.00">Ra::Engine::RenderTechnique</text>
<text text-anchor="middle" x="478" y="-203" font-family="Helvetica,sans-Serif" font-size="10.00">::setConfiguration</text>
</a>
</g>
</g>
<!-- Node21&#45;&gt;Node25 -->
<g id="edge28" class="edge"><title>Node21&#45;&gt;Node25</title>
<path fill="none" stroke="midnightblue" d="M362.222,-189.591C372.675,-191.54 383.424,-193.545 393.955,-195.51"/>
<polygon fill="midnightblue" stroke="midnightblue" points="393.496,-198.984 403.968,-197.378 394.78,-192.103 393.496,-198.984"/>
</g>
<!-- Node26 -->
<g id="node26" class="node"><title>Node26</title>
<g id="a_node26"><a xlink:href="classRa_1_1Engine_1_1RenderTechnique.html#a9bddcd20723ee582fd81c363b9148cf9" target="_top" xlink:title="Ra::Engine::RenderTechnique\l::setMaterial">
<polygon fill="white" stroke="black" points="404,-147 404,-177 552,-177 552,-147 404,-147"/>
<text text-anchor="start" x="412" y="-165" font-family="Helvetica,sans-Serif" font-size="10.00">Ra::Engine::RenderTechnique</text>
<text text-anchor="middle" x="478" y="-154" font-family="Helvetica,sans-Serif" font-size="10.00">::setMaterial</text>
</a>
</g>
</g>
<!-- Node21&#45;&gt;Node26 -->
<g id="edge29" class="edge"><title>Node21&#45;&gt;Node26</title>
<path fill="none" stroke="midnightblue" d="M362.222,-169.731C372.675,-169.027 383.424,-168.303 393.955,-167.594"/>
<polygon fill="midnightblue" stroke="midnightblue" points="394.226,-171.083 403.968,-166.919 393.756,-164.099 394.226,-171.083"/>
</g>
<!-- Node24 -->
<g id="node24" class="node"><title>Node24</title>
<g id="a_node24"><a xlink:href="classRa_1_1Engine_1_1ShaderConfiguration.html#a7e20a600c78e8627f0238b342f4b42f2" target="_top" xlink:title="Ra::Engine::ShaderConfiguration\l::getDefaultShaderConfig">
<polygon fill="white" stroke="black" points="594,-49 594,-79 754,-79 754,-49 594,-49"/>
<text text-anchor="start" x="602" y="-67" font-family="Helvetica,sans-Serif" font-size="10.00">Ra::Engine::ShaderConfiguration</text>
<text text-anchor="middle" x="674" y="-56" font-family="Helvetica,sans-Serif" font-size="10.00">::getDefaultShaderConfig</text>
</a>
</g>
</g>
<!-- Node23&#45;&gt;Node24 -->
<g id="edge27" class="edge"><title>Node23&#45;&gt;Node24</title>
<path fill="none" stroke="midnightblue" d="M558.187,-64C566.529,-64 575.054,-64 583.502,-64"/>
<polygon fill="midnightblue" stroke="midnightblue" points="583.752,-67.5001 593.752,-64 583.752,-60.5001 583.752,-67.5001"/>
</g>
<!-- Node29 -->
<g id="node29" class="node"><title>Node29</title>
<g id="a_node29"><a xlink:href="classRa_1_1Engine_1_1Component.html#a10b0bc182b76165744ebea603ae32dfe" target="_top" xlink:title="Shortcut to access the render object manager. ">
<polygon fill="white" stroke="black" points="417,-0 417,-30 539,-30 539,-0 417,-0"/>
<text text-anchor="start" x="425" y="-18" font-family="Helvetica,sans-Serif" font-size="10.00">Ra::Engine::Component</text>
<text text-anchor="middle" x="478" y="-7" font-family="Helvetica,sans-Serif" font-size="10.00">::getRoMgr</text>
</a>
</g>
</g>
<!-- Node28&#45;&gt;Node29 -->
<g id="edge33" class="edge"><title>Node28&#45;&gt;Node29</title>
<path fill="none" stroke="midnightblue" d="M344.008,-41.1849C363.883,-37.2717 386.18,-32.8817 406.753,-28.8309"/>
<polygon fill="midnightblue" stroke="midnightblue" points="407.561,-32.2392 416.697,-26.8732 406.209,-25.3711 407.561,-32.2392"/>
</g>
</g>
</svg>
