<?xml version="1.0" encoding="UTF-8" standalone="no"?>
<!DOCTYPE svg PUBLIC "-//W3C//DTD SVG 1.1//EN"
 "http://www.w3.org/Graphics/SVG/1.1/DTD/svg11.dtd">
<!-- Generated by graphviz version 2.36.0 (20140111.2315)
 -->
<!-- Title: Ra::Engine::RenderTechnique::createDefaultRenderTechnique Pages: 1 -->
<svg width="558pt" height="185pt"
 viewBox="0.00 0.00 558.00 185.00" xmlns="http://www.w3.org/2000/svg" xmlns:xlink="http://www.w3.org/1999/xlink">
<g id="graph0" class="graph" transform="scale(1 1) rotate(0) translate(4 181)">
<title>Ra::Engine::RenderTechnique::createDefaultRenderTechnique</title>
<polygon fill="white" stroke="none" points="-4,4 -4,-181 554,-181 554,4 -4,4"/>
<!-- Node1 -->
<g id="node1" class="node"><title>Node1</title>
<polygon fill="#bfbfbf" stroke="black" points="0,-73 0,-103 158,-103 158,-73 0,-73"/>
<text text-anchor="start" x="8" y="-91" font-family="Helvetica,sans-Serif" font-size="10.00">Ra::Engine::RenderTechnique</text>
<text text-anchor="middle" x="79" y="-80" font-family="Helvetica,sans-Serif" font-size="10.00">::createDefaultRenderTechnique</text>
</g>
<!-- Node2 -->
<g id="node2" class="node"><title>Node2</title>
<g id="a_node2"><a xlink:href="namespaceRa_1_1Engine.html#ae16a1eeeb93530e2a7604d5a53e5fbc4" target="_top" xlink:title="Ra::Engine::RadiumDefault\lRenderTechnique">
<polygon fill="white" stroke="black" points="205.5,-147 205.5,-177 342.5,-177 342.5,-147 205.5,-147"/>
<text text-anchor="start" x="213.5" y="-165" font-family="Helvetica,sans-Serif" font-size="10.00">Ra::Engine::RadiumDefault</text>
<text text-anchor="middle" x="274" y="-154" font-family="Helvetica,sans-Serif" font-size="10.00">RenderTechnique</text>
</a>
</g>
</g>
<!-- Node1&#45;&gt;Node2 -->
<g id="edge1" class="edge"><title>Node1&#45;&gt;Node2</title>
<path fill="none" stroke="midnightblue" d="M112.575,-103.027C135.187,-113.204 166.138,-126.633 194,-137 200.017,-139.239 206.336,-141.457 212.67,-143.593"/>
<polygon fill="midnightblue" stroke="midnightblue" points="212.001,-147.058 222.594,-146.874 214.198,-140.412 212.001,-147.058"/>
</g>
<!-- Node3 -->
<g id="node3" class="node"><title>Node3</title>
<g id="a_node3"><a xlink:href="namespaceRa_1_1Engine_1_1ShaderConfigurationFactory.html#a0bc60f21dbabd745961037f3d2f019c8" target="_top" xlink:title="Ra::Engine::ShaderConfiguration\lFactory::getConfiguration">
<polygon fill="white" stroke="black" points="194,-98 194,-128 354,-128 354,-98 194,-98"/>
<text text-anchor="start" x="202" y="-116" font-family="Helvetica,sans-Serif" font-size="10.00">Ra::Engine::ShaderConfiguration</text>
<text text-anchor="middle" x="274" y="-105" font-family="Helvetica,sans-Serif" font-size="10.00">Factory::getConfiguration</text>
</a>
</g>
</g>
<!-- Node1&#45;&gt;Node3 -->
<g id="edge2" class="edge"><title>Node1&#45;&gt;Node3</title>
<path fill="none" stroke="midnightblue" d="M158.222,-98.1324C166.634,-99.222 175.238,-100.336 183.765,-101.441"/>
<polygon fill="midnightblue" stroke="midnightblue" points="183.358,-104.918 193.725,-102.731 184.257,-97.9755 183.358,-104.918"/>
</g>
<!-- Node5 -->
<g id="node5" class="node"><title>Node5</title>
<g id="a_node5"><a xlink:href="classRa_1_1Engine_1_1RenderTechnique.html#aaf860d7c30aef24f7c24016952cd8f00" target="_top" xlink:title="Ra::Engine::RenderTechnique\l::setConfiguration">
<polygon fill="white" stroke="black" points="200,-49 200,-79 348,-79 348,-49 200,-49"/>
<text text-anchor="start" x="208" y="-67" font-family="Helvetica,sans-Serif" font-size="10.00">Ra::Engine::RenderTechnique</text>
<text text-anchor="middle" x="274" y="-56" font-family="Helvetica,sans-Serif" font-size="10.00">::setConfiguration</text>
</a>
</g>
</g>
<!-- Node1&#45;&gt;Node5 -->
<g id="edge4" class="edge"><title>Node1&#45;&gt;Node5</title>
<path fill="none" stroke="midnightblue" d="M158.222,-78.2729C168.675,-76.9731 179.424,-75.6364 189.955,-74.3268"/>
<polygon fill="midnightblue" stroke="midnightblue" points="190.477,-77.789 199.968,-73.0817 189.613,-70.8425 190.477,-77.789"/>
</g>
<!-- Node6 -->
<g id="node6" class="node"><title>Node6</title>
<g id="a_node6"><a xlink:href="classRa_1_1Engine_1_1RenderTechnique.html#a9bddcd20723ee582fd81c363b9148cf9" target="_top" xlink:title="Ra::Engine::RenderTechnique\l::setMaterial">
<polygon fill="white" stroke="black" points="200,-0 200,-30 348,-30 348,-0 200,-0"/>
<text text-anchor="start" x="208" y="-18" font-family="Helvetica,sans-Serif" font-size="10.00">Ra::Engine::RenderTechnique</text>
<text text-anchor="middle" x="274" y="-7" font-family="Helvetica,sans-Serif" font-size="10.00">::setMaterial</text>
</a>
</g>
</g>
<!-- Node1&#45;&gt;Node6 -->
<g id="edge5" class="edge"><title>Node1&#45;&gt;Node6</title>
<path fill="none" stroke="midnightblue" d="M113.595,-72.8936C136.13,-62.9998 166.59,-50.0831 194,-40 200.259,-37.6975 206.842,-35.4091 213.426,-33.2051"/>
<polygon fill="midnightblue" stroke="midnightblue" points="214.63,-36.4937 223.036,-30.0448 212.443,-29.8441 214.63,-36.4937"/>
</g>
<!-- Node4 -->
<g id="node4" class="node"><title>Node4</title>
<g id="a_node4"><a xlink:href="classRa_1_1Engine_1_1ShaderConfiguration.html#a7e20a600c78e8627f0238b342f4b42f2" target="_top" xlink:title="Ra::Engine::ShaderConfiguration\l::getDefaultShaderConfig">
<polygon fill="white" stroke="black" points="390,-98 390,-128 550,-128 550,-98 390,-98"/>
<text text-anchor="start" x="398" y="-116" font-family="Helvetica,sans-Serif" font-size="10.00">Ra::Engine::ShaderConfiguration</text>
<text text-anchor="middle" x="470" y="-105" font-family="Helvetica,sans-Serif" font-size="10.00">::getDefaultShaderConfig</text>
</a>
</g>
</g>
<!-- Node3&#45;&gt;Node4 -->
<g id="edge3" class="edge"><title>Node3&#45;&gt;Node4</title>
<path fill="none" stroke="midnightblue" d="M354.187,-113C362.529,-113 371.054,-113 379.502,-113"/>
<polygon fill="midnightblue" stroke="midnightblue" points="379.752,-116.5 389.752,-113 379.752,-109.5 379.752,-116.5"/>
</g>
</g>
</svg>
