<?xml version="1.0" encoding="UTF-8" standalone="no"?>
<!DOCTYPE svg PUBLIC "-//W3C//DTD SVG 1.1//EN"
 "http://www.w3.org/Graphics/SVG/1.1/DTD/svg11.dtd">
<!-- Generated by graphviz version 2.36.0 (20140111.2315)
 -->
<!-- Title: Ra::Engine::Camera Pages: 1 -->
<svg width="387pt" height="602pt"
 viewBox="0.00 0.00 387.00 602.00" xmlns="http://www.w3.org/2000/svg" xmlns:xlink="http://www.w3.org/1999/xlink">
<g id="graph0" class="graph" transform="scale(1 1) rotate(0) translate(4 598)">
<title>Ra::Engine::Camera</title>
<polygon fill="white" stroke="none" points="-4,4 -4,-598 383,-598 383,4 -4,4"/>
<!-- Node1 -->
<g id="node1" class="node"><title>Node1</title>
<polygon fill="#bfbfbf" stroke="black" points="111,-0.5 111,-409.5 227,-409.5 227,-0.5 111,-0.5"/>
<text text-anchor="middle" x="169" y="-397.5" font-family="Helvetica,sans-Serif" font-size="10.00">Ra::Engine::Camera</text>
<polyline fill="none" stroke="black" points="111,-390.5 227,-390.5 "/>
<text text-anchor="middle" x="169" y="-378.5" font-family="Helvetica,sans-Serif" font-size="10.00"> </text>
<polyline fill="none" stroke="black" points="111,-371.5 227,-371.5 "/>
<text text-anchor="start" x="119" y="-359.5" font-family="Helvetica,sans-Serif" font-size="10.00">+ Camera()</text>
<text text-anchor="start" x="119" y="-348.5" font-family="Helvetica,sans-Serif" font-size="10.00">+ Camera()</text>
<text text-anchor="start" x="119" y="-337.5" font-family="Helvetica,sans-Serif" font-size="10.00">+ ~Camera()</text>
<text text-anchor="start" x="119" y="-326.5" font-family="Helvetica,sans-Serif" font-size="10.00">+ getFrame()</text>
<text text-anchor="start" x="119" y="-315.5" font-family="Helvetica,sans-Serif" font-size="10.00">+ setFrame()</text>
<text text-anchor="start" x="119" y="-304.5" font-family="Helvetica,sans-Serif" font-size="10.00">+ getPosition()</text>
<text text-anchor="start" x="119" y="-293.5" font-family="Helvetica,sans-Serif" font-size="10.00">+ setPosition()</text>
<text text-anchor="start" x="119" y="-282.5" font-family="Helvetica,sans-Serif" font-size="10.00">+ getDirection()</text>
<text text-anchor="start" x="119" y="-271.5" font-family="Helvetica,sans-Serif" font-size="10.00">+ setDirection()</text>
<text text-anchor="start" x="119" y="-260.5" font-family="Helvetica,sans-Serif" font-size="10.00">+ getUpVector()</text>
<text text-anchor="start" x="119" y="-249.5" font-family="Helvetica,sans-Serif" font-size="10.00">+ setUpVector()</text>
<text text-anchor="start" x="119" y="-238.5" font-family="Helvetica,sans-Serif" font-size="10.00">+ getRightVector()</text>
<text text-anchor="start" x="119" y="-227.5" font-family="Helvetica,sans-Serif" font-size="10.00">+ applyTransform()</text>
<text text-anchor="start" x="119" y="-216.5" font-family="Helvetica,sans-Serif" font-size="10.00">+ getFOV()</text>
<text text-anchor="start" x="119" y="-205.5" font-family="Helvetica,sans-Serif" font-size="10.00">+ setFOV()</text>
<text text-anchor="start" x="119" y="-194.5" font-family="Helvetica,sans-Serif" font-size="10.00">+ getZNear()</text>
<text text-anchor="start" x="119" y="-183.5" font-family="Helvetica,sans-Serif" font-size="10.00">+ setZNear()</text>
<text text-anchor="start" x="119" y="-172.5" font-family="Helvetica,sans-Serif" font-size="10.00">+ getZFar()</text>
<text text-anchor="start" x="119" y="-161.5" font-family="Helvetica,sans-Serif" font-size="10.00">+ setZFar()</text>
<text text-anchor="start" x="119" y="-150.5" font-family="Helvetica,sans-Serif" font-size="10.00">+ getZoomFactor()</text>
<text text-anchor="start" x="119" y="-139.5" font-family="Helvetica,sans-Serif" font-size="10.00">+ setZoomFactor()</text>
<text text-anchor="start" x="119" y="-128.5" font-family="Helvetica,sans-Serif" font-size="10.00">+ getProjType()</text>
<text text-anchor="start" x="119" y="-117.5" font-family="Helvetica,sans-Serif" font-size="10.00">+ setProjType()</text>
<text text-anchor="start" x="119" y="-106.5" font-family="Helvetica,sans-Serif" font-size="10.00">+ getWidth()</text>
<text text-anchor="start" x="119" y="-95.5" font-family="Helvetica,sans-Serif" font-size="10.00">+ getHeight()</text>
<text text-anchor="start" x="119" y="-84.5" font-family="Helvetica,sans-Serif" font-size="10.00">+ getAspect()</text>
<text text-anchor="start" x="119" y="-73.5" font-family="Helvetica,sans-Serif" font-size="10.00">+ resize()</text>
<text text-anchor="start" x="119" y="-62.5" font-family="Helvetica,sans-Serif" font-size="10.00">+ getViewMatrix()</text>
<text text-anchor="start" x="119" y="-51.5" font-family="Helvetica,sans-Serif" font-size="10.00">+ getProjMatrix()</text>
<text text-anchor="start" x="119" y="-40.5" font-family="Helvetica,sans-Serif" font-size="10.00">+ updateProjMatrix()</text>
<text text-anchor="start" x="119" y="-29.5" font-family="Helvetica,sans-Serif" font-size="10.00">+ getRayFromScreen()</text>
<text text-anchor="start" x="119" y="-18.5" font-family="Helvetica,sans-Serif" font-size="10.00">+ project()</text>
<text text-anchor="start" x="119" y="-7.5" font-family="Helvetica,sans-Serif" font-size="10.00">+ unProject()</text>
</g>
<!-- Node2 -->
<g id="node2" class="node"><title>Node2</title>
<polygon fill="white" stroke="#bfbfbf" points="-0.5,-530.5 -0.5,-587.5 34.5,-587.5 34.5,-530.5 -0.5,-530.5"/>
<text text-anchor="middle" x="17" y="-575.5" font-family="Helvetica,sans-Serif" font-size="10.00">float</text>
<polyline fill="none" stroke="#bfbfbf" points="-0.5,-568.5 34.5,-568.5 "/>
<text text-anchor="middle" x="17" y="-556.5" font-family="Helvetica,sans-Serif" font-size="10.00"> </text>
<polyline fill="none" stroke="#bfbfbf" points="-0.5,-549.5 34.5,-549.5 "/>
<text text-anchor="middle" x="17" y="-537.5" font-family="Helvetica,sans-Serif" font-size="10.00"> </text>
</g>
<!-- Node2&#45;&gt;Node1 -->
<g id="edge1" class="edge"><title>Node2&#45;&gt;Node1</title>
<path fill="none" stroke="#404040" d="M19.929,-530.414C23.3709,-503.609 30.2978,-462.075 43,-428 58.8824,-385.393 82.2738,-341.279 104.604,-303.709"/>
<polygon fill="none" stroke="#404040" points="104.683,-303.576 104.347,-296.373 110.867,-293.292 111.203,-300.495 104.683,-303.576"/>
<text text-anchor="middle" x="78.5" y="-497.5" font-family="Helvetica,sans-Serif" font-size="10.00"> #m_zNear</text>
<text text-anchor="middle" x="78.5" y="-486.5" font-family="Helvetica,sans-Serif" font-size="10.00">#m_zoomFactor</text>
<text text-anchor="middle" x="78.5" y="-475.5" font-family="Helvetica,sans-Serif" font-size="10.00">#m_zFar</text>
<text text-anchor="middle" x="78.5" y="-464.5" font-family="Helvetica,sans-Serif" font-size="10.00">#m_fov</text>
<text text-anchor="middle" x="78.5" y="-453.5" font-family="Helvetica,sans-Serif" font-size="10.00">#m_height</text>
<text text-anchor="middle" x="78.5" y="-442.5" font-family="Helvetica,sans-Serif" font-size="10.00">#m_width</text>
<text text-anchor="middle" x="78.5" y="-431.5" font-family="Helvetica,sans-Serif" font-size="10.00">#m_aspect</text>
</g>
<!-- Node3 -->
<g id="node3" class="node"><title>Node3</title>
<polygon fill="white" stroke="#bfbfbf" points="56.5,-525 56.5,-593 157.5,-593 157.5,-525 56.5,-525"/>
<text text-anchor="start" x="64.5" y="-581" font-family="Helvetica,sans-Serif" font-size="10.00">Transform&lt; Scalar,</text>
<text text-anchor="middle" x="107" y="-570" font-family="Helvetica,sans-Serif" font-size="10.00"> 3, Eigen::Affine &gt;</text>
<polyline fill="none" stroke="#bfbfbf" points="56.5,-563 157.5,-563 "/>
<text text-anchor="middle" x="107" y="-551" font-family="Helvetica,sans-Serif" font-size="10.00"> </text>
<polyline fill="none" stroke="#bfbfbf" points="56.5,-544 157.5,-544 "/>
<text text-anchor="middle" x="107" y="-532" font-family="Helvetica,sans-Serif" font-size="10.00"> </text>
</g>
<!-- Node3&#45;&gt;Node1 -->
<g id="edge2" class="edge"><title>Node3&#45;&gt;Node1</title>
<path fill="none" stroke="#404040" d="M112.833,-524.885C117.305,-499.495 123.901,-462.045 131.015,-421.657"/>
<polygon fill="none" stroke="#404040" points="131.054,-421.437 128.155,-414.834 133.135,-409.619 136.034,-416.222 131.054,-421.437"/>
<text text-anchor="middle" x="152.5" y="-464.5" font-family="Helvetica,sans-Serif" font-size="10.00"> #m_frame</text>
</g>
<!-- Node4 -->
<g id="node4" class="node"><title>Node4</title>
<polygon fill="white" stroke="#bfbfbf" points="176,-530.5 176,-587.5 288,-587.5 288,-530.5 176,-530.5"/>
<text text-anchor="middle" x="232" y="-575.5" font-family="Helvetica,sans-Serif" font-size="10.00">Matrix&lt; Scalar, 4, 4 &gt;</text>
<polyline fill="none" stroke="#bfbfbf" points="176,-568.5 288,-568.5 "/>
<text text-anchor="middle" x="232" y="-556.5" font-family="Helvetica,sans-Serif" font-size="10.00"> </text>
<polyline fill="none" stroke="#bfbfbf" points="176,-549.5 288,-549.5 "/>
<text text-anchor="middle" x="232" y="-537.5" font-family="Helvetica,sans-Serif" font-size="10.00"> </text>
</g>
<!-- Node4&#45;&gt;Node1 -->
<g id="edge3" class="edge"><title>Node4&#45;&gt;Node1</title>
<path fill="none" stroke="#404040" d="M227.056,-530.379C222.526,-505.067 215.358,-465.014 207.582,-421.568"/>
<polygon fill="none" stroke="#404040" points="207.543,-421.354 202.549,-416.152 205.429,-409.541 210.424,-414.743 207.543,-421.354"/>
<text text-anchor="middle" x="254.5" y="-464.5" font-family="Helvetica,sans-Serif" font-size="10.00"> #m_projMatrix</text>
</g>
<!-- Node5 -->
<g id="node5" class="node"><title>Node5</title>
<polygon fill="white" stroke="#bfbfbf" points="306,-530.5 306,-587.5 362,-587.5 362,-530.5 306,-530.5"/>
<text text-anchor="middle" x="334" y="-575.5" font-family="Helvetica,sans-Serif" font-size="10.00">ProjType</text>
<polyline fill="none" stroke="#bfbfbf" points="306,-568.5 362,-568.5 "/>
<text text-anchor="middle" x="334" y="-556.5" font-family="Helvetica,sans-Serif" font-size="10.00"> </text>
<polyline fill="none" stroke="#bfbfbf" points="306,-549.5 362,-549.5 "/>
<text text-anchor="middle" x="334" y="-537.5" font-family="Helvetica,sans-Serif" font-size="10.00"> </text>
</g>
<!-- Node5&#45;&gt;Node1 -->
<g id="edge4" class="edge"><title>Node5&#45;&gt;Node1</title>
<path fill="none" stroke="#404040" d="M326.444,-530.317C318.786,-503.62 305.958,-462.323 291,-428 274.21,-389.471 252.954,-348.771 232.906,-312.89"/>
<polygon fill="none" stroke="#404040" points="232.895,-312.87 226.466,-309.603 227.01,-302.412 233.438,-305.679 232.895,-312.87"/>
<text text-anchor="middle" x="349" y="-464.5" font-family="Helvetica,sans-Serif" font-size="10.00"> #m_projType</text>
</g>
</g>
</svg>
