<?xml version="1.0" encoding="UTF-8" standalone="no"?>
<!DOCTYPE svg PUBLIC "-//W3C//DTD SVG 1.1//EN"
 "http://www.w3.org/Graphics/SVG/1.1/DTD/svg11.dtd">
<!-- Generated by graphviz version 2.36.0 (20140111.2315)
 -->
<!-- Title: Ra::Core::TopologicalMesh::TopologicalMesh Pages: 1 -->
<svg width="526pt" height="403pt"
 viewBox="0.00 0.00 526.00 403.00" xmlns="http://www.w3.org/2000/svg" xmlns:xlink="http://www.w3.org/1999/xlink">
<g id="graph0" class="graph" transform="scale(1 1) rotate(0) translate(4 399)">
<title>Ra::Core::TopologicalMesh::TopologicalMesh</title>
<polygon fill="white" stroke="none" points="-4,4 -4,-399 522,-399 522,4 -4,4"/>
<!-- Node1 -->
<g id="node1" class="node"><title>Node1</title>
<polygon fill="#bfbfbf" stroke="black" points="0,-196 0,-226 136,-226 136,-196 0,-196"/>
<text text-anchor="start" x="8" y="-214" font-family="Helvetica,sans-Serif" font-size="10.00">Ra::Core::TopologicalMesh</text>
<text text-anchor="middle" x="68" y="-203" font-family="Helvetica,sans-Serif" font-size="10.00">::TopologicalMesh</text>
</g>
<!-- Node2 -->
<g id="node2" class="node"><title>Node2</title>
<g id="a_node2"><a xlink:href="namespaceRa_1_1Core_1_1Vector.html#af564521564244ea832d4b66d9cff6fcc" target="_top" xlink:title="Component&#45;wise floor() function on a floating&#45;point vector. ">
<polygon fill="white" stroke="black" points="190,-359.5 190,-378.5 306,-378.5 306,-359.5 190,-359.5"/>
<text text-anchor="middle" x="248" y="-366.5" font-family="Helvetica,sans-Serif" font-size="10.00">Ra::Core::Vector::floor</text>
</a>
</g>
</g>
<!-- Node1&#45;&gt;Node2 -->
<g id="edge1" class="edge"><title>Node1&#45;&gt;Node2</title>
<path fill="none" stroke="midnightblue" d="M75.8955,-226.246C89.7592,-255.108 123.851,-317.72 172,-350 175.082,-352.066 178.372,-353.908 181.79,-355.549"/>
<polygon fill="midnightblue" stroke="midnightblue" points="180.503,-358.805 191.078,-359.443 183.209,-352.349 180.503,-358.805"/>
</g>
<!-- Node3 -->
<g id="node3" class="node"><title>Node3</title>
<g id="a_node3"><a xlink:href="classRa_1_1Core_1_1TriangleMesh.html#a49ec63044477bd5bdff8d57a5114f011" target="_top" xlink:title="Ra::Core::TriangleMesh\l::attribManager">
<polygon fill="white" stroke="black" points="378.5,-267 378.5,-297 499.5,-297 499.5,-267 378.5,-267"/>
<text text-anchor="start" x="386.5" y="-285" font-family="Helvetica,sans-Serif" font-size="10.00">Ra::Core::TriangleMesh</text>
<text text-anchor="middle" x="439" y="-274" font-family="Helvetica,sans-Serif" font-size="10.00">::attribManager</text>
</a>
</g>
</g>
<!-- Node1&#45;&gt;Node3 -->
<g id="edge2" class="edge"><title>Node1&#45;&gt;Node3</title>
<path fill="none" stroke="midnightblue" d="M86.9387,-226.04C106.451,-241.372 139.254,-264.246 172,-274 236.373,-293.175 313.417,-293.151 367.981,-289.551"/>
<polygon fill="midnightblue" stroke="midnightblue" points="368.517,-293.021 378.241,-288.814 368.016,-286.039 368.517,-293.021"/>
</g>
<!-- Node4 -->
<g id="node4" class="node"><title>Node4</title>
<g id="a_node4"><a xlink:href="classRa_1_1Core_1_1AttribManager.html#aed37bc0178d505f4fce3d856badcc706" target="_top" xlink:title="const acces to attrib vector ">
<polygon fill="white" stroke="black" points="186.5,-98 186.5,-128 309.5,-128 309.5,-98 186.5,-98"/>
<text text-anchor="start" x="194.5" y="-116" font-family="Helvetica,sans-Serif" font-size="10.00">Ra::Core::AttribManager</text>
<text text-anchor="middle" x="248" y="-105" font-family="Helvetica,sans-Serif" font-size="10.00">::attribs</text>
</a>
</g>
</g>
<!-- Node1&#45;&gt;Node4 -->
<g id="edge3" class="edge"><title>Node1&#45;&gt;Node4</title>
<path fill="none" stroke="midnightblue" d="M86.4905,-195.788C106.141,-179.355 139.549,-153.335 172,-137 175.709,-135.133 179.594,-133.371 183.561,-131.715"/>
<polygon fill="midnightblue" stroke="midnightblue" points="184.887,-134.955 192.92,-128.047 182.333,-128.438 184.887,-134.955"/>
</g>
<!-- Node5 -->
<g id="node5" class="node"><title>Node5</title>
<g id="a_node5"><a xlink:href="namespaceRa_1_1Core.html#abb46c5a60ddd6094b40710dcb9e745f5" target="_top" xlink:title="Ra::Core::addAttribPairToTopo">
<polygon fill="white" stroke="black" points="172,-321.5 172,-340.5 324,-340.5 324,-321.5 172,-321.5"/>
<text text-anchor="middle" x="248" y="-328.5" font-family="Helvetica,sans-Serif" font-size="10.00">Ra::Core::addAttribPairToTopo</text>
</a>
</g>
</g>
<!-- Node1&#45;&gt;Node5 -->
<g id="edge4" class="edge"><title>Node1&#45;&gt;Node5</title>
<path fill="none" stroke="midnightblue" d="M81.4033,-226.18C99.3261,-247.184 134.457,-285.005 172,-307 179.542,-311.419 187.995,-315.127 196.434,-318.205"/>
<polygon fill="midnightblue" stroke="midnightblue" points="195.311,-321.52 205.905,-321.415 197.558,-314.89 195.311,-321.52"/>
</g>
<!-- Node8 -->
<g id="node8" class="node"><title>Node8</title>
<g id="a_node8"><a xlink:href="classRa_1_1Core_1_1TriangleMesh.html#a495116f40cfec8bb6504698d786d4b8c" target="_top" xlink:title="Ra::Core::TriangleMesh\l::vertices">
<polygon fill="white" stroke="black" points="187.5,-147 187.5,-177 308.5,-177 308.5,-147 187.5,-147"/>
<text text-anchor="start" x="195.5" y="-165" font-family="Helvetica,sans-Serif" font-size="10.00">Ra::Core::TriangleMesh</text>
<text text-anchor="middle" x="248" y="-154" font-family="Helvetica,sans-Serif" font-size="10.00">::vertices</text>
</a>
</g>
</g>
<!-- Node1&#45;&gt;Node8 -->
<g id="edge8" class="edge"><title>Node1&#45;&gt;Node8</title>
<path fill="none" stroke="midnightblue" d="M123.858,-195.899C142.386,-190.798 163.242,-185.057 182.45,-179.77"/>
<polygon fill="midnightblue" stroke="midnightblue" points="183.61,-183.08 192.323,-177.052 181.753,-176.331 183.61,-183.08"/>
</g>
<!-- Node10 -->
<g id="node10" class="node"><title>Node10</title>
<g id="a_node10"><a xlink:href="classRa_1_1Core_1_1TriangleMesh.html#a40d31b7b2943947d6eac5d906f0182fd" target="_top" xlink:title="Ra::Core::TriangleMesh\l::normals">
<polygon fill="white" stroke="black" points="187.5,-196 187.5,-226 308.5,-226 308.5,-196 187.5,-196"/>
<text text-anchor="start" x="195.5" y="-214" font-family="Helvetica,sans-Serif" font-size="10.00">Ra::Core::TriangleMesh</text>
<text text-anchor="middle" x="248" y="-203" font-family="Helvetica,sans-Serif" font-size="10.00">::normals</text>
</a>
</g>
</g>
<!-- Node1&#45;&gt;Node10 -->
<g id="edge10" class="edge"><title>Node1&#45;&gt;Node10</title>
<path fill="none" stroke="midnightblue" d="M136.041,-211C149.47,-211 163.61,-211 177.132,-211"/>
<polygon fill="midnightblue" stroke="midnightblue" points="177.33,-214.5 187.33,-211 177.33,-207.5 177.33,-214.5"/>
</g>
<!-- Node11 -->
<g id="node11" class="node"><title>Node11</title>
<g id="a_node11"><a xlink:href="namespaceRa_1_1Engine_1_1DrawPrimitives.html#a7c7d8914b3f2f176becda99c2c6453c0" target="_top" xlink:title="Ra::Engine::DrawPrimitives\l::Normal">
<polygon fill="white" stroke="black" points="179,-49 179,-79 317,-79 317,-49 179,-49"/>
<text text-anchor="start" x="187" y="-67" font-family="Helvetica,sans-Serif" font-size="10.00">Ra::Engine::DrawPrimitives</text>
<text text-anchor="middle" x="248" y="-56" font-family="Helvetica,sans-Serif" font-size="10.00">::Normal</text>
</a>
</g>
</g>
<!-- Node1&#45;&gt;Node11 -->
<g id="edge12" class="edge"><title>Node1&#45;&gt;Node11</title>
<path fill="none" stroke="midnightblue" d="M77.7418,-195.757C93.3626,-169.85 128.539,-117.206 172,-88 174.394,-86.3915 176.902,-84.8852 179.49,-83.4751"/>
<polygon fill="midnightblue" stroke="midnightblue" points="181.101,-86.5831 188.544,-79.0428 178.024,-80.296 181.101,-86.5831"/>
</g>
<!-- Node14 -->
<g id="node14" class="node"><title>Node14</title>
<g id="a_node14"><a xlink:href="classRa_1_1Core_1_1TopologicalMesh.html#abe2a6ac857a94f53fa1180c12ce034f8" target="_top" xlink:title="Return the half&#45;edge associated with a given vertex and face. ">
<polygon fill="white" stroke="black" points="180,-0 180,-30 316,-30 316,-0 180,-0"/>
<text text-anchor="start" x="188" y="-18" font-family="Helvetica,sans-Serif" font-size="10.00">Ra::Core::TopologicalMesh</text>
<text text-anchor="middle" x="248" y="-7" font-family="Helvetica,sans-Serif" font-size="10.00">::halfedge_handle</text>
</a>
</g>
</g>
<!-- Node1&#45;&gt;Node14 -->
<g id="edge15" class="edge"><title>Node1&#45;&gt;Node14</title>
<path fill="none" stroke="midnightblue" d="M73.8863,-195.869C85.4323,-162.501 117.593,-82.1453 172,-39 173.607,-37.7258 175.283,-36.5185 177.014,-35.3747"/>
<polygon fill="midnightblue" stroke="midnightblue" points="179.146,-38.1862 186.072,-30.1683 175.658,-32.1173 179.146,-38.1862"/>
</g>
<!-- Node15 -->
<g id="node15" class="node"><title>Node15</title>
<g id="a_node15"><a xlink:href="namespaceRa_1_1Core.html#adb0829c3f7f415ef33cab26b94e21478" target="_top" xlink:title="Ra::Core::copyAttribToTopo">
<polygon fill="white" stroke="black" points="178,-245.5 178,-264.5 318,-264.5 318,-245.5 178,-245.5"/>
<text text-anchor="middle" x="248" y="-252.5" font-family="Helvetica,sans-Serif" font-size="10.00">Ra::Core::copyAttribToTopo</text>
</a>
</g>
</g>
<!-- Node1&#45;&gt;Node15 -->
<g id="edge16" class="edge"><title>Node1&#45;&gt;Node15</title>
<path fill="none" stroke="midnightblue" d="M129.76,-226.019C152.278,-231.586 177.487,-237.817 198.743,-243.071"/>
<polygon fill="midnightblue" stroke="midnightblue" points="197.97,-246.486 208.518,-245.488 199.65,-239.69 197.97,-246.486"/>
</g>
<!-- Node5&#45;&gt;Node3 -->
<g id="edge5" class="edge"><title>Node5&#45;&gt;Node3</title>
<path fill="none" stroke="midnightblue" d="M285.89,-321.436C309.818,-315.232 341.715,-306.963 370.118,-299.599"/>
<polygon fill="midnightblue" stroke="midnightblue" points="371.199,-302.935 380,-297.037 369.442,-296.159 371.199,-302.935"/>
</g>
<!-- Node6 -->
<g id="node6" class="node"><title>Node6</title>
<g id="a_node6"><a xlink:href="classRa_1_1Core_1_1AttribManager.html#a97c505630ee31ba828c08eeb04ec3ac5" target="_top" xlink:title="getAttrib Grab an attribute handler by name ">
<polygon fill="white" stroke="black" points="377.5,-365 377.5,-395 500.5,-395 500.5,-365 377.5,-365"/>
<text text-anchor="start" x="385.5" y="-383" font-family="Helvetica,sans-Serif" font-size="10.00">Ra::Core::AttribManager</text>
<text text-anchor="middle" x="439" y="-372" font-family="Helvetica,sans-Serif" font-size="10.00">::getAttribHandle</text>
</a>
</g>
</g>
<!-- Node5&#45;&gt;Node6 -->
<g id="edge6" class="edge"><title>Node5&#45;&gt;Node6</title>
<path fill="none" stroke="midnightblue" d="M286.787,-340.501C298.7,-343.515 311.905,-346.877 324,-350 339.28,-353.946 355.697,-358.236 371.181,-362.306"/>
<polygon fill="midnightblue" stroke="midnightblue" points="370.639,-365.782 381.2,-364.943 372.42,-359.013 370.639,-365.782"/>
</g>
<!-- Node7 -->
<g id="node7" class="node"><title>Node7</title>
<g id="a_node7"><a xlink:href="classRa_1_1Core_1_1AttribBase.html#a8bc2827bfe23f9c6def2647a946ebdc8" target="_top" xlink:title="Ra::Core::AttribBase\l::getName">
<polygon fill="white" stroke="black" points="385,-316 385,-346 493,-346 493,-316 385,-316"/>
<text text-anchor="start" x="393" y="-334" font-family="Helvetica,sans-Serif" font-size="10.00">Ra::Core::AttribBase</text>
<text text-anchor="middle" x="439" y="-323" font-family="Helvetica,sans-Serif" font-size="10.00">::getName</text>
</a>
</g>
</g>
<!-- Node5&#45;&gt;Node7 -->
<g id="edge7" class="edge"><title>Node5&#45;&gt;Node7</title>
<path fill="none" stroke="midnightblue" d="M324.241,-331C340.876,-331 358.343,-331 374.46,-331"/>
<polygon fill="midnightblue" stroke="midnightblue" points="374.833,-334.5 384.833,-331 374.833,-327.5 374.833,-334.5"/>
</g>
<!-- Node9 -->
<g id="node9" class="node"><title>Node9</title>
<g id="a_node9"><a xlink:href="classRa_1_1Core_1_1AttribManager.html#a2344159a1926da905e4c44cd95744d59" target="_top" xlink:title="Get attribute by handle. ">
<polygon fill="white" stroke="black" points="377.5,-196 377.5,-226 500.5,-226 500.5,-196 377.5,-196"/>
<text text-anchor="start" x="385.5" y="-214" font-family="Helvetica,sans-Serif" font-size="10.00">Ra::Core::AttribManager</text>
<text text-anchor="middle" x="439" y="-203" font-family="Helvetica,sans-Serif" font-size="10.00">::getAttrib</text>
</a>
</g>
</g>
<!-- Node8&#45;&gt;Node9 -->
<g id="edge9" class="edge"><title>Node8&#45;&gt;Node9</title>
<path fill="none" stroke="midnightblue" d="M306.991,-177.035C327.037,-182.232 349.674,-188.101 370.421,-193.48"/>
<polygon fill="midnightblue" stroke="midnightblue" points="369.561,-196.872 380.119,-195.994 371.317,-190.096 369.561,-196.872"/>
</g>
<!-- Node10&#45;&gt;Node9 -->
<g id="edge11" class="edge"><title>Node10&#45;&gt;Node9</title>
<path fill="none" stroke="midnightblue" d="M308.541,-211C327.16,-211 347.887,-211 367.201,-211"/>
<polygon fill="midnightblue" stroke="midnightblue" points="367.458,-214.5 377.457,-211 367.457,-207.5 367.458,-214.5"/>
</g>
<!-- Node12 -->
<g id="node12" class="node"><title>Node12</title>
<g id="a_node12"><a xlink:href="namespaceRa_1_1Core_1_1Vector.html#a0464b705193d326a5102691dd58d753d" target="_top" xlink:title="Get two vectors orthogonal to a given vector. ">
<polygon fill="white" stroke="black" points="360,-74 360,-104 518,-104 518,-74 360,-74"/>
<text text-anchor="start" x="368" y="-92" font-family="Helvetica,sans-Serif" font-size="10.00">Ra::Core::Vector::getOrthogonal</text>
<text text-anchor="middle" x="439" y="-81" font-family="Helvetica,sans-Serif" font-size="10.00">Vectors</text>
</a>
</g>
</g>
<!-- Node11&#45;&gt;Node12 -->
<g id="edge13" class="edge"><title>Node11&#45;&gt;Node12</title>
<path fill="none" stroke="midnightblue" d="M317.233,-73.0256C327.838,-74.4283 338.923,-75.8945 349.892,-77.3455"/>
<polygon fill="midnightblue" stroke="midnightblue" points="349.543,-80.8298 359.916,-78.6714 350.461,-73.8902 349.543,-80.8298"/>
</g>
<!-- Node13 -->
<g id="node13" class="node"><title>Node13</title>
<g id="a_node13"><a xlink:href="namespaceRa_1_1Core_1_1QuaternionUtils.html#ae49b72169aa4a3cb300979b34c6e1289" target="_top" xlink:title="Returns the quaternion q multipled by a scalar factor of k. ">
<polygon fill="white" stroke="black" points="374,-25 374,-55 504,-55 504,-25 374,-25"/>
<text text-anchor="start" x="382" y="-43" font-family="Helvetica,sans-Serif" font-size="10.00">Ra::Core::QuaternionUtils</text>
<text text-anchor="middle" x="439" y="-32" font-family="Helvetica,sans-Serif" font-size="10.00">::scale</text>
</a>
</g>
</g>
<!-- Node11&#45;&gt;Node13 -->
<g id="edge14" class="edge"><title>Node11&#45;&gt;Node13</title>
<path fill="none" stroke="midnightblue" d="M317.233,-55.3354C332.412,-53.408 348.573,-51.3558 363.972,-49.4003"/>
<polygon fill="midnightblue" stroke="midnightblue" points="364.484,-52.8635 373.964,-48.1316 363.603,-45.9193 364.484,-52.8635"/>
</g>
<!-- Node15&#45;&gt;Node3 -->
<g id="edge17" class="edge"><title>Node15&#45;&gt;Node3</title>
<path fill="none" stroke="midnightblue" d="M315.634,-264.519C332.692,-266.956 351.08,-269.583 368.288,-272.041"/>
<polygon fill="midnightblue" stroke="midnightblue" points="367.87,-275.517 378.264,-273.466 368.86,-268.587 367.87,-275.517"/>
</g>
<!-- Node15&#45;&gt;Node9 -->
<g id="edge18" class="edge"><title>Node15&#45;&gt;Node9</title>
<path fill="none" stroke="midnightblue" d="M290.01,-245.453C312.633,-240.186 341.355,-233.499 367.463,-227.421"/>
<polygon fill="midnightblue" stroke="midnightblue" points="368.378,-230.802 377.324,-225.126 366.791,-223.984 368.378,-230.802"/>
</g>
</g>
</svg>
