<?xml version="1.0" encoding="UTF-8" standalone="no"?>
<!DOCTYPE svg PUBLIC "-//W3C//DTD SVG 1.1//EN"
 "http://www.w3.org/Graphics/SVG/1.1/DTD/svg11.dtd">
<!-- Generated by graphviz version 2.36.0 (20140111.2315)
 -->
<!-- Title: Ra::Engine::Mesh::updateGL Pages: 1 -->
<svg width="470pt" height="175pt"
 viewBox="0.00 0.00 470.00 175.00" xmlns="http://www.w3.org/2000/svg" xmlns:xlink="http://www.w3.org/1999/xlink">
<g id="graph0" class="graph" transform="scale(1 1) rotate(0) translate(4 171)">
<title>Ra::Engine::Mesh::updateGL</title>
<polygon fill="white" stroke="none" points="-4,4 -4,-171 466,-171 466,4 -4,4"/>
<!-- Node1 -->
<g id="node1" class="node"><title>Node1</title>
<polygon fill="#bfbfbf" stroke="black" points="0.5,-76.5 0.5,-95.5 143.5,-95.5 143.5,-76.5 0.5,-76.5"/>
<text text-anchor="middle" x="72" y="-83.5" font-family="Helvetica,sans-Serif" font-size="10.00">Ra::Engine::Mesh::updateGL</text>
</g>
<!-- Node2 -->
<g id="node2" class="node"><title>Node2</title>
<g id="a_node2"><a xlink:href="classRa_1_1Core_1_1TriangleMesh.html#a495116f40cfec8bb6504698d786d4b8c" target="_top" xlink:title="Ra::Core::TriangleMesh\l::vertices">
<polygon fill="white" stroke="black" points="180.5,-137 180.5,-167 301.5,-167 301.5,-137 180.5,-137"/>
<text text-anchor="start" x="188.5" y="-155" font-family="Helvetica,sans-Serif" font-size="10.00">Ra::Core::TriangleMesh</text>
<text text-anchor="middle" x="241" y="-144" font-family="Helvetica,sans-Serif" font-size="10.00">::vertices</text>
</a>
</g>
</g>
<!-- Node1&#45;&gt;Node2 -->
<g id="edge1" class="edge"><title>Node1&#45;&gt;Node2</title>
<path fill="none" stroke="midnightblue" d="M97.2832,-95.597C122.124,-105.414 161.37,-120.925 192.425,-133.198"/>
<polygon fill="midnightblue" stroke="midnightblue" points="191.188,-136.472 201.774,-136.893 193.761,-129.962 191.188,-136.472"/>
</g>
<!-- Node3 -->
<g id="node3" class="node"><title>Node3</title>
<g id="a_node3"><a xlink:href="classRa_1_1Core_1_1AttribManager.html#a2344159a1926da905e4c44cd95744d59" target="_top" xlink:title="Get attribute by handle. ">
<polygon fill="white" stroke="black" points="338.5,-93 338.5,-123 461.5,-123 461.5,-93 338.5,-93"/>
<text text-anchor="start" x="346.5" y="-111" font-family="Helvetica,sans-Serif" font-size="10.00">Ra::Core::AttribManager</text>
<text text-anchor="middle" x="400" y="-100" font-family="Helvetica,sans-Serif" font-size="10.00">::getAttrib</text>
</a>
</g>
</g>
<!-- Node1&#45;&gt;Node3 -->
<g id="edge6" class="edge"><title>Node1&#45;&gt;Node3</title>
<path fill="none" stroke="midnightblue" d="M143.737,-90.7737C198.274,-94.4541 273.358,-99.5211 327.968,-103.206"/>
<polygon fill="midnightblue" stroke="midnightblue" points="328.048,-106.72 338.261,-103.901 328.52,-99.7356 328.048,-106.72"/>
</g>
<!-- Node4 -->
<g id="node4" class="node"><title>Node4</title>
<g id="a_node4"><a xlink:href="classRa_1_1Core_1_1TriangleMesh.html#a40d31b7b2943947d6eac5d906f0182fd" target="_top" xlink:title="Ra::Core::TriangleMesh\l::normals">
<polygon fill="white" stroke="black" points="180.5,-49 180.5,-79 301.5,-79 301.5,-49 180.5,-49"/>
<text text-anchor="start" x="188.5" y="-67" font-family="Helvetica,sans-Serif" font-size="10.00">Ra::Core::TriangleMesh</text>
<text text-anchor="middle" x="241" y="-56" font-family="Helvetica,sans-Serif" font-size="10.00">::normals</text>
</a>
</g>
</g>
<!-- Node1&#45;&gt;Node4 -->
<g id="edge3" class="edge"><title>Node1&#45;&gt;Node4</title>
<path fill="none" stroke="midnightblue" d="M143.823,-76.67C152.577,-75.5168 161.521,-74.3386 170.258,-73.1876"/>
<polygon fill="midnightblue" stroke="midnightblue" points="170.939,-76.6282 180.396,-71.852 170.025,-69.6881 170.939,-76.6282"/>
</g>
<!-- Node5 -->
<g id="node5" class="node"><title>Node5</title>
<g id="a_node5"><a xlink:href="classRa_1_1Core_1_1TriangleMesh.html#a49ec63044477bd5bdff8d57a5114f011" target="_top" xlink:title="Ra::Core::TriangleMesh\l::attribManager">
<polygon fill="white" stroke="black" points="180.5,-0 180.5,-30 301.5,-30 301.5,-0 180.5,-0"/>
<text text-anchor="start" x="188.5" y="-18" font-family="Helvetica,sans-Serif" font-size="10.00">Ra::Core::TriangleMesh</text>
<text text-anchor="middle" x="241" y="-7" font-family="Helvetica,sans-Serif" font-size="10.00">::attribManager</text>
</a>
</g>
</g>
<!-- Node1&#45;&gt;Node5 -->
<g id="edge5" class="edge"><title>Node1&#45;&gt;Node5</title>
<path fill="none" stroke="midnightblue" d="M95.1012,-76.4127C116.716,-67.0567 150.579,-52.4531 180,-40 184.686,-38.0165 189.583,-35.956 194.471,-33.9073"/>
<polygon fill="midnightblue" stroke="midnightblue" points="195.927,-37.0923 203.802,-30.0053 193.226,-30.6342 195.927,-37.0923"/>
</g>
<!-- Node2&#45;&gt;Node3 -->
<g id="edge2" class="edge"><title>Node2&#45;&gt;Node3</title>
<path fill="none" stroke="midnightblue" d="M295.591,-136.981C308.404,-133.39 322.204,-129.522 335.419,-125.819"/>
<polygon fill="midnightblue" stroke="midnightblue" points="336.699,-129.095 345.384,-123.026 334.81,-122.355 336.699,-129.095"/>
</g>
<!-- Node4&#45;&gt;Node3 -->
<g id="edge4" class="edge"><title>Node4&#45;&gt;Node3</title>
<path fill="none" stroke="midnightblue" d="M295.591,-79.0192C308.404,-82.61 322.204,-86.4776 335.419,-90.181"/>
<polygon fill="midnightblue" stroke="midnightblue" points="334.81,-93.6453 345.384,-92.9738 336.699,-86.905 334.81,-93.6453"/>
</g>
</g>
</svg>
