<?xml version="1.0" encoding="UTF-8" standalone="no"?>
<!DOCTYPE svg PUBLIC "-//W3C//DTD SVG 1.1//EN"
 "http://www.w3.org/Graphics/SVG/1.1/DTD/svg11.dtd">
<!-- Generated by graphviz version 2.36.0 (20140111.2315)
 -->
<!-- Title: AnimationPlugin::AnimationPluginC::updateAnimTime Pages: 1 -->
<svg width="1032pt" height="358pt"
 viewBox="0.00 0.00 1032.00 357.84" xmlns="http://www.w3.org/2000/svg" xmlns:xlink="http://www.w3.org/1999/xlink">
<g id="graph0" class="graph" transform="scale(1 1) rotate(0) translate(4 353.844)">
<title>AnimationPlugin::AnimationPluginC::updateAnimTime</title>
<polygon fill="white" stroke="none" points="-4,4 -4,-353.844 1028,-353.844 1028,4 -4,4"/>
<!-- Node1 -->
<g id="node1" class="node"><title>Node1</title>
<polygon fill="#bfbfbf" stroke="black" points="0.5,-91 0.5,-121 137.5,-121 137.5,-91 0.5,-91"/>
<text text-anchor="start" x="8.5" y="-109" font-family="Helvetica,sans-Serif" font-size="10.00">AnimationPlugin::Animation</text>
<text text-anchor="middle" x="69" y="-98" font-family="Helvetica,sans-Serif" font-size="10.00">PluginC::updateAnimTime</text>
</g>
<!-- Node2 -->
<g id="node2" class="node"><title>Node2</title>
<g id="a_node2"><a xlink:href="classAnimationPlugin_1_1AnimationSystem.html#aab1ae3308916ce53c43eb6520640824f" target="_top" xlink:title="AnimationPlugin::Animation\lSystem::getTime">
<polygon fill="white" stroke="black" points="184.5,-119 184.5,-149 321.5,-149 321.5,-119 184.5,-119"/>
<text text-anchor="start" x="192.5" y="-137" font-family="Helvetica,sans-Serif" font-size="10.00">AnimationPlugin::Animation</text>
<text text-anchor="middle" x="253" y="-126" font-family="Helvetica,sans-Serif" font-size="10.00">System::getTime</text>
</a>
</g>
</g>
<!-- Node1&#45;&gt;Node2 -->
<g id="edge1" class="edge"><title>Node1&#45;&gt;Node2</title>
<path fill="none" stroke="midnightblue" d="M137.511,-116.386C149.445,-118.222 161.958,-120.147 174.149,-122.023"/>
<polygon fill="midnightblue" stroke="midnightblue" points="173.878,-125.522 184.294,-123.584 174.943,-118.604 173.878,-125.522"/>
</g>
<!-- Node14 -->
<g id="node14" class="node"><title>Node14</title>
<g id="a_node14"><a xlink:href="classRa_1_1GuiBase_1_1SelectionManager.html#a29cbd250208f1e18d2ab1e0f4d91105d" target="_top" xlink:title="Ra::GuiBase::SelectionManager\l::currentItem">
<polygon fill="white" stroke="black" points="174.5,-64 174.5,-94 331.5,-94 331.5,-64 174.5,-64"/>
<text text-anchor="start" x="182.5" y="-82" font-family="Helvetica,sans-Serif" font-size="10.00">Ra::GuiBase::SelectionManager</text>
<text text-anchor="middle" x="253" y="-71" font-family="Helvetica,sans-Serif" font-size="10.00">::currentItem</text>
</a>
</g>
</g>
<!-- Node1&#45;&gt;Node14 -->
<g id="edge15" class="edge"><title>Node1&#45;&gt;Node14</title>
<path fill="none" stroke="midnightblue" d="M137.511,-95.9846C146.258,-94.687 155.315,-93.3433 164.329,-92.0061"/>
<polygon fill="midnightblue" stroke="midnightblue" points="165.091,-95.4315 174.469,-90.5019 164.063,-88.5073 165.091,-95.4315"/>
</g>
<!-- Node3 -->
<g id="node3" class="node"><title>Node3</title>
<g id="a_node3"><a xlink:href="structRa_1_1Engine_1_1ItemEntry.html#aceafc81a73631955b64999dd39a639da" target="_top" xlink:title="Returns true if the item represents any valid object. ">
<polygon fill="white" stroke="black" points="390,-192 390,-222 504,-222 504,-192 390,-192"/>
<text text-anchor="start" x="398" y="-210" font-family="Helvetica,sans-Serif" font-size="10.00">Ra::Engine::ItemEntry</text>
<text text-anchor="middle" x="447" y="-199" font-family="Helvetica,sans-Serif" font-size="10.00">::isValid</text>
</a>
</g>
</g>
<!-- Node2&#45;&gt;Node3 -->
<g id="edge2" class="edge"><title>Node2&#45;&gt;Node3</title>
<path fill="none" stroke="midnightblue" d="M293.783,-149.126C323.645,-160.48 364.714,-176.094 396.667,-188.243"/>
<polygon fill="midnightblue" stroke="midnightblue" points="395.677,-191.611 406.268,-191.894 398.165,-185.068 395.677,-191.611"/>
</g>
<!-- Node13 -->
<g id="node13" class="node"><title>Node13</title>
<g id="a_node13"><a xlink:href="classAnimationPlugin_1_1AnimationComponent.html#a7bb9a09b3c704302420b1ec5e24ea59e" target="_top" xlink:title="AnimationPlugin::Animation\lComponent::getTime">
<polygon fill="white" stroke="black" points="378.5,-119 378.5,-149 515.5,-149 515.5,-119 378.5,-119"/>
<text text-anchor="start" x="386.5" y="-137" font-family="Helvetica,sans-Serif" font-size="10.00">AnimationPlugin::Animation</text>
<text text-anchor="middle" x="447" y="-126" font-family="Helvetica,sans-Serif" font-size="10.00">Component::getTime</text>
</a>
</g>
</g>
<!-- Node2&#45;&gt;Node13 -->
<g id="edge14" class="edge"><title>Node2&#45;&gt;Node13</title>
<path fill="none" stroke="midnightblue" d="M321.692,-134C336.748,-134 352.824,-134 368.248,-134"/>
<polygon fill="midnightblue" stroke="midnightblue" points="368.272,-137.5 378.272,-134 368.272,-130.5 368.272,-137.5"/>
</g>
<!-- Node4 -->
<g id="node4" class="node"><title>Node4</title>
<g id="a_node4"><a xlink:href="structRa_1_1Engine_1_1ItemEntry.html#a1fb9fdd74413a1fa5878f53c1cfcf8fd" target="_top" xlink:title="Debug checks. ">
<polygon fill="white" stroke="black" points="740,-242 740,-272 854,-272 854,-242 740,-242"/>
<text text-anchor="start" x="748" y="-260" font-family="Helvetica,sans-Serif" font-size="10.00">Ra::Engine::ItemEntry</text>
<text text-anchor="middle" x="797" y="-249" font-family="Helvetica,sans-Serif" font-size="10.00">::checkConsistency</text>
</a>
</g>
</g>
<!-- Node3&#45;&gt;Node4 -->
<g id="edge3" class="edge"><title>Node3&#45;&gt;Node4</title>
<path fill="none" stroke="midnightblue" d="M456.106,-222.38C471.99,-250.637 510.23,-310.025 562,-333 617.248,-357.519 640.813,-352.576 698,-333 728.657,-322.506 757.138,-298.084 775.407,-279.737"/>
<polygon fill="midnightblue" stroke="midnightblue" points="778.156,-281.928 782.587,-272.304 773.122,-277.064 778.156,-281.928"/>
</g>
<!-- Node6 -->
<g id="node6" class="node"><title>Node6</title>
<g id="a_node6"><a xlink:href="classRa_1_1Engine_1_1RadiumEngine.html#a79f6626ce468268791bc5bdfe17b5586" target="_top" xlink:title="Ra::Engine::RadiumEngine\l::getEntityManager">
<polygon fill="white" stroke="black" points="562.5,-294 562.5,-324 697.5,-324 697.5,-294 562.5,-294"/>
<text text-anchor="start" x="570.5" y="-312" font-family="Helvetica,sans-Serif" font-size="10.00">Ra::Engine::RadiumEngine</text>
<text text-anchor="middle" x="630" y="-301" font-family="Helvetica,sans-Serif" font-size="10.00">::getEntityManager</text>
</a>
</g>
</g>
<!-- Node3&#45;&gt;Node6 -->
<g id="edge5" class="edge"><title>Node3&#45;&gt;Node6</title>
<path fill="none" stroke="midnightblue" d="M467.294,-222.128C489.284,-238.86 526.754,-265.847 562,-284 566.02,-286.07 570.252,-288.058 574.555,-289.944"/>
<polygon fill="midnightblue" stroke="midnightblue" points="573.456,-293.278 584.033,-293.903 576.155,-286.819 573.456,-293.278"/>
</g>
<!-- Node7 -->
<g id="node7" class="node"><title>Node7</title>
<g id="a_node7"><a xlink:href="classRa_1_1Engine_1_1EntityManager.html#a5115cccae6aaef614ad4bd08e64d8185" target="_top" xlink:title="Check wether an entity with a given name exists or not. ">
<polygon fill="white" stroke="black" points="563,-245 563,-275 697,-275 697,-245 563,-245"/>
<text text-anchor="start" x="571" y="-263" font-family="Helvetica,sans-Serif" font-size="10.00">Ra::Engine::EntityManager</text>
<text text-anchor="middle" x="630" y="-252" font-family="Helvetica,sans-Serif" font-size="10.00">::entityExists</text>
</a>
</g>
</g>
<!-- Node3&#45;&gt;Node7 -->
<g id="edge6" class="edge"><title>Node3&#45;&gt;Node7</title>
<path fill="none" stroke="midnightblue" d="M499.383,-222.046C520.687,-228.284 545.572,-235.571 567.81,-242.082"/>
<polygon fill="midnightblue" stroke="midnightblue" points="566.908,-245.465 577.488,-244.916 568.875,-238.747 566.908,-245.465"/>
</g>
<!-- Node8 -->
<g id="node8" class="node"><title>Node8</title>
<g id="a_node8"><a xlink:href="classRa_1_1Engine_1_1Entity.html#aaf256bea44bbc5bff6aa504aca05ca35" target="_top" xlink:title="Ra::Engine::Entity\l::getName">
<polygon fill="white" stroke="black" points="581.5,-196 581.5,-226 678.5,-226 678.5,-196 581.5,-196"/>
<text text-anchor="start" x="589.5" y="-214" font-family="Helvetica,sans-Serif" font-size="10.00">Ra::Engine::Entity</text>
<text text-anchor="middle" x="630" y="-203" font-family="Helvetica,sans-Serif" font-size="10.00">::getName</text>
</a>
</g>
</g>
<!-- Node3&#45;&gt;Node8 -->
<g id="edge7" class="edge"><title>Node3&#45;&gt;Node8</title>
<path fill="none" stroke="midnightblue" d="M504.277,-208.244C525.503,-208.713 549.673,-209.247 571.049,-209.719"/>
<polygon fill="midnightblue" stroke="midnightblue" points="571.218,-213.224 581.293,-209.946 571.373,-206.226 571.218,-213.224"/>
</g>
<!-- Node9 -->
<g id="node9" class="node"><title>Node9</title>
<g id="a_node9"><a xlink:href="structRa_1_1Engine_1_1ItemEntry.html#a898047549069e5b64d3a9a65c058af56" target="_top" xlink:title="Returns true if the item represents a render object. ">
<polygon fill="white" stroke="black" points="573,-147 573,-177 687,-177 687,-147 573,-147"/>
<text text-anchor="start" x="581" y="-165" font-family="Helvetica,sans-Serif" font-size="10.00">Ra::Engine::ItemEntry</text>
<text text-anchor="middle" x="630" y="-154" font-family="Helvetica,sans-Serif" font-size="10.00">::isRoNode</text>
</a>
</g>
</g>
<!-- Node3&#45;&gt;Node9 -->
<g id="edge8" class="edge"><title>Node3&#45;&gt;Node9</title>
<path fill="none" stroke="midnightblue" d="M504.277,-193.008C522.835,-188.395 543.645,-183.221 562.869,-178.441"/>
<polygon fill="midnightblue" stroke="midnightblue" points="563.897,-181.792 572.757,-175.983 562.208,-174.999 563.897,-181.792"/>
</g>
<!-- Node11 -->
<g id="node11" class="node"><title>Node11</title>
<g id="a_node11"><a xlink:href="classRa_1_1Engine_1_1RadiumEngine.html#a58b27bc600ea769f68b0e2938abc7862" target="_top" xlink:title="Manager getters. ">
<polygon fill="white" stroke="black" points="562.5,-98 562.5,-128 697.5,-128 697.5,-98 562.5,-98"/>
<text text-anchor="start" x="570.5" y="-116" font-family="Helvetica,sans-Serif" font-size="10.00">Ra::Engine::RadiumEngine</text>
<text text-anchor="middle" x="630" y="-105" font-family="Helvetica,sans-Serif" font-size="10.00">::getRenderObjectManager</text>
</a>
</g>
</g>
<!-- Node3&#45;&gt;Node11 -->
<g id="edge11" class="edge"><title>Node3&#45;&gt;Node11</title>
<path fill="none" stroke="midnightblue" d="M472.003,-191.896C502.645,-172.67 552.813,-141.408 562,-137 565.76,-135.196 569.693,-133.451 573.688,-131.78"/>
<polygon fill="midnightblue" stroke="midnightblue" points="575.087,-134.99 583.07,-128.024 572.486,-128.491 575.087,-134.99"/>
</g>
<!-- Node12 -->
<g id="node12" class="node"><title>Node12</title>
<g id="a_node12"><a xlink:href="classRa_1_1Engine_1_1RenderObjectManager.html#a4077b9cf9e1e4d62fd5456386f2d72c8" target="_top" xlink:title="Returns true if the index points to a valid render object. ">
<polygon fill="white" stroke="black" points="564.5,-49 564.5,-79 695.5,-79 695.5,-49 564.5,-49"/>
<text text-anchor="start" x="572.5" y="-67" font-family="Helvetica,sans-Serif" font-size="10.00">Ra::Engine::RenderObject</text>
<text text-anchor="middle" x="630" y="-56" font-family="Helvetica,sans-Serif" font-size="10.00">Manager::exists</text>
</a>
</g>
</g>
<!-- Node3&#45;&gt;Node12 -->
<g id="edge12" class="edge"><title>Node3&#45;&gt;Node12</title>
<path fill="none" stroke="midnightblue" d="M480.052,-191.968C495.375,-183.596 513.134,-172.022 526,-158 549.653,-132.223 535.696,-111.065 562,-88 563.341,-86.8239 564.744,-85.7042 566.198,-84.6381"/>
<polygon fill="midnightblue" stroke="midnightblue" points="568.398,-87.3892 574.998,-79.1016 564.67,-81.4643 568.398,-87.3892"/>
</g>
<!-- Node5 -->
<g id="node5" class="node"><title>Node5</title>
<g id="a_node5"><a xlink:href="classRa_1_1Core_1_1Index.html#a7283e7fb9cc134e04ef3cde8877f8fe2" target="_top" xlink:title="INVALID. ">
<polygon fill="white" stroke="black" points="896,-247.5 896,-266.5 1024,-266.5 1024,-247.5 896,-247.5"/>
<text text-anchor="middle" x="960" y="-254.5" font-family="Helvetica,sans-Serif" font-size="10.00">Ra::Core::Index::isInvalid</text>
</a>
</g>
</g>
<!-- Node4&#45;&gt;Node5 -->
<g id="edge4" class="edge"><title>Node4&#45;&gt;Node5</title>
<path fill="none" stroke="midnightblue" d="M854.31,-257C864.48,-257 875.218,-257 885.788,-257"/>
<polygon fill="midnightblue" stroke="midnightblue" points="885.845,-260.5 895.845,-257 885.845,-253.5 885.845,-260.5"/>
</g>
<!-- Node9&#45;&gt;Node4 -->
<g id="edge9" class="edge"><title>Node9&#45;&gt;Node4</title>
<path fill="none" stroke="midnightblue" d="M676.405,-177.085C683.769,-180.057 691.204,-183.386 698,-187 723.891,-200.766 750.826,-220.458 769.891,-235.451"/>
<polygon fill="midnightblue" stroke="midnightblue" points="767.808,-238.267 777.809,-241.764 772.172,-232.793 767.808,-238.267"/>
</g>
<!-- Node10 -->
<g id="node10" class="node"><title>Node10</title>
<g id="a_node10"><a xlink:href="classRa_1_1Core_1_1Index.html#a87c70243f30c65c1a24834d1829bda01" target="_top" xlink:title="VALID. ">
<polygon fill="white" stroke="black" points="736,-103.5 736,-122.5 858,-122.5 858,-103.5 736,-103.5"/>
<text text-anchor="middle" x="797" y="-110.5" font-family="Helvetica,sans-Serif" font-size="10.00">Ra::Core::Index::isValid</text>
</a>
</g>
</g>
<!-- Node9&#45;&gt;Node10 -->
<g id="edge10" class="edge"><title>Node9&#45;&gt;Node10</title>
<path fill="none" stroke="midnightblue" d="M681.852,-146.899C705.008,-140.022 732.084,-131.981 754.054,-125.457"/>
<polygon fill="midnightblue" stroke="midnightblue" points="755.166,-128.777 763.756,-122.575 753.174,-122.067 755.166,-128.777"/>
</g>
<!-- Node12&#45;&gt;Node10 -->
<g id="edge13" class="edge"><title>Node12&#45;&gt;Node10</title>
<path fill="none" stroke="midnightblue" d="M681.852,-79.1014C705.008,-85.9781 732.084,-94.019 754.054,-100.543"/>
<polygon fill="midnightblue" stroke="midnightblue" points="753.174,-103.933 763.756,-103.425 755.166,-97.2225 753.174,-103.933"/>
</g>
<!-- Node15 -->
<g id="node15" class="node"><title>Node15</title>
<g id="a_node15"><a xlink:href="classRa_1_1GuiBase_1_1SelectionManager.html#aec178a6b3de1c04e5e1d16ff72c6e966" target="_top" xlink:title="Ra::GuiBase::SelectionManager\l::itemModel">
<polygon fill="white" stroke="black" points="368.5,-64 368.5,-94 525.5,-94 525.5,-64 368.5,-64"/>
<text text-anchor="start" x="376.5" y="-82" font-family="Helvetica,sans-Serif" font-size="10.00">Ra::GuiBase::SelectionManager</text>
<text text-anchor="middle" x="447" y="-71" font-family="Helvetica,sans-Serif" font-size="10.00">::itemModel</text>
</a>
</g>
</g>
<!-- Node14&#45;&gt;Node15 -->
<g id="edge16" class="edge"><title>Node14&#45;&gt;Node15</title>
<path fill="none" stroke="midnightblue" d="M331.54,-79C340.388,-79 349.452,-79 358.418,-79"/>
<polygon fill="midnightblue" stroke="midnightblue" points="358.482,-82.5001 368.482,-79 358.482,-75.5001 358.482,-82.5001"/>
</g>
<!-- Node16 -->
<g id="node16" class="node"><title>Node16</title>
<g id="a_node16"><a xlink:href="classRa_1_1GuiBase_1_1ItemModel.html#a3236433d461ad6cac5e9390b2685fa3f" target="_top" xlink:title="Ra::GuiBase::ItemModel\l::getEntry">
<polygon fill="white" stroke="black" points="384.5,-3 384.5,-33 509.5,-33 509.5,-3 384.5,-3"/>
<text text-anchor="start" x="392.5" y="-21" font-family="Helvetica,sans-Serif" font-size="10.00">Ra::GuiBase::ItemModel</text>
<text text-anchor="middle" x="447" y="-10" font-family="Helvetica,sans-Serif" font-size="10.00">::getEntry</text>
</a>
</g>
</g>
<!-- Node14&#45;&gt;Node16 -->
<g id="edge17" class="edge"><title>Node14&#45;&gt;Node16</title>
<path fill="none" stroke="midnightblue" d="M301.461,-63.9213C327.983,-55.4948 361.214,-44.9372 389.123,-36.0703"/>
<polygon fill="midnightblue" stroke="midnightblue" points="390.282,-39.3745 398.753,-33.0108 388.163,-32.7031 390.282,-39.3745"/>
</g>
<!-- Node17 -->
<g id="node17" class="node"><title>Node17</title>
<g id="a_node17"><a xlink:href="classRa_1_1GuiBase_1_1TreeModel.html#a5aa24ace72c1c3d29e268cb34dc576f2" target="_top" xlink:title="Get the tree item corresponding to the given index. ">
<polygon fill="white" stroke="black" points="567.5,-0 567.5,-30 692.5,-30 692.5,-0 567.5,-0"/>
<text text-anchor="start" x="575.5" y="-18" font-family="Helvetica,sans-Serif" font-size="10.00">Ra::GuiBase::TreeModel</text>
<text text-anchor="middle" x="630" y="-7" font-family="Helvetica,sans-Serif" font-size="10.00">::getItem</text>
</a>
</g>
</g>
<!-- Node16&#45;&gt;Node17 -->
<g id="edge18" class="edge"><title>Node16&#45;&gt;Node17</title>
<path fill="none" stroke="midnightblue" d="M509.531,-16.9802C524.832,-16.7265 541.367,-16.4525 557.117,-16.1914"/>
<polygon fill="midnightblue" stroke="midnightblue" points="557.391,-19.6875 567.332,-16.0221 557.275,-12.6884 557.391,-19.6875"/>
</g>
<!-- Node18 -->
<g id="node18" class="node"><title>Node18</title>
<g id="a_node18"><a xlink:href="classRa_1_1GuiBase_1_1TreeModel.html#a972106921da4c960f23f81722d3b4cf5" target="_top" xlink:title="Internal functions to check if an item is in the tree. ">
<polygon fill="white" stroke="black" points="734.5,-0 734.5,-30 859.5,-30 859.5,-0 734.5,-0"/>
<text text-anchor="start" x="742.5" y="-18" font-family="Helvetica,sans-Serif" font-size="10.00">Ra::GuiBase::TreeModel</text>
<text text-anchor="middle" x="797" y="-7" font-family="Helvetica,sans-Serif" font-size="10.00">::findInTree</text>
</a>
</g>
</g>
<!-- Node17&#45;&gt;Node18 -->
<g id="edge19" class="edge"><title>Node17&#45;&gt;Node18</title>
<path fill="none" stroke="midnightblue" d="M692.909,-15C703.06,-15 713.654,-15 724.023,-15"/>
<polygon fill="midnightblue" stroke="midnightblue" points="724.292,-18.5001 734.292,-15 724.292,-11.5001 724.292,-18.5001"/>
</g>
</g>
</svg>
