<?xml version="1.0" encoding="UTF-8" standalone="no"?>
<!DOCTYPE svg PUBLIC "-//W3C//DTD SVG 1.1//EN"
 "http://www.w3.org/Graphics/SVG/1.1/DTD/svg11.dtd">
<!-- Generated by graphviz version 2.36.0 (20140111.2315)
 -->
<!-- Title: SkinningPlugin::SkinningComponent::setupSkinning Pages: 1 -->
<svg width="1118pt" height="473pt"
 viewBox="0.00 0.00 1118.00 473.13" xmlns="http://www.w3.org/2000/svg" xmlns:xlink="http://www.w3.org/1999/xlink">
<g id="graph0" class="graph" transform="scale(1 1) rotate(0) translate(4 469.13)">
<title>SkinningPlugin::SkinningComponent::setupSkinning</title>
<polygon fill="white" stroke="none" points="-4,4 -4,-469.13 1114,-469.13 1114,4 -4,4"/>
<!-- Node1 -->
<g id="node1" class="node"><title>Node1</title>
<polygon fill="#bfbfbf" stroke="black" points="0,-82 0,-112 134,-112 134,-82 0,-82"/>
<text text-anchor="start" x="8" y="-100" font-family="Helvetica,sans-Serif" font-size="10.00">SkinningPlugin::Skinning</text>
<text text-anchor="middle" x="67" y="-89" font-family="Helvetica,sans-Serif" font-size="10.00">Component::setupSkinning</text>
</g>
<!-- Node2 -->
<g id="node2" class="node"><title>Node2</title>
<g id="a_node2"><a xlink:href="classRa_1_1Engine_1_1Component.html#a207c1dc2e97856c22e0767fb77162933" target="_top" xlink:title="Return the entity the component belongs to. ">
<polygon fill="white" stroke="black" points="187,-175 187,-205 309,-205 309,-175 187,-175"/>
<text text-anchor="start" x="195" y="-193" font-family="Helvetica,sans-Serif" font-size="10.00">Ra::Engine::Component</text>
<text text-anchor="middle" x="248" y="-182" font-family="Helvetica,sans-Serif" font-size="10.00">::getEntity</text>
</a>
</g>
</g>
<!-- Node1&#45;&gt;Node2 -->
<g id="edge1" class="edge"><title>Node1&#45;&gt;Node2</title>
<path fill="none" stroke="midnightblue" d="M87.3438,-112.254C107.17,-127.306 139.352,-150.159 170,-165 174.625,-167.24 179.5,-169.35 184.458,-171.321"/>
<polygon fill="midnightblue" stroke="midnightblue" points="183.462,-174.686 194.054,-174.94 185.932,-168.136 183.462,-174.686"/>
</g>
<!-- Node3 -->
<g id="node3" class="node"><title>Node3</title>
<g id="a_node3"><a xlink:href="classRa_1_1Core_1_1TriangleMesh.html#a495116f40cfec8bb6504698d786d4b8c" target="_top" xlink:title="Ra::Core::TriangleMesh\l::vertices">
<polygon fill="white" stroke="black" points="828.5,-257 828.5,-287 949.5,-287 949.5,-257 828.5,-257"/>
<text text-anchor="start" x="836.5" y="-275" font-family="Helvetica,sans-Serif" font-size="10.00">Ra::Core::TriangleMesh</text>
<text text-anchor="middle" x="889" y="-264" font-family="Helvetica,sans-Serif" font-size="10.00">::vertices</text>
</a>
</g>
</g>
<!-- Node1&#45;&gt;Node3 -->
<g id="edge2" class="edge"><title>Node1&#45;&gt;Node3</title>
<path fill="none" stroke="midnightblue" d="M134.168,-96.6854C290.961,-96.9943 680.327,-104.249 792,-167 827.096,-186.721 856.415,-223.891 873.088,-248.298"/>
<polygon fill="midnightblue" stroke="midnightblue" points="870.195,-250.267 878.646,-256.657 876.024,-246.392 870.195,-250.267"/>
</g>
<!-- Node5 -->
<g id="node5" class="node"><title>Node5</title>
<g id="a_node5"><a xlink:href="classRa_1_1Core_1_1TriangleMesh.html#a40d31b7b2943947d6eac5d906f0182fd" target="_top" xlink:title="Ra::Core::TriangleMesh\l::normals">
<polygon fill="white" stroke="black" points="670.5,-41 670.5,-71 791.5,-71 791.5,-41 670.5,-41"/>
<text text-anchor="start" x="678.5" y="-59" font-family="Helvetica,sans-Serif" font-size="10.00">Ra::Core::TriangleMesh</text>
<text text-anchor="middle" x="731" y="-48" font-family="Helvetica,sans-Serif" font-size="10.00">::normals</text>
</a>
</g>
</g>
<!-- Node1&#45;&gt;Node5 -->
<g id="edge4" class="edge"><title>Node1&#45;&gt;Node5</title>
<path fill="none" stroke="midnightblue" d="M134.018,-87.0729C145.972,-85.5223 158.342,-84.079 170,-83 345.87,-66.7227 553.778,-59.9553 659.944,-57.3943"/>
<polygon fill="midnightblue" stroke="midnightblue" points="660.291,-60.8871 670.206,-57.1522 660.126,-53.8891 660.291,-60.8871"/>
</g>
<!-- Node6 -->
<g id="node6" class="node"><title>Node6</title>
<g id="a_node6"><a xlink:href="classRa_1_1Core_1_1Animation_1_1Skeleton.html#a5679e1beb544b515c4539ce48a2f2ba3" target="_top" xlink:title="Ra::Core::Animation\l::Skeleton::size">
<polygon fill="white" stroke="black" points="195,-0 195,-30 301,-30 301,-0 195,-0"/>
<text text-anchor="start" x="203" y="-18" font-family="Helvetica,sans-Serif" font-size="10.00">Ra::Core::Animation</text>
<text text-anchor="middle" x="248" y="-7" font-family="Helvetica,sans-Serif" font-size="10.00">::Skeleton::size</text>
</a>
</g>
</g>
<!-- Node1&#45;&gt;Node6 -->
<g id="edge6" class="edge"><title>Node1&#45;&gt;Node6</title>
<path fill="none" stroke="midnightblue" d="M95.7752,-81.8888C116.081,-71.0763 144.427,-56.4661 170,-45 178.46,-41.2068 187.556,-37.4169 196.427,-33.8704"/>
<polygon fill="midnightblue" stroke="midnightblue" points="197.903,-37.0507 205.925,-30.1289 195.338,-30.5378 197.903,-37.0507"/>
</g>
<!-- Node7 -->
<g id="node7" class="node"><title>Node7</title>
<g id="a_node7"><a xlink:href="classSkinningPlugin_1_1SkinningComponent.html#a0ba759710b12a03a59faca912566d328" target="_top" xlink:title="SkinningPlugin::Skinning\lComponent::setupSkinningType">
<polygon fill="white" stroke="black" points="170,-126 170,-156 326,-156 326,-126 170,-126"/>
<text text-anchor="start" x="178" y="-144" font-family="Helvetica,sans-Serif" font-size="10.00">SkinningPlugin::Skinning</text>
<text text-anchor="middle" x="248" y="-133" font-family="Helvetica,sans-Serif" font-size="10.00">Component::setupSkinningType</text>
</a>
</g>
</g>
<!-- Node1&#45;&gt;Node7 -->
<g id="edge7" class="edge"><title>Node1&#45;&gt;Node7</title>
<path fill="none" stroke="midnightblue" d="M129.101,-112.019C144.139,-115.716 160.369,-119.705 175.837,-123.507"/>
<polygon fill="midnightblue" stroke="midnightblue" points="175.324,-126.986 185.871,-125.974 176.995,-120.188 175.324,-126.986"/>
</g>
<!-- Node4 -->
<g id="node4" class="node"><title>Node4</title>
<g id="a_node4"><a xlink:href="classRa_1_1Core_1_1AttribManager.html#a2344159a1926da905e4c44cd95744d59" target="_top" xlink:title="Get attribute by handle. ">
<polygon fill="white" stroke="black" points="986.5,-203 986.5,-233 1109.5,-233 1109.5,-203 986.5,-203"/>
<text text-anchor="start" x="994.5" y="-221" font-family="Helvetica,sans-Serif" font-size="10.00">Ra::Core::AttribManager</text>
<text text-anchor="middle" x="1048" y="-210" font-family="Helvetica,sans-Serif" font-size="10.00">::getAttrib</text>
</a>
</g>
</g>
<!-- Node3&#45;&gt;Node4 -->
<g id="edge3" class="edge"><title>Node3&#45;&gt;Node4</title>
<path fill="none" stroke="midnightblue" d="M933.733,-256.958C952.284,-250.577 974.081,-243.08 993.574,-236.376"/>
<polygon fill="midnightblue" stroke="midnightblue" points="994.911,-239.617 1003.23,-233.055 992.635,-232.998 994.911,-239.617"/>
</g>
<!-- Node5&#45;&gt;Node4 -->
<g id="edge5" class="edge"><title>Node5&#45;&gt;Node4</title>
<path fill="none" stroke="midnightblue" d="M762.257,-71.0255C771.789,-75.7863 782.347,-81.0885 792,-86 869.219,-125.289 959.121,-172.071 1008.89,-198.063"/>
<polygon fill="midnightblue" stroke="midnightblue" points="1007.52,-201.294 1018,-202.822 1010.76,-195.09 1007.52,-201.294"/>
</g>
<!-- Node8 -->
<g id="node8" class="node"><title>Node8</title>
<g id="a_node8"><a xlink:href="namespaceRa_1_1Core_1_1Animation.html#a40700cdabdd47fdb360f6bbfe692b36d" target="_top" xlink:title="Compute the optimal center of rotations (1 per vertex) based on weight similarity. ">
<polygon fill="white" stroke="black" points="362,-257 362,-287 468,-287 468,-257 362,-257"/>
<text text-anchor="start" x="370" y="-275" font-family="Helvetica,sans-Serif" font-size="10.00">Ra::Core::Animation</text>
<text text-anchor="middle" x="415" y="-264" font-family="Helvetica,sans-Serif" font-size="10.00">::computeCoR</text>
</a>
</g>
</g>
<!-- Node7&#45;&gt;Node8 -->
<g id="edge8" class="edge"><title>Node7&#45;&gt;Node8</title>
<path fill="none" stroke="midnightblue" d="M307.437,-156.021C313.961,-158.833 320.3,-162.135 326,-166 357.946,-187.665 384.586,-224.14 399.915,-248.142"/>
<polygon fill="midnightblue" stroke="midnightblue" points="396.968,-250.032 405.223,-256.674 402.912,-246.334 396.968,-250.032"/>
</g>
<!-- Node8&#45;&gt;Node3 -->
<g id="edge15" class="edge"><title>Node8&#45;&gt;Node3</title>
<path fill="none" stroke="midnightblue" d="M468.286,-285.198C479.964,-287.61 492.344,-289.756 504,-291 631.296,-304.586 664.479,-297.28 792,-286 800.594,-285.24 809.592,-284.223 818.489,-283.084"/>
<polygon fill="midnightblue" stroke="midnightblue" points="819.015,-286.545 828.463,-281.752 818.088,-279.606 819.015,-286.545"/>
</g>
<!-- Node9 -->
<g id="node9" class="node"><title>Node9</title>
<g id="a_node9"><a xlink:href="namespaceRa_1_1Core.html#a1992d0f90662705985222f69287915d0" target="_top" xlink:title="Ra::Core::convert">
<polygon fill="white" stroke="black" points="521.5,-262.5 521.5,-281.5 616.5,-281.5 616.5,-262.5 521.5,-262.5"/>
<text text-anchor="middle" x="569" y="-269.5" font-family="Helvetica,sans-Serif" font-size="10.00">Ra::Core::convert</text>
</a>
</g>
</g>
<!-- Node8&#45;&gt;Node9 -->
<g id="edge9" class="edge"><title>Node8&#45;&gt;Node9</title>
<path fill="none" stroke="midnightblue" d="M468.31,-272C482.199,-272 497.262,-272 511.37,-272"/>
<polygon fill="midnightblue" stroke="midnightblue" points="511.445,-275.5 521.445,-272 511.445,-268.5 511.445,-275.5"/>
</g>
<!-- Node10 -->
<g id="node10" class="node"><title>Node10</title>
<g id="a_node10"><a xlink:href="namespaceRa_1_1Core_1_1Algorithm.html#aea294cdb6f4f0d85955bdcccb22886ec" target="_top" xlink:title="Ra::Core::Algorithm::t">
<polygon fill="white" stroke="black" points="674.5,-176.5 674.5,-195.5 787.5,-195.5 787.5,-176.5 674.5,-176.5"/>
<text text-anchor="middle" x="731" y="-183.5" font-family="Helvetica,sans-Serif" font-size="10.00">Ra::Core::Algorithm::t</text>
</a>
</g>
</g>
<!-- Node8&#45;&gt;Node10 -->
<g id="edge16" class="edge"><title>Node8&#45;&gt;Node10</title>
<path fill="none" stroke="midnightblue" d="M421.916,-256.98C433.247,-230.569 460.792,-176.567 504,-155 569.063,-122.524 657.056,-152.582 701.616,-172.176"/>
<polygon fill="midnightblue" stroke="midnightblue" points="700.4,-175.468 710.952,-176.411 703.291,-169.093 700.4,-175.468"/>
</g>
<!-- Node11 -->
<g id="node11" class="node"><title>Node11</title>
<g id="a_node11"><a xlink:href="namespaceOpenMesh.html#a8205f789ce08919bc11c58383574596c" target="_top" xlink:title="OpenMesh::norm">
<polygon fill="white" stroke="black" points="843,-434.5 843,-453.5 935,-453.5 935,-434.5 843,-434.5"/>
<text text-anchor="middle" x="889" y="-441.5" font-family="Helvetica,sans-Serif" font-size="10.00">OpenMesh::norm</text>
</a>
</g>
</g>
<!-- Node8&#45;&gt;Node11 -->
<g id="edge13" class="edge"><title>Node8&#45;&gt;Node11</title>
<path fill="none" stroke="midnightblue" d="M420.156,-287.096C429.433,-317.577 454.969,-386.106 504,-416 606.276,-478.357 753.531,-467.133 832.675,-454.787"/>
<polygon fill="midnightblue" stroke="midnightblue" points="833.604,-458.182 842.913,-453.124 832.482,-451.273 833.604,-458.182"/>
</g>
<!-- Node12 -->
<g id="node12" class="node"><title>Node12</title>
<g id="a_node12"><a xlink:href="namespaceRa_1_1Core_1_1DcelOperations.html#aaded34dd44fea8859e294864900a11ed" target="_top" xlink:title="Ra::Core::DcelOperations\l::splitEdge">
<polygon fill="white" stroke="black" points="504,-213 504,-243 634,-243 634,-213 504,-213"/>
<text text-anchor="start" x="512" y="-231" font-family="Helvetica,sans-Serif" font-size="10.00">Ra::Core::DcelOperations</text>
<text text-anchor="middle" x="569" y="-220" font-family="Helvetica,sans-Serif" font-size="10.00">::splitEdge</text>
</a>
</g>
</g>
<!-- Node8&#45;&gt;Node12 -->
<g id="edge14" class="edge"><title>Node8&#45;&gt;Node12</title>
<path fill="none" stroke="midnightblue" d="M467.885,-256.981C480.289,-253.39 493.65,-249.522 506.444,-245.819"/>
<polygon fill="midnightblue" stroke="midnightblue" points="507.459,-249.169 516.091,-243.026 505.512,-242.445 507.459,-249.169"/>
</g>
<!-- Node13 -->
<g id="node13" class="node"><title>Node13</title>
<g id="a_node13"><a xlink:href="namespaceRa_1_1Core_1_1MeshUtils.html#afbee0fe3203a295fb1f93b33dfb33f81" target="_top" xlink:title="Fills the given array with the vertices of a given triangle. ">
<polygon fill="white" stroke="black" points="677.5,-339 677.5,-369 784.5,-369 784.5,-339 677.5,-339"/>
<text text-anchor="start" x="685.5" y="-357" font-family="Helvetica,sans-Serif" font-size="10.00">Ra::Core::MeshUtils</text>
<text text-anchor="middle" x="731" y="-346" font-family="Helvetica,sans-Serif" font-size="10.00">::getTriangleVertices</text>
</a>
</g>
</g>
<!-- Node8&#45;&gt;Node13 -->
<g id="edge17" class="edge"><title>Node8&#45;&gt;Node13</title>
<path fill="none" stroke="midnightblue" d="M436.172,-287.131C453.299,-299.163 479.01,-315.361 504,-324 557.21,-342.395 621.062,-349.61 667.303,-352.39"/>
<polygon fill="midnightblue" stroke="midnightblue" points="667.303,-355.895 677.48,-352.948 667.686,-348.906 667.303,-355.895"/>
</g>
<!-- Node14 -->
<g id="node14" class="node"><title>Node14</title>
<g id="a_node14"><a xlink:href="namespaceRa_1_1Core_1_1MeshUtils.html#a746199d436bb1dc31c4bccb3953743b9" target="_top" xlink:title="Returns the area of a given triangle. ">
<polygon fill="white" stroke="black" points="515.5,-377 515.5,-407 622.5,-407 622.5,-377 515.5,-377"/>
<text text-anchor="start" x="523.5" y="-395" font-family="Helvetica,sans-Serif" font-size="10.00">Ra::Core::MeshUtils</text>
<text text-anchor="middle" x="569" y="-384" font-family="Helvetica,sans-Serif" font-size="10.00">::getTriangleArea</text>
</a>
</g>
</g>
<!-- Node8&#45;&gt;Node14 -->
<g id="edge19" class="edge"><title>Node8&#45;&gt;Node14</title>
<path fill="none" stroke="midnightblue" d="M427.76,-287.01C443.485,-306.319 472.998,-339.985 504,-362 509.187,-365.683 514.898,-369.105 520.708,-372.221"/>
<polygon fill="midnightblue" stroke="midnightblue" points="519.356,-375.459 529.858,-376.857 522.52,-369.215 519.356,-375.459"/>
</g>
<!-- Node17 -->
<g id="node17" class="node"><title>Node17</title>
<g id="a_node17"><a xlink:href="namespaceRa_1_1Core_1_1Animation.html#a71236244c5603a8a5bc63595db9b7717" target="_top" xlink:title="Computes the similarity between two weights vector. ">
<polygon fill="white" stroke="black" points="516,-164 516,-194 622,-194 622,-164 516,-164"/>
<text text-anchor="start" x="524" y="-182" font-family="Helvetica,sans-Serif" font-size="10.00">Ra::Core::Animation</text>
<text text-anchor="middle" x="569" y="-171" font-family="Helvetica,sans-Serif" font-size="10.00">::weightSimilarity</text>
</a>
</g>
</g>
<!-- Node8&#45;&gt;Node17 -->
<g id="edge24" class="edge"><title>Node8&#45;&gt;Node17</title>
<path fill="none" stroke="midnightblue" d="M432.502,-256.905C449.463,-241.977 477.117,-219.219 504,-204 507.62,-201.95 511.442,-199.995 515.343,-198.147"/>
<polygon fill="midnightblue" stroke="midnightblue" points="516.834,-201.314 524.532,-194.034 513.974,-194.925 516.834,-201.314"/>
</g>
<!-- Node9&#45;&gt;Node3 -->
<g id="edge10" class="edge"><title>Node9&#45;&gt;Node3</title>
<path fill="none" stroke="midnightblue" d="M616.58,-272C669.582,-272 756.704,-272 817.915,-272"/>
<polygon fill="midnightblue" stroke="midnightblue" points="818.266,-275.5 828.266,-272 818.266,-268.5 818.266,-275.5"/>
</g>
<!-- Node9&#45;&gt;Node5 -->
<g id="edge11" class="edge"><title>Node9&#45;&gt;Node5</title>
<path fill="none" stroke="midnightblue" d="M616.657,-262.754C622.978,-260.042 628.998,-256.535 634,-252 664.393,-224.442 652.226,-203.976 670,-167 684.699,-136.422 703.573,-102.216 716.19,-79.9636"/>
<polygon fill="midnightblue" stroke="midnightblue" points="719.272,-81.6248 721.184,-71.204 713.191,-78.1578 719.272,-81.6248"/>
</g>
<!-- Node9&#45;&gt;Node10 -->
<g id="edge12" class="edge"><title>Node9&#45;&gt;Node10</title>
<path fill="none" stroke="midnightblue" d="M607.28,-262.413C616.234,-259.553 625.625,-256.072 634,-252 662.421,-238.18 691.912,-216.643 710.579,-201.957"/>
<polygon fill="midnightblue" stroke="midnightblue" points="712.963,-204.532 718.586,-195.553 708.59,-199.066 712.963,-204.532"/>
</g>
<!-- Node13&#45;&gt;Node3 -->
<g id="edge18" class="edge"><title>Node13&#45;&gt;Node3</title>
<path fill="none" stroke="midnightblue" d="M762.622,-338.931C772.075,-334.214 782.496,-328.948 792,-324 811.9,-313.639 833.922,-301.742 851.848,-291.945"/>
<polygon fill="midnightblue" stroke="midnightblue" points="853.727,-294.906 860.816,-287.032 850.364,-288.767 853.727,-294.906"/>
</g>
<!-- Node14&#45;&gt;Node13 -->
<g id="edge20" class="edge"><title>Node14&#45;&gt;Node13</title>
<path fill="none" stroke="midnightblue" d="M622.833,-379.452C637.107,-376.062 652.69,-372.361 667.442,-368.858"/>
<polygon fill="midnightblue" stroke="midnightblue" points="668.574,-372.186 677.495,-366.47 666.957,-365.375 668.574,-372.186"/>
</g>
<!-- Node15 -->
<g id="node15" class="node"><title>Node15</title>
<g id="a_node15"><a xlink:href="namespaceRa_1_1Core_1_1Geometry.html#a178f2b7309fe2ea5bc31a3abcb25368e" target="_top" xlink:title="Ra::Core::Geometry\l::triangleArea">
<polygon fill="white" stroke="black" points="678.5,-388 678.5,-418 783.5,-418 783.5,-388 678.5,-388"/>
<text text-anchor="start" x="686.5" y="-406" font-family="Helvetica,sans-Serif" font-size="10.00">Ra::Core::Geometry</text>
<text text-anchor="middle" x="731" y="-395" font-family="Helvetica,sans-Serif" font-size="10.00">::triangleArea</text>
</a>
</g>
</g>
<!-- Node14&#45;&gt;Node15 -->
<g id="edge21" class="edge"><title>Node14&#45;&gt;Node15</title>
<path fill="none" stroke="midnightblue" d="M622.833,-395.632C637.329,-396.629 653.175,-397.718 668.129,-398.746"/>
<polygon fill="midnightblue" stroke="midnightblue" points="668.095,-402.252 678.311,-399.446 668.575,-395.269 668.095,-402.252"/>
</g>
<!-- Node15&#45;&gt;Node11 -->
<g id="edge23" class="edge"><title>Node15&#45;&gt;Node11</title>
<path fill="none" stroke="midnightblue" d="M783.513,-416.539C802.383,-421.498 823.6,-427.074 841.96,-431.9"/>
<polygon fill="midnightblue" stroke="midnightblue" points="841.272,-435.338 851.834,-434.495 843.052,-428.568 841.272,-435.338"/>
</g>
<!-- Node16 -->
<g id="node16" class="node"><title>Node16</title>
<g id="a_node16"><a xlink:href="namespaceOpenMesh.html#a71e7f1dd3eac016d2b8245ac408a291c" target="_top" xlink:title="OpenMesh::cross">
<polygon fill="white" stroke="black" points="842,-393.5 842,-412.5 936,-412.5 936,-393.5 842,-393.5"/>
<text text-anchor="middle" x="889" y="-400.5" font-family="Helvetica,sans-Serif" font-size="10.00">OpenMesh::cross</text>
</a>
</g>
</g>
<!-- Node15&#45;&gt;Node16 -->
<g id="edge22" class="edge"><title>Node15&#45;&gt;Node16</title>
<path fill="none" stroke="midnightblue" d="M783.513,-403C798.947,-403 815.951,-403 831.677,-403"/>
<polygon fill="midnightblue" stroke="midnightblue" points="831.798,-406.5 841.798,-403 831.798,-399.5 831.798,-406.5"/>
</g>
</g>
</svg>
