<?xml version="1.0" encoding="UTF-8" standalone="no"?>
<!DOCTYPE svg PUBLIC "-//W3C//DTD SVG 1.1//EN"
 "http://www.w3.org/Graphics/SVG/1.1/DTD/svg11.dtd">
<!-- Generated by graphviz version 2.36.0 (20140111.2315)
 -->
<!-- Title: AnimationPlugin::AnimationPluginC::AnimationPluginC Pages: 1 -->
<svg width="1224pt" height="496pt"
 viewBox="0.00 0.00 1224.00 496.00" xmlns="http://www.w3.org/2000/svg" xmlns:xlink="http://www.w3.org/1999/xlink">
<g id="graph0" class="graph" transform="scale(1 1) rotate(0) translate(4 492)">
<title>AnimationPlugin::AnimationPluginC::AnimationPluginC</title>
<polygon fill="white" stroke="none" points="-4,4 -4,-492 1220,-492 1220,4 -4,4"/>
<!-- Node1 -->
<g id="node1" class="node"><title>Node1</title>
<polygon fill="#bfbfbf" stroke="black" points="0.5,-237 0.5,-267 137.5,-267 137.5,-237 0.5,-237"/>
<text text-anchor="start" x="8.5" y="-255" font-family="Helvetica,sans-Serif" font-size="10.00">AnimationPlugin::Animation</text>
<text text-anchor="middle" x="69" y="-244" font-family="Helvetica,sans-Serif" font-size="10.00">PluginC::AnimationPluginC</text>
</g>
<!-- Node2 -->
<g id="node2" class="node"><title>Node2</title>
<g id="a_node2"><a xlink:href="classAnimationPlugin_1_1AnimationPluginC.html#a97ca430cba2863dc42ad9526ff6ac886" target="_top" xlink:title="AnimationPlugin::Animation\lPluginC::toggleXray">
<polygon fill="white" stroke="black" points="190.5,-458 190.5,-488 327.5,-488 327.5,-458 190.5,-458"/>
<text text-anchor="start" x="198.5" y="-476" font-family="Helvetica,sans-Serif" font-size="10.00">AnimationPlugin::Animation</text>
<text text-anchor="middle" x="259" y="-465" font-family="Helvetica,sans-Serif" font-size="10.00">PluginC::toggleXray</text>
</a>
</g>
</g>
<!-- Node1&#45;&gt;Node2 -->
<g id="edge1" class="edge"><title>Node1&#45;&gt;Node2</title>
<path fill="none" stroke="midnightblue" d="M73.6753,-267.082C83.4055,-303.778 113.348,-398.337 174,-448 176.395,-449.961 178.94,-451.768 181.595,-453.434"/>
<polygon fill="midnightblue" stroke="midnightblue" points="179.958,-456.528 190.406,-458.285 183.335,-450.396 179.958,-456.528"/>
</g>
<!-- Node4 -->
<g id="node4" class="node"><title>Node4</title>
<g id="a_node4"><a xlink:href="classAnimationPlugin_1_1AnimationPluginC.html#a5b502a290c624d5aab9ac37c9a992790" target="_top" xlink:title="AnimationPlugin::Animation\lPluginC::toggleSkeleton">
<polygon fill="white" stroke="black" points="190.5,-409 190.5,-439 327.5,-439 327.5,-409 190.5,-409"/>
<text text-anchor="start" x="198.5" y="-427" font-family="Helvetica,sans-Serif" font-size="10.00">AnimationPlugin::Animation</text>
<text text-anchor="middle" x="259" y="-416" font-family="Helvetica,sans-Serif" font-size="10.00">PluginC::toggleSkeleton</text>
</a>
</g>
</g>
<!-- Node1&#45;&gt;Node4 -->
<g id="edge3" class="edge"><title>Node1&#45;&gt;Node4</title>
<path fill="none" stroke="midnightblue" d="M76.4627,-267.01C90.0497,-296.777 124.462,-363.472 174,-399 176.72,-400.951 179.593,-402.751 182.573,-404.412"/>
<polygon fill="midnightblue" stroke="midnightblue" points="181.271,-407.674 191.784,-408.989 184.386,-401.405 181.271,-407.674"/>
</g>
<!-- Node6 -->
<g id="node6" class="node"><title>Node6</title>
<g id="a_node6"><a xlink:href="classAnimationPlugin_1_1AnimationPluginC.html#aab33b0009a14705658c2f85c0a641490" target="_top" xlink:title="AnimationPlugin::Animation\lPluginC::setAnimation">
<polygon fill="white" stroke="black" points="190.5,-360 190.5,-390 327.5,-390 327.5,-360 190.5,-360"/>
<text text-anchor="start" x="198.5" y="-378" font-family="Helvetica,sans-Serif" font-size="10.00">AnimationPlugin::Animation</text>
<text text-anchor="middle" x="259" y="-367" font-family="Helvetica,sans-Serif" font-size="10.00">PluginC::setAnimation</text>
</a>
</g>
</g>
<!-- Node1&#45;&gt;Node6 -->
<g id="edge5" class="edge"><title>Node1&#45;&gt;Node6</title>
<path fill="none" stroke="midnightblue" d="M82.1219,-267.25C100.004,-288.756 135.517,-327.839 174,-350 177.708,-352.136 181.616,-354.104 185.634,-355.915"/>
<polygon fill="midnightblue" stroke="midnightblue" points="184.59,-359.271 195.168,-359.864 187.268,-352.804 184.59,-359.271"/>
</g>
<!-- Node8 -->
<g id="node8" class="node"><title>Node8</title>
<g id="a_node8"><a xlink:href="classAnimationPlugin_1_1AnimationPluginC.html#a0bbb1274efd244218e419f829db8d862" target="_top" xlink:title="AnimationPlugin::Animation\lPluginC::toggleAnimationTimeStep">
<polygon fill="white" stroke="black" points="174.5,-311 174.5,-341 343.5,-341 343.5,-311 174.5,-311"/>
<text text-anchor="start" x="182.5" y="-329" font-family="Helvetica,sans-Serif" font-size="10.00">AnimationPlugin::Animation</text>
<text text-anchor="middle" x="259" y="-318" font-family="Helvetica,sans-Serif" font-size="10.00">PluginC::toggleAnimationTimeStep</text>
</a>
</g>
</g>
<!-- Node1&#45;&gt;Node8 -->
<g id="edge7" class="edge"><title>Node1&#45;&gt;Node8</title>
<path fill="none" stroke="midnightblue" d="M99.0724,-267.147C119.649,-277.507 148.082,-291.103 174,-301 180.208,-303.371 186.742,-305.66 193.311,-307.827"/>
<polygon fill="midnightblue" stroke="midnightblue" points="192.334,-311.189 202.925,-310.909 194.471,-304.523 192.334,-311.189"/>
</g>
<!-- Node10 -->
<g id="node10" class="node"><title>Node10</title>
<g id="a_node10"><a xlink:href="classAnimationPlugin_1_1AnimationPluginC.html#ac065feb6531786d8196a1a0b88910520" target="_top" xlink:title="AnimationPlugin::Animation\lPluginC::setAnimationSpeed">
<polygon fill="white" stroke="black" points="188,-262 188,-292 330,-292 330,-262 188,-262"/>
<text text-anchor="start" x="196" y="-280" font-family="Helvetica,sans-Serif" font-size="10.00">AnimationPlugin::Animation</text>
<text text-anchor="middle" x="259" y="-269" font-family="Helvetica,sans-Serif" font-size="10.00">PluginC::setAnimationSpeed</text>
</a>
</g>
</g>
<!-- Node1&#45;&gt;Node10 -->
<g id="edge9" class="edge"><title>Node1&#45;&gt;Node10</title>
<path fill="none" stroke="midnightblue" d="M137.607,-260.99C150.609,-262.719 164.345,-264.546 177.703,-266.322"/>
<polygon fill="midnightblue" stroke="midnightblue" points="177.452,-269.82 187.826,-267.668 178.375,-262.881 177.452,-269.82"/>
</g>
<!-- Node12 -->
<g id="node12" class="node"><title>Node12</title>
<g id="a_node12"><a xlink:href="classAnimationPlugin_1_1AnimationPluginC.html#a6dd4858b63b10ab4b524eca2754f04de" target="_top" xlink:title="AnimationPlugin::Animation\lPluginC::toggleSlowMotion">
<polygon fill="white" stroke="black" points="190.5,-213 190.5,-243 327.5,-243 327.5,-213 190.5,-213"/>
<text text-anchor="start" x="198.5" y="-231" font-family="Helvetica,sans-Serif" font-size="10.00">AnimationPlugin::Animation</text>
<text text-anchor="middle" x="259" y="-220" font-family="Helvetica,sans-Serif" font-size="10.00">PluginC::toggleSlowMotion</text>
</a>
</g>
</g>
<!-- Node1&#45;&gt;Node12 -->
<g id="edge11" class="edge"><title>Node1&#45;&gt;Node12</title>
<path fill="none" stroke="midnightblue" d="M137.607,-243.369C151.414,-241.607 166.049,-239.738 180.18,-237.934"/>
<polygon fill="midnightblue" stroke="midnightblue" points="180.885,-241.373 190.362,-236.635 179.999,-234.429 180.885,-241.373"/>
</g>
<!-- Node14 -->
<g id="node14" class="node"><title>Node14</title>
<g id="a_node14"><a xlink:href="classAnimationPlugin_1_1AnimationPluginC.html#aa64fe12bbc21b24296918236d17b38c6" target="_top" xlink:title="AnimationPlugin::Animation\lPluginC::play">
<polygon fill="white" stroke="black" points="190.5,-164 190.5,-194 327.5,-194 327.5,-164 190.5,-164"/>
<text text-anchor="start" x="198.5" y="-182" font-family="Helvetica,sans-Serif" font-size="10.00">AnimationPlugin::Animation</text>
<text text-anchor="middle" x="259" y="-171" font-family="Helvetica,sans-Serif" font-size="10.00">PluginC::play</text>
</a>
</g>
</g>
<!-- Node1&#45;&gt;Node14 -->
<g id="edge13" class="edge"><title>Node1&#45;&gt;Node14</title>
<path fill="none" stroke="midnightblue" d="M98.5961,-236.987C119.19,-226.559 147.841,-212.825 174,-203 179.457,-200.95 185.17,-198.975 190.937,-197.098"/>
<polygon fill="midnightblue" stroke="midnightblue" points="192.174,-200.378 200.661,-194.036 190.071,-193.701 192.174,-200.378"/>
</g>
<!-- Node16 -->
<g id="node16" class="node"><title>Node16</title>
<g id="a_node16"><a xlink:href="classAnimationPlugin_1_1AnimationPluginC.html#a2557c2abe774ff96f778edbb44a6362b" target="_top" xlink:title="AnimationPlugin::Animation\lPluginC::pause">
<polygon fill="white" stroke="black" points="395.5,-71 395.5,-101 532.5,-101 532.5,-71 395.5,-71"/>
<text text-anchor="start" x="403.5" y="-89" font-family="Helvetica,sans-Serif" font-size="10.00">AnimationPlugin::Animation</text>
<text text-anchor="middle" x="464" y="-78" font-family="Helvetica,sans-Serif" font-size="10.00">PluginC::pause</text>
</a>
</g>
</g>
<!-- Node1&#45;&gt;Node16 -->
<g id="edge15" class="edge"><title>Node1&#45;&gt;Node16</title>
<path fill="none" stroke="midnightblue" d="M75.4628,-236.969C87.6435,-205.917 120.262,-135.084 174,-105 238.419,-68.9363 324.01,-67.9905 385.297,-73.7427"/>
<polygon fill="midnightblue" stroke="midnightblue" points="384.996,-77.23 395.299,-74.7607 385.705,-70.266 384.996,-77.23"/>
</g>
<!-- Node17 -->
<g id="node17" class="node"><title>Node17</title>
<g id="a_node17"><a xlink:href="classAnimationPlugin_1_1AnimationPluginC.html#a28bbb03d595f947eacb89517592cfadf" target="_top" xlink:title="AnimationPlugin::Animation\lPluginC::step">
<polygon fill="white" stroke="black" points="190.5,-115 190.5,-145 327.5,-145 327.5,-115 190.5,-115"/>
<text text-anchor="start" x="198.5" y="-133" font-family="Helvetica,sans-Serif" font-size="10.00">AnimationPlugin::Animation</text>
<text text-anchor="middle" x="259" y="-122" font-family="Helvetica,sans-Serif" font-size="10.00">PluginC::step</text>
</a>
</g>
</g>
<!-- Node1&#45;&gt;Node17 -->
<g id="edge17" class="edge"><title>Node1&#45;&gt;Node17</title>
<path fill="none" stroke="midnightblue" d="M82.0891,-236.693C99.9311,-215.117 135.396,-175.95 174,-154 177.059,-152.261 180.254,-150.639 183.535,-149.129"/>
<polygon fill="midnightblue" stroke="midnightblue" points="185.106,-152.265 192.966,-145.161 182.391,-145.813 185.106,-152.265"/>
</g>
<!-- Node19 -->
<g id="node19" class="node"><title>Node19</title>
<g id="a_node19"><a xlink:href="classAnimationPlugin_1_1AnimationPluginC.html#addc6eaa082def65b9330182a71e8cef8" target="_top" xlink:title="AnimationPlugin::Animation\lPluginC::reset">
<polygon fill="white" stroke="black" points="190.5,-27 190.5,-57 327.5,-57 327.5,-27 190.5,-27"/>
<text text-anchor="start" x="198.5" y="-45" font-family="Helvetica,sans-Serif" font-size="10.00">AnimationPlugin::Animation</text>
<text text-anchor="middle" x="259" y="-34" font-family="Helvetica,sans-Serif" font-size="10.00">PluginC::reset</text>
</a>
</g>
</g>
<!-- Node1&#45;&gt;Node19 -->
<g id="edge20" class="edge"><title>Node1&#45;&gt;Node19</title>
<path fill="none" stroke="midnightblue" d="M74.7078,-236.821C86.1062,-202.505 118.419,-118.337 174,-72 178.648,-68.125 183.834,-64.7339 189.286,-61.7694"/>
<polygon fill="midnightblue" stroke="midnightblue" points="191.225,-64.7169 198.664,-57.1729 188.144,-58.4313 191.225,-64.7169"/>
</g>
<!-- Node3 -->
<g id="node3" class="node"><title>Node3</title>
<g id="a_node3"><a xlink:href="classAnimationPlugin_1_1AnimationSystem.html#a85ead7b8302c4c3fedf949fba52f259b" target="_top" xlink:title="Set on or off xray bone display. ">
<polygon fill="white" stroke="black" points="395.5,-458 395.5,-488 532.5,-488 532.5,-458 395.5,-458"/>
<text text-anchor="start" x="403.5" y="-476" font-family="Helvetica,sans-Serif" font-size="10.00">AnimationPlugin::Animation</text>
<text text-anchor="middle" x="464" y="-465" font-family="Helvetica,sans-Serif" font-size="10.00">System::setXray</text>
</a>
</g>
</g>
<!-- Node2&#45;&gt;Node3 -->
<g id="edge2" class="edge"><title>Node2&#45;&gt;Node3</title>
<path fill="none" stroke="midnightblue" d="M327.596,-473C346.074,-473 366.245,-473 385.242,-473"/>
<polygon fill="midnightblue" stroke="midnightblue" points="385.353,-476.5 395.353,-473 385.353,-469.5 385.353,-476.5"/>
</g>
<!-- Node5 -->
<g id="node5" class="node"><title>Node5</title>
<g id="a_node5"><a xlink:href="classAnimationPlugin_1_1AnimationSystem.html#a348e7b2e35cf9b1153882bba13101429" target="_top" xlink:title="AnimationPlugin::Animation\lSystem::toggleSkeleton">
<polygon fill="white" stroke="black" points="395.5,-409 395.5,-439 532.5,-439 532.5,-409 395.5,-409"/>
<text text-anchor="start" x="403.5" y="-427" font-family="Helvetica,sans-Serif" font-size="10.00">AnimationPlugin::Animation</text>
<text text-anchor="middle" x="464" y="-416" font-family="Helvetica,sans-Serif" font-size="10.00">System::toggleSkeleton</text>
</a>
</g>
</g>
<!-- Node4&#45;&gt;Node5 -->
<g id="edge4" class="edge"><title>Node4&#45;&gt;Node5</title>
<path fill="none" stroke="midnightblue" d="M327.596,-424C346.074,-424 366.245,-424 385.242,-424"/>
<polygon fill="midnightblue" stroke="midnightblue" points="385.353,-427.5 395.353,-424 385.353,-420.5 385.353,-427.5"/>
</g>
<!-- Node7 -->
<g id="node7" class="node"><title>Node7</title>
<g id="a_node7"><a xlink:href="classAnimationPlugin_1_1AnimationSystem.html#a061c8e3776c63313092452c476bbd709" target="_top" xlink:title="AnimationPlugin::Animation\lSystem::setAnimation">
<polygon fill="white" stroke="black" points="395.5,-360 395.5,-390 532.5,-390 532.5,-360 395.5,-360"/>
<text text-anchor="start" x="403.5" y="-378" font-family="Helvetica,sans-Serif" font-size="10.00">AnimationPlugin::Animation</text>
<text text-anchor="middle" x="464" y="-367" font-family="Helvetica,sans-Serif" font-size="10.00">System::setAnimation</text>
</a>
</g>
</g>
<!-- Node6&#45;&gt;Node7 -->
<g id="edge6" class="edge"><title>Node6&#45;&gt;Node7</title>
<path fill="none" stroke="midnightblue" d="M327.596,-375C346.074,-375 366.245,-375 385.242,-375"/>
<polygon fill="midnightblue" stroke="midnightblue" points="385.353,-378.5 395.353,-375 385.353,-371.5 385.353,-378.5"/>
</g>
<!-- Node9 -->
<g id="node9" class="node"><title>Node9</title>
<g id="a_node9"><a xlink:href="classAnimationPlugin_1_1AnimationSystem.html#a0f87699a5865a84fdbb6c954adab016c" target="_top" xlink:title="AnimationPlugin::Animation\lSystem::toggleAnimationTimeStep">
<polygon fill="white" stroke="black" points="380,-311 380,-341 548,-341 548,-311 380,-311"/>
<text text-anchor="start" x="388" y="-329" font-family="Helvetica,sans-Serif" font-size="10.00">AnimationPlugin::Animation</text>
<text text-anchor="middle" x="464" y="-318" font-family="Helvetica,sans-Serif" font-size="10.00">System::toggleAnimationTimeStep</text>
</a>
</g>
</g>
<!-- Node8&#45;&gt;Node9 -->
<g id="edge8" class="edge"><title>Node8&#45;&gt;Node9</title>
<path fill="none" stroke="midnightblue" d="M343.74,-326C352.296,-326 361.026,-326 369.677,-326"/>
<polygon fill="midnightblue" stroke="midnightblue" points="369.78,-329.5 379.78,-326 369.78,-322.5 369.78,-329.5"/>
</g>
<!-- Node11 -->
<g id="node11" class="node"><title>Node11</title>
<g id="a_node11"><a xlink:href="classAnimationPlugin_1_1AnimationSystem.html#a0b0bc42c13d119be1b55d46d2164ee1f" target="_top" xlink:title="AnimationPlugin::Animation\lSystem::setAnimationSpeed">
<polygon fill="white" stroke="black" points="393.5,-262 393.5,-292 534.5,-292 534.5,-262 393.5,-262"/>
<text text-anchor="start" x="401.5" y="-280" font-family="Helvetica,sans-Serif" font-size="10.00">AnimationPlugin::Animation</text>
<text text-anchor="middle" x="464" y="-269" font-family="Helvetica,sans-Serif" font-size="10.00">System::setAnimationSpeed</text>
</a>
</g>
</g>
<!-- Node10&#45;&gt;Node11 -->
<g id="edge10" class="edge"><title>Node10&#45;&gt;Node11</title>
<path fill="none" stroke="midnightblue" d="M330.145,-277C347.198,-277 365.56,-277 383.029,-277"/>
<polygon fill="midnightblue" stroke="midnightblue" points="383.196,-280.5 393.196,-277 383.195,-273.5 383.196,-280.5"/>
</g>
<!-- Node13 -->
<g id="node13" class="node"><title>Node13</title>
<g id="a_node13"><a xlink:href="classAnimationPlugin_1_1AnimationSystem.html#a3435b4f767b5240c6eb2fa78872b1f42" target="_top" xlink:title="AnimationPlugin::Animation\lSystem::toggleSlowMotion">
<polygon fill="white" stroke="black" points="395.5,-213 395.5,-243 532.5,-243 532.5,-213 395.5,-213"/>
<text text-anchor="start" x="403.5" y="-231" font-family="Helvetica,sans-Serif" font-size="10.00">AnimationPlugin::Animation</text>
<text text-anchor="middle" x="464" y="-220" font-family="Helvetica,sans-Serif" font-size="10.00">System::toggleSlowMotion</text>
</a>
</g>
</g>
<!-- Node12&#45;&gt;Node13 -->
<g id="edge12" class="edge"><title>Node12&#45;&gt;Node13</title>
<path fill="none" stroke="midnightblue" d="M327.596,-228C346.074,-228 366.245,-228 385.242,-228"/>
<polygon fill="midnightblue" stroke="midnightblue" points="385.353,-231.5 395.353,-228 385.353,-224.5 385.353,-231.5"/>
</g>
<!-- Node15 -->
<g id="node15" class="node"><title>Node15</title>
<g id="a_node15"><a xlink:href="classAnimationPlugin_1_1AnimationSystem.html#a800576931b516607c9c3111811b47b07" target="_top" xlink:title="Toggle on/off playing of animations. ">
<polygon fill="white" stroke="black" points="584.5,-117 584.5,-147 721.5,-147 721.5,-117 584.5,-117"/>
<text text-anchor="start" x="592.5" y="-135" font-family="Helvetica,sans-Serif" font-size="10.00">AnimationPlugin::Animation</text>
<text text-anchor="middle" x="653" y="-124" font-family="Helvetica,sans-Serif" font-size="10.00">System::setPlaying</text>
</a>
</g>
</g>
<!-- Node14&#45;&gt;Node15 -->
<g id="edge14" class="edge"><title>Node14&#45;&gt;Node15</title>
<path fill="none" stroke="midnightblue" d="M327.617,-177.824C386.24,-175.967 473.181,-171.202 548,-159 562.435,-156.646 577.784,-153.201 592.132,-149.554"/>
<polygon fill="midnightblue" stroke="midnightblue" points="593.091,-152.921 601.882,-147.008 591.322,-146.148 593.091,-152.921"/>
</g>
<!-- Node16&#45;&gt;Node15 -->
<g id="edge16" class="edge"><title>Node16&#45;&gt;Node15</title>
<path fill="none" stroke="midnightblue" d="M526.231,-101.062C543.756,-105.373 563.006,-110.108 581.062,-114.55"/>
<polygon fill="midnightblue" stroke="midnightblue" points="580.405,-117.993 590.951,-116.983 582.077,-111.195 580.405,-117.993"/>
</g>
<!-- Node17&#45;&gt;Node16 -->
<g id="edge18" class="edge"><title>Node17&#45;&gt;Node16</title>
<path fill="none" stroke="midnightblue" d="M327.596,-115.349C346.159,-111.325 366.431,-106.931 385.504,-102.797"/>
<polygon fill="midnightblue" stroke="midnightblue" points="386.322,-106.201 395.353,-100.662 384.839,-99.3602 386.322,-106.201"/>
</g>
<!-- Node18 -->
<g id="node18" class="node"><title>Node18</title>
<g id="a_node18"><a xlink:href="classAnimationPlugin_1_1AnimationSystem.html#a7d0c79c0a8c4949ace71a44d868b5885" target="_top" xlink:title="Advance the animation next frame, then pauses. ">
<polygon fill="white" stroke="black" points="395.5,-120 395.5,-150 532.5,-150 532.5,-120 395.5,-120"/>
<text text-anchor="start" x="403.5" y="-138" font-family="Helvetica,sans-Serif" font-size="10.00">AnimationPlugin::Animation</text>
<text text-anchor="middle" x="464" y="-127" font-family="Helvetica,sans-Serif" font-size="10.00">System::step</text>
</a>
</g>
</g>
<!-- Node17&#45;&gt;Node18 -->
<g id="edge19" class="edge"><title>Node17&#45;&gt;Node18</title>
<path fill="none" stroke="midnightblue" d="M327.596,-131.665C346.074,-132.12 366.245,-132.617 385.242,-133.085"/>
<polygon fill="midnightblue" stroke="midnightblue" points="385.27,-136.586 395.353,-133.334 385.442,-129.589 385.27,-136.586"/>
</g>
<!-- Node19&#45;&gt;Node16 -->
<g id="edge21" class="edge"><title>Node19&#45;&gt;Node16</title>
<path fill="none" stroke="midnightblue" d="M327.596,-56.6514C346.159,-60.6749 366.431,-65.0689 385.504,-69.2029"/>
<polygon fill="midnightblue" stroke="midnightblue" points="384.839,-72.6398 395.353,-71.3376 386.322,-65.7987 384.839,-72.6398"/>
</g>
<!-- Node20 -->
<g id="node20" class="node"><title>Node20</title>
<g id="a_node20"><a xlink:href="classAnimationPlugin_1_1AnimationSystem.html#a6d13ac6d4ea756d8f694d561e0cfb052" target="_top" xlink:title="Resets the skeleton to its rest pose. ">
<polygon fill="white" stroke="black" points="395.5,-22 395.5,-52 532.5,-52 532.5,-22 395.5,-22"/>
<text text-anchor="start" x="403.5" y="-40" font-family="Helvetica,sans-Serif" font-size="10.00">AnimationPlugin::Animation</text>
<text text-anchor="middle" x="464" y="-29" font-family="Helvetica,sans-Serif" font-size="10.00">System::reset</text>
</a>
</g>
</g>
<!-- Node19&#45;&gt;Node20 -->
<g id="edge22" class="edge"><title>Node19&#45;&gt;Node20</title>
<path fill="none" stroke="midnightblue" d="M327.596,-40.3351C346.074,-39.88 366.245,-39.3831 385.242,-38.9152"/>
<polygon fill="midnightblue" stroke="midnightblue" points="385.442,-42.4114 395.353,-38.6662 385.27,-35.4136 385.442,-42.4114"/>
</g>
<!-- Node21 -->
<g id="node21" class="node"><title>Node21</title>
<g id="a_node21"><a xlink:href="classAnimationPlugin_1_1AnimationComponent.html#a8003df2b5f3137642ec4698502a32666" target="_top" xlink:title="AnimationPlugin::Animation\lComponent::reset">
<polygon fill="white" stroke="black" points="584.5,-22 584.5,-52 721.5,-52 721.5,-22 584.5,-22"/>
<text text-anchor="start" x="592.5" y="-40" font-family="Helvetica,sans-Serif" font-size="10.00">AnimationPlugin::Animation</text>
<text text-anchor="middle" x="653" y="-29" font-family="Helvetica,sans-Serif" font-size="10.00">Component::reset</text>
</a>
</g>
</g>
<!-- Node20&#45;&gt;Node21 -->
<g id="edge23" class="edge"><title>Node20&#45;&gt;Node21</title>
<path fill="none" stroke="midnightblue" d="M532.511,-37C545.933,-37 560.132,-37 573.874,-37"/>
<polygon fill="midnightblue" stroke="midnightblue" points="574.274,-40.5001 584.274,-37 574.274,-33.5001 574.274,-40.5001"/>
</g>
<!-- Node22 -->
<g id="node22" class="node"><title>Node22</title>
<g id="a_node22"><a xlink:href="classRa_1_1Core_1_1Animation_1_1Skeleton.html#a7aec08b57bfa9dbce1c5b47e96de81d9" target="_top" xlink:title="Ra::Core::Animation\l::Skeleton::setPose">
<polygon fill="white" stroke="black" points="758,-22 758,-52 864,-52 864,-22 758,-22"/>
<text text-anchor="start" x="766" y="-40" font-family="Helvetica,sans-Serif" font-size="10.00">Ra::Core::Animation</text>
<text text-anchor="middle" x="811" y="-29" font-family="Helvetica,sans-Serif" font-size="10.00">::Skeleton::setPose</text>
</a>
</g>
</g>
<!-- Node21&#45;&gt;Node22 -->
<g id="edge24" class="edge"><title>Node21&#45;&gt;Node22</title>
<path fill="none" stroke="midnightblue" d="M721.517,-37C730.276,-37 739.215,-37 747.881,-37"/>
<polygon fill="midnightblue" stroke="midnightblue" points="747.902,-40.5001 757.902,-37 747.902,-33.5001 747.902,-40.5001"/>
</g>
<!-- Node23 -->
<g id="node23" class="node"><title>Node23</title>
<g id="a_node23"><a xlink:href="classRa_1_1Core_1_1Animation_1_1Skeleton.html#a5679e1beb544b515c4539ce48a2f2ba3" target="_top" xlink:title="Ra::Core::Animation\l::Skeleton::size">
<polygon fill="white" stroke="black" points="917,-71 917,-101 1023,-101 1023,-71 917,-71"/>
<text text-anchor="start" x="925" y="-89" font-family="Helvetica,sans-Serif" font-size="10.00">Ra::Core::Animation</text>
<text text-anchor="middle" x="970" y="-78" font-family="Helvetica,sans-Serif" font-size="10.00">::Skeleton::size</text>
</a>
</g>
</g>
<!-- Node22&#45;&gt;Node23 -->
<g id="edge25" class="edge"><title>Node22&#45;&gt;Node23</title>
<path fill="none" stroke="midnightblue" d="M860.386,-52.1014C876.429,-57.1083 894.449,-62.7324 911.131,-67.939"/>
<polygon fill="midnightblue" stroke="midnightblue" points="910.185,-71.3101 920.774,-70.9484 912.27,-64.628 910.185,-71.3101"/>
</g>
<!-- Node24 -->
<g id="node24" class="node"><title>Node24</title>
<g id="a_node24"><a xlink:href="classRa_1_1Core_1_1Graph_1_1AdjacencyList.html#a63e089f5da2ddc2da39dfd5bd6adb410" target="_top" xlink:title="SIZE. ">
<polygon fill="white" stroke="black" points="1076,-0 1076,-30 1216,-30 1216,-0 1076,-0"/>
<text text-anchor="start" x="1084" y="-18" font-family="Helvetica,sans-Serif" font-size="10.00">Ra::Core::Graph::Adjacency</text>
<text text-anchor="middle" x="1146" y="-7" font-family="Helvetica,sans-Serif" font-size="10.00">List::size</text>
</a>
</g>
</g>
<!-- Node22&#45;&gt;Node24 -->
<g id="edge26" class="edge"><title>Node22&#45;&gt;Node24</title>
<path fill="none" stroke="midnightblue" d="M855.804,-21.9792C869.757,-17.8942 885.371,-14.0377 900,-12 954.968,-4.34347 1017.54,-5.27043 1065.7,-8.02047"/>
<polygon fill="midnightblue" stroke="midnightblue" points="1065.55,-11.518 1075.74,-8.63254 1065.98,-4.53091 1065.55,-11.518"/>
</g>
<!-- Node25 -->
<g id="node25" class="node"><title>Node25</title>
<g id="a_node25"><a xlink:href="classRa_1_1Core_1_1Graph_1_1AdjacencyList.html#a8671f51516bd82a2ea4246bc0c1e34f1" target="_top" xlink:title="Ra::Core::Graph::Adjacency\lList::isRoot">
<polygon fill="white" stroke="black" points="900,-22 900,-52 1040,-52 1040,-22 900,-22"/>
<text text-anchor="start" x="908" y="-40" font-family="Helvetica,sans-Serif" font-size="10.00">Ra::Core::Graph::Adjacency</text>
<text text-anchor="middle" x="970" y="-29" font-family="Helvetica,sans-Serif" font-size="10.00">List::isRoot</text>
</a>
</g>
</g>
<!-- Node22&#45;&gt;Node25 -->
<g id="edge27" class="edge"><title>Node22&#45;&gt;Node25</title>
<path fill="none" stroke="midnightblue" d="M864.279,-37C872.485,-37 881.124,-37 889.774,-37"/>
<polygon fill="midnightblue" stroke="midnightblue" points="889.909,-40.5001 899.909,-37 889.909,-33.5001 889.909,-40.5001"/>
</g>
<!-- Node25&#45;&gt;Node24 -->
<g id="edge28" class="edge"><title>Node25&#45;&gt;Node24</title>
<path fill="none" stroke="midnightblue" d="M1040.02,-28.2734C1048.48,-27.2042 1057.17,-26.1051 1065.76,-25.0188"/>
<polygon fill="midnightblue" stroke="midnightblue" points="1066.3,-28.4788 1075.78,-23.752 1065.42,-21.5341 1066.3,-28.4788"/>
</g>
</g>
</svg>
