<?xml version="1.0" encoding="UTF-8" standalone="no"?>
<!DOCTYPE svg PUBLIC "-//W3C//DTD SVG 1.1//EN"
 "http://www.w3.org/Graphics/SVG/1.1/DTD/svg11.dtd">
<!-- Generated by graphviz version 2.36.0 (20140111.2315)
 -->
<!-- Title: AnimationPlugin::AnimationSystem::handleAssetLoading Pages: 1 -->
<svg width="732pt" height="741pt"
 viewBox="0.00 0.00 732.00 741.00" xmlns="http://www.w3.org/2000/svg" xmlns:xlink="http://www.w3.org/1999/xlink">
<g id="graph0" class="graph" transform="scale(1 1) rotate(0) translate(4 737)">
<title>AnimationPlugin::AnimationSystem::handleAssetLoading</title>
<polygon fill="white" stroke="none" points="-4,4 -4,-737 728,-737 728,4 -4,4"/>
<!-- Node1 -->
<g id="node1" class="node"><title>Node1</title>
<polygon fill="#bfbfbf" stroke="black" points="0,-421 0,-451 144,-451 144,-421 0,-421"/>
<text text-anchor="start" x="8" y="-439" font-family="Helvetica,sans-Serif" font-size="10.00">AnimationPlugin::Animation</text>
<text text-anchor="middle" x="72" y="-428" font-family="Helvetica,sans-Serif" font-size="10.00">System::handleAssetLoading</text>
</g>
<!-- Node2 -->
<g id="node2" class="node"><title>Node2</title>
<g id="a_node2"><a xlink:href="classRa_1_1Asset_1_1FileData.html#a067251ed4ac8d221a1bc373ea7a4b158" target="_top" xlink:title="DATA. ">
<polygon fill="white" stroke="black" points="218,-601 218,-631 322,-631 322,-601 218,-601"/>
<text text-anchor="start" x="226" y="-619" font-family="Helvetica,sans-Serif" font-size="10.00">Ra::Asset::FileData</text>
<text text-anchor="middle" x="270" y="-608" font-family="Helvetica,sans-Serif" font-size="10.00">::getGeometryData</text>
</a>
</g>
</g>
<!-- Node1&#45;&gt;Node2 -->
<g id="edge1" class="edge"><title>Node1&#45;&gt;Node2</title>
<path fill="none" stroke="midnightblue" d="M79.7965,-451.162C94.0405,-481.259 129.899,-548.841 180,-586 188.436,-592.257 198.262,-597.264 208.243,-601.255"/>
<polygon fill="midnightblue" stroke="midnightblue" points="207.227,-604.611 217.821,-604.777 209.643,-598.041 207.227,-604.611"/>
</g>
<!-- Node4 -->
<g id="node4" class="node"><title>Node4</title>
<g id="a_node4"><a xlink:href="classRa_1_1Asset_1_1FileData.html#ac709c4000bd91796eea12d4899d93283" target="_top" xlink:title="Ra::Asset::FileData\l::getHandleData">
<polygon fill="white" stroke="black" points="218,-547 218,-577 322,-577 322,-547 218,-547"/>
<text text-anchor="start" x="226" y="-565" font-family="Helvetica,sans-Serif" font-size="10.00">Ra::Asset::FileData</text>
<text text-anchor="middle" x="270" y="-554" font-family="Helvetica,sans-Serif" font-size="10.00">::getHandleData</text>
</a>
</g>
</g>
<!-- Node1&#45;&gt;Node4 -->
<g id="edge3" class="edge"><title>Node1&#45;&gt;Node4</title>
<path fill="none" stroke="midnightblue" d="M87.297,-451.21C106.694,-471.117 143.173,-506.048 180,-528 189.67,-533.764 200.489,-538.867 211.163,-543.252"/>
<polygon fill="midnightblue" stroke="midnightblue" points="209.886,-546.511 220.473,-546.92 212.452,-539.998 209.886,-546.511"/>
</g>
<!-- Node5 -->
<g id="node5" class="node"><title>Node5</title>
<g id="a_node5"><a xlink:href="classRa_1_1Asset_1_1FileData.html#a4ff19e44385ab0599eb85f9ae1df2784" target="_top" xlink:title="Ra::Asset::FileData\l::getAnimationData">
<polygon fill="white" stroke="black" points="218,-489 218,-519 322,-519 322,-489 218,-489"/>
<text text-anchor="start" x="226" y="-507" font-family="Helvetica,sans-Serif" font-size="10.00">Ra::Asset::FileData</text>
<text text-anchor="middle" x="270" y="-496" font-family="Helvetica,sans-Serif" font-size="10.00">::getAnimationData</text>
</a>
</g>
</g>
<!-- Node1&#45;&gt;Node5 -->
<g id="edge5" class="edge"><title>Node1&#45;&gt;Node5</title>
<path fill="none" stroke="midnightblue" d="M116.499,-451.091C145.807,-461.26 184.652,-474.736 215.802,-485.543"/>
<polygon fill="midnightblue" stroke="midnightblue" points="215.028,-488.98 225.623,-488.951 217.322,-482.366 215.028,-488.98"/>
</g>
<!-- Node6 -->
<g id="node6" class="node"><title>Node6</title>
<g id="a_node6"><a xlink:href="classAnimationPlugin_1_1AnimationComponent.html#a6c2e655619c45bd330f1f067e5171073" target="_top" xlink:title="AnimationPlugin::Animation\lComponent::handleSkeletonLoading">
<polygon fill="white" stroke="black" points="183.5,-421 183.5,-451 356.5,-451 356.5,-421 183.5,-421"/>
<text text-anchor="start" x="191.5" y="-439" font-family="Helvetica,sans-Serif" font-size="10.00">AnimationPlugin::Animation</text>
<text text-anchor="middle" x="270" y="-428" font-family="Helvetica,sans-Serif" font-size="10.00">Component::handleSkeletonLoading</text>
</a>
</g>
</g>
<!-- Node1&#45;&gt;Node6 -->
<g id="edge7" class="edge"><title>Node1&#45;&gt;Node6</title>
<path fill="none" stroke="midnightblue" d="M144.038,-436C153.47,-436 163.263,-436 173.029,-436"/>
<polygon fill="midnightblue" stroke="midnightblue" points="173.181,-439.5 183.181,-436 173.181,-432.5 173.181,-439.5"/>
</g>
<!-- Node23 -->
<g id="node23" class="node"><title>Node23</title>
<g id="a_node23"><a xlink:href="classAnimationPlugin_1_1AnimationComponent.html#a8b3fbfe4fe80927aaa590022322b3604" target="_top" xlink:title="AnimationPlugin::Animation\lComponent::handleAnimationLoading">
<polygon fill="white" stroke="black" points="180.5,-113 180.5,-143 359.5,-143 359.5,-113 180.5,-113"/>
<text text-anchor="start" x="188.5" y="-131" font-family="Helvetica,sans-Serif" font-size="10.00">AnimationPlugin::Animation</text>
<text text-anchor="middle" x="270" y="-120" font-family="Helvetica,sans-Serif" font-size="10.00">Component::handleAnimationLoading</text>
</a>
</g>
</g>
<!-- Node1&#45;&gt;Node23 -->
<g id="edge24" class="edge"><title>Node1&#45;&gt;Node23</title>
<path fill="none" stroke="midnightblue" d="M80.7009,-420.917C97.4909,-388.383 139.17,-309.504 180,-247 202.493,-212.567 231.486,-174.871 250.161,-151.329"/>
<polygon fill="midnightblue" stroke="midnightblue" points="253.043,-153.328 256.543,-143.328 247.571,-148.963 253.043,-153.328"/>
</g>
<!-- Node29 -->
<g id="node29" class="node"><title>Node29</title>
<g id="a_node29"><a xlink:href="classAnimationPlugin_1_1AnimationComponent.html#a959e3354a565e16f625ed9438d5fafdf" target="_top" xlink:title="AnimationPlugin::Animation\lComponent::setXray">
<polygon fill="white" stroke="black" points="201.5,-64 201.5,-94 338.5,-94 338.5,-64 201.5,-64"/>
<text text-anchor="start" x="209.5" y="-82" font-family="Helvetica,sans-Serif" font-size="10.00">AnimationPlugin::Animation</text>
<text text-anchor="middle" x="270" y="-71" font-family="Helvetica,sans-Serif" font-size="10.00">Component::setXray</text>
</a>
</g>
</g>
<!-- Node1&#45;&gt;Node29 -->
<g id="edge30" class="edge"><title>Node1&#45;&gt;Node29</title>
<path fill="none" stroke="midnightblue" d="M73.0682,-420.781C74.1618,-368.354 85.0771,-193.518 180,-103 183.741,-99.4331 187.954,-96.3842 192.461,-93.7794"/>
<polygon fill="midnightblue" stroke="midnightblue" points="194.058,-96.8941 201.444,-89.2981 190.933,-90.6303 194.058,-96.8941"/>
</g>
<!-- Node30 -->
<g id="node30" class="node"><title>Node30</title>
<g id="a_node30"><a xlink:href="classRa_1_1Engine_1_1System.html#ad7b2a746c42f08a729b4df9b991293a8" target="_top" xlink:title="Ra::Engine::System\l::registerComponent">
<polygon fill="white" stroke="black" points="217.5,-257 217.5,-287 322.5,-287 322.5,-257 217.5,-257"/>
<text text-anchor="start" x="225.5" y="-275" font-family="Helvetica,sans-Serif" font-size="10.00">Ra::Engine::System</text>
<text text-anchor="middle" x="270" y="-264" font-family="Helvetica,sans-Serif" font-size="10.00">::registerComponent</text>
</a>
</g>
</g>
<!-- Node1&#45;&gt;Node30 -->
<g id="edge31" class="edge"><title>Node1&#45;&gt;Node30</title>
<path fill="none" stroke="midnightblue" d="M91.0879,-420.865C126.02,-391.636 202.867,-327.336 243.172,-293.612"/>
<polygon fill="midnightblue" stroke="midnightblue" points="245.532,-296.2 250.956,-287.098 241.04,-290.831 245.532,-296.2"/>
</g>
<!-- Node3 -->
<g id="node3" class="node"><title>Node3</title>
<g id="a_node3"><a xlink:href="namespaceRa_1_1Core.html#af6bcd3f2b48d9770b18ec88249e607bc" target="_top" xlink:title="LIST. ">
<polygon fill="white" stroke="black" points="427.5,-608.5 427.5,-627.5 502.5,-627.5 502.5,-608.5 427.5,-608.5"/>
<text text-anchor="middle" x="465" y="-615.5" font-family="Helvetica,sans-Serif" font-size="10.00">Ra::Core::list</text>
</a>
</g>
</g>
<!-- Node2&#45;&gt;Node3 -->
<g id="edge2" class="edge"><title>Node2&#45;&gt;Node3</title>
<path fill="none" stroke="midnightblue" d="M322.214,-616.531C351.654,-616.836 388.367,-617.216 417.058,-617.514"/>
<polygon fill="midnightblue" stroke="midnightblue" points="417.201,-621.015 427.237,-617.619 417.274,-614.016 417.201,-621.015"/>
</g>
<!-- Node4&#45;&gt;Node3 -->
<g id="edge4" class="edge"><title>Node4&#45;&gt;Node3</title>
<path fill="none" stroke="midnightblue" d="M321.128,-577.029C343.946,-583.821 371.314,-591.898 396,-599 403.62,-601.192 411.731,-603.49 419.598,-605.699"/>
<polygon fill="midnightblue" stroke="midnightblue" points="418.804,-609.112 429.378,-608.437 420.691,-602.371 418.804,-609.112"/>
</g>
<!-- Node5&#45;&gt;Node3 -->
<g id="edge6" class="edge"><title>Node5&#45;&gt;Node3</title>
<path fill="none" stroke="midnightblue" d="M322.239,-516.925C335.522,-521.974 349.132,-528.822 360,-538 384.052,-558.311 371.036,-579.822 396,-599 402.356,-603.883 409.902,-607.511 417.615,-610.207"/>
<polygon fill="midnightblue" stroke="midnightblue" points="416.813,-613.62 427.397,-613.147 418.828,-606.917 416.813,-613.62"/>
</g>
<!-- Node7 -->
<g id="node7" class="node"><title>Node7</title>
<g id="a_node7"><a xlink:href="classRa_1_1Asset_1_1AssetData.html#a8b107d2673623febe173f37f14ff777d" target="_top" xlink:title="Ra::Asset::AssetData\l::getName">
<polygon fill="white" stroke="black" points="408.5,-372 408.5,-402 521.5,-402 521.5,-372 408.5,-372"/>
<text text-anchor="start" x="416.5" y="-390" font-family="Helvetica,sans-Serif" font-size="10.00">Ra::Asset::AssetData</text>
<text text-anchor="middle" x="465" y="-379" font-family="Helvetica,sans-Serif" font-size="10.00">::getName</text>
</a>
</g>
</g>
<!-- Node6&#45;&gt;Node7 -->
<g id="edge8" class="edge"><title>Node6&#45;&gt;Node7</title>
<path fill="none" stroke="midnightblue" d="M330.218,-420.965C351.742,-415.501 376.191,-409.294 398.246,-403.694"/>
<polygon fill="midnightblue" stroke="midnightblue" points="399.361,-407.022 408.193,-401.169 397.639,-400.237 399.361,-407.022"/>
</g>
<!-- Node8 -->
<g id="node8" class="node"><title>Node8</title>
<g id="a_node8"><a xlink:href="classRa_1_1Core_1_1Animation_1_1Handle.html#ae8dab79a9d571d2a876ec9aaeb36959c" target="_top" xlink:title="Ra::Core::Animation\l::Handle::setName">
<polygon fill="white" stroke="black" points="412,-323 412,-353 518,-353 518,-323 412,-323"/>
<text text-anchor="start" x="420" y="-341" font-family="Helvetica,sans-Serif" font-size="10.00">Ra::Core::Animation</text>
<text text-anchor="middle" x="465" y="-330" font-family="Helvetica,sans-Serif" font-size="10.00">::Handle::setName</text>
</a>
</g>
</g>
<!-- Node6&#45;&gt;Node8 -->
<g id="edge9" class="edge"><title>Node6&#45;&gt;Node8</title>
<path fill="none" stroke="midnightblue" d="M293.309,-420.978C317.765,-404.948 358.526,-379.501 396,-362 399.828,-360.212 403.829,-358.479 407.89,-356.816"/>
<polygon fill="midnightblue" stroke="midnightblue" points="409.394,-359.986 417.424,-353.074 406.836,-353.47 409.394,-359.986"/>
</g>
<!-- Node9 -->
<g id="node9" class="node"><title>Node9</title>
<g id="a_node9"><a xlink:href="namespaceRa_1_1Asset.html#a6af505cc4650dadb43465972bf52117d" target="_top" xlink:title="Ra::Asset::createSkeleton">
<polygon fill="white" stroke="black" points="399,-570.5 399,-589.5 531,-589.5 531,-570.5 399,-570.5"/>
<text text-anchor="middle" x="465" y="-577.5" font-family="Helvetica,sans-Serif" font-size="10.00">Ra::Asset::createSkeleton</text>
</a>
</g>
</g>
<!-- Node6&#45;&gt;Node9 -->
<g id="edge10" class="edge"><title>Node6&#45;&gt;Node9</title>
<path fill="none" stroke="midnightblue" d="M308.851,-451.053C325.248,-458.376 344.251,-467.983 360,-479 378.796,-492.148 423.549,-537.775 447.768,-562.966"/>
<polygon fill="midnightblue" stroke="midnightblue" points="445.405,-565.559 454.85,-570.359 450.46,-560.717 445.405,-565.559"/>
</g>
<!-- Node14 -->
<g id="node14" class="node"><title>Node14</title>
<g id="a_node14"><a xlink:href="classRa_1_1Core_1_1Animation_1_1Skeleton.html#acb6381c3f288f580800589eb718c1759" target="_top" xlink:title="Ra::Core::Animation\l::Skeleton::getPose">
<polygon fill="white" stroke="black" points="412,-470 412,-500 518,-500 518,-470 412,-470"/>
<text text-anchor="start" x="420" y="-488" font-family="Helvetica,sans-Serif" font-size="10.00">Ra::Core::Animation</text>
<text text-anchor="middle" x="465" y="-477" font-family="Helvetica,sans-Serif" font-size="10.00">::Skeleton::getPose</text>
</a>
</g>
</g>
<!-- Node6&#45;&gt;Node14 -->
<g id="edge15" class="edge"><title>Node6&#45;&gt;Node14</title>
<path fill="none" stroke="midnightblue" d="M330.218,-451.035C352.901,-456.794 378.831,-463.377 401.787,-469.205"/>
<polygon fill="midnightblue" stroke="midnightblue" points="401.208,-472.669 411.762,-471.737 402.931,-465.884 401.208,-472.669"/>
</g>
<!-- Node15 -->
<g id="node15" class="node"><title>Node15</title>
<g id="a_node15"><a xlink:href="classAnimationPlugin_1_1AnimationComponent.html#a251513eec1518af149974a0f1993933d" target="_top" xlink:title="AnimationPlugin::Animation\lComponent::setupIO">
<polygon fill="white" stroke="black" points="396.5,-421 396.5,-451 533.5,-451 533.5,-421 396.5,-421"/>
<text text-anchor="start" x="404.5" y="-439" font-family="Helvetica,sans-Serif" font-size="10.00">AnimationPlugin::Animation</text>
<text text-anchor="middle" x="465" y="-428" font-family="Helvetica,sans-Serif" font-size="10.00">Component::setupIO</text>
</a>
</g>
</g>
<!-- Node6&#45;&gt;Node15 -->
<g id="edge16" class="edge"><title>Node6&#45;&gt;Node15</title>
<path fill="none" stroke="midnightblue" d="M356.777,-436C366.64,-436 376.654,-436 386.4,-436"/>
<polygon fill="midnightblue" stroke="midnightblue" points="386.443,-439.5 396.443,-436 386.443,-432.5 386.443,-439.5"/>
</g>
<!-- Node10 -->
<g id="node10" class="node"><title>Node10</title>
<g id="a_node10"><a xlink:href="namespaceRa_1_1Core.html#abc0a3625137098b67838fe52edd480f9" target="_top" xlink:title="SIZE. ">
<polygon fill="white" stroke="black" points="607,-713.5 607,-732.5 687,-732.5 687,-713.5 607,-713.5"/>
<text text-anchor="middle" x="647" y="-720.5" font-family="Helvetica,sans-Serif" font-size="10.00">Ra::Core::size</text>
</a>
</g>
</g>
<!-- Node9&#45;&gt;Node10 -->
<g id="edge11" class="edge"><title>Node9&#45;&gt;Node10</title>
<path fill="none" stroke="midnightblue" d="M519.913,-589.58C525.067,-592.047 529.894,-595.136 534,-599 569.622,-632.52 534.126,-669.751 570,-703 577.505,-709.956 587.136,-714.553 597.002,-717.576"/>
<polygon fill="midnightblue" stroke="midnightblue" points="596.322,-721.014 606.878,-720.103 598.058,-714.233 596.322,-721.014"/>
</g>
<!-- Node11 -->
<g id="node11" class="node"><title>Node11</title>
<g id="a_node11"><a xlink:href="classRa_1_1Asset_1_1HandleData.html#aac2741c32466647b58b76e8310d90ecb" target="_top" xlink:title="DATA. ">
<polygon fill="white" stroke="black" points="583.5,-664 583.5,-694 710.5,-694 710.5,-664 583.5,-664"/>
<text text-anchor="start" x="591.5" y="-682" font-family="Helvetica,sans-Serif" font-size="10.00">Ra::Asset::HandleData</text>
<text text-anchor="middle" x="647" y="-671" font-family="Helvetica,sans-Serif" font-size="10.00">::getComponentDataSize</text>
</a>
</g>
</g>
<!-- Node9&#45;&gt;Node11 -->
<g id="edge12" class="edge"><title>Node9&#45;&gt;Node11</title>
<path fill="none" stroke="midnightblue" d="M516.223,-589.518C522.545,-591.985 528.659,-595.09 534,-599 557.575,-616.256 546.822,-636.214 570,-654 572.455,-655.884 575.059,-657.63 577.766,-659.246"/>
<polygon fill="midnightblue" stroke="midnightblue" points="576.237,-662.397 586.713,-663.984 579.513,-656.211 576.237,-662.397"/>
</g>
<!-- Node12 -->
<g id="node12" class="node"><title>Node12</title>
<g id="a_node12"><a xlink:href="classRa_1_1Asset_1_1HandleData.html#adeb89ae26f34f0878a089ed7ecd64e24" target="_top" xlink:title="Ra::Asset::HandleData\l::getComponentData">
<polygon fill="white" stroke="black" points="587.5,-615 587.5,-645 706.5,-645 706.5,-615 587.5,-615"/>
<text text-anchor="start" x="595.5" y="-633" font-family="Helvetica,sans-Serif" font-size="10.00">Ra::Asset::HandleData</text>
<text text-anchor="middle" x="647" y="-622" font-family="Helvetica,sans-Serif" font-size="10.00">::getComponentData</text>
</a>
</g>
</g>
<!-- Node9&#45;&gt;Node12 -->
<g id="edge13" class="edge"><title>Node9&#45;&gt;Node12</title>
<path fill="none" stroke="midnightblue" d="M500.28,-589.522C523.264,-595.907 554.242,-604.512 581.725,-612.146"/>
<polygon fill="midnightblue" stroke="midnightblue" points="581.099,-615.604 591.671,-614.909 582.972,-608.86 581.099,-615.604"/>
</g>
<!-- Node13 -->
<g id="node13" class="node"><title>Node13</title>
<g id="a_node13"><a xlink:href="classRa_1_1Asset_1_1HandleData.html#abc56131631200e94ff38cf9e2af920bc" target="_top" xlink:title="Ra::Asset::HandleData\l::getEdgeData">
<polygon fill="white" stroke="black" points="587.5,-566 587.5,-596 706.5,-596 706.5,-566 587.5,-566"/>
<text text-anchor="start" x="595.5" y="-584" font-family="Helvetica,sans-Serif" font-size="10.00">Ra::Asset::HandleData</text>
<text text-anchor="middle" x="647" y="-573" font-family="Helvetica,sans-Serif" font-size="10.00">::getEdgeData</text>
</a>
</g>
</g>
<!-- Node9&#45;&gt;Node13 -->
<g id="edge14" class="edge"><title>Node9&#45;&gt;Node13</title>
<path fill="none" stroke="midnightblue" d="M531.239,-580.362C546.117,-580.445 561.973,-580.533 577.003,-580.617"/>
<polygon fill="midnightblue" stroke="midnightblue" points="577.234,-584.118 587.253,-580.674 577.273,-577.118 577.234,-584.118"/>
</g>
<!-- Node16 -->
<g id="node16" class="node"><title>Node16</title>
<g id="a_node16"><a xlink:href="classAnimationPlugin_1_1AnimationComponent.html#a39fe3e23030621e4f50f42478193ad00" target="_top" xlink:title="AnimationPlugin::Animation\lComponent::getSkeletonOutput">
<polygon fill="white" stroke="black" points="570,-517 570,-547 724,-547 724,-517 570,-517"/>
<text text-anchor="start" x="578" y="-535" font-family="Helvetica,sans-Serif" font-size="10.00">AnimationPlugin::Animation</text>
<text text-anchor="middle" x="647" y="-524" font-family="Helvetica,sans-Serif" font-size="10.00">Component::getSkeletonOutput</text>
</a>
</g>
</g>
<!-- Node15&#45;&gt;Node16 -->
<g id="edge17" class="edge"><title>Node15&#45;&gt;Node16</title>
<path fill="none" stroke="midnightblue" d="M518.796,-451.121C524.16,-453.672 529.341,-456.615 534,-460 555.289,-475.464 548.546,-491.766 570,-507 572.718,-508.93 575.594,-510.718 578.575,-512.373"/>
<polygon fill="midnightblue" stroke="midnightblue" points="577.267,-515.632 587.78,-516.952 580.385,-509.364 577.267,-515.632"/>
</g>
<!-- Node17 -->
<g id="node17" class="node"><title>Node17</title>
<g id="a_node17"><a xlink:href="classRa_1_1Engine_1_1Component.html#a207c1dc2e97856c22e0767fb77162933" target="_top" xlink:title="Return the entity the component belongs to. ">
<polygon fill="white" stroke="black" points="586,-223 586,-253 708,-253 708,-223 586,-223"/>
<text text-anchor="start" x="594" y="-241" font-family="Helvetica,sans-Serif" font-size="10.00">Ra::Engine::Component</text>
<text text-anchor="middle" x="647" y="-230" font-family="Helvetica,sans-Serif" font-size="10.00">::getEntity</text>
</a>
</g>
</g>
<!-- Node15&#45;&gt;Node17 -->
<g id="edge18" class="edge"><title>Node15&#45;&gt;Node17</title>
<path fill="none" stroke="midnightblue" d="M522.067,-420.866C526.494,-418.109 530.569,-414.851 534,-411 579.319,-360.132 523.512,-311.802 570,-262 572.266,-259.572 574.775,-257.389 577.462,-255.426"/>
<polygon fill="midnightblue" stroke="midnightblue" points="579.313,-258.396 585.989,-250.17 575.64,-252.437 579.313,-258.396"/>
</g>
<!-- Node18 -->
<g id="node18" class="node"><title>Node18</title>
<g id="a_node18"><a xlink:href="classAnimationPlugin_1_1AnimationComponent.html#a878356cef90f1de7b383b02be973d561" target="_top" xlink:title="AnimationPlugin::Animation\lComponent::getRefPoseOutput">
<polygon fill="white" stroke="black" points="570,-468 570,-498 724,-498 724,-468 570,-468"/>
<text text-anchor="start" x="578" y="-486" font-family="Helvetica,sans-Serif" font-size="10.00">AnimationPlugin::Animation</text>
<text text-anchor="middle" x="647" y="-475" font-family="Helvetica,sans-Serif" font-size="10.00">Component::getRefPoseOutput</text>
</a>
</g>
</g>
<!-- Node15&#45;&gt;Node18 -->
<g id="edge19" class="edge"><title>Node15&#45;&gt;Node18</title>
<path fill="none" stroke="midnightblue" d="M523.448,-451C540.984,-455.579 560.425,-460.655 578.56,-465.391"/>
<polygon fill="midnightblue" stroke="midnightblue" points="577.92,-468.841 588.48,-467.981 579.689,-462.068 577.92,-468.841"/>
</g>
<!-- Node19 -->
<g id="node19" class="node"><title>Node19</title>
<g id="a_node19"><a xlink:href="classAnimationPlugin_1_1AnimationComponent.html#a903f653764d3e90fc10e499948dea1e0" target="_top" xlink:title="AnimationPlugin::Animation\lComponent::getWeightsOutput">
<polygon fill="white" stroke="black" points="571,-419 571,-449 723,-449 723,-419 571,-419"/>
<text text-anchor="start" x="579" y="-437" font-family="Helvetica,sans-Serif" font-size="10.00">AnimationPlugin::Animation</text>
<text text-anchor="middle" x="647" y="-426" font-family="Helvetica,sans-Serif" font-size="10.00">Component::getWeightsOutput</text>
</a>
</g>
</g>
<!-- Node15&#45;&gt;Node19 -->
<g id="edge20" class="edge"><title>Node15&#45;&gt;Node19</title>
<path fill="none" stroke="midnightblue" d="M533.537,-435.25C542.38,-435.151 551.532,-435.05 560.62,-434.949"/>
<polygon fill="midnightblue" stroke="midnightblue" points="560.874,-438.446 570.835,-434.835 560.797,-431.447 560.874,-438.446"/>
</g>
<!-- Node20 -->
<g id="node20" class="node"><title>Node20</title>
<g id="a_node20"><a xlink:href="classAnimationPlugin_1_1AnimationComponent.html#a1bc2edd80668f7421ecaec99a22fa1bf" target="_top" xlink:title="AnimationPlugin::Animation\lComponent::getWasReset">
<polygon fill="white" stroke="black" points="578.5,-370 578.5,-400 715.5,-400 715.5,-370 578.5,-370"/>
<text text-anchor="start" x="586.5" y="-388" font-family="Helvetica,sans-Serif" font-size="10.00">AnimationPlugin::Animation</text>
<text text-anchor="middle" x="647" y="-377" font-family="Helvetica,sans-Serif" font-size="10.00">Component::getWasReset</text>
</a>
</g>
</g>
<!-- Node15&#45;&gt;Node20 -->
<g id="edge21" class="edge"><title>Node15&#45;&gt;Node20</title>
<path fill="none" stroke="midnightblue" d="M519.032,-420.974C539.175,-415.267 562.308,-408.713 583.264,-402.775"/>
<polygon fill="midnightblue" stroke="midnightblue" points="584.369,-406.1 593.036,-400.006 582.46,-399.365 584.369,-406.1"/>
</g>
<!-- Node21 -->
<g id="node21" class="node"><title>Node21</title>
<g id="a_node21"><a xlink:href="classAnimationPlugin_1_1AnimationComponent.html#adb46f8233101fbeb83d9b1234efbf770" target="_top" xlink:title="AnimationPlugin::Animation\lComponent::getAnimation">
<polygon fill="white" stroke="black" points="578.5,-321 578.5,-351 715.5,-351 715.5,-321 578.5,-321"/>
<text text-anchor="start" x="586.5" y="-339" font-family="Helvetica,sans-Serif" font-size="10.00">AnimationPlugin::Animation</text>
<text text-anchor="middle" x="647" y="-328" font-family="Helvetica,sans-Serif" font-size="10.00">Component::getAnimation</text>
</a>
</g>
</g>
<!-- Node15&#45;&gt;Node21 -->
<g id="edge22" class="edge"><title>Node15&#45;&gt;Node21</title>
<path fill="none" stroke="midnightblue" d="M517.537,-420.923C523.374,-418.113 529.009,-414.827 534,-411 556.016,-394.116 547.598,-376.368 570,-360 572.053,-358.5 574.203,-357.092 576.425,-355.77"/>
<polygon fill="midnightblue" stroke="midnightblue" points="578.091,-358.848 585.303,-351.087 574.825,-352.657 578.091,-358.848"/>
</g>
<!-- Node22 -->
<g id="node22" class="node"><title>Node22</title>
<g id="a_node22"><a xlink:href="classAnimationPlugin_1_1AnimationComponent.html#ad2c3fe9ef62806d8b721c7daadbd0460" target="_top" xlink:title="AnimationPlugin::Animation\lComponent::getTimeOutput">
<polygon fill="white" stroke="black" points="578.5,-272 578.5,-302 715.5,-302 715.5,-272 578.5,-272"/>
<text text-anchor="start" x="586.5" y="-290" font-family="Helvetica,sans-Serif" font-size="10.00">AnimationPlugin::Animation</text>
<text text-anchor="middle" x="647" y="-279" font-family="Helvetica,sans-Serif" font-size="10.00">Component::getTimeOutput</text>
</a>
</g>
</g>
<!-- Node15&#45;&gt;Node22 -->
<g id="edge23" class="edge"><title>Node15&#45;&gt;Node22</title>
<path fill="none" stroke="midnightblue" d="M520.973,-420.849C525.739,-418.091 530.188,-414.837 534,-411 567.288,-377.486 535.943,-343.732 570,-311 571.122,-309.921 572.293,-308.891 573.505,-307.907"/>
<polygon fill="midnightblue" stroke="midnightblue" points="575.769,-310.599 582.043,-302.062 571.814,-304.823 575.769,-310.599"/>
</g>
<!-- Node24 -->
<g id="node24" class="node"><title>Node24</title>
<g id="a_node24"><a xlink:href="classRa_1_1Core_1_1Animation_1_1Skeleton.html#a5679e1beb544b515c4539ce48a2f2ba3" target="_top" xlink:title="Ra::Core::Animation\l::Skeleton::size">
<polygon fill="white" stroke="black" points="412,-88 412,-118 518,-118 518,-88 412,-88"/>
<text text-anchor="start" x="420" y="-106" font-family="Helvetica,sans-Serif" font-size="10.00">Ra::Core::Animation</text>
<text text-anchor="middle" x="465" y="-95" font-family="Helvetica,sans-Serif" font-size="10.00">::Skeleton::size</text>
</a>
</g>
</g>
<!-- Node23&#45;&gt;Node24 -->
<g id="edge25" class="edge"><title>Node23&#45;&gt;Node24</title>
<path fill="none" stroke="midnightblue" d="M359.592,-116.524C373.885,-114.673 388.411,-112.791 401.904,-111.044"/>
<polygon fill="midnightblue" stroke="midnightblue" points="402.532,-114.491 412,-109.736 401.633,-107.549 402.532,-114.491"/>
</g>
<!-- Node25 -->
<g id="node25" class="node"><title>Node25</title>
<g id="a_node25"><a xlink:href="classRa_1_1Core_1_1Animation_1_1Handle.html#af2c003e7a85469470d5591b019e8ab80" target="_top" xlink:title="Ra::Core::Animation\l::Handle::getLabel">
<polygon fill="white" stroke="black" points="412,-39 412,-69 518,-69 518,-39 412,-39"/>
<text text-anchor="start" x="420" y="-57" font-family="Helvetica,sans-Serif" font-size="10.00">Ra::Core::Animation</text>
<text text-anchor="middle" x="465" y="-46" font-family="Helvetica,sans-Serif" font-size="10.00">::Handle::getLabel</text>
</a>
</g>
</g>
<!-- Node23&#45;&gt;Node25 -->
<g id="edge26" class="edge"><title>Node23&#45;&gt;Node25</title>
<path fill="none" stroke="midnightblue" d="M334.674,-112.926C343.353,-110.063 352.015,-106.763 360,-103 377.621,-94.6955 378.66,-86.8766 396,-78 399.474,-76.2217 403.11,-74.5206 406.817,-72.9043"/>
<polygon fill="midnightblue" stroke="midnightblue" points="408.216,-76.1133 416.127,-69.0656 405.548,-69.6418 408.216,-76.1133"/>
</g>
<!-- Node27 -->
<g id="node27" class="node"><title>Node27</title>
<g id="a_node27"><a xlink:href="namespaceRa_1_1Core_1_1Algorithm.html#aea294cdb6f4f0d85955bdcccb22886ec" target="_top" xlink:title="Ra::Core::Algorithm::t">
<polygon fill="white" stroke="black" points="408.5,-0.5 408.5,-19.5 521.5,-19.5 521.5,-0.5 408.5,-0.5"/>
<text text-anchor="middle" x="465" y="-7.5" font-family="Helvetica,sans-Serif" font-size="10.00">Ra::Core::Algorithm::t</text>
</a>
</g>
</g>
<!-- Node23&#45;&gt;Node27 -->
<g id="edge28" class="edge"><title>Node23&#45;&gt;Node27</title>
<path fill="none" stroke="midnightblue" d="M344.517,-112.995C350.067,-110.21 355.319,-106.91 360,-103 388.069,-79.5522 367.915,-52.4284 396,-29 398.018,-27.3167 400.175,-25.7822 402.433,-24.3832"/>
<polygon fill="midnightblue" stroke="midnightblue" points="404.311,-27.3516 411.567,-19.6315 401.08,-21.1416 404.311,-27.3516"/>
</g>
<!-- Node28 -->
<g id="node28" class="node"><title>Node28</title>
<g id="a_node28"><a xlink:href="classRa_1_1Asset_1_1KeyFrame.html#aea56e20481b32c5a81ff6d9eb34f9e97" target="_top" xlink:title="Ra::Asset::KeyFrame\l::insertKeyFrame">
<polygon fill="white" stroke="black" points="409,-137 409,-167 521,-167 521,-137 409,-137"/>
<text text-anchor="start" x="417" y="-155" font-family="Helvetica,sans-Serif" font-size="10.00">Ra::Asset::KeyFrame</text>
<text text-anchor="middle" x="465" y="-144" font-family="Helvetica,sans-Serif" font-size="10.00">::insertKeyFrame</text>
</a>
</g>
</g>
<!-- Node23&#45;&gt;Node28 -->
<g id="edge29" class="edge"><title>Node23&#45;&gt;Node28</title>
<path fill="none" stroke="midnightblue" d="M359.592,-139.017C372.806,-140.66 386.22,-142.328 398.832,-143.896"/>
<polygon fill="midnightblue" stroke="midnightblue" points="398.401,-147.369 408.757,-145.13 399.265,-140.423 398.401,-147.369"/>
</g>
<!-- Node26 -->
<g id="node26" class="node"><title>Node26</title>
<g id="a_node26"><a xlink:href="classRa_1_1Core_1_1Animation_1_1Handle.html#aba876355658e5f8953033d3bb8f18533" target="_top" xlink:title="Ra::Core::Animation\l::Handle::size">
<polygon fill="white" stroke="black" points="594,-39 594,-69 700,-69 700,-39 594,-39"/>
<text text-anchor="start" x="602" y="-57" font-family="Helvetica,sans-Serif" font-size="10.00">Ra::Core::Animation</text>
<text text-anchor="middle" x="647" y="-46" font-family="Helvetica,sans-Serif" font-size="10.00">::Handle::size</text>
</a>
</g>
</g>
<!-- Node25&#45;&gt;Node26 -->
<g id="edge27" class="edge"><title>Node25&#45;&gt;Node26</title>
<path fill="none" stroke="midnightblue" d="M518.063,-54C538.497,-54 562.124,-54 583.47,-54"/>
<polygon fill="midnightblue" stroke="midnightblue" points="583.742,-57.5001 593.742,-54 583.742,-50.5001 583.742,-57.5001"/>
</g>
<!-- Node30&#45;&gt;Node17 -->
<g id="edge32" class="edge"><title>Node30&#45;&gt;Node17</title>
<path fill="none" stroke="midnightblue" d="M322.692,-273.013C345.209,-273.406 371.909,-273.807 396,-274 457.331,-274.491 473.459,-283.825 534,-274 550.648,-271.298 553.958,-267.206 570,-262 575.873,-260.094 582.008,-258.123 588.135,-256.168"/>
<polygon fill="midnightblue" stroke="midnightblue" points="589.249,-259.487 597.718,-253.12 587.127,-252.816 589.249,-259.487"/>
</g>
<!-- Node31 -->
<g id="node31" class="node"><title>Node31</title>
<g id="a_node31"><a xlink:href="classRa_1_1Engine_1_1Component.html#aa3e5cb90432a9a49e4362b673652ff76" target="_top" xlink:title="Return the component&#39;s name. ">
<polygon fill="white" stroke="black" points="404,-186 404,-216 526,-216 526,-186 404,-186"/>
<text text-anchor="start" x="412" y="-204" font-family="Helvetica,sans-Serif" font-size="10.00">Ra::Engine::Component</text>
<text text-anchor="middle" x="465" y="-193" font-family="Helvetica,sans-Serif" font-size="10.00">::getName</text>
</a>
</g>
</g>
<!-- Node30&#45;&gt;Node31 -->
<g id="edge33" class="edge"><title>Node30&#45;&gt;Node31</title>
<path fill="none" stroke="midnightblue" d="M310.333,-256.977C334.911,-247.647 367.246,-235.479 396,-225 400.874,-223.224 405.952,-221.394 411.04,-219.574"/>
<polygon fill="midnightblue" stroke="midnightblue" points="412.539,-222.755 420.786,-216.103 410.191,-216.161 412.539,-222.755"/>
</g>
<!-- Node32 -->
<g id="node32" class="node"><title>Node32</title>
<g id="a_node32"><a xlink:href="classRa_1_1Engine_1_1Component.html#aa9416af3319ba92aa7b532952c75e477" target="_top" xlink:title="Set the system to which the component belongs. ">
<polygon fill="white" stroke="black" points="404,-235 404,-265 526,-265 526,-235 404,-235"/>
<text text-anchor="start" x="412" y="-253" font-family="Helvetica,sans-Serif" font-size="10.00">Ra::Engine::Component</text>
<text text-anchor="middle" x="465" y="-242" font-family="Helvetica,sans-Serif" font-size="10.00">::setSystem</text>
</a>
</g>
</g>
<!-- Node30&#45;&gt;Node32 -->
<g id="edge34" class="edge"><title>Node30&#45;&gt;Node32</title>
<path fill="none" stroke="midnightblue" d="M322.72,-266.104C344.508,-263.621 370.208,-260.691 393.674,-258.016"/>
<polygon fill="midnightblue" stroke="midnightblue" points="394.386,-261.458 403.926,-256.848 393.593,-254.503 394.386,-261.458"/>
</g>
</g>
</svg>
