<?xml version="1.0" encoding="UTF-8" standalone="no"?>
<!DOCTYPE svg PUBLIC "-//W3C//DTD SVG 1.1//EN"
 "http://www.w3.org/Graphics/SVG/1.1/DTD/svg11.dtd">
<!-- Generated by graphviz version 2.36.0 (20140111.2315)
 -->
<!-- Title: AnimationPlugin::AnimationComponent::handleSkeletonLoading Pages: 1 -->
<svg width="546pt" height="523pt"
 viewBox="0.00 0.00 546.00 523.00" xmlns="http://www.w3.org/2000/svg" xmlns:xlink="http://www.w3.org/1999/xlink">
<g id="graph0" class="graph" transform="scale(1 1) rotate(0) translate(4 519)">
<title>AnimationPlugin::AnimationComponent::handleSkeletonLoading</title>
<polygon fill="white" stroke="none" points="-4,4 -4,-519 542,-519 542,4 -4,4"/>
<!-- Node1 -->
<g id="node1" class="node"><title>Node1</title>
<polygon fill="#bfbfbf" stroke="black" points="0.5,-392 0.5,-422 173.5,-422 173.5,-392 0.5,-392"/>
<text text-anchor="start" x="8.5" y="-410" font-family="Helvetica,sans-Serif" font-size="10.00">AnimationPlugin::Animation</text>
<text text-anchor="middle" x="87" y="-399" font-family="Helvetica,sans-Serif" font-size="10.00">Component::handleSkeletonLoading</text>
</g>
<!-- Node2 -->
<g id="node2" class="node"><title>Node2</title>
<g id="a_node2"><a xlink:href="classRa_1_1Asset_1_1AssetData.html#a8b107d2673623febe173f37f14ff777d" target="_top" xlink:title="Ra::Asset::AssetData\l::getName">
<polygon fill="white" stroke="black" points="222.5,-485 222.5,-515 335.5,-515 335.5,-485 222.5,-485"/>
<text text-anchor="start" x="230.5" y="-503" font-family="Helvetica,sans-Serif" font-size="10.00">Ra::Asset::AssetData</text>
<text text-anchor="middle" x="279" y="-492" font-family="Helvetica,sans-Serif" font-size="10.00">::getName</text>
</a>
</g>
</g>
<!-- Node1&#45;&gt;Node2 -->
<g id="edge1" class="edge"><title>Node1&#45;&gt;Node2</title>
<path fill="none" stroke="midnightblue" d="M112.64,-422.238C136.87,-436.859 175.182,-459.015 210,-475 214.667,-477.143 219.575,-479.238 224.528,-481.246"/>
<polygon fill="midnightblue" stroke="midnightblue" points="223.471,-484.591 234.059,-484.99 226.031,-478.076 223.471,-484.591"/>
</g>
<!-- Node3 -->
<g id="node3" class="node"><title>Node3</title>
<g id="a_node3"><a xlink:href="classRa_1_1Core_1_1Animation_1_1Handle.html#ae8dab79a9d571d2a876ec9aaeb36959c" target="_top" xlink:title="Ra::Core::Animation\l::Handle::setName">
<polygon fill="white" stroke="black" points="226,-436 226,-466 332,-466 332,-436 226,-436"/>
<text text-anchor="start" x="234" y="-454" font-family="Helvetica,sans-Serif" font-size="10.00">Ra::Core::Animation</text>
<text text-anchor="middle" x="279" y="-443" font-family="Helvetica,sans-Serif" font-size="10.00">::Handle::setName</text>
</a>
</g>
</g>
<!-- Node1&#45;&gt;Node3 -->
<g id="edge2" class="edge"><title>Node1&#45;&gt;Node3</title>
<path fill="none" stroke="midnightblue" d="M152.856,-422.019C173.18,-426.726 195.558,-431.908 215.702,-436.573"/>
<polygon fill="midnightblue" stroke="midnightblue" points="215.168,-440.042 225.7,-438.888 216.747,-433.222 215.168,-440.042"/>
</g>
<!-- Node4 -->
<g id="node4" class="node"><title>Node4</title>
<g id="a_node4"><a xlink:href="namespaceRa_1_1Asset.html#a6af505cc4650dadb43465972bf52117d" target="_top" xlink:title="Ra::Asset::createSkeleton">
<polygon fill="white" stroke="black" points="213,-397.5 213,-416.5 345,-416.5 345,-397.5 213,-397.5"/>
<text text-anchor="middle" x="279" y="-404.5" font-family="Helvetica,sans-Serif" font-size="10.00">Ra::Asset::createSkeleton</text>
</a>
</g>
</g>
<!-- Node1&#45;&gt;Node4 -->
<g id="edge3" class="edge"><title>Node1&#45;&gt;Node4</title>
<path fill="none" stroke="midnightblue" d="M173.551,-407C183.244,-407 193.069,-407 202.618,-407"/>
<polygon fill="midnightblue" stroke="midnightblue" points="202.852,-410.5 212.852,-407 202.852,-403.5 202.852,-410.5"/>
</g>
<!-- Node9 -->
<g id="node9" class="node"><title>Node9</title>
<g id="a_node9"><a xlink:href="classRa_1_1Core_1_1Animation_1_1Skeleton.html#acb6381c3f288f580800589eb718c1759" target="_top" xlink:title="Ra::Core::Animation\l::Skeleton::getPose">
<polygon fill="white" stroke="black" points="226,-348 226,-378 332,-378 332,-348 226,-348"/>
<text text-anchor="start" x="234" y="-366" font-family="Helvetica,sans-Serif" font-size="10.00">Ra::Core::Animation</text>
<text text-anchor="middle" x="279" y="-355" font-family="Helvetica,sans-Serif" font-size="10.00">::Skeleton::getPose</text>
</a>
</g>
</g>
<!-- Node1&#45;&gt;Node9 -->
<g id="edge8" class="edge"><title>Node1&#45;&gt;Node9</title>
<path fill="none" stroke="midnightblue" d="M152.856,-391.981C173.18,-387.274 195.558,-382.092 215.702,-377.427"/>
<polygon fill="midnightblue" stroke="midnightblue" points="216.747,-380.778 225.7,-375.112 215.168,-373.958 216.747,-380.778"/>
</g>
<!-- Node10 -->
<g id="node10" class="node"><title>Node10</title>
<g id="a_node10"><a xlink:href="classAnimationPlugin_1_1AnimationComponent.html#a251513eec1518af149974a0f1993933d" target="_top" xlink:title="AnimationPlugin::Animation\lComponent::setupIO">
<polygon fill="white" stroke="black" points="210.5,-171 210.5,-201 347.5,-201 347.5,-171 210.5,-171"/>
<text text-anchor="start" x="218.5" y="-189" font-family="Helvetica,sans-Serif" font-size="10.00">AnimationPlugin::Animation</text>
<text text-anchor="middle" x="279" y="-178" font-family="Helvetica,sans-Serif" font-size="10.00">Component::setupIO</text>
</a>
</g>
</g>
<!-- Node1&#45;&gt;Node10 -->
<g id="edge9" class="edge"><title>Node1&#45;&gt;Node10</title>
<path fill="none" stroke="midnightblue" d="M101.059,-391.81C133.815,-353.71 219.606,-253.922 258.422,-208.772"/>
<polygon fill="midnightblue" stroke="midnightblue" points="261.235,-210.869 265.1,-201.004 255.927,-206.305 261.235,-210.869"/>
</g>
<!-- Node5 -->
<g id="node5" class="node"><title>Node5</title>
<g id="a_node5"><a xlink:href="namespaceRa_1_1Core.html#abc0a3625137098b67838fe52edd480f9" target="_top" xlink:title="SIZE. ">
<polygon fill="white" stroke="black" points="421,-490.5 421,-509.5 501,-509.5 501,-490.5 421,-490.5"/>
<text text-anchor="middle" x="461" y="-497.5" font-family="Helvetica,sans-Serif" font-size="10.00">Ra::Core::size</text>
</a>
</g>
</g>
<!-- Node4&#45;&gt;Node5 -->
<g id="edge4" class="edge"><title>Node4&#45;&gt;Node5</title>
<path fill="none" stroke="midnightblue" d="M328.054,-416.569C335.13,-419.24 342.034,-422.65 348,-427 371.008,-443.778 360.754,-463.554 384,-480 392.019,-485.673 401.538,-489.737 411.079,-492.648"/>
<polygon fill="midnightblue" stroke="midnightblue" points="410.404,-496.09 420.968,-495.284 412.207,-489.327 410.404,-496.09"/>
</g>
<!-- Node6 -->
<g id="node6" class="node"><title>Node6</title>
<g id="a_node6"><a xlink:href="classRa_1_1Asset_1_1HandleData.html#aac2741c32466647b58b76e8310d90ecb" target="_top" xlink:title="DATA. ">
<polygon fill="white" stroke="black" points="397.5,-441 397.5,-471 524.5,-471 524.5,-441 397.5,-441"/>
<text text-anchor="start" x="405.5" y="-459" font-family="Helvetica,sans-Serif" font-size="10.00">Ra::Asset::HandleData</text>
<text text-anchor="middle" x="461" y="-448" font-family="Helvetica,sans-Serif" font-size="10.00">::getComponentDataSize</text>
</a>
</g>
</g>
<!-- Node4&#45;&gt;Node6 -->
<g id="edge5" class="edge"><title>Node4&#45;&gt;Node6</title>
<path fill="none" stroke="midnightblue" d="M315.133,-416.564C337.822,-422.74 368.034,-430.965 394.996,-438.304"/>
<polygon fill="midnightblue" stroke="midnightblue" points="394.194,-441.713 404.762,-440.963 396.033,-434.959 394.194,-441.713"/>
</g>
<!-- Node7 -->
<g id="node7" class="node"><title>Node7</title>
<g id="a_node7"><a xlink:href="classRa_1_1Asset_1_1HandleData.html#adeb89ae26f34f0878a089ed7ecd64e24" target="_top" xlink:title="Ra::Asset::HandleData\l::getComponentData">
<polygon fill="white" stroke="black" points="401.5,-392 401.5,-422 520.5,-422 520.5,-392 401.5,-392"/>
<text text-anchor="start" x="409.5" y="-410" font-family="Helvetica,sans-Serif" font-size="10.00">Ra::Asset::HandleData</text>
<text text-anchor="middle" x="461" y="-399" font-family="Helvetica,sans-Serif" font-size="10.00">::getComponentData</text>
</a>
</g>
</g>
<!-- Node4&#45;&gt;Node7 -->
<g id="edge6" class="edge"><title>Node4&#45;&gt;Node7</title>
<path fill="none" stroke="midnightblue" d="M345.239,-407C360.117,-407 375.973,-407 391.003,-407"/>
<polygon fill="midnightblue" stroke="midnightblue" points="391.253,-410.5 401.253,-407 391.253,-403.5 391.253,-410.5"/>
</g>
<!-- Node8 -->
<g id="node8" class="node"><title>Node8</title>
<g id="a_node8"><a xlink:href="classRa_1_1Asset_1_1HandleData.html#abc56131631200e94ff38cf9e2af920bc" target="_top" xlink:title="Ra::Asset::HandleData\l::getEdgeData">
<polygon fill="white" stroke="black" points="401.5,-343 401.5,-373 520.5,-373 520.5,-343 401.5,-343"/>
<text text-anchor="start" x="409.5" y="-361" font-family="Helvetica,sans-Serif" font-size="10.00">Ra::Asset::HandleData</text>
<text text-anchor="middle" x="461" y="-350" font-family="Helvetica,sans-Serif" font-size="10.00">::getEdgeData</text>
</a>
</g>
</g>
<!-- Node4&#45;&gt;Node8 -->
<g id="edge7" class="edge"><title>Node4&#45;&gt;Node8</title>
<path fill="none" stroke="midnightblue" d="M315.133,-397.436C337.822,-391.26 368.034,-383.035 394.996,-375.696"/>
<polygon fill="midnightblue" stroke="midnightblue" points="396.033,-379.041 404.762,-373.037 394.194,-372.287 396.033,-379.041"/>
</g>
<!-- Node11 -->
<g id="node11" class="node"><title>Node11</title>
<g id="a_node11"><a xlink:href="classAnimationPlugin_1_1AnimationComponent.html#a39fe3e23030621e4f50f42478193ad00" target="_top" xlink:title="AnimationPlugin::Animation\lComponent::getSkeletonOutput">
<polygon fill="white" stroke="black" points="384,-294 384,-324 538,-324 538,-294 384,-294"/>
<text text-anchor="start" x="392" y="-312" font-family="Helvetica,sans-Serif" font-size="10.00">AnimationPlugin::Animation</text>
<text text-anchor="middle" x="461" y="-301" font-family="Helvetica,sans-Serif" font-size="10.00">Component::getSkeletonOutput</text>
</a>
</g>
</g>
<!-- Node10&#45;&gt;Node11 -->
<g id="edge10" class="edge"><title>Node10&#45;&gt;Node11</title>
<path fill="none" stroke="midnightblue" d="M292.209,-201.101C310.196,-222.427 345.837,-261.292 384,-284 387.46,-286.059 391.11,-287.972 394.864,-289.745"/>
<polygon fill="midnightblue" stroke="midnightblue" points="393.792,-293.096 404.358,-293.872 396.582,-286.676 393.792,-293.096"/>
</g>
<!-- Node12 -->
<g id="node12" class="node"><title>Node12</title>
<g id="a_node12"><a xlink:href="classRa_1_1Engine_1_1Component.html#a207c1dc2e97856c22e0767fb77162933" target="_top" xlink:title="Return the entity the component belongs to. ">
<polygon fill="white" stroke="black" points="400,-245 400,-275 522,-275 522,-245 400,-245"/>
<text text-anchor="start" x="408" y="-263" font-family="Helvetica,sans-Serif" font-size="10.00">Ra::Engine::Component</text>
<text text-anchor="middle" x="461" y="-252" font-family="Helvetica,sans-Serif" font-size="10.00">::getEntity</text>
</a>
</g>
</g>
<!-- Node10&#45;&gt;Node12 -->
<g id="edge11" class="edge"><title>Node10&#45;&gt;Node12</title>
<path fill="none" stroke="midnightblue" d="M309.609,-201.138C330.189,-211.365 358.411,-224.808 384,-235 389.539,-237.206 395.356,-239.375 401.204,-241.458"/>
<polygon fill="midnightblue" stroke="midnightblue" points="400.435,-244.896 411.03,-244.872 402.732,-238.283 400.435,-244.896"/>
</g>
<!-- Node13 -->
<g id="node13" class="node"><title>Node13</title>
<g id="a_node13"><a xlink:href="classAnimationPlugin_1_1AnimationComponent.html#a878356cef90f1de7b383b02be973d561" target="_top" xlink:title="AnimationPlugin::Animation\lComponent::getRefPoseOutput">
<polygon fill="white" stroke="black" points="384,-196 384,-226 538,-226 538,-196 384,-196"/>
<text text-anchor="start" x="392" y="-214" font-family="Helvetica,sans-Serif" font-size="10.00">AnimationPlugin::Animation</text>
<text text-anchor="middle" x="461" y="-203" font-family="Helvetica,sans-Serif" font-size="10.00">Component::getRefPoseOutput</text>
</a>
</g>
</g>
<!-- Node10&#45;&gt;Node13 -->
<g id="edge12" class="edge"><title>Node10&#45;&gt;Node13</title>
<path fill="none" stroke="midnightblue" d="M347.537,-195.38C356.163,-196.578 365.082,-197.817 373.95,-199.049"/>
<polygon fill="midnightblue" stroke="midnightblue" points="373.535,-202.525 383.922,-200.434 374.498,-195.591 373.535,-202.525"/>
</g>
<!-- Node14 -->
<g id="node14" class="node"><title>Node14</title>
<g id="a_node14"><a xlink:href="classAnimationPlugin_1_1AnimationComponent.html#a903f653764d3e90fc10e499948dea1e0" target="_top" xlink:title="AnimationPlugin::Animation\lComponent::getWeightsOutput">
<polygon fill="white" stroke="black" points="385,-147 385,-177 537,-177 537,-147 385,-147"/>
<text text-anchor="start" x="393" y="-165" font-family="Helvetica,sans-Serif" font-size="10.00">AnimationPlugin::Animation</text>
<text text-anchor="middle" x="461" y="-154" font-family="Helvetica,sans-Serif" font-size="10.00">Component::getWeightsOutput</text>
</a>
</g>
</g>
<!-- Node10&#45;&gt;Node14 -->
<g id="edge13" class="edge"><title>Node10&#45;&gt;Node14</title>
<path fill="none" stroke="midnightblue" d="M347.537,-176.995C356.475,-175.803 365.728,-174.57 374.913,-173.345"/>
<polygon fill="midnightblue" stroke="midnightblue" points="375.385,-176.813 384.835,-172.022 374.46,-169.874 375.385,-176.813"/>
</g>
<!-- Node15 -->
<g id="node15" class="node"><title>Node15</title>
<g id="a_node15"><a xlink:href="classAnimationPlugin_1_1AnimationComponent.html#a1bc2edd80668f7421ecaec99a22fa1bf" target="_top" xlink:title="AnimationPlugin::Animation\lComponent::getWasReset">
<polygon fill="white" stroke="black" points="392.5,-98 392.5,-128 529.5,-128 529.5,-98 392.5,-98"/>
<text text-anchor="start" x="400.5" y="-116" font-family="Helvetica,sans-Serif" font-size="10.00">AnimationPlugin::Animation</text>
<text text-anchor="middle" x="461" y="-105" font-family="Helvetica,sans-Serif" font-size="10.00">Component::getWasReset</text>
</a>
</g>
</g>
<!-- Node10&#45;&gt;Node15 -->
<g id="edge14" class="edge"><title>Node10&#45;&gt;Node15</title>
<path fill="none" stroke="midnightblue" d="M310.092,-170.997C330.648,-161.026 358.651,-147.981 384,-138 389.767,-135.729 395.833,-133.49 401.919,-131.341"/>
<polygon fill="midnightblue" stroke="midnightblue" points="403.148,-134.62 411.457,-128.047 400.862,-128.003 403.148,-134.62"/>
</g>
<!-- Node16 -->
<g id="node16" class="node"><title>Node16</title>
<g id="a_node16"><a xlink:href="classAnimationPlugin_1_1AnimationComponent.html#adb46f8233101fbeb83d9b1234efbf770" target="_top" xlink:title="AnimationPlugin::Animation\lComponent::getAnimation">
<polygon fill="white" stroke="black" points="392.5,-49 392.5,-79 529.5,-79 529.5,-49 392.5,-49"/>
<text text-anchor="start" x="400.5" y="-67" font-family="Helvetica,sans-Serif" font-size="10.00">AnimationPlugin::Animation</text>
<text text-anchor="middle" x="461" y="-56" font-family="Helvetica,sans-Serif" font-size="10.00">Component::getAnimation</text>
</a>
</g>
</g>
<!-- Node10&#45;&gt;Node16 -->
<g id="edge15" class="edge"><title>Node10&#45;&gt;Node16</title>
<path fill="none" stroke="midnightblue" d="M292.172,-170.837C310.115,-149.436 345.702,-110.48 384,-88 386.864,-86.319 389.859,-84.7422 392.935,-83.2649"/>
<polygon fill="midnightblue" stroke="midnightblue" points="394.609,-86.3524 402.357,-79.1266 391.794,-79.9433 394.609,-86.3524"/>
</g>
<!-- Node17 -->
<g id="node17" class="node"><title>Node17</title>
<g id="a_node17"><a xlink:href="classAnimationPlugin_1_1AnimationComponent.html#ad2c3fe9ef62806d8b721c7daadbd0460" target="_top" xlink:title="AnimationPlugin::Animation\lComponent::getTimeOutput">
<polygon fill="white" stroke="black" points="392.5,-0 392.5,-30 529.5,-30 529.5,-0 392.5,-0"/>
<text text-anchor="start" x="400.5" y="-18" font-family="Helvetica,sans-Serif" font-size="10.00">AnimationPlugin::Animation</text>
<text text-anchor="middle" x="461" y="-7" font-family="Helvetica,sans-Serif" font-size="10.00">Component::getTimeOutput</text>
</a>
</g>
</g>
<!-- Node10&#45;&gt;Node17 -->
<g id="edge16" class="edge"><title>Node10&#45;&gt;Node17</title>
<path fill="none" stroke="midnightblue" d="M286.725,-170.601C300.546,-140.737 335.011,-74.7538 384,-39 386.054,-37.5011 388.204,-36.0938 390.427,-34.7725"/>
<polygon fill="midnightblue" stroke="midnightblue" points="392.092,-37.8512 399.306,-30.0918 388.828,-31.6588 392.092,-37.8512"/>
</g>
</g>
</svg>
