<?xml version="1.0" encoding="UTF-8" standalone="no"?>
<!DOCTYPE svg PUBLIC "-//W3C//DTD SVG 1.1//EN"
 "http://www.w3.org/Graphics/SVG/1.1/DTD/svg11.dtd">
<!-- Generated by graphviz version 2.36.0 (20140111.2315)
 -->
<!-- Title: Ra::Gui::CameraInterface::CameraInterface Pages: 1 -->
<svg width="306pt" height="136pt"
 viewBox="0.00 0.00 306.00 136.00" xmlns="http://www.w3.org/2000/svg" xmlns:xlink="http://www.w3.org/1999/xlink">
<g id="graph0" class="graph" transform="scale(1 1) rotate(0) translate(4 132)">
<title>Ra::Gui::CameraInterface::CameraInterface</title>
<polygon fill="white" stroke="none" points="-4,4 -4,-132 302,-132 302,4 -4,4"/>
<!-- Node1 -->
<g id="node1" class="node"><title>Node1</title>
<polygon fill="#bfbfbf" stroke="black" points="0.5,-49 0.5,-79 129.5,-79 129.5,-49 0.5,-49"/>
<text text-anchor="start" x="8.5" y="-67" font-family="Helvetica,sans-Serif" font-size="10.00">Ra::Gui::CameraInterface</text>
<text text-anchor="middle" x="65" y="-56" font-family="Helvetica,sans-Serif" font-size="10.00">::CameraInterface</text>
</g>
<!-- Node2 -->
<g id="node2" class="node"><title>Node2</title>
<g id="a_node2"><a xlink:href="classRa_1_1Gui_1_1CameraInterface.html#a47770206800ba8c8244c6c7fbfb5c90e" target="_top" xlink:title="Ra::Gui::CameraInterface\l::setCameraFovInDegrees">
<polygon fill="white" stroke="black" points="166,-98 166,-128 298,-128 298,-98 166,-98"/>
<text text-anchor="start" x="174" y="-116" font-family="Helvetica,sans-Serif" font-size="10.00">Ra::Gui::CameraInterface</text>
<text text-anchor="middle" x="232" y="-105" font-family="Helvetica,sans-Serif" font-size="10.00">::setCameraFovInDegrees</text>
</a>
</g>
</g>
<!-- Node1&#45;&gt;Node2 -->
<g id="edge1" class="edge"><title>Node1&#45;&gt;Node2</title>
<path fill="none" stroke="midnightblue" d="M116.852,-79.1014C133.869,-84.1551 153.004,-89.8376 170.673,-95.0848"/>
<polygon fill="midnightblue" stroke="midnightblue" points="169.733,-98.4567 180.316,-97.9484 171.726,-91.7464 169.733,-98.4567"/>
</g>
<!-- Node3 -->
<g id="node3" class="node"><title>Node3</title>
<g id="a_node3"><a xlink:href="classRa_1_1Gui_1_1CameraInterface.html#a3d772d8a443510243c338ac099c02df8" target="_top" xlink:title="Ra::Gui::CameraInterface\l::setCameraZNear">
<polygon fill="white" stroke="black" points="167.5,-49 167.5,-79 296.5,-79 296.5,-49 167.5,-49"/>
<text text-anchor="start" x="175.5" y="-67" font-family="Helvetica,sans-Serif" font-size="10.00">Ra::Gui::CameraInterface</text>
<text text-anchor="middle" x="232" y="-56" font-family="Helvetica,sans-Serif" font-size="10.00">::setCameraZNear</text>
</a>
</g>
</g>
<!-- Node1&#45;&gt;Node3 -->
<g id="edge2" class="edge"><title>Node1&#45;&gt;Node3</title>
<path fill="none" stroke="midnightblue" d="M129.793,-64C138.754,-64 148.026,-64 157.155,-64"/>
<polygon fill="midnightblue" stroke="midnightblue" points="157.376,-67.5001 167.376,-64 157.376,-60.5001 157.376,-67.5001"/>
</g>
<!-- Node4 -->
<g id="node4" class="node"><title>Node4</title>
<g id="a_node4"><a xlink:href="classRa_1_1Gui_1_1CameraInterface.html#a769b762f8256b20f93b7bd152d8f86a6" target="_top" xlink:title="Ra::Gui::CameraInterface\l::setCameraZFar">
<polygon fill="white" stroke="black" points="167.5,-0 167.5,-30 296.5,-30 296.5,-0 167.5,-0"/>
<text text-anchor="start" x="175.5" y="-18" font-family="Helvetica,sans-Serif" font-size="10.00">Ra::Gui::CameraInterface</text>
<text text-anchor="middle" x="232" y="-7" font-family="Helvetica,sans-Serif" font-size="10.00">::setCameraZFar</text>
</a>
</g>
</g>
<!-- Node1&#45;&gt;Node4 -->
<g id="edge3" class="edge"><title>Node1&#45;&gt;Node4</title>
<path fill="none" stroke="midnightblue" d="M116.852,-48.8986C133.869,-43.8449 153.004,-38.1624 170.673,-32.9152"/>
<polygon fill="midnightblue" stroke="midnightblue" points="171.726,-36.2536 180.316,-30.0516 169.733,-29.5433 171.726,-36.2536"/>
</g>
</g>
</svg>
