<?xml version="1.0" encoding="UTF-8" standalone="no"?>
<!DOCTYPE svg PUBLIC "-//W3C//DTD SVG 1.1//EN"
 "http://www.w3.org/Graphics/SVG/1.1/DTD/svg11.dtd">
<!-- Generated by graphviz version 2.36.0 (20140111.2315)
 -->
<!-- Title: AnimationPlugin::AnimationComponent Pages: 1 -->
<svg width="649pt" height="1666pt"
 viewBox="0.00 0.00 649.00 1666.00" xmlns="http://www.w3.org/2000/svg" xmlns:xlink="http://www.w3.org/1999/xlink">
<g id="graph0" class="graph" transform="scale(1 1) rotate(0) translate(4 1662)">
<title>AnimationPlugin::AnimationComponent</title>
<polygon fill="white" stroke="none" points="-4,4 -4,-1662 645,-1662 645,4 -4,4"/>
<!-- Node1 -->
<g id="node1" class="node"><title>Node1</title>
<polygon fill="#bfbfbf" stroke="black" points="313.5,-0.5 313.5,-431.5 456.5,-431.5 456.5,-0.5 313.5,-0.5"/>
<text text-anchor="start" x="321.5" y="-419.5" font-family="Helvetica,sans-Serif" font-size="10.00">AnimationPlugin::Animation</text>
<text text-anchor="middle" x="385" y="-408.5" font-family="Helvetica,sans-Serif" font-size="10.00">Component</text>
<polyline fill="none" stroke="black" points="313.5,-401.5 456.5,-401.5 "/>
<text text-anchor="middle" x="385" y="-389.5" font-family="Helvetica,sans-Serif" font-size="10.00"> </text>
<polyline fill="none" stroke="black" points="313.5,-382.5 456.5,-382.5 "/>
<text text-anchor="start" x="321.5" y="-370.5" font-family="Helvetica,sans-Serif" font-size="10.00">+ AnimationComponent()</text>
<text text-anchor="start" x="321.5" y="-359.5" font-family="Helvetica,sans-Serif" font-size="10.00">+ ~AnimationComponent()</text>
<text text-anchor="start" x="321.5" y="-348.5" font-family="Helvetica,sans-Serif" font-size="10.00">+ AnimationComponent()</text>
<text text-anchor="start" x="321.5" y="-337.5" font-family="Helvetica,sans-Serif" font-size="10.00">+ operator=()</text>
<text text-anchor="start" x="321.5" y="-326.5" font-family="Helvetica,sans-Serif" font-size="10.00">+ initialize()</text>
<text text-anchor="start" x="321.5" y="-315.5" font-family="Helvetica,sans-Serif" font-size="10.00">+ setSkeleton()</text>
<text text-anchor="start" x="321.5" y="-304.5" font-family="Helvetica,sans-Serif" font-size="10.00">+ getSkeleton()</text>
<text text-anchor="start" x="321.5" y="-293.5" font-family="Helvetica,sans-Serif" font-size="10.00">+ getWeights()</text>
<text text-anchor="start" x="321.5" y="-282.5" font-family="Helvetica,sans-Serif" font-size="10.00">+ getRefPose()</text>
<text text-anchor="start" x="321.5" y="-271.5" font-family="Helvetica,sans-Serif" font-size="10.00">+ update()</text>
<text text-anchor="start" x="321.5" y="-260.5" font-family="Helvetica,sans-Serif" font-size="10.00">+ reset()</text>
<text text-anchor="start" x="321.5" y="-249.5" font-family="Helvetica,sans-Serif" font-size="10.00">+ setXray()</text>
<text text-anchor="start" x="321.5" y="-238.5" font-family="Helvetica,sans-Serif" font-size="10.00">+ toggleSkeleton()</text>
<text text-anchor="start" x="321.5" y="-227.5" font-family="Helvetica,sans-Serif" font-size="10.00">+ toggleAnimationTimeStep()</text>
<text text-anchor="start" x="321.5" y="-216.5" font-family="Helvetica,sans-Serif" font-size="10.00">+ setSpeed()</text>
<text text-anchor="start" x="321.5" y="-205.5" font-family="Helvetica,sans-Serif" font-size="10.00">+ toggleSlowMotion()</text>
<text text-anchor="start" x="321.5" y="-194.5" font-family="Helvetica,sans-Serif" font-size="10.00">+ setAnimation()</text>
<text text-anchor="start" x="321.5" y="-183.5" font-family="Helvetica,sans-Serif" font-size="10.00">+ getBoneIdx()</text>
<text text-anchor="start" x="321.5" y="-172.5" font-family="Helvetica,sans-Serif" font-size="10.00">+ getTime()</text>
<text text-anchor="start" x="321.5" y="-161.5" font-family="Helvetica,sans-Serif" font-size="10.00">+ handleSkeletonLoading()</text>
<text text-anchor="start" x="321.5" y="-150.5" font-family="Helvetica,sans-Serif" font-size="10.00">+ handleAnimationLoading()</text>
<text text-anchor="start" x="321.5" y="-139.5" font-family="Helvetica,sans-Serif" font-size="10.00">+ canEdit()</text>
<text text-anchor="start" x="321.5" y="-128.5" font-family="Helvetica,sans-Serif" font-size="10.00">+ getTransform()</text>
<text text-anchor="start" x="321.5" y="-117.5" font-family="Helvetica,sans-Serif" font-size="10.00">+ setTransform()</text>
<text text-anchor="start" x="321.5" y="-106.5" font-family="Helvetica,sans-Serif" font-size="10.00">+ printSkeleton()</text>
<text text-anchor="start" x="321.5" y="-95.5" font-family="Helvetica,sans-Serif" font-size="10.00">+ setWeights()</text>
<text text-anchor="start" x="321.5" y="-84.5" font-family="Helvetica,sans-Serif" font-size="10.00">+ setContentName()</text>
<text text-anchor="start" x="321.5" y="-73.5" font-family="Helvetica,sans-Serif" font-size="10.00">+ setupIO()</text>
<text text-anchor="start" x="321.5" y="-62.5" font-family="Helvetica,sans-Serif" font-size="10.00">+ getSkeletonOutput()</text>
<text text-anchor="start" x="321.5" y="-51.5" font-family="Helvetica,sans-Serif" font-size="10.00">+ getRefPoseOutput()</text>
<text text-anchor="start" x="321.5" y="-40.5" font-family="Helvetica,sans-Serif" font-size="10.00">+ getWeightsOutput()</text>
<text text-anchor="start" x="321.5" y="-29.5" font-family="Helvetica,sans-Serif" font-size="10.00">+ getWasReset()</text>
<text text-anchor="start" x="321.5" y="-18.5" font-family="Helvetica,sans-Serif" font-size="10.00">+ getAnimation()</text>
<text text-anchor="start" x="321.5" y="-7.5" font-family="Helvetica,sans-Serif" font-size="10.00">+ getTimeOutput()</text>
</g>
<!-- Node2 -->
<g id="node2" class="node"><title>Node2</title>
<g id="a_node2"><a xlink:href="classRa_1_1Engine_1_1Component.html" target="_top" xlink:title="A component is an element that can be updated by a system. It is also linked to some other components...">
<polygon fill="white" stroke="black" points="310.5,-471 310.5,-693 459.5,-693 459.5,-471 310.5,-471"/>
<text text-anchor="middle" x="385" y="-681" font-family="Helvetica,sans-Serif" font-size="10.00">Ra::Engine::Component</text>
<polyline fill="none" stroke="black" points="310.5,-674 459.5,-674 "/>
<text text-anchor="middle" x="385" y="-662" font-family="Helvetica,sans-Serif" font-size="10.00"> </text>
<polyline fill="none" stroke="black" points="310.5,-655 459.5,-655 "/>
<text text-anchor="start" x="318.5" y="-643" font-family="Helvetica,sans-Serif" font-size="10.00">+ Component()</text>
<text text-anchor="start" x="318.5" y="-632" font-family="Helvetica,sans-Serif" font-size="10.00">+ ~Component()</text>
<text text-anchor="start" x="318.5" y="-621" font-family="Helvetica,sans-Serif" font-size="10.00">+ initialize()</text>
<text text-anchor="start" x="318.5" y="-610" font-family="Helvetica,sans-Serif" font-size="10.00">+ setEntity()</text>
<text text-anchor="start" x="318.5" y="-599" font-family="Helvetica,sans-Serif" font-size="10.00">+ getEntity()</text>
<text text-anchor="start" x="318.5" y="-588" font-family="Helvetica,sans-Serif" font-size="10.00">+ getName()</text>
<text text-anchor="start" x="318.5" y="-577" font-family="Helvetica,sans-Serif" font-size="10.00">+ setSystem()</text>
<text text-anchor="start" x="318.5" y="-566" font-family="Helvetica,sans-Serif" font-size="10.00">+ getSystem()</text>
<text text-anchor="start" x="318.5" y="-555" font-family="Helvetica,sans-Serif" font-size="10.00">+ addRenderObject()</text>
<text text-anchor="start" x="318.5" y="-544" font-family="Helvetica,sans-Serif" font-size="10.00">+ removeRenderObject()</text>
<text text-anchor="start" x="318.5" y="-533" font-family="Helvetica,sans-Serif" font-size="10.00">+ rayCastQuery()</text>
<text text-anchor="start" x="318.5" y="-522" font-family="Helvetica,sans-Serif" font-size="10.00">+ canEdit()</text>
<text text-anchor="start" x="318.5" y="-511" font-family="Helvetica,sans-Serif" font-size="10.00">+ getTransform()</text>
<text text-anchor="start" x="318.5" y="-500" font-family="Helvetica,sans-Serif" font-size="10.00">+ setTransform()</text>
<text text-anchor="start" x="318.5" y="-489" font-family="Helvetica,sans-Serif" font-size="10.00">+ notifyRenderObjectExpired()</text>
<text text-anchor="start" x="318.5" y="-478" font-family="Helvetica,sans-Serif" font-size="10.00"># getRoMgr()</text>
</a>
</g>
</g>
<!-- Node2&#45;&gt;Node1 -->
<g id="edge1" class="edge"><title>Node2&#45;&gt;Node1</title>
<path fill="none" stroke="midnightblue" d="M385,-460.686C385,-451.27 385,-441.604 385,-431.807"/>
<polygon fill="none" stroke="midnightblue" points="381.5,-460.8 385,-470.8 388.5,-460.8 381.5,-460.8"/>
</g>
<!-- Node3 -->
<g id="node3" class="node"><title>Node3</title>
<polygon fill="white" stroke="#bfbfbf" points="65.5,-1042 65.5,-1110 164.5,-1110 164.5,-1042 65.5,-1042"/>
<text text-anchor="start" x="73.5" y="-1098" font-family="Helvetica,sans-Serif" font-size="10.00">std::vector&lt; Core::</text>
<text text-anchor="middle" x="115" y="-1087" font-family="Helvetica,sans-Serif" font-size="10.00">Index &gt;</text>
<polyline fill="none" stroke="#bfbfbf" points="65.5,-1080 164.5,-1080 "/>
<text text-anchor="middle" x="115" y="-1068" font-family="Helvetica,sans-Serif" font-size="10.00"> </text>
<polyline fill="none" stroke="#bfbfbf" points="65.5,-1061 164.5,-1061 "/>
<text text-anchor="middle" x="115" y="-1049" font-family="Helvetica,sans-Serif" font-size="10.00"> </text>
</g>
<!-- Node3&#45;&gt;Node2 -->
<g id="edge2" class="edge"><title>Node3&#45;&gt;Node2</title>
<path fill="none" stroke="#404040" d="M108.851,-1041.91C98.9074,-978.632 85.7492,-838.229 143,-742 178.168,-682.888 244.873,-641.544 299.357,-615.86"/>
<polygon fill="none" stroke="#404040" points="299.525,-615.783 303.308,-609.644 310.43,-610.774 306.647,-616.914 299.525,-615.783"/>
<text text-anchor="middle" x="185" y="-862.5" font-family="Helvetica,sans-Serif" font-size="10.00"> +m_renderObjects</text>
</g>
<!-- Node4 -->
<g id="node4" class="node"><title>Node4</title>
<g id="a_node4"><a xlink:href="classRa_1_1Core_1_1Index.html" target="_top" xlink:title="{Ra::Core::Index\n||+ Index()\l+ Index()\l+ isValid()\l+ isInvalid()\l+ setInvalid()\l+ getValue()\l+ setValue()\l+ operator int()\l+ operator=()\l+ operator++()\l+ operator&#45;&#45;()\l+ operator+()\l+ operator+()\l+ operator&#45;()\l+ operator&#45;()\l+ operator==()\l+ operator==()\l+ operator!=()\l+ operator!=()\l+ operator\&lt;()\l+ operator\&lt;()\l+ operator\&lt;=()\l+ operator\&lt;=()\l+ operator\&gt;()\l+ operator\&gt;()\l+ operator\&gt;=()\l+ operator\&gt;=()\l+ Invalid()\l+ Max()\l}">
<polygon fill="white" stroke="black" points="0,-1186.5 0,-1551.5 86,-1551.5 86,-1186.5 0,-1186.5"/>
<text text-anchor="middle" x="43" y="-1539.5" font-family="Helvetica,sans-Serif" font-size="10.00">Ra::Core::Index</text>
<polyline fill="none" stroke="black" points="0,-1532.5 86,-1532.5 "/>
<text text-anchor="middle" x="43" y="-1520.5" font-family="Helvetica,sans-Serif" font-size="10.00"> </text>
<polyline fill="none" stroke="black" points="0,-1513.5 86,-1513.5 "/>
<text text-anchor="start" x="8" y="-1501.5" font-family="Helvetica,sans-Serif" font-size="10.00">+ Index()</text>
<text text-anchor="start" x="8" y="-1490.5" font-family="Helvetica,sans-Serif" font-size="10.00">+ Index()</text>
<text text-anchor="start" x="8" y="-1479.5" font-family="Helvetica,sans-Serif" font-size="10.00">+ isValid()</text>
<text text-anchor="start" x="8" y="-1468.5" font-family="Helvetica,sans-Serif" font-size="10.00">+ isInvalid()</text>
<text text-anchor="start" x="8" y="-1457.5" font-family="Helvetica,sans-Serif" font-size="10.00">+ setInvalid()</text>
<text text-anchor="start" x="8" y="-1446.5" font-family="Helvetica,sans-Serif" font-size="10.00">+ getValue()</text>
<text text-anchor="start" x="8" y="-1435.5" font-family="Helvetica,sans-Serif" font-size="10.00">+ setValue()</text>
<text text-anchor="start" x="8" y="-1424.5" font-family="Helvetica,sans-Serif" font-size="10.00">+ operator int()</text>
<text text-anchor="start" x="8" y="-1413.5" font-family="Helvetica,sans-Serif" font-size="10.00">+ operator=()</text>
<text text-anchor="start" x="8" y="-1402.5" font-family="Helvetica,sans-Serif" font-size="10.00">+ operator++()</text>
<text text-anchor="start" x="8" y="-1391.5" font-family="Helvetica,sans-Serif" font-size="10.00">+ operator&#45;&#45;()</text>
<text text-anchor="start" x="8" y="-1380.5" font-family="Helvetica,sans-Serif" font-size="10.00">+ operator+()</text>
<text text-anchor="start" x="8" y="-1369.5" font-family="Helvetica,sans-Serif" font-size="10.00">+ operator+()</text>
<text text-anchor="start" x="8" y="-1358.5" font-family="Helvetica,sans-Serif" font-size="10.00">+ operator&#45;()</text>
<text text-anchor="start" x="8" y="-1347.5" font-family="Helvetica,sans-Serif" font-size="10.00">+ operator&#45;()</text>
<text text-anchor="start" x="8" y="-1336.5" font-family="Helvetica,sans-Serif" font-size="10.00">+ operator==()</text>
<text text-anchor="start" x="8" y="-1325.5" font-family="Helvetica,sans-Serif" font-size="10.00">+ operator==()</text>
<text text-anchor="start" x="8" y="-1314.5" font-family="Helvetica,sans-Serif" font-size="10.00">+ operator!=()</text>
<text text-anchor="start" x="8" y="-1303.5" font-family="Helvetica,sans-Serif" font-size="10.00">+ operator!=()</text>
<text text-anchor="start" x="8" y="-1292.5" font-family="Helvetica,sans-Serif" font-size="10.00">+ operator&lt;()</text>
<text text-anchor="start" x="8" y="-1281.5" font-family="Helvetica,sans-Serif" font-size="10.00">+ operator&lt;()</text>
<text text-anchor="start" x="8" y="-1270.5" font-family="Helvetica,sans-Serif" font-size="10.00">+ operator&lt;=()</text>
<text text-anchor="start" x="8" y="-1259.5" font-family="Helvetica,sans-Serif" font-size="10.00">+ operator&lt;=()</text>
<text text-anchor="start" x="8" y="-1248.5" font-family="Helvetica,sans-Serif" font-size="10.00">+ operator&gt;()</text>
<text text-anchor="start" x="8" y="-1237.5" font-family="Helvetica,sans-Serif" font-size="10.00">+ operator&gt;()</text>
<text text-anchor="start" x="8" y="-1226.5" font-family="Helvetica,sans-Serif" font-size="10.00">+ operator&gt;=()</text>
<text text-anchor="start" x="8" y="-1215.5" font-family="Helvetica,sans-Serif" font-size="10.00">+ operator&gt;=()</text>
<text text-anchor="start" x="8" y="-1204.5" font-family="Helvetica,sans-Serif" font-size="10.00">+ Invalid()</text>
<text text-anchor="start" x="8" y="-1193.5" font-family="Helvetica,sans-Serif" font-size="10.00">+ Max()</text>
</a>
</g>
</g>
<!-- Node4&#45;&gt;Node3 -->
<g id="edge3" class="edge"><title>Node4&#45;&gt;Node3</title>
<path fill="none" stroke="#404040" d="M44.5648,-1186.38C48.3662,-1168.25 53.6882,-1150.48 61,-1134 63.2052,-1129.03 66.0344,-1124.22 69.2394,-1119.65"/>
<polygon fill="none" stroke="#404040" points="69.3626,-1119.5 69.9118,-1112.31 76.7601,-1110.05 76.2109,-1117.24 69.3626,-1119.5"/>
<text text-anchor="middle" x="85.5" y="-1148.5" font-family="Helvetica,sans-Serif" font-size="10.00"> +elements</text>
</g>
<!-- Node5 -->
<g id="node5" class="node"><title>Node5</title>
<polygon fill="white" stroke="#bfbfbf" points="28.5,-1600.5 28.5,-1657.5 57.5,-1657.5 57.5,-1600.5 28.5,-1600.5"/>
<text text-anchor="middle" x="43" y="-1645.5" font-family="Helvetica,sans-Serif" font-size="10.00">int</text>
<polyline fill="none" stroke="#bfbfbf" points="28.5,-1638.5 57.5,-1638.5 "/>
<text text-anchor="middle" x="43" y="-1626.5" font-family="Helvetica,sans-Serif" font-size="10.00"> </text>
<polyline fill="none" stroke="#bfbfbf" points="28.5,-1619.5 57.5,-1619.5 "/>
<text text-anchor="middle" x="43" y="-1607.5" font-family="Helvetica,sans-Serif" font-size="10.00"> </text>
</g>
<!-- Node5&#45;&gt;Node4 -->
<g id="edge4" class="edge"><title>Node5&#45;&gt;Node4</title>
<path fill="none" stroke="#404040" d="M43,-1600.39C43,-1590.23 43,-1577.82 43,-1564.06"/>
<polygon fill="none" stroke="#404040" points="43.0001,-1563.65 39,-1557.65 43,-1551.65 47,-1557.65 43.0001,-1563.65"/>
<text text-anchor="middle" x="60.5" y="-1573.5" font-family="Helvetica,sans-Serif" font-size="10.00"> #m_idx</text>
</g>
<!-- Node6 -->
<g id="node6" class="node"><title>Node6</title>
<g id="a_node6"><a xlink:title="STL class. ">
<polygon fill="white" stroke="#bfbfbf" points="135.5,-1340.5 135.5,-1397.5 222.5,-1397.5 222.5,-1340.5 135.5,-1340.5"/>
<text text-anchor="middle" x="179" y="-1385.5" font-family="Helvetica,sans-Serif" font-size="10.00">std::vector&lt; T &gt;</text>
<polyline fill="none" stroke="#bfbfbf" points="135.5,-1378.5 222.5,-1378.5 "/>
<text text-anchor="middle" x="179" y="-1366.5" font-family="Helvetica,sans-Serif" font-size="10.00"> </text>
<polyline fill="none" stroke="#bfbfbf" points="135.5,-1359.5 222.5,-1359.5 "/>
<text text-anchor="middle" x="179" y="-1347.5" font-family="Helvetica,sans-Serif" font-size="10.00"> </text>
</a>
</g>
</g>
<!-- Node6&#45;&gt;Node3 -->
<g id="edge5" class="edge"><title>Node6&#45;&gt;Node3</title>
<path fill="none" stroke="orange" d="M163.714,-1330.98C148.246,-1291.43 125.324,-1226.5 116,-1168 112.966,-1148.96 112.596,-1127.41 113.041,-1110.05"/>
<polygon fill="orange" stroke="orange" points="160.536,-1332.47 167.473,-1340.47 167.044,-1329.89 160.536,-1332.47"/>
<text text-anchor="middle" x="152.5" y="-1148.5" font-family="Helvetica,sans-Serif" font-size="10.00"> &lt; Core::Index &gt;</text>
</g>
<!-- Node9 -->
<g id="node9" class="node"><title>Node9</title>
<polygon fill="white" stroke="#bfbfbf" points="225.5,-1036.5 225.5,-1115.5 384.5,-1115.5 384.5,-1036.5 225.5,-1036.5"/>
<text text-anchor="start" x="233.5" y="-1103.5" font-family="Helvetica,sans-Serif" font-size="10.00">std::vector&lt; std::pair</text>
<text text-anchor="start" x="233.5" y="-1092.5" font-family="Helvetica,sans-Serif" font-size="10.00">&lt; const Ra::Engine::Entity</text>
<text text-anchor="middle" x="305" y="-1081.5" font-family="Helvetica,sans-Serif" font-size="10.00"> *, Ra::Engine::Component * &gt; &gt;</text>
<polyline fill="none" stroke="#bfbfbf" points="225.5,-1074.5 384.5,-1074.5 "/>
<text text-anchor="middle" x="305" y="-1062.5" font-family="Helvetica,sans-Serif" font-size="10.00"> </text>
<polyline fill="none" stroke="#bfbfbf" points="225.5,-1055.5 384.5,-1055.5 "/>
<text text-anchor="middle" x="305" y="-1043.5" font-family="Helvetica,sans-Serif" font-size="10.00"> </text>
</g>
<!-- Node6&#45;&gt;Node9 -->
<g id="edge10" class="edge"><title>Node6&#45;&gt;Node9</title>
<path fill="none" stroke="orange" d="M174.032,-1330.26C169.548,-1280.92 168.728,-1193.76 208,-1134 212.72,-1126.82 218.683,-1120.42 225.322,-1114.75"/>
<polygon fill="orange" stroke="orange" points="170.577,-1330.88 175.063,-1340.48 177.542,-1330.18 170.577,-1330.88"/>
<text text-anchor="start" x="208" y="-1159.5" font-family="Helvetica,sans-Serif" font-size="10.00"> &lt; std::pair&lt; const</text>
<text text-anchor="start" x="208" y="-1148.5" font-family="Helvetica,sans-Serif" font-size="10.00"> Ra::Engine::Entity</text>
<text text-anchor="middle" x="279.5" y="-1137.5" font-family="Helvetica,sans-Serif" font-size="10.00"> *, Ra::Engine::Component * &gt; &gt;</text>
</g>
<!-- Node7 -->
<g id="node7" class="node"><title>Node7</title>
<polygon fill="white" stroke="#bfbfbf" points="164.5,-1600.5 164.5,-1657.5 193.5,-1657.5 193.5,-1600.5 164.5,-1600.5"/>
<text text-anchor="middle" x="179" y="-1645.5" font-family="Helvetica,sans-Serif" font-size="10.00">T</text>
<polyline fill="none" stroke="#bfbfbf" points="164.5,-1638.5 193.5,-1638.5 "/>
<text text-anchor="middle" x="179" y="-1626.5" font-family="Helvetica,sans-Serif" font-size="10.00"> </text>
<polyline fill="none" stroke="#bfbfbf" points="164.5,-1619.5 193.5,-1619.5 "/>
<text text-anchor="middle" x="179" y="-1607.5" font-family="Helvetica,sans-Serif" font-size="10.00"> </text>
</g>
<!-- Node7&#45;&gt;Node6 -->
<g id="edge6" class="edge"><title>Node7&#45;&gt;Node6</title>
<path fill="none" stroke="#404040" d="M179,-1600.39C179,-1554.63 179,-1462.91 179,-1410.04"/>
<polygon fill="none" stroke="#404040" points="179,-1409.8 175,-1403.8 179,-1397.8 183,-1403.8 179,-1409.8"/>
<text text-anchor="middle" x="203.5" y="-1573.5" font-family="Helvetica,sans-Serif" font-size="10.00"> +elements</text>
</g>
<!-- Node8 -->
<g id="node8" class="node"><title>Node8</title>
<g id="a_node8"><a xlink:href="classRa_1_1Engine_1_1System.html" target="_top" xlink:title="{Ra::Engine::System\n||+ System()\l+ ~System()\l+ generateTasks()\l+ registerComponent()\l+ unregisterComponent()\l+ unregisterAllComponents()\l+ getEntityComponents()\l+ handleAssetLoading()\l}">
<polygon fill="white" stroke="black" points="236.5,-798 236.5,-932 377.5,-932 377.5,-798 236.5,-798"/>
<text text-anchor="middle" x="307" y="-920" font-family="Helvetica,sans-Serif" font-size="10.00">Ra::Engine::System</text>
<polyline fill="none" stroke="black" points="236.5,-913 377.5,-913 "/>
<text text-anchor="middle" x="307" y="-901" font-family="Helvetica,sans-Serif" font-size="10.00"> </text>
<polyline fill="none" stroke="black" points="236.5,-894 377.5,-894 "/>
<text text-anchor="start" x="244.5" y="-882" font-family="Helvetica,sans-Serif" font-size="10.00">+ System()</text>
<text text-anchor="start" x="244.5" y="-871" font-family="Helvetica,sans-Serif" font-size="10.00">+ ~System()</text>
<text text-anchor="start" x="244.5" y="-860" font-family="Helvetica,sans-Serif" font-size="10.00">+ generateTasks()</text>
<text text-anchor="start" x="244.5" y="-849" font-family="Helvetica,sans-Serif" font-size="10.00">+ registerComponent()</text>
<text text-anchor="start" x="244.5" y="-838" font-family="Helvetica,sans-Serif" font-size="10.00">+ unregisterComponent()</text>
<text text-anchor="start" x="244.5" y="-827" font-family="Helvetica,sans-Serif" font-size="10.00">+ unregisterAllComponents()</text>
<text text-anchor="start" x="244.5" y="-816" font-family="Helvetica,sans-Serif" font-size="10.00">+ getEntityComponents()</text>
<text text-anchor="start" x="244.5" y="-805" font-family="Helvetica,sans-Serif" font-size="10.00">+ handleAssetLoading()</text>
</a>
</g>
</g>
<!-- Node8&#45;&gt;Node2 -->
<g id="edge7" class="edge"><title>Node8&#45;&gt;Node2</title>
<path fill="none" stroke="#404040" d="M325.386,-797.763C333.108,-769.944 342.343,-736.676 351.211,-704.726"/>
<polygon fill="none" stroke="#404040" points="351.249,-704.589 349,-697.738 354.459,-693.027 356.708,-699.878 351.249,-704.589"/>
<text text-anchor="middle" x="376.5" y="-715.5" font-family="Helvetica,sans-Serif" font-size="10.00"> #m_system</text>
</g>
<!-- Node9&#45;&gt;Node8 -->
<g id="edge8" class="edge"><title>Node9&#45;&gt;Node8</title>
<path fill="none" stroke="#404040" d="M305.371,-1036.18C305.618,-1010.44 305.95,-975.755 306.25,-944.416"/>
<polygon fill="none" stroke="#404040" points="306.252,-944.141 302.31,-938.103 306.367,-932.141 310.309,-938.179 306.252,-944.141"/>
<text text-anchor="middle" x="344" y="-1009.5" font-family="Helvetica,sans-Serif" font-size="10.00"> #m_components</text>
</g>
<!-- Node10 -->
<g id="node10" class="node"><title>Node10</title>
<polygon fill="white" stroke="#bfbfbf" points="318.5,-1329.5 318.5,-1408.5 435.5,-1408.5 435.5,-1329.5 318.5,-1329.5"/>
<text text-anchor="start" x="326.5" y="-1396.5" font-family="Helvetica,sans-Serif" font-size="10.00">pair&lt; const Ra::Engine</text>
<text text-anchor="start" x="326.5" y="-1385.5" font-family="Helvetica,sans-Serif" font-size="10.00">::Entity *, Ra::Engine</text>
<text text-anchor="middle" x="377" y="-1374.5" font-family="Helvetica,sans-Serif" font-size="10.00">::Component * &gt;</text>
<polyline fill="none" stroke="#bfbfbf" points="318.5,-1367.5 435.5,-1367.5 "/>
<text text-anchor="middle" x="377" y="-1355.5" font-family="Helvetica,sans-Serif" font-size="10.00"> </text>
<polyline fill="none" stroke="#bfbfbf" points="318.5,-1348.5 435.5,-1348.5 "/>
<text text-anchor="middle" x="377" y="-1336.5" font-family="Helvetica,sans-Serif" font-size="10.00"> </text>
</g>
<!-- Node10&#45;&gt;Node9 -->
<g id="edge9" class="edge"><title>Node10&#45;&gt;Node9</title>
<path fill="none" stroke="#404040" d="M380.444,-1329.35C383.157,-1281.44 382.696,-1198.27 355,-1134 353.792,-1131.2 352.393,-1128.43 350.846,-1125.73"/>
<polygon fill="none" stroke="#404040" points="350.798,-1125.65 344.172,-1122.81 344.249,-1115.6 350.876,-1118.44 350.798,-1125.65"/>
<text text-anchor="middle" x="390.5" y="-1148.5" font-family="Helvetica,sans-Serif" font-size="10.00"> +elements</text>
</g>
<!-- Node11 -->
<g id="node11" class="node"><title>Node11</title>
<g id="a_node11"><a xlink:href="classRa_1_1Engine_1_1Entity.html" target="_top" xlink:title="An entity is an scene element. It ties together components with a transform. ">
<polygon fill="white" stroke="black" points="398.5,-743 398.5,-987 529.5,-987 529.5,-743 398.5,-743"/>
<text text-anchor="middle" x="464" y="-975" font-family="Helvetica,sans-Serif" font-size="10.00">Ra::Engine::Entity</text>
<polyline fill="none" stroke="black" points="398.5,-968 529.5,-968 "/>
<text text-anchor="middle" x="464" y="-956" font-family="Helvetica,sans-Serif" font-size="10.00"> </text>
<polyline fill="none" stroke="black" points="398.5,-949 529.5,-949 "/>
<text text-anchor="start" x="406.5" y="-937" font-family="Helvetica,sans-Serif" font-size="10.00">+ Entity()</text>
<text text-anchor="start" x="406.5" y="-926" font-family="Helvetica,sans-Serif" font-size="10.00">+ Entity()</text>
<text text-anchor="start" x="406.5" y="-915" font-family="Helvetica,sans-Serif" font-size="10.00">+ operator=()</text>
<text text-anchor="start" x="406.5" y="-904" font-family="Helvetica,sans-Serif" font-size="10.00">+ ~Entity()</text>
<text text-anchor="start" x="406.5" y="-893" font-family="Helvetica,sans-Serif" font-size="10.00">+ getName()</text>
<text text-anchor="start" x="406.5" y="-882" font-family="Helvetica,sans-Serif" font-size="10.00">+ rename()</text>
<text text-anchor="start" x="406.5" y="-871" font-family="Helvetica,sans-Serif" font-size="10.00">+ setTransform()</text>
<text text-anchor="start" x="406.5" y="-860" font-family="Helvetica,sans-Serif" font-size="10.00">+ setTransform()</text>
<text text-anchor="start" x="406.5" y="-849" font-family="Helvetica,sans-Serif" font-size="10.00">+ getTransform()</text>
<text text-anchor="start" x="406.5" y="-838" font-family="Helvetica,sans-Serif" font-size="10.00">+ getTransformAsMatrix()</text>
<text text-anchor="start" x="406.5" y="-827" font-family="Helvetica,sans-Serif" font-size="10.00">+ swapTransformBuffers()</text>
<text text-anchor="start" x="406.5" y="-816" font-family="Helvetica,sans-Serif" font-size="10.00">+ addComponent()</text>
<text text-anchor="start" x="406.5" y="-805" font-family="Helvetica,sans-Serif" font-size="10.00">+ removeComponent()</text>
<text text-anchor="start" x="406.5" y="-794" font-family="Helvetica,sans-Serif" font-size="10.00">+ getComponent()</text>
<text text-anchor="start" x="406.5" y="-783" font-family="Helvetica,sans-Serif" font-size="10.00">+ getComponent()</text>
<text text-anchor="start" x="406.5" y="-772" font-family="Helvetica,sans-Serif" font-size="10.00">+ getComponents()</text>
<text text-anchor="start" x="406.5" y="-761" font-family="Helvetica,sans-Serif" font-size="10.00">+ getNumComponents()</text>
<text text-anchor="start" x="406.5" y="-750" font-family="Helvetica,sans-Serif" font-size="10.00">+ rayCastQuery()</text>
</a>
</g>
</g>
<!-- Node11&#45;&gt;Node2 -->
<g id="edge11" class="edge"><title>Node11&#45;&gt;Node2</title>
<path fill="none" stroke="#404040" d="M429.924,-742.792C426.411,-730.297 422.84,-717.595 419.324,-705.091"/>
<polygon fill="none" stroke="#404040" points="419.223,-704.728 413.748,-700.034 415.975,-693.176 421.449,-697.869 419.223,-704.728"/>
<text text-anchor="middle" x="448" y="-715.5" font-family="Helvetica,sans-Serif" font-size="10.00"> #m_entity</text>
</g>
<!-- Node12 -->
<g id="node12" class="node"><title>Node12</title>
<g id="a_node12"><a xlink:href="classRa_1_1Core_1_1IndexedObject.html" target="_top" xlink:title="{Ra::Core::IndexedObject\n||+ IndexedObject()\l+ IndexedObject()\l+ ~IndexedObject()\l}">
<polygon fill="white" stroke="black" points="402.5,-1036.5 402.5,-1115.5 527.5,-1115.5 527.5,-1036.5 402.5,-1036.5"/>
<text text-anchor="middle" x="465" y="-1103.5" font-family="Helvetica,sans-Serif" font-size="10.00">Ra::Core::IndexedObject</text>
<polyline fill="none" stroke="black" points="402.5,-1096.5 527.5,-1096.5 "/>
<text text-anchor="middle" x="465" y="-1084.5" font-family="Helvetica,sans-Serif" font-size="10.00"> </text>
<polyline fill="none" stroke="black" points="402.5,-1077.5 527.5,-1077.5 "/>
<text text-anchor="start" x="410.5" y="-1065.5" font-family="Helvetica,sans-Serif" font-size="10.00">+ IndexedObject()</text>
<text text-anchor="start" x="410.5" y="-1054.5" font-family="Helvetica,sans-Serif" font-size="10.00">+ IndexedObject()</text>
<text text-anchor="start" x="410.5" y="-1043.5" font-family="Helvetica,sans-Serif" font-size="10.00">+ ~IndexedObject()</text>
</a>
</g>
</g>
<!-- Node12&#45;&gt;Node11 -->
<g id="edge12" class="edge"><title>Node12&#45;&gt;Node11</title>
<path fill="none" stroke="midnightblue" d="M464.766,-1026.07C464.709,-1014.14 464.645,-1000.85 464.58,-987.166"/>
<polygon fill="none" stroke="midnightblue" points="461.266,-1026.2 464.814,-1036.18 468.266,-1026.16 461.266,-1026.2"/>
</g>
<!-- Node13 -->
<g id="node13" class="node"><title>Node13</title>
<polygon fill="white" stroke="#bfbfbf" points="454,-1340.5 454,-1397.5 486,-1397.5 486,-1340.5 454,-1340.5"/>
<text text-anchor="middle" x="470" y="-1385.5" font-family="Helvetica,sans-Serif" font-size="10.00">uint</text>
<polyline fill="none" stroke="#bfbfbf" points="454,-1378.5 486,-1378.5 "/>
<text text-anchor="middle" x="470" y="-1366.5" font-family="Helvetica,sans-Serif" font-size="10.00"> </text>
<polyline fill="none" stroke="#bfbfbf" points="454,-1359.5 486,-1359.5 "/>
<text text-anchor="middle" x="470" y="-1347.5" font-family="Helvetica,sans-Serif" font-size="10.00"> </text>
</g>
<!-- Node13&#45;&gt;Node12 -->
<g id="edge13" class="edge"><title>Node13&#45;&gt;Node12</title>
<path fill="none" stroke="#404040" d="M469.525,-1340.36C468.688,-1291.65 466.939,-1189.84 465.877,-1128.05"/>
<polygon fill="none" stroke="#404040" points="465.874,-1127.87 461.772,-1121.94 465.668,-1115.88 469.771,-1121.81 465.874,-1127.87"/>
<text text-anchor="middle" x="478" y="-1148.5" font-family="Helvetica,sans-Serif" font-size="10.00"> +idx</text>
</g>
<!-- Node14 -->
<g id="node14" class="node"><title>Node14</title>
<g id="a_node14"><a xlink:title="STL class. ">
<polygon fill="white" stroke="#bfbfbf" points="556,-836.5 556,-893.5 616,-893.5 616,-836.5 556,-836.5"/>
<text text-anchor="middle" x="586" y="-881.5" font-family="Helvetica,sans-Serif" font-size="10.00">std::string</text>
<polyline fill="none" stroke="#bfbfbf" points="556,-874.5 616,-874.5 "/>
<text text-anchor="middle" x="586" y="-862.5" font-family="Helvetica,sans-Serif" font-size="10.00"> </text>
<polyline fill="none" stroke="#bfbfbf" points="556,-855.5 616,-855.5 "/>
<text text-anchor="middle" x="586" y="-843.5" font-family="Helvetica,sans-Serif" font-size="10.00"> </text>
</a>
</g>
</g>
<!-- Node14&#45;&gt;Node2 -->
<g id="edge14" class="edge"><title>Node14&#45;&gt;Node2</title>
<path fill="none" stroke="#404040" d="M578.527,-836.376C570.805,-810.65 557.176,-771.884 538,-742 518.66,-711.861 493.044,-682.532 468.314,-657.441"/>
<polygon fill="none" stroke="#404040" points="468.103,-657.23 461.032,-655.818 459.615,-648.748 466.687,-650.16 468.103,-657.23"/>
<text text-anchor="middle" x="548" y="-715.5" font-family="Helvetica,sans-Serif" font-size="10.00"> #m_name</text>
</g>
<!-- Node15 -->
<g id="node15" class="node"><title>Node15</title>
<g id="a_node15"><a xlink:title="STL class. ">
<polygon fill="white" stroke="#bfbfbf" points="545.5,-1042 545.5,-1110 640.5,-1110 640.5,-1042 545.5,-1042"/>
<text text-anchor="start" x="553.5" y="-1098" font-family="Helvetica,sans-Serif" font-size="10.00">std::basic_string&lt;</text>
<text text-anchor="middle" x="593" y="-1087" font-family="Helvetica,sans-Serif" font-size="10.00"> char &gt;</text>
<polyline fill="none" stroke="#bfbfbf" points="545.5,-1080 640.5,-1080 "/>
<text text-anchor="middle" x="593" y="-1068" font-family="Helvetica,sans-Serif" font-size="10.00"> </text>
<polyline fill="none" stroke="#bfbfbf" points="545.5,-1061 640.5,-1061 "/>
<text text-anchor="middle" x="593" y="-1049" font-family="Helvetica,sans-Serif" font-size="10.00"> </text>
</a>
</g>
</g>
<!-- Node15&#45;&gt;Node14 -->
<g id="edge15" class="edge"><title>Node15&#45;&gt;Node14</title>
<path fill="none" stroke="midnightblue" d="M591.553,-1031.79C590.163,-990.309 588.106,-928.892 586.925,-893.622"/>
<polygon fill="none" stroke="midnightblue" points="588.058,-1032.01 591.891,-1041.88 595.054,-1031.77 588.058,-1032.01"/>
</g>
</g>
</svg>
