<?xml version="1.0" encoding="UTF-8" standalone="no"?>
<!DOCTYPE svg PUBLIC "-//W3C//DTD SVG 1.1//EN"
 "http://www.w3.org/Graphics/SVG/1.1/DTD/svg11.dtd">
<!-- Generated by graphviz version 2.36.0 (20140111.2315)
 -->
<!-- Title: SkinningPlugin::SkinningComponent::setupSkinningType Pages: 1 -->
<svg width="940pt" height="354pt"
 viewBox="0.00 0.00 940.00 354.00" xmlns="http://www.w3.org/2000/svg" xmlns:xlink="http://www.w3.org/1999/xlink">
<g id="graph0" class="graph" transform="scale(1 1) rotate(0) translate(4 350)">
<title>SkinningPlugin::SkinningComponent::setupSkinningType</title>
<polygon fill="white" stroke="none" points="-4,4 -4,-350 936,-350 936,4 -4,4"/>
<!-- Node1 -->
<g id="node1" class="node"><title>Node1</title>
<polygon fill="#bfbfbf" stroke="black" points="0,-159 0,-189 156,-189 156,-159 0,-159"/>
<text text-anchor="start" x="8" y="-177" font-family="Helvetica,sans-Serif" font-size="10.00">SkinningPlugin::Skinning</text>
<text text-anchor="middle" x="78" y="-166" font-family="Helvetica,sans-Serif" font-size="10.00">Component::setupSkinningType</text>
</g>
<!-- Node2 -->
<g id="node2" class="node"><title>Node2</title>
<g id="a_node2"><a xlink:href="namespaceRa_1_1Core_1_1Animation.html#a40700cdabdd47fdb360f6bbfe692b36d" target="_top" xlink:title="Compute the optimal center of rotations (1 per vertex) based on weight similarity. ">
<polygon fill="white" stroke="black" points="192,-159 192,-189 298,-189 298,-159 192,-159"/>
<text text-anchor="start" x="200" y="-177" font-family="Helvetica,sans-Serif" font-size="10.00">Ra::Core::Animation</text>
<text text-anchor="middle" x="245" y="-166" font-family="Helvetica,sans-Serif" font-size="10.00">::computeCoR</text>
</a>
</g>
</g>
<!-- Node1&#45;&gt;Node2 -->
<g id="edge1" class="edge"><title>Node1&#45;&gt;Node2</title>
<path fill="none" stroke="midnightblue" d="M156.186,-174C164.772,-174 173.436,-174 181.803,-174"/>
<polygon fill="midnightblue" stroke="midnightblue" points="181.835,-177.5 191.835,-174 181.835,-170.5 181.835,-177.5"/>
</g>
<!-- Node3 -->
<g id="node3" class="node"><title>Node3</title>
<g id="a_node3"><a xlink:href="namespaceRa_1_1Core.html#a1992d0f90662705985222f69287915d0" target="_top" xlink:title="Ra::Core::convert">
<polygon fill="white" stroke="black" points="351.5,-300.5 351.5,-319.5 446.5,-319.5 446.5,-300.5 351.5,-300.5"/>
<text text-anchor="middle" x="399" y="-307.5" font-family="Helvetica,sans-Serif" font-size="10.00">Ra::Core::convert</text>
</a>
</g>
</g>
<!-- Node2&#45;&gt;Node3 -->
<g id="edge2" class="edge"><title>Node2&#45;&gt;Node3</title>
<path fill="none" stroke="midnightblue" d="M254.254,-189.218C267.886,-213.025 297.283,-259.128 334,-286 339.597,-290.097 345.975,-293.574 352.486,-296.501"/>
<polygon fill="midnightblue" stroke="midnightblue" points="351.462,-299.863 362.043,-300.403 354.108,-293.383 351.462,-299.863"/>
</g>
<!-- Node4 -->
<g id="node4" class="node"><title>Node4</title>
<g id="a_node4"><a xlink:href="classRa_1_1Core_1_1TriangleMesh.html#a495116f40cfec8bb6504698d786d4b8c" target="_top" xlink:title="Ra::Core::TriangleMesh\l::vertices">
<polygon fill="white" stroke="black" points="650.5,-235 650.5,-265 771.5,-265 771.5,-235 650.5,-235"/>
<text text-anchor="start" x="658.5" y="-253" font-family="Helvetica,sans-Serif" font-size="10.00">Ra::Core::TriangleMesh</text>
<text text-anchor="middle" x="711" y="-242" font-family="Helvetica,sans-Serif" font-size="10.00">::vertices</text>
</a>
</g>
</g>
<!-- Node2&#45;&gt;Node4 -->
<g id="edge10" class="edge"><title>Node2&#45;&gt;Node4</title>
<path fill="none" stroke="midnightblue" d="M298.417,-187.317C310.088,-190.056 322.431,-192.778 334,-195 440.121,-215.382 564.37,-232.198 640.106,-241.667"/>
<polygon fill="midnightblue" stroke="midnightblue" points="640.109,-245.194 650.464,-242.954 640.972,-238.248 640.109,-245.194"/>
</g>
<!-- Node7 -->
<g id="node7" class="node"><title>Node7</title>
<g id="a_node7"><a xlink:href="namespaceRa_1_1Core_1_1Algorithm.html#aea294cdb6f4f0d85955bdcccb22886ec" target="_top" xlink:title="Ra::Core::Algorithm::t">
<polygon fill="white" stroke="black" points="500.5,-262.5 500.5,-281.5 613.5,-281.5 613.5,-262.5 500.5,-262.5"/>
<text text-anchor="middle" x="557" y="-269.5" font-family="Helvetica,sans-Serif" font-size="10.00">Ra::Core::Algorithm::t</text>
</a>
</g>
</g>
<!-- Node2&#45;&gt;Node7 -->
<g id="edge11" class="edge"><title>Node2&#45;&gt;Node7</title>
<path fill="none" stroke="midnightblue" d="M258.832,-189.242C274.561,-206.749 302.973,-234.756 334,-248 383.555,-269.153 444.739,-274.411 490.317,-274.799"/>
<polygon fill="midnightblue" stroke="midnightblue" points="490.376,-278.299 500.379,-274.808 490.382,-271.299 490.376,-278.299"/>
</g>
<!-- Node8 -->
<g id="node8" class="node"><title>Node8</title>
<g id="a_node8"><a xlink:href="namespaceOpenMesh.html#a8205f789ce08919bc11c58383574596c" target="_top" xlink:title="OpenMesh::norm">
<polygon fill="white" stroke="black" points="665,-52.5 665,-71.5 757,-71.5 757,-52.5 665,-52.5"/>
<text text-anchor="middle" x="711" y="-59.5" font-family="Helvetica,sans-Serif" font-size="10.00">OpenMesh::norm</text>
</a>
</g>
</g>
<!-- Node2&#45;&gt;Node8 -->
<g id="edge8" class="edge"><title>Node2&#45;&gt;Node8</title>
<path fill="none" stroke="midnightblue" d="M254.457,-158.926C267.955,-136.561 296.695,-95.3664 334,-78 438.8,-29.2131 578.338,-40.2195 654.54,-51.6731"/>
<polygon fill="midnightblue" stroke="midnightblue" points="654.441,-55.2001 664.861,-53.2861 655.522,-48.284 654.441,-55.2001"/>
</g>
<!-- Node9 -->
<g id="node9" class="node"><title>Node9</title>
<g id="a_node9"><a xlink:href="namespaceRa_1_1Core_1_1DcelOperations.html#aaded34dd44fea8859e294864900a11ed" target="_top" xlink:title="Ra::Core::DcelOperations\l::splitEdge">
<polygon fill="white" stroke="black" points="334,-137 334,-167 464,-167 464,-137 334,-137"/>
<text text-anchor="start" x="342" y="-155" font-family="Helvetica,sans-Serif" font-size="10.00">Ra::Core::DcelOperations</text>
<text text-anchor="middle" x="399" y="-144" font-family="Helvetica,sans-Serif" font-size="10.00">::splitEdge</text>
</a>
</g>
</g>
<!-- Node2&#45;&gt;Node9 -->
<g id="edge9" class="edge"><title>Node2&#45;&gt;Node9</title>
<path fill="none" stroke="midnightblue" d="M298.31,-166.429C306.519,-165.241 315.138,-163.993 323.727,-162.75"/>
<polygon fill="midnightblue" stroke="midnightblue" points="324.375,-166.193 333.771,-161.296 323.372,-159.265 324.375,-166.193"/>
</g>
<!-- Node10 -->
<g id="node10" class="node"><title>Node10</title>
<g id="a_node10"><a xlink:href="namespaceRa_1_1Core_1_1MeshUtils.html#afbee0fe3203a295fb1f93b33dfb33f81" target="_top" xlink:title="Fills the given array with the vertices of a given triangle. ">
<polygon fill="white" stroke="black" points="503.5,-175 503.5,-205 610.5,-205 610.5,-175 503.5,-175"/>
<text text-anchor="start" x="511.5" y="-193" font-family="Helvetica,sans-Serif" font-size="10.00">Ra::Core::MeshUtils</text>
<text text-anchor="middle" x="557" y="-182" font-family="Helvetica,sans-Serif" font-size="10.00">::getTriangleVertices</text>
</a>
</g>
</g>
<!-- Node2&#45;&gt;Node10 -->
<g id="edge12" class="edge"><title>Node2&#45;&gt;Node10</title>
<path fill="none" stroke="midnightblue" d="M298.237,-176.696C352.036,-179.473 435.896,-183.801 493.256,-186.762"/>
<polygon fill="midnightblue" stroke="midnightblue" points="493.122,-190.259 503.29,-187.279 493.483,-183.269 493.122,-190.259"/>
</g>
<!-- Node11 -->
<g id="node11" class="node"><title>Node11</title>
<g id="a_node11"><a xlink:href="namespaceRa_1_1Core_1_1MeshUtils.html#a746199d436bb1dc31c4bccb3953743b9" target="_top" xlink:title="Returns the area of a given triangle. ">
<polygon fill="white" stroke="black" points="345.5,-88 345.5,-118 452.5,-118 452.5,-88 345.5,-88"/>
<text text-anchor="start" x="353.5" y="-106" font-family="Helvetica,sans-Serif" font-size="10.00">Ra::Core::MeshUtils</text>
<text text-anchor="middle" x="399" y="-95" font-family="Helvetica,sans-Serif" font-size="10.00">::getTriangleArea</text>
</a>
</g>
</g>
<!-- Node2&#45;&gt;Node11 -->
<g id="edge14" class="edge"><title>Node2&#45;&gt;Node11</title>
<path fill="none" stroke="midnightblue" d="M272.97,-158.924C290.194,-149.541 313.131,-137.496 334,-128 338.448,-125.976 343.112,-123.959 347.808,-122"/>
<polygon fill="midnightblue" stroke="midnightblue" points="349.497,-125.091 357.434,-118.074 346.853,-118.609 349.497,-125.091"/>
</g>
<!-- Node14 -->
<g id="node14" class="node"><title>Node14</title>
<g id="a_node14"><a xlink:href="namespaceRa_1_1Core_1_1Animation.html#a71236244c5603a8a5bc63595db9b7717" target="_top" xlink:title="Computes the similarity between two weights vector. ">
<polygon fill="white" stroke="black" points="346,-0 346,-30 452,-30 452,-0 346,-0"/>
<text text-anchor="start" x="354" y="-18" font-family="Helvetica,sans-Serif" font-size="10.00">Ra::Core::Animation</text>
<text text-anchor="middle" x="399" y="-7" font-family="Helvetica,sans-Serif" font-size="10.00">::weightSimilarity</text>
</a>
</g>
</g>
<!-- Node2&#45;&gt;Node14 -->
<g id="edge19" class="edge"><title>Node2&#45;&gt;Node14</title>
<path fill="none" stroke="midnightblue" d="M252.911,-158.942C265.612,-132.698 294.984,-78.2138 334,-45 338.43,-41.2291 343.413,-37.8261 348.594,-34.7839"/>
<polygon fill="midnightblue" stroke="midnightblue" points="350.304,-37.8385 357.436,-30.0037 346.975,-31.6808 350.304,-37.8385"/>
</g>
<!-- Node3&#45;&gt;Node4 -->
<g id="edge3" class="edge"><title>Node3&#45;&gt;Node4</title>
<path fill="none" stroke="midnightblue" d="M446.618,-310.056C490.445,-309.13 557.567,-305.175 614,-291 633.873,-286.008 654.917,-277.428 672.222,-269.404"/>
<polygon fill="midnightblue" stroke="midnightblue" points="673.893,-272.485 681.42,-265.029 670.886,-266.163 673.893,-272.485"/>
</g>
<!-- Node6 -->
<g id="node6" class="node"><title>Node6</title>
<g id="a_node6"><a xlink:href="classRa_1_1Core_1_1TriangleMesh.html#a40d31b7b2943947d6eac5d906f0182fd" target="_top" xlink:title="Ra::Core::TriangleMesh\l::normals">
<polygon fill="white" stroke="black" points="650.5,-316 650.5,-346 771.5,-346 771.5,-316 650.5,-316"/>
<text text-anchor="start" x="658.5" y="-334" font-family="Helvetica,sans-Serif" font-size="10.00">Ra::Core::TriangleMesh</text>
<text text-anchor="middle" x="711" y="-323" font-family="Helvetica,sans-Serif" font-size="10.00">::normals</text>
</a>
</g>
</g>
<!-- Node3&#45;&gt;Node6 -->
<g id="edge5" class="edge"><title>Node3&#45;&gt;Node6</title>
<path fill="none" stroke="midnightblue" d="M446.688,-317.579C463.455,-320.024 482.535,-322.491 500,-324 546.57,-328.025 599.135,-329.774 640.024,-330.518"/>
<polygon fill="midnightblue" stroke="midnightblue" points="640.101,-334.019 650.157,-330.686 640.217,-327.02 640.101,-334.019"/>
</g>
<!-- Node3&#45;&gt;Node7 -->
<g id="edge7" class="edge"><title>Node3&#45;&gt;Node7</title>
<path fill="none" stroke="midnightblue" d="M439.365,-300.411C459.951,-295.396 485.34,-289.212 507.169,-283.895"/>
<polygon fill="midnightblue" stroke="midnightblue" points="508.03,-287.287 516.918,-281.52 506.373,-280.486 508.03,-287.287"/>
</g>
<!-- Node5 -->
<g id="node5" class="node"><title>Node5</title>
<g id="a_node5"><a xlink:href="classRa_1_1Core_1_1AttribManager.html#a2344159a1926da905e4c44cd95744d59" target="_top" xlink:title="Get attribute by handle. ">
<polygon fill="white" stroke="black" points="808.5,-275 808.5,-305 931.5,-305 931.5,-275 808.5,-275"/>
<text text-anchor="start" x="816.5" y="-293" font-family="Helvetica,sans-Serif" font-size="10.00">Ra::Core::AttribManager</text>
<text text-anchor="middle" x="870" y="-282" font-family="Helvetica,sans-Serif" font-size="10.00">::getAttrib</text>
</a>
</g>
</g>
<!-- Node4&#45;&gt;Node5 -->
<g id="edge4" class="edge"><title>Node4&#45;&gt;Node5</title>
<path fill="none" stroke="midnightblue" d="M770.908,-265.008C780.501,-267.452 790.511,-270.003 800.313,-272.5"/>
<polygon fill="midnightblue" stroke="midnightblue" points="799.469,-275.897 810.023,-274.974 801.197,-269.113 799.469,-275.897"/>
</g>
<!-- Node6&#45;&gt;Node5 -->
<g id="edge6" class="edge"><title>Node6&#45;&gt;Node5</title>
<path fill="none" stroke="midnightblue" d="M769.57,-315.966C780.022,-313.236 791.009,-310.367 801.712,-307.572"/>
<polygon fill="midnightblue" stroke="midnightblue" points="802.646,-310.945 811.437,-305.032 800.878,-304.173 802.646,-310.945"/>
</g>
<!-- Node10&#45;&gt;Node4 -->
<g id="edge13" class="edge"><title>Node10&#45;&gt;Node4</title>
<path fill="none" stroke="midnightblue" d="M596.356,-205.141C616.414,-213.058 641.152,-222.823 662.421,-231.219"/>
<polygon fill="midnightblue" stroke="midnightblue" points="661.333,-234.552 671.92,-234.968 663.903,-228.041 661.333,-234.552"/>
</g>
<!-- Node11&#45;&gt;Node10 -->
<g id="edge15" class="edge"><title>Node11&#45;&gt;Node10</title>
<path fill="none" stroke="midnightblue" d="M442.589,-118.114C449.857,-121.122 457.238,-124.456 464,-128 486.578,-139.832 510.399,-156 528.144,-168.859"/>
<polygon fill="midnightblue" stroke="midnightblue" points="526.203,-171.776 536.335,-174.873 530.346,-166.133 526.203,-171.776"/>
</g>
<!-- Node12 -->
<g id="node12" class="node"><title>Node12</title>
<g id="a_node12"><a xlink:href="namespaceRa_1_1Core_1_1Geometry.html#a178f2b7309fe2ea5bc31a3abcb25368e" target="_top" xlink:title="Ra::Core::Geometry\l::triangleArea">
<polygon fill="white" stroke="black" points="504.5,-88 504.5,-118 609.5,-118 609.5,-88 504.5,-88"/>
<text text-anchor="start" x="512.5" y="-106" font-family="Helvetica,sans-Serif" font-size="10.00">Ra::Core::Geometry</text>
<text text-anchor="middle" x="557" y="-95" font-family="Helvetica,sans-Serif" font-size="10.00">::triangleArea</text>
</a>
</g>
</g>
<!-- Node11&#45;&gt;Node12 -->
<g id="edge16" class="edge"><title>Node11&#45;&gt;Node12</title>
<path fill="none" stroke="midnightblue" d="M452.814,-103C466.057,-103 480.384,-103 494.027,-103"/>
<polygon fill="midnightblue" stroke="midnightblue" points="494.298,-106.5 504.298,-103 494.298,-99.5001 494.298,-106.5"/>
</g>
<!-- Node12&#45;&gt;Node8 -->
<g id="edge18" class="edge"><title>Node12&#45;&gt;Node8</title>
<path fill="none" stroke="midnightblue" d="M609.885,-89.0048C627.714,-84.1956 647.519,-78.8535 664.776,-74.1985"/>
<polygon fill="midnightblue" stroke="midnightblue" points="665.865,-77.53 674.608,-71.5464 664.042,-70.7715 665.865,-77.53"/>
</g>
<!-- Node13 -->
<g id="node13" class="node"><title>Node13</title>
<g id="a_node13"><a xlink:href="namespaceOpenMesh.html#a71e7f1dd3eac016d2b8245ac408a291c" target="_top" xlink:title="OpenMesh::cross">
<polygon fill="white" stroke="black" points="664,-93.5 664,-112.5 758,-112.5 758,-93.5 664,-93.5"/>
<text text-anchor="middle" x="711" y="-100.5" font-family="Helvetica,sans-Serif" font-size="10.00">OpenMesh::cross</text>
</a>
</g>
</g>
<!-- Node12&#45;&gt;Node13 -->
<g id="edge17" class="edge"><title>Node12&#45;&gt;Node13</title>
<path fill="none" stroke="midnightblue" d="M609.885,-103C624.002,-103 639.359,-103 653.708,-103"/>
<polygon fill="midnightblue" stroke="midnightblue" points="653.947,-106.5 663.947,-103 653.947,-99.5001 653.947,-106.5"/>
</g>
</g>
</svg>
