<?xml version="1.0" encoding="UTF-8" standalone="no"?>
<!DOCTYPE svg PUBLIC "-//W3C//DTD SVG 1.1//EN"
 "http://www.w3.org/Graphics/SVG/1.1/DTD/svg11.dtd">
<!-- Generated by graphviz version 2.36.0 (20140111.2315)
 -->
<!-- Title: Ra::Core::Geometry::VariationalShapeApproximation&lt; K_Region, MetricType::LLOYD &gt; Pages: 1 -->
<svg width="1294pt" height="1436pt"
 viewBox="0.00 0.00 1294.00 1436.00" xmlns="http://www.w3.org/2000/svg" xmlns:xlink="http://www.w3.org/1999/xlink">
<g id="graph0" class="graph" transform="scale(1 1) rotate(0) translate(4 1432)">
<title>Ra::Core::Geometry::VariationalShapeApproximation&lt; K_Region, MetricType::LLOYD &gt;</title>
<polygon fill="white" stroke="none" points="-4,4 -4,-1432 1290,-1432 1290,4 -4,4"/>
<!-- Node1 -->
<g id="node1" class="node"><title>Node1</title>
<polygon fill="#bfbfbf" stroke="black" points="572.5,-0.5 572.5,-101.5 745.5,-101.5 745.5,-0.5 572.5,-0.5"/>
<text text-anchor="start" x="580.5" y="-89.5" font-family="Helvetica,sans-Serif" font-size="10.00">Ra::Core::Geometry</text>
<text text-anchor="start" x="580.5" y="-78.5" font-family="Helvetica,sans-Serif" font-size="10.00">::VariationalShapeApproximation</text>
<text text-anchor="middle" x="659" y="-67.5" font-family="Helvetica,sans-Serif" font-size="10.00">&lt; K_Region, MetricType::LLOYD &gt;</text>
<polyline fill="none" stroke="black" points="572.5,-60.5 745.5,-60.5 "/>
<text text-anchor="middle" x="659" y="-48.5" font-family="Helvetica,sans-Serif" font-size="10.00"> </text>
<polyline fill="none" stroke="black" points="572.5,-41.5 745.5,-41.5 "/>
<text text-anchor="start" x="580.5" y="-29.5" font-family="Helvetica,sans-Serif" font-size="10.00">+ ~VariationalShapeApproximation()</text>
<text text-anchor="start" x="580.5" y="-18.5" font-family="Helvetica,sans-Serif" font-size="10.00"># proxy_fitting()</text>
<text text-anchor="start" x="580.5" y="-7.5" font-family="Helvetica,sans-Serif" font-size="10.00"># E()</text>
</g>
<!-- Node2 -->
<g id="node2" class="node"><title>Node2</title>
<g id="a_node2"><a xlink:href="classRa_1_1Core_1_1Geometry_1_1VariationalShapeApproximationBase.html" target="_top" xlink:title="The VariationalShapeApproximationBase class. ">
<polygon fill="white" stroke="black" points="561,-140.5 561,-417.5 757,-417.5 757,-140.5 561,-140.5"/>
<text text-anchor="start" x="569" y="-405.5" font-family="Helvetica,sans-Serif" font-size="10.00">Ra::Core::Geometry</text>
<text text-anchor="start" x="569" y="-394.5" font-family="Helvetica,sans-Serif" font-size="10.00">::VariationalShapeApproximation</text>
<text text-anchor="middle" x="659" y="-383.5" font-family="Helvetica,sans-Serif" font-size="10.00">Base&lt; K_Region &gt;</text>
<polyline fill="none" stroke="black" points="561,-376.5 757,-376.5 "/>
<text text-anchor="middle" x="659" y="-364.5" font-family="Helvetica,sans-Serif" font-size="10.00"> </text>
<polyline fill="none" stroke="black" points="561,-357.5 757,-357.5 "/>
<text text-anchor="start" x="569" y="-345.5" font-family="Helvetica,sans-Serif" font-size="10.00">+ VariationalShapeApproximationBase()</text>
<text text-anchor="start" x="569" y="-334.5" font-family="Helvetica,sans-Serif" font-size="10.00">+ VariationalShapeApproximationBase()</text>
<text text-anchor="start" x="569" y="-323.5" font-family="Helvetica,sans-Serif" font-size="10.00">+ VariationalShapeApproximationBase()</text>
<text text-anchor="start" x="569" y="-312.5" font-family="Helvetica,sans-Serif" font-size="10.00">+ ~VariationalShapeApproximationBase()</text>
<text text-anchor="start" x="569" y="-301.5" font-family="Helvetica,sans-Serif" font-size="10.00">+ init()</text>
<text text-anchor="start" x="569" y="-290.5" font-family="Helvetica,sans-Serif" font-size="10.00">+ initialized()</text>
<text text-anchor="start" x="569" y="-279.5" font-family="Helvetica,sans-Serif" font-size="10.00">+ exec()</text>
<text text-anchor="start" x="569" y="-268.5" font-family="Helvetica,sans-Serif" font-size="10.00">+ exec()</text>
<text text-anchor="start" x="569" y="-257.5" font-family="Helvetica,sans-Serif" font-size="10.00">+ region()</text>
<text text-anchor="start" x="569" y="-246.5" font-family="Helvetica,sans-Serif" font-size="10.00">+ proxy()</text>
<text text-anchor="start" x="569" y="-235.5" font-family="Helvetica,sans-Serif" font-size="10.00">+ create_region_color()</text>
<text text-anchor="start" x="569" y="-224.5" font-family="Helvetica,sans-Serif" font-size="10.00">+ create_energy_color()</text>
<text text-anchor="start" x="569" y="-213.5" font-family="Helvetica,sans-Serif" font-size="10.00">+ shuffle_regions()</text>
<text text-anchor="start" x="569" y="-202.5" font-family="Helvetica,sans-Serif" font-size="10.00"># compute_data()</text>
<text text-anchor="start" x="569" y="-191.5" font-family="Helvetica,sans-Serif" font-size="10.00"># compute_seed()</text>
<text text-anchor="start" x="569" y="-180.5" font-family="Helvetica,sans-Serif" font-size="10.00"># geometry_partitioning()</text>
<text text-anchor="start" x="569" y="-169.5" font-family="Helvetica,sans-Serif" font-size="10.00"># add_neighbors_to_queue()</text>
<text text-anchor="start" x="569" y="-158.5" font-family="Helvetica,sans-Serif" font-size="10.00"># proxy_fitting()</text>
<text text-anchor="start" x="569" y="-147.5" font-family="Helvetica,sans-Serif" font-size="10.00"># E()</text>
</a>
</g>
</g>
<!-- Node2&#45;&gt;Node1 -->
<g id="edge1" class="edge"><title>Node2&#45;&gt;Node1</title>
<path fill="none" stroke="midnightblue" d="M659,-130.226C659,-120.224 659,-110.625 659,-101.787"/>
<polygon fill="none" stroke="midnightblue" points="655.5,-130.348 659,-140.348 662.5,-130.349 655.5,-130.348"/>
</g>
<!-- Node3 -->
<g id="node3" class="node"><title>Node3</title>
<polygon fill="white" stroke="#bfbfbf" points="-0.5,-531.5 -0.5,-588.5 78.5,-588.5 78.5,-531.5 -0.5,-531.5"/>
<text text-anchor="middle" x="39" y="-576.5" font-family="Helvetica,sans-Serif" font-size="10.00">value_type &gt;&gt;</text>
<polyline fill="none" stroke="#bfbfbf" points="-0.5,-569.5 78.5,-569.5 "/>
<text text-anchor="middle" x="39" y="-557.5" font-family="Helvetica,sans-Serif" font-size="10.00"> </text>
<polyline fill="none" stroke="#bfbfbf" points="-0.5,-550.5 78.5,-550.5 "/>
<text text-anchor="middle" x="39" y="-538.5" font-family="Helvetica,sans-Serif" font-size="10.00"> </text>
</g>
<!-- Node3&#45;&gt;Node2 -->
<g id="edge2" class="edge"><title>Node3&#45;&gt;Node2</title>
<path fill="none" stroke="#404040" d="M49.2471,-531.488C57.1535,-513.565 69.6827,-490.838 87,-476 220.365,-361.728 423.716,-313.105 548.617,-293.129"/>
<polygon fill="none" stroke="#404040" points="548.971,-293.074 554.284,-288.198 560.828,-291.227 555.515,-296.103 548.971,-293.074"/>
<text text-anchor="middle" x="163.5" y="-444.5" font-family="Helvetica,sans-Serif" font-size="10.00"> #m_queue</text>
</g>
<!-- Node4 -->
<g id="node4" class="node"><title>Node4</title>
<polygon fill="white" stroke="#bfbfbf" points="96.5,-531.5 96.5,-588.5 201.5,-588.5 201.5,-531.5 96.5,-531.5"/>
<text text-anchor="middle" x="149" y="-576.5" font-family="Helvetica,sans-Serif" font-size="10.00">static constexpr uint</text>
<polyline fill="none" stroke="#bfbfbf" points="96.5,-569.5 201.5,-569.5 "/>
<text text-anchor="middle" x="149" y="-557.5" font-family="Helvetica,sans-Serif" font-size="10.00"> </text>
<polyline fill="none" stroke="#bfbfbf" points="96.5,-550.5 201.5,-550.5 "/>
<text text-anchor="middle" x="149" y="-538.5" font-family="Helvetica,sans-Serif" font-size="10.00"> </text>
</g>
<!-- Node4&#45;&gt;Node2 -->
<g id="edge3" class="edge"><title>Node4&#45;&gt;Node2</title>
<path fill="none" stroke="#404040" d="M164.467,-531.409C175.539,-513.68 191.839,-491.206 211,-476 312.764,-395.241 452.949,-340.996 549.257,-310.424"/>
<polygon fill="none" stroke="#404040" points="549.328,-310.402 553.858,-304.791 560.779,-306.813 556.25,-312.425 549.328,-310.402"/>
<text text-anchor="middle" x="273" y="-444.5" font-family="Helvetica,sans-Serif" font-size="10.00"> +K</text>
</g>
<!-- Node5 -->
<g id="node5" class="node"><title>Node5</title>
<polygon fill="white" stroke="#bfbfbf" points="220,-531.5 220,-588.5 334,-588.5 334,-531.5 220,-531.5"/>
<text text-anchor="middle" x="277" y="-576.5" font-family="Helvetica,sans-Serif" font-size="10.00">std::array&lt; Proxy, K &gt;</text>
<polyline fill="none" stroke="#bfbfbf" points="220,-569.5 334,-569.5 "/>
<text text-anchor="middle" x="277" y="-557.5" font-family="Helvetica,sans-Serif" font-size="10.00"> </text>
<polyline fill="none" stroke="#bfbfbf" points="220,-550.5 334,-550.5 "/>
<text text-anchor="middle" x="277" y="-538.5" font-family="Helvetica,sans-Serif" font-size="10.00"> </text>
</g>
<!-- Node5&#45;&gt;Node2 -->
<g id="edge4" class="edge"><title>Node5&#45;&gt;Node2</title>
<path fill="none" stroke="#404040" d="M295.398,-531.202C307.607,-514.042 324.707,-492.275 343,-476 405.707,-420.21 486.224,-370.535 550.288,-335.152"/>
<polygon fill="none" stroke="#404040" points="550.305,-335.143 553.645,-328.752 560.829,-329.377 557.489,-335.768 550.305,-335.143"/>
<text text-anchor="middle" x="413" y="-444.5" font-family="Helvetica,sans-Serif" font-size="10.00"> #m_proxy</text>
</g>
<!-- Node6 -->
<g id="node6" class="node"><title>Node6</title>
<polygon fill="white" stroke="#bfbfbf" points="226,-713.5 226,-770.5 268,-770.5 268,-713.5 226,-713.5"/>
<text text-anchor="middle" x="247" y="-758.5" font-family="Helvetica,sans-Serif" font-size="10.00">Proxy</text>
<polyline fill="none" stroke="#bfbfbf" points="226,-751.5 268,-751.5 "/>
<text text-anchor="middle" x="247" y="-739.5" font-family="Helvetica,sans-Serif" font-size="10.00"> </text>
<polyline fill="none" stroke="#bfbfbf" points="226,-732.5 268,-732.5 "/>
<text text-anchor="middle" x="247" y="-720.5" font-family="Helvetica,sans-Serif" font-size="10.00"> </text>
</g>
<!-- Node6&#45;&gt;Node5 -->
<g id="edge5" class="edge"><title>Node6&#45;&gt;Node5</title>
<path fill="none" stroke="#404040" d="M245.556,-713.437C245.206,-698.195 245.503,-678.963 248,-662 251.051,-641.272 257.201,-618.815 263.055,-600.353"/>
<polygon fill="none" stroke="#404040" points="263.086,-600.258 261.154,-593.31 266.824,-588.855 268.756,-595.802 263.086,-600.258"/>
<text text-anchor="middle" x="272.5" y="-670.5" font-family="Helvetica,sans-Serif" font-size="10.00"> +elements</text>
</g>
<!-- Node7 -->
<g id="node7" class="node"><title>Node7</title>
<g id="a_node7"><a xlink:title="STL class. ">
<polygon fill="white" stroke="#bfbfbf" points="361,-713.5 361,-770.5 443,-770.5 443,-713.5 361,-713.5"/>
<text text-anchor="middle" x="402" y="-758.5" font-family="Helvetica,sans-Serif" font-size="10.00">std::array&lt; T &gt;</text>
<polyline fill="none" stroke="#bfbfbf" points="361,-751.5 443,-751.5 "/>
<text text-anchor="middle" x="402" y="-739.5" font-family="Helvetica,sans-Serif" font-size="10.00"> </text>
<polyline fill="none" stroke="#bfbfbf" points="361,-732.5 443,-732.5 "/>
<text text-anchor="middle" x="402" y="-720.5" font-family="Helvetica,sans-Serif" font-size="10.00"> </text>
</a>
</g>
</g>
<!-- Node7&#45;&gt;Node5 -->
<g id="edge6" class="edge"><title>Node7&#45;&gt;Node5</title>
<path fill="none" stroke="orange" d="M358.943,-706.006C351.809,-699.136 344.843,-691.668 339,-684 316.245,-654.137 298.081,-614.641 287.436,-588.559"/>
<polygon fill="orange" stroke="orange" points="356.995,-708.973 366.706,-713.208 361.756,-703.841 356.995,-708.973"/>
<text text-anchor="middle" x="369" y="-670.5" font-family="Helvetica,sans-Serif" font-size="10.00"> &lt; Proxy, K &gt;</text>
</g>
<!-- Node9 -->
<g id="node9" class="node"><title>Node9</title>
<polygon fill="white" stroke="#bfbfbf" points="352.5,-531.5 352.5,-588.5 471.5,-588.5 471.5,-531.5 352.5,-531.5"/>
<text text-anchor="middle" x="412" y="-576.5" font-family="Helvetica,sans-Serif" font-size="10.00">std::array&lt; Region, K &gt;</text>
<polyline fill="none" stroke="#bfbfbf" points="352.5,-569.5 471.5,-569.5 "/>
<text text-anchor="middle" x="412" y="-557.5" font-family="Helvetica,sans-Serif" font-size="10.00"> </text>
<polyline fill="none" stroke="#bfbfbf" points="352.5,-550.5 471.5,-550.5 "/>
<text text-anchor="middle" x="412" y="-538.5" font-family="Helvetica,sans-Serif" font-size="10.00"> </text>
</g>
<!-- Node7&#45;&gt;Node9 -->
<g id="edge11" class="edge"><title>Node7&#45;&gt;Node9</title>
<path fill="none" stroke="orange" d="M401.894,-703.146C402.012,-690.101 402.319,-675.403 403,-662 404.26,-637.21 406.862,-609.088 408.946,-588.825"/>
<polygon fill="orange" stroke="orange" points="398.394,-703.177 401.835,-713.198 405.393,-703.218 398.394,-703.177"/>
<text text-anchor="middle" x="435.5" y="-670.5" font-family="Helvetica,sans-Serif" font-size="10.00"> &lt; Region, K &gt;</text>
</g>
<!-- Node8 -->
<g id="node8" class="node"><title>Node8</title>
<polygon fill="white" stroke="#bfbfbf" points="832.5,-1370.5 832.5,-1427.5 861.5,-1427.5 861.5,-1370.5 832.5,-1370.5"/>
<text text-anchor="middle" x="847" y="-1415.5" font-family="Helvetica,sans-Serif" font-size="10.00">T</text>
<polyline fill="none" stroke="#bfbfbf" points="832.5,-1408.5 861.5,-1408.5 "/>
<text text-anchor="middle" x="847" y="-1396.5" font-family="Helvetica,sans-Serif" font-size="10.00"> </text>
<polyline fill="none" stroke="#bfbfbf" points="832.5,-1389.5 861.5,-1389.5 "/>
<text text-anchor="middle" x="847" y="-1377.5" font-family="Helvetica,sans-Serif" font-size="10.00"> </text>
</g>
<!-- Node8&#45;&gt;Node7 -->
<g id="edge7" class="edge"><title>Node8&#45;&gt;Node7</title>
<path fill="none" stroke="#404040" d="M832.262,-1396.42C767.816,-1389.12 514,-1356.04 514,-1288 514,-1288 514,-1288 514,-864 514,-842.897 476.846,-805.964 445.337,-778.436"/>
<polygon fill="none" stroke="#404040" points="445.308,-778.411 438.151,-777.529 436.212,-770.583 443.369,-771.465 445.308,-778.411"/>
<text text-anchor="middle" x="538.5" y="-1029.5" font-family="Helvetica,sans-Serif" font-size="10.00"> +elements</text>
</g>
<!-- Node10 -->
<g id="node10" class="node"><title>Node10</title>
<g id="a_node10"><a xlink:title="STL class. ">
<polygon fill="white" stroke="#bfbfbf" points="650.5,-713.5 650.5,-770.5 737.5,-770.5 737.5,-713.5 650.5,-713.5"/>
<text text-anchor="middle" x="694" y="-758.5" font-family="Helvetica,sans-Serif" font-size="10.00">std::vector&lt; T &gt;</text>
<polyline fill="none" stroke="#bfbfbf" points="650.5,-751.5 737.5,-751.5 "/>
<text text-anchor="middle" x="694" y="-739.5" font-family="Helvetica,sans-Serif" font-size="10.00"> </text>
<polyline fill="none" stroke="#bfbfbf" points="650.5,-732.5 737.5,-732.5 "/>
<text text-anchor="middle" x="694" y="-720.5" font-family="Helvetica,sans-Serif" font-size="10.00"> </text>
</a>
</g>
</g>
<!-- Node8&#45;&gt;Node10 -->
<g id="edge10" class="edge"><title>Node8&#45;&gt;Node10</title>
<path fill="none" stroke="#404040" d="M832.405,-1393.75C797.675,-1382.63 713,-1349.25 713,-1288 713,-1288 713,-1288 713,-864 713,-836.602 708.187,-806.133 703.406,-782.623"/>
<polygon fill="none" stroke="#404040" points="703.362,-782.417 698.199,-777.383 700.859,-770.681 706.023,-775.715 703.362,-782.417"/>
<text text-anchor="middle" x="737.5" y="-1029.5" font-family="Helvetica,sans-Serif" font-size="10.00"> +elements</text>
</g>
<!-- Node13 -->
<g id="node13" class="node"><title>Node13</title>
<g id="a_node13"><a xlink:title="STL class. ">
<polygon fill="white" stroke="#bfbfbf" points="875.5,-1160 875.5,-1228 1004.5,-1228 1004.5,-1160 875.5,-1160"/>
<text text-anchor="start" x="883.5" y="-1216" font-family="Helvetica,sans-Serif" font-size="10.00">std::vector&lt; V, Eigen</text>
<text text-anchor="middle" x="940" y="-1205" font-family="Helvetica,sans-Serif" font-size="10.00">::aligned_allocator&lt; V &gt; &gt;</text>
<polyline fill="none" stroke="#bfbfbf" points="875.5,-1198 1004.5,-1198 "/>
<text text-anchor="middle" x="940" y="-1186" font-family="Helvetica,sans-Serif" font-size="10.00"> </text>
<polyline fill="none" stroke="#bfbfbf" points="875.5,-1179 1004.5,-1179 "/>
<text text-anchor="middle" x="940" y="-1167" font-family="Helvetica,sans-Serif" font-size="10.00"> </text>
</a>
</g>
</g>
<!-- Node8&#45;&gt;Node13 -->
<g id="edge15" class="edge"><title>Node8&#45;&gt;Node13</title>
<path fill="none" stroke="#404040" d="M858.218,-1370.27C870.358,-1340.69 890.593,-1292.6 910,-1252 912.031,-1247.75 914.205,-1243.36 916.421,-1238.98"/>
<polygon fill="none" stroke="#404040" points="916.461,-1238.91 915.653,-1231.74 921.957,-1228.24 922.765,-1235.4 916.461,-1238.91"/>
<text text-anchor="middle" x="895.5" y="-1343.5" font-family="Helvetica,sans-Serif" font-size="10.00"> +elements</text>
</g>
<!-- Node15 -->
<g id="node15" class="node"><title>Node15</title>
<g id="a_node15"><a xlink:title="STL class. ">
<polygon fill="white" stroke="#bfbfbf" points="919,-1253 919,-1321 1047,-1321 1047,-1253 919,-1253"/>
<text text-anchor="start" x="927" y="-1309" font-family="Helvetica,sans-Serif" font-size="10.00">std::vector&lt; T, Eigen</text>
<text text-anchor="middle" x="983" y="-1298" font-family="Helvetica,sans-Serif" font-size="10.00">::aligned_allocator&lt; T &gt; &gt;</text>
<polyline fill="none" stroke="#bfbfbf" points="919,-1291 1047,-1291 "/>
<text text-anchor="middle" x="983" y="-1279" font-family="Helvetica,sans-Serif" font-size="10.00"> </text>
<polyline fill="none" stroke="#bfbfbf" points="919,-1272 1047,-1272 "/>
<text text-anchor="middle" x="983" y="-1260" font-family="Helvetica,sans-Serif" font-size="10.00"> </text>
</a>
</g>
</g>
<!-- Node8&#45;&gt;Node15 -->
<g id="edge18" class="edge"><title>Node8&#45;&gt;Node15</title>
<path fill="none" stroke="#404040" d="M861.66,-1392.99C880.589,-1386 913.846,-1371.9 937,-1352 944.071,-1345.92 950.636,-1338.55 956.465,-1330.99"/>
<polygon fill="none" stroke="#404040" points="956.63,-1330.76 956.92,-1323.56 963.683,-1321.05 963.393,-1328.26 956.63,-1330.76"/>
<text text-anchor="middle" x="972.5" y="-1343.5" font-family="Helvetica,sans-Serif" font-size="10.00"> +elements</text>
</g>
<!-- Node24 -->
<g id="node24" class="node"><title>Node24</title>
<g id="a_node24"><a xlink:title="STL class. ">
<polygon fill="white" stroke="#bfbfbf" points="747.5,-1154.5 747.5,-1233.5 870.5,-1233.5 870.5,-1154.5 747.5,-1154.5"/>
<text text-anchor="start" x="755.5" y="-1221.5" font-family="Helvetica,sans-Serif" font-size="10.00">std::vector&lt; Triangle,</text>
<text text-anchor="start" x="755.5" y="-1210.5" font-family="Helvetica,sans-Serif" font-size="10.00"> Eigen::aligned_allocator</text>
<text text-anchor="middle" x="809" y="-1199.5" font-family="Helvetica,sans-Serif" font-size="10.00">&lt; Triangle &gt; &gt;</text>
<polyline fill="none" stroke="#bfbfbf" points="747.5,-1192.5 870.5,-1192.5 "/>
<text text-anchor="middle" x="809" y="-1180.5" font-family="Helvetica,sans-Serif" font-size="10.00"> </text>
<polyline fill="none" stroke="#bfbfbf" points="747.5,-1173.5 870.5,-1173.5 "/>
<text text-anchor="middle" x="809" y="-1161.5" font-family="Helvetica,sans-Serif" font-size="10.00"> </text>
</a>
</g>
</g>
<!-- Node8&#45;&gt;Node24 -->
<g id="edge31" class="edge"><title>Node8&#45;&gt;Node24</title>
<path fill="none" stroke="#404040" d="M832.395,-1383.21C825.104,-1374.8 817.002,-1363.65 813,-1352 801.266,-1317.85 800.601,-1277.02 802.694,-1245.56"/>
<polygon fill="none" stroke="#404040" points="802.696,-1245.53 799.187,-1239.23 803.653,-1233.57 807.162,-1239.87 802.696,-1245.53"/>
<text text-anchor="middle" x="837.5" y="-1343.5" font-family="Helvetica,sans-Serif" font-size="10.00"> +elements</text>
</g>
<!-- Node27 -->
<g id="node27" class="node"><title>Node27</title>
<g id="a_node27"><a xlink:title="STL class. ">
<polygon fill="white" stroke="#bfbfbf" points="1149.5,-1056.5 1149.5,-1135.5 1272.5,-1135.5 1272.5,-1056.5 1149.5,-1056.5"/>
<text text-anchor="start" x="1157.5" y="-1123.5" font-family="Helvetica,sans-Serif" font-size="10.00">std::vector&lt; Face,</text>
<text text-anchor="start" x="1157.5" y="-1112.5" font-family="Helvetica,sans-Serif" font-size="10.00"> Eigen::aligned_allocator</text>
<text text-anchor="middle" x="1211" y="-1101.5" font-family="Helvetica,sans-Serif" font-size="10.00">&lt; Face &gt; &gt;</text>
<polyline fill="none" stroke="#bfbfbf" points="1149.5,-1094.5 1272.5,-1094.5 "/>
<text text-anchor="middle" x="1211" y="-1082.5" font-family="Helvetica,sans-Serif" font-size="10.00"> </text>
<polyline fill="none" stroke="#bfbfbf" points="1149.5,-1075.5 1272.5,-1075.5 "/>
<text text-anchor="middle" x="1211" y="-1063.5" font-family="Helvetica,sans-Serif" font-size="10.00"> </text>
</a>
</g>
</g>
<!-- Node8&#45;&gt;Node27 -->
<g id="edge37" class="edge"><title>Node8&#45;&gt;Node27</title>
<path fill="none" stroke="#404040" d="M861.579,-1396.46C898.552,-1391.85 997.203,-1374.99 1056,-1322 1112.51,-1271.07 1159.05,-1195.66 1185.93,-1146.41"/>
<polygon fill="none" stroke="#404040" points="1186,-1146.28 1185.32,-1139.1 1191.69,-1135.71 1192.37,-1142.89 1186,-1146.28"/>
<text text-anchor="middle" x="1142.5" y="-1284.5" font-family="Helvetica,sans-Serif" font-size="10.00"> +elements</text>
</g>
<!-- Node9&#45;&gt;Node2 -->
<g id="edge8" class="edge"><title>Node9&#45;&gt;Node2</title>
<path fill="none" stroke="#404040" d="M433.993,-531.404C447.133,-515.106 464.277,-494.173 480,-476 503.161,-449.23 528.54,-420.877 552.719,-394.303"/>
<polygon fill="none" stroke="#404040" points="552.784,-394.232 553.87,-387.103 560.868,-385.364 559.782,-392.492 552.784,-394.232"/>
<text text-anchor="middle" x="538.5" y="-444.5" font-family="Helvetica,sans-Serif" font-size="10.00"> #m_region</text>
</g>
<!-- Node10&#45;&gt;Node9 -->
<g id="edge9" class="edge"><title>Node10&#45;&gt;Node9</title>
<path fill="none" stroke="#404040" d="M650.403,-727.363C623.274,-717.693 588.447,-703.052 561,-684 549.896,-676.292 551.523,-669.066 540,-662 516.266,-647.447 503.166,-659.442 480,-644 462.453,-632.304 447.128,-614.722 435.491,-598.747"/>
<polygon fill="none" stroke="#404040" points="435.251,-598.403 428.539,-595.768 428.39,-588.559 435.102,-591.194 435.251,-598.403"/>
<text text-anchor="middle" x="585.5" y="-670.5" font-family="Helvetica,sans-Serif" font-size="10.00"> +elements</text>
</g>
<!-- Node18 -->
<g id="node18" class="node"><title>Node18</title>
<polygon fill="white" stroke="#bfbfbf" points="852.5,-531.5 852.5,-588.5 951.5,-588.5 951.5,-531.5 852.5,-531.5"/>
<text text-anchor="middle" x="902" y="-576.5" font-family="Helvetica,sans-Serif" font-size="10.00">std::vector&lt; bool &gt;</text>
<polyline fill="none" stroke="#bfbfbf" points="852.5,-569.5 951.5,-569.5 "/>
<text text-anchor="middle" x="902" y="-557.5" font-family="Helvetica,sans-Serif" font-size="10.00"> </text>
<polyline fill="none" stroke="#bfbfbf" points="852.5,-550.5 951.5,-550.5 "/>
<text text-anchor="middle" x="902" y="-538.5" font-family="Helvetica,sans-Serif" font-size="10.00"> </text>
</g>
<!-- Node10&#45;&gt;Node18 -->
<g id="edge23" class="edge"><title>Node10&#45;&gt;Node18</title>
<path fill="none" stroke="orange" d="M721.779,-705.015C736.351,-687.034 753.171,-667.871 763,-662 793.916,-643.534 811.966,-663.869 842,-644 862.613,-630.364 878.53,-607.066 888.774,-588.619"/>
<polygon fill="orange" stroke="orange" points="718.791,-703.147 715.275,-713.141 724.256,-707.521 718.791,-703.147"/>
<text text-anchor="middle" x="783" y="-670.5" font-family="Helvetica,sans-Serif" font-size="10.00"> &lt; bool &gt;</text>
</g>
<!-- Node19 -->
<g id="node19" class="node"><title>Node19</title>
<polygon fill="white" stroke="#bfbfbf" points="489.5,-531.5 489.5,-588.5 586.5,-588.5 586.5,-531.5 489.5,-531.5"/>
<text text-anchor="middle" x="538" y="-576.5" font-family="Helvetica,sans-Serif" font-size="10.00">std::vector&lt; uint &gt;</text>
<polyline fill="none" stroke="#bfbfbf" points="489.5,-569.5 586.5,-569.5 "/>
<text text-anchor="middle" x="538" y="-557.5" font-family="Helvetica,sans-Serif" font-size="10.00"> </text>
<polyline fill="none" stroke="#bfbfbf" points="489.5,-550.5 586.5,-550.5 "/>
<text text-anchor="middle" x="538" y="-538.5" font-family="Helvetica,sans-Serif" font-size="10.00"> </text>
</g>
<!-- Node10&#45;&gt;Node19 -->
<g id="edge26" class="edge"><title>Node10&#45;&gt;Node19</title>
<path fill="none" stroke="orange" d="M657.802,-706.195C631.894,-681.172 600.635,-650.708 595,-644 580.271,-626.466 565.69,-605.143 554.963,-588.5"/>
<polygon fill="orange" stroke="orange" points="655.661,-708.993 665.288,-713.418 660.521,-703.955 655.661,-708.993"/>
<text text-anchor="middle" x="653.5" y="-670.5" font-family="Helvetica,sans-Serif" font-size="10.00"> &lt; uint &gt;</text>
</g>
<!-- Node28 -->
<g id="node28" class="node"><title>Node28</title>
<polygon fill="white" stroke="#bfbfbf" points="604.5,-531.5 604.5,-588.5 713.5,-588.5 713.5,-531.5 604.5,-531.5"/>
<text text-anchor="middle" x="659" y="-576.5" font-family="Helvetica,sans-Serif" font-size="10.00">std::vector&lt; Scalar &gt;</text>
<polyline fill="none" stroke="#bfbfbf" points="604.5,-569.5 713.5,-569.5 "/>
<text text-anchor="middle" x="659" y="-557.5" font-family="Helvetica,sans-Serif" font-size="10.00"> </text>
<polyline fill="none" stroke="#bfbfbf" points="604.5,-550.5 713.5,-550.5 "/>
<text text-anchor="middle" x="659" y="-538.5" font-family="Helvetica,sans-Serif" font-size="10.00"> </text>
</g>
<!-- Node10&#45;&gt;Node28 -->
<g id="edge42" class="edge"><title>Node10&#45;&gt;Node28</title>
<path fill="none" stroke="orange" d="M686.647,-703.187C679.998,-668.988 670.361,-619.429 664.398,-588.762"/>
<polygon fill="orange" stroke="orange" points="683.264,-704.121 688.608,-713.269 690.135,-702.785 683.264,-704.121"/>
<text text-anchor="middle" x="707.5" y="-670.5" font-family="Helvetica,sans-Serif" font-size="10.00"> &lt; Scalar &gt;</text>
</g>
<!-- Node11 -->
<g id="node11" class="node"><title>Node11</title>
<g id="a_node11"><a xlink:href="classRa_1_1Core_1_1VectorArray.html" target="_top" xlink:title="{Ra::Core::VectorArray\&lt; V \&gt;\n||+ getMap()\l+ getMap()\l}">
<polygon fill="white" stroke="black" points="1005.5,-831 1005.5,-899 1144.5,-899 1144.5,-831 1005.5,-831"/>
<text text-anchor="middle" x="1075" y="-887" font-family="Helvetica,sans-Serif" font-size="10.00">Ra::Core::VectorArray&lt; V &gt;</text>
<polyline fill="none" stroke="black" points="1005.5,-880 1144.5,-880 "/>
<text text-anchor="middle" x="1075" y="-868" font-family="Helvetica,sans-Serif" font-size="10.00"> </text>
<polyline fill="none" stroke="black" points="1005.5,-861 1144.5,-861 "/>
<text text-anchor="start" x="1013.5" y="-849" font-family="Helvetica,sans-Serif" font-size="10.00">+ getMap()</text>
<text text-anchor="start" x="1013.5" y="-838" font-family="Helvetica,sans-Serif" font-size="10.00">+ getMap()</text>
</a>
</g>
</g>
<!-- Node11&#45;&gt;Node2 -->
<g id="edge12" class="edge"><title>Node11&#45;&gt;Node2</title>
<path fill="none" stroke="#404040" d="M1131.31,-830.821C1147.93,-817.887 1164.05,-801.449 1173,-782 1197.44,-728.87 1237.05,-574.137 1171,-476 1082.15,-343.993 890.988,-300.811 769.039,-286.738"/>
<polygon fill="none" stroke="#404040" points="769.021,-286.736 762.62,-290.057 757.092,-285.427 763.493,-282.105 769.021,-286.736"/>
<text text-anchor="middle" x="1231" y="-676" font-family="Helvetica,sans-Serif" font-size="10.00"> #m_fbary</text>
<text text-anchor="middle" x="1231" y="-665" font-family="Helvetica,sans-Serif" font-size="10.00">#m_fnormal</text>
</g>
<!-- Node22 -->
<g id="node22" class="node"><title>Node22</title>
<g id="a_node22"><a xlink:href="classRa_1_1Core_1_1VectorArray.html" target="_top" xlink:title="{Ra::Core::VectorArray\l\&lt; Triangle \&gt;\n||+ getMap()\l+ getMap()\l}">
<polygon fill="white" stroke="black" points="918,-702.5 918,-781.5 1032,-781.5 1032,-702.5 918,-702.5"/>
<text text-anchor="start" x="926" y="-769.5" font-family="Helvetica,sans-Serif" font-size="10.00">Ra::Core::VectorArray</text>
<text text-anchor="middle" x="975" y="-758.5" font-family="Helvetica,sans-Serif" font-size="10.00">&lt; Triangle &gt;</text>
<polyline fill="none" stroke="black" points="918,-751.5 1032,-751.5 "/>
<text text-anchor="middle" x="975" y="-739.5" font-family="Helvetica,sans-Serif" font-size="10.00"> </text>
<polyline fill="none" stroke="black" points="918,-732.5 1032,-732.5 "/>
<text text-anchor="start" x="926" y="-720.5" font-family="Helvetica,sans-Serif" font-size="10.00">+ getMap()</text>
<text text-anchor="start" x="926" y="-709.5" font-family="Helvetica,sans-Serif" font-size="10.00">+ getMap()</text>
</a>
</g>
</g>
<!-- Node11&#45;&gt;Node22 -->
<g id="edge33" class="edge"><title>Node11&#45;&gt;Node22</title>
<path fill="none" stroke="orange" d="M1039.42,-823.195C1036.21,-819.427 1033.03,-815.653 1030,-812 1021.88,-802.219 1013.24,-791.528 1005.27,-781.544"/>
<polygon fill="orange" stroke="orange" points="1036.83,-825.558 1045.99,-830.882 1042.15,-821.008 1036.83,-825.558"/>
<text text-anchor="middle" x="1058" y="-803.5" font-family="Helvetica,sans-Serif" font-size="10.00"> &lt; Triangle &gt;</text>
</g>
<!-- Node25 -->
<g id="node25" class="node"><title>Node25</title>
<g id="a_node25"><a xlink:href="classRa_1_1Core_1_1VectorArray.html" target="_top" xlink:title="{Ra::Core::VectorArray\l\&lt; Face \&gt;\n||+ getMap()\l+ getMap()\l}">
<polygon fill="white" stroke="black" points="1050,-702.5 1050,-781.5 1164,-781.5 1164,-702.5 1050,-702.5"/>
<text text-anchor="start" x="1058" y="-769.5" font-family="Helvetica,sans-Serif" font-size="10.00">Ra::Core::VectorArray</text>
<text text-anchor="middle" x="1107" y="-758.5" font-family="Helvetica,sans-Serif" font-size="10.00">&lt; Face &gt;</text>
<polyline fill="none" stroke="black" points="1050,-751.5 1164,-751.5 "/>
<text text-anchor="middle" x="1107" y="-739.5" font-family="Helvetica,sans-Serif" font-size="10.00"> </text>
<polyline fill="none" stroke="black" points="1050,-732.5 1164,-732.5 "/>
<text text-anchor="start" x="1058" y="-720.5" font-family="Helvetica,sans-Serif" font-size="10.00">+ getMap()</text>
<text text-anchor="start" x="1058" y="-709.5" font-family="Helvetica,sans-Serif" font-size="10.00">+ getMap()</text>
</a>
</g>
</g>
<!-- Node11&#45;&gt;Node25 -->
<g id="edge39" class="edge"><title>Node11&#45;&gt;Node25</title>
<path fill="none" stroke="orange" d="M1086.39,-820.939C1089.78,-808.105 1093.48,-794.127 1096.79,-781.597"/>
<polygon fill="orange" stroke="orange" points="1082.92,-820.374 1083.74,-830.936 1089.68,-822.163 1082.92,-820.374"/>
<text text-anchor="middle" x="1112.5" y="-803.5" font-family="Helvetica,sans-Serif" font-size="10.00"> &lt; Face &gt;</text>
</g>
<!-- Node12 -->
<g id="node12" class="node"><title>Node12</title>
<g id="a_node12"><a xlink:href="structRa_1_1Core_1_1AlignedStdVector.html" target="_top" xlink:title="{Ra::Core::AlignedStdVector\&lt; V \&gt;\n||}">
<polygon fill="white" stroke="black" points="966.5,-944.5 966.5,-1001.5 1129.5,-1001.5 1129.5,-944.5 966.5,-944.5"/>
<text text-anchor="middle" x="1048" y="-989.5" font-family="Helvetica,sans-Serif" font-size="10.00">Ra::Core::AlignedStdVector&lt; V &gt;</text>
<polyline fill="none" stroke="black" points="966.5,-982.5 1129.5,-982.5 "/>
<text text-anchor="middle" x="1048" y="-970.5" font-family="Helvetica,sans-Serif" font-size="10.00"> </text>
<polyline fill="none" stroke="black" points="966.5,-963.5 1129.5,-963.5 "/>
<text text-anchor="middle" x="1048" y="-951.5" font-family="Helvetica,sans-Serif" font-size="10.00"> </text>
</a>
</g>
</g>
<!-- Node12&#45;&gt;Node11 -->
<g id="edge13" class="edge"><title>Node12&#45;&gt;Node11</title>
<path fill="none" stroke="midnightblue" d="M1057.53,-934.598C1060.48,-923.023 1063.7,-910.359 1066.57,-899.097"/>
<polygon fill="none" stroke="midnightblue" points="1054.1,-933.872 1055.02,-944.426 1060.88,-935.6 1054.1,-933.872"/>
</g>
<!-- Node13&#45;&gt;Node12 -->
<g id="edge14" class="edge"><title>Node13&#45;&gt;Node12</title>
<path fill="none" stroke="midnightblue" d="M932.674,-1149.78C928.926,-1113.79 929.292,-1062.68 953,-1026 959.226,-1016.37 967.879,-1008.37 977.449,-1001.78"/>
<polygon fill="none" stroke="midnightblue" points="929.229,-1150.46 933.886,-1159.97 936.18,-1149.63 929.229,-1150.46"/>
</g>
<!-- Node14 -->
<g id="node14" class="node"><title>Node14</title>
<g id="a_node14"><a xlink:href="structRa_1_1Core_1_1AlignedStdVector.html" target="_top" xlink:title="{Ra::Core::AlignedStdVector\&lt; T \&gt;\n||}">
<polygon fill="white" stroke="black" points="968,-1067.5 968,-1124.5 1130,-1124.5 1130,-1067.5 968,-1067.5"/>
<text text-anchor="middle" x="1049" y="-1112.5" font-family="Helvetica,sans-Serif" font-size="10.00">Ra::Core::AlignedStdVector&lt; T &gt;</text>
<polyline fill="none" stroke="black" points="968,-1105.5 1130,-1105.5 "/>
<text text-anchor="middle" x="1049" y="-1093.5" font-family="Helvetica,sans-Serif" font-size="10.00"> </text>
<polyline fill="none" stroke="black" points="968,-1086.5 1130,-1086.5 "/>
<text text-anchor="middle" x="1049" y="-1074.5" font-family="Helvetica,sans-Serif" font-size="10.00"> </text>
</a>
</g>
</g>
<!-- Node14&#45;&gt;Node12 -->
<g id="edge16" class="edge"><title>Node14&#45;&gt;Node12</title>
<path fill="none" stroke="orange" d="M1048.69,-1057.08C1048.54,-1039.12 1048.36,-1018.05 1048.23,-1001.63"/>
<polygon fill="orange" stroke="orange" points="1045.19,-1057.27 1048.77,-1067.24 1052.19,-1057.21 1045.19,-1057.27"/>
<text text-anchor="middle" x="1063" y="-1029.5" font-family="Helvetica,sans-Serif" font-size="10.00"> &lt; V &gt;</text>
</g>
<!-- Node23 -->
<g id="node23" class="node"><title>Node23</title>
<g id="a_node23"><a xlink:href="structRa_1_1Core_1_1AlignedStdVector.html" target="_top" xlink:title="{Ra::Core::AlignedStdVector\l\&lt; Triangle \&gt;\n||}">
<polygon fill="white" stroke="black" points="810,-939 810,-1007 948,-1007 948,-939 810,-939"/>
<text text-anchor="start" x="818" y="-995" font-family="Helvetica,sans-Serif" font-size="10.00">Ra::Core::AlignedStdVector</text>
<text text-anchor="middle" x="879" y="-984" font-family="Helvetica,sans-Serif" font-size="10.00">&lt; Triangle &gt;</text>
<polyline fill="none" stroke="black" points="810,-977 948,-977 "/>
<text text-anchor="middle" x="879" y="-965" font-family="Helvetica,sans-Serif" font-size="10.00"> </text>
<polyline fill="none" stroke="black" points="810,-958 948,-958 "/>
<text text-anchor="middle" x="879" y="-946" font-family="Helvetica,sans-Serif" font-size="10.00"> </text>
</a>
</g>
</g>
<!-- Node14&#45;&gt;Node23 -->
<g id="edge32" class="edge"><title>Node14&#45;&gt;Node23</title>
<path fill="none" stroke="orange" d="M1001.79,-1061.4C977.935,-1044.42 949.1,-1023.89 925.368,-1007"/>
<polygon fill="orange" stroke="orange" points="999.822,-1064.29 1010,-1067.24 1003.88,-1058.59 999.822,-1064.29"/>
<text text-anchor="middle" x="992" y="-1029.5" font-family="Helvetica,sans-Serif" font-size="10.00"> &lt; Triangle &gt;</text>
</g>
<!-- Node26 -->
<g id="node26" class="node"><title>Node26</title>
<g id="a_node26"><a xlink:href="structRa_1_1Core_1_1AlignedStdVector.html" target="_top" xlink:title="{Ra::Core::AlignedStdVector\l\&lt; Face \&gt;\n||}">
<polygon fill="white" stroke="black" points="1148,-939 1148,-1007 1286,-1007 1286,-939 1148,-939"/>
<text text-anchor="start" x="1156" y="-995" font-family="Helvetica,sans-Serif" font-size="10.00">Ra::Core::AlignedStdVector</text>
<text text-anchor="middle" x="1217" y="-984" font-family="Helvetica,sans-Serif" font-size="10.00">&lt; Face &gt;</text>
<polyline fill="none" stroke="black" points="1148,-977 1286,-977 "/>
<text text-anchor="middle" x="1217" y="-965" font-family="Helvetica,sans-Serif" font-size="10.00"> </text>
<polyline fill="none" stroke="black" points="1148,-958 1286,-958 "/>
<text text-anchor="middle" x="1217" y="-946" font-family="Helvetica,sans-Serif" font-size="10.00"> </text>
</a>
</g>
</g>
<!-- Node14&#45;&gt;Node26 -->
<g id="edge38" class="edge"><title>Node14&#45;&gt;Node26</title>
<path fill="none" stroke="orange" d="M1095.66,-1061.4C1119.23,-1044.42 1147.72,-1023.89 1171.18,-1007"/>
<polygon fill="orange" stroke="orange" points="1093.61,-1058.56 1087.54,-1067.24 1097.7,-1064.24 1093.61,-1058.56"/>
<text text-anchor="middle" x="1165.5" y="-1029.5" font-family="Helvetica,sans-Serif" font-size="10.00"> &lt; Face &gt;</text>
</g>
<!-- Node15&#45;&gt;Node14 -->
<g id="edge17" class="edge"><title>Node15&#45;&gt;Node14</title>
<path fill="none" stroke="midnightblue" d="M1008.58,-1243.76C1010.18,-1240.51 1011.67,-1237.23 1013,-1234 1028.01,-1197.5 1038.35,-1152.91 1043.97,-1124.73"/>
<polygon fill="none" stroke="midnightblue" points="1005.38,-1242.33 1003.88,-1252.82 1011.59,-1245.56 1005.38,-1242.33"/>
</g>
<!-- Node16 -->
<g id="node16" class="node"><title>Node16</title>
<g id="a_node16"><a xlink:href="classbool.html" target="_top" xlink:title="{bool\n||}">
<polygon fill="white" stroke="black" points="864.5,-713.5 864.5,-770.5 899.5,-770.5 899.5,-713.5 864.5,-713.5"/>
<text text-anchor="middle" x="882" y="-758.5" font-family="Helvetica,sans-Serif" font-size="10.00">bool</text>
<polyline fill="none" stroke="black" points="864.5,-751.5 899.5,-751.5 "/>
<text text-anchor="middle" x="882" y="-739.5" font-family="Helvetica,sans-Serif" font-size="10.00"> </text>
<polyline fill="none" stroke="black" points="864.5,-732.5 899.5,-732.5 "/>
<text text-anchor="middle" x="882" y="-720.5" font-family="Helvetica,sans-Serif" font-size="10.00"> </text>
</a>
</g>
</g>
<!-- Node16&#45;&gt;Node2 -->
<g id="edge19" class="edge"><title>Node16&#45;&gt;Node2</title>
<path fill="none" stroke="#404040" d="M898.714,-713.153C901.829,-709.132 905.286,-705.259 909,-702 922.149,-690.464 932.229,-696.939 944,-684 995.229,-627.686 968.443,-491.573 960,-476 919.528,-401.351 836.95,-350.661 768.509,-319.562"/>
<polygon fill="none" stroke="#404040" points="768.187,-319.42 761.08,-320.641 757.219,-314.55 764.326,-313.329 768.187,-319.42"/>
<text text-anchor="middle" x="992.5" y="-557.5" font-family="Helvetica,sans-Serif" font-size="10.00"> #m_init</text>
</g>
<!-- Node16&#45;&gt;Node18 -->
<g id="edge22" class="edge"><title>Node16&#45;&gt;Node18</title>
<path fill="none" stroke="#404040" d="M885.081,-713.269C888.414,-683.276 893.757,-635.185 897.547,-601.081"/>
<polygon fill="none" stroke="#404040" points="897.59,-600.689 894.277,-594.284 898.915,-588.762 902.228,-595.167 897.59,-600.689"/>
<text text-anchor="middle" x="915.5" y="-670.5" font-family="Helvetica,sans-Serif" font-size="10.00"> +elements</text>
</g>
<!-- Node17 -->
<g id="node17" class="node"><title>Node17</title>
<polygon fill="white" stroke="#bfbfbf" points="732,-531.5 732,-588.5 834,-588.5 834,-531.5 732,-531.5"/>
<text text-anchor="middle" x="783" y="-576.5" font-family="Helvetica,sans-Serif" font-size="10.00">set&lt; TriangleIdx &gt;&gt;</text>
<polyline fill="none" stroke="#bfbfbf" points="732,-569.5 834,-569.5 "/>
<text text-anchor="middle" x="783" y="-557.5" font-family="Helvetica,sans-Serif" font-size="10.00"> </text>
<polyline fill="none" stroke="#bfbfbf" points="732,-550.5 834,-550.5 "/>
<text text-anchor="middle" x="783" y="-538.5" font-family="Helvetica,sans-Serif" font-size="10.00"> </text>
</g>
<!-- Node17&#45;&gt;Node2 -->
<g id="edge20" class="edge"><title>Node17&#45;&gt;Node2</title>
<path fill="none" stroke="#404040" d="M770.771,-531.485C759.769,-506.73 742.68,-468.28 725.147,-428.831"/>
<polygon fill="none" stroke="#404040" points="725.069,-428.655 718.977,-424.796 720.195,-417.689 726.287,-421.547 725.069,-428.655"/>
<text text-anchor="middle" x="755" y="-444.5" font-family="Helvetica,sans-Serif" font-size="10.00"> #m_fadj</text>
</g>
<!-- Node18&#45;&gt;Node2 -->
<g id="edge21" class="edge"><title>Node18&#45;&gt;Node2</title>
<path fill="none" stroke="#404040" d="M883.377,-531.444C871.93,-514.974 856.687,-493.849 842,-476 818.178,-447.049 791.233,-416.916 765.489,-389.21"/>
<polygon fill="none" stroke="#404040" points="765.365,-389.078 758.347,-387.42 757.178,-380.305 764.196,-381.962 765.365,-389.078"/>
<text text-anchor="middle" x="851" y="-444.5" font-family="Helvetica,sans-Serif" font-size="10.00"> #m_fvisited</text>
</g>
<!-- Node19&#45;&gt;Node2 -->
<g id="edge24" class="edge"><title>Node19&#45;&gt;Node2</title>
<path fill="none" stroke="#404040" d="M549.933,-531.485C560.669,-506.73 577.344,-468.28 594.453,-428.831"/>
<polygon fill="none" stroke="#404040" points="594.511,-428.698 593.228,-421.602 599.285,-417.689 600.568,-424.785 594.511,-428.698"/>
<text text-anchor="middle" x="618" y="-444.5" font-family="Helvetica,sans-Serif" font-size="10.00"> #m_fregion</text>
</g>
<!-- Node20 -->
<g id="node20" class="node"><title>Node20</title>
<polygon fill="white" stroke="#bfbfbf" points="474,-713.5 474,-770.5 506,-770.5 506,-713.5 474,-713.5"/>
<text text-anchor="middle" x="490" y="-758.5" font-family="Helvetica,sans-Serif" font-size="10.00">uint</text>
<polyline fill="none" stroke="#bfbfbf" points="474,-751.5 506,-751.5 "/>
<text text-anchor="middle" x="490" y="-739.5" font-family="Helvetica,sans-Serif" font-size="10.00"> </text>
<polyline fill="none" stroke="#bfbfbf" points="474,-732.5 506,-732.5 "/>
<text text-anchor="middle" x="490" y="-720.5" font-family="Helvetica,sans-Serif" font-size="10.00"> </text>
</g>
<!-- Node20&#45;&gt;Node19 -->
<g id="edge25" class="edge"><title>Node20&#45;&gt;Node19</title>
<path fill="none" stroke="#404040" d="M487.524,-713.244C486.862,-697.944 487.19,-678.717 491,-662 495.947,-640.294 505.948,-617.688 515.458,-599.379"/>
<polygon fill="none" stroke="#404040" points="515.581,-599.15 514.9,-591.971 521.265,-588.582 521.946,-595.761 515.581,-599.15"/>
<text text-anchor="middle" x="515.5" y="-670.5" font-family="Helvetica,sans-Serif" font-size="10.00"> +elements</text>
</g>
<!-- Node21 -->
<g id="node21" class="node"><title>Node21</title>
<g id="a_node21"><a xlink:href="classRa_1_1Core_1_1TriangleMesh.html" target="_top" xlink:title="{Ra::Core::TriangleMesh\n||+ TriangleMesh()\l+ TriangleMesh()\l+ operator=()\l+ clear()\l+ append()\l+ vertices()\l+ normals()\l+ vertices()\l+ normals()\l+ attribManager()\l+ attribManager()\l}">
<polygon fill="white" stroke="black" points="1041.5,-476.5 1041.5,-643.5 1162.5,-643.5 1162.5,-476.5 1041.5,-476.5"/>
<text text-anchor="middle" x="1102" y="-631.5" font-family="Helvetica,sans-Serif" font-size="10.00">Ra::Core::TriangleMesh</text>
<polyline fill="none" stroke="black" points="1041.5,-624.5 1162.5,-624.5 "/>
<text text-anchor="middle" x="1102" y="-612.5" font-family="Helvetica,sans-Serif" font-size="10.00"> </text>
<polyline fill="none" stroke="black" points="1041.5,-605.5 1162.5,-605.5 "/>
<text text-anchor="start" x="1049.5" y="-593.5" font-family="Helvetica,sans-Serif" font-size="10.00">+ TriangleMesh()</text>
<text text-anchor="start" x="1049.5" y="-582.5" font-family="Helvetica,sans-Serif" font-size="10.00">+ TriangleMesh()</text>
<text text-anchor="start" x="1049.5" y="-571.5" font-family="Helvetica,sans-Serif" font-size="10.00">+ operator=()</text>
<text text-anchor="start" x="1049.5" y="-560.5" font-family="Helvetica,sans-Serif" font-size="10.00">+ clear()</text>
<text text-anchor="start" x="1049.5" y="-549.5" font-family="Helvetica,sans-Serif" font-size="10.00">+ append()</text>
<text text-anchor="start" x="1049.5" y="-538.5" font-family="Helvetica,sans-Serif" font-size="10.00">+ vertices()</text>
<text text-anchor="start" x="1049.5" y="-527.5" font-family="Helvetica,sans-Serif" font-size="10.00">+ normals()</text>
<text text-anchor="start" x="1049.5" y="-516.5" font-family="Helvetica,sans-Serif" font-size="10.00">+ vertices()</text>
<text text-anchor="start" x="1049.5" y="-505.5" font-family="Helvetica,sans-Serif" font-size="10.00">+ normals()</text>
<text text-anchor="start" x="1049.5" y="-494.5" font-family="Helvetica,sans-Serif" font-size="10.00">+ attribManager()</text>
<text text-anchor="start" x="1049.5" y="-483.5" font-family="Helvetica,sans-Serif" font-size="10.00">+ attribManager()</text>
</a>
</g>
</g>
<!-- Node21&#45;&gt;Node2 -->
<g id="edge27" class="edge"><title>Node21&#45;&gt;Node2</title>
<path fill="none" stroke="#404040" d="M1043.66,-476.248C1031.02,-461.683 1016.92,-447.521 1002,-436 931.86,-381.843 839.912,-341.321 768.873,-315.168"/>
<polygon fill="none" stroke="#404040" points="768.491,-315.029 761.486,-316.741 757.211,-310.934 764.216,-309.222 768.491,-315.029"/>
<text text-anchor="middle" x="1048" y="-444.5" font-family="Helvetica,sans-Serif" font-size="10.00"> #m_mesh</text>
</g>
<!-- Node22&#45;&gt;Node21 -->
<g id="edge28" class="edge"><title>Node22&#45;&gt;Node21</title>
<path fill="none" stroke="#404040" d="M1002.24,-702.385C1012.42,-687.965 1024.46,-670.897 1036.6,-653.697"/>
<polygon fill="none" stroke="#404040" points="1036.82,-653.379 1037.01,-646.171 1043.74,-643.574 1043.55,-650.783 1036.82,-653.379"/>
<text text-anchor="middle" x="1058" y="-670.5" font-family="Helvetica,sans-Serif" font-size="10.00"> +m_triangles</text>
</g>
<!-- Node23&#45;&gt;Node22 -->
<g id="edge29" class="edge"><title>Node23&#45;&gt;Node22</title>
<path fill="none" stroke="midnightblue" d="M896.933,-929.223C914.69,-886.865 941.639,-822.58 958.776,-781.701"/>
<polygon fill="none" stroke="midnightblue" points="893.598,-928.126 892.959,-938.701 900.053,-930.832 893.598,-928.126"/>
</g>
<!-- Node24&#45;&gt;Node23 -->
<g id="edge30" class="edge"><title>Node24&#45;&gt;Node23</title>
<path fill="none" stroke="midnightblue" d="M824.445,-1144.68C837.775,-1102.97 856.678,-1043.84 868.372,-1007.25"/>
<polygon fill="none" stroke="midnightblue" points="821.064,-1143.76 821.353,-1154.35 827.732,-1145.89 821.064,-1143.76"/>
</g>
<!-- Node25&#45;&gt;Node21 -->
<g id="edge34" class="edge"><title>Node25&#45;&gt;Node21</title>
<path fill="none" stroke="#404040" d="M1105.93,-702.385C1105.54,-688.504 1105.09,-672.169 1104.63,-655.625"/>
<polygon fill="none" stroke="#404040" points="1104.63,-655.57 1100.46,-649.683 1104.29,-643.574 1108.46,-649.461 1104.63,-655.57"/>
<text text-anchor="middle" x="1129.5" y="-670.5" font-family="Helvetica,sans-Serif" font-size="10.00"> +m_faces</text>
</g>
<!-- Node26&#45;&gt;Node25 -->
<g id="edge35" class="edge"><title>Node26&#45;&gt;Node25</title>
<path fill="none" stroke="midnightblue" d="M1198.86,-929.395C1183.55,-894.235 1160.58,-843.273 1138,-800 1134.87,-794.008 1131.51,-787.693 1128.19,-781.537"/>
<polygon fill="none" stroke="midnightblue" points="1195.78,-931.09 1202.97,-938.873 1202.2,-928.306 1195.78,-931.09"/>
</g>
<!-- Node27&#45;&gt;Node26 -->
<g id="edge36" class="edge"><title>Node27&#45;&gt;Node26</title>
<path fill="none" stroke="midnightblue" d="M1213.42,-1046.15C1214.07,-1033.12 1214.75,-1019.35 1215.35,-1007.37"/>
<polygon fill="none" stroke="midnightblue" points="1209.91,-1046.22 1212.91,-1056.38 1216.91,-1046.57 1209.91,-1046.22"/>
</g>
<!-- Node28&#45;&gt;Node2 -->
<g id="edge40" class="edge"><title>Node28&#45;&gt;Node2</title>
<path fill="none" stroke="#404040" d="M659,-531.485C659,-506.941 659,-468.937 659,-429.843"/>
<polygon fill="none" stroke="#404040" points="659,-429.689 655,-423.689 659,-417.689 663,-423.689 659,-429.689"/>
<text text-anchor="middle" x="683.5" y="-450" font-family="Helvetica,sans-Serif" font-size="10.00"> #m_fvalue</text>
<text text-anchor="middle" x="683.5" y="-439" font-family="Helvetica,sans-Serif" font-size="10.00">#m_farea</text>
</g>
<!-- Node29 -->
<g id="node29" class="node"><title>Node29</title>
<polygon fill="white" stroke="#bfbfbf" points="811.5,-713.5 811.5,-770.5 846.5,-770.5 846.5,-713.5 811.5,-713.5"/>
<text text-anchor="middle" x="829" y="-758.5" font-family="Helvetica,sans-Serif" font-size="10.00">float</text>
<polyline fill="none" stroke="#bfbfbf" points="811.5,-751.5 846.5,-751.5 "/>
<text text-anchor="middle" x="829" y="-739.5" font-family="Helvetica,sans-Serif" font-size="10.00"> </text>
<polyline fill="none" stroke="#bfbfbf" points="811.5,-732.5 846.5,-732.5 "/>
<text text-anchor="middle" x="829" y="-720.5" font-family="Helvetica,sans-Serif" font-size="10.00"> </text>
</g>
<!-- Node29&#45;&gt;Node28 -->
<g id="edge41" class="edge"><title>Node29&#45;&gt;Node28</title>
<path fill="none" stroke="#404040" d="M828.238,-713.184C826.268,-696.108 820.892,-675.076 807,-662 779.198,-635.831 755.298,-664.362 723,-644 705.449,-632.935 690.836,-615.261 680.026,-599.06"/>
<polygon fill="none" stroke="#404040" points="679.894,-598.852 673.306,-595.92 673.478,-588.711 680.066,-591.643 679.894,-598.852"/>
<text text-anchor="middle" x="846.5" y="-670.5" font-family="Helvetica,sans-Serif" font-size="10.00"> +elements</text>
</g>
</g>
</svg>
