<?xml version="1.0" encoding="UTF-8" standalone="no"?>
<!DOCTYPE svg PUBLIC "-//W3C//DTD SVG 1.1//EN"
 "http://www.w3.org/Graphics/SVG/1.1/DTD/svg11.dtd">
<!-- Generated by graphviz version 2.36.0 (20140111.2315)
 -->
<!-- Title: /home/travis/build/STORM&#45;IRIT/Radium&#45;Engine/src/Engine/Managers/ComponentMessenger/ComponentMessenger.inl Pages: 1 -->
<svg width="2073pt" height="410pt"
 viewBox="0.00 0.00 2073.00 410.00" xmlns="http://www.w3.org/2000/svg" xmlns:xlink="http://www.w3.org/1999/xlink">
<g id="graph0" class="graph" transform="scale(1 1) rotate(0) translate(4 406)">
<title>/home/travis/build/STORM&#45;IRIT/Radium&#45;Engine/src/Engine/Managers/ComponentMessenger/ComponentMessenger.inl</title>
<polygon fill="white" stroke="none" points="-4,4 -4,-406 2069,-406 2069,4 -4,4"/>
<!-- Node1 -->
<g id="node1" class="node"><title>Node1</title>
<polygon fill="#bfbfbf" stroke="black" points="947.5,-349 947.5,-401 1160.5,-401 1160.5,-349 947.5,-349"/>
<text text-anchor="start" x="955.5" y="-389" font-family="Helvetica,sans-Serif" font-size="10.00">/home/travis/build</text>
<text text-anchor="start" x="955.5" y="-378" font-family="Helvetica,sans-Serif" font-size="10.00">/STORM&#45;IRIT/Radium&#45;Engine</text>
<text text-anchor="start" x="955.5" y="-367" font-family="Helvetica,sans-Serif" font-size="10.00">/src/Engine/Managers/ComponentMessenger</text>
<text text-anchor="middle" x="1054" y="-356" font-family="Helvetica,sans-Serif" font-size="10.00">/ComponentMessenger.inl</text>
</g>
<!-- Node2 -->
<g id="node2" class="node"><title>Node2</title>
<g id="a_node2"><a xlink:href="ComponentMessenger_8hpp.html" target="_top" xlink:title="/home/travis/build\l/STORM&#45;IRIT/Radium&#45;Engine\l/src/Engine/Managers/ComponentMessenger\l/ComponentMessenger.hpp">
<polygon fill="white" stroke="black" points="947.5,-259 947.5,-311 1160.5,-311 1160.5,-259 947.5,-259"/>
<text text-anchor="start" x="955.5" y="-299" font-family="Helvetica,sans-Serif" font-size="10.00">/home/travis/build</text>
<text text-anchor="start" x="955.5" y="-288" font-family="Helvetica,sans-Serif" font-size="10.00">/STORM&#45;IRIT/Radium&#45;Engine</text>
<text text-anchor="start" x="955.5" y="-277" font-family="Helvetica,sans-Serif" font-size="10.00">/src/Engine/Managers/ComponentMessenger</text>
<text text-anchor="middle" x="1054" y="-266" font-family="Helvetica,sans-Serif" font-size="10.00">/ComponentMessenger.hpp</text>
</a>
</g>
</g>
<!-- Node1&#45;&gt;Node2 -->
<g id="edge1" class="edge"><title>Node1&#45;&gt;Node2</title>
<path fill="none" stroke="midnightblue" d="M1047.36,-338.489C1047.12,-329.309 1047.27,-319.616 1047.84,-311.092"/>
<polygon fill="midnightblue" stroke="midnightblue" points="1043.87,-338.714 1047.81,-348.547 1050.86,-338.4 1043.87,-338.714"/>
</g>
<!-- Node2&#45;&gt;Node1 -->
<g id="edge3" class="edge"><title>Node2&#45;&gt;Node1</title>
<path fill="none" stroke="midnightblue" d="M1060.63,-321.123C1060.88,-330.289 1060.74,-339.99 1060.19,-348.547"/>
<polygon fill="midnightblue" stroke="midnightblue" points="1064.12,-320.92 1060.16,-311.092 1057.13,-321.243 1064.12,-320.92"/>
</g>
<!-- Node3 -->
<g id="node3" class="node"><title>Node3</title>
<g id="a_node3"><a xlink:href="ComponentMessenger_8cpp.html" target="_top" xlink:title="/home/travis/build\l/STORM&#45;IRIT/Radium&#45;Engine\l/src/Engine/Managers/ComponentMessenger\l/ComponentMessenger.cpp">
<polygon fill="white" stroke="black" points="-0.5,-169 -0.5,-221 212.5,-221 212.5,-169 -0.5,-169"/>
<text text-anchor="start" x="7.5" y="-209" font-family="Helvetica,sans-Serif" font-size="10.00">/home/travis/build</text>
<text text-anchor="start" x="7.5" y="-198" font-family="Helvetica,sans-Serif" font-size="10.00">/STORM&#45;IRIT/Radium&#45;Engine</text>
<text text-anchor="start" x="7.5" y="-187" font-family="Helvetica,sans-Serif" font-size="10.00">/src/Engine/Managers/ComponentMessenger</text>
<text text-anchor="middle" x="106" y="-176" font-family="Helvetica,sans-Serif" font-size="10.00">/ComponentMessenger.cpp</text>
</a>
</g>
</g>
<!-- Node2&#45;&gt;Node3 -->
<g id="edge2" class="edge"><title>Node2&#45;&gt;Node3</title>
<path fill="none" stroke="midnightblue" d="M936.956,-280.666C775.378,-274.84 475.228,-259.608 222,-222 218.938,-221.545 215.836,-221.054 212.71,-220.534"/>
<polygon fill="midnightblue" stroke="midnightblue" points="937.278,-284.179 947.396,-281.036 937.526,-277.184 937.278,-284.179"/>
</g>
<!-- Node4 -->
<g id="node4" class="node"><title>Node4</title>
<g id="a_node4"><a xlink:href="LightManager_8cpp.html" target="_top" xlink:title="/home/travis/build\l/STORM&#45;IRIT/Radium&#45;Engine\l/src/Engine/Managers/LightManager\l/LightManager.cpp">
<polygon fill="white" stroke="black" points="230.5,-169 230.5,-221 403.5,-221 403.5,-169 230.5,-169"/>
<text text-anchor="start" x="238.5" y="-209" font-family="Helvetica,sans-Serif" font-size="10.00">/home/travis/build</text>
<text text-anchor="start" x="238.5" y="-198" font-family="Helvetica,sans-Serif" font-size="10.00">/STORM&#45;IRIT/Radium&#45;Engine</text>
<text text-anchor="start" x="238.5" y="-187" font-family="Helvetica,sans-Serif" font-size="10.00">/src/Engine/Managers/LightManager</text>
<text text-anchor="middle" x="317" y="-176" font-family="Helvetica,sans-Serif" font-size="10.00">/LightManager.cpp</text>
</a>
</g>
</g>
<!-- Node2&#45;&gt;Node4 -->
<g id="edge4" class="edge"><title>Node2&#45;&gt;Node4</title>
<path fill="none" stroke="midnightblue" d="M937.178,-278.606C808.071,-271.277 594.381,-255.091 413,-222 409.942,-221.442 406.84,-220.834 403.715,-220.186"/>
<polygon fill="midnightblue" stroke="midnightblue" points="937.298,-282.118 947.478,-279.182 937.689,-275.129 937.298,-282.118"/>
</g>
<!-- Node5 -->
<g id="node5" class="node"><title>Node5</title>
<g id="a_node5"><a xlink:href="RadiumEngine_8cpp.html" target="_top" xlink:title="/home/travis/build\l/STORM&#45;IRIT/Radium&#45;Engine\l/src/Engine/RadiumEngine.cpp">
<polygon fill="white" stroke="black" points="422,-174.5 422,-215.5 574,-215.5 574,-174.5 422,-174.5"/>
<text text-anchor="start" x="430" y="-203.5" font-family="Helvetica,sans-Serif" font-size="10.00">/home/travis/build</text>
<text text-anchor="start" x="430" y="-192.5" font-family="Helvetica,sans-Serif" font-size="10.00">/STORM&#45;IRIT/Radium&#45;Engine</text>
<text text-anchor="middle" x="498" y="-181.5" font-family="Helvetica,sans-Serif" font-size="10.00">/src/Engine/RadiumEngine.cpp</text>
</a>
</g>
</g>
<!-- Node2&#45;&gt;Node5 -->
<g id="edge5" class="edge"><title>Node2&#45;&gt;Node5</title>
<path fill="none" stroke="midnightblue" d="M937.231,-273.918C841.578,-264.388 703.083,-247.677 584,-222 575.614,-220.192 566.862,-217.96 558.288,-215.571"/>
<polygon fill="midnightblue" stroke="midnightblue" points="936.927,-277.405 947.222,-274.903 937.614,-270.438 936.927,-277.405"/>
</g>
<!-- Node6 -->
<g id="node6" class="node"><title>Node6</title>
<g id="a_node6"><a xlink:href="AnimationComponent_8cpp.html" target="_top" xlink:title="/home/travis/build\l/STORM&#45;IRIT/Radium&#45;Engine\l/Plugins/Animation/src/Animation\lComponent.cpp">
<polygon fill="white" stroke="black" points="592.5,-169 592.5,-221 753.5,-221 753.5,-169 592.5,-169"/>
<text text-anchor="start" x="600.5" y="-209" font-family="Helvetica,sans-Serif" font-size="10.00">/home/travis/build</text>
<text text-anchor="start" x="600.5" y="-198" font-family="Helvetica,sans-Serif" font-size="10.00">/STORM&#45;IRIT/Radium&#45;Engine</text>
<text text-anchor="start" x="600.5" y="-187" font-family="Helvetica,sans-Serif" font-size="10.00">/Plugins/Animation/src/Animation</text>
<text text-anchor="middle" x="673" y="-176" font-family="Helvetica,sans-Serif" font-size="10.00">Component.cpp</text>
</a>
</g>
</g>
<!-- Node2&#45;&gt;Node6 -->
<g id="edge6" class="edge"><title>Node2&#45;&gt;Node6</title>
<path fill="none" stroke="midnightblue" d="M937.652,-261.191C884.237,-250.212 820.193,-236.334 763,-222 760.003,-221.249 756.954,-220.466 753.879,-219.66"/>
<polygon fill="midnightblue" stroke="midnightblue" points="936.999,-264.63 947.498,-263.206 938.403,-257.772 936.999,-264.63"/>
</g>
<!-- Node7 -->
<g id="node7" class="node"><title>Node7</title>
<g id="a_node7"><a xlink:href="FancyMeshComponent_8cpp.html" target="_top" xlink:title="/home/travis/build\l/STORM&#45;IRIT/Radium&#45;Engine\l/Plugins/FancyMesh/src/FancyMesh\lComponent.cpp">
<polygon fill="white" stroke="black" points="772,-169 772,-221 948,-221 948,-169 772,-169"/>
<text text-anchor="start" x="780" y="-209" font-family="Helvetica,sans-Serif" font-size="10.00">/home/travis/build</text>
<text text-anchor="start" x="780" y="-198" font-family="Helvetica,sans-Serif" font-size="10.00">/STORM&#45;IRIT/Radium&#45;Engine</text>
<text text-anchor="start" x="780" y="-187" font-family="Helvetica,sans-Serif" font-size="10.00">/Plugins/FancyMesh/src/FancyMesh</text>
<text text-anchor="middle" x="860" y="-176" font-family="Helvetica,sans-Serif" font-size="10.00">Component.cpp</text>
</a>
</g>
</g>
<!-- Node2&#45;&gt;Node7 -->
<g id="edge7" class="edge"><title>Node2&#45;&gt;Node7</title>
<path fill="none" stroke="midnightblue" d="M989.304,-254.654C965.36,-243.792 938.451,-231.586 915.406,-221.133"/>
<polygon fill="midnightblue" stroke="midnightblue" points="988.114,-257.957 998.667,-258.901 991.006,-251.582 988.114,-257.957"/>
</g>
<!-- Node8 -->
<g id="node8" class="node"><title>Node8</title>
<g id="a_node8"><a xlink:href="FancyMeshSystem_8cpp.html" target="_top" xlink:title="/home/travis/build\l/STORM&#45;IRIT/Radium&#45;Engine\l/Plugins/FancyMesh/src/FancyMesh\lSystem.cpp">
<polygon fill="white" stroke="black" points="966,-169 966,-221 1142,-221 1142,-169 966,-169"/>
<text text-anchor="start" x="974" y="-209" font-family="Helvetica,sans-Serif" font-size="10.00">/home/travis/build</text>
<text text-anchor="start" x="974" y="-198" font-family="Helvetica,sans-Serif" font-size="10.00">/STORM&#45;IRIT/Radium&#45;Engine</text>
<text text-anchor="start" x="974" y="-187" font-family="Helvetica,sans-Serif" font-size="10.00">/Plugins/FancyMesh/src/FancyMesh</text>
<text text-anchor="middle" x="1054" y="-176" font-family="Helvetica,sans-Serif" font-size="10.00">System.cpp</text>
</a>
</g>
</g>
<!-- Node2&#45;&gt;Node8 -->
<g id="edge8" class="edge"><title>Node2&#45;&gt;Node8</title>
<path fill="none" stroke="midnightblue" d="M1054,-248.489C1054,-239.309 1054,-229.616 1054,-221.092"/>
<polygon fill="midnightblue" stroke="midnightblue" points="1050.5,-248.547 1054,-258.547 1057.5,-248.547 1050.5,-248.547"/>
</g>
<!-- Node9 -->
<g id="node9" class="node"><title>Node9</title>
<g id="a_node9"><a xlink:href="MeshFeatureTrackingComponent_8cpp.html" target="_top" xlink:title="/home/travis/build\l/STORM&#45;IRIT/Radium&#45;Engine\l/Plugins/MeshFeatureTracking\l/src/MeshFeatureTrackingComponent.cpp">
<polygon fill="white" stroke="black" points="1160,-169 1160,-221 1360,-221 1360,-169 1160,-169"/>
<text text-anchor="start" x="1168" y="-209" font-family="Helvetica,sans-Serif" font-size="10.00">/home/travis/build</text>
<text text-anchor="start" x="1168" y="-198" font-family="Helvetica,sans-Serif" font-size="10.00">/STORM&#45;IRIT/Radium&#45;Engine</text>
<text text-anchor="start" x="1168" y="-187" font-family="Helvetica,sans-Serif" font-size="10.00">/Plugins/MeshFeatureTracking</text>
<text text-anchor="middle" x="1260" y="-176" font-family="Helvetica,sans-Serif" font-size="10.00">/src/MeshFeatureTrackingComponent.cpp</text>
</a>
</g>
</g>
<!-- Node2&#45;&gt;Node9 -->
<g id="edge9" class="edge"><title>Node2&#45;&gt;Node9</title>
<path fill="none" stroke="midnightblue" d="M1122.02,-254.942C1147.62,-244.008 1176.48,-231.679 1201.17,-221.133"/>
<polygon fill="midnightblue" stroke="midnightblue" points="1120.58,-251.753 1112.76,-258.901 1123.33,-258.191 1120.58,-251.753"/>
</g>
<!-- Node10 -->
<g id="node10" class="node"><title>Node10</title>
<g id="a_node10"><a xlink:href="MeshPaintComponent_8hpp.html" target="_top" xlink:title="/home/travis/build\l/STORM&#45;IRIT/Radium&#45;Engine\l/Plugins/MeshPaint/src/MeshPaint\lComponent.hpp">
<polygon fill="white" stroke="black" points="1378.5,-169 1378.5,-221 1545.5,-221 1545.5,-169 1378.5,-169"/>
<text text-anchor="start" x="1386.5" y="-209" font-family="Helvetica,sans-Serif" font-size="10.00">/home/travis/build</text>
<text text-anchor="start" x="1386.5" y="-198" font-family="Helvetica,sans-Serif" font-size="10.00">/STORM&#45;IRIT/Radium&#45;Engine</text>
<text text-anchor="start" x="1386.5" y="-187" font-family="Helvetica,sans-Serif" font-size="10.00">/Plugins/MeshPaint/src/MeshPaint</text>
<text text-anchor="middle" x="1462" y="-176" font-family="Helvetica,sans-Serif" font-size="10.00">Component.hpp</text>
</a>
</g>
</g>
<!-- Node2&#45;&gt;Node10 -->
<g id="edge10" class="edge"><title>Node2&#45;&gt;Node10</title>
<path fill="none" stroke="midnightblue" d="M1170.72,-263.28C1230.29,-252.135 1303.77,-237.512 1369,-222 1372.1,-221.263 1375.25,-220.492 1378.43,-219.697"/>
<polygon fill="midnightblue" stroke="midnightblue" points="1169.72,-259.907 1160.53,-265.179 1171,-266.789 1169.72,-259.907"/>
</g>
<!-- Node12 -->
<g id="node12" class="node"><title>Node12</title>
<g id="a_node12"><a xlink:href="MeshPaintSystem_8cpp.html" target="_top" xlink:title="/home/travis/build\l/STORM&#45;IRIT/Radium&#45;Engine\l/Plugins/MeshPaint/src/MeshPaint\lSystem.cpp">
<polygon fill="white" stroke="black" points="1441.5,-79 1441.5,-131 1608.5,-131 1608.5,-79 1441.5,-79"/>
<text text-anchor="start" x="1449.5" y="-119" font-family="Helvetica,sans-Serif" font-size="10.00">/home/travis/build</text>
<text text-anchor="start" x="1449.5" y="-108" font-family="Helvetica,sans-Serif" font-size="10.00">/STORM&#45;IRIT/Radium&#45;Engine</text>
<text text-anchor="start" x="1449.5" y="-97" font-family="Helvetica,sans-Serif" font-size="10.00">/Plugins/MeshPaint/src/MeshPaint</text>
<text text-anchor="middle" x="1525" y="-86" font-family="Helvetica,sans-Serif" font-size="10.00">System.cpp</text>
</a>
</g>
</g>
<!-- Node2&#45;&gt;Node12 -->
<g id="edge13" class="edge"><title>Node2&#45;&gt;Node12</title>
<path fill="none" stroke="midnightblue" d="M1171.07,-277.526C1310.85,-268.577 1529.03,-250.256 1554,-222 1576.27,-196.8 1558.74,-157.041 1542.87,-131.241"/>
<polygon fill="midnightblue" stroke="midnightblue" points="1170.48,-274.056 1160.73,-278.181 1170.93,-281.042 1170.48,-274.056"/>
</g>
<!-- Node13 -->
<g id="node13" class="node"><title>Node13</title>
<g id="a_node13"><a xlink:href="SkinningDisplayComponent_8hpp.html" target="_top" xlink:title="/home/travis/build\l/STORM&#45;IRIT/Radium&#45;Engine\l/Plugins/Skinning/src/Display\l/SkinningDisplayComponent.hpp">
<polygon fill="white" stroke="black" points="1600.5,-169 1600.5,-221 1759.5,-221 1759.5,-169 1600.5,-169"/>
<text text-anchor="start" x="1608.5" y="-209" font-family="Helvetica,sans-Serif" font-size="10.00">/home/travis/build</text>
<text text-anchor="start" x="1608.5" y="-198" font-family="Helvetica,sans-Serif" font-size="10.00">/STORM&#45;IRIT/Radium&#45;Engine</text>
<text text-anchor="start" x="1608.5" y="-187" font-family="Helvetica,sans-Serif" font-size="10.00">/Plugins/Skinning/src/Display</text>
<text text-anchor="middle" x="1680" y="-176" font-family="Helvetica,sans-Serif" font-size="10.00">/SkinningDisplayComponent.hpp</text>
</a>
</g>
</g>
<!-- Node2&#45;&gt;Node13 -->
<g id="edge14" class="edge"><title>Node2&#45;&gt;Node13</title>
<path fill="none" stroke="midnightblue" d="M1170.69,-275.724C1279.22,-266.778 1445.06,-249.917 1587,-222 1591.36,-221.143 1595.81,-220.184 1600.29,-219.155"/>
<polygon fill="midnightblue" stroke="midnightblue" points="1170.37,-272.238 1160.69,-276.539 1170.94,-279.214 1170.37,-272.238"/>
</g>
<!-- Node16 -->
<g id="node16" class="node"><title>Node16</title>
<g id="a_node16"><a xlink:href="SkinningComponent_8hpp.html" target="_top" xlink:title="/home/travis/build\l/STORM&#45;IRIT/Radium&#45;Engine\l/Plugins/Skinning/src/SkinningComponent.hpp">
<polygon fill="white" stroke="black" points="1778,-174.5 1778,-215.5 1996,-215.5 1996,-174.5 1778,-174.5"/>
<text text-anchor="start" x="1786" y="-203.5" font-family="Helvetica,sans-Serif" font-size="10.00">/home/travis/build</text>
<text text-anchor="start" x="1786" y="-192.5" font-family="Helvetica,sans-Serif" font-size="10.00">/STORM&#45;IRIT/Radium&#45;Engine</text>
<text text-anchor="middle" x="1887" y="-181.5" font-family="Helvetica,sans-Serif" font-size="10.00">/Plugins/Skinning/src/SkinningComponent.hpp</text>
</a>
</g>
</g>
<!-- Node2&#45;&gt;Node16 -->
<g id="edge17" class="edge"><title>Node2&#45;&gt;Node16</title>
<path fill="none" stroke="midnightblue" d="M1170.69,-278.479C1312.51,-270.708 1558.83,-253.798 1768,-222 1779.71,-220.22 1791.99,-217.975 1804.03,-215.553"/>
<polygon fill="midnightblue" stroke="midnightblue" points="1170.45,-274.986 1160.66,-279.023 1170.83,-281.976 1170.45,-274.986"/>
</g>
<!-- Node11 -->
<g id="node11" class="node"><title>Node11</title>
<g id="a_node11"><a xlink:href="MeshPaintComponent_8cpp.html" target="_top" xlink:title="/home/travis/build\l/STORM&#45;IRIT/Radium&#45;Engine\l/Plugins/MeshPaint/src/MeshPaint\lComponent.cpp">
<polygon fill="white" stroke="black" points="1256.5,-79 1256.5,-131 1423.5,-131 1423.5,-79 1256.5,-79"/>
<text text-anchor="start" x="1264.5" y="-119" font-family="Helvetica,sans-Serif" font-size="10.00">/home/travis/build</text>
<text text-anchor="start" x="1264.5" y="-108" font-family="Helvetica,sans-Serif" font-size="10.00">/STORM&#45;IRIT/Radium&#45;Engine</text>
<text text-anchor="start" x="1264.5" y="-97" font-family="Helvetica,sans-Serif" font-size="10.00">/Plugins/MeshPaint/src/MeshPaint</text>
<text text-anchor="middle" x="1340" y="-86" font-family="Helvetica,sans-Serif" font-size="10.00">Component.cpp</text>
</a>
</g>
</g>
<!-- Node10&#45;&gt;Node11 -->
<g id="edge11" class="edge"><title>Node10&#45;&gt;Node11</title>
<path fill="none" stroke="midnightblue" d="M1418.78,-162.824C1404.42,-152.467 1388.62,-141.071 1374.97,-131.221"/>
<polygon fill="midnightblue" stroke="midnightblue" points="1416.88,-165.771 1427.04,-168.783 1420.98,-160.094 1416.88,-165.771"/>
</g>
<!-- Node10&#45;&gt;Node12 -->
<g id="edge12" class="edge"><title>Node10&#45;&gt;Node12</title>
<path fill="none" stroke="midnightblue" d="M1486.16,-160.259C1493.1,-150.564 1500.54,-140.166 1507.04,-131.092"/>
<polygon fill="midnightblue" stroke="midnightblue" points="1483.2,-158.378 1480.22,-168.547 1488.89,-162.453 1483.2,-158.378"/>
</g>
<!-- Node14 -->
<g id="node14" class="node"><title>Node14</title>
<g id="a_node14"><a xlink:href="SkinningSystem_8hpp.html" target="_top" xlink:title="/home/travis/build\l/STORM&#45;IRIT/Radium&#45;Engine\l/Plugins/Skinning/src/SkinningSystem.hpp">
<polygon fill="white" stroke="black" points="1627,-84.5 1627,-125.5 1829,-125.5 1829,-84.5 1627,-84.5"/>
<text text-anchor="start" x="1635" y="-113.5" font-family="Helvetica,sans-Serif" font-size="10.00">/home/travis/build</text>
<text text-anchor="start" x="1635" y="-102.5" font-family="Helvetica,sans-Serif" font-size="10.00">/STORM&#45;IRIT/Radium&#45;Engine</text>
<text text-anchor="middle" x="1728" y="-91.5" font-family="Helvetica,sans-Serif" font-size="10.00">/Plugins/Skinning/src/SkinningSystem.hpp</text>
</a>
</g>
</g>
<!-- Node13&#45;&gt;Node14 -->
<g id="edge15" class="edge"><title>Node13&#45;&gt;Node14</title>
<path fill="none" stroke="midnightblue" d="M1698.79,-159.546C1705.09,-147.996 1711.9,-135.524 1717.35,-125.525"/>
<polygon fill="midnightblue" stroke="midnightblue" points="1695.6,-158.092 1693.88,-168.547 1701.74,-161.444 1695.6,-158.092"/>
</g>
<!-- Node15 -->
<g id="node15" class="node"><title>Node15</title>
<g id="a_node15"><a xlink:href="SkinningPlugin_8cpp.html" target="_top" xlink:title="/home/travis/build\l/STORM&#45;IRIT/Radium&#45;Engine\l/Plugins/Skinning/src/SkinningPlugin.cpp">
<polygon fill="white" stroke="black" points="1630.5,-0.5 1630.5,-41.5 1825.5,-41.5 1825.5,-0.5 1630.5,-0.5"/>
<text text-anchor="start" x="1638.5" y="-29.5" font-family="Helvetica,sans-Serif" font-size="10.00">/home/travis/build</text>
<text text-anchor="start" x="1638.5" y="-18.5" font-family="Helvetica,sans-Serif" font-size="10.00">/STORM&#45;IRIT/Radium&#45;Engine</text>
<text text-anchor="middle" x="1728" y="-7.5" font-family="Helvetica,sans-Serif" font-size="10.00">/Plugins/Skinning/src/SkinningPlugin.cpp</text>
</a>
</g>
</g>
<!-- Node14&#45;&gt;Node15 -->
<g id="edge16" class="edge"><title>Node14&#45;&gt;Node15</title>
<path fill="none" stroke="midnightblue" d="M1728,-73.881C1728,-63.1328 1728,-51.309 1728,-41.6671"/>
<polygon fill="midnightblue" stroke="midnightblue" points="1724.5,-74.1501 1728,-84.1501 1731.5,-74.1501 1724.5,-74.1501"/>
</g>
<!-- Node16&#45;&gt;Node14 -->
<g id="edge19" class="edge"><title>Node16&#45;&gt;Node14</title>
<path fill="none" stroke="midnightblue" d="M1842.78,-169.528C1817.76,-155.678 1786.89,-138.591 1763.46,-125.627"/>
<polygon fill="midnightblue" stroke="midnightblue" points="1841.27,-172.69 1851.71,-174.47 1844.66,-166.565 1841.27,-172.69"/>
</g>
<!-- Node17 -->
<g id="node17" class="node"><title>Node17</title>
<g id="a_node17"><a xlink:href="SkinningComponent_8cpp.html" target="_top" xlink:title="/home/travis/build\l/STORM&#45;IRIT/Radium&#45;Engine\l/Plugins/Skinning/src/SkinningComponent.cpp">
<polygon fill="white" stroke="black" points="1847,-84.5 1847,-125.5 2065,-125.5 2065,-84.5 1847,-84.5"/>
<text text-anchor="start" x="1855" y="-113.5" font-family="Helvetica,sans-Serif" font-size="10.00">/home/travis/build</text>
<text text-anchor="start" x="1855" y="-102.5" font-family="Helvetica,sans-Serif" font-size="10.00">/STORM&#45;IRIT/Radium&#45;Engine</text>
<text text-anchor="middle" x="1956" y="-91.5" font-family="Helvetica,sans-Serif" font-size="10.00">/Plugins/Skinning/src/SkinningComponent.cpp</text>
</a>
</g>
</g>
<!-- Node16&#45;&gt;Node17 -->
<g id="edge18" class="edge"><title>Node16&#45;&gt;Node17</title>
<path fill="none" stroke="midnightblue" d="M1908.49,-166.596C1918.85,-153.379 1931.05,-137.822 1940.49,-125.78"/>
<polygon fill="midnightblue" stroke="midnightblue" points="1905.73,-164.441 1902.31,-174.47 1911.24,-168.76 1905.73,-164.441"/>
</g>
</g>
</svg>
