<?xml version="1.0" encoding="UTF-8" standalone="no"?>
<!DOCTYPE svg PUBLIC "-//W3C//DTD SVG 1.1//EN"
 "http://www.w3.org/Graphics/SVG/1.1/DTD/svg11.dtd">
<!-- Generated by graphviz version 2.36.0 (20140111.2315)
 -->
<!-- Title: /home/travis/build/STORM&#45;IRIT/Radium&#45;Engine/src/Core/Mesh/TopologicalTriMesh/TopologicalMesh.hpp Pages: 1 -->
<svg width="1584pt" height="558pt"
 viewBox="0.00 0.00 1584.33 558.00" xmlns="http://www.w3.org/2000/svg" xmlns:xlink="http://www.w3.org/1999/xlink">
<g id="graph0" class="graph" transform="scale(1 1) rotate(0) translate(4 554)">
<title>/home/travis/build/STORM&#45;IRIT/Radium&#45;Engine/src/Core/Mesh/TopologicalTriMesh/TopologicalMesh.hpp</title>
<polygon fill="white" stroke="none" points="-4,4 -4,-554 1580.33,-554 1580.33,4 -4,4"/>
<!-- Node1 -->
<g id="node1" class="node"><title>Node1</title>
<polygon fill="#bfbfbf" stroke="black" points="461.506,-497 461.506,-549 633.506,-549 633.506,-497 461.506,-497"/>
<text text-anchor="start" x="469.506" y="-537" font-family="Helvetica,sans-Serif" font-size="10.00">/home/travis/build</text>
<text text-anchor="start" x="469.506" y="-526" font-family="Helvetica,sans-Serif" font-size="10.00">/STORM&#45;IRIT/Radium&#45;Engine</text>
<text text-anchor="start" x="469.506" y="-515" font-family="Helvetica,sans-Serif" font-size="10.00">/src/Core/Mesh/TopologicalTriMesh</text>
<text text-anchor="middle" x="547.506" y="-504" font-family="Helvetica,sans-Serif" font-size="10.00">/TopologicalMesh.hpp</text>
</g>
<!-- Node2 -->
<g id="node2" class="node"><title>Node2</title>
<g id="a_node2"><a xlink:href="OpenMesh_8h.html" target="_top" xlink:title="Core/Mesh/TopologicalTri\lMesh/OpenMesh.h">
<polygon fill="white" stroke="black" points="289.506,-305 289.506,-335 417.506,-335 417.506,-305 289.506,-305"/>
<text text-anchor="start" x="297.506" y="-323" font-family="Helvetica,sans-Serif" font-size="10.00">Core/Mesh/TopologicalTri</text>
<text text-anchor="middle" x="353.506" y="-312" font-family="Helvetica,sans-Serif" font-size="10.00">Mesh/OpenMesh.h</text>
</a>
</g>
</g>
<!-- Node1&#45;&gt;Node2 -->
<g id="edge1" class="edge"><title>Node1&#45;&gt;Node2</title>
<path fill="none" stroke="midnightblue" d="M509.52,-496.746C494.787,-486.171 478.203,-473.262 464.506,-460 426.267,-422.977 389.206,-372.803 369.068,-343.967"/>
<polygon fill="midnightblue" stroke="midnightblue" points="371.709,-341.633 363.144,-335.397 365.951,-345.613 371.709,-341.633"/>
</g>
<!-- Node3 -->
<g id="node3" class="node"><title>Node3</title>
<g id="a_node3"><a xlink:href="RaCore_8hpp.html" target="_top" xlink:title="Core/RaCore.hpp">
<polygon fill="white" stroke="black" points="917.006,-112.5 917.006,-131.5 1010.01,-131.5 1010.01,-112.5 917.006,-112.5"/>
<text text-anchor="middle" x="963.506" y="-119.5" font-family="Helvetica,sans-Serif" font-size="10.00">Core/RaCore.hpp</text>
</a>
</g>
</g>
<!-- Node1&#45;&gt;Node3 -->
<g id="edge61" class="edge"><title>Node1&#45;&gt;Node3</title>
<path fill="none" stroke="midnightblue" d="M461.09,-517.093C344.993,-509.388 145.693,-491.93 80.5058,-460 36.759,-438.572 2.50579,-431.713 2.50579,-383 2.50579,-383 2.50579,-383 2.50579,-251 2.50579,-213.157 -7.51737,-192.285 21.5058,-168 55.5458,-139.517 707.946,-126.998 906.593,-123.836"/>
<polygon fill="midnightblue" stroke="midnightblue" points="906.871,-127.332 916.814,-123.676 906.76,-120.333 906.871,-127.332"/>
</g>
<!-- Node10 -->
<g id="node10" class="node"><title>Node10</title>
<polygon fill="white" stroke="#bfbfbf" points="31.0058,-174.5 31.0058,-193.5 96.0058,-193.5 96.0058,-174.5 31.0058,-174.5"/>
<text text-anchor="middle" x="63.5058" y="-181.5" font-family="Helvetica,sans-Serif" font-size="10.00">Eigen/Core</text>
</g>
<!-- Node1&#45;&gt;Node10 -->
<g id="edge66" class="edge"><title>Node1&#45;&gt;Node10</title>
<path fill="none" stroke="midnightblue" d="M461.324,-515.432C358.626,-506.483 194.056,-488.263 139.506,-460 97.3624,-438.165 65.5058,-430.464 65.5058,-383 65.5058,-383 65.5058,-383 65.5058,-319 65.5058,-278.042 64.5601,-230.05 63.9693,-204.065"/>
<polygon fill="midnightblue" stroke="midnightblue" points="67.4616,-203.694 63.7275,-193.779 60.4635,-203.859 67.4616,-203.694"/>
</g>
<!-- Node11 -->
<g id="node11" class="node"><title>Node11</title>
<polygon fill="white" stroke="#bfbfbf" points="114.006,-174.5 114.006,-193.5 201.006,-193.5 201.006,-174.5 114.006,-174.5"/>
<text text-anchor="middle" x="157.506" y="-181.5" font-family="Helvetica,sans-Serif" font-size="10.00">Eigen/Geometry</text>
</g>
<!-- Node1&#45;&gt;Node11 -->
<g id="edge67" class="edge"><title>Node1&#45;&gt;Node11</title>
<path fill="none" stroke="midnightblue" d="M461.497,-512.661C332.914,-496.275 105.506,-456.855 105.506,-383 105.506,-383 105.506,-383 105.506,-319 105.506,-281.157 109.78,-270.861 124.506,-236 129.606,-223.926 137.532,-211.555 144.337,-202.022"/>
<polygon fill="midnightblue" stroke="midnightblue" points="147.249,-203.971 150.391,-193.853 141.625,-199.804 147.249,-203.971"/>
</g>
<!-- Node12 -->
<g id="node12" class="node"><title>Node12</title>
<g id="a_node12"><a xlink:href="LinearAlgebra_8hpp.html" target="_top" xlink:title="Core/Math/LinearAlgebra.hpp">
<polygon fill="white" stroke="black" points="531.006,-242.5 531.006,-261.5 674.006,-261.5 674.006,-242.5 531.006,-242.5"/>
<text text-anchor="middle" x="602.506" y="-249.5" font-family="Helvetica,sans-Serif" font-size="10.00">Core/Math/LinearAlgebra.hpp</text>
</a>
</g>
</g>
<!-- Node1&#45;&gt;Node12 -->
<g id="edge30" class="edge"><title>Node1&#45;&gt;Node12</title>
<path fill="none" stroke="midnightblue" d="M552.68,-496.693C563.649,-443.046 589.021,-318.95 598.679,-271.715"/>
<polygon fill="midnightblue" stroke="midnightblue" points="602.157,-272.179 600.731,-261.681 595.299,-270.777 602.157,-272.179"/>
</g>
<!-- Node21 -->
<g id="node21" class="node"><title>Node21</title>
<polygon fill="white" stroke="#bfbfbf" points="134.006,-237 134.006,-267 249.006,-267 249.006,-237 134.006,-237"/>
<text text-anchor="start" x="142.006" y="-255" font-family="Helvetica,sans-Serif" font-size="10.00">OpenMesh/Core/Mesh</text>
<text text-anchor="middle" x="191.506" y="-244" font-family="Helvetica,sans-Serif" font-size="10.00">/Traits.hh</text>
</g>
<!-- Node1&#45;&gt;Node21 -->
<g id="edge63" class="edge"><title>Node1&#45;&gt;Node21</title>
<path fill="none" stroke="midnightblue" d="M495.913,-496.851C475.644,-486.291 452.492,-473.364 432.506,-460 344.603,-401.223 253.196,-314.386 212.833,-274.482"/>
<polygon fill="midnightblue" stroke="midnightblue" points="215.017,-271.718 205.458,-267.15 210.082,-276.682 215.017,-271.718"/>
</g>
<!-- Node22 -->
<g id="node22" class="node"><title>Node22</title>
<polygon fill="white" stroke="#bfbfbf" points="382.006,-237 382.006,-267 513.006,-267 513.006,-237 382.006,-237"/>
<text text-anchor="start" x="390.006" y="-255" font-family="Helvetica,sans-Serif" font-size="10.00">OpenMesh/Core/Mesh</text>
<text text-anchor="middle" x="447.506" y="-244" font-family="Helvetica,sans-Serif" font-size="10.00">/TriMesh_ArrayKernelT.hh</text>
</g>
<!-- Node1&#45;&gt;Node22 -->
<g id="edge64" class="edge"><title>Node1&#45;&gt;Node22</title>
<path fill="none" stroke="midnightblue" d="M538.098,-496.693C518.812,-444.813 475.033,-327.047 456.289,-276.626"/>
<polygon fill="midnightblue" stroke="midnightblue" points="459.553,-275.361 452.787,-267.208 452.991,-277.801 459.553,-275.361"/>
</g>
<!-- Node23 -->
<g id="node23" class="node"><title>Node23</title>
<g id="a_node23"><a xlink:href="Index_8hpp.html" target="_top" xlink:title="Core/Index/Index.hpp">
<polygon fill="white" stroke="black" points="689.506,-310.5 689.506,-329.5 799.506,-329.5 799.506,-310.5 689.506,-310.5"/>
<text text-anchor="middle" x="744.506" y="-317.5" font-family="Helvetica,sans-Serif" font-size="10.00">Core/Index/Index.hpp</text>
</a>
</g>
</g>
<!-- Node1&#45;&gt;Node23 -->
<g id="edge27" class="edge"><title>Node1&#45;&gt;Node23</title>
<path fill="none" stroke="midnightblue" d="M560.834,-496.881C578.783,-464.843 613.274,-409.15 654.506,-372 672.344,-355.928 696.097,-342.733 714.722,-333.794"/>
<polygon fill="midnightblue" stroke="midnightblue" points="716.34,-336.901 723.935,-329.514 713.391,-330.553 716.34,-336.901"/>
</g>
<!-- Node26 -->
<g id="node26" class="node"><title>Node26</title>
<g id="a_node26"><a xlink:href="TriangleMesh_8hpp.html" target="_top" xlink:title="Core/Mesh/TriangleMesh.hpp">
<polygon fill="white" stroke="black" points="643.006,-434.5 643.006,-453.5 788.006,-453.5 788.006,-434.5 643.006,-434.5"/>
<text text-anchor="middle" x="715.506" y="-441.5" font-family="Helvetica,sans-Serif" font-size="10.00">Core/Mesh/TriangleMesh.hpp</text>
</a>
</g>
</g>
<!-- Node1&#45;&gt;Node26 -->
<g id="edge31" class="edge"><title>Node1&#45;&gt;Node26</title>
<path fill="none" stroke="midnightblue" d="M602.515,-496.787C630.985,-483.739 664.518,-468.369 687.618,-457.782"/>
<polygon fill="midnightblue" stroke="midnightblue" points="689.202,-460.906 696.834,-453.558 686.285,-454.543 689.202,-460.906"/>
</g>
<!-- Node39 -->
<g id="node39" class="node"><title>Node39</title>
<polygon fill="white" stroke="#bfbfbf" points="806.006,-429 806.006,-459 945.006,-459 945.006,-429 806.006,-429"/>
<text text-anchor="start" x="814.006" y="-447" font-family="Helvetica,sans-Serif" font-size="10.00">OpenMesh/Core/Mesh</text>
<text text-anchor="middle" x="875.506" y="-436" font-family="Helvetica,sans-Serif" font-size="10.00">/PolyMesh_ArrayKernelT.hh</text>
</g>
<!-- Node1&#45;&gt;Node39 -->
<g id="edge62" class="edge"><title>Node1&#45;&gt;Node39</title>
<path fill="none" stroke="midnightblue" d="M633.684,-501.769C687.423,-489.154 755.674,-473.131 805.956,-461.327"/>
<polygon fill="midnightblue" stroke="midnightblue" points="806.827,-464.718 815.763,-459.025 805.227,-457.903 806.827,-464.718"/>
</g>
<!-- Node40 -->
<g id="node40" class="node"><title>Node40</title>
<polygon fill="white" stroke="#bfbfbf" points="963.006,-429 963.006,-459 1074.01,-459 1074.01,-429 963.006,-429"/>
<text text-anchor="start" x="971.006" y="-447" font-family="Helvetica,sans-Serif" font-size="10.00">OpenMesh/Core/Utils</text>
<text text-anchor="middle" x="1018.51" y="-436" font-family="Helvetica,sans-Serif" font-size="10.00">/Property.hh</text>
</g>
<!-- Node1&#45;&gt;Node40 -->
<g id="edge65" class="edge"><title>Node1&#45;&gt;Node40</title>
<path fill="none" stroke="midnightblue" d="M633.763,-510.746C713.838,-499.859 836.543,-482.06 952.752,-460.058"/>
<polygon fill="midnightblue" stroke="midnightblue" points="953.728,-463.435 962.895,-458.123 952.416,-456.559 953.728,-463.435"/>
</g>
<!-- Node41 -->
<g id="node41" class="node"><title>Node41</title>
<g id="a_node41"><a xlink:href="TopologicalMesh_8inl.html" target="_top" xlink:title="Core/Mesh/TopologicalTri\lMesh/TopologicalMesh.inl">
<polygon fill="white" stroke="black" points="1092.51,-429 1092.51,-459 1222.51,-459 1222.51,-429 1092.51,-429"/>
<text text-anchor="start" x="1100.51" y="-447" font-family="Helvetica,sans-Serif" font-size="10.00">Core/Mesh/TopologicalTri</text>
<text text-anchor="middle" x="1157.51" y="-436" font-family="Helvetica,sans-Serif" font-size="10.00">Mesh/TopologicalMesh.inl</text>
</a>
</g>
</g>
<!-- Node1&#45;&gt;Node41 -->
<g id="edge68" class="edge"><title>Node1&#45;&gt;Node41</title>
<path fill="none" stroke="midnightblue" d="M633.634,-513.594C738.046,-503.351 919.029,-484.357 1073.51,-460 1076.33,-459.554 1079.22,-459.077 1082.13,-458.577"/>
<polygon fill="midnightblue" stroke="midnightblue" points="1082.9,-461.996 1092.13,-456.801 1081.67,-455.103 1082.9,-461.996"/>
</g>
<!-- Node2&#45;&gt;Node3 -->
<g id="edge2" class="edge"><title>Node2&#45;&gt;Node3</title>
<path fill="none" stroke="midnightblue" d="M352.892,-304.663C352.445,-273.577 356.357,-200.188 400.506,-168 440.757,-138.654 771.841,-127.543 906.685,-124.208"/>
<polygon fill="midnightblue" stroke="midnightblue" points="906.903,-127.704 916.816,-123.963 906.734,-120.706 906.903,-127.704"/>
</g>
<!-- Node2&#45;&gt;Node10 -->
<g id="edge9" class="edge"><title>Node2&#45;&gt;Node10</title>
<path fill="none" stroke="midnightblue" d="M335.605,-304.8C323.077,-294.735 306.049,-280.8 291.506,-268 275.929,-254.29 275.785,-245.823 257.506,-236 195.971,-202.933 171.428,-220.037 104.506,-200 101.384,-199.065 98.1534,-198.021 94.9398,-196.931"/>
<polygon fill="midnightblue" stroke="midnightblue" points="96.0673,-193.618 85.4725,-193.586 93.7349,-200.218 96.0673,-193.618"/>
</g>
<!-- Node2&#45;&gt;Node11 -->
<g id="edge10" class="edge"><title>Node2&#45;&gt;Node11</title>
<path fill="none" stroke="midnightblue" d="M346.187,-304.71C336.152,-286.42 316.487,-254.851 291.506,-236 275.863,-224.196 228.77,-207.619 194.832,-196.606"/>
<polygon fill="midnightblue" stroke="midnightblue" points="195.801,-193.241 185.209,-193.517 193.661,-199.906 195.801,-193.241"/>
</g>
<!-- Node2&#45;&gt;Node12 -->
<g id="edge11" class="edge"><title>Node2&#45;&gt;Node12</title>
<path fill="none" stroke="midnightblue" d="M406.617,-304.922C452.633,-292.725 518.3,-275.32 560.667,-264.09"/>
<polygon fill="midnightblue" stroke="midnightblue" points="561.616,-267.459 570.386,-261.514 559.823,-260.693 561.616,-267.459"/>
</g>
<!-- Node2&#45;&gt;Node21 -->
<g id="edge25" class="edge"><title>Node2&#45;&gt;Node21</title>
<path fill="none" stroke="midnightblue" d="M318.753,-304.841C294.326,-294.89 261.461,-281.5 235.251,-270.822"/>
<polygon fill="midnightblue" stroke="midnightblue" points="236.504,-267.554 225.923,-267.022 233.863,-274.036 236.504,-267.554"/>
</g>
<!-- Node2&#45;&gt;Node22 -->
<g id="edge26" class="edge"><title>Node2&#45;&gt;Node22</title>
<path fill="none" stroke="midnightblue" d="M373.902,-304.679C387.173,-295.361 404.662,-283.082 419.263,-272.83"/>
<polygon fill="midnightblue" stroke="midnightblue" points="421.299,-275.677 427.472,-267.066 417.277,-269.948 421.299,-275.677"/>
</g>
<!-- Node4 -->
<g id="node4" class="node"><title>Node4</title>
<g id="a_node4"><a xlink:href="CoreMacros_8hpp.html" target="_top" xlink:title="Core/CoreMacros.hpp">
<polygon fill="white" stroke="black" points="1050.01,-56.5 1050.01,-75.5 1163.01,-75.5 1163.01,-56.5 1050.01,-56.5"/>
<text text-anchor="middle" x="1106.51" y="-63.5" font-family="Helvetica,sans-Serif" font-size="10.00">Core/CoreMacros.hpp</text>
</a>
</g>
</g>
<!-- Node3&#45;&gt;Node4 -->
<g id="edge3" class="edge"><title>Node3&#45;&gt;Node4</title>
<path fill="none" stroke="midnightblue" d="M986.165,-112.444C1009.91,-103.478 1047.41,-89.314 1074.24,-79.1827"/>
<polygon fill="midnightblue" stroke="midnightblue" points="1075.83,-82.3235 1083.95,-75.5164 1073.36,-75.7749 1075.83,-82.3235"/>
</g>
<!-- Node5 -->
<g id="node5" class="node"><title>Node5</title>
<polygon fill="white" stroke="#bfbfbf" points="1181.01,-0.5 1181.01,-19.5 1230.01,-19.5 1230.01,-0.5 1181.01,-0.5"/>
<text text-anchor="middle" x="1205.51" y="-7.5" font-family="Helvetica,sans-Serif" font-size="10.00">cassert</text>
</g>
<!-- Node4&#45;&gt;Node5 -->
<g id="edge4" class="edge"><title>Node4&#45;&gt;Node5</title>
<path fill="none" stroke="midnightblue" d="M1122.41,-56.324C1138.14,-47.7428 1162.45,-34.486 1180.71,-24.5224"/>
<polygon fill="midnightblue" stroke="midnightblue" points="1182.54,-27.5157 1189.64,-19.6545 1179.18,-21.3704 1182.54,-27.5157"/>
</g>
<!-- Node6 -->
<g id="node6" class="node"><title>Node6</title>
<polygon fill="white" stroke="#bfbfbf" points="985.006,-0.5 985.006,-19.5 1028.01,-19.5 1028.01,-0.5 985.006,-0.5"/>
<text text-anchor="middle" x="1006.51" y="-7.5" font-family="Helvetica,sans-Serif" font-size="10.00">cstdio</text>
</g>
<!-- Node4&#45;&gt;Node6 -->
<g id="edge5" class="edge"><title>Node4&#45;&gt;Node6</title>
<path fill="none" stroke="midnightblue" d="M1090.44,-56.324C1074.55,-47.7428 1050,-34.486 1031.55,-24.5224"/>
<polygon fill="midnightblue" stroke="midnightblue" points="1032.99,-21.3264 1022.53,-19.6545 1029.67,-27.4857 1032.99,-21.3264"/>
</g>
<!-- Node7 -->
<g id="node7" class="node"><title>Node7</title>
<polygon fill="white" stroke="#bfbfbf" points="1046.51,-0.5 1046.51,-19.5 1100.51,-19.5 1100.51,-0.5 1046.51,-0.5"/>
<text text-anchor="middle" x="1073.51" y="-7.5" font-family="Helvetica,sans-Serif" font-size="10.00">iostream</text>
</g>
<!-- Node4&#45;&gt;Node7 -->
<g id="edge6" class="edge"><title>Node4&#45;&gt;Node7</title>
<path fill="none" stroke="midnightblue" d="M1101.06,-56.083C1096.49,-48.6127 1089.84,-37.7244 1084.21,-28.5199"/>
<polygon fill="midnightblue" stroke="midnightblue" points="1087.05,-26.4588 1078.85,-19.7511 1081.08,-30.109 1087.05,-26.4588"/>
</g>
<!-- Node8 -->
<g id="node8" class="node"><title>Node8</title>
<polygon fill="white" stroke="#bfbfbf" points="1358.51,-0.5 1358.51,-19.5 1410.51,-19.5 1410.51,-0.5 1358.51,-0.5"/>
<text text-anchor="middle" x="1384.51" y="-7.5" font-family="Helvetica,sans-Serif" font-size="10.00">sstream</text>
</g>
<!-- Node4&#45;&gt;Node8 -->
<g id="edge7" class="edge"><title>Node4&#45;&gt;Node8</title>
<path fill="none" stroke="midnightblue" d="M1150.56,-56.4435C1205.27,-45.8153 1297.59,-27.8836 1348.35,-18.0223"/>
<polygon fill="midnightblue" stroke="midnightblue" points="1349.08,-21.4468 1358.23,-16.1041 1347.75,-14.5752 1349.08,-21.4468"/>
</g>
<!-- Node9 -->
<g id="node9" class="node"><title>Node9</title>
<polygon fill="white" stroke="#bfbfbf" points="1118.51,-0.5 1118.51,-19.5 1162.51,-19.5 1162.51,-0.5 1118.51,-0.5"/>
<text text-anchor="middle" x="1140.51" y="-7.5" font-family="Helvetica,sans-Serif" font-size="10.00">thread</text>
</g>
<!-- Node4&#45;&gt;Node9 -->
<g id="edge8" class="edge"><title>Node4&#45;&gt;Node9</title>
<path fill="none" stroke="midnightblue" d="M1112.12,-56.083C1116.87,-48.5341 1123.82,-37.4948 1129.66,-28.2298"/>
<polygon fill="midnightblue" stroke="midnightblue" points="1132.63,-30.0783 1135,-19.7511 1126.71,-26.3486 1132.63,-30.0783"/>
</g>
<!-- Node12&#45;&gt;Node3 -->
<g id="edge12" class="edge"><title>Node12&#45;&gt;Node3</title>
<path fill="none" stroke="midnightblue" d="M559.306,-242.411C505.556,-231.29 419.678,-211.927 410.506,-200 401.836,-188.726 400.866,-178.457 410.506,-168 443.675,-132.022 772.619,-124.808 906.882,-123.362"/>
<polygon fill="midnightblue" stroke="midnightblue" points="907.006,-126.861 916.97,-123.26 906.936,-119.861 907.006,-126.861"/>
</g>
<!-- Node12&#45;&gt;Node10 -->
<g id="edge13" class="edge"><title>Node12&#45;&gt;Node10</title>
<path fill="none" stroke="midnightblue" d="M560.59,-242.437C548.059,-240.094 534.261,-237.727 521.506,-236 337.166,-211.034 286.109,-240.309 104.506,-200 100.811,-199.18 96.9971,-198.109 93.2518,-196.916"/>
<polygon fill="midnightblue" stroke="midnightblue" points="94.2205,-193.547 83.6257,-193.563 91.918,-200.158 94.2205,-193.547"/>
</g>
<!-- Node12&#45;&gt;Node11 -->
<g id="edge14" class="edge"><title>Node12&#45;&gt;Node11</title>
<path fill="none" stroke="midnightblue" d="M559.299,-242.437C547.106,-240.174 533.81,-237.849 521.506,-236 383.906,-215.32 347,-227.033 210.506,-200 205.304,-198.97 199.869,-197.682 194.546,-196.297"/>
<polygon fill="midnightblue" stroke="midnightblue" points="195.107,-192.822 184.537,-193.554 193.257,-199.573 195.107,-192.822"/>
</g>
<!-- Node13 -->
<g id="node13" class="node"><title>Node13</title>
<polygon fill="white" stroke="#bfbfbf" points="575.006,-174.5 575.006,-193.5 650.006,-193.5 650.006,-174.5 575.006,-174.5"/>
<text text-anchor="middle" x="612.506" y="-181.5" font-family="Helvetica,sans-Serif" font-size="10.00">Eigen/Sparse</text>
</g>
<!-- Node12&#45;&gt;Node13 -->
<g id="edge15" class="edge"><title>Node12&#45;&gt;Node13</title>
<path fill="none" stroke="midnightblue" d="M603.813,-242.372C605.287,-232.643 607.729,-216.528 609.65,-203.85"/>
<polygon fill="midnightblue" stroke="midnightblue" points="613.129,-204.253 611.166,-193.841 606.208,-203.204 613.129,-204.253"/>
</g>
<!-- Node14 -->
<g id="node14" class="node"><title>Node14</title>
<polygon fill="white" stroke="#bfbfbf" points="668.006,-174.5 668.006,-193.5 727.006,-193.5 727.006,-174.5 668.006,-174.5"/>
<text text-anchor="middle" x="697.506" y="-181.5" font-family="Helvetica,sans-Serif" font-size="10.00">functional</text>
</g>
<!-- Node12&#45;&gt;Node14 -->
<g id="edge16" class="edge"><title>Node12&#45;&gt;Node14</title>
<path fill="none" stroke="midnightblue" d="M614.925,-242.372C630.643,-231.452 657.939,-212.489 676.823,-199.369"/>
<polygon fill="midnightblue" stroke="midnightblue" points="678.868,-202.21 685.083,-193.63 674.874,-196.462 678.868,-202.21"/>
</g>
<!-- Node15 -->
<g id="node15" class="node"><title>Node15</title>
<polygon fill="white" stroke="#bfbfbf" points="745.006,-169 745.006,-199 878.006,-199 878.006,-169 745.006,-169"/>
<text text-anchor="start" x="753.006" y="-187" font-family="Helvetica,sans-Serif" font-size="10.00">unsupported/Eigen/Aligned</text>
<text text-anchor="middle" x="811.506" y="-176" font-family="Helvetica,sans-Serif" font-size="10.00">Vector3</text>
</g>
<!-- Node12&#45;&gt;Node15 -->
<g id="edge17" class="edge"><title>Node12&#45;&gt;Node15</title>
<path fill="none" stroke="midnightblue" d="M629.829,-242.372C662.096,-232.182 716.545,-214.988 757.439,-202.074"/>
<polygon fill="midnightblue" stroke="midnightblue" points="758.513,-205.405 766.994,-199.056 756.405,-198.73 758.513,-205.405"/>
</g>
<!-- Node16 -->
<g id="node16" class="node"><title>Node16</title>
<g id="a_node16"><a xlink:href="Math_8hpp.html" target="_top" xlink:title="Core/Math/Math.hpp">
<polygon fill="white" stroke="black" points="219.506,-174.5 219.506,-193.5 325.506,-193.5 325.506,-174.5 219.506,-174.5"/>
<text text-anchor="middle" x="272.506" y="-181.5" font-family="Helvetica,sans-Serif" font-size="10.00">Core/Math/Math.hpp</text>
</a>
</g>
</g>
<!-- Node12&#45;&gt;Node16 -->
<g id="edge18" class="edge"><title>Node12&#45;&gt;Node16</title>
<path fill="none" stroke="midnightblue" d="M559.702,-242.439C499.612,-230.421 390.329,-208.565 325.279,-195.555"/>
<polygon fill="midnightblue" stroke="midnightblue" points="325.726,-192.075 315.233,-193.546 324.353,-198.939 325.726,-192.075"/>
</g>
<!-- Node20 -->
<g id="node20" class="node"><title>Node20</title>
<g id="a_node20"><a xlink:href="LinearAlgebra_8inl.html" target="_top" xlink:title="Core/Math/LinearAlgebra.inl">
<polygon fill="white" stroke="black" points="420.006,-174.5 420.006,-193.5 557.006,-193.5 557.006,-174.5 420.006,-174.5"/>
<text text-anchor="middle" x="488.506" y="-181.5" font-family="Helvetica,sans-Serif" font-size="10.00">Core/Math/LinearAlgebra.inl</text>
</a>
</g>
</g>
<!-- Node12&#45;&gt;Node20 -->
<g id="edge24" class="edge"><title>Node12&#45;&gt;Node20</title>
<path fill="none" stroke="midnightblue" d="M587.602,-242.372C568.4,-231.254 534.796,-211.8 512.105,-198.662"/>
<polygon fill="midnightblue" stroke="midnightblue" points="513.821,-195.612 503.413,-193.63 510.314,-201.67 513.821,-195.612"/>
</g>
<!-- Node16&#45;&gt;Node3 -->
<g id="edge19" class="edge"><title>Node16&#45;&gt;Node3</title>
<path fill="none" stroke="midnightblue" d="M306.065,-174.464C316.697,-172.035 328.538,-169.614 339.506,-168 546.923,-137.475 796.308,-127.398 906.454,-124.288"/>
<polygon fill="midnightblue" stroke="midnightblue" points="906.772,-127.781 916.673,-124.008 906.581,-120.783 906.772,-127.781"/>
</g>
<!-- Node17 -->
<g id="node17" class="node"><title>Node17</title>
<polygon fill="white" stroke="#bfbfbf" points="292.506,-112.5 292.506,-131.5 348.506,-131.5 348.506,-112.5 292.506,-112.5"/>
<text text-anchor="middle" x="320.506" y="-119.5" font-family="Helvetica,sans-Serif" font-size="10.00">algorithm</text>
</g>
<!-- Node16&#45;&gt;Node17 -->
<g id="edge20" class="edge"><title>Node16&#45;&gt;Node17</title>
<path fill="none" stroke="midnightblue" d="M279.383,-174.403C286.654,-165.314 298.301,-150.756 307.347,-139.449"/>
<polygon fill="midnightblue" stroke="midnightblue" points="310.127,-141.576 313.641,-131.581 304.661,-137.203 310.127,-141.576"/>
</g>
<!-- Node18 -->
<g id="node18" class="node"><title>Node18</title>
<polygon fill="white" stroke="#bfbfbf" points="366.506,-112.5 366.506,-131.5 410.506,-131.5 410.506,-112.5 366.506,-112.5"/>
<text text-anchor="middle" x="388.506" y="-119.5" font-family="Helvetica,sans-Serif" font-size="10.00">cmath</text>
</g>
<!-- Node16&#45;&gt;Node18 -->
<g id="edge21" class="edge"><title>Node16&#45;&gt;Node18</title>
<path fill="none" stroke="midnightblue" d="M289.126,-174.403C308.421,-164.423 340.465,-147.849 362.937,-136.225"/>
<polygon fill="midnightblue" stroke="midnightblue" points="364.642,-139.284 371.917,-131.581 361.426,-133.066 364.642,-139.284"/>
</g>
<!-- Node19 -->
<g id="node19" class="node"><title>Node19</title>
<g id="a_node19"><a xlink:href="Math_8inl.html" target="_top" xlink:title="Core/Math/Math.inl">
<polygon fill="white" stroke="black" points="174.506,-112.5 174.506,-131.5 274.506,-131.5 274.506,-112.5 174.506,-112.5"/>
<text text-anchor="middle" x="224.506" y="-119.5" font-family="Helvetica,sans-Serif" font-size="10.00">Core/Math/Math.inl</text>
</a>
</g>
</g>
<!-- Node16&#45;&gt;Node19 -->
<g id="edge22" class="edge"><title>Node16&#45;&gt;Node19</title>
<path fill="none" stroke="midnightblue" d="M260.728,-174.403C251.672,-165.493 239.917,-151.325 232.037,-140.118"/>
<polygon fill="midnightblue" stroke="midnightblue" points="234.865,-138.048 226.473,-131.581 229.001,-141.87 234.865,-138.048"/>
</g>
<!-- Node19&#45;&gt;Node16 -->
<g id="edge23" class="edge"><title>Node19&#45;&gt;Node16</title>
<path fill="none" stroke="midnightblue" d="M236.267,-131.581C245.32,-140.485 257.076,-154.652 264.961,-165.862"/>
<polygon fill="midnightblue" stroke="midnightblue" points="262.136,-167.938 270.529,-174.403 268,-164.115 262.136,-167.938"/>
</g>
<!-- Node24 -->
<g id="node24" class="node"><title>Node24</title>
<polygon fill="white" stroke="#bfbfbf" points="814.506,-242.5 814.506,-261.5 854.506,-261.5 854.506,-242.5 814.506,-242.5"/>
<text text-anchor="middle" x="834.506" y="-249.5" font-family="Helvetica,sans-Serif" font-size="10.00">limits</text>
</g>
<!-- Node23&#45;&gt;Node24 -->
<g id="edge28" class="edge"><title>Node23&#45;&gt;Node24</title>
<path fill="none" stroke="midnightblue" d="M756.272,-310.372C771.095,-299.502 796.787,-280.66 814.668,-267.547"/>
<polygon fill="midnightblue" stroke="midnightblue" points="816.743,-270.367 822.737,-261.63 812.603,-264.722 816.743,-270.367"/>
</g>
<!-- Node25 -->
<g id="node25" class="node"><title>Node25</title>
<g id="a_node25"><a xlink:href="Index_8inl.html" target="_top" xlink:title="Core/Index/Index.inl">
<polygon fill="white" stroke="black" points="692.506,-242.5 692.506,-261.5 796.506,-261.5 796.506,-242.5 692.506,-242.5"/>
<text text-anchor="middle" x="744.506" y="-249.5" font-family="Helvetica,sans-Serif" font-size="10.00">Core/Index/Index.inl</text>
</a>
</g>
</g>
<!-- Node23&#45;&gt;Node25 -->
<g id="edge29" class="edge"><title>Node23&#45;&gt;Node25</title>
<path fill="none" stroke="midnightblue" d="M744.506,-310.372C744.506,-300.643 744.506,-284.528 744.506,-271.85"/>
<polygon fill="midnightblue" stroke="midnightblue" points="748.006,-271.841 744.506,-261.841 741.006,-271.841 748.006,-271.841"/>
</g>
<!-- Node26&#45;&gt;Node3 -->
<g id="edge45" class="edge"><title>Node26&#45;&gt;Node3</title>
<path fill="none" stroke="midnightblue" d="M737.897,-434.473C758.22,-425.945 788.181,-411.325 809.506,-392 891.631,-317.575 941.29,-188.792 957.567,-141.287"/>
<polygon fill="midnightblue" stroke="midnightblue" points="960.911,-142.323 960.762,-131.729 954.272,-140.103 960.911,-142.323"/>
</g>
<!-- Node26&#45;&gt;Node12 -->
<g id="edge40" class="edge"><title>Node26&#45;&gt;Node12</title>
<path fill="none" stroke="midnightblue" d="M701.59,-434.467C687.908,-425.44 667.271,-410.024 654.506,-392 627.414,-353.746 612.566,-299.661 606.242,-271.567"/>
<polygon fill="midnightblue" stroke="midnightblue" points="609.613,-270.594 604.104,-261.544 602.767,-272.054 609.613,-270.594"/>
</g>
<!-- Node27 -->
<g id="node27" class="node"><title>Node27</title>
<g id="a_node27"><a xlink:href="VectorArray_8hpp.html" target="_top" xlink:title="Core/Containers/VectorArray.hpp">
<polygon fill="white" stroke="black" points="973.006,-310.5 973.006,-329.5 1134.01,-329.5 1134.01,-310.5 973.006,-310.5"/>
<text text-anchor="middle" x="1053.51" y="-317.5" font-family="Helvetica,sans-Serif" font-size="10.00">Core/Containers/VectorArray.hpp</text>
</a>
</g>
</g>
<!-- Node26&#45;&gt;Node27 -->
<g id="edge32" class="edge"><title>Node26&#45;&gt;Node27</title>
<path fill="none" stroke="midnightblue" d="M760.023,-434.488C771.866,-432.297 784.659,-429.996 796.506,-428 849.036,-419.149 993.579,-427.265 1033.51,-392 1048.18,-379.038 1052.46,-356.235 1053.53,-339.968"/>
<polygon fill="midnightblue" stroke="midnightblue" points="1057.04,-339.612 1053.84,-329.512 1050.04,-339.403 1057.04,-339.612"/>
</g>
<!-- Node31 -->
<g id="node31" class="node"><title>Node31</title>
<g id="a_node31"><a xlink:href="MeshTypes_8hpp.html" target="_top" xlink:title="Core/Mesh/MeshTypes.hpp">
<polygon fill="white" stroke="black" points="664.006,-372.5 664.006,-391.5 801.006,-391.5 801.006,-372.5 664.006,-372.5"/>
<text text-anchor="middle" x="732.506" y="-379.5" font-family="Helvetica,sans-Serif" font-size="10.00">Core/Mesh/MeshTypes.hpp</text>
</a>
</g>
</g>
<!-- Node26&#45;&gt;Node31 -->
<g id="edge41" class="edge"><title>Node26&#45;&gt;Node31</title>
<path fill="none" stroke="midnightblue" d="M717.941,-434.403C720.365,-425.849 724.162,-412.45 727.271,-401.476"/>
<polygon fill="midnightblue" stroke="midnightblue" points="730.716,-402.156 730.075,-391.581 723.981,-400.248 730.716,-402.156"/>
</g>
<!-- Node32 -->
<g id="node32" class="node"><title>Node32</title>
<g id="a_node32"><a xlink:href="Attribs_8hpp.html" target="_top" xlink:title="Core/Utils/Attribs.hpp">
<polygon fill="white" stroke="black" points="1094.01,-372.5 1094.01,-391.5 1205.01,-391.5 1205.01,-372.5 1094.01,-372.5"/>
<text text-anchor="middle" x="1149.51" y="-379.5" font-family="Helvetica,sans-Serif" font-size="10.00">Core/Utils/Attribs.hpp</text>
</a>
</g>
</g>
<!-- Node26&#45;&gt;Node32 -->
<g id="edge46" class="edge"><title>Node26&#45;&gt;Node32</title>
<path fill="none" stroke="midnightblue" d="M759.148,-434.452C771.225,-432.214 784.354,-429.898 796.506,-428 896.283,-412.414 1012.56,-398.385 1083.59,-390.279"/>
<polygon fill="midnightblue" stroke="midnightblue" points="1084.19,-393.734 1093.73,-389.127 1083.4,-386.778 1084.19,-393.734"/>
</g>
<!-- Node38 -->
<g id="node38" class="node"><title>Node38</title>
<g id="a_node38"><a xlink:href="TriangleMesh_8inl.html" target="_top" xlink:title="Core/Mesh/TriangleMesh.inl">
<polygon fill="white" stroke="black" points="886.006,-372.5 886.006,-391.5 1025.01,-391.5 1025.01,-372.5 886.006,-372.5"/>
<text text-anchor="middle" x="955.506" y="-379.5" font-family="Helvetica,sans-Serif" font-size="10.00">Core/Mesh/TriangleMesh.inl</text>
</a>
</g>
</g>
<!-- Node26&#45;&gt;Node38 -->
<g id="edge59" class="edge"><title>Node26&#45;&gt;Node38</title>
<path fill="none" stroke="midnightblue" d="M744.991,-434.403C785.282,-423.755 857.753,-405.599 906.308,-393.96"/>
<polygon fill="midnightblue" stroke="midnightblue" points="907.371,-397.305 916.286,-391.581 905.747,-390.496 907.371,-397.305"/>
</g>
<!-- Node27&#45;&gt;Node3 -->
<g id="edge38" class="edge"><title>Node27&#45;&gt;Node3</title>
<path fill="none" stroke="midnightblue" d="M1049.52,-310.325C1035.82,-280.474 990.411,-181.594 971.688,-140.818"/>
<polygon fill="midnightblue" stroke="midnightblue" points="974.797,-139.202 967.443,-131.575 968.435,-142.123 974.797,-139.202"/>
</g>
<!-- Node27&#45;&gt;Node12 -->
<g id="edge37" class="edge"><title>Node27&#45;&gt;Node12</title>
<path fill="none" stroke="midnightblue" d="M984.831,-310.497C910.438,-301.062 788.33,-284.921 683.506,-268 674.786,-266.592 665.56,-264.991 656.578,-263.371"/>
<polygon fill="midnightblue" stroke="midnightblue" points="657.049,-259.899 646.582,-261.544 655.79,-266.785 657.049,-259.899"/>
</g>
<!-- Node28 -->
<g id="node28" class="node"><title>Node28</title>
<g id="a_node28"><a xlink:href="AlignedStdVector_8hpp.html" target="_top" xlink:title="Core/Containers/AlignedStd\lVector.hpp">
<polygon fill="white" stroke="black" points="1086.51,-169 1086.51,-199 1224.51,-199 1224.51,-169 1086.51,-169"/>
<text text-anchor="start" x="1094.51" y="-187" font-family="Helvetica,sans-Serif" font-size="10.00">Core/Containers/AlignedStd</text>
<text text-anchor="middle" x="1155.51" y="-176" font-family="Helvetica,sans-Serif" font-size="10.00">Vector.hpp</text>
</a>
</g>
</g>
<!-- Node27&#45;&gt;Node28 -->
<g id="edge33" class="edge"><title>Node27&#45;&gt;Node28</title>
<path fill="none" stroke="midnightblue" d="M1059.16,-310.028C1069.03,-294.529 1090.3,-261.914 1110.51,-236 1118.18,-226.162 1127.18,-215.758 1135.11,-206.93"/>
<polygon fill="midnightblue" stroke="midnightblue" points="1137.89,-209.081 1142.02,-199.328 1132.71,-204.373 1137.89,-209.081"/>
</g>
<!-- Node30 -->
<g id="node30" class="node"><title>Node30</title>
<polygon fill="white" stroke="#bfbfbf" points="1230.51,-112.5 1230.51,-131.5 1274.51,-131.5 1274.51,-112.5 1230.51,-112.5"/>
<text text-anchor="middle" x="1252.51" y="-119.5" font-family="Helvetica,sans-Serif" font-size="10.00">vector</text>
</g>
<!-- Node27&#45;&gt;Node30 -->
<g id="edge39" class="edge"><title>Node27&#45;&gt;Node30</title>
<path fill="none" stroke="midnightblue" d="M1076.27,-310.454C1114.87,-294.752 1192.91,-257.553 1233.51,-200 1245.63,-182.813 1250.05,-158.722 1251.64,-142.085"/>
<polygon fill="midnightblue" stroke="midnightblue" points="1255.15,-142.155 1252.35,-131.935 1248.16,-141.665 1255.15,-142.155"/>
</g>
<!-- Node28&#45;&gt;Node3 -->
<g id="edge34" class="edge"><title>Node28&#45;&gt;Node3</title>
<path fill="none" stroke="midnightblue" d="M1110.49,-168.933C1076.99,-158.462 1031.81,-144.345 1000.42,-134.536"/>
<polygon fill="midnightblue" stroke="midnightblue" points="1001.34,-131.155 990.746,-131.513 999.247,-137.836 1001.34,-131.155"/>
</g>
<!-- Node29 -->
<g id="node29" class="node"><title>Node29</title>
<polygon fill="white" stroke="#bfbfbf" points="1111.51,-112.5 1111.51,-131.5 1199.51,-131.5 1199.51,-112.5 1111.51,-112.5"/>
<text text-anchor="middle" x="1155.51" y="-119.5" font-family="Helvetica,sans-Serif" font-size="10.00">Eigen/StdVector</text>
</g>
<!-- Node28&#45;&gt;Node29 -->
<g id="edge35" class="edge"><title>Node28&#45;&gt;Node29</title>
<path fill="none" stroke="midnightblue" d="M1155.51,-168.781C1155.51,-160.781 1155.51,-150.689 1155.51,-142.017"/>
<polygon fill="midnightblue" stroke="midnightblue" points="1159.01,-141.73 1155.51,-131.731 1152.01,-141.731 1159.01,-141.73"/>
</g>
<!-- Node28&#45;&gt;Node30 -->
<g id="edge36" class="edge"><title>Node28&#45;&gt;Node30</title>
<path fill="none" stroke="midnightblue" d="M1178.49,-168.781C1193.99,-159.196 1214.34,-146.606 1229.78,-137.056"/>
<polygon fill="midnightblue" stroke="midnightblue" points="1232.01,-139.793 1238.67,-131.556 1228.33,-133.84 1232.01,-139.793"/>
</g>
<!-- Node31&#45;&gt;Node3 -->
<g id="edge44" class="edge"><title>Node31&#45;&gt;Node3</title>
<path fill="none" stroke="midnightblue" d="M750.894,-372.458C767.075,-364.417 790.754,-351.34 808.506,-336 878.326,-275.665 877.527,-243.554 930.506,-168 937.123,-158.563 944.717,-148.179 950.95,-139.766"/>
<polygon fill="midnightblue" stroke="midnightblue" points="953.904,-141.659 957.07,-131.548 948.29,-137.478 953.904,-141.659"/>
</g>
<!-- Node31&#45;&gt;Node12 -->
<g id="edge43" class="edge"><title>Node31&#45;&gt;Node12</title>
<path fill="none" stroke="midnightblue" d="M721.867,-372.342C711.154,-363.499 694.287,-349.228 680.506,-336 657.424,-313.845 632.361,-286.541 617.042,-269.446"/>
<polygon fill="midnightblue" stroke="midnightblue" points="619.246,-266.658 609.981,-261.518 614.018,-271.313 619.246,-266.658"/>
</g>
<!-- Node31&#45;&gt;Node23 -->
<g id="edge42" class="edge"><title>Node31&#45;&gt;Node23</title>
<path fill="none" stroke="midnightblue" d="M734.225,-372.403C735.936,-363.849 738.616,-350.45 740.811,-339.476"/>
<polygon fill="midnightblue" stroke="midnightblue" points="744.26,-340.073 742.79,-329.581 737.396,-338.7 744.26,-340.073"/>
</g>
<!-- Node32&#45;&gt;Node3 -->
<g id="edge58" class="edge"><title>Node32&#45;&gt;Node3</title>
<path fill="none" stroke="midnightblue" d="M1150.6,-372.403C1152.08,-357.613 1153.42,-326.751 1142.51,-304 1113.67,-243.924 1080.91,-247.827 1034.51,-200 1021.14,-186.224 1018.5,-182.127 1005.51,-168 996.625,-158.344 986.603,-147.6 978.577,-139.033"/>
<polygon fill="midnightblue" stroke="midnightblue" points="980.99,-136.49 971.595,-131.592 975.885,-141.279 980.99,-136.49"/>
</g>
<!-- Node32&#45;&gt;Node27 -->
<g id="edge47" class="edge"><title>Node32&#45;&gt;Node27</title>
<path fill="none" stroke="midnightblue" d="M1135.75,-372.403C1120.14,-362.646 1094.44,-346.585 1075.92,-335.011"/>
<polygon fill="midnightblue" stroke="midnightblue" points="1077.57,-331.913 1067.23,-329.581 1073.86,-337.849 1077.57,-331.913"/>
</g>
<!-- Node33 -->
<g id="node33" class="node"><title>Node33</title>
<g id="a_node33"><a xlink:href="Log_8hpp.html" target="_top" xlink:title="Core/Log/Log.hpp">
<polygon fill="white" stroke="black" points="1318.51,-242.5 1318.51,-261.5 1412.51,-261.5 1412.51,-242.5 1318.51,-242.5"/>
<text text-anchor="middle" x="1365.51" y="-249.5" font-family="Helvetica,sans-Serif" font-size="10.00">Core/Log/Log.hpp</text>
</a>
</g>
</g>
<!-- Node32&#45;&gt;Node33 -->
<g id="edge48" class="edge"><title>Node32&#45;&gt;Node33</title>
<path fill="none" stroke="midnightblue" d="M1164.01,-372.403C1200.75,-350.633 1297.69,-293.187 1342.36,-266.715"/>
<polygon fill="midnightblue" stroke="midnightblue" points="1344.24,-269.669 1351.06,-261.56 1340.67,-263.647 1344.24,-269.669"/>
</g>
<!-- Node33&#45;&gt;Node3 -->
<g id="edge49" class="edge"><title>Node33&#45;&gt;Node3</title>
<path fill="none" stroke="midnightblue" d="M1318.48,-249.295C1259.84,-245.706 1157.57,-234.565 1077.51,-200 1055.63,-190.558 1054.14,-181.497 1034.51,-168 1018.72,-157.148 1000.46,-145.595 986.41,-136.912"/>
<polygon fill="midnightblue" stroke="midnightblue" points="988.206,-133.908 977.854,-131.657 984.543,-139.873 988.206,-133.908"/>
</g>
<!-- Node33&#45;&gt;Node8 -->
<g id="edge50" class="edge"><title>Node33&#45;&gt;Node8</title>
<path fill="none" stroke="midnightblue" d="M1412.67,-245.483C1465.2,-238.253 1545.19,-223.638 1563.51,-200 1618.94,-128.481 1478.17,-53.2218 1414.19,-23.8217"/>
<polygon fill="midnightblue" stroke="midnightblue" points="1415.54,-20.5892 1404.98,-19.6632 1412.66,-26.9689 1415.54,-20.5892"/>
</g>
<!-- Node34 -->
<g id="node34" class="node"><title>Node34</title>
<polygon fill="white" stroke="#bfbfbf" points="1280.51,-174.5 1280.51,-193.5 1326.51,-193.5 1326.51,-174.5 1280.51,-174.5"/>
<text text-anchor="middle" x="1303.51" y="-181.5" font-family="Helvetica,sans-Serif" font-size="10.00">stdio.h</text>
</g>
<!-- Node33&#45;&gt;Node34 -->
<g id="edge51" class="edge"><title>Node33&#45;&gt;Node34</title>
<path fill="none" stroke="midnightblue" d="M1357.4,-242.372C1347.61,-231.955 1330.95,-214.217 1318.74,-201.216"/>
<polygon fill="midnightblue" stroke="midnightblue" points="1321.21,-198.733 1311.81,-193.841 1316.11,-203.526 1321.21,-198.733"/>
</g>
<!-- Node35 -->
<g id="node35" class="node"><title>Node35</title>
<polygon fill="white" stroke="#bfbfbf" points="1493.01,-112.5 1493.01,-131.5 1534.01,-131.5 1534.01,-112.5 1493.01,-112.5"/>
<text text-anchor="middle" x="1513.51" y="-119.5" font-family="Helvetica,sans-Serif" font-size="10.00">string</text>
</g>
<!-- Node33&#45;&gt;Node35 -->
<g id="edge52" class="edge"><title>Node33&#45;&gt;Node35</title>
<path fill="none" stroke="midnightblue" d="M1412.83,-244.281C1461.13,-236.341 1531.25,-221.44 1547.51,-200 1561.64,-181.359 1544.8,-155.919 1530.2,-139.475"/>
<polygon fill="midnightblue" stroke="midnightblue" points="1532.35,-136.654 1522.94,-131.779 1527.26,-141.456 1532.35,-136.654"/>
</g>
<!-- Node36 -->
<g id="node36" class="node"><title>Node36</title>
<g id="a_node36"><a xlink:href="StringUtils_8hpp.html" target="_top" xlink:title="Core/String/StringUtils.hpp">
<polygon fill="white" stroke="black" points="1404.51,-174.5 1404.51,-193.5 1538.51,-193.5 1538.51,-174.5 1404.51,-174.5"/>
<text text-anchor="middle" x="1471.51" y="-181.5" font-family="Helvetica,sans-Serif" font-size="10.00">Core/String/StringUtils.hpp</text>
</a>
</g>
</g>
<!-- Node33&#45;&gt;Node36 -->
<g id="edge53" class="edge"><title>Node33&#45;&gt;Node36</title>
<path fill="none" stroke="midnightblue" d="M1379.36,-242.372C1397.06,-231.353 1427.91,-212.145 1449,-199.014"/>
<polygon fill="midnightblue" stroke="midnightblue" points="1451.01,-201.887 1457.64,-193.63 1447.31,-195.945 1451.01,-201.887"/>
</g>
<!-- Node37 -->
<g id="node37" class="node"><title>Node37</title>
<polygon fill="white" stroke="#bfbfbf" points="1345.01,-174.5 1345.01,-193.5 1386.01,-193.5 1386.01,-174.5 1345.01,-174.5"/>
<text text-anchor="middle" x="1365.51" y="-181.5" font-family="Helvetica,sans-Serif" font-size="10.00">ctime</text>
</g>
<!-- Node33&#45;&gt;Node37 -->
<g id="edge57" class="edge"><title>Node33&#45;&gt;Node37</title>
<path fill="none" stroke="midnightblue" d="M1365.51,-242.372C1365.51,-232.643 1365.51,-216.528 1365.51,-203.85"/>
<polygon fill="midnightblue" stroke="midnightblue" points="1369.01,-203.841 1365.51,-193.841 1362.01,-203.841 1369.01,-203.841"/>
</g>
<!-- Node36&#45;&gt;Node3 -->
<g id="edge54" class="edge"><title>Node36&#45;&gt;Node3</title>
<path fill="none" stroke="midnightblue" d="M1431.26,-174.463C1419.45,-172.148 1406.49,-169.79 1394.51,-168 1261.07,-148.077 1103.08,-133.984 1020.42,-127.33"/>
<polygon fill="midnightblue" stroke="midnightblue" points="1020.48,-123.824 1010.23,-126.517 1019.92,-130.802 1020.48,-123.824"/>
</g>
<!-- Node36&#45;&gt;Node30 -->
<g id="edge56" class="edge"><title>Node36&#45;&gt;Node30</title>
<path fill="none" stroke="midnightblue" d="M1440.13,-174.403C1398.7,-163.052 1326.13,-143.17 1284.43,-131.745"/>
<polygon fill="midnightblue" stroke="midnightblue" points="1285.1,-128.3 1274.53,-129.033 1283.25,-135.051 1285.1,-128.3"/>
</g>
<!-- Node36&#45;&gt;Node35 -->
<g id="edge55" class="edge"><title>Node36&#45;&gt;Node35</title>
<path fill="none" stroke="midnightblue" d="M1477.52,-174.403C1483.82,-165.403 1493.88,-151.041 1501.76,-139.782"/>
<polygon fill="midnightblue" stroke="midnightblue" points="1504.63,-141.78 1507.5,-131.581 1498.9,-137.766 1504.63,-141.78"/>
</g>
<!-- Node38&#45;&gt;Node26 -->
<g id="edge60" class="edge"><title>Node38&#45;&gt;Node26</title>
<path fill="none" stroke="midnightblue" d="M926.373,-391.503C886.105,-402.152 813.226,-420.41 764.528,-432.082"/>
<polygon fill="midnightblue" stroke="midnightblue" points="763.439,-428.743 754.524,-434.467 765.063,-435.552 763.439,-428.743"/>
</g>
<!-- Node41&#45;&gt;Node1 -->
<g id="edge69" class="edge"><title>Node41&#45;&gt;Node1</title>
<path fill="none" stroke="midnightblue" d="M1097.48,-459.027C1095.47,-459.364 1093.47,-459.69 1091.51,-460 935.66,-484.572 752.835,-503.687 643.722,-513.864"/>
<polygon fill="midnightblue" stroke="midnightblue" points="643.356,-510.383 633.722,-514.791 644.002,-517.353 643.356,-510.383"/>
</g>
</g>
</svg>
