<?xml version="1.0" encoding="UTF-8" standalone="no"?>
<!DOCTYPE svg PUBLIC "-//W3C//DTD SVG 1.1//EN"
 "http://www.w3.org/Graphics/SVG/1.1/DTD/svg11.dtd">
<!-- Generated by graphviz version 2.36.0 (20140111.2315)
 -->
<!-- Title: /home/travis/build/STORM&#45;IRIT/Radium&#45;Engine/src/Core/File/DataLoader.hpp Pages: 1 -->
<svg width="974pt" height="230pt"
 viewBox="0.00 0.00 974.00 230.00" xmlns="http://www.w3.org/2000/svg" xmlns:xlink="http://www.w3.org/1999/xlink">
<g id="graph0" class="graph" transform="scale(1 1) rotate(0) translate(4 226)">
<title>/home/travis/build/STORM&#45;IRIT/Radium&#45;Engine/src/Core/File/DataLoader.hpp</title>
<polygon fill="white" stroke="none" points="-4,4 -4,-226 970,-226 970,4 -4,4"/>
<!-- Node1 -->
<g id="node1" class="node"><title>Node1</title>
<polygon fill="#bfbfbf" stroke="black" points="422,-180.5 422,-221.5 570,-221.5 570,-180.5 422,-180.5"/>
<text text-anchor="start" x="430" y="-209.5" font-family="Helvetica,sans-Serif" font-size="10.00">/home/travis/build</text>
<text text-anchor="start" x="430" y="-198.5" font-family="Helvetica,sans-Serif" font-size="10.00">/STORM&#45;IRIT/Radium&#45;Engine</text>
<text text-anchor="middle" x="496" y="-187.5" font-family="Helvetica,sans-Serif" font-size="10.00">/src/Core/File/DataLoader.hpp</text>
</g>
<!-- Node2 -->
<g id="node2" class="node"><title>Node2</title>
<g id="a_node2"><a xlink:href="AssimpAnimationDataLoader_8hpp.html" target="_top" xlink:title="/home/travis/build\l/STORM&#45;IRIT/Radium&#45;Engine\l/src/IO/AssimpLoader/AssimpAnimation\lDataLoader.hpp">
<polygon fill="white" stroke="black" points="90.5,-91 90.5,-143 281.5,-143 281.5,-91 90.5,-91"/>
<text text-anchor="start" x="98.5" y="-131" font-family="Helvetica,sans-Serif" font-size="10.00">/home/travis/build</text>
<text text-anchor="start" x="98.5" y="-120" font-family="Helvetica,sans-Serif" font-size="10.00">/STORM&#45;IRIT/Radium&#45;Engine</text>
<text text-anchor="start" x="98.5" y="-109" font-family="Helvetica,sans-Serif" font-size="10.00">/src/IO/AssimpLoader/AssimpAnimation</text>
<text text-anchor="middle" x="186" y="-98" font-family="Helvetica,sans-Serif" font-size="10.00">DataLoader.hpp</text>
</a>
</g>
</g>
<!-- Node1&#45;&gt;Node2 -->
<g id="edge1" class="edge"><title>Node1&#45;&gt;Node2</title>
<path fill="none" stroke="midnightblue" d="M412.275,-177.853C371.668,-167.112 322.717,-154.164 280.746,-143.062"/>
<polygon fill="midnightblue" stroke="midnightblue" points="411.579,-181.289 422.141,-180.463 413.369,-174.522 411.579,-181.289"/>
</g>
<!-- Node5 -->
<g id="node5" class="node"><title>Node5</title>
<g id="a_node5"><a xlink:href="AssimpGeometryDataLoader_8hpp.html" target="_top" xlink:title="/home/travis/build\l/STORM&#45;IRIT/Radium&#45;Engine\l/src/IO/AssimpLoader/AssimpGeometry\lDataLoader.hpp">
<polygon fill="white" stroke="black" points="299.5,-91 299.5,-143 490.5,-143 490.5,-91 299.5,-91"/>
<text text-anchor="start" x="307.5" y="-131" font-family="Helvetica,sans-Serif" font-size="10.00">/home/travis/build</text>
<text text-anchor="start" x="307.5" y="-120" font-family="Helvetica,sans-Serif" font-size="10.00">/STORM&#45;IRIT/Radium&#45;Engine</text>
<text text-anchor="start" x="307.5" y="-109" font-family="Helvetica,sans-Serif" font-size="10.00">/src/IO/AssimpLoader/AssimpGeometry</text>
<text text-anchor="middle" x="395" y="-98" font-family="Helvetica,sans-Serif" font-size="10.00">DataLoader.hpp</text>
</a>
</g>
</g>
<!-- Node1&#45;&gt;Node5 -->
<g id="edge4" class="edge"><title>Node1&#45;&gt;Node5</title>
<path fill="none" stroke="midnightblue" d="M463.72,-173.793C451.605,-163.957 437.874,-152.809 425.889,-143.078"/>
<polygon fill="midnightblue" stroke="midnightblue" points="461.838,-176.773 471.808,-180.359 466.251,-171.339 461.838,-176.773"/>
</g>
<!-- Node7 -->
<g id="node7" class="node"><title>Node7</title>
<g id="a_node7"><a xlink:href="AssimpHandleDataLoader_8hpp.html" target="_top" xlink:title="/home/travis/build\l/STORM&#45;IRIT/Radium&#45;Engine\l/src/IO/AssimpLoader/AssimpHandle\lDataLoader.hpp">
<polygon fill="white" stroke="black" points="508.5,-91 508.5,-143 687.5,-143 687.5,-91 508.5,-91"/>
<text text-anchor="start" x="516.5" y="-131" font-family="Helvetica,sans-Serif" font-size="10.00">/home/travis/build</text>
<text text-anchor="start" x="516.5" y="-120" font-family="Helvetica,sans-Serif" font-size="10.00">/STORM&#45;IRIT/Radium&#45;Engine</text>
<text text-anchor="start" x="516.5" y="-109" font-family="Helvetica,sans-Serif" font-size="10.00">/src/IO/AssimpLoader/AssimpHandle</text>
<text text-anchor="middle" x="598" y="-98" font-family="Helvetica,sans-Serif" font-size="10.00">DataLoader.hpp</text>
</a>
</g>
</g>
<!-- Node1&#45;&gt;Node7 -->
<g id="edge7" class="edge"><title>Node1&#45;&gt;Node7</title>
<path fill="none" stroke="midnightblue" d="M528.247,-174.076C540.568,-164.171 554.585,-152.902 566.806,-143.078"/>
<polygon fill="midnightblue" stroke="midnightblue" points="526.032,-171.366 520.432,-180.359 530.418,-176.821 526.032,-171.366"/>
</g>
<!-- Node9 -->
<g id="node9" class="node"><title>Node9</title>
<g id="a_node9"><a xlink:href="AssimpLightDataLoader_8hpp.html" target="_top" xlink:title="/home/travis/build\l/STORM&#45;IRIT/Radium&#45;Engine\l/src/IO/AssimpLoader/AssimpLight\lDataLoader.hpp">
<polygon fill="white" stroke="black" points="705.5,-91 705.5,-143 874.5,-143 874.5,-91 705.5,-91"/>
<text text-anchor="start" x="713.5" y="-131" font-family="Helvetica,sans-Serif" font-size="10.00">/home/travis/build</text>
<text text-anchor="start" x="713.5" y="-120" font-family="Helvetica,sans-Serif" font-size="10.00">/STORM&#45;IRIT/Radium&#45;Engine</text>
<text text-anchor="start" x="713.5" y="-109" font-family="Helvetica,sans-Serif" font-size="10.00">/src/IO/AssimpLoader/AssimpLight</text>
<text text-anchor="middle" x="790" y="-98" font-family="Helvetica,sans-Serif" font-size="10.00">DataLoader.hpp</text>
</a>
</g>
</g>
<!-- Node1&#45;&gt;Node9 -->
<g id="edge10" class="edge"><title>Node1&#45;&gt;Node9</title>
<path fill="none" stroke="midnightblue" d="M575.786,-177.747C615.899,-166.559 664.522,-152.997 705.297,-141.625"/>
<polygon fill="midnightblue" stroke="midnightblue" points="574.739,-174.405 566.047,-180.463 576.619,-181.148 574.739,-174.405"/>
</g>
<!-- Node3 -->
<g id="node3" class="node"><title>Node3</title>
<g id="a_node3"><a xlink:href="AssimpAnimationDataLoader_8cpp.html" target="_top" xlink:title="/home/travis/build\l/STORM&#45;IRIT/Radium&#45;Engine\l/src/IO/AssimpLoader/AssimpAnimation\lDataLoader.cpp">
<polygon fill="white" stroke="black" points="-0.5,-1 -0.5,-53 190.5,-53 190.5,-1 -0.5,-1"/>
<text text-anchor="start" x="7.5" y="-41" font-family="Helvetica,sans-Serif" font-size="10.00">/home/travis/build</text>
<text text-anchor="start" x="7.5" y="-30" font-family="Helvetica,sans-Serif" font-size="10.00">/STORM&#45;IRIT/Radium&#45;Engine</text>
<text text-anchor="start" x="7.5" y="-19" font-family="Helvetica,sans-Serif" font-size="10.00">/src/IO/AssimpLoader/AssimpAnimation</text>
<text text-anchor="middle" x="95" y="-8" font-family="Helvetica,sans-Serif" font-size="10.00">DataLoader.cpp</text>
</a>
</g>
</g>
<!-- Node2&#45;&gt;Node3 -->
<g id="edge2" class="edge"><title>Node2&#45;&gt;Node3</title>
<path fill="none" stroke="midnightblue" d="M152.32,-83.4308C141.955,-73.4069 130.71,-62.5325 120.948,-53.0921"/>
<polygon fill="midnightblue" stroke="midnightblue" points="150.057,-86.1112 159.679,-90.5468 154.923,-81.0791 150.057,-86.1112"/>
</g>
<!-- Node4 -->
<g id="node4" class="node"><title>Node4</title>
<g id="a_node4"><a xlink:href="AssimpFileLoader_8cpp.html" target="_top" xlink:title="/home/travis/build\l/STORM&#45;IRIT/Radium&#45;Engine\l/src/IO/AssimpLoader/AssimpFile\lLoader.cpp">
<polygon fill="white" stroke="black" points="418,-1 418,-53 582,-53 582,-1 418,-1"/>
<text text-anchor="start" x="426" y="-41" font-family="Helvetica,sans-Serif" font-size="10.00">/home/travis/build</text>
<text text-anchor="start" x="426" y="-30" font-family="Helvetica,sans-Serif" font-size="10.00">/STORM&#45;IRIT/Radium&#45;Engine</text>
<text text-anchor="start" x="426" y="-19" font-family="Helvetica,sans-Serif" font-size="10.00">/src/IO/AssimpLoader/AssimpFile</text>
<text text-anchor="middle" x="500" y="-8" font-family="Helvetica,sans-Serif" font-size="10.00">Loader.cpp</text>
</a>
</g>
</g>
<!-- Node2&#45;&gt;Node4 -->
<g id="edge3" class="edge"><title>Node2&#45;&gt;Node4</title>
<path fill="none" stroke="midnightblue" d="M286.03,-88.1343C324.207,-77.4808 368.126,-65.2023 408,-54 411.196,-53.1022 414.454,-52.1859 417.745,-51.2596"/>
<polygon fill="midnightblue" stroke="midnightblue" points="284.632,-84.8907 275.94,-90.9494 286.513,-91.6332 284.632,-84.8907"/>
</g>
<!-- Node5&#45;&gt;Node4 -->
<g id="edge5" class="edge"><title>Node5&#45;&gt;Node4</title>
<path fill="none" stroke="midnightblue" d="M432.893,-84.2423C445.064,-74.0416 458.373,-62.8871 469.907,-53.221"/>
<polygon fill="midnightblue" stroke="midnightblue" points="430.505,-81.6768 425.089,-90.7827 435.001,-87.0418 430.505,-81.6768"/>
</g>
<!-- Node6 -->
<g id="node6" class="node"><title>Node6</title>
<g id="a_node6"><a xlink:href="AssimpGeometryDataLoader_8cpp.html" target="_top" xlink:title="/home/travis/build\l/STORM&#45;IRIT/Radium&#45;Engine\l/src/IO/AssimpLoader/AssimpGeometry\lDataLoader.cpp">
<polygon fill="white" stroke="black" points="208.5,-1 208.5,-53 399.5,-53 399.5,-1 208.5,-1"/>
<text text-anchor="start" x="216.5" y="-41" font-family="Helvetica,sans-Serif" font-size="10.00">/home/travis/build</text>
<text text-anchor="start" x="216.5" y="-30" font-family="Helvetica,sans-Serif" font-size="10.00">/STORM&#45;IRIT/Radium&#45;Engine</text>
<text text-anchor="start" x="216.5" y="-19" font-family="Helvetica,sans-Serif" font-size="10.00">/src/IO/AssimpLoader/AssimpGeometry</text>
<text text-anchor="middle" x="304" y="-8" font-family="Helvetica,sans-Serif" font-size="10.00">DataLoader.cpp</text>
</a>
</g>
</g>
<!-- Node5&#45;&gt;Node6 -->
<g id="edge6" class="edge"><title>Node5&#45;&gt;Node6</title>
<path fill="none" stroke="midnightblue" d="M361.32,-83.4308C350.955,-73.4069 339.71,-62.5325 329.948,-53.0921"/>
<polygon fill="midnightblue" stroke="midnightblue" points="359.057,-86.1112 368.679,-90.5468 363.923,-81.0791 359.057,-86.1112"/>
</g>
<!-- Node7&#45;&gt;Node4 -->
<g id="edge8" class="edge"><title>Node7&#45;&gt;Node4</title>
<path fill="none" stroke="midnightblue" d="M562.309,-83.9506C551.037,-73.8293 538.749,-62.795 528.087,-53.221"/>
<polygon fill="midnightblue" stroke="midnightblue" points="560.138,-86.7056 569.917,-90.7827 564.815,-81.4973 560.138,-86.7056"/>
</g>
<!-- Node8 -->
<g id="node8" class="node"><title>Node8</title>
<g id="a_node8"><a xlink:href="AssimpHandleDataLoader_8cpp.html" target="_top" xlink:title="/home/travis/build\l/STORM&#45;IRIT/Radium&#45;Engine\l/src/IO/AssimpLoader/AssimpHandle\lDataLoader.cpp">
<polygon fill="white" stroke="black" points="600.5,-1 600.5,-53 779.5,-53 779.5,-1 600.5,-1"/>
<text text-anchor="start" x="608.5" y="-41" font-family="Helvetica,sans-Serif" font-size="10.00">/home/travis/build</text>
<text text-anchor="start" x="608.5" y="-30" font-family="Helvetica,sans-Serif" font-size="10.00">/STORM&#45;IRIT/Radium&#45;Engine</text>
<text text-anchor="start" x="608.5" y="-19" font-family="Helvetica,sans-Serif" font-size="10.00">/src/IO/AssimpLoader/AssimpHandle</text>
<text text-anchor="middle" x="690" y="-8" font-family="Helvetica,sans-Serif" font-size="10.00">DataLoader.cpp</text>
</a>
</g>
</g>
<!-- Node7&#45;&gt;Node8 -->
<g id="edge9" class="edge"><title>Node7&#45;&gt;Node8</title>
<path fill="none" stroke="midnightblue" d="M632.05,-83.4308C642.529,-73.4069 653.898,-62.5325 663.767,-53.0921"/>
<polygon fill="midnightblue" stroke="midnightblue" points="629.417,-81.1052 624.61,-90.5468 634.256,-86.1638 629.417,-81.1052"/>
</g>
<!-- Node9&#45;&gt;Node4 -->
<g id="edge11" class="edge"><title>Node9&#45;&gt;Node4</title>
<path fill="none" stroke="midnightblue" d="M697.481,-87.9253C660.403,-76.6742 618.034,-63.8171 582.071,-52.9044"/>
<polygon fill="midnightblue" stroke="midnightblue" points="696.7,-91.3459 707.286,-90.9005 698.733,-84.6475 696.7,-91.3459"/>
</g>
<!-- Node10 -->
<g id="node10" class="node"><title>Node10</title>
<g id="a_node10"><a xlink:href="AssimpLightDataLoader_8cpp.html" target="_top" xlink:title="/home/travis/build\l/STORM&#45;IRIT/Radium&#45;Engine\l/src/IO/AssimpLoader/AssimpLight\lDataLoader.cpp">
<polygon fill="white" stroke="black" points="797.5,-1 797.5,-53 966.5,-53 966.5,-1 797.5,-1"/>
<text text-anchor="start" x="805.5" y="-41" font-family="Helvetica,sans-Serif" font-size="10.00">/home/travis/build</text>
<text text-anchor="start" x="805.5" y="-30" font-family="Helvetica,sans-Serif" font-size="10.00">/STORM&#45;IRIT/Radium&#45;Engine</text>
<text text-anchor="start" x="805.5" y="-19" font-family="Helvetica,sans-Serif" font-size="10.00">/src/IO/AssimpLoader/AssimpLight</text>
<text text-anchor="middle" x="882" y="-8" font-family="Helvetica,sans-Serif" font-size="10.00">DataLoader.cpp</text>
</a>
</g>
</g>
<!-- Node9&#45;&gt;Node10 -->
<g id="edge12" class="edge"><title>Node9&#45;&gt;Node10</title>
<path fill="none" stroke="midnightblue" d="M824.05,-83.4308C834.529,-73.4069 845.898,-62.5325 855.767,-53.0921"/>
<polygon fill="midnightblue" stroke="midnightblue" points="821.417,-81.1052 816.61,-90.5468 826.256,-86.1638 821.417,-81.1052"/>
</g>
</g>
</svg>
