<?xml version="1.0" encoding="UTF-8" standalone="no"?>
<!DOCTYPE svg PUBLIC "-//W3C//DTD SVG 1.1//EN"
 "http://www.w3.org/Graphics/SVG/1.1/DTD/svg11.dtd">
<!-- Generated by graphviz version 2.36.0 (20140111.2315)
 -->
<!-- Title: /home/travis/build/STORM&#45;IRIT/Radium&#45;Engine/src/Core/Animation/Skinning Pages: 1 -->
<svg width="517pt" height="655pt"
 viewBox="0.00 0.00 517.00 655.00" xmlns="http://www.w3.org/2000/svg" xmlns:xlink="http://www.w3.org/1999/xlink">
<g id="graph0" class="graph" transform="scale(1 1) rotate(0) translate(4 651)">
<title>/home/travis/build/STORM&#45;IRIT/Radium&#45;Engine/src/Core/Animation/Skinning</title>
<polygon fill="white" stroke="none" points="-4,4 -4,-651 513,-651 513,4 -4,4"/>
<g id="clust1" class="cluster"><title>clusterdir_721a74ea40d2768c46a3c9514389a16b</title>
<g id="a_clust1"><a xlink:href="dir_721a74ea40d2768c46a3c9514389a16b.html" target="_top" xlink:title="Animation">
<polygon fill="#ddddee" stroke="black" points="230,-568 230,-639 300,-639 300,-568 230,-568"/>
<text text-anchor="middle" x="265" y="-627" font-family="Helvetica,sans-Serif" font-size="10.00">Animation</text>
</a>
</g>
</g>
<!-- dir_7370db5ffd6e13fa616902e0fbacb1f0 -->
<g id="node1" class="node"><title>dir_7370db5ffd6e13fa616902e0fbacb1f0</title>
<g id="a_node1"><a xlink:href="dir_7370db5ffd6e13fa616902e0fbacb1f0.html" target="_top" xlink:title="Skinning">
<polygon fill="#eeeeff" stroke="black" points="292,-612 238,-612 238,-576 292,-576 292,-612"/>
<text text-anchor="middle" x="265" y="-591.5" font-family="Helvetica,sans-Serif" font-size="10.00">Skinning</text>
</a>
</g>
</g>
<!-- dir_2c6b9e60b5cfd48e3d1f71fa90957520 -->
<g id="node2" class="node"><title>dir_2c6b9e60b5cfd48e3d1f71fa90957520</title>
<g id="a_node2"><a xlink:href="dir_2c6b9e60b5cfd48e3d1f71fa90957520.html" target="_top" xlink:title="Pose">
<polygon fill="none" stroke="black" points="292,-540 238,-540 238,-504 292,-504 292,-540"/>
<text text-anchor="middle" x="265" y="-519.5" font-family="Helvetica,sans-Serif" font-size="10.00">Pose</text>
</a>
</g>
</g>
<!-- dir_7370db5ffd6e13fa616902e0fbacb1f0&#45;&gt;dir_2c6b9e60b5cfd48e3d1f71fa90957520 -->
<g id="edge16" class="edge"><title>dir_7370db5ffd6e13fa616902e0fbacb1f0&#45;&gt;dir_2c6b9e60b5cfd48e3d1f71fa90957520</title>
<path fill="none" stroke="black" d="M265,-575.697C265,-567.983 265,-558.712 265,-550.112"/>
<polygon fill="black" stroke="black" points="268.5,-550.104 265,-540.104 261.5,-550.104 268.5,-550.104"/>
<g id="a_edge16&#45;headlabel"><a xlink:href="dir_000031_000029.html" target="_top" xlink:title="5">
<text text-anchor="middle" x="271.339" y="-551.199" font-family="Helvetica,sans-Serif" font-size="10.00">5</text>
</a>
</g>
</g>
<!-- dir_91c141b8e78af59a0323020451a6b6a2 -->
<g id="node3" class="node"><title>dir_91c141b8e78af59a0323020451a6b6a2</title>
<g id="a_node3"><a xlink:href="dir_91c141b8e78af59a0323020451a6b6a2.html" target="_top" xlink:title="Handle">
<polygon fill="none" stroke="black" points="179,-252 125,-252 125,-216 179,-216 179,-252"/>
<text text-anchor="middle" x="152" y="-231.5" font-family="Helvetica,sans-Serif" font-size="10.00">Handle</text>
</a>
</g>
</g>
<!-- dir_7370db5ffd6e13fa616902e0fbacb1f0&#45;&gt;dir_91c141b8e78af59a0323020451a6b6a2 -->
<g id="edge17" class="edge"><title>dir_7370db5ffd6e13fa616902e0fbacb1f0&#45;&gt;dir_91c141b8e78af59a0323020451a6b6a2</title>
<path fill="none" stroke="black" d="M245.33,-575.646C221.267,-553.255 181.133,-511.929 160,-468 125.146,-395.549 134.514,-368.05 142,-288 142.797,-279.478 144.3,-270.285 145.903,-261.986"/>
<polygon fill="black" stroke="black" points="149.355,-262.571 147.941,-252.071 142.499,-261.161 149.355,-262.571"/>
<g id="a_edge17&#45;headlabel"><a xlink:href="dir_000031_000028.html" target="_top" xlink:title="5">
<text text-anchor="middle" x="151.413" y="-264.163" font-family="Helvetica,sans-Serif" font-size="10.00">5</text>
</a>
</g>
</g>
<!-- dir_1456dd235032e023892318efbecb420b -->
<g id="node4" class="node"><title>dir_1456dd235032e023892318efbecb420b</title>
<g id="a_node4"><a xlink:href="dir_1456dd235032e023892318efbecb420b.html" target="_top" xlink:title="Containers">
<polygon fill="none" stroke="black" points="254,-468 190,-468 190,-432 254,-432 254,-468"/>
<text text-anchor="middle" x="222" y="-447.5" font-family="Helvetica,sans-Serif" font-size="10.00">Containers</text>
</a>
</g>
</g>
<!-- dir_7370db5ffd6e13fa616902e0fbacb1f0&#45;&gt;dir_1456dd235032e023892318efbecb420b -->
<g id="edge18" class="edge"><title>dir_7370db5ffd6e13fa616902e0fbacb1f0&#45;&gt;dir_1456dd235032e023892318efbecb420b</title>
<path fill="none" stroke="black" d="M249.8,-575.639C242.157,-565.856 233.568,-553.014 229,-540 222.038,-520.166 220.488,-496.369 220.57,-478.374"/>
<polygon fill="black" stroke="black" points="224.071,-478.338 220.787,-468.265 217.073,-478.187 224.071,-478.338"/>
<g id="a_edge18&#45;headlabel"><a xlink:href="dir_000031_000032.html" target="_top" xlink:title="4">
<text text-anchor="middle" x="226.832" y="-479.493" font-family="Helvetica,sans-Serif" font-size="10.00">4</text>
</a>
</g>
</g>
<!-- dir_d080e052e6032887076b6b5756e5361d -->
<g id="node5" class="node"><title>dir_d080e052e6032887076b6b5756e5361d</title>
<g id="a_node5"><a xlink:href="dir_d080e052e6032887076b6b5756e5361d.html" target="_top" xlink:title="Mesh">
<polygon fill="white" stroke="red" points="327,-108 273,-108 273,-72 327,-72 327,-108"/>
<text text-anchor="middle" x="300" y="-87.5" font-family="Helvetica,sans-Serif" font-size="10.00">Mesh</text>
</a>
</g>
</g>
<!-- dir_7370db5ffd6e13fa616902e0fbacb1f0&#45;&gt;dir_d080e052e6032887076b6b5756e5361d -->
<g id="edge19" class="edge"><title>dir_7370db5ffd6e13fa616902e0fbacb1f0&#45;&gt;dir_d080e052e6032887076b6b5756e5361d</title>
<path fill="none" stroke="black" d="M292.355,-587.583C348.391,-574.725 471,-536.789 471,-451 471,-451 471,-451 471,-233 471,-163.721 386.9,-121.774 336.658,-102.896"/>
<polygon fill="black" stroke="black" points="337.69,-99.5477 327.095,-99.4271 335.302,-106.128 337.69,-99.5477"/>
<g id="a_edge19&#45;headlabel"><a xlink:href="dir_000031_000053.html" target="_top" xlink:title="6">
<text text-anchor="middle" x="342.037" y="-95.6045" font-family="Helvetica,sans-Serif" font-size="10.00">6</text>
</a>
</g>
</g>
<!-- dir_a1f42069ba95676f6b9abbd5065ccf6d -->
<g id="node6" class="node"><title>dir_a1f42069ba95676f6b9abbd5065ccf6d</title>
<g id="a_node6"><a xlink:href="dir_a1f42069ba95676f6b9abbd5065ccf6d.html" target="_top" xlink:title="Math">
<polygon fill="none" stroke="black" points="330,-396 276,-396 276,-360 330,-360 330,-396"/>
<text text-anchor="middle" x="303" y="-375.5" font-family="Helvetica,sans-Serif" font-size="10.00">Math</text>
</a>
</g>
</g>
<!-- dir_7370db5ffd6e13fa616902e0fbacb1f0&#45;&gt;dir_a1f42069ba95676f6b9abbd5065ccf6d -->
<g id="edge20" class="edge"><title>dir_7370db5ffd6e13fa616902e0fbacb1f0&#45;&gt;dir_a1f42069ba95676f6b9abbd5065ccf6d</title>
<path fill="none" stroke="black" d="M280.545,-575.753C288.289,-566.004 296.864,-553.158 301,-540 315.158,-494.957 311.504,-439.265 307.379,-406.584"/>
<polygon fill="black" stroke="black" points="310.813,-405.864 305.987,-396.432 303.878,-406.815 310.813,-405.864"/>
<g id="a_edge20&#45;headlabel"><a xlink:href="dir_000031_000052.html" target="_top" xlink:title="4">
<text text-anchor="middle" x="314.114" y="-406.54" font-family="Helvetica,sans-Serif" font-size="10.00">4</text>
</a>
</g>
</g>
<!-- dir_cb2b5dfd43482fb277f6333d539f1f06 -->
<g id="node7" class="node"><title>dir_cb2b5dfd43482fb277f6333d539f1f06</title>
<g id="a_node7"><a xlink:href="dir_cb2b5dfd43482fb277f6333d539f1f06.html" target="_top" xlink:title="Geometry">
<polygon fill="white" stroke="red" points="315.25,-324 256.75,-324 256.75,-288 315.25,-288 315.25,-324"/>
<text text-anchor="middle" x="286" y="-303.5" font-family="Helvetica,sans-Serif" font-size="10.00">Geometry</text>
</a>
</g>
</g>
<!-- dir_7370db5ffd6e13fa616902e0fbacb1f0&#45;&gt;dir_cb2b5dfd43482fb277f6333d539f1f06 -->
<g id="edge21" class="edge"><title>dir_7370db5ffd6e13fa616902e0fbacb1f0&#45;&gt;dir_cb2b5dfd43482fb277f6333d539f1f06</title>
<path fill="none" stroke="black" d="M288.527,-575.94C299.604,-566.605 311.912,-554.08 319,-540 348.054,-482.286 334.545,-460.461 339,-396 340.103,-380.038 345.123,-374.782 339,-360 334.455,-349.028 326.415,-339.143 317.949,-330.964"/>
<polygon fill="black" stroke="black" points="320.249,-328.326 310.477,-324.232 315.563,-333.526 320.249,-328.326"/>
<g id="a_edge21&#45;headlabel"><a xlink:href="dir_000031_000037.html" target="_top" xlink:title="1">
<text text-anchor="middle" x="324.82" y="-326.122" font-family="Helvetica,sans-Serif" font-size="10.00">1</text>
</a>
</g>
</g>
<!-- dir_1efe152df2f2e9cd3517b1174a4598d7 -->
<g id="node8" class="node"><title>dir_1efe152df2f2e9cd3517b1174a4598d7</title>
<g id="a_node8"><a xlink:href="dir_1efe152df2f2e9cd3517b1174a4598d7.html" target="_top" xlink:title="Log">
<polygon fill="none" stroke="black" points="179,-36 125,-36 125,-0 179,-0 179,-36"/>
<text text-anchor="middle" x="152" y="-15.5" font-family="Helvetica,sans-Serif" font-size="10.00">Log</text>
</a>
</g>
</g>
<!-- dir_7370db5ffd6e13fa616902e0fbacb1f0&#45;&gt;dir_1efe152df2f2e9cd3517b1174a4598d7 -->
<g id="edge22" class="edge"><title>dir_7370db5ffd6e13fa616902e0fbacb1f0&#45;&gt;dir_1efe152df2f2e9cd3517b1174a4598d7</title>
<path fill="none" stroke="black" d="M237.937,-592.59C194.917,-590.643 110.07,-581.379 54,-540 16.7727,-512.527 0,-497.267 0,-451 0,-451 0,-451 0,-161 0,-97.9536 70.6908,-54.8575 115.656,-33.8221"/>
<polygon fill="black" stroke="black" points="117.16,-36.983 124.825,-29.669 114.272,-30.6065 117.16,-36.983"/>
<g id="a_edge22&#45;headlabel"><a xlink:href="dir_000031_000051.html" target="_top" xlink:title="1">
<text text-anchor="middle" x="115.057" y="-38.5523" font-family="Helvetica,sans-Serif" font-size="10.00">1</text>
</a>
</g>
</g>
<!-- dir_f5906172d2c9558d453eb81ef8e5bf93 -->
<g id="node9" class="node"><title>dir_f5906172d2c9558d453eb81ef8e5bf93</title>
<g id="a_node9"><a xlink:href="dir_f5906172d2c9558d453eb81ef8e5bf93.html" target="_top" xlink:title="Index">
<polygon fill="none" stroke="black" points="422,-36 368,-36 368,-0 422,-0 422,-36"/>
<text text-anchor="middle" x="395" y="-15.5" font-family="Helvetica,sans-Serif" font-size="10.00">Index</text>
</a>
</g>
</g>
<!-- dir_7370db5ffd6e13fa616902e0fbacb1f0&#45;&gt;dir_f5906172d2c9558d453eb81ef8e5bf93 -->
<g id="edge23" class="edge"><title>dir_7370db5ffd6e13fa616902e0fbacb1f0&#45;&gt;dir_f5906172d2c9558d453eb81ef8e5bf93</title>
<path fill="none" stroke="black" d="M292.045,-590.055C355.573,-581.487 509,-550.495 509,-451 509,-451 509,-451 509,-161 509,-109.997 463.726,-66.8836 430.241,-41.971"/>
<polygon fill="black" stroke="black" points="432.174,-39.0495 422.016,-36.0357 428.077,-44.7258 432.174,-39.0495"/>
<g id="a_edge23&#45;headlabel"><a xlink:href="dir_000031_000050.html" target="_top" xlink:title="1">
<text text-anchor="middle" x="436.75" y="-36.3506" font-family="Helvetica,sans-Serif" font-size="10.00">1</text>
</a>
</g>
</g>
<!-- dir_ff87cf903db18af0fdb6c342683ece25 -->
<g id="node10" class="node"><title>dir_ff87cf903db18af0fdb6c342683ece25</title>
<g id="a_node10"><a xlink:href="dir_ff87cf903db18af0fdb6c342683ece25.html" target="_top" xlink:title="Utils">
<polygon fill="white" stroke="red" points="179,-180 125,-180 125,-144 179,-144 179,-180"/>
<text text-anchor="middle" x="152" y="-159.5" font-family="Helvetica,sans-Serif" font-size="10.00">Utils</text>
</a>
</g>
</g>
<!-- dir_7370db5ffd6e13fa616902e0fbacb1f0&#45;&gt;dir_ff87cf903db18af0fdb6c342683ece25 -->
<g id="edge24" class="edge"><title>dir_7370db5ffd6e13fa616902e0fbacb1f0&#45;&gt;dir_ff87cf903db18af0fdb6c342683ece25</title>
<path fill="none" stroke="black" d="M237.618,-589.013C177.243,-578.516 38,-544.203 38,-451 38,-451 38,-451 38,-305 38,-253.997 83.2736,-210.884 116.759,-185.971"/>
<polygon fill="black" stroke="black" points="118.923,-188.726 124.984,-180.036 114.826,-183.05 118.923,-188.726"/>
<g id="a_edge24&#45;headlabel"><a xlink:href="dir_000031_000070.html" target="_top" xlink:title="1">
<text text-anchor="middle" x="117.669" y="-190.632" font-family="Helvetica,sans-Serif" font-size="10.00">1</text>
</a>
</g>
</g>
<!-- dir_2c6b9e60b5cfd48e3d1f71fa90957520&#45;&gt;dir_1456dd235032e023892318efbecb420b -->
<g id="edge1" class="edge"><title>dir_2c6b9e60b5cfd48e3d1f71fa90957520&#45;&gt;dir_1456dd235032e023892318efbecb420b</title>
<path fill="none" stroke="black" d="M254.371,-503.697C249.372,-495.559 243.309,-485.689 237.788,-476.701"/>
<polygon fill="black" stroke="black" points="240.723,-474.793 232.507,-468.104 234.759,-478.457 240.723,-474.793"/>
<g id="a_edge1&#45;headlabel"><a xlink:href="dir_000029_000032.html" target="_top" xlink:title="1">
<text text-anchor="middle" x="245.024" y="-473.87" font-family="Helvetica,sans-Serif" font-size="10.00">1</text>
</a>
</g>
</g>
<!-- dir_2c6b9e60b5cfd48e3d1f71fa90957520&#45;&gt;dir_a1f42069ba95676f6b9abbd5065ccf6d -->
<g id="edge2" class="edge"><title>dir_2c6b9e60b5cfd48e3d1f71fa90957520&#45;&gt;dir_a1f42069ba95676f6b9abbd5065ccf6d</title>
<path fill="none" stroke="black" d="M269.584,-503.871C276.089,-479.564 288.063,-434.819 295.771,-406.013"/>
<polygon fill="black" stroke="black" points="299.196,-406.754 298.4,-396.189 292.434,-404.945 299.196,-406.754"/>
<g id="a_edge2&#45;headlabel"><a xlink:href="dir_000029_000052.html" target="_top" xlink:title="1">
<text text-anchor="middle" x="301.01" y="-408.461" font-family="Helvetica,sans-Serif" font-size="10.00">1</text>
</a>
</g>
</g>
<!-- dir_91c141b8e78af59a0323020451a6b6a2&#45;&gt;dir_2c6b9e60b5cfd48e3d1f71fa90957520 -->
<g id="edge3" class="edge"><title>dir_91c141b8e78af59a0323020451a6b6a2&#45;&gt;dir_2c6b9e60b5cfd48e3d1f71fa90957520</title>
<path fill="none" stroke="black" d="M149.472,-252.146C144.356,-293.087 136.742,-398.321 181,-468 192.077,-485.439 211.185,-498.164 228.38,-506.767"/>
<polygon fill="black" stroke="black" points="227.133,-510.048 237.673,-511.126 230.106,-503.711 227.133,-510.048"/>
<g id="a_edge3&#45;headlabel"><a xlink:href="dir_000028_000029.html" target="_top" xlink:title="1">
<text text-anchor="middle" x="222.673" y="-508.592" font-family="Helvetica,sans-Serif" font-size="10.00">1</text>
</a>
</g>
</g>
<!-- dir_91c141b8e78af59a0323020451a6b6a2&#45;&gt;dir_1456dd235032e023892318efbecb420b -->
<g id="edge4" class="edge"><title>dir_91c141b8e78af59a0323020451a6b6a2&#45;&gt;dir_1456dd235032e023892318efbecb420b</title>
<path fill="none" stroke="black" d="M157.637,-252.232C169.821,-289.481 198.685,-377.723 213.259,-422.278"/>
<polygon fill="black" stroke="black" points="209.954,-423.433 216.39,-431.849 216.607,-421.257 209.954,-423.433"/>
<g id="a_edge4&#45;headlabel"><a xlink:href="dir_000028_000032.html" target="_top" xlink:title="2">
<text text-anchor="middle" x="206.138" y="-418.399" font-family="Helvetica,sans-Serif" font-size="10.00">2</text>
</a>
</g>
</g>
<!-- dir_91c141b8e78af59a0323020451a6b6a2&#45;&gt;dir_d080e052e6032887076b6b5756e5361d -->
<g id="edge5" class="edge"><title>dir_91c141b8e78af59a0323020451a6b6a2&#45;&gt;dir_d080e052e6032887076b6b5756e5361d</title>
<path fill="none" stroke="black" d="M169.852,-215.871C195.965,-190.817 244.706,-144.052 274.563,-115.406"/>
<polygon fill="black" stroke="black" points="277.292,-117.638 282.084,-108.189 272.445,-112.587 277.292,-117.638"/>
<g id="a_edge5&#45;headlabel"><a xlink:href="dir_000028_000053.html" target="_top" xlink:title="1">
<text text-anchor="middle" x="276.664" y="-119.676" font-family="Helvetica,sans-Serif" font-size="10.00">1</text>
</a>
</g>
</g>
<!-- dir_91c141b8e78af59a0323020451a6b6a2&#45;&gt;dir_a1f42069ba95676f6b9abbd5065ccf6d -->
<g id="edge6" class="edge"><title>dir_91c141b8e78af59a0323020451a6b6a2&#45;&gt;dir_a1f42069ba95676f6b9abbd5065ccf6d</title>
<path fill="none" stroke="black" d="M170.279,-252.189C196.958,-277.278 246.691,-324.047 277.121,-352.663"/>
<polygon fill="black" stroke="black" points="275.103,-355.571 284.786,-359.871 279.899,-350.471 275.103,-355.571"/>
<g id="a_edge6&#45;headlabel"><a xlink:href="dir_000028_000052.html" target="_top" xlink:title="2">
<text text-anchor="middle" x="270.54" y="-352.676" font-family="Helvetica,sans-Serif" font-size="10.00">2</text>
</a>
</g>
</g>
<!-- dir_91c141b8e78af59a0323020451a6b6a2&#45;&gt;dir_1efe152df2f2e9cd3517b1174a4598d7 -->
<g id="edge7" class="edge"><title>dir_91c141b8e78af59a0323020451a6b6a2&#45;&gt;dir_1efe152df2f2e9cd3517b1174a4598d7</title>
<path fill="none" stroke="black" d="M136.39,-215.774C128.627,-206.03 120.054,-193.184 116,-180 101.657,-133.357 122.351,-77.4874 137.798,-45.3315"/>
<polygon fill="black" stroke="black" points="141.047,-46.6606 142.379,-36.1499 134.783,-43.5354 141.047,-46.6606"/>
<g id="a_edge7&#45;headlabel"><a xlink:href="dir_000028_000051.html" target="_top" xlink:title="1">
<text text-anchor="middle" x="141.982" y="-48.6446" font-family="Helvetica,sans-Serif" font-size="10.00">1</text>
</a>
</g>
</g>
<!-- dir_91c141b8e78af59a0323020451a6b6a2&#45;&gt;dir_ff87cf903db18af0fdb6c342683ece25 -->
<g id="edge8" class="edge"><title>dir_91c141b8e78af59a0323020451a6b6a2&#45;&gt;dir_ff87cf903db18af0fdb6c342683ece25</title>
<path fill="none" stroke="black" d="M152,-215.697C152,-207.983 152,-198.712 152,-190.112"/>
<polygon fill="black" stroke="black" points="155.5,-190.104 152,-180.104 148.5,-190.104 155.5,-190.104"/>
<g id="a_edge8&#45;headlabel"><a xlink:href="dir_000028_000070.html" target="_top" xlink:title="1">
<text text-anchor="middle" x="158.339" y="-191.199" font-family="Helvetica,sans-Serif" font-size="10.00">1</text>
</a>
</g>
</g>
<!-- dir_1456dd235032e023892318efbecb420b&#45;&gt;dir_a1f42069ba95676f6b9abbd5065ccf6d -->
<g id="edge9" class="edge"><title>dir_1456dd235032e023892318efbecb420b&#45;&gt;dir_a1f42069ba95676f6b9abbd5065ccf6d</title>
<path fill="none" stroke="black" d="M236.107,-431.697C245.399,-422.881 257.786,-412.032 269.423,-402.474"/>
<polygon fill="black" stroke="black" points="271.731,-405.11 277.313,-396.104 267.334,-399.663 271.731,-405.11"/>
<g id="a_edge9&#45;headlabel"><a xlink:href="dir_000032_000052.html" target="_top" xlink:title="1">
<text text-anchor="middle" x="270.718" y="-407.077" font-family="Helvetica,sans-Serif" font-size="10.00">1</text>
</a>
</g>
</g>
<!-- dir_d080e052e6032887076b6b5756e5361d&#45;&gt;dir_1456dd235032e023892318efbecb420b -->
<g id="edge10" class="edge"><title>dir_d080e052e6032887076b6b5756e5361d&#45;&gt;dir_1456dd235032e023892318efbecb420b</title>
<path fill="none" stroke="black" d="M327.235,-104.502C366.146,-125.94 433,-171.694 433,-233 433,-307 433,-307 433,-307 433,-387.725 325.388,-425.572 263.866,-440.613"/>
<polygon fill="black" stroke="black" points="262.983,-437.225 254.046,-442.916 264.581,-444.04 262.983,-437.225"/>
<g id="a_edge10&#45;headlabel"><a xlink:href="dir_000053_000032.html" target="_top" xlink:title="4">
<text text-anchor="middle" x="265.834" y="-431.14" font-family="Helvetica,sans-Serif" font-size="10.00">4</text>
</a>
</g>
</g>
<!-- dir_d080e052e6032887076b6b5756e5361d&#45;&gt;dir_a1f42069ba95676f6b9abbd5065ccf6d -->
<g id="edge11" class="edge"><title>dir_d080e052e6032887076b6b5756e5361d&#45;&gt;dir_a1f42069ba95676f6b9abbd5065ccf6d</title>
<path fill="none" stroke="black" d="M315.608,-108.284C320.894,-118.462 325.644,-131.712 328,-144 347.382,-245.071 339.647,-289.18 333,-324 331.274,-333.041 328.031,-342.508 324.169,-350.898"/>
<polygon fill="black" stroke="black" points="321.036,-349.337 319.593,-359.833 327.267,-352.527 321.036,-349.337"/>
<g id="a_edge11&#45;headlabel"><a xlink:href="dir_000053_000052.html" target="_top" xlink:title="8">
<text text-anchor="middle" x="320.147" y="-342.343" font-family="Helvetica,sans-Serif" font-size="10.00">8</text>
</a>
</g>
</g>
<!-- dir_d080e052e6032887076b6b5756e5361d&#45;&gt;dir_cb2b5dfd43482fb277f6333d539f1f06 -->
<g id="edge12" class="edge"><title>dir_d080e052e6032887076b6b5756e5361d&#45;&gt;dir_cb2b5dfd43482fb277f6333d539f1f06</title>
<path fill="none" stroke="black" d="M302.758,-108.232C303.862,-145.324 298.395,-232.981 292.471,-277.712"/>
<polygon fill="black" stroke="black" points="288.972,-277.45 291,-287.849 295.9,-278.456 288.972,-277.45"/>
<g id="a_edge12&#45;headlabel"><a xlink:href="dir_000053_000037.html" target="_top" xlink:title="2">
<text text-anchor="middle" x="286.679" y="-270.985" font-family="Helvetica,sans-Serif" font-size="10.00">2</text>
</a>
</g>
</g>
<!-- dir_d080e052e6032887076b6b5756e5361d&#45;&gt;dir_1efe152df2f2e9cd3517b1174a4598d7 -->
<g id="edge13" class="edge"><title>dir_d080e052e6032887076b6b5756e5361d&#45;&gt;dir_1efe152df2f2e9cd3517b1174a4598d7</title>
<path fill="none" stroke="black" d="M272.855,-76.1609C249.146,-64.9473 214.536,-48.5778 188.424,-36.2274"/>
<polygon fill="black" stroke="black" points="189.76,-32.9877 179.224,-31.876 186.767,-39.3156 189.76,-32.9877"/>
<g id="a_edge13&#45;headlabel"><a xlink:href="dir_000053_000051.html" target="_top" xlink:title="3">
<text text-anchor="middle" x="194.223" y="-29.4579" font-family="Helvetica,sans-Serif" font-size="10.00">3</text>
</a>
</g>
</g>
<!-- dir_d080e052e6032887076b6b5756e5361d&#45;&gt;dir_f5906172d2c9558d453eb81ef8e5bf93 -->
<g id="edge14" class="edge"><title>dir_d080e052e6032887076b6b5756e5361d&#45;&gt;dir_f5906172d2c9558d453eb81ef8e5bf93</title>
<path fill="none" stroke="black" d="M323.483,-71.6966C335.563,-62.796 350.454,-51.8232 363.516,-42.1989"/>
<polygon fill="black" stroke="black" points="365.813,-44.8541 371.787,-36.1043 361.66,-39.2187 365.813,-44.8541"/>
<g id="a_edge14&#45;headlabel"><a xlink:href="dir_000053_000050.html" target="_top" xlink:title="14">
<text text-anchor="middle" x="364.603" y="-46.7721" font-family="Helvetica,sans-Serif" font-size="10.00">14</text>
</a>
</g>
</g>
<!-- dir_d080e052e6032887076b6b5756e5361d&#45;&gt;dir_ff87cf903db18af0fdb6c342683ece25 -->
<g id="edge15" class="edge"><title>dir_d080e052e6032887076b6b5756e5361d&#45;&gt;dir_ff87cf903db18af0fdb6c342683ece25</title>
<path fill="none" stroke="black" d="M272.976,-106.484C249.191,-118.405 214.564,-134.764 188.372,-146.445"/>
<polygon fill="black" stroke="black" points="186.875,-143.28 179.14,-150.52 189.701,-149.684 186.875,-143.28"/>
<g id="a_edge15&#45;headlabel"><a xlink:href="dir_000053_000070.html" target="_top" xlink:title="2">
<text text-anchor="middle" x="189.017" y="-136.731" font-family="Helvetica,sans-Serif" font-size="10.00">2</text>
</a>
</g>
</g>
<!-- dir_a1f42069ba95676f6b9abbd5065ccf6d&#45;&gt;dir_1456dd235032e023892318efbecb420b -->
<g id="edge25" class="edge"><title>dir_a1f42069ba95676f6b9abbd5065ccf6d&#45;&gt;dir_1456dd235032e023892318efbecb420b</title>
<path fill="none" stroke="black" d="M289.103,-396.104C279.858,-404.889 267.488,-415.732 255.84,-425.309"/>
<polygon fill="black" stroke="black" points="253.515,-422.688 247.938,-431.697 257.915,-428.132 253.515,-422.688"/>
<g id="a_edge25&#45;headlabel"><a xlink:href="dir_000052_000032.html" target="_top" xlink:title="3">
<text text-anchor="middle" x="254.526" y="-415.72" font-family="Helvetica,sans-Serif" font-size="10.00">3</text>
</a>
</g>
</g>
<!-- dir_a1f42069ba95676f6b9abbd5065ccf6d&#45;&gt;dir_d080e052e6032887076b6b5756e5361d -->
<g id="edge26" class="edge"><title>dir_a1f42069ba95676f6b9abbd5065ccf6d&#45;&gt;dir_d080e052e6032887076b6b5756e5361d</title>
<path fill="none" stroke="black" d="M303.843,-359.833C307.375,-349.694 312.625,-336.444 315,-324 321.647,-289.18 329.382,-245.071 310,-144 308.343,-135.36 305.503,-126.245 302.907,-118.056"/>
<polygon fill="black" stroke="black" points="306.178,-116.787 299.858,-108.284 299.496,-118.873 306.178,-116.787"/>
<g id="a_edge26&#45;headlabel"><a xlink:href="dir_000052_000053.html" target="_top" xlink:title="1">
<text text-anchor="middle" x="309.959" y="-116.873" font-family="Helvetica,sans-Serif" font-size="10.00">1</text>
</a>
</g>
</g>
<!-- dir_a1f42069ba95676f6b9abbd5065ccf6d&#45;&gt;dir_cb2b5dfd43482fb277f6333d539f1f06 -->
<g id="edge27" class="edge"><title>dir_a1f42069ba95676f6b9abbd5065ccf6d&#45;&gt;dir_cb2b5dfd43482fb277f6333d539f1f06</title>
<path fill="none" stroke="black" d="M292.882,-359.697C290.213,-351.983 287.735,-342.712 285.989,-334.112"/>
<polygon fill="black" stroke="black" points="289.411,-333.362 284.259,-324.104 282.514,-334.554 289.411,-333.362"/>
<g id="a_edge27&#45;headlabel"><a xlink:href="dir_000052_000037.html" target="_top" xlink:title="2">
<text text-anchor="middle" x="292.821" y="-333.92" font-family="Helvetica,sans-Serif" font-size="10.00">2</text>
</a>
</g>
</g>
<!-- dir_cb2b5dfd43482fb277f6333d539f1f06&#45;&gt;dir_91c141b8e78af59a0323020451a6b6a2 -->
<g id="edge28" class="edge"><title>dir_cb2b5dfd43482fb277f6333d539f1f06&#45;&gt;dir_91c141b8e78af59a0323020451a6b6a2</title>
<path fill="none" stroke="black" d="M256.593,-289.638C236.46,-279.121 209.631,-265.106 188.186,-253.903"/>
<polygon fill="black" stroke="black" points="189.543,-250.663 179.059,-249.135 186.302,-256.868 189.543,-250.663"/>
<g id="a_edge28&#45;headlabel"><a xlink:href="dir_000037_000028.html" target="_top" xlink:title="1">
<text text-anchor="middle" x="194.044" y="-247.311" font-family="Helvetica,sans-Serif" font-size="10.00">1</text>
</a>
</g>
</g>
<!-- dir_cb2b5dfd43482fb277f6333d539f1f06&#45;&gt;dir_1456dd235032e023892318efbecb420b -->
<g id="edge29" class="edge"><title>dir_cb2b5dfd43482fb277f6333d539f1f06&#45;&gt;dir_1456dd235032e023892318efbecb420b</title>
<path fill="none" stroke="black" d="M278.253,-324.189C267.234,-348.638 246.936,-393.673 233.972,-422.436"/>
<polygon fill="black" stroke="black" points="230.638,-421.316 229.72,-431.871 237.02,-424.193 230.638,-421.316"/>
<g id="a_edge29&#45;headlabel"><a xlink:href="dir_000037_000032.html" target="_top" xlink:title="12">
<text text-anchor="middle" x="229.527" y="-414.373" font-family="Helvetica,sans-Serif" font-size="10.00">12</text>
</a>
</g>
</g>
<!-- dir_cb2b5dfd43482fb277f6333d539f1f06&#45;&gt;dir_d080e052e6032887076b6b5756e5361d -->
<g id="edge30" class="edge"><title>dir_cb2b5dfd43482fb277f6333d539f1f06&#45;&gt;dir_d080e052e6032887076b6b5756e5361d</title>
<path fill="none" stroke="black" d="M283.244,-287.849C282.13,-250.832 287.593,-163.181 293.516,-118.386"/>
<polygon fill="black" stroke="black" points="297.017,-118.631 294.987,-108.232 290.09,-117.627 297.017,-118.631"/>
<g id="a_edge30&#45;headlabel"><a xlink:href="dir_000037_000053.html" target="_top" xlink:title="10">
<text text-anchor="middle" x="299.312" y="-120.096" font-family="Helvetica,sans-Serif" font-size="10.00">10</text>
</a>
</g>
</g>
<!-- dir_cb2b5dfd43482fb277f6333d539f1f06&#45;&gt;dir_a1f42069ba95676f6b9abbd5065ccf6d -->
<g id="edge31" class="edge"><title>dir_cb2b5dfd43482fb277f6333d539f1f06&#45;&gt;dir_a1f42069ba95676f6b9abbd5065ccf6d</title>
<path fill="none" stroke="black" d="M296.049,-324.104C298.721,-331.791 301.207,-341.054 302.966,-349.665"/>
<polygon fill="black" stroke="black" points="299.549,-350.446 304.713,-359.697 306.445,-349.244 299.549,-350.446"/>
<g id="a_edge31&#45;headlabel"><a xlink:href="dir_000037_000052.html" target="_top" xlink:title="14">
<text text-anchor="middle" x="296.135" y="-344.892" font-family="Helvetica,sans-Serif" font-size="10.00">14</text>
</a>
</g>
</g>
<!-- dir_cb2b5dfd43482fb277f6333d539f1f06&#45;&gt;dir_1efe152df2f2e9cd3517b1174a4598d7 -->
<g id="edge32" class="edge"><title>dir_cb2b5dfd43482fb277f6333d539f1f06&#45;&gt;dir_1efe152df2f2e9cd3517b1174a4598d7</title>
<path fill="none" stroke="black" d="M278.019,-287.966C255.542,-239.994 191.589,-103.496 164.436,-45.5434"/>
<polygon fill="black" stroke="black" points="167.521,-43.8768 160.109,-36.3065 161.182,-46.8468 167.521,-43.8768"/>
<g id="a_edge32&#45;headlabel"><a xlink:href="dir_000037_000051.html" target="_top" xlink:title="2">
<text text-anchor="middle" x="171.617" y="-43.4273" font-family="Helvetica,sans-Serif" font-size="10.00">2</text>
</a>
</g>
</g>
<!-- dir_cb2b5dfd43482fb277f6333d539f1f06&#45;&gt;dir_f5906172d2c9558d453eb81ef8e5bf93 -->
<g id="edge33" class="edge"><title>dir_cb2b5dfd43482fb277f6333d539f1f06&#45;&gt;dir_f5906172d2c9558d453eb81ef8e5bf93</title>
<path fill="none" stroke="black" d="M296.015,-287.661C301.687,-277.465 308.687,-264.215 314,-252 345.709,-179.105 374.019,-89.4225 387.189,-45.6205"/>
<polygon fill="black" stroke="black" points="390.554,-46.5861 390.059,-36.0028 383.846,-44.5847 390.554,-46.5861"/>
<g id="a_edge33&#45;headlabel"><a xlink:href="dir_000037_000050.html" target="_top" xlink:title="5">
<text text-anchor="middle" x="392.247" y="-48.3424" font-family="Helvetica,sans-Serif" font-size="10.00">5</text>
</a>
</g>
</g>
<!-- dir_cb2b5dfd43482fb277f6333d539f1f06&#45;&gt;dir_ff87cf903db18af0fdb6c342683ece25 -->
<g id="edge34" class="edge"><title>dir_cb2b5dfd43482fb277f6333d539f1f06&#45;&gt;dir_ff87cf903db18af0fdb6c342683ece25</title>
<path fill="none" stroke="black" d="M267.568,-287.922C256.719,-277.702 242.846,-264.341 231,-252 210.777,-230.931 188.801,-205.995 173.174,-187.886"/>
<polygon fill="black" stroke="black" points="175.642,-185.387 166.47,-180.084 170.332,-189.949 175.642,-185.387"/>
<g id="a_edge34&#45;headlabel"><a xlink:href="dir_000037_000070.html" target="_top" xlink:title="1">
<text text-anchor="middle" x="180.138" y="-183.763" font-family="Helvetica,sans-Serif" font-size="10.00">1</text>
</a>
</g>
</g>
<!-- dir_ff87cf903db18af0fdb6c342683ece25&#45;&gt;dir_1456dd235032e023892318efbecb420b -->
<g id="edge35" class="edge"><title>dir_ff87cf903db18af0fdb6c342683ece25&#45;&gt;dir_1456dd235032e023892318efbecb420b</title>
<path fill="none" stroke="black" d="M136.39,-180.226C128.627,-189.97 120.054,-202.816 116,-216 111.297,-231.293 112.281,-236.438 116,-252 131.979,-318.86 176.535,-387.44 202.512,-423.399"/>
<polygon fill="black" stroke="black" points="199.951,-425.824 208.688,-431.817 205.595,-421.684 199.951,-425.824"/>
<g id="a_edge35&#45;headlabel"><a xlink:href="dir_000070_000032.html" target="_top" xlink:title="3">
<text text-anchor="middle" x="195.535" y="-422.105" font-family="Helvetica,sans-Serif" font-size="10.00">3</text>
</a>
</g>
</g>
<!-- dir_ff87cf903db18af0fdb6c342683ece25&#45;&gt;dir_d080e052e6032887076b6b5756e5361d -->
<g id="edge36" class="edge"><title>dir_ff87cf903db18af0fdb6c342683ece25&#45;&gt;dir_d080e052e6032887076b6b5756e5361d</title>
<path fill="none" stroke="black" d="M179.126,-145.465C202.895,-133.555 237.437,-117.236 263.587,-105.573"/>
<polygon fill="black" stroke="black" points="265.071,-108.744 272.806,-101.503 262.244,-102.34 265.071,-108.744"/>
<g id="a_edge36&#45;headlabel"><a xlink:href="dir_000070_000053.html" target="_top" xlink:title="1">
<text text-anchor="middle" x="262.929" y="-110.293" font-family="Helvetica,sans-Serif" font-size="10.00">1</text>
</a>
</g>
</g>
<!-- dir_ff87cf903db18af0fdb6c342683ece25&#45;&gt;dir_1efe152df2f2e9cd3517b1174a4598d7 -->
<g id="edge37" class="edge"><title>dir_ff87cf903db18af0fdb6c342683ece25&#45;&gt;dir_1efe152df2f2e9cd3517b1174a4598d7</title>
<path fill="none" stroke="black" d="M152,-143.871C152,-119.67 152,-75.2108 152,-46.3932"/>
<polygon fill="black" stroke="black" points="155.5,-46.1892 152,-36.1893 148.5,-46.1893 155.5,-46.1892"/>
<g id="a_edge37&#45;headlabel"><a xlink:href="dir_000070_000051.html" target="_top" xlink:title="1">
<text text-anchor="middle" x="158.339" y="-47.2839" font-family="Helvetica,sans-Serif" font-size="10.00">1</text>
</a>
</g>
</g>
</g>
</svg>
