<?xml version="1.0" encoding="UTF-8" standalone="no"?>
<!DOCTYPE svg PUBLIC "-//W3C//DTD SVG 1.1//EN"
 "http://www.w3.org/Graphics/SVG/1.1/DTD/svg11.dtd">
<!-- Generated by graphviz version 2.36.0 (20140111.2315)
 -->
<!-- Title: /home/travis/build/STORM&#45;IRIT/Radium&#45;Engine/src/Core/Mesh Pages: 1 -->
<svg width="584pt" height="323pt"
 viewBox="0.00 0.00 584.34 323.38" xmlns="http://www.w3.org/2000/svg" xmlns:xlink="http://www.w3.org/1999/xlink">
<g id="graph0" class="graph" transform="scale(1 1) rotate(0) translate(4 319.381)">
<title>/home/travis/build/STORM&#45;IRIT/Radium&#45;Engine/src/Core/Mesh</title>
<polygon fill="white" stroke="none" points="-4,4 -4,-319.381 580.339,-319.381 580.339,4 -4,4"/>
<g id="clust1" class="cluster"><title>clusterdir_a2f0e5642e47e7ed59fe0f0829eafb5f</title>
<g id="a_clust1"><a xlink:href="dir_a2f0e5642e47e7ed59fe0f0829eafb5f.html" target="_top" xlink:title="Core">
<polygon fill="#ddddee" stroke="black" points="8,-128 8,-287 286,-287 286,-128 8,-128"/>
<text text-anchor="middle" x="147" y="-275" font-family="Helvetica,sans-Serif" font-size="10.00">Core</text>
</a>
</g>
</g>
<g id="clust2" class="cluster"><title>clusterdir_d080e052e6032887076b6b5756e5361d</title>
<g id="a_clust2"><a xlink:href="dir_d080e052e6032887076b6b5756e5361d.html" target="_top">
<polygon fill="#eeeeff" stroke="black" points="16,-136 16,-260 278,-260 278,-136 16,-136"/>
</a>
</g>
</g>
<!-- dir_d080e052e6032887076b6b5756e5361d -->
<g id="node1" class="node"><title>dir_d080e052e6032887076b6b5756e5361d</title>
<text text-anchor="middle" x="51" y="-231.5" font-family="Helvetica,sans-Serif" font-size="10.00">Mesh</text>
</g>
<!-- dir_cb2b5dfd43482fb277f6333d539f1f06 -->
<g id="node7" class="node"><title>dir_cb2b5dfd43482fb277f6333d539f1f06</title>
<g id="a_node7"><a xlink:href="dir_cb2b5dfd43482fb277f6333d539f1f06.html" target="_top" xlink:title="Geometry">
<polygon fill="white" stroke="red" points="502.25,-252 443.75,-252 443.75,-216 502.25,-216 502.25,-252"/>
<text text-anchor="middle" x="473" y="-231.5" font-family="Helvetica,sans-Serif" font-size="10.00">Geometry</text>
</a>
</g>
</g>
<!-- dir_d080e052e6032887076b6b5756e5361d&#45;&gt;dir_cb2b5dfd43482fb277f6333d539f1f06 -->
<g id="edge2" class="edge"><title>dir_d080e052e6032887076b6b5756e5361d&#45;&gt;dir_cb2b5dfd43482fb277f6333d539f1f06</title>
<path fill="none" stroke="black" d="M56.7294,-252.038C63.2342,-269.135 75.6695,-293.816 96,-305 130.463,-323.959 234.237,-311.676 273,-305 331.077,-294.997 394.654,-269.778 434.188,-252.261"/>
<polygon fill="black" stroke="black" points="436.015,-255.278 443.703,-247.988 433.147,-248.892 436.015,-255.278"/>
<g id="a_edge2&#45;headlabel"><a xlink:href="dir_000053_000037.html" target="_top" xlink:title="2">
<text text-anchor="middle" x="433.899" y="-256.841" font-family="Helvetica,sans-Serif" font-size="10.00">2</text>
</a>
</g>
</g>
<!-- dir_1efe152df2f2e9cd3517b1174a4598d7 -->
<g id="node8" class="node"><title>dir_1efe152df2f2e9cd3517b1174a4598d7</title>
<g id="a_node8"><a xlink:href="dir_1efe152df2f2e9cd3517b1174a4598d7.html" target="_top" xlink:title="Log">
<polygon fill="none" stroke="black" points="407,-108 353,-108 353,-72 407,-72 407,-108"/>
<text text-anchor="middle" x="380" y="-87.5" font-family="Helvetica,sans-Serif" font-size="10.00">Log</text>
</a>
</g>
</g>
<!-- dir_d080e052e6032887076b6b5756e5361d&#45;&gt;dir_1efe152df2f2e9cd3517b1174a4598d7 -->
<g id="edge3" class="edge"><title>dir_d080e052e6032887076b6b5756e5361d&#45;&gt;dir_1efe152df2f2e9cd3517b1174a4598d7</title>
<path fill="none" stroke="black" d="M78.2228,-219.262C81.1447,-218.054 84.1068,-216.937 87,-216 169.595,-189.245 200.968,-218.063 279,-180 310.71,-164.532 340.143,-136.358 358.958,-115.842"/>
<polygon fill="black" stroke="black" points="361.805,-117.909 365.87,-108.125 356.591,-113.239 361.805,-117.909"/>
<g id="a_edge3&#45;headlabel"><a xlink:href="dir_000053_000051.html" target="_top" xlink:title="3">
<text text-anchor="middle" x="361.522" y="-119.981" font-family="Helvetica,sans-Serif" font-size="10.00">3</text>
</a>
</g>
</g>
<!-- dir_dbb2a23c19e39eeed5090a333e1fc81c -->
<g id="node10" class="node"><title>dir_dbb2a23c19e39eeed5090a333e1fc81c</title>
<g id="a_node10"><a xlink:href="dir_dbb2a23c19e39eeed5090a333e1fc81c.html" target="_top" xlink:title="String">
<polygon fill="none" stroke="black" points="245,-36 191,-36 191,-0 245,-0 245,-36"/>
<text text-anchor="middle" x="218" y="-15.5" font-family="Helvetica,sans-Serif" font-size="10.00">String</text>
</a>
</g>
</g>
<!-- dir_d080e052e6032887076b6b5756e5361d&#45;&gt;dir_dbb2a23c19e39eeed5090a333e1fc81c -->
<g id="edge4" class="edge"><title>dir_d080e052e6032887076b6b5756e5361d&#45;&gt;dir_dbb2a23c19e39eeed5090a333e1fc81c</title>
<path fill="none" stroke="black" d="M50.4956,-215.71C50.4883,-183.54 54.9765,-113.955 91,-72 113.802,-45.4432 152.101,-31.9244 180.69,-25.2184"/>
<polygon fill="black" stroke="black" points="181.704,-28.5802 190.737,-23.0444 180.223,-21.7385 181.704,-28.5802"/>
<g id="a_edge4&#45;headlabel"><a xlink:href="dir_000053_000066.html" target="_top" xlink:title="2">
<text text-anchor="middle" x="178.791" y="-29.6154" font-family="Helvetica,sans-Serif" font-size="10.00">2</text>
</a>
</g>
</g>
<!-- dir_ff87cf903db18af0fdb6c342683ece25 -->
<g id="node11" class="node"><title>dir_ff87cf903db18af0fdb6c342683ece25</title>
<g id="a_node11"><a xlink:href="dir_ff87cf903db18af0fdb6c342683ece25.html" target="_top" xlink:title="Utils">
<polygon fill="white" stroke="red" points="500,-180 446,-180 446,-144 500,-144 500,-180"/>
<text text-anchor="middle" x="473" y="-159.5" font-family="Helvetica,sans-Serif" font-size="10.00">Utils</text>
</a>
</g>
</g>
<!-- dir_d080e052e6032887076b6b5756e5361d&#45;&gt;dir_ff87cf903db18af0fdb6c342683ece25 -->
<g id="edge5" class="edge"><title>dir_d080e052e6032887076b6b5756e5361d&#45;&gt;dir_ff87cf903db18af0fdb6c342683ece25</title>
<path fill="none" stroke="black" d="M78.1744,-219.106C81.1057,-217.929 84.0833,-216.861 87,-216 202.684,-181.842 236.536,-196.672 356,-180 382.62,-176.285 412.619,-171.923 435.575,-168.547"/>
<polygon fill="black" stroke="black" points="436.207,-171.992 445.59,-167.072 435.186,-165.067 436.207,-171.992"/>
<g id="a_edge5&#45;headlabel"><a xlink:href="dir_000053_000070.html" target="_top" xlink:title="2">
<text text-anchor="middle" x="433.065" y="-172.825" font-family="Helvetica,sans-Serif" font-size="10.00">2</text>
</a>
</g>
</g>
<!-- dir_2675901a455951db10e33b411821b9ee -->
<g id="node2" class="node"><title>dir_2675901a455951db10e33b411821b9ee</title>
<g id="a_node2"><a xlink:href="dir_2675901a455951db10e33b411821b9ee.html" target="_top" xlink:title="DCEL">
<polygon fill="white" stroke="red" points="270,-180 216,-180 216,-144 270,-144 270,-180"/>
<text text-anchor="middle" x="243" y="-159.5" font-family="Helvetica,sans-Serif" font-size="10.00">DCEL</text>
</a>
</g>
</g>
<!-- dir_1456dd235032e023892318efbecb420b -->
<g id="node5" class="node"><title>dir_1456dd235032e023892318efbecb420b</title>
<g id="a_node5"><a xlink:href="dir_1456dd235032e023892318efbecb420b.html" target="_top" xlink:title="Containers">
<polygon fill="none" stroke="black" points="505,-108 441,-108 441,-72 505,-72 505,-108"/>
<text text-anchor="middle" x="473" y="-87.5" font-family="Helvetica,sans-Serif" font-size="10.00">Containers</text>
</a>
</g>
</g>
<!-- dir_2675901a455951db10e33b411821b9ee&#45;&gt;dir_1456dd235032e023892318efbecb420b -->
<g id="edge9" class="edge"><title>dir_2675901a455951db10e33b411821b9ee&#45;&gt;dir_1456dd235032e023892318efbecb420b</title>
<path fill="none" stroke="black" d="M270.287,-152.695C310.086,-140.583 384.39,-117.968 431.137,-103.741"/>
<polygon fill="black" stroke="black" points="432.409,-107.012 440.957,-100.752 430.371,-100.316 432.409,-107.012"/>
<g id="a_edge9&#45;headlabel"><a xlink:href="dir_000054_000032.html" target="_top" xlink:title="1">
<text text-anchor="middle" x="429.797" y="-108.275" font-family="Helvetica,sans-Serif" font-size="10.00">1</text>
</a>
</g>
</g>
<!-- dir_a1f42069ba95676f6b9abbd5065ccf6d -->
<g id="node6" class="node"><title>dir_a1f42069ba95676f6b9abbd5065ccf6d</title>
<g id="a_node6"><a xlink:href="dir_a1f42069ba95676f6b9abbd5065ccf6d.html" target="_top" xlink:title="Math">
<polygon fill="none" stroke="black" points="500,-36 446,-36 446,-0 500,-0 500,-36"/>
<text text-anchor="middle" x="473" y="-15.5" font-family="Helvetica,sans-Serif" font-size="10.00">Math</text>
</a>
</g>
</g>
<!-- dir_2675901a455951db10e33b411821b9ee&#45;&gt;dir_a1f42069ba95676f6b9abbd5065ccf6d -->
<g id="edge10" class="edge"><title>dir_2675901a455951db10e33b411821b9ee&#45;&gt;dir_a1f42069ba95676f6b9abbd5065ccf6d</title>
<path fill="none" stroke="black" d="M259.114,-143.679C277.97,-124.199 310.851,-92.6022 344,-72 373.085,-53.9241 409.406,-39.6442 436.091,-30.4831"/>
<polygon fill="black" stroke="black" points="437.442,-33.7218 445.811,-27.2254 435.217,-27.0847 437.442,-33.7218"/>
<g id="a_edge10&#45;headlabel"><a xlink:href="dir_000054_000052.html" target="_top" xlink:title="1">
<text text-anchor="middle" x="434.936" y="-35.0561" font-family="Helvetica,sans-Serif" font-size="10.00">1</text>
</a>
</g>
</g>
<!-- dir_f5906172d2c9558d453eb81ef8e5bf93 -->
<g id="node9" class="node"><title>dir_f5906172d2c9558d453eb81ef8e5bf93</title>
<g id="a_node9"><a xlink:href="dir_f5906172d2c9558d453eb81ef8e5bf93.html" target="_top" xlink:title="Index">
<polygon fill="none" stroke="black" points="270,-108 216,-108 216,-72 270,-72 270,-108"/>
<text text-anchor="middle" x="243" y="-87.5" font-family="Helvetica,sans-Serif" font-size="10.00">Index</text>
</a>
</g>
</g>
<!-- dir_2675901a455951db10e33b411821b9ee&#45;&gt;dir_f5906172d2c9558d453eb81ef8e5bf93 -->
<g id="edge11" class="edge"><title>dir_2675901a455951db10e33b411821b9ee&#45;&gt;dir_f5906172d2c9558d453eb81ef8e5bf93</title>
<path fill="none" stroke="black" d="M243,-143.697C243,-135.983 243,-126.712 243,-118.112"/>
<polygon fill="black" stroke="black" points="246.5,-118.104 243,-108.104 239.5,-118.104 246.5,-118.104"/>
<g id="a_edge11&#45;headlabel"><a xlink:href="dir_000054_000050.html" target="_top" xlink:title="10">
<text text-anchor="middle" x="249.339" y="-119.199" font-family="Helvetica,sans-Serif" font-size="10.00">10</text>
</a>
</g>
</g>
<!-- dir_ac204889f54aebb9ba7b91d6916c1389 -->
<g id="node3" class="node"><title>dir_ac204889f54aebb9ba7b91d6916c1389</title>
<g id="a_node3"><a xlink:href="dir_ac204889f54aebb9ba7b91d6916c1389.html" target="_top" xlink:title="TopologicalTriMesh">
<polygon fill="white" stroke="red" points="197.25,-252 96.75,-252 96.75,-216 197.25,-216 197.25,-252"/>
<text text-anchor="middle" x="147" y="-231.5" font-family="Helvetica,sans-Serif" font-size="10.00">TopologicalTriMesh</text>
</a>
</g>
</g>
<!-- dir_ac204889f54aebb9ba7b91d6916c1389&#45;&gt;dir_a1f42069ba95676f6b9abbd5065ccf6d -->
<g id="edge6" class="edge"><title>dir_ac204889f54aebb9ba7b91d6916c1389&#45;&gt;dir_a1f42069ba95676f6b9abbd5065ccf6d</title>
<path fill="none" stroke="black" d="M147.394,-215.776C149.229,-181.414 158.806,-104.835 207,-72 243.863,-46.8853 371.847,-29.9161 435.894,-22.791"/>
<polygon fill="black" stroke="black" points="436.408,-26.2558 445.97,-21.6928 435.649,-19.297 436.408,-26.2558"/>
<g id="a_edge6&#45;headlabel"><a xlink:href="dir_000060_000052.html" target="_top" xlink:title="2">
<text text-anchor="middle" x="433.142" y="-26.9678" font-family="Helvetica,sans-Serif" font-size="10.00">2</text>
</a>
</g>
</g>
<!-- dir_ac204889f54aebb9ba7b91d6916c1389&#45;&gt;dir_1efe152df2f2e9cd3517b1174a4598d7 -->
<g id="edge7" class="edge"><title>dir_ac204889f54aebb9ba7b91d6916c1389&#45;&gt;dir_1efe152df2f2e9cd3517b1174a4598d7</title>
<path fill="none" stroke="black" d="M197.376,-218.573C200.629,-217.689 203.858,-216.824 207,-216 272.897,-198.711 307.196,-227.535 356,-180 372.347,-164.078 377.929,-138.28 379.667,-118.549"/>
<polygon fill="black" stroke="black" points="383.176,-118.504 380.281,-108.312 376.189,-118.085 383.176,-118.504"/>
<g id="a_edge7&#45;headlabel"><a xlink:href="dir_000060_000051.html" target="_top" xlink:title="2">
<text text-anchor="middle" x="385.795" y="-119.762" font-family="Helvetica,sans-Serif" font-size="10.00">2</text>
</a>
</g>
</g>
<!-- dir_ac204889f54aebb9ba7b91d6916c1389&#45;&gt;dir_f5906172d2c9558d453eb81ef8e5bf93 -->
<g id="edge8" class="edge"><title>dir_ac204889f54aebb9ba7b91d6916c1389&#45;&gt;dir_f5906172d2c9558d453eb81ef8e5bf93</title>
<path fill="none" stroke="black" d="M155.124,-215.822C165.659,-194.33 185.277,-156.848 207,-128 210.154,-123.812 213.746,-119.605 217.412,-115.608"/>
<polygon fill="black" stroke="black" points="220.076,-117.886 224.456,-108.238 215.016,-113.049 220.076,-117.886"/>
<g id="a_edge8&#45;headlabel"><a xlink:href="dir_000060_000050.html" target="_top" xlink:title="3">
<text text-anchor="middle" x="219.645" y="-119.946" font-family="Helvetica,sans-Serif" font-size="10.00">3</text>
</a>
</g>
</g>
<!-- dir_464a0350ede36c55de1de45678306167 -->
<g id="node4" class="node"><title>dir_464a0350ede36c55de1de45678306167</title>
<g id="a_node4"><a xlink:href="dir_464a0350ede36c55de1de45678306167.html" target="_top" xlink:title="Wrapper">
<polygon fill="white" stroke="black" points="270,-252 216,-252 216,-216 270,-216 270,-252"/>
<text text-anchor="middle" x="243" y="-231.5" font-family="Helvetica,sans-Serif" font-size="10.00">Wrapper</text>
</a>
</g>
</g>
<!-- dir_464a0350ede36c55de1de45678306167&#45;&gt;dir_2675901a455951db10e33b411821b9ee -->
<g id="edge22" class="edge"><title>dir_464a0350ede36c55de1de45678306167&#45;&gt;dir_2675901a455951db10e33b411821b9ee</title>
<path fill="none" stroke="black" d="M243,-215.697C243,-207.983 243,-198.712 243,-190.112"/>
<polygon fill="black" stroke="black" points="246.5,-190.104 243,-180.104 239.5,-190.104 246.5,-190.104"/>
<g id="a_edge22&#45;headlabel"><a xlink:href="dir_000065_000054.html" target="_top" xlink:title="5">
<text text-anchor="middle" x="249.339" y="-191.199" font-family="Helvetica,sans-Serif" font-size="10.00">5</text>
</a>
</g>
</g>
<!-- dir_464a0350ede36c55de1de45678306167&#45;&gt;dir_1456dd235032e023892318efbecb420b -->
<g id="edge21" class="edge"><title>dir_464a0350ede36c55de1de45678306167&#45;&gt;dir_1456dd235032e023892318efbecb420b</title>
<path fill="none" stroke="black" d="M270.402,-231.778C332.121,-228.394 478.984,-216.587 509,-180 523.659,-162.133 517.698,-149.412 509,-128 507.245,-123.68 504.716,-119.587 501.801,-115.808"/>
<polygon fill="black" stroke="black" points="504.2,-113.238 494.951,-108.07 498.958,-117.877 504.2,-113.238"/>
<g id="a_edge21&#45;headlabel"><a xlink:href="dir_000065_000032.html" target="_top" xlink:title="1">
<text text-anchor="middle" x="508.708" y="-111.547" font-family="Helvetica,sans-Serif" font-size="10.00">1</text>
</a>
</g>
</g>
<!-- dir_1456dd235032e023892318efbecb420b&#45;&gt;dir_a1f42069ba95676f6b9abbd5065ccf6d -->
<g id="edge1" class="edge"><title>dir_1456dd235032e023892318efbecb420b&#45;&gt;dir_a1f42069ba95676f6b9abbd5065ccf6d</title>
<path fill="none" stroke="black" d="M467.084,-71.6966C466.289,-63.9827 466.062,-54.7125 466.405,-46.1124"/>
<polygon fill="black" stroke="black" points="469.898,-46.3243 467.105,-36.1043 462.915,-45.8356 469.898,-46.3243"/>
<g id="a_edge1&#45;headlabel"><a xlink:href="dir_000032_000052.html" target="_top" xlink:title="1">
<text text-anchor="middle" x="472.48" y="-47.6083" font-family="Helvetica,sans-Serif" font-size="10.00">1</text>
</a>
</g>
</g>
<!-- dir_a1f42069ba95676f6b9abbd5065ccf6d&#45;&gt;dir_d080e052e6032887076b6b5756e5361d -->
<g id="edge13" class="edge"><title>dir_a1f42069ba95676f6b9abbd5065ccf6d&#45;&gt;dir_d080e052e6032887076b6b5756e5361d</title>
<path fill="none" stroke="black" d="M445.638,-21.2746C380.606,-27.0817 218.805,-44.0044 173,-72 119.573,-104.654 81.3267,-170.074 63.0739,-206.671"/>
<polygon fill="black" stroke="black" points="59.8859,-205.224 58.663,-215.748 66.1818,-208.284 59.8859,-205.224"/>
<g id="a_edge13&#45;headlabel"><a xlink:href="dir_000052_000053.html" target="_top" xlink:title="1">
<text text-anchor="middle" x="58.9032" y="-198.25" font-family="Helvetica,sans-Serif" font-size="10.00">1</text>
</a>
</g>
</g>
<!-- dir_a1f42069ba95676f6b9abbd5065ccf6d&#45;&gt;dir_1456dd235032e023892318efbecb420b -->
<g id="edge12" class="edge"><title>dir_a1f42069ba95676f6b9abbd5065ccf6d&#45;&gt;dir_1456dd235032e023892318efbecb420b</title>
<path fill="none" stroke="black" d="M478.895,-36.1043C479.701,-43.7913 479.937,-53.0537 479.604,-61.6651"/>
<polygon fill="black" stroke="black" points="476.109,-61.4805 478.916,-71.6966 483.092,-61.9597 476.109,-61.4805"/>
<g id="a_edge12&#45;headlabel"><a xlink:href="dir_000052_000032.html" target="_top" xlink:title="3">
<text text-anchor="middle" x="473.522" y="-55.2" font-family="Helvetica,sans-Serif" font-size="10.00">3</text>
</a>
</g>
</g>
<!-- dir_a1f42069ba95676f6b9abbd5065ccf6d&#45;&gt;dir_cb2b5dfd43482fb277f6333d539f1f06 -->
<g id="edge14" class="edge"><title>dir_a1f42069ba95676f6b9abbd5065ccf6d&#45;&gt;dir_cb2b5dfd43482fb277f6333d539f1f06</title>
<path fill="none" stroke="black" d="M499.749,-36.234C523.472,-55.9127 555.797,-90.2943 569,-128 576.638,-149.813 580.319,-159.85 569,-180 557.132,-201.128 533.046,-214.822 511.84,-222.987"/>
<polygon fill="black" stroke="black" points="510.606,-219.711 502.354,-226.357 512.949,-226.308 510.606,-219.711"/>
<g id="a_edge14&#45;headlabel"><a xlink:href="dir_000052_000037.html" target="_top" xlink:title="2">
<text text-anchor="middle" x="513.043" y="-213.333" font-family="Helvetica,sans-Serif" font-size="10.00">2</text>
</a>
</g>
</g>
<!-- dir_cb2b5dfd43482fb277f6333d539f1f06&#45;&gt;dir_1456dd235032e023892318efbecb420b -->
<g id="edge15" class="edge"><title>dir_cb2b5dfd43482fb277f6333d539f1f06&#45;&gt;dir_1456dd235032e023892318efbecb420b</title>
<path fill="none" stroke="black" d="M502.512,-218.659C517.272,-209.761 533.72,-196.801 542,-180 552.217,-159.27 553.868,-147.831 542,-128 535.674,-117.43 525.18,-109.707 514.262,-104.139"/>
<polygon fill="black" stroke="black" points="515.624,-100.914 505.072,-99.9548 512.723,-107.285 515.624,-100.914"/>
<g id="a_edge15&#45;headlabel"><a xlink:href="dir_000037_000032.html" target="_top" xlink:title="12">
<text text-anchor="middle" x="520.072" y="-97.3197" font-family="Helvetica,sans-Serif" font-size="10.00">12</text>
</a>
</g>
</g>
<!-- dir_cb2b5dfd43482fb277f6333d539f1f06&#45;&gt;dir_a1f42069ba95676f6b9abbd5065ccf6d -->
<g id="edge16" class="edge"><title>dir_cb2b5dfd43482fb277f6333d539f1f06&#45;&gt;dir_a1f42069ba95676f6b9abbd5065ccf6d</title>
<path fill="none" stroke="black" d="M502.419,-220.306C519.845,-211.942 540.346,-198.966 551,-180 562.319,-159.85 558.638,-149.813 551,-128 539.344,-94.7129 512.786,-64.0166 493.715,-43.7398"/>
<polygon fill="black" stroke="black" points="495.999,-41.063 486.569,-36.234 490.93,-45.8899 495.999,-41.063"/>
<g id="a_edge16&#45;headlabel"><a xlink:href="dir_000037_000052.html" target="_top" xlink:title="14">
<text text-anchor="middle" x="500.534" y="-39.2085" font-family="Helvetica,sans-Serif" font-size="10.00">14</text>
</a>
</g>
</g>
<!-- dir_cb2b5dfd43482fb277f6333d539f1f06&#45;&gt;dir_1efe152df2f2e9cd3517b1174a4598d7 -->
<g id="edge17" class="edge"><title>dir_cb2b5dfd43482fb277f6333d539f1f06&#45;&gt;dir_1efe152df2f2e9cd3517b1174a4598d7</title>
<path fill="none" stroke="black" d="M461.209,-215.893C454.122,-205.549 444.963,-192.071 437,-180 423.062,-158.871 407.593,-134.669 396.291,-116.842"/>
<polygon fill="black" stroke="black" points="399.096,-114.729 390.791,-108.15 393.181,-118.472 399.096,-114.729"/>
<g id="a_edge17&#45;headlabel"><a xlink:href="dir_000037_000051.html" target="_top" xlink:title="2">
<text text-anchor="middle" x="403.418" y="-113.748" font-family="Helvetica,sans-Serif" font-size="10.00">2</text>
</a>
</g>
</g>
<!-- dir_cb2b5dfd43482fb277f6333d539f1f06&#45;&gt;dir_f5906172d2c9558d453eb81ef8e5bf93 -->
<g id="edge18" class="edge"><title>dir_cb2b5dfd43482fb277f6333d539f1f06&#45;&gt;dir_f5906172d2c9558d453eb81ef8e5bf93</title>
<path fill="none" stroke="black" d="M445.257,-215.871C403.589,-190.146 324.844,-141.53 278.866,-113.143"/>
<polygon fill="black" stroke="black" points="280.475,-110.024 270.128,-107.748 276.798,-115.98 280.475,-110.024"/>
<g id="a_edge18&#45;headlabel"><a xlink:href="dir_000037_000050.html" target="_top" xlink:title="5">
<text text-anchor="middle" x="285.025" y="-106.996" font-family="Helvetica,sans-Serif" font-size="10.00">5</text>
</a>
</g>
</g>
<!-- dir_cb2b5dfd43482fb277f6333d539f1f06&#45;&gt;dir_ff87cf903db18af0fdb6c342683ece25 -->
<g id="edge19" class="edge"><title>dir_cb2b5dfd43482fb277f6333d539f1f06&#45;&gt;dir_ff87cf903db18af0fdb6c342683ece25</title>
<path fill="none" stroke="black" d="M473,-215.697C473,-207.983 473,-198.712 473,-190.112"/>
<polygon fill="black" stroke="black" points="476.5,-190.104 473,-180.104 469.5,-190.104 476.5,-190.104"/>
<g id="a_edge19&#45;headlabel"><a xlink:href="dir_000037_000070.html" target="_top" xlink:title="1">
<text text-anchor="middle" x="479.339" y="-191.199" font-family="Helvetica,sans-Serif" font-size="10.00">1</text>
</a>
</g>
</g>
<!-- dir_1efe152df2f2e9cd3517b1174a4598d7&#45;&gt;dir_dbb2a23c19e39eeed5090a333e1fc81c -->
<g id="edge20" class="edge"><title>dir_1efe152df2f2e9cd3517b1174a4598d7&#45;&gt;dir_dbb2a23c19e39eeed5090a333e1fc81c</title>
<path fill="none" stroke="black" d="M352.885,-77.2836C325.901,-65.6238 284.315,-47.6548 254.454,-34.7516"/>
<polygon fill="black" stroke="black" points="255.772,-31.5083 245.204,-30.7547 252.995,-37.9341 255.772,-31.5083"/>
<g id="a_edge20&#45;headlabel"><a xlink:href="dir_000051_000066.html" target="_top" xlink:title="1">
<text text-anchor="middle" x="260.198" y="-27.8277" font-family="Helvetica,sans-Serif" font-size="10.00">1</text>
</a>
</g>
</g>
<!-- dir_ff87cf903db18af0fdb6c342683ece25&#45;&gt;dir_1456dd235032e023892318efbecb420b -->
<g id="edge23" class="edge"><title>dir_ff87cf903db18af0fdb6c342683ece25&#45;&gt;dir_1456dd235032e023892318efbecb420b</title>
<path fill="none" stroke="black" d="M473,-143.697C473,-135.983 473,-126.712 473,-118.112"/>
<polygon fill="black" stroke="black" points="476.5,-118.104 473,-108.104 469.5,-118.104 476.5,-118.104"/>
<g id="a_edge23&#45;headlabel"><a xlink:href="dir_000070_000032.html" target="_top" xlink:title="3">
<text text-anchor="middle" x="479.339" y="-119.199" font-family="Helvetica,sans-Serif" font-size="10.00">3</text>
</a>
</g>
</g>
<!-- dir_ff87cf903db18af0fdb6c342683ece25&#45;&gt;dir_1efe152df2f2e9cd3517b1174a4598d7 -->
<g id="edge24" class="edge"><title>dir_ff87cf903db18af0fdb6c342683ece25&#45;&gt;dir_1efe152df2f2e9cd3517b1174a4598d7</title>
<path fill="none" stroke="black" d="M452.331,-143.97C445.882,-138.764 438.702,-133.074 432,-128 425.927,-123.402 419.366,-118.605 413.016,-114.047"/>
<polygon fill="black" stroke="black" points="414.731,-110.972 404.555,-108.023 410.67,-116.674 414.731,-110.972"/>
<g id="a_edge24&#45;headlabel"><a xlink:href="dir_000070_000051.html" target="_top" xlink:title="1">
<text text-anchor="middle" x="419.306" y="-108.244" font-family="Helvetica,sans-Serif" font-size="10.00">1</text>
</a>
</g>
</g>
</g>
</svg>
