<?xml version="1.0" encoding="UTF-8" standalone="no"?>
<!DOCTYPE svg PUBLIC "-//W3C//DTD SVG 1.1//EN"
 "http://www.w3.org/Graphics/SVG/1.1/DTD/svg11.dtd">
<!-- Generated by graphviz version 2.36.0 (20140111.2315)
 -->
<!-- Title: /home/travis/build/STORM&#45;IRIT/Radium&#45;Engine/src/IO Pages: 1 -->
<svg width="304pt" height="159pt"
 viewBox="0.00 0.00 304.00 159.00" xmlns="http://www.w3.org/2000/svg" xmlns:xlink="http://www.w3.org/1999/xlink">
<g id="graph0" class="graph" transform="scale(1 1) rotate(0) translate(4 155)">
<title>/home/travis/build/STORM&#45;IRIT/Radium&#45;Engine/src/IO</title>
<polygon fill="white" stroke="none" points="-4,4 -4,-155 300,-155 300,4 -4,4"/>
<g id="clust1" class="cluster"><title>clusterdir_68267d1309a1af8e8297ef4c3efbcdba</title>
<g id="a_clust1"><a xlink:href="dir_68267d1309a1af8e8297ef4c3efbcdba.html" target="_top" xlink:title="src">
<polygon fill="#ddddee" stroke="black" points="8,-56 8,-143 288,-143 288,-56 8,-56"/>
<text text-anchor="middle" x="148" y="-131" font-family="Helvetica,sans-Serif" font-size="10.00">src</text>
</a>
</g>
</g>
<g id="clust2" class="cluster"><title>clusterdir_fae119eb913a40fe8ed97cde8b98911e</title>
<g id="a_clust2"><a xlink:href="dir_fae119eb913a40fe8ed97cde8b98911e.html" target="_top">
<polygon fill="#eeeeff" stroke="black" points="16,-64 16,-116 280,-116 280,-64 16,-64"/>
</a>
</g>
</g>
<!-- dir_fae119eb913a40fe8ed97cde8b98911e -->
<g id="node1" class="node"><title>dir_fae119eb913a40fe8ed97cde8b98911e</title>
<text text-anchor="middle" x="245" y="-87.5" font-family="Helvetica,sans-Serif" font-size="10.00">IO</text>
</g>
<!-- dir_7788c5f37a81918c772c9185f759a19f -->
<g id="node2" class="node"><title>dir_7788c5f37a81918c772c9185f759a19f</title>
<g id="a_node2"><a xlink:href="dir_7788c5f37a81918c772c9185f759a19f.html" target="_top" xlink:title="AssimpLoader">
<polygon fill="white" stroke="black" points="199.25,-108 120.75,-108 120.75,-72 199.25,-72 199.25,-108"/>
<text text-anchor="middle" x="160" y="-87.5" font-family="Helvetica,sans-Serif" font-size="10.00">AssimpLoader</text>
</a>
</g>
</g>
<!-- dir_a2f0e5642e47e7ed59fe0f0829eafb5f -->
<g id="node4" class="node"><title>dir_a2f0e5642e47e7ed59fe0f0829eafb5f</title>
<g id="a_node4"><a xlink:href="dir_a2f0e5642e47e7ed59fe0f0829eafb5f.html" target="_top" xlink:title="Core">
<polygon fill="white" stroke="red" points="138,-36 84,-36 84,-0 138,-0 138,-36"/>
<text text-anchor="middle" x="111" y="-15.5" font-family="Helvetica,sans-Serif" font-size="10.00">Core</text>
</a>
</g>
</g>
<!-- dir_7788c5f37a81918c772c9185f759a19f&#45;&gt;dir_a2f0e5642e47e7ed59fe0f0829eafb5f -->
<g id="edge1" class="edge"><title>dir_7788c5f37a81918c772c9185f759a19f&#45;&gt;dir_a2f0e5642e47e7ed59fe0f0829eafb5f</title>
<path fill="none" stroke="black" d="M147.888,-71.6966C142.132,-63.4741 135.138,-53.4832 128.794,-44.4207"/>
<polygon fill="black" stroke="black" points="131.575,-42.2895 122.973,-36.1043 125.84,-46.3038 131.575,-42.2895"/>
<g id="a_edge1&#45;headlabel"><a xlink:href="dir_000103_000019.html" target="_top" xlink:title="24">
<text text-anchor="middle" x="135.962" y="-41.1061" font-family="Helvetica,sans-Serif" font-size="10.00">24</text>
</a>
</g>
</g>
<!-- dir_21c87f206f6872de3cc60b97917f3fdd -->
<g id="node3" class="node"><title>dir_21c87f206f6872de3cc60b97917f3fdd</title>
<g id="a_node3"><a xlink:href="dir_21c87f206f6872de3cc60b97917f3fdd.html" target="_top" xlink:title="TinyPlyLoader">
<polygon fill="white" stroke="black" points="102.25,-108 23.75,-108 23.75,-72 102.25,-72 102.25,-108"/>
<text text-anchor="middle" x="63" y="-87.5" font-family="Helvetica,sans-Serif" font-size="10.00">TinyPlyLoader</text>
</a>
</g>
</g>
<!-- dir_21c87f206f6872de3cc60b97917f3fdd&#45;&gt;dir_a2f0e5642e47e7ed59fe0f0829eafb5f -->
<g id="edge2" class="edge"><title>dir_21c87f206f6872de3cc60b97917f3fdd&#45;&gt;dir_a2f0e5642e47e7ed59fe0f0829eafb5f</title>
<path fill="none" stroke="black" d="M74.8652,-71.6966C80.5035,-63.4741 87.3543,-53.4832 93.5687,-44.4207"/>
<polygon fill="black" stroke="black" points="96.5025,-46.331 99.2713,-36.1043 90.7294,-42.3723 96.5025,-46.331"/>
<g id="a_edge2&#45;headlabel"><a xlink:href="dir_000104_000019.html" target="_top" xlink:title="2">
<text text-anchor="middle" x="96.8114" y="-48.4012" font-family="Helvetica,sans-Serif" font-size="10.00">2</text>
</a>
</g>
</g>
</g>
</svg>
