<?xml version="1.0" encoding="UTF-8" standalone="no"?>
<!DOCTYPE svg PUBLIC "-//W3C//DTD SVG 1.1//EN"
 "http://www.w3.org/Graphics/SVG/1.1/DTD/svg11.dtd">
<!-- Generated by graphviz version 2.36.0 (20140111.2315)
 -->
<!-- Title: /home/travis/build/STORM&#45;IRIT/Radium&#45;Engine/Plugins Pages: 1 -->
<svg width="613pt" height="132pt"
 viewBox="0.00 0.00 613.00 132.00" xmlns="http://www.w3.org/2000/svg" xmlns:xlink="http://www.w3.org/1999/xlink">
<g id="graph0" class="graph" transform="scale(1 1) rotate(0) translate(4 128)">
<title>/home/travis/build/STORM&#45;IRIT/Radium&#45;Engine/Plugins</title>
<polygon fill="white" stroke="none" points="-4,4 -4,-128 609,-128 609,4 -4,4"/>
<g id="clust1" class="cluster"><title>clusterdir_0b4eaef40a1fe20bedafe9e8e719ce66</title>
<g id="a_clust1"><a xlink:href="dir_0b4eaef40a1fe20bedafe9e8e719ce66.html" target="_top">
<polygon fill="#eeeeff" stroke="black" points="8,-64 8,-116 597,-116 597,-64 8,-64"/>
</a>
</g>
</g>
<!-- dir_0b4eaef40a1fe20bedafe9e8e719ce66 -->
<g id="node1" class="node"><title>dir_0b4eaef40a1fe20bedafe9e8e719ce66</title>
<text text-anchor="middle" x="562" y="-87.5" font-family="Helvetica,sans-Serif" font-size="10.00">Plugins</text>
</g>
<!-- dir_6f0e341094b93fe10adaef3ab2c0441b -->
<g id="node2" class="node"><title>dir_6f0e341094b93fe10adaef3ab2c0441b</title>
<g id="a_node2"><a xlink:href="dir_6f0e341094b93fe10adaef3ab2c0441b.html" target="_top" xlink:title="Animation">
<polygon fill="white" stroke="red" points="516.5,-108 457.5,-108 457.5,-72 516.5,-72 516.5,-108"/>
<text text-anchor="middle" x="487" y="-87.5" font-family="Helvetica,sans-Serif" font-size="10.00">Animation</text>
</a>
</g>
</g>
<!-- dir_68267d1309a1af8e8297ef4c3efbcdba -->
<g id="node8" class="node"><title>dir_68267d1309a1af8e8297ef4c3efbcdba</title>
<g id="a_node8"><a xlink:href="dir_68267d1309a1af8e8297ef4c3efbcdba.html" target="_top" xlink:title="src">
<polygon fill="white" stroke="red" points="306,-36 252,-36 252,-0 306,-0 306,-36"/>
<text text-anchor="middle" x="279" y="-15.5" font-family="Helvetica,sans-Serif" font-size="10.00">src</text>
</a>
</g>
</g>
<!-- dir_6f0e341094b93fe10adaef3ab2c0441b&#45;&gt;dir_68267d1309a1af8e8297ef4c3efbcdba -->
<g id="edge6" class="edge"><title>dir_6f0e341094b93fe10adaef3ab2c0441b&#45;&gt;dir_68267d1309a1af8e8297ef4c3efbcdba</title>
<path fill="none" stroke="black" d="M462.89,-71.9233C458.102,-69.0035 453.004,-66.2057 448,-64 404.692,-44.912 351.468,-32.3854 316.459,-25.5067"/>
<polygon fill="black" stroke="black" points="316.689,-21.9875 306.21,-23.5522 315.378,-28.8636 316.689,-21.9875"/>
<g id="a_edge6&#45;headlabel"><a xlink:href="dir_000001_000018.html" target="_top" xlink:title="41">
<text text-anchor="middle" x="320.752" y="-17.3718" font-family="Helvetica,sans-Serif" font-size="10.00">41</text>
</a>
</g>
</g>
<!-- dir_32a1c999cb5aa5fd6f9e249225c96ab7 -->
<g id="node3" class="node"><title>dir_32a1c999cb5aa5fd6f9e249225c96ab7</title>
<g id="a_node3"><a xlink:href="dir_32a1c999cb5aa5fd6f9e249225c96ab7.html" target="_top" xlink:title="Dummy">
<polygon fill="white" stroke="red" points="439,-108 385,-108 385,-72 439,-72 439,-108"/>
<text text-anchor="middle" x="412" y="-87.5" font-family="Helvetica,sans-Serif" font-size="10.00">Dummy</text>
</a>
</g>
</g>
<!-- dir_32a1c999cb5aa5fd6f9e249225c96ab7&#45;&gt;dir_68267d1309a1af8e8297ef4c3efbcdba -->
<g id="edge1" class="edge"><title>dir_32a1c999cb5aa5fd6f9e249225c96ab7&#45;&gt;dir_68267d1309a1af8e8297ef4c3efbcdba</title>
<path fill="none" stroke="black" d="M388.754,-71.9944C384.587,-69.1964 380.225,-66.4226 376,-64 356.664,-52.9114 334.127,-42.3252 315.646,-34.2094"/>
<polygon fill="black" stroke="black" points="316.958,-30.9631 306.39,-30.2009 314.176,-37.3867 316.958,-30.9631"/>
<g id="a_edge1&#45;headlabel"><a xlink:href="dir_000005_000018.html" target="_top" xlink:title="23">
<text text-anchor="middle" x="321.384" y="-27.2861" font-family="Helvetica,sans-Serif" font-size="10.00">23</text>
</a>
</g>
</g>
<!-- dir_476a9cdba54034296d8f7dd49b9fd70b -->
<g id="node4" class="node"><title>dir_476a9cdba54034296d8f7dd49b9fd70b</title>
<g id="a_node4"><a xlink:href="dir_476a9cdba54034296d8f7dd49b9fd70b.html" target="_top" xlink:title="FancyMesh">
<polygon fill="white" stroke="red" points="367,-108 299,-108 299,-72 367,-72 367,-108"/>
<text text-anchor="middle" x="333" y="-87.5" font-family="Helvetica,sans-Serif" font-size="10.00">FancyMesh</text>
</a>
</g>
</g>
<!-- dir_476a9cdba54034296d8f7dd49b9fd70b&#45;&gt;dir_68267d1309a1af8e8297ef4c3efbcdba -->
<g id="edge3" class="edge"><title>dir_476a9cdba54034296d8f7dd49b9fd70b&#45;&gt;dir_68267d1309a1af8e8297ef4c3efbcdba</title>
<path fill="none" stroke="black" d="M319.652,-71.6966C313.243,-63.3893 305.442,-53.2771 298.394,-44.1407"/>
<polygon fill="black" stroke="black" points="301.074,-41.8844 292.195,-36.1043 295.532,-46.16 301.074,-41.8844"/>
<g id="a_edge3&#45;headlabel"><a xlink:href="dir_000007_000018.html" target="_top" xlink:title="38">
<text text-anchor="middle" x="305.518" y="-40.4963" font-family="Helvetica,sans-Serif" font-size="10.00">38</text>
</a>
</g>
</g>
<!-- dir_25434094def706cc6b831b685850d58f -->
<g id="node5" class="node"><title>dir_25434094def706cc6b831b685850d58f</title>
<g id="a_node5"><a xlink:href="dir_25434094def706cc6b831b685850d58f.html" target="_top" xlink:title="MeshFeatureTracking">
<polygon fill="white" stroke="red" points="280.25,-108 169.75,-108 169.75,-72 280.25,-72 280.25,-108"/>
<text text-anchor="middle" x="225" y="-87.5" font-family="Helvetica,sans-Serif" font-size="10.00">MeshFeatureTracking</text>
</a>
</g>
</g>
<!-- dir_25434094def706cc6b831b685850d58f&#45;&gt;dir_68267d1309a1af8e8297ef4c3efbcdba -->
<g id="edge2" class="edge"><title>dir_25434094def706cc6b831b685850d58f&#45;&gt;dir_68267d1309a1af8e8297ef4c3efbcdba</title>
<path fill="none" stroke="black" d="M238.348,-71.6966C244.757,-63.3893 252.558,-53.2771 259.606,-44.1407"/>
<polygon fill="black" stroke="black" points="262.468,-46.16 265.805,-36.1043 256.926,-41.8844 262.468,-46.16"/>
<g id="a_edge2&#45;headlabel"><a xlink:href="dir_000009_000018.html" target="_top" xlink:title="23">
<text text-anchor="middle" x="262.521" y="-48.2404" font-family="Helvetica,sans-Serif" font-size="10.00">23</text>
</a>
</g>
</g>
<!-- dir_04165233e2d5a8af2366a0704d033b7c -->
<g id="node6" class="node"><title>dir_04165233e2d5a8af2366a0704d033b7c</title>
<g id="a_node6"><a xlink:href="dir_04165233e2d5a8af2366a0704d033b7c.html" target="_top" xlink:title="MeshPaint">
<polygon fill="white" stroke="red" points="151.25,-108 88.75,-108 88.75,-72 151.25,-72 151.25,-108"/>
<text text-anchor="middle" x="120" y="-87.5" font-family="Helvetica,sans-Serif" font-size="10.00">MeshPaint</text>
</a>
</g>
</g>
<!-- dir_04165233e2d5a8af2366a0704d033b7c&#45;&gt;dir_68267d1309a1af8e8297ef4c3efbcdba -->
<g id="edge4" class="edge"><title>dir_04165233e2d5a8af2366a0704d033b7c&#45;&gt;dir_68267d1309a1af8e8297ef4c3efbcdba</title>
<path fill="none" stroke="black" d="M146.51,-71.8708C151.252,-69.0865 156.209,-66.3494 161,-64 187.354,-51.0758 218.414,-39.3626 242.052,-31.1282"/>
<polygon fill="black" stroke="black" points="243.37,-34.3761 251.692,-27.8188 241.098,-27.7554 243.37,-34.3761"/>
<g id="a_edge4&#45;headlabel"><a xlink:href="dir_000012_000018.html" target="_top" xlink:title="42">
<text text-anchor="middle" x="240.892" y="-35.7286" font-family="Helvetica,sans-Serif" font-size="10.00">42</text>
</a>
</g>
</g>
<!-- dir_b5b12f002c9f7c7d8f4062b70579c29b -->
<g id="node7" class="node"><title>dir_b5b12f002c9f7c7d8f4062b70579c29b</title>
<g id="a_node7"><a xlink:href="dir_b5b12f002c9f7c7d8f4062b70579c29b.html" target="_top" xlink:title="Skinning">
<polygon fill="white" stroke="red" points="70,-108 16,-108 16,-72 70,-72 70,-108"/>
<text text-anchor="middle" x="43" y="-87.5" font-family="Helvetica,sans-Serif" font-size="10.00">Skinning</text>
</a>
</g>
</g>
<!-- dir_b5b12f002c9f7c7d8f4062b70579c29b&#45;&gt;dir_68267d1309a1af8e8297ef4c3efbcdba -->
<g id="edge5" class="edge"><title>dir_b5b12f002c9f7c7d8f4062b70579c29b&#45;&gt;dir_68267d1309a1af8e8297ef4c3efbcdba</title>
<path fill="none" stroke="black" d="M65.3259,-71.9977C69.9961,-69.0002 75.0194,-66.1547 80,-64 133.681,-40.7768 200.906,-28.7901 241.868,-23.2065"/>
<polygon fill="black" stroke="black" points="242.48,-26.6564 251.942,-21.8907 241.573,-19.7154 242.48,-26.6564"/>
<g id="a_edge5&#45;headlabel"><a xlink:href="dir_000015_000018.html" target="_top" xlink:title="37">
<text text-anchor="middle" x="239.283" y="-27.4373" font-family="Helvetica,sans-Serif" font-size="10.00">37</text>
</a>
</g>
</g>
</g>
</svg>
