<?xml version="1.0" encoding="UTF-8" standalone="no"?>
<!DOCTYPE svg PUBLIC "-//W3C//DTD SVG 1.1//EN"
 "http://www.w3.org/Graphics/SVG/1.1/DTD/svg11.dtd">
<!-- Generated by graphviz version 2.36.0 (20140111.2315)
 -->
<!-- Title: /home/travis/build/STORM&#45;IRIT/Radium&#45;Engine/src/Engine/Renderer Pages: 1 -->
<svg width="761pt" height="471pt"
 viewBox="0.00 0.00 760.51 471.00" xmlns="http://www.w3.org/2000/svg" xmlns:xlink="http://www.w3.org/1999/xlink">
<g id="graph0" class="graph" transform="scale(1 1) rotate(0) translate(4 467)">
<title>/home/travis/build/STORM&#45;IRIT/Radium&#45;Engine/src/Engine/Renderer</title>
<polygon fill="white" stroke="none" points="-4,4 -4,-467 756.508,-467 756.508,4 -4,4"/>
<g id="clust1" class="cluster"><title>clusterdir_3072bc1f55ed1280fe4fbe6b21c78379</title>
<g id="a_clust1"><a xlink:href="dir_3072bc1f55ed1280fe4fbe6b21c78379.html" target="_top" xlink:title="Engine">
<polygon fill="#ddddee" stroke="black" points="8,-8 8,-455 290,-455 290,-8 8,-8"/>
<text text-anchor="middle" x="149" y="-443" font-family="Helvetica,sans-Serif" font-size="10.00">Engine</text>
</a>
</g>
</g>
<g id="clust2" class="cluster"><title>clusterdir_54018506bb725509c19b38b6d9bcf0f6</title>
<g id="a_clust2"><a xlink:href="dir_54018506bb725509c19b38b6d9bcf0f6.html" target="_top">
<polygon fill="#eeeeff" stroke="black" points="16,-16 16,-428 282,-428 282,-16 16,-16"/>
</a>
</g>
</g>
<!-- dir_54018506bb725509c19b38b6d9bcf0f6 -->
<g id="node1" class="node"><title>dir_54018506bb725509c19b38b6d9bcf0f6</title>
<text text-anchor="middle" x="174" y="-399.5" font-family="Helvetica,sans-Serif" font-size="10.00">Renderer</text>
</g>
<!-- dir_652267079d823ee01f6c6cf98db9085b -->
<g id="node8" class="node"><title>dir_652267079d823ee01f6c6cf98db9085b</title>
<g id="a_node8"><a xlink:href="dir_652267079d823ee01f6c6cf98db9085b.html" target="_top" xlink:title="RenderObject">
<polygon fill="white" stroke="red" points="273.25,-348 196.75,-348 196.75,-312 273.25,-312 273.25,-348"/>
<text text-anchor="middle" x="235" y="-327.5" font-family="Helvetica,sans-Serif" font-size="10.00">RenderObject</text>
</a>
</g>
</g>
<!-- dir_54018506bb725509c19b38b6d9bcf0f6&#45;&gt;dir_652267079d823ee01f6c6cf98db9085b -->
<g id="edge42" class="edge"><title>dir_54018506bb725509c19b38b6d9bcf0f6&#45;&gt;dir_652267079d823ee01f6c6cf98db9085b</title>
<path fill="none" stroke="black" d="M189.079,-383.697C196.392,-375.305 205.31,-365.07 213.335,-355.861"/>
<polygon fill="black" stroke="black" points="216.164,-357.943 220.095,-348.104 210.886,-353.344 216.164,-357.943"/>
<g id="a_edge42&#45;headlabel"><a xlink:href="dir_000082_000089.html" target="_top" xlink:title="4">
<text text-anchor="middle" x="215.943" y="-360.018" font-family="Helvetica,sans-Serif" font-size="10.00">4</text>
</a>
</g>
</g>
<!-- dir_35f904a890c1431d13964486334c23a9 -->
<g id="node2" class="node"><title>dir_35f904a890c1431d13964486334c23a9</title>
<g id="a_node2"><a xlink:href="dir_35f904a890c1431d13964486334c23a9.html" target="_top" xlink:title="Camera">
<polygon fill="white" stroke="black" points="274,-420 220,-420 220,-384 274,-384 274,-420"/>
<text text-anchor="middle" x="247" y="-399.5" font-family="Helvetica,sans-Serif" font-size="10.00">Camera</text>
</a>
</g>
</g>
<!-- dir_a2f0e5642e47e7ed59fe0f0829eafb5f -->
<g id="node11" class="node"><title>dir_a2f0e5642e47e7ed59fe0f0829eafb5f</title>
<g id="a_node11"><a xlink:href="dir_a2f0e5642e47e7ed59fe0f0829eafb5f.html" target="_top" xlink:title="Core">
<polygon fill="white" stroke="red" points="457,-348 403,-348 403,-312 457,-312 457,-348"/>
<text text-anchor="middle" x="430" y="-327.5" font-family="Helvetica,sans-Serif" font-size="10.00">Core</text>
</a>
</g>
</g>
<!-- dir_35f904a890c1431d13964486334c23a9&#45;&gt;dir_a2f0e5642e47e7ed59fe0f0829eafb5f -->
<g id="edge30" class="edge"><title>dir_35f904a890c1431d13964486334c23a9&#45;&gt;dir_a2f0e5642e47e7ed59fe0f0829eafb5f</title>
<path fill="none" stroke="black" d="M274.002,-390.671C305.628,-378.574 358.17,-358.476 393.431,-344.988"/>
<polygon fill="black" stroke="black" points="394.797,-348.213 402.887,-341.371 392.296,-341.675 394.797,-348.213"/>
<g id="a_edge30&#45;headlabel"><a xlink:href="dir_000083_000019.html" target="_top" xlink:title="3">
<text text-anchor="middle" x="392.454" y="-349.649" font-family="Helvetica,sans-Serif" font-size="10.00">3</text>
</a>
</g>
</g>
<!-- dir_b3c92c43cc8feb1052f624d79df8b6af -->
<g id="node3" class="node"><title>dir_b3c92c43cc8feb1052f624d79df8b6af</title>
<g id="a_node3"><a xlink:href="dir_b3c92c43cc8feb1052f624d79df8b6af.html" target="_top" xlink:title="Light">
<polygon fill="white" stroke="black" points="178,-348 124,-348 124,-312 178,-312 178,-348"/>
<text text-anchor="middle" x="151" y="-327.5" font-family="Helvetica,sans-Serif" font-size="10.00">Light</text>
</a>
</g>
</g>
<!-- dir_6bc97c5ccce2964f7b25f8377ac95818 -->
<g id="node9" class="node"><title>dir_6bc97c5ccce2964f7b25f8377ac95818</title>
<g id="a_node9"><a xlink:href="dir_6bc97c5ccce2964f7b25f8377ac95818.html" target="_top" xlink:title="RenderTechnique">
<polygon fill="white" stroke="black" points="203.25,-204 110.75,-204 110.75,-168 203.25,-168 203.25,-204"/>
<text text-anchor="middle" x="157" y="-183.5" font-family="Helvetica,sans-Serif" font-size="10.00">RenderTechnique</text>
</a>
</g>
</g>
<!-- dir_b3c92c43cc8feb1052f624d79df8b6af&#45;&gt;dir_6bc97c5ccce2964f7b25f8377ac95818 -->
<g id="edge2" class="edge"><title>dir_b3c92c43cc8feb1052f624d79df8b6af&#45;&gt;dir_6bc97c5ccce2964f7b25f8377ac95818</title>
<path fill="none" stroke="black" d="M151.724,-311.871C152.746,-287.67 154.625,-243.211 155.843,-214.393"/>
<polygon fill="black" stroke="black" points="159.348,-214.328 156.274,-204.189 152.355,-214.033 159.348,-214.328"/>
<g id="a_edge2&#45;headlabel"><a xlink:href="dir_000084_000091.html" target="_top" xlink:title="4">
<text text-anchor="middle" x="162.033" y="-215.539" font-family="Helvetica,sans-Serif" font-size="10.00">4</text>
</a>
</g>
</g>
<!-- dir_b3c92c43cc8feb1052f624d79df8b6af&#45;&gt;dir_a2f0e5642e47e7ed59fe0f0829eafb5f -->
<g id="edge1" class="edge"><title>dir_b3c92c43cc8feb1052f624d79df8b6af&#45;&gt;dir_a2f0e5642e47e7ed59fe0f0829eafb5f</title>
<path fill="none" stroke="black" d="M168.081,-348.217C175.846,-355.198 185.615,-362.357 196,-366 263.17,-389.562 346.548,-364.77 393.465,-346.263"/>
<polygon fill="black" stroke="black" points="394.957,-349.435 402.904,-342.429 392.322,-342.95 394.957,-349.435"/>
<g id="a_edge1&#45;headlabel"><a xlink:href="dir_000084_000019.html" target="_top" xlink:title="2">
<text text-anchor="middle" x="392.695" y="-350.918" font-family="Helvetica,sans-Serif" font-size="10.00">2</text>
</a>
</g>
</g>
<!-- dir_06113b60808b1bbb52a01dfd2c3a8657 -->
<g id="node13" class="node"><title>dir_06113b60808b1bbb52a01dfd2c3a8657</title>
<g id="a_node13"><a xlink:href="dir_06113b60808b1bbb52a01dfd2c3a8657.html" target="_top" xlink:title="Managers">
<polygon fill="white" stroke="red" points="478.25,-132 419.75,-132 419.75,-96 478.25,-96 478.25,-132"/>
<text text-anchor="middle" x="449" y="-111.5" font-family="Helvetica,sans-Serif" font-size="10.00">Managers</text>
</a>
</g>
</g>
<!-- dir_b3c92c43cc8feb1052f624d79df8b6af&#45;&gt;dir_06113b60808b1bbb52a01dfd2c3a8657 -->
<g id="edge3" class="edge"><title>dir_b3c92c43cc8feb1052f624d79df8b6af&#45;&gt;dir_06113b60808b1bbb52a01dfd2c3a8657</title>
<path fill="none" stroke="black" d="M178.378,-315.688C181.27,-314.397 184.182,-313.144 187,-312 232.708,-293.439 251.147,-303.656 292,-276 318.227,-258.245 362.39,-190.179 385,-168 395.423,-157.776 407.607,-147.353 418.531,-138.486"/>
<polygon fill="black" stroke="black" points="420.968,-141.018 426.588,-132.037 416.594,-135.553 420.968,-141.018"/>
<g id="a_edge3&#45;headlabel"><a xlink:href="dir_000084_000076.html" target="_top" xlink:title="1">
<text text-anchor="middle" x="419.935" y="-142.981" font-family="Helvetica,sans-Serif" font-size="10.00">1</text>
</a>
</g>
</g>
<!-- dir_d0f3276f03e9a9cb8f8ba3f2a5ea1262 -->
<g id="node14" class="node"><title>dir_d0f3276f03e9a9cb8f8ba3f2a5ea1262</title>
<g id="a_node14"><a xlink:href="dir_d0f3276f03e9a9cb8f8ba3f2a5ea1262.html" target="_top" xlink:title="Component">
<polygon fill="none" stroke="black" points="554.25,-204 487.75,-204 487.75,-168 554.25,-168 554.25,-204"/>
<text text-anchor="middle" x="521" y="-183.5" font-family="Helvetica,sans-Serif" font-size="10.00">Component</text>
</a>
</g>
</g>
<!-- dir_b3c92c43cc8feb1052f624d79df8b6af&#45;&gt;dir_d0f3276f03e9a9cb8f8ba3f2a5ea1262 -->
<g id="edge4" class="edge"><title>dir_b3c92c43cc8feb1052f624d79df8b6af&#45;&gt;dir_d0f3276f03e9a9cb8f8ba3f2a5ea1262</title>
<path fill="none" stroke="black" d="M178.285,-315.444C181.194,-314.2 184.137,-313.025 187,-312 248.701,-289.903 268.242,-297.939 330,-276 383.389,-257.034 442.086,-228.442 480.128,-208.813"/>
<polygon fill="black" stroke="black" points="482.079,-211.743 489.338,-204.027 478.851,-205.532 482.079,-211.743"/>
<g id="a_edge4&#45;headlabel"><a xlink:href="dir_000084_000073.html" target="_top" xlink:title="1">
<text text-anchor="middle" x="480.198" y="-213.42" font-family="Helvetica,sans-Serif" font-size="10.00">1</text>
</a>
</g>
</g>
<!-- dir_909774b1a000bf73b2cf501716b773f3 -->
<g id="node4" class="node"><title>dir_909774b1a000bf73b2cf501716b773f3</title>
<g id="a_node4"><a xlink:href="dir_909774b1a000bf73b2cf501716b773f3.html" target="_top" xlink:title="Material">
<polygon fill="white" stroke="black" points="138,-276 84,-276 84,-240 138,-240 138,-276"/>
<text text-anchor="middle" x="111" y="-255.5" font-family="Helvetica,sans-Serif" font-size="10.00">Material</text>
</a>
</g>
</g>
<!-- dir_909774b1a000bf73b2cf501716b773f3&#45;&gt;dir_6bc97c5ccce2964f7b25f8377ac95818 -->
<g id="edge51" class="edge"><title>dir_909774b1a000bf73b2cf501716b773f3&#45;&gt;dir_6bc97c5ccce2964f7b25f8377ac95818</title>
<path fill="none" stroke="black" d="M116.455,-239.697C121.01,-231.474 127.374,-221.483 133.775,-212.421"/>
<polygon fill="black" stroke="black" points="136.781,-214.24 139.865,-204.104 131.133,-210.104 136.781,-214.24"/>
<g id="a_edge51&#45;headlabel"><a xlink:href="dir_000085_000091.html" target="_top" xlink:title="3">
<text text-anchor="middle" x="136.948" y="-216.318" font-family="Helvetica,sans-Serif" font-size="10.00">3</text>
</a>
</g>
</g>
<!-- dir_8efb2e226a329d96dc3bcfc9eaf1a998 -->
<g id="node10" class="node"><title>dir_8efb2e226a329d96dc3bcfc9eaf1a998</title>
<g id="a_node10"><a xlink:href="dir_8efb2e226a329d96dc3bcfc9eaf1a998.html" target="_top" xlink:title="Texture">
<polygon fill="white" stroke="black" points="161,-132 107,-132 107,-96 161,-96 161,-132"/>
<text text-anchor="middle" x="134" y="-111.5" font-family="Helvetica,sans-Serif" font-size="10.00">Texture</text>
</a>
</g>
</g>
<!-- dir_909774b1a000bf73b2cf501716b773f3&#45;&gt;dir_8efb2e226a329d96dc3bcfc9eaf1a998 -->
<g id="edge49" class="edge"><title>dir_909774b1a000bf73b2cf501716b773f3&#45;&gt;dir_8efb2e226a329d96dc3bcfc9eaf1a998</title>
<path fill="none" stroke="black" d="M105.242,-239.945C99.9927,-221.786 94.0337,-192.368 101,-168 103.713,-158.51 108.672,-149.065 113.935,-140.834"/>
<polygon fill="black" stroke="black" points="116.922,-142.666 119.673,-132.434 111.142,-138.717 116.922,-142.666"/>
<g id="a_edge49&#45;headlabel"><a xlink:href="dir_000085_000092.html" target="_top" xlink:title="2">
<text text-anchor="middle" x="117.239" y="-144.735" font-family="Helvetica,sans-Serif" font-size="10.00">2</text>
</a>
</g>
</g>
<!-- dir_909774b1a000bf73b2cf501716b773f3&#45;&gt;dir_a2f0e5642e47e7ed59fe0f0829eafb5f -->
<g id="edge50" class="edge"><title>dir_909774b1a000bf73b2cf501716b773f3&#45;&gt;dir_a2f0e5642e47e7ed59fe0f0829eafb5f</title>
<path fill="none" stroke="black" d="M138.076,-265.093C152.582,-268.348 170.761,-272.413 187,-276 259.866,-292.096 345.093,-310.613 392.786,-320.948"/>
<polygon fill="black" stroke="black" points="392.144,-324.39 402.658,-323.086 393.626,-317.548 392.144,-324.39"/>
<g id="a_edge50&#45;headlabel"><a xlink:href="dir_000085_000019.html" target="_top" xlink:title="3">
<text text-anchor="middle" x="388.029" y="-323.904" font-family="Helvetica,sans-Serif" font-size="10.00">3</text>
</a>
</g>
</g>
<!-- dir_f6a0a87962fcbf90fc709c1bf5ba5a00 -->
<g id="node5" class="node"><title>dir_f6a0a87962fcbf90fc709c1bf5ba5a00</title>
<g id="a_node5"><a xlink:href="dir_f6a0a87962fcbf90fc709c1bf5ba5a00.html" target="_top" xlink:title="Mesh">
<polygon fill="white" stroke="black" points="250,-276 196,-276 196,-240 250,-240 250,-276"/>
<text text-anchor="middle" x="223" y="-255.5" font-family="Helvetica,sans-Serif" font-size="10.00">Mesh</text>
</a>
</g>
</g>
<!-- dir_745a441f70a5ddf403f2f793490dcc6d -->
<g id="node6" class="node"><title>dir_745a441f70a5ddf403f2f793490dcc6d</title>
<g id="a_node6"><a xlink:href="dir_745a441f70a5ddf403f2f793490dcc6d.html" target="_top" xlink:title="OpenGL">
<polygon fill="white" stroke="black" points="207,-60 153,-60 153,-24 207,-24 207,-60"/>
<text text-anchor="middle" x="180" y="-39.5" font-family="Helvetica,sans-Serif" font-size="10.00">OpenGL</text>
</a>
</g>
</g>
<!-- dir_f6a0a87962fcbf90fc709c1bf5ba5a00&#45;&gt;dir_745a441f70a5ddf403f2f793490dcc6d -->
<g id="edge29" class="edge"><title>dir_f6a0a87962fcbf90fc709c1bf5ba5a00&#45;&gt;dir_745a441f70a5ddf403f2f793490dcc6d</title>
<path fill="none" stroke="black" d="M221.534,-239.838C219.845,-221.84 216.684,-192.783 212,-168 205.557,-133.91 195.198,-95.3171 188.019,-70.147"/>
<polygon fill="black" stroke="black" points="191.294,-68.871 185.158,-60.2338 184.568,-70.8122 191.294,-68.871"/>
<g id="a_edge29&#45;headlabel"><a xlink:href="dir_000086_000087.html" target="_top" xlink:title="1">
<text text-anchor="middle" x="195.018" y="-69.0373" font-family="Helvetica,sans-Serif" font-size="10.00">1</text>
</a>
</g>
</g>
<!-- dir_f6a0a87962fcbf90fc709c1bf5ba5a00&#45;&gt;dir_a2f0e5642e47e7ed59fe0f0829eafb5f -->
<g id="edge28" class="edge"><title>dir_f6a0a87962fcbf90fc709c1bf5ba5a00&#45;&gt;dir_a2f0e5642e47e7ed59fe0f0829eafb5f</title>
<path fill="none" stroke="black" d="M250.068,-268.154C286.721,-280.548 352.263,-302.712 393.314,-316.594"/>
<polygon fill="black" stroke="black" points="392.344,-319.961 402.938,-319.849 394.587,-313.33 392.344,-319.961"/>
<g id="a_edge28&#45;headlabel"><a xlink:href="dir_000086_000019.html" target="_top" xlink:title="5">
<text text-anchor="middle" x="388.029" y="-318.999" font-family="Helvetica,sans-Serif" font-size="10.00">5</text>
</a>
</g>
</g>
<!-- dir_ac53bbf7aa3921b9bb37792f08d5cbd9 -->
<g id="node7" class="node"><title>dir_ac53bbf7aa3921b9bb37792f08d5cbd9</title>
<g id="a_node7"><a xlink:href="dir_ac53bbf7aa3921b9bb37792f08d5cbd9.html" target="_top" xlink:title="Renderers">
<polygon fill="white" stroke="black" points="127.5,-420 66.5,-420 66.5,-384 127.5,-384 127.5,-420"/>
<text text-anchor="middle" x="97" y="-399.5" font-family="Helvetica,sans-Serif" font-size="10.00">Renderers</text>
</a>
</g>
</g>
<!-- dir_ac53bbf7aa3921b9bb37792f08d5cbd9&#45;&gt;dir_b3c92c43cc8feb1052f624d79df8b6af -->
<g id="edge19" class="edge"><title>dir_ac53bbf7aa3921b9bb37792f08d5cbd9&#45;&gt;dir_b3c92c43cc8feb1052f624d79df8b6af</title>
<path fill="none" stroke="black" d="M110.348,-383.697C116.757,-375.389 124.558,-365.277 131.606,-356.141"/>
<polygon fill="black" stroke="black" points="134.468,-358.16 137.805,-348.104 128.926,-353.884 134.468,-358.16"/>
<g id="a_edge19&#45;headlabel"><a xlink:href="dir_000088_000084.html" target="_top" xlink:title="2">
<text text-anchor="middle" x="134.521" y="-360.24" font-family="Helvetica,sans-Serif" font-size="10.00">2</text>
</a>
</g>
</g>
<!-- dir_ac53bbf7aa3921b9bb37792f08d5cbd9&#45;&gt;dir_909774b1a000bf73b2cf501716b773f3 -->
<g id="edge27" class="edge"><title>dir_ac53bbf7aa3921b9bb37792f08d5cbd9&#45;&gt;dir_909774b1a000bf73b2cf501716b773f3</title>
<path fill="none" stroke="black" d="M96.712,-383.872C96.612,-365.903 97.0224,-336.868 100,-312 101.021,-303.471 102.716,-294.276 104.472,-285.977"/>
<polygon fill="black" stroke="black" points="107.922,-286.586 106.684,-276.063 101.09,-285.061 107.922,-286.586"/>
<g id="a_edge27&#45;headlabel"><a xlink:href="dir_000088_000085.html" target="_top" xlink:title="1">
<text text-anchor="middle" x="109.911" y="-288.212" font-family="Helvetica,sans-Serif" font-size="10.00">1</text>
</a>
</g>
</g>
<!-- dir_ac53bbf7aa3921b9bb37792f08d5cbd9&#45;&gt;dir_f6a0a87962fcbf90fc709c1bf5ba5a00 -->
<g id="edge24" class="edge"><title>dir_ac53bbf7aa3921b9bb37792f08d5cbd9&#45;&gt;dir_f6a0a87962fcbf90fc709c1bf5ba5a00</title>
<path fill="none" stroke="black" d="M98.65,-383.96C101.136,-361.364 106.479,-323.046 115,-312 132.414,-289.427 161.962,-275.857 185.754,-268.108"/>
<polygon fill="black" stroke="black" points="186.995,-271.389 195.546,-265.134 184.961,-264.691 186.995,-271.389"/>
<g id="a_edge24&#45;headlabel"><a xlink:href="dir_000088_000086.html" target="_top" xlink:title="2">
<text text-anchor="middle" x="184.381" y="-272.65" font-family="Helvetica,sans-Serif" font-size="10.00">2</text>
</a>
</g>
</g>
<!-- dir_ac53bbf7aa3921b9bb37792f08d5cbd9&#45;&gt;dir_745a441f70a5ddf403f2f793490dcc6d -->
<g id="edge23" class="edge"><title>dir_ac53bbf7aa3921b9bb37792f08d5cbd9&#45;&gt;dir_745a441f70a5ddf403f2f793490dcc6d</title>
<path fill="none" stroke="black" d="M78.6943,-383.836C69.2553,-374.111 58.2367,-361.262 51,-348 31.2609,-311.826 25,-300.209 25,-259 25,-259 25,-259 25,-185 25,-121.116 97.472,-78.2039 143.306,-57.4531"/>
<polygon fill="black" stroke="black" points="144.89,-60.58 152.646,-53.3619 142.082,-54.1681 144.89,-60.58"/>
<g id="a_edge23&#45;headlabel"><a xlink:href="dir_000088_000087.html" target="_top" xlink:title="2">
<text text-anchor="middle" x="142.737" y="-62.1229" font-family="Helvetica,sans-Serif" font-size="10.00">2</text>
</a>
</g>
</g>
<!-- dir_ac53bbf7aa3921b9bb37792f08d5cbd9&#45;&gt;dir_652267079d823ee01f6c6cf98db9085b -->
<g id="edge20" class="edge"><title>dir_ac53bbf7aa3921b9bb37792f08d5cbd9&#45;&gt;dir_652267079d823ee01f6c6cf98db9085b</title>
<path fill="none" stroke="black" d="M127.627,-385.465C146.579,-375.851 171.195,-363.365 192.076,-352.773"/>
<polygon fill="black" stroke="black" points="193.735,-355.856 201.07,-348.211 190.569,-349.613 193.735,-355.856"/>
<g id="a_edge20&#45;headlabel"><a xlink:href="dir_000088_000089.html" target="_top" xlink:title="2">
<text text-anchor="middle" x="191.814" y="-357.514" font-family="Helvetica,sans-Serif" font-size="10.00">2</text>
</a>
</g>
</g>
<!-- dir_ac53bbf7aa3921b9bb37792f08d5cbd9&#45;&gt;dir_6bc97c5ccce2964f7b25f8377ac95818 -->
<g id="edge25" class="edge"><title>dir_ac53bbf7aa3921b9bb37792f08d5cbd9&#45;&gt;dir_6bc97c5ccce2964f7b25f8377ac95818</title>
<path fill="none" stroke="black" d="M88.2571,-383.802C73.9045,-352.96 49.3729,-287.078 75,-240 81.9128,-227.301 93.3223,-217.181 105.465,-209.33"/>
<polygon fill="black" stroke="black" points="107.587,-212.14 114.382,-204.011 104.001,-206.128 107.587,-212.14"/>
<g id="a_edge25&#45;headlabel"><a xlink:href="dir_000088_000091.html" target="_top" xlink:title="4">
<text text-anchor="middle" x="105.955" y="-213.919" font-family="Helvetica,sans-Serif" font-size="10.00">4</text>
</a>
</g>
</g>
<!-- dir_ac53bbf7aa3921b9bb37792f08d5cbd9&#45;&gt;dir_8efb2e226a329d96dc3bcfc9eaf1a998 -->
<g id="edge21" class="edge"><title>dir_ac53bbf7aa3921b9bb37792f08d5cbd9&#45;&gt;dir_8efb2e226a329d96dc3bcfc9eaf1a998</title>
<path fill="none" stroke="black" d="M82.389,-383.59C75.0959,-373.794 66.994,-360.954 63,-348 48.8549,-302.123 50.7631,-286.904 61,-240 69.3408,-201.783 94.5248,-163.83 112.987,-139.947"/>
<polygon fill="black" stroke="black" points="115.731,-142.12 119.199,-132.109 110.245,-137.773 115.731,-142.12"/>
<g id="a_edge21&#45;headlabel"><a xlink:href="dir_000088_000092.html" target="_top" xlink:title="1">
<text text-anchor="middle" x="115.724" y="-144.201" font-family="Helvetica,sans-Serif" font-size="10.00">1</text>
</a>
</g>
</g>
<!-- dir_ac53bbf7aa3921b9bb37792f08d5cbd9&#45;&gt;dir_a2f0e5642e47e7ed59fe0f0829eafb5f -->
<g id="edge22" class="edge"><title>dir_ac53bbf7aa3921b9bb37792f08d5cbd9&#45;&gt;dir_a2f0e5642e47e7ed59fe0f0829eafb5f</title>
<path fill="none" stroke="black" d="M127.758,-387.125C130.847,-385.975 133.964,-384.907 137,-384 226.803,-357.161 336.376,-341.754 392.667,-335.048"/>
<polygon fill="black" stroke="black" points="393.34,-338.493 402.867,-333.859 392.529,-331.54 393.34,-338.493"/>
<g id="a_edge22&#45;headlabel"><a xlink:href="dir_000088_000019.html" target="_top" xlink:title="7">
<text text-anchor="middle" x="390.098" y="-339.23" font-family="Helvetica,sans-Serif" font-size="10.00">7</text>
</a>
</g>
</g>
<!-- dir_ac53bbf7aa3921b9bb37792f08d5cbd9&#45;&gt;dir_06113b60808b1bbb52a01dfd2c3a8657 -->
<g id="edge26" class="edge"><title>dir_ac53bbf7aa3921b9bb37792f08d5cbd9&#45;&gt;dir_06113b60808b1bbb52a01dfd2c3a8657</title>
<path fill="none" stroke="black" d="M127.695,-386.901C130.797,-385.796 133.934,-384.801 137,-384 266.6,-350.157 648.696,-382.447 730,-276 759.136,-237.854 760.635,-204.953 730,-168 699.787,-131.556 558.644,-119.998 488.614,-116.472"/>
<polygon fill="black" stroke="black" points="488.57,-112.966 478.416,-115.991 488.24,-119.959 488.57,-112.966"/>
<g id="a_edge26&#45;headlabel"><a xlink:href="dir_000088_000076.html" target="_top" xlink:title="1">
<text text-anchor="middle" x="492.295" y="-107.8" font-family="Helvetica,sans-Serif" font-size="10.00">1</text>
</a>
</g>
</g>
<!-- dir_652267079d823ee01f6c6cf98db9085b&#45;&gt;dir_909774b1a000bf73b2cf501716b773f3 -->
<g id="edge11" class="edge"><title>dir_652267079d823ee01f6c6cf98db9085b&#45;&gt;dir_909774b1a000bf73b2cf501716b773f3</title>
<path fill="none" stroke="black" d="M204.666,-311.876C187.247,-302.042 165.268,-289.635 146.98,-279.311"/>
<polygon fill="black" stroke="black" points="148.495,-276.147 138.066,-274.279 145.054,-282.243 148.495,-276.147"/>
<g id="a_edge11&#45;headlabel"><a xlink:href="dir_000089_000085.html" target="_top" xlink:title="2">
<text text-anchor="middle" x="153.021" y="-272.942" font-family="Helvetica,sans-Serif" font-size="10.00">2</text>
</a>
</g>
</g>
<!-- dir_652267079d823ee01f6c6cf98db9085b&#45;&gt;dir_f6a0a87962fcbf90fc709c1bf5ba5a00 -->
<g id="edge7" class="edge"><title>dir_652267079d823ee01f6c6cf98db9085b&#45;&gt;dir_f6a0a87962fcbf90fc709c1bf5ba5a00</title>
<path fill="none" stroke="black" d="M232.034,-311.697C230.711,-303.983 229.122,-294.712 227.648,-286.112"/>
<polygon fill="black" stroke="black" points="231.072,-285.369 225.932,-276.104 224.172,-286.552 231.072,-285.369"/>
<g id="a_edge7&#45;headlabel"><a xlink:href="dir_000089_000086.html" target="_top" xlink:title="3">
<text text-anchor="middle" x="234.477" y="-285.932" font-family="Helvetica,sans-Serif" font-size="10.00">3</text>
</a>
</g>
</g>
<!-- dir_652267079d823ee01f6c6cf98db9085b&#45;&gt;dir_6bc97c5ccce2964f7b25f8377ac95818 -->
<g id="edge8" class="edge"><title>dir_652267079d823ee01f6c6cf98db9085b&#45;&gt;dir_6bc97c5ccce2964f7b25f8377ac95818</title>
<path fill="none" stroke="black" d="M216.088,-311.848C206.294,-302.127 194.789,-289.278 187,-276 175.636,-256.629 167.816,-232.339 163.016,-214.031"/>
<polygon fill="black" stroke="black" points="166.403,-213.147 160.596,-204.285 159.61,-214.834 166.403,-213.147"/>
<g id="a_edge8&#45;headlabel"><a xlink:href="dir_000089_000091.html" target="_top" xlink:title="4">
<text text-anchor="middle" x="170.025" y="-213.451" font-family="Helvetica,sans-Serif" font-size="10.00">4</text>
</a>
</g>
</g>
<!-- dir_652267079d823ee01f6c6cf98db9085b&#45;&gt;dir_a2f0e5642e47e7ed59fe0f0829eafb5f -->
<g id="edge5" class="edge"><title>dir_652267079d823ee01f6c6cf98db9085b&#45;&gt;dir_a2f0e5642e47e7ed59fe0f0829eafb5f</title>
<path fill="none" stroke="black" d="M273.467,-330C313.207,-330 352.947,-330 392.687,-330"/>
<polygon fill="black" stroke="black" points="392.79,-333.5 402.79,-330 392.79,-326.5 392.79,-333.5"/>
<g id="a_edge5&#45;headlabel"><a xlink:href="dir_000089_000019.html" target="_top" xlink:title="13">
<text text-anchor="middle" x="389.196" y="-333.839" font-family="Helvetica,sans-Serif" font-size="10.00">13</text>
</a>
</g>
</g>
<!-- dir_7205f054df4e14abb60715afe3e7e90c -->
<g id="node12" class="node"><title>dir_7205f054df4e14abb60715afe3e7e90c</title>
<g id="a_node12"><a xlink:href="dir_7205f054df4e14abb60715afe3e7e90c.html" target="_top" xlink:title="Entity">
<polygon fill="none" stroke="black" points="664,-276 610,-276 610,-240 664,-240 664,-276"/>
<text text-anchor="middle" x="637" y="-255.5" font-family="Helvetica,sans-Serif" font-size="10.00">Entity</text>
</a>
</g>
</g>
<!-- dir_652267079d823ee01f6c6cf98db9085b&#45;&gt;dir_7205f054df4e14abb60715afe3e7e90c -->
<g id="edge6" class="edge"><title>dir_652267079d823ee01f6c6cf98db9085b&#45;&gt;dir_7205f054df4e14abb60715afe3e7e90c</title>
<path fill="none" stroke="black" d="M273.393,-323.327C334.014,-314.229 455.547,-295.417 558,-276 571.595,-273.423 586.442,-270.309 599.557,-267.453"/>
<polygon fill="black" stroke="black" points="600.632,-270.8 609.647,-265.234 599.128,-263.964 600.632,-270.8"/>
<g id="a_edge6&#45;headlabel"><a xlink:href="dir_000089_000074.html" target="_top" xlink:title="2">
<text text-anchor="middle" x="597.731" y="-271.845" font-family="Helvetica,sans-Serif" font-size="10.00">2</text>
</a>
</g>
</g>
<!-- dir_652267079d823ee01f6c6cf98db9085b&#45;&gt;dir_06113b60808b1bbb52a01dfd2c3a8657 -->
<g id="edge9" class="edge"><title>dir_652267079d823ee01f6c6cf98db9085b&#45;&gt;dir_06113b60808b1bbb52a01dfd2c3a8657</title>
<path fill="none" stroke="black" d="M273.345,-321.484C302.292,-314.123 341.432,-300.354 368,-276 408.343,-239.02 431.37,-177.417 441.91,-142.099"/>
<polygon fill="black" stroke="black" points="445.403,-142.615 444.786,-132.039 438.672,-140.692 445.403,-142.615"/>
<g id="a_edge9&#45;headlabel"><a xlink:href="dir_000089_000076.html" target="_top" xlink:title="2">
<text text-anchor="middle" x="447.145" y="-144.352" font-family="Helvetica,sans-Serif" font-size="10.00">2</text>
</a>
</g>
</g>
<!-- dir_652267079d823ee01f6c6cf98db9085b&#45;&gt;dir_d0f3276f03e9a9cb8f8ba3f2a5ea1262 -->
<g id="edge10" class="edge"><title>dir_652267079d823ee01f6c6cf98db9085b&#45;&gt;dir_d0f3276f03e9a9cb8f8ba3f2a5ea1262</title>
<path fill="none" stroke="black" d="M273.71,-325.008C334.954,-317.996 450.487,-301.723 482,-276 500.919,-260.557 510.912,-234.119 516.025,-214.06"/>
<polygon fill="black" stroke="black" points="519.452,-214.773 518.275,-204.244 512.629,-213.209 519.452,-214.773"/>
<g id="a_edge10&#45;headlabel"><a xlink:href="dir_000089_000073.html" target="_top" xlink:title="2">
<text text-anchor="middle" x="521.417" y="-216.411" font-family="Helvetica,sans-Serif" font-size="10.00">2</text>
</a>
</g>
</g>
<!-- dir_6bc97c5ccce2964f7b25f8377ac95818&#45;&gt;dir_909774b1a000bf73b2cf501716b773f3 -->
<g id="edge34" class="edge"><title>dir_6bc97c5ccce2964f7b25f8377ac95818&#45;&gt;dir_909774b1a000bf73b2cf501716b773f3</title>
<path fill="none" stroke="black" d="M151.655,-204.104C147.129,-212.298 140.78,-222.282 134.38,-231.359"/>
<polygon fill="black" stroke="black" points="131.362,-229.558 128.287,-239.697 137.013,-233.689 131.362,-229.558"/>
<g id="a_edge34&#45;headlabel"><a xlink:href="dir_000091_000085.html" target="_top" xlink:title="1">
<text text-anchor="middle" x="131.191" y="-222.48" font-family="Helvetica,sans-Serif" font-size="10.00">1</text>
</a>
</g>
</g>
<!-- dir_6bc97c5ccce2964f7b25f8377ac95818&#45;&gt;dir_745a441f70a5ddf403f2f793490dcc6d -->
<g id="edge33" class="edge"><title>dir_6bc97c5ccce2964f7b25f8377ac95818&#45;&gt;dir_745a441f70a5ddf403f2f793490dcc6d</title>
<path fill="none" stroke="black" d="M161.779,-167.933C164.522,-157.603 167.841,-144.126 170,-132 173.657,-111.464 176.227,-88.0096 177.845,-70.3357"/>
<polygon fill="black" stroke="black" points="181.351,-70.4218 178.731,-60.156 174.378,-69.8148 181.351,-70.4218"/>
<g id="a_edge33&#45;headlabel"><a xlink:href="dir_000091_000087.html" target="_top" xlink:title="1">
<text text-anchor="middle" x="183.868" y="-71.749" font-family="Helvetica,sans-Serif" font-size="10.00">1</text>
</a>
</g>
</g>
<!-- dir_6bc97c5ccce2964f7b25f8377ac95818&#45;&gt;dir_8efb2e226a329d96dc3bcfc9eaf1a998 -->
<g id="edge31" class="edge"><title>dir_6bc97c5ccce2964f7b25f8377ac95818&#45;&gt;dir_8efb2e226a329d96dc3bcfc9eaf1a998</title>
<path fill="none" stroke="black" d="M151.315,-167.697C148.752,-159.898 145.667,-150.509 142.815,-141.829"/>
<polygon fill="black" stroke="black" points="146.067,-140.512 139.62,-132.104 139.416,-142.697 146.067,-140.512"/>
<g id="a_edge31&#45;headlabel"><a xlink:href="dir_000091_000092.html" target="_top" xlink:title="1">
<text text-anchor="middle" x="149.886" y="-140.541" font-family="Helvetica,sans-Serif" font-size="10.00">1</text>
</a>
</g>
</g>
<!-- dir_6bc97c5ccce2964f7b25f8377ac95818&#45;&gt;dir_a2f0e5642e47e7ed59fe0f0829eafb5f -->
<g id="edge32" class="edge"><title>dir_6bc97c5ccce2964f7b25f8377ac95818&#45;&gt;dir_a2f0e5642e47e7ed59fe0f0829eafb5f</title>
<path fill="none" stroke="black" d="M190.077,-204.18C210.04,-214.55 235.983,-228.03 259,-240 305.411,-264.136 358.895,-291.977 393.514,-310.001"/>
<polygon fill="black" stroke="black" points="392.27,-313.299 402.756,-314.813 395.503,-307.091 392.27,-313.299"/>
<g id="a_edge32&#45;headlabel"><a xlink:href="dir_000091_000019.html" target="_top" xlink:title="12">
<text text-anchor="middle" x="387.77" y="-311.658" font-family="Helvetica,sans-Serif" font-size="10.00">12</text>
</a>
</g>
</g>
<!-- dir_8efb2e226a329d96dc3bcfc9eaf1a998&#45;&gt;dir_745a441f70a5ddf403f2f793490dcc6d -->
<g id="edge13" class="edge"><title>dir_8efb2e226a329d96dc3bcfc9eaf1a998&#45;&gt;dir_745a441f70a5ddf403f2f793490dcc6d</title>
<path fill="none" stroke="black" d="M145.371,-95.6966C150.718,-87.5589 157.204,-77.689 163.111,-68.7013"/>
<polygon fill="black" stroke="black" points="166.193,-70.3835 168.76,-60.1043 160.343,-66.5393 166.193,-70.3835"/>
<g id="a_edge13&#45;headlabel"><a xlink:href="dir_000092_000087.html" target="_top" xlink:title="2">
<text text-anchor="middle" x="166.592" y="-72.4468" font-family="Helvetica,sans-Serif" font-size="10.00">2</text>
</a>
</g>
</g>
<!-- dir_8efb2e226a329d96dc3bcfc9eaf1a998&#45;&gt;dir_a2f0e5642e47e7ed59fe0f0829eafb5f -->
<g id="edge12" class="edge"><title>dir_8efb2e226a329d96dc3bcfc9eaf1a998&#45;&gt;dir_a2f0e5642e47e7ed59fe0f0829eafb5f</title>
<path fill="none" stroke="black" d="M161.044,-116.733C243.12,-122.245 488.309,-140.63 563,-168 617.863,-188.104 645.212,-188.6 673,-240 715.446,-318.513 545.687,-328.768 467.505,-329.422"/>
<polygon fill="black" stroke="black" points="467.101,-325.923 457.113,-329.457 467.124,-332.923 467.101,-325.923"/>
<g id="a_edge12&#45;headlabel"><a xlink:href="dir_000092_000019.html" target="_top" xlink:title="2">
<text text-anchor="middle" x="470.686" y="-320.572" font-family="Helvetica,sans-Serif" font-size="10.00">2</text>
</a>
</g>
</g>
<!-- dir_a2f0e5642e47e7ed59fe0f0829eafb5f&#45;&gt;dir_652267079d823ee01f6c6cf98db9085b -->
<g id="edge14" class="edge"><title>dir_a2f0e5642e47e7ed59fe0f0829eafb5f&#45;&gt;dir_652267079d823ee01f6c6cf98db9085b</title>
<path fill="none" stroke="black" d="M402.79,-330C363.05,-330 323.31,-330 283.57,-330"/>
<polygon fill="black" stroke="black" points="283.467,-326.5 273.467,-330 283.467,-333.5 283.467,-326.5"/>
<g id="a_edge14&#45;headlabel"><a xlink:href="dir_000019_000089.html" target="_top" xlink:title="1">
<text text-anchor="middle" x="287.061" y="-321.161" font-family="Helvetica,sans-Serif" font-size="10.00">1</text>
</a>
</g>
</g>
<!-- dir_a2f0e5642e47e7ed59fe0f0829eafb5f&#45;&gt;dir_7205f054df4e14abb60715afe3e7e90c -->
<g id="edge15" class="edge"><title>dir_a2f0e5642e47e7ed59fe0f0829eafb5f&#45;&gt;dir_7205f054df4e14abb60715afe3e7e90c</title>
<path fill="none" stroke="black" d="M457.139,-319.063C488.735,-308.981 541.832,-292.542 587,-276 591.382,-274.395 595.986,-272.598 600.579,-270.79"/>
<polygon fill="black" stroke="black" points="601.894,-274.034 609.922,-267.12 599.334,-267.519 601.894,-274.034"/>
<g id="a_edge15&#45;headlabel"><a xlink:href="dir_000019_000074.html" target="_top" xlink:title="1">
<text text-anchor="middle" x="599.586" y="-275.491" font-family="Helvetica,sans-Serif" font-size="10.00">1</text>
</a>
</g>
</g>
<!-- dir_7205f054df4e14abb60715afe3e7e90c&#45;&gt;dir_a2f0e5642e47e7ed59fe0f0829eafb5f -->
<g id="edge16" class="edge"><title>dir_7205f054df4e14abb60715afe3e7e90c&#45;&gt;dir_a2f0e5642e47e7ed59fe0f0829eafb5f</title>
<path fill="none" stroke="black" d="M609.841,-274.184C608.213,-274.809 606.592,-275.417 605,-276 558.331,-293.091 503.198,-310.073 467.305,-320.047"/>
<polygon fill="black" stroke="black" points="465.989,-316.778 457.265,-322.789 467.833,-323.531 465.989,-316.778"/>
<g id="a_edge16&#45;headlabel"><a xlink:href="dir_000074_000019.html" target="_top" xlink:title="4">
<text text-anchor="middle" x="468.709" y="-310.592" font-family="Helvetica,sans-Serif" font-size="10.00">4</text>
</a>
</g>
</g>
<!-- dir_7205f054df4e14abb60715afe3e7e90c&#45;&gt;dir_06113b60808b1bbb52a01dfd2c3a8657 -->
<g id="edge17" class="edge"><title>dir_7205f054df4e14abb60715afe3e7e90c&#45;&gt;dir_06113b60808b1bbb52a01dfd2c3a8657</title>
<path fill="none" stroke="black" d="M619.805,-239.982C604.259,-220.489 580.748,-188.596 554,-168 533.995,-152.596 508.792,-140.292 488.004,-131.43"/>
<polygon fill="black" stroke="black" points="489.075,-128.085 478.497,-127.481 486.389,-134.55 489.075,-128.085"/>
<g id="a_edge17&#45;headlabel"><a xlink:href="dir_000074_000076.html" target="_top" xlink:title="1">
<text text-anchor="middle" x="493.484" y="-124.343" font-family="Helvetica,sans-Serif" font-size="10.00">1</text>
</a>
</g>
</g>
<!-- dir_7205f054df4e14abb60715afe3e7e90c&#45;&gt;dir_d0f3276f03e9a9cb8f8ba3f2a5ea1262 -->
<g id="edge18" class="edge"><title>dir_7205f054df4e14abb60715afe3e7e90c&#45;&gt;dir_d0f3276f03e9a9cb8f8ba3f2a5ea1262</title>
<path fill="none" stroke="black" d="M609.77,-243.834C592.371,-234.168 569.911,-220.803 551.873,-209.462"/>
<polygon fill="black" stroke="black" points="553.731,-206.495 543.415,-204.082 549.974,-212.402 553.731,-206.495"/>
<g id="a_edge18&#45;headlabel"><a xlink:href="dir_000074_000073.html" target="_top" xlink:title="1">
<text text-anchor="middle" x="558.288" y="-203.529" font-family="Helvetica,sans-Serif" font-size="10.00">1</text>
</a>
</g>
</g>
<!-- dir_06113b60808b1bbb52a01dfd2c3a8657&#45;&gt;dir_b3c92c43cc8feb1052f624d79df8b6af -->
<g id="edge35" class="edge"><title>dir_06113b60808b1bbb52a01dfd2c3a8657&#45;&gt;dir_b3c92c43cc8feb1052f624d79df8b6af</title>
<path fill="none" stroke="black" d="M419.734,-127.582C399.556,-137.044 372.742,-151.228 352,-168 327.372,-187.915 284.058,-256.63 259,-276 255.818,-278.46 217.351,-297.154 187.222,-311.652"/>
<polygon fill="black" stroke="black" points="185.684,-308.508 178.187,-315.994 188.716,-314.817 185.684,-308.508"/>
<g id="a_edge35&#45;headlabel"><a xlink:href="dir_000076_000084.html" target="_top" xlink:title="5">
<text text-anchor="middle" x="187.694" y="-301.891" font-family="Helvetica,sans-Serif" font-size="10.00">5</text>
</a>
</g>
</g>
<!-- dir_06113b60808b1bbb52a01dfd2c3a8657&#45;&gt;dir_745a441f70a5ddf403f2f793490dcc6d -->
<g id="edge38" class="edge"><title>dir_06113b60808b1bbb52a01dfd2c3a8657&#45;&gt;dir_745a441f70a5ddf403f2f793490dcc6d</title>
<path fill="none" stroke="black" d="M419.7,-105.376C370.449,-92.5592 271.163,-66.7228 217.112,-52.6575"/>
<polygon fill="black" stroke="black" points="217.81,-49.2226 207.251,-50.0914 216.047,-55.997 217.81,-49.2226"/>
<g id="a_edge38&#45;headlabel"><a xlink:href="dir_000076_000087.html" target="_top" xlink:title="1">
<text text-anchor="middle" x="222.004" y="-44.88" font-family="Helvetica,sans-Serif" font-size="10.00">1</text>
</a>
</g>
</g>
<!-- dir_06113b60808b1bbb52a01dfd2c3a8657&#45;&gt;dir_652267079d823ee01f6c6cf98db9085b -->
<g id="edge36" class="edge"><title>dir_06113b60808b1bbb52a01dfd2c3a8657&#45;&gt;dir_652267079d823ee01f6c6cf98db9085b</title>
<path fill="none" stroke="black" d="M437.606,-132.269C413.181,-168.965 355.899,-253.212 330,-276 316.014,-288.306 298.701,-298.998 282.702,-307.492"/>
<polygon fill="black" stroke="black" points="280.765,-304.552 273.469,-312.234 283.964,-310.778 280.765,-304.552"/>
<g id="a_edge36&#45;headlabel"><a xlink:href="dir_000076_000089.html" target="_top" xlink:title="3">
<text text-anchor="middle" x="282.665" y="-297.884" font-family="Helvetica,sans-Serif" font-size="10.00">3</text>
</a>
</g>
</g>
<!-- dir_06113b60808b1bbb52a01dfd2c3a8657&#45;&gt;dir_6bc97c5ccce2964f7b25f8377ac95818 -->
<g id="edge40" class="edge"><title>dir_06113b60808b1bbb52a01dfd2c3a8657&#45;&gt;dir_6bc97c5ccce2964f7b25f8377ac95818</title>
<path fill="none" stroke="black" d="M419.402,-122.095C371.156,-133.661 274.775,-156.766 213.212,-171.525"/>
<polygon fill="black" stroke="black" points="212.177,-168.173 203.268,-173.908 213.809,-174.981 212.177,-168.173"/>
<g id="a_edge40&#45;headlabel"><a xlink:href="dir_000076_000091.html" target="_top" xlink:title="2">
<text text-anchor="middle" x="215.011" y="-162.074" font-family="Helvetica,sans-Serif" font-size="10.00">2</text>
</a>
</g>
</g>
<!-- dir_06113b60808b1bbb52a01dfd2c3a8657&#45;&gt;dir_a2f0e5642e47e7ed59fe0f0829eafb5f -->
<g id="edge37" class="edge"><title>dir_06113b60808b1bbb52a01dfd2c3a8657&#45;&gt;dir_a2f0e5642e47e7ed59fe0f0829eafb5f</title>
<path fill="none" stroke="black" d="M478.676,-116.574C540.049,-120.516 677.583,-133.124 706,-168 736.32,-205.211 736.574,-238.997 706,-276 676.131,-312.15 535.515,-323.894 467.3,-327.502"/>
<polygon fill="black" stroke="black" points="466.815,-324.021 457.001,-328.013 467.163,-331.013 466.815,-324.021"/>
<g id="a_edge37&#45;headlabel"><a xlink:href="dir_000076_000019.html" target="_top" xlink:title="12">
<text text-anchor="middle" x="470.265" y="-318.507" font-family="Helvetica,sans-Serif" font-size="10.00">12</text>
</a>
</g>
</g>
<!-- dir_06113b60808b1bbb52a01dfd2c3a8657&#45;&gt;dir_7205f054df4e14abb60715afe3e7e90c -->
<g id="edge39" class="edge"><title>dir_06113b60808b1bbb52a01dfd2c3a8657&#45;&gt;dir_7205f054df4e14abb60715afe3e7e90c</title>
<path fill="none" stroke="black" d="M478.72,-122.308C505.303,-130.743 543.812,-146.295 572,-168 594.987,-185.7 615.582,-211.742 627.558,-231.088"/>
<polygon fill="black" stroke="black" points="624.672,-233.088 632.718,-239.982 630.727,-229.575 624.672,-233.088"/>
<g id="a_edge39&#45;headlabel"><a xlink:href="dir_000076_000074.html" target="_top" xlink:title="2">
<text text-anchor="middle" x="620.412" y="-228.904" font-family="Helvetica,sans-Serif" font-size="10.00">2</text>
</a>
</g>
</g>
<!-- dir_06113b60808b1bbb52a01dfd2c3a8657&#45;&gt;dir_d0f3276f03e9a9cb8f8ba3f2a5ea1262 -->
<g id="edge41" class="edge"><title>dir_06113b60808b1bbb52a01dfd2c3a8657&#45;&gt;dir_d0f3276f03e9a9cb8f8ba3f2a5ea1262</title>
<path fill="none" stroke="black" d="M472.488,-132.104C482.062,-140.552 492.905,-150.901 501.979,-160.199"/>
<polygon fill="black" stroke="black" points="499.687,-162.868 509.118,-167.697 504.757,-158.041 499.687,-162.868"/>
<g id="a_edge41&#45;headlabel"><a xlink:href="dir_000076_000073.html" target="_top" xlink:title="2">
<text text-anchor="middle" x="495.152" y="-159.723" font-family="Helvetica,sans-Serif" font-size="10.00">2</text>
</a>
</g>
</g>
<!-- dir_d0f3276f03e9a9cb8f8ba3f2a5ea1262&#45;&gt;dir_54018506bb725509c19b38b6d9bcf0f6 -->
<g id="edge48" class="edge"><title>dir_d0f3276f03e9a9cb8f8ba3f2a5ea1262&#45;&gt;dir_54018506bb725509c19b38b6d9bcf0f6</title>
<path fill="none" stroke="black" d="M554.515,-188.051C590.535,-191.189 646.214,-202.293 673,-240 682.266,-253.044 682.271,-262.96 673,-276 550.816,-447.863 413.335,-324.617 211,-384 210.902,-384.029 210.805,-384.057 210.707,-384.086"/>
<polygon fill="black" stroke="black" points="209.825,-380.687 201.546,-387.298 212.141,-387.293 209.825,-380.687"/>
<g id="a_edge48&#45;headlabel"><a xlink:href="dir_000073_000082.html" target="_top" xlink:title="3">
<text text-anchor="middle" x="212.278" y="-374.318" font-family="Helvetica,sans-Serif" font-size="10.00">3</text>
</a>
</g>
</g>
<!-- dir_d0f3276f03e9a9cb8f8ba3f2a5ea1262&#45;&gt;dir_f6a0a87962fcbf90fc709c1bf5ba5a00 -->
<g id="edge46" class="edge"><title>dir_d0f3276f03e9a9cb8f8ba3f2a5ea1262&#45;&gt;dir_f6a0a87962fcbf90fc709c1bf5ba5a00</title>
<path fill="none" stroke="black" d="M487.645,-194.835C431.551,-208.012 318.73,-234.513 260.172,-248.268"/>
<polygon fill="black" stroke="black" points="259.17,-244.908 250.236,-250.602 260.771,-251.723 259.17,-244.908"/>
<g id="a_edge46&#45;headlabel"><a xlink:href="dir_000073_000086.html" target="_top" xlink:title="1">
<text text-anchor="middle" x="262.02" y="-238.822" font-family="Helvetica,sans-Serif" font-size="10.00">1</text>
</a>
</g>
</g>
<!-- dir_d0f3276f03e9a9cb8f8ba3f2a5ea1262&#45;&gt;dir_652267079d823ee01f6c6cf98db9085b -->
<g id="edge43" class="edge"><title>dir_d0f3276f03e9a9cb8f8ba3f2a5ea1262&#45;&gt;dir_652267079d823ee01f6c6cf98db9085b</title>
<path fill="none" stroke="black" d="M524.053,-204.213C526.527,-224.194 527.093,-256.845 509,-276 493.649,-292.253 358.008,-312.619 283.508,-322.72"/>
<polygon fill="black" stroke="black" points="282.865,-319.275 273.42,-324.075 283.797,-326.212 282.865,-319.275"/>
<g id="a_edge43&#45;headlabel"><a xlink:href="dir_000073_000089.html" target="_top" xlink:title="2">
<text text-anchor="middle" x="286.049" y="-313.482" font-family="Helvetica,sans-Serif" font-size="10.00">2</text>
</a>
</g>
</g>
<!-- dir_d0f3276f03e9a9cb8f8ba3f2a5ea1262&#45;&gt;dir_a2f0e5642e47e7ed59fe0f0829eafb5f -->
<g id="edge44" class="edge"><title>dir_d0f3276f03e9a9cb8f8ba3f2a5ea1262&#45;&gt;dir_a2f0e5642e47e7ed59fe0f0829eafb5f</title>
<path fill="none" stroke="black" d="M537.517,-204.04C553.536,-222.707 573.341,-253.044 558,-276 537.917,-306.053 497.302,-319.086 467.183,-324.725"/>
<polygon fill="black" stroke="black" points="466.302,-321.324 457.018,-326.427 467.459,-328.227 466.302,-321.324"/>
<g id="a_edge44&#45;headlabel"><a xlink:href="dir_000073_000019.html" target="_top" xlink:title="5">
<text text-anchor="middle" x="469.379" y="-315.43" font-family="Helvetica,sans-Serif" font-size="10.00">5</text>
</a>
</g>
</g>
<!-- dir_d0f3276f03e9a9cb8f8ba3f2a5ea1262&#45;&gt;dir_7205f054df4e14abb60715afe3e7e90c -->
<g id="edge45" class="edge"><title>dir_d0f3276f03e9a9cb8f8ba3f2a5ea1262&#45;&gt;dir_7205f054df4e14abb60715afe3e7e90c</title>
<path fill="none" stroke="black" d="M554.536,-203.706C570.81,-212.925 590.157,-224.499 606.073,-234.504"/>
<polygon fill="black" stroke="black" points="604.204,-237.463 614.52,-239.876 607.96,-231.557 604.204,-237.463"/>
<g id="a_edge45&#45;headlabel"><a xlink:href="dir_000073_000074.html" target="_top" xlink:title="1">
<text text-anchor="middle" x="599.647" y="-235.43" font-family="Helvetica,sans-Serif" font-size="10.00">1</text>
</a>
</g>
</g>
<!-- dir_d0f3276f03e9a9cb8f8ba3f2a5ea1262&#45;&gt;dir_06113b60808b1bbb52a01dfd2c3a8657 -->
<g id="edge47" class="edge"><title>dir_d0f3276f03e9a9cb8f8ba3f2a5ea1262&#45;&gt;dir_06113b60808b1bbb52a01dfd2c3a8657</title>
<path fill="none" stroke="black" d="M497.287,-167.697C487.693,-159.22 476.854,-148.864 467.808,-139.583"/>
<polygon fill="black" stroke="black" points="470.125,-136.94 460.698,-132.104 465.052,-141.763 470.125,-136.94"/>
<g id="a_edge47&#45;headlabel"><a xlink:href="dir_000073_000076.html" target="_top" xlink:title="1">
<text text-anchor="middle" x="474.659" y="-135.089" font-family="Helvetica,sans-Serif" font-size="10.00">1</text>
</a>
</g>
</g>
</g>
</svg>
