<?xml version="1.0" encoding="UTF-8" standalone="no"?>
<!DOCTYPE svg PUBLIC "-//W3C//DTD SVG 1.1//EN"
 "http://www.w3.org/Graphics/SVG/1.1/DTD/svg11.dtd">
<!-- Generated by graphviz version 2.36.0 (20140111.2315)
 -->
<!-- Title: /home/travis/build/STORM&#45;IRIT/Radium&#45;Engine/src/Engine/Managers Pages: 1 -->
<svg width="720pt" height="339pt"
 viewBox="0.00 0.00 720.31 339.00" xmlns="http://www.w3.org/2000/svg" xmlns:xlink="http://www.w3.org/1999/xlink">
<g id="graph0" class="graph" transform="scale(1 1) rotate(0) translate(4 335)">
<title>/home/travis/build/STORM&#45;IRIT/Radium&#45;Engine/src/Engine/Managers</title>
<polygon fill="white" stroke="none" points="-4,4 -4,-335 716.311,-335 716.311,4 -4,4"/>
<g id="clust1" class="cluster"><title>clusterdir_3072bc1f55ed1280fe4fbe6b21c78379</title>
<g id="a_clust1"><a xlink:href="dir_3072bc1f55ed1280fe4fbe6b21c78379.html" target="_top" xlink:title="Engine">
<polygon fill="#ddddee" stroke="black" points="250.786,-128 250.786,-287 598.786,-287 598.786,-128 250.786,-128"/>
<text text-anchor="middle" x="424.786" y="-275" font-family="Helvetica,sans-Serif" font-size="10.00">Engine</text>
</a>
</g>
</g>
<g id="clust2" class="cluster"><title>clusterdir_06113b60808b1bbb52a01dfd2c3a8657</title>
<g id="a_clust2"><a xlink:href="dir_06113b60808b1bbb52a01dfd2c3a8657.html" target="_top">
<polygon fill="#eeeeff" stroke="black" points="258.786,-136 258.786,-260 590.786,-260 590.786,-136 258.786,-136"/>
</a>
</g>
</g>
<!-- dir_06113b60808b1bbb52a01dfd2c3a8657 -->
<g id="node1" class="node"><title>dir_06113b60808b1bbb52a01dfd2c3a8657</title>
<text text-anchor="middle" x="296.786" y="-231.5" font-family="Helvetica,sans-Serif" font-size="10.00">Managers</text>
</g>
<!-- dir_f60fd3cff26f751d5a136115ec0dccfa -->
<g id="node2" class="node"><title>dir_f60fd3cff26f751d5a136115ec0dccfa</title>
<g id="a_node2"><a xlink:href="dir_f60fd3cff26f751d5a136115ec0dccfa.html" target="_top" xlink:title="ComponentMessenger">
<polygon fill="white" stroke="black" points="382.036,-180 267.536,-180 267.536,-144 382.036,-144 382.036,-180"/>
<text text-anchor="middle" x="324.786" y="-159.5" font-family="Helvetica,sans-Serif" font-size="10.00">ComponentMessenger</text>
</a>
</g>
</g>
<!-- dir_a2f0e5642e47e7ed59fe0f0829eafb5f -->
<g id="node7" class="node"><title>dir_a2f0e5642e47e7ed59fe0f0829eafb5f</title>
<g id="a_node7"><a xlink:href="dir_a2f0e5642e47e7ed59fe0f0829eafb5f.html" target="_top" xlink:title="Core">
<polygon fill="white" stroke="red" points="227.786,-252 173.786,-252 173.786,-216 227.786,-216 227.786,-252"/>
<text text-anchor="middle" x="200.786" y="-231.5" font-family="Helvetica,sans-Serif" font-size="10.00">Core</text>
</a>
</g>
</g>
<!-- dir_f60fd3cff26f751d5a136115ec0dccfa&#45;&gt;dir_a2f0e5642e47e7ed59fe0f0829eafb5f -->
<g id="edge42" class="edge"><title>dir_f60fd3cff26f751d5a136115ec0dccfa&#45;&gt;dir_a2f0e5642e47e7ed59fe0f0829eafb5f</title>
<path fill="none" stroke="black" d="M294.593,-180.044C277.201,-189.862 255.23,-202.266 236.923,-212.6"/>
<polygon fill="black" stroke="black" points="234.986,-209.674 227.998,-217.638 238.427,-215.77 234.986,-209.674"/>
<g id="a_edge42&#45;headlabel"><a xlink:href="dir_000077_000019.html" target="_top" xlink:title="2">
<text text-anchor="middle" x="236.721" y="-202.935" font-family="Helvetica,sans-Serif" font-size="10.00">2</text>
</a>
</g>
</g>
<!-- dir_d0f3276f03e9a9cb8f8ba3f2a5ea1262 -->
<g id="node12" class="node"><title>dir_d0f3276f03e9a9cb8f8ba3f2a5ea1262</title>
<g id="a_node12"><a xlink:href="dir_d0f3276f03e9a9cb8f8ba3f2a5ea1262.html" target="_top" xlink:title="Component">
<polygon fill="none" stroke="black" points="280.036,-108 213.536,-108 213.536,-72 280.036,-72 280.036,-108"/>
<text text-anchor="middle" x="246.786" y="-87.5" font-family="Helvetica,sans-Serif" font-size="10.00">Component</text>
</a>
</g>
</g>
<!-- dir_f60fd3cff26f751d5a136115ec0dccfa&#45;&gt;dir_d0f3276f03e9a9cb8f8ba3f2a5ea1262 -->
<g id="edge43" class="edge"><title>dir_f60fd3cff26f751d5a136115ec0dccfa&#45;&gt;dir_d0f3276f03e9a9cb8f8ba3f2a5ea1262</title>
<path fill="none" stroke="black" d="M305.505,-143.697C295.871,-135.05 284.057,-124.449 273.559,-115.027"/>
<polygon fill="black" stroke="black" points="275.625,-112.179 265.845,-108.104 270.95,-117.388 275.625,-112.179"/>
<g id="a_edge43&#45;headlabel"><a xlink:href="dir_000077_000073.html" target="_top" xlink:title="1">
<text text-anchor="middle" x="280.197" y="-109.966" font-family="Helvetica,sans-Serif" font-size="10.00">1</text>
</a>
</g>
</g>
<!-- dir_c9b08ae6a3cd90292fdc27503a26012a -->
<g id="node3" class="node"><title>dir_c9b08ae6a3cd90292fdc27503a26012a</title>
<g id="a_node3"><a xlink:href="dir_c9b08ae6a3cd90292fdc27503a26012a.html" target="_top" xlink:title="EntityManager">
<polygon fill="white" stroke="black" points="517.786,-252 437.786,-252 437.786,-216 517.786,-216 517.786,-252"/>
<text text-anchor="middle" x="477.786" y="-231.5" font-family="Helvetica,sans-Serif" font-size="10.00">EntityManager</text>
</a>
</g>
</g>
<!-- dir_f0e5825d12ad74d1d37ba8a4976c5f17 -->
<g id="node5" class="node"><title>dir_f0e5825d12ad74d1d37ba8a4976c5f17</title>
<g id="a_node5"><a xlink:href="dir_f0e5825d12ad74d1d37ba8a4976c5f17.html" target="_top" xlink:title="SignalManager">
<polygon fill="white" stroke="black" points="582.036,-180 501.536,-180 501.536,-144 582.036,-144 582.036,-180"/>
<text text-anchor="middle" x="541.786" y="-159.5" font-family="Helvetica,sans-Serif" font-size="10.00">SignalManager</text>
</a>
</g>
</g>
<!-- dir_c9b08ae6a3cd90292fdc27503a26012a&#45;&gt;dir_f0e5825d12ad74d1d37ba8a4976c5f17 -->
<g id="edge23" class="edge"><title>dir_c9b08ae6a3cd90292fdc27503a26012a&#45;&gt;dir_f0e5825d12ad74d1d37ba8a4976c5f17</title>
<path fill="none" stroke="black" d="M493.606,-215.697C501.356,-207.22 510.825,-196.864 519.311,-187.583"/>
<polygon fill="black" stroke="black" points="521.983,-189.846 526.148,-180.104 516.817,-185.123 521.983,-189.846"/>
<g id="a_edge23&#45;headlabel"><a xlink:href="dir_000078_000080.html" target="_top" xlink:title="1">
<text text-anchor="middle" x="521.653" y="-191.915" font-family="Helvetica,sans-Serif" font-size="10.00">1</text>
</a>
</g>
</g>
<!-- dir_5a1bd30bc9919aca01fcd3709dbd4eb3 -->
<g id="node6" class="node"><title>dir_5a1bd30bc9919aca01fcd3709dbd4eb3</title>
<g id="a_node6"><a xlink:href="dir_5a1bd30bc9919aca01fcd3709dbd4eb3.html" target="_top" xlink:title="SystemDisplay">
<polygon fill="white" stroke="black" points="483.036,-180 400.536,-180 400.536,-144 483.036,-144 483.036,-180"/>
<text text-anchor="middle" x="441.786" y="-159.5" font-family="Helvetica,sans-Serif" font-size="10.00">SystemDisplay</text>
</a>
</g>
</g>
<!-- dir_c9b08ae6a3cd90292fdc27503a26012a&#45;&gt;dir_5a1bd30bc9919aca01fcd3709dbd4eb3 -->
<g id="edge24" class="edge"><title>dir_c9b08ae6a3cd90292fdc27503a26012a&#45;&gt;dir_5a1bd30bc9919aca01fcd3709dbd4eb3</title>
<path fill="none" stroke="black" d="M468.887,-215.697C464.789,-207.728 459.837,-198.1 455.293,-189.264"/>
<polygon fill="black" stroke="black" points="458.269,-187.396 450.583,-180.104 452.044,-190.598 458.269,-187.396"/>
<g id="a_edge24&#45;headlabel"><a xlink:href="dir_000078_000081.html" target="_top" xlink:title="1">
<text text-anchor="middle" x="462.437" y="-186.795" font-family="Helvetica,sans-Serif" font-size="10.00">1</text>
</a>
</g>
</g>
<!-- dir_c9b08ae6a3cd90292fdc27503a26012a&#45;&gt;dir_a2f0e5642e47e7ed59fe0f0829eafb5f -->
<g id="edge22" class="edge"><title>dir_c9b08ae6a3cd90292fdc27503a26012a&#45;&gt;dir_a2f0e5642e47e7ed59fe0f0829eafb5f</title>
<path fill="none" stroke="black" d="M467.171,-252.06C457.013,-267 440.102,-286.476 418.786,-291 401.939,-294.575 280.633,-294.575 263.786,-291 245.624,-287.146 230.091,-273.301 218.993,-260.222"/>
<polygon fill="black" stroke="black" points="221.636,-257.922 212.672,-252.274 216.157,-262.279 221.636,-257.922"/>
<g id="a_edge22&#45;headlabel"><a xlink:href="dir_000078_000019.html" target="_top" xlink:title="4">
<text text-anchor="middle" x="226.095" y="-256.468" font-family="Helvetica,sans-Serif" font-size="10.00">4</text>
</a>
</g>
</g>
<!-- dir_aea4ed3fab8ecf600219166580b8618e -->
<g id="node4" class="node"><title>dir_aea4ed3fab8ecf600219166580b8618e</title>
<g id="a_node4"><a xlink:href="dir_aea4ed3fab8ecf600219166580b8618e.html" target="_top" xlink:title="LightManager">
<polygon fill="white" stroke="black" points="419.036,-252 344.536,-252 344.536,-216 419.036,-216 419.036,-252"/>
<text text-anchor="middle" x="381.786" y="-231.5" font-family="Helvetica,sans-Serif" font-size="10.00">LightManager</text>
</a>
</g>
</g>
<!-- dir_aea4ed3fab8ecf600219166580b8618e&#45;&gt;dir_f60fd3cff26f751d5a136115ec0dccfa -->
<g id="edge16" class="edge"><title>dir_aea4ed3fab8ecf600219166580b8618e&#45;&gt;dir_f60fd3cff26f751d5a136115ec0dccfa</title>
<path fill="none" stroke="black" d="M367.696,-215.697C360.863,-207.305 352.529,-197.07 345.03,-187.861"/>
<polygon fill="black" stroke="black" points="347.742,-185.649 338.714,-180.104 342.314,-190.069 347.742,-185.649"/>
<g id="a_edge16&#45;headlabel"><a xlink:href="dir_000079_000077.html" target="_top" xlink:title="1">
<text text-anchor="middle" x="352.214" y="-184.143" font-family="Helvetica,sans-Serif" font-size="10.00">1</text>
</a>
</g>
</g>
<!-- dir_aea4ed3fab8ecf600219166580b8618e&#45;&gt;dir_a2f0e5642e47e7ed59fe0f0829eafb5f -->
<g id="edge12" class="edge"><title>dir_aea4ed3fab8ecf600219166580b8618e&#45;&gt;dir_a2f0e5642e47e7ed59fe0f0829eafb5f</title>
<path fill="none" stroke="black" d="M368.998,-252.007C360.339,-263.202 348.085,-277.267 334.786,-287 331.254,-289.585 330.068,-290.091 325.786,-291 312.308,-293.86 277.264,-293.86 263.786,-291 245.624,-287.146 230.091,-273.301 218.993,-260.222"/>
<polygon fill="black" stroke="black" points="221.636,-257.922 212.672,-252.274 216.157,-262.279 221.636,-257.922"/>
<g id="a_edge12&#45;headlabel"><a xlink:href="dir_000079_000019.html" target="_top" xlink:title="4">
<text text-anchor="middle" x="226.095" y="-256.468" font-family="Helvetica,sans-Serif" font-size="10.00">4</text>
</a>
</g>
</g>
<!-- dir_7205f054df4e14abb60715afe3e7e90c -->
<g id="node8" class="node"><title>dir_7205f054df4e14abb60715afe3e7e90c</title>
<g id="a_node8"><a xlink:href="dir_7205f054df4e14abb60715afe3e7e90c.html" target="_top" xlink:title="Entity">
<polygon fill="none" stroke="black" points="134.786,-180 80.786,-180 80.786,-144 134.786,-144 134.786,-180"/>
<text text-anchor="middle" x="107.786" y="-159.5" font-family="Helvetica,sans-Serif" font-size="10.00">Entity</text>
</a>
</g>
</g>
<!-- dir_aea4ed3fab8ecf600219166580b8618e&#45;&gt;dir_7205f054df4e14abb60715afe3e7e90c -->
<g id="edge13" class="edge"><title>dir_aea4ed3fab8ecf600219166580b8618e&#45;&gt;dir_7205f054df4e14abb60715afe3e7e90c</title>
<path fill="none" stroke="black" d="M344.5,-218.92C341.235,-217.868 337.965,-216.877 334.786,-216 253.616,-193.612 229.42,-204.249 148.786,-180 147.356,-179.57 145.908,-179.108 144.453,-178.621"/>
<polygon fill="black" stroke="black" points="145.448,-175.258 134.854,-175.121 143.05,-181.835 145.448,-175.258"/>
<g id="a_edge13&#45;headlabel"><a xlink:href="dir_000079_000074.html" target="_top" xlink:title="1">
<text text-anchor="middle" x="149.798" y="-171.322" font-family="Helvetica,sans-Serif" font-size="10.00">1</text>
</a>
</g>
</g>
<!-- dir_eecdbbfa89a6d9af25d920c499e6f44e -->
<g id="node9" class="node"><title>dir_eecdbbfa89a6d9af25d920c499e6f44e</title>
<g id="a_node9"><a xlink:href="dir_eecdbbfa89a6d9af25d920c499e6f44e.html" target="_top" xlink:title="System">
<polygon fill="none" stroke="black" points="168.786,-36 114.786,-36 114.786,-0 168.786,-0 168.786,-36"/>
<text text-anchor="middle" x="141.786" y="-15.5" font-family="Helvetica,sans-Serif" font-size="10.00">System</text>
</a>
</g>
</g>
<!-- dir_aea4ed3fab8ecf600219166580b8618e&#45;&gt;dir_eecdbbfa89a6d9af25d920c499e6f44e -->
<g id="edge14" class="edge"><title>dir_aea4ed3fab8ecf600219166580b8618e&#45;&gt;dir_eecdbbfa89a6d9af25d920c499e6f44e</title>
<path fill="none" stroke="black" d="M344.255,-219.421C313.142,-207.722 271.827,-191.024 257.786,-180 210.231,-142.663 173.361,-80.8527 154.876,-45.6716"/>
<polygon fill="black" stroke="black" points="157.843,-43.7884 150.156,-36.4974 151.619,-46.9908 157.843,-43.7884"/>
<g id="a_edge14&#45;headlabel"><a xlink:href="dir_000079_000093.html" target="_top" xlink:title="1">
<text text-anchor="middle" x="162.012" y="-43.1859" font-family="Helvetica,sans-Serif" font-size="10.00">1</text>
</a>
</g>
</g>
<!-- dir_54018506bb725509c19b38b6d9bcf0f6 -->
<g id="node11" class="node"><title>dir_54018506bb725509c19b38b6d9bcf0f6</title>
<g id="a_node11"><a xlink:href="dir_54018506bb725509c19b38b6d9bcf0f6.html" target="_top" xlink:title="Renderer">
<polygon fill="white" stroke="red" points="465.286,-36 410.286,-36 410.286,-0 465.286,-0 465.286,-36"/>
<text text-anchor="middle" x="437.786" y="-15.5" font-family="Helvetica,sans-Serif" font-size="10.00">Renderer</text>
</a>
</g>
</g>
<!-- dir_aea4ed3fab8ecf600219166580b8618e&#45;&gt;dir_54018506bb725509c19b38b6d9bcf0f6 -->
<g id="edge15" class="edge"><title>dir_aea4ed3fab8ecf600219166580b8618e&#45;&gt;dir_54018506bb725509c19b38b6d9bcf0f6</title>
<path fill="none" stroke="black" d="M419.063,-218.887C422.33,-217.842 425.603,-216.862 428.786,-216 514.278,-192.858 568.097,-248.049 624.786,-180 655.509,-143.12 653.732,-110.29 624.786,-72 606.833,-48.2517 524.79,-32.0619 475.535,-24.2932"/>
<polygon fill="black" stroke="black" points="475.971,-20.8194 465.556,-22.7636 474.911,-27.7385 475.971,-20.8194"/>
<g id="a_edge15&#45;headlabel"><a xlink:href="dir_000079_000082.html" target="_top" xlink:title="10">
<text text-anchor="middle" x="479.955" y="-16.0575" font-family="Helvetica,sans-Serif" font-size="10.00">10</text>
</a>
</g>
</g>
<!-- dir_d3d507863844f6311a74cf28116d817e -->
<g id="node10" class="node"><title>dir_d3d507863844f6311a74cf28116d817e</title>
<g id="a_node10"><a xlink:href="dir_d3d507863844f6311a74cf28116d817e.html" target="_top" xlink:title="ItemModel">
<polygon fill="none" stroke="black" points="542.286,-331 481.286,-331 481.286,-295 542.286,-295 542.286,-331"/>
<text text-anchor="middle" x="511.786" y="-310.5" font-family="Helvetica,sans-Serif" font-size="10.00">ItemModel</text>
</a>
</g>
</g>
<!-- dir_f0e5825d12ad74d1d37ba8a4976c5f17&#45;&gt;dir_d3d507863844f6311a74cf28116d817e -->
<g id="edge11" class="edge"><title>dir_f0e5825d12ad74d1d37ba8a4976c5f17&#45;&gt;dir_d3d507863844f6311a74cf28116d817e</title>
<path fill="none" stroke="black" d="M550.774,-180.025C562.754,-205.289 580.208,-253.337 559.786,-287 557.538,-290.705 554.542,-293.887 551.14,-296.613"/>
<polygon fill="black" stroke="black" points="549.081,-293.778 542.628,-302.181 552.913,-299.636 549.081,-293.778"/>
<g id="a_edge11&#45;headlabel"><a xlink:href="dir_000080_000075.html" target="_top" xlink:title="1">
<text text-anchor="middle" x="550.535" y="-286.934" font-family="Helvetica,sans-Serif" font-size="10.00">1</text>
</a>
</g>
</g>
<!-- dir_5a1bd30bc9919aca01fcd3709dbd4eb3&#45;&gt;dir_a2f0e5642e47e7ed59fe0f0829eafb5f -->
<g id="edge38" class="edge"><title>dir_5a1bd30bc9919aca01fcd3709dbd4eb3&#45;&gt;dir_a2f0e5642e47e7ed59fe0f0829eafb5f</title>
<path fill="none" stroke="black" d="M400.383,-177.043C397.143,-178.068 393.916,-179.065 390.786,-180 330.875,-197.895 314.845,-198.607 254.786,-216 249.299,-217.589 243.519,-219.333 237.863,-221.079"/>
<polygon fill="black" stroke="black" points="236.406,-217.868 227.906,-224.193 238.495,-224.549 236.406,-217.868"/>
<g id="a_edge38&#45;headlabel"><a xlink:href="dir_000081_000019.html" target="_top" xlink:title="2">
<text text-anchor="middle" x="238.989" y="-211.585" font-family="Helvetica,sans-Serif" font-size="10.00">2</text>
</a>
</g>
</g>
<!-- dir_5a1bd30bc9919aca01fcd3709dbd4eb3&#45;&gt;dir_7205f054df4e14abb60715afe3e7e90c -->
<g id="edge39" class="edge"><title>dir_5a1bd30bc9919aca01fcd3709dbd4eb3&#45;&gt;dir_7205f054df4e14abb60715afe3e7e90c</title>
<path fill="none" stroke="black" d="M418.351,-180.101C407.787,-187.154 394.781,-194.401 381.786,-198 299.037,-220.92 198.076,-194.2 144.807,-176.044"/>
<polygon fill="black" stroke="black" points="145.715,-172.653 135.12,-172.656 143.404,-179.261 145.715,-172.653"/>
<g id="a_edge39&#45;headlabel"><a xlink:href="dir_000081_000074.html" target="_top" xlink:title="1">
<text text-anchor="middle" x="150.045" y="-168.66" font-family="Helvetica,sans-Serif" font-size="10.00">1</text>
</a>
</g>
</g>
<!-- dir_5a1bd30bc9919aca01fcd3709dbd4eb3&#45;&gt;dir_54018506bb725509c19b38b6d9bcf0f6 -->
<g id="edge40" class="edge"><title>dir_5a1bd30bc9919aca01fcd3709dbd4eb3&#45;&gt;dir_54018506bb725509c19b38b6d9bcf0f6</title>
<path fill="none" stroke="black" d="M442.568,-143.928C443.25,-126.003 443.963,-97.0052 442.786,-72 442.393,-63.6551 441.654,-54.5956 440.863,-46.3665"/>
<polygon fill="black" stroke="black" points="444.318,-45.7479 439.817,-36.1568 437.355,-46.4615 444.318,-45.7479"/>
<g id="a_edge40&#45;headlabel"><a xlink:href="dir_000081_000082.html" target="_top" xlink:title="2">
<text text-anchor="middle" x="447.509" y="-46.5345" font-family="Helvetica,sans-Serif" font-size="10.00">2</text>
</a>
</g>
</g>
<!-- dir_5a1bd30bc9919aca01fcd3709dbd4eb3&#45;&gt;dir_d0f3276f03e9a9cb8f8ba3f2a5ea1262 -->
<g id="edge41" class="edge"><title>dir_5a1bd30bc9919aca01fcd3709dbd4eb3&#45;&gt;dir_d0f3276f03e9a9cb8f8ba3f2a5ea1262</title>
<path fill="none" stroke="black" d="M418.813,-143.887C410.341,-138.193 400.446,-132.232 390.786,-128 358.322,-113.778 319.256,-104.168 290.009,-98.3138"/>
<polygon fill="black" stroke="black" points="290.584,-94.8601 280.101,-96.3984 289.255,-101.733 290.584,-94.8601"/>
<g id="a_edge41&#45;headlabel"><a xlink:href="dir_000081_000073.html" target="_top" xlink:title="1">
<text text-anchor="middle" x="294.652" y="-90.2546" font-family="Helvetica,sans-Serif" font-size="10.00">1</text>
</a>
</g>
</g>
<!-- dir_a2f0e5642e47e7ed59fe0f0829eafb5f&#45;&gt;dir_7205f054df4e14abb60715afe3e7e90c -->
<g id="edge1" class="edge"><title>dir_a2f0e5642e47e7ed59fe0f0829eafb5f&#45;&gt;dir_7205f054df4e14abb60715afe3e7e90c</title>
<path fill="none" stroke="black" d="M173.669,-216.941C160.679,-207.934 145.32,-196.534 132.638,-186.536"/>
<polygon fill="black" stroke="black" points="134.734,-183.731 124.742,-180.208 130.357,-189.193 134.734,-183.731"/>
<g id="a_edge1&#45;headlabel"><a xlink:href="dir_000019_000074.html" target="_top" xlink:title="1">
<text text-anchor="middle" x="139.315" y="-181.263" font-family="Helvetica,sans-Serif" font-size="10.00">1</text>
</a>
</g>
</g>
<!-- dir_a2f0e5642e47e7ed59fe0f0829eafb5f&#45;&gt;dir_54018506bb725509c19b38b6d9bcf0f6 -->
<g id="edge2" class="edge"><title>dir_a2f0e5642e47e7ed59fe0f0829eafb5f&#45;&gt;dir_54018506bb725509c19b38b6d9bcf0f6</title>
<path fill="none" stroke="black" d="M173.697,-231.302C140.67,-227.634 86.9836,-216.102 62.786,-180 49.9186,-160.802 52.1131,-148.499 62.786,-128 82.8291,-89.5042 102.76,-88.7804 142.786,-72 229.813,-35.5149 342.18,-24.0545 400.021,-20.5256"/>
<polygon fill="black" stroke="black" points="400.381,-24.011 410.169,-19.9547 399.988,-17.022 400.381,-24.011"/>
<g id="a_edge2&#45;headlabel"><a xlink:href="dir_000019_000082.html" target="_top" xlink:title="1">
<text text-anchor="middle" x="396.952" y="-24.5476" font-family="Helvetica,sans-Serif" font-size="10.00">1</text>
</a>
</g>
</g>
<!-- dir_7205f054df4e14abb60715afe3e7e90c&#45;&gt;dir_06113b60808b1bbb52a01dfd2c3a8657 -->
<g id="edge6" class="edge"><title>dir_7205f054df4e14abb60715afe3e7e90c&#45;&gt;dir_06113b60808b1bbb52a01dfd2c3a8657</title>
<path fill="none" stroke="black" d="M135.058,-174.527C139.626,-176.395 144.329,-178.279 148.786,-180 185.5,-194.175 227.811,-209.197 257.766,-219.615"/>
<polygon fill="black" stroke="black" points="256.83,-222.994 267.424,-222.963 259.122,-216.38 256.83,-222.994"/>
<g id="a_edge6&#45;headlabel"><a xlink:href="dir_000074_000076.html" target="_top" xlink:title="1">
<text text-anchor="middle" x="252.503" y="-222" font-family="Helvetica,sans-Serif" font-size="10.00">1</text>
</a>
</g>
</g>
<!-- dir_7205f054df4e14abb60715afe3e7e90c&#45;&gt;dir_f0e5825d12ad74d1d37ba8a4976c5f17 -->
<g id="edge5" class="edge"><title>dir_7205f054df4e14abb60715afe3e7e90c&#45;&gt;dir_f0e5825d12ad74d1d37ba8a4976c5f17</title>
<path fill="none" stroke="black" d="M135.219,-171.344C198.019,-191.299 356.541,-233.474 482.786,-198 492.303,-195.326 501.804,-190.645 510.315,-185.525"/>
<polygon fill="black" stroke="black" points="512.254,-188.44 518.785,-180.097 508.477,-182.546 512.254,-188.44"/>
<g id="a_edge5&#45;headlabel"><a xlink:href="dir_000074_000080.html" target="_top" xlink:title="1">
<text text-anchor="middle" x="510.76" y="-190.27" font-family="Helvetica,sans-Serif" font-size="10.00">1</text>
</a>
</g>
</g>
<!-- dir_7205f054df4e14abb60715afe3e7e90c&#45;&gt;dir_a2f0e5642e47e7ed59fe0f0829eafb5f -->
<g id="edge3" class="edge"><title>dir_7205f054df4e14abb60715afe3e7e90c&#45;&gt;dir_a2f0e5642e47e7ed59fe0f0829eafb5f</title>
<path fill="none" stroke="black" d="M135.026,-179.145C147.96,-188.117 163.222,-199.446 175.848,-209.396"/>
<polygon fill="black" stroke="black" points="173.72,-212.176 183.713,-215.697 178.097,-206.713 173.72,-212.176"/>
<g id="a_edge3&#45;headlabel"><a xlink:href="dir_000074_000019.html" target="_top" xlink:title="4">
<text text-anchor="middle" x="169.14" y="-209.645" font-family="Helvetica,sans-Serif" font-size="10.00">4</text>
</a>
</g>
</g>
<!-- dir_7205f054df4e14abb60715afe3e7e90c&#45;&gt;dir_eecdbbfa89a6d9af25d920c499e6f44e -->
<g id="edge4" class="edge"><title>dir_7205f054df4e14abb60715afe3e7e90c&#45;&gt;dir_eecdbbfa89a6d9af25d920c499e6f44e</title>
<path fill="none" stroke="black" d="M107.303,-143.871C110.553,-119.564 120.984,-74.8187 129.885,-46.0132"/>
<polygon fill="black" stroke="black" points="133.316,-46.7815 133.079,-36.1893 126.659,-44.617 133.316,-46.7815"/>
<g id="a_edge4&#45;headlabel"><a xlink:href="dir_000074_000093.html" target="_top" xlink:title="1">
<text text-anchor="middle" x="134.905" y="-48.5778" font-family="Helvetica,sans-Serif" font-size="10.00">1</text>
</a>
</g>
</g>
<!-- dir_7205f054df4e14abb60715afe3e7e90c&#45;&gt;dir_d0f3276f03e9a9cb8f8ba3f2a5ea1262 -->
<g id="edge7" class="edge"><title>dir_7205f054df4e14abb60715afe3e7e90c&#45;&gt;dir_d0f3276f03e9a9cb8f8ba3f2a5ea1262</title>
<path fill="none" stroke="black" d="M134.887,-144.411C154.625,-133.893 181.607,-120.274 204.182,-109.421"/>
<polygon fill="black" stroke="black" points="205.71,-112.57 213.231,-105.108 202.698,-106.251 205.71,-112.57"/>
<g id="a_edge7&#45;headlabel"><a xlink:href="dir_000074_000073.html" target="_top" xlink:title="1">
<text text-anchor="middle" x="203.687" y="-114.179" font-family="Helvetica,sans-Serif" font-size="10.00">1</text>
</a>
</g>
</g>
<!-- dir_eecdbbfa89a6d9af25d920c499e6f44e&#45;&gt;dir_a2f0e5642e47e7ed59fe0f0829eafb5f -->
<g id="edge8" class="edge"><title>dir_eecdbbfa89a6d9af25d920c499e6f44e&#45;&gt;dir_a2f0e5642e47e7ed59fe0f0829eafb5f</title>
<path fill="none" stroke="black" d="M114.637,-22.3232C85.772,-27.4648 41.4912,-40.3265 20.786,-72 -5.47802,-112.177 -7.96485,-141.563 20.786,-180 37.9194,-202.906 116.252,-219.326 163.756,-227.38"/>
<polygon fill="black" stroke="black" points="163.242,-230.842 173.679,-229.017 164.382,-223.936 163.242,-230.842"/>
<g id="a_edge8&#45;headlabel"><a xlink:href="dir_000093_000019.html" target="_top" xlink:title="1">
<text text-anchor="middle" x="159.233" y="-230.559" font-family="Helvetica,sans-Serif" font-size="10.00">1</text>
</a>
</g>
</g>
<!-- dir_eecdbbfa89a6d9af25d920c499e6f44e&#45;&gt;dir_7205f054df4e14abb60715afe3e7e90c -->
<g id="edge9" class="edge"><title>dir_eecdbbfa89a6d9af25d920c499e6f44e&#45;&gt;dir_7205f054df4e14abb60715afe3e7e90c</title>
<path fill="none" stroke="black" d="M142.261,-36.1893C138.999,-60.5311 128.563,-105.28 119.664,-134.059"/>
<polygon fill="black" stroke="black" points="116.238,-133.279 116.472,-143.871 122.894,-135.445 116.238,-133.279"/>
<g id="a_edge9&#45;headlabel"><a xlink:href="dir_000093_000074.html" target="_top" xlink:title="1">
<text text-anchor="middle" x="114.65" y="-126.483" font-family="Helvetica,sans-Serif" font-size="10.00">1</text>
</a>
</g>
</g>
<!-- dir_eecdbbfa89a6d9af25d920c499e6f44e&#45;&gt;dir_d0f3276f03e9a9cb8f8ba3f2a5ea1262 -->
<g id="edge10" class="edge"><title>dir_eecdbbfa89a6d9af25d920c499e6f44e&#45;&gt;dir_d0f3276f03e9a9cb8f8ba3f2a5ea1262</title>
<path fill="none" stroke="black" d="M168.887,-33.3517C184.248,-42.7758 203.316,-55.3088 218.806,-66.0946"/>
<polygon fill="black" stroke="black" points="216.809,-68.969 226.997,-71.8761 220.846,-63.25 216.809,-68.969"/>
<g id="a_edge10&#45;headlabel"><a xlink:href="dir_000093_000073.html" target="_top" xlink:title="1">
<text text-anchor="middle" x="212.235" y="-66.7158" font-family="Helvetica,sans-Serif" font-size="10.00">1</text>
</a>
</g>
</g>
<!-- dir_d3d507863844f6311a74cf28116d817e&#45;&gt;dir_06113b60808b1bbb52a01dfd2c3a8657 -->
<g id="edge19" class="edge"><title>dir_d3d507863844f6311a74cf28116d817e&#45;&gt;dir_06113b60808b1bbb52a01dfd2c3a8657</title>
<path fill="none" stroke="black" d="M480.949,-310.517C436.949,-307.922 358.809,-301.4 334.786,-287 324.433,-280.794 316.054,-270.575 309.826,-260.831"/>
<polygon fill="black" stroke="black" points="312.803,-258.989 304.715,-252.145 306.77,-262.539 312.803,-258.989"/>
<g id="a_edge19&#45;headlabel"><a xlink:href="dir_000075_000076.html" target="_top" xlink:title="2">
<text text-anchor="middle" x="317.073" y="-258.148" font-family="Helvetica,sans-Serif" font-size="10.00">2</text>
</a>
</g>
</g>
<!-- dir_d3d507863844f6311a74cf28116d817e&#45;&gt;dir_c9b08ae6a3cd90292fdc27503a26012a -->
<g id="edge18" class="edge"><title>dir_d3d507863844f6311a74cf28116d817e&#45;&gt;dir_c9b08ae6a3cd90292fdc27503a26012a</title>
<path fill="none" stroke="black" d="M504.24,-294.911C499.882,-285.042 494.309,-272.42 489.403,-261.309"/>
<polygon fill="black" stroke="black" points="492.552,-259.775 485.311,-252.041 486.148,-262.603 492.552,-259.775"/>
<g id="a_edge18&#45;headlabel"><a xlink:href="dir_000075_000078.html" target="_top" xlink:title="1">
<text text-anchor="middle" x="496.601" y="-259.417" font-family="Helvetica,sans-Serif" font-size="10.00">1</text>
</a>
</g>
</g>
<!-- dir_d3d507863844f6311a74cf28116d817e&#45;&gt;dir_5a1bd30bc9919aca01fcd3709dbd4eb3 -->
<g id="edge21" class="edge"><title>dir_d3d507863844f6311a74cf28116d817e&#45;&gt;dir_5a1bd30bc9919aca01fcd3709dbd4eb3</title>
<path fill="none" stroke="black" d="M523.703,-294.788C524.967,-292.269 526.056,-289.634 526.786,-287 535.209,-256.589 542.098,-243.592 526.786,-216 519.033,-202.029 505.897,-191.26 492.24,-183.194"/>
<polygon fill="black" stroke="black" points="493.696,-180.001 483.242,-178.277 490.339,-186.143 493.696,-180.001"/>
<g id="a_edge21&#45;headlabel"><a xlink:href="dir_000075_000081.html" target="_top" xlink:title="1">
<text text-anchor="middle" x="498.212" y="-176.733" font-family="Helvetica,sans-Serif" font-size="10.00">1</text>
</a>
</g>
</g>
<!-- dir_d3d507863844f6311a74cf28116d817e&#45;&gt;dir_a2f0e5642e47e7ed59fe0f0829eafb5f -->
<g id="edge17" class="edge"><title>dir_d3d507863844f6311a74cf28116d817e&#45;&gt;dir_a2f0e5642e47e7ed59fe0f0829eafb5f</title>
<path fill="none" stroke="black" d="M481.271,-311.523C422.162,-310.196 294.381,-305.243 254.786,-287 241.41,-280.837 229.309,-269.963 219.968,-259.746"/>
<polygon fill="black" stroke="black" points="222.581,-257.417 213.388,-252.15 217.29,-262.001 222.581,-257.417"/>
<g id="a_edge17&#45;headlabel"><a xlink:href="dir_000075_000019.html" target="_top" xlink:title="1">
<text text-anchor="middle" x="227.081" y="-255.775" font-family="Helvetica,sans-Serif" font-size="10.00">1</text>
</a>
</g>
</g>
<!-- dir_d3d507863844f6311a74cf28116d817e&#45;&gt;dir_54018506bb725509c19b38b6d9bcf0f6 -->
<g id="edge20" class="edge"><title>dir_d3d507863844f6311a74cf28116d817e&#45;&gt;dir_54018506bb725509c19b38b6d9bcf0f6</title>
<path fill="none" stroke="black" d="M542.356,-307.117C558.858,-303.456 579.016,-297.256 594.786,-287 681.772,-230.431 751.759,-152.089 685.786,-72 659.522,-40.1166 538.518,-26.4981 475.77,-21.4987"/>
<polygon fill="black" stroke="black" points="475.732,-17.9857 465.495,-20.7157 475.2,-24.9655 475.732,-17.9857"/>
<g id="a_edge20&#45;headlabel"><a xlink:href="dir_000075_000082.html" target="_top" xlink:title="2">
<text text-anchor="middle" x="479.532" y="-12.9277" font-family="Helvetica,sans-Serif" font-size="10.00">2</text>
</a>
</g>
</g>
<!-- dir_54018506bb725509c19b38b6d9bcf0f6&#45;&gt;dir_c9b08ae6a3cd90292fdc27503a26012a -->
<g id="edge29" class="edge"><title>dir_54018506bb725509c19b38b6d9bcf0f6&#45;&gt;dir_c9b08ae6a3cd90292fdc27503a26012a</title>
<path fill="none" stroke="black" d="M465.466,-21.3281C520.057,-26.5542 638.434,-41.2451 662.786,-72 692.583,-109.632 691.678,-141.669 662.786,-180 646.546,-201.546 577.16,-217.001 528.153,-225.475"/>
<polygon fill="black" stroke="black" points="527.312,-222.067 518.031,-227.177 528.473,-228.97 527.312,-222.067"/>
<g id="a_edge29&#45;headlabel"><a xlink:href="dir_000082_000078.html" target="_top" xlink:title="1">
<text text-anchor="middle" x="530.386" y="-216.171" font-family="Helvetica,sans-Serif" font-size="10.00">1</text>
</a>
</g>
</g>
<!-- dir_54018506bb725509c19b38b6d9bcf0f6&#45;&gt;dir_aea4ed3fab8ecf600219166580b8618e -->
<g id="edge28" class="edge"><title>dir_54018506bb725509c19b38b6d9bcf0f6&#45;&gt;dir_aea4ed3fab8ecf600219166580b8618e</title>
<path fill="none" stroke="black" d="M465.568,-31.0734C521.501,-57.0251 638.438,-120.596 590.786,-180 544.635,-237.533 499.611,-195.414 428.786,-216 428.687,-216.029 428.588,-216.058 428.489,-216.087"/>
<polygon fill="black" stroke="black" points="427.603,-212.696 419.099,-219.015 429.687,-219.379 427.603,-212.696"/>
<g id="a_edge28&#45;headlabel"><a xlink:href="dir_000082_000079.html" target="_top" xlink:title="2">
<text text-anchor="middle" x="430.19" y="-206.416" font-family="Helvetica,sans-Serif" font-size="10.00">2</text>
</a>
</g>
</g>
<!-- dir_54018506bb725509c19b38b6d9bcf0f6&#45;&gt;dir_f0e5825d12ad74d1d37ba8a4976c5f17 -->
<g id="edge27" class="edge"><title>dir_54018506bb725509c19b38b6d9bcf0f6&#45;&gt;dir_f0e5825d12ad74d1d37ba8a4976c5f17</title>
<path fill="none" stroke="black" d="M450.375,-36.1893C468.516,-60.9582 502.131,-106.856 523.153,-135.558"/>
<polygon fill="black" stroke="black" points="520.509,-137.872 529.241,-143.871 526.156,-133.736 520.509,-137.872"/>
<g id="a_edge27&#45;headlabel"><a xlink:href="dir_000082_000080.html" target="_top" xlink:title="1">
<text text-anchor="middle" x="516.094" y="-134.149" font-family="Helvetica,sans-Serif" font-size="10.00">1</text>
</a>
</g>
</g>
<!-- dir_54018506bb725509c19b38b6d9bcf0f6&#45;&gt;dir_5a1bd30bc9919aca01fcd3709dbd4eb3 -->
<g id="edge31" class="edge"><title>dir_54018506bb725509c19b38b6d9bcf0f6&#45;&gt;dir_5a1bd30bc9919aca01fcd3709dbd4eb3</title>
<path fill="none" stroke="black" d="M438.27,-36.1893C438.953,-60.4244 440.205,-104.888 441.016,-133.679"/>
<polygon fill="black" stroke="black" points="437.523,-133.974 441.304,-143.871 444.52,-133.777 437.523,-133.974"/>
<g id="a_edge31&#45;headlabel"><a xlink:href="dir_000082_000081.html" target="_top" xlink:title="1">
<text text-anchor="middle" x="434.584" y="-127.961" font-family="Helvetica,sans-Serif" font-size="10.00">1</text>
</a>
</g>
</g>
<!-- dir_54018506bb725509c19b38b6d9bcf0f6&#45;&gt;dir_a2f0e5642e47e7ed59fe0f0829eafb5f -->
<g id="edge25" class="edge"><title>dir_54018506bb725509c19b38b6d9bcf0f6&#45;&gt;dir_a2f0e5642e47e7ed59fe0f0829eafb5f</title>
<path fill="none" stroke="black" d="M409.893,-20.6044C358.534,-24.2238 247.175,-35.7822 160.786,-72 120.76,-88.7804 100.829,-89.5042 80.786,-128 70.1131,-148.499 67.9186,-160.802 80.786,-180 99.5156,-207.944 135.912,-221.167 163.843,-227.418"/>
<polygon fill="black" stroke="black" points="163.206,-230.859 173.703,-229.419 164.599,-223.999 163.206,-230.859"/>
<g id="a_edge25&#45;headlabel"><a xlink:href="dir_000082_000019.html" target="_top" xlink:title="53">
<text text-anchor="middle" x="159.118" y="-230.427" font-family="Helvetica,sans-Serif" font-size="10.00">53</text>
</a>
</g>
</g>
<!-- dir_54018506bb725509c19b38b6d9bcf0f6&#45;&gt;dir_7205f054df4e14abb60715afe3e7e90c -->
<g id="edge26" class="edge"><title>dir_54018506bb725509c19b38b6d9bcf0f6&#45;&gt;dir_7205f054df4e14abb60715afe3e7e90c</title>
<path fill="none" stroke="black" d="M410.24,-20.6167C364.793,-24.2625 272.322,-35.869 203.786,-72 173.614,-87.9064 145.825,-115.75 127.994,-136.069"/>
<polygon fill="black" stroke="black" points="125.289,-133.846 121.438,-143.716 130.603,-138.402 125.289,-133.846"/>
<g id="a_edge26&#45;headlabel"><a xlink:href="dir_000082_000074.html" target="_top" xlink:title="2">
<text text-anchor="middle" x="125.473" y="-126.769" font-family="Helvetica,sans-Serif" font-size="10.00">2</text>
</a>
</g>
</g>
<!-- dir_54018506bb725509c19b38b6d9bcf0f6&#45;&gt;dir_d0f3276f03e9a9cb8f8ba3f2a5ea1262 -->
<g id="edge30" class="edge"><title>dir_54018506bb725509c19b38b6d9bcf0f6&#45;&gt;dir_d0f3276f03e9a9cb8f8ba3f2a5ea1262</title>
<path fill="none" stroke="black" d="M410.071,-31.0811C378.47,-43.3646 326.696,-62.3694 289.856,-75.2292"/>
<polygon fill="black" stroke="black" points="288.665,-71.9378 280.363,-78.5203 290.958,-78.5516 288.665,-71.9378"/>
<g id="a_edge30&#45;headlabel"><a xlink:href="dir_000082_000073.html" target="_top" xlink:title="3">
<text text-anchor="middle" x="291.131" y="-65.5778" font-family="Helvetica,sans-Serif" font-size="10.00">3</text>
</a>
</g>
</g>
<!-- dir_d0f3276f03e9a9cb8f8ba3f2a5ea1262&#45;&gt;dir_06113b60808b1bbb52a01dfd2c3a8657 -->
<g id="edge36" class="edge"><title>dir_d0f3276f03e9a9cb8f8ba3f2a5ea1262&#45;&gt;dir_06113b60808b1bbb52a01dfd2c3a8657</title>
<path fill="none" stroke="black" d="M246.37,-108.03C246.487,-126.423 248.347,-156.276 257.786,-180 261.714,-189.872 267.935,-199.566 274.264,-207.908"/>
<polygon fill="black" stroke="black" points="271.567,-210.139 280.549,-215.757 277.031,-205.763 271.567,-210.139"/>
<g id="a_edge36&#45;headlabel"><a xlink:href="dir_000073_000076.html" target="_top" xlink:title="1">
<text text-anchor="middle" x="267.104" y="-206.607" font-family="Helvetica,sans-Serif" font-size="10.00">1</text>
</a>
</g>
</g>
<!-- dir_d0f3276f03e9a9cb8f8ba3f2a5ea1262&#45;&gt;dir_f0e5825d12ad74d1d37ba8a4976c5f17 -->
<g id="edge35" class="edge"><title>dir_d0f3276f03e9a9cb8f8ba3f2a5ea1262&#45;&gt;dir_f0e5825d12ad74d1d37ba8a4976c5f17</title>
<path fill="none" stroke="black" d="M280.438,-91.5369C328.762,-93.3058 419.903,-100.397 491.786,-128 498.44,-130.555 505.115,-134.107 511.322,-137.939"/>
<polygon fill="black" stroke="black" points="509.749,-141.094 520.025,-143.67 513.598,-135.247 509.749,-141.094"/>
<g id="a_edge35&#45;headlabel"><a xlink:href="dir_000073_000080.html" target="_top" xlink:title="1">
<text text-anchor="middle" x="505.185" y="-138.988" font-family="Helvetica,sans-Serif" font-size="10.00">1</text>
</a>
</g>
</g>
<!-- dir_d0f3276f03e9a9cb8f8ba3f2a5ea1262&#45;&gt;dir_a2f0e5642e47e7ed59fe0f0829eafb5f -->
<g id="edge32" class="edge"><title>dir_d0f3276f03e9a9cb8f8ba3f2a5ea1262&#45;&gt;dir_a2f0e5642e47e7ed59fe0f0829eafb5f</title>
<path fill="none" stroke="black" d="M235.098,-108.114C231.368,-114.184 227.506,-121.2 224.786,-128 214.625,-153.397 208.24,-184.055 204.633,-205.668"/>
<polygon fill="black" stroke="black" points="201.139,-205.355 203.038,-215.779 208.054,-206.446 201.139,-205.355"/>
<g id="a_edge32&#45;headlabel"><a xlink:href="dir_000073_000019.html" target="_top" xlink:title="5">
<text text-anchor="middle" x="198.895" y="-198.862" font-family="Helvetica,sans-Serif" font-size="10.00">5</text>
</a>
</g>
</g>
<!-- dir_d0f3276f03e9a9cb8f8ba3f2a5ea1262&#45;&gt;dir_7205f054df4e14abb60715afe3e7e90c -->
<g id="edge33" class="edge"><title>dir_d0f3276f03e9a9cb8f8ba3f2a5ea1262&#45;&gt;dir_7205f054df4e14abb60715afe3e7e90c</title>
<path fill="none" stroke="black" d="M218.825,-108.047C197.294,-119.497 167.519,-134.461 144.154,-145.56"/>
<polygon fill="black" stroke="black" points="142.462,-142.488 134.9,-149.908 145.439,-148.823 142.462,-142.488"/>
<g id="a_edge33&#45;headlabel"><a xlink:href="dir_000073_000074.html" target="_top" xlink:title="1">
<text text-anchor="middle" x="144.508" y="-135.89" font-family="Helvetica,sans-Serif" font-size="10.00">1</text>
</a>
</g>
</g>
<!-- dir_d0f3276f03e9a9cb8f8ba3f2a5ea1262&#45;&gt;dir_eecdbbfa89a6d9af25d920c499e6f44e -->
<g id="edge34" class="edge"><title>dir_d0f3276f03e9a9cb8f8ba3f2a5ea1262&#45;&gt;dir_eecdbbfa89a6d9af25d920c499e6f44e</title>
<path fill="none" stroke="black" d="M215.203,-71.8761C200.789,-62.8931 183.93,-51.7625 169.951,-42.0341"/>
<polygon fill="black" stroke="black" points="171.856,-39.0946 161.667,-36.1898 167.82,-44.8144 171.856,-39.0946"/>
<g id="a_edge34&#45;headlabel"><a xlink:href="dir_000073_000093.html" target="_top" xlink:title="1">
<text text-anchor="middle" x="176.429" y="-36.3467" font-family="Helvetica,sans-Serif" font-size="10.00">1</text>
</a>
</g>
</g>
<!-- dir_d0f3276f03e9a9cb8f8ba3f2a5ea1262&#45;&gt;dir_54018506bb725509c19b38b6d9bcf0f6 -->
<g id="edge37" class="edge"><title>dir_d0f3276f03e9a9cb8f8ba3f2a5ea1262&#45;&gt;dir_54018506bb725509c19b38b6d9bcf0f6</title>
<path fill="none" stroke="black" d="M280.328,-74.6655C313.908,-61.7417 365.271,-42.961 400.204,-30.8624"/>
<polygon fill="black" stroke="black" points="401.714,-34.0446 410.035,-27.4869 399.44,-27.4239 401.714,-34.0446"/>
<g id="a_edge37&#45;headlabel"><a xlink:href="dir_000073_000082.html" target="_top" xlink:title="3">
<text text-anchor="middle" x="399.236" y="-35.3972" font-family="Helvetica,sans-Serif" font-size="10.00">3</text>
</a>
</g>
</g>
</g>
</svg>
