<?xml version="1.0" encoding="UTF-8" standalone="no"?>
<!DOCTYPE svg PUBLIC "-//W3C//DTD SVG 1.1//EN"
 "http://www.w3.org/Graphics/SVG/1.1/DTD/svg11.dtd">
<!-- Generated by graphviz version 2.36.0 (20140111.2315)
 -->
<!-- Title: /home/travis/build/STORM&#45;IRIT/Radium&#45;Engine/src/Core/Animation Pages: 1 -->
<svg width="610pt" height="591pt"
 viewBox="0.00 0.00 610.00 591.00" xmlns="http://www.w3.org/2000/svg" xmlns:xlink="http://www.w3.org/1999/xlink">
<g id="graph0" class="graph" transform="scale(1 1) rotate(0) translate(4 587)">
<title>/home/travis/build/STORM&#45;IRIT/Radium&#45;Engine/src/Core/Animation</title>
<polygon fill="white" stroke="none" points="-4,4 -4,-587 606,-587 606,4 -4,4"/>
<g id="clust1" class="cluster"><title>clusterdir_a2f0e5642e47e7ed59fe0f0829eafb5f</title>
<g id="a_clust1"><a xlink:href="dir_a2f0e5642e47e7ed59fe0f0829eafb5f.html" target="_top" xlink:title="Core">
<polygon fill="#ddddee" stroke="black" points="252,-344 252,-575 514,-575 514,-344 252,-344"/>
<text text-anchor="middle" x="383" y="-563" font-family="Helvetica,sans-Serif" font-size="10.00">Core</text>
</a>
</g>
</g>
<g id="clust2" class="cluster"><title>clusterdir_721a74ea40d2768c46a3c9514389a16b</title>
<g id="a_clust2"><a xlink:href="dir_721a74ea40d2768c46a3c9514389a16b.html" target="_top">
<polygon fill="#eeeeff" stroke="black" points="260,-352 260,-548 506,-548 506,-352 260,-352"/>
</a>
</g>
</g>
<!-- dir_721a74ea40d2768c46a3c9514389a16b -->
<g id="node1" class="node"><title>dir_721a74ea40d2768c46a3c9514389a16b</title>
<text text-anchor="middle" x="390" y="-447.5" font-family="Helvetica,sans-Serif" font-size="10.00">Animation</text>
</g>
<!-- dir_2c6b9e60b5cfd48e3d1f71fa90957520 -->
<g id="node3" class="node"><title>dir_2c6b9e60b5cfd48e3d1f71fa90957520</title>
<g id="a_node3"><a xlink:href="dir_2c6b9e60b5cfd48e3d1f71fa90957520.html" target="_top" xlink:title="Pose">
<polygon fill="white" stroke="black" points="392,-396 338,-396 338,-360 392,-360 392,-396"/>
<text text-anchor="middle" x="365" y="-375.5" font-family="Helvetica,sans-Serif" font-size="10.00">Pose</text>
</a>
</g>
</g>
<!-- dir_721a74ea40d2768c46a3c9514389a16b&#45;&gt;dir_2c6b9e60b5cfd48e3d1f71fa90957520 -->
<g id="edge37" class="edge"><title>dir_721a74ea40d2768c46a3c9514389a16b&#45;&gt;dir_2c6b9e60b5cfd48e3d1f71fa90957520</title>
<path fill="none" stroke="black" d="M383.82,-431.697C381.005,-423.813 377.609,-414.304 374.481,-405.546"/>
<polygon fill="black" stroke="black" points="377.768,-404.345 371.109,-396.104 371.176,-406.699 377.768,-404.345"/>
<g id="a_edge37&#45;headlabel"><a xlink:href="dir_000027_000029.html" target="_top" xlink:title="9">
<text text-anchor="middle" x="381.651" y="-404.275" font-family="Helvetica,sans-Serif" font-size="10.00">9</text>
</a>
</g>
</g>
<!-- dir_91c141b8e78af59a0323020451a6b6a2 -->
<g id="node2" class="node"><title>dir_91c141b8e78af59a0323020451a6b6a2</title>
<g id="a_node2"><a xlink:href="dir_91c141b8e78af59a0323020451a6b6a2.html" target="_top" xlink:title="Handle">
<polygon fill="white" stroke="black" points="322,-468 268,-468 268,-432 322,-432 322,-468"/>
<text text-anchor="middle" x="295" y="-447.5" font-family="Helvetica,sans-Serif" font-size="10.00">Handle</text>
</a>
</g>
</g>
<!-- dir_91c141b8e78af59a0323020451a6b6a2&#45;&gt;dir_2c6b9e60b5cfd48e3d1f71fa90957520 -->
<g id="edge3" class="edge"><title>dir_91c141b8e78af59a0323020451a6b6a2&#45;&gt;dir_2c6b9e60b5cfd48e3d1f71fa90957520</title>
<path fill="none" stroke="black" d="M312.303,-431.697C320.865,-423.135 331.344,-412.656 340.696,-403.304"/>
<polygon fill="black" stroke="black" points="343.299,-405.65 347.896,-396.104 338.35,-400.701 343.299,-405.65"/>
<g id="a_edge3&#45;headlabel"><a xlink:href="dir_000028_000029.html" target="_top" xlink:title="1">
<text text-anchor="middle" x="342.765" y="-407.7" font-family="Helvetica,sans-Serif" font-size="10.00">1</text>
</a>
</g>
</g>
<!-- dir_1456dd235032e023892318efbecb420b -->
<g id="node6" class="node"><title>dir_1456dd235032e023892318efbecb420b</title>
<g id="a_node6"><a xlink:href="dir_1456dd235032e023892318efbecb420b.html" target="_top" xlink:title="Containers">
<polygon fill="none" stroke="black" points="244,-396 180,-396 180,-360 244,-360 244,-396"/>
<text text-anchor="middle" x="212" y="-375.5" font-family="Helvetica,sans-Serif" font-size="10.00">Containers</text>
</a>
</g>
</g>
<!-- dir_91c141b8e78af59a0323020451a6b6a2&#45;&gt;dir_1456dd235032e023892318efbecb420b -->
<g id="edge4" class="edge"><title>dir_91c141b8e78af59a0323020451a6b6a2&#45;&gt;dir_1456dd235032e023892318efbecb420b</title>
<path fill="none" stroke="black" d="M274.483,-431.697C264.131,-422.965 251.414,-412.24 240.161,-402.75"/>
<polygon fill="black" stroke="black" points="242.182,-399.876 232.281,-396.104 237.669,-405.227 242.182,-399.876"/>
<g id="a_edge4&#45;headlabel"><a xlink:href="dir_000028_000032.html" target="_top" xlink:title="2">
<text text-anchor="middle" x="246.76" y="-397.523" font-family="Helvetica,sans-Serif" font-size="10.00">2</text>
</a>
</g>
</g>
<!-- dir_d080e052e6032887076b6b5756e5361d -->
<g id="node7" class="node"><title>dir_d080e052e6032887076b6b5756e5361d</title>
<g id="a_node7"><a xlink:href="dir_d080e052e6032887076b6b5756e5361d.html" target="_top" xlink:title="Mesh">
<polygon fill="white" stroke="red" points="304,-108 250,-108 250,-72 304,-72 304,-108"/>
<text text-anchor="middle" x="277" y="-87.5" font-family="Helvetica,sans-Serif" font-size="10.00">Mesh</text>
</a>
</g>
</g>
<!-- dir_91c141b8e78af59a0323020451a6b6a2&#45;&gt;dir_d080e052e6032887076b6b5756e5361d -->
<g id="edge5" class="edge"><title>dir_91c141b8e78af59a0323020451a6b6a2&#45;&gt;dir_d080e052e6032887076b6b5756e5361d</title>
<path fill="none" stroke="black" d="M322.229,-438.554C350.075,-427.34 390.673,-409.341 401,-396 425.758,-364.016 420,-347.447 420,-307 420,-307 420,-307 420,-233 420,-172.861 355.532,-129.464 313.168,-107.438"/>
<polygon fill="black" stroke="black" points="314.739,-104.311 304.234,-102.937 311.589,-110.562 314.739,-104.311"/>
<g id="a_edge5&#45;headlabel"><a xlink:href="dir_000028_000053.html" target="_top" xlink:title="1">
<text text-anchor="middle" x="319.227" y="-100.893" font-family="Helvetica,sans-Serif" font-size="10.00">1</text>
</a>
</g>
</g>
<!-- dir_a1f42069ba95676f6b9abbd5065ccf6d -->
<g id="node8" class="node"><title>dir_a1f42069ba95676f6b9abbd5065ccf6d</title>
<g id="a_node8"><a xlink:href="dir_a1f42069ba95676f6b9abbd5065ccf6d.html" target="_top" xlink:title="Math">
<polygon fill="none" stroke="black" points="386,-324 332,-324 332,-288 386,-288 386,-324"/>
<text text-anchor="middle" x="359" y="-303.5" font-family="Helvetica,sans-Serif" font-size="10.00">Math</text>
</a>
</g>
</g>
<!-- dir_91c141b8e78af59a0323020451a6b6a2&#45;&gt;dir_a1f42069ba95676f6b9abbd5065ccf6d -->
<g id="edge6" class="edge"><title>dir_91c141b8e78af59a0323020451a6b6a2&#45;&gt;dir_a1f42069ba95676f6b9abbd5065ccf6d</title>
<path fill="none" stroke="black" d="M298.502,-431.86C303.336,-410.408 313.28,-372.966 329,-344 331.189,-339.966 333.839,-335.942 336.647,-332.114"/>
<polygon fill="black" stroke="black" points="339.505,-334.142 342.93,-324.116 334,-329.818 339.505,-334.142"/>
<g id="a_edge6&#45;headlabel"><a xlink:href="dir_000028_000052.html" target="_top" xlink:title="2">
<text text-anchor="middle" x="339.517" y="-336.223" font-family="Helvetica,sans-Serif" font-size="10.00">2</text>
</a>
</g>
</g>
<!-- dir_1efe152df2f2e9cd3517b1174a4598d7 -->
<g id="node10" class="node"><title>dir_1efe152df2f2e9cd3517b1174a4598d7</title>
<g id="a_node10"><a xlink:href="dir_1efe152df2f2e9cd3517b1174a4598d7.html" target="_top" xlink:title="Log">
<polygon fill="none" stroke="black" points="162,-36 108,-36 108,-0 162,-0 162,-36"/>
<text text-anchor="middle" x="135" y="-15.5" font-family="Helvetica,sans-Serif" font-size="10.00">Log</text>
</a>
</g>
</g>
<!-- dir_91c141b8e78af59a0323020451a6b6a2&#45;&gt;dir_1efe152df2f2e9cd3517b1174a4598d7 -->
<g id="edge7" class="edge"><title>dir_91c141b8e78af59a0323020451a6b6a2&#45;&gt;dir_1efe152df2f2e9cd3517b1174a4598d7</title>
<path fill="none" stroke="black" d="M267.91,-445.238C234.947,-439.499 179.001,-425.894 141,-396 74.2365,-343.479 38,-319.946 38,-235 38,-235 38,-235 38,-161 38,-112.697 76.7427,-68.7317 105.258,-42.9141"/>
<polygon fill="black" stroke="black" points="107.785,-45.3534 112.989,-36.1249 103.166,-40.0936 107.785,-45.3534"/>
<g id="a_edge7&#45;headlabel"><a xlink:href="dir_000028_000051.html" target="_top" xlink:title="1">
<text text-anchor="middle" x="106.957" y="-47.3587" font-family="Helvetica,sans-Serif" font-size="10.00">1</text>
</a>
</g>
</g>
<!-- dir_ff87cf903db18af0fdb6c342683ece25 -->
<g id="node12" class="node"><title>dir_ff87cf903db18af0fdb6c342683ece25</title>
<g id="a_node12"><a xlink:href="dir_ff87cf903db18af0fdb6c342683ece25.html" target="_top" xlink:title="Utils">
<polygon fill="white" stroke="red" points="162,-180 108,-180 108,-144 162,-144 162,-180"/>
<text text-anchor="middle" x="135" y="-159.5" font-family="Helvetica,sans-Serif" font-size="10.00">Utils</text>
</a>
</g>
</g>
<!-- dir_91c141b8e78af59a0323020451a6b6a2&#45;&gt;dir_ff87cf903db18af0fdb6c342683ece25 -->
<g id="edge8" class="edge"><title>dir_91c141b8e78af59a0323020451a6b6a2&#45;&gt;dir_ff87cf903db18af0fdb6c342683ece25</title>
<path fill="none" stroke="black" d="M267.892,-444.895C239.374,-439.103 195.325,-425.706 171,-396 122.042,-336.212 125.715,-237.886 131.018,-190.381"/>
<polygon fill="black" stroke="black" points="134.517,-190.6 132.263,-180.247 127.57,-189.746 134.517,-190.6"/>
<g id="a_edge8&#45;headlabel"><a xlink:href="dir_000028_000070.html" target="_top" xlink:title="1">
<text text-anchor="middle" x="136.897" y="-192.014" font-family="Helvetica,sans-Serif" font-size="10.00">1</text>
</a>
</g>
</g>
<!-- dir_2c6b9e60b5cfd48e3d1f71fa90957520&#45;&gt;dir_1456dd235032e023892318efbecb420b -->
<g id="edge1" class="edge"><title>dir_2c6b9e60b5cfd48e3d1f71fa90957520&#45;&gt;dir_1456dd235032e023892318efbecb420b</title>
<path fill="none" stroke="black" d="M337.648,-378C309.927,-378 282.207,-378 254.486,-378"/>
<polygon fill="black" stroke="black" points="254.273,-374.5 244.273,-378 254.273,-381.5 254.273,-374.5"/>
<g id="a_edge1&#45;headlabel"><a xlink:href="dir_000029_000032.html" target="_top" xlink:title="1">
<text text-anchor="middle" x="257.868" y="-369.161" font-family="Helvetica,sans-Serif" font-size="10.00">1</text>
</a>
</g>
</g>
<!-- dir_2c6b9e60b5cfd48e3d1f71fa90957520&#45;&gt;dir_a1f42069ba95676f6b9abbd5065ccf6d -->
<g id="edge2" class="edge"><title>dir_2c6b9e60b5cfd48e3d1f71fa90957520&#45;&gt;dir_a1f42069ba95676f6b9abbd5065ccf6d</title>
<path fill="none" stroke="black" d="M363.517,-359.697C362.856,-351.983 362.061,-342.712 361.324,-334.112"/>
<polygon fill="black" stroke="black" points="364.807,-333.769 360.466,-324.104 357.833,-334.367 364.807,-333.769"/>
<g id="a_edge2&#45;headlabel"><a xlink:href="dir_000029_000052.html" target="_top" xlink:title="1">
<text text-anchor="middle" x="367.943" y="-334.608" font-family="Helvetica,sans-Serif" font-size="10.00">1</text>
</a>
</g>
</g>
<!-- dir_ac0fb383670ee9a1ad8b9b2a6c61a316 -->
<g id="node4" class="node"><title>dir_ac0fb383670ee9a1ad8b9b2a6c61a316</title>
<g id="a_node4"><a xlink:href="dir_ac0fb383670ee9a1ad8b9b2a6c61a316.html" target="_top" xlink:title="Sequence">
<polygon fill="white" stroke="black" points="497.5,-468 438.5,-468 438.5,-432 497.5,-432 497.5,-468"/>
<text text-anchor="middle" x="468" y="-447.5" font-family="Helvetica,sans-Serif" font-size="10.00">Sequence</text>
</a>
</g>
</g>
<!-- dir_ac0fb383670ee9a1ad8b9b2a6c61a316&#45;&gt;dir_2c6b9e60b5cfd48e3d1f71fa90957520 -->
<g id="edge35" class="edge"><title>dir_ac0fb383670ee9a1ad8b9b2a6c61a316&#45;&gt;dir_2c6b9e60b5cfd48e3d1f71fa90957520</title>
<path fill="none" stroke="black" d="M442.803,-431.876C429.586,-422.893 413.208,-411.763 398.893,-402.034"/>
<polygon fill="black" stroke="black" points="400.532,-398.916 390.293,-396.19 396.597,-404.705 400.532,-398.916"/>
<g id="a_edge35&#45;headlabel"><a xlink:href="dir_000030_000029.html" target="_top" xlink:title="1">
<text text-anchor="middle" x="405.101" y="-396.088" font-family="Helvetica,sans-Serif" font-size="10.00">1</text>
</a>
</g>
</g>
<!-- dir_f5906172d2c9558d453eb81ef8e5bf93 -->
<g id="node11" class="node"><title>dir_f5906172d2c9558d453eb81ef8e5bf93</title>
<g id="a_node11"><a xlink:href="dir_f5906172d2c9558d453eb81ef8e5bf93.html" target="_top" xlink:title="Index">
<polygon fill="none" stroke="black" points="441,-36 387,-36 387,-0 441,-0 441,-36"/>
<text text-anchor="middle" x="414" y="-15.5" font-family="Helvetica,sans-Serif" font-size="10.00">Index</text>
</a>
</g>
</g>
<!-- dir_ac0fb383670ee9a1ad8b9b2a6c61a316&#45;&gt;dir_f5906172d2c9558d453eb81ef8e5bf93 -->
<g id="edge36" class="edge"><title>dir_ac0fb383670ee9a1ad8b9b2a6c61a316&#45;&gt;dir_f5906172d2c9558d453eb81ef8e5bf93</title>
<path fill="none" stroke="black" d="M465.85,-431.878C457.552,-365.804 427.573,-127.085 417.403,-46.0957"/>
<polygon fill="black" stroke="black" points="420.875,-45.6567 416.156,-36.1708 413.93,-46.529 420.875,-45.6567"/>
<g id="a_edge36&#45;headlabel"><a xlink:href="dir_000030_000050.html" target="_top" xlink:title="1">
<text text-anchor="middle" x="424.14" y="-46.3696" font-family="Helvetica,sans-Serif" font-size="10.00">1</text>
</a>
</g>
</g>
<!-- dir_7370db5ffd6e13fa616902e0fbacb1f0 -->
<g id="node5" class="node"><title>dir_7370db5ffd6e13fa616902e0fbacb1f0</title>
<g id="a_node5"><a xlink:href="dir_7370db5ffd6e13fa616902e0fbacb1f0.html" target="_top" xlink:title="Skinning">
<polygon fill="white" stroke="black" points="322,-540 268,-540 268,-504 322,-504 322,-540"/>
<text text-anchor="middle" x="295" y="-519.5" font-family="Helvetica,sans-Serif" font-size="10.00">Skinning</text>
</a>
</g>
</g>
<!-- dir_7370db5ffd6e13fa616902e0fbacb1f0&#45;&gt;dir_91c141b8e78af59a0323020451a6b6a2 -->
<g id="edge17" class="edge"><title>dir_7370db5ffd6e13fa616902e0fbacb1f0&#45;&gt;dir_91c141b8e78af59a0323020451a6b6a2</title>
<path fill="none" stroke="black" d="M295,-503.697C295,-495.983 295,-486.712 295,-478.112"/>
<polygon fill="black" stroke="black" points="298.5,-478.104 295,-468.104 291.5,-478.104 298.5,-478.104"/>
<g id="a_edge17&#45;headlabel"><a xlink:href="dir_000031_000028.html" target="_top" xlink:title="5">
<text text-anchor="middle" x="301.339" y="-479.199" font-family="Helvetica,sans-Serif" font-size="10.00">5</text>
</a>
</g>
</g>
<!-- dir_7370db5ffd6e13fa616902e0fbacb1f0&#45;&gt;dir_2c6b9e60b5cfd48e3d1f71fa90957520 -->
<g id="edge16" class="edge"><title>dir_7370db5ffd6e13fa616902e0fbacb1f0&#45;&gt;dir_2c6b9e60b5cfd48e3d1f71fa90957520</title>
<path fill="none" stroke="black" d="M308.061,-503.968C315.415,-493.874 324.415,-480.624 331,-468 341.472,-447.924 350.467,-423.869 356.569,-405.832"/>
<polygon fill="black" stroke="black" points="359.925,-406.832 359.736,-396.239 353.278,-404.638 359.925,-406.832"/>
<g id="a_edge16&#45;headlabel"><a xlink:href="dir_000031_000029.html" target="_top" xlink:title="5">
<text text-anchor="middle" x="361.495" y="-408.635" font-family="Helvetica,sans-Serif" font-size="10.00">5</text>
</a>
</g>
</g>
<!-- dir_7370db5ffd6e13fa616902e0fbacb1f0&#45;&gt;dir_1456dd235032e023892318efbecb420b -->
<g id="edge18" class="edge"><title>dir_7370db5ffd6e13fa616902e0fbacb1f0&#45;&gt;dir_1456dd235032e023892318efbecb420b</title>
<path fill="none" stroke="black" d="M282.502,-503.652C275.336,-493.453 266.336,-480.203 259,-468 246.618,-447.403 233.975,-423.25 224.925,-405.306"/>
<polygon fill="black" stroke="black" points="227.894,-403.417 220.292,-396.038 221.633,-406.548 227.894,-403.417"/>
<g id="a_edge18&#45;headlabel"><a xlink:href="dir_000031_000032.html" target="_top" xlink:title="4">
<text text-anchor="middle" x="232.041" y="-402.863" font-family="Helvetica,sans-Serif" font-size="10.00">4</text>
</a>
</g>
</g>
<!-- dir_7370db5ffd6e13fa616902e0fbacb1f0&#45;&gt;dir_d080e052e6032887076b6b5756e5361d -->
<g id="edge19" class="edge"><title>dir_7370db5ffd6e13fa616902e0fbacb1f0&#45;&gt;dir_d080e052e6032887076b6b5756e5361d</title>
<path fill="none" stroke="black" d="M322.13,-518.904C377.567,-513.998 500.749,-499.701 526,-468 622.264,-347.148 511.111,-251.361 400,-144 376.128,-120.934 340.63,-107.111 313.896,-99.3965"/>
<polygon fill="black" stroke="black" points="314.69,-95.9854 304.122,-96.7322 312.849,-102.739 314.69,-95.9854"/>
<g id="a_edge19&#45;headlabel"><a xlink:href="dir_000031_000053.html" target="_top" xlink:title="6">
<text text-anchor="middle" x="318.905" y="-91.6913" font-family="Helvetica,sans-Serif" font-size="10.00">6</text>
</a>
</g>
</g>
<!-- dir_7370db5ffd6e13fa616902e0fbacb1f0&#45;&gt;dir_a1f42069ba95676f6b9abbd5065ccf6d -->
<g id="edge20" class="edge"><title>dir_7370db5ffd6e13fa616902e0fbacb1f0&#45;&gt;dir_a1f42069ba95676f6b9abbd5065ccf6d</title>
<path fill="none" stroke="black" d="M322.169,-518.263C373.914,-512.43 483.469,-496.89 506,-468 549.437,-412.304 451.436,-352.257 395.118,-323.797"/>
<polygon fill="black" stroke="black" points="396.646,-320.648 386.132,-319.344 393.538,-326.92 396.646,-320.648"/>
<g id="a_edge20&#45;headlabel"><a xlink:href="dir_000031_000052.html" target="_top" xlink:title="4">
<text text-anchor="middle" x="401.128" y="-317.2" font-family="Helvetica,sans-Serif" font-size="10.00">4</text>
</a>
</g>
</g>
<!-- dir_cb2b5dfd43482fb277f6333d539f1f06 -->
<g id="node9" class="node"><title>dir_cb2b5dfd43482fb277f6333d539f1f06</title>
<g id="a_node9"><a xlink:href="dir_cb2b5dfd43482fb277f6333d539f1f06.html" target="_top" xlink:title="Geometry">
<polygon fill="white" stroke="red" points="306.25,-252 247.75,-252 247.75,-216 306.25,-216 306.25,-252"/>
<text text-anchor="middle" x="277" y="-231.5" font-family="Helvetica,sans-Serif" font-size="10.00">Geometry</text>
</a>
</g>
</g>
<!-- dir_7370db5ffd6e13fa616902e0fbacb1f0&#45;&gt;dir_cb2b5dfd43482fb277f6333d539f1f06 -->
<g id="edge21" class="edge"><title>dir_7370db5ffd6e13fa616902e0fbacb1f0&#45;&gt;dir_cb2b5dfd43482fb277f6333d539f1f06</title>
<path fill="none" stroke="black" d="M267.924,-504.022C237.36,-483.017 189.49,-444.074 171,-396 162.704,-374.429 162.305,-365.413 171,-344 185.454,-308.404 217.736,-278.05 242.902,-258.484"/>
<polygon fill="black" stroke="black" points="245.258,-261.091 251.128,-252.27 241.039,-255.505 245.258,-261.091"/>
<g id="a_edge21&#45;headlabel"><a xlink:href="dir_000031_000037.html" target="_top" xlink:title="1">
<text text-anchor="middle" x="244.102" y="-263.023" font-family="Helvetica,sans-Serif" font-size="10.00">1</text>
</a>
</g>
</g>
<!-- dir_7370db5ffd6e13fa616902e0fbacb1f0&#45;&gt;dir_1efe152df2f2e9cd3517b1174a4598d7 -->
<g id="edge22" class="edge"><title>dir_7370db5ffd6e13fa616902e0fbacb1f0&#45;&gt;dir_1efe152df2f2e9cd3517b1174a4598d7</title>
<path fill="none" stroke="black" d="M267.776,-520.365C194.746,-517.077 0,-497.227 0,-379 0,-379 0,-379 0,-161 0,-103.565 58.7278,-60.1209 98.7143,-37.1973"/>
<polygon fill="black" stroke="black" points="100.638,-40.1324 107.681,-32.2171 97.2392,-34.013 100.638,-40.1324"/>
<g id="a_edge22&#45;headlabel"><a xlink:href="dir_000031_000051.html" target="_top" xlink:title="1">
<text text-anchor="middle" x="98.8744" y="-41.8599" font-family="Helvetica,sans-Serif" font-size="10.00">1</text>
</a>
</g>
</g>
<!-- dir_7370db5ffd6e13fa616902e0fbacb1f0&#45;&gt;dir_f5906172d2c9558d453eb81ef8e5bf93 -->
<g id="edge23" class="edge"><title>dir_7370db5ffd6e13fa616902e0fbacb1f0&#45;&gt;dir_f5906172d2c9558d453eb81ef8e5bf93</title>
<path fill="none" stroke="black" d="M322.106,-518.266C380.408,-511.937 515.404,-494.748 552,-468 588.63,-441.228 602,-424.37 602,-379 602,-379 602,-379 602,-161 602,-86.1051 505.823,-45.7028 451.05,-28.7662"/>
<polygon fill="black" stroke="black" points="451.92,-25.3734 441.337,-25.8738 449.922,-32.0823 451.92,-25.3734"/>
<g id="a_edge23&#45;headlabel"><a xlink:href="dir_000031_000050.html" target="_top" xlink:title="1">
<text text-anchor="middle" x="456.175" y="-21.1781" font-family="Helvetica,sans-Serif" font-size="10.00">1</text>
</a>
</g>
</g>
<!-- dir_7370db5ffd6e13fa616902e0fbacb1f0&#45;&gt;dir_ff87cf903db18af0fdb6c342683ece25 -->
<g id="edge24" class="edge"><title>dir_7370db5ffd6e13fa616902e0fbacb1f0&#45;&gt;dir_ff87cf903db18af0fdb6c342683ece25</title>
<path fill="none" stroke="black" d="M267.539,-513.374C243.725,-505.505 209.754,-491.082 188,-468 119.413,-395.227 126.388,-351.99 125,-252 124.778,-236.002 123.51,-231.93 125,-216 125.797,-207.478 127.3,-198.285 128.903,-189.986"/>
<polygon fill="black" stroke="black" points="132.355,-190.571 130.941,-180.071 125.499,-189.161 132.355,-190.571"/>
<g id="a_edge24&#45;headlabel"><a xlink:href="dir_000031_000070.html" target="_top" xlink:title="1">
<text text-anchor="middle" x="134.413" y="-192.163" font-family="Helvetica,sans-Serif" font-size="10.00">1</text>
</a>
</g>
</g>
<!-- dir_1456dd235032e023892318efbecb420b&#45;&gt;dir_a1f42069ba95676f6b9abbd5065ccf6d -->
<g id="edge9" class="edge"><title>dir_1456dd235032e023892318efbecb420b&#45;&gt;dir_a1f42069ba95676f6b9abbd5065ccf6d</title>
<path fill="none" stroke="black" d="M223.684,-359.878C230.383,-354.315 238.762,-348.438 247,-344 270.499,-331.339 299.225,-321.432 321.852,-315.068"/>
<polygon fill="black" stroke="black" points="323.032,-318.376 331.778,-312.397 321.212,-311.616 323.032,-318.376"/>
<g id="a_edge9&#45;headlabel"><a xlink:href="dir_000032_000052.html" target="_top" xlink:title="1">
<text text-anchor="middle" x="320.298" y="-319.551" font-family="Helvetica,sans-Serif" font-size="10.00">1</text>
</a>
</g>
</g>
<!-- dir_d080e052e6032887076b6b5756e5361d&#45;&gt;dir_1456dd235032e023892318efbecb420b -->
<g id="edge10" class="edge"><title>dir_d080e052e6032887076b6b5756e5361d&#45;&gt;dir_1456dd235032e023892318efbecb420b</title>
<path fill="none" stroke="black" d="M270.785,-108.175C262.336,-132.072 247.223,-176.834 238,-216 227.038,-262.55 219.223,-317.761 215.174,-349.939"/>
<polygon fill="black" stroke="black" points="211.693,-349.571 213.946,-359.923 218.641,-350.425 211.693,-349.571"/>
<g id="a_edge10&#45;headlabel"><a xlink:href="dir_000053_000032.html" target="_top" xlink:title="4">
<text text-anchor="middle" x="209.314" y="-343.156" font-family="Helvetica,sans-Serif" font-size="10.00">4</text>
</a>
</g>
</g>
<!-- dir_d080e052e6032887076b6b5756e5361d&#45;&gt;dir_a1f42069ba95676f6b9abbd5065ccf6d -->
<g id="edge11" class="edge"><title>dir_d080e052e6032887076b6b5756e5361d&#45;&gt;dir_a1f42069ba95676f6b9abbd5065ccf6d</title>
<path fill="none" stroke="black" d="M292.534,-108.08C298.304,-118.414 304.159,-131.892 309,-144 327.667,-190.688 347.385,-245.855 356.057,-277.987"/>
<polygon fill="black" stroke="black" points="352.729,-279.107 358.556,-287.956 359.519,-277.405 352.729,-279.107"/>
<g id="a_edge11&#45;headlabel"><a xlink:href="dir_000053_000052.html" target="_top" xlink:title="8">
<text text-anchor="middle" x="349.101" y="-273.811" font-family="Helvetica,sans-Serif" font-size="10.00">8</text>
</a>
</g>
</g>
<!-- dir_d080e052e6032887076b6b5756e5361d&#45;&gt;dir_cb2b5dfd43482fb277f6333d539f1f06 -->
<g id="edge12" class="edge"><title>dir_d080e052e6032887076b6b5756e5361d&#45;&gt;dir_cb2b5dfd43482fb277f6333d539f1f06</title>
<path fill="none" stroke="black" d="M281.591,-108.189C284.145,-132.424 284.433,-176.888 282.454,-205.679"/>
<polygon fill="black" stroke="black" points="278.947,-205.61 281.584,-215.871 285.922,-206.205 278.947,-205.61"/>
<g id="a_edge12&#45;headlabel"><a xlink:href="dir_000053_000037.html" target="_top" xlink:title="2">
<text text-anchor="middle" x="276.424" y="-199.287" font-family="Helvetica,sans-Serif" font-size="10.00">2</text>
</a>
</g>
</g>
<!-- dir_d080e052e6032887076b6b5756e5361d&#45;&gt;dir_1efe152df2f2e9cd3517b1174a4598d7 -->
<g id="edge13" class="edge"><title>dir_d080e052e6032887076b6b5756e5361d&#45;&gt;dir_1efe152df2f2e9cd3517b1174a4598d7</title>
<path fill="none" stroke="black" d="M249.957,-75.6688C227.694,-64.6945 195.927,-49.0343 171.426,-36.9564"/>
<polygon fill="black" stroke="black" points="172.943,-33.8023 162.426,-32.52 169.848,-40.0809 172.943,-33.8023"/>
<g id="a_edge13&#45;headlabel"><a xlink:href="dir_000053_000051.html" target="_top" xlink:title="3">
<text text-anchor="middle" x="177.423" y="-30.345" font-family="Helvetica,sans-Serif" font-size="10.00">3</text>
</a>
</g>
</g>
<!-- dir_d080e052e6032887076b6b5756e5361d&#45;&gt;dir_f5906172d2c9558d453eb81ef8e5bf93 -->
<g id="edge14" class="edge"><title>dir_d080e052e6032887076b6b5756e5361d&#45;&gt;dir_f5906172d2c9558d453eb81ef8e5bf93</title>
<path fill="none" stroke="black" d="M304.067,-75.1703C325.176,-64.3844 354.695,-49.3019 377.829,-37.4813"/>
<polygon fill="black" stroke="black" points="379.677,-40.4678 386.989,-32.801 376.492,-34.2343 379.677,-40.4678"/>
<g id="a_edge14&#45;headlabel"><a xlink:href="dir_000053_000050.html" target="_top" xlink:title="14">
<text text-anchor="middle" x="377.768" y="-42.1316" font-family="Helvetica,sans-Serif" font-size="10.00">14</text>
</a>
</g>
</g>
<!-- dir_d080e052e6032887076b6b5756e5361d&#45;&gt;dir_ff87cf903db18af0fdb6c342683ece25 -->
<g id="edge15" class="edge"><title>dir_d080e052e6032887076b6b5756e5361d&#45;&gt;dir_ff87cf903db18af0fdb6c342683ece25</title>
<path fill="none" stroke="black" d="M249.951,-107.191C227.687,-118.811 196.095,-134.366 171.594,-145.763"/>
<polygon fill="black" stroke="black" points="169.871,-142.703 162.25,-150.062 172.797,-149.062 169.871,-142.703"/>
<g id="a_edge15&#45;headlabel"><a xlink:href="dir_000053_000070.html" target="_top" xlink:title="2">
<text text-anchor="middle" x="171.95" y="-136.121" font-family="Helvetica,sans-Serif" font-size="10.00">2</text>
</a>
</g>
</g>
<!-- dir_a1f42069ba95676f6b9abbd5065ccf6d&#45;&gt;dir_1456dd235032e023892318efbecb420b -->
<g id="edge25" class="edge"><title>dir_a1f42069ba95676f6b9abbd5065ccf6d&#45;&gt;dir_1456dd235032e023892318efbecb420b</title>
<path fill="none" stroke="black" d="M331.884,-316.7C312.564,-323.07 286.578,-332.374 265,-344 259.722,-346.843 254.387,-350.277 249.207,-353.84"/>
<polygon fill="black" stroke="black" points="246.816,-351.245 240.674,-359.878 250.859,-356.959 246.816,-351.245"/>
<g id="a_edge25&#45;headlabel"><a xlink:href="dir_000052_000032.html" target="_top" xlink:title="3">
<text text-anchor="middle" x="248.11" y="-344.351" font-family="Helvetica,sans-Serif" font-size="10.00">3</text>
</a>
</g>
</g>
<!-- dir_a1f42069ba95676f6b9abbd5065ccf6d&#45;&gt;dir_d080e052e6032887076b6b5756e5361d -->
<g id="edge26" class="edge"><title>dir_a1f42069ba95676f6b9abbd5065ccf6d&#45;&gt;dir_d080e052e6032887076b6b5756e5361d</title>
<path fill="none" stroke="black" d="M347.685,-287.956C333.857,-258.435 311.777,-195.966 291,-144 287.558,-135.392 283.604,-126.092 280.379,-117.721"/>
<polygon fill="black" stroke="black" points="283.585,-116.292 276.891,-108.08 277.002,-118.674 283.585,-116.292"/>
<g id="a_edge26&#45;headlabel"><a xlink:href="dir_000052_000053.html" target="_top" xlink:title="1">
<text text-anchor="middle" x="287.477" y="-116.206" font-family="Helvetica,sans-Serif" font-size="10.00">1</text>
</a>
</g>
</g>
<!-- dir_a1f42069ba95676f6b9abbd5065ccf6d&#45;&gt;dir_cb2b5dfd43482fb277f6333d539f1f06 -->
<g id="edge27" class="edge"><title>dir_a1f42069ba95676f6b9abbd5065ccf6d&#45;&gt;dir_cb2b5dfd43482fb277f6333d539f1f06</title>
<path fill="none" stroke="black" d="M332.815,-287.697C321.794,-279.05 309.198,-268.449 298.7,-259.027"/>
<polygon fill="black" stroke="black" points="300.88,-256.277 291.141,-252.104 296.152,-261.44 300.88,-256.277"/>
<g id="a_edge27&#45;headlabel"><a xlink:href="dir_000052_000037.html" target="_top" xlink:title="2">
<text text-anchor="middle" x="305.448" y="-254.112" font-family="Helvetica,sans-Serif" font-size="10.00">2</text>
</a>
</g>
</g>
<!-- dir_cb2b5dfd43482fb277f6333d539f1f06&#45;&gt;dir_91c141b8e78af59a0323020451a6b6a2 -->
<g id="edge28" class="edge"><title>dir_cb2b5dfd43482fb277f6333d539f1f06&#45;&gt;dir_91c141b8e78af59a0323020451a6b6a2</title>
<path fill="none" stroke="black" d="M278.449,-252.232C281.569,-289.324 288.942,-376.981 292.705,-421.712"/>
<polygon fill="black" stroke="black" points="289.231,-422.178 293.557,-431.849 296.207,-421.591 289.231,-422.178"/>
<g id="a_edge28&#45;headlabel"><a xlink:href="dir_000037_000028.html" target="_top" xlink:title="1">
<text text-anchor="middle" x="286.101" y="-416.334" font-family="Helvetica,sans-Serif" font-size="10.00">1</text>
</a>
</g>
</g>
<!-- dir_cb2b5dfd43482fb277f6333d539f1f06&#45;&gt;dir_1456dd235032e023892318efbecb420b -->
<g id="edge29" class="edge"><title>dir_cb2b5dfd43482fb277f6333d539f1f06&#45;&gt;dir_1456dd235032e023892318efbecb420b</title>
<path fill="none" stroke="black" d="M271.11,-252.031C264.651,-270.169 253.647,-299.571 242,-324 237.723,-332.971 232.542,-342.5 227.698,-350.968"/>
<polygon fill="black" stroke="black" points="224.642,-349.26 222.632,-359.662 230.69,-352.784 224.642,-349.26"/>
<g id="a_edge29&#45;headlabel"><a xlink:href="dir_000037_000032.html" target="_top" xlink:title="12">
<text text-anchor="middle" x="223.998" y="-342.225" font-family="Helvetica,sans-Serif" font-size="10.00">12</text>
</a>
</g>
</g>
<!-- dir_cb2b5dfd43482fb277f6333d539f1f06&#45;&gt;dir_d080e052e6032887076b6b5756e5361d -->
<g id="edge30" class="edge"><title>dir_cb2b5dfd43482fb277f6333d539f1f06&#45;&gt;dir_d080e052e6032887076b6b5756e5361d</title>
<path fill="none" stroke="black" d="M272.416,-215.871C269.857,-191.67 269.566,-147.211 271.541,-118.393"/>
<polygon fill="black" stroke="black" points="275.049,-118.45 272.409,-108.189 268.074,-117.857 275.049,-118.45"/>
<g id="a_edge30&#45;headlabel"><a xlink:href="dir_000037_000053.html" target="_top" xlink:title="10">
<text text-anchor="middle" x="277.573" y="-119.772" font-family="Helvetica,sans-Serif" font-size="10.00">10</text>
</a>
</g>
</g>
<!-- dir_cb2b5dfd43482fb277f6333d539f1f06&#45;&gt;dir_a1f42069ba95676f6b9abbd5065ccf6d -->
<g id="edge31" class="edge"><title>dir_cb2b5dfd43482fb277f6333d539f1f06&#45;&gt;dir_a1f42069ba95676f6b9abbd5065ccf6d</title>
<path fill="none" stroke="black" d="M302.932,-252.104C313.928,-260.72 326.527,-271.316 337.058,-280.755"/>
<polygon fill="black" stroke="black" points="334.905,-283.53 344.646,-287.697 339.63,-278.365 334.905,-283.53"/>
<g id="a_edge31&#45;headlabel"><a xlink:href="dir_000037_000052.html" target="_top" xlink:title="14">
<text text-anchor="middle" x="330.336" y="-280.699" font-family="Helvetica,sans-Serif" font-size="10.00">14</text>
</a>
</g>
</g>
<!-- dir_cb2b5dfd43482fb277f6333d539f1f06&#45;&gt;dir_1efe152df2f2e9cd3517b1174a4598d7 -->
<g id="edge32" class="edge"><title>dir_cb2b5dfd43482fb277f6333d539f1f06&#45;&gt;dir_1efe152df2f2e9cd3517b1174a4598d7</title>
<path fill="none" stroke="black" d="M265.62,-215.849C240.745,-178.362 181.415,-88.9491 152.055,-44.7025"/>
<polygon fill="black" stroke="black" points="154.88,-42.6298 146.435,-36.2325 149.047,-46.5001 154.88,-42.6298"/>
<g id="a_edge32&#45;headlabel"><a xlink:href="dir_000037_000051.html" target="_top" xlink:title="2">
<text text-anchor="middle" x="159.233" y="-41.5551" font-family="Helvetica,sans-Serif" font-size="10.00">2</text>
</a>
</g>
</g>
<!-- dir_cb2b5dfd43482fb277f6333d539f1f06&#45;&gt;dir_f5906172d2c9558d453eb81ef8e5bf93 -->
<g id="edge33" class="edge"><title>dir_cb2b5dfd43482fb277f6333d539f1f06&#45;&gt;dir_f5906172d2c9558d453eb81ef8e5bf93</title>
<path fill="none" stroke="black" d="M287.98,-215.849C311.978,-178.362 369.22,-88.9491 397.546,-44.7025"/>
<polygon fill="black" stroke="black" points="400.524,-46.5416 402.968,-36.2325 394.629,-42.7674 400.524,-46.5416"/>
<g id="a_edge33&#45;headlabel"><a xlink:href="dir_000037_000050.html" target="_top" xlink:title="5">
<text text-anchor="middle" x="400.977" y="-48.5998" font-family="Helvetica,sans-Serif" font-size="10.00">5</text>
</a>
</g>
</g>
<!-- dir_cb2b5dfd43482fb277f6333d539f1f06&#45;&gt;dir_ff87cf903db18af0fdb6c342683ece25 -->
<g id="edge34" class="edge"><title>dir_cb2b5dfd43482fb277f6333d539f1f06&#45;&gt;dir_ff87cf903db18af0fdb6c342683ece25</title>
<path fill="none" stroke="black" d="M247.578,-218.496C225.489,-207.607 195.111,-192.632 171.478,-180.982"/>
<polygon fill="black" stroke="black" points="172.975,-177.818 162.458,-176.536 169.88,-184.096 172.975,-177.818"/>
<g id="a_edge34&#45;headlabel"><a xlink:href="dir_000037_000070.html" target="_top" xlink:title="1">
<text text-anchor="middle" x="177.454" y="-174.361" font-family="Helvetica,sans-Serif" font-size="10.00">1</text>
</a>
</g>
</g>
<!-- dir_ff87cf903db18af0fdb6c342683ece25&#45;&gt;dir_1456dd235032e023892318efbecb420b -->
<g id="edge38" class="edge"><title>dir_ff87cf903db18af0fdb6c342683ece25&#45;&gt;dir_1456dd235032e023892318efbecb420b</title>
<path fill="none" stroke="black" d="M137.357,-180.097C141.939,-210.226 153.622,-274.291 176,-324 180.27,-333.485 186.224,-343.113 192.063,-351.513"/>
<polygon fill="black" stroke="black" points="189.334,-353.713 198.029,-359.766 195.006,-349.611 189.334,-353.713"/>
<g id="a_edge38&#45;headlabel"><a xlink:href="dir_000070_000032.html" target="_top" xlink:title="3">
<text text-anchor="middle" x="184.927" y="-349.963" font-family="Helvetica,sans-Serif" font-size="10.00">3</text>
</a>
</g>
</g>
<!-- dir_ff87cf903db18af0fdb6c342683ece25&#45;&gt;dir_d080e052e6032887076b6b5756e5361d -->
<g id="edge39" class="edge"><title>dir_ff87cf903db18af0fdb6c342683ece25&#45;&gt;dir_d080e052e6032887076b6b5756e5361d</title>
<path fill="none" stroke="black" d="M162.134,-144.765C184.409,-133.141 215.98,-117.597 240.458,-106.213"/>
<polygon fill="black" stroke="black" points="242.171,-109.278 249.792,-101.918 239.245,-102.919 242.171,-109.278"/>
<g id="a_edge39&#45;headlabel"><a xlink:href="dir_000070_000053.html" target="_top" xlink:title="1">
<text text-anchor="middle" x="240.092" y="-110.86" font-family="Helvetica,sans-Serif" font-size="10.00">1</text>
</a>
</g>
</g>
<!-- dir_ff87cf903db18af0fdb6c342683ece25&#45;&gt;dir_1efe152df2f2e9cd3517b1174a4598d7 -->
<g id="edge40" class="edge"><title>dir_ff87cf903db18af0fdb6c342683ece25&#45;&gt;dir_1efe152df2f2e9cd3517b1174a4598d7</title>
<path fill="none" stroke="black" d="M135,-143.871C135,-119.67 135,-75.2108 135,-46.3932"/>
<polygon fill="black" stroke="black" points="138.5,-46.1892 135,-36.1893 131.5,-46.1893 138.5,-46.1892"/>
<g id="a_edge40&#45;headlabel"><a xlink:href="dir_000070_000051.html" target="_top" xlink:title="1">
<text text-anchor="middle" x="141.339" y="-47.2839" font-family="Helvetica,sans-Serif" font-size="10.00">1</text>
</a>
</g>
</g>
</g>
</svg>
