<?xml version="1.0" encoding="UTF-8" standalone="no"?>
<!DOCTYPE svg PUBLIC "-//W3C//DTD SVG 1.1//EN"
 "http://www.w3.org/Graphics/SVG/1.1/DTD/svg11.dtd">
<!-- Generated by graphviz version 2.36.0 (20140111.2315)
 -->
<!-- Title: /home/travis/build/STORM&#45;IRIT/Radium&#45;Engine/src/Core/Utils Pages: 1 -->
<svg width="236pt" height="178pt"
 viewBox="0.00 0.00 236.00 178.06" xmlns="http://www.w3.org/2000/svg" xmlns:xlink="http://www.w3.org/1999/xlink">
<g id="graph0" class="graph" transform="scale(1 1) rotate(0) translate(4 174.055)">
<title>/home/travis/build/STORM&#45;IRIT/Radium&#45;Engine/src/Core/Utils</title>
<polygon fill="white" stroke="none" points="-4,4 -4,-174.055 232,-174.055 232,4 -4,4"/>
<g id="clust1" class="cluster"><title>clusterdir_a2f0e5642e47e7ed59fe0f0829eafb5f</title>
<g id="a_clust1"><a xlink:href="dir_a2f0e5642e47e7ed59fe0f0829eafb5f.html" target="_top" xlink:title="Core">
<polygon fill="#ddddee" stroke="black" points="8,-56 8,-143 166,-143 166,-56 8,-56"/>
<text text-anchor="middle" x="87" y="-131" font-family="Helvetica,sans-Serif" font-size="10.00">Core</text>
</a>
</g>
</g>
<g id="clust2" class="cluster"><title>clusterdir_ff87cf903db18af0fdb6c342683ece25</title>
<g id="a_clust2"><a xlink:href="dir_ff87cf903db18af0fdb6c342683ece25.html" target="_top">
<polygon fill="#eeeeff" stroke="black" points="16,-64 16,-116 158,-116 158,-64 16,-64"/>
</a>
</g>
</g>
<!-- dir_ff87cf903db18af0fdb6c342683ece25 -->
<g id="node1" class="node"><title>dir_ff87cf903db18af0fdb6c342683ece25</title>
<text text-anchor="middle" x="51" y="-87.5" font-family="Helvetica,sans-Serif" font-size="10.00">Utils</text>
</g>
<!-- dir_1efe152df2f2e9cd3517b1174a4598d7 -->
<g id="node5" class="node"><title>dir_1efe152df2f2e9cd3517b1174a4598d7</title>
<g id="a_node5"><a xlink:href="dir_1efe152df2f2e9cd3517b1174a4598d7.html" target="_top" xlink:title="Log">
<polygon fill="none" stroke="black" points="114,-36 60,-36 60,-0 114,-0 114,-36"/>
<text text-anchor="middle" x="87" y="-15.5" font-family="Helvetica,sans-Serif" font-size="10.00">Log</text>
</a>
</g>
</g>
<!-- dir_ff87cf903db18af0fdb6c342683ece25&#45;&gt;dir_1efe152df2f2e9cd3517b1174a4598d7 -->
<g id="edge6" class="edge"><title>dir_ff87cf903db18af0fdb6c342683ece25&#45;&gt;dir_1efe152df2f2e9cd3517b1174a4598d7</title>
<path fill="none" stroke="black" d="M59.8989,-71.6966C63.9968,-63.7284 68.9488,-54.0995 73.4927,-45.2641"/>
<polygon fill="black" stroke="black" points="76.7425,-46.598 78.2035,-36.1043 70.5174,-43.3965 76.7425,-46.598"/>
<g id="a_edge6&#45;headlabel"><a xlink:href="dir_000070_000051.html" target="_top" xlink:title="1">
<text text-anchor="middle" x="77.6235" y="-48.5931" font-family="Helvetica,sans-Serif" font-size="10.00">1</text>
</a>
</g>
</g>
<!-- dir_6dd2e7c3dd0c6b2350fe1d5c32361b10 -->
<g id="node2" class="node"><title>dir_6dd2e7c3dd0c6b2350fe1d5c32361b10</title>
<g id="a_node2"><a xlink:href="dir_6dd2e7c3dd0c6b2350fe1d5c32361b10.html" target="_top" xlink:title="Graph">
<polygon fill="white" stroke="black" points="150,-108 96,-108 96,-72 150,-72 150,-108"/>
<text text-anchor="middle" x="123" y="-87.5" font-family="Helvetica,sans-Serif" font-size="10.00">Graph</text>
</a>
</g>
</g>
<!-- dir_1456dd235032e023892318efbecb420b -->
<g id="node3" class="node"><title>dir_1456dd235032e023892318efbecb420b</title>
<g id="a_node3"><a xlink:href="dir_1456dd235032e023892318efbecb420b.html" target="_top" xlink:title="Containers">
<polygon fill="none" stroke="black" points="214,-36 150,-36 150,-0 214,-0 214,-36"/>
<text text-anchor="middle" x="182" y="-15.5" font-family="Helvetica,sans-Serif" font-size="10.00">Containers</text>
</a>
</g>
</g>
<!-- dir_6dd2e7c3dd0c6b2350fe1d5c32361b10&#45;&gt;dir_1456dd235032e023892318efbecb420b -->
<g id="edge4" class="edge"><title>dir_6dd2e7c3dd0c6b2350fe1d5c32361b10&#45;&gt;dir_1456dd235032e023892318efbecb420b</title>
<path fill="none" stroke="black" d="M137.584,-71.6966C144.658,-63.3046 153.283,-53.0705 161.045,-43.8613"/>
<polygon fill="black" stroke="black" points="163.815,-46.0063 167.583,-36.1043 158.463,-41.495 163.815,-46.0063"/>
<g id="a_edge4&#45;headlabel"><a xlink:href="dir_000071_000032.html" target="_top" xlink:title="2">
<text text-anchor="middle" x="163.669" y="-48.0846" font-family="Helvetica,sans-Serif" font-size="10.00">2</text>
</a>
</g>
</g>
<!-- dir_d080e052e6032887076b6b5756e5361d -->
<g id="node4" class="node"><title>dir_d080e052e6032887076b6b5756e5361d</title>
<g id="a_node4"><a xlink:href="dir_d080e052e6032887076b6b5756e5361d.html" target="_top" xlink:title="Mesh">
<polygon fill="white" stroke="red" points="228,-108 174,-108 174,-72 228,-72 228,-108"/>
<text text-anchor="middle" x="201" y="-87.5" font-family="Helvetica,sans-Serif" font-size="10.00">Mesh</text>
</a>
</g>
</g>
<!-- dir_6dd2e7c3dd0c6b2350fe1d5c32361b10&#45;&gt;dir_d080e052e6032887076b6b5756e5361d -->
<g id="edge5" class="edge"><title>dir_6dd2e7c3dd0c6b2350fe1d5c32361b10&#45;&gt;dir_d080e052e6032887076b6b5756e5361d</title>
<path fill="none" stroke="black" d="M150.117,-90C154.714,-90 159.31,-90 163.906,-90"/>
<polygon fill="black" stroke="black" points="163.969,-93.5001 173.969,-90 163.968,-86.5001 163.969,-93.5001"/>
<g id="a_edge5&#45;headlabel"><a xlink:href="dir_000071_000053.html" target="_top" xlink:title="1">
<text text-anchor="middle" x="160.374" y="-93.8393" font-family="Helvetica,sans-Serif" font-size="10.00">1</text>
</a>
</g>
</g>
<!-- dir_d080e052e6032887076b6b5756e5361d&#45;&gt;dir_ff87cf903db18af0fdb6c342683ece25 -->
<g id="edge3" class="edge"><title>dir_d080e052e6032887076b6b5756e5361d&#45;&gt;dir_ff87cf903db18af0fdb6c342683ece25</title>
<path fill="none" stroke="black" d="M194.548,-108.077C187.35,-125.203 173.894,-149.905 153,-161 130.626,-172.881 118.196,-173.211 96,-161 79.1638,-151.738 67.7421,-133.221 60.619,-117.419"/>
<polygon fill="black" stroke="black" points="63.7928,-115.935 56.7294,-108.038 57.3266,-118.616 63.7928,-115.935"/>
<g id="a_edge3&#45;headlabel"><a xlink:href="dir_000053_000070.html" target="_top" xlink:title="2">
<text text-anchor="middle" x="67.7923" y="-115.668" font-family="Helvetica,sans-Serif" font-size="10.00">2</text>
</a>
</g>
</g>
<!-- dir_d080e052e6032887076b6b5756e5361d&#45;&gt;dir_1456dd235032e023892318efbecb420b -->
<g id="edge1" class="edge"><title>dir_d080e052e6032887076b6b5756e5361d&#45;&gt;dir_1456dd235032e023892318efbecb420b</title>
<path fill="none" stroke="black" d="M196.303,-71.6966C194.187,-63.8979 191.638,-54.5085 189.282,-45.8292"/>
<polygon fill="black" stroke="black" points="192.64,-44.8383 186.643,-36.1043 185.884,-46.672 192.64,-44.8383"/>
<g id="a_edge1&#45;headlabel"><a xlink:href="dir_000053_000032.html" target="_top" xlink:title="4">
<text text-anchor="middle" x="196.322" y="-45.0637" font-family="Helvetica,sans-Serif" font-size="10.00">4</text>
</a>
</g>
</g>
<!-- dir_d080e052e6032887076b6b5756e5361d&#45;&gt;dir_1efe152df2f2e9cd3517b1174a4598d7 -->
<g id="edge2" class="edge"><title>dir_d080e052e6032887076b6b5756e5361d&#45;&gt;dir_1efe152df2f2e9cd3517b1174a4598d7</title>
<path fill="none" stroke="black" d="M182.685,-71.912C176.386,-66.4759 169.121,-60.6682 162,-56 150.002,-48.1343 136.092,-40.8283 123.534,-34.8217"/>
<polygon fill="black" stroke="black" points="124.79,-31.546 114.248,-30.494 121.833,-37.8908 124.79,-31.546"/>
<g id="a_edge2&#45;headlabel"><a xlink:href="dir_000053_000051.html" target="_top" xlink:title="3">
<text text-anchor="middle" x="129.248" y="-27.9909" font-family="Helvetica,sans-Serif" font-size="10.00">3</text>
</a>
</g>
</g>
</g>
</svg>
