<?xml version="1.0" encoding="UTF-8" standalone="no"?>
<!DOCTYPE svg PUBLIC "-//W3C//DTD SVG 1.1//EN"
 "http://www.w3.org/Graphics/SVG/1.1/DTD/svg11.dtd">
<!-- Generated by graphviz version 2.36.0 (20140111.2315)
 -->
<!-- Title: /home/travis/build/STORM&#45;IRIT/Radium&#45;Engine/src/Engine/Managers/EntityManager/EntityManager.hpp Pages: 1 -->
<svg width="1645pt" height="152pt"
 viewBox="0.00 0.00 1645.00 152.00" xmlns="http://www.w3.org/2000/svg" xmlns:xlink="http://www.w3.org/1999/xlink">
<g id="graph0" class="graph" transform="scale(1 1) rotate(0) translate(4 148)">
<title>/home/travis/build/STORM&#45;IRIT/Radium&#45;Engine/src/Engine/Managers/EntityManager/EntityManager.hpp</title>
<polygon fill="white" stroke="none" points="-4,4 -4,-148 1641,-148 1641,4 -4,4"/>
<!-- Node1 -->
<g id="node1" class="node"><title>Node1</title>
<polygon fill="#bfbfbf" stroke="black" points="723,-91 723,-143 901,-143 901,-91 723,-91"/>
<text text-anchor="start" x="731" y="-131" font-family="Helvetica,sans-Serif" font-size="10.00">/home/travis/build</text>
<text text-anchor="start" x="731" y="-120" font-family="Helvetica,sans-Serif" font-size="10.00">/STORM&#45;IRIT/Radium&#45;Engine</text>
<text text-anchor="start" x="731" y="-109" font-family="Helvetica,sans-Serif" font-size="10.00">/src/Engine/Managers/EntityManager</text>
<text text-anchor="middle" x="812" y="-98" font-family="Helvetica,sans-Serif" font-size="10.00">/EntityManager.hpp</text>
</g>
<!-- Node2 -->
<g id="node2" class="node"><title>Node2</title>
<g id="a_node2"><a xlink:href="ItemEntry_8cpp.html" target="_top" xlink:title="/home/travis/build\l/STORM&#45;IRIT/Radium&#45;Engine\l/src/Engine/ItemModel/ItemEntry.cpp">
<polygon fill="white" stroke="black" points="-0.5,-6.5 -0.5,-47.5 178.5,-47.5 178.5,-6.5 -0.5,-6.5"/>
<text text-anchor="start" x="7.5" y="-35.5" font-family="Helvetica,sans-Serif" font-size="10.00">/home/travis/build</text>
<text text-anchor="start" x="7.5" y="-24.5" font-family="Helvetica,sans-Serif" font-size="10.00">/STORM&#45;IRIT/Radium&#45;Engine</text>
<text text-anchor="middle" x="89" y="-13.5" font-family="Helvetica,sans-Serif" font-size="10.00">/src/Engine/ItemModel/ItemEntry.cpp</text>
</a>
</g>
</g>
<!-- Node1&#45;&gt;Node2 -->
<g id="edge1" class="edge"><title>Node1&#45;&gt;Node2</title>
<path fill="none" stroke="midnightblue" d="M712.573,-110.971C588.873,-103.604 371.554,-87.0089 188,-54 178.118,-52.2229 167.776,-49.9638 157.658,-47.522"/>
<polygon fill="midnightblue" stroke="midnightblue" points="712.593,-114.478 722.781,-111.571 713.003,-107.49 712.593,-114.478"/>
</g>
<!-- Node3 -->
<g id="node3" class="node"><title>Node3</title>
<g id="a_node3"><a xlink:href="EntityManager_8cpp.html" target="_top" xlink:title="/home/travis/build\l/STORM&#45;IRIT/Radium&#45;Engine\l/src/Engine/Managers/EntityManager\l/EntityManager.cpp">
<polygon fill="white" stroke="black" points="197,-1 197,-53 375,-53 375,-1 197,-1"/>
<text text-anchor="start" x="205" y="-41" font-family="Helvetica,sans-Serif" font-size="10.00">/home/travis/build</text>
<text text-anchor="start" x="205" y="-30" font-family="Helvetica,sans-Serif" font-size="10.00">/STORM&#45;IRIT/Radium&#45;Engine</text>
<text text-anchor="start" x="205" y="-19" font-family="Helvetica,sans-Serif" font-size="10.00">/src/Engine/Managers/EntityManager</text>
<text text-anchor="middle" x="286" y="-8" font-family="Helvetica,sans-Serif" font-size="10.00">/EntityManager.cpp</text>
</a>
</g>
</g>
<!-- Node1&#45;&gt;Node3 -->
<g id="edge2" class="edge"><title>Node1&#45;&gt;Node3</title>
<path fill="none" stroke="midnightblue" d="M712.812,-104.927C625.704,-94.42 495.799,-76.8486 384,-54 381.068,-53.4008 378.094,-52.7666 375.095,-52.1045"/>
<polygon fill="midnightblue" stroke="midnightblue" points="712.609,-108.428 722.954,-106.142 713.441,-101.477 712.609,-108.428"/>
</g>
<!-- Node4 -->
<g id="node4" class="node"><title>Node4</title>
<g id="a_node4"><a xlink:href="RadiumEngine_8cpp.html" target="_top" xlink:title="/home/travis/build\l/STORM&#45;IRIT/Radium&#45;Engine\l/src/Engine/RadiumEngine.cpp">
<polygon fill="white" stroke="black" points="393,-6.5 393,-47.5 545,-47.5 545,-6.5 393,-6.5"/>
<text text-anchor="start" x="401" y="-35.5" font-family="Helvetica,sans-Serif" font-size="10.00">/home/travis/build</text>
<text text-anchor="start" x="401" y="-24.5" font-family="Helvetica,sans-Serif" font-size="10.00">/STORM&#45;IRIT/Radium&#45;Engine</text>
<text text-anchor="middle" x="469" y="-13.5" font-family="Helvetica,sans-Serif" font-size="10.00">/src/Engine/RadiumEngine.cpp</text>
</a>
</g>
</g>
<!-- Node1&#45;&gt;Node4 -->
<g id="edge3" class="edge"><title>Node1&#45;&gt;Node4</title>
<path fill="none" stroke="midnightblue" d="M712.907,-93.6787C664.767,-82.4553 606.18,-68.2361 554,-54 546.705,-52.0098 539.089,-49.8289 531.541,-47.6032"/>
<polygon fill="midnightblue" stroke="midnightblue" points="712.17,-97.1005 722.703,-95.9547 713.754,-90.2822 712.17,-97.1005"/>
</g>
<!-- Node5 -->
<g id="node5" class="node"><title>Node5</title>
<g id="a_node5"><a xlink:href="Light_8cpp.html" target="_top" xlink:title="/home/travis/build\l/STORM&#45;IRIT/Radium&#45;Engine\l/src/Engine/Renderer/Light\l/Light.cpp">
<polygon fill="white" stroke="black" points="563,-1 563,-53 711,-53 711,-1 563,-1"/>
<text text-anchor="start" x="571" y="-41" font-family="Helvetica,sans-Serif" font-size="10.00">/home/travis/build</text>
<text text-anchor="start" x="571" y="-30" font-family="Helvetica,sans-Serif" font-size="10.00">/STORM&#45;IRIT/Radium&#45;Engine</text>
<text text-anchor="start" x="571" y="-19" font-family="Helvetica,sans-Serif" font-size="10.00">/src/Engine/Renderer/Light</text>
<text text-anchor="middle" x="637" y="-8" font-family="Helvetica,sans-Serif" font-size="10.00">/Light.cpp</text>
</a>
</g>
</g>
<!-- Node1&#45;&gt;Node5 -->
<g id="edge4" class="edge"><title>Node1&#45;&gt;Node5</title>
<path fill="none" stroke="midnightblue" d="M752.837,-86.2492C731.396,-75.4678 707.411,-63.4068 686.853,-53.0687"/>
<polygon fill="midnightblue" stroke="midnightblue" points="751.346,-89.417 761.852,-90.7827 754.49,-83.1632 751.346,-89.417"/>
</g>
<!-- Node6 -->
<g id="node6" class="node"><title>Node6</title>
<g id="a_node6"><a xlink:href="BaseApplication_8cpp.html" target="_top" xlink:title="/home/travis/build\l/STORM&#45;IRIT/Radium&#45;Engine\l/src/GuiBase/BaseApplication.cpp">
<polygon fill="white" stroke="black" points="729,-6.5 729,-47.5 895,-47.5 895,-6.5 729,-6.5"/>
<text text-anchor="start" x="737" y="-35.5" font-family="Helvetica,sans-Serif" font-size="10.00">/home/travis/build</text>
<text text-anchor="start" x="737" y="-24.5" font-family="Helvetica,sans-Serif" font-size="10.00">/STORM&#45;IRIT/Radium&#45;Engine</text>
<text text-anchor="middle" x="812" y="-13.5" font-family="Helvetica,sans-Serif" font-size="10.00">/src/GuiBase/BaseApplication.cpp</text>
</a>
</g>
</g>
<!-- Node1&#45;&gt;Node6 -->
<g id="edge5" class="edge"><title>Node1&#45;&gt;Node6</title>
<path fill="none" stroke="midnightblue" d="M812,-80.5147C812,-69.2575 812,-57.227 812,-47.5249"/>
<polygon fill="midnightblue" stroke="midnightblue" points="808.5,-80.5467 812,-90.5468 815.5,-80.5468 808.5,-80.5467"/>
</g>
<!-- Node7 -->
<g id="node7" class="node"><title>Node7</title>
<g id="a_node7"><a xlink:href="EntityTreeModel_8cpp.html" target="_top" xlink:title="/home/travis/build\l/STORM&#45;IRIT/Radium&#45;Engine\l/src/GuiBase/TreeModel/EntityTree\lModel.cpp">
<polygon fill="white" stroke="black" points="913,-1 913,-53 1083,-53 1083,-1 913,-1"/>
<text text-anchor="start" x="921" y="-41" font-family="Helvetica,sans-Serif" font-size="10.00">/home/travis/build</text>
<text text-anchor="start" x="921" y="-30" font-family="Helvetica,sans-Serif" font-size="10.00">/STORM&#45;IRIT/Radium&#45;Engine</text>
<text text-anchor="start" x="921" y="-19" font-family="Helvetica,sans-Serif" font-size="10.00">/src/GuiBase/TreeModel/EntityTree</text>
<text text-anchor="middle" x="998" y="-8" font-family="Helvetica,sans-Serif" font-size="10.00">Model.cpp</text>
</a>
</g>
</g>
<!-- Node1&#45;&gt;Node7 -->
<g id="edge6" class="edge"><title>Node1&#45;&gt;Node7</title>
<path fill="none" stroke="midnightblue" d="M874.577,-86.3935C897.443,-75.5755 923.065,-63.453 945.014,-53.0687"/>
<polygon fill="midnightblue" stroke="midnightblue" points="872.843,-83.3422 865.3,-90.7827 875.836,-89.6698 872.843,-83.3422"/>
</g>
<!-- Node8 -->
<g id="node8" class="node"><title>Node8</title>
<g id="a_node8"><a xlink:href="Viewer_8cpp.html" target="_top" xlink:title="/home/travis/build\l/STORM&#45;IRIT/Radium&#45;Engine\l/src/GuiBase/Viewer/Viewer.cpp">
<polygon fill="white" stroke="black" points="1101,-6.5 1101,-47.5 1259,-47.5 1259,-6.5 1101,-6.5"/>
<text text-anchor="start" x="1109" y="-35.5" font-family="Helvetica,sans-Serif" font-size="10.00">/home/travis/build</text>
<text text-anchor="start" x="1109" y="-24.5" font-family="Helvetica,sans-Serif" font-size="10.00">/STORM&#45;IRIT/Radium&#45;Engine</text>
<text text-anchor="middle" x="1180" y="-13.5" font-family="Helvetica,sans-Serif" font-size="10.00">/src/GuiBase/Viewer/Viewer.cpp</text>
</a>
</g>
</g>
<!-- Node1&#45;&gt;Node8 -->
<g id="edge7" class="edge"><title>Node1&#45;&gt;Node8</title>
<path fill="none" stroke="midnightblue" d="M911.147,-95.7974C964.883,-84.4083 1032.32,-69.404 1092,-54 1099.71,-52.0093 1107.77,-49.8044 1115.74,-47.5449"/>
<polygon fill="midnightblue" stroke="midnightblue" points="910.339,-92.3908 901.278,-97.8813 911.785,-99.2398 910.339,-92.3908"/>
</g>
<!-- Node9 -->
<g id="node9" class="node"><title>Node9</title>
<g id="a_node9"><a xlink:href="MeshFeatureTrackingPlugin_8cpp.html" target="_top" xlink:title="/home/travis/build\l/STORM&#45;IRIT/Radium&#45;Engine\l/Plugins/MeshFeatureTracking\l/src/MeshFeatureTrackingPlugin.cpp">
<polygon fill="white" stroke="black" points="1277,-1 1277,-53 1453,-53 1453,-1 1277,-1"/>
<text text-anchor="start" x="1285" y="-41" font-family="Helvetica,sans-Serif" font-size="10.00">/home/travis/build</text>
<text text-anchor="start" x="1285" y="-30" font-family="Helvetica,sans-Serif" font-size="10.00">/STORM&#45;IRIT/Radium&#45;Engine</text>
<text text-anchor="start" x="1285" y="-19" font-family="Helvetica,sans-Serif" font-size="10.00">/Plugins/MeshFeatureTracking</text>
<text text-anchor="middle" x="1365" y="-8" font-family="Helvetica,sans-Serif" font-size="10.00">/src/MeshFeatureTrackingPlugin.cpp</text>
</a>
</g>
</g>
<!-- Node1&#45;&gt;Node9 -->
<g id="edge8" class="edge"><title>Node1&#45;&gt;Node9</title>
<path fill="none" stroke="midnightblue" d="M911.244,-106.062C1003.82,-95.9459 1145.5,-78.2986 1267,-54 1270.28,-53.3441 1273.61,-52.6424 1276.97,-51.9053"/>
<polygon fill="midnightblue" stroke="midnightblue" points="910.609,-102.61 901.044,-107.168 911.363,-109.569 910.609,-102.61"/>
</g>
<!-- Node10 -->
<g id="node10" class="node"><title>Node10</title>
<g id="a_node10"><a xlink:href="MeshPaintPlugin_8cpp.html" target="_top" xlink:title="/home/travis/build\l/STORM&#45;IRIT/Radium&#45;Engine\l/Plugins/MeshPaint/src/MeshPaint\lPlugin.cpp">
<polygon fill="white" stroke="black" points="1470.5,-1 1470.5,-53 1637.5,-53 1637.5,-1 1470.5,-1"/>
<text text-anchor="start" x="1478.5" y="-41" font-family="Helvetica,sans-Serif" font-size="10.00">/home/travis/build</text>
<text text-anchor="start" x="1478.5" y="-30" font-family="Helvetica,sans-Serif" font-size="10.00">/STORM&#45;IRIT/Radium&#45;Engine</text>
<text text-anchor="start" x="1478.5" y="-19" font-family="Helvetica,sans-Serif" font-size="10.00">/Plugins/MeshPaint/src/MeshPaint</text>
<text text-anchor="middle" x="1554" y="-8" font-family="Helvetica,sans-Serif" font-size="10.00">Plugin.cpp</text>
</a>
</g>
</g>
<!-- Node1&#45;&gt;Node10 -->
<g id="edge9" class="edge"><title>Node1&#45;&gt;Node10</title>
<path fill="none" stroke="midnightblue" d="M911.308,-111.988C1039.29,-105.57 1268.28,-89.8507 1461,-54 1464.05,-53.4328 1467.14,-52.8117 1470.26,-52.1476"/>
<polygon fill="midnightblue" stroke="midnightblue" points="910.95,-108.502 901.135,-112.49 911.295,-115.493 910.95,-108.502"/>
</g>
</g>
</svg>
