<?xml version="1.0" encoding="UTF-8" standalone="no"?>
<!DOCTYPE svg PUBLIC "-//W3C//DTD SVG 1.1//EN"
 "http://www.w3.org/Graphics/SVG/1.1/DTD/svg11.dtd">
<!-- Generated by graphviz version 2.36.0 (20140111.2315)
 -->
<!-- Title: /home/travis/build/STORM&#45;IRIT/Radium&#45;Engine/src/Core/File/GeometryData.inl Pages: 1 -->
<svg width="2217pt" height="476pt"
 viewBox="0.00 0.00 2217.00 476.00" xmlns="http://www.w3.org/2000/svg" xmlns:xlink="http://www.w3.org/1999/xlink">
<g id="graph0" class="graph" transform="scale(1 1) rotate(0) translate(4 472)">
<title>/home/travis/build/STORM&#45;IRIT/Radium&#45;Engine/src/Core/File/GeometryData.inl</title>
<polygon fill="white" stroke="none" points="-4,4 -4,-472 2213,-472 2213,4 -4,4"/>
<!-- Node1 -->
<g id="node1" class="node"><title>Node1</title>
<polygon fill="#bfbfbf" stroke="black" points="1657.5,-426.5 1657.5,-467.5 1812.5,-467.5 1812.5,-426.5 1657.5,-426.5"/>
<text text-anchor="start" x="1665.5" y="-455.5" font-family="Helvetica,sans-Serif" font-size="10.00">/home/travis/build</text>
<text text-anchor="start" x="1665.5" y="-444.5" font-family="Helvetica,sans-Serif" font-size="10.00">/STORM&#45;IRIT/Radium&#45;Engine</text>
<text text-anchor="middle" x="1735" y="-433.5" font-family="Helvetica,sans-Serif" font-size="10.00">/src/Core/File/GeometryData.inl</text>
</g>
<!-- Node2 -->
<g id="node2" class="node"><title>Node2</title>
<g id="a_node2"><a xlink:href="GeometryData_8hpp.html" target="_top" xlink:title="/home/travis/build\l/STORM&#45;IRIT/Radium&#45;Engine\l/src/Core/File/GeometryData.hpp">
<polygon fill="white" stroke="black" points="1654.5,-348.5 1654.5,-389.5 1815.5,-389.5 1815.5,-348.5 1654.5,-348.5"/>
<text text-anchor="start" x="1662.5" y="-377.5" font-family="Helvetica,sans-Serif" font-size="10.00">/home/travis/build</text>
<text text-anchor="start" x="1662.5" y="-366.5" font-family="Helvetica,sans-Serif" font-size="10.00">/STORM&#45;IRIT/Radium&#45;Engine</text>
<text text-anchor="middle" x="1735" y="-355.5" font-family="Helvetica,sans-Serif" font-size="10.00">/src/Core/File/GeometryData.hpp</text>
</a>
</g>
</g>
<!-- Node1&#45;&gt;Node2 -->
<g id="edge1" class="edge"><title>Node1&#45;&gt;Node2</title>
<path fill="none" stroke="midnightblue" d="M1728.4,-416.297C1728.08,-407.301 1728.28,-397.653 1729.02,-389.506"/>
<polygon fill="midnightblue" stroke="midnightblue" points="1724.91,-416.659 1729.01,-426.428 1731.9,-416.234 1724.91,-416.659"/>
</g>
<!-- Node2&#45;&gt;Node1 -->
<g id="edge18" class="edge"><title>Node2&#45;&gt;Node1</title>
<path fill="none" stroke="midnightblue" d="M1741.6,-399.63C1741.92,-408.622 1741.72,-418.272 1740.99,-426.428"/>
<polygon fill="midnightblue" stroke="midnightblue" points="1745.09,-399.273 1740.98,-389.506 1738.1,-399.701 1745.09,-399.273"/>
</g>
<!-- Node3 -->
<g id="node3" class="node"><title>Node3</title>
<g id="a_node3"><a xlink:href="FileData_8inl.html" target="_top" xlink:title="/home/travis/build\l/STORM&#45;IRIT/Radium&#45;Engine\l/src/Core/File/FileData.inl">
<polygon fill="white" stroke="black" points="1312,-264.5 1312,-305.5 1460,-305.5 1460,-264.5 1312,-264.5"/>
<text text-anchor="start" x="1320" y="-293.5" font-family="Helvetica,sans-Serif" font-size="10.00">/home/travis/build</text>
<text text-anchor="start" x="1320" y="-282.5" font-family="Helvetica,sans-Serif" font-size="10.00">/STORM&#45;IRIT/Radium&#45;Engine</text>
<text text-anchor="middle" x="1386" y="-271.5" font-family="Helvetica,sans-Serif" font-size="10.00">/src/Core/File/FileData.inl</text>
</a>
</g>
</g>
<!-- Node2&#45;&gt;Node3 -->
<g id="edge2" class="edge"><title>Node2&#45;&gt;Node3</title>
<path fill="none" stroke="midnightblue" d="M1644.71,-346.786C1587.37,-333.313 1514.07,-316.091 1460.14,-303.421"/>
<polygon fill="midnightblue" stroke="midnightblue" points="1643.96,-350.204 1654.49,-349.085 1645.56,-343.39 1643.96,-350.204"/>
</g>
<!-- Node6 -->
<g id="node6" class="node"><title>Node6</title>
<g id="a_node6"><a xlink:href="LightManager_8cpp.html" target="_top" xlink:title="/home/travis/build\l/STORM&#45;IRIT/Radium&#45;Engine\l/src/Engine/Managers/LightManager\l/LightManager.cpp">
<polygon fill="white" stroke="black" points="-0.5,-79 -0.5,-131 172.5,-131 172.5,-79 -0.5,-79"/>
<text text-anchor="start" x="7.5" y="-119" font-family="Helvetica,sans-Serif" font-size="10.00">/home/travis/build</text>
<text text-anchor="start" x="7.5" y="-108" font-family="Helvetica,sans-Serif" font-size="10.00">/STORM&#45;IRIT/Radium&#45;Engine</text>
<text text-anchor="start" x="7.5" y="-97" font-family="Helvetica,sans-Serif" font-size="10.00">/src/Engine/Managers/LightManager</text>
<text text-anchor="middle" x="86" y="-86" font-family="Helvetica,sans-Serif" font-size="10.00">/LightManager.cpp</text>
</a>
</g>
</g>
<!-- Node2&#45;&gt;Node6 -->
<g id="edge19" class="edge"><title>Node2&#45;&gt;Node6</title>
<path fill="none" stroke="midnightblue" d="M1644.33,-357.057C1556.84,-346.306 1420.71,-329.076 1303,-312 803.623,-239.557 675.323,-238.103 182,-132 178.877,-131.328 175.704,-130.618 172.505,-129.878"/>
<polygon fill="midnightblue" stroke="midnightblue" points="1644.13,-360.559 1654.48,-358.303 1644.99,-353.611 1644.13,-360.559"/>
</g>
<!-- Node13 -->
<g id="node13" class="node"><title>Node13</title>
<g id="a_node13"><a xlink:href="FancyMeshComponent_8cpp.html" target="_top" xlink:title="/home/travis/build\l/STORM&#45;IRIT/Radium&#45;Engine\l/Plugins/FancyMesh/src/FancyMesh\lComponent.cpp">
<polygon fill="white" stroke="black" points="1839,-79 1839,-131 2015,-131 2015,-79 1839,-79"/>
<text text-anchor="start" x="1847" y="-119" font-family="Helvetica,sans-Serif" font-size="10.00">/home/travis/build</text>
<text text-anchor="start" x="1847" y="-108" font-family="Helvetica,sans-Serif" font-size="10.00">/STORM&#45;IRIT/Radium&#45;Engine</text>
<text text-anchor="start" x="1847" y="-97" font-family="Helvetica,sans-Serif" font-size="10.00">/Plugins/FancyMesh/src/FancyMesh</text>
<text text-anchor="middle" x="1927" y="-86" font-family="Helvetica,sans-Serif" font-size="10.00">Component.cpp</text>
</a>
</g>
</g>
<!-- Node2&#45;&gt;Node13 -->
<g id="edge21" class="edge"><title>Node2&#45;&gt;Node13</title>
<path fill="none" stroke="midnightblue" d="M1731.07,-338.207C1729.33,-315.29 1729.76,-283.359 1741,-258 1767.02,-199.285 1829.04,-156.206 1874.34,-131.199"/>
<polygon fill="midnightblue" stroke="midnightblue" points="1727.6,-338.727 1732.02,-348.355 1734.57,-338.072 1727.6,-338.727"/>
</g>
<!-- Node14 -->
<g id="node14" class="node"><title>Node14</title>
<g id="a_node14"><a xlink:href="FancyMeshSystem_8cpp.html" target="_top" xlink:title="/home/travis/build\l/STORM&#45;IRIT/Radium&#45;Engine\l/Plugins/FancyMesh/src/FancyMesh\lSystem.cpp">
<polygon fill="white" stroke="black" points="2033,-79 2033,-131 2209,-131 2209,-79 2033,-79"/>
<text text-anchor="start" x="2041" y="-119" font-family="Helvetica,sans-Serif" font-size="10.00">/home/travis/build</text>
<text text-anchor="start" x="2041" y="-108" font-family="Helvetica,sans-Serif" font-size="10.00">/STORM&#45;IRIT/Radium&#45;Engine</text>
<text text-anchor="start" x="2041" y="-97" font-family="Helvetica,sans-Serif" font-size="10.00">/Plugins/FancyMesh/src/FancyMesh</text>
<text text-anchor="middle" x="2121" y="-86" font-family="Helvetica,sans-Serif" font-size="10.00">System.cpp</text>
</a>
</g>
</g>
<!-- Node2&#45;&gt;Node14 -->
<g id="edge25" class="edge"><title>Node2&#45;&gt;Node14</title>
<path fill="none" stroke="midnightblue" d="M1825.76,-362.36C1944.26,-354.056 2139.25,-336.793 2161,-312 2206.04,-260.646 2163.65,-174.011 2137.73,-131.324"/>
<polygon fill="midnightblue" stroke="midnightblue" points="1825.33,-358.881 1815.6,-363.064 1825.82,-365.865 1825.33,-358.881"/>
</g>
<!-- Node15 -->
<g id="node15" class="node"><title>Node15</title>
<g id="a_node15"><a xlink:href="MeshPaintSystem_8cpp.html" target="_top" xlink:title="/home/travis/build\l/STORM&#45;IRIT/Radium&#45;Engine\l/Plugins/MeshPaint/src/MeshPaint\lSystem.cpp">
<polygon fill="white" stroke="black" points="1654.5,-79 1654.5,-131 1821.5,-131 1821.5,-79 1654.5,-79"/>
<text text-anchor="start" x="1662.5" y="-119" font-family="Helvetica,sans-Serif" font-size="10.00">/home/travis/build</text>
<text text-anchor="start" x="1662.5" y="-108" font-family="Helvetica,sans-Serif" font-size="10.00">/STORM&#45;IRIT/Radium&#45;Engine</text>
<text text-anchor="start" x="1662.5" y="-97" font-family="Helvetica,sans-Serif" font-size="10.00">/Plugins/MeshPaint/src/MeshPaint</text>
<text text-anchor="middle" x="1738" y="-86" font-family="Helvetica,sans-Serif" font-size="10.00">System.cpp</text>
</a>
</g>
</g>
<!-- Node2&#45;&gt;Node15 -->
<g id="edge26" class="edge"><title>Node2&#45;&gt;Node15</title>
<path fill="none" stroke="midnightblue" d="M1714.58,-339.987C1709.44,-331.424 1704.64,-321.696 1702,-312 1685.16,-250.255 1685.36,-229.799 1702,-168 1705.5,-155.02 1712.45,-141.957 1719.32,-131.191"/>
<polygon fill="midnightblue" stroke="midnightblue" points="1711.64,-341.894 1719.97,-348.44 1717.54,-338.127 1711.64,-341.894"/>
</g>
<!-- Node18 -->
<g id="node18" class="node"><title>Node18</title>
<g id="a_node18"><a xlink:href="GeometryData_8cpp.html" target="_top" xlink:title="/home/travis/build\l/STORM&#45;IRIT/Radium&#45;Engine\l/src/Core/File/GeometryData.cpp">
<polygon fill="white" stroke="black" points="1782.5,-264.5 1782.5,-305.5 1943.5,-305.5 1943.5,-264.5 1782.5,-264.5"/>
<text text-anchor="start" x="1790.5" y="-293.5" font-family="Helvetica,sans-Serif" font-size="10.00">/home/travis/build</text>
<text text-anchor="start" x="1790.5" y="-282.5" font-family="Helvetica,sans-Serif" font-size="10.00">/STORM&#45;IRIT/Radium&#45;Engine</text>
<text text-anchor="middle" x="1863" y="-271.5" font-family="Helvetica,sans-Serif" font-size="10.00">/src/Core/File/GeometryData.cpp</text>
</a>
</g>
</g>
<!-- Node2&#45;&gt;Node18 -->
<g id="edge17" class="edge"><title>Node2&#45;&gt;Node18</title>
<path fill="none" stroke="midnightblue" d="M1774.22,-342.874C1792.83,-330.952 1814.75,-316.912 1832.15,-305.765"/>
<polygon fill="midnightblue" stroke="midnightblue" points="1772.19,-340.018 1765.66,-348.359 1775.97,-345.912 1772.19,-340.018"/>
</g>
<!-- Node19 -->
<g id="node19" class="node"><title>Node19</title>
<g id="a_node19"><a xlink:href="AssimpGeometryDataLoader_8cpp.html" target="_top" xlink:title="/home/travis/build\l/STORM&#45;IRIT/Radium&#45;Engine\l/src/IO/AssimpLoader/AssimpGeometry\lDataLoader.cpp">
<polygon fill="white" stroke="black" points="1961.5,-259 1961.5,-311 2152.5,-311 2152.5,-259 1961.5,-259"/>
<text text-anchor="start" x="1969.5" y="-299" font-family="Helvetica,sans-Serif" font-size="10.00">/home/travis/build</text>
<text text-anchor="start" x="1969.5" y="-288" font-family="Helvetica,sans-Serif" font-size="10.00">/STORM&#45;IRIT/Radium&#45;Engine</text>
<text text-anchor="start" x="1969.5" y="-277" font-family="Helvetica,sans-Serif" font-size="10.00">/src/IO/AssimpLoader/AssimpGeometry</text>
<text text-anchor="middle" x="2057" y="-266" font-family="Helvetica,sans-Serif" font-size="10.00">DataLoader.cpp</text>
</a>
</g>
</g>
<!-- Node2&#45;&gt;Node19 -->
<g id="edge20" class="edge"><title>Node2&#45;&gt;Node19</title>
<path fill="none" stroke="midnightblue" d="M1821.62,-345.942C1864.73,-334.962 1916.97,-321.66 1961.27,-310.378"/>
<polygon fill="midnightblue" stroke="midnightblue" points="1820.54,-342.603 1811.72,-348.463 1822.27,-349.387 1820.54,-342.603"/>
</g>
<!-- Node20 -->
<g id="node20" class="node"><title>Node20</title>
<g id="a_node20"><a xlink:href="FancyMeshComponent_8hpp.html" target="_top" xlink:title="/home/travis/build\l/STORM&#45;IRIT/Radium&#45;Engine\l/Plugins/FancyMesh/src/FancyMesh\lComponent.hpp">
<polygon fill="white" stroke="black" points="1839,-169 1839,-221 2015,-221 2015,-169 1839,-169"/>
<text text-anchor="start" x="1847" y="-209" font-family="Helvetica,sans-Serif" font-size="10.00">/home/travis/build</text>
<text text-anchor="start" x="1847" y="-198" font-family="Helvetica,sans-Serif" font-size="10.00">/STORM&#45;IRIT/Radium&#45;Engine</text>
<text text-anchor="start" x="1847" y="-187" font-family="Helvetica,sans-Serif" font-size="10.00">/Plugins/FancyMesh/src/FancyMesh</text>
<text text-anchor="middle" x="1927" y="-176" font-family="Helvetica,sans-Serif" font-size="10.00">Component.hpp</text>
</a>
</g>
</g>
<!-- Node2&#45;&gt;Node20 -->
<g id="edge22" class="edge"><title>Node2&#45;&gt;Node20</title>
<path fill="none" stroke="midnightblue" d="M1738.73,-338.252C1743.23,-313.875 1753.01,-279.937 1774,-258 1791.53,-239.672 1815.23,-226.606 1838.73,-217.355"/>
<polygon fill="midnightblue" stroke="midnightblue" points="1735.24,-337.94 1737.06,-348.376 1742.14,-339.08 1735.24,-337.94"/>
</g>
<!-- Node4 -->
<g id="node4" class="node"><title>Node4</title>
<g id="a_node4"><a xlink:href="FileData_8hpp.html" target="_top" xlink:title="/home/travis/build\l/STORM&#45;IRIT/Radium&#45;Engine\l/src/Core/File/FileData.hpp">
<polygon fill="white" stroke="black" points="1123,-174.5 1123,-215.5 1271,-215.5 1271,-174.5 1123,-174.5"/>
<text text-anchor="start" x="1131" y="-203.5" font-family="Helvetica,sans-Serif" font-size="10.00">/home/travis/build</text>
<text text-anchor="start" x="1131" y="-192.5" font-family="Helvetica,sans-Serif" font-size="10.00">/STORM&#45;IRIT/Radium&#45;Engine</text>
<text text-anchor="middle" x="1197" y="-181.5" font-family="Helvetica,sans-Serif" font-size="10.00">/src/Core/File/FileData.hpp</text>
</a>
</g>
</g>
<!-- Node3&#45;&gt;Node4 -->
<g id="edge3" class="edge"><title>Node3&#45;&gt;Node4</title>
<path fill="none" stroke="midnightblue" d="M1334.61,-260.073C1304.66,-246.129 1267.36,-228.762 1239.15,-215.627"/>
<polygon fill="midnightblue" stroke="midnightblue" points="1333.51,-263.422 1344.05,-264.47 1336.47,-257.076 1333.51,-263.422"/>
</g>
<!-- Node5 -->
<g id="node5" class="node"><title>Node5</title>
<g id="a_node5"><a xlink:href="FileData_8cpp.html" target="_top" xlink:title="/home/travis/build\l/STORM&#45;IRIT/Radium&#45;Engine\l/src/Core/File/FileData.cpp">
<polygon fill="white" stroke="black" points="955,-84.5 955,-125.5 1103,-125.5 1103,-84.5 955,-84.5"/>
<text text-anchor="start" x="963" y="-113.5" font-family="Helvetica,sans-Serif" font-size="10.00">/home/travis/build</text>
<text text-anchor="start" x="963" y="-102.5" font-family="Helvetica,sans-Serif" font-size="10.00">/STORM&#45;IRIT/Radium&#45;Engine</text>
<text text-anchor="middle" x="1029" y="-91.5" font-family="Helvetica,sans-Serif" font-size="10.00">/src/Core/File/FileData.cpp</text>
</a>
</g>
</g>
<!-- Node4&#45;&gt;Node5 -->
<g id="edge4" class="edge"><title>Node4&#45;&gt;Node5</title>
<path fill="none" stroke="midnightblue" d="M1150.63,-169.71C1124.13,-155.828 1091.33,-138.648 1066.47,-125.627"/>
<polygon fill="midnightblue" stroke="midnightblue" points="1149.23,-172.93 1159.72,-174.47 1152.48,-166.729 1149.23,-172.93"/>
</g>
<!-- Node4&#45;&gt;Node6 -->
<g id="edge5" class="edge"><title>Node4&#45;&gt;Node6</title>
<path fill="none" stroke="midnightblue" d="M1112.76,-191.064C902.805,-183.391 360.367,-161.288 182,-132 178.933,-131.496 175.823,-130.935 172.69,-130.327"/>
<polygon fill="midnightblue" stroke="midnightblue" points="1112.68,-194.563 1122.8,-191.429 1112.94,-187.568 1112.68,-194.563"/>
</g>
<!-- Node7 -->
<g id="node7" class="node"><title>Node7</title>
<g id="a_node7"><a xlink:href="RadiumEngine_8cpp.html" target="_top" xlink:title="/home/travis/build\l/STORM&#45;IRIT/Radium&#45;Engine\l/src/Engine/RadiumEngine.cpp">
<polygon fill="white" stroke="black" points="1121,-84.5 1121,-125.5 1273,-125.5 1273,-84.5 1121,-84.5"/>
<text text-anchor="start" x="1129" y="-113.5" font-family="Helvetica,sans-Serif" font-size="10.00">/home/travis/build</text>
<text text-anchor="start" x="1129" y="-102.5" font-family="Helvetica,sans-Serif" font-size="10.00">/STORM&#45;IRIT/Radium&#45;Engine</text>
<text text-anchor="middle" x="1197" y="-91.5" font-family="Helvetica,sans-Serif" font-size="10.00">/src/Engine/RadiumEngine.cpp</text>
</a>
</g>
</g>
<!-- Node4&#45;&gt;Node7 -->
<g id="edge6" class="edge"><title>Node4&#45;&gt;Node7</title>
<path fill="none" stroke="midnightblue" d="M1197,-164.33C1197,-151.629 1197,-137.14 1197,-125.78"/>
<polygon fill="midnightblue" stroke="midnightblue" points="1193.5,-164.47 1197,-174.47 1200.5,-164.47 1193.5,-164.47"/>
</g>
<!-- Node8 -->
<g id="node8" class="node"><title>Node8</title>
<g id="a_node8"><a xlink:href="Renderer_8cpp.html" target="_top" xlink:title="/home/travis/build\l/STORM&#45;IRIT/Radium&#45;Engine\l/src/Engine/Renderer/Renderer.cpp">
<polygon fill="white" stroke="black" points="1291,-84.5 1291,-125.5 1461,-125.5 1461,-84.5 1291,-84.5"/>
<text text-anchor="start" x="1299" y="-113.5" font-family="Helvetica,sans-Serif" font-size="10.00">/home/travis/build</text>
<text text-anchor="start" x="1299" y="-102.5" font-family="Helvetica,sans-Serif" font-size="10.00">/STORM&#45;IRIT/Radium&#45;Engine</text>
<text text-anchor="middle" x="1376" y="-91.5" font-family="Helvetica,sans-Serif" font-size="10.00">/src/Engine/Renderer/Renderer.cpp</text>
</a>
</g>
</g>
<!-- Node4&#45;&gt;Node8 -->
<g id="edge7" class="edge"><title>Node4&#45;&gt;Node8</title>
<path fill="none" stroke="midnightblue" d="M1246.04,-169.891C1274.34,-155.979 1309.48,-138.705 1336.08,-125.627"/>
<polygon fill="midnightblue" stroke="midnightblue" points="1244.16,-166.917 1236.73,-174.47 1247.24,-173.199 1244.16,-166.917"/>
</g>
<!-- Node9 -->
<g id="node9" class="node"><title>Node9</title>
<g id="a_node9"><a xlink:href="Viewer_8cpp.html" target="_top" xlink:title="/home/travis/build\l/STORM&#45;IRIT/Radium&#45;Engine\l/src/GuiBase/Viewer/Viewer.cpp">
<polygon fill="white" stroke="black" points="1479,-84.5 1479,-125.5 1637,-125.5 1637,-84.5 1479,-84.5"/>
<text text-anchor="start" x="1487" y="-113.5" font-family="Helvetica,sans-Serif" font-size="10.00">/home/travis/build</text>
<text text-anchor="start" x="1487" y="-102.5" font-family="Helvetica,sans-Serif" font-size="10.00">/STORM&#45;IRIT/Radium&#45;Engine</text>
<text text-anchor="middle" x="1558" y="-91.5" font-family="Helvetica,sans-Serif" font-size="10.00">/src/GuiBase/Viewer/Viewer.cpp</text>
</a>
</g>
</g>
<!-- Node4&#45;&gt;Node9 -->
<g id="edge8" class="edge"><title>Node4&#45;&gt;Node9</title>
<path fill="none" stroke="midnightblue" d="M1281.08,-176.362C1335.23,-164.643 1407.02,-148.437 1470,-132 1477.71,-129.988 1485.76,-127.771 1493.73,-125.504"/>
<polygon fill="midnightblue" stroke="midnightblue" points="1280.21,-172.967 1271.18,-178.497 1281.69,-179.81 1280.21,-172.967"/>
</g>
<!-- Node10 -->
<g id="node10" class="node"><title>Node10</title>
<g id="a_node10"><a xlink:href="AssimpFileLoader_8cpp.html" target="_top" xlink:title="/home/travis/build\l/STORM&#45;IRIT/Radium&#45;Engine\l/src/IO/AssimpLoader/AssimpFile\lLoader.cpp">
<polygon fill="white" stroke="black" points="191,-79 191,-131 355,-131 355,-79 191,-79"/>
<text text-anchor="start" x="199" y="-119" font-family="Helvetica,sans-Serif" font-size="10.00">/home/travis/build</text>
<text text-anchor="start" x="199" y="-108" font-family="Helvetica,sans-Serif" font-size="10.00">/STORM&#45;IRIT/Radium&#45;Engine</text>
<text text-anchor="start" x="199" y="-97" font-family="Helvetica,sans-Serif" font-size="10.00">/src/IO/AssimpLoader/AssimpFile</text>
<text text-anchor="middle" x="273" y="-86" font-family="Helvetica,sans-Serif" font-size="10.00">Loader.cpp</text>
</a>
</g>
</g>
<!-- Node4&#45;&gt;Node10 -->
<g id="edge9" class="edge"><title>Node4&#45;&gt;Node10</title>
<path fill="none" stroke="midnightblue" d="M1112.68,-193.385C961.49,-191.029 634.753,-180.234 364,-132 361.088,-131.481 358.136,-130.907 355.164,-130.287"/>
<polygon fill="midnightblue" stroke="midnightblue" points="1112.78,-196.886 1122.83,-193.534 1112.88,-189.887 1112.78,-196.886"/>
</g>
<!-- Node11 -->
<g id="node11" class="node"><title>Node11</title>
<g id="a_node11"><a xlink:href="TinyPlyFileLoader_8cpp.html" target="_top" xlink:title="/home/travis/build\l/STORM&#45;IRIT/Radium&#45;Engine\l/src/IO/TinyPlyLoader/TinyPlyFile\lLoader.cpp">
<polygon fill="white" stroke="black" points="373,-79 373,-131 537,-131 537,-79 373,-79"/>
<text text-anchor="start" x="381" y="-119" font-family="Helvetica,sans-Serif" font-size="10.00">/home/travis/build</text>
<text text-anchor="start" x="381" y="-108" font-family="Helvetica,sans-Serif" font-size="10.00">/STORM&#45;IRIT/Radium&#45;Engine</text>
<text text-anchor="start" x="381" y="-97" font-family="Helvetica,sans-Serif" font-size="10.00">/src/IO/TinyPlyLoader/TinyPlyFile</text>
<text text-anchor="middle" x="455" y="-86" font-family="Helvetica,sans-Serif" font-size="10.00">Loader.cpp</text>
</a>
</g>
</g>
<!-- Node4&#45;&gt;Node11 -->
<g id="edge10" class="edge"><title>Node4&#45;&gt;Node11</title>
<path fill="none" stroke="midnightblue" d="M1112.42,-190.894C987.568,-185.197 747.015,-169.956 546,-132 543.094,-131.451 540.146,-130.851 537.178,-130.21"/>
<polygon fill="midnightblue" stroke="midnightblue" points="1112.52,-194.403 1122.67,-191.353 1112.84,-187.41 1112.52,-194.403"/>
</g>
<!-- Node12 -->
<g id="node12" class="node"><title>Node12</title>
<g id="a_node12"><a xlink:href="AnimationSystem_8cpp.html" target="_top" xlink:title="/home/travis/build\l/STORM&#45;IRIT/Radium&#45;Engine\l/Plugins/Animation/src/Animation\lSystem.cpp">
<polygon fill="white" stroke="black" points="555.5,-79 555.5,-131 716.5,-131 716.5,-79 555.5,-79"/>
<text text-anchor="start" x="563.5" y="-119" font-family="Helvetica,sans-Serif" font-size="10.00">/home/travis/build</text>
<text text-anchor="start" x="563.5" y="-108" font-family="Helvetica,sans-Serif" font-size="10.00">/STORM&#45;IRIT/Radium&#45;Engine</text>
<text text-anchor="start" x="563.5" y="-97" font-family="Helvetica,sans-Serif" font-size="10.00">/Plugins/Animation/src/Animation</text>
<text text-anchor="middle" x="636" y="-86" font-family="Helvetica,sans-Serif" font-size="10.00">System.cpp</text>
</a>
</g>
</g>
<!-- Node4&#45;&gt;Node12 -->
<g id="edge11" class="edge"><title>Node4&#45;&gt;Node12</title>
<path fill="none" stroke="midnightblue" d="M1112.9,-186.778C1018.18,-177.755 859.976,-160.004 726,-132 722.975,-131.368 719.904,-130.686 716.809,-129.966"/>
<polygon fill="midnightblue" stroke="midnightblue" points="1112.71,-190.276 1123,-187.73 1113.37,-183.307 1112.71,-190.276"/>
</g>
<!-- Node4&#45;&gt;Node13 -->
<g id="edge12" class="edge"><title>Node4&#45;&gt;Node13</title>
<path fill="none" stroke="midnightblue" d="M1281.14,-190.162C1402.99,-183.609 1635.3,-167.381 1830,-132 1832.92,-131.47 1835.87,-130.896 1838.85,-130.286"/>
<polygon fill="midnightblue" stroke="midnightblue" points="1280.93,-186.668 1271.13,-190.691 1281.3,-193.658 1280.93,-186.668"/>
</g>
<!-- Node4&#45;&gt;Node14 -->
<g id="edge13" class="edge"><title>Node4&#45;&gt;Node14</title>
<path fill="none" stroke="midnightblue" d="M1281.1,-192.794C1431.14,-189.511 1754.43,-177.308 2023,-132 2026.21,-131.458 2029.47,-130.859 2032.75,-130.214"/>
<polygon fill="midnightblue" stroke="midnightblue" points="1280.96,-189.296 1271.03,-193.007 1281.1,-196.295 1280.96,-189.296"/>
</g>
<!-- Node4&#45;&gt;Node15 -->
<g id="edge14" class="edge"><title>Node4&#45;&gt;Node15</title>
<path fill="none" stroke="midnightblue" d="M1281.45,-185.754C1371.95,-176.117 1519.53,-158.095 1645,-132 1648.12,-131.351 1651.29,-130.656 1654.48,-129.924"/>
<polygon fill="midnightblue" stroke="midnightblue" points="1280.83,-182.3 1271.25,-186.83 1281.56,-189.262 1280.83,-182.3"/>
</g>
<!-- Node16 -->
<g id="node16" class="node"><title>Node16</title>
<g id="a_node16"><a xlink:href="SkinningSystem_8hpp.html" target="_top" xlink:title="/home/travis/build\l/STORM&#45;IRIT/Radium&#45;Engine\l/Plugins/Skinning/src/SkinningSystem.hpp">
<polygon fill="white" stroke="black" points="735,-84.5 735,-125.5 937,-125.5 937,-84.5 735,-84.5"/>
<text text-anchor="start" x="743" y="-113.5" font-family="Helvetica,sans-Serif" font-size="10.00">/home/travis/build</text>
<text text-anchor="start" x="743" y="-102.5" font-family="Helvetica,sans-Serif" font-size="10.00">/STORM&#45;IRIT/Radium&#45;Engine</text>
<text text-anchor="middle" x="836" y="-91.5" font-family="Helvetica,sans-Serif" font-size="10.00">/Plugins/Skinning/src/SkinningSystem.hpp</text>
</a>
</g>
</g>
<!-- Node4&#45;&gt;Node16 -->
<g id="edge15" class="edge"><title>Node4&#45;&gt;Node16</title>
<path fill="none" stroke="midnightblue" d="M1112.56,-173.415C1053.29,-158.968 974.53,-139.769 916.221,-125.555"/>
<polygon fill="midnightblue" stroke="midnightblue" points="1112.09,-176.905 1122.64,-175.873 1113.75,-170.104 1112.09,-176.905"/>
</g>
<!-- Node17 -->
<g id="node17" class="node"><title>Node17</title>
<g id="a_node17"><a xlink:href="SkinningPlugin_8cpp.html" target="_top" xlink:title="/home/travis/build\l/STORM&#45;IRIT/Radium&#45;Engine\l/Plugins/Skinning/src/SkinningPlugin.cpp">
<polygon fill="white" stroke="black" points="738.5,-0.5 738.5,-41.5 933.5,-41.5 933.5,-0.5 738.5,-0.5"/>
<text text-anchor="start" x="746.5" y="-29.5" font-family="Helvetica,sans-Serif" font-size="10.00">/home/travis/build</text>
<text text-anchor="start" x="746.5" y="-18.5" font-family="Helvetica,sans-Serif" font-size="10.00">/STORM&#45;IRIT/Radium&#45;Engine</text>
<text text-anchor="middle" x="836" y="-7.5" font-family="Helvetica,sans-Serif" font-size="10.00">/Plugins/Skinning/src/SkinningPlugin.cpp</text>
</a>
</g>
</g>
<!-- Node16&#45;&gt;Node17 -->
<g id="edge16" class="edge"><title>Node16&#45;&gt;Node17</title>
<path fill="none" stroke="midnightblue" d="M836,-73.881C836,-63.1328 836,-51.309 836,-41.6671"/>
<polygon fill="midnightblue" stroke="midnightblue" points="832.5,-74.1501 836,-84.1501 839.5,-74.1501 832.5,-74.1501"/>
</g>
<!-- Node20&#45;&gt;Node13 -->
<g id="edge23" class="edge"><title>Node20&#45;&gt;Node13</title>
<path fill="none" stroke="midnightblue" d="M1927,-158.489C1927,-149.309 1927,-139.616 1927,-131.092"/>
<polygon fill="midnightblue" stroke="midnightblue" points="1923.5,-158.547 1927,-168.547 1930.5,-158.547 1923.5,-158.547"/>
</g>
<!-- Node20&#45;&gt;Node14 -->
<g id="edge24" class="edge"><title>Node20&#45;&gt;Node14</title>
<path fill="none" stroke="midnightblue" d="M1991.7,-164.654C2015.64,-153.792 2042.55,-141.586 2065.59,-131.133"/>
<polygon fill="midnightblue" stroke="midnightblue" points="1989.99,-161.582 1982.33,-168.901 1992.89,-167.957 1989.99,-161.582"/>
</g>
</g>
</svg>
