<?xml version="1.0" encoding="UTF-8" standalone="no"?>
<!DOCTYPE svg PUBLIC "-//W3C//DTD SVG 1.1//EN"
 "http://www.w3.org/Graphics/SVG/1.1/DTD/svg11.dtd">
<!-- Generated by graphviz version 2.36.0 (20140111.2315)
 -->
<!-- Title: /home/travis/build/STORM&#45;IRIT/Radium&#45;Engine/src/Core/File/GeometryData.hpp Pages: 1 -->
<svg width="2271pt" height="398pt"
 viewBox="0.00 0.00 2271.20 398.00" xmlns="http://www.w3.org/2000/svg" xmlns:xlink="http://www.w3.org/1999/xlink">
<g id="graph0" class="graph" transform="scale(1 1) rotate(0) translate(4 394)">
<title>/home/travis/build/STORM&#45;IRIT/Radium&#45;Engine/src/Core/File/GeometryData.hpp</title>
<polygon fill="white" stroke="none" points="-4,4 -4,-394 2267.2,-394 2267.2,4 -4,4"/>
<!-- Node1 -->
<g id="node1" class="node"><title>Node1</title>
<polygon fill="#bfbfbf" stroke="black" points="1640.5,-348.5 1640.5,-389.5 1801.5,-389.5 1801.5,-348.5 1640.5,-348.5"/>
<text text-anchor="start" x="1648.5" y="-377.5" font-family="Helvetica,sans-Serif" font-size="10.00">/home/travis/build</text>
<text text-anchor="start" x="1648.5" y="-366.5" font-family="Helvetica,sans-Serif" font-size="10.00">/STORM&#45;IRIT/Radium&#45;Engine</text>
<text text-anchor="middle" x="1721" y="-355.5" font-family="Helvetica,sans-Serif" font-size="10.00">/src/Core/File/GeometryData.hpp</text>
</g>
<!-- Node2 -->
<g id="node2" class="node"><title>Node2</title>
<g id="a_node2"><a xlink:href="FileData_8inl.html" target="_top" xlink:title="/home/travis/build\l/STORM&#45;IRIT/Radium&#45;Engine\l/src/Core/File/FileData.inl">
<polygon fill="white" stroke="black" points="1269,-264.5 1269,-305.5 1417,-305.5 1417,-264.5 1269,-264.5"/>
<text text-anchor="start" x="1277" y="-293.5" font-family="Helvetica,sans-Serif" font-size="10.00">/home/travis/build</text>
<text text-anchor="start" x="1277" y="-282.5" font-family="Helvetica,sans-Serif" font-size="10.00">/STORM&#45;IRIT/Radium&#45;Engine</text>
<text text-anchor="middle" x="1343" y="-271.5" font-family="Helvetica,sans-Serif" font-size="10.00">/src/Core/File/FileData.inl</text>
</a>
</g>
</g>
<!-- Node1&#45;&gt;Node2 -->
<g id="edge1" class="edge"><title>Node1&#45;&gt;Node2</title>
<path fill="none" stroke="midnightblue" d="M1630.5,-348.368C1565.24,-334.211 1478.23,-315.337 1417.09,-302.072"/>
<polygon fill="midnightblue" stroke="midnightblue" points="1629.86,-351.81 1640.37,-350.51 1631.34,-344.969 1629.86,-351.81"/>
</g>
<!-- Node5 -->
<g id="node5" class="node"><title>Node5</title>
<g id="a_node5"><a xlink:href="LightManager_8cpp.html" target="_top" xlink:title="/home/travis/build\l/STORM&#45;IRIT/Radium&#45;Engine\l/src/Engine/Managers/LightManager\l/LightManager.cpp">
<polygon fill="white" stroke="black" points="-0.5,-79 -0.5,-131 172.5,-131 172.5,-79 -0.5,-79"/>
<text text-anchor="start" x="7.5" y="-119" font-family="Helvetica,sans-Serif" font-size="10.00">/home/travis/build</text>
<text text-anchor="start" x="7.5" y="-108" font-family="Helvetica,sans-Serif" font-size="10.00">/STORM&#45;IRIT/Radium&#45;Engine</text>
<text text-anchor="start" x="7.5" y="-97" font-family="Helvetica,sans-Serif" font-size="10.00">/src/Engine/Managers/LightManager</text>
<text text-anchor="middle" x="86" y="-86" font-family="Helvetica,sans-Serif" font-size="10.00">/LightManager.cpp</text>
</a>
</g>
</g>
<!-- Node1&#45;&gt;Node5 -->
<g id="edge19" class="edge"><title>Node1&#45;&gt;Node5</title>
<path fill="none" stroke="midnightblue" d="M1630.55,-358.218C1537.48,-347.87 1388.39,-330.507 1260,-312 779.225,-242.695 656.564,-235.618 182,-132 178.879,-131.319 175.708,-130.6 172.51,-129.853"/>
<polygon fill="midnightblue" stroke="midnightblue" points="1630.17,-361.697 1640.49,-359.321 1630.94,-354.74 1630.17,-361.697"/>
</g>
<!-- Node12 -->
<g id="node12" class="node"><title>Node12</title>
<g id="a_node12"><a xlink:href="FancyMeshComponent_8cpp.html" target="_top" xlink:title="/home/travis/build\l/STORM&#45;IRIT/Radium&#45;Engine\l/Plugins/FancyMesh/src/FancyMesh\lComponent.cpp">
<polygon fill="white" stroke="black" points="1839,-79 1839,-131 2015,-131 2015,-79 1839,-79"/>
<text text-anchor="start" x="1847" y="-119" font-family="Helvetica,sans-Serif" font-size="10.00">/home/travis/build</text>
<text text-anchor="start" x="1847" y="-108" font-family="Helvetica,sans-Serif" font-size="10.00">/STORM&#45;IRIT/Radium&#45;Engine</text>
<text text-anchor="start" x="1847" y="-97" font-family="Helvetica,sans-Serif" font-size="10.00">/Plugins/FancyMesh/src/FancyMesh</text>
<text text-anchor="middle" x="1927" y="-86" font-family="Helvetica,sans-Serif" font-size="10.00">Component.cpp</text>
</a>
</g>
</g>
<!-- Node1&#45;&gt;Node12 -->
<g id="edge21" class="edge"><title>Node1&#45;&gt;Node12</title>
<path fill="none" stroke="midnightblue" d="M1691.98,-341.097C1684.69,-332.575 1677.86,-322.593 1674,-312 1665.79,-289.448 1662.18,-278.888 1674,-258 1710.27,-193.891 1785.58,-153.853 1844.65,-131.066"/>
<polygon fill="midnightblue" stroke="midnightblue" points="1689.4,-343.46 1698.72,-348.487 1694.57,-338.741 1689.4,-343.46"/>
</g>
<!-- Node13 -->
<g id="node13" class="node"><title>Node13</title>
<g id="a_node13"><a xlink:href="FancyMeshSystem_8cpp.html" target="_top" xlink:title="/home/travis/build\l/STORM&#45;IRIT/Radium&#45;Engine\l/Plugins/FancyMesh/src/FancyMesh\lSystem.cpp">
<polygon fill="white" stroke="black" points="2033,-79 2033,-131 2209,-131 2209,-79 2033,-79"/>
<text text-anchor="start" x="2041" y="-119" font-family="Helvetica,sans-Serif" font-size="10.00">/home/travis/build</text>
<text text-anchor="start" x="2041" y="-108" font-family="Helvetica,sans-Serif" font-size="10.00">/STORM&#45;IRIT/Radium&#45;Engine</text>
<text text-anchor="start" x="2041" y="-97" font-family="Helvetica,sans-Serif" font-size="10.00">/Plugins/FancyMesh/src/FancyMesh</text>
<text text-anchor="middle" x="2121" y="-86" font-family="Helvetica,sans-Serif" font-size="10.00">System.cpp</text>
</a>
</g>
</g>
<!-- Node1&#45;&gt;Node13 -->
<g id="edge25" class="edge"><title>Node1&#45;&gt;Node13</title>
<path fill="none" stroke="midnightblue" d="M1811.83,-364.82C1954.66,-358.873 2218.5,-343.698 2247,-312 2299,-254.172 2209.48,-171.987 2156.23,-131.107"/>
<polygon fill="midnightblue" stroke="midnightblue" points="1811.61,-361.326 1801.77,-365.232 1811.9,-368.32 1811.61,-361.326"/>
</g>
<!-- Node14 -->
<g id="node14" class="node"><title>Node14</title>
<g id="a_node14"><a xlink:href="MeshPaintSystem_8cpp.html" target="_top" xlink:title="/home/travis/build\l/STORM&#45;IRIT/Radium&#45;Engine\l/Plugins/MeshPaint/src/MeshPaint\lSystem.cpp">
<polygon fill="white" stroke="black" points="1654.5,-79 1654.5,-131 1821.5,-131 1821.5,-79 1654.5,-79"/>
<text text-anchor="start" x="1662.5" y="-119" font-family="Helvetica,sans-Serif" font-size="10.00">/home/travis/build</text>
<text text-anchor="start" x="1662.5" y="-108" font-family="Helvetica,sans-Serif" font-size="10.00">/STORM&#45;IRIT/Radium&#45;Engine</text>
<text text-anchor="start" x="1662.5" y="-97" font-family="Helvetica,sans-Serif" font-size="10.00">/Plugins/MeshPaint/src/MeshPaint</text>
<text text-anchor="middle" x="1738" y="-86" font-family="Helvetica,sans-Serif" font-size="10.00">System.cpp</text>
</a>
</g>
</g>
<!-- Node1&#45;&gt;Node14 -->
<g id="edge26" class="edge"><title>Node1&#45;&gt;Node14</title>
<path fill="none" stroke="midnightblue" d="M1648.86,-343.541C1635.38,-335.615 1623.02,-325.307 1615,-312 1581.96,-257.185 1581.44,-222.496 1615,-168 1624.84,-152.015 1640.22,-140.004 1656.8,-131.032"/>
<polygon fill="midnightblue" stroke="midnightblue" points="1647.38,-346.725 1657.84,-348.414 1650.72,-340.571 1647.38,-346.725"/>
</g>
<!-- Node17 -->
<g id="node17" class="node"><title>Node17</title>
<g id="a_node17"><a xlink:href="GeometryData_8cpp.html" target="_top" xlink:title="/home/travis/build\l/STORM&#45;IRIT/Radium&#45;Engine\l/src/Core/File/GeometryData.cpp">
<polygon fill="white" stroke="black" points="1695.5,-264.5 1695.5,-305.5 1856.5,-305.5 1856.5,-264.5 1695.5,-264.5"/>
<text text-anchor="start" x="1703.5" y="-293.5" font-family="Helvetica,sans-Serif" font-size="10.00">/home/travis/build</text>
<text text-anchor="start" x="1703.5" y="-282.5" font-family="Helvetica,sans-Serif" font-size="10.00">/STORM&#45;IRIT/Radium&#45;Engine</text>
<text text-anchor="middle" x="1776" y="-271.5" font-family="Helvetica,sans-Serif" font-size="10.00">/src/Core/File/GeometryData.cpp</text>
</a>
</g>
</g>
<!-- Node1&#45;&gt;Node17 -->
<g id="edge16" class="edge"><title>Node1&#45;&gt;Node17</title>
<path fill="none" stroke="midnightblue" d="M1740.08,-339.551C1747.58,-328.37 1756,-315.811 1762.81,-305.667"/>
<polygon fill="midnightblue" stroke="midnightblue" points="1736.98,-337.896 1734.31,-348.15 1742.79,-341.795 1736.98,-337.896"/>
</g>
<!-- Node18 -->
<g id="node18" class="node"><title>Node18</title>
<g id="a_node18"><a xlink:href="GeometryData_8inl.html" target="_top" xlink:title="/home/travis/build\l/STORM&#45;IRIT/Radium&#45;Engine\l/src/Core/File/GeometryData.inl">
<polygon fill="white" stroke="black" points="1874.5,-264.5 1874.5,-305.5 2029.5,-305.5 2029.5,-264.5 1874.5,-264.5"/>
<text text-anchor="start" x="1882.5" y="-293.5" font-family="Helvetica,sans-Serif" font-size="10.00">/home/travis/build</text>
<text text-anchor="start" x="1882.5" y="-282.5" font-family="Helvetica,sans-Serif" font-size="10.00">/STORM&#45;IRIT/Radium&#45;Engine</text>
<text text-anchor="middle" x="1952" y="-271.5" font-family="Helvetica,sans-Serif" font-size="10.00">/src/Core/File/GeometryData.inl</text>
</a>
</g>
</g>
<!-- Node1&#45;&gt;Node18 -->
<g id="edge17" class="edge"><title>Node1&#45;&gt;Node18</title>
<path fill="none" stroke="midnightblue" d="M1780,-344.874C1814.06,-332.465 1856.77,-317.341 1891.14,-305.529"/>
<polygon fill="midnightblue" stroke="midnightblue" points="1778.38,-341.742 1770.19,-348.463 1780.78,-348.316 1778.38,-341.742"/>
</g>
<!-- Node19 -->
<g id="node19" class="node"><title>Node19</title>
<g id="a_node19"><a xlink:href="AssimpGeometryDataLoader_8cpp.html" target="_top" xlink:title="/home/travis/build\l/STORM&#45;IRIT/Radium&#45;Engine\l/src/IO/AssimpLoader/AssimpGeometry\lDataLoader.cpp">
<polygon fill="white" stroke="black" points="2047.5,-259 2047.5,-311 2238.5,-311 2238.5,-259 2047.5,-259"/>
<text text-anchor="start" x="2055.5" y="-299" font-family="Helvetica,sans-Serif" font-size="10.00">/home/travis/build</text>
<text text-anchor="start" x="2055.5" y="-288" font-family="Helvetica,sans-Serif" font-size="10.00">/STORM&#45;IRIT/Radium&#45;Engine</text>
<text text-anchor="start" x="2055.5" y="-277" font-family="Helvetica,sans-Serif" font-size="10.00">/src/IO/AssimpLoader/AssimpGeometry</text>
<text text-anchor="middle" x="2143" y="-266" font-family="Helvetica,sans-Serif" font-size="10.00">DataLoader.cpp</text>
</a>
</g>
</g>
<!-- Node1&#45;&gt;Node19 -->
<g id="edge20" class="edge"><title>Node1&#45;&gt;Node19</title>
<path fill="none" stroke="midnightblue" d="M1811.74,-353.651C1875.3,-343.19 1962.1,-328.082 2038,-312 2041.12,-311.338 2044.29,-310.65 2047.49,-309.941"/>
<polygon fill="midnightblue" stroke="midnightblue" points="1811.05,-350.218 1801.74,-355.289 1812.18,-357.125 1811.05,-350.218"/>
</g>
<!-- Node20 -->
<g id="node20" class="node"><title>Node20</title>
<g id="a_node20"><a xlink:href="FancyMeshComponent_8hpp.html" target="_top" xlink:title="/home/travis/build\l/STORM&#45;IRIT/Radium&#45;Engine\l/Plugins/FancyMesh/src/FancyMesh\lComponent.hpp">
<polygon fill="white" stroke="black" points="1839,-169 1839,-221 2015,-221 2015,-169 1839,-169"/>
<text text-anchor="start" x="1847" y="-209" font-family="Helvetica,sans-Serif" font-size="10.00">/home/travis/build</text>
<text text-anchor="start" x="1847" y="-198" font-family="Helvetica,sans-Serif" font-size="10.00">/STORM&#45;IRIT/Radium&#45;Engine</text>
<text text-anchor="start" x="1847" y="-187" font-family="Helvetica,sans-Serif" font-size="10.00">/Plugins/FancyMesh/src/FancyMesh</text>
<text text-anchor="middle" x="1927" y="-176" font-family="Helvetica,sans-Serif" font-size="10.00">Component.hpp</text>
</a>
</g>
</g>
<!-- Node1&#45;&gt;Node20 -->
<g id="edge22" class="edge"><title>Node1&#45;&gt;Node20</title>
<path fill="none" stroke="midnightblue" d="M1699.33,-339.9C1683.75,-316.029 1668.47,-281.927 1687,-258 1705.81,-233.716 1778.27,-217.236 1838.69,-207.408"/>
<polygon fill="midnightblue" stroke="midnightblue" points="1696.48,-341.929 1705.02,-348.194 1702.25,-337.969 1696.48,-341.929"/>
</g>
<!-- Node3 -->
<g id="node3" class="node"><title>Node3</title>
<g id="a_node3"><a xlink:href="FileData_8hpp.html" target="_top" xlink:title="/home/travis/build\l/STORM&#45;IRIT/Radium&#45;Engine\l/src/Core/File/FileData.hpp">
<polygon fill="white" stroke="black" points="1123,-174.5 1123,-215.5 1271,-215.5 1271,-174.5 1123,-174.5"/>
<text text-anchor="start" x="1131" y="-203.5" font-family="Helvetica,sans-Serif" font-size="10.00">/home/travis/build</text>
<text text-anchor="start" x="1131" y="-192.5" font-family="Helvetica,sans-Serif" font-size="10.00">/STORM&#45;IRIT/Radium&#45;Engine</text>
<text text-anchor="middle" x="1197" y="-181.5" font-family="Helvetica,sans-Serif" font-size="10.00">/src/Core/File/FileData.hpp</text>
</a>
</g>
</g>
<!-- Node2&#45;&gt;Node3 -->
<g id="edge2" class="edge"><title>Node2&#45;&gt;Node3</title>
<path fill="none" stroke="midnightblue" d="M1301.79,-259.163C1278.92,-245.379 1250.88,-228.477 1229.56,-215.627"/>
<polygon fill="midnightblue" stroke="midnightblue" points="1300.23,-262.305 1310.6,-264.47 1303.84,-256.31 1300.23,-262.305"/>
</g>
<!-- Node4 -->
<g id="node4" class="node"><title>Node4</title>
<g id="a_node4"><a xlink:href="FileData_8cpp.html" target="_top" xlink:title="/home/travis/build\l/STORM&#45;IRIT/Radium&#45;Engine\l/src/Core/File/FileData.cpp">
<polygon fill="white" stroke="black" points="955,-84.5 955,-125.5 1103,-125.5 1103,-84.5 955,-84.5"/>
<text text-anchor="start" x="963" y="-113.5" font-family="Helvetica,sans-Serif" font-size="10.00">/home/travis/build</text>
<text text-anchor="start" x="963" y="-102.5" font-family="Helvetica,sans-Serif" font-size="10.00">/STORM&#45;IRIT/Radium&#45;Engine</text>
<text text-anchor="middle" x="1029" y="-91.5" font-family="Helvetica,sans-Serif" font-size="10.00">/src/Core/File/FileData.cpp</text>
</a>
</g>
</g>
<!-- Node3&#45;&gt;Node4 -->
<g id="edge3" class="edge"><title>Node3&#45;&gt;Node4</title>
<path fill="none" stroke="midnightblue" d="M1150.63,-169.71C1124.13,-155.828 1091.33,-138.648 1066.47,-125.627"/>
<polygon fill="midnightblue" stroke="midnightblue" points="1149.23,-172.93 1159.72,-174.47 1152.48,-166.729 1149.23,-172.93"/>
</g>
<!-- Node3&#45;&gt;Node5 -->
<g id="edge4" class="edge"><title>Node3&#45;&gt;Node5</title>
<path fill="none" stroke="midnightblue" d="M1112.76,-191.064C902.805,-183.391 360.367,-161.288 182,-132 178.933,-131.496 175.823,-130.935 172.69,-130.327"/>
<polygon fill="midnightblue" stroke="midnightblue" points="1112.68,-194.563 1122.8,-191.429 1112.94,-187.568 1112.68,-194.563"/>
</g>
<!-- Node6 -->
<g id="node6" class="node"><title>Node6</title>
<g id="a_node6"><a xlink:href="RadiumEngine_8cpp.html" target="_top" xlink:title="/home/travis/build\l/STORM&#45;IRIT/Radium&#45;Engine\l/src/Engine/RadiumEngine.cpp">
<polygon fill="white" stroke="black" points="1121,-84.5 1121,-125.5 1273,-125.5 1273,-84.5 1121,-84.5"/>
<text text-anchor="start" x="1129" y="-113.5" font-family="Helvetica,sans-Serif" font-size="10.00">/home/travis/build</text>
<text text-anchor="start" x="1129" y="-102.5" font-family="Helvetica,sans-Serif" font-size="10.00">/STORM&#45;IRIT/Radium&#45;Engine</text>
<text text-anchor="middle" x="1197" y="-91.5" font-family="Helvetica,sans-Serif" font-size="10.00">/src/Engine/RadiumEngine.cpp</text>
</a>
</g>
</g>
<!-- Node3&#45;&gt;Node6 -->
<g id="edge5" class="edge"><title>Node3&#45;&gt;Node6</title>
<path fill="none" stroke="midnightblue" d="M1197,-164.33C1197,-151.629 1197,-137.14 1197,-125.78"/>
<polygon fill="midnightblue" stroke="midnightblue" points="1193.5,-164.47 1197,-174.47 1200.5,-164.47 1193.5,-164.47"/>
</g>
<!-- Node7 -->
<g id="node7" class="node"><title>Node7</title>
<g id="a_node7"><a xlink:href="Renderer_8cpp.html" target="_top" xlink:title="/home/travis/build\l/STORM&#45;IRIT/Radium&#45;Engine\l/src/Engine/Renderer/Renderer.cpp">
<polygon fill="white" stroke="black" points="1291,-84.5 1291,-125.5 1461,-125.5 1461,-84.5 1291,-84.5"/>
<text text-anchor="start" x="1299" y="-113.5" font-family="Helvetica,sans-Serif" font-size="10.00">/home/travis/build</text>
<text text-anchor="start" x="1299" y="-102.5" font-family="Helvetica,sans-Serif" font-size="10.00">/STORM&#45;IRIT/Radium&#45;Engine</text>
<text text-anchor="middle" x="1376" y="-91.5" font-family="Helvetica,sans-Serif" font-size="10.00">/src/Engine/Renderer/Renderer.cpp</text>
</a>
</g>
</g>
<!-- Node3&#45;&gt;Node7 -->
<g id="edge6" class="edge"><title>Node3&#45;&gt;Node7</title>
<path fill="none" stroke="midnightblue" d="M1246.04,-169.891C1274.34,-155.979 1309.48,-138.705 1336.08,-125.627"/>
<polygon fill="midnightblue" stroke="midnightblue" points="1244.16,-166.917 1236.73,-174.47 1247.24,-173.199 1244.16,-166.917"/>
</g>
<!-- Node8 -->
<g id="node8" class="node"><title>Node8</title>
<g id="a_node8"><a xlink:href="Viewer_8cpp.html" target="_top" xlink:title="/home/travis/build\l/STORM&#45;IRIT/Radium&#45;Engine\l/src/GuiBase/Viewer/Viewer.cpp">
<polygon fill="white" stroke="black" points="1479,-84.5 1479,-125.5 1637,-125.5 1637,-84.5 1479,-84.5"/>
<text text-anchor="start" x="1487" y="-113.5" font-family="Helvetica,sans-Serif" font-size="10.00">/home/travis/build</text>
<text text-anchor="start" x="1487" y="-102.5" font-family="Helvetica,sans-Serif" font-size="10.00">/STORM&#45;IRIT/Radium&#45;Engine</text>
<text text-anchor="middle" x="1558" y="-91.5" font-family="Helvetica,sans-Serif" font-size="10.00">/src/GuiBase/Viewer/Viewer.cpp</text>
</a>
</g>
</g>
<!-- Node3&#45;&gt;Node8 -->
<g id="edge7" class="edge"><title>Node3&#45;&gt;Node8</title>
<path fill="none" stroke="midnightblue" d="M1281.08,-176.362C1335.23,-164.643 1407.02,-148.437 1470,-132 1477.71,-129.988 1485.76,-127.771 1493.73,-125.504"/>
<polygon fill="midnightblue" stroke="midnightblue" points="1280.21,-172.967 1271.18,-178.497 1281.69,-179.81 1280.21,-172.967"/>
</g>
<!-- Node9 -->
<g id="node9" class="node"><title>Node9</title>
<g id="a_node9"><a xlink:href="AssimpFileLoader_8cpp.html" target="_top" xlink:title="/home/travis/build\l/STORM&#45;IRIT/Radium&#45;Engine\l/src/IO/AssimpLoader/AssimpFile\lLoader.cpp">
<polygon fill="white" stroke="black" points="191,-79 191,-131 355,-131 355,-79 191,-79"/>
<text text-anchor="start" x="199" y="-119" font-family="Helvetica,sans-Serif" font-size="10.00">/home/travis/build</text>
<text text-anchor="start" x="199" y="-108" font-family="Helvetica,sans-Serif" font-size="10.00">/STORM&#45;IRIT/Radium&#45;Engine</text>
<text text-anchor="start" x="199" y="-97" font-family="Helvetica,sans-Serif" font-size="10.00">/src/IO/AssimpLoader/AssimpFile</text>
<text text-anchor="middle" x="273" y="-86" font-family="Helvetica,sans-Serif" font-size="10.00">Loader.cpp</text>
</a>
</g>
</g>
<!-- Node3&#45;&gt;Node9 -->
<g id="edge8" class="edge"><title>Node3&#45;&gt;Node9</title>
<path fill="none" stroke="midnightblue" d="M1112.68,-193.385C961.49,-191.029 634.753,-180.234 364,-132 361.088,-131.481 358.136,-130.907 355.164,-130.287"/>
<polygon fill="midnightblue" stroke="midnightblue" points="1112.78,-196.886 1122.83,-193.534 1112.88,-189.887 1112.78,-196.886"/>
</g>
<!-- Node10 -->
<g id="node10" class="node"><title>Node10</title>
<g id="a_node10"><a xlink:href="TinyPlyFileLoader_8cpp.html" target="_top" xlink:title="/home/travis/build\l/STORM&#45;IRIT/Radium&#45;Engine\l/src/IO/TinyPlyLoader/TinyPlyFile\lLoader.cpp">
<polygon fill="white" stroke="black" points="373,-79 373,-131 537,-131 537,-79 373,-79"/>
<text text-anchor="start" x="381" y="-119" font-family="Helvetica,sans-Serif" font-size="10.00">/home/travis/build</text>
<text text-anchor="start" x="381" y="-108" font-family="Helvetica,sans-Serif" font-size="10.00">/STORM&#45;IRIT/Radium&#45;Engine</text>
<text text-anchor="start" x="381" y="-97" font-family="Helvetica,sans-Serif" font-size="10.00">/src/IO/TinyPlyLoader/TinyPlyFile</text>
<text text-anchor="middle" x="455" y="-86" font-family="Helvetica,sans-Serif" font-size="10.00">Loader.cpp</text>
</a>
</g>
</g>
<!-- Node3&#45;&gt;Node10 -->
<g id="edge9" class="edge"><title>Node3&#45;&gt;Node10</title>
<path fill="none" stroke="midnightblue" d="M1112.42,-190.894C987.568,-185.197 747.015,-169.956 546,-132 543.094,-131.451 540.146,-130.851 537.178,-130.21"/>
<polygon fill="midnightblue" stroke="midnightblue" points="1112.52,-194.403 1122.67,-191.353 1112.84,-187.41 1112.52,-194.403"/>
</g>
<!-- Node11 -->
<g id="node11" class="node"><title>Node11</title>
<g id="a_node11"><a xlink:href="AnimationSystem_8cpp.html" target="_top" xlink:title="/home/travis/build\l/STORM&#45;IRIT/Radium&#45;Engine\l/Plugins/Animation/src/Animation\lSystem.cpp">
<polygon fill="white" stroke="black" points="555.5,-79 555.5,-131 716.5,-131 716.5,-79 555.5,-79"/>
<text text-anchor="start" x="563.5" y="-119" font-family="Helvetica,sans-Serif" font-size="10.00">/home/travis/build</text>
<text text-anchor="start" x="563.5" y="-108" font-family="Helvetica,sans-Serif" font-size="10.00">/STORM&#45;IRIT/Radium&#45;Engine</text>
<text text-anchor="start" x="563.5" y="-97" font-family="Helvetica,sans-Serif" font-size="10.00">/Plugins/Animation/src/Animation</text>
<text text-anchor="middle" x="636" y="-86" font-family="Helvetica,sans-Serif" font-size="10.00">System.cpp</text>
</a>
</g>
</g>
<!-- Node3&#45;&gt;Node11 -->
<g id="edge10" class="edge"><title>Node3&#45;&gt;Node11</title>
<path fill="none" stroke="midnightblue" d="M1112.9,-186.778C1018.18,-177.755 859.976,-160.004 726,-132 722.975,-131.368 719.904,-130.686 716.809,-129.966"/>
<polygon fill="midnightblue" stroke="midnightblue" points="1112.71,-190.276 1123,-187.73 1113.37,-183.307 1112.71,-190.276"/>
</g>
<!-- Node3&#45;&gt;Node12 -->
<g id="edge11" class="edge"><title>Node3&#45;&gt;Node12</title>
<path fill="none" stroke="midnightblue" d="M1281.14,-190.162C1402.99,-183.609 1635.3,-167.381 1830,-132 1832.92,-131.47 1835.87,-130.896 1838.85,-130.286"/>
<polygon fill="midnightblue" stroke="midnightblue" points="1280.93,-186.668 1271.13,-190.691 1281.3,-193.658 1280.93,-186.668"/>
</g>
<!-- Node3&#45;&gt;Node13 -->
<g id="edge12" class="edge"><title>Node3&#45;&gt;Node13</title>
<path fill="none" stroke="midnightblue" d="M1281.1,-192.794C1431.14,-189.511 1754.43,-177.308 2023,-132 2026.21,-131.458 2029.47,-130.859 2032.75,-130.214"/>
<polygon fill="midnightblue" stroke="midnightblue" points="1280.96,-189.296 1271.03,-193.007 1281.1,-196.295 1280.96,-189.296"/>
</g>
<!-- Node3&#45;&gt;Node14 -->
<g id="edge13" class="edge"><title>Node3&#45;&gt;Node14</title>
<path fill="none" stroke="midnightblue" d="M1281.45,-185.754C1371.95,-176.117 1519.53,-158.095 1645,-132 1648.12,-131.351 1651.29,-130.656 1654.48,-129.924"/>
<polygon fill="midnightblue" stroke="midnightblue" points="1280.83,-182.3 1271.25,-186.83 1281.56,-189.262 1280.83,-182.3"/>
</g>
<!-- Node15 -->
<g id="node15" class="node"><title>Node15</title>
<g id="a_node15"><a xlink:href="SkinningSystem_8hpp.html" target="_top" xlink:title="/home/travis/build\l/STORM&#45;IRIT/Radium&#45;Engine\l/Plugins/Skinning/src/SkinningSystem.hpp">
<polygon fill="white" stroke="black" points="735,-84.5 735,-125.5 937,-125.5 937,-84.5 735,-84.5"/>
<text text-anchor="start" x="743" y="-113.5" font-family="Helvetica,sans-Serif" font-size="10.00">/home/travis/build</text>
<text text-anchor="start" x="743" y="-102.5" font-family="Helvetica,sans-Serif" font-size="10.00">/STORM&#45;IRIT/Radium&#45;Engine</text>
<text text-anchor="middle" x="836" y="-91.5" font-family="Helvetica,sans-Serif" font-size="10.00">/Plugins/Skinning/src/SkinningSystem.hpp</text>
</a>
</g>
</g>
<!-- Node3&#45;&gt;Node15 -->
<g id="edge14" class="edge"><title>Node3&#45;&gt;Node15</title>
<path fill="none" stroke="midnightblue" d="M1112.56,-173.415C1053.29,-158.968 974.53,-139.769 916.221,-125.555"/>
<polygon fill="midnightblue" stroke="midnightblue" points="1112.09,-176.905 1122.64,-175.873 1113.75,-170.104 1112.09,-176.905"/>
</g>
<!-- Node16 -->
<g id="node16" class="node"><title>Node16</title>
<g id="a_node16"><a xlink:href="SkinningPlugin_8cpp.html" target="_top" xlink:title="/home/travis/build\l/STORM&#45;IRIT/Radium&#45;Engine\l/Plugins/Skinning/src/SkinningPlugin.cpp">
<polygon fill="white" stroke="black" points="738.5,-0.5 738.5,-41.5 933.5,-41.5 933.5,-0.5 738.5,-0.5"/>
<text text-anchor="start" x="746.5" y="-29.5" font-family="Helvetica,sans-Serif" font-size="10.00">/home/travis/build</text>
<text text-anchor="start" x="746.5" y="-18.5" font-family="Helvetica,sans-Serif" font-size="10.00">/STORM&#45;IRIT/Radium&#45;Engine</text>
<text text-anchor="middle" x="836" y="-7.5" font-family="Helvetica,sans-Serif" font-size="10.00">/Plugins/Skinning/src/SkinningPlugin.cpp</text>
</a>
</g>
</g>
<!-- Node15&#45;&gt;Node16 -->
<g id="edge15" class="edge"><title>Node15&#45;&gt;Node16</title>
<path fill="none" stroke="midnightblue" d="M836,-73.881C836,-63.1328 836,-51.309 836,-41.6671"/>
<polygon fill="midnightblue" stroke="midnightblue" points="832.5,-74.1501 836,-84.1501 839.5,-74.1501 832.5,-74.1501"/>
</g>
<!-- Node18&#45;&gt;Node1 -->
<g id="edge18" class="edge"><title>Node18&#45;&gt;Node1</title>
<path fill="none" stroke="midnightblue" d="M1893.02,-309.118C1858.96,-321.525 1816.26,-336.65 1781.89,-348.463"/>
<polygon fill="midnightblue" stroke="midnightblue" points="1894.64,-312.25 1902.83,-305.529 1892.24,-305.676 1894.64,-312.25"/>
</g>
<!-- Node20&#45;&gt;Node12 -->
<g id="edge23" class="edge"><title>Node20&#45;&gt;Node12</title>
<path fill="none" stroke="midnightblue" d="M1927,-158.489C1927,-149.309 1927,-139.616 1927,-131.092"/>
<polygon fill="midnightblue" stroke="midnightblue" points="1923.5,-158.547 1927,-168.547 1930.5,-158.547 1923.5,-158.547"/>
</g>
<!-- Node20&#45;&gt;Node13 -->
<g id="edge24" class="edge"><title>Node20&#45;&gt;Node13</title>
<path fill="none" stroke="midnightblue" d="M1991.7,-164.654C2015.64,-153.792 2042.55,-141.586 2065.59,-131.133"/>
<polygon fill="midnightblue" stroke="midnightblue" points="1989.99,-161.582 1982.33,-168.901 1992.89,-167.957 1989.99,-161.582"/>
</g>
</g>
</svg>
