<?xml version="1.0" encoding="UTF-8" standalone="no"?>
<!DOCTYPE svg PUBLIC "-//W3C//DTD SVG 1.1//EN"
 "http://www.w3.org/Graphics/SVG/1.1/DTD/svg11.dtd">
<!-- Generated by graphviz version 2.36.0 (20140111.2315)
 -->
<!-- Title: /home/travis/build/STORM&#45;IRIT/Radium&#45;Engine/src/Core/Mesh/HalfEdge.cpp Pages: 1 -->
<svg width="1781pt" height="522pt"
 viewBox="0.00 0.00 1780.54 522.00" xmlns="http://www.w3.org/2000/svg" xmlns:xlink="http://www.w3.org/1999/xlink">
<g id="graph0" class="graph" transform="scale(1 1) rotate(0) translate(4 518)">
<title>/home/travis/build/STORM&#45;IRIT/Radium&#45;Engine/src/Core/Mesh/HalfEdge.cpp</title>
<polygon fill="white" stroke="none" points="-4,4 -4,-518 1776.54,-518 1776.54,4 -4,4"/>
<!-- Node1 -->
<g id="node1" class="node"><title>Node1</title>
<polygon fill="#bfbfbf" stroke="black" points="1197.96,-472.5 1197.96,-513.5 1345.96,-513.5 1345.96,-472.5 1197.96,-472.5"/>
<text text-anchor="start" x="1205.96" y="-501.5" font-family="Helvetica,sans-Serif" font-size="10.00">/home/travis/build</text>
<text text-anchor="start" x="1205.96" y="-490.5" font-family="Helvetica,sans-Serif" font-size="10.00">/STORM&#45;IRIT/Radium&#45;Engine</text>
<text text-anchor="middle" x="1271.96" y="-479.5" font-family="Helvetica,sans-Serif" font-size="10.00">/src/Core/Mesh/HalfEdge.cpp</text>
</g>
<!-- Node2 -->
<g id="node2" class="node"><title>Node2</title>
<g id="a_node2"><a xlink:href="HalfEdge_8hpp.html" target="_top" xlink:title="Core/Mesh/HalfEdge.hpp">
<polygon fill="white" stroke="black" points="250.459,-360.5 250.459,-379.5 377.459,-379.5 377.459,-360.5 250.459,-360.5"/>
<text text-anchor="middle" x="313.959" y="-367.5" font-family="Helvetica,sans-Serif" font-size="10.00">Core/Mesh/HalfEdge.hpp</text>
</a>
</g>
</g>
<!-- Node1&#45;&gt;Node2 -->
<g id="edge1" class="edge"><title>Node1&#45;&gt;Node2</title>
<path fill="none" stroke="midnightblue" d="M1197.58,-482.606C1018.72,-460.015 566.162,-402.854 387.823,-380.329"/>
<polygon fill="midnightblue" stroke="midnightblue" points="388.111,-376.838 377.751,-379.057 387.234,-383.783 388.111,-376.838"/>
</g>
<!-- Node28 -->
<g id="node28" class="node"><title>Node28</title>
<g id="a_node28"><a xlink:href="TriangleMesh_8hpp.html" target="_top" xlink:title="Core/Mesh/TriangleMesh.hpp">
<polygon fill="white" stroke="black" points="1199.46,-416.5 1199.46,-435.5 1344.46,-435.5 1344.46,-416.5 1199.46,-416.5"/>
<text text-anchor="middle" x="1271.96" y="-423.5" font-family="Helvetica,sans-Serif" font-size="10.00">Core/Mesh/TriangleMesh.hpp</text>
</a>
</g>
</g>
<!-- Node1&#45;&gt;Node28 -->
<g id="edge33" class="edge"><title>Node1&#45;&gt;Node28</title>
<path fill="none" stroke="midnightblue" d="M1271.96,-472.498C1271.96,-464.065 1271.96,-454.235 1271.96,-445.874"/>
<polygon fill="midnightblue" stroke="midnightblue" points="1275.46,-445.652 1271.96,-435.652 1268.46,-445.653 1275.46,-445.652"/>
</g>
<!-- Node39 -->
<g id="node39" class="node"><title>Node39</title>
<polygon fill="white" stroke="#bfbfbf" points="1362.46,-416.5 1362.46,-435.5 1397.46,-435.5 1397.46,-416.5 1362.46,-416.5"/>
<text text-anchor="middle" x="1379.96" y="-423.5" font-family="Helvetica,sans-Serif" font-size="10.00">map</text>
</g>
<!-- Node1&#45;&gt;Node39 -->
<g id="edge60" class="edge"><title>Node1&#45;&gt;Node39</title>
<path fill="none" stroke="midnightblue" d="M1304.36,-472.498C1321.24,-462.34 1341.49,-450.155 1356.78,-440.952"/>
<polygon fill="midnightblue" stroke="midnightblue" points="1358.82,-443.808 1365.58,-435.652 1355.21,-437.81 1358.82,-443.808"/>
</g>
<!-- Node3 -->
<g id="node3" class="node"><title>Node3</title>
<g id="a_node3"><a xlink:href="RaCore_8hpp.html" target="_top" xlink:title="Core/RaCore.hpp">
<polygon fill="white" stroke="black" points="1193.46,-112.5 1193.46,-131.5 1286.46,-131.5 1286.46,-112.5 1193.46,-112.5"/>
<text text-anchor="middle" x="1239.96" y="-119.5" font-family="Helvetica,sans-Serif" font-size="10.00">Core/RaCore.hpp</text>
</a>
</g>
</g>
<!-- Node2&#45;&gt;Node3 -->
<g id="edge2" class="edge"><title>Node2&#45;&gt;Node3</title>
<path fill="none" stroke="midnightblue" d="M319.405,-360.339C324.766,-351.494 332.869,-337.221 337.959,-324 363.633,-257.304 321.792,-213.434 376.959,-168 408.091,-142.36 995.958,-128.041 1183.19,-124.117"/>
<polygon fill="midnightblue" stroke="midnightblue" points="1183.45,-127.613 1193.37,-123.906 1183.3,-120.614 1183.45,-127.613"/>
</g>
<!-- Node4 -->
<g id="node4" class="node"><title>Node4</title>
<g id="a_node4"><a xlink:href="CoreMacros_8hpp.html" target="_top" xlink:title="Core/CoreMacros.hpp">
<polygon fill="white" stroke="black" points="1183.46,-56.5 1183.46,-75.5 1296.46,-75.5 1296.46,-56.5 1183.46,-56.5"/>
<text text-anchor="middle" x="1239.96" y="-63.5" font-family="Helvetica,sans-Serif" font-size="10.00">Core/CoreMacros.hpp</text>
</a>
</g>
</g>
<!-- Node2&#45;&gt;Node4 -->
<g id="edge11" class="edge"><title>Node2&#45;&gt;Node4</title>
<path fill="none" stroke="midnightblue" d="M265.416,-360.49C180.975,-344.294 15.9585,-305.88 15.9585,-253 15.9585,-253 15.9585,-253 15.9585,-183 15.9585,-150.528 -68.6481,-166.364 155.959,-112 254.398,-88.1737 952.621,-72.6186 1173.29,-68.2551"/>
<polygon fill="midnightblue" stroke="midnightblue" points="1173.5,-71.7517 1183.43,-68.0558 1173.36,-64.753 1173.5,-71.7517"/>
</g>
<!-- Node10 -->
<g id="node10" class="node"><title>Node10</title>
<polygon fill="white" stroke="#bfbfbf" points="151.959,-304.5 151.959,-323.5 189.959,-323.5 189.959,-304.5 151.959,-304.5"/>
<text text-anchor="middle" x="170.959" y="-311.5" font-family="Helvetica,sans-Serif" font-size="10.00">array</text>
</g>
<!-- Node2&#45;&gt;Node10 -->
<g id="edge9" class="edge"><title>Node2&#45;&gt;Node10</title>
<path fill="none" stroke="midnightblue" d="M291.3,-360.444C266.579,-351.108 226.937,-336.139 199.962,-325.952"/>
<polygon fill="midnightblue" stroke="midnightblue" points="200.893,-322.563 190.301,-322.304 198.42,-329.111 200.893,-322.563"/>
</g>
<!-- Node11 -->
<g id="node11" class="node"><title>Node11</title>
<polygon fill="white" stroke="#bfbfbf" points="1270.96,-174.5 1270.96,-193.5 1314.96,-193.5 1314.96,-174.5 1270.96,-174.5"/>
<text text-anchor="middle" x="1292.96" y="-181.5" font-family="Helvetica,sans-Serif" font-size="10.00">vector</text>
</g>
<!-- Node2&#45;&gt;Node11 -->
<g id="edge10" class="edge"><title>Node2&#45;&gt;Node11</title>
<path fill="none" stroke="midnightblue" d="M377.609,-369.387C563.081,-369.397 1098.96,-361.169 1241.96,-268 1265.39,-252.732 1279.83,-222.553 1287.12,-203.1"/>
<polygon fill="midnightblue" stroke="midnightblue" points="1290.46,-204.154 1290.44,-193.559 1283.85,-201.85 1290.46,-204.154"/>
</g>
<!-- Node12 -->
<g id="node12" class="node"><title>Node12</title>
<g id="a_node12"><a xlink:href="MeshTypes_8hpp.html" target="_top" xlink:title="Core/Mesh/MeshTypes.hpp">
<polygon fill="white" stroke="black" points="684.459,-304.5 684.459,-323.5 821.459,-323.5 821.459,-304.5 684.459,-304.5"/>
<text text-anchor="middle" x="752.959" y="-311.5" font-family="Helvetica,sans-Serif" font-size="10.00">Core/Mesh/MeshTypes.hpp</text>
</a>
</g>
</g>
<!-- Node2&#45;&gt;Node12 -->
<g id="edge12" class="edge"><title>Node2&#45;&gt;Node12</title>
<path fill="none" stroke="midnightblue" d="M377.793,-361.148C456.288,-351.493 589.502,-335.106 674.256,-324.681"/>
<polygon fill="midnightblue" stroke="midnightblue" points="674.847,-328.135 684.345,-323.44 673.992,-321.187 674.847,-328.135"/>
</g>
<!-- Node27 -->
<g id="node27" class="node"><title>Node27</title>
<g id="a_node27"><a xlink:href="HalfEdge_8inl.html" target="_top" xlink:title="Core/Mesh/HalfEdge.inl">
<polygon fill="white" stroke="black" points="208.459,-304.5 208.459,-323.5 329.459,-323.5 329.459,-304.5 208.459,-304.5"/>
<text text-anchor="middle" x="268.959" y="-311.5" font-family="Helvetica,sans-Serif" font-size="10.00">Core/Mesh/HalfEdge.inl</text>
</a>
</g>
</g>
<!-- Node2&#45;&gt;Node27 -->
<g id="edge31" class="edge"><title>Node2&#45;&gt;Node27</title>
<path fill="none" stroke="midnightblue" d="M301.614,-360.324C293.644,-352.733 283.864,-341.482 276.872,-332.09"/>
<polygon fill="midnightblue" stroke="midnightblue" points="279.733,-330.074 271.171,-323.834 273.973,-334.052 279.733,-330.074"/>
</g>
<!-- Node3&#45;&gt;Node4 -->
<g id="edge3" class="edge"><title>Node3&#45;&gt;Node4</title>
<path fill="none" stroke="midnightblue" d="M1239.96,-112.083C1239.96,-105.006 1239.96,-94.8611 1239.96,-85.9865"/>
<polygon fill="midnightblue" stroke="midnightblue" points="1243.46,-85.751 1239.96,-75.7511 1236.46,-85.7511 1243.46,-85.751"/>
</g>
<!-- Node5 -->
<g id="node5" class="node"><title>Node5</title>
<polygon fill="white" stroke="#bfbfbf" points="1314.46,-0.5 1314.46,-19.5 1363.46,-19.5 1363.46,-0.5 1314.46,-0.5"/>
<text text-anchor="middle" x="1338.96" y="-7.5" font-family="Helvetica,sans-Serif" font-size="10.00">cassert</text>
</g>
<!-- Node4&#45;&gt;Node5 -->
<g id="edge4" class="edge"><title>Node4&#45;&gt;Node5</title>
<path fill="none" stroke="midnightblue" d="M1255.86,-56.324C1271.6,-47.7428 1295.9,-34.486 1314.17,-24.5224"/>
<polygon fill="midnightblue" stroke="midnightblue" points="1315.99,-27.5157 1323.09,-19.6545 1312.64,-21.3704 1315.99,-27.5157"/>
</g>
<!-- Node6 -->
<g id="node6" class="node"><title>Node6</title>
<polygon fill="white" stroke="#bfbfbf" points="1118.46,-0.5 1118.46,-19.5 1161.46,-19.5 1161.46,-0.5 1118.46,-0.5"/>
<text text-anchor="middle" x="1139.96" y="-7.5" font-family="Helvetica,sans-Serif" font-size="10.00">cstdio</text>
</g>
<!-- Node4&#45;&gt;Node6 -->
<g id="edge5" class="edge"><title>Node4&#45;&gt;Node6</title>
<path fill="none" stroke="midnightblue" d="M1223.89,-56.324C1208,-47.7428 1183.45,-34.486 1165,-24.5224"/>
<polygon fill="midnightblue" stroke="midnightblue" points="1166.45,-21.3264 1155.99,-19.6545 1163.12,-27.4857 1166.45,-21.3264"/>
</g>
<!-- Node7 -->
<g id="node7" class="node"><title>Node7</title>
<polygon fill="white" stroke="#bfbfbf" points="1179.96,-0.5 1179.96,-19.5 1233.96,-19.5 1233.96,-0.5 1179.96,-0.5"/>
<text text-anchor="middle" x="1206.96" y="-7.5" font-family="Helvetica,sans-Serif" font-size="10.00">iostream</text>
</g>
<!-- Node4&#45;&gt;Node7 -->
<g id="edge6" class="edge"><title>Node4&#45;&gt;Node7</title>
<path fill="none" stroke="midnightblue" d="M1234.51,-56.083C1229.94,-48.6127 1223.29,-37.7244 1217.67,-28.5199"/>
<polygon fill="midnightblue" stroke="midnightblue" points="1220.51,-26.4588 1212.31,-19.7511 1214.53,-30.109 1220.51,-26.4588"/>
</g>
<!-- Node8 -->
<g id="node8" class="node"><title>Node8</title>
<polygon fill="white" stroke="#bfbfbf" points="1546.96,-0.5 1546.96,-19.5 1598.96,-19.5 1598.96,-0.5 1546.96,-0.5"/>
<text text-anchor="middle" x="1572.96" y="-7.5" font-family="Helvetica,sans-Serif" font-size="10.00">sstream</text>
</g>
<!-- Node4&#45;&gt;Node8 -->
<g id="edge7" class="edge"><title>Node4&#45;&gt;Node8</title>
<path fill="none" stroke="midnightblue" d="M1292.72,-56.4435C1360.89,-45.3899 1477.77,-26.4364 1536.71,-16.878"/>
<polygon fill="midnightblue" stroke="midnightblue" points="1537.37,-20.3173 1546.68,-15.2616 1536.25,-13.4075 1537.37,-20.3173"/>
</g>
<!-- Node9 -->
<g id="node9" class="node"><title>Node9</title>
<polygon fill="white" stroke="#bfbfbf" points="1251.96,-0.5 1251.96,-19.5 1295.96,-19.5 1295.96,-0.5 1251.96,-0.5"/>
<text text-anchor="middle" x="1273.96" y="-7.5" font-family="Helvetica,sans-Serif" font-size="10.00">thread</text>
</g>
<!-- Node4&#45;&gt;Node9 -->
<g id="edge8" class="edge"><title>Node4&#45;&gt;Node9</title>
<path fill="none" stroke="midnightblue" d="M1245.57,-56.083C1250.33,-48.5341 1257.28,-37.4948 1263.11,-28.2298"/>
<polygon fill="midnightblue" stroke="midnightblue" points="1266.08,-30.0783 1268.45,-19.7511 1260.16,-26.3486 1266.08,-30.0783"/>
</g>
<!-- Node12&#45;&gt;Node3 -->
<g id="edge30" class="edge"><title>Node12&#45;&gt;Node3</title>
<path fill="none" stroke="midnightblue" d="M780.632,-304.441C837.057,-286.75 969.17,-244.111 1076.96,-200 1080.37,-198.603 1167.21,-157.478 1212.71,-135.916"/>
<polygon fill="midnightblue" stroke="midnightblue" points="1214.21,-139.079 1221.75,-131.633 1211.21,-132.753 1214.21,-139.079"/>
</g>
<!-- Node13 -->
<g id="node13" class="node"><title>Node13</title>
<g id="a_node13"><a xlink:href="Index_8hpp.html" target="_top" xlink:title="Core/Index/Index.hpp">
<polygon fill="white" stroke="black" points="130.959,-242.5 130.959,-261.5 240.959,-261.5 240.959,-242.5 130.959,-242.5"/>
<text text-anchor="middle" x="185.959" y="-249.5" font-family="Helvetica,sans-Serif" font-size="10.00">Core/Index/Index.hpp</text>
</a>
</g>
</g>
<!-- Node12&#45;&gt;Node13 -->
<g id="edge13" class="edge"><title>Node12&#45;&gt;Node13</title>
<path fill="none" stroke="midnightblue" d="M684.283,-305.733C574.033,-294.066 359.015,-271.313 251.071,-259.89"/>
<polygon fill="midnightblue" stroke="midnightblue" points="251.279,-256.393 240.966,-258.821 250.542,-263.354 251.279,-256.393"/>
</g>
<!-- Node16 -->
<g id="node16" class="node"><title>Node16</title>
<g id="a_node16"><a xlink:href="LinearAlgebra_8hpp.html" target="_top" xlink:title="Core/Math/LinearAlgebra.hpp">
<polygon fill="white" stroke="black" points="681.459,-242.5 681.459,-261.5 824.459,-261.5 824.459,-242.5 681.459,-242.5"/>
<text text-anchor="middle" x="752.959" y="-249.5" font-family="Helvetica,sans-Serif" font-size="10.00">Core/Math/LinearAlgebra.hpp</text>
</a>
</g>
</g>
<!-- Node12&#45;&gt;Node16 -->
<g id="edge16" class="edge"><title>Node12&#45;&gt;Node16</title>
<path fill="none" stroke="midnightblue" d="M752.959,-304.403C752.959,-295.938 752.959,-282.728 752.959,-271.82"/>
<polygon fill="midnightblue" stroke="midnightblue" points="756.459,-271.581 752.959,-261.581 749.459,-271.581 756.459,-271.581"/>
</g>
<!-- Node14 -->
<g id="node14" class="node"><title>Node14</title>
<polygon fill="white" stroke="#bfbfbf" points="165.959,-174.5 165.959,-193.5 205.959,-193.5 205.959,-174.5 165.959,-174.5"/>
<text text-anchor="middle" x="185.959" y="-181.5" font-family="Helvetica,sans-Serif" font-size="10.00">limits</text>
</g>
<!-- Node13&#45;&gt;Node14 -->
<g id="edge14" class="edge"><title>Node13&#45;&gt;Node14</title>
<path fill="none" stroke="midnightblue" d="M185.959,-242.372C185.959,-232.643 185.959,-216.528 185.959,-203.85"/>
<polygon fill="midnightblue" stroke="midnightblue" points="189.459,-203.841 185.959,-193.841 182.459,-203.841 189.459,-203.841"/>
</g>
<!-- Node15 -->
<g id="node15" class="node"><title>Node15</title>
<g id="a_node15"><a xlink:href="Index_8inl.html" target="_top" xlink:title="Core/Index/Index.inl">
<polygon fill="white" stroke="black" points="43.9585,-174.5 43.9585,-193.5 147.959,-193.5 147.959,-174.5 43.9585,-174.5"/>
<text text-anchor="middle" x="95.9585" y="-181.5" font-family="Helvetica,sans-Serif" font-size="10.00">Core/Index/Index.inl</text>
</a>
</g>
</g>
<!-- Node13&#45;&gt;Node15 -->
<g id="edge15" class="edge"><title>Node13&#45;&gt;Node15</title>
<path fill="none" stroke="midnightblue" d="M174.193,-242.372C159.37,-231.502 133.677,-212.66 115.796,-199.547"/>
<polygon fill="midnightblue" stroke="midnightblue" points="117.861,-196.722 107.727,-193.63 113.722,-202.367 117.861,-196.722"/>
</g>
<!-- Node16&#45;&gt;Node3 -->
<g id="edge17" class="edge"><title>Node16&#45;&gt;Node3</title>
<path fill="none" stroke="midnightblue" d="M824.747,-247.287C884.614,-242.107 971.098,-229.704 1040.96,-200 1063.21,-190.538 1063.25,-178.641 1084.96,-168 1116.83,-152.379 1155.12,-141.199 1185.66,-133.889"/>
<polygon fill="midnightblue" stroke="midnightblue" points="1186.75,-137.229 1195.7,-131.558 1185.17,-130.41 1186.75,-137.229"/>
</g>
<!-- Node17 -->
<g id="node17" class="node"><title>Node17</title>
<polygon fill="white" stroke="#bfbfbf" points="386.459,-174.5 386.459,-193.5 451.459,-193.5 451.459,-174.5 386.459,-174.5"/>
<text text-anchor="middle" x="418.959" y="-181.5" font-family="Helvetica,sans-Serif" font-size="10.00">Eigen/Core</text>
</g>
<!-- Node16&#45;&gt;Node17 -->
<g id="edge18" class="edge"><title>Node16&#45;&gt;Node17</title>
<path fill="none" stroke="midnightblue" d="M683.53,-242.473C623.679,-234.28 535.273,-220.159 459.959,-200 456.561,-199.091 453.048,-198.018 449.573,-196.871"/>
<polygon fill="midnightblue" stroke="midnightblue" points="450.602,-193.523 440.007,-193.517 448.285,-200.129 450.602,-193.523"/>
</g>
<!-- Node18 -->
<g id="node18" class="node"><title>Node18</title>
<polygon fill="white" stroke="#bfbfbf" points="469.459,-174.5 469.459,-193.5 556.459,-193.5 556.459,-174.5 469.459,-174.5"/>
<text text-anchor="middle" x="512.959" y="-181.5" font-family="Helvetica,sans-Serif" font-size="10.00">Eigen/Geometry</text>
</g>
<!-- Node16&#45;&gt;Node18 -->
<g id="edge19" class="edge"><title>Node16&#45;&gt;Node18</title>
<path fill="none" stroke="midnightblue" d="M720.982,-242.492C683.539,-232.49 619.672,-215.311 564.959,-200 560.836,-198.846 556.534,-197.628 552.246,-196.405"/>
<polygon fill="midnightblue" stroke="midnightblue" points="552.938,-192.962 542.361,-193.57 551.008,-199.691 552.938,-192.962"/>
</g>
<!-- Node19 -->
<g id="node19" class="node"><title>Node19</title>
<polygon fill="white" stroke="#bfbfbf" points="574.459,-174.5 574.459,-193.5 649.459,-193.5 649.459,-174.5 574.459,-174.5"/>
<text text-anchor="middle" x="611.959" y="-181.5" font-family="Helvetica,sans-Serif" font-size="10.00">Eigen/Sparse</text>
</g>
<!-- Node16&#45;&gt;Node19 -->
<g id="edge20" class="edge"><title>Node16&#45;&gt;Node19</title>
<path fill="none" stroke="midnightblue" d="M734.525,-242.372C710.353,-231.057 667.729,-211.105 639.663,-197.968"/>
<polygon fill="midnightblue" stroke="midnightblue" points="640.937,-194.7 630.396,-193.63 637.969,-201.04 640.937,-194.7"/>
</g>
<!-- Node20 -->
<g id="node20" class="node"><title>Node20</title>
<polygon fill="white" stroke="#bfbfbf" points="667.459,-174.5 667.459,-193.5 726.459,-193.5 726.459,-174.5 667.459,-174.5"/>
<text text-anchor="middle" x="696.959" y="-181.5" font-family="Helvetica,sans-Serif" font-size="10.00">functional</text>
</g>
<!-- Node16&#45;&gt;Node20 -->
<g id="edge21" class="edge"><title>Node16&#45;&gt;Node20</title>
<path fill="none" stroke="midnightblue" d="M745.638,-242.372C736.882,-232.053 722.032,-214.551 711.031,-201.585"/>
<polygon fill="midnightblue" stroke="midnightblue" points="713.599,-199.202 704.46,-193.841 708.261,-203.731 713.599,-199.202"/>
</g>
<!-- Node21 -->
<g id="node21" class="node"><title>Node21</title>
<polygon fill="white" stroke="#bfbfbf" points="744.459,-169 744.459,-199 877.459,-199 877.459,-169 744.459,-169"/>
<text text-anchor="start" x="752.459" y="-187" font-family="Helvetica,sans-Serif" font-size="10.00">unsupported/Eigen/Aligned</text>
<text text-anchor="middle" x="810.959" y="-176" font-family="Helvetica,sans-Serif" font-size="10.00">Vector3</text>
</g>
<!-- Node16&#45;&gt;Node21 -->
<g id="edge22" class="edge"><title>Node16&#45;&gt;Node21</title>
<path fill="none" stroke="midnightblue" d="M760.541,-242.372C768.45,-233.371 781.162,-218.907 791.842,-206.753"/>
<polygon fill="midnightblue" stroke="midnightblue" points="794.524,-209.004 798.496,-199.181 789.266,-204.383 794.524,-209.004"/>
</g>
<!-- Node22 -->
<g id="node22" class="node"><title>Node22</title>
<g id="a_node22"><a xlink:href="Math_8hpp.html" target="_top" xlink:title="Core/Math/Math.hpp">
<polygon fill="white" stroke="black" points="223.959,-174.5 223.959,-193.5 329.959,-193.5 329.959,-174.5 223.959,-174.5"/>
<text text-anchor="middle" x="276.959" y="-181.5" font-family="Helvetica,sans-Serif" font-size="10.00">Core/Math/Math.hpp</text>
</a>
</g>
</g>
<!-- Node16&#45;&gt;Node22 -->
<g id="edge23" class="edge"><title>Node16&#45;&gt;Node22</title>
<path fill="none" stroke="midnightblue" d="M688.047,-242.478C613.07,-232.568 486.029,-215.577 376.959,-200 365.078,-198.303 352.412,-196.443 340.228,-194.628"/>
<polygon fill="midnightblue" stroke="midnightblue" points="340.541,-191.136 330.133,-193.118 339.505,-198.059 340.541,-191.136"/>
</g>
<!-- Node26 -->
<g id="node26" class="node"><title>Node26</title>
<g id="a_node26"><a xlink:href="LinearAlgebra_8inl.html" target="_top" xlink:title="Core/Math/LinearAlgebra.inl">
<polygon fill="white" stroke="black" points="895.459,-174.5 895.459,-193.5 1032.46,-193.5 1032.46,-174.5 895.459,-174.5"/>
<text text-anchor="middle" x="963.959" y="-181.5" font-family="Helvetica,sans-Serif" font-size="10.00">Core/Math/LinearAlgebra.inl</text>
</a>
</g>
</g>
<!-- Node16&#45;&gt;Node26 -->
<g id="edge29" class="edge"><title>Node16&#45;&gt;Node26</title>
<path fill="none" stroke="midnightblue" d="M780.543,-242.372C818.004,-230.654 885.078,-209.674 926.902,-196.591"/>
<polygon fill="midnightblue" stroke="midnightblue" points="928.202,-199.852 936.702,-193.526 926.113,-193.171 928.202,-199.852"/>
</g>
<!-- Node22&#45;&gt;Node3 -->
<g id="edge24" class="edge"><title>Node22&#45;&gt;Node3</title>
<path fill="none" stroke="midnightblue" d="M309.813,-174.475C320.619,-171.986 332.738,-169.526 343.959,-168 658.633,-125.19 1040.44,-122.027 1182.83,-122.513"/>
<polygon fill="midnightblue" stroke="midnightblue" points="1183.05,-126.014 1193.06,-122.556 1183.08,-119.014 1183.05,-126.014"/>
</g>
<!-- Node23 -->
<g id="node23" class="node"><title>Node23</title>
<polygon fill="white" stroke="#bfbfbf" points="344.959,-112.5 344.959,-131.5 400.959,-131.5 400.959,-112.5 344.959,-112.5"/>
<text text-anchor="middle" x="372.959" y="-119.5" font-family="Helvetica,sans-Serif" font-size="10.00">algorithm</text>
</g>
<!-- Node22&#45;&gt;Node23 -->
<g id="edge25" class="edge"><title>Node22&#45;&gt;Node23</title>
<path fill="none" stroke="midnightblue" d="M290.713,-174.403C306.325,-164.646 332.022,-148.585 350.541,-137.011"/>
<polygon fill="midnightblue" stroke="midnightblue" points="352.605,-139.849 359.23,-131.581 348.895,-133.913 352.605,-139.849"/>
</g>
<!-- Node24 -->
<g id="node24" class="node"><title>Node24</title>
<polygon fill="white" stroke="#bfbfbf" points="164.959,-112.5 164.959,-131.5 208.959,-131.5 208.959,-112.5 164.959,-112.5"/>
<text text-anchor="middle" x="186.959" y="-119.5" font-family="Helvetica,sans-Serif" font-size="10.00">cmath</text>
</g>
<!-- Node22&#45;&gt;Node24 -->
<g id="edge26" class="edge"><title>Node22&#45;&gt;Node24</title>
<path fill="none" stroke="midnightblue" d="M264.064,-174.403C249.494,-164.691 225.556,-148.732 208.213,-137.17"/>
<polygon fill="midnightblue" stroke="midnightblue" points="210.091,-134.215 199.829,-131.581 206.208,-140.04 210.091,-134.215"/>
</g>
<!-- Node25 -->
<g id="node25" class="node"><title>Node25</title>
<g id="a_node25"><a xlink:href="Math_8inl.html" target="_top" xlink:title="Core/Math/Math.inl">
<polygon fill="white" stroke="black" points="226.959,-112.5 226.959,-131.5 326.959,-131.5 326.959,-112.5 226.959,-112.5"/>
<text text-anchor="middle" x="276.959" y="-119.5" font-family="Helvetica,sans-Serif" font-size="10.00">Core/Math/Math.inl</text>
</a>
</g>
</g>
<!-- Node22&#45;&gt;Node25 -->
<g id="edge27" class="edge"><title>Node22&#45;&gt;Node25</title>
<path fill="none" stroke="midnightblue" d="M272.058,-174.403C270.227,-165.938 269.756,-152.728 270.644,-141.82"/>
<polygon fill="midnightblue" stroke="midnightblue" points="274.157,-141.966 272.061,-131.581 267.223,-141.006 274.157,-141.966"/>
</g>
<!-- Node25&#45;&gt;Node22 -->
<g id="edge28" class="edge"><title>Node25&#45;&gt;Node22</title>
<path fill="none" stroke="midnightblue" d="M281.856,-131.581C283.688,-140.04 284.161,-153.248 283.275,-164.16"/>
<polygon fill="midnightblue" stroke="midnightblue" points="279.761,-164.018 281.859,-174.403 286.695,-164.977 279.761,-164.018"/>
</g>
<!-- Node27&#45;&gt;Node2 -->
<g id="edge32" class="edge"><title>Node27&#45;&gt;Node2</title>
<path fill="none" stroke="midnightblue" d="M281.382,-323.751C289.322,-331.327 299.038,-342.505 306.005,-351.855"/>
<polygon fill="midnightblue" stroke="midnightblue" points="303.128,-353.849 311.694,-360.083 308.885,-349.867 303.128,-353.849"/>
</g>
<!-- Node28&#45;&gt;Node3 -->
<g id="edge44" class="edge"><title>Node28&#45;&gt;Node3</title>
<path fill="none" stroke="midnightblue" d="M1344.58,-416.719C1397.9,-409.642 1471.74,-397.752 1534.96,-380 1599.88,-361.771 1617,-356.713 1675.96,-324 1721.15,-298.928 1781.53,-278.379 1751.96,-236 1700.08,-161.652 1418.95,-134.59 1296.74,-126.24"/>
<polygon fill="midnightblue" stroke="midnightblue" points="1296.68,-122.729 1286.47,-125.557 1296.21,-129.713 1296.68,-122.729"/>
</g>
<!-- Node28&#45;&gt;Node12 -->
<g id="edge43" class="edge"><title>Node28&#45;&gt;Node12</title>
<path fill="none" stroke="midnightblue" d="M1199.38,-418.919C1132.84,-412.417 1031.89,-400.211 945.959,-380 887.194,-366.178 820.963,-341.879 783.366,-327.227"/>
<polygon fill="midnightblue" stroke="midnightblue" points="784.586,-323.946 773.999,-323.545 782.025,-330.461 784.586,-323.946"/>
</g>
<!-- Node28&#45;&gt;Node16 -->
<g id="edge42" class="edge"><title>Node28&#45;&gt;Node16</title>
<path fill="none" stroke="midnightblue" d="M1246.22,-416.47C1160.88,-388.188 887.064,-297.444 788.627,-264.821"/>
<polygon fill="midnightblue" stroke="midnightblue" points="789.445,-261.405 778.851,-261.581 787.242,-268.049 789.445,-261.405"/>
</g>
<!-- Node29 -->
<g id="node29" class="node"><title>Node29</title>
<g id="a_node29"><a xlink:href="VectorArray_8hpp.html" target="_top" xlink:title="Core/Containers/VectorArray.hpp">
<polygon fill="white" stroke="black" points="1191.46,-304.5 1191.46,-323.5 1352.46,-323.5 1352.46,-304.5 1191.46,-304.5"/>
<text text-anchor="middle" x="1271.96" y="-311.5" font-family="Helvetica,sans-Serif" font-size="10.00">Core/Containers/VectorArray.hpp</text>
</a>
</g>
</g>
<!-- Node28&#45;&gt;Node29 -->
<g id="edge34" class="edge"><title>Node28&#45;&gt;Node29</title>
<path fill="none" stroke="midnightblue" d="M1265.74,-416.328C1257.68,-404.015 1245.18,-380.66 1249.96,-360 1252.19,-350.363 1256.78,-340.405 1261.19,-332.315"/>
<polygon fill="midnightblue" stroke="midnightblue" points="1264.31,-333.922 1266.32,-323.519 1258.26,-330.397 1264.31,-333.922"/>
</g>
<!-- Node32 -->
<g id="node32" class="node"><title>Node32</title>
<g id="a_node32"><a xlink:href="Attribs_8hpp.html" target="_top" xlink:title="Core/Utils/Attribs.hpp">
<polygon fill="white" stroke="black" points="1258.46,-360.5 1258.46,-379.5 1369.46,-379.5 1369.46,-360.5 1258.46,-360.5"/>
<text text-anchor="middle" x="1313.96" y="-367.5" font-family="Helvetica,sans-Serif" font-size="10.00">Core/Utils/Attribs.hpp</text>
</a>
</g>
</g>
<!-- Node28&#45;&gt;Node32 -->
<g id="edge45" class="edge"><title>Node28&#45;&gt;Node32</title>
<path fill="none" stroke="midnightblue" d="M1278.89,-416.083C1284.89,-408.377 1293.71,-397.033 1301.01,-387.653"/>
<polygon fill="midnightblue" stroke="midnightblue" points="1303.78,-389.793 1307.15,-379.751 1298.25,-385.496 1303.78,-389.793"/>
</g>
<!-- Node38 -->
<g id="node38" class="node"><title>Node38</title>
<g id="a_node38"><a xlink:href="TriangleMesh_8inl.html" target="_top" xlink:title="Core/Mesh/TriangleMesh.inl">
<polygon fill="white" stroke="black" points="1387.46,-360.5 1387.46,-379.5 1526.46,-379.5 1526.46,-360.5 1387.46,-360.5"/>
<text text-anchor="middle" x="1456.96" y="-367.5" font-family="Helvetica,sans-Serif" font-size="10.00">Core/Mesh/TriangleMesh.inl</text>
</a>
</g>
</g>
<!-- Node28&#45;&gt;Node38 -->
<g id="edge58" class="edge"><title>Node28&#45;&gt;Node38</title>
<path fill="none" stroke="midnightblue" d="M1296.18,-416.444C1325.82,-407.201 1376.23,-392.436 1412.79,-382.257"/>
<polygon fill="midnightblue" stroke="midnightblue" points="1414,-385.555 1422.7,-379.516 1412.13,-378.808 1414,-385.555"/>
</g>
<!-- Node29&#45;&gt;Node3 -->
<g id="edge40" class="edge"><title>Node29&#45;&gt;Node3</title>
<path fill="none" stroke="midnightblue" d="M1279.95,-304.313C1300.43,-280.974 1351.22,-215.464 1322.96,-168 1313.86,-152.721 1297.57,-142.31 1281.81,-135.386"/>
<polygon fill="midnightblue" stroke="midnightblue" points="1282.73,-131.981 1272.14,-131.512 1280.13,-138.479 1282.73,-131.981"/>
</g>
<!-- Node29&#45;&gt;Node11 -->
<g id="edge41" class="edge"><title>Node29&#45;&gt;Node11</title>
<path fill="none" stroke="midnightblue" d="M1273.4,-304.202C1276.79,-283.551 1285.31,-231.606 1289.91,-203.594"/>
<polygon fill="midnightblue" stroke="midnightblue" points="1293.4,-203.957 1291.56,-193.522 1286.49,-202.824 1293.4,-203.957"/>
</g>
<!-- Node29&#45;&gt;Node16 -->
<g id="edge39" class="edge"><title>Node29&#45;&gt;Node16</title>
<path fill="none" stroke="midnightblue" d="M1198.42,-304.499C1102.31,-293.388 934.502,-273.988 834.562,-262.434"/>
<polygon fill="midnightblue" stroke="midnightblue" points="834.847,-258.944 824.511,-261.272 834.043,-265.897 834.847,-258.944"/>
</g>
<!-- Node30 -->
<g id="node30" class="node"><title>Node30</title>
<g id="a_node30"><a xlink:href="AlignedStdVector_8hpp.html" target="_top" xlink:title="Core/Containers/AlignedStd\lVector.hpp">
<polygon fill="white" stroke="black" points="1094.96,-237 1094.96,-267 1232.96,-267 1232.96,-237 1094.96,-237"/>
<text text-anchor="start" x="1102.96" y="-255" font-family="Helvetica,sans-Serif" font-size="10.00">Core/Containers/AlignedStd</text>
<text text-anchor="middle" x="1163.96" y="-244" font-family="Helvetica,sans-Serif" font-size="10.00">Vector.hpp</text>
</a>
</g>
</g>
<!-- Node29&#45;&gt;Node30 -->
<g id="edge35" class="edge"><title>Node29&#45;&gt;Node30</title>
<path fill="none" stroke="midnightblue" d="M1256.48,-304.403C1241.38,-296.011 1217.88,-282.957 1198.35,-272.104"/>
<polygon fill="midnightblue" stroke="midnightblue" points="1199.85,-268.938 1189.41,-267.141 1196.45,-275.057 1199.85,-268.938"/>
</g>
<!-- Node30&#45;&gt;Node3 -->
<g id="edge36" class="edge"><title>Node30&#45;&gt;Node3</title>
<path fill="none" stroke="midnightblue" d="M1157.81,-236.956C1151.18,-219.487 1143.17,-189.363 1155.96,-168 1165.11,-152.719 1181.42,-142.332 1197.25,-135.425"/>
<polygon fill="midnightblue" stroke="midnightblue" points="1198.97,-138.507 1206.97,-131.562 1196.39,-132.001 1198.97,-138.507"/>
</g>
<!-- Node30&#45;&gt;Node11 -->
<g id="edge38" class="edge"><title>Node30&#45;&gt;Node11</title>
<path fill="none" stroke="midnightblue" d="M1191.63,-236.841C1213.95,-225.425 1245.1,-209.485 1266.96,-198.303"/>
<polygon fill="midnightblue" stroke="midnightblue" points="1268.68,-201.353 1275.99,-193.682 1265.49,-195.121 1268.68,-201.353"/>
</g>
<!-- Node31 -->
<g id="node31" class="node"><title>Node31</title>
<polygon fill="white" stroke="#bfbfbf" points="1164.96,-174.5 1164.96,-193.5 1252.96,-193.5 1252.96,-174.5 1164.96,-174.5"/>
<text text-anchor="middle" x="1208.96" y="-181.5" font-family="Helvetica,sans-Serif" font-size="10.00">Eigen/StdVector</text>
</g>
<!-- Node30&#45;&gt;Node31 -->
<g id="edge37" class="edge"><title>Node30&#45;&gt;Node31</title>
<path fill="none" stroke="midnightblue" d="M1173.72,-236.679C1180.6,-226.592 1189.85,-213.033 1197.14,-202.335"/>
<polygon fill="midnightblue" stroke="midnightblue" points="1200.2,-204.062 1202.94,-193.828 1194.41,-200.119 1200.2,-204.062"/>
</g>
<!-- Node32&#45;&gt;Node3 -->
<g id="edge57" class="edge"><title>Node32&#45;&gt;Node3</title>
<path fill="none" stroke="midnightblue" d="M1328.04,-360.259C1339.31,-352.355 1354.3,-339.584 1360.96,-324 1378.84,-282.119 1435.91,-293.211 1340.96,-168 1328.76,-151.914 1309.54,-141.45 1291.12,-134.704"/>
<polygon fill="midnightblue" stroke="midnightblue" points="1292.2,-131.374 1281.61,-131.505 1289.97,-138.009 1292.2,-131.374"/>
</g>
<!-- Node32&#45;&gt;Node29 -->
<g id="edge46" class="edge"><title>Node32&#45;&gt;Node29</title>
<path fill="none" stroke="midnightblue" d="M1307.02,-360.083C1301.03,-352.377 1292.21,-341.033 1284.91,-331.653"/>
<polygon fill="midnightblue" stroke="midnightblue" points="1287.67,-329.496 1278.76,-323.751 1282.14,-333.793 1287.67,-329.496"/>
</g>
<!-- Node33 -->
<g id="node33" class="node"><title>Node33</title>
<g id="a_node33"><a xlink:href="Log_8hpp.html" target="_top" xlink:title="Core/Log/Log.hpp">
<polygon fill="white" stroke="black" points="1572.96,-304.5 1572.96,-323.5 1666.96,-323.5 1666.96,-304.5 1572.96,-304.5"/>
<text text-anchor="middle" x="1619.96" y="-311.5" font-family="Helvetica,sans-Serif" font-size="10.00">Core/Log/Log.hpp</text>
</a>
</g>
</g>
<!-- Node32&#45;&gt;Node33 -->
<g id="edge47" class="edge"><title>Node32&#45;&gt;Node33</title>
<path fill="none" stroke="midnightblue" d="M1362.45,-360.444C1416.82,-350.849 1504.92,-335.302 1562.65,-325.114"/>
<polygon fill="midnightblue" stroke="midnightblue" points="1563.46,-328.524 1572.7,-323.339 1562.25,-321.63 1563.46,-328.524"/>
</g>
<!-- Node33&#45;&gt;Node3 -->
<g id="edge48" class="edge"><title>Node33&#45;&gt;Node3</title>
<path fill="none" stroke="midnightblue" d="M1572.93,-312.601C1532.77,-309.869 1475.69,-300.006 1437.96,-268 1401.07,-236.702 1431.21,-200.032 1394.96,-168 1367.96,-144.144 1328.98,-132.9 1296.86,-127.617"/>
<polygon fill="midnightblue" stroke="midnightblue" points="1297.11,-124.115 1286.7,-126.103 1296.07,-131.038 1297.11,-124.115"/>
</g>
<!-- Node33&#45;&gt;Node8 -->
<g id="edge49" class="edge"><title>Node33&#45;&gt;Node8</title>
<path fill="none" stroke="midnightblue" d="M1667.16,-308.382C1695.61,-303.129 1730.4,-291.917 1751.96,-268 1777.3,-239.892 1770.96,-222.843 1770.96,-185 1770.96,-185 1770.96,-185 1770.96,-121 1770.96,-47.8865 1666.52,-22.9517 1609.34,-14.7792"/>
<polygon fill="midnightblue" stroke="midnightblue" points="1609.62,-11.2862 1599.25,-13.4404 1608.7,-18.2254 1609.62,-11.2862"/>
</g>
<!-- Node34 -->
<g id="node34" class="node"><title>Node34</title>
<polygon fill="white" stroke="#bfbfbf" points="1696.96,-242.5 1696.96,-261.5 1742.96,-261.5 1742.96,-242.5 1696.96,-242.5"/>
<text text-anchor="middle" x="1719.96" y="-249.5" font-family="Helvetica,sans-Serif" font-size="10.00">stdio.h</text>
</g>
<!-- Node33&#45;&gt;Node34 -->
<g id="edge50" class="edge"><title>Node33&#45;&gt;Node34</title>
<path fill="none" stroke="midnightblue" d="M1634.29,-304.403C1650.62,-294.601 1677.56,-278.439 1696.87,-266.853"/>
<polygon fill="midnightblue" stroke="midnightblue" points="1698.88,-269.727 1705.66,-261.581 1695.28,-263.724 1698.88,-269.727"/>
</g>
<!-- Node35 -->
<g id="node35" class="node"><title>Node35</title>
<polygon fill="white" stroke="#bfbfbf" points="1517.46,-174.5 1517.46,-193.5 1558.46,-193.5 1558.46,-174.5 1517.46,-174.5"/>
<text text-anchor="middle" x="1537.96" y="-181.5" font-family="Helvetica,sans-Serif" font-size="10.00">string</text>
</g>
<!-- Node33&#45;&gt;Node35 -->
<g id="edge51" class="edge"><title>Node33&#45;&gt;Node35</title>
<path fill="none" stroke="midnightblue" d="M1628.08,-304.373C1641.02,-289.538 1663.45,-258.609 1648.96,-236 1631.38,-208.574 1594.93,-195.699 1568.59,-189.787"/>
<polygon fill="midnightblue" stroke="midnightblue" points="1569.19,-186.339 1558.7,-187.784 1567.8,-193.2 1569.19,-186.339"/>
</g>
<!-- Node36 -->
<g id="node36" class="node"><title>Node36</title>
<g id="a_node36"><a xlink:href="StringUtils_8hpp.html" target="_top" xlink:title="Core/String/StringUtils.hpp">
<polygon fill="white" stroke="black" points="1446.96,-242.5 1446.96,-261.5 1580.96,-261.5 1580.96,-242.5 1446.96,-242.5"/>
<text text-anchor="middle" x="1513.96" y="-249.5" font-family="Helvetica,sans-Serif" font-size="10.00">Core/String/StringUtils.hpp</text>
</a>
</g>
</g>
<!-- Node33&#45;&gt;Node36 -->
<g id="edge52" class="edge"><title>Node33&#45;&gt;Node36</title>
<path fill="none" stroke="midnightblue" d="M1604.77,-304.403C1587.3,-294.512 1558.38,-278.144 1537.88,-266.538"/>
<polygon fill="midnightblue" stroke="midnightblue" points="1539.54,-263.461 1529.12,-261.581 1536.1,-269.553 1539.54,-263.461"/>
</g>
<!-- Node37 -->
<g id="node37" class="node"><title>Node37</title>
<polygon fill="white" stroke="#bfbfbf" points="1599.46,-242.5 1599.46,-261.5 1640.46,-261.5 1640.46,-242.5 1599.46,-242.5"/>
<text text-anchor="middle" x="1619.96" y="-249.5" font-family="Helvetica,sans-Serif" font-size="10.00">ctime</text>
</g>
<!-- Node33&#45;&gt;Node37 -->
<g id="edge56" class="edge"><title>Node33&#45;&gt;Node37</title>
<path fill="none" stroke="midnightblue" d="M1619.96,-304.403C1619.96,-295.938 1619.96,-282.728 1619.96,-271.82"/>
<polygon fill="midnightblue" stroke="midnightblue" points="1623.46,-271.581 1619.96,-261.581 1616.46,-271.581 1623.46,-271.581"/>
</g>
<!-- Node36&#45;&gt;Node3 -->
<g id="edge53" class="edge"><title>Node36&#45;&gt;Node3</title>
<path fill="none" stroke="midnightblue" d="M1508.18,-242.392C1496.26,-225.346 1467.16,-187.281 1432.96,-168 1390.91,-144.297 1336.99,-133.059 1296.83,-127.742"/>
<polygon fill="midnightblue" stroke="midnightblue" points="1297.03,-124.24 1286.68,-126.484 1296.17,-131.187 1297.03,-124.24"/>
</g>
<!-- Node36&#45;&gt;Node11 -->
<g id="edge55" class="edge"><title>Node36&#45;&gt;Node11</title>
<path fill="none" stroke="midnightblue" d="M1485.07,-242.372C1443.69,-230.015 1367.82,-207.356 1324.85,-194.523"/>
<polygon fill="midnightblue" stroke="midnightblue" points="1325.76,-191.144 1315.18,-191.636 1323.76,-197.851 1325.76,-191.144"/>
</g>
<!-- Node36&#45;&gt;Node35 -->
<g id="edge54" class="edge"><title>Node36&#45;&gt;Node35</title>
<path fill="none" stroke="midnightblue" d="M1517.1,-242.372C1520.67,-232.544 1526.61,-216.202 1531.24,-203.467"/>
<polygon fill="midnightblue" stroke="midnightblue" points="1534.62,-204.435 1534.74,-193.841 1528.04,-202.043 1534.62,-204.435"/>
</g>
<!-- Node38&#45;&gt;Node28 -->
<g id="edge59" class="edge"><title>Node38&#45;&gt;Node28</title>
<path fill="none" stroke="midnightblue" d="M1432.86,-379.516C1403.29,-388.743 1352.88,-403.507 1316.29,-413.699"/>
<polygon fill="midnightblue" stroke="midnightblue" points="1315.07,-410.405 1306.36,-416.444 1316.93,-417.152 1315.07,-410.405"/>
</g>
</g>
</svg>
