<?xml version="1.0" encoding="UTF-8" standalone="no"?>
<!DOCTYPE svg PUBLIC "-//W3C//DTD SVG 1.1//EN"
 "http://www.w3.org/Graphics/SVG/1.1/DTD/svg11.dtd">
<!-- Generated by graphviz version 2.36.0 (20140111.2315)
 -->
<!-- Title: /home/travis/build/STORM&#45;IRIT/Radium&#45;Engine/src/Core/File/HandleData.inl Pages: 1 -->
<svg width="2570pt" height="476pt"
 viewBox="0.00 0.00 2570.00 476.00" xmlns="http://www.w3.org/2000/svg" xmlns:xlink="http://www.w3.org/1999/xlink">
<g id="graph0" class="graph" transform="scale(1 1) rotate(0) translate(4 472)">
<title>/home/travis/build/STORM&#45;IRIT/Radium&#45;Engine/src/Core/File/HandleData.inl</title>
<polygon fill="white" stroke="none" points="-4,4 -4,-472 2566,-472 2566,4 -4,4"/>
<!-- Node1 -->
<g id="node1" class="node"><title>Node1</title>
<polygon fill="#bfbfbf" stroke="black" points="1541,-426.5 1541,-467.5 1689,-467.5 1689,-426.5 1541,-426.5"/>
<text text-anchor="start" x="1549" y="-455.5" font-family="Helvetica,sans-Serif" font-size="10.00">/home/travis/build</text>
<text text-anchor="start" x="1549" y="-444.5" font-family="Helvetica,sans-Serif" font-size="10.00">/STORM&#45;IRIT/Radium&#45;Engine</text>
<text text-anchor="middle" x="1615" y="-433.5" font-family="Helvetica,sans-Serif" font-size="10.00">/src/Core/File/HandleData.inl</text>
</g>
<!-- Node2 -->
<g id="node2" class="node"><title>Node2</title>
<g id="a_node2"><a xlink:href="HandleData_8hpp.html" target="_top" xlink:title="/home/travis/build\l/STORM&#45;IRIT/Radium&#45;Engine\l/src/Core/File/HandleData.hpp">
<polygon fill="white" stroke="black" points="1540.5,-348.5 1540.5,-389.5 1689.5,-389.5 1689.5,-348.5 1540.5,-348.5"/>
<text text-anchor="start" x="1548.5" y="-377.5" font-family="Helvetica,sans-Serif" font-size="10.00">/home/travis/build</text>
<text text-anchor="start" x="1548.5" y="-366.5" font-family="Helvetica,sans-Serif" font-size="10.00">/STORM&#45;IRIT/Radium&#45;Engine</text>
<text text-anchor="middle" x="1615" y="-355.5" font-family="Helvetica,sans-Serif" font-size="10.00">/src/Core/File/HandleData.hpp</text>
</a>
</g>
</g>
<!-- Node1&#45;&gt;Node2 -->
<g id="edge1" class="edge"><title>Node1&#45;&gt;Node2</title>
<path fill="none" stroke="midnightblue" d="M1608.4,-416.297C1608.08,-407.301 1608.28,-397.653 1609.02,-389.506"/>
<polygon fill="midnightblue" stroke="midnightblue" points="1604.91,-416.659 1609.01,-426.428 1611.9,-416.234 1604.91,-416.659"/>
</g>
<!-- Node2&#45;&gt;Node1 -->
<g id="edge18" class="edge"><title>Node2&#45;&gt;Node1</title>
<path fill="none" stroke="midnightblue" d="M1621.6,-399.63C1621.92,-408.622 1621.72,-418.272 1620.99,-426.428"/>
<polygon fill="midnightblue" stroke="midnightblue" points="1625.09,-399.273 1620.98,-389.506 1618.1,-399.701 1625.09,-399.273"/>
</g>
<!-- Node3 -->
<g id="node3" class="node"><title>Node3</title>
<g id="a_node3"><a xlink:href="FileData_8inl.html" target="_top" xlink:title="/home/travis/build\l/STORM&#45;IRIT/Radium&#45;Engine\l/src/Core/File/FileData.inl">
<polygon fill="white" stroke="black" points="1131,-264.5 1131,-305.5 1279,-305.5 1279,-264.5 1131,-264.5"/>
<text text-anchor="start" x="1139" y="-293.5" font-family="Helvetica,sans-Serif" font-size="10.00">/home/travis/build</text>
<text text-anchor="start" x="1139" y="-282.5" font-family="Helvetica,sans-Serif" font-size="10.00">/STORM&#45;IRIT/Radium&#45;Engine</text>
<text text-anchor="middle" x="1205" y="-271.5" font-family="Helvetica,sans-Serif" font-size="10.00">/src/Core/File/FileData.inl</text>
</a>
</g>
</g>
<!-- Node2&#45;&gt;Node3 -->
<g id="edge2" class="edge"><title>Node2&#45;&gt;Node3</title>
<path fill="none" stroke="midnightblue" d="M1530.28,-352.951C1470.77,-342.154 1389.37,-326.933 1318,-312 1305.39,-309.361 1292.02,-306.417 1279.06,-303.485"/>
<polygon fill="midnightblue" stroke="midnightblue" points="1529.92,-356.443 1540.38,-354.78 1531.17,-349.555 1529.92,-356.443"/>
</g>
<!-- Node16 -->
<g id="node16" class="node"><title>Node16</title>
<g id="a_node16"><a xlink:href="SkinningSystem_8hpp.html" target="_top" xlink:title="/home/travis/build\l/STORM&#45;IRIT/Radium&#45;Engine\l/Plugins/Skinning/src/SkinningSystem.hpp">
<polygon fill="white" stroke="black" points="1829,-84.5 1829,-125.5 2031,-125.5 2031,-84.5 1829,-84.5"/>
<text text-anchor="start" x="1837" y="-113.5" font-family="Helvetica,sans-Serif" font-size="10.00">/home/travis/build</text>
<text text-anchor="start" x="1837" y="-102.5" font-family="Helvetica,sans-Serif" font-size="10.00">/STORM&#45;IRIT/Radium&#45;Engine</text>
<text text-anchor="middle" x="1930" y="-91.5" font-family="Helvetica,sans-Serif" font-size="10.00">/Plugins/Skinning/src/SkinningSystem.hpp</text>
</a>
</g>
</g>
<!-- Node2&#45;&gt;Node16 -->
<g id="edge31" class="edge"><title>Node2&#45;&gt;Node16</title>
<path fill="none" stroke="midnightblue" d="M1530.5,-361.53C1461.74,-354.302 1372.51,-339.764 1350,-312 1334.89,-293.357 1335.34,-277 1350,-258 1357.79,-247.911 1693.21,-164.275 1850.34,-125.545"/>
<polygon fill="midnightblue" stroke="midnightblue" points="1530.19,-365.016 1540.49,-362.545 1530.9,-358.052 1530.19,-365.016"/>
</g>
<!-- Node18 -->
<g id="node18" class="node"><title>Node18</title>
<g id="a_node18"><a xlink:href="HandleData_8cpp.html" target="_top" xlink:title="/home/travis/build\l/STORM&#45;IRIT/Radium&#45;Engine\l/src/Core/File/HandleData.cpp">
<polygon fill="white" stroke="black" points="1359.5,-264.5 1359.5,-305.5 1508.5,-305.5 1508.5,-264.5 1359.5,-264.5"/>
<text text-anchor="start" x="1367.5" y="-293.5" font-family="Helvetica,sans-Serif" font-size="10.00">/home/travis/build</text>
<text text-anchor="start" x="1367.5" y="-282.5" font-family="Helvetica,sans-Serif" font-size="10.00">/STORM&#45;IRIT/Radium&#45;Engine</text>
<text text-anchor="middle" x="1434" y="-271.5" font-family="Helvetica,sans-Serif" font-size="10.00">/src/Core/File/HandleData.cpp</text>
</a>
</g>
</g>
<!-- Node2&#45;&gt;Node18 -->
<g id="edge17" class="edge"><title>Node2&#45;&gt;Node18</title>
<path fill="none" stroke="midnightblue" d="M1562.34,-344.144C1535.34,-331.909 1502.85,-317.19 1477.31,-305.623"/>
<polygon fill="midnightblue" stroke="midnightblue" points="1561.09,-347.42 1571.65,-348.359 1563.98,-341.044 1561.09,-347.42"/>
</g>
<!-- Node19 -->
<g id="node19" class="node"><title>Node19</title>
<g id="a_node19"><a xlink:href="HandleToSkeleton_8cpp.html" target="_top" xlink:title="/home/travis/build\l/STORM&#45;IRIT/Radium&#45;Engine\l/src/Core/File/HandleToSkeleton.cpp">
<polygon fill="white" stroke="black" points="1526,-264.5 1526,-305.5 1704,-305.5 1704,-264.5 1526,-264.5"/>
<text text-anchor="start" x="1534" y="-293.5" font-family="Helvetica,sans-Serif" font-size="10.00">/home/travis/build</text>
<text text-anchor="start" x="1534" y="-282.5" font-family="Helvetica,sans-Serif" font-size="10.00">/STORM&#45;IRIT/Radium&#45;Engine</text>
<text text-anchor="middle" x="1615" y="-271.5" font-family="Helvetica,sans-Serif" font-size="10.00">/src/Core/File/HandleToSkeleton.cpp</text>
</a>
</g>
</g>
<!-- Node2&#45;&gt;Node19 -->
<g id="edge19" class="edge"><title>Node2&#45;&gt;Node19</title>
<path fill="none" stroke="midnightblue" d="M1615,-337.881C1615,-327.133 1615,-315.309 1615,-305.667"/>
<polygon fill="midnightblue" stroke="midnightblue" points="1611.5,-338.15 1615,-348.15 1618.5,-338.15 1611.5,-338.15"/>
</g>
<!-- Node20 -->
<g id="node20" class="node"><title>Node20</title>
<g id="a_node20"><a xlink:href="AssimpHandleDataLoader_8cpp.html" target="_top" xlink:title="/home/travis/build\l/STORM&#45;IRIT/Radium&#45;Engine\l/src/IO/AssimpLoader/AssimpHandle\lDataLoader.cpp">
<polygon fill="white" stroke="black" points="1722.5,-259 1722.5,-311 1901.5,-311 1901.5,-259 1722.5,-259"/>
<text text-anchor="start" x="1730.5" y="-299" font-family="Helvetica,sans-Serif" font-size="10.00">/home/travis/build</text>
<text text-anchor="start" x="1730.5" y="-288" font-family="Helvetica,sans-Serif" font-size="10.00">/STORM&#45;IRIT/Radium&#45;Engine</text>
<text text-anchor="start" x="1730.5" y="-277" font-family="Helvetica,sans-Serif" font-size="10.00">/src/IO/AssimpLoader/AssimpHandle</text>
<text text-anchor="middle" x="1812" y="-266" font-family="Helvetica,sans-Serif" font-size="10.00">DataLoader.cpp</text>
</a>
</g>
</g>
<!-- Node2&#45;&gt;Node20 -->
<g id="edge20" class="edge"><title>Node2&#45;&gt;Node20</title>
<path fill="none" stroke="midnightblue" d="M1671.32,-344.557C1696.43,-334.106 1726.04,-321.78 1751.61,-311.138"/>
<polygon fill="midnightblue" stroke="midnightblue" points="1669.82,-341.389 1661.94,-348.463 1672.51,-347.852 1669.82,-341.389"/>
</g>
<!-- Node21 -->
<g id="node21" class="node"><title>Node21</title>
<g id="a_node21"><a xlink:href="AnimationComponent_8hpp.html" target="_top" xlink:title="/home/travis/build\l/STORM&#45;IRIT/Radium&#45;Engine\l/Plugins/Animation/src/Animation\lComponent.hpp">
<polygon fill="white" stroke="black" points="2181.5,-259 2181.5,-311 2342.5,-311 2342.5,-259 2181.5,-259"/>
<text text-anchor="start" x="2189.5" y="-299" font-family="Helvetica,sans-Serif" font-size="10.00">/home/travis/build</text>
<text text-anchor="start" x="2189.5" y="-288" font-family="Helvetica,sans-Serif" font-size="10.00">/STORM&#45;IRIT/Radium&#45;Engine</text>
<text text-anchor="start" x="2189.5" y="-277" font-family="Helvetica,sans-Serif" font-size="10.00">/Plugins/Animation/src/Animation</text>
<text text-anchor="middle" x="2262" y="-266" font-family="Helvetica,sans-Serif" font-size="10.00">Component.hpp</text>
</a>
</g>
</g>
<!-- Node2&#45;&gt;Node21 -->
<g id="edge21" class="edge"><title>Node2&#45;&gt;Node21</title>
<path fill="none" stroke="midnightblue" d="M1700.08,-362.141C1805.46,-354.174 1990.26,-337.876 2147,-312 2158.21,-310.15 2169.96,-307.879 2181.5,-305.459"/>
<polygon fill="midnightblue" stroke="midnightblue" points="1699.53,-358.673 1689.82,-362.91 1700.06,-365.653 1699.53,-358.673"/>
</g>
<!-- Node25 -->
<g id="node25" class="node"><title>Node25</title>
<g id="a_node25"><a xlink:href="SkinningComponent_8hpp.html" target="_top" xlink:title="/home/travis/build\l/STORM&#45;IRIT/Radium&#45;Engine\l/Plugins/Skinning/src/SkinningComponent.hpp">
<polygon fill="white" stroke="black" points="1920,-264.5 1920,-305.5 2138,-305.5 2138,-264.5 1920,-264.5"/>
<text text-anchor="start" x="1928" y="-293.5" font-family="Helvetica,sans-Serif" font-size="10.00">/home/travis/build</text>
<text text-anchor="start" x="1928" y="-282.5" font-family="Helvetica,sans-Serif" font-size="10.00">/STORM&#45;IRIT/Radium&#45;Engine</text>
<text text-anchor="middle" x="2029" y="-271.5" font-family="Helvetica,sans-Serif" font-size="10.00">/Plugins/Skinning/src/SkinningComponent.hpp</text>
</a>
</g>
</g>
<!-- Node2&#45;&gt;Node25 -->
<g id="edge28" class="edge"><title>Node2&#45;&gt;Node25</title>
<path fill="none" stroke="midnightblue" d="M1699.7,-352.561C1758.73,-341.644 1839.26,-326.438 1910,-312 1920.05,-309.949 1930.56,-307.742 1941,-305.511"/>
<polygon fill="midnightblue" stroke="midnightblue" points="1698.87,-349.154 1689.67,-354.411 1700.14,-356.037 1698.87,-349.154"/>
</g>
<!-- Node4 -->
<g id="node4" class="node"><title>Node4</title>
<g id="a_node4"><a xlink:href="FileData_8hpp.html" target="_top" xlink:title="/home/travis/build\l/STORM&#45;IRIT/Radium&#45;Engine\l/src/Core/File/FileData.hpp">
<polygon fill="white" stroke="black" points="1106,-174.5 1106,-215.5 1254,-215.5 1254,-174.5 1106,-174.5"/>
<text text-anchor="start" x="1114" y="-203.5" font-family="Helvetica,sans-Serif" font-size="10.00">/home/travis/build</text>
<text text-anchor="start" x="1114" y="-192.5" font-family="Helvetica,sans-Serif" font-size="10.00">/STORM&#45;IRIT/Radium&#45;Engine</text>
<text text-anchor="middle" x="1180" y="-181.5" font-family="Helvetica,sans-Serif" font-size="10.00">/src/Core/File/FileData.hpp</text>
</a>
</g>
</g>
<!-- Node3&#45;&gt;Node4 -->
<g id="edge3" class="edge"><title>Node3&#45;&gt;Node4</title>
<path fill="none" stroke="midnightblue" d="M1196.68,-254.71C1193.05,-241.919 1188.88,-227.253 1185.62,-215.78"/>
<polygon fill="midnightblue" stroke="midnightblue" points="1193.35,-255.807 1199.45,-264.47 1200.09,-253.894 1193.35,-255.807"/>
</g>
<!-- Node5 -->
<g id="node5" class="node"><title>Node5</title>
<g id="a_node5"><a xlink:href="FileData_8cpp.html" target="_top" xlink:title="/home/travis/build\l/STORM&#45;IRIT/Radium&#45;Engine\l/src/Core/File/FileData.cpp">
<polygon fill="white" stroke="black" points="1471,-84.5 1471,-125.5 1619,-125.5 1619,-84.5 1471,-84.5"/>
<text text-anchor="start" x="1479" y="-113.5" font-family="Helvetica,sans-Serif" font-size="10.00">/home/travis/build</text>
<text text-anchor="start" x="1479" y="-102.5" font-family="Helvetica,sans-Serif" font-size="10.00">/STORM&#45;IRIT/Radium&#45;Engine</text>
<text text-anchor="middle" x="1545" y="-91.5" font-family="Helvetica,sans-Serif" font-size="10.00">/src/Core/File/FileData.cpp</text>
</a>
</g>
</g>
<!-- Node4&#45;&gt;Node5 -->
<g id="edge4" class="edge"><title>Node4&#45;&gt;Node5</title>
<path fill="none" stroke="midnightblue" d="M1263.95,-177.379C1320.03,-165.81 1395.28,-149.389 1461,-132 1468.38,-130.048 1476.08,-127.866 1483.7,-125.619"/>
<polygon fill="midnightblue" stroke="midnightblue" points="1263.15,-173.969 1254.06,-179.409 1264.56,-180.826 1263.15,-173.969"/>
</g>
<!-- Node6 -->
<g id="node6" class="node"><title>Node6</title>
<g id="a_node6"><a xlink:href="LightManager_8cpp.html" target="_top" xlink:title="/home/travis/build\l/STORM&#45;IRIT/Radium&#45;Engine\l/src/Engine/Managers/LightManager\l/LightManager.cpp">
<polygon fill="white" stroke="black" points="1637.5,-79 1637.5,-131 1810.5,-131 1810.5,-79 1637.5,-79"/>
<text text-anchor="start" x="1645.5" y="-119" font-family="Helvetica,sans-Serif" font-size="10.00">/home/travis/build</text>
<text text-anchor="start" x="1645.5" y="-108" font-family="Helvetica,sans-Serif" font-size="10.00">/STORM&#45;IRIT/Radium&#45;Engine</text>
<text text-anchor="start" x="1645.5" y="-97" font-family="Helvetica,sans-Serif" font-size="10.00">/src/Engine/Managers/LightManager</text>
<text text-anchor="middle" x="1724" y="-86" font-family="Helvetica,sans-Serif" font-size="10.00">/LightManager.cpp</text>
</a>
</g>
</g>
<!-- Node4&#45;&gt;Node6 -->
<g id="edge5" class="edge"><title>Node4&#45;&gt;Node6</title>
<path fill="none" stroke="midnightblue" d="M1264.58,-177.088C1282.19,-173.841 1300.67,-170.635 1318,-168 1455.13,-147.147 1491.79,-158.202 1628,-132 1631.05,-131.413 1634.15,-130.78 1637.27,-130.11"/>
<polygon fill="midnightblue" stroke="midnightblue" points="1263.51,-173.727 1254.32,-179.001 1264.79,-180.609 1263.51,-173.727"/>
</g>
<!-- Node7 -->
<g id="node7" class="node"><title>Node7</title>
<g id="a_node7"><a xlink:href="RadiumEngine_8cpp.html" target="_top" xlink:title="/home/travis/build\l/STORM&#45;IRIT/Radium&#45;Engine\l/src/Engine/RadiumEngine.cpp">
<polygon fill="white" stroke="black" points="0,-84.5 0,-125.5 152,-125.5 152,-84.5 0,-84.5"/>
<text text-anchor="start" x="8" y="-113.5" font-family="Helvetica,sans-Serif" font-size="10.00">/home/travis/build</text>
<text text-anchor="start" x="8" y="-102.5" font-family="Helvetica,sans-Serif" font-size="10.00">/STORM&#45;IRIT/Radium&#45;Engine</text>
<text text-anchor="middle" x="76" y="-91.5" font-family="Helvetica,sans-Serif" font-size="10.00">/src/Engine/RadiumEngine.cpp</text>
</a>
</g>
</g>
<!-- Node4&#45;&gt;Node7 -->
<g id="edge6" class="edge"><title>Node4&#45;&gt;Node7</title>
<path fill="none" stroke="midnightblue" d="M1095.75,-191.435C885.101,-184.61 339.679,-164.294 161,-132 152.04,-130.381 142.696,-128.127 133.619,-125.617"/>
<polygon fill="midnightblue" stroke="midnightblue" points="1095.72,-194.936 1105.82,-191.759 1095.94,-187.939 1095.72,-194.936"/>
</g>
<!-- Node8 -->
<g id="node8" class="node"><title>Node8</title>
<g id="a_node8"><a xlink:href="Renderer_8cpp.html" target="_top" xlink:title="/home/travis/build\l/STORM&#45;IRIT/Radium&#45;Engine\l/src/Engine/Renderer/Renderer.cpp">
<polygon fill="white" stroke="black" points="170,-84.5 170,-125.5 340,-125.5 340,-84.5 170,-84.5"/>
<text text-anchor="start" x="178" y="-113.5" font-family="Helvetica,sans-Serif" font-size="10.00">/home/travis/build</text>
<text text-anchor="start" x="178" y="-102.5" font-family="Helvetica,sans-Serif" font-size="10.00">/STORM&#45;IRIT/Radium&#45;Engine</text>
<text text-anchor="middle" x="255" y="-91.5" font-family="Helvetica,sans-Serif" font-size="10.00">/src/Engine/Renderer/Renderer.cpp</text>
</a>
</g>
</g>
<!-- Node4&#45;&gt;Node8 -->
<g id="edge7" class="edge"><title>Node4&#45;&gt;Node8</title>
<path fill="none" stroke="midnightblue" d="M1095.64,-193.131C944.739,-190.375 619.129,-178.97 349,-132 339.241,-130.303 329.034,-128.024 319.092,-125.517"/>
<polygon fill="midnightblue" stroke="midnightblue" points="1095.7,-196.632 1105.76,-193.307 1095.82,-189.633 1095.7,-196.632"/>
</g>
<!-- Node9 -->
<g id="node9" class="node"><title>Node9</title>
<g id="a_node9"><a xlink:href="Viewer_8cpp.html" target="_top" xlink:title="/home/travis/build\l/STORM&#45;IRIT/Radium&#45;Engine\l/src/GuiBase/Viewer/Viewer.cpp">
<polygon fill="white" stroke="black" points="358,-84.5 358,-125.5 516,-125.5 516,-84.5 358,-84.5"/>
<text text-anchor="start" x="366" y="-113.5" font-family="Helvetica,sans-Serif" font-size="10.00">/home/travis/build</text>
<text text-anchor="start" x="366" y="-102.5" font-family="Helvetica,sans-Serif" font-size="10.00">/STORM&#45;IRIT/Radium&#45;Engine</text>
<text text-anchor="middle" x="437" y="-91.5" font-family="Helvetica,sans-Serif" font-size="10.00">/src/GuiBase/Viewer/Viewer.cpp</text>
</a>
</g>
</g>
<!-- Node4&#45;&gt;Node9 -->
<g id="edge8" class="edge"><title>Node4&#45;&gt;Node9</title>
<path fill="none" stroke="midnightblue" d="M1095.36,-191.2C969.832,-185.877 727.35,-171.09 525,-132 516.084,-130.278 506.776,-128.033 497.693,-125.585"/>
<polygon fill="midnightblue" stroke="midnightblue" points="1095.53,-194.71 1105.67,-191.627 1095.82,-187.716 1095.53,-194.71"/>
</g>
<!-- Node10 -->
<g id="node10" class="node"><title>Node10</title>
<g id="a_node10"><a xlink:href="AssimpFileLoader_8cpp.html" target="_top" xlink:title="/home/travis/build\l/STORM&#45;IRIT/Radium&#45;Engine\l/src/IO/AssimpLoader/AssimpFile\lLoader.cpp">
<polygon fill="white" stroke="black" points="534,-79 534,-131 698,-131 698,-79 534,-79"/>
<text text-anchor="start" x="542" y="-119" font-family="Helvetica,sans-Serif" font-size="10.00">/home/travis/build</text>
<text text-anchor="start" x="542" y="-108" font-family="Helvetica,sans-Serif" font-size="10.00">/STORM&#45;IRIT/Radium&#45;Engine</text>
<text text-anchor="start" x="542" y="-97" font-family="Helvetica,sans-Serif" font-size="10.00">/src/IO/AssimpLoader/AssimpFile</text>
<text text-anchor="middle" x="616" y="-86" font-family="Helvetica,sans-Serif" font-size="10.00">Loader.cpp</text>
</a>
</g>
</g>
<!-- Node4&#45;&gt;Node10 -->
<g id="edge9" class="edge"><title>Node4&#45;&gt;Node10</title>
<path fill="none" stroke="midnightblue" d="M1095.56,-186.735C1000.45,-177.673 841.584,-159.887 707,-132 704.104,-131.4 701.165,-130.756 698.204,-130.076"/>
<polygon fill="midnightblue" stroke="midnightblue" points="1095.41,-190.236 1105.7,-187.69 1096.07,-183.267 1095.41,-190.236"/>
</g>
<!-- Node11 -->
<g id="node11" class="node"><title>Node11</title>
<g id="a_node11"><a xlink:href="TinyPlyFileLoader_8cpp.html" target="_top" xlink:title="/home/travis/build\l/STORM&#45;IRIT/Radium&#45;Engine\l/src/IO/TinyPlyLoader/TinyPlyFile\lLoader.cpp">
<polygon fill="white" stroke="black" points="716,-79 716,-131 880,-131 880,-79 716,-79"/>
<text text-anchor="start" x="724" y="-119" font-family="Helvetica,sans-Serif" font-size="10.00">/home/travis/build</text>
<text text-anchor="start" x="724" y="-108" font-family="Helvetica,sans-Serif" font-size="10.00">/STORM&#45;IRIT/Radium&#45;Engine</text>
<text text-anchor="start" x="724" y="-97" font-family="Helvetica,sans-Serif" font-size="10.00">/src/IO/TinyPlyLoader/TinyPlyFile</text>
<text text-anchor="middle" x="798" y="-86" font-family="Helvetica,sans-Serif" font-size="10.00">Loader.cpp</text>
</a>
</g>
</g>
<!-- Node4&#45;&gt;Node11 -->
<g id="edge10" class="edge"><title>Node4&#45;&gt;Node11</title>
<path fill="none" stroke="midnightblue" d="M1095.92,-177.671C1037.62,-165.96 958.297,-149.26 889,-132 886.13,-131.285 883.214,-130.542 880.272,-129.779"/>
<polygon fill="midnightblue" stroke="midnightblue" points="1095.33,-181.122 1105.83,-179.652 1096.71,-174.258 1095.33,-181.122"/>
</g>
<!-- Node12 -->
<g id="node12" class="node"><title>Node12</title>
<g id="a_node12"><a xlink:href="AnimationSystem_8cpp.html" target="_top" xlink:title="/home/travis/build\l/STORM&#45;IRIT/Radium&#45;Engine\l/Plugins/Animation/src/Animation\lSystem.cpp">
<polygon fill="white" stroke="black" points="2049.5,-79 2049.5,-131 2210.5,-131 2210.5,-79 2049.5,-79"/>
<text text-anchor="start" x="2057.5" y="-119" font-family="Helvetica,sans-Serif" font-size="10.00">/home/travis/build</text>
<text text-anchor="start" x="2057.5" y="-108" font-family="Helvetica,sans-Serif" font-size="10.00">/STORM&#45;IRIT/Radium&#45;Engine</text>
<text text-anchor="start" x="2057.5" y="-97" font-family="Helvetica,sans-Serif" font-size="10.00">/Plugins/Animation/src/Animation</text>
<text text-anchor="middle" x="2130" y="-86" font-family="Helvetica,sans-Serif" font-size="10.00">System.cpp</text>
</a>
</g>
</g>
<!-- Node4&#45;&gt;Node12 -->
<g id="edge11" class="edge"><title>Node4&#45;&gt;Node12</title>
<path fill="none" stroke="midnightblue" d="M1264.66,-193.743C1419.7,-191.981 1759.09,-182.131 2040,-132 2043.04,-131.457 2046.13,-130.852 2049.24,-130.196"/>
<polygon fill="midnightblue" stroke="midnightblue" points="1264.23,-190.247 1254.27,-193.852 1264.31,-197.247 1264.23,-190.247"/>
</g>
<!-- Node13 -->
<g id="node13" class="node"><title>Node13</title>
<g id="a_node13"><a xlink:href="FancyMeshComponent_8cpp.html" target="_top" xlink:title="/home/travis/build\l/STORM&#45;IRIT/Radium&#45;Engine\l/Plugins/FancyMesh/src/FancyMesh\lComponent.cpp">
<polygon fill="white" stroke="black" points="898,-79 898,-131 1074,-131 1074,-79 898,-79"/>
<text text-anchor="start" x="906" y="-119" font-family="Helvetica,sans-Serif" font-size="10.00">/home/travis/build</text>
<text text-anchor="start" x="906" y="-108" font-family="Helvetica,sans-Serif" font-size="10.00">/STORM&#45;IRIT/Radium&#45;Engine</text>
<text text-anchor="start" x="906" y="-97" font-family="Helvetica,sans-Serif" font-size="10.00">/Plugins/FancyMesh/src/FancyMesh</text>
<text text-anchor="middle" x="986" y="-86" font-family="Helvetica,sans-Serif" font-size="10.00">Component.cpp</text>
</a>
</g>
</g>
<!-- Node4&#45;&gt;Node13 -->
<g id="edge12" class="edge"><title>Node4&#45;&gt;Node13</title>
<path fill="none" stroke="midnightblue" d="M1127.73,-170.289C1100.93,-158.135 1068.31,-143.336 1041.12,-131.002"/>
<polygon fill="midnightblue" stroke="midnightblue" points="1126.39,-173.526 1136.95,-174.47 1129.28,-167.152 1126.39,-173.526"/>
</g>
<!-- Node14 -->
<g id="node14" class="node"><title>Node14</title>
<g id="a_node14"><a xlink:href="FancyMeshSystem_8cpp.html" target="_top" xlink:title="/home/travis/build\l/STORM&#45;IRIT/Radium&#45;Engine\l/Plugins/FancyMesh/src/FancyMesh\lSystem.cpp">
<polygon fill="white" stroke="black" points="1092,-79 1092,-131 1268,-131 1268,-79 1092,-79"/>
<text text-anchor="start" x="1100" y="-119" font-family="Helvetica,sans-Serif" font-size="10.00">/home/travis/build</text>
<text text-anchor="start" x="1100" y="-108" font-family="Helvetica,sans-Serif" font-size="10.00">/STORM&#45;IRIT/Radium&#45;Engine</text>
<text text-anchor="start" x="1100" y="-97" font-family="Helvetica,sans-Serif" font-size="10.00">/Plugins/FancyMesh/src/FancyMesh</text>
<text text-anchor="middle" x="1180" y="-86" font-family="Helvetica,sans-Serif" font-size="10.00">System.cpp</text>
</a>
</g>
</g>
<!-- Node4&#45;&gt;Node14 -->
<g id="edge13" class="edge"><title>Node4&#45;&gt;Node14</title>
<path fill="none" stroke="midnightblue" d="M1180,-164.255C1180,-153.506 1180,-141.484 1180,-131.166"/>
<polygon fill="midnightblue" stroke="midnightblue" points="1176.5,-164.47 1180,-174.47 1183.5,-164.47 1176.5,-164.47"/>
</g>
<!-- Node15 -->
<g id="node15" class="node"><title>Node15</title>
<g id="a_node15"><a xlink:href="MeshPaintSystem_8cpp.html" target="_top" xlink:title="/home/travis/build\l/STORM&#45;IRIT/Radium&#45;Engine\l/Plugins/MeshPaint/src/MeshPaint\lSystem.cpp">
<polygon fill="white" stroke="black" points="1285.5,-79 1285.5,-131 1452.5,-131 1452.5,-79 1285.5,-79"/>
<text text-anchor="start" x="1293.5" y="-119" font-family="Helvetica,sans-Serif" font-size="10.00">/home/travis/build</text>
<text text-anchor="start" x="1293.5" y="-108" font-family="Helvetica,sans-Serif" font-size="10.00">/STORM&#45;IRIT/Radium&#45;Engine</text>
<text text-anchor="start" x="1293.5" y="-97" font-family="Helvetica,sans-Serif" font-size="10.00">/Plugins/MeshPaint/src/MeshPaint</text>
<text text-anchor="middle" x="1369" y="-86" font-family="Helvetica,sans-Serif" font-size="10.00">System.cpp</text>
</a>
</g>
</g>
<!-- Node4&#45;&gt;Node15 -->
<g id="edge14" class="edge"><title>Node4&#45;&gt;Node15</title>
<path fill="none" stroke="midnightblue" d="M1231.27,-170.13C1257.31,-158.006 1288.93,-143.282 1315.3,-131.002"/>
<polygon fill="midnightblue" stroke="midnightblue" points="1229.53,-167.076 1221.95,-174.47 1232.49,-173.422 1229.53,-167.076"/>
</g>
<!-- Node4&#45;&gt;Node16 -->
<g id="edge15" class="edge"><title>Node4&#45;&gt;Node16</title>
<path fill="none" stroke="midnightblue" d="M1264.49,-176.497C1282.12,-173.293 1300.62,-170.254 1318,-168 1539.39,-139.287 1598.3,-165.561 1819,-132 1830.35,-130.274 1842.25,-127.996 1853.88,-125.504"/>
<polygon fill="midnightblue" stroke="midnightblue" points="1263.43,-173.135 1254.23,-178.399 1264.71,-180.018 1263.43,-173.135"/>
</g>
<!-- Node17 -->
<g id="node17" class="node"><title>Node17</title>
<g id="a_node17"><a xlink:href="SkinningPlugin_8cpp.html" target="_top" xlink:title="/home/travis/build\l/STORM&#45;IRIT/Radium&#45;Engine\l/Plugins/Skinning/src/SkinningPlugin.cpp">
<polygon fill="white" stroke="black" points="1832.5,-0.5 1832.5,-41.5 2027.5,-41.5 2027.5,-0.5 1832.5,-0.5"/>
<text text-anchor="start" x="1840.5" y="-29.5" font-family="Helvetica,sans-Serif" font-size="10.00">/home/travis/build</text>
<text text-anchor="start" x="1840.5" y="-18.5" font-family="Helvetica,sans-Serif" font-size="10.00">/STORM&#45;IRIT/Radium&#45;Engine</text>
<text text-anchor="middle" x="1930" y="-7.5" font-family="Helvetica,sans-Serif" font-size="10.00">/Plugins/Skinning/src/SkinningPlugin.cpp</text>
</a>
</g>
</g>
<!-- Node16&#45;&gt;Node17 -->
<g id="edge16" class="edge"><title>Node16&#45;&gt;Node17</title>
<path fill="none" stroke="midnightblue" d="M1930,-73.881C1930,-63.1328 1930,-51.309 1930,-41.6671"/>
<polygon fill="midnightblue" stroke="midnightblue" points="1926.5,-74.1501 1930,-84.1501 1933.5,-74.1501 1926.5,-74.1501"/>
</g>
<!-- Node21&#45;&gt;Node12 -->
<g id="edge23" class="edge"><title>Node21&#45;&gt;Node12</title>
<path fill="none" stroke="midnightblue" d="M2228.25,-251.732C2219.29,-242.491 2209.92,-232.16 2202,-222 2179.12,-192.653 2157.22,-155.673 2143.71,-131.46"/>
<polygon fill="midnightblue" stroke="midnightblue" points="2225.79,-254.222 2235.3,-258.885 2230.77,-249.307 2225.79,-254.222"/>
</g>
<!-- Node22 -->
<g id="node22" class="node"><title>Node22</title>
<g id="a_node22"><a xlink:href="AnimationComponent_8cpp.html" target="_top" xlink:title="/home/travis/build\l/STORM&#45;IRIT/Radium&#45;Engine\l/Plugins/Animation/src/Animation\lComponent.cpp">
<polygon fill="white" stroke="black" points="2401.5,-79 2401.5,-131 2562.5,-131 2562.5,-79 2401.5,-79"/>
<text text-anchor="start" x="2409.5" y="-119" font-family="Helvetica,sans-Serif" font-size="10.00">/home/travis/build</text>
<text text-anchor="start" x="2409.5" y="-108" font-family="Helvetica,sans-Serif" font-size="10.00">/STORM&#45;IRIT/Radium&#45;Engine</text>
<text text-anchor="start" x="2409.5" y="-97" font-family="Helvetica,sans-Serif" font-size="10.00">/Plugins/Animation/src/Animation</text>
<text text-anchor="middle" x="2482" y="-86" font-family="Helvetica,sans-Serif" font-size="10.00">Component.cpp</text>
</a>
</g>
</g>
<!-- Node21&#45;&gt;Node22 -->
<g id="edge22" class="edge"><title>Node21&#45;&gt;Node22</title>
<path fill="none" stroke="midnightblue" d="M2324.37,-254.015C2341.16,-244.75 2358.85,-233.835 2374,-222 2408.69,-194.891 2442.2,-156.356 2462.46,-131.267"/>
<polygon fill="midnightblue" stroke="midnightblue" points="2322.29,-251.159 2315.15,-258.988 2325.62,-257.319 2322.29,-251.159"/>
</g>
<!-- Node23 -->
<g id="node23" class="node"><title>Node23</title>
<g id="a_node23"><a xlink:href="SkeletonBoneDrawable_8hpp.html" target="_top" xlink:title="/home/travis/build\l/STORM&#45;IRIT/Radium&#45;Engine\l/Plugins/Animation/src/Drawing\l/SkeletonBoneDrawable.hpp">
<polygon fill="white" stroke="black" points="2211,-169 2211,-221 2365,-221 2365,-169 2211,-169"/>
<text text-anchor="start" x="2219" y="-209" font-family="Helvetica,sans-Serif" font-size="10.00">/home/travis/build</text>
<text text-anchor="start" x="2219" y="-198" font-family="Helvetica,sans-Serif" font-size="10.00">/STORM&#45;IRIT/Radium&#45;Engine</text>
<text text-anchor="start" x="2219" y="-187" font-family="Helvetica,sans-Serif" font-size="10.00">/Plugins/Animation/src/Drawing</text>
<text text-anchor="middle" x="2288" y="-176" font-family="Helvetica,sans-Serif" font-size="10.00">/SkeletonBoneDrawable.hpp</text>
</a>
</g>
</g>
<!-- Node21&#45;&gt;Node23 -->
<g id="edge24" class="edge"><title>Node21&#45;&gt;Node23</title>
<path fill="none" stroke="midnightblue" d="M2272.4,-248.785C2275.14,-239.517 2278.04,-229.708 2280.59,-221.092"/>
<polygon fill="midnightblue" stroke="midnightblue" points="2269,-247.965 2269.52,-258.547 2275.71,-249.948 2269,-247.965"/>
</g>
<!-- Node23&#45;&gt;Node12 -->
<g id="edge26" class="edge"><title>Node23&#45;&gt;Node12</title>
<path fill="none" stroke="midnightblue" d="M2233.8,-163.815C2214.65,-153.145 2193.32,-141.268 2175.01,-131.069"/>
<polygon fill="midnightblue" stroke="midnightblue" points="2232.28,-166.975 2242.72,-168.783 2235.69,-160.859 2232.28,-166.975"/>
</g>
<!-- Node23&#45;&gt;Node22 -->
<g id="edge25" class="edge"><title>Node23&#45;&gt;Node22</title>
<path fill="none" stroke="midnightblue" d="M2352.7,-164.654C2376.64,-153.792 2403.55,-141.586 2426.59,-131.133"/>
<polygon fill="midnightblue" stroke="midnightblue" points="2350.99,-161.582 2343.33,-168.901 2353.89,-167.957 2350.99,-161.582"/>
</g>
<!-- Node24 -->
<g id="node24" class="node"><title>Node24</title>
<g id="a_node24"><a xlink:href="SkeletonBoneDrawable_8cpp.html" target="_top" xlink:title="/home/travis/build\l/STORM&#45;IRIT/Radium&#45;Engine\l/Plugins/Animation/src/Drawing\l/SkeletonBoneDrawable.cpp">
<polygon fill="white" stroke="black" points="2229,-79 2229,-131 2383,-131 2383,-79 2229,-79"/>
<text text-anchor="start" x="2237" y="-119" font-family="Helvetica,sans-Serif" font-size="10.00">/home/travis/build</text>
<text text-anchor="start" x="2237" y="-108" font-family="Helvetica,sans-Serif" font-size="10.00">/STORM&#45;IRIT/Radium&#45;Engine</text>
<text text-anchor="start" x="2237" y="-97" font-family="Helvetica,sans-Serif" font-size="10.00">/Plugins/Animation/src/Drawing</text>
<text text-anchor="middle" x="2306" y="-86" font-family="Helvetica,sans-Serif" font-size="10.00">/SkeletonBoneDrawable.cpp</text>
</a>
</g>
</g>
<!-- Node23&#45;&gt;Node24 -->
<g id="edge27" class="edge"><title>Node23&#45;&gt;Node24</title>
<path fill="none" stroke="midnightblue" d="M2295.26,-158.489C2297.14,-149.309 2299.12,-139.616 2300.87,-131.092"/>
<polygon fill="midnightblue" stroke="midnightblue" points="2291.78,-158.048 2293.21,-168.547 2298.64,-159.451 2291.78,-158.048"/>
</g>
<!-- Node25&#45;&gt;Node16 -->
<g id="edge30" class="edge"><title>Node25&#45;&gt;Node16</title>
<path fill="none" stroke="midnightblue" d="M2029.98,-254.25C2029.48,-229.527 2025.64,-194.273 2010,-168 1999.57,-150.485 1982.17,-136.113 1966.25,-125.632"/>
<polygon fill="midnightblue" stroke="midnightblue" points="2026.48,-254.48 2030,-264.47 2033.48,-254.461 2026.48,-254.48"/>
</g>
<!-- Node26 -->
<g id="node26" class="node"><title>Node26</title>
<g id="a_node26"><a xlink:href="SkinningComponent_8cpp.html" target="_top" xlink:title="/home/travis/build\l/STORM&#45;IRIT/Radium&#45;Engine\l/Plugins/Skinning/src/SkinningComponent.cpp">
<polygon fill="white" stroke="black" points="1783,-174.5 1783,-215.5 2001,-215.5 2001,-174.5 1783,-174.5"/>
<text text-anchor="start" x="1791" y="-203.5" font-family="Helvetica,sans-Serif" font-size="10.00">/home/travis/build</text>
<text text-anchor="start" x="1791" y="-192.5" font-family="Helvetica,sans-Serif" font-size="10.00">/STORM&#45;IRIT/Radium&#45;Engine</text>
<text text-anchor="middle" x="1892" y="-181.5" font-family="Helvetica,sans-Serif" font-size="10.00">/Plugins/Skinning/src/SkinningComponent.cpp</text>
</a>
</g>
</g>
<!-- Node25&#45;&gt;Node26 -->
<g id="edge29" class="edge"><title>Node25&#45;&gt;Node26</title>
<path fill="none" stroke="midnightblue" d="M1990.08,-258.999C1968.75,-245.3 1942.69,-228.56 1922.79,-215.78"/>
<polygon fill="midnightblue" stroke="midnightblue" points="1988.29,-262.01 1998.6,-264.47 1992.07,-256.121 1988.29,-262.01"/>
</g>
</g>
</svg>
