<?xml version="1.0" encoding="UTF-8" standalone="no"?>
<!DOCTYPE svg PUBLIC "-//W3C//DTD SVG 1.1//EN"
 "http://www.w3.org/Graphics/SVG/1.1/DTD/svg11.dtd">
<!-- Generated by graphviz version 2.36.0 (20140111.2315)
 -->
<!-- Title: Graphical Class Hierarchy Pages: 1 -->
<svg width="462pt" height="263pt"
 viewBox="0.00 0.00 462.00 263.00" xmlns="http://www.w3.org/2000/svg" xmlns:xlink="http://www.w3.org/1999/xlink">
<g id="graph0" class="graph" transform="scale(1 1) rotate(0) translate(4 259)">
<title>Graphical Class Hierarchy</title>
<polygon fill="white" stroke="none" points="-4,4 -4,-259 458,-259 458,4 -4,4"/>
<!-- Node1 -->
<g id="node1" class="node"><title>Node1</title>
<g id="a_node1"><a xlink:href="classRa_1_1Engine_1_1System.html" target="_top" xlink:title="Ra::Engine::System">
<polygon fill="white" stroke="black" points="0.5,-117.5 0.5,-136.5 105.5,-136.5 105.5,-117.5 0.5,-117.5"/>
<text text-anchor="middle" x="53" y="-124.5" font-family="Helvetica,sans-Serif" font-size="10.00">Ra::Engine::System</text>
</a>
</g>
</g>
<!-- Node2 -->
<g id="node2" class="node"><title>Node2</title>
<g id="a_node2"><a xlink:href="classAnimationPlugin_1_1AnimationSystem.html" target="_top" xlink:title="AnimationPlugin::Animation\lSystem">
<polygon fill="white" stroke="black" points="149.5,-225 149.5,-255 286.5,-255 286.5,-225 149.5,-225"/>
<text text-anchor="start" x="157.5" y="-243" font-family="Helvetica,sans-Serif" font-size="10.00">AnimationPlugin::Animation</text>
<text text-anchor="middle" x="218" y="-232" font-family="Helvetica,sans-Serif" font-size="10.00">System</text>
</a>
</g>
</g>
<!-- Node1&#45;&gt;Node2 -->
<g id="edge1" class="edge"><title>Node1&#45;&gt;Node2</title>
<path fill="none" stroke="midnightblue" d="M67.3127,-144.546C83.1259,-164.267 111.261,-196.002 142,-215 148.188,-218.824 155.028,-222.137 161.986,-224.985"/>
<polygon fill="midnightblue" stroke="midnightblue" points="70.0565,-142.373 61.1335,-136.661 64.5467,-146.691 70.0565,-142.373"/>
</g>
<!-- Node3 -->
<g id="node3" class="node"><title>Node3</title>
<g id="a_node3"><a xlink:href="classDummyPlugin_1_1DummySystem.html" target="_top" xlink:title="DummyPlugin::DummySystem">
<polygon fill="white" stroke="black" points="142,-186.5 142,-205.5 294,-205.5 294,-186.5 142,-186.5"/>
<text text-anchor="middle" x="218" y="-193.5" font-family="Helvetica,sans-Serif" font-size="10.00">DummyPlugin::DummySystem</text>
</a>
</g>
</g>
<!-- Node1&#45;&gt;Node3 -->
<g id="edge2" class="edge"><title>Node1&#45;&gt;Node3</title>
<path fill="none" stroke="midnightblue" d="M77.5168,-142.205C94.8009,-152.848 119.158,-166.762 142,-176 152.119,-180.093 163.343,-183.598 173.96,-186.477"/>
<polygon fill="midnightblue" stroke="midnightblue" points="79.0291,-139.022 68.6967,-136.679 75.3126,-144.954 79.0291,-139.022"/>
</g>
<!-- Node4 -->
<g id="node4" class="node"><title>Node4</title>
<g id="a_node4"><a xlink:href="classFancyMeshPlugin_1_1FancyMeshSystem.html" target="_top" xlink:title="FancyMeshPlugin::FancyMesh\lSystem">
<polygon fill="white" stroke="black" points="142,-137 142,-167 294,-167 294,-137 142,-137"/>
<text text-anchor="start" x="150" y="-155" font-family="Helvetica,sans-Serif" font-size="10.00">FancyMeshPlugin::FancyMesh</text>
<text text-anchor="middle" x="218" y="-144" font-family="Helvetica,sans-Serif" font-size="10.00">System</text>
</a>
</g>
</g>
<!-- Node1&#45;&gt;Node4 -->
<g id="edge3" class="edge"><title>Node1&#45;&gt;Node4</title>
<path fill="none" stroke="midnightblue" d="M115.529,-136.437C124.155,-137.76 133.099,-139.132 141.941,-140.488"/>
<polygon fill="midnightblue" stroke="midnightblue" points="115.989,-132.967 105.574,-134.91 114.928,-139.886 115.989,-132.967"/>
</g>
<!-- Node5 -->
<g id="node5" class="node"><title>Node5</title>
<g id="a_node5"><a xlink:href="classMeshPaintPlugin_1_1MeshPaintSystem.html" target="_top" xlink:title="MeshPaintPlugin::MeshPaint\lSystem">
<polygon fill="white" stroke="black" points="146.5,-88 146.5,-118 289.5,-118 289.5,-88 146.5,-88"/>
<text text-anchor="start" x="154.5" y="-106" font-family="Helvetica,sans-Serif" font-size="10.00">MeshPaintPlugin::MeshPaint</text>
<text text-anchor="middle" x="218" y="-95" font-family="Helvetica,sans-Serif" font-size="10.00">System</text>
</a>
</g>
</g>
<!-- Node1&#45;&gt;Node5 -->
<g id="edge4" class="edge"><title>Node1&#45;&gt;Node5</title>
<path fill="none" stroke="midnightblue" d="M115.493,-117.946C125.581,-116.46 136.106,-114.911 146.395,-113.396"/>
<polygon fill="midnightblue" stroke="midnightblue" points="114.958,-114.487 105.574,-119.406 115.977,-121.412 114.958,-114.487"/>
</g>
<!-- Node6 -->
<g id="node6" class="node"><title>Node6</title>
<g id="a_node6"><a xlink:href="classRa_1_1Engine_1_1LightManager.html" target="_top" xlink:title="Ra::Engine::LightManager">
<polygon fill="white" stroke="black" points="153,-49.5 153,-68.5 283,-68.5 283,-49.5 153,-49.5"/>
<text text-anchor="middle" x="218" y="-56.5" font-family="Helvetica,sans-Serif" font-size="10.00">Ra::Engine::LightManager</text>
</a>
</g>
</g>
<!-- Node1&#45;&gt;Node6 -->
<g id="edge5" class="edge"><title>Node1&#45;&gt;Node6</title>
<path fill="none" stroke="midnightblue" d="M77.8706,-111.945C95.1552,-101.557 119.364,-88.0405 142,-79 152.137,-74.9515 163.367,-71.4627 173.985,-68.5847"/>
<polygon fill="midnightblue" stroke="midnightblue" points="75.7412,-109.145 69.0344,-117.346 79.392,-115.117 75.7412,-109.145"/>
</g>
<!-- Node8 -->
<g id="node8" class="node"><title>Node8</title>
<g id="a_node8"><a xlink:href="classSkinningPlugin_1_1SkinningSystem.html" target="_top" xlink:title="SkinningPlugin::Skinning\lSystem">
<polygon fill="white" stroke="black" points="155.5,-0 155.5,-30 280.5,-30 280.5,-0 155.5,-0"/>
<text text-anchor="start" x="163.5" y="-18" font-family="Helvetica,sans-Serif" font-size="10.00">SkinningPlugin::Skinning</text>
<text text-anchor="middle" x="218" y="-7" font-family="Helvetica,sans-Serif" font-size="10.00">System</text>
</a>
</g>
</g>
<!-- Node1&#45;&gt;Node8 -->
<g id="edge7" class="edge"><title>Node1&#45;&gt;Node8</title>
<path fill="none" stroke="midnightblue" d="M67.5701,-109.398C83.462,-89.89 111.518,-58.7185 142,-40 148.199,-36.1934 155.046,-32.8913 162.006,-30.0482"/>
<polygon fill="midnightblue" stroke="midnightblue" points="64.6477,-107.449 61.1594,-117.453 70.125,-111.808 64.6477,-107.449"/>
</g>
<!-- Node7 -->
<g id="node7" class="node"><title>Node7</title>
<g id="a_node7"><a xlink:href="classRa_1_1Engine_1_1DefaultLightManager.html" target="_top" xlink:title="DummyLightManager. A simple Light Manager with a list of lights. ">
<polygon fill="white" stroke="black" points="330,-44 330,-74 454,-74 454,-44 330,-44"/>
<text text-anchor="start" x="338" y="-62" font-family="Helvetica,sans-Serif" font-size="10.00">Ra::Engine::DefaultLight</text>
<text text-anchor="middle" x="392" y="-51" font-family="Helvetica,sans-Serif" font-size="10.00">Manager</text>
</a>
</g>
</g>
<!-- Node6&#45;&gt;Node7 -->
<g id="edge6" class="edge"><title>Node6&#45;&gt;Node7</title>
<path fill="none" stroke="midnightblue" d="M293.195,-59C305.394,-59 317.916,-59 329.754,-59"/>
<polygon fill="midnightblue" stroke="midnightblue" points="293.046,-55.5001 283.046,-59 293.046,-62.5001 293.046,-55.5001"/>
</g>
</g>
</svg>
