<?xml version="1.0" encoding="UTF-8" standalone="no"?>
<!DOCTYPE svg PUBLIC "-//W3C//DTD SVG 1.1//EN"
 "http://www.w3.org/Graphics/SVG/1.1/DTD/svg11.dtd">
<!-- Generated by graphviz version 2.36.0 (20140111.2315)
 -->
<!-- Title: Graphical Class Hierarchy Pages: 1 -->
<svg width="324pt" height="66pt"
 viewBox="0.00 0.00 324.00 66.00" xmlns="http://www.w3.org/2000/svg" xmlns:xlink="http://www.w3.org/1999/xlink">
<g id="graph0" class="graph" transform="scale(1 1) rotate(0) translate(4 62)">
<title>Graphical Class Hierarchy</title>
<polygon fill="white" stroke="none" points="-4,4 -4,-62 320,-62 320,4 -4,4"/>
<!-- Node1 -->
<g id="node1" class="node"><title>Node1</title>
<g id="a_node1"><a xlink:href="classRa_1_1Asset_1_1FileLoaderInterface.html" target="_top" xlink:title="Ra::Asset::FileLoaderInterface">
<polygon fill="white" stroke="black" points="0,-19.5 0,-38.5 150,-38.5 150,-19.5 0,-19.5"/>
<text text-anchor="middle" x="75" y="-26.5" font-family="Helvetica,sans-Serif" font-size="10.00">Ra::Asset::FileLoaderInterface</text>
</a>
</g>
</g>
<!-- Node2 -->
<g id="node2" class="node"><title>Node2</title>
<g id="a_node2"><a xlink:href="classRa_1_1IO_1_1AssimpFileLoader.html" target="_top" xlink:title="This class loads scenes containing MESHES only (not point&#45;clouds) ">
<polygon fill="white" stroke="black" points="186,-38.5 186,-57.5 316,-57.5 316,-38.5 186,-38.5"/>
<text text-anchor="middle" x="251" y="-45.5" font-family="Helvetica,sans-Serif" font-size="10.00">Ra::IO::AssimpFileLoader</text>
</a>
</g>
</g>
<!-- Node1&#45;&gt;Node2 -->
<g id="edge1" class="edge"><title>Node1&#45;&gt;Node2</title>
<path fill="none" stroke="midnightblue" d="M160.17,-38.191C168.828,-39.1364 177.524,-40.0859 185.913,-41.002"/>
<polygon fill="midnightblue" stroke="midnightblue" points="160.365,-34.6915 150.044,-37.0853 159.605,-41.6502 160.365,-34.6915"/>
</g>
<!-- Node3 -->
<g id="node3" class="node"><title>Node3</title>
<g id="a_node3"><a xlink:href="classRa_1_1IO_1_1TinyPlyFileLoader.html" target="_top" xlink:title="Ra::IO::TinyPlyFileLoader">
<polygon fill="white" stroke="black" points="186,-0.5 186,-19.5 316,-19.5 316,-0.5 186,-0.5"/>
<text text-anchor="middle" x="251" y="-7.5" font-family="Helvetica,sans-Serif" font-size="10.00">Ra::IO::TinyPlyFileLoader</text>
</a>
</g>
</g>
<!-- Node1&#45;&gt;Node3 -->
<g id="edge2" class="edge"><title>Node1&#45;&gt;Node3</title>
<path fill="none" stroke="midnightblue" d="M160.17,-19.809C168.828,-18.8636 177.524,-17.9141 185.913,-16.998"/>
<polygon fill="midnightblue" stroke="midnightblue" points="159.605,-16.3498 150.044,-20.9147 160.365,-23.3085 159.605,-16.3498"/>
</g>
</g>
</svg>
