<?xml version="1.0" encoding="UTF-8" standalone="no"?>
<!DOCTYPE svg PUBLIC "-//W3C//DTD SVG 1.1//EN"
 "http://www.w3.org/Graphics/SVG/1.1/DTD/svg11.dtd">
<!-- Generated by graphviz version 2.36.0 (20140111.2315)
 -->
<!-- Title: Graphical Class Hierarchy Pages: 1 -->
<svg width="512pt" height="437pt"
 viewBox="0.00 0.00 512.00 437.00" xmlns="http://www.w3.org/2000/svg" xmlns:xlink="http://www.w3.org/1999/xlink">
<g id="graph0" class="graph" transform="scale(1 1) rotate(0) translate(4 433)">
<title>Graphical Class Hierarchy</title>
<polygon fill="white" stroke="none" points="-4,4 -4,-433 508,-433 508,4 -4,4"/>
<!-- Node1 -->
<g id="node1" class="node"><title>Node1</title>
<g id="a_node1"><a xlink:href="classRa_1_1Engine_1_1Component.html" target="_top" xlink:title="A component is an element that can be updated by a system. It is also linked to some other components...">
<polygon fill="white" stroke="black" points="0,-196.5 0,-215.5 122,-215.5 122,-196.5 0,-196.5"/>
<text text-anchor="middle" x="61" y="-203.5" font-family="Helvetica,sans-Serif" font-size="10.00">Ra::Engine::Component</text>
</a>
</g>
</g>
<!-- Node2 -->
<g id="node2" class="node"><title>Node2</title>
<g id="a_node2"><a xlink:href="classAnimationPlugin_1_1AnimationComponent.html" target="_top" xlink:title="AnimationPlugin::Animation\lComponent">
<polygon fill="white" stroke="black" points="174.5,-399 174.5,-429 311.5,-429 311.5,-399 174.5,-399"/>
<text text-anchor="start" x="182.5" y="-417" font-family="Helvetica,sans-Serif" font-size="10.00">AnimationPlugin::Animation</text>
<text text-anchor="middle" x="243" y="-406" font-family="Helvetica,sans-Serif" font-size="10.00">Component</text>
</a>
</g>
</g>
<!-- Node1&#45;&gt;Node2 -->
<g id="edge1" class="edge"><title>Node1&#45;&gt;Node2</title>
<path fill="none" stroke="midnightblue" d="M66.8605,-225.782C77.1096,-263.308 104.521,-344.999 158,-389 162.935,-393.06 168.511,-396.461 174.386,-399.31"/>
<polygon fill="midnightblue" stroke="midnightblue" points="70.1279,-224.441 64.2208,-215.645 63.3537,-226.204 70.1279,-224.441"/>
</g>
<!-- Node3 -->
<g id="node3" class="node"><title>Node3</title>
<g id="a_node3"><a xlink:href="classDummyPlugin_1_1DummyComponent.html" target="_top" xlink:title="DummyPlugin::DummyComponent">
<polygon fill="white" stroke="black" points="158.5,-360.5 158.5,-379.5 327.5,-379.5 327.5,-360.5 158.5,-360.5"/>
<text text-anchor="middle" x="243" y="-367.5" font-family="Helvetica,sans-Serif" font-size="10.00">DummyPlugin::DummyComponent</text>
</a>
</g>
</g>
<!-- Node1&#45;&gt;Node3 -->
<g id="edge2" class="edge"><title>Node1&#45;&gt;Node3</title>
<path fill="none" stroke="midnightblue" d="M69.3078,-225.217C82.2213,-256.477 112.122,-318.053 158,-350 164.274,-354.369 171.382,-357.791 178.743,-360.47"/>
<polygon fill="midnightblue" stroke="midnightblue" points="72.3994,-223.52 65.4502,-215.522 65.8954,-226.108 72.3994,-223.52"/>
</g>
<!-- Node4 -->
<g id="node4" class="node"><title>Node4</title>
<g id="a_node4"><a xlink:href="classFancyMeshPlugin_1_1FancyMeshComponent.html" target="_top" xlink:title="The FancyMeshComponent class. ">
<polygon fill="white" stroke="black" points="167,-311 167,-341 319,-341 319,-311 167,-311"/>
<text text-anchor="start" x="175" y="-329" font-family="Helvetica,sans-Serif" font-size="10.00">FancyMeshPlugin::FancyMesh</text>
<text text-anchor="middle" x="243" y="-318" font-family="Helvetica,sans-Serif" font-size="10.00">Component</text>
</a>
</g>
</g>
<!-- Node1&#45;&gt;Node4 -->
<g id="edge3" class="edge"><title>Node1&#45;&gt;Node4</title>
<path fill="none" stroke="midnightblue" d="M75.1977,-223.563C92.1158,-244.883 123.423,-280.521 158,-301 164.415,-304.799 171.452,-308.06 178.637,-310.849"/>
<polygon fill="midnightblue" stroke="midnightblue" points="77.9484,-221.398 69.0534,-215.642 72.4175,-225.689 77.9484,-221.398"/>
</g>
<!-- Node5 -->
<g id="node5" class="node"><title>Node5</title>
<g id="a_node5"><a xlink:href="classMeshFeatureTrackingPlugin_1_1MeshFeatureTrackingComponent.html" target="_top" xlink:title="MeshFeatureTrackingPlugin\l::MeshFeatureTrackingComponent">
<polygon fill="white" stroke="black" points="159.5,-262 159.5,-292 326.5,-292 326.5,-262 159.5,-262"/>
<text text-anchor="start" x="167.5" y="-280" font-family="Helvetica,sans-Serif" font-size="10.00">MeshFeatureTrackingPlugin</text>
<text text-anchor="middle" x="243" y="-269" font-family="Helvetica,sans-Serif" font-size="10.00">::MeshFeatureTrackingComponent</text>
</a>
</g>
</g>
<!-- Node1&#45;&gt;Node5 -->
<g id="edge4" class="edge"><title>Node1&#45;&gt;Node5</title>
<path fill="none" stroke="midnightblue" d="M88.6277,-220.158C107.622,-229.909 133.955,-242.728 158,-252 167.228,-255.558 177.185,-258.922 186.906,-261.959"/>
<polygon fill="midnightblue" stroke="midnightblue" points="90.163,-217.011 79.6751,-215.51 86.9378,-223.224 90.163,-217.011"/>
</g>
<!-- Node6 -->
<g id="node6" class="node"><title>Node6</title>
<g id="a_node6"><a xlink:href="classMeshPaintPlugin_1_1MeshPaintComponent.html" target="_top" xlink:title="MeshPaintPlugin::MeshPaint\lComponent">
<polygon fill="white" stroke="black" points="171.5,-213 171.5,-243 314.5,-243 314.5,-213 171.5,-213"/>
<text text-anchor="start" x="179.5" y="-231" font-family="Helvetica,sans-Serif" font-size="10.00">MeshPaintPlugin::MeshPaint</text>
<text text-anchor="middle" x="243" y="-220" font-family="Helvetica,sans-Serif" font-size="10.00">Component</text>
</a>
</g>
</g>
<!-- Node1&#45;&gt;Node6 -->
<g id="edge5" class="edge"><title>Node1&#45;&gt;Node6</title>
<path fill="none" stroke="midnightblue" d="M132.309,-214.593C145.106,-216.157 158.461,-217.79 171.27,-219.355"/>
<polygon fill="midnightblue" stroke="midnightblue" points="132.538,-211.095 122.188,-213.356 131.689,-218.044 132.538,-211.095"/>
</g>
<!-- Node7 -->
<g id="node7" class="node"><title>Node7</title>
<g id="a_node7"><a xlink:href="classRa_1_1Engine_1_1DebugComponent.html" target="_top" xlink:title="Component for debug drawing. ">
<polygon fill="white" stroke="black" points="168,-174.5 168,-193.5 318,-193.5 318,-174.5 168,-174.5"/>
<text text-anchor="middle" x="243" y="-181.5" font-family="Helvetica,sans-Serif" font-size="10.00">Ra::Engine::DebugComponent</text>
</a>
</g>
</g>
<!-- Node1&#45;&gt;Node7 -->
<g id="edge6" class="edge"><title>Node1&#45;&gt;Node7</title>
<path fill="none" stroke="midnightblue" d="M132.282,-197.41C143.929,-195.986 156.039,-194.506 167.779,-193.071"/>
<polygon fill="midnightblue" stroke="midnightblue" points="131.689,-193.956 122.188,-198.644 132.538,-200.905 131.689,-193.956"/>
</g>
<!-- Node8 -->
<g id="node8" class="node"><title>Node8</title>
<g id="a_node8"><a xlink:href="classRa_1_1Engine_1_1Light.html" target="_top" xlink:title="Ra::Engine::Light">
<polygon fill="white" stroke="black" points="197,-136.5 197,-155.5 289,-155.5 289,-136.5 197,-136.5"/>
<text text-anchor="middle" x="243" y="-143.5" font-family="Helvetica,sans-Serif" font-size="10.00">Ra::Engine::Light</text>
</a>
</g>
</g>
<!-- Node1&#45;&gt;Node8 -->
<g id="edge7" class="edge"><title>Node1&#45;&gt;Node8</title>
<path fill="none" stroke="midnightblue" d="M90.6557,-192.142C109.47,-183.45 134.801,-172.509 158,-165 170.376,-160.994 184.041,-157.517 196.691,-154.671"/>
<polygon fill="midnightblue" stroke="midnightblue" points="89.0274,-189.04 81.4571,-196.452 91.9974,-195.378 89.0274,-189.04"/>
</g>
<!-- Node12 -->
<g id="node12" class="node"><title>Node12</title>
<g id="a_node12"><a xlink:href="classRa_1_1Engine_1_1UiComponent.html" target="_top" xlink:title="Component for UI drawing. ">
<polygon fill="white" stroke="black" points="177.5,-98.5 177.5,-117.5 308.5,-117.5 308.5,-98.5 177.5,-98.5"/>
<text text-anchor="middle" x="243" y="-105.5" font-family="Helvetica,sans-Serif" font-size="10.00">Ra::Engine::UiComponent</text>
</a>
</g>
</g>
<!-- Node1&#45;&gt;Node12 -->
<g id="edge11" class="edge"><title>Node1&#45;&gt;Node12</title>
<path fill="none" stroke="midnightblue" d="M78.0002,-188.724C95.7908,-170.579 126.23,-142.563 158,-127 165.922,-123.119 174.654,-120.018 183.402,-117.543"/>
<polygon fill="midnightblue" stroke="midnightblue" points="75.1466,-186.644 70.7569,-196.286 80.2018,-191.486 75.1466,-186.644"/>
</g>
<!-- Node13 -->
<g id="node13" class="node"><title>Node13</title>
<g id="a_node13"><a xlink:href="classSkinningPlugin_1_1SkinningComponent.html" target="_top" xlink:title="SkinningPlugin::Skinning\lComponent">
<polygon fill="white" stroke="black" points="180.5,-49 180.5,-79 305.5,-79 305.5,-49 180.5,-49"/>
<text text-anchor="start" x="188.5" y="-67" font-family="Helvetica,sans-Serif" font-size="10.00">SkinningPlugin::Skinning</text>
<text text-anchor="middle" x="243" y="-56" font-family="Helvetica,sans-Serif" font-size="10.00">Component</text>
</a>
</g>
</g>
<!-- Node1&#45;&gt;Node13 -->
<g id="edge12" class="edge"><title>Node1&#45;&gt;Node13</title>
<path fill="none" stroke="midnightblue" d="M72.1686,-187.728C87.4589,-161.921 118.801,-115.046 158,-89 164.843,-84.4528 172.537,-80.7117 180.418,-77.6387"/>
<polygon fill="midnightblue" stroke="midnightblue" points="69.0741,-186.088 67.1116,-196.499 75.1384,-189.584 69.0741,-186.088"/>
</g>
<!-- Node14 -->
<g id="node14" class="node"><title>Node14</title>
<g id="a_node14"><a xlink:href="classSkinningPlugin_1_1SkinningDisplayComponent.html" target="_top" xlink:title="SkinningPlugin::Skinning\lDisplayComponent">
<polygon fill="white" stroke="black" points="180.5,-0 180.5,-30 305.5,-30 305.5,-0 180.5,-0"/>
<text text-anchor="start" x="188.5" y="-18" font-family="Helvetica,sans-Serif" font-size="10.00">SkinningPlugin::Skinning</text>
<text text-anchor="middle" x="243" y="-7" font-family="Helvetica,sans-Serif" font-size="10.00">DisplayComponent</text>
</a>
</g>
</g>
<!-- Node1&#45;&gt;Node14 -->
<g id="edge13" class="edge"><title>Node1&#45;&gt;Node14</title>
<path fill="none" stroke="midnightblue" d="M67.8777,-186.616C79.3918,-151.94 108.233,-79.2558 158,-40 164.57,-34.8172 172.195,-30.7075 180.117,-27.4489"/>
<polygon fill="midnightblue" stroke="midnightblue" points="64.4459,-185.858 64.7436,-196.448 71.1153,-187.984 64.4459,-185.858"/>
</g>
<!-- Node9 -->
<g id="node9" class="node"><title>Node9</title>
<g id="a_node9"><a xlink:href="classRa_1_1Engine_1_1DirectionalLight.html" target="_top" xlink:title="Ra::Engine::DirectionalLight">
<polygon fill="white" stroke="black" points="364.5,-174.5 364.5,-193.5 503.5,-193.5 503.5,-174.5 364.5,-174.5"/>
<text text-anchor="middle" x="434" y="-181.5" font-family="Helvetica,sans-Serif" font-size="10.00">Ra::Engine::DirectionalLight</text>
</a>
</g>
</g>
<!-- Node8&#45;&gt;Node9 -->
<g id="edge8" class="edge"><title>Node8&#45;&gt;Node9</title>
<path fill="none" stroke="midnightblue" d="M299.089,-157.076C326.46,-162.579 359.204,-169.163 385.462,-174.442"/>
<polygon fill="midnightblue" stroke="midnightblue" points="299.764,-153.642 289.27,-155.102 298.384,-160.504 299.764,-153.642"/>
</g>
<!-- Node10 -->
<g id="node10" class="node"><title>Node10</title>
<g id="a_node10"><a xlink:href="classRa_1_1Engine_1_1PointLight.html" target="_top" xlink:title="Ra::Engine::PointLight">
<polygon fill="white" stroke="black" points="376.5,-136.5 376.5,-155.5 491.5,-155.5 491.5,-136.5 376.5,-136.5"/>
<text text-anchor="middle" x="434" y="-143.5" font-family="Helvetica,sans-Serif" font-size="10.00">Ra::Engine::PointLight</text>
</a>
</g>
</g>
<!-- Node8&#45;&gt;Node10 -->
<g id="edge9" class="edge"><title>Node8&#45;&gt;Node10</title>
<path fill="none" stroke="midnightblue" d="M299.36,-146C323.552,-146 351.901,-146 376.249,-146"/>
<polygon fill="midnightblue" stroke="midnightblue" points="299.27,-142.5 289.27,-146 299.27,-149.5 299.27,-142.5"/>
</g>
<!-- Node11 -->
<g id="node11" class="node"><title>Node11</title>
<g id="a_node11"><a xlink:href="classRa_1_1Engine_1_1SpotLight.html" target="_top" xlink:title="Ra::Engine::SpotLight">
<polygon fill="white" stroke="black" points="377.5,-98.5 377.5,-117.5 490.5,-117.5 490.5,-98.5 377.5,-98.5"/>
<text text-anchor="middle" x="434" y="-105.5" font-family="Helvetica,sans-Serif" font-size="10.00">Ra::Engine::SpotLight</text>
</a>
</g>
</g>
<!-- Node8&#45;&gt;Node11 -->
<g id="edge10" class="edge"><title>Node8&#45;&gt;Node11</title>
<path fill="none" stroke="midnightblue" d="M299.089,-134.924C326.46,-129.421 359.204,-122.837 385.462,-117.558"/>
<polygon fill="midnightblue" stroke="midnightblue" points="298.384,-131.496 289.27,-136.898 299.764,-138.358 298.384,-131.496"/>
</g>
</g>
</svg>
