<?xml version="1.0" encoding="UTF-8" standalone="no"?>
<!DOCTYPE svg PUBLIC "-//W3C//DTD SVG 1.1//EN"
 "http://www.w3.org/Graphics/SVG/1.1/DTD/svg11.dtd">
<!-- Generated by graphviz version 2.36.0 (20140111.2315)
 -->
<!-- Title: Graphical Class Hierarchy Pages: 1 -->
<svg width="514pt" height="350pt"
 viewBox="0.00 0.00 514.00 350.00" xmlns="http://www.w3.org/2000/svg" xmlns:xlink="http://www.w3.org/1999/xlink">
<g id="graph0" class="graph" transform="scale(1 1) rotate(0) translate(4 346)">
<title>Graphical Class Hierarchy</title>
<polygon fill="white" stroke="none" points="-4,4 -4,-346 510,-346 510,4 -4,4"/>
<!-- Node1 -->
<g id="node1" class="node"><title>Node1</title>
<g id="a_node1"><a xlink:href="classQObject.html" target="_top" xlink:title="QObject">
<polygon fill="white" stroke="black" points="48.5,-145.5 48.5,-164.5 101.5,-164.5 101.5,-145.5 48.5,-145.5"/>
<text text-anchor="middle" x="75" y="-152.5" font-family="Helvetica,sans-Serif" font-size="10.00">QObject</text>
</a>
</g>
</g>
<!-- Node2 -->
<g id="node2" class="node"><title>Node2</title>
<g id="a_node2"><a xlink:href="classAnimationPlugin_1_1AnimationPluginC.html" target="_top" xlink:title="AnimationPlugin::Animation\lPluginC">
<polygon fill="white" stroke="black" points="193.5,-312 193.5,-342 330.5,-342 330.5,-312 193.5,-312"/>
<text text-anchor="start" x="201.5" y="-330" font-family="Helvetica,sans-Serif" font-size="10.00">AnimationPlugin::Animation</text>
<text text-anchor="middle" x="262" y="-319" font-family="Helvetica,sans-Serif" font-size="10.00">PluginC</text>
</a>
</g>
</g>
<!-- Node1&#45;&gt;Node2 -->
<g id="edge1" class="edge"><title>Node1&#45;&gt;Node2</title>
<path fill="none" stroke="midnightblue" d="M111.519,-165.024C125.174,-170.454 139.895,-178.479 150,-190 184.477,-229.309 149.228,-264.83 186,-302 189.861,-305.903 194.347,-309.196 199.167,-311.976"/>
<polygon fill="midnightblue" stroke="midnightblue" points="112.439,-161.635 101.845,-161.516 110.052,-168.215 112.439,-161.635"/>
</g>
<!-- Node3 -->
<g id="node3" class="node"><title>Node3</title>
<g id="a_node3"><a xlink:href="classDummyPlugin_1_1DummyPlugin.html" target="_top" xlink:title="DummyPlugin::DummyPlugin">
<polygon fill="white" stroke="black" points="189,-273.5 189,-292.5 335,-292.5 335,-273.5 189,-273.5"/>
<text text-anchor="middle" x="262" y="-280.5" font-family="Helvetica,sans-Serif" font-size="10.00">DummyPlugin::DummyPlugin</text>
</a>
</g>
</g>
<!-- Node1&#45;&gt;Node3 -->
<g id="edge2" class="edge"><title>Node1&#45;&gt;Node3</title>
<path fill="none" stroke="midnightblue" d="M110.998,-165.926C124.447,-171.468 139.157,-179.333 150,-190 175.788,-215.37 158.022,-240.068 186,-263 191.315,-267.357 197.489,-270.771 203.969,-273.446"/>
<polygon fill="midnightblue" stroke="midnightblue" points="112.092,-162.598 101.501,-162.295 109.592,-169.136 112.092,-162.598"/>
</g>
<!-- Node4 -->
<g id="node4" class="node"><title>Node4</title>
<g id="a_node4"><a xlink:href="classFancyMeshPlugin_1_1FancyMeshPluginC.html" target="_top" xlink:title="FancyMeshPlugin::FancyMesh\lPluginC">
<polygon fill="white" stroke="black" points="186,-224 186,-254 338,-254 338,-224 186,-224"/>
<text text-anchor="start" x="194" y="-242" font-family="Helvetica,sans-Serif" font-size="10.00">FancyMeshPlugin::FancyMesh</text>
<text text-anchor="middle" x="262" y="-231" font-family="Helvetica,sans-Serif" font-size="10.00">PluginC</text>
</a>
</g>
</g>
<!-- Node1&#45;&gt;Node4 -->
<g id="edge3" class="edge"><title>Node1&#45;&gt;Node4</title>
<path fill="none" stroke="midnightblue" d="M107.682,-168.749C120.977,-174.834 136.464,-182.341 150,-190 166.736,-199.47 168.726,-205.551 186,-214 193.521,-217.678 201.716,-221.023 209.837,-223.985"/>
<polygon fill="midnightblue" stroke="midnightblue" points="109.002,-165.505 98.4471,-164.587 106.126,-171.887 109.002,-165.505"/>
</g>
<!-- Node5 -->
<g id="node5" class="node"><title>Node5</title>
<g id="a_node5"><a xlink:href="classMeshFeatureTrackingPlugin_1_1MeshFeatureTrackingPluginC.html" target="_top" xlink:title="MeshFeatureTrackingPlugin\l::MeshFeatureTrackingPluginC">
<polygon fill="white" stroke="black" points="186,-175 186,-205 338,-205 338,-175 186,-175"/>
<text text-anchor="start" x="194" y="-193" font-family="Helvetica,sans-Serif" font-size="10.00">MeshFeatureTrackingPlugin</text>
<text text-anchor="middle" x="262" y="-182" font-family="Helvetica,sans-Serif" font-size="10.00">::MeshFeatureTrackingPluginC</text>
</a>
</g>
</g>
<!-- Node1&#45;&gt;Node5 -->
<g id="edge4" class="edge"><title>Node1&#45;&gt;Node5</title>
<path fill="none" stroke="midnightblue" d="M111.821,-161.777C132.901,-165.765 160.372,-170.962 185.987,-175.808"/>
<polygon fill="midnightblue" stroke="midnightblue" points="112.2,-158.287 101.723,-159.867 110.899,-165.165 112.2,-158.287"/>
</g>
<!-- Node6 -->
<g id="node6" class="node"><title>Node6</title>
<g id="a_node6"><a xlink:href="classMeshPaintPlugin_1_1MeshPaintPluginC.html" target="_top" xlink:title="MeshPaintPlugin::MeshPaint\lPluginC">
<polygon fill="white" stroke="black" points="190.5,-126 190.5,-156 333.5,-156 333.5,-126 190.5,-126"/>
<text text-anchor="start" x="198.5" y="-144" font-family="Helvetica,sans-Serif" font-size="10.00">MeshPaintPlugin::MeshPaint</text>
<text text-anchor="middle" x="262" y="-133" font-family="Helvetica,sans-Serif" font-size="10.00">PluginC</text>
</a>
</g>
</g>
<!-- Node1&#45;&gt;Node6 -->
<g id="edge5" class="edge"><title>Node1&#45;&gt;Node6</title>
<path fill="none" stroke="midnightblue" d="M111.749,-152.295C134.07,-150.606 163.576,-148.373 190.457,-146.338"/>
<polygon fill="midnightblue" stroke="midnightblue" points="111.431,-148.809 101.723,-153.053 111.959,-155.789 111.431,-148.809"/>
</g>
<!-- Node7 -->
<g id="node7" class="node"><title>Node7</title>
<g id="a_node7"><a xlink:href="classRa_1_1Gui_1_1CameraInterface.html" target="_top" xlink:title="Ra::Gui::CameraInterface">
<polygon fill="white" stroke="black" points="197.5,-38.5 197.5,-57.5 326.5,-57.5 326.5,-38.5 197.5,-38.5"/>
<text text-anchor="middle" x="262" y="-45.5" font-family="Helvetica,sans-Serif" font-size="10.00">Ra::Gui::CameraInterface</text>
</a>
</g>
</g>
<!-- Node1&#45;&gt;Node7 -->
<g id="edge6" class="edge"><title>Node1&#45;&gt;Node7</title>
<path fill="none" stroke="midnightblue" d="M92.1612,-138.28C112.316,-118.39 148.688,-85.5523 186,-67 193.698,-63.1726 202.234,-60.0714 210.708,-57.5725"/>
<polygon fill="midnightblue" stroke="midnightblue" points="89.5979,-135.894 85.0278,-145.453 94.5611,-140.831 89.5979,-135.894"/>
</g>
<!-- Node9 -->
<g id="node9" class="node"><title>Node9</title>
<g id="a_node9"><a xlink:href="classRa_1_1Gui_1_1GizmoManager.html" target="_top" xlink:title="Ra::Gui::GizmoManager">
<polygon fill="white" stroke="black" points="201,-0.5 201,-19.5 323,-19.5 323,-0.5 201,-0.5"/>
<text text-anchor="middle" x="262" y="-7.5" font-family="Helvetica,sans-Serif" font-size="10.00">Ra::Gui::GizmoManager</text>
</a>
</g>
</g>
<!-- Node1&#45;&gt;Node9 -->
<g id="edge8" class="edge"><title>Node1&#45;&gt;Node9</title>
<path fill="none" stroke="midnightblue" d="M86.8317,-136.654C104.17,-108.947 140.841,-56.7245 186,-29 192.296,-25.1348 199.348,-22.0534 206.542,-19.5974"/>
<polygon fill="midnightblue" stroke="midnightblue" points="83.7454,-134.993 81.5232,-145.352 89.7204,-138.64 83.7454,-134.993"/>
</g>
<!-- Node10 -->
<g id="node10" class="node"><title>Node10</title>
<g id="a_node10"><a xlink:href="classSkinningPlugin_1_1SkinningPluginC.html" target="_top" xlink:title="SkinningPlugin::Skinning\lPluginC">
<polygon fill="white" stroke="black" points="199.5,-77 199.5,-107 324.5,-107 324.5,-77 199.5,-77"/>
<text text-anchor="start" x="207.5" y="-95" font-family="Helvetica,sans-Serif" font-size="10.00">SkinningPlugin::Skinning</text>
<text text-anchor="middle" x="262" y="-84" font-family="Helvetica,sans-Serif" font-size="10.00">PluginC</text>
</a>
</g>
</g>
<!-- Node1&#45;&gt;Node10 -->
<g id="edge9" class="edge"><title>Node1&#45;&gt;Node10</title>
<path fill="none" stroke="midnightblue" d="M111.459,-142.641C132.997,-135.162 161.059,-125.464 186,-117 195.488,-113.78 205.663,-110.364 215.363,-107.125"/>
<polygon fill="midnightblue" stroke="midnightblue" points="110.051,-139.425 101.755,-146.014 112.35,-146.037 110.051,-139.425"/>
</g>
<!-- Node8 -->
<g id="node8" class="node"><title>Node8</title>
<g id="a_node8"><a xlink:href="classRa_1_1Gui_1_1TrackballCamera.html" target="_top" xlink:title="Ra::Gui::TrackballCamera">
<polygon fill="white" stroke="black" points="374.5,-38.5 374.5,-57.5 505.5,-57.5 505.5,-38.5 374.5,-38.5"/>
<text text-anchor="middle" x="440" y="-45.5" font-family="Helvetica,sans-Serif" font-size="10.00">Ra::Gui::TrackballCamera</text>
</a>
</g>
</g>
<!-- Node7&#45;&gt;Node8 -->
<g id="edge7" class="edge"><title>Node7&#45;&gt;Node8</title>
<path fill="none" stroke="midnightblue" d="M336.886,-48C349.338,-48 362.176,-48 374.37,-48"/>
<polygon fill="midnightblue" stroke="midnightblue" points="336.54,-44.5001 326.54,-48 336.54,-51.5001 336.54,-44.5001"/>
</g>
<!-- Node11 -->
<g id="node11" class="node"><title>Node11</title>
<g id="a_node11"><a xlink:href="classRa_1_1Plugins_1_1RadiumPluginInterface.html" target="_top" xlink:title="Ra::Plugins::RadiumPlugin\lInterface">
<polygon fill="white" stroke="black" points="8,-199 8,-229 142,-229 142,-199 8,-199"/>
<text text-anchor="start" x="16" y="-217" font-family="Helvetica,sans-Serif" font-size="10.00">Ra::Plugins::RadiumPlugin</text>
<text text-anchor="middle" x="75" y="-206" font-family="Helvetica,sans-Serif" font-size="10.00">Interface</text>
</a>
</g>
</g>
<!-- Node11&#45;&gt;Node2 -->
<g id="edge10" class="edge"><title>Node11&#45;&gt;Node2</title>
<path fill="none" stroke="#8b1a1a" d="M98.5975,-236.096C119.706,-255.706 152.854,-283.968 186,-302 192.872,-305.739 200.402,-309.052 207.957,-311.944"/>
<polygon fill="#8b1a1a" stroke="#8b1a1a" points="100.798,-233.36 91.1222,-229.043 95.9938,-238.451 100.798,-233.36"/>
</g>
<!-- Node11&#45;&gt;Node3 -->
<g id="edge11" class="edge"><title>Node11&#45;&gt;Node3</title>
<path fill="none" stroke="#8b1a1a" d="M115.402,-233.376C136.098,-243.083 162.07,-254.54 186,-263 197.053,-266.908 209.256,-270.47 220.55,-273.469"/>
<polygon fill="#8b1a1a" stroke="#8b1a1a" points="116.826,-230.177 106.291,-229.055 113.827,-236.502 116.826,-230.177"/>
</g>
<!-- Node11&#45;&gt;Node4 -->
<g id="edge12" class="edge"><title>Node11&#45;&gt;Node4</title>
<path fill="none" stroke="#8b1a1a" d="M152.132,-224.288C163.281,-225.795 174.757,-227.345 185.884,-228.849"/>
<polygon fill="#8b1a1a" stroke="#8b1a1a" points="152.384,-220.79 142.006,-222.92 151.447,-227.727 152.384,-220.79"/>
</g>
<!-- Node11&#45;&gt;Node5 -->
<g id="edge13" class="edge"><title>Node11&#45;&gt;Node5</title>
<path fill="none" stroke="#8b1a1a" d="M152.132,-204.123C163.281,-202.677 174.757,-201.188 185.884,-199.745"/>
<polygon fill="#8b1a1a" stroke="#8b1a1a" points="151.472,-200.68 142.006,-205.437 152.373,-207.621 151.472,-200.68"/>
</g>
<!-- Node11&#45;&gt;Node6 -->
<g id="edge14" class="edge"><title>Node11&#45;&gt;Node6</title>
<path fill="none" stroke="#8b1a1a" d="M117.732,-194.737C138.136,-185.59 163.163,-174.769 186,-166 194.841,-162.605 204.365,-159.224 213.561,-156.097"/>
<polygon fill="#8b1a1a" stroke="#8b1a1a" points="116.088,-191.639 108.412,-198.943 118.967,-198.02 116.088,-191.639"/>
</g>
<!-- Node11&#45;&gt;Node10 -->
<g id="edge15" class="edge"><title>Node11&#45;&gt;Node10</title>
<path fill="none" stroke="#8b1a1a" d="M121.765,-194.012C131.73,-188.412 141.749,-181.71 150,-174 171.893,-153.543 162.415,-135.48 186,-117 190.97,-113.106 196.575,-109.804 202.427,-107.008"/>
<polygon fill="#8b1a1a" stroke="#8b1a1a" points="119.868,-191.056 112.681,-198.841 123.154,-197.237 119.868,-191.056"/>
</g>
<!-- Node12 -->
<g id="node12" class="node"><title>Node12</title>
<g id="a_node12"><a xlink:href="classRa_1_1GuiBase_1_1TransformEditor.html" target="_top" xlink:title="Ra::GuiBase::TransformEditor">
<polygon fill="white" stroke="black" points="0.5,-0.5 0.5,-19.5 149.5,-19.5 149.5,-0.5 0.5,-0.5"/>
<text text-anchor="middle" x="75" y="-7.5" font-family="Helvetica,sans-Serif" font-size="10.00">Ra::GuiBase::TransformEditor</text>
</a>
</g>
</g>
<!-- Node12&#45;&gt;Node9 -->
<g id="edge16" class="edge"><title>Node12&#45;&gt;Node9</title>
<path fill="none" stroke="midnightblue" d="M159.71,-10C173.618,-10 187.793,-10 200.963,-10"/>
<polygon fill="midnightblue" stroke="midnightblue" points="159.649,-6.5001 149.648,-10 159.648,-13.5001 159.649,-6.5001"/>
</g>
</g>
</svg>
