<?xml version="1.0" encoding="UTF-8" standalone="no"?>
<!DOCTYPE svg PUBLIC "-//W3C//DTD SVG 1.1//EN"
 "http://www.w3.org/Graphics/SVG/1.1/DTD/svg11.dtd">
<!-- Generated by graphviz version 2.36.0 (20140111.2315)
 -->
<!-- Title: Graphical Class Hierarchy Pages: 1 -->
<svg width="222pt" height="153pt"
 viewBox="0.00 0.00 222.00 153.00" xmlns="http://www.w3.org/2000/svg" xmlns:xlink="http://www.w3.org/1999/xlink">
<g id="graph0" class="graph" transform="scale(1 1) rotate(0) translate(4 149)">
<title>Graphical Class Hierarchy</title>
<polygon fill="white" stroke="none" points="-4,4 -4,-149 218,-149 218,4 -4,4"/>
<!-- Node1 -->
<g id="node1" class="node"><title>Node1</title>
<g id="a_node1"><a xlink:href="classQFrame.html" target="_top" xlink:title="QFrame">
<polygon fill="white" stroke="black" points="0,-68.5 0,-87.5 52,-87.5 52,-68.5 0,-68.5"/>
<text text-anchor="middle" x="26" y="-75.5" font-family="Helvetica,sans-Serif" font-size="10.00">QFrame</text>
</a>
</g>
</g>
<!-- Node2 -->
<g id="node2" class="node"><title>Node2</title>
<g id="a_node2"><a xlink:href="classAnimationUI.html" target="_top" xlink:title="AnimationUI">
<polygon fill="white" stroke="black" points="115.5,-125.5 115.5,-144.5 186.5,-144.5 186.5,-125.5 115.5,-125.5"/>
<text text-anchor="middle" x="151" y="-132.5" font-family="Helvetica,sans-Serif" font-size="10.00">AnimationUI</text>
</a>
</g>
</g>
<!-- Node1&#45;&gt;Node2 -->
<g id="edge1" class="edge"><title>Node1&#45;&gt;Node2</title>
<path fill="none" stroke="midnightblue" d="M48.8359,-93.5378C60.1332,-101.068 74.3805,-109.799 88,-116 96.6066,-119.919 106.24,-123.311 115.301,-126.101"/>
<polygon fill="midnightblue" stroke="midnightblue" points="50.7082,-90.5781 40.4765,-87.828 46.76,-96.3585 50.7082,-90.5781"/>
</g>
<!-- Node3 -->
<g id="node3" class="node"><title>Node3</title>
<g id="a_node3"><a xlink:href="classMeshFeatureTrackingUI.html" target="_top" xlink:title="MeshFeatureTrackingUI">
<polygon fill="white" stroke="black" points="90,-87.5 90,-106.5 212,-106.5 212,-87.5 90,-87.5"/>
<text text-anchor="middle" x="151" y="-94.5" font-family="Helvetica,sans-Serif" font-size="10.00">MeshFeatureTrackingUI</text>
</a>
</g>
</g>
<!-- Node1&#45;&gt;Node3 -->
<g id="edge2" class="edge"><title>Node1&#45;&gt;Node3</title>
<path fill="none" stroke="midnightblue" d="M62.2372,-83.4431C70.8708,-84.7768 80.3547,-86.2418 89.7977,-87.7005"/>
<polygon fill="midnightblue" stroke="midnightblue" points="62.6048,-79.9585 52.1877,-81.8908 61.5361,-86.8765 62.6048,-79.9585"/>
</g>
<!-- Node4 -->
<g id="node4" class="node"><title>Node4</title>
<g id="a_node4"><a xlink:href="classMeshPaintUI.html" target="_top" xlink:title="MeshPaintUI">
<polygon fill="white" stroke="black" points="114,-49.5 114,-68.5 188,-68.5 188,-49.5 114,-49.5"/>
<text text-anchor="middle" x="151" y="-56.5" font-family="Helvetica,sans-Serif" font-size="10.00">MeshPaintUI</text>
</a>
</g>
</g>
<!-- Node1&#45;&gt;Node4 -->
<g id="edge3" class="edge"><title>Node1&#45;&gt;Node4</title>
<path fill="none" stroke="midnightblue" d="M62.281,-72.5501C78.3786,-70.0635 97.4248,-67.1214 113.65,-64.6151"/>
<polygon fill="midnightblue" stroke="midnightblue" points="61.5361,-69.1236 52.1877,-74.1092 62.6048,-76.0415 61.5361,-69.1236"/>
</g>
<!-- Node5 -->
<g id="node5" class="node"><title>Node5</title>
<g id="a_node5"><a xlink:href="classSkinningPlugin_1_1SkinningWidget.html" target="_top" xlink:title="SkinningPlugin::Skinning\lWidget">
<polygon fill="white" stroke="black" points="88.5,-0 88.5,-30 213.5,-30 213.5,-0 88.5,-0"/>
<text text-anchor="start" x="96.5" y="-18" font-family="Helvetica,sans-Serif" font-size="10.00">SkinningPlugin::Skinning</text>
<text text-anchor="middle" x="151" y="-7" font-family="Helvetica,sans-Serif" font-size="10.00">Widget</text>
</a>
</g>
</g>
<!-- Node1&#45;&gt;Node5 -->
<g id="edge4" class="edge"><title>Node1&#45;&gt;Node5</title>
<path fill="none" stroke="midnightblue" d="M49.5221,-62.66C60.804,-55.3176 74.8349,-46.6908 88,-40 94.8287,-36.5295 102.257,-33.1868 109.523,-30.1367"/>
<polygon fill="midnightblue" stroke="midnightblue" points="47.5406,-59.7742 41.1326,-68.2116 51.4035,-65.6119 47.5406,-59.7742"/>
</g>
</g>
</svg>
