<?xml version="1.0" encoding="UTF-8" standalone="no"?>
<!DOCTYPE svg PUBLIC "-//W3C//DTD SVG 1.1//EN"
 "http://www.w3.org/Graphics/SVG/1.1/DTD/svg11.dtd">
<!-- Generated by graphviz version 2.36.0 (20140111.2315)
 -->
<!-- Title: Graphical Class Hierarchy Pages: 1 -->
<svg width="498pt" height="180pt"
 viewBox="0.00 0.00 498.00 180.00" xmlns="http://www.w3.org/2000/svg" xmlns:xlink="http://www.w3.org/1999/xlink">
<g id="graph0" class="graph" transform="scale(1 1) rotate(0) translate(4 176)">
<title>Graphical Class Hierarchy</title>
<polygon fill="white" stroke="none" points="-4,4 -4,-176 494,-176 494,4 -4,4"/>
<!-- Node1 -->
<g id="node1" class="node"><title>Node1</title>
<g id="a_node1"><a xlink:href="classRa_1_1Asset_1_1AssetData.html" target="_top" xlink:title="Ra::Asset::AssetData">
<polygon fill="white" stroke="black" points="0.5,-76.5 0.5,-95.5 113.5,-95.5 113.5,-76.5 0.5,-76.5"/>
<text text-anchor="middle" x="57" y="-83.5" font-family="Helvetica,sans-Serif" font-size="10.00">Ra::Asset::AssetData</text>
</a>
</g>
</g>
<!-- Node2 -->
<g id="node2" class="node"><title>Node2</title>
<g id="a_node2"><a xlink:href="classRa_1_1Asset_1_1AnimationData.html" target="_top" xlink:title="Ra::Asset::AnimationData">
<polygon fill="white" stroke="black" points="150.5,-152.5 150.5,-171.5 281.5,-171.5 281.5,-152.5 150.5,-152.5"/>
<text text-anchor="middle" x="216" y="-159.5" font-family="Helvetica,sans-Serif" font-size="10.00">Ra::Asset::AnimationData</text>
</a>
</g>
</g>
<!-- Node1&#45;&gt;Node2 -->
<g id="edge1" class="edge"><title>Node1&#45;&gt;Node2</title>
<path fill="none" stroke="midnightblue" d="M79.6834,-101.783C97.7603,-114.351 124.574,-131.66 150,-143 158.16,-146.64 167.204,-149.793 175.888,-152.428"/>
<polygon fill="midnightblue" stroke="midnightblue" points="81.2659,-98.6153 71.0803,-95.6991 77.2242,-104.331 81.2659,-98.6153"/>
</g>
<!-- Node3 -->
<g id="node3" class="node"><title>Node3</title>
<g id="a_node3"><a xlink:href="classRa_1_1Asset_1_1GeometryData.html" target="_top" xlink:title="Ra::Asset::GeometryData">
<polygon fill="white" stroke="black" points="150.5,-114.5 150.5,-133.5 281.5,-133.5 281.5,-114.5 150.5,-114.5"/>
<text text-anchor="middle" x="216" y="-121.5" font-family="Helvetica,sans-Serif" font-size="10.00">Ra::Asset::GeometryData</text>
</a>
</g>
</g>
<!-- Node1&#45;&gt;Node3 -->
<g id="edge2" class="edge"><title>Node1&#45;&gt;Node3</title>
<path fill="none" stroke="midnightblue" d="M107.447,-97.968C129.448,-103.293 154.994,-109.476 175.667,-114.48"/>
<polygon fill="midnightblue" stroke="midnightblue" points="108.16,-94.5398 97.6177,-95.589 106.514,-101.343 108.16,-94.5398"/>
</g>
<!-- Node4 -->
<g id="node4" class="node"><title>Node4</title>
<g id="a_node4"><a xlink:href="classRa_1_1Asset_1_1HandleData.html" target="_top" xlink:title="Ra::Asset::HandleData">
<polygon fill="white" stroke="black" points="156.5,-76.5 156.5,-95.5 275.5,-95.5 275.5,-76.5 156.5,-76.5"/>
<text text-anchor="middle" x="216" y="-83.5" font-family="Helvetica,sans-Serif" font-size="10.00">Ra::Asset::HandleData</text>
</a>
</g>
</g>
<!-- Node1&#45;&gt;Node4 -->
<g id="edge3" class="edge"><title>Node1&#45;&gt;Node4</title>
<path fill="none" stroke="midnightblue" d="M124.002,-86C134.78,-86 145.881,-86 156.464,-86"/>
<polygon fill="midnightblue" stroke="midnightblue" points="123.794,-82.5001 113.794,-86 123.794,-89.5001 123.794,-82.5001"/>
</g>
<!-- Node5 -->
<g id="node5" class="node"><title>Node5</title>
<g id="a_node5"><a xlink:href="classRa_1_1Asset_1_1LightData.html" target="_top" xlink:title="Ra::Asset::LightData">
<polygon fill="white" stroke="black" points="161.5,-38.5 161.5,-57.5 270.5,-57.5 270.5,-38.5 161.5,-38.5"/>
<text text-anchor="middle" x="216" y="-45.5" font-family="Helvetica,sans-Serif" font-size="10.00">Ra::Asset::LightData</text>
</a>
</g>
</g>
<!-- Node1&#45;&gt;Node5 -->
<g id="edge4" class="edge"><title>Node1&#45;&gt;Node5</title>
<path fill="none" stroke="midnightblue" d="M107.447,-74.032C129.448,-68.7069 154.994,-62.5238 175.667,-57.5201"/>
<polygon fill="midnightblue" stroke="midnightblue" points="106.514,-70.6567 97.6177,-76.411 108.16,-77.4602 106.514,-70.6567"/>
</g>
<!-- Node6 -->
<g id="node6" class="node"><title>Node6</title>
<g id="a_node6"><a xlink:href="classRa_1_1Asset_1_1MaterialData.html" target="_top" xlink:title="represent material data loaded by a file loader. Material data must be identified by a unique name...">
<polygon fill="white" stroke="black" points="155,-0.5 155,-19.5 277,-19.5 277,-0.5 155,-0.5"/>
<text text-anchor="middle" x="216" y="-7.5" font-family="Helvetica,sans-Serif" font-size="10.00">Ra::Asset::MaterialData</text>
</a>
</g>
</g>
<!-- Node1&#45;&gt;Node6 -->
<g id="edge5" class="edge"><title>Node1&#45;&gt;Node6</title>
<path fill="none" stroke="midnightblue" d="M79.6834,-70.2171C97.7603,-57.6485 124.574,-40.3404 150,-29 158.16,-25.3604 167.204,-22.2072 175.888,-19.5724"/>
<polygon fill="midnightblue" stroke="midnightblue" points="77.2242,-67.6694 71.0803,-76.3009 81.2659,-73.3847 77.2242,-67.6694"/>
</g>
<!-- Node7 -->
<g id="node7" class="node"><title>Node7</title>
<g id="a_node7"><a xlink:href="classRa_1_1Asset_1_1BlinnPhongMaterialData.html" target="_top" xlink:title="Ra::Asset::BlinnPhongMaterialData">
<polygon fill="white" stroke="black" points="318,-0.5 318,-19.5 490,-19.5 490,-0.5 318,-0.5"/>
<text text-anchor="middle" x="404" y="-7.5" font-family="Helvetica,sans-Serif" font-size="10.00">Ra::Asset::BlinnPhongMaterialData</text>
</a>
</g>
</g>
<!-- Node6&#45;&gt;Node7 -->
<g id="edge6" class="edge"><title>Node6&#45;&gt;Node7</title>
<path fill="none" stroke="midnightblue" d="M287.321,-10C297.246,-10 307.537,-10 317.705,-10"/>
<polygon fill="midnightblue" stroke="midnightblue" points="287.132,-6.5001 277.132,-10 287.132,-13.5001 287.132,-6.5001"/>
</g>
</g>
</svg>
