<?xml version="1.0" encoding="UTF-8" standalone="no"?>
<!DOCTYPE svg PUBLIC "-//W3C//DTD SVG 1.1//EN"
 "http://www.w3.org/Graphics/SVG/1.1/DTD/svg11.dtd">
<!-- Generated by graphviz version 2.36.0 (20140111.2315)
 -->
<!-- Title: /home/travis/build/STORM&#45;IRIT/Radium&#45;Engine/src/Engine/ItemModel/ItemEntry.hpp Pages: 1 -->
<svg width="2404pt" height="320pt"
 viewBox="0.00 0.00 2404.00 320.00" xmlns="http://www.w3.org/2000/svg" xmlns:xlink="http://www.w3.org/1999/xlink">
<g id="graph0" class="graph" transform="scale(1 1) rotate(0) translate(4 316)">
<title>/home/travis/build/STORM&#45;IRIT/Radium&#45;Engine/src/Engine/ItemModel/ItemEntry.hpp</title>
<polygon fill="white" stroke="none" points="-4,4 -4,-316 2400,-316 2400,4 -4,4"/>
<!-- Node1 -->
<g id="node1" class="node"><title>Node1</title>
<polygon fill="#bfbfbf" stroke="black" points="1508.5,-270.5 1508.5,-311.5 1687.5,-311.5 1687.5,-270.5 1508.5,-270.5"/>
<text text-anchor="start" x="1516.5" y="-299.5" font-family="Helvetica,sans-Serif" font-size="10.00">/home/travis/build</text>
<text text-anchor="start" x="1516.5" y="-288.5" font-family="Helvetica,sans-Serif" font-size="10.00">/STORM&#45;IRIT/Radium&#45;Engine</text>
<text text-anchor="middle" x="1598" y="-277.5" font-family="Helvetica,sans-Serif" font-size="10.00">/src/Engine/ItemModel/ItemEntry.hpp</text>
</g>
<!-- Node2 -->
<g id="node2" class="node"><title>Node2</title>
<g id="a_node2"><a xlink:href="ItemEntry_8cpp.html" target="_top" xlink:title="/home/travis/build\l/STORM&#45;IRIT/Radium&#45;Engine\l/src/Engine/ItemModel/ItemEntry.cpp">
<polygon fill="white" stroke="black" points="1239.5,-186.5 1239.5,-227.5 1418.5,-227.5 1418.5,-186.5 1239.5,-186.5"/>
<text text-anchor="start" x="1247.5" y="-215.5" font-family="Helvetica,sans-Serif" font-size="10.00">/home/travis/build</text>
<text text-anchor="start" x="1247.5" y="-204.5" font-family="Helvetica,sans-Serif" font-size="10.00">/STORM&#45;IRIT/Radium&#45;Engine</text>
<text text-anchor="middle" x="1329" y="-193.5" font-family="Helvetica,sans-Serif" font-size="10.00">/src/Engine/ItemModel/ItemEntry.cpp</text>
</a>
</g>
</g>
<!-- Node1&#45;&gt;Node2 -->
<g id="edge1" class="edge"><title>Node1&#45;&gt;Node2</title>
<path fill="none" stroke="midnightblue" d="M1524.22,-267.51C1483.14,-254.986 1432.48,-239.544 1393.07,-227.529"/>
<polygon fill="midnightblue" stroke="midnightblue" points="1523.32,-270.895 1533.91,-270.463 1525.36,-264.199 1523.32,-270.895"/>
</g>
<!-- Node3 -->
<g id="node3" class="node"><title>Node3</title>
<g id="a_node3"><a xlink:href="SignalManager_8hpp.html" target="_top" xlink:title="/home/travis/build\l/STORM&#45;IRIT/Radium&#45;Engine\l/src/Engine/Managers/SignalManager\l/SignalManager.hpp">
<polygon fill="white" stroke="black" points="842.5,-91 842.5,-143 1021.5,-143 1021.5,-91 842.5,-91"/>
<text text-anchor="start" x="850.5" y="-131" font-family="Helvetica,sans-Serif" font-size="10.00">/home/travis/build</text>
<text text-anchor="start" x="850.5" y="-120" font-family="Helvetica,sans-Serif" font-size="10.00">/STORM&#45;IRIT/Radium&#45;Engine</text>
<text text-anchor="start" x="850.5" y="-109" font-family="Helvetica,sans-Serif" font-size="10.00">/src/Engine/Managers/SignalManager</text>
<text text-anchor="middle" x="932" y="-98" font-family="Helvetica,sans-Serif" font-size="10.00">/SignalManager.hpp</text>
</a>
</g>
</g>
<!-- Node1&#45;&gt;Node3 -->
<g id="edge2" class="edge"><title>Node1&#45;&gt;Node3</title>
<path fill="none" stroke="midnightblue" d="M1517.46,-266.722C1497.62,-258.501 1477.39,-247.765 1461,-234 1439.28,-215.763 1450.93,-195.227 1427,-180 1361.6,-138.383 1145.65,-124.653 1021.66,-120.158"/>
<polygon fill="midnightblue" stroke="midnightblue" points="1516.25,-270.008 1526.84,-270.441 1518.83,-263.501 1516.25,-270.008"/>
</g>
<!-- Node13 -->
<g id="node13" class="node"><title>Node13</title>
<g id="a_node13"><a xlink:href="BaseApplication_8cpp.html" target="_top" xlink:title="/home/travis/build\l/STORM&#45;IRIT/Radium&#45;Engine\l/src/GuiBase/BaseApplication.cpp">
<polygon fill="white" stroke="black" points="1881,-186.5 1881,-227.5 2047,-227.5 2047,-186.5 1881,-186.5"/>
<text text-anchor="start" x="1889" y="-215.5" font-family="Helvetica,sans-Serif" font-size="10.00">/home/travis/build</text>
<text text-anchor="start" x="1889" y="-204.5" font-family="Helvetica,sans-Serif" font-size="10.00">/STORM&#45;IRIT/Radium&#45;Engine</text>
<text text-anchor="middle" x="1964" y="-193.5" font-family="Helvetica,sans-Serif" font-size="10.00">/src/GuiBase/BaseApplication.cpp</text>
</a>
</g>
</g>
<!-- Node1&#45;&gt;Node13 -->
<g id="edge12" class="edge"><title>Node1&#45;&gt;Node13</title>
<path fill="none" stroke="midnightblue" d="M1697.67,-271.302C1749.55,-261.128 1813.9,-247.82 1871,-234 1879.23,-232.008 1887.83,-229.791 1896.34,-227.514"/>
<polygon fill="midnightblue" stroke="midnightblue" points="1696.95,-267.877 1687.8,-273.229 1698.29,-274.747 1696.95,-267.877"/>
</g>
<!-- Node14 -->
<g id="node14" class="node"><title>Node14</title>
<g id="a_node14"><a xlink:href="SelectionManager_8hpp.html" target="_top" xlink:title="/home/travis/build\l/STORM&#45;IRIT/Radium&#45;Engine\l/src/GuiBase/SelectionManager\l/SelectionManager.hpp">
<polygon fill="white" stroke="black" points="1339.5,-91 1339.5,-143 1494.5,-143 1494.5,-91 1339.5,-91"/>
<text text-anchor="start" x="1347.5" y="-131" font-family="Helvetica,sans-Serif" font-size="10.00">/home/travis/build</text>
<text text-anchor="start" x="1347.5" y="-120" font-family="Helvetica,sans-Serif" font-size="10.00">/STORM&#45;IRIT/Radium&#45;Engine</text>
<text text-anchor="start" x="1347.5" y="-109" font-family="Helvetica,sans-Serif" font-size="10.00">/src/GuiBase/SelectionManager</text>
<text text-anchor="middle" x="1417" y="-98" font-family="Helvetica,sans-Serif" font-size="10.00">/SelectionManager.hpp</text>
</a>
</g>
</g>
<!-- Node1&#45;&gt;Node14 -->
<g id="edge13" class="edge"><title>Node1&#45;&gt;Node14</title>
<path fill="none" stroke="midnightblue" d="M1548.48,-265.343C1533.35,-256.574 1517.23,-245.891 1504,-234 1495.79,-226.616 1457.95,-174.839 1434.96,-143.006"/>
<polygon fill="midnightblue" stroke="midnightblue" points="1546.82,-268.423 1557.25,-270.279 1550.25,-262.323 1546.82,-268.423"/>
</g>
<!-- Node17 -->
<g id="node17" class="node"><title>Node17</title>
<g id="a_node17"><a xlink:href="TransformEditor_8hpp.html" target="_top" xlink:title="/home/travis/build\l/STORM&#45;IRIT/Radium&#45;Engine\l/src/GuiBase/TransformEditor\l/TransformEditor.hpp">
<polygon fill="white" stroke="black" points="2077,-181 2077,-233 2225,-233 2225,-181 2077,-181"/>
<text text-anchor="start" x="2085" y="-221" font-family="Helvetica,sans-Serif" font-size="10.00">/home/travis/build</text>
<text text-anchor="start" x="2085" y="-210" font-family="Helvetica,sans-Serif" font-size="10.00">/STORM&#45;IRIT/Radium&#45;Engine</text>
<text text-anchor="start" x="2085" y="-199" font-family="Helvetica,sans-Serif" font-size="10.00">/src/GuiBase/TransformEditor</text>
<text text-anchor="middle" x="2151" y="-188" font-family="Helvetica,sans-Serif" font-size="10.00">/TransformEditor.hpp</text>
</a>
</g>
</g>
<!-- Node1&#45;&gt;Node17 -->
<g id="edge19" class="edge"><title>Node1&#45;&gt;Node17</title>
<path fill="none" stroke="midnightblue" d="M1697.68,-282.024C1790.91,-273.572 1933.72,-258.076 2056,-234 2062.79,-232.662 2069.82,-231.097 2076.83,-229.41"/>
<polygon fill="midnightblue" stroke="midnightblue" points="1697.34,-278.54 1687.69,-282.92 1697.97,-285.512 1697.34,-278.54"/>
</g>
<!-- Node22 -->
<g id="node22" class="node"><title>Node22</title>
<g id="a_node22"><a xlink:href="EntityTreeModel_8hpp.html" target="_top" xlink:title="/home/travis/build\l/STORM&#45;IRIT/Radium&#45;Engine\l/src/GuiBase/TreeModel/EntityTree\lModel.hpp">
<polygon fill="white" stroke="black" points="1513,-181 1513,-233 1683,-233 1683,-181 1513,-181"/>
<text text-anchor="start" x="1521" y="-221" font-family="Helvetica,sans-Serif" font-size="10.00">/home/travis/build</text>
<text text-anchor="start" x="1521" y="-210" font-family="Helvetica,sans-Serif" font-size="10.00">/STORM&#45;IRIT/Radium&#45;Engine</text>
<text text-anchor="start" x="1521" y="-199" font-family="Helvetica,sans-Serif" font-size="10.00">/src/GuiBase/TreeModel/EntityTree</text>
<text text-anchor="middle" x="1598" y="-188" font-family="Helvetica,sans-Serif" font-size="10.00">Model.hpp</text>
</a>
</g>
</g>
<!-- Node1&#45;&gt;Node22 -->
<g id="edge24" class="edge"><title>Node1&#45;&gt;Node22</title>
<path fill="none" stroke="midnightblue" d="M1598,-259.938C1598,-251.176 1598,-241.695 1598,-233.261"/>
<polygon fill="midnightblue" stroke="midnightblue" points="1594.5,-260.15 1598,-270.15 1601.5,-260.15 1594.5,-260.15"/>
</g>
<!-- Node24 -->
<g id="node24" class="node"><title>Node24</title>
<g id="a_node24"><a xlink:href="AnimationSystem_8hpp.html" target="_top" xlink:title="/home/travis/build\l/STORM&#45;IRIT/Radium&#45;Engine\l/Plugins/Animation/src/Animation\lSystem.hpp">
<polygon fill="white" stroke="black" points="1701.5,-181 1701.5,-233 1862.5,-233 1862.5,-181 1701.5,-181"/>
<text text-anchor="start" x="1709.5" y="-221" font-family="Helvetica,sans-Serif" font-size="10.00">/home/travis/build</text>
<text text-anchor="start" x="1709.5" y="-210" font-family="Helvetica,sans-Serif" font-size="10.00">/STORM&#45;IRIT/Radium&#45;Engine</text>
<text text-anchor="start" x="1709.5" y="-199" font-family="Helvetica,sans-Serif" font-size="10.00">/Plugins/Animation/src/Animation</text>
<text text-anchor="middle" x="1782" y="-188" font-family="Helvetica,sans-Serif" font-size="10.00">System.hpp</text>
</a>
</g>
</g>
<!-- Node1&#45;&gt;Node24 -->
<g id="edge27" class="edge"><title>Node1&#45;&gt;Node24</title>
<path fill="none" stroke="midnightblue" d="M1651.46,-266.176C1674.77,-255.788 1702.11,-243.604 1725.73,-233.078"/>
<polygon fill="midnightblue" stroke="midnightblue" points="1649.78,-263.091 1642.07,-270.359 1652.63,-269.485 1649.78,-263.091"/>
</g>
<!-- Node4 -->
<g id="node4" class="node"><title>Node4</title>
<g id="a_node4"><a xlink:href="Component_8cpp.html" target="_top" xlink:title="/home/travis/build\l/STORM&#45;IRIT/Radium&#45;Engine\l/src/Engine/Component/Component.cpp">
<polygon fill="white" stroke="black" points="557.5,-6.5 557.5,-47.5 748.5,-47.5 748.5,-6.5 557.5,-6.5"/>
<text text-anchor="start" x="565.5" y="-35.5" font-family="Helvetica,sans-Serif" font-size="10.00">/home/travis/build</text>
<text text-anchor="start" x="565.5" y="-24.5" font-family="Helvetica,sans-Serif" font-size="10.00">/STORM&#45;IRIT/Radium&#45;Engine</text>
<text text-anchor="middle" x="653" y="-13.5" font-family="Helvetica,sans-Serif" font-size="10.00">/src/Engine/Component/Component.cpp</text>
</a>
</g>
</g>
<!-- Node3&#45;&gt;Node4 -->
<g id="edge3" class="edge"><title>Node3&#45;&gt;Node4</title>
<path fill="none" stroke="midnightblue" d="M842.817,-87.8707C801.136,-74.724 752.535,-59.3945 714.946,-47.5384"/>
<polygon fill="midnightblue" stroke="midnightblue" points="841.833,-91.2303 852.423,-90.9005 843.939,-84.5545 841.833,-91.2303"/>
</g>
<!-- Node5 -->
<g id="node5" class="node"><title>Node5</title>
<g id="a_node5"><a xlink:href="Entity_8cpp.html" target="_top" xlink:title="/home/travis/build\l/STORM&#45;IRIT/Radium&#45;Engine\l/src/Engine/Entity/Entity.cpp">
<polygon fill="white" stroke="black" points="767,-6.5 767,-47.5 915,-47.5 915,-6.5 767,-6.5"/>
<text text-anchor="start" x="775" y="-35.5" font-family="Helvetica,sans-Serif" font-size="10.00">/home/travis/build</text>
<text text-anchor="start" x="775" y="-24.5" font-family="Helvetica,sans-Serif" font-size="10.00">/STORM&#45;IRIT/Radium&#45;Engine</text>
<text text-anchor="middle" x="841" y="-13.5" font-family="Helvetica,sans-Serif" font-size="10.00">/src/Engine/Entity/Entity.cpp</text>
</a>
</g>
</g>
<!-- Node3&#45;&gt;Node5 -->
<g id="edge4" class="edge"><title>Node3&#45;&gt;Node5</title>
<path fill="none" stroke="midnightblue" d="M898.49,-83.5943C885.969,-71.4868 872.145,-58.118 861.191,-47.5249"/>
<polygon fill="midnightblue" stroke="midnightblue" points="896.057,-86.1111 905.679,-90.5468 900.923,-81.0791 896.057,-86.1111"/>
</g>
<!-- Node6 -->
<g id="node6" class="node"><title>Node6</title>
<g id="a_node6"><a xlink:href="EntityManager_8cpp.html" target="_top" xlink:title="/home/travis/build\l/STORM&#45;IRIT/Radium&#45;Engine\l/src/Engine/Managers/EntityManager\l/EntityManager.cpp">
<polygon fill="white" stroke="black" points="933,-1 933,-53 1111,-53 1111,-1 933,-1"/>
<text text-anchor="start" x="941" y="-41" font-family="Helvetica,sans-Serif" font-size="10.00">/home/travis/build</text>
<text text-anchor="start" x="941" y="-30" font-family="Helvetica,sans-Serif" font-size="10.00">/STORM&#45;IRIT/Radium&#45;Engine</text>
<text text-anchor="start" x="941" y="-19" font-family="Helvetica,sans-Serif" font-size="10.00">/src/Engine/Managers/EntityManager</text>
<text text-anchor="middle" x="1022" y="-8" font-family="Helvetica,sans-Serif" font-size="10.00">/EntityManager.cpp</text>
</a>
</g>
</g>
<!-- Node3&#45;&gt;Node6 -->
<g id="edge5" class="edge"><title>Node3&#45;&gt;Node6</title>
<path fill="none" stroke="midnightblue" d="M965.309,-83.4308C975.561,-73.4069 986.683,-62.5325 996.338,-53.0921"/>
<polygon fill="midnightblue" stroke="midnightblue" points="962.735,-81.053 958.032,-90.5468 967.629,-86.0581 962.735,-81.053"/>
</g>
<!-- Node7 -->
<g id="node7" class="node"><title>Node7</title>
<g id="a_node7"><a xlink:href="SignalManager_8cpp.html" target="_top" xlink:title="/home/travis/build\l/STORM&#45;IRIT/Radium&#45;Engine\l/src/Engine/Managers/SignalManager\l/SignalManager.cpp">
<polygon fill="white" stroke="black" points="-0.5,-1 -0.5,-53 178.5,-53 178.5,-1 -0.5,-1"/>
<text text-anchor="start" x="7.5" y="-41" font-family="Helvetica,sans-Serif" font-size="10.00">/home/travis/build</text>
<text text-anchor="start" x="7.5" y="-30" font-family="Helvetica,sans-Serif" font-size="10.00">/STORM&#45;IRIT/Radium&#45;Engine</text>
<text text-anchor="start" x="7.5" y="-19" font-family="Helvetica,sans-Serif" font-size="10.00">/src/Engine/Managers/SignalManager</text>
<text text-anchor="middle" x="89" y="-8" font-family="Helvetica,sans-Serif" font-size="10.00">/SignalManager.cpp</text>
</a>
</g>
</g>
<!-- Node3&#45;&gt;Node7 -->
<g id="edge6" class="edge"><title>Node3&#45;&gt;Node7</title>
<path fill="none" stroke="midnightblue" d="M832.223,-113.184C688.795,-107.895 416.453,-93.2116 188,-54 184.935,-53.4739 181.826,-52.8983 178.695,-52.2823"/>
<polygon fill="midnightblue" stroke="midnightblue" points="832.205,-116.686 842.325,-113.549 832.458,-109.691 832.205,-116.686"/>
</g>
<!-- Node8 -->
<g id="node8" class="node"><title>Node8</title>
<g id="a_node8"><a xlink:href="RadiumEngine_8cpp.html" target="_top" xlink:title="/home/travis/build\l/STORM&#45;IRIT/Radium&#45;Engine\l/src/Engine/RadiumEngine.cpp">
<polygon fill="white" stroke="black" points="197,-6.5 197,-47.5 349,-47.5 349,-6.5 197,-6.5"/>
<text text-anchor="start" x="205" y="-35.5" font-family="Helvetica,sans-Serif" font-size="10.00">/home/travis/build</text>
<text text-anchor="start" x="205" y="-24.5" font-family="Helvetica,sans-Serif" font-size="10.00">/STORM&#45;IRIT/Radium&#45;Engine</text>
<text text-anchor="middle" x="273" y="-13.5" font-family="Helvetica,sans-Serif" font-size="10.00">/src/Engine/RadiumEngine.cpp</text>
</a>
</g>
</g>
<!-- Node3&#45;&gt;Node8 -->
<g id="edge7" class="edge"><title>Node3&#45;&gt;Node8</title>
<path fill="none" stroke="midnightblue" d="M831.988,-110.946C716.756,-103.799 522.177,-87.6601 358,-54 349.383,-52.2333 340.389,-49.9644 331.614,-47.5045"/>
<polygon fill="midnightblue" stroke="midnightblue" points="832.007,-114.453 842.201,-111.569 832.433,-107.466 832.007,-114.453"/>
</g>
<!-- Node9 -->
<g id="node9" class="node"><title>Node9</title>
<g id="a_node9"><a xlink:href="RenderObjectManager_8cpp.html" target="_top" xlink:title="/home/travis/build\l/STORM&#45;IRIT/Radium&#45;Engine\l/src/Engine/Renderer/RenderObject\l/RenderObjectManager.cpp">
<polygon fill="white" stroke="black" points="367,-1 367,-53 539,-53 539,-1 367,-1"/>
<text text-anchor="start" x="375" y="-41" font-family="Helvetica,sans-Serif" font-size="10.00">/home/travis/build</text>
<text text-anchor="start" x="375" y="-30" font-family="Helvetica,sans-Serif" font-size="10.00">/STORM&#45;IRIT/Radium&#45;Engine</text>
<text text-anchor="start" x="375" y="-19" font-family="Helvetica,sans-Serif" font-size="10.00">/src/Engine/Renderer/RenderObject</text>
<text text-anchor="middle" x="453" y="-8" font-family="Helvetica,sans-Serif" font-size="10.00">/RenderObjectManager.cpp</text>
</a>
</g>
</g>
<!-- Node3&#45;&gt;Node9 -->
<g id="edge8" class="edge"><title>Node3&#45;&gt;Node9</title>
<path fill="none" stroke="midnightblue" d="M831.981,-102.845C754.162,-91.8891 643.687,-74.7563 548,-54 545.076,-53.3656 542.107,-52.6965 539.114,-52.0003"/>
<polygon fill="midnightblue" stroke="midnightblue" points="831.873,-106.364 842.261,-104.283 832.843,-99.4311 831.873,-106.364"/>
</g>
<!-- Node10 -->
<g id="node10" class="node"><title>Node10</title>
<g id="a_node10"><a xlink:href="AnimationPlugin_8cpp.html" target="_top" xlink:title="/home/travis/build\l/STORM&#45;IRIT/Radium&#45;Engine\l/Plugins/Animation/src/Animation\lPlugin.cpp">
<polygon fill="white" stroke="black" points="1507.5,-1 1507.5,-53 1668.5,-53 1668.5,-1 1507.5,-1"/>
<text text-anchor="start" x="1515.5" y="-41" font-family="Helvetica,sans-Serif" font-size="10.00">/home/travis/build</text>
<text text-anchor="start" x="1515.5" y="-30" font-family="Helvetica,sans-Serif" font-size="10.00">/STORM&#45;IRIT/Radium&#45;Engine</text>
<text text-anchor="start" x="1515.5" y="-19" font-family="Helvetica,sans-Serif" font-size="10.00">/Plugins/Animation/src/Animation</text>
<text text-anchor="middle" x="1588" y="-8" font-family="Helvetica,sans-Serif" font-size="10.00">Plugin.cpp</text>
</a>
</g>
</g>
<!-- Node3&#45;&gt;Node10 -->
<g id="edge9" class="edge"><title>Node3&#45;&gt;Node10</title>
<path fill="none" stroke="midnightblue" d="M1032.01,-110.265C1145.74,-102.54 1336.56,-85.9142 1498,-54 1501.03,-53.4007 1504.11,-52.7472 1507.21,-52.0507"/>
<polygon fill="midnightblue" stroke="midnightblue" points="1031.67,-106.78 1021.93,-110.941 1032.14,-113.764 1031.67,-106.78"/>
</g>
<!-- Node11 -->
<g id="node11" class="node"><title>Node11</title>
<g id="a_node11"><a xlink:href="MeshFeatureTrackingPlugin_8cpp.html" target="_top" xlink:title="/home/travis/build\l/STORM&#45;IRIT/Radium&#45;Engine\l/Plugins/MeshFeatureTracking\l/src/MeshFeatureTrackingPlugin.cpp">
<polygon fill="white" stroke="black" points="1129,-1 1129,-53 1305,-53 1305,-1 1129,-1"/>
<text text-anchor="start" x="1137" y="-41" font-family="Helvetica,sans-Serif" font-size="10.00">/home/travis/build</text>
<text text-anchor="start" x="1137" y="-30" font-family="Helvetica,sans-Serif" font-size="10.00">/STORM&#45;IRIT/Radium&#45;Engine</text>
<text text-anchor="start" x="1137" y="-19" font-family="Helvetica,sans-Serif" font-size="10.00">/Plugins/MeshFeatureTracking</text>
<text text-anchor="middle" x="1217" y="-8" font-family="Helvetica,sans-Serif" font-size="10.00">/src/MeshFeatureTrackingPlugin.cpp</text>
</a>
</g>
</g>
<!-- Node3&#45;&gt;Node11 -->
<g id="edge10" class="edge"><title>Node3&#45;&gt;Node11</title>
<path fill="none" stroke="midnightblue" d="M1022.86,-87.9445C1059.06,-76.7672 1100.4,-64.0025 1135.6,-53.1328"/>
<polygon fill="midnightblue" stroke="midnightblue" points="1021.81,-84.6059 1013.29,-90.9005 1023.88,-91.2944 1021.81,-84.6059"/>
</g>
<!-- Node12 -->
<g id="node12" class="node"><title>Node12</title>
<g id="a_node12"><a xlink:href="MeshPaintPlugin_8cpp.html" target="_top" xlink:title="/home/travis/build\l/STORM&#45;IRIT/Radium&#45;Engine\l/Plugins/MeshPaint/src/MeshPaint\lPlugin.cpp">
<polygon fill="white" stroke="black" points="1322.5,-1 1322.5,-53 1489.5,-53 1489.5,-1 1322.5,-1"/>
<text text-anchor="start" x="1330.5" y="-41" font-family="Helvetica,sans-Serif" font-size="10.00">/home/travis/build</text>
<text text-anchor="start" x="1330.5" y="-30" font-family="Helvetica,sans-Serif" font-size="10.00">/STORM&#45;IRIT/Radium&#45;Engine</text>
<text text-anchor="start" x="1330.5" y="-19" font-family="Helvetica,sans-Serif" font-size="10.00">/Plugins/MeshPaint/src/MeshPaint</text>
<text text-anchor="middle" x="1406" y="-8" font-family="Helvetica,sans-Serif" font-size="10.00">Plugin.cpp</text>
</a>
</g>
</g>
<!-- Node3&#45;&gt;Node12 -->
<g id="edge11" class="edge"><title>Node3&#45;&gt;Node12</title>
<path fill="none" stroke="midnightblue" d="M1032.03,-102.827C1109.22,-91.9151 1218.42,-74.8475 1313,-54 1316.11,-53.3143 1319.27,-52.5872 1322.46,-51.8285"/>
<polygon fill="midnightblue" stroke="midnightblue" points="1031.25,-99.4024 1021.83,-104.259 1032.22,-106.334 1031.25,-99.4024"/>
</g>
<!-- Node14&#45;&gt;Node10 -->
<g id="edge15" class="edge"><title>Node14&#45;&gt;Node10</title>
<path fill="none" stroke="midnightblue" d="M1475.09,-86.1047C1495.97,-75.3602 1519.29,-63.3607 1539.29,-53.0687"/>
<polygon fill="midnightblue" stroke="midnightblue" points="1473.29,-83.0948 1466,-90.7827 1476.49,-89.3189 1473.29,-83.0948"/>
</g>
<!-- Node14&#45;&gt;Node11 -->
<g id="edge16" class="edge"><title>Node14&#45;&gt;Node11</title>
<path fill="none" stroke="midnightblue" d="M1350.63,-86.7977C1325.86,-75.9004 1297.98,-63.6325 1274.12,-53.1328"/>
<polygon fill="midnightblue" stroke="midnightblue" points="1349.39,-90.0767 1359.96,-90.9005 1352.21,-83.6694 1349.39,-90.0767"/>
</g>
<!-- Node14&#45;&gt;Node12 -->
<g id="edge17" class="edge"><title>Node14&#45;&gt;Node12</title>
<path fill="none" stroke="midnightblue" d="M1412.56,-80.4892C1411.41,-71.3088 1410.2,-61.616 1409.14,-53.0921"/>
<polygon fill="midnightblue" stroke="midnightblue" points="1409.1,-81.0581 1413.82,-90.5468 1416.05,-80.1898 1409.1,-81.0581"/>
</g>
<!-- Node15 -->
<g id="node15" class="node"><title>Node15</title>
<g id="a_node15"><a xlink:href="SelectionManager_8cpp.html" target="_top" xlink:title="/home/travis/build\l/STORM&#45;IRIT/Radium&#45;Engine\l/src/GuiBase/SelectionManager\l/SelectionManager.cpp">
<polygon fill="white" stroke="black" points="1686.5,-1 1686.5,-53 1841.5,-53 1841.5,-1 1686.5,-1"/>
<text text-anchor="start" x="1694.5" y="-41" font-family="Helvetica,sans-Serif" font-size="10.00">/home/travis/build</text>
<text text-anchor="start" x="1694.5" y="-30" font-family="Helvetica,sans-Serif" font-size="10.00">/STORM&#45;IRIT/Radium&#45;Engine</text>
<text text-anchor="start" x="1694.5" y="-19" font-family="Helvetica,sans-Serif" font-size="10.00">/src/GuiBase/SelectionManager</text>
<text text-anchor="middle" x="1764" y="-8" font-family="Helvetica,sans-Serif" font-size="10.00">/SelectionManager.cpp</text>
</a>
</g>
</g>
<!-- Node14&#45;&gt;Node15 -->
<g id="edge14" class="edge"><title>Node14&#45;&gt;Node15</title>
<path fill="none" stroke="midnightblue" d="M1504.42,-89.9897C1581.84,-70.9025 1603.84,-72.509 1677,-54 1680.06,-53.2267 1683.17,-52.4156 1686.3,-51.5773"/>
<polygon fill="midnightblue" stroke="midnightblue" points="1503.55,-86.5999 1494.7,-92.4227 1505.25,-93.3906 1503.55,-86.5999"/>
</g>
<!-- Node16 -->
<g id="node16" class="node"><title>Node16</title>
<g id="a_node16"><a xlink:href="SkinningPlugin_8cpp.html" target="_top" xlink:title="/home/travis/build\l/STORM&#45;IRIT/Radium&#45;Engine\l/Plugins/Skinning/src/SkinningPlugin.cpp">
<polygon fill="white" stroke="black" points="1859.5,-6.5 1859.5,-47.5 2054.5,-47.5 2054.5,-6.5 1859.5,-6.5"/>
<text text-anchor="start" x="1867.5" y="-35.5" font-family="Helvetica,sans-Serif" font-size="10.00">/home/travis/build</text>
<text text-anchor="start" x="1867.5" y="-24.5" font-family="Helvetica,sans-Serif" font-size="10.00">/STORM&#45;IRIT/Radium&#45;Engine</text>
<text text-anchor="middle" x="1957" y="-13.5" font-family="Helvetica,sans-Serif" font-size="10.00">/Plugins/Skinning/src/SkinningPlugin.cpp</text>
</a>
</g>
</g>
<!-- Node14&#45;&gt;Node16 -->
<g id="edge18" class="edge"><title>Node14&#45;&gt;Node16</title>
<path fill="none" stroke="midnightblue" d="M1504.82,-90.0158C1657.47,-60.5958 1700.92,-79.7473 1850,-54 1860.46,-52.1943 1871.41,-49.9495 1882.15,-47.5409"/>
<polygon fill="midnightblue" stroke="midnightblue" points="1503.74,-86.6608 1494.61,-92.0249 1505.09,-93.5292 1503.74,-86.6608"/>
</g>
<!-- Node18 -->
<g id="node18" class="node"><title>Node18</title>
<g id="a_node18"><a xlink:href="TransformEditor_8cpp.html" target="_top" xlink:title="/home/travis/build\l/STORM&#45;IRIT/Radium&#45;Engine\l/src/GuiBase/TransformEditor\l/TransformEditor.cpp">
<polygon fill="white" stroke="black" points="2243,-91 2243,-143 2391,-143 2391,-91 2243,-91"/>
<text text-anchor="start" x="2251" y="-131" font-family="Helvetica,sans-Serif" font-size="10.00">/home/travis/build</text>
<text text-anchor="start" x="2251" y="-120" font-family="Helvetica,sans-Serif" font-size="10.00">/STORM&#45;IRIT/Radium&#45;Engine</text>
<text text-anchor="start" x="2251" y="-109" font-family="Helvetica,sans-Serif" font-size="10.00">/src/GuiBase/TransformEditor</text>
<text text-anchor="middle" x="2317" y="-98" font-family="Helvetica,sans-Serif" font-size="10.00">/TransformEditor.cpp</text>
</a>
</g>
</g>
<!-- Node17&#45;&gt;Node18 -->
<g id="edge20" class="edge"><title>Node17&#45;&gt;Node18</title>
<path fill="none" stroke="midnightblue" d="M2207.67,-175.96C2227.86,-165.253 2250.38,-153.315 2269.71,-143.069"/>
<polygon fill="midnightblue" stroke="midnightblue" points="2205.76,-173.007 2198.57,-180.783 2209.04,-179.191 2205.76,-173.007"/>
</g>
<!-- Node19 -->
<g id="node19" class="node"><title>Node19</title>
<g id="a_node19"><a xlink:href="GizmoManager_8hpp.html" target="_top" xlink:title="/home/travis/build\l/STORM&#45;IRIT/Radium&#45;Engine\l/src/GuiBase/Viewer/Gizmo\l/GizmoManager.hpp">
<polygon fill="white" stroke="black" points="2077,-91 2077,-143 2225,-143 2225,-91 2077,-91"/>
<text text-anchor="start" x="2085" y="-131" font-family="Helvetica,sans-Serif" font-size="10.00">/home/travis/build</text>
<text text-anchor="start" x="2085" y="-120" font-family="Helvetica,sans-Serif" font-size="10.00">/STORM&#45;IRIT/Radium&#45;Engine</text>
<text text-anchor="start" x="2085" y="-109" font-family="Helvetica,sans-Serif" font-size="10.00">/src/GuiBase/Viewer/Gizmo</text>
<text text-anchor="middle" x="2151" y="-98" font-family="Helvetica,sans-Serif" font-size="10.00">/GizmoManager.hpp</text>
</a>
</g>
</g>
<!-- Node17&#45;&gt;Node19 -->
<g id="edge21" class="edge"><title>Node17&#45;&gt;Node19</title>
<path fill="none" stroke="midnightblue" d="M2151,-170.489C2151,-161.309 2151,-151.616 2151,-143.092"/>
<polygon fill="midnightblue" stroke="midnightblue" points="2147.5,-170.547 2151,-180.547 2154.5,-170.547 2147.5,-170.547"/>
</g>
<!-- Node20 -->
<g id="node20" class="node"><title>Node20</title>
<g id="a_node20"><a xlink:href="GizmoManager_8cpp.html" target="_top" xlink:title="/home/travis/build\l/STORM&#45;IRIT/Radium&#45;Engine\l/src/GuiBase/Viewer/Gizmo\l/GizmoManager.cpp">
<polygon fill="white" stroke="black" points="2248,-1 2248,-53 2396,-53 2396,-1 2248,-1"/>
<text text-anchor="start" x="2256" y="-41" font-family="Helvetica,sans-Serif" font-size="10.00">/home/travis/build</text>
<text text-anchor="start" x="2256" y="-30" font-family="Helvetica,sans-Serif" font-size="10.00">/STORM&#45;IRIT/Radium&#45;Engine</text>
<text text-anchor="start" x="2256" y="-19" font-family="Helvetica,sans-Serif" font-size="10.00">/src/GuiBase/Viewer/Gizmo</text>
<text text-anchor="middle" x="2322" y="-8" font-family="Helvetica,sans-Serif" font-size="10.00">/GizmoManager.cpp</text>
</a>
</g>
</g>
<!-- Node19&#45;&gt;Node20 -->
<g id="edge22" class="edge"><title>Node19&#45;&gt;Node20</title>
<path fill="none" stroke="midnightblue" d="M2209.09,-86.1047C2229.97,-75.3602 2253.29,-63.3607 2273.29,-53.0687"/>
<polygon fill="midnightblue" stroke="midnightblue" points="2207.29,-83.0948 2200,-90.7827 2210.49,-89.3189 2207.29,-83.0948"/>
</g>
<!-- Node21 -->
<g id="node21" class="node"><title>Node21</title>
<g id="a_node21"><a xlink:href="Viewer_8cpp.html" target="_top" xlink:title="/home/travis/build\l/STORM&#45;IRIT/Radium&#45;Engine\l/src/GuiBase/Viewer/Viewer.cpp">
<polygon fill="white" stroke="black" points="2072,-6.5 2072,-47.5 2230,-47.5 2230,-6.5 2072,-6.5"/>
<text text-anchor="start" x="2080" y="-35.5" font-family="Helvetica,sans-Serif" font-size="10.00">/home/travis/build</text>
<text text-anchor="start" x="2080" y="-24.5" font-family="Helvetica,sans-Serif" font-size="10.00">/STORM&#45;IRIT/Radium&#45;Engine</text>
<text text-anchor="middle" x="2151" y="-13.5" font-family="Helvetica,sans-Serif" font-size="10.00">/src/GuiBase/Viewer/Viewer.cpp</text>
</a>
</g>
</g>
<!-- Node19&#45;&gt;Node21 -->
<g id="edge23" class="edge"><title>Node19&#45;&gt;Node21</title>
<path fill="none" stroke="midnightblue" d="M2151,-80.5147C2151,-69.2575 2151,-57.227 2151,-47.5249"/>
<polygon fill="midnightblue" stroke="midnightblue" points="2147.5,-80.5467 2151,-90.5468 2154.5,-80.5468 2147.5,-80.5467"/>
</g>
<!-- Node22&#45;&gt;Node14 -->
<g id="edge25" class="edge"><title>Node22&#45;&gt;Node14</title>
<path fill="none" stroke="midnightblue" d="M1537.1,-176.394C1514.85,-165.576 1489.92,-153.453 1468.56,-143.069"/>
<polygon fill="midnightblue" stroke="midnightblue" points="1535.61,-179.558 1546.13,-180.783 1538.67,-173.262 1535.61,-179.558"/>
</g>
<!-- Node23 -->
<g id="node23" class="node"><title>Node23</title>
<g id="a_node23"><a xlink:href="EntityTreeModel_8cpp.html" target="_top" xlink:title="/home/travis/build\l/STORM&#45;IRIT/Radium&#45;Engine\l/src/GuiBase/TreeModel/EntityTree\lModel.cpp">
<polygon fill="white" stroke="black" points="1513,-91 1513,-143 1683,-143 1683,-91 1513,-91"/>
<text text-anchor="start" x="1521" y="-131" font-family="Helvetica,sans-Serif" font-size="10.00">/home/travis/build</text>
<text text-anchor="start" x="1521" y="-120" font-family="Helvetica,sans-Serif" font-size="10.00">/STORM&#45;IRIT/Radium&#45;Engine</text>
<text text-anchor="start" x="1521" y="-109" font-family="Helvetica,sans-Serif" font-size="10.00">/src/GuiBase/TreeModel/EntityTree</text>
<text text-anchor="middle" x="1598" y="-98" font-family="Helvetica,sans-Serif" font-size="10.00">Model.cpp</text>
</a>
</g>
</g>
<!-- Node22&#45;&gt;Node23 -->
<g id="edge26" class="edge"><title>Node22&#45;&gt;Node23</title>
<path fill="none" stroke="midnightblue" d="M1598,-170.489C1598,-161.309 1598,-151.616 1598,-143.092"/>
<polygon fill="midnightblue" stroke="midnightblue" points="1594.5,-170.547 1598,-180.547 1601.5,-170.547 1594.5,-170.547"/>
</g>
<!-- Node24&#45;&gt;Node10 -->
<g id="edge28" class="edge"><title>Node24&#45;&gt;Node10</title>
<path fill="none" stroke="midnightblue" d="M1843.56,-175.009C1854.61,-166.527 1864.62,-156.224 1871,-144 1882.11,-122.725 1886.34,-108.454 1871,-90 1842.97,-56.2854 1719.65,-64.1606 1677,-54 1674.34,-53.3659 1671.64,-52.7013 1668.91,-52.0132"/>
<polygon fill="midnightblue" stroke="midnightblue" points="1841.47,-172.2 1835.37,-180.864 1845.54,-177.894 1841.47,-172.2"/>
</g>
<!-- Node25 -->
<g id="node25" class="node"><title>Node25</title>
<g id="a_node25"><a xlink:href="AnimationSystem_8cpp.html" target="_top" xlink:title="/home/travis/build\l/STORM&#45;IRIT/Radium&#45;Engine\l/Plugins/Animation/src/Animation\lSystem.cpp">
<polygon fill="white" stroke="black" points="1701.5,-91 1701.5,-143 1862.5,-143 1862.5,-91 1701.5,-91"/>
<text text-anchor="start" x="1709.5" y="-131" font-family="Helvetica,sans-Serif" font-size="10.00">/home/travis/build</text>
<text text-anchor="start" x="1709.5" y="-120" font-family="Helvetica,sans-Serif" font-size="10.00">/STORM&#45;IRIT/Radium&#45;Engine</text>
<text text-anchor="start" x="1709.5" y="-109" font-family="Helvetica,sans-Serif" font-size="10.00">/Plugins/Animation/src/Animation</text>
<text text-anchor="middle" x="1782" y="-98" font-family="Helvetica,sans-Serif" font-size="10.00">System.cpp</text>
</a>
</g>
</g>
<!-- Node24&#45;&gt;Node25 -->
<g id="edge29" class="edge"><title>Node24&#45;&gt;Node25</title>
<path fill="none" stroke="midnightblue" d="M1782,-170.489C1782,-161.309 1782,-151.616 1782,-143.092"/>
<polygon fill="midnightblue" stroke="midnightblue" points="1778.5,-170.547 1782,-180.547 1785.5,-170.547 1778.5,-170.547"/>
</g>
</g>
</svg>
