<?xml version="1.0" encoding="UTF-8" standalone="no"?>
<!DOCTYPE svg PUBLIC "-//W3C//DTD SVG 1.1//EN"
 "http://www.w3.org/Graphics/SVG/1.1/DTD/svg11.dtd">
<!-- Generated by graphviz version 2.36.0 (20140111.2315)
 -->
<!-- Title: /home/travis/build/STORM&#45;IRIT/Radium&#45;Engine/src/Core/File/KeyFrame/KeyFrame.hpp Pages: 1 -->
<svg width="2694pt" height="590pt"
 viewBox="0.00 0.00 2694.00 590.00" xmlns="http://www.w3.org/2000/svg" xmlns:xlink="http://www.w3.org/1999/xlink">
<g id="graph0" class="graph" transform="scale(1 1) rotate(0) translate(4 586)">
<title>/home/travis/build/STORM&#45;IRIT/Radium&#45;Engine/src/Core/File/KeyFrame/KeyFrame.hpp</title>
<polygon fill="white" stroke="none" points="-4,4 -4,-586 2690,-586 2690,4 -4,4"/>
<!-- Node1 -->
<g id="node1" class="node"><title>Node1</title>
<polygon fill="#bfbfbf" stroke="black" points="1880,-529 1880,-581 2028,-581 2028,-529 1880,-529"/>
<text text-anchor="start" x="1888" y="-569" font-family="Helvetica,sans-Serif" font-size="10.00">/home/travis/build</text>
<text text-anchor="start" x="1888" y="-558" font-family="Helvetica,sans-Serif" font-size="10.00">/STORM&#45;IRIT/Radium&#45;Engine</text>
<text text-anchor="start" x="1888" y="-547" font-family="Helvetica,sans-Serif" font-size="10.00">/src/Core/File/KeyFrame</text>
<text text-anchor="middle" x="1954" y="-536" font-family="Helvetica,sans-Serif" font-size="10.00">/KeyFrame.hpp</text>
</g>
<!-- Node2 -->
<g id="node2" class="node"><title>Node2</title>
<g id="a_node2"><a xlink:href="KeyPose_8hpp.html" target="_top" xlink:title="/home/travis/build\l/STORM&#45;IRIT/Radium&#45;Engine\l/src/Core/File/KeyFrame\l/KeyPose.hpp">
<polygon fill="white" stroke="black" points="2538,-349 2538,-401 2686,-401 2686,-349 2538,-349"/>
<text text-anchor="start" x="2546" y="-389" font-family="Helvetica,sans-Serif" font-size="10.00">/home/travis/build</text>
<text text-anchor="start" x="2546" y="-378" font-family="Helvetica,sans-Serif" font-size="10.00">/STORM&#45;IRIT/Radium&#45;Engine</text>
<text text-anchor="start" x="2546" y="-367" font-family="Helvetica,sans-Serif" font-size="10.00">/src/Core/File/KeyFrame</text>
<text text-anchor="middle" x="2612" y="-356" font-family="Helvetica,sans-Serif" font-size="10.00">/KeyPose.hpp</text>
</a>
</g>
</g>
<!-- Node1&#45;&gt;Node2 -->
<g id="edge1" class="edge"><title>Node1&#45;&gt;Node2</title>
<path fill="none" stroke="midnightblue" d="M2038.03,-539.374C2098.95,-528.134 2183.09,-511.297 2256,-492 2357.17,-465.222 2471.9,-426.245 2543.11,-401.005"/>
<polygon fill="midnightblue" stroke="midnightblue" points="2037.28,-535.952 2028.08,-541.198 2038.54,-542.838 2037.28,-535.952"/>
</g>
<!-- Node4 -->
<g id="node4" class="node"><title>Node4</title>
<g id="a_node4"><a xlink:href="KeyRotation_8hpp.html" target="_top" xlink:title="/home/travis/build\l/STORM&#45;IRIT/Radium&#45;Engine\l/src/Core/File/KeyFrame\l/KeyRotation.hpp">
<polygon fill="white" stroke="black" points="1612,-349 1612,-401 1760,-401 1760,-349 1612,-349"/>
<text text-anchor="start" x="1620" y="-389" font-family="Helvetica,sans-Serif" font-size="10.00">/home/travis/build</text>
<text text-anchor="start" x="1620" y="-378" font-family="Helvetica,sans-Serif" font-size="10.00">/STORM&#45;IRIT/Radium&#45;Engine</text>
<text text-anchor="start" x="1620" y="-367" font-family="Helvetica,sans-Serif" font-size="10.00">/src/Core/File/KeyFrame</text>
<text text-anchor="middle" x="1686" y="-356" font-family="Helvetica,sans-Serif" font-size="10.00">/KeyRotation.hpp</text>
</a>
</g>
</g>
<!-- Node1&#45;&gt;Node4 -->
<g id="edge3" class="edge"><title>Node1&#45;&gt;Node4</title>
<path fill="none" stroke="midnightblue" d="M1869.86,-543.07C1806.65,-533.086 1727.28,-516.178 1705,-492 1682.46,-467.538 1680.92,-427.199 1682.78,-401.119"/>
<polygon fill="midnightblue" stroke="midnightblue" points="1869.44,-546.547 1879.86,-544.613 1870.51,-539.629 1869.44,-546.547"/>
</g>
<!-- Node6 -->
<g id="node6" class="node"><title>Node6</title>
<g id="a_node6"><a xlink:href="KeyScaling_8hpp.html" target="_top" xlink:title="/home/travis/build\l/STORM&#45;IRIT/Radium&#45;Engine\l/src/Core/File/KeyFrame\l/KeyScaling.hpp">
<polygon fill="white" stroke="black" points="1714,-439 1714,-491 1862,-491 1862,-439 1714,-439"/>
<text text-anchor="start" x="1722" y="-479" font-family="Helvetica,sans-Serif" font-size="10.00">/home/travis/build</text>
<text text-anchor="start" x="1722" y="-468" font-family="Helvetica,sans-Serif" font-size="10.00">/STORM&#45;IRIT/Radium&#45;Engine</text>
<text text-anchor="start" x="1722" y="-457" font-family="Helvetica,sans-Serif" font-size="10.00">/src/Core/File/KeyFrame</text>
<text text-anchor="middle" x="1788" y="-446" font-family="Helvetica,sans-Serif" font-size="10.00">/KeyScaling.hpp</text>
</a>
</g>
</g>
<!-- Node1&#45;&gt;Node6 -->
<g id="edge5" class="edge"><title>Node1&#45;&gt;Node6</title>
<path fill="none" stroke="midnightblue" d="M1897.33,-523.96C1877.14,-513.253 1854.62,-501.315 1835.29,-491.069"/>
<polygon fill="midnightblue" stroke="midnightblue" points="1895.96,-527.191 1906.43,-528.783 1899.24,-521.007 1895.96,-527.191"/>
</g>
<!-- Node7 -->
<g id="node7" class="node"><title>Node7</title>
<g id="a_node7"><a xlink:href="KeyTransform_8hpp.html" target="_top" xlink:title="/home/travis/build\l/STORM&#45;IRIT/Radium&#45;Engine\l/src/Core/File/KeyFrame\l/KeyTransform.hpp">
<polygon fill="white" stroke="black" points="2099,-439 2099,-491 2247,-491 2247,-439 2099,-439"/>
<text text-anchor="start" x="2107" y="-479" font-family="Helvetica,sans-Serif" font-size="10.00">/home/travis/build</text>
<text text-anchor="start" x="2107" y="-468" font-family="Helvetica,sans-Serif" font-size="10.00">/STORM&#45;IRIT/Radium&#45;Engine</text>
<text text-anchor="start" x="2107" y="-457" font-family="Helvetica,sans-Serif" font-size="10.00">/src/Core/File/KeyFrame</text>
<text text-anchor="middle" x="2173" y="-446" font-family="Helvetica,sans-Serif" font-size="10.00">/KeyTransform.hpp</text>
</a>
</g>
</g>
<!-- Node1&#45;&gt;Node7 -->
<g id="edge7" class="edge"><title>Node1&#45;&gt;Node7</title>
<path fill="none" stroke="midnightblue" d="M2025.96,-525.085C2053.26,-514.117 2084.09,-501.725 2110.45,-491.133"/>
<polygon fill="midnightblue" stroke="midnightblue" points="2024.44,-521.924 2016.46,-528.901 2027.05,-528.42 2024.44,-521.924"/>
</g>
<!-- Node29 -->
<g id="node29" class="node"><title>Node29</title>
<g id="a_node29"><a xlink:href="KeyTranslation_8hpp.html" target="_top" xlink:title="/home/travis/build\l/STORM&#45;IRIT/Radium&#45;Engine\l/src/Core/File/KeyFrame\l/KeyTranslation.hpp">
<polygon fill="white" stroke="black" points="1880,-439 1880,-491 2028,-491 2028,-439 1880,-439"/>
<text text-anchor="start" x="1888" y="-479" font-family="Helvetica,sans-Serif" font-size="10.00">/home/travis/build</text>
<text text-anchor="start" x="1888" y="-468" font-family="Helvetica,sans-Serif" font-size="10.00">/STORM&#45;IRIT/Radium&#45;Engine</text>
<text text-anchor="start" x="1888" y="-457" font-family="Helvetica,sans-Serif" font-size="10.00">/src/Core/File/KeyFrame</text>
<text text-anchor="middle" x="1954" y="-446" font-family="Helvetica,sans-Serif" font-size="10.00">/KeyTranslation.hpp</text>
</a>
</g>
</g>
<!-- Node1&#45;&gt;Node29 -->
<g id="edge36" class="edge"><title>Node1&#45;&gt;Node29</title>
<path fill="none" stroke="midnightblue" d="M1954,-518.489C1954,-509.309 1954,-499.616 1954,-491.092"/>
<polygon fill="midnightblue" stroke="midnightblue" points="1950.5,-518.547 1954,-528.547 1957.5,-518.547 1950.5,-518.547"/>
</g>
<!-- Node3 -->
<g id="node3" class="node"><title>Node3</title>
<g id="a_node3"><a xlink:href="AnimationComponent_8cpp.html" target="_top" xlink:title="/home/travis/build\l/STORM&#45;IRIT/Radium&#45;Engine\l/Plugins/Animation/src/Animation\lComponent.cpp">
<polygon fill="white" stroke="black" points="2428.5,-79 2428.5,-131 2589.5,-131 2589.5,-79 2428.5,-79"/>
<text text-anchor="start" x="2436.5" y="-119" font-family="Helvetica,sans-Serif" font-size="10.00">/home/travis/build</text>
<text text-anchor="start" x="2436.5" y="-108" font-family="Helvetica,sans-Serif" font-size="10.00">/STORM&#45;IRIT/Radium&#45;Engine</text>
<text text-anchor="start" x="2436.5" y="-97" font-family="Helvetica,sans-Serif" font-size="10.00">/Plugins/Animation/src/Animation</text>
<text text-anchor="middle" x="2509" y="-86" font-family="Helvetica,sans-Serif" font-size="10.00">Component.cpp</text>
</a>
</g>
</g>
<!-- Node2&#45;&gt;Node3 -->
<g id="edge2" class="edge"><title>Node2&#45;&gt;Node3</title>
<path fill="none" stroke="midnightblue" d="M2598.62,-339.174C2577.58,-284.43 2537.26,-179.528 2518.74,-131.341"/>
<polygon fill="midnightblue" stroke="midnightblue" points="2595.46,-340.708 2602.31,-348.787 2601.99,-338.197 2595.46,-340.708"/>
</g>
<!-- Node5 -->
<g id="node5" class="node"><title>Node5</title>
<g id="a_node5"><a xlink:href="AssimpAnimationDataLoader_8cpp.html" target="_top" xlink:title="/home/travis/build\l/STORM&#45;IRIT/Radium&#45;Engine\l/src/IO/AssimpLoader/AssimpAnimation\lDataLoader.cpp">
<polygon fill="white" stroke="black" points="1590.5,-259 1590.5,-311 1781.5,-311 1781.5,-259 1590.5,-259"/>
<text text-anchor="start" x="1598.5" y="-299" font-family="Helvetica,sans-Serif" font-size="10.00">/home/travis/build</text>
<text text-anchor="start" x="1598.5" y="-288" font-family="Helvetica,sans-Serif" font-size="10.00">/STORM&#45;IRIT/Radium&#45;Engine</text>
<text text-anchor="start" x="1598.5" y="-277" font-family="Helvetica,sans-Serif" font-size="10.00">/src/IO/AssimpLoader/AssimpAnimation</text>
<text text-anchor="middle" x="1686" y="-266" font-family="Helvetica,sans-Serif" font-size="10.00">DataLoader.cpp</text>
</a>
</g>
</g>
<!-- Node4&#45;&gt;Node5 -->
<g id="edge4" class="edge"><title>Node4&#45;&gt;Node5</title>
<path fill="none" stroke="midnightblue" d="M1686,-338.489C1686,-329.309 1686,-319.616 1686,-311.092"/>
<polygon fill="midnightblue" stroke="midnightblue" points="1682.5,-338.547 1686,-348.547 1689.5,-338.547 1682.5,-338.547"/>
</g>
<!-- Node6&#45;&gt;Node5 -->
<g id="edge6" class="edge"><title>Node6&#45;&gt;Node5</title>
<path fill="none" stroke="midnightblue" d="M1788.94,-428.39C1788.03,-404.131 1783.67,-372.158 1769,-348 1760.04,-333.242 1746.12,-320.834 1732.23,-311.088"/>
<polygon fill="midnightblue" stroke="midnightblue" points="1785.44,-428.674 1789.14,-438.603 1792.44,-428.537 1785.44,-428.674"/>
</g>
<!-- Node7&#45;&gt;Node3 -->
<g id="edge35" class="edge"><title>Node7&#45;&gt;Node3</title>
<path fill="none" stroke="midnightblue" d="M2254.98,-435.431C2339.33,-404.279 2462.35,-353.345 2491,-312 2529.14,-256.97 2521.26,-172.789 2514.17,-131.137"/>
<polygon fill="midnightblue" stroke="midnightblue" points="2253.59,-432.213 2245.41,-438.943 2256,-438.785 2253.59,-432.213"/>
</g>
<!-- Node8 -->
<g id="node8" class="node"><title>Node8</title>
<g id="a_node8"><a xlink:href="AnimationData_8hpp.html" target="_top" xlink:title="/home/travis/build\l/STORM&#45;IRIT/Radium&#45;Engine\l/src/Core/File/AnimationData.hpp">
<polygon fill="white" stroke="black" points="2092,-354.5 2092,-395.5 2254,-395.5 2254,-354.5 2092,-354.5"/>
<text text-anchor="start" x="2100" y="-383.5" font-family="Helvetica,sans-Serif" font-size="10.00">/home/travis/build</text>
<text text-anchor="start" x="2100" y="-372.5" font-family="Helvetica,sans-Serif" font-size="10.00">/STORM&#45;IRIT/Radium&#45;Engine</text>
<text text-anchor="middle" x="2173" y="-361.5" font-family="Helvetica,sans-Serif" font-size="10.00">/src/Core/File/AnimationData.hpp</text>
</a>
</g>
</g>
<!-- Node7&#45;&gt;Node8 -->
<g id="edge8" class="edge"><title>Node7&#45;&gt;Node8</title>
<path fill="none" stroke="midnightblue" d="M2173,-428.515C2173,-417.257 2173,-405.227 2173,-395.525"/>
<polygon fill="midnightblue" stroke="midnightblue" points="2169.5,-428.547 2173,-438.547 2176.5,-428.547 2169.5,-428.547"/>
</g>
<!-- Node8&#45;&gt;Node5 -->
<g id="edge27" class="edge"><title>Node8&#45;&gt;Node5</title>
<path fill="none" stroke="midnightblue" d="M2081.56,-361.307C2003.94,-350.019 1889.75,-332.204 1791,-312 1787.96,-311.379 1784.88,-310.73 1781.78,-310.059"/>
<polygon fill="midnightblue" stroke="midnightblue" points="2081.4,-364.819 2091.79,-362.788 2082.4,-357.892 2081.4,-364.819"/>
</g>
<!-- Node9 -->
<g id="node9" class="node"><title>Node9</title>
<g id="a_node9"><a xlink:href="AnimationData_8cpp.html" target="_top" xlink:title="/home/travis/build\l/STORM&#45;IRIT/Radium&#45;Engine\l/src/Core/File/AnimationData.cpp">
<polygon fill="white" stroke="black" points="2146,-264.5 2146,-305.5 2308,-305.5 2308,-264.5 2146,-264.5"/>
<text text-anchor="start" x="2154" y="-293.5" font-family="Helvetica,sans-Serif" font-size="10.00">/home/travis/build</text>
<text text-anchor="start" x="2154" y="-282.5" font-family="Helvetica,sans-Serif" font-size="10.00">/STORM&#45;IRIT/Radium&#45;Engine</text>
<text text-anchor="middle" x="2227" y="-271.5" font-family="Helvetica,sans-Serif" font-size="10.00">/src/Core/File/AnimationData.cpp</text>
</a>
</g>
</g>
<!-- Node8&#45;&gt;Node9 -->
<g id="edge9" class="edge"><title>Node8&#45;&gt;Node9</title>
<path fill="none" stroke="midnightblue" d="M2190.28,-345.845C2198.29,-332.793 2207.61,-317.594 2214.86,-305.78"/>
<polygon fill="midnightblue" stroke="midnightblue" points="2187.23,-344.116 2184.98,-354.47 2193.2,-347.777 2187.23,-344.116"/>
</g>
<!-- Node10 -->
<g id="node10" class="node"><title>Node10</title>
<g id="a_node10"><a xlink:href="AnimationData_8inl.html" target="_top" xlink:title="/home/travis/build\l/STORM&#45;IRIT/Radium&#45;Engine\l/src/Core/File/AnimationData.inl">
<polygon fill="white" stroke="black" points="2326,-264.5 2326,-305.5 2482,-305.5 2482,-264.5 2326,-264.5"/>
<text text-anchor="start" x="2334" y="-293.5" font-family="Helvetica,sans-Serif" font-size="10.00">/home/travis/build</text>
<text text-anchor="start" x="2334" y="-282.5" font-family="Helvetica,sans-Serif" font-size="10.00">/STORM&#45;IRIT/Radium&#45;Engine</text>
<text text-anchor="middle" x="2404" y="-271.5" font-family="Helvetica,sans-Serif" font-size="10.00">/src/Core/File/AnimationData.inl</text>
</a>
</g>
</g>
<!-- Node8&#45;&gt;Node10 -->
<g id="edge10" class="edge"><title>Node8&#45;&gt;Node10</title>
<path fill="none" stroke="midnightblue" d="M2227.89,-350.794C2263.75,-336.732 2310.42,-318.989 2346.75,-305.627"/>
<polygon fill="midnightblue" stroke="midnightblue" points="2226.57,-347.551 2218.55,-354.47 2229.13,-354.064 2226.57,-347.551"/>
</g>
<!-- Node11 -->
<g id="node11" class="node"><title>Node11</title>
<g id="a_node11"><a xlink:href="FileData_8inl.html" target="_top" xlink:title="/home/travis/build\l/STORM&#45;IRIT/Radium&#45;Engine\l/src/Core/File/FileData.inl">
<polygon fill="white" stroke="black" points="1800,-264.5 1800,-305.5 1948,-305.5 1948,-264.5 1800,-264.5"/>
<text text-anchor="start" x="1808" y="-293.5" font-family="Helvetica,sans-Serif" font-size="10.00">/home/travis/build</text>
<text text-anchor="start" x="1808" y="-282.5" font-family="Helvetica,sans-Serif" font-size="10.00">/STORM&#45;IRIT/Radium&#45;Engine</text>
<text text-anchor="middle" x="1874" y="-271.5" font-family="Helvetica,sans-Serif" font-size="10.00">/src/Core/File/FileData.inl</text>
</a>
</g>
</g>
<!-- Node8&#45;&gt;Node11 -->
<g id="edge12" class="edge"><title>Node8&#45;&gt;Node11</title>
<path fill="none" stroke="midnightblue" d="M2093.82,-351.563C2053.16,-339.943 2002.87,-325.413 1958,-312 1951.13,-309.945 1943.94,-307.768 1936.8,-305.584"/>
<polygon fill="midnightblue" stroke="midnightblue" points="2093.09,-354.996 2103.67,-354.376 2095.01,-348.265 2093.09,-354.996"/>
</g>
<!-- Node26 -->
<g id="node26" class="node"><title>Node26</title>
<g id="a_node26"><a xlink:href="AnimationComponent_8hpp.html" target="_top" xlink:title="/home/travis/build\l/STORM&#45;IRIT/Radium&#45;Engine\l/Plugins/Animation/src/Animation\lComponent.hpp">
<polygon fill="white" stroke="black" points="1966.5,-259 1966.5,-311 2127.5,-311 2127.5,-259 1966.5,-259"/>
<text text-anchor="start" x="1974.5" y="-299" font-family="Helvetica,sans-Serif" font-size="10.00">/home/travis/build</text>
<text text-anchor="start" x="1974.5" y="-288" font-family="Helvetica,sans-Serif" font-size="10.00">/STORM&#45;IRIT/Radium&#45;Engine</text>
<text text-anchor="start" x="1974.5" y="-277" font-family="Helvetica,sans-Serif" font-size="10.00">/Plugins/Animation/src/Animation</text>
<text text-anchor="middle" x="2047" y="-266" font-family="Helvetica,sans-Serif" font-size="10.00">Component.hpp</text>
</a>
</g>
</g>
<!-- Node8&#45;&gt;Node26 -->
<g id="edge28" class="edge"><title>Node8&#45;&gt;Node26</title>
<path fill="none" stroke="midnightblue" d="M2136.55,-348.545C2119.73,-336.793 2099.81,-322.881 2083.03,-311.166"/>
<polygon fill="midnightblue" stroke="midnightblue" points="2134.83,-351.613 2145.04,-354.47 2138.84,-345.875 2134.83,-351.613"/>
</g>
<!-- Node10&#45;&gt;Node8 -->
<g id="edge11" class="edge"><title>Node10&#45;&gt;Node8</title>
<path fill="none" stroke="midnightblue" d="M2348.85,-309.309C2312.94,-323.389 2266.26,-341.13 2229.99,-354.47"/>
<polygon fill="midnightblue" stroke="midnightblue" points="2350.18,-312.546 2358.21,-305.627 2347.62,-306.032 2350.18,-312.546"/>
</g>
<!-- Node12 -->
<g id="node12" class="node"><title>Node12</title>
<g id="a_node12"><a xlink:href="FileData_8hpp.html" target="_top" xlink:title="/home/travis/build\l/STORM&#45;IRIT/Radium&#45;Engine\l/src/Core/File/FileData.hpp">
<polygon fill="white" stroke="black" points="1106,-174.5 1106,-215.5 1254,-215.5 1254,-174.5 1106,-174.5"/>
<text text-anchor="start" x="1114" y="-203.5" font-family="Helvetica,sans-Serif" font-size="10.00">/home/travis/build</text>
<text text-anchor="start" x="1114" y="-192.5" font-family="Helvetica,sans-Serif" font-size="10.00">/STORM&#45;IRIT/Radium&#45;Engine</text>
<text text-anchor="middle" x="1180" y="-181.5" font-family="Helvetica,sans-Serif" font-size="10.00">/src/Core/File/FileData.hpp</text>
</a>
</g>
</g>
<!-- Node11&#45;&gt;Node12 -->
<g id="edge13" class="edge"><title>Node11&#45;&gt;Node12</title>
<path fill="none" stroke="midnightblue" d="M1806.28,-261.781C1800.8,-260.37 1795.33,-259.084 1790,-258 1599.37,-219.213 1370.05,-204.208 1254.42,-198.797"/>
<polygon fill="midnightblue" stroke="midnightblue" points="1805.53,-265.205 1816.1,-264.438 1807.36,-258.448 1805.53,-265.205"/>
</g>
<!-- Node13 -->
<g id="node13" class="node"><title>Node13</title>
<g id="a_node13"><a xlink:href="FileData_8cpp.html" target="_top" xlink:title="/home/travis/build\l/STORM&#45;IRIT/Radium&#45;Engine\l/src/Core/File/FileData.cpp">
<polygon fill="white" stroke="black" points="1691,-84.5 1691,-125.5 1839,-125.5 1839,-84.5 1691,-84.5"/>
<text text-anchor="start" x="1699" y="-113.5" font-family="Helvetica,sans-Serif" font-size="10.00">/home/travis/build</text>
<text text-anchor="start" x="1699" y="-102.5" font-family="Helvetica,sans-Serif" font-size="10.00">/STORM&#45;IRIT/Radium&#45;Engine</text>
<text text-anchor="middle" x="1765" y="-91.5" font-family="Helvetica,sans-Serif" font-size="10.00">/src/Core/File/FileData.cpp</text>
</a>
</g>
</g>
<!-- Node12&#45;&gt;Node13 -->
<g id="edge14" class="edge"><title>Node12&#45;&gt;Node13</title>
<path fill="none" stroke="midnightblue" d="M1264.36,-188.259C1364.75,-180.355 1537,-163.396 1682,-132 1690.26,-130.211 1698.89,-127.96 1707.31,-125.535"/>
<polygon fill="midnightblue" stroke="midnightblue" points="1263.98,-184.778 1254.28,-189.042 1264.52,-191.757 1263.98,-184.778"/>
</g>
<!-- Node14 -->
<g id="node14" class="node"><title>Node14</title>
<g id="a_node14"><a xlink:href="LightManager_8cpp.html" target="_top" xlink:title="/home/travis/build\l/STORM&#45;IRIT/Radium&#45;Engine\l/src/Engine/Managers/LightManager\l/LightManager.cpp">
<polygon fill="white" stroke="black" points="1857.5,-79 1857.5,-131 2030.5,-131 2030.5,-79 1857.5,-79"/>
<text text-anchor="start" x="1865.5" y="-119" font-family="Helvetica,sans-Serif" font-size="10.00">/home/travis/build</text>
<text text-anchor="start" x="1865.5" y="-108" font-family="Helvetica,sans-Serif" font-size="10.00">/STORM&#45;IRIT/Radium&#45;Engine</text>
<text text-anchor="start" x="1865.5" y="-97" font-family="Helvetica,sans-Serif" font-size="10.00">/src/Engine/Managers/LightManager</text>
<text text-anchor="middle" x="1944" y="-86" font-family="Helvetica,sans-Serif" font-size="10.00">/LightManager.cpp</text>
</a>
</g>
</g>
<!-- Node12&#45;&gt;Node14 -->
<g id="edge15" class="edge"><title>Node12&#45;&gt;Node14</title>
<path fill="none" stroke="midnightblue" d="M1264.27,-190.825C1391.58,-184.986 1640.15,-169.504 1848,-132 1851.06,-131.448 1854.16,-130.845 1857.29,-130.201"/>
<polygon fill="midnightblue" stroke="midnightblue" points="1264.03,-187.333 1254.2,-191.279 1264.35,-194.326 1264.03,-187.333"/>
</g>
<!-- Node15 -->
<g id="node15" class="node"><title>Node15</title>
<g id="a_node15"><a xlink:href="RadiumEngine_8cpp.html" target="_top" xlink:title="/home/travis/build\l/STORM&#45;IRIT/Radium&#45;Engine\l/src/Engine/RadiumEngine.cpp">
<polygon fill="white" stroke="black" points="0,-84.5 0,-125.5 152,-125.5 152,-84.5 0,-84.5"/>
<text text-anchor="start" x="8" y="-113.5" font-family="Helvetica,sans-Serif" font-size="10.00">/home/travis/build</text>
<text text-anchor="start" x="8" y="-102.5" font-family="Helvetica,sans-Serif" font-size="10.00">/STORM&#45;IRIT/Radium&#45;Engine</text>
<text text-anchor="middle" x="76" y="-91.5" font-family="Helvetica,sans-Serif" font-size="10.00">/src/Engine/RadiumEngine.cpp</text>
</a>
</g>
</g>
<!-- Node12&#45;&gt;Node15 -->
<g id="edge16" class="edge"><title>Node12&#45;&gt;Node15</title>
<path fill="none" stroke="midnightblue" d="M1095.75,-191.435C885.101,-184.61 339.679,-164.294 161,-132 152.04,-130.381 142.696,-128.127 133.619,-125.617"/>
<polygon fill="midnightblue" stroke="midnightblue" points="1095.72,-194.936 1105.82,-191.759 1095.94,-187.939 1095.72,-194.936"/>
</g>
<!-- Node16 -->
<g id="node16" class="node"><title>Node16</title>
<g id="a_node16"><a xlink:href="Renderer_8cpp.html" target="_top" xlink:title="/home/travis/build\l/STORM&#45;IRIT/Radium&#45;Engine\l/src/Engine/Renderer/Renderer.cpp">
<polygon fill="white" stroke="black" points="170,-84.5 170,-125.5 340,-125.5 340,-84.5 170,-84.5"/>
<text text-anchor="start" x="178" y="-113.5" font-family="Helvetica,sans-Serif" font-size="10.00">/home/travis/build</text>
<text text-anchor="start" x="178" y="-102.5" font-family="Helvetica,sans-Serif" font-size="10.00">/STORM&#45;IRIT/Radium&#45;Engine</text>
<text text-anchor="middle" x="255" y="-91.5" font-family="Helvetica,sans-Serif" font-size="10.00">/src/Engine/Renderer/Renderer.cpp</text>
</a>
</g>
</g>
<!-- Node12&#45;&gt;Node16 -->
<g id="edge17" class="edge"><title>Node12&#45;&gt;Node16</title>
<path fill="none" stroke="midnightblue" d="M1095.64,-193.131C944.739,-190.375 619.129,-178.97 349,-132 339.241,-130.303 329.034,-128.024 319.092,-125.517"/>
<polygon fill="midnightblue" stroke="midnightblue" points="1095.7,-196.632 1105.76,-193.307 1095.82,-189.633 1095.7,-196.632"/>
</g>
<!-- Node17 -->
<g id="node17" class="node"><title>Node17</title>
<g id="a_node17"><a xlink:href="Viewer_8cpp.html" target="_top" xlink:title="/home/travis/build\l/STORM&#45;IRIT/Radium&#45;Engine\l/src/GuiBase/Viewer/Viewer.cpp">
<polygon fill="white" stroke="black" points="358,-84.5 358,-125.5 516,-125.5 516,-84.5 358,-84.5"/>
<text text-anchor="start" x="366" y="-113.5" font-family="Helvetica,sans-Serif" font-size="10.00">/home/travis/build</text>
<text text-anchor="start" x="366" y="-102.5" font-family="Helvetica,sans-Serif" font-size="10.00">/STORM&#45;IRIT/Radium&#45;Engine</text>
<text text-anchor="middle" x="437" y="-91.5" font-family="Helvetica,sans-Serif" font-size="10.00">/src/GuiBase/Viewer/Viewer.cpp</text>
</a>
</g>
</g>
<!-- Node12&#45;&gt;Node17 -->
<g id="edge18" class="edge"><title>Node12&#45;&gt;Node17</title>
<path fill="none" stroke="midnightblue" d="M1095.36,-191.2C969.832,-185.877 727.35,-171.09 525,-132 516.084,-130.278 506.776,-128.033 497.693,-125.585"/>
<polygon fill="midnightblue" stroke="midnightblue" points="1095.53,-194.71 1105.67,-191.627 1095.82,-187.716 1095.53,-194.71"/>
</g>
<!-- Node18 -->
<g id="node18" class="node"><title>Node18</title>
<g id="a_node18"><a xlink:href="AssimpFileLoader_8cpp.html" target="_top" xlink:title="/home/travis/build\l/STORM&#45;IRIT/Radium&#45;Engine\l/src/IO/AssimpLoader/AssimpFile\lLoader.cpp">
<polygon fill="white" stroke="black" points="534,-79 534,-131 698,-131 698,-79 534,-79"/>
<text text-anchor="start" x="542" y="-119" font-family="Helvetica,sans-Serif" font-size="10.00">/home/travis/build</text>
<text text-anchor="start" x="542" y="-108" font-family="Helvetica,sans-Serif" font-size="10.00">/STORM&#45;IRIT/Radium&#45;Engine</text>
<text text-anchor="start" x="542" y="-97" font-family="Helvetica,sans-Serif" font-size="10.00">/src/IO/AssimpLoader/AssimpFile</text>
<text text-anchor="middle" x="616" y="-86" font-family="Helvetica,sans-Serif" font-size="10.00">Loader.cpp</text>
</a>
</g>
</g>
<!-- Node12&#45;&gt;Node18 -->
<g id="edge19" class="edge"><title>Node12&#45;&gt;Node18</title>
<path fill="none" stroke="midnightblue" d="M1095.56,-186.735C1000.45,-177.673 841.584,-159.887 707,-132 704.104,-131.4 701.165,-130.756 698.204,-130.076"/>
<polygon fill="midnightblue" stroke="midnightblue" points="1095.41,-190.236 1105.7,-187.69 1096.07,-183.267 1095.41,-190.236"/>
</g>
<!-- Node19 -->
<g id="node19" class="node"><title>Node19</title>
<g id="a_node19"><a xlink:href="TinyPlyFileLoader_8cpp.html" target="_top" xlink:title="/home/travis/build\l/STORM&#45;IRIT/Radium&#45;Engine\l/src/IO/TinyPlyLoader/TinyPlyFile\lLoader.cpp">
<polygon fill="white" stroke="black" points="716,-79 716,-131 880,-131 880,-79 716,-79"/>
<text text-anchor="start" x="724" y="-119" font-family="Helvetica,sans-Serif" font-size="10.00">/home/travis/build</text>
<text text-anchor="start" x="724" y="-108" font-family="Helvetica,sans-Serif" font-size="10.00">/STORM&#45;IRIT/Radium&#45;Engine</text>
<text text-anchor="start" x="724" y="-97" font-family="Helvetica,sans-Serif" font-size="10.00">/src/IO/TinyPlyLoader/TinyPlyFile</text>
<text text-anchor="middle" x="798" y="-86" font-family="Helvetica,sans-Serif" font-size="10.00">Loader.cpp</text>
</a>
</g>
</g>
<!-- Node12&#45;&gt;Node19 -->
<g id="edge20" class="edge"><title>Node12&#45;&gt;Node19</title>
<path fill="none" stroke="midnightblue" d="M1095.92,-177.671C1037.62,-165.96 958.297,-149.26 889,-132 886.13,-131.285 883.214,-130.542 880.272,-129.779"/>
<polygon fill="midnightblue" stroke="midnightblue" points="1095.33,-181.122 1105.83,-179.652 1096.71,-174.258 1095.33,-181.122"/>
</g>
<!-- Node20 -->
<g id="node20" class="node"><title>Node20</title>
<g id="a_node20"><a xlink:href="AnimationSystem_8cpp.html" target="_top" xlink:title="/home/travis/build\l/STORM&#45;IRIT/Radium&#45;Engine\l/Plugins/Animation/src/Animation\lSystem.cpp">
<polygon fill="white" stroke="black" points="2048.5,-79 2048.5,-131 2209.5,-131 2209.5,-79 2048.5,-79"/>
<text text-anchor="start" x="2056.5" y="-119" font-family="Helvetica,sans-Serif" font-size="10.00">/home/travis/build</text>
<text text-anchor="start" x="2056.5" y="-108" font-family="Helvetica,sans-Serif" font-size="10.00">/STORM&#45;IRIT/Radium&#45;Engine</text>
<text text-anchor="start" x="2056.5" y="-97" font-family="Helvetica,sans-Serif" font-size="10.00">/Plugins/Animation/src/Animation</text>
<text text-anchor="middle" x="2129" y="-86" font-family="Helvetica,sans-Serif" font-size="10.00">System.cpp</text>
</a>
</g>
</g>
<!-- Node12&#45;&gt;Node20 -->
<g id="edge21" class="edge"><title>Node12&#45;&gt;Node20</title>
<path fill="none" stroke="midnightblue" d="M1264.56,-193.734C1419.42,-191.958 1758.42,-182.084 2039,-132 2042.04,-131.457 2045.13,-130.851 2048.24,-130.195"/>
<polygon fill="midnightblue" stroke="midnightblue" points="1264.15,-190.238 1254.18,-193.844 1264.22,-197.238 1264.15,-190.238"/>
</g>
<!-- Node21 -->
<g id="node21" class="node"><title>Node21</title>
<g id="a_node21"><a xlink:href="FancyMeshComponent_8cpp.html" target="_top" xlink:title="/home/travis/build\l/STORM&#45;IRIT/Radium&#45;Engine\l/Plugins/FancyMesh/src/FancyMesh\lComponent.cpp">
<polygon fill="white" stroke="black" points="898,-79 898,-131 1074,-131 1074,-79 898,-79"/>
<text text-anchor="start" x="906" y="-119" font-family="Helvetica,sans-Serif" font-size="10.00">/home/travis/build</text>
<text text-anchor="start" x="906" y="-108" font-family="Helvetica,sans-Serif" font-size="10.00">/STORM&#45;IRIT/Radium&#45;Engine</text>
<text text-anchor="start" x="906" y="-97" font-family="Helvetica,sans-Serif" font-size="10.00">/Plugins/FancyMesh/src/FancyMesh</text>
<text text-anchor="middle" x="986" y="-86" font-family="Helvetica,sans-Serif" font-size="10.00">Component.cpp</text>
</a>
</g>
</g>
<!-- Node12&#45;&gt;Node21 -->
<g id="edge22" class="edge"><title>Node12&#45;&gt;Node21</title>
<path fill="none" stroke="midnightblue" d="M1127.73,-170.289C1100.93,-158.135 1068.31,-143.336 1041.12,-131.002"/>
<polygon fill="midnightblue" stroke="midnightblue" points="1126.39,-173.526 1136.95,-174.47 1129.28,-167.152 1126.39,-173.526"/>
</g>
<!-- Node22 -->
<g id="node22" class="node"><title>Node22</title>
<g id="a_node22"><a xlink:href="FancyMeshSystem_8cpp.html" target="_top" xlink:title="/home/travis/build\l/STORM&#45;IRIT/Radium&#45;Engine\l/Plugins/FancyMesh/src/FancyMesh\lSystem.cpp">
<polygon fill="white" stroke="black" points="1092,-79 1092,-131 1268,-131 1268,-79 1092,-79"/>
<text text-anchor="start" x="1100" y="-119" font-family="Helvetica,sans-Serif" font-size="10.00">/home/travis/build</text>
<text text-anchor="start" x="1100" y="-108" font-family="Helvetica,sans-Serif" font-size="10.00">/STORM&#45;IRIT/Radium&#45;Engine</text>
<text text-anchor="start" x="1100" y="-97" font-family="Helvetica,sans-Serif" font-size="10.00">/Plugins/FancyMesh/src/FancyMesh</text>
<text text-anchor="middle" x="1180" y="-86" font-family="Helvetica,sans-Serif" font-size="10.00">System.cpp</text>
</a>
</g>
</g>
<!-- Node12&#45;&gt;Node22 -->
<g id="edge23" class="edge"><title>Node12&#45;&gt;Node22</title>
<path fill="none" stroke="midnightblue" d="M1180,-164.255C1180,-153.506 1180,-141.484 1180,-131.166"/>
<polygon fill="midnightblue" stroke="midnightblue" points="1176.5,-164.47 1180,-174.47 1183.5,-164.47 1176.5,-164.47"/>
</g>
<!-- Node23 -->
<g id="node23" class="node"><title>Node23</title>
<g id="a_node23"><a xlink:href="MeshPaintSystem_8cpp.html" target="_top" xlink:title="/home/travis/build\l/STORM&#45;IRIT/Radium&#45;Engine\l/Plugins/MeshPaint/src/MeshPaint\lSystem.cpp">
<polygon fill="white" stroke="black" points="1285.5,-79 1285.5,-131 1452.5,-131 1452.5,-79 1285.5,-79"/>
<text text-anchor="start" x="1293.5" y="-119" font-family="Helvetica,sans-Serif" font-size="10.00">/home/travis/build</text>
<text text-anchor="start" x="1293.5" y="-108" font-family="Helvetica,sans-Serif" font-size="10.00">/STORM&#45;IRIT/Radium&#45;Engine</text>
<text text-anchor="start" x="1293.5" y="-97" font-family="Helvetica,sans-Serif" font-size="10.00">/Plugins/MeshPaint/src/MeshPaint</text>
<text text-anchor="middle" x="1369" y="-86" font-family="Helvetica,sans-Serif" font-size="10.00">System.cpp</text>
</a>
</g>
</g>
<!-- Node12&#45;&gt;Node23 -->
<g id="edge24" class="edge"><title>Node12&#45;&gt;Node23</title>
<path fill="none" stroke="midnightblue" d="M1231.27,-170.13C1257.31,-158.006 1288.93,-143.282 1315.3,-131.002"/>
<polygon fill="midnightblue" stroke="midnightblue" points="1229.53,-167.076 1221.95,-174.47 1232.49,-173.422 1229.53,-167.076"/>
</g>
<!-- Node24 -->
<g id="node24" class="node"><title>Node24</title>
<g id="a_node24"><a xlink:href="SkinningSystem_8hpp.html" target="_top" xlink:title="/home/travis/build\l/STORM&#45;IRIT/Radium&#45;Engine\l/Plugins/Skinning/src/SkinningSystem.hpp">
<polygon fill="white" stroke="black" points="1471,-84.5 1471,-125.5 1673,-125.5 1673,-84.5 1471,-84.5"/>
<text text-anchor="start" x="1479" y="-113.5" font-family="Helvetica,sans-Serif" font-size="10.00">/home/travis/build</text>
<text text-anchor="start" x="1479" y="-102.5" font-family="Helvetica,sans-Serif" font-size="10.00">/STORM&#45;IRIT/Radium&#45;Engine</text>
<text text-anchor="middle" x="1572" y="-91.5" font-family="Helvetica,sans-Serif" font-size="10.00">/Plugins/Skinning/src/SkinningSystem.hpp</text>
</a>
</g>
</g>
<!-- Node12&#45;&gt;Node24 -->
<g id="edge25" class="edge"><title>Node12&#45;&gt;Node24</title>
<path fill="none" stroke="midnightblue" d="M1263.87,-175.792C1319.76,-163.586 1394.82,-147.05 1461,-132 1470.07,-129.937 1479.55,-127.755 1488.99,-125.568"/>
<polygon fill="midnightblue" stroke="midnightblue" points="1263.04,-172.391 1254.01,-177.943 1264.53,-179.23 1263.04,-172.391"/>
</g>
<!-- Node25 -->
<g id="node25" class="node"><title>Node25</title>
<g id="a_node25"><a xlink:href="SkinningPlugin_8cpp.html" target="_top" xlink:title="/home/travis/build\l/STORM&#45;IRIT/Radium&#45;Engine\l/Plugins/Skinning/src/SkinningPlugin.cpp">
<polygon fill="white" stroke="black" points="1474.5,-0.5 1474.5,-41.5 1669.5,-41.5 1669.5,-0.5 1474.5,-0.5"/>
<text text-anchor="start" x="1482.5" y="-29.5" font-family="Helvetica,sans-Serif" font-size="10.00">/home/travis/build</text>
<text text-anchor="start" x="1482.5" y="-18.5" font-family="Helvetica,sans-Serif" font-size="10.00">/STORM&#45;IRIT/Radium&#45;Engine</text>
<text text-anchor="middle" x="1572" y="-7.5" font-family="Helvetica,sans-Serif" font-size="10.00">/Plugins/Skinning/src/SkinningPlugin.cpp</text>
</a>
</g>
</g>
<!-- Node24&#45;&gt;Node25 -->
<g id="edge26" class="edge"><title>Node24&#45;&gt;Node25</title>
<path fill="none" stroke="midnightblue" d="M1572,-73.881C1572,-63.1328 1572,-51.309 1572,-41.6671"/>
<polygon fill="midnightblue" stroke="midnightblue" points="1568.5,-74.1501 1572,-84.1501 1575.5,-74.1501 1568.5,-74.1501"/>
</g>
<!-- Node26&#45;&gt;Node3 -->
<g id="edge29" class="edge"><title>Node26&#45;&gt;Node3</title>
<path fill="none" stroke="midnightblue" d="M2137.85,-257.817C2197.33,-241.68 2214.94,-242.239 2269,-222 2338.99,-195.794 2416.19,-156.487 2463.65,-131.038"/>
<polygon fill="midnightblue" stroke="midnightblue" points="2136.64,-254.52 2127.94,-260.556 2138.51,-261.268 2136.64,-254.52"/>
</g>
<!-- Node26&#45;&gt;Node20 -->
<g id="edge30" class="edge"><title>Node26&#45;&gt;Node20</title>
<path fill="none" stroke="midnightblue" d="M2061.15,-249.459C2070.84,-226.244 2084.2,-195.061 2097,-168 2102.8,-155.736 2109.65,-142.335 2115.52,-131.141"/>
<polygon fill="midnightblue" stroke="midnightblue" points="2057.84,-248.307 2057.23,-258.885 2064.3,-250.993 2057.84,-248.307"/>
</g>
<!-- Node27 -->
<g id="node27" class="node"><title>Node27</title>
<g id="a_node27"><a xlink:href="SkeletonBoneDrawable_8hpp.html" target="_top" xlink:title="/home/travis/build\l/STORM&#45;IRIT/Radium&#45;Engine\l/Plugins/Animation/src/Drawing\l/SkeletonBoneDrawable.hpp">
<polygon fill="white" stroke="black" points="2106,-169 2106,-221 2260,-221 2260,-169 2106,-169"/>
<text text-anchor="start" x="2114" y="-209" font-family="Helvetica,sans-Serif" font-size="10.00">/home/travis/build</text>
<text text-anchor="start" x="2114" y="-198" font-family="Helvetica,sans-Serif" font-size="10.00">/STORM&#45;IRIT/Radium&#45;Engine</text>
<text text-anchor="start" x="2114" y="-187" font-family="Helvetica,sans-Serif" font-size="10.00">/Plugins/Animation/src/Drawing</text>
<text text-anchor="middle" x="2183" y="-176" font-family="Helvetica,sans-Serif" font-size="10.00">/SkeletonBoneDrawable.hpp</text>
</a>
</g>
</g>
<!-- Node26&#45;&gt;Node27 -->
<g id="edge31" class="edge"><title>Node26&#45;&gt;Node27</title>
<path fill="none" stroke="midnightblue" d="M2094.73,-253.114C2110.86,-242.68 2128.66,-231.163 2144.02,-221.221"/>
<polygon fill="midnightblue" stroke="midnightblue" points="2092.47,-250.412 2085.97,-258.783 2096.27,-256.289 2092.47,-250.412"/>
</g>
<!-- Node27&#45;&gt;Node3 -->
<g id="edge32" class="edge"><title>Node27&#45;&gt;Node3</title>
<path fill="none" stroke="midnightblue" d="M2269.93,-170.535C2319.11,-157.259 2380.2,-140.767 2428.32,-127.778"/>
<polygon fill="midnightblue" stroke="midnightblue" points="2269,-167.16 2260.26,-173.145 2270.82,-173.918 2269,-167.16"/>
</g>
<!-- Node27&#45;&gt;Node20 -->
<g id="edge33" class="edge"><title>Node27&#45;&gt;Node20</title>
<path fill="none" stroke="midnightblue" d="M2162.12,-159.965C2156.22,-150.354 2149.91,-140.074 2144.4,-131.092"/>
<polygon fill="midnightblue" stroke="midnightblue" points="2159.17,-161.854 2167.38,-168.547 2165.13,-158.193 2159.17,-161.854"/>
</g>
<!-- Node28 -->
<g id="node28" class="node"><title>Node28</title>
<g id="a_node28"><a xlink:href="SkeletonBoneDrawable_8cpp.html" target="_top" xlink:title="/home/travis/build\l/STORM&#45;IRIT/Radium&#45;Engine\l/Plugins/Animation/src/Drawing\l/SkeletonBoneDrawable.cpp">
<polygon fill="white" stroke="black" points="2228,-79 2228,-131 2382,-131 2382,-79 2228,-79"/>
<text text-anchor="start" x="2236" y="-119" font-family="Helvetica,sans-Serif" font-size="10.00">/home/travis/build</text>
<text text-anchor="start" x="2236" y="-108" font-family="Helvetica,sans-Serif" font-size="10.00">/STORM&#45;IRIT/Radium&#45;Engine</text>
<text text-anchor="start" x="2236" y="-97" font-family="Helvetica,sans-Serif" font-size="10.00">/Plugins/Animation/src/Drawing</text>
<text text-anchor="middle" x="2305" y="-86" font-family="Helvetica,sans-Serif" font-size="10.00">/SkeletonBoneDrawable.cpp</text>
</a>
</g>
</g>
<!-- Node27&#45;&gt;Node28 -->
<g id="edge34" class="edge"><title>Node27&#45;&gt;Node28</title>
<path fill="none" stroke="midnightblue" d="M2226.22,-162.824C2240.58,-152.467 2256.38,-141.071 2270.03,-131.221"/>
<polygon fill="midnightblue" stroke="midnightblue" points="2224.02,-160.094 2217.96,-168.783 2228.12,-165.771 2224.02,-160.094"/>
</g>
<!-- Node29&#45;&gt;Node5 -->
<g id="edge37" class="edge"><title>Node29&#45;&gt;Node5</title>
<path fill="none" stroke="midnightblue" d="M1912.18,-432.749C1879.65,-408.806 1833.12,-375.35 1791,-348 1771.47,-335.317 1749.34,-322.087 1730.44,-311.121"/>
<polygon fill="midnightblue" stroke="midnightblue" points="1910.43,-435.806 1920.55,-438.928 1914.59,-430.174 1910.43,-435.806"/>
</g>
</g>
</svg>
