<?xml version="1.0" encoding="UTF-8" standalone="no"?>
<!DOCTYPE svg PUBLIC "-//W3C//DTD SVG 1.1//EN"
 "http://www.w3.org/Graphics/SVG/1.1/DTD/svg11.dtd">
<!-- Generated by graphviz version 2.36.0 (20140111.2315)
 -->
<!-- Title: /home/travis/build/STORM&#45;IRIT/Radium&#45;Engine/src/Core/File/KeyFrame/KeyTransform.hpp Pages: 1 -->
<svg width="2570pt" height="488pt"
 viewBox="0.00 0.00 2570.00 488.00" xmlns="http://www.w3.org/2000/svg" xmlns:xlink="http://www.w3.org/1999/xlink">
<g id="graph0" class="graph" transform="scale(1 1) rotate(0) translate(4 484)">
<title>/home/travis/build/STORM&#45;IRIT/Radium&#45;Engine/src/Core/File/KeyFrame/KeyTransform.hpp</title>
<polygon fill="white" stroke="none" points="-4,4 -4,-484 2566,-484 2566,4 -4,4"/>
<!-- Node1 -->
<g id="node1" class="node"><title>Node1</title>
<polygon fill="#bfbfbf" stroke="black" points="2166,-427 2166,-479 2314,-479 2314,-427 2166,-427"/>
<text text-anchor="start" x="2174" y="-467" font-family="Helvetica,sans-Serif" font-size="10.00">/home/travis/build</text>
<text text-anchor="start" x="2174" y="-456" font-family="Helvetica,sans-Serif" font-size="10.00">/STORM&#45;IRIT/Radium&#45;Engine</text>
<text text-anchor="start" x="2174" y="-445" font-family="Helvetica,sans-Serif" font-size="10.00">/src/Core/File/KeyFrame</text>
<text text-anchor="middle" x="2240" y="-434" font-family="Helvetica,sans-Serif" font-size="10.00">/KeyTransform.hpp</text>
</g>
<!-- Node2 -->
<g id="node2" class="node"><title>Node2</title>
<g id="a_node2"><a xlink:href="AnimationData_8hpp.html" target="_top" xlink:title="/home/travis/build\l/STORM&#45;IRIT/Radium&#45;Engine\l/src/Core/File/AnimationData.hpp">
<polygon fill="white" stroke="black" points="1918,-348.5 1918,-389.5 2080,-389.5 2080,-348.5 1918,-348.5"/>
<text text-anchor="start" x="1926" y="-377.5" font-family="Helvetica,sans-Serif" font-size="10.00">/home/travis/build</text>
<text text-anchor="start" x="1926" y="-366.5" font-family="Helvetica,sans-Serif" font-size="10.00">/STORM&#45;IRIT/Radium&#45;Engine</text>
<text text-anchor="middle" x="1999" y="-355.5" font-family="Helvetica,sans-Serif" font-size="10.00">/src/Core/File/AnimationData.hpp</text>
</a>
</g>
</g>
<!-- Node1&#45;&gt;Node2 -->
<g id="edge1" class="edge"><title>Node1&#45;&gt;Node2</title>
<path fill="none" stroke="midnightblue" d="M2156.73,-423.666C2123.67,-412.419 2086.47,-399.761 2056.5,-389.565"/>
<polygon fill="midnightblue" stroke="midnightblue" points="2155.79,-427.044 2166.38,-426.952 2158.04,-420.417 2155.79,-427.044"/>
</g>
<!-- Node22 -->
<g id="node22" class="node"><title>Node22</title>
<g id="a_node22"><a xlink:href="AnimationComponent_8cpp.html" target="_top" xlink:title="/home/travis/build\l/STORM&#45;IRIT/Radium&#45;Engine\l/Plugins/Animation/src/Animation\lComponent.cpp">
<polygon fill="white" stroke="black" points="2401.5,-79 2401.5,-131 2562.5,-131 2562.5,-79 2401.5,-79"/>
<text text-anchor="start" x="2409.5" y="-119" font-family="Helvetica,sans-Serif" font-size="10.00">/home/travis/build</text>
<text text-anchor="start" x="2409.5" y="-108" font-family="Helvetica,sans-Serif" font-size="10.00">/STORM&#45;IRIT/Radium&#45;Engine</text>
<text text-anchor="start" x="2409.5" y="-97" font-family="Helvetica,sans-Serif" font-size="10.00">/Plugins/Animation/src/Animation</text>
<text text-anchor="middle" x="2482" y="-86" font-family="Helvetica,sans-Serif" font-size="10.00">Component.cpp</text>
</a>
</g>
</g>
<!-- Node1&#45;&gt;Node22 -->
<g id="edge28" class="edge"><title>Node1&#45;&gt;Node22</title>
<path fill="none" stroke="midnightblue" d="M2321.17,-422.763C2370.82,-400.407 2430.79,-364.411 2463,-312 2497.98,-255.086 2492.16,-172.129 2486.36,-131.018"/>
<polygon fill="midnightblue" stroke="midnightblue" points="2319.46,-419.691 2311.71,-426.916 2322.28,-426.101 2319.46,-419.691"/>
</g>
<!-- Node3 -->
<g id="node3" class="node"><title>Node3</title>
<g id="a_node3"><a xlink:href="AnimationData_8cpp.html" target="_top" xlink:title="/home/travis/build\l/STORM&#45;IRIT/Radium&#45;Engine\l/src/Core/File/AnimationData.cpp">
<polygon fill="white" stroke="black" points="2292,-264.5 2292,-305.5 2454,-305.5 2454,-264.5 2292,-264.5"/>
<text text-anchor="start" x="2300" y="-293.5" font-family="Helvetica,sans-Serif" font-size="10.00">/home/travis/build</text>
<text text-anchor="start" x="2300" y="-282.5" font-family="Helvetica,sans-Serif" font-size="10.00">/STORM&#45;IRIT/Radium&#45;Engine</text>
<text text-anchor="middle" x="2373" y="-271.5" font-family="Helvetica,sans-Serif" font-size="10.00">/src/Core/File/AnimationData.cpp</text>
</a>
</g>
</g>
<!-- Node2&#45;&gt;Node3 -->
<g id="edge2" class="edge"><title>Node2&#45;&gt;Node3</title>
<path fill="none" stroke="midnightblue" d="M2090.05,-351.969C2145.73,-341.673 2218.27,-327.381 2282,-312 2290.15,-310.034 2298.66,-307.819 2307.07,-305.533"/>
<polygon fill="midnightblue" stroke="midnightblue" points="2089.41,-348.528 2080.2,-353.78 2090.67,-355.412 2089.41,-348.528"/>
</g>
<!-- Node4 -->
<g id="node4" class="node"><title>Node4</title>
<g id="a_node4"><a xlink:href="AnimationData_8inl.html" target="_top" xlink:title="/home/travis/build\l/STORM&#45;IRIT/Radium&#45;Engine\l/src/Core/File/AnimationData.inl">
<polygon fill="white" stroke="black" points="1563,-264.5 1563,-305.5 1719,-305.5 1719,-264.5 1563,-264.5"/>
<text text-anchor="start" x="1571" y="-293.5" font-family="Helvetica,sans-Serif" font-size="10.00">/home/travis/build</text>
<text text-anchor="start" x="1571" y="-282.5" font-family="Helvetica,sans-Serif" font-size="10.00">/STORM&#45;IRIT/Radium&#45;Engine</text>
<text text-anchor="middle" x="1641" y="-271.5" font-family="Helvetica,sans-Serif" font-size="10.00">/src/Core/File/AnimationData.inl</text>
</a>
</g>
</g>
<!-- Node2&#45;&gt;Node4 -->
<g id="edge3" class="edge"><title>Node2&#45;&gt;Node4</title>
<path fill="none" stroke="midnightblue" d="M1907.74,-352.676C1852.66,-342.332 1781.38,-327.735 1719,-312 1711.2,-310.034 1703.06,-307.819 1695.09,-305.533"/>
<polygon fill="midnightblue" stroke="midnightblue" points="1907.35,-356.165 1917.83,-354.557 1908.64,-349.283 1907.35,-356.165"/>
</g>
<!-- Node5 -->
<g id="node5" class="node"><title>Node5</title>
<g id="a_node5"><a xlink:href="FileData_8inl.html" target="_top" xlink:title="/home/travis/build\l/STORM&#45;IRIT/Radium&#45;Engine\l/src/Core/File/FileData.inl">
<polygon fill="white" stroke="black" points="1737,-264.5 1737,-305.5 1885,-305.5 1885,-264.5 1737,-264.5"/>
<text text-anchor="start" x="1745" y="-293.5" font-family="Helvetica,sans-Serif" font-size="10.00">/home/travis/build</text>
<text text-anchor="start" x="1745" y="-282.5" font-family="Helvetica,sans-Serif" font-size="10.00">/STORM&#45;IRIT/Radium&#45;Engine</text>
<text text-anchor="middle" x="1811" y="-271.5" font-family="Helvetica,sans-Serif" font-size="10.00">/src/Core/File/FileData.inl</text>
</a>
</g>
</g>
<!-- Node2&#45;&gt;Node5 -->
<g id="edge5" class="edge"><title>Node2&#45;&gt;Node5</title>
<path fill="none" stroke="midnightblue" d="M1944.67,-344.304C1916.55,-332.038 1882.62,-317.241 1855.99,-305.623"/>
<polygon fill="midnightblue" stroke="midnightblue" points="1943.4,-347.569 1953.97,-348.359 1946.2,-341.153 1943.4,-347.569"/>
</g>
<!-- Node20 -->
<g id="node20" class="node"><title>Node20</title>
<g id="a_node20"><a xlink:href="AssimpAnimationDataLoader_8cpp.html" target="_top" xlink:title="/home/travis/build\l/STORM&#45;IRIT/Radium&#45;Engine\l/src/IO/AssimpLoader/AssimpAnimation\lDataLoader.cpp">
<polygon fill="white" stroke="black" points="1903.5,-259 1903.5,-311 2094.5,-311 2094.5,-259 1903.5,-259"/>
<text text-anchor="start" x="1911.5" y="-299" font-family="Helvetica,sans-Serif" font-size="10.00">/home/travis/build</text>
<text text-anchor="start" x="1911.5" y="-288" font-family="Helvetica,sans-Serif" font-size="10.00">/STORM&#45;IRIT/Radium&#45;Engine</text>
<text text-anchor="start" x="1911.5" y="-277" font-family="Helvetica,sans-Serif" font-size="10.00">/src/IO/AssimpLoader/AssimpAnimation</text>
<text text-anchor="middle" x="1999" y="-266" font-family="Helvetica,sans-Serif" font-size="10.00">DataLoader.cpp</text>
</a>
</g>
</g>
<!-- Node2&#45;&gt;Node20 -->
<g id="edge20" class="edge"><title>Node2&#45;&gt;Node20</title>
<path fill="none" stroke="midnightblue" d="M1999,-337.938C1999,-329.176 1999,-319.695 1999,-311.261"/>
<polygon fill="midnightblue" stroke="midnightblue" points="1995.5,-338.15 1999,-348.15 2002.5,-338.15 1995.5,-338.15"/>
</g>
<!-- Node21 -->
<g id="node21" class="node"><title>Node21</title>
<g id="a_node21"><a xlink:href="AnimationComponent_8hpp.html" target="_top" xlink:title="/home/travis/build\l/STORM&#45;IRIT/Radium&#45;Engine\l/Plugins/Animation/src/Animation\lComponent.hpp">
<polygon fill="white" stroke="black" points="2112.5,-259 2112.5,-311 2273.5,-311 2273.5,-259 2112.5,-259"/>
<text text-anchor="start" x="2120.5" y="-299" font-family="Helvetica,sans-Serif" font-size="10.00">/home/travis/build</text>
<text text-anchor="start" x="2120.5" y="-288" font-family="Helvetica,sans-Serif" font-size="10.00">/STORM&#45;IRIT/Radium&#45;Engine</text>
<text text-anchor="start" x="2120.5" y="-277" font-family="Helvetica,sans-Serif" font-size="10.00">/Plugins/Animation/src/Animation</text>
<text text-anchor="middle" x="2193" y="-266" font-family="Helvetica,sans-Serif" font-size="10.00">Component.hpp</text>
</a>
</g>
</g>
<!-- Node2&#45;&gt;Node21 -->
<g id="edge21" class="edge"><title>Node2&#45;&gt;Node21</title>
<path fill="none" stroke="midnightblue" d="M2054.71,-344.453C2079.43,-334.005 2108.54,-321.698 2133.67,-311.078"/>
<polygon fill="midnightblue" stroke="midnightblue" points="2053.32,-341.242 2045.47,-348.359 2056.04,-347.689 2053.32,-341.242"/>
</g>
<!-- Node4&#45;&gt;Node2 -->
<g id="edge4" class="edge"><title>Node4&#45;&gt;Node2</title>
<path fill="none" stroke="midnightblue" d="M1722.83,-308.272C1727.62,-309.577 1732.37,-310.832 1737,-312 1797.33,-327.217 1865.97,-341.368 1917.91,-351.639"/>
<polygon fill="midnightblue" stroke="midnightblue" points="1723.52,-304.832 1712.95,-305.533 1721.65,-311.578 1723.52,-304.832"/>
</g>
<!-- Node6 -->
<g id="node6" class="node"><title>Node6</title>
<g id="a_node6"><a xlink:href="FileData_8hpp.html" target="_top" xlink:title="/home/travis/build\l/STORM&#45;IRIT/Radium&#45;Engine\l/src/Core/File/FileData.hpp">
<polygon fill="white" stroke="black" points="1125,-174.5 1125,-215.5 1273,-215.5 1273,-174.5 1125,-174.5"/>
<text text-anchor="start" x="1133" y="-203.5" font-family="Helvetica,sans-Serif" font-size="10.00">/home/travis/build</text>
<text text-anchor="start" x="1133" y="-192.5" font-family="Helvetica,sans-Serif" font-size="10.00">/STORM&#45;IRIT/Radium&#45;Engine</text>
<text text-anchor="middle" x="1199" y="-181.5" font-family="Helvetica,sans-Serif" font-size="10.00">/src/Core/File/FileData.hpp</text>
</a>
</g>
</g>
<!-- Node5&#45;&gt;Node6 -->
<g id="edge6" class="edge"><title>Node5&#45;&gt;Node6</title>
<path fill="none" stroke="midnightblue" d="M1743.39,-261.685C1738.21,-260.325 1733.04,-259.075 1728,-258 1567.93,-223.862 1376.32,-207.292 1273.31,-200.316"/>
<polygon fill="midnightblue" stroke="midnightblue" points="1742.75,-265.139 1753.32,-264.418 1744.61,-258.39 1742.75,-265.139"/>
</g>
<!-- Node7 -->
<g id="node7" class="node"><title>Node7</title>
<g id="a_node7"><a xlink:href="FileData_8cpp.html" target="_top" xlink:title="/home/travis/build\l/STORM&#45;IRIT/Radium&#45;Engine\l/src/Core/File/FileData.cpp">
<polygon fill="white" stroke="black" points="1521,-84.5 1521,-125.5 1669,-125.5 1669,-84.5 1521,-84.5"/>
<text text-anchor="start" x="1529" y="-113.5" font-family="Helvetica,sans-Serif" font-size="10.00">/home/travis/build</text>
<text text-anchor="start" x="1529" y="-102.5" font-family="Helvetica,sans-Serif" font-size="10.00">/STORM&#45;IRIT/Radium&#45;Engine</text>
<text text-anchor="middle" x="1595" y="-91.5" font-family="Helvetica,sans-Serif" font-size="10.00">/src/Core/File/FileData.cpp</text>
</a>
</g>
</g>
<!-- Node6&#45;&gt;Node7 -->
<g id="edge7" class="edge"><title>Node6&#45;&gt;Node7</title>
<path fill="none" stroke="midnightblue" d="M1283.12,-179.883C1346.45,-168.64 1435.19,-151.578 1512,-132 1519.61,-130.061 1527.55,-127.836 1535.38,-125.523"/>
<polygon fill="midnightblue" stroke="midnightblue" points="1282.42,-176.452 1273.18,-181.636 1283.64,-183.346 1282.42,-176.452"/>
</g>
<!-- Node8 -->
<g id="node8" class="node"><title>Node8</title>
<g id="a_node8"><a xlink:href="LightManager_8cpp.html" target="_top" xlink:title="/home/travis/build\l/STORM&#45;IRIT/Radium&#45;Engine\l/src/Engine/Managers/LightManager\l/LightManager.cpp">
<polygon fill="white" stroke="black" points="1687.5,-79 1687.5,-131 1860.5,-131 1860.5,-79 1687.5,-79"/>
<text text-anchor="start" x="1695.5" y="-119" font-family="Helvetica,sans-Serif" font-size="10.00">/home/travis/build</text>
<text text-anchor="start" x="1695.5" y="-108" font-family="Helvetica,sans-Serif" font-size="10.00">/STORM&#45;IRIT/Radium&#45;Engine</text>
<text text-anchor="start" x="1695.5" y="-97" font-family="Helvetica,sans-Serif" font-size="10.00">/src/Engine/Managers/LightManager</text>
<text text-anchor="middle" x="1774" y="-86" font-family="Helvetica,sans-Serif" font-size="10.00">/LightManager.cpp</text>
</a>
</g>
</g>
<!-- Node6&#45;&gt;Node8 -->
<g id="edge8" class="edge"><title>Node6&#45;&gt;Node8</title>
<path fill="none" stroke="midnightblue" d="M1283.31,-186.582C1379.44,-177.319 1540.99,-159.29 1678,-132 1681.05,-131.393 1684.14,-130.743 1687.26,-130.058"/>
<polygon fill="midnightblue" stroke="midnightblue" points="1282.98,-183.098 1273.36,-187.533 1283.65,-190.066 1282.98,-183.098"/>
</g>
<!-- Node9 -->
<g id="node9" class="node"><title>Node9</title>
<g id="a_node9"><a xlink:href="RadiumEngine_8cpp.html" target="_top" xlink:title="/home/travis/build\l/STORM&#45;IRIT/Radium&#45;Engine\l/src/Engine/RadiumEngine.cpp">
<polygon fill="white" stroke="black" points="1879,-84.5 1879,-125.5 2031,-125.5 2031,-84.5 1879,-84.5"/>
<text text-anchor="start" x="1887" y="-113.5" font-family="Helvetica,sans-Serif" font-size="10.00">/home/travis/build</text>
<text text-anchor="start" x="1887" y="-102.5" font-family="Helvetica,sans-Serif" font-size="10.00">/STORM&#45;IRIT/Radium&#45;Engine</text>
<text text-anchor="middle" x="1955" y="-91.5" font-family="Helvetica,sans-Serif" font-size="10.00">/src/Engine/RadiumEngine.cpp</text>
</a>
</g>
</g>
<!-- Node6&#45;&gt;Node9 -->
<g id="edge9" class="edge"><title>Node6&#45;&gt;Node9</title>
<path fill="none" stroke="midnightblue" d="M1283.16,-191.639C1410.88,-186.839 1660.82,-172.671 1869,-132 1877.73,-130.295 1886.83,-128.061 1895.71,-125.617"/>
<polygon fill="midnightblue" stroke="midnightblue" points="1282.92,-188.145 1273.05,-192.009 1283.18,-195.141 1282.92,-188.145"/>
</g>
<!-- Node10 -->
<g id="node10" class="node"><title>Node10</title>
<g id="a_node10"><a xlink:href="Renderer_8cpp.html" target="_top" xlink:title="/home/travis/build\l/STORM&#45;IRIT/Radium&#45;Engine\l/src/Engine/Renderer/Renderer.cpp">
<polygon fill="white" stroke="black" points="0,-84.5 0,-125.5 170,-125.5 170,-84.5 0,-84.5"/>
<text text-anchor="start" x="8" y="-113.5" font-family="Helvetica,sans-Serif" font-size="10.00">/home/travis/build</text>
<text text-anchor="start" x="8" y="-102.5" font-family="Helvetica,sans-Serif" font-size="10.00">/STORM&#45;IRIT/Radium&#45;Engine</text>
<text text-anchor="middle" x="85" y="-91.5" font-family="Helvetica,sans-Serif" font-size="10.00">/src/Engine/Renderer/Renderer.cpp</text>
</a>
</g>
</g>
<!-- Node6&#45;&gt;Node10 -->
<g id="edge10" class="edge"><title>Node6&#45;&gt;Node10</title>
<path fill="none" stroke="midnightblue" d="M1114.61,-194.805C939.117,-195.181 522.578,-189.309 179,-132 169.063,-130.342 158.667,-128.051 148.562,-125.51"/>
<polygon fill="midnightblue" stroke="midnightblue" points="1114.81,-198.305 1124.8,-194.776 1114.79,-191.305 1114.81,-198.305"/>
</g>
<!-- Node11 -->
<g id="node11" class="node"><title>Node11</title>
<g id="a_node11"><a xlink:href="Viewer_8cpp.html" target="_top" xlink:title="/home/travis/build\l/STORM&#45;IRIT/Radium&#45;Engine\l/src/GuiBase/Viewer/Viewer.cpp">
<polygon fill="white" stroke="black" points="188,-84.5 188,-125.5 346,-125.5 346,-84.5 188,-84.5"/>
<text text-anchor="start" x="196" y="-113.5" font-family="Helvetica,sans-Serif" font-size="10.00">/home/travis/build</text>
<text text-anchor="start" x="196" y="-102.5" font-family="Helvetica,sans-Serif" font-size="10.00">/STORM&#45;IRIT/Radium&#45;Engine</text>
<text text-anchor="middle" x="267" y="-91.5" font-family="Helvetica,sans-Serif" font-size="10.00">/src/GuiBase/Viewer/Viewer.cpp</text>
</a>
</g>
</g>
<!-- Node6&#45;&gt;Node11 -->
<g id="edge11" class="edge"><title>Node6&#45;&gt;Node11</title>
<path fill="none" stroke="midnightblue" d="M1114.71,-193.748C961.975,-191.978 629.817,-182.095 355,-132 345.91,-130.343 336.422,-128.102 327.182,-125.627"/>
<polygon fill="midnightblue" stroke="midnightblue" points="1114.91,-197.25 1124.95,-193.857 1114.99,-190.25 1114.91,-197.25"/>
</g>
<!-- Node12 -->
<g id="node12" class="node"><title>Node12</title>
<g id="a_node12"><a xlink:href="AssimpFileLoader_8cpp.html" target="_top" xlink:title="/home/travis/build\l/STORM&#45;IRIT/Radium&#45;Engine\l/src/IO/AssimpLoader/AssimpFile\lLoader.cpp">
<polygon fill="white" stroke="black" points="364,-79 364,-131 528,-131 528,-79 364,-79"/>
<text text-anchor="start" x="372" y="-119" font-family="Helvetica,sans-Serif" font-size="10.00">/home/travis/build</text>
<text text-anchor="start" x="372" y="-108" font-family="Helvetica,sans-Serif" font-size="10.00">/STORM&#45;IRIT/Radium&#45;Engine</text>
<text text-anchor="start" x="372" y="-97" font-family="Helvetica,sans-Serif" font-size="10.00">/src/IO/AssimpLoader/AssimpFile</text>
<text text-anchor="middle" x="446" y="-86" font-family="Helvetica,sans-Serif" font-size="10.00">Loader.cpp</text>
</a>
</g>
</g>
<!-- Node6&#45;&gt;Node12 -->
<g id="edge12" class="edge"><title>Node6&#45;&gt;Node12</title>
<path fill="none" stroke="midnightblue" d="M1114.91,-191.103C988.504,-185.63 742.446,-170.626 537,-132 534.093,-131.454 531.146,-130.855 528.177,-130.215"/>
<polygon fill="midnightblue" stroke="midnightblue" points="1114.77,-194.6 1124.91,-191.527 1115.07,-187.606 1114.77,-194.6"/>
</g>
<!-- Node13 -->
<g id="node13" class="node"><title>Node13</title>
<g id="a_node13"><a xlink:href="TinyPlyFileLoader_8cpp.html" target="_top" xlink:title="/home/travis/build\l/STORM&#45;IRIT/Radium&#45;Engine\l/src/IO/TinyPlyLoader/TinyPlyFile\lLoader.cpp">
<polygon fill="white" stroke="black" points="546,-79 546,-131 710,-131 710,-79 546,-79"/>
<text text-anchor="start" x="554" y="-119" font-family="Helvetica,sans-Serif" font-size="10.00">/home/travis/build</text>
<text text-anchor="start" x="554" y="-108" font-family="Helvetica,sans-Serif" font-size="10.00">/STORM&#45;IRIT/Radium&#45;Engine</text>
<text text-anchor="start" x="554" y="-97" font-family="Helvetica,sans-Serif" font-size="10.00">/src/IO/TinyPlyLoader/TinyPlyFile</text>
<text text-anchor="middle" x="628" y="-86" font-family="Helvetica,sans-Serif" font-size="10.00">Loader.cpp</text>
</a>
</g>
</g>
<!-- Node6&#45;&gt;Node13 -->
<g id="edge13" class="edge"><title>Node6&#45;&gt;Node13</title>
<path fill="none" stroke="midnightblue" d="M1114.86,-186.981C1018.52,-178.058 856.304,-160.316 719,-132 716.103,-131.403 713.164,-130.761 710.203,-130.084"/>
<polygon fill="midnightblue" stroke="midnightblue" points="1114.56,-190.468 1124.83,-187.896 1115.19,-183.498 1114.56,-190.468"/>
</g>
<!-- Node14 -->
<g id="node14" class="node"><title>Node14</title>
<g id="a_node14"><a xlink:href="AnimationSystem_8cpp.html" target="_top" xlink:title="/home/travis/build\l/STORM&#45;IRIT/Radium&#45;Engine\l/Plugins/Animation/src/Animation\lSystem.cpp">
<polygon fill="white" stroke="black" points="2049.5,-79 2049.5,-131 2210.5,-131 2210.5,-79 2049.5,-79"/>
<text text-anchor="start" x="2057.5" y="-119" font-family="Helvetica,sans-Serif" font-size="10.00">/home/travis/build</text>
<text text-anchor="start" x="2057.5" y="-108" font-family="Helvetica,sans-Serif" font-size="10.00">/STORM&#45;IRIT/Radium&#45;Engine</text>
<text text-anchor="start" x="2057.5" y="-97" font-family="Helvetica,sans-Serif" font-size="10.00">/Plugins/Animation/src/Animation</text>
<text text-anchor="middle" x="2130" y="-86" font-family="Helvetica,sans-Serif" font-size="10.00">System.cpp</text>
</a>
</g>
</g>
<!-- Node6&#45;&gt;Node14 -->
<g id="edge14" class="edge"><title>Node6&#45;&gt;Node14</title>
<path fill="none" stroke="midnightblue" d="M1283.26,-193.551C1435.53,-191.466 1766.19,-181.093 2040,-132 2043.04,-131.455 2046.13,-130.847 2049.23,-130.189"/>
<polygon fill="midnightblue" stroke="midnightblue" points="1283,-190.054 1273.04,-193.682 1283.09,-197.053 1283,-190.054"/>
</g>
<!-- Node15 -->
<g id="node15" class="node"><title>Node15</title>
<g id="a_node15"><a xlink:href="FancyMeshComponent_8cpp.html" target="_top" xlink:title="/home/travis/build\l/STORM&#45;IRIT/Radium&#45;Engine\l/Plugins/FancyMesh/src/FancyMesh\lComponent.cpp">
<polygon fill="white" stroke="black" points="728,-79 728,-131 904,-131 904,-79 728,-79"/>
<text text-anchor="start" x="736" y="-119" font-family="Helvetica,sans-Serif" font-size="10.00">/home/travis/build</text>
<text text-anchor="start" x="736" y="-108" font-family="Helvetica,sans-Serif" font-size="10.00">/STORM&#45;IRIT/Radium&#45;Engine</text>
<text text-anchor="start" x="736" y="-97" font-family="Helvetica,sans-Serif" font-size="10.00">/Plugins/FancyMesh/src/FancyMesh</text>
<text text-anchor="middle" x="816" y="-86" font-family="Helvetica,sans-Serif" font-size="10.00">Component.cpp</text>
</a>
</g>
</g>
<!-- Node6&#45;&gt;Node15 -->
<g id="edge15" class="edge"><title>Node6&#45;&gt;Node15</title>
<path fill="none" stroke="midnightblue" d="M1114.64,-176.832C1057.56,-164.941 980.542,-148.363 913,-132 910.119,-131.302 907.194,-130.582 904.241,-129.847"/>
<polygon fill="midnightblue" stroke="midnightblue" points="1114.2,-180.315 1124.7,-178.922 1115.62,-173.461 1114.2,-180.315"/>
</g>
<!-- Node16 -->
<g id="node16" class="node"><title>Node16</title>
<g id="a_node16"><a xlink:href="FancyMeshSystem_8cpp.html" target="_top" xlink:title="/home/travis/build\l/STORM&#45;IRIT/Radium&#45;Engine\l/Plugins/FancyMesh/src/FancyMesh\lSystem.cpp">
<polygon fill="white" stroke="black" points="922,-79 922,-131 1098,-131 1098,-79 922,-79"/>
<text text-anchor="start" x="930" y="-119" font-family="Helvetica,sans-Serif" font-size="10.00">/home/travis/build</text>
<text text-anchor="start" x="930" y="-108" font-family="Helvetica,sans-Serif" font-size="10.00">/STORM&#45;IRIT/Radium&#45;Engine</text>
<text text-anchor="start" x="930" y="-97" font-family="Helvetica,sans-Serif" font-size="10.00">/Plugins/FancyMesh/src/FancyMesh</text>
<text text-anchor="middle" x="1010" y="-86" font-family="Helvetica,sans-Serif" font-size="10.00">System.cpp</text>
</a>
</g>
</g>
<!-- Node6&#45;&gt;Node16 -->
<g id="edge16" class="edge"><title>Node6&#45;&gt;Node16</title>
<path fill="none" stroke="midnightblue" d="M1147.73,-170.13C1121.69,-158.006 1090.07,-143.282 1063.7,-131.002"/>
<polygon fill="midnightblue" stroke="midnightblue" points="1146.51,-173.422 1157.05,-174.47 1149.47,-167.076 1146.51,-173.422"/>
</g>
<!-- Node17 -->
<g id="node17" class="node"><title>Node17</title>
<g id="a_node17"><a xlink:href="MeshPaintSystem_8cpp.html" target="_top" xlink:title="/home/travis/build\l/STORM&#45;IRIT/Radium&#45;Engine\l/Plugins/MeshPaint/src/MeshPaint\lSystem.cpp">
<polygon fill="white" stroke="black" points="1115.5,-79 1115.5,-131 1282.5,-131 1282.5,-79 1115.5,-79"/>
<text text-anchor="start" x="1123.5" y="-119" font-family="Helvetica,sans-Serif" font-size="10.00">/home/travis/build</text>
<text text-anchor="start" x="1123.5" y="-108" font-family="Helvetica,sans-Serif" font-size="10.00">/STORM&#45;IRIT/Radium&#45;Engine</text>
<text text-anchor="start" x="1123.5" y="-97" font-family="Helvetica,sans-Serif" font-size="10.00">/Plugins/MeshPaint/src/MeshPaint</text>
<text text-anchor="middle" x="1199" y="-86" font-family="Helvetica,sans-Serif" font-size="10.00">System.cpp</text>
</a>
</g>
</g>
<!-- Node6&#45;&gt;Node17 -->
<g id="edge17" class="edge"><title>Node6&#45;&gt;Node17</title>
<path fill="none" stroke="midnightblue" d="M1199,-164.255C1199,-153.506 1199,-141.484 1199,-131.166"/>
<polygon fill="midnightblue" stroke="midnightblue" points="1195.5,-164.47 1199,-174.47 1202.5,-164.47 1195.5,-164.47"/>
</g>
<!-- Node18 -->
<g id="node18" class="node"><title>Node18</title>
<g id="a_node18"><a xlink:href="SkinningSystem_8hpp.html" target="_top" xlink:title="/home/travis/build\l/STORM&#45;IRIT/Radium&#45;Engine\l/Plugins/Skinning/src/SkinningSystem.hpp">
<polygon fill="white" stroke="black" points="1301,-84.5 1301,-125.5 1503,-125.5 1503,-84.5 1301,-84.5"/>
<text text-anchor="start" x="1309" y="-113.5" font-family="Helvetica,sans-Serif" font-size="10.00">/home/travis/build</text>
<text text-anchor="start" x="1309" y="-102.5" font-family="Helvetica,sans-Serif" font-size="10.00">/STORM&#45;IRIT/Radium&#45;Engine</text>
<text text-anchor="middle" x="1402" y="-91.5" font-family="Helvetica,sans-Serif" font-size="10.00">/Plugins/Skinning/src/SkinningSystem.hpp</text>
</a>
</g>
</g>
<!-- Node6&#45;&gt;Node18 -->
<g id="edge18" class="edge"><title>Node6&#45;&gt;Node18</title>
<path fill="none" stroke="midnightblue" d="M1253.36,-170.434C1285.67,-156.43 1326.16,-138.875 1356.72,-125.627"/>
<polygon fill="midnightblue" stroke="midnightblue" points="1251.84,-167.281 1244.05,-174.47 1254.62,-173.704 1251.84,-167.281"/>
</g>
<!-- Node19 -->
<g id="node19" class="node"><title>Node19</title>
<g id="a_node19"><a xlink:href="SkinningPlugin_8cpp.html" target="_top" xlink:title="/home/travis/build\l/STORM&#45;IRIT/Radium&#45;Engine\l/Plugins/Skinning/src/SkinningPlugin.cpp">
<polygon fill="white" stroke="black" points="1304.5,-0.5 1304.5,-41.5 1499.5,-41.5 1499.5,-0.5 1304.5,-0.5"/>
<text text-anchor="start" x="1312.5" y="-29.5" font-family="Helvetica,sans-Serif" font-size="10.00">/home/travis/build</text>
<text text-anchor="start" x="1312.5" y="-18.5" font-family="Helvetica,sans-Serif" font-size="10.00">/STORM&#45;IRIT/Radium&#45;Engine</text>
<text text-anchor="middle" x="1402" y="-7.5" font-family="Helvetica,sans-Serif" font-size="10.00">/Plugins/Skinning/src/SkinningPlugin.cpp</text>
</a>
</g>
</g>
<!-- Node18&#45;&gt;Node19 -->
<g id="edge19" class="edge"><title>Node18&#45;&gt;Node19</title>
<path fill="none" stroke="midnightblue" d="M1402,-73.881C1402,-63.1328 1402,-51.309 1402,-41.6671"/>
<polygon fill="midnightblue" stroke="midnightblue" points="1398.5,-74.1501 1402,-84.1501 1405.5,-74.1501 1398.5,-74.1501"/>
</g>
<!-- Node21&#45;&gt;Node14 -->
<g id="edge23" class="edge"><title>Node21&#45;&gt;Node14</title>
<path fill="none" stroke="midnightblue" d="M2180.67,-249.164C2168.4,-214.501 2149.87,-162.149 2138.95,-131.285"/>
<polygon fill="midnightblue" stroke="midnightblue" points="2177.47,-250.615 2184.11,-258.874 2184.07,-248.28 2177.47,-250.615"/>
</g>
<!-- Node21&#45;&gt;Node22 -->
<g id="edge22" class="edge"><title>Node21&#45;&gt;Node22</title>
<path fill="none" stroke="midnightblue" d="M2283.71,-257.183C2320.17,-245.497 2357.27,-232.175 2373,-222 2410.82,-197.537 2444.67,-157.198 2464.27,-131.118"/>
<polygon fill="midnightblue" stroke="midnightblue" points="2282.45,-253.914 2273.97,-260.274 2284.56,-260.586 2282.45,-253.914"/>
</g>
<!-- Node23 -->
<g id="node23" class="node"><title>Node23</title>
<g id="a_node23"><a xlink:href="SkeletonBoneDrawable_8hpp.html" target="_top" xlink:title="/home/travis/build\l/STORM&#45;IRIT/Radium&#45;Engine\l/Plugins/Animation/src/Drawing\l/SkeletonBoneDrawable.hpp">
<polygon fill="white" stroke="black" points="2210,-169 2210,-221 2364,-221 2364,-169 2210,-169"/>
<text text-anchor="start" x="2218" y="-209" font-family="Helvetica,sans-Serif" font-size="10.00">/home/travis/build</text>
<text text-anchor="start" x="2218" y="-198" font-family="Helvetica,sans-Serif" font-size="10.00">/STORM&#45;IRIT/Radium&#45;Engine</text>
<text text-anchor="start" x="2218" y="-187" font-family="Helvetica,sans-Serif" font-size="10.00">/Plugins/Animation/src/Drawing</text>
<text text-anchor="middle" x="2287" y="-176" font-family="Helvetica,sans-Serif" font-size="10.00">/SkeletonBoneDrawable.hpp</text>
</a>
</g>
</g>
<!-- Node21&#45;&gt;Node23 -->
<g id="edge24" class="edge"><title>Node21&#45;&gt;Node23</title>
<path fill="none" stroke="midnightblue" d="M2227.55,-251.658C2238.27,-241.617 2249.93,-230.703 2260.06,-221.221"/>
<polygon fill="midnightblue" stroke="midnightblue" points="2224.84,-249.393 2219.94,-258.783 2229.63,-254.504 2224.84,-249.393"/>
</g>
<!-- Node23&#45;&gt;Node14 -->
<g id="edge26" class="edge"><title>Node23&#45;&gt;Node14</title>
<path fill="none" stroke="midnightblue" d="M2233.15,-163.815C2214.11,-153.145 2192.92,-141.268 2174.72,-131.069"/>
<polygon fill="midnightblue" stroke="midnightblue" points="2231.58,-166.946 2242.01,-168.783 2235,-160.84 2231.58,-166.946"/>
</g>
<!-- Node23&#45;&gt;Node22 -->
<g id="edge25" class="edge"><title>Node23&#45;&gt;Node22</title>
<path fill="none" stroke="midnightblue" d="M2352.03,-164.654C2376.1,-153.792 2403.14,-141.586 2426.31,-131.133"/>
<polygon fill="midnightblue" stroke="midnightblue" points="2350.29,-161.597 2342.62,-168.901 2353.17,-167.977 2350.29,-161.597"/>
</g>
<!-- Node24 -->
<g id="node24" class="node"><title>Node24</title>
<g id="a_node24"><a xlink:href="SkeletonBoneDrawable_8cpp.html" target="_top" xlink:title="/home/travis/build\l/STORM&#45;IRIT/Radium&#45;Engine\l/Plugins/Animation/src/Drawing\l/SkeletonBoneDrawable.cpp">
<polygon fill="white" stroke="black" points="2229,-79 2229,-131 2383,-131 2383,-79 2229,-79"/>
<text text-anchor="start" x="2237" y="-119" font-family="Helvetica,sans-Serif" font-size="10.00">/home/travis/build</text>
<text text-anchor="start" x="2237" y="-108" font-family="Helvetica,sans-Serif" font-size="10.00">/STORM&#45;IRIT/Radium&#45;Engine</text>
<text text-anchor="start" x="2237" y="-97" font-family="Helvetica,sans-Serif" font-size="10.00">/Plugins/Animation/src/Drawing</text>
<text text-anchor="middle" x="2306" y="-86" font-family="Helvetica,sans-Serif" font-size="10.00">/SkeletonBoneDrawable.cpp</text>
</a>
</g>
</g>
<!-- Node23&#45;&gt;Node24 -->
<g id="edge27" class="edge"><title>Node23&#45;&gt;Node24</title>
<path fill="none" stroke="midnightblue" d="M2294.67,-158.489C2296.65,-149.309 2298.74,-139.616 2300.58,-131.092"/>
<polygon fill="midnightblue" stroke="midnightblue" points="2291.18,-158.033 2292.5,-168.547 2298.03,-159.511 2291.18,-158.033"/>
</g>
</g>
</svg>
