<?xml version="1.0" encoding="UTF-8" standalone="no"?>
<!DOCTYPE svg PUBLIC "-//W3C//DTD SVG 1.1//EN"
 "http://www.w3.org/Graphics/SVG/1.1/DTD/svg11.dtd">
<!-- Generated by graphviz version 2.36.0 (20140111.2315)
 -->
<!-- Title: /home/travis/build/STORM&#45;IRIT/Radium&#45;Engine/src/Core/Geometry/Mapping/MappingOperation.cpp Pages: 1 -->
<svg width="1745pt" height="626pt"
 viewBox="0.00 0.00 1745.00 626.00" xmlns="http://www.w3.org/2000/svg" xmlns:xlink="http://www.w3.org/1999/xlink">
<g id="graph0" class="graph" transform="scale(1 1) rotate(0) translate(4 622)">
<title>/home/travis/build/STORM&#45;IRIT/Radium&#45;Engine/src/Core/Geometry/Mapping/MappingOperation.cpp</title>
<polygon fill="white" stroke="none" points="-4,4 -4,-622 1741,-622 1741,4 -4,4"/>
<!-- Node1 -->
<g id="node1" class="node"><title>Node1</title>
<polygon fill="#bfbfbf" stroke="black" points="988,-565 988,-617 1136,-617 1136,-565 988,-565"/>
<text text-anchor="start" x="996" y="-605" font-family="Helvetica,sans-Serif" font-size="10.00">/home/travis/build</text>
<text text-anchor="start" x="996" y="-594" font-family="Helvetica,sans-Serif" font-size="10.00">/STORM&#45;IRIT/Radium&#45;Engine</text>
<text text-anchor="start" x="996" y="-583" font-family="Helvetica,sans-Serif" font-size="10.00">/src/Core/Geometry/Mapping</text>
<text text-anchor="middle" x="1062" y="-572" font-family="Helvetica,sans-Serif" font-size="10.00">/MappingOperation.cpp</text>
</g>
<!-- Node2 -->
<g id="node2" class="node"><title>Node2</title>
<g id="a_node2"><a xlink:href="MappingOperation_8hpp.html" target="_top" xlink:title="Core/Geometry/Mapping\l/MappingOperation.hpp">
<polygon fill="white" stroke="black" points="910.5,-497 910.5,-527 1033.5,-527 1033.5,-497 910.5,-497"/>
<text text-anchor="start" x="918.5" y="-515" font-family="Helvetica,sans-Serif" font-size="10.00">Core/Geometry/Mapping</text>
<text text-anchor="middle" x="972" y="-504" font-family="Helvetica,sans-Serif" font-size="10.00">/MappingOperation.hpp</text>
</a>
</g>
</g>
<!-- Node1&#45;&gt;Node2 -->
<g id="edge1" class="edge"><title>Node1&#45;&gt;Node2</title>
<path fill="none" stroke="midnightblue" d="M1032.53,-564.787C1020.73,-554.693 1007.31,-543.21 996.109,-533.627"/>
<polygon fill="midnightblue" stroke="midnightblue" points="998.273,-530.872 988.399,-527.031 993.723,-536.191 998.273,-530.872"/>
</g>
<!-- Node33 -->
<g id="node33" class="node"><title>Node33</title>
<g id="a_node33"><a xlink:href="Log_8hpp.html" target="_top" xlink:title="Core/Log/Log.hpp">
<polygon fill="white" stroke="black" points="1504,-310.5 1504,-329.5 1598,-329.5 1598,-310.5 1504,-310.5"/>
<text text-anchor="middle" x="1551" y="-317.5" font-family="Helvetica,sans-Serif" font-size="10.00">Core/Log/Log.hpp</text>
</a>
</g>
</g>
<!-- Node1&#45;&gt;Node33 -->
<g id="edge61" class="edge"><title>Node1&#45;&gt;Node33</title>
<path fill="none" stroke="midnightblue" d="M1107.56,-564.935C1208.52,-509.4 1448.24,-377.53 1526.1,-334.696"/>
<polygon fill="midnightblue" stroke="midnightblue" points="1528.11,-337.588 1535.18,-329.701 1524.73,-331.454 1528.11,-337.588"/>
</g>
<!-- Node39 -->
<g id="node39" class="node"><title>Node39</title>
<g id="a_node39"><a xlink:href="TriangleOperation_8hpp.html" target="_top" xlink:title="Core/Geometry/Triangle\l/TriangleOperation.hpp">
<polygon fill="white" stroke="black" points="881.5,-429 881.5,-459 1002.5,-459 1002.5,-429 881.5,-429"/>
<text text-anchor="start" x="889.5" y="-447" font-family="Helvetica,sans-Serif" font-size="10.00">Core/Geometry/Triangle</text>
<text text-anchor="middle" x="942" y="-436" font-family="Helvetica,sans-Serif" font-size="10.00">/TriangleOperation.hpp</text>
</a>
</g>
</g>
<!-- Node1&#45;&gt;Node39 -->
<g id="edge59" class="edge"><title>Node1&#45;&gt;Node39</title>
<path fill="none" stroke="midnightblue" d="M1062.37,-564.8C1061.42,-544.332 1057.13,-515.724 1042,-496 1030.99,-481.653 1014.83,-471.006 998.689,-463.262"/>
<polygon fill="midnightblue" stroke="midnightblue" points="999.787,-459.919 989.229,-459.031 996.929,-466.309 999.787,-459.919"/>
</g>
<!-- Node3 -->
<g id="node3" class="node"><title>Node3</title>
<g id="a_node3"><a xlink:href="Mapping_8hpp.html" target="_top" xlink:title="Core/Geometry/Mapping\l/Mapping.hpp">
<polygon fill="white" stroke="black" points="690.5,-305 690.5,-335 813.5,-335 813.5,-305 690.5,-305"/>
<text text-anchor="start" x="698.5" y="-323" font-family="Helvetica,sans-Serif" font-size="10.00">Core/Geometry/Mapping</text>
<text text-anchor="middle" x="752" y="-312" font-family="Helvetica,sans-Serif" font-size="10.00">/Mapping.hpp</text>
</a>
</g>
</g>
<!-- Node2&#45;&gt;Node3 -->
<g id="edge2" class="edge"><title>Node2&#45;&gt;Node3</title>
<path fill="none" stroke="midnightblue" d="M936.249,-496.837C916.238,-487.946 891.475,-475.275 872,-460 828.125,-425.587 788.187,-373.312 767.287,-343.648"/>
<polygon fill="midnightblue" stroke="midnightblue" points="770.008,-341.429 761.429,-335.212 764.258,-345.422 770.008,-341.429"/>
</g>
<!-- Node29 -->
<g id="node29" class="node"><title>Node29</title>
<g id="a_node29"><a xlink:href="TriangleMesh_8hpp.html" target="_top" xlink:title="Core/Mesh/TriangleMesh.hpp">
<polygon fill="white" stroke="black" points="1041.5,-434.5 1041.5,-453.5 1186.5,-453.5 1186.5,-434.5 1041.5,-434.5"/>
<text text-anchor="middle" x="1114" y="-441.5" font-family="Helvetica,sans-Serif" font-size="10.00">Core/Mesh/TriangleMesh.hpp</text>
</a>
</g>
</g>
<!-- Node2&#45;&gt;Node29 -->
<g id="edge32" class="edge"><title>Node2&#45;&gt;Node29</title>
<path fill="none" stroke="midnightblue" d="M1002.46,-496.841C1027.24,-485.323 1061.94,-469.199 1086.02,-458.004"/>
<polygon fill="midnightblue" stroke="midnightblue" points="1087.73,-461.071 1095.32,-453.682 1084.78,-454.723 1087.73,-461.071"/>
</g>
<!-- Node4 -->
<g id="node4" class="node"><title>Node4</title>
<g id="a_node4"><a xlink:href="AlignedStdVector_8hpp.html" target="_top" xlink:title="Core/Containers/AlignedStd\lVector.hpp">
<polygon fill="white" stroke="black" points="1033,-237 1033,-267 1171,-267 1171,-237 1033,-237"/>
<text text-anchor="start" x="1041" y="-255" font-family="Helvetica,sans-Serif" font-size="10.00">Core/Containers/AlignedStd</text>
<text text-anchor="middle" x="1102" y="-244" font-family="Helvetica,sans-Serif" font-size="10.00">Vector.hpp</text>
</a>
</g>
</g>
<!-- Node3&#45;&gt;Node4 -->
<g id="edge3" class="edge"><title>Node3&#45;&gt;Node4</title>
<path fill="none" stroke="midnightblue" d="M813.767,-307.352C871.98,-296.375 959.487,-279.874 1022.81,-267.934"/>
<polygon fill="midnightblue" stroke="midnightblue" points="1023.57,-271.351 1032.75,-266.058 1022.28,-264.472 1023.57,-271.351"/>
</g>
<!-- Node14 -->
<g id="node14" class="node"><title>Node14</title>
<g id="a_node14"><a xlink:href="Index_8hpp.html" target="_top" xlink:title="Core/Index/Index.hpp">
<polygon fill="white" stroke="black" points="670,-242.5 670,-261.5 780,-261.5 780,-242.5 670,-242.5"/>
<text text-anchor="middle" x="725" y="-249.5" font-family="Helvetica,sans-Serif" font-size="10.00">Core/Index/Index.hpp</text>
</a>
</g>
</g>
<!-- Node3&#45;&gt;Node14 -->
<g id="edge13" class="edge"><title>Node3&#45;&gt;Node14</title>
<path fill="none" stroke="midnightblue" d="M746.141,-304.679C742.14,-294.898 736.803,-281.852 732.492,-271.315"/>
<polygon fill="midnightblue" stroke="midnightblue" points="735.637,-269.759 728.612,-261.828 729.159,-272.409 735.637,-269.759"/>
</g>
<!-- Node17 -->
<g id="node17" class="node"><title>Node17</title>
<g id="a_node17"><a xlink:href="LinearAlgebra_8hpp.html" target="_top" xlink:title="Core/Math/LinearAlgebra.hpp">
<polygon fill="white" stroke="black" points="798.5,-242.5 798.5,-261.5 941.5,-261.5 941.5,-242.5 798.5,-242.5"/>
<text text-anchor="middle" x="870" y="-249.5" font-family="Helvetica,sans-Serif" font-size="10.00">Core/Math/LinearAlgebra.hpp</text>
</a>
</g>
</g>
<!-- Node3&#45;&gt;Node17 -->
<g id="edge16" class="edge"><title>Node3&#45;&gt;Node17</title>
<path fill="none" stroke="midnightblue" d="M777.314,-304.841C797.541,-293.528 825.713,-277.771 845.675,-266.605"/>
<polygon fill="midnightblue" stroke="midnightblue" points="847.459,-269.618 854.478,-261.682 844.042,-263.509 847.459,-269.618"/>
</g>
<!-- Node28 -->
<g id="node28" class="node"><title>Node28</title>
<g id="a_node28"><a xlink:href="Mapping_8inl.html" target="_top" xlink:title="Core/Geometry/Mapping\l/Mapping.inl">
<polygon fill="white" stroke="black" points="528.5,-237 528.5,-267 651.5,-267 651.5,-237 528.5,-237"/>
<text text-anchor="start" x="536.5" y="-255" font-family="Helvetica,sans-Serif" font-size="10.00">Core/Geometry/Mapping</text>
<text text-anchor="middle" x="590" y="-244" font-family="Helvetica,sans-Serif" font-size="10.00">/Mapping.inl</text>
</a>
</g>
</g>
<!-- Node3&#45;&gt;Node28 -->
<g id="edge30" class="edge"><title>Node3&#45;&gt;Node28</title>
<path fill="none" stroke="midnightblue" d="M711.59,-304.841C685.973,-294.933 653.147,-281.618 628.006,-270.963"/>
<polygon fill="midnightblue" stroke="midnightblue" points="629.349,-267.73 618.778,-267.022 626.6,-274.168 629.349,-267.73"/>
</g>
<!-- Node5 -->
<g id="node5" class="node"><title>Node5</title>
<g id="a_node5"><a xlink:href="RaCore_8hpp.html" target="_top" xlink:title="Core/RaCore.hpp">
<polygon fill="white" stroke="black" points="1202.5,-112.5 1202.5,-131.5 1295.5,-131.5 1295.5,-112.5 1202.5,-112.5"/>
<text text-anchor="middle" x="1249" y="-119.5" font-family="Helvetica,sans-Serif" font-size="10.00">Core/RaCore.hpp</text>
</a>
</g>
</g>
<!-- Node4&#45;&gt;Node5 -->
<g id="edge4" class="edge"><title>Node4&#45;&gt;Node5</title>
<path fill="none" stroke="midnightblue" d="M1114.83,-236.741C1130.58,-219.58 1158.48,-190.294 1185,-168 1198.22,-156.887 1214.09,-145.713 1226.72,-137.279"/>
<polygon fill="midnightblue" stroke="midnightblue" points="1228.83,-140.082 1235.27,-131.663 1224.99,-134.233 1228.83,-140.082"/>
</g>
<!-- Node12 -->
<g id="node12" class="node"><title>Node12</title>
<polygon fill="white" stroke="#bfbfbf" points="1045,-174.5 1045,-193.5 1133,-193.5 1133,-174.5 1045,-174.5"/>
<text text-anchor="middle" x="1089" y="-181.5" font-family="Helvetica,sans-Serif" font-size="10.00">Eigen/StdVector</text>
</g>
<!-- Node4&#45;&gt;Node12 -->
<g id="edge11" class="edge"><title>Node4&#45;&gt;Node12</title>
<path fill="none" stroke="midnightblue" d="M1099.18,-236.679C1097.27,-226.999 1094.74,-214.123 1092.67,-203.645"/>
<polygon fill="midnightblue" stroke="midnightblue" points="1096.11,-202.963 1090.74,-193.828 1089.24,-204.316 1096.11,-202.963"/>
</g>
<!-- Node13 -->
<g id="node13" class="node"><title>Node13</title>
<polygon fill="white" stroke="#bfbfbf" points="1227,-174.5 1227,-193.5 1271,-193.5 1271,-174.5 1227,-174.5"/>
<text text-anchor="middle" x="1249" y="-181.5" font-family="Helvetica,sans-Serif" font-size="10.00">vector</text>
</g>
<!-- Node4&#45;&gt;Node13 -->
<g id="edge12" class="edge"><title>Node4&#45;&gt;Node13</title>
<path fill="none" stroke="midnightblue" d="M1133.54,-236.841C1159.3,-225.272 1195.42,-209.055 1220.37,-197.855"/>
<polygon fill="midnightblue" stroke="midnightblue" points="1221.97,-200.971 1229.66,-193.682 1219.11,-194.585 1221.97,-200.971"/>
</g>
<!-- Node6 -->
<g id="node6" class="node"><title>Node6</title>
<g id="a_node6"><a xlink:href="CoreMacros_8hpp.html" target="_top" xlink:title="Core/CoreMacros.hpp">
<polygon fill="white" stroke="black" points="1242.5,-56.5 1242.5,-75.5 1355.5,-75.5 1355.5,-56.5 1242.5,-56.5"/>
<text text-anchor="middle" x="1299" y="-63.5" font-family="Helvetica,sans-Serif" font-size="10.00">Core/CoreMacros.hpp</text>
</a>
</g>
</g>
<!-- Node5&#45;&gt;Node6 -->
<g id="edge5" class="edge"><title>Node5&#45;&gt;Node6</title>
<path fill="none" stroke="midnightblue" d="M1257.26,-112.083C1264.46,-104.298 1275.11,-92.8015 1283.85,-83.3665"/>
<polygon fill="midnightblue" stroke="midnightblue" points="1286.67,-85.4666 1290.9,-75.7511 1281.53,-80.7108 1286.67,-85.4666"/>
</g>
<!-- Node7 -->
<g id="node7" class="node"><title>Node7</title>
<polygon fill="white" stroke="#bfbfbf" points="1307.5,-0.5 1307.5,-19.5 1356.5,-19.5 1356.5,-0.5 1307.5,-0.5"/>
<text text-anchor="middle" x="1332" y="-7.5" font-family="Helvetica,sans-Serif" font-size="10.00">cassert</text>
</g>
<!-- Node6&#45;&gt;Node7 -->
<g id="edge6" class="edge"><title>Node6&#45;&gt;Node7</title>
<path fill="none" stroke="midnightblue" d="M1304.45,-56.083C1309.01,-48.6127 1315.67,-37.7244 1321.29,-28.5199"/>
<polygon fill="midnightblue" stroke="midnightblue" points="1324.42,-30.109 1326.65,-19.7511 1318.45,-26.4588 1324.42,-30.109"/>
</g>
<!-- Node8 -->
<g id="node8" class="node"><title>Node8</title>
<polygon fill="white" stroke="#bfbfbf" points="1374.5,-0.5 1374.5,-19.5 1417.5,-19.5 1417.5,-0.5 1374.5,-0.5"/>
<text text-anchor="middle" x="1396" y="-7.5" font-family="Helvetica,sans-Serif" font-size="10.00">cstdio</text>
</g>
<!-- Node6&#45;&gt;Node8 -->
<g id="edge7" class="edge"><title>Node6&#45;&gt;Node8</title>
<path fill="none" stroke="midnightblue" d="M1314.58,-56.324C1330,-47.7428 1353.81,-34.486 1371.71,-24.5224"/>
<polygon fill="midnightblue" stroke="midnightblue" points="1373.42,-27.5767 1380.45,-19.6545 1370.01,-21.4606 1373.42,-27.5767"/>
</g>
<!-- Node9 -->
<g id="node9" class="node"><title>Node9</title>
<polygon fill="white" stroke="#bfbfbf" points="1173,-0.5 1173,-19.5 1227,-19.5 1227,-0.5 1173,-0.5"/>
<text text-anchor="middle" x="1200" y="-7.5" font-family="Helvetica,sans-Serif" font-size="10.00">iostream</text>
</g>
<!-- Node6&#45;&gt;Node9 -->
<g id="edge8" class="edge"><title>Node6&#45;&gt;Node9</title>
<path fill="none" stroke="midnightblue" d="M1283.09,-56.324C1267.36,-47.7428 1243.06,-34.486 1224.79,-24.5224"/>
<polygon fill="midnightblue" stroke="midnightblue" points="1226.32,-21.3704 1215.87,-19.6545 1222.97,-27.5157 1226.32,-21.3704"/>
</g>
<!-- Node10 -->
<g id="node10" class="node"><title>Node10</title>
<polygon fill="white" stroke="#bfbfbf" points="1503,-0.5 1503,-19.5 1555,-19.5 1555,-0.5 1503,-0.5"/>
<text text-anchor="middle" x="1529" y="-7.5" font-family="Helvetica,sans-Serif" font-size="10.00">sstream</text>
</g>
<!-- Node6&#45;&gt;Node10 -->
<g id="edge9" class="edge"><title>Node6&#45;&gt;Node10</title>
<path fill="none" stroke="midnightblue" d="M1335.44,-56.4435C1378.6,-46.3117 1450.02,-29.5427 1492.99,-19.4553"/>
<polygon fill="midnightblue" stroke="midnightblue" points="1493.81,-22.858 1502.74,-17.1649 1492.21,-16.0433 1493.81,-22.858"/>
</g>
<!-- Node11 -->
<g id="node11" class="node"><title>Node11</title>
<polygon fill="white" stroke="#bfbfbf" points="1245,-0.5 1245,-19.5 1289,-19.5 1289,-0.5 1245,-0.5"/>
<text text-anchor="middle" x="1267" y="-7.5" font-family="Helvetica,sans-Serif" font-size="10.00">thread</text>
</g>
<!-- Node6&#45;&gt;Node11 -->
<g id="edge10" class="edge"><title>Node6&#45;&gt;Node11</title>
<path fill="none" stroke="midnightblue" d="M1293.72,-56.083C1289.29,-48.6127 1282.84,-37.7244 1277.38,-28.5199"/>
<polygon fill="midnightblue" stroke="midnightblue" points="1280.29,-26.5697 1272.19,-19.7511 1274.27,-30.1383 1280.29,-26.5697"/>
</g>
<!-- Node15 -->
<g id="node15" class="node"><title>Node15</title>
<polygon fill="white" stroke="#bfbfbf" points="0,-174.5 0,-193.5 40,-193.5 40,-174.5 0,-174.5"/>
<text text-anchor="middle" x="20" y="-181.5" font-family="Helvetica,sans-Serif" font-size="10.00">limits</text>
</g>
<!-- Node14&#45;&gt;Node15 -->
<g id="edge14" class="edge"><title>Node14&#45;&gt;Node15</title>
<path fill="none" stroke="midnightblue" d="M692.801,-242.444C682.402,-239.984 670.776,-237.55 660,-236 390.743,-197.28 311.309,-272.059 49,-200 47.0323,-199.459 45.0445,-198.774 43.0812,-197.996"/>
<polygon fill="midnightblue" stroke="midnightblue" points="44.2132,-194.66 33.6751,-193.565 41.2299,-200.993 44.2132,-194.66"/>
</g>
<!-- Node16 -->
<g id="node16" class="node"><title>Node16</title>
<g id="a_node16"><a xlink:href="Index_8inl.html" target="_top" xlink:title="Core/Index/Index.inl">
<polygon fill="white" stroke="black" points="58,-174.5 58,-193.5 162,-193.5 162,-174.5 58,-174.5"/>
<text text-anchor="middle" x="110" y="-181.5" font-family="Helvetica,sans-Serif" font-size="10.00">Core/Index/Index.inl</text>
</a>
</g>
</g>
<!-- Node14&#45;&gt;Node16 -->
<g id="edge15" class="edge"><title>Node14&#45;&gt;Node16</title>
<path fill="none" stroke="midnightblue" d="M692.454,-242.46C682.14,-240.031 670.649,-237.611 660,-236 444.53,-203.403 386.231,-234.138 171,-200 164.27,-198.932 157.191,-197.492 150.334,-195.925"/>
<polygon fill="midnightblue" stroke="midnightblue" points="151.056,-192.499 140.515,-193.567 149.421,-199.306 151.056,-192.499"/>
</g>
<!-- Node17&#45;&gt;Node5 -->
<g id="edge17" class="edge"><title>Node17&#45;&gt;Node5</title>
<path fill="none" stroke="midnightblue" d="M886.065,-242.479C904.13,-232.741 934.185,-216.066 959,-200 979.298,-186.858 980.774,-177.524 1003,-168 1064.42,-141.681 1140.89,-130.743 1192.13,-126.205"/>
<polygon fill="midnightblue" stroke="midnightblue" points="1192.67,-129.672 1202.34,-125.355 1192.09,-122.696 1192.67,-129.672"/>
</g>
<!-- Node18 -->
<g id="node18" class="node"><title>Node18</title>
<polygon fill="white" stroke="#bfbfbf" points="687.5,-174.5 687.5,-193.5 752.5,-193.5 752.5,-174.5 687.5,-174.5"/>
<text text-anchor="middle" x="720" y="-181.5" font-family="Helvetica,sans-Serif" font-size="10.00">Eigen/Core</text>
</g>
<!-- Node17&#45;&gt;Node18 -->
<g id="edge18" class="edge"><title>Node17&#45;&gt;Node18</title>
<path fill="none" stroke="midnightblue" d="M850.39,-242.372C824.562,-231.007 778.934,-210.931 749.082,-197.796"/>
<polygon fill="midnightblue" stroke="midnightblue" points="750.177,-194.454 739.615,-193.63 747.358,-200.862 750.177,-194.454"/>
</g>
<!-- Node19 -->
<g id="node19" class="node"><title>Node19</title>
<polygon fill="white" stroke="#bfbfbf" points="770.5,-174.5 770.5,-193.5 857.5,-193.5 857.5,-174.5 770.5,-174.5"/>
<text text-anchor="middle" x="814" y="-181.5" font-family="Helvetica,sans-Serif" font-size="10.00">Eigen/Geometry</text>
</g>
<!-- Node17&#45;&gt;Node19 -->
<g id="edge19" class="edge"><title>Node17&#45;&gt;Node19</title>
<path fill="none" stroke="midnightblue" d="M862.679,-242.372C853.924,-232.053 839.074,-214.551 828.072,-201.585"/>
<polygon fill="midnightblue" stroke="midnightblue" points="830.64,-199.202 821.502,-193.841 825.303,-203.731 830.64,-199.202"/>
</g>
<!-- Node20 -->
<g id="node20" class="node"><title>Node20</title>
<polygon fill="white" stroke="#bfbfbf" points="875.5,-174.5 875.5,-193.5 950.5,-193.5 950.5,-174.5 875.5,-174.5"/>
<text text-anchor="middle" x="913" y="-181.5" font-family="Helvetica,sans-Serif" font-size="10.00">Eigen/Sparse</text>
</g>
<!-- Node17&#45;&gt;Node20 -->
<g id="edge20" class="edge"><title>Node17&#45;&gt;Node20</title>
<path fill="none" stroke="midnightblue" d="M875.621,-242.372C882.216,-232.25 893.314,-215.215 901.708,-202.331"/>
<polygon fill="midnightblue" stroke="midnightblue" points="904.714,-204.13 907.24,-193.841 898.849,-200.309 904.714,-204.13"/>
</g>
<!-- Node21 -->
<g id="node21" class="node"><title>Node21</title>
<polygon fill="white" stroke="#bfbfbf" points="304.5,-174.5 304.5,-193.5 363.5,-193.5 363.5,-174.5 304.5,-174.5"/>
<text text-anchor="middle" x="334" y="-181.5" font-family="Helvetica,sans-Serif" font-size="10.00">functional</text>
</g>
<!-- Node17&#45;&gt;Node21 -->
<g id="edge21" class="edge"><title>Node17&#45;&gt;Node21</title>
<path fill="none" stroke="midnightblue" d="M828.084,-242.437C815.553,-240.094 801.755,-237.727 789,-236 604.66,-211.034 553.08,-242.597 372,-200 368.755,-199.237 365.421,-198.248 362.139,-197.143"/>
<polygon fill="midnightblue" stroke="midnightblue" points="363.188,-193.798 352.596,-193.584 360.743,-200.357 363.188,-193.798"/>
</g>
<!-- Node22 -->
<g id="node22" class="node"><title>Node22</title>
<polygon fill="white" stroke="#bfbfbf" points="381.5,-169 381.5,-199 514.5,-199 514.5,-169 381.5,-169"/>
<text text-anchor="start" x="389.5" y="-187" font-family="Helvetica,sans-Serif" font-size="10.00">unsupported/Eigen/Aligned</text>
<text text-anchor="middle" x="448" y="-176" font-family="Helvetica,sans-Serif" font-size="10.00">Vector3</text>
</g>
<!-- Node17&#45;&gt;Node22 -->
<g id="edge22" class="edge"><title>Node17&#45;&gt;Node22</title>
<path fill="none" stroke="midnightblue" d="M825.927,-242.436C813.966,-240.222 801.003,-237.923 789,-236 674.422,-217.649 642.396,-219.583 524.745,-200.233"/>
<polygon fill="midnightblue" stroke="midnightblue" points="525.055,-196.736 514.616,-198.549 523.907,-203.641 525.055,-196.736"/>
</g>
<!-- Node23 -->
<g id="node23" class="node"><title>Node23</title>
<g id="a_node23"><a xlink:href="Math_8hpp.html" target="_top" xlink:title="Core/Math/Math.hpp">
<polygon fill="white" stroke="black" points="180,-174.5 180,-193.5 286,-193.5 286,-174.5 180,-174.5"/>
<text text-anchor="middle" x="233" y="-181.5" font-family="Helvetica,sans-Serif" font-size="10.00">Core/Math/Math.hpp</text>
</a>
</g>
</g>
<!-- Node17&#45;&gt;Node23 -->
<g id="edge23" class="edge"><title>Node17&#45;&gt;Node23</title>
<path fill="none" stroke="midnightblue" d="M828.932,-242.486C816.181,-240.088 802.05,-237.679 789,-236 570.661,-207.915 512.497,-233.998 295,-200 288.163,-198.931 280.97,-197.491 274.002,-195.923"/>
<polygon fill="midnightblue" stroke="midnightblue" points="274.559,-192.459 264.022,-193.565 272.949,-199.271 274.559,-192.459"/>
</g>
<!-- Node27 -->
<g id="node27" class="node"><title>Node27</title>
<g id="a_node27"><a xlink:href="LinearAlgebra_8inl.html" target="_top" xlink:title="Core/Math/LinearAlgebra.inl">
<polygon fill="white" stroke="black" points="532.5,-174.5 532.5,-193.5 669.5,-193.5 669.5,-174.5 532.5,-174.5"/>
<text text-anchor="middle" x="601" y="-181.5" font-family="Helvetica,sans-Serif" font-size="10.00">Core/Math/LinearAlgebra.inl</text>
</a>
</g>
</g>
<!-- Node17&#45;&gt;Node27 -->
<g id="edge29" class="edge"><title>Node17&#45;&gt;Node27</title>
<path fill="none" stroke="midnightblue" d="M835.109,-242.439C786.63,-230.545 698.872,-209.013 645.666,-195.959"/>
<polygon fill="midnightblue" stroke="midnightblue" points="646.375,-192.529 635.829,-193.546 644.707,-199.328 646.375,-192.529"/>
</g>
<!-- Node23&#45;&gt;Node5 -->
<g id="edge24" class="edge"><title>Node23&#45;&gt;Node5</title>
<path fill="none" stroke="midnightblue" d="M263.365,-174.434C273.363,-171.942 284.586,-169.492 295,-168 469.809,-142.964 1014.19,-128.436 1192.11,-124.263"/>
<polygon fill="midnightblue" stroke="midnightblue" points="1192.38,-127.758 1202.3,-124.026 1192.22,-120.759 1192.38,-127.758"/>
</g>
<!-- Node24 -->
<g id="node24" class="node"><title>Node24</title>
<polygon fill="white" stroke="#bfbfbf" points="253,-112.5 253,-131.5 309,-131.5 309,-112.5 253,-112.5"/>
<text text-anchor="middle" x="281" y="-119.5" font-family="Helvetica,sans-Serif" font-size="10.00">algorithm</text>
</g>
<!-- Node23&#45;&gt;Node24 -->
<g id="edge25" class="edge"><title>Node23&#45;&gt;Node24</title>
<path fill="none" stroke="midnightblue" d="M239.877,-174.403C247.149,-165.314 258.795,-150.756 267.841,-139.449"/>
<polygon fill="midnightblue" stroke="midnightblue" points="270.622,-141.576 274.136,-131.581 265.155,-137.203 270.622,-141.576"/>
</g>
<!-- Node25 -->
<g id="node25" class="node"><title>Node25</title>
<polygon fill="white" stroke="#bfbfbf" points="327,-112.5 327,-131.5 371,-131.5 371,-112.5 327,-112.5"/>
<text text-anchor="middle" x="349" y="-119.5" font-family="Helvetica,sans-Serif" font-size="10.00">cmath</text>
</g>
<!-- Node23&#45;&gt;Node25 -->
<g id="edge26" class="edge"><title>Node23&#45;&gt;Node25</title>
<path fill="none" stroke="midnightblue" d="M249.62,-174.403C268.915,-164.423 300.959,-147.849 323.431,-136.225"/>
<polygon fill="midnightblue" stroke="midnightblue" points="325.137,-139.284 332.411,-131.581 321.921,-133.066 325.137,-139.284"/>
</g>
<!-- Node26 -->
<g id="node26" class="node"><title>Node26</title>
<g id="a_node26"><a xlink:href="Math_8inl.html" target="_top" xlink:title="Core/Math/Math.inl">
<polygon fill="white" stroke="black" points="135,-112.5 135,-131.5 235,-131.5 235,-112.5 135,-112.5"/>
<text text-anchor="middle" x="185" y="-119.5" font-family="Helvetica,sans-Serif" font-size="10.00">Core/Math/Math.inl</text>
</a>
</g>
</g>
<!-- Node23&#45;&gt;Node26 -->
<g id="edge27" class="edge"><title>Node23&#45;&gt;Node26</title>
<path fill="none" stroke="midnightblue" d="M221.222,-174.403C212.166,-165.493 200.411,-151.325 192.531,-140.118"/>
<polygon fill="midnightblue" stroke="midnightblue" points="195.359,-138.048 186.967,-131.581 189.495,-141.87 195.359,-138.048"/>
</g>
<!-- Node26&#45;&gt;Node23 -->
<g id="edge28" class="edge"><title>Node26&#45;&gt;Node23</title>
<path fill="none" stroke="midnightblue" d="M196.762,-131.581C205.814,-140.485 217.57,-154.652 225.455,-165.862"/>
<polygon fill="midnightblue" stroke="midnightblue" points="222.63,-167.938 231.023,-174.403 228.494,-164.115 222.63,-167.938"/>
</g>
<!-- Node28&#45;&gt;Node3 -->
<g id="edge31" class="edge"><title>Node28&#45;&gt;Node3</title>
<path fill="none" stroke="midnightblue" d="M630.056,-267.022C655.606,-276.898 688.434,-290.21 713.646,-300.89"/>
<polygon fill="midnightblue" stroke="midnightblue" points="712.333,-304.135 722.904,-304.841 715.081,-297.697 712.333,-304.135"/>
</g>
<!-- Node29&#45;&gt;Node5 -->
<g id="edge43" class="edge"><title>Node29&#45;&gt;Node5</title>
<path fill="none" stroke="midnightblue" d="M1103.54,-434.147C1089.39,-421.034 1066.91,-395.466 1076,-372 1090.78,-333.864 1108.64,-332.473 1138,-304 1155.65,-286.884 1165.86,-288.114 1180,-268 1207.34,-229.102 1195.91,-210.102 1218,-168 1223.18,-158.129 1230.13,-147.839 1236.14,-139.595"/>
<polygon fill="midnightblue" stroke="midnightblue" points="1238.97,-141.667 1242.17,-131.568 1233.37,-137.467 1238.97,-141.667"/>
</g>
<!-- Node29&#45;&gt;Node17 -->
<g id="edge38" class="edge"><title>Node29&#45;&gt;Node17</title>
<path fill="none" stroke="midnightblue" d="M1092.37,-434.446C1055.33,-419.016 978.721,-383.642 927,-336 906.171,-316.814 888.878,-288.673 878.987,-270.593"/>
<polygon fill="midnightblue" stroke="midnightblue" points="882.052,-268.903 874.278,-261.705 875.867,-272.18 882.052,-268.903"/>
</g>
<!-- Node30 -->
<g id="node30" class="node"><title>Node30</title>
<g id="a_node30"><a xlink:href="VectorArray_8hpp.html" target="_top" xlink:title="Core/Containers/VectorArray.hpp">
<polygon fill="white" stroke="black" points="1147.5,-310.5 1147.5,-329.5 1308.5,-329.5 1308.5,-310.5 1147.5,-310.5"/>
<text text-anchor="middle" x="1228" y="-317.5" font-family="Helvetica,sans-Serif" font-size="10.00">Core/Containers/VectorArray.hpp</text>
</a>
</g>
</g>
<!-- Node29&#45;&gt;Node30 -->
<g id="edge33" class="edge"><title>Node29&#45;&gt;Node30</title>
<path fill="none" stroke="midnightblue" d="M1165.58,-434.439C1190.4,-427.445 1217.97,-414.799 1233,-392 1243.18,-376.56 1239.75,-354.905 1235.14,-339.579"/>
<polygon fill="midnightblue" stroke="midnightblue" points="1238.31,-338.04 1231.76,-329.719 1231.69,-340.313 1238.31,-338.04"/>
</g>
<!-- Node31 -->
<g id="node31" class="node"><title>Node31</title>
<g id="a_node31"><a xlink:href="MeshTypes_8hpp.html" target="_top" xlink:title="Core/Mesh/MeshTypes.hpp">
<polygon fill="white" stroke="black" points="936.5,-310.5 936.5,-329.5 1073.5,-329.5 1073.5,-310.5 936.5,-310.5"/>
<text text-anchor="middle" x="1005" y="-317.5" font-family="Helvetica,sans-Serif" font-size="10.00">Core/Mesh/MeshTypes.hpp</text>
</a>
</g>
</g>
<!-- Node29&#45;&gt;Node31 -->
<g id="edge39" class="edge"><title>Node29&#45;&gt;Node31</title>
<path fill="none" stroke="midnightblue" d="M1097.99,-434.399C1082.44,-425.426 1058.91,-410.147 1043,-392 1029.07,-376.111 1018.35,-354.238 1011.9,-338.984"/>
<polygon fill="midnightblue" stroke="midnightblue" points="1015.11,-337.601 1008.13,-329.636 1008.62,-340.219 1015.11,-337.601"/>
</g>
<!-- Node32 -->
<g id="node32" class="node"><title>Node32</title>
<g id="a_node32"><a xlink:href="Attribs_8hpp.html" target="_top" xlink:title="Core/Utils/Attribs.hpp">
<polygon fill="white" stroke="black" points="1281.5,-372.5 1281.5,-391.5 1392.5,-391.5 1392.5,-372.5 1281.5,-372.5"/>
<text text-anchor="middle" x="1337" y="-379.5" font-family="Helvetica,sans-Serif" font-size="10.00">Core/Utils/Attribs.hpp</text>
</a>
</g>
</g>
<!-- Node29&#45;&gt;Node32 -->
<g id="edge44" class="edge"><title>Node29&#45;&gt;Node32</title>
<path fill="none" stroke="midnightblue" d="M1145.95,-434.403C1185.28,-423.822 1252.16,-405.827 1295.45,-394.18"/>
<polygon fill="midnightblue" stroke="midnightblue" points="1296.36,-397.559 1305.11,-391.581 1294.54,-390.799 1296.36,-397.559"/>
</g>
<!-- Node38 -->
<g id="node38" class="node"><title>Node38</title>
<g id="a_node38"><a xlink:href="TriangleMesh_8inl.html" target="_top" xlink:title="Core/Mesh/TriangleMesh.inl">
<polygon fill="white" stroke="black" points="1085.5,-372.5 1085.5,-391.5 1224.5,-391.5 1224.5,-372.5 1085.5,-372.5"/>
<text text-anchor="middle" x="1155" y="-379.5" font-family="Helvetica,sans-Serif" font-size="10.00">Core/Mesh/TriangleMesh.inl</text>
</a>
</g>
</g>
<!-- Node29&#45;&gt;Node38 -->
<g id="edge57" class="edge"><title>Node29&#45;&gt;Node38</title>
<path fill="none" stroke="midnightblue" d="M1114.97,-434.403C1119.22,-425.314 1128.77,-410.756 1137.66,-399.449"/>
<polygon fill="midnightblue" stroke="midnightblue" points="1140.51,-401.498 1144.24,-391.581 1135.14,-397.009 1140.51,-401.498"/>
</g>
<!-- Node30&#45;&gt;Node4 -->
<g id="edge34" class="edge"><title>Node30&#45;&gt;Node4</title>
<path fill="none" stroke="midnightblue" d="M1211.53,-310.372C1192.95,-300.643 1162.19,-284.529 1137.99,-271.851"/>
<polygon fill="midnightblue" stroke="midnightblue" points="1139.56,-268.721 1129.07,-267.181 1136.31,-274.922 1139.56,-268.721"/>
</g>
<!-- Node30&#45;&gt;Node5 -->
<g id="edge36" class="edge"><title>Node30&#45;&gt;Node5</title>
<path fill="none" stroke="midnightblue" d="M1233.25,-310.47C1244.57,-291.495 1270.88,-243.986 1279,-200 1281.58,-186.014 1283.12,-181.612 1279,-168 1275.88,-157.705 1269.55,-147.612 1263.5,-139.602"/>
<polygon fill="midnightblue" stroke="midnightblue" points="1266.22,-137.399 1257.21,-131.818 1260.77,-141.797 1266.22,-137.399"/>
</g>
<!-- Node30&#45;&gt;Node13 -->
<g id="edge37" class="edge"><title>Node30&#45;&gt;Node13</title>
<path fill="none" stroke="midnightblue" d="M1229.38,-310.208C1232.75,-288.722 1241.45,-233.167 1246.05,-203.814"/>
<polygon fill="midnightblue" stroke="midnightblue" points="1249.55,-204.072 1247.64,-193.65 1242.64,-202.988 1249.55,-204.072"/>
</g>
<!-- Node30&#45;&gt;Node17 -->
<g id="edge35" class="edge"><title>Node30&#45;&gt;Node17</title>
<path fill="none" stroke="midnightblue" d="M1181.56,-310.439C1116.11,-298.372 996.843,-276.384 926.382,-263.395"/>
<polygon fill="midnightblue" stroke="midnightblue" points="926.822,-259.917 916.353,-261.546 925.553,-266.801 926.822,-259.917"/>
</g>
<!-- Node31&#45;&gt;Node5 -->
<g id="edge42" class="edge"><title>Node31&#45;&gt;Node5</title>
<path fill="none" stroke="midnightblue" d="M1003.85,-310.355C1000.94,-284.657 996.186,-208.043 1036,-168 1057.51,-146.364 1136.61,-134.12 1192.1,-128.027"/>
<polygon fill="midnightblue" stroke="midnightblue" points="1192.59,-131.494 1202.17,-126.96 1191.86,-124.533 1192.59,-131.494"/>
</g>
<!-- Node31&#45;&gt;Node14 -->
<g id="edge40" class="edge"><title>Node31&#45;&gt;Node14</title>
<path fill="none" stroke="midnightblue" d="M968.682,-310.439C918.116,-298.52 826.494,-276.924 771.148,-263.878"/>
<polygon fill="midnightblue" stroke="midnightblue" points="771.79,-260.433 761.254,-261.546 770.184,-267.247 771.79,-260.433"/>
</g>
<!-- Node31&#45;&gt;Node17 -->
<g id="edge41" class="edge"><title>Node31&#45;&gt;Node17</title>
<path fill="none" stroke="midnightblue" d="M987.351,-310.372C964.308,-299.106 923.753,-279.279 896.878,-266.14"/>
<polygon fill="midnightblue" stroke="midnightblue" points="898.174,-262.878 887.653,-261.63 895.1,-269.167 898.174,-262.878"/>
</g>
<!-- Node32&#45;&gt;Node5 -->
<g id="edge56" class="edge"><title>Node32&#45;&gt;Node5</title>
<path fill="none" stroke="midnightblue" d="M1337.08,-372.27C1337,-342.019 1333.71,-239.62 1295,-168 1288.74,-156.412 1278.48,-145.953 1269.25,-138.04"/>
<polygon fill="midnightblue" stroke="midnightblue" points="1271.17,-135.094 1261.19,-131.53 1266.77,-140.538 1271.17,-135.094"/>
</g>
<!-- Node32&#45;&gt;Node30 -->
<g id="edge45" class="edge"><title>Node32&#45;&gt;Node30</title>
<path fill="none" stroke="midnightblue" d="M1321.38,-372.403C1303.41,-362.512 1273.68,-346.144 1252.59,-334.538"/>
<polygon fill="midnightblue" stroke="midnightblue" points="1254.04,-331.337 1243.59,-329.581 1250.66,-337.469 1254.04,-331.337"/>
</g>
<!-- Node32&#45;&gt;Node33 -->
<g id="edge46" class="edge"><title>Node32&#45;&gt;Node33</title>
<path fill="none" stroke="midnightblue" d="M1367.66,-372.403C1405.24,-361.866 1469.04,-343.978 1510.6,-332.328"/>
<polygon fill="midnightblue" stroke="midnightblue" points="1511.71,-335.65 1520.4,-329.581 1509.82,-328.91 1511.71,-335.65"/>
</g>
<!-- Node33&#45;&gt;Node5 -->
<g id="edge47" class="edge"><title>Node33&#45;&gt;Node5</title>
<path fill="none" stroke="midnightblue" d="M1565.39,-310.359C1578.49,-301.561 1596.99,-286.592 1605,-268 1610.63,-254.939 1611.2,-248.801 1605,-236 1583.77,-192.143 1563.55,-187.74 1519,-168 1449.88,-137.372 1362.39,-127.432 1306.06,-124.296"/>
<polygon fill="midnightblue" stroke="midnightblue" points="1306.08,-120.793 1295.91,-123.786 1305.73,-127.784 1306.08,-120.793"/>
</g>
<!-- Node33&#45;&gt;Node10 -->
<g id="edge48" class="edge"><title>Node33&#45;&gt;Node10</title>
<path fill="none" stroke="midnightblue" d="M1567.43,-310.341C1583.08,-301.429 1606.49,-286.289 1622,-268 1648.61,-236.62 1663,-226.144 1663,-185 1663,-185 1663,-185 1663,-121 1663,-69.9765 1604.24,-38.2927 1564.54,-22.7092"/>
<polygon fill="midnightblue" stroke="midnightblue" points="1565.75,-19.4231 1555.15,-19.1811 1563.28,-25.9755 1565.75,-19.4231"/>
</g>
<!-- Node34 -->
<g id="node34" class="node"><title>Node34</title>
<polygon fill="white" stroke="#bfbfbf" points="1691,-242.5 1691,-261.5 1737,-261.5 1737,-242.5 1691,-242.5"/>
<text text-anchor="middle" x="1714" y="-249.5" font-family="Helvetica,sans-Serif" font-size="10.00">stdio.h</text>
</g>
<!-- Node33&#45;&gt;Node34 -->
<g id="edge49" class="edge"><title>Node33&#45;&gt;Node34</title>
<path fill="none" stroke="midnightblue" d="M1572.4,-310.341C1597.47,-300.197 1640.25,-282.885 1677,-268 1679.09,-267.154 1681.24,-266.281 1683.41,-265.402"/>
<polygon fill="midnightblue" stroke="midnightblue" points="1684.92,-268.569 1692.87,-261.569 1682.29,-262.082 1684.92,-268.569"/>
</g>
<!-- Node35 -->
<g id="node35" class="node"><title>Node35</title>
<polygon fill="white" stroke="#bfbfbf" points="1469.5,-174.5 1469.5,-193.5 1510.5,-193.5 1510.5,-174.5 1469.5,-174.5"/>
<text text-anchor="middle" x="1490" y="-181.5" font-family="Helvetica,sans-Serif" font-size="10.00">string</text>
</g>
<!-- Node33&#45;&gt;Node35 -->
<g id="edge50" class="edge"><title>Node33&#45;&gt;Node35</title>
<path fill="none" stroke="midnightblue" d="M1547,-310.208C1537.13,-288.532 1511.48,-232.181 1498.21,-203.041"/>
<polygon fill="midnightblue" stroke="midnightblue" points="1501.27,-201.302 1493.94,-193.65 1494.9,-204.202 1501.27,-201.302"/>
</g>
<!-- Node36 -->
<g id="node36" class="node"><title>Node36</title>
<g id="a_node36"><a xlink:href="StringUtils_8hpp.html" target="_top" xlink:title="Core/String/StringUtils.hpp">
<polygon fill="white" stroke="black" points="1365,-242.5 1365,-261.5 1499,-261.5 1499,-242.5 1365,-242.5"/>
<text text-anchor="middle" x="1432" y="-249.5" font-family="Helvetica,sans-Serif" font-size="10.00">Core/String/StringUtils.hpp</text>
</a>
</g>
</g>
<!-- Node33&#45;&gt;Node36 -->
<g id="edge51" class="edge"><title>Node33&#45;&gt;Node36</title>
<path fill="none" stroke="midnightblue" d="M1535.44,-310.372C1515.31,-299.205 1480.01,-279.627 1456.32,-266.488"/>
<polygon fill="midnightblue" stroke="midnightblue" points="1458,-263.42 1447.56,-261.63 1454.61,-269.541 1458,-263.42"/>
</g>
<!-- Node37 -->
<g id="node37" class="node"><title>Node37</title>
<polygon fill="white" stroke="#bfbfbf" points="1555.5,-242.5 1555.5,-261.5 1596.5,-261.5 1596.5,-242.5 1555.5,-242.5"/>
<text text-anchor="middle" x="1576" y="-249.5" font-family="Helvetica,sans-Serif" font-size="10.00">ctime</text>
</g>
<!-- Node33&#45;&gt;Node37 -->
<g id="edge55" class="edge"><title>Node33&#45;&gt;Node37</title>
<path fill="none" stroke="midnightblue" d="M1554.27,-310.372C1557.99,-300.544 1564.18,-284.202 1569,-271.467"/>
<polygon fill="midnightblue" stroke="midnightblue" points="1572.38,-272.433 1572.65,-261.841 1565.84,-269.953 1572.38,-272.433"/>
</g>
<!-- Node36&#45;&gt;Node5 -->
<g id="edge52" class="edge"><title>Node36&#45;&gt;Node5</title>
<path fill="none" stroke="midnightblue" d="M1425.3,-242.163C1412.44,-225.706 1382.76,-190.036 1351,-168 1330.77,-153.967 1305.47,-142.771 1285.12,-135.056"/>
<polygon fill="midnightblue" stroke="midnightblue" points="1286.17,-131.712 1275.58,-131.551 1283.76,-138.283 1286.17,-131.712"/>
</g>
<!-- Node36&#45;&gt;Node13 -->
<g id="edge54" class="edge"><title>Node36&#45;&gt;Node13</title>
<path fill="none" stroke="midnightblue" d="M1408.08,-242.372C1375.49,-230.618 1317.06,-209.545 1280.81,-196.471"/>
<polygon fill="midnightblue" stroke="midnightblue" points="1281.81,-193.111 1271.21,-193.01 1279.43,-199.696 1281.81,-193.111"/>
</g>
<!-- Node36&#45;&gt;Node35 -->
<g id="edge53" class="edge"><title>Node36&#45;&gt;Node35</title>
<path fill="none" stroke="midnightblue" d="M1439.58,-242.372C1448.65,-232.053 1464.03,-214.551 1475.42,-201.585"/>
<polygon fill="midnightblue" stroke="midnightblue" points="1478.26,-203.663 1482.23,-193.841 1473,-199.042 1478.26,-203.663"/>
</g>
<!-- Node38&#45;&gt;Node29 -->
<g id="edge58" class="edge"><title>Node38&#45;&gt;Node29</title>
<path fill="none" stroke="midnightblue" d="M1154.03,-391.581C1149.79,-400.663 1140.25,-415.22 1131.35,-426.531"/>
<polygon fill="midnightblue" stroke="midnightblue" points="1128.5,-424.485 1124.77,-434.403 1133.87,-428.973 1128.5,-424.485"/>
</g>
<!-- Node39&#45;&gt;Node17 -->
<g id="edge60" class="edge"><title>Node39&#45;&gt;Node17</title>
<path fill="none" stroke="midnightblue" d="M924.171,-428.802C913.707,-419.47 901.169,-406.36 894,-392 874.283,-352.507 870.434,-299.717 869.882,-271.935"/>
<polygon fill="midnightblue" stroke="midnightblue" points="873.38,-271.646 869.81,-261.671 866.38,-271.695 873.38,-271.646"/>
</g>
</g>
</svg>
