<?xml version="1.0" encoding="UTF-8" standalone="no"?>
<!DOCTYPE svg PUBLIC "-//W3C//DTD SVG 1.1//EN"
 "http://www.w3.org/Graphics/SVG/1.1/DTD/svg11.dtd">
<!-- Generated by graphviz version 2.36.0 (20140111.2315)
 -->
<!-- Title: /home/travis/build/STORM&#45;IRIT/Radium&#45;Engine/src/Core/Geometry/Mapping/MappingOperation.hpp Pages: 1 -->
<svg width="1710pt" height="546pt"
 viewBox="0.00 0.00 1710.00 546.00" xmlns="http://www.w3.org/2000/svg" xmlns:xlink="http://www.w3.org/1999/xlink">
<g id="graph0" class="graph" transform="scale(1 1) rotate(0) translate(4 542)">
<title>/home/travis/build/STORM&#45;IRIT/Radium&#45;Engine/src/Core/Geometry/Mapping/MappingOperation.hpp</title>
<polygon fill="white" stroke="none" points="-4,4 -4,-542 1706,-542 1706,4 -4,4"/>
<!-- Node1 -->
<g id="node1" class="node"><title>Node1</title>
<polygon fill="#bfbfbf" stroke="black" points="678,-485 678,-537 826,-537 826,-485 678,-485"/>
<text text-anchor="start" x="686" y="-525" font-family="Helvetica,sans-Serif" font-size="10.00">/home/travis/build</text>
<text text-anchor="start" x="686" y="-514" font-family="Helvetica,sans-Serif" font-size="10.00">/STORM&#45;IRIT/Radium&#45;Engine</text>
<text text-anchor="start" x="686" y="-503" font-family="Helvetica,sans-Serif" font-size="10.00">/src/Core/Geometry/Mapping</text>
<text text-anchor="middle" x="752" y="-492" font-family="Helvetica,sans-Serif" font-size="10.00">/MappingOperation.hpp</text>
</g>
<!-- Node2 -->
<g id="node2" class="node"><title>Node2</title>
<g id="a_node2"><a xlink:href="Mapping_8hpp.html" target="_top" xlink:title="Core/Geometry/Mapping\l/Mapping.hpp">
<polygon fill="white" stroke="black" points="233.5,-305 233.5,-335 356.5,-335 356.5,-305 233.5,-305"/>
<text text-anchor="start" x="241.5" y="-323" font-family="Helvetica,sans-Serif" font-size="10.00">Core/Geometry/Mapping</text>
<text text-anchor="middle" x="295" y="-312" font-family="Helvetica,sans-Serif" font-size="10.00">/Mapping.hpp</text>
</a>
</g>
</g>
<!-- Node1&#45;&gt;Node2 -->
<g id="edge1" class="edge"><title>Node1&#45;&gt;Node2</title>
<path fill="none" stroke="midnightblue" d="M691.314,-484.902C597.755,-446.209 420.542,-372.92 338.587,-339.026"/>
<polygon fill="midnightblue" stroke="midnightblue" points="339.655,-335.68 329.076,-335.093 336.98,-342.149 339.655,-335.68"/>
</g>
<!-- Node28 -->
<g id="node28" class="node"><title>Node28</title>
<g id="a_node28"><a xlink:href="TriangleMesh_8hpp.html" target="_top" xlink:title="Core/Mesh/TriangleMesh.hpp">
<polygon fill="white" stroke="black" points="1060.5,-428.5 1060.5,-447.5 1205.5,-447.5 1205.5,-428.5 1060.5,-428.5"/>
<text text-anchor="middle" x="1133" y="-435.5" font-family="Helvetica,sans-Serif" font-size="10.00">Core/Mesh/TriangleMesh.hpp</text>
</a>
</g>
</g>
<!-- Node1&#45;&gt;Node28 -->
<g id="edge31" class="edge"><title>Node1&#45;&gt;Node28</title>
<path fill="none" stroke="midnightblue" d="M826.365,-496.142C900.005,-482.419 1011.08,-461.719 1077.39,-449.363"/>
<polygon fill="midnightblue" stroke="midnightblue" points="1078.05,-452.801 1087.24,-447.528 1076.76,-445.92 1078.05,-452.801"/>
</g>
<!-- Node3 -->
<g id="node3" class="node"><title>Node3</title>
<g id="a_node3"><a xlink:href="AlignedStdVector_8hpp.html" target="_top" xlink:title="Core/Containers/AlignedStd\lVector.hpp">
<polygon fill="white" stroke="black" points="1032,-237 1032,-267 1170,-267 1170,-237 1032,-237"/>
<text text-anchor="start" x="1040" y="-255" font-family="Helvetica,sans-Serif" font-size="10.00">Core/Containers/AlignedStd</text>
<text text-anchor="middle" x="1101" y="-244" font-family="Helvetica,sans-Serif" font-size="10.00">Vector.hpp</text>
</a>
</g>
</g>
<!-- Node2&#45;&gt;Node3 -->
<g id="edge2" class="edge"><title>Node2&#45;&gt;Node3</title>
<path fill="none" stroke="midnightblue" d="M356.587,-309.653C371.434,-307.598 387.264,-305.569 402,-304 626.12,-280.141 891.87,-264.108 1021.67,-257.067"/>
<polygon fill="midnightblue" stroke="midnightblue" points="1022.11,-260.549 1031.91,-256.515 1021.74,-253.559 1022.11,-260.549"/>
</g>
<!-- Node13 -->
<g id="node13" class="node"><title>Node13</title>
<g id="a_node13"><a xlink:href="Index_8hpp.html" target="_top" xlink:title="Core/Index/Index.hpp">
<polygon fill="white" stroke="black" points="176,-242.5 176,-261.5 286,-261.5 286,-242.5 176,-242.5"/>
<text text-anchor="middle" x="231" y="-249.5" font-family="Helvetica,sans-Serif" font-size="10.00">Core/Index/Index.hpp</text>
</a>
</g>
</g>
<!-- Node2&#45;&gt;Node13 -->
<g id="edge12" class="edge"><title>Node2&#45;&gt;Node13</title>
<path fill="none" stroke="midnightblue" d="M281.113,-304.679C270.936,-294.184 257.116,-279.932 246.566,-269.052"/>
<polygon fill="midnightblue" stroke="midnightblue" points="249.035,-266.571 239.561,-261.828 244.01,-271.444 249.035,-266.571"/>
</g>
<!-- Node16 -->
<g id="node16" class="node"><title>Node16</title>
<g id="a_node16"><a xlink:href="LinearAlgebra_8hpp.html" target="_top" xlink:title="Core/Math/LinearAlgebra.hpp">
<polygon fill="white" stroke="black" points="545.5,-242.5 545.5,-261.5 688.5,-261.5 688.5,-242.5 545.5,-242.5"/>
<text text-anchor="middle" x="617" y="-249.5" font-family="Helvetica,sans-Serif" font-size="10.00">Core/Math/LinearAlgebra.hpp</text>
</a>
</g>
</g>
<!-- Node2&#45;&gt;Node16 -->
<g id="edge15" class="edge"><title>Node2&#45;&gt;Node16</title>
<path fill="none" stroke="midnightblue" d="M356.704,-306.353C417.343,-293.923 508.814,-275.175 565.618,-263.532"/>
<polygon fill="midnightblue" stroke="midnightblue" points="566.367,-266.951 575.461,-261.514 564.961,-260.094 566.367,-266.951"/>
</g>
<!-- Node27 -->
<g id="node27" class="node"><title>Node27</title>
<g id="a_node27"><a xlink:href="Mapping_8inl.html" target="_top" xlink:title="Core/Geometry/Mapping\l/Mapping.inl">
<polygon fill="white" stroke="black" points="34.5,-237 34.5,-267 157.5,-267 157.5,-237 34.5,-237"/>
<text text-anchor="start" x="42.5" y="-255" font-family="Helvetica,sans-Serif" font-size="10.00">Core/Geometry/Mapping</text>
<text text-anchor="middle" x="96" y="-244" font-family="Helvetica,sans-Serif" font-size="10.00">/Mapping.inl</text>
</a>
</g>
</g>
<!-- Node2&#45;&gt;Node27 -->
<g id="edge29" class="edge"><title>Node2&#45;&gt;Node27</title>
<path fill="none" stroke="midnightblue" d="M246.907,-304.922C215.193,-294.845 173.957,-281.211 142.561,-270.443"/>
<polygon fill="midnightblue" stroke="midnightblue" points="143.332,-267.007 132.737,-267.056 141.05,-273.625 143.332,-267.007"/>
</g>
<!-- Node4 -->
<g id="node4" class="node"><title>Node4</title>
<g id="a_node4"><a xlink:href="RaCore_8hpp.html" target="_top" xlink:title="Core/RaCore.hpp">
<polygon fill="white" stroke="black" points="1233.5,-112.5 1233.5,-131.5 1326.5,-131.5 1326.5,-112.5 1233.5,-112.5"/>
<text text-anchor="middle" x="1280" y="-119.5" font-family="Helvetica,sans-Serif" font-size="10.00">Core/RaCore.hpp</text>
</a>
</g>
</g>
<!-- Node3&#45;&gt;Node4 -->
<g id="edge3" class="edge"><title>Node3&#45;&gt;Node4</title>
<path fill="none" stroke="midnightblue" d="M1111.67,-236.758C1125.71,-218.807 1151.92,-187.898 1180,-168 1199.76,-154.001 1224.57,-142.804 1244.53,-135.081"/>
<polygon fill="midnightblue" stroke="midnightblue" points="1245.76,-138.357 1253.9,-131.572 1243.31,-131.802 1245.76,-138.357"/>
</g>
<!-- Node11 -->
<g id="node11" class="node"><title>Node11</title>
<polygon fill="white" stroke="#bfbfbf" points="1045,-174.5 1045,-193.5 1133,-193.5 1133,-174.5 1045,-174.5"/>
<text text-anchor="middle" x="1089" y="-181.5" font-family="Helvetica,sans-Serif" font-size="10.00">Eigen/StdVector</text>
</g>
<!-- Node3&#45;&gt;Node11 -->
<g id="edge10" class="edge"><title>Node3&#45;&gt;Node11</title>
<path fill="none" stroke="midnightblue" d="M1098.4,-236.679C1096.65,-227.101 1094.34,-214.394 1092.45,-203.977"/>
<polygon fill="midnightblue" stroke="midnightblue" points="1095.84,-203.041 1090.61,-193.828 1088.95,-204.293 1095.84,-203.041"/>
</g>
<!-- Node12 -->
<g id="node12" class="node"><title>Node12</title>
<polygon fill="white" stroke="#bfbfbf" points="1189,-174.5 1189,-193.5 1233,-193.5 1233,-174.5 1189,-174.5"/>
<text text-anchor="middle" x="1211" y="-181.5" font-family="Helvetica,sans-Serif" font-size="10.00">vector</text>
</g>
<!-- Node3&#45;&gt;Node12 -->
<g id="edge11" class="edge"><title>Node3&#45;&gt;Node12</title>
<path fill="none" stroke="midnightblue" d="M1124.6,-236.841C1143.28,-225.63 1169.24,-210.056 1187.82,-198.91"/>
<polygon fill="midnightblue" stroke="midnightblue" points="1189.76,-201.828 1196.53,-193.682 1186.15,-195.826 1189.76,-201.828"/>
</g>
<!-- Node5 -->
<g id="node5" class="node"><title>Node5</title>
<g id="a_node5"><a xlink:href="CoreMacros_8hpp.html" target="_top" xlink:title="Core/CoreMacros.hpp">
<polygon fill="white" stroke="black" points="1297.5,-56.5 1297.5,-75.5 1410.5,-75.5 1410.5,-56.5 1297.5,-56.5"/>
<text text-anchor="middle" x="1354" y="-63.5" font-family="Helvetica,sans-Serif" font-size="10.00">Core/CoreMacros.hpp</text>
</a>
</g>
</g>
<!-- Node4&#45;&gt;Node5 -->
<g id="edge4" class="edge"><title>Node4&#45;&gt;Node5</title>
<path fill="none" stroke="midnightblue" d="M1291.89,-112.324C1303.15,-104.107 1320.29,-91.6017 1333.71,-81.8069"/>
<polygon fill="midnightblue" stroke="midnightblue" points="1335.88,-84.5559 1341.89,-75.8339 1331.75,-78.9014 1335.88,-84.5559"/>
</g>
<!-- Node6 -->
<g id="node6" class="node"><title>Node6</title>
<polygon fill="white" stroke="#bfbfbf" points="1428.5,-0.5 1428.5,-19.5 1477.5,-19.5 1477.5,-0.5 1428.5,-0.5"/>
<text text-anchor="middle" x="1453" y="-7.5" font-family="Helvetica,sans-Serif" font-size="10.00">cassert</text>
</g>
<!-- Node5&#45;&gt;Node6 -->
<g id="edge5" class="edge"><title>Node5&#45;&gt;Node6</title>
<path fill="none" stroke="midnightblue" d="M1369.91,-56.324C1385.64,-47.7428 1409.94,-34.486 1428.21,-24.5224"/>
<polygon fill="midnightblue" stroke="midnightblue" points="1430.03,-27.5157 1437.13,-19.6545 1426.68,-21.3704 1430.03,-27.5157"/>
</g>
<!-- Node7 -->
<g id="node7" class="node"><title>Node7</title>
<polygon fill="white" stroke="#bfbfbf" points="1232.5,-0.5 1232.5,-19.5 1275.5,-19.5 1275.5,-0.5 1232.5,-0.5"/>
<text text-anchor="middle" x="1254" y="-7.5" font-family="Helvetica,sans-Serif" font-size="10.00">cstdio</text>
</g>
<!-- Node5&#45;&gt;Node7 -->
<g id="edge6" class="edge"><title>Node5&#45;&gt;Node7</title>
<path fill="none" stroke="midnightblue" d="M1337.93,-56.324C1322.04,-47.7428 1297.49,-34.486 1279.04,-24.5224"/>
<polygon fill="midnightblue" stroke="midnightblue" points="1280.49,-21.3264 1270.03,-19.6545 1277.16,-27.4857 1280.49,-21.3264"/>
</g>
<!-- Node8 -->
<g id="node8" class="node"><title>Node8</title>
<polygon fill="white" stroke="#bfbfbf" points="1294,-0.5 1294,-19.5 1348,-19.5 1348,-0.5 1294,-0.5"/>
<text text-anchor="middle" x="1321" y="-7.5" font-family="Helvetica,sans-Serif" font-size="10.00">iostream</text>
</g>
<!-- Node5&#45;&gt;Node8 -->
<g id="edge7" class="edge"><title>Node5&#45;&gt;Node8</title>
<path fill="none" stroke="midnightblue" d="M1348.55,-56.083C1343.99,-48.6127 1337.33,-37.7244 1331.71,-28.5199"/>
<polygon fill="midnightblue" stroke="midnightblue" points="1334.55,-26.4588 1326.35,-19.7511 1328.58,-30.109 1334.55,-26.4588"/>
</g>
<!-- Node9 -->
<g id="node9" class="node"><title>Node9</title>
<polygon fill="white" stroke="#bfbfbf" points="1556,-0.5 1556,-19.5 1608,-19.5 1608,-0.5 1556,-0.5"/>
<text text-anchor="middle" x="1582" y="-7.5" font-family="Helvetica,sans-Serif" font-size="10.00">sstream</text>
</g>
<!-- Node5&#45;&gt;Node9 -->
<g id="edge8" class="edge"><title>Node5&#45;&gt;Node9</title>
<path fill="none" stroke="midnightblue" d="M1390.13,-56.4435C1432.82,-46.3331 1503.41,-29.6134 1546.03,-19.5192"/>
<polygon fill="midnightblue" stroke="midnightblue" points="1547.05,-22.8754 1555.97,-17.1649 1545.43,-16.0638 1547.05,-22.8754"/>
</g>
<!-- Node10 -->
<g id="node10" class="node"><title>Node10</title>
<polygon fill="white" stroke="#bfbfbf" points="1366,-0.5 1366,-19.5 1410,-19.5 1410,-0.5 1366,-0.5"/>
<text text-anchor="middle" x="1388" y="-7.5" font-family="Helvetica,sans-Serif" font-size="10.00">thread</text>
</g>
<!-- Node5&#45;&gt;Node10 -->
<g id="edge9" class="edge"><title>Node5&#45;&gt;Node10</title>
<path fill="none" stroke="midnightblue" d="M1359.61,-56.083C1364.37,-48.5341 1371.32,-37.4948 1377.15,-28.2298"/>
<polygon fill="midnightblue" stroke="midnightblue" points="1380.12,-30.0783 1382.49,-19.7511 1374.2,-26.3486 1380.12,-30.0783"/>
</g>
<!-- Node14 -->
<g id="node14" class="node"><title>Node14</title>
<polygon fill="white" stroke="#bfbfbf" points="122,-174.5 122,-193.5 162,-193.5 162,-174.5 122,-174.5"/>
<text text-anchor="middle" x="142" y="-181.5" font-family="Helvetica,sans-Serif" font-size="10.00">limits</text>
</g>
<!-- Node13&#45;&gt;Node14 -->
<g id="edge13" class="edge"><title>Node13&#45;&gt;Node14</title>
<path fill="none" stroke="midnightblue" d="M219.365,-242.372C204.84,-231.6 179.76,-213.002 162.101,-199.906"/>
<polygon fill="midnightblue" stroke="midnightblue" points="163.755,-196.776 153.638,-193.63 159.586,-202.398 163.755,-196.776"/>
</g>
<!-- Node15 -->
<g id="node15" class="node"><title>Node15</title>
<g id="a_node15"><a xlink:href="Index_8inl.html" target="_top" xlink:title="Core/Index/Index.inl">
<polygon fill="white" stroke="black" points="0,-174.5 0,-193.5 104,-193.5 104,-174.5 0,-174.5"/>
<text text-anchor="middle" x="52" y="-181.5" font-family="Helvetica,sans-Serif" font-size="10.00">Core/Index/Index.inl</text>
</a>
</g>
</g>
<!-- Node13&#45;&gt;Node15 -->
<g id="edge14" class="edge"><title>Node13&#45;&gt;Node15</title>
<path fill="none" stroke="midnightblue" d="M207.599,-242.372C176.155,-230.778 120.118,-210.116 84.5691,-197.009"/>
<polygon fill="midnightblue" stroke="midnightblue" points="85.7166,-193.702 75.1232,-193.526 83.2949,-200.269 85.7166,-193.702"/>
</g>
<!-- Node16&#45;&gt;Node4 -->
<g id="edge16" class="edge"><title>Node16&#45;&gt;Node4</title>
<path fill="none" stroke="midnightblue" d="M688.595,-246.078C782.912,-238.795 943.132,-223.43 997,-200 1017.56,-191.057 1015.66,-177.444 1036,-168 1096.13,-140.079 1172.14,-129.465 1223.21,-125.44"/>
<polygon fill="midnightblue" stroke="midnightblue" points="1223.68,-128.916 1233.4,-124.699 1223.17,-121.934 1223.68,-128.916"/>
</g>
<!-- Node17 -->
<g id="node17" class="node"><title>Node17</title>
<polygon fill="white" stroke="#bfbfbf" points="342.5,-174.5 342.5,-193.5 407.5,-193.5 407.5,-174.5 342.5,-174.5"/>
<text text-anchor="middle" x="375" y="-181.5" font-family="Helvetica,sans-Serif" font-size="10.00">Eigen/Core</text>
</g>
<!-- Node16&#45;&gt;Node17 -->
<g id="edge17" class="edge"><title>Node16&#45;&gt;Node17</title>
<path fill="none" stroke="midnightblue" d="M578.517,-242.47C537.819,-233.162 471.896,-217.267 416,-200 412.886,-199.038 409.661,-197.976 406.451,-196.875"/>
<polygon fill="midnightblue" stroke="midnightblue" points="407.583,-193.563 396.989,-193.514 405.24,-200.159 407.583,-193.563"/>
</g>
<!-- Node18 -->
<g id="node18" class="node"><title>Node18</title>
<polygon fill="white" stroke="#bfbfbf" points="425.5,-174.5 425.5,-193.5 512.5,-193.5 512.5,-174.5 425.5,-174.5"/>
<text text-anchor="middle" x="469" y="-181.5" font-family="Helvetica,sans-Serif" font-size="10.00">Eigen/Geometry</text>
</g>
<!-- Node16&#45;&gt;Node18 -->
<g id="edge18" class="edge"><title>Node16&#45;&gt;Node18</title>
<path fill="none" stroke="midnightblue" d="M597.652,-242.372C572.168,-231.007 527.148,-210.931 497.694,-197.796"/>
<polygon fill="midnightblue" stroke="midnightblue" points="498.912,-194.507 488.353,-193.63 496.061,-200.9 498.912,-194.507"/>
</g>
<!-- Node19 -->
<g id="node19" class="node"><title>Node19</title>
<polygon fill="white" stroke="#bfbfbf" points="530.5,-174.5 530.5,-193.5 605.5,-193.5 605.5,-174.5 530.5,-174.5"/>
<text text-anchor="middle" x="568" y="-181.5" font-family="Helvetica,sans-Serif" font-size="10.00">Eigen/Sparse</text>
</g>
<!-- Node16&#45;&gt;Node19 -->
<g id="edge19" class="edge"><title>Node16&#45;&gt;Node19</title>
<path fill="none" stroke="midnightblue" d="M610.594,-242.372C603.006,-232.151 590.187,-214.884 580.589,-201.957"/>
<polygon fill="midnightblue" stroke="midnightblue" points="583.335,-199.784 574.564,-193.841 577.715,-203.957 583.335,-199.784"/>
</g>
<!-- Node20 -->
<g id="node20" class="node"><title>Node20</title>
<polygon fill="white" stroke="#bfbfbf" points="623.5,-174.5 623.5,-193.5 682.5,-193.5 682.5,-174.5 623.5,-174.5"/>
<text text-anchor="middle" x="653" y="-181.5" font-family="Helvetica,sans-Serif" font-size="10.00">functional</text>
</g>
<!-- Node16&#45;&gt;Node20 -->
<g id="edge20" class="edge"><title>Node16&#45;&gt;Node20</title>
<path fill="none" stroke="midnightblue" d="M621.706,-242.372C627.174,-232.348 636.339,-215.546 643.341,-202.708"/>
<polygon fill="midnightblue" stroke="midnightblue" points="646.462,-204.296 648.178,-193.841 640.316,-200.944 646.462,-204.296"/>
</g>
<!-- Node21 -->
<g id="node21" class="node"><title>Node21</title>
<polygon fill="white" stroke="#bfbfbf" points="700.5,-169 700.5,-199 833.5,-199 833.5,-169 700.5,-169"/>
<text text-anchor="start" x="708.5" y="-187" font-family="Helvetica,sans-Serif" font-size="10.00">unsupported/Eigen/Aligned</text>
<text text-anchor="middle" x="767" y="-176" font-family="Helvetica,sans-Serif" font-size="10.00">Vector3</text>
</g>
<!-- Node16&#45;&gt;Node21 -->
<g id="edge21" class="edge"><title>Node16&#45;&gt;Node21</title>
<path fill="none" stroke="midnightblue" d="M636.61,-242.372C659.084,-232.483 696.552,-215.997 725.571,-203.229"/>
<polygon fill="midnightblue" stroke="midnightblue" points="727.31,-206.287 735.054,-199.056 724.491,-199.88 727.31,-206.287"/>
</g>
<!-- Node22 -->
<g id="node22" class="node"><title>Node22</title>
<g id="a_node22"><a xlink:href="Math_8hpp.html" target="_top" xlink:title="Core/Math/Math.hpp">
<polygon fill="white" stroke="black" points="180,-174.5 180,-193.5 286,-193.5 286,-174.5 180,-174.5"/>
<text text-anchor="middle" x="233" y="-181.5" font-family="Helvetica,sans-Serif" font-size="10.00">Core/Math/Math.hpp</text>
</a>
</g>
</g>
<!-- Node16&#45;&gt;Node22 -->
<g id="edge22" class="edge"><title>Node16&#45;&gt;Node22</title>
<path fill="none" stroke="midnightblue" d="M567.192,-242.439C496.837,-230.347 368.531,-208.294 293.013,-195.315"/>
<polygon fill="midnightblue" stroke="midnightblue" points="293.168,-191.79 282.719,-193.546 291.982,-198.689 293.168,-191.79"/>
</g>
<!-- Node26 -->
<g id="node26" class="node"><title>Node26</title>
<g id="a_node26"><a xlink:href="LinearAlgebra_8inl.html" target="_top" xlink:title="Core/Math/LinearAlgebra.inl">
<polygon fill="white" stroke="black" points="851.5,-174.5 851.5,-193.5 988.5,-193.5 988.5,-174.5 851.5,-174.5"/>
<text text-anchor="middle" x="920" y="-181.5" font-family="Helvetica,sans-Serif" font-size="10.00">Core/Math/LinearAlgebra.inl</text>
</a>
</g>
</g>
<!-- Node16&#45;&gt;Node26 -->
<g id="edge28" class="edge"><title>Node16&#45;&gt;Node26</title>
<path fill="none" stroke="midnightblue" d="M656.301,-242.439C711.248,-230.471 810.992,-208.744 870.805,-195.716"/>
<polygon fill="midnightblue" stroke="midnightblue" points="871.742,-199.094 880.768,-193.546 870.252,-192.254 871.742,-199.094"/>
</g>
<!-- Node22&#45;&gt;Node4 -->
<g id="edge23" class="edge"><title>Node22&#45;&gt;Node4</title>
<path fill="none" stroke="midnightblue" d="M265.85,-174.447C276.656,-171.955 288.776,-169.502 300,-168 480.295,-143.866 1042,-128.677 1223.1,-124.308"/>
<polygon fill="midnightblue" stroke="midnightblue" points="1223.3,-127.804 1233.21,-124.066 1223.13,-120.806 1223.3,-127.804"/>
</g>
<!-- Node23 -->
<g id="node23" class="node"><title>Node23</title>
<polygon fill="white" stroke="#bfbfbf" points="92,-112.5 92,-131.5 148,-131.5 148,-112.5 92,-112.5"/>
<text text-anchor="middle" x="120" y="-119.5" font-family="Helvetica,sans-Serif" font-size="10.00">algorithm</text>
</g>
<!-- Node22&#45;&gt;Node23 -->
<g id="edge24" class="edge"><title>Node22&#45;&gt;Node23</title>
<path fill="none" stroke="midnightblue" d="M216.81,-174.403C198.098,-164.468 167.077,-147.997 145.201,-136.381"/>
<polygon fill="midnightblue" stroke="midnightblue" points="146.634,-133.179 136.16,-131.581 143.351,-139.362 146.634,-133.179"/>
</g>
<!-- Node24 -->
<g id="node24" class="node"><title>Node24</title>
<polygon fill="white" stroke="#bfbfbf" points="166,-112.5 166,-131.5 210,-131.5 210,-112.5 166,-112.5"/>
<text text-anchor="middle" x="188" y="-119.5" font-family="Helvetica,sans-Serif" font-size="10.00">cmath</text>
</g>
<!-- Node22&#45;&gt;Node24 -->
<g id="edge25" class="edge"><title>Node22&#45;&gt;Node24</title>
<path fill="none" stroke="midnightblue" d="M226.553,-174.403C219.803,-165.403 209.031,-151.041 200.587,-139.782"/>
<polygon fill="midnightblue" stroke="midnightblue" points="203.235,-137.481 194.435,-131.581 197.635,-141.681 203.235,-137.481"/>
</g>
<!-- Node25 -->
<g id="node25" class="node"><title>Node25</title>
<g id="a_node25"><a xlink:href="Math_8inl.html" target="_top" xlink:title="Core/Math/Math.inl">
<polygon fill="white" stroke="black" points="228,-112.5 228,-131.5 328,-131.5 328,-112.5 228,-112.5"/>
<text text-anchor="middle" x="278" y="-119.5" font-family="Helvetica,sans-Serif" font-size="10.00">Core/Math/Math.inl</text>
</a>
</g>
</g>
<!-- Node22&#45;&gt;Node25 -->
<g id="edge26" class="edge"><title>Node22&#45;&gt;Node25</title>
<path fill="none" stroke="midnightblue" d="M234.547,-174.403C239.445,-165.225 250.125,-150.47 259.85,-139.117"/>
<polygon fill="midnightblue" stroke="midnightblue" points="262.555,-141.345 266.667,-131.581 257.364,-136.649 262.555,-141.345"/>
</g>
<!-- Node25&#45;&gt;Node22 -->
<g id="edge27" class="edge"><title>Node25&#45;&gt;Node22</title>
<path fill="none" stroke="midnightblue" d="M276.462,-131.581C271.57,-140.752 260.893,-155.506 251.166,-166.863"/>
<polygon fill="midnightblue" stroke="midnightblue" points="248.459,-164.639 244.348,-174.403 253.651,-169.334 248.459,-164.639"/>
</g>
<!-- Node27&#45;&gt;Node2 -->
<g id="edge30" class="edge"><title>Node27&#45;&gt;Node2</title>
<path fill="none" stroke="midnightblue" d="M143.917,-267.022C175.552,-277.072 216.717,-290.68 248.134,-301.452"/>
<polygon fill="midnightblue" stroke="midnightblue" points="247.372,-304.891 257.967,-304.841 249.653,-298.274 247.372,-304.891"/>
</g>
<!-- Node28&#45;&gt;Node4 -->
<g id="edge42" class="edge"><title>Node28&#45;&gt;Node4</title>
<path fill="none" stroke="midnightblue" d="M1205.72,-436.139C1351.15,-432.44 1664,-413.71 1664,-321 1664,-321 1664,-321 1664,-251 1664,-194.933 1619.82,-191.692 1569,-168 1493.85,-132.96 1396.97,-124.313 1336.67,-122.645"/>
<polygon fill="midnightblue" stroke="midnightblue" points="1336.66,-119.144 1326.59,-122.422 1336.51,-126.142 1336.66,-119.144"/>
</g>
<!-- Node28&#45;&gt;Node16 -->
<g id="edge37" class="edge"><title>Node28&#45;&gt;Node16</title>
<path fill="none" stroke="midnightblue" d="M1109.15,-428.494C1025.78,-398.766 747.245,-299.444 650.471,-264.935"/>
<polygon fill="midnightblue" stroke="midnightblue" points="651.491,-261.583 640.897,-261.521 649.14,-268.177 651.491,-261.583"/>
</g>
<!-- Node29 -->
<g id="node29" class="node"><title>Node29</title>
<g id="a_node29"><a xlink:href="VectorArray_8hpp.html" target="_top" xlink:title="Core/Containers/VectorArray.hpp">
<polygon fill="white" stroke="black" points="1052.5,-310.5 1052.5,-329.5 1213.5,-329.5 1213.5,-310.5 1052.5,-310.5"/>
<text text-anchor="middle" x="1133" y="-317.5" font-family="Helvetica,sans-Serif" font-size="10.00">Core/Containers/VectorArray.hpp</text>
</a>
</g>
</g>
<!-- Node28&#45;&gt;Node29 -->
<g id="edge32" class="edge"><title>Node28&#45;&gt;Node29</title>
<path fill="none" stroke="midnightblue" d="M1126.9,-428.191C1121.25,-419.46 1113.24,-405.478 1110,-392 1105.52,-373.372 1113.89,-352.574 1121.76,-338.329"/>
<polygon fill="midnightblue" stroke="midnightblue" points="1124.84,-340 1126.96,-329.621 1118.83,-336.409 1124.84,-340"/>
</g>
<!-- Node30 -->
<g id="node30" class="node"><title>Node30</title>
<g id="a_node30"><a xlink:href="MeshTypes_8hpp.html" target="_top" xlink:title="Core/Mesh/MeshTypes.hpp">
<polygon fill="white" stroke="black" points="411.5,-310.5 411.5,-329.5 548.5,-329.5 548.5,-310.5 411.5,-310.5"/>
<text text-anchor="middle" x="480" y="-317.5" font-family="Helvetica,sans-Serif" font-size="10.00">Core/Mesh/MeshTypes.hpp</text>
</a>
</g>
</g>
<!-- Node28&#45;&gt;Node30 -->
<g id="edge38" class="edge"><title>Node28&#45;&gt;Node30</title>
<path fill="none" stroke="midnightblue" d="M1084.98,-428.47C967.408,-407.584 665.414,-353.937 538.044,-331.311"/>
<polygon fill="midnightblue" stroke="midnightblue" points="538.545,-327.845 528.087,-329.542 537.321,-334.737 538.545,-327.845"/>
</g>
<!-- Node31 -->
<g id="node31" class="node"><title>Node31</title>
<g id="a_node31"><a xlink:href="Attribs_8hpp.html" target="_top" xlink:title="Core/Utils/Attribs.hpp">
<polygon fill="white" stroke="black" points="1119.5,-372.5 1119.5,-391.5 1230.5,-391.5 1230.5,-372.5 1119.5,-372.5"/>
<text text-anchor="middle" x="1175" y="-379.5" font-family="Helvetica,sans-Serif" font-size="10.00">Core/Utils/Attribs.hpp</text>
</a>
</g>
</g>
<!-- Node28&#45;&gt;Node31 -->
<g id="edge43" class="edge"><title>Node28&#45;&gt;Node31</title>
<path fill="none" stroke="midnightblue" d="M1139.94,-428.083C1145.93,-420.377 1154.75,-409.033 1162.05,-399.653"/>
<polygon fill="midnightblue" stroke="midnightblue" points="1164.82,-401.793 1168.19,-391.751 1159.29,-397.496 1164.82,-401.793"/>
</g>
<!-- Node37 -->
<g id="node37" class="node"><title>Node37</title>
<g id="a_node37"><a xlink:href="TriangleMesh_8inl.html" target="_top" xlink:title="Core/Mesh/TriangleMesh.inl">
<polygon fill="white" stroke="black" points="1248.5,-372.5 1248.5,-391.5 1387.5,-391.5 1387.5,-372.5 1248.5,-372.5"/>
<text text-anchor="middle" x="1318" y="-379.5" font-family="Helvetica,sans-Serif" font-size="10.00">Core/Mesh/TriangleMesh.inl</text>
</a>
</g>
</g>
<!-- Node28&#45;&gt;Node37 -->
<g id="edge56" class="edge"><title>Node28&#45;&gt;Node37</title>
<path fill="none" stroke="midnightblue" d="M1157.23,-428.444C1186.86,-419.201 1237.28,-404.436 1273.83,-394.257"/>
<polygon fill="midnightblue" stroke="midnightblue" points="1275.04,-397.555 1283.74,-391.516 1273.17,-390.808 1275.04,-397.555"/>
</g>
<!-- Node29&#45;&gt;Node3 -->
<g id="edge33" class="edge"><title>Node29&#45;&gt;Node3</title>
<path fill="none" stroke="midnightblue" d="M1128.82,-310.372C1124.66,-301.8 1118.1,-288.272 1112.4,-276.504"/>
<polygon fill="midnightblue" stroke="midnightblue" points="1115.39,-274.653 1107.88,-267.181 1109.09,-277.707 1115.39,-274.653"/>
</g>
<!-- Node29&#45;&gt;Node4 -->
<g id="edge35" class="edge"><title>Node29&#45;&gt;Node4</title>
<path fill="none" stroke="midnightblue" d="M1147.6,-310.46C1162.35,-301.317 1185.16,-285.712 1201,-268 1236.24,-228.583 1261.71,-170.699 1273.19,-141.417"/>
<polygon fill="midnightblue" stroke="midnightblue" points="1276.61,-142.284 1276.9,-131.693 1270.07,-139.789 1276.61,-142.284"/>
</g>
<!-- Node29&#45;&gt;Node12 -->
<g id="edge36" class="edge"><title>Node29&#45;&gt;Node12</title>
<path fill="none" stroke="midnightblue" d="M1142.59,-310.43C1152.76,-300.906 1168.76,-284.661 1179,-268 1191.6,-247.491 1200.72,-221.19 1205.93,-203.751"/>
<polygon fill="midnightblue" stroke="midnightblue" points="1209.41,-204.297 1208.78,-193.721 1202.68,-202.381 1209.41,-204.297"/>
</g>
<!-- Node29&#45;&gt;Node16 -->
<g id="edge34" class="edge"><title>Node29&#45;&gt;Node16</title>
<path fill="none" stroke="midnightblue" d="M1066.33,-310.473C970.59,-298.227 794.587,-275.715 693.61,-262.799"/>
<polygon fill="midnightblue" stroke="midnightblue" points="693.842,-259.3 683.479,-261.503 692.954,-266.244 693.842,-259.3"/>
</g>
<!-- Node30&#45;&gt;Node4 -->
<g id="edge41" class="edge"><title>Node30&#45;&gt;Node4</title>
<path fill="none" stroke="midnightblue" d="M459.789,-310.379C408.485,-287.395 280.861,-222.675 333,-168 363.828,-135.672 1023.53,-125.812 1223.22,-123.562"/>
<polygon fill="midnightblue" stroke="midnightblue" points="1223.54,-127.059 1233.5,-123.448 1223.46,-120.059 1223.54,-127.059"/>
</g>
<!-- Node30&#45;&gt;Node13 -->
<g id="edge39" class="edge"><title>Node30&#45;&gt;Node13</title>
<path fill="none" stroke="midnightblue" d="M447.703,-310.439C403.015,-298.594 322.27,-277.192 272.961,-264.122"/>
<polygon fill="midnightblue" stroke="midnightblue" points="273.803,-260.725 263.24,-261.546 272.009,-267.491 273.803,-260.725"/>
</g>
<!-- Node30&#45;&gt;Node16 -->
<g id="edge40" class="edge"><title>Node30&#45;&gt;Node16</title>
<path fill="none" stroke="midnightblue" d="M497.91,-310.372C521.295,-299.106 562.45,-279.279 589.724,-266.14"/>
<polygon fill="midnightblue" stroke="midnightblue" points="591.595,-269.124 599.085,-261.63 588.557,-262.817 591.595,-269.124"/>
</g>
<!-- Node31&#45;&gt;Node4 -->
<g id="edge55" class="edge"><title>Node31&#45;&gt;Node4</title>
<path fill="none" stroke="midnightblue" d="M1186.97,-372.237C1197.51,-363.956 1212.61,-350.647 1222,-336 1262.65,-272.564 1275.07,-180.944 1278.65,-141.839"/>
<polygon fill="midnightblue" stroke="midnightblue" points="1282.14,-142.124 1279.47,-131.871 1275.16,-141.551 1282.14,-142.124"/>
</g>
<!-- Node31&#45;&gt;Node29 -->
<g id="edge44" class="edge"><title>Node31&#45;&gt;Node29</title>
<path fill="none" stroke="midnightblue" d="M1168.98,-372.403C1162.68,-363.403 1152.63,-349.041 1144.75,-337.782"/>
<polygon fill="midnightblue" stroke="midnightblue" points="1147.61,-335.766 1139.01,-329.581 1141.87,-339.78 1147.61,-335.766"/>
</g>
<!-- Node32 -->
<g id="node32" class="node"><title>Node32</title>
<g id="a_node32"><a xlink:href="Log_8hpp.html" target="_top" xlink:title="Core/Log/Log.hpp">
<polygon fill="white" stroke="black" points="1468,-310.5 1468,-329.5 1562,-329.5 1562,-310.5 1468,-310.5"/>
<text text-anchor="middle" x="1515" y="-317.5" font-family="Helvetica,sans-Serif" font-size="10.00">Core/Log/Log.hpp</text>
</a>
</g>
</g>
<!-- Node31&#45;&gt;Node32 -->
<g id="edge45" class="edge"><title>Node31&#45;&gt;Node32</title>
<path fill="none" stroke="midnightblue" d="M1223.35,-372.467C1285.13,-361.565 1391.92,-342.72 1457.71,-331.109"/>
<polygon fill="midnightblue" stroke="midnightblue" points="1458.67,-334.495 1467.91,-329.31 1457.45,-327.602 1458.67,-334.495"/>
</g>
<!-- Node32&#45;&gt;Node4 -->
<g id="edge46" class="edge"><title>Node32&#45;&gt;Node4</title>
<path fill="none" stroke="midnightblue" d="M1546.67,-310.39C1567.54,-302.889 1593.27,-289.72 1606,-268 1613.19,-255.729 1613.48,-248.098 1606,-236 1549.94,-145.297 1414.22,-126.097 1336.73,-122.818"/>
<polygon fill="midnightblue" stroke="midnightblue" points="1336.77,-119.317 1326.65,-122.467 1336.53,-126.313 1336.77,-119.317"/>
</g>
<!-- Node32&#45;&gt;Node9 -->
<g id="edge47" class="edge"><title>Node32&#45;&gt;Node9</title>
<path fill="none" stroke="midnightblue" d="M1551.5,-310.48C1605.92,-295.361 1702,-258.29 1702,-185 1702,-185 1702,-185 1702,-121 1702,-73.0796 1649.36,-40.3821 1613.81,-23.7644"/>
<polygon fill="midnightblue" stroke="midnightblue" points="1614.85,-20.3959 1604.29,-19.5045 1611.99,-26.7849 1614.85,-20.3959"/>
</g>
<!-- Node33 -->
<g id="node33" class="node"><title>Node33</title>
<polygon fill="white" stroke="#bfbfbf" points="1492,-242.5 1492,-261.5 1538,-261.5 1538,-242.5 1492,-242.5"/>
<text text-anchor="middle" x="1515" y="-249.5" font-family="Helvetica,sans-Serif" font-size="10.00">stdio.h</text>
</g>
<!-- Node32&#45;&gt;Node33 -->
<g id="edge48" class="edge"><title>Node32&#45;&gt;Node33</title>
<path fill="none" stroke="midnightblue" d="M1515,-310.372C1515,-300.643 1515,-284.528 1515,-271.85"/>
<polygon fill="midnightblue" stroke="midnightblue" points="1518.5,-271.841 1515,-261.841 1511.5,-271.841 1518.5,-271.841"/>
</g>
<!-- Node34 -->
<g id="node34" class="node"><title>Node34</title>
<polygon fill="white" stroke="#bfbfbf" points="1420.5,-174.5 1420.5,-193.5 1461.5,-193.5 1461.5,-174.5 1420.5,-174.5"/>
<text text-anchor="middle" x="1441" y="-181.5" font-family="Helvetica,sans-Serif" font-size="10.00">string</text>
</g>
<!-- Node32&#45;&gt;Node34 -->
<g id="edge49" class="edge"><title>Node32&#45;&gt;Node34</title>
<path fill="none" stroke="midnightblue" d="M1509.32,-310.484C1502.72,-300.474 1491.64,-283.288 1483,-268 1470.63,-246.111 1457.77,-220.148 1449.59,-203.162"/>
<polygon fill="midnightblue" stroke="midnightblue" points="1452.62,-201.379 1445.15,-193.863 1446.3,-204.395 1452.62,-201.379"/>
</g>
<!-- Node35 -->
<g id="node35" class="node"><title>Node35</title>
<g id="a_node35"><a xlink:href="StringUtils_8hpp.html" target="_top" xlink:title="Core/String/StringUtils.hpp">
<polygon fill="white" stroke="black" points="1302,-242.5 1302,-261.5 1436,-261.5 1436,-242.5 1302,-242.5"/>
<text text-anchor="middle" x="1369" y="-249.5" font-family="Helvetica,sans-Serif" font-size="10.00">Core/String/StringUtils.hpp</text>
</a>
</g>
</g>
<!-- Node32&#45;&gt;Node35 -->
<g id="edge50" class="edge"><title>Node32&#45;&gt;Node35</title>
<path fill="none" stroke="midnightblue" d="M1495.91,-310.372C1470.77,-299.007 1426.36,-278.931 1397.31,-265.796"/>
<polygon fill="midnightblue" stroke="midnightblue" points="1398.65,-262.56 1388.09,-261.63 1395.76,-268.939 1398.65,-262.56"/>
</g>
<!-- Node36 -->
<g id="node36" class="node"><title>Node36</title>
<polygon fill="white" stroke="#bfbfbf" points="1556.5,-242.5 1556.5,-261.5 1597.5,-261.5 1597.5,-242.5 1556.5,-242.5"/>
<text text-anchor="middle" x="1577" y="-249.5" font-family="Helvetica,sans-Serif" font-size="10.00">ctime</text>
</g>
<!-- Node32&#45;&gt;Node36 -->
<g id="edge54" class="edge"><title>Node32&#45;&gt;Node36</title>
<path fill="none" stroke="midnightblue" d="M1523.11,-310.372C1532.89,-299.955 1549.55,-282.217 1561.77,-269.216"/>
<polygon fill="midnightblue" stroke="midnightblue" points="1564.4,-271.526 1568.69,-261.841 1559.3,-266.733 1564.4,-271.526"/>
</g>
<!-- Node35&#45;&gt;Node4 -->
<g id="edge51" class="edge"><title>Node35&#45;&gt;Node4</title>
<path fill="none" stroke="midnightblue" d="M1363.23,-242.2C1353.19,-226.961 1331.81,-194.727 1313,-168 1306.37,-158.574 1298.77,-148.19 1292.54,-139.775"/>
<polygon fill="midnightblue" stroke="midnightblue" points="1295.2,-137.489 1286.43,-131.554 1289.59,-141.667 1295.2,-137.489"/>
</g>
<!-- Node35&#45;&gt;Node12 -->
<g id="edge53" class="edge"><title>Node35&#45;&gt;Node12</title>
<path fill="none" stroke="midnightblue" d="M1348.34,-242.372C1321.02,-230.958 1272.66,-210.756 1241.22,-197.625"/>
<polygon fill="midnightblue" stroke="midnightblue" points="1242.24,-194.255 1231.66,-193.63 1239.54,-200.715 1242.24,-194.255"/>
</g>
<!-- Node35&#45;&gt;Node34 -->
<g id="edge52" class="edge"><title>Node35&#45;&gt;Node34</title>
<path fill="none" stroke="midnightblue" d="M1378.41,-242.372C1389.88,-231.856 1409.49,-213.882 1423.71,-200.85"/>
<polygon fill="midnightblue" stroke="midnightblue" points="1426.35,-203.178 1431.36,-193.841 1421.62,-198.018 1426.35,-203.178"/>
</g>
<!-- Node37&#45;&gt;Node28 -->
<g id="edge57" class="edge"><title>Node37&#45;&gt;Node28</title>
<path fill="none" stroke="midnightblue" d="M1293.9,-391.516C1264.33,-400.743 1213.92,-415.507 1177.33,-425.699"/>
<polygon fill="midnightblue" stroke="midnightblue" points="1176.11,-422.405 1167.4,-428.444 1177.97,-429.152 1176.11,-422.405"/>
</g>
</g>
</svg>
