<?xml version="1.0" encoding="UTF-8" standalone="no"?>
<!DOCTYPE svg PUBLIC "-//W3C//DTD SVG 1.1//EN"
 "http://www.w3.org/Graphics/SVG/1.1/DTD/svg11.dtd">
<!-- Generated by graphviz version 2.36.0 (20140111.2315)
 -->
<!-- Title: /home/travis/build/STORM&#45;IRIT/Radium&#45;Engine/src/Core/File/MaterialData.hpp Pages: 1 -->
<svg width="2219pt" height="488pt"
 viewBox="0.00 0.00 2219.00 488.00" xmlns="http://www.w3.org/2000/svg" xmlns:xlink="http://www.w3.org/1999/xlink">
<g id="graph0" class="graph" transform="scale(1 1) rotate(0) translate(4 484)">
<title>/home/travis/build/STORM&#45;IRIT/Radium&#45;Engine/src/Core/File/MaterialData.hpp</title>
<polygon fill="white" stroke="none" points="-4,4 -4,-484 2215,-484 2215,4 -4,4"/>
<!-- Node1 -->
<g id="node1" class="node"><title>Node1</title>
<polygon fill="#bfbfbf" stroke="black" points="1279.5,-438.5 1279.5,-479.5 1432.5,-479.5 1432.5,-438.5 1279.5,-438.5"/>
<text text-anchor="start" x="1287.5" y="-467.5" font-family="Helvetica,sans-Serif" font-size="10.00">/home/travis/build</text>
<text text-anchor="start" x="1287.5" y="-456.5" font-family="Helvetica,sans-Serif" font-size="10.00">/STORM&#45;IRIT/Radium&#45;Engine</text>
<text text-anchor="middle" x="1356" y="-445.5" font-family="Helvetica,sans-Serif" font-size="10.00">/src/Core/File/MaterialData.hpp</text>
</g>
<!-- Node2 -->
<g id="node2" class="node"><title>Node2</title>
<g id="a_node2"><a xlink:href="BlinnPhongMaterialData_8hpp.html" target="_top" xlink:title="/home/travis/build\l/STORM&#45;IRIT/Radium&#45;Engine\l/src/Core/File/BlinnPhongMaterial\lData.hpp">
<polygon fill="white" stroke="black" points="377.5,-349 377.5,-401 540.5,-401 540.5,-349 377.5,-349"/>
<text text-anchor="start" x="385.5" y="-389" font-family="Helvetica,sans-Serif" font-size="10.00">/home/travis/build</text>
<text text-anchor="start" x="385.5" y="-378" font-family="Helvetica,sans-Serif" font-size="10.00">/STORM&#45;IRIT/Radium&#45;Engine</text>
<text text-anchor="start" x="385.5" y="-367" font-family="Helvetica,sans-Serif" font-size="10.00">/src/Core/File/BlinnPhongMaterial</text>
<text text-anchor="middle" x="459" y="-356" font-family="Helvetica,sans-Serif" font-size="10.00">Data.hpp</text>
</a>
</g>
</g>
<!-- Node1&#45;&gt;Node2 -->
<g id="edge1" class="edge"><title>Node1&#45;&gt;Node2</title>
<path fill="none" stroke="midnightblue" d="M1269.03,-450.05C1095.74,-434.208 709.527,-398.902 540.669,-383.466"/>
<polygon fill="midnightblue" stroke="midnightblue" points="1268.86,-453.548 1279.13,-450.973 1269.49,-446.577 1268.86,-453.548"/>
</g>
<!-- Node7 -->
<g id="node7" class="node"><title>Node7</title>
<g id="a_node7"><a xlink:href="GeometryData_8hpp.html" target="_top" xlink:title="/home/travis/build\l/STORM&#45;IRIT/Radium&#45;Engine\l/src/Core/File/GeometryData.hpp">
<polygon fill="white" stroke="black" points="1100.5,-354.5 1100.5,-395.5 1261.5,-395.5 1261.5,-354.5 1100.5,-354.5"/>
<text text-anchor="start" x="1108.5" y="-383.5" font-family="Helvetica,sans-Serif" font-size="10.00">/home/travis/build</text>
<text text-anchor="start" x="1108.5" y="-372.5" font-family="Helvetica,sans-Serif" font-size="10.00">/STORM&#45;IRIT/Radium&#45;Engine</text>
<text text-anchor="middle" x="1181" y="-361.5" font-family="Helvetica,sans-Serif" font-size="10.00">/src/Core/File/GeometryData.hpp</text>
</a>
</g>
</g>
<!-- Node1&#45;&gt;Node7 -->
<g id="edge7" class="edge"><title>Node1&#45;&gt;Node7</title>
<path fill="none" stroke="midnightblue" d="M1304.75,-433.984C1278.7,-421.781 1247.46,-407.14 1222.88,-395.623"/>
<polygon fill="midnightblue" stroke="midnightblue" points="1303.54,-437.285 1314.08,-438.359 1306.51,-430.947 1303.54,-437.285"/>
</g>
<!-- Node26 -->
<g id="node26" class="node"><title>Node26</title>
<g id="a_node26"><a xlink:href="MaterialData_8cpp.html" target="_top" xlink:title="/home/travis/build\l/STORM&#45;IRIT/Radium&#45;Engine\l/src/Core/File/MaterialData.cpp">
<polygon fill="white" stroke="black" points="1279.5,-354.5 1279.5,-395.5 1432.5,-395.5 1432.5,-354.5 1279.5,-354.5"/>
<text text-anchor="start" x="1287.5" y="-383.5" font-family="Helvetica,sans-Serif" font-size="10.00">/home/travis/build</text>
<text text-anchor="start" x="1287.5" y="-372.5" font-family="Helvetica,sans-Serif" font-size="10.00">/STORM&#45;IRIT/Radium&#45;Engine</text>
<text text-anchor="middle" x="1356" y="-361.5" font-family="Helvetica,sans-Serif" font-size="10.00">/src/Core/File/MaterialData.cpp</text>
</a>
</g>
</g>
<!-- Node1&#45;&gt;Node26 -->
<g id="edge34" class="edge"><title>Node1&#45;&gt;Node26</title>
<path fill="none" stroke="midnightblue" d="M1356,-427.881C1356,-417.133 1356,-405.309 1356,-395.667"/>
<polygon fill="midnightblue" stroke="midnightblue" points="1352.5,-428.15 1356,-438.15 1359.5,-428.15 1352.5,-428.15"/>
</g>
<!-- Node27 -->
<g id="node27" class="node"><title>Node27</title>
<g id="a_node27"><a xlink:href="MaterialData_8inl.html" target="_top" xlink:title="/home/travis/build\l/STORM&#45;IRIT/Radium&#45;Engine\l/src/Core/File/MaterialData.inl">
<polygon fill="white" stroke="black" points="1451,-354.5 1451,-395.5 1599,-395.5 1599,-354.5 1451,-354.5"/>
<text text-anchor="start" x="1459" y="-383.5" font-family="Helvetica,sans-Serif" font-size="10.00">/home/travis/build</text>
<text text-anchor="start" x="1459" y="-372.5" font-family="Helvetica,sans-Serif" font-size="10.00">/STORM&#45;IRIT/Radium&#45;Engine</text>
<text text-anchor="middle" x="1525" y="-361.5" font-family="Helvetica,sans-Serif" font-size="10.00">/src/Core/File/MaterialData.inl</text>
</a>
</g>
</g>
<!-- Node1&#45;&gt;Node27 -->
<g id="edge35" class="edge"><title>Node1&#45;&gt;Node27</title>
<path fill="none" stroke="midnightblue" d="M1399.61,-433.823C1423.88,-421.652 1454.01,-407.089 1478.7,-395.623"/>
<polygon fill="midnightblue" stroke="midnightblue" points="1397.97,-430.73 1390.62,-438.359 1401.13,-436.979 1397.97,-430.73"/>
</g>
<!-- Node3 -->
<g id="node3" class="node"><title>Node3</title>
<g id="a_node3"><a xlink:href="BlinnPhongMaterialData_8cpp.html" target="_top" xlink:title="/home/travis/build\l/STORM&#45;IRIT/Radium&#45;Engine\l/src/Core/File/BlinnPhongMaterial\lData.cpp">
<polygon fill="white" stroke="black" points="109.5,-259 109.5,-311 272.5,-311 272.5,-259 109.5,-259"/>
<text text-anchor="start" x="117.5" y="-299" font-family="Helvetica,sans-Serif" font-size="10.00">/home/travis/build</text>
<text text-anchor="start" x="117.5" y="-288" font-family="Helvetica,sans-Serif" font-size="10.00">/STORM&#45;IRIT/Radium&#45;Engine</text>
<text text-anchor="start" x="117.5" y="-277" font-family="Helvetica,sans-Serif" font-size="10.00">/src/Core/File/BlinnPhongMaterial</text>
<text text-anchor="middle" x="191" y="-266" font-family="Helvetica,sans-Serif" font-size="10.00">Data.cpp</text>
</a>
</g>
</g>
<!-- Node2&#45;&gt;Node3 -->
<g id="edge2" class="edge"><title>Node2&#45;&gt;Node3</title>
<path fill="none" stroke="midnightblue" d="M372.688,-345.659C338.857,-334.55 300.362,-321.91 267.541,-311.133"/>
<polygon fill="midnightblue" stroke="midnightblue" points="371.968,-349.106 382.561,-348.901 374.152,-342.455 371.968,-349.106"/>
</g>
<!-- Node4 -->
<g id="node4" class="node"><title>Node4</title>
<g id="a_node4"><a xlink:href="BlinnPhongMaterialData_8inl.html" target="_top" xlink:title="/home/travis/build\l/STORM&#45;IRIT/Radium&#45;Engine\l/src/Core/File/BlinnPhongMaterial\lData.inl">
<polygon fill="white" stroke="black" points="290.5,-259 290.5,-311 453.5,-311 453.5,-259 290.5,-259"/>
<text text-anchor="start" x="298.5" y="-299" font-family="Helvetica,sans-Serif" font-size="10.00">/home/travis/build</text>
<text text-anchor="start" x="298.5" y="-288" font-family="Helvetica,sans-Serif" font-size="10.00">/STORM&#45;IRIT/Radium&#45;Engine</text>
<text text-anchor="start" x="298.5" y="-277" font-family="Helvetica,sans-Serif" font-size="10.00">/src/Core/File/BlinnPhongMaterial</text>
<text text-anchor="middle" x="372" y="-266" font-family="Helvetica,sans-Serif" font-size="10.00">Data.inl</text>
</a>
</g>
</g>
<!-- Node2&#45;&gt;Node4 -->
<g id="edge3" class="edge"><title>Node2&#45;&gt;Node4</title>
<path fill="none" stroke="midnightblue" d="M420.258,-341.431C409.977,-331.407 399.354,-320.533 390.645,-311.092"/>
<polygon fill="midnightblue" stroke="midnightblue" points="418.018,-344.133 427.65,-348.547 422.873,-339.09 418.018,-344.133"/>
</g>
<!-- Node5 -->
<g id="node5" class="node"><title>Node5</title>
<g id="a_node5"><a xlink:href="BlinnPhongMaterial_8cpp.html" target="_top" xlink:title="/home/travis/build\l/STORM&#45;IRIT/Radium&#45;Engine\l/src/Engine/Renderer/Material\l/BlinnPhongMaterial.cpp">
<polygon fill="white" stroke="black" points="472,-259 472,-311 620,-311 620,-259 472,-259"/>
<text text-anchor="start" x="480" y="-299" font-family="Helvetica,sans-Serif" font-size="10.00">/home/travis/build</text>
<text text-anchor="start" x="480" y="-288" font-family="Helvetica,sans-Serif" font-size="10.00">/STORM&#45;IRIT/Radium&#45;Engine</text>
<text text-anchor="start" x="480" y="-277" font-family="Helvetica,sans-Serif" font-size="10.00">/src/Engine/Renderer/Material</text>
<text text-anchor="middle" x="546" y="-266" font-family="Helvetica,sans-Serif" font-size="10.00">/BlinnPhongMaterial.cpp</text>
</a>
</g>
</g>
<!-- Node2&#45;&gt;Node5 -->
<g id="edge5" class="edge"><title>Node2&#45;&gt;Node5</title>
<path fill="none" stroke="midnightblue" d="M491.199,-341.431C501.109,-331.407 511.86,-320.533 521.193,-311.092"/>
<polygon fill="midnightblue" stroke="midnightblue" points="488.706,-338.975 484.164,-348.547 493.684,-343.896 488.706,-338.975"/>
</g>
<!-- Node6 -->
<g id="node6" class="node"><title>Node6</title>
<g id="a_node6"><a xlink:href="AssimpGeometryDataLoader_8cpp.html" target="_top" xlink:title="/home/travis/build\l/STORM&#45;IRIT/Radium&#45;Engine\l/src/IO/AssimpLoader/AssimpGeometry\lDataLoader.cpp">
<polygon fill="white" stroke="black" points="638.5,-259 638.5,-311 829.5,-311 829.5,-259 638.5,-259"/>
<text text-anchor="start" x="646.5" y="-299" font-family="Helvetica,sans-Serif" font-size="10.00">/home/travis/build</text>
<text text-anchor="start" x="646.5" y="-288" font-family="Helvetica,sans-Serif" font-size="10.00">/STORM&#45;IRIT/Radium&#45;Engine</text>
<text text-anchor="start" x="646.5" y="-277" font-family="Helvetica,sans-Serif" font-size="10.00">/src/IO/AssimpLoader/AssimpGeometry</text>
<text text-anchor="middle" x="734" y="-266" font-family="Helvetica,sans-Serif" font-size="10.00">DataLoader.cpp</text>
</a>
</g>
</g>
<!-- Node2&#45;&gt;Node6 -->
<g id="edge6" class="edge"><title>Node2&#45;&gt;Node6</title>
<path fill="none" stroke="midnightblue" d="M547.119,-345.802C581.942,-334.659 621.637,-321.956 655.46,-311.133"/>
<polygon fill="midnightblue" stroke="midnightblue" points="545.893,-342.519 537.436,-348.901 548.027,-349.186 545.893,-342.519"/>
</g>
<!-- Node4&#45;&gt;Node2 -->
<g id="edge4" class="edge"><title>Node4&#45;&gt;Node2</title>
<path fill="none" stroke="midnightblue" d="M410.35,-318.187C420.621,-328.189 431.265,-339.07 440.022,-348.547"/>
<polygon fill="midnightblue" stroke="midnightblue" points="412.604,-315.499 402.969,-311.092 407.753,-320.545 412.604,-315.499"/>
</g>
<!-- Node7&#45;&gt;Node6 -->
<g id="edge27" class="edge"><title>Node7&#45;&gt;Node6</title>
<path fill="none" stroke="midnightblue" d="M1090.18,-358.564C1022.22,-346.704 927.064,-329.446 844,-312 839.295,-311.012 834.483,-309.975 829.628,-308.907"/>
<polygon fill="midnightblue" stroke="midnightblue" points="1089.98,-362.081 1100.43,-360.347 1091.18,-355.185 1089.98,-362.081"/>
</g>
<!-- Node8 -->
<g id="node8" class="node"><title>Node8</title>
<g id="a_node8"><a xlink:href="FileData_8inl.html" target="_top" xlink:title="/home/travis/build\l/STORM&#45;IRIT/Radium&#45;Engine\l/src/Core/File/FileData.inl">
<polygon fill="white" stroke="black" points="1277,-264.5 1277,-305.5 1425,-305.5 1425,-264.5 1277,-264.5"/>
<text text-anchor="start" x="1285" y="-293.5" font-family="Helvetica,sans-Serif" font-size="10.00">/home/travis/build</text>
<text text-anchor="start" x="1285" y="-282.5" font-family="Helvetica,sans-Serif" font-size="10.00">/STORM&#45;IRIT/Radium&#45;Engine</text>
<text text-anchor="middle" x="1351" y="-271.5" font-family="Helvetica,sans-Serif" font-size="10.00">/src/Core/File/FileData.inl</text>
</a>
</g>
</g>
<!-- Node7&#45;&gt;Node8 -->
<g id="edge8" class="edge"><title>Node7&#45;&gt;Node8</title>
<path fill="none" stroke="midnightblue" d="M1227.92,-349.71C1254.74,-335.828 1287.93,-318.648 1313.08,-305.627"/>
<polygon fill="midnightblue" stroke="midnightblue" points="1226,-346.765 1218.73,-354.47 1229.22,-352.981 1226,-346.765"/>
</g>
<!-- Node11 -->
<g id="node11" class="node"><title>Node11</title>
<g id="a_node11"><a xlink:href="LightManager_8cpp.html" target="_top" xlink:title="/home/travis/build\l/STORM&#45;IRIT/Radium&#45;Engine\l/src/Engine/Managers/LightManager\l/LightManager.cpp">
<polygon fill="white" stroke="black" points="185.5,-79 185.5,-131 358.5,-131 358.5,-79 185.5,-79"/>
<text text-anchor="start" x="193.5" y="-119" font-family="Helvetica,sans-Serif" font-size="10.00">/home/travis/build</text>
<text text-anchor="start" x="193.5" y="-108" font-family="Helvetica,sans-Serif" font-size="10.00">/STORM&#45;IRIT/Radium&#45;Engine</text>
<text text-anchor="start" x="193.5" y="-97" font-family="Helvetica,sans-Serif" font-size="10.00">/src/Engine/Managers/LightManager</text>
<text text-anchor="middle" x="272" y="-86" font-family="Helvetica,sans-Serif" font-size="10.00">/LightManager.cpp</text>
</a>
</g>
</g>
<!-- Node7&#45;&gt;Node11 -->
<g id="edge26" class="edge"><title>Node7&#45;&gt;Node11</title>
<path fill="none" stroke="midnightblue" d="M1090.22,-362.548C1023.85,-352.416 941.19,-335.563 916,-312 867.128,-266.284 924.338,-209.703 872,-168 828.091,-133.014 423.353,-141.382 368,-132 364.936,-131.481 361.828,-130.906 358.697,-130.286"/>
<polygon fill="midnightblue" stroke="midnightblue" points="1089.9,-366.039 1100.31,-364.055 1090.94,-359.115 1089.9,-366.039"/>
</g>
<!-- Node18 -->
<g id="node18" class="node"><title>Node18</title>
<g id="a_node18"><a xlink:href="FancyMeshComponent_8cpp.html" target="_top" xlink:title="/home/travis/build\l/STORM&#45;IRIT/Radium&#45;Engine\l/Plugins/FancyMesh/src/FancyMesh\lComponent.cpp">
<polygon fill="white" stroke="black" points="2035,-79 2035,-131 2211,-131 2211,-79 2035,-79"/>
<text text-anchor="start" x="2043" y="-119" font-family="Helvetica,sans-Serif" font-size="10.00">/home/travis/build</text>
<text text-anchor="start" x="2043" y="-108" font-family="Helvetica,sans-Serif" font-size="10.00">/STORM&#45;IRIT/Radium&#45;Engine</text>
<text text-anchor="start" x="2043" y="-97" font-family="Helvetica,sans-Serif" font-size="10.00">/Plugins/FancyMesh/src/FancyMesh</text>
<text text-anchor="middle" x="2123" y="-86" font-family="Helvetica,sans-Serif" font-size="10.00">Component.cpp</text>
</a>
</g>
</g>
<!-- Node7&#45;&gt;Node18 -->
<g id="edge28" class="edge"><title>Node7&#45;&gt;Node18</title>
<path fill="none" stroke="midnightblue" d="M1252.38,-351.954C1258.64,-350.455 1264.91,-349.104 1271,-348 1605.31,-287.397 1741.76,-409.647 2025,-222 2060.82,-198.266 2090.76,-157.728 2107.78,-131.407"/>
<polygon fill="midnightblue" stroke="midnightblue" points="1251.42,-348.586 1242.58,-354.419 1253.13,-355.375 1251.42,-348.586"/>
</g>
<!-- Node19 -->
<g id="node19" class="node"><title>Node19</title>
<g id="a_node19"><a xlink:href="FancyMeshSystem_8cpp.html" target="_top" xlink:title="/home/travis/build\l/STORM&#45;IRIT/Radium&#45;Engine\l/Plugins/FancyMesh/src/FancyMesh\lSystem.cpp">
<polygon fill="white" stroke="black" points="1841,-79 1841,-131 2017,-131 2017,-79 1841,-79"/>
<text text-anchor="start" x="1849" y="-119" font-family="Helvetica,sans-Serif" font-size="10.00">/home/travis/build</text>
<text text-anchor="start" x="1849" y="-108" font-family="Helvetica,sans-Serif" font-size="10.00">/STORM&#45;IRIT/Radium&#45;Engine</text>
<text text-anchor="start" x="1849" y="-97" font-family="Helvetica,sans-Serif" font-size="10.00">/Plugins/FancyMesh/src/FancyMesh</text>
<text text-anchor="middle" x="1929" y="-86" font-family="Helvetica,sans-Serif" font-size="10.00">System.cpp</text>
</a>
</g>
</g>
<!-- Node7&#45;&gt;Node19 -->
<g id="edge32" class="edge"><title>Node7&#45;&gt;Node19</title>
<path fill="none" stroke="midnightblue" d="M1256.68,-351.761C1261.52,-350.456 1266.32,-349.191 1271,-348 1342.9,-329.695 1363.25,-334.34 1434,-312 1600.43,-259.446 1788.6,-173.368 1877.39,-131.066"/>
<polygon fill="midnightblue" stroke="midnightblue" points="1255.45,-348.468 1246.73,-354.486 1257.3,-355.219 1255.45,-348.468"/>
</g>
<!-- Node20 -->
<g id="node20" class="node"><title>Node20</title>
<g id="a_node20"><a xlink:href="MeshPaintSystem_8cpp.html" target="_top" xlink:title="/home/travis/build\l/STORM&#45;IRIT/Radium&#45;Engine\l/Plugins/MeshPaint/src/MeshPaint\lSystem.cpp">
<polygon fill="white" stroke="black" points="0.5,-79 0.5,-131 167.5,-131 167.5,-79 0.5,-79"/>
<text text-anchor="start" x="8.5" y="-119" font-family="Helvetica,sans-Serif" font-size="10.00">/home/travis/build</text>
<text text-anchor="start" x="8.5" y="-108" font-family="Helvetica,sans-Serif" font-size="10.00">/STORM&#45;IRIT/Radium&#45;Engine</text>
<text text-anchor="start" x="8.5" y="-97" font-family="Helvetica,sans-Serif" font-size="10.00">/Plugins/MeshPaint/src/MeshPaint</text>
<text text-anchor="middle" x="84" y="-86" font-family="Helvetica,sans-Serif" font-size="10.00">System.cpp</text>
</a>
</g>
</g>
<!-- Node7&#45;&gt;Node20 -->
<g id="edge33" class="edge"><title>Node7&#45;&gt;Node20</title>
<path fill="none" stroke="midnightblue" d="M1090.08,-368.446C1030.12,-361.564 951.573,-346.207 890,-312 860.874,-295.819 867.298,-273.866 838,-258 575.017,-115.588 468.159,-200.322 177,-132 173.899,-131.272 170.746,-130.509 167.566,-129.721"/>
<polygon fill="midnightblue" stroke="midnightblue" points="1089.97,-371.955 1100.29,-369.558 1090.73,-364.996 1089.97,-371.955"/>
</g>
<!-- Node23 -->
<g id="node23" class="node"><title>Node23</title>
<g id="a_node23"><a xlink:href="GeometryData_8cpp.html" target="_top" xlink:title="/home/travis/build\l/STORM&#45;IRIT/Radium&#45;Engine\l/src/Core/File/GeometryData.cpp">
<polygon fill="white" stroke="black" points="924.5,-264.5 924.5,-305.5 1085.5,-305.5 1085.5,-264.5 924.5,-264.5"/>
<text text-anchor="start" x="932.5" y="-293.5" font-family="Helvetica,sans-Serif" font-size="10.00">/home/travis/build</text>
<text text-anchor="start" x="932.5" y="-282.5" font-family="Helvetica,sans-Serif" font-size="10.00">/STORM&#45;IRIT/Radium&#45;Engine</text>
<text text-anchor="middle" x="1005" y="-271.5" font-family="Helvetica,sans-Serif" font-size="10.00">/src/Core/File/GeometryData.cpp</text>
</a>
</g>
</g>
<!-- Node7&#45;&gt;Node23 -->
<g id="edge23" class="edge"><title>Node7&#45;&gt;Node23</title>
<path fill="none" stroke="midnightblue" d="M1132.78,-349.891C1104.96,-335.979 1070.41,-318.705 1044.25,-305.627"/>
<polygon fill="midnightblue" stroke="midnightblue" points="1131.43,-353.128 1141.94,-354.47 1134.56,-346.867 1131.43,-353.128"/>
</g>
<!-- Node24 -->
<g id="node24" class="node"><title>Node24</title>
<g id="a_node24"><a xlink:href="GeometryData_8inl.html" target="_top" xlink:title="/home/travis/build\l/STORM&#45;IRIT/Radium&#45;Engine\l/src/Core/File/GeometryData.inl">
<polygon fill="white" stroke="black" points="1103.5,-264.5 1103.5,-305.5 1258.5,-305.5 1258.5,-264.5 1103.5,-264.5"/>
<text text-anchor="start" x="1111.5" y="-293.5" font-family="Helvetica,sans-Serif" font-size="10.00">/home/travis/build</text>
<text text-anchor="start" x="1111.5" y="-282.5" font-family="Helvetica,sans-Serif" font-size="10.00">/STORM&#45;IRIT/Radium&#45;Engine</text>
<text text-anchor="middle" x="1181" y="-271.5" font-family="Helvetica,sans-Serif" font-size="10.00">/src/Core/File/GeometryData.inl</text>
</a>
</g>
</g>
<!-- Node7&#45;&gt;Node24 -->
<g id="edge24" class="edge"><title>Node7&#45;&gt;Node24</title>
<path fill="none" stroke="midnightblue" d="M1174.58,-344.33C1173.98,-331.629 1174.2,-317.14 1175.26,-305.78"/>
<polygon fill="midnightblue" stroke="midnightblue" points="1171.1,-344.735 1175.28,-354.47 1178.08,-344.252 1171.1,-344.735"/>
</g>
<!-- Node25 -->
<g id="node25" class="node"><title>Node25</title>
<g id="a_node25"><a xlink:href="FancyMeshComponent_8hpp.html" target="_top" xlink:title="/home/travis/build\l/STORM&#45;IRIT/Radium&#45;Engine\l/Plugins/FancyMesh/src/FancyMesh\lComponent.hpp">
<polygon fill="white" stroke="black" points="1841,-169 1841,-221 2017,-221 2017,-169 1841,-169"/>
<text text-anchor="start" x="1849" y="-209" font-family="Helvetica,sans-Serif" font-size="10.00">/home/travis/build</text>
<text text-anchor="start" x="1849" y="-198" font-family="Helvetica,sans-Serif" font-size="10.00">/STORM&#45;IRIT/Radium&#45;Engine</text>
<text text-anchor="start" x="1849" y="-187" font-family="Helvetica,sans-Serif" font-size="10.00">/Plugins/FancyMesh/src/FancyMesh</text>
<text text-anchor="middle" x="1929" y="-176" font-family="Helvetica,sans-Serif" font-size="10.00">Component.hpp</text>
</a>
</g>
</g>
<!-- Node7&#45;&gt;Node25 -->
<g id="edge29" class="edge"><title>Node7&#45;&gt;Node25</title>
<path fill="none" stroke="midnightblue" d="M1253.16,-351.888C1259.17,-350.436 1265.17,-349.112 1271,-348 1435.91,-316.568 1484.05,-352.369 1647,-312 1732.3,-290.868 1825.55,-248.367 1880.57,-221.095"/>
<polygon fill="midnightblue" stroke="midnightblue" points="1251.93,-348.591 1243.09,-354.439 1253.65,-355.376 1251.93,-348.591"/>
</g>
<!-- Node9 -->
<g id="node9" class="node"><title>Node9</title>
<g id="a_node9"><a xlink:href="FileData_8hpp.html" target="_top" xlink:title="/home/travis/build\l/STORM&#45;IRIT/Radium&#45;Engine\l/src/Core/File/FileData.hpp">
<polygon fill="white" stroke="black" points="1101,-174.5 1101,-215.5 1249,-215.5 1249,-174.5 1101,-174.5"/>
<text text-anchor="start" x="1109" y="-203.5" font-family="Helvetica,sans-Serif" font-size="10.00">/home/travis/build</text>
<text text-anchor="start" x="1109" y="-192.5" font-family="Helvetica,sans-Serif" font-size="10.00">/STORM&#45;IRIT/Radium&#45;Engine</text>
<text text-anchor="middle" x="1175" y="-181.5" font-family="Helvetica,sans-Serif" font-size="10.00">/src/Core/File/FileData.hpp</text>
</a>
</g>
</g>
<!-- Node8&#45;&gt;Node9 -->
<g id="edge9" class="edge"><title>Node8&#45;&gt;Node9</title>
<path fill="none" stroke="midnightblue" d="M1302.78,-259.891C1274.96,-245.979 1240.41,-228.705 1214.25,-215.627"/>
<polygon fill="midnightblue" stroke="midnightblue" points="1301.43,-263.128 1311.94,-264.47 1304.56,-256.867 1301.43,-263.128"/>
</g>
<!-- Node10 -->
<g id="node10" class="node"><title>Node10</title>
<g id="a_node10"><a xlink:href="FileData_8cpp.html" target="_top" xlink:title="/home/travis/build\l/STORM&#45;IRIT/Radium&#45;Engine\l/src/Core/File/FileData.cpp">
<polygon fill="white" stroke="black" points="1675,-84.5 1675,-125.5 1823,-125.5 1823,-84.5 1675,-84.5"/>
<text text-anchor="start" x="1683" y="-113.5" font-family="Helvetica,sans-Serif" font-size="10.00">/home/travis/build</text>
<text text-anchor="start" x="1683" y="-102.5" font-family="Helvetica,sans-Serif" font-size="10.00">/STORM&#45;IRIT/Radium&#45;Engine</text>
<text text-anchor="middle" x="1749" y="-91.5" font-family="Helvetica,sans-Serif" font-size="10.00">/src/Core/File/FileData.cpp</text>
</a>
</g>
</g>
<!-- Node9&#45;&gt;Node10 -->
<g id="edge10" class="edge"><title>Node9&#45;&gt;Node10</title>
<path fill="none" stroke="midnightblue" d="M1259.5,-187.927C1357.96,-179.795 1525.12,-162.703 1666,-132 1674.26,-130.199 1682.88,-127.942 1691.31,-125.515"/>
<polygon fill="midnightblue" stroke="midnightblue" points="1259,-184.457 1249.31,-188.757 1259.56,-191.434 1259,-184.457"/>
</g>
<!-- Node9&#45;&gt;Node11 -->
<g id="edge11" class="edge"><title>Node9&#45;&gt;Node11</title>
<path fill="none" stroke="midnightblue" d="M1090.62,-185.038C1038.59,-179.681 970.47,-172.973 910,-168 669.393,-148.211 606.125,-171.75 368,-132 364.934,-131.488 361.825,-130.92 358.694,-130.306"/>
<polygon fill="midnightblue" stroke="midnightblue" points="1090.5,-188.544 1100.81,-186.09 1091.22,-181.581 1090.5,-188.544"/>
</g>
<!-- Node12 -->
<g id="node12" class="node"><title>Node12</title>
<g id="a_node12"><a xlink:href="RadiumEngine_8cpp.html" target="_top" xlink:title="/home/travis/build\l/STORM&#45;IRIT/Radium&#45;Engine\l/src/Engine/RadiumEngine.cpp">
<polygon fill="white" stroke="black" points="377,-84.5 377,-125.5 529,-125.5 529,-84.5 377,-84.5"/>
<text text-anchor="start" x="385" y="-113.5" font-family="Helvetica,sans-Serif" font-size="10.00">/home/travis/build</text>
<text text-anchor="start" x="385" y="-102.5" font-family="Helvetica,sans-Serif" font-size="10.00">/STORM&#45;IRIT/Radium&#45;Engine</text>
<text text-anchor="middle" x="453" y="-91.5" font-family="Helvetica,sans-Serif" font-size="10.00">/src/Engine/RadiumEngine.cpp</text>
</a>
</g>
</g>
<!-- Node9&#45;&gt;Node12 -->
<g id="edge12" class="edge"><title>Node9&#45;&gt;Node12</title>
<path fill="none" stroke="midnightblue" d="M1090.57,-185.687C1038.51,-180.569 970.388,-173.884 910,-168 744.677,-151.89 700.904,-164.456 538,-132 529.373,-130.281 520.374,-128.039 511.596,-125.591"/>
<polygon fill="midnightblue" stroke="midnightblue" points="1090.46,-189.194 1100.76,-186.689 1091.15,-182.227 1090.46,-189.194"/>
</g>
<!-- Node13 -->
<g id="node13" class="node"><title>Node13</title>
<g id="a_node13"><a xlink:href="Renderer_8cpp.html" target="_top" xlink:title="/home/travis/build\l/STORM&#45;IRIT/Radium&#45;Engine\l/src/Engine/Renderer/Renderer.cpp">
<polygon fill="white" stroke="black" points="547,-84.5 547,-125.5 717,-125.5 717,-84.5 547,-84.5"/>
<text text-anchor="start" x="555" y="-113.5" font-family="Helvetica,sans-Serif" font-size="10.00">/home/travis/build</text>
<text text-anchor="start" x="555" y="-102.5" font-family="Helvetica,sans-Serif" font-size="10.00">/STORM&#45;IRIT/Radium&#45;Engine</text>
<text text-anchor="middle" x="632" y="-91.5" font-family="Helvetica,sans-Serif" font-size="10.00">/src/Engine/Renderer/Renderer.cpp</text>
</a>
</g>
</g>
<!-- Node9&#45;&gt;Node13 -->
<g id="edge13" class="edge"><title>Node9&#45;&gt;Node13</title>
<path fill="none" stroke="midnightblue" d="M1091.05,-185.772C1000.42,-176.109 852.094,-158.025 726,-132 717.045,-130.152 707.686,-127.927 698.491,-125.565"/>
<polygon fill="midnightblue" stroke="midnightblue" points="1090.68,-189.253 1100.99,-186.824 1091.42,-182.292 1090.68,-189.253"/>
</g>
<!-- Node14 -->
<g id="node14" class="node"><title>Node14</title>
<g id="a_node14"><a xlink:href="Viewer_8cpp.html" target="_top" xlink:title="/home/travis/build\l/STORM&#45;IRIT/Radium&#45;Engine\l/src/GuiBase/Viewer/Viewer.cpp">
<polygon fill="white" stroke="black" points="735,-84.5 735,-125.5 893,-125.5 893,-84.5 735,-84.5"/>
<text text-anchor="start" x="743" y="-113.5" font-family="Helvetica,sans-Serif" font-size="10.00">/home/travis/build</text>
<text text-anchor="start" x="743" y="-102.5" font-family="Helvetica,sans-Serif" font-size="10.00">/STORM&#45;IRIT/Radium&#45;Engine</text>
<text text-anchor="middle" x="814" y="-91.5" font-family="Helvetica,sans-Serif" font-size="10.00">/src/GuiBase/Viewer/Viewer.cpp</text>
</a>
</g>
</g>
<!-- Node9&#45;&gt;Node14 -->
<g id="edge14" class="edge"><title>Node9&#45;&gt;Node14</title>
<path fill="none" stroke="midnightblue" d="M1090.92,-176.362C1036.77,-164.643 964.977,-148.437 902,-132 894.293,-129.988 886.239,-127.771 878.269,-125.504"/>
<polygon fill="midnightblue" stroke="midnightblue" points="1090.31,-179.81 1100.82,-178.497 1091.79,-172.967 1090.31,-179.81"/>
</g>
<!-- Node15 -->
<g id="node15" class="node"><title>Node15</title>
<g id="a_node15"><a xlink:href="AssimpFileLoader_8cpp.html" target="_top" xlink:title="/home/travis/build\l/STORM&#45;IRIT/Radium&#45;Engine\l/src/IO/AssimpLoader/AssimpFile\lLoader.cpp">
<polygon fill="white" stroke="black" points="911,-79 911,-131 1075,-131 1075,-79 911,-79"/>
<text text-anchor="start" x="919" y="-119" font-family="Helvetica,sans-Serif" font-size="10.00">/home/travis/build</text>
<text text-anchor="start" x="919" y="-108" font-family="Helvetica,sans-Serif" font-size="10.00">/STORM&#45;IRIT/Radium&#45;Engine</text>
<text text-anchor="start" x="919" y="-97" font-family="Helvetica,sans-Serif" font-size="10.00">/src/IO/AssimpLoader/AssimpFile</text>
<text text-anchor="middle" x="993" y="-86" font-family="Helvetica,sans-Serif" font-size="10.00">Loader.cpp</text>
</a>
</g>
</g>
<!-- Node9&#45;&gt;Node15 -->
<g id="edge15" class="edge"><title>Node9&#45;&gt;Node15</title>
<path fill="none" stroke="midnightblue" d="M1125.3,-169.97C1100.29,-157.877 1070,-143.228 1044.71,-131.002"/>
<polygon fill="midnightblue" stroke="midnightblue" points="1124.08,-173.268 1134.61,-174.47 1127.13,-166.966 1124.08,-173.268"/>
</g>
<!-- Node16 -->
<g id="node16" class="node"><title>Node16</title>
<g id="a_node16"><a xlink:href="TinyPlyFileLoader_8cpp.html" target="_top" xlink:title="/home/travis/build\l/STORM&#45;IRIT/Radium&#45;Engine\l/src/IO/TinyPlyLoader/TinyPlyFile\lLoader.cpp">
<polygon fill="white" stroke="black" points="1093,-79 1093,-131 1257,-131 1257,-79 1093,-79"/>
<text text-anchor="start" x="1101" y="-119" font-family="Helvetica,sans-Serif" font-size="10.00">/home/travis/build</text>
<text text-anchor="start" x="1101" y="-108" font-family="Helvetica,sans-Serif" font-size="10.00">/STORM&#45;IRIT/Radium&#45;Engine</text>
<text text-anchor="start" x="1101" y="-97" font-family="Helvetica,sans-Serif" font-size="10.00">/src/IO/TinyPlyLoader/TinyPlyFile</text>
<text text-anchor="middle" x="1175" y="-86" font-family="Helvetica,sans-Serif" font-size="10.00">Loader.cpp</text>
</a>
</g>
</g>
<!-- Node9&#45;&gt;Node16 -->
<g id="edge16" class="edge"><title>Node9&#45;&gt;Node16</title>
<path fill="none" stroke="midnightblue" d="M1175,-164.255C1175,-153.506 1175,-141.484 1175,-131.166"/>
<polygon fill="midnightblue" stroke="midnightblue" points="1171.5,-164.47 1175,-174.47 1178.5,-164.47 1171.5,-164.47"/>
</g>
<!-- Node17 -->
<g id="node17" class="node"><title>Node17</title>
<g id="a_node17"><a xlink:href="AnimationSystem_8cpp.html" target="_top" xlink:title="/home/travis/build\l/STORM&#45;IRIT/Radium&#45;Engine\l/Plugins/Animation/src/Animation\lSystem.cpp">
<polygon fill="white" stroke="black" points="1275.5,-79 1275.5,-131 1436.5,-131 1436.5,-79 1275.5,-79"/>
<text text-anchor="start" x="1283.5" y="-119" font-family="Helvetica,sans-Serif" font-size="10.00">/home/travis/build</text>
<text text-anchor="start" x="1283.5" y="-108" font-family="Helvetica,sans-Serif" font-size="10.00">/STORM&#45;IRIT/Radium&#45;Engine</text>
<text text-anchor="start" x="1283.5" y="-97" font-family="Helvetica,sans-Serif" font-size="10.00">/Plugins/Animation/src/Animation</text>
<text text-anchor="middle" x="1356" y="-86" font-family="Helvetica,sans-Serif" font-size="10.00">System.cpp</text>
</a>
</g>
</g>
<!-- Node9&#45;&gt;Node17 -->
<g id="edge17" class="edge"><title>Node9&#45;&gt;Node17</title>
<path fill="none" stroke="midnightblue" d="M1224.42,-169.97C1249.3,-157.877 1279.43,-143.228 1304.58,-131.002"/>
<polygon fill="midnightblue" stroke="midnightblue" points="1222.63,-166.95 1215.17,-174.47 1225.69,-173.245 1222.63,-166.95"/>
</g>
<!-- Node9&#45;&gt;Node18 -->
<g id="edge18" class="edge"><title>Node9&#45;&gt;Node18</title>
<path fill="none" stroke="midnightblue" d="M1259.46,-193.04C1412.93,-190.146 1747.37,-178.535 2025,-132 2028.21,-131.462 2031.47,-130.865 2034.75,-130.222"/>
<polygon fill="midnightblue" stroke="midnightblue" points="1259.11,-189.546 1249.17,-193.226 1259.23,-196.545 1259.11,-189.546"/>
</g>
<!-- Node9&#45;&gt;Node19 -->
<g id="edge19" class="edge"><title>Node9&#45;&gt;Node19</title>
<path fill="none" stroke="midnightblue" d="M1259.77,-190.549C1385.53,-184.406 1628.55,-168.599 1832,-132 1834.92,-131.475 1837.87,-130.906 1840.85,-130.299"/>
<polygon fill="midnightblue" stroke="midnightblue" points="1259.27,-187.069 1249.45,-191.045 1259.6,-194.061 1259.27,-187.069"/>
</g>
<!-- Node9&#45;&gt;Node20 -->
<g id="edge20" class="edge"><title>Node9&#45;&gt;Node20</title>
<path fill="none" stroke="midnightblue" d="M1090.66,-185.992C1029.9,-180.412 945.942,-173.086 872,-168 563.426,-146.775 482.244,-181.943 177,-132 173.939,-131.499 170.835,-130.935 167.71,-130.319"/>
<polygon fill="midnightblue" stroke="midnightblue" points="1090.68,-189.509 1100.96,-186.943 1091.33,-182.539 1090.68,-189.509"/>
</g>
<!-- Node21 -->
<g id="node21" class="node"><title>Node21</title>
<g id="a_node21"><a xlink:href="SkinningSystem_8hpp.html" target="_top" xlink:title="/home/travis/build\l/STORM&#45;IRIT/Radium&#45;Engine\l/Plugins/Skinning/src/SkinningSystem.hpp">
<polygon fill="white" stroke="black" points="1455,-84.5 1455,-125.5 1657,-125.5 1657,-84.5 1455,-84.5"/>
<text text-anchor="start" x="1463" y="-113.5" font-family="Helvetica,sans-Serif" font-size="10.00">/home/travis/build</text>
<text text-anchor="start" x="1463" y="-102.5" font-family="Helvetica,sans-Serif" font-size="10.00">/STORM&#45;IRIT/Radium&#45;Engine</text>
<text text-anchor="middle" x="1556" y="-91.5" font-family="Helvetica,sans-Serif" font-size="10.00">/Plugins/Skinning/src/SkinningSystem.hpp</text>
</a>
</g>
</g>
<!-- Node9&#45;&gt;Node21 -->
<g id="edge21" class="edge"><title>Node9&#45;&gt;Node21</title>
<path fill="none" stroke="midnightblue" d="M1259.3,-174.741C1312.57,-162.549 1382.83,-146.419 1445,-132 1453.97,-129.921 1463.34,-127.739 1472.67,-125.56"/>
<polygon fill="midnightblue" stroke="midnightblue" points="1258.19,-171.405 1249.22,-177.048 1259.75,-178.229 1258.19,-171.405"/>
</g>
<!-- Node22 -->
<g id="node22" class="node"><title>Node22</title>
<g id="a_node22"><a xlink:href="SkinningPlugin_8cpp.html" target="_top" xlink:title="/home/travis/build\l/STORM&#45;IRIT/Radium&#45;Engine\l/Plugins/Skinning/src/SkinningPlugin.cpp">
<polygon fill="white" stroke="black" points="1458.5,-0.5 1458.5,-41.5 1653.5,-41.5 1653.5,-0.5 1458.5,-0.5"/>
<text text-anchor="start" x="1466.5" y="-29.5" font-family="Helvetica,sans-Serif" font-size="10.00">/home/travis/build</text>
<text text-anchor="start" x="1466.5" y="-18.5" font-family="Helvetica,sans-Serif" font-size="10.00">/STORM&#45;IRIT/Radium&#45;Engine</text>
<text text-anchor="middle" x="1556" y="-7.5" font-family="Helvetica,sans-Serif" font-size="10.00">/Plugins/Skinning/src/SkinningPlugin.cpp</text>
</a>
</g>
</g>
<!-- Node21&#45;&gt;Node22 -->
<g id="edge22" class="edge"><title>Node21&#45;&gt;Node22</title>
<path fill="none" stroke="midnightblue" d="M1556,-73.881C1556,-63.1328 1556,-51.309 1556,-41.6671"/>
<polygon fill="midnightblue" stroke="midnightblue" points="1552.5,-74.1501 1556,-84.1501 1559.5,-74.1501 1552.5,-74.1501"/>
</g>
<!-- Node24&#45;&gt;Node7 -->
<g id="edge25" class="edge"><title>Node24&#45;&gt;Node7</title>
<path fill="none" stroke="midnightblue" d="M1187.43,-315.95C1188.02,-328.677 1187.79,-343.156 1186.72,-354.47"/>
<polygon fill="midnightblue" stroke="midnightblue" points="1190.91,-315.519 1186.74,-305.78 1183.93,-315.994 1190.91,-315.519"/>
</g>
<!-- Node25&#45;&gt;Node18 -->
<g id="edge30" class="edge"><title>Node25&#45;&gt;Node18</title>
<path fill="none" stroke="midnightblue" d="M1993.7,-164.654C2017.64,-153.792 2044.55,-141.586 2067.59,-131.133"/>
<polygon fill="midnightblue" stroke="midnightblue" points="1991.99,-161.582 1984.33,-168.901 1994.89,-167.957 1991.99,-161.582"/>
</g>
<!-- Node25&#45;&gt;Node19 -->
<g id="edge31" class="edge"><title>Node25&#45;&gt;Node19</title>
<path fill="none" stroke="midnightblue" d="M1929,-158.489C1929,-149.309 1929,-139.616 1929,-131.092"/>
<polygon fill="midnightblue" stroke="midnightblue" points="1925.5,-158.547 1929,-168.547 1932.5,-158.547 1925.5,-158.547"/>
</g>
<!-- Node27&#45;&gt;Node1 -->
<g id="edge36" class="edge"><title>Node27&#45;&gt;Node1</title>
<path fill="none" stroke="midnightblue" d="M1481.43,-400.158C1457.17,-412.326 1427.03,-426.889 1402.34,-438.359"/>
<polygon fill="midnightblue" stroke="midnightblue" points="1483.06,-403.252 1490.42,-395.623 1479.91,-397.003 1483.06,-403.252"/>
</g>
</g>
</svg>
