<?xml version="1.0" encoding="UTF-8" standalone="no"?>
<!DOCTYPE svg PUBLIC "-//W3C//DTD SVG 1.1//EN"
 "http://www.w3.org/Graphics/SVG/1.1/DTD/svg11.dtd">
<!-- Generated by graphviz version 2.36.0 (20140111.2315)
 -->
<!-- Title: /home/travis/build/STORM&#45;IRIT/Radium&#45;Engine/src/Core/Mesh/MeshUtils.hpp Pages: 1 -->
<svg width="2060pt" height="546pt"
 viewBox="0.00 0.00 2060.00 546.00" xmlns="http://www.w3.org/2000/svg" xmlns:xlink="http://www.w3.org/1999/xlink">
<g id="graph0" class="graph" transform="scale(1 1) rotate(0) translate(4 542)">
<title>/home/travis/build/STORM&#45;IRIT/Radium&#45;Engine/src/Core/Mesh/MeshUtils.hpp</title>
<polygon fill="white" stroke="none" points="-4,4 -4,-542 2056,-542 2056,4 -4,4"/>
<!-- Node1 -->
<g id="node1" class="node"><title>Node1</title>
<polygon fill="#bfbfbf" stroke="black" points="1042,-496.5 1042,-537.5 1192,-537.5 1192,-496.5 1042,-496.5"/>
<text text-anchor="start" x="1050" y="-525.5" font-family="Helvetica,sans-Serif" font-size="10.00">/home/travis/build</text>
<text text-anchor="start" x="1050" y="-514.5" font-family="Helvetica,sans-Serif" font-size="10.00">/STORM&#45;IRIT/Radium&#45;Engine</text>
<text text-anchor="middle" x="1117" y="-503.5" font-family="Helvetica,sans-Serif" font-size="10.00">/src/Core/Mesh/MeshUtils.hpp</text>
</g>
<!-- Node2 -->
<g id="node2" class="node"><title>Node2</title>
<g id="a_node2"><a xlink:href="RaCore_8hpp.html" target="_top" xlink:title="Core/RaCore.hpp">
<polygon fill="white" stroke="black" points="843.5,-112.5 843.5,-131.5 936.5,-131.5 936.5,-112.5 843.5,-112.5"/>
<text text-anchor="middle" x="890" y="-119.5" font-family="Helvetica,sans-Serif" font-size="10.00">Core/RaCore.hpp</text>
</a>
</g>
</g>
<!-- Node1&#45;&gt;Node2 -->
<g id="edge1" class="edge"><title>Node1&#45;&gt;Node2</title>
<path fill="none" stroke="midnightblue" d="M1192.12,-512.182C1394.34,-500.909 1935,-463.777 1935,-389 1935,-389 1935,-389 1935,-319 1935,-211.483 1849.79,-196.067 1746,-168 1594.8,-127.112 1113.48,-123.04 947.173,-122.884"/>
<polygon fill="midnightblue" stroke="midnightblue" points="946.683,-119.384 936.681,-122.879 946.68,-126.384 946.683,-119.384"/>
</g>
<!-- Node9 -->
<g id="node9" class="node"><title>Node9</title>
<polygon fill="white" stroke="#bfbfbf" points="769,-440.5 769,-459.5 807,-459.5 807,-440.5 769,-440.5"/>
<text text-anchor="middle" x="788" y="-447.5" font-family="Helvetica,sans-Serif" font-size="10.00">array</text>
</g>
<!-- Node1&#45;&gt;Node9 -->
<g id="edge8" class="edge"><title>Node1&#45;&gt;Node9</title>
<path fill="none" stroke="midnightblue" d="M1041.84,-503.477C981.807,-493.066 895.661,-477.215 821,-460 819.731,-459.707 818.436,-459.399 817.131,-459.079"/>
<polygon fill="midnightblue" stroke="midnightblue" points="817.688,-455.608 807.13,-456.493 815.935,-462.385 817.688,-455.608"/>
</g>
<!-- Node10 -->
<g id="node10" class="node"><title>Node10</title>
<polygon fill="white" stroke="#bfbfbf" points="712,-174.5 712,-193.5 756,-193.5 756,-174.5 712,-174.5"/>
<text text-anchor="middle" x="734" y="-181.5" font-family="Helvetica,sans-Serif" font-size="10.00">vector</text>
</g>
<!-- Node1&#45;&gt;Node10 -->
<g id="edge9" class="edge"><title>Node1&#45;&gt;Node10</title>
<path fill="none" stroke="midnightblue" d="M1081.3,-496.493C1015.42,-459.137 873.081,-371.913 781,-268 763.373,-248.108 749.374,-220.534 741.383,-202.729"/>
<polygon fill="midnightblue" stroke="midnightblue" points="744.575,-201.293 737.39,-193.507 738.152,-204.074 744.575,-201.293"/>
</g>
<!-- Node11 -->
<g id="node11" class="node"><title>Node11</title>
<g id="a_node11"><a xlink:href="Ray_8hpp.html" target="_top" xlink:title="Core/Math/Ray.hpp">
<polygon fill="white" stroke="black" points="949,-310.5 949,-329.5 1051,-329.5 1051,-310.5 949,-310.5"/>
<text text-anchor="middle" x="1000" y="-317.5" font-family="Helvetica,sans-Serif" font-size="10.00">Core/Math/Ray.hpp</text>
</a>
</g>
</g>
<!-- Node1&#45;&gt;Node11 -->
<g id="edge10" class="edge"><title>Node1&#45;&gt;Node11</title>
<path fill="none" stroke="midnightblue" d="M1105.14,-496.229C1082.3,-458.172 1032.57,-375.28 1010.69,-338.818"/>
<polygon fill="midnightblue" stroke="midnightblue" points="1013.45,-336.615 1005.3,-329.84 1007.45,-340.216 1013.45,-336.615"/>
</g>
<!-- Node23 -->
<g id="node23" class="node"><title>Node23</title>
<g id="a_node23"><a xlink:href="TriangleMesh_8hpp.html" target="_top" xlink:title="Core/Mesh/TriangleMesh.hpp">
<polygon fill="white" stroke="black" points="569.5,-440.5 569.5,-459.5 714.5,-459.5 714.5,-440.5 569.5,-440.5"/>
<text text-anchor="middle" x="642" y="-447.5" font-family="Helvetica,sans-Serif" font-size="10.00">Core/Mesh/TriangleMesh.hpp</text>
</a>
</g>
</g>
<!-- Node1&#45;&gt;Node23 -->
<g id="edge27" class="edge"><title>Node1&#45;&gt;Node23</title>
<path fill="none" stroke="midnightblue" d="M1042,-505.736C952.13,-493.439 802.63,-472.981 714.08,-460.864"/>
<polygon fill="midnightblue" stroke="midnightblue" points="714.503,-457.389 704.12,-459.501 713.553,-464.324 714.503,-457.389"/>
</g>
<!-- Node38 -->
<g id="node38" class="node"><title>Node38</title>
<g id="a_node38"><a xlink:href="MeshUtils_8inl.html" target="_top" xlink:title="Core/Mesh/MeshUtils.inl">
<polygon fill="white" stroke="black" points="1204.5,-440.5 1204.5,-459.5 1329.5,-459.5 1329.5,-440.5 1204.5,-440.5"/>
<text text-anchor="middle" x="1267" y="-447.5" font-family="Helvetica,sans-Serif" font-size="10.00">Core/Mesh/MeshUtils.inl</text>
</a>
</g>
</g>
<!-- Node1&#45;&gt;Node38 -->
<g id="edge59" class="edge"><title>Node1&#45;&gt;Node38</title>
<path fill="none" stroke="midnightblue" d="M1155.76,-496.498C1179.65,-485.766 1209.91,-472.769 1232.9,-463.419"/>
<polygon fill="midnightblue" stroke="midnightblue" points="1234.3,-466.63 1242.27,-459.652 1231.68,-460.135 1234.3,-466.63"/>
</g>
<!-- Node3 -->
<g id="node3" class="node"><title>Node3</title>
<g id="a_node3"><a xlink:href="CoreMacros_8hpp.html" target="_top" xlink:title="Core/CoreMacros.hpp">
<polygon fill="white" stroke="black" points="627.5,-56.5 627.5,-75.5 740.5,-75.5 740.5,-56.5 627.5,-56.5"/>
<text text-anchor="middle" x="684" y="-63.5" font-family="Helvetica,sans-Serif" font-size="10.00">Core/CoreMacros.hpp</text>
</a>
</g>
</g>
<!-- Node2&#45;&gt;Node3 -->
<g id="edge2" class="edge"><title>Node2&#45;&gt;Node3</title>
<path fill="none" stroke="midnightblue" d="M857.359,-112.444C821.95,-103.162 765.291,-88.3093 726.447,-78.127"/>
<polygon fill="midnightblue" stroke="midnightblue" points="727.049,-74.6666 716.489,-75.5164 725.274,-81.4378 727.049,-74.6666"/>
</g>
<!-- Node4 -->
<g id="node4" class="node"><title>Node4</title>
<polygon fill="white" stroke="#bfbfbf" points="627.5,-0.5 627.5,-19.5 676.5,-19.5 676.5,-0.5 627.5,-0.5"/>
<text text-anchor="middle" x="652" y="-7.5" font-family="Helvetica,sans-Serif" font-size="10.00">cassert</text>
</g>
<!-- Node3&#45;&gt;Node4 -->
<g id="edge3" class="edge"><title>Node3&#45;&gt;Node4</title>
<path fill="none" stroke="midnightblue" d="M678.716,-56.083C674.289,-48.6127 667.837,-37.7244 662.382,-28.5199"/>
<polygon fill="midnightblue" stroke="midnightblue" points="665.295,-26.5697 657.186,-19.7511 659.273,-30.1383 665.295,-26.5697"/>
</g>
<!-- Node5 -->
<g id="node5" class="node"><title>Node5</title>
<polygon fill="white" stroke="#bfbfbf" points="694.5,-0.5 694.5,-19.5 737.5,-19.5 737.5,-0.5 694.5,-0.5"/>
<text text-anchor="middle" x="716" y="-7.5" font-family="Helvetica,sans-Serif" font-size="10.00">cstdio</text>
</g>
<!-- Node3&#45;&gt;Node5 -->
<g id="edge4" class="edge"><title>Node3&#45;&gt;Node5</title>
<path fill="none" stroke="midnightblue" d="M689.284,-56.083C693.711,-48.6127 700.163,-37.7244 705.618,-28.5199"/>
<polygon fill="midnightblue" stroke="midnightblue" points="708.727,-30.1383 710.814,-19.7511 702.705,-26.5697 708.727,-30.1383"/>
</g>
<!-- Node6 -->
<g id="node6" class="node"><title>Node6</title>
<polygon fill="white" stroke="#bfbfbf" points="756,-0.5 756,-19.5 810,-19.5 810,-0.5 756,-0.5"/>
<text text-anchor="middle" x="783" y="-7.5" font-family="Helvetica,sans-Serif" font-size="10.00">iostream</text>
</g>
<!-- Node3&#45;&gt;Node6 -->
<g id="edge5" class="edge"><title>Node3&#45;&gt;Node6</title>
<path fill="none" stroke="midnightblue" d="M699.906,-56.324C715.638,-47.7428 739.942,-34.486 758.209,-24.5224"/>
<polygon fill="midnightblue" stroke="midnightblue" points="760.03,-27.5157 767.133,-19.6545 756.678,-21.3704 760.03,-27.5157"/>
</g>
<!-- Node7 -->
<g id="node7" class="node"><title>Node7</title>
<polygon fill="white" stroke="#bfbfbf" points="321,-0.5 321,-19.5 373,-19.5 373,-0.5 321,-0.5"/>
<text text-anchor="middle" x="347" y="-7.5" font-family="Helvetica,sans-Serif" font-size="10.00">sstream</text>
</g>
<!-- Node3&#45;&gt;Node7 -->
<g id="edge6" class="edge"><title>Node3&#45;&gt;Node7</title>
<path fill="none" stroke="midnightblue" d="M630.601,-56.4435C561.443,-45.3619 442.734,-26.3401 383.23,-16.8054"/>
<polygon fill="midnightblue" stroke="midnightblue" points="383.603,-13.3206 373.175,-15.1943 382.496,-20.2325 383.603,-13.3206"/>
</g>
<!-- Node8 -->
<g id="node8" class="node"><title>Node8</title>
<polygon fill="white" stroke="#bfbfbf" points="565,-0.5 565,-19.5 609,-19.5 609,-0.5 565,-0.5"/>
<text text-anchor="middle" x="587" y="-7.5" font-family="Helvetica,sans-Serif" font-size="10.00">thread</text>
</g>
<!-- Node3&#45;&gt;Node8 -->
<g id="edge7" class="edge"><title>Node3&#45;&gt;Node8</title>
<path fill="none" stroke="midnightblue" d="M668.415,-56.324C653.001,-47.7428 629.188,-34.486 611.29,-24.5224"/>
<polygon fill="midnightblue" stroke="midnightblue" points="612.986,-21.4606 602.546,-19.6545 609.581,-27.5767 612.986,-21.4606"/>
</g>
<!-- Node11&#45;&gt;Node2 -->
<g id="edge25" class="edge"><title>Node11&#45;&gt;Node2</title>
<path fill="none" stroke="midnightblue" d="M995.132,-310.325C978.307,-280.347 922.412,-180.753 899.71,-140.302"/>
<polygon fill="midnightblue" stroke="midnightblue" points="902.759,-138.582 894.812,-131.575 896.654,-142.008 902.759,-138.582"/>
</g>
<!-- Node12 -->
<g id="node12" class="node"><title>Node12</title>
<g id="a_node12"><a xlink:href="LinearAlgebra_8hpp.html" target="_top" xlink:title="Core/Math/LinearAlgebra.hpp">
<polygon fill="white" stroke="black" points="1135.5,-242.5 1135.5,-261.5 1278.5,-261.5 1278.5,-242.5 1135.5,-242.5"/>
<text text-anchor="middle" x="1207" y="-249.5" font-family="Helvetica,sans-Serif" font-size="10.00">Core/Math/LinearAlgebra.hpp</text>
</a>
</g>
</g>
<!-- Node11&#45;&gt;Node12 -->
<g id="edge11" class="edge"><title>Node11&#45;&gt;Node12</title>
<path fill="none" stroke="midnightblue" d="M1027.06,-310.372C1063.81,-298.654 1129.61,-277.674 1170.65,-264.591"/>
<polygon fill="midnightblue" stroke="midnightblue" points="1171.8,-267.898 1180.26,-261.526 1169.67,-261.229 1171.8,-267.898"/>
</g>
<!-- Node14 -->
<g id="node14" class="node"><title>Node14</title>
<polygon fill="white" stroke="#bfbfbf" points="956.5,-174.5 956.5,-193.5 1043.5,-193.5 1043.5,-174.5 956.5,-174.5"/>
<text text-anchor="middle" x="1000" y="-181.5" font-family="Helvetica,sans-Serif" font-size="10.00">Eigen/Geometry</text>
</g>
<!-- Node11&#45;&gt;Node14 -->
<g id="edge26" class="edge"><title>Node11&#45;&gt;Node14</title>
<path fill="none" stroke="midnightblue" d="M1000,-310.208C1000,-288.722 1000,-233.167 1000,-203.814"/>
<polygon fill="midnightblue" stroke="midnightblue" points="1003.5,-203.65 1000,-193.65 996.5,-203.65 1003.5,-203.65"/>
</g>
<!-- Node12&#45;&gt;Node2 -->
<g id="edge12" class="edge"><title>Node12&#45;&gt;Node2</title>
<path fill="none" stroke="midnightblue" d="M1182.5,-242.466C1158.34,-233.544 1120.81,-218.303 1091,-200 1071.89,-188.268 1071.9,-178.335 1052,-168 1019.04,-150.882 978.829,-139.664 946.714,-132.71"/>
<polygon fill="midnightblue" stroke="midnightblue" points="947.094,-129.214 936.591,-130.599 945.666,-136.066 947.094,-129.214"/>
</g>
<!-- Node13 -->
<g id="node13" class="node"><title>Node13</title>
<polygon fill="white" stroke="#bfbfbf" points="1100.5,-174.5 1100.5,-193.5 1165.5,-193.5 1165.5,-174.5 1100.5,-174.5"/>
<text text-anchor="middle" x="1133" y="-181.5" font-family="Helvetica,sans-Serif" font-size="10.00">Eigen/Core</text>
</g>
<!-- Node12&#45;&gt;Node13 -->
<g id="edge13" class="edge"><title>Node12&#45;&gt;Node13</title>
<path fill="none" stroke="midnightblue" d="M1197.33,-242.372C1185.54,-231.856 1165.38,-213.882 1150.77,-200.85"/>
<polygon fill="midnightblue" stroke="midnightblue" points="1152.71,-197.885 1142.91,-193.841 1148.05,-203.109 1152.71,-197.885"/>
</g>
<!-- Node12&#45;&gt;Node14 -->
<g id="edge14" class="edge"><title>Node12&#45;&gt;Node14</title>
<path fill="none" stroke="midnightblue" d="M1179.94,-242.372C1143.19,-230.654 1077.39,-209.674 1036.35,-196.591"/>
<polygon fill="midnightblue" stroke="midnightblue" points="1037.33,-193.229 1026.74,-193.526 1035.2,-199.898 1037.33,-193.229"/>
</g>
<!-- Node15 -->
<g id="node15" class="node"><title>Node15</title>
<polygon fill="white" stroke="#bfbfbf" points="1183.5,-174.5 1183.5,-193.5 1258.5,-193.5 1258.5,-174.5 1183.5,-174.5"/>
<text text-anchor="middle" x="1221" y="-181.5" font-family="Helvetica,sans-Serif" font-size="10.00">Eigen/Sparse</text>
</g>
<!-- Node12&#45;&gt;Node15 -->
<g id="edge15" class="edge"><title>Node12&#45;&gt;Node15</title>
<path fill="none" stroke="midnightblue" d="M1208.83,-242.372C1210.89,-232.643 1214.31,-216.528 1217,-203.85"/>
<polygon fill="midnightblue" stroke="midnightblue" points="1220.47,-204.35 1219.12,-193.841 1213.63,-202.897 1220.47,-204.35"/>
</g>
<!-- Node16 -->
<g id="node16" class="node"><title>Node16</title>
<polygon fill="white" stroke="#bfbfbf" points="1582.5,-174.5 1582.5,-193.5 1641.5,-193.5 1641.5,-174.5 1582.5,-174.5"/>
<text text-anchor="middle" x="1612" y="-181.5" font-family="Helvetica,sans-Serif" font-size="10.00">functional</text>
</g>
<!-- Node12&#45;&gt;Node16 -->
<g id="edge16" class="edge"><title>Node12&#45;&gt;Node16</title>
<path fill="none" stroke="midnightblue" d="M1278.79,-245.877C1353.28,-239.431 1472.68,-225.916 1573,-200 1576.23,-199.165 1579.56,-198.146 1582.85,-197.036"/>
<polygon fill="midnightblue" stroke="midnightblue" points="1584.26,-200.247 1592.45,-193.525 1581.85,-193.673 1584.26,-200.247"/>
</g>
<!-- Node17 -->
<g id="node17" class="node"><title>Node17</title>
<polygon fill="white" stroke="#bfbfbf" points="1276.5,-169 1276.5,-199 1409.5,-199 1409.5,-169 1276.5,-169"/>
<text text-anchor="start" x="1284.5" y="-187" font-family="Helvetica,sans-Serif" font-size="10.00">unsupported/Eigen/Aligned</text>
<text text-anchor="middle" x="1343" y="-176" font-family="Helvetica,sans-Serif" font-size="10.00">Vector3</text>
</g>
<!-- Node12&#45;&gt;Node17 -->
<g id="edge17" class="edge"><title>Node12&#45;&gt;Node17</title>
<path fill="none" stroke="midnightblue" d="M1224.78,-242.372C1244.98,-232.569 1278.54,-216.283 1304.75,-203.563"/>
<polygon fill="midnightblue" stroke="midnightblue" points="1306.57,-206.571 1314.04,-199.056 1303.51,-200.273 1306.57,-206.571"/>
</g>
<!-- Node18 -->
<g id="node18" class="node"><title>Node18</title>
<g id="a_node18"><a xlink:href="Math_8hpp.html" target="_top" xlink:title="Core/Math/Math.hpp">
<polygon fill="white" stroke="black" points="1904,-174.5 1904,-193.5 2010,-193.5 2010,-174.5 1904,-174.5"/>
<text text-anchor="middle" x="1957" y="-181.5" font-family="Helvetica,sans-Serif" font-size="10.00">Core/Math/Math.hpp</text>
</a>
</g>
</g>
<!-- Node12&#45;&gt;Node18 -->
<g id="edge18" class="edge"><title>Node12&#45;&gt;Node18</title>
<path fill="none" stroke="midnightblue" d="M1278.57,-244.702C1424.67,-231.845 1755.09,-202.768 1893.81,-190.561"/>
<polygon fill="midnightblue" stroke="midnightblue" points="1894.21,-194.04 1903.86,-189.676 1893.59,-187.066 1894.21,-194.04"/>
</g>
<!-- Node22 -->
<g id="node22" class="node"><title>Node22</title>
<g id="a_node22"><a xlink:href="LinearAlgebra_8inl.html" target="_top" xlink:title="Core/Math/LinearAlgebra.inl">
<polygon fill="white" stroke="black" points="1427.5,-174.5 1427.5,-193.5 1564.5,-193.5 1564.5,-174.5 1427.5,-174.5"/>
<text text-anchor="middle" x="1496" y="-181.5" font-family="Helvetica,sans-Serif" font-size="10.00">Core/Math/LinearAlgebra.inl</text>
</a>
</g>
</g>
<!-- Node12&#45;&gt;Node22 -->
<g id="edge24" class="edge"><title>Node12&#45;&gt;Node22</title>
<path fill="none" stroke="midnightblue" d="M1244.49,-242.439C1296.79,-230.495 1391.64,-208.834 1448.72,-195.797"/>
<polygon fill="midnightblue" stroke="midnightblue" points="1449.61,-199.184 1458.58,-193.546 1448.05,-192.36 1449.61,-199.184"/>
</g>
<!-- Node18&#45;&gt;Node2 -->
<g id="edge19" class="edge"><title>Node18&#45;&gt;Node2</title>
<path fill="none" stroke="midnightblue" d="M1924.15,-174.44C1913.34,-171.949 1901.22,-169.497 1890,-168 1705.6,-143.402 1130.22,-128.474 946.792,-124.245"/>
<polygon fill="midnightblue" stroke="midnightblue" points="946.636,-120.741 936.558,-124.011 946.476,-127.739 946.636,-120.741"/>
</g>
<!-- Node19 -->
<g id="node19" class="node"><title>Node19</title>
<polygon fill="white" stroke="#bfbfbf" points="1816,-112.5 1816,-131.5 1872,-131.5 1872,-112.5 1816,-112.5"/>
<text text-anchor="middle" x="1844" y="-119.5" font-family="Helvetica,sans-Serif" font-size="10.00">algorithm</text>
</g>
<!-- Node18&#45;&gt;Node19 -->
<g id="edge20" class="edge"><title>Node18&#45;&gt;Node19</title>
<path fill="none" stroke="midnightblue" d="M1940.81,-174.403C1922.1,-164.468 1891.08,-147.997 1869.2,-136.381"/>
<polygon fill="midnightblue" stroke="midnightblue" points="1870.63,-133.179 1860.16,-131.581 1867.35,-139.362 1870.63,-133.179"/>
</g>
<!-- Node20 -->
<g id="node20" class="node"><title>Node20</title>
<polygon fill="white" stroke="#bfbfbf" points="1890,-112.5 1890,-131.5 1934,-131.5 1934,-112.5 1890,-112.5"/>
<text text-anchor="middle" x="1912" y="-119.5" font-family="Helvetica,sans-Serif" font-size="10.00">cmath</text>
</g>
<!-- Node18&#45;&gt;Node20 -->
<g id="edge21" class="edge"><title>Node18&#45;&gt;Node20</title>
<path fill="none" stroke="midnightblue" d="M1950.55,-174.403C1943.8,-165.403 1933.03,-151.041 1924.59,-139.782"/>
<polygon fill="midnightblue" stroke="midnightblue" points="1927.24,-137.481 1918.44,-131.581 1921.64,-141.681 1927.24,-137.481"/>
</g>
<!-- Node21 -->
<g id="node21" class="node"><title>Node21</title>
<g id="a_node21"><a xlink:href="Math_8inl.html" target="_top" xlink:title="Core/Math/Math.inl">
<polygon fill="white" stroke="black" points="1952,-112.5 1952,-131.5 2052,-131.5 2052,-112.5 1952,-112.5"/>
<text text-anchor="middle" x="2002" y="-119.5" font-family="Helvetica,sans-Serif" font-size="10.00">Core/Math/Math.inl</text>
</a>
</g>
</g>
<!-- Node18&#45;&gt;Node21 -->
<g id="edge22" class="edge"><title>Node18&#45;&gt;Node21</title>
<path fill="none" stroke="midnightblue" d="M1958.55,-174.403C1963.45,-165.225 1974.12,-150.47 1983.85,-139.117"/>
<polygon fill="midnightblue" stroke="midnightblue" points="1986.56,-141.345 1990.67,-131.581 1981.36,-136.649 1986.56,-141.345"/>
</g>
<!-- Node21&#45;&gt;Node18 -->
<g id="edge23" class="edge"><title>Node21&#45;&gt;Node18</title>
<path fill="none" stroke="midnightblue" d="M2000.46,-131.581C1995.57,-140.752 1984.89,-155.506 1975.17,-166.863"/>
<polygon fill="midnightblue" stroke="midnightblue" points="1972.46,-164.639 1968.35,-174.403 1977.65,-169.334 1972.46,-164.639"/>
</g>
<!-- Node23&#45;&gt;Node2 -->
<g id="edge43" class="edge"><title>Node23&#45;&gt;Node2</title>
<path fill="none" stroke="midnightblue" d="M586.611,-440.462C523.204,-427.177 428,-394.92 428,-321 428,-321 428,-321 428,-251 428,-213.157 418.637,-193.052 447,-168 475.409,-142.907 720.304,-129.85 833.301,-125.115"/>
<polygon fill="midnightblue" stroke="midnightblue" points="833.64,-128.604 843.488,-124.696 833.352,-121.61 833.64,-128.604"/>
</g>
<!-- Node23&#45;&gt;Node12 -->
<g id="edge36" class="edge"><title>Node23&#45;&gt;Node12</title>
<path fill="none" stroke="midnightblue" d="M687.627,-440.483C765.631,-425.084 928.809,-389.191 1059,-336 1106.29,-316.68 1157.42,-285.453 1185.49,-267.313"/>
<polygon fill="midnightblue" stroke="midnightblue" points="1187.63,-270.097 1194.08,-261.699 1183.8,-264.236 1187.63,-270.097"/>
</g>
<!-- Node24 -->
<g id="node24" class="node"><title>Node24</title>
<g id="a_node24"><a xlink:href="VectorArray_8hpp.html" target="_top" xlink:title="Core/Containers/VectorArray.hpp">
<polygon fill="white" stroke="black" points="645.5,-310.5 645.5,-329.5 806.5,-329.5 806.5,-310.5 645.5,-310.5"/>
<text text-anchor="middle" x="726" y="-317.5" font-family="Helvetica,sans-Serif" font-size="10.00">Core/Containers/VectorArray.hpp</text>
</a>
</g>
</g>
<!-- Node23&#45;&gt;Node24 -->
<g id="edge28" class="edge"><title>Node23&#45;&gt;Node24</title>
<path fill="none" stroke="midnightblue" d="M669.906,-440.482C687.401,-433.59 708.709,-422.016 720,-404 732.141,-384.627 731.565,-357.489 729.354,-339.589"/>
<polygon fill="midnightblue" stroke="midnightblue" points="732.793,-338.919 727.825,-329.562 725.873,-339.975 732.793,-338.919"/>
</g>
<!-- Node27 -->
<g id="node27" class="node"><title>Node27</title>
<g id="a_node27"><a xlink:href="MeshTypes_8hpp.html" target="_top" xlink:title="Core/Mesh/MeshTypes.hpp">
<polygon fill="white" stroke="black" points="490.5,-310.5 490.5,-329.5 627.5,-329.5 627.5,-310.5 490.5,-310.5"/>
<text text-anchor="middle" x="559" y="-317.5" font-family="Helvetica,sans-Serif" font-size="10.00">Core/Mesh/MeshTypes.hpp</text>
</a>
</g>
</g>
<!-- Node23&#45;&gt;Node27 -->
<g id="edge37" class="edge"><title>Node23&#45;&gt;Node27</title>
<path fill="none" stroke="midnightblue" d="M612.815,-440.362C595.192,-433.51 574.066,-422.025 563,-404 551.056,-384.544 552.35,-357.425 555.08,-339.552"/>
<polygon fill="midnightblue" stroke="midnightblue" points="558.554,-340.009 556.908,-329.543 551.668,-338.751 558.554,-340.009"/>
</g>
<!-- Node31 -->
<g id="node31" class="node"><title>Node31</title>
<g id="a_node31"><a xlink:href="Attribs_8hpp.html" target="_top" xlink:title="Core/Utils/Attribs.hpp">
<polygon fill="white" stroke="black" points="288.5,-378.5 288.5,-397.5 399.5,-397.5 399.5,-378.5 288.5,-378.5"/>
<text text-anchor="middle" x="344" y="-385.5" font-family="Helvetica,sans-Serif" font-size="10.00">Core/Utils/Attribs.hpp</text>
</a>
</g>
</g>
<!-- Node23&#45;&gt;Node31 -->
<g id="edge44" class="edge"><title>Node23&#45;&gt;Node31</title>
<path fill="none" stroke="midnightblue" d="M597.395,-440.418C551.401,-431.517 477.625,-417.095 414,-404 407.293,-402.62 400.231,-401.139 393.277,-399.664"/>
<polygon fill="midnightblue" stroke="midnightblue" points="393.73,-396.182 383.22,-397.522 392.271,-403.029 393.73,-396.182"/>
</g>
<!-- Node37 -->
<g id="node37" class="node"><title>Node37</title>
<g id="a_node37"><a xlink:href="TriangleMesh_8inl.html" target="_top" xlink:title="Core/Mesh/TriangleMesh.inl">
<polygon fill="white" stroke="black" points="572.5,-378.5 572.5,-397.5 711.5,-397.5 711.5,-378.5 572.5,-378.5"/>
<text text-anchor="middle" x="642" y="-385.5" font-family="Helvetica,sans-Serif" font-size="10.00">Core/Mesh/TriangleMesh.inl</text>
</a>
</g>
</g>
<!-- Node23&#45;&gt;Node37 -->
<g id="edge57" class="edge"><title>Node23&#45;&gt;Node37</title>
<path fill="none" stroke="midnightblue" d="M637.099,-440.403C635.268,-431.938 634.797,-418.728 635.685,-407.82"/>
<polygon fill="midnightblue" stroke="midnightblue" points="639.198,-407.966 637.103,-397.581 632.264,-407.006 639.198,-407.966"/>
</g>
<!-- Node24&#45;&gt;Node2 -->
<g id="edge34" class="edge"><title>Node24&#45;&gt;Node2</title>
<path fill="none" stroke="midnightblue" d="M720.701,-310.363C706.092,-285.329 668.536,-211.741 703,-168 719.014,-147.676 784.171,-135.467 833.102,-128.997"/>
<polygon fill="midnightblue" stroke="midnightblue" points="833.795,-132.437 843.274,-127.703 832.912,-125.493 833.795,-132.437"/>
</g>
<!-- Node24&#45;&gt;Node10 -->
<g id="edge35" class="edge"><title>Node24&#45;&gt;Node10</title>
<path fill="none" stroke="midnightblue" d="M726.525,-310.208C727.808,-288.722 731.124,-233.167 732.877,-203.814"/>
<polygon fill="midnightblue" stroke="midnightblue" points="736.381,-203.841 733.484,-193.65 729.394,-203.424 736.381,-203.841"/>
</g>
<!-- Node24&#45;&gt;Node12 -->
<g id="edge33" class="edge"><title>Node24&#45;&gt;Node12</title>
<path fill="none" stroke="midnightblue" d="M788.389,-310.439C877.417,-298.223 1040.53,-275.842 1134.71,-262.92"/>
<polygon fill="midnightblue" stroke="midnightblue" points="1135.29,-266.373 1144.72,-261.546 1134.34,-259.437 1135.29,-266.373"/>
</g>
<!-- Node25 -->
<g id="node25" class="node"><title>Node25</title>
<g id="a_node25"><a xlink:href="AlignedStdVector_8hpp.html" target="_top" xlink:title="Core/Containers/AlignedStd\lVector.hpp">
<polygon fill="white" stroke="black" points="790,-237 790,-267 928,-267 928,-237 790,-237"/>
<text text-anchor="start" x="798" y="-255" font-family="Helvetica,sans-Serif" font-size="10.00">Core/Containers/AlignedStd</text>
<text text-anchor="middle" x="859" y="-244" font-family="Helvetica,sans-Serif" font-size="10.00">Vector.hpp</text>
</a>
</g>
</g>
<!-- Node24&#45;&gt;Node25 -->
<g id="edge29" class="edge"><title>Node24&#45;&gt;Node25</title>
<path fill="none" stroke="midnightblue" d="M743.387,-310.372C763.141,-300.569 795.959,-284.283 821.593,-271.563"/>
<polygon fill="midnightblue" stroke="midnightblue" points="823.273,-274.637 830.675,-267.056 820.161,-268.366 823.273,-274.637"/>
</g>
<!-- Node25&#45;&gt;Node2 -->
<g id="edge30" class="edge"><title>Node25&#45;&gt;Node2</title>
<path fill="none" stroke="midnightblue" d="M862.436,-236.813C868.066,-213.566 879.254,-167.371 885.506,-141.556"/>
<polygon fill="midnightblue" stroke="midnightblue" points="888.971,-142.117 887.924,-131.574 882.168,-140.469 888.971,-142.117"/>
</g>
<!-- Node25&#45;&gt;Node10 -->
<g id="edge32" class="edge"><title>Node25&#45;&gt;Node10</title>
<path fill="none" stroke="midnightblue" d="M832.184,-236.841C810.66,-225.476 780.644,-209.628 759.481,-198.454"/>
<polygon fill="midnightblue" stroke="midnightblue" points="760.92,-195.256 750.443,-193.682 757.652,-201.446 760.92,-195.256"/>
</g>
<!-- Node26 -->
<g id="node26" class="node"><title>Node26</title>
<polygon fill="white" stroke="#bfbfbf" points="774,-174.5 774,-193.5 862,-193.5 862,-174.5 774,-174.5"/>
<text text-anchor="middle" x="818" y="-181.5" font-family="Helvetica,sans-Serif" font-size="10.00">Eigen/StdVector</text>
</g>
<!-- Node25&#45;&gt;Node26 -->
<g id="edge31" class="edge"><title>Node25&#45;&gt;Node26</title>
<path fill="none" stroke="midnightblue" d="M850.104,-236.679C843.837,-226.592 835.414,-213.033 828.768,-202.335"/>
<polygon fill="midnightblue" stroke="midnightblue" points="831.734,-200.476 823.484,-193.828 825.788,-204.17 831.734,-200.476"/>
</g>
<!-- Node27&#45;&gt;Node2 -->
<g id="edge42" class="edge"><title>Node27&#45;&gt;Node2</title>
<path fill="none" stroke="midnightblue" d="M572.341,-310.358C586.098,-301.017 607.65,-285.15 623,-268 658.033,-228.859 643.031,-198.215 686,-168 729.258,-137.581 789.419,-127.215 833.195,-123.927"/>
<polygon fill="midnightblue" stroke="midnightblue" points="833.638,-127.406 843.39,-123.266 833.185,-120.421 833.638,-127.406"/>
</g>
<!-- Node27&#45;&gt;Node12 -->
<g id="edge41" class="edge"><title>Node27&#45;&gt;Node12</title>
<path fill="none" stroke="midnightblue" d="M598.832,-310.427C610.744,-308.084 623.864,-305.719 636,-304 809.201,-279.462 1013.73,-264.578 1124.93,-257.658"/>
<polygon fill="midnightblue" stroke="midnightblue" points="1125.3,-261.142 1135.06,-257.033 1124.87,-254.155 1125.3,-261.142"/>
</g>
<!-- Node28 -->
<g id="node28" class="node"><title>Node28</title>
<g id="a_node28"><a xlink:href="Index_8hpp.html" target="_top" xlink:title="Core/Index/Index.hpp">
<polygon fill="white" stroke="black" points="504,-242.5 504,-261.5 614,-261.5 614,-242.5 504,-242.5"/>
<text text-anchor="middle" x="559" y="-249.5" font-family="Helvetica,sans-Serif" font-size="10.00">Core/Index/Index.hpp</text>
</a>
</g>
</g>
<!-- Node27&#45;&gt;Node28 -->
<g id="edge38" class="edge"><title>Node27&#45;&gt;Node28</title>
<path fill="none" stroke="midnightblue" d="M559,-310.372C559,-300.643 559,-284.528 559,-271.85"/>
<polygon fill="midnightblue" stroke="midnightblue" points="562.5,-271.841 559,-261.841 555.5,-271.841 562.5,-271.841"/>
</g>
<!-- Node29 -->
<g id="node29" class="node"><title>Node29</title>
<polygon fill="white" stroke="#bfbfbf" points="578,-174.5 578,-193.5 618,-193.5 618,-174.5 578,-174.5"/>
<text text-anchor="middle" x="598" y="-181.5" font-family="Helvetica,sans-Serif" font-size="10.00">limits</text>
</g>
<!-- Node28&#45;&gt;Node29 -->
<g id="edge39" class="edge"><title>Node28&#45;&gt;Node29</title>
<path fill="none" stroke="midnightblue" d="M564.099,-242.372C570.022,-232.348 579.95,-215.546 587.536,-202.708"/>
<polygon fill="midnightblue" stroke="midnightblue" points="590.702,-204.231 592.776,-193.841 584.675,-200.67 590.702,-204.231"/>
</g>
<!-- Node30 -->
<g id="node30" class="node"><title>Node30</title>
<g id="a_node30"><a xlink:href="Index_8inl.html" target="_top" xlink:title="Core/Index/Index.inl">
<polygon fill="white" stroke="black" points="456,-174.5 456,-193.5 560,-193.5 560,-174.5 456,-174.5"/>
<text text-anchor="middle" x="508" y="-181.5" font-family="Helvetica,sans-Serif" font-size="10.00">Core/Index/Index.inl</text>
</a>
</g>
</g>
<!-- Node28&#45;&gt;Node30 -->
<g id="edge40" class="edge"><title>Node28&#45;&gt;Node30</title>
<path fill="none" stroke="midnightblue" d="M552.333,-242.372C544.435,-232.151 531.092,-214.884 521.103,-201.957"/>
<polygon fill="midnightblue" stroke="midnightblue" points="523.716,-199.614 514.832,-193.841 518.177,-203.894 523.716,-199.614"/>
</g>
<!-- Node31&#45;&gt;Node2 -->
<g id="edge56" class="edge"><title>Node31&#45;&gt;Node2</title>
<path fill="none" stroke="midnightblue" d="M346.192,-378.247C356.053,-339.176 396.589,-182.018 414,-168 446.041,-142.204 713.85,-129.376 833.102,-124.9"/>
<polygon fill="midnightblue" stroke="midnightblue" points="833.277,-128.396 843.141,-124.53 833.019,-121.401 833.277,-128.396"/>
</g>
<!-- Node31&#45;&gt;Node24 -->
<g id="edge45" class="edge"><title>Node31&#45;&gt;Node24</title>
<path fill="none" stroke="midnightblue" d="M393.548,-378.439C463.537,-366.347 591.175,-344.294 666.299,-331.315"/>
<polygon fill="midnightblue" stroke="midnightblue" points="667.281,-334.697 676.54,-329.546 666.09,-327.799 667.281,-334.697"/>
</g>
<!-- Node32 -->
<g id="node32" class="node"><title>Node32</title>
<g id="a_node32"><a xlink:href="Log_8hpp.html" target="_top" xlink:title="Core/Log/Log.hpp">
<polygon fill="white" stroke="black" points="93,-310.5 93,-329.5 187,-329.5 187,-310.5 93,-310.5"/>
<text text-anchor="middle" x="140" y="-317.5" font-family="Helvetica,sans-Serif" font-size="10.00">Core/Log/Log.hpp</text>
</a>
</g>
</g>
<!-- Node31&#45;&gt;Node32 -->
<g id="edge46" class="edge"><title>Node31&#45;&gt;Node32</title>
<path fill="none" stroke="midnightblue" d="M317.331,-378.372C281.189,-366.679 216.538,-345.762 176.084,-332.674"/>
<polygon fill="midnightblue" stroke="midnightblue" points="176.945,-329.274 166.353,-329.526 174.79,-335.934 176.945,-329.274"/>
</g>
<!-- Node32&#45;&gt;Node2 -->
<g id="edge47" class="edge"><title>Node32&#45;&gt;Node2</title>
<path fill="none" stroke="midnightblue" d="M140.644,-310.309C142.087,-294.688 146.497,-261.151 159,-236 176.554,-200.687 180.839,-185.857 216,-168 270.333,-140.406 680.739,-127.956 833.203,-124.248"/>
<polygon fill="midnightblue" stroke="midnightblue" points="833.383,-127.745 843.297,-124.007 833.216,-120.747 833.383,-127.745"/>
</g>
<!-- Node32&#45;&gt;Node7 -->
<g id="edge48" class="edge"><title>Node32&#45;&gt;Node7</title>
<path fill="none" stroke="midnightblue" d="M118.737,-310.446C79.5724,-293.122 0,-249.934 0,-185 0,-185 0,-185 0,-121 0,-56.3237 221.819,-24.7514 310.755,-14.692"/>
<polygon fill="midnightblue" stroke="midnightblue" points="311.363,-18.1463 320.919,-13.5711 310.595,-11.1885 311.363,-18.1463"/>
</g>
<!-- Node33 -->
<g id="node33" class="node"><title>Node33</title>
<polygon fill="white" stroke="#bfbfbf" points="66,-242.5 66,-261.5 112,-261.5 112,-242.5 66,-242.5"/>
<text text-anchor="middle" x="89" y="-249.5" font-family="Helvetica,sans-Serif" font-size="10.00">stdio.h</text>
</g>
<!-- Node32&#45;&gt;Node33 -->
<g id="edge49" class="edge"><title>Node32&#45;&gt;Node33</title>
<path fill="none" stroke="midnightblue" d="M133.333,-310.372C125.435,-300.151 112.092,-282.884 102.103,-269.957"/>
<polygon fill="midnightblue" stroke="midnightblue" points="104.716,-267.614 95.8318,-261.841 99.1768,-271.894 104.716,-267.614"/>
</g>
<!-- Node34 -->
<g id="node34" class="node"><title>Node34</title>
<polygon fill="white" stroke="#bfbfbf" points="225.5,-174.5 225.5,-193.5 266.5,-193.5 266.5,-174.5 225.5,-174.5"/>
<text text-anchor="middle" x="246" y="-181.5" font-family="Helvetica,sans-Serif" font-size="10.00">string</text>
</g>
<!-- Node32&#45;&gt;Node34 -->
<g id="edge50" class="edge"><title>Node32&#45;&gt;Node34</title>
<path fill="none" stroke="midnightblue" d="M113.067,-310.462C93.663,-302.736 68.8872,-289.256 57,-268 50.0582,-255.587 48.352,-247.291 57,-236 76.2048,-210.926 167.147,-195.378 215.538,-188.741"/>
<polygon fill="midnightblue" stroke="midnightblue" points="216.005,-192.209 225.457,-187.423 215.084,-185.27 216.005,-192.209"/>
</g>
<!-- Node35 -->
<g id="node35" class="node"><title>Node35</title>
<g id="a_node35"><a xlink:href="StringUtils_8hpp.html" target="_top" xlink:title="Core/String/StringUtils.hpp">
<polygon fill="white" stroke="black" points="228,-242.5 228,-261.5 362,-261.5 362,-242.5 228,-242.5"/>
<text text-anchor="middle" x="295" y="-249.5" font-family="Helvetica,sans-Serif" font-size="10.00">Core/String/StringUtils.hpp</text>
</a>
</g>
</g>
<!-- Node32&#45;&gt;Node35 -->
<g id="edge51" class="edge"><title>Node32&#45;&gt;Node35</title>
<path fill="none" stroke="midnightblue" d="M160.264,-310.372C187.068,-298.958 234.512,-278.756 265.35,-265.625"/>
<polygon fill="midnightblue" stroke="midnightblue" points="266.902,-268.768 274.731,-261.63 264.16,-262.328 266.902,-268.768"/>
</g>
<!-- Node36 -->
<g id="node36" class="node"><title>Node36</title>
<polygon fill="white" stroke="#bfbfbf" points="168.5,-242.5 168.5,-261.5 209.5,-261.5 209.5,-242.5 168.5,-242.5"/>
<text text-anchor="middle" x="189" y="-249.5" font-family="Helvetica,sans-Serif" font-size="10.00">ctime</text>
</g>
<!-- Node32&#45;&gt;Node36 -->
<g id="edge55" class="edge"><title>Node32&#45;&gt;Node36</title>
<path fill="none" stroke="midnightblue" d="M146.406,-310.372C153.994,-300.151 166.813,-282.884 176.411,-269.957"/>
<polygon fill="midnightblue" stroke="midnightblue" points="179.285,-271.957 182.436,-261.841 173.665,-267.784 179.285,-271.957"/>
</g>
<!-- Node35&#45;&gt;Node2 -->
<g id="edge52" class="edge"><title>Node35&#45;&gt;Node2</title>
<path fill="none" stroke="midnightblue" d="M300.386,-242.244C311.802,-224.573 340.337,-184.897 376,-168 455.66,-130.258 716.63,-123.951 833.049,-123.052"/>
<polygon fill="midnightblue" stroke="midnightblue" points="833.209,-126.551 843.186,-122.984 833.163,-119.551 833.209,-126.551"/>
</g>
<!-- Node35&#45;&gt;Node10 -->
<g id="edge54" class="edge"><title>Node35&#45;&gt;Node10</title>
<path fill="none" stroke="midnightblue" d="M351.942,-242.439C445.255,-228.41 627.742,-200.975 701.708,-189.855"/>
<polygon fill="midnightblue" stroke="midnightblue" points="702.441,-193.284 711.81,-188.336 701.401,-186.362 702.441,-193.284"/>
</g>
<!-- Node35&#45;&gt;Node34 -->
<g id="edge53" class="edge"><title>Node35&#45;&gt;Node34</title>
<path fill="none" stroke="midnightblue" d="M288.594,-242.372C281.006,-232.151 268.187,-214.884 258.589,-201.957"/>
<polygon fill="midnightblue" stroke="midnightblue" points="261.335,-199.784 252.564,-193.841 255.715,-203.957 261.335,-199.784"/>
</g>
<!-- Node37&#45;&gt;Node23 -->
<g id="edge58" class="edge"><title>Node37&#45;&gt;Node23</title>
<path fill="none" stroke="midnightblue" d="M646.897,-397.581C648.73,-406.04 649.203,-419.248 648.317,-430.16"/>
<polygon fill="midnightblue" stroke="midnightblue" points="644.803,-430.018 646.901,-440.403 651.737,-430.977 644.803,-430.018"/>
</g>
<!-- Node38&#45;&gt;Node1 -->
<g id="edge60" class="edge"><title>Node38&#45;&gt;Node1</title>
<path fill="none" stroke="midnightblue" d="M1251.8,-459.652C1234.26,-468.023 1204.7,-481.087 1177.68,-492.529"/>
<polygon fill="midnightblue" stroke="midnightblue" points="1176.11,-489.392 1168.25,-496.498 1178.82,-495.843 1176.11,-489.392"/>
</g>
<!-- Node39 -->
<g id="node39" class="node"><title>Node39</title>
<g id="a_node39"><a xlink:href="PointCloud_8hpp.html" target="_top" xlink:title="Core/Geometry/PointCloud\l/PointCloud.hpp">
<polygon fill="white" stroke="black" points="1483,-373 1483,-403 1617,-403 1617,-373 1483,-373"/>
<text text-anchor="start" x="1491" y="-391" font-family="Helvetica,sans-Serif" font-size="10.00">Core/Geometry/PointCloud</text>
<text text-anchor="middle" x="1550" y="-380" font-family="Helvetica,sans-Serif" font-size="10.00">/PointCloud.hpp</text>
</a>
</g>
</g>
<!-- Node38&#45;&gt;Node39 -->
<g id="edge61" class="edge"><title>Node38&#45;&gt;Node39</title>
<path fill="none" stroke="midnightblue" d="M1307.25,-440.467C1350.49,-431.299 1420.22,-416.515 1473.88,-405.139"/>
<polygon fill="midnightblue" stroke="midnightblue" points="1474.64,-408.555 1483.7,-403.057 1473.19,-401.707 1474.64,-408.555"/>
</g>
<!-- Node44 -->
<g id="node44" class="node"><title>Node44</title>
<g id="a_node44"><a xlink:href="TriangleOperation_8hpp.html" target="_top" xlink:title="Core/Geometry/Triangle\l/TriangleOperation.hpp">
<polygon fill="white" stroke="black" points="1146.5,-373 1146.5,-403 1267.5,-403 1267.5,-373 1146.5,-373"/>
<text text-anchor="start" x="1154.5" y="-391" font-family="Helvetica,sans-Serif" font-size="10.00">Core/Geometry/Triangle</text>
<text text-anchor="middle" x="1207" y="-380" font-family="Helvetica,sans-Serif" font-size="10.00">/TriangleOperation.hpp</text>
</a>
</g>
</g>
<!-- Node38&#45;&gt;Node44 -->
<g id="edge74" class="edge"><title>Node38&#45;&gt;Node44</title>
<path fill="none" stroke="midnightblue" d="M1258.4,-440.403C1250.58,-432.581 1238.71,-420.708 1228.34,-410.342"/>
<polygon fill="midnightblue" stroke="midnightblue" points="1230.69,-407.737 1221.14,-403.141 1225.74,-412.687 1230.69,-407.737"/>
</g>
<!-- Node45 -->
<g id="node45" class="node"><title>Node45</title>
<g id="a_node45"><a xlink:href="StdUtils_8hpp.html" target="_top" xlink:title="Core/Utils/StdUtils.hpp">
<polygon fill="white" stroke="black" points="1553,-242.5 1553,-261.5 1671,-261.5 1671,-242.5 1553,-242.5"/>
<text text-anchor="middle" x="1612" y="-249.5" font-family="Helvetica,sans-Serif" font-size="10.00">Core/Utils/StdUtils.hpp</text>
</a>
</g>
</g>
<!-- Node38&#45;&gt;Node45 -->
<g id="edge76" class="edge"><title>Node38&#45;&gt;Node45</title>
<path fill="none" stroke="midnightblue" d="M1297.29,-440.374C1319.63,-433.049 1350.01,-421 1373,-404 1419.67,-369.485 1408.93,-336.534 1457,-304 1486.21,-284.227 1523.68,-271.623 1554.46,-263.893"/>
<polygon fill="midnightblue" stroke="midnightblue" points="1555.29,-267.292 1564.2,-261.551 1553.66,-260.486 1555.29,-267.292"/>
</g>
<!-- Node46 -->
<g id="node46" class="node"><title>Node46</title>
<polygon fill="white" stroke="#bfbfbf" points="1286,-378.5 1286,-397.5 1364,-397.5 1364,-378.5 1286,-378.5"/>
<text text-anchor="middle" x="1325" y="-385.5" font-family="Helvetica,sans-Serif" font-size="10.00">unordered_set</text>
</g>
<!-- Node38&#45;&gt;Node46 -->
<g id="edge79" class="edge"><title>Node38&#45;&gt;Node46</title>
<path fill="none" stroke="midnightblue" d="M1275.31,-440.403C1284.27,-431.136 1298.72,-416.183 1309.74,-404.788"/>
<polygon fill="midnightblue" stroke="midnightblue" points="1312.27,-407.203 1316.71,-397.581 1307.24,-402.338 1312.27,-407.203"/>
</g>
<!-- Node39&#45;&gt;Node2 -->
<g id="edge62" class="edge"><title>Node39&#45;&gt;Node2</title>
<path fill="none" stroke="midnightblue" d="M1527.28,-372.776C1503.12,-355.901 1470.83,-327.141 1490,-304 1544.83,-237.811 1625.17,-334.189 1680,-268 1695.48,-249.309 1682.94,-181.285 1668,-168 1641.11,-144.087 1121.53,-128.839 946.784,-124.371"/>
<polygon fill="midnightblue" stroke="midnightblue" points="946.844,-120.871 936.758,-124.117 946.666,-127.869 946.844,-120.871"/>
</g>
<!-- Node39&#45;&gt;Node12 -->
<g id="edge65" class="edge"><title>Node39&#45;&gt;Node12</title>
<path fill="none" stroke="midnightblue" d="M1513.94,-372.913C1446.51,-346.571 1302.39,-290.267 1238.55,-265.327"/>
<polygon fill="midnightblue" stroke="midnightblue" points="1239.61,-261.982 1229.02,-261.603 1237.06,-268.502 1239.61,-261.982"/>
</g>
<!-- Node39&#45;&gt;Node18 -->
<g id="edge66" class="edge"><title>Node39&#45;&gt;Node18</title>
<path fill="none" stroke="midnightblue" d="M1617.21,-383.617C1700.75,-378.225 1837.3,-365.151 1878,-336 1923.62,-303.33 1945,-236.2 1953.02,-203.593"/>
<polygon fill="midnightblue" stroke="midnightblue" points="1956.49,-204.142 1955.32,-193.612 1949.67,-202.572 1956.49,-204.142"/>
</g>
<!-- Node39&#45;&gt;Node24 -->
<g id="edge64" class="edge"><title>Node39&#45;&gt;Node24</title>
<path fill="none" stroke="midnightblue" d="M1482.77,-381.209C1449.71,-378.385 1409.27,-374.966 1373,-372 1174.75,-355.786 942.247,-337.682 817.01,-328.004"/>
<polygon fill="midnightblue" stroke="midnightblue" points="816.946,-324.489 806.706,-327.208 816.406,-331.468 816.946,-324.489"/>
</g>
<!-- Node40 -->
<g id="node40" class="node"><title>Node40</title>
<polygon fill="white" stroke="#bfbfbf" points="1619,-310.5 1619,-329.5 1717,-329.5 1717,-310.5 1619,-310.5"/>
<text text-anchor="middle" x="1668" y="-317.5" font-family="Helvetica,sans-Serif" font-size="10.00">Eigen/Eigenvalues</text>
</g>
<!-- Node39&#45;&gt;Node40 -->
<g id="edge63" class="edge"><title>Node39&#45;&gt;Node40</title>
<path fill="none" stroke="midnightblue" d="M1575.31,-372.841C1595.54,-361.528 1623.71,-345.771 1643.68,-334.605"/>
<polygon fill="midnightblue" stroke="midnightblue" points="1645.46,-337.618 1652.48,-329.682 1642.04,-331.509 1645.46,-337.618"/>
</g>
<!-- Node41 -->
<g id="node41" class="node"><title>Node41</title>
<g id="a_node41"><a xlink:href="Obb_8hpp.html" target="_top" xlink:title="Core/Math/Obb.hpp">
<polygon fill="white" stroke="black" points="1499,-310.5 1499,-329.5 1601,-329.5 1601,-310.5 1499,-310.5"/>
<text text-anchor="middle" x="1550" y="-317.5" font-family="Helvetica,sans-Serif" font-size="10.00">Core/Math/Obb.hpp</text>
</a>
</g>
</g>
<!-- Node39&#45;&gt;Node41 -->
<g id="edge67" class="edge"><title>Node39&#45;&gt;Node41</title>
<path fill="none" stroke="midnightblue" d="M1550,-372.679C1550,-363.101 1550,-350.394 1550,-339.977"/>
<polygon fill="midnightblue" stroke="midnightblue" points="1553.5,-339.828 1550,-329.828 1546.5,-339.828 1553.5,-339.828"/>
</g>
<!-- Node43 -->
<g id="node43" class="node"><title>Node43</title>
<g id="a_node43"><a xlink:href="PointCloud_8inl.html" target="_top" xlink:title="Core/Geometry/PointCloud\l/PointCloud.inl">
<polygon fill="white" stroke="black" points="1735,-305 1735,-335 1869,-335 1869,-305 1735,-305"/>
<text text-anchor="start" x="1743" y="-323" font-family="Helvetica,sans-Serif" font-size="10.00">Core/Geometry/PointCloud</text>
<text text-anchor="middle" x="1802" y="-312" font-family="Helvetica,sans-Serif" font-size="10.00">/PointCloud.inl</text>
</a>
</g>
</g>
<!-- Node39&#45;&gt;Node43 -->
<g id="edge72" class="edge"><title>Node39&#45;&gt;Node43</title>
<path fill="none" stroke="midnightblue" d="M1598.1,-372.922C1636.3,-362.561 1690.11,-348.441 1732.9,-337.541"/>
<polygon fill="midnightblue" stroke="midnightblue" points="1733.86,-340.91 1742.69,-335.056 1732.13,-334.125 1733.86,-340.91"/>
</g>
<!-- Node41&#45;&gt;Node2 -->
<g id="edge68" class="edge"><title>Node41&#45;&gt;Node2</title>
<path fill="none" stroke="midnightblue" d="M1581.56,-310.487C1629.26,-297.477 1714.67,-273.565 1719,-268 1746.29,-232.898 1752.58,-200.279 1722,-168 1695.35,-139.865 1130.09,-127.297 946.814,-123.952"/>
<polygon fill="midnightblue" stroke="midnightblue" points="946.64,-120.448 936.579,-123.768 946.514,-127.447 946.64,-120.448"/>
</g>
<!-- Node41&#45;&gt;Node12 -->
<g id="edge69" class="edge"><title>Node41&#45;&gt;Node12</title>
<path fill="none" stroke="midnightblue" d="M1505.51,-310.439C1442.92,-298.396 1329,-276.475 1261.44,-263.475"/>
<polygon fill="midnightblue" stroke="midnightblue" points="1261.89,-259.998 1251.41,-261.546 1260.57,-266.872 1261.89,-259.998"/>
</g>
<!-- Node42 -->
<g id="node42" class="node"><title>Node42</title>
<g id="a_node42"><a xlink:href="Obb_8inl.html" target="_top" xlink:title="Core/Math/Obb.inl">
<polygon fill="white" stroke="black" points="1773,-242.5 1773,-261.5 1869,-261.5 1869,-242.5 1773,-242.5"/>
<text text-anchor="middle" x="1821" y="-249.5" font-family="Helvetica,sans-Serif" font-size="10.00">Core/Math/Obb.inl</text>
</a>
</g>
</g>
<!-- Node41&#45;&gt;Node42 -->
<g id="edge70" class="edge"><title>Node41&#45;&gt;Node42</title>
<path fill="none" stroke="midnightblue" d="M1575.23,-310.465C1583.45,-308.34 1592.55,-306.076 1601,-304 1667.16,-287.738 1683.78,-284.01 1750,-268 1755.52,-266.666 1761.31,-265.265 1767.12,-263.878"/>
<polygon fill="midnightblue" stroke="midnightblue" points="1767.94,-267.28 1776.87,-261.569 1766.33,-260.468 1767.94,-267.28"/>
</g>
<!-- Node42&#45;&gt;Node41 -->
<g id="edge71" class="edge"><title>Node42&#45;&gt;Node41</title>
<path fill="none" stroke="midnightblue" d="M1794.32,-261.569C1785.9,-263.672 1776.61,-265.918 1768,-268 1701.78,-284.01 1685.16,-287.738 1619,-304 1613.72,-305.297 1608.18,-306.668 1602.63,-308.033"/>
<polygon fill="midnightblue" stroke="midnightblue" points="1601.54,-304.695 1592.66,-310.465 1603.2,-311.496 1601.54,-304.695"/>
</g>
<!-- Node43&#45;&gt;Node39 -->
<g id="edge73" class="edge"><title>Node43&#45;&gt;Node39</title>
<path fill="none" stroke="midnightblue" d="M1753.98,-335.056C1715.8,-345.412 1661.99,-359.532 1619.19,-370.436"/>
<polygon fill="midnightblue" stroke="midnightblue" points="1618.23,-367.068 1609.4,-372.922 1619.95,-373.853 1618.23,-367.068"/>
</g>
<!-- Node44&#45;&gt;Node12 -->
<g id="edge75" class="edge"><title>Node44&#45;&gt;Node12</title>
<path fill="none" stroke="midnightblue" d="M1207,-372.66C1207,-348.32 1207,-298.933 1207,-271.837"/>
<polygon fill="midnightblue" stroke="midnightblue" points="1210.5,-271.727 1207,-261.728 1203.5,-271.728 1210.5,-271.727"/>
</g>
<!-- Node45&#45;&gt;Node2 -->
<g id="edge77" class="edge"><title>Node45&#45;&gt;Node2</title>
<path fill="none" stroke="midnightblue" d="M1621.58,-242.438C1638.73,-226.13 1670.98,-190.258 1650,-168 1625.94,-142.476 1119.17,-128.339 946.803,-124.255"/>
<polygon fill="midnightblue" stroke="midnightblue" points="946.744,-120.753 936.665,-124.018 946.58,-127.751 946.744,-120.753"/>
</g>
<!-- Node45&#45;&gt;Node16 -->
<g id="edge78" class="edge"><title>Node45&#45;&gt;Node16</title>
<path fill="none" stroke="midnightblue" d="M1612,-242.372C1612,-232.643 1612,-216.528 1612,-203.85"/>
<polygon fill="midnightblue" stroke="midnightblue" points="1615.5,-203.841 1612,-193.841 1608.5,-203.841 1615.5,-203.841"/>
</g>
</g>
</svg>
