<?xml version="1.0" encoding="UTF-8" standalone="no"?>
<!DOCTYPE svg PUBLIC "-//W3C//DTD SVG 1.1//EN"
 "http://www.w3.org/Graphics/SVG/1.1/DTD/svg11.dtd">
<!-- Generated by graphviz version 2.36.0 (20140111.2315)
 -->
<!-- Title: /home/travis/build/STORM&#45;IRIT/Radium&#45;Engine/src/Engine/Renderer/Mesh/Mesh.inl Pages: 1 -->
<svg width="1610pt" height="590pt"
 viewBox="0.00 0.00 1609.96 590.00" xmlns="http://www.w3.org/2000/svg" xmlns:xlink="http://www.w3.org/1999/xlink">
<g id="graph0" class="graph" transform="scale(1 1) rotate(0) translate(4 586)">
<title>/home/travis/build/STORM&#45;IRIT/Radium&#45;Engine/src/Engine/Renderer/Mesh/Mesh.inl</title>
<polygon fill="white" stroke="none" points="-4,4 -4,-586 1605.96,-586 1605.96,4 -4,4"/>
<!-- Node1 -->
<g id="node1" class="node"><title>Node1</title>
<polygon fill="#bfbfbf" stroke="black" points="1053.96,-529 1053.96,-581 1201.96,-581 1201.96,-529 1053.96,-529"/>
<text text-anchor="start" x="1061.96" y="-569" font-family="Helvetica,sans-Serif" font-size="10.00">/home/travis/build</text>
<text text-anchor="start" x="1061.96" y="-558" font-family="Helvetica,sans-Serif" font-size="10.00">/STORM&#45;IRIT/Radium&#45;Engine</text>
<text text-anchor="start" x="1061.96" y="-547" font-family="Helvetica,sans-Serif" font-size="10.00">/src/Engine/Renderer/Mesh</text>
<text text-anchor="middle" x="1127.96" y="-536" font-family="Helvetica,sans-Serif" font-size="10.00">/Mesh.inl</text>
</g>
<!-- Node2 -->
<g id="node2" class="node"><title>Node2</title>
<g id="a_node2"><a xlink:href="Engine_2Renderer_2Mesh_2Mesh_8hpp.html" target="_top" xlink:title="Mesh.hpp">
<polygon fill="white" stroke="black" points="1098.46,-472.5 1098.46,-491.5 1157.46,-491.5 1157.46,-472.5 1098.46,-472.5"/>
<text text-anchor="middle" x="1127.96" y="-479.5" font-family="Helvetica,sans-Serif" font-size="10.00">Mesh.hpp</text>
</a>
</g>
</g>
<!-- Node1&#45;&gt;Node2 -->
<g id="edge1" class="edge"><title>Node1&#45;&gt;Node2</title>
<path fill="none" stroke="midnightblue" d="M1121.47,-528.768C1121.01,-519.89 1121.16,-510.074 1121.92,-501.816"/>
<polygon fill="midnightblue" stroke="midnightblue" points="1125.41,-502.147 1123.33,-491.757 1118.48,-501.173 1125.41,-502.147"/>
</g>
<!-- Node2&#45;&gt;Node1 -->
<g id="edge59" class="edge"><title>Node2&#45;&gt;Node1</title>
<path fill="none" stroke="midnightblue" d="M1132.58,-491.757C1134,-498.585 1134.71,-508.551 1134.71,-518.516"/>
<polygon fill="midnightblue" stroke="midnightblue" points="1131.2,-518.683 1134.45,-528.768 1138.2,-518.859 1131.2,-518.683"/>
</g>
<!-- Node3 -->
<g id="node3" class="node"><title>Node3</title>
<g id="a_node3"><a xlink:href="RaEngine_8hpp.html" target="_top" xlink:title="Engine/RaEngine.hpp">
<polygon fill="white" stroke="black" points="60.4585,-360.5 60.4585,-379.5 171.459,-379.5 171.459,-360.5 60.4585,-360.5"/>
<text text-anchor="middle" x="115.959" y="-367.5" font-family="Helvetica,sans-Serif" font-size="10.00">Engine/RaEngine.hpp</text>
</a>
</g>
</g>
<!-- Node2&#45;&gt;Node3 -->
<g id="edge2" class="edge"><title>Node2&#45;&gt;Node3</title>
<path fill="none" stroke="midnightblue" d="M1098.22,-477.767C960.059,-462.75 379.266,-399.62 181.912,-378.169"/>
<polygon fill="midnightblue" stroke="midnightblue" points="182.011,-374.659 171.692,-377.058 181.255,-381.618 182.011,-374.659"/>
</g>
<!-- Node10 -->
<g id="node10" class="node"><title>Node10</title>
<polygon fill="white" stroke="#bfbfbf" points="1239.96,-416.5 1239.96,-435.5 1277.96,-435.5 1277.96,-416.5 1239.96,-416.5"/>
<text text-anchor="middle" x="1258.96" y="-423.5" font-family="Helvetica,sans-Serif" font-size="10.00">array</text>
</g>
<!-- Node2&#45;&gt;Node10 -->
<g id="edge9" class="edge"><title>Node2&#45;&gt;Node10</title>
<path fill="none" stroke="midnightblue" d="M1148.72,-472.444C1170.66,-463.4 1205.42,-449.068 1230.04,-438.92"/>
<polygon fill="midnightblue" stroke="midnightblue" points="1231.67,-442.035 1239.58,-434.988 1229,-435.564 1231.67,-442.035"/>
</g>
<!-- Node11 -->
<g id="node11" class="node"><title>Node11</title>
<polygon fill="white" stroke="#bfbfbf" points="1296.46,-416.5 1296.46,-435.5 1331.46,-435.5 1331.46,-416.5 1296.46,-416.5"/>
<text text-anchor="middle" x="1313.96" y="-423.5" font-family="Helvetica,sans-Serif" font-size="10.00">map</text>
</g>
<!-- Node2&#45;&gt;Node11 -->
<g id="edge10" class="edge"><title>Node2&#45;&gt;Node11</title>
<path fill="none" stroke="midnightblue" d="M1157.68,-473.028C1187.77,-464.86 1235.86,-451.544 1286.47,-436.046"/>
<polygon fill="midnightblue" stroke="midnightblue" points="1287.75,-439.312 1296.28,-433.023 1285.69,-432.623 1287.75,-439.312"/>
</g>
<!-- Node12 -->
<g id="node12" class="node"><title>Node12</title>
<polygon fill="white" stroke="#bfbfbf" points="1308.96,-174.5 1308.96,-193.5 1352.96,-193.5 1352.96,-174.5 1308.96,-174.5"/>
<text text-anchor="middle" x="1330.96" y="-181.5" font-family="Helvetica,sans-Serif" font-size="10.00">vector</text>
</g>
<!-- Node2&#45;&gt;Node12 -->
<g id="edge11" class="edge"><title>Node2&#45;&gt;Node12</title>
<path fill="none" stroke="midnightblue" d="M1141.08,-472.463C1164.71,-455.943 1211.96,-417.135 1211.96,-371 1211.96,-371 1211.96,-371 1211.96,-313 1211.96,-277.751 1209.05,-263.617 1230.96,-236 1248.08,-214.417 1276.78,-201.12 1299.05,-193.538"/>
<polygon fill="midnightblue" stroke="midnightblue" points="1300.3,-196.814 1308.77,-190.448 1298.18,-190.143 1300.3,-196.814"/>
</g>
<!-- Node13 -->
<g id="node13" class="node"><title>Node13</title>
<g id="a_node13"><a xlink:href="VectorArray_8hpp.html" target="_top" xlink:title="Core/Containers/VectorArray.hpp">
<polygon fill="white" stroke="black" points="963.459,-304.5 963.459,-323.5 1124.46,-323.5 1124.46,-304.5 963.459,-304.5"/>
<text text-anchor="middle" x="1043.96" y="-311.5" font-family="Helvetica,sans-Serif" font-size="10.00">Core/Containers/VectorArray.hpp</text>
</a>
</g>
</g>
<!-- Node2&#45;&gt;Node13 -->
<g id="edge12" class="edge"><title>Node2&#45;&gt;Node13</title>
<path fill="none" stroke="midnightblue" d="M1121.12,-472.312C1108.13,-455.426 1079.67,-416.613 1062.96,-380 1056.09,-364.959 1051.04,-346.829 1047.88,-333.542"/>
<polygon fill="midnightblue" stroke="midnightblue" points="1051.27,-332.685 1045.66,-323.694 1044.44,-334.218 1051.27,-332.685"/>
</g>
<!-- Node28 -->
<g id="node28" class="node"><title>Node28</title>
<g id="a_node28"><a xlink:href="TriangleMesh_8hpp.html" target="_top" xlink:title="Core/Mesh/TriangleMesh.hpp">
<polygon fill="white" stroke="black" points="835.459,-416.5 835.459,-435.5 980.459,-435.5 980.459,-416.5 835.459,-416.5"/>
<text text-anchor="middle" x="907.959" y="-423.5" font-family="Helvetica,sans-Serif" font-size="10.00">Core/Mesh/TriangleMesh.hpp</text>
</a>
</g>
</g>
<!-- Node2&#45;&gt;Node28 -->
<g id="edge34" class="edge"><title>Node2&#45;&gt;Node28</title>
<path fill="none" stroke="midnightblue" d="M1098.29,-473.717C1060.86,-464.53 996.141,-448.645 952.697,-437.981"/>
<polygon fill="midnightblue" stroke="midnightblue" points="953.501,-434.575 942.955,-435.59 951.832,-441.373 953.501,-434.575"/>
</g>
<!-- Node4 -->
<g id="node4" class="node"><title>Node4</title>
<g id="a_node4"><a xlink:href="CoreMacros_8hpp.html" target="_top" xlink:title="Core/CoreMacros.hpp">
<polygon fill="white" stroke="black" points="1186.46,-56.5 1186.46,-75.5 1299.46,-75.5 1299.46,-56.5 1186.46,-56.5"/>
<text text-anchor="middle" x="1242.96" y="-63.5" font-family="Helvetica,sans-Serif" font-size="10.00">Core/CoreMacros.hpp</text>
</a>
</g>
</g>
<!-- Node3&#45;&gt;Node4 -->
<g id="edge3" class="edge"><title>Node3&#45;&gt;Node4</title>
<path fill="none" stroke="midnightblue" d="M100.334,-360.447C72.2085,-343.776 15.9585,-304.051 15.9585,-253 15.9585,-253 15.9585,-253 15.9585,-183 15.9585,-150.526 -68.6481,-166.35 155.959,-112 254.672,-88.1135 954.826,-72.5993 1176.1,-68.2505"/>
<polygon fill="midnightblue" stroke="midnightblue" points="1176.34,-71.7465 1186.27,-68.0518 1176.21,-64.7479 1176.34,-71.7465"/>
</g>
<!-- Node5 -->
<g id="node5" class="node"><title>Node5</title>
<polygon fill="white" stroke="#bfbfbf" points="1317.46,-0.5 1317.46,-19.5 1366.46,-19.5 1366.46,-0.5 1317.46,-0.5"/>
<text text-anchor="middle" x="1341.96" y="-7.5" font-family="Helvetica,sans-Serif" font-size="10.00">cassert</text>
</g>
<!-- Node4&#45;&gt;Node5 -->
<g id="edge4" class="edge"><title>Node4&#45;&gt;Node5</title>
<path fill="none" stroke="midnightblue" d="M1258.86,-56.324C1274.6,-47.7428 1298.9,-34.486 1317.17,-24.5224"/>
<polygon fill="midnightblue" stroke="midnightblue" points="1318.99,-27.5157 1326.09,-19.6545 1315.64,-21.3704 1318.99,-27.5157"/>
</g>
<!-- Node6 -->
<g id="node6" class="node"><title>Node6</title>
<polygon fill="white" stroke="#bfbfbf" points="1121.46,-0.5 1121.46,-19.5 1164.46,-19.5 1164.46,-0.5 1121.46,-0.5"/>
<text text-anchor="middle" x="1142.96" y="-7.5" font-family="Helvetica,sans-Serif" font-size="10.00">cstdio</text>
</g>
<!-- Node4&#45;&gt;Node6 -->
<g id="edge5" class="edge"><title>Node4&#45;&gt;Node6</title>
<path fill="none" stroke="midnightblue" d="M1226.89,-56.324C1211,-47.7428 1186.45,-34.486 1168,-24.5224"/>
<polygon fill="midnightblue" stroke="midnightblue" points="1169.45,-21.3264 1158.99,-19.6545 1166.12,-27.4857 1169.45,-21.3264"/>
</g>
<!-- Node7 -->
<g id="node7" class="node"><title>Node7</title>
<polygon fill="white" stroke="#bfbfbf" points="1182.96,-0.5 1182.96,-19.5 1236.96,-19.5 1236.96,-0.5 1182.96,-0.5"/>
<text text-anchor="middle" x="1209.96" y="-7.5" font-family="Helvetica,sans-Serif" font-size="10.00">iostream</text>
</g>
<!-- Node4&#45;&gt;Node7 -->
<g id="edge6" class="edge"><title>Node4&#45;&gt;Node7</title>
<path fill="none" stroke="midnightblue" d="M1237.51,-56.083C1232.94,-48.6127 1226.29,-37.7244 1220.67,-28.5199"/>
<polygon fill="midnightblue" stroke="midnightblue" points="1223.51,-26.4588 1215.31,-19.7511 1217.53,-30.109 1223.51,-26.4588"/>
</g>
<!-- Node8 -->
<g id="node8" class="node"><title>Node8</title>
<polygon fill="white" stroke="#bfbfbf" points="1463.96,-0.5 1463.96,-19.5 1515.96,-19.5 1515.96,-0.5 1463.96,-0.5"/>
<text text-anchor="middle" x="1489.96" y="-7.5" font-family="Helvetica,sans-Serif" font-size="10.00">sstream</text>
</g>
<!-- Node4&#45;&gt;Node8 -->
<g id="edge7" class="edge"><title>Node4&#45;&gt;Node8</title>
<path fill="none" stroke="midnightblue" d="M1282.1,-56.4435C1329.39,-46.1031 1408.31,-28.8492 1454.09,-18.8407"/>
<polygon fill="midnightblue" stroke="midnightblue" points="1454.86,-22.2554 1463.88,-16.7003 1453.37,-15.417 1454.86,-22.2554"/>
</g>
<!-- Node9 -->
<g id="node9" class="node"><title>Node9</title>
<polygon fill="white" stroke="#bfbfbf" points="1254.96,-0.5 1254.96,-19.5 1298.96,-19.5 1298.96,-0.5 1254.96,-0.5"/>
<text text-anchor="middle" x="1276.96" y="-7.5" font-family="Helvetica,sans-Serif" font-size="10.00">thread</text>
</g>
<!-- Node4&#45;&gt;Node9 -->
<g id="edge8" class="edge"><title>Node4&#45;&gt;Node9</title>
<path fill="none" stroke="midnightblue" d="M1248.57,-56.083C1253.33,-48.5341 1260.28,-37.4948 1266.11,-28.2298"/>
<polygon fill="midnightblue" stroke="midnightblue" points="1269.08,-30.0783 1271.45,-19.7511 1263.16,-26.3486 1269.08,-30.0783"/>
</g>
<!-- Node13&#45;&gt;Node12 -->
<g id="edge33" class="edge"><title>Node13&#45;&gt;Node12</title>
<path fill="none" stroke="midnightblue" d="M1067.7,-304.384C1089.58,-296.106 1122.69,-282.713 1149.96,-268 1172.52,-255.826 1175.12,-247.65 1197.96,-236 1238.92,-215.105 1252.17,-216.846 1294.96,-200 1297.06,-199.174 1299.22,-198.308 1301.39,-197.428"/>
<polygon fill="midnightblue" stroke="midnightblue" points="1302.91,-200.588 1310.83,-193.55 1300.25,-194.113 1302.91,-200.588"/>
</g>
<!-- Node14 -->
<g id="node14" class="node"><title>Node14</title>
<g id="a_node14"><a xlink:href="AlignedStdVector_8hpp.html" target="_top" xlink:title="Core/Containers/AlignedStd\lVector.hpp">
<polygon fill="white" stroke="black" points="969.959,-237 969.959,-267 1107.96,-267 1107.96,-237 969.959,-237"/>
<text text-anchor="start" x="977.959" y="-255" font-family="Helvetica,sans-Serif" font-size="10.00">Core/Containers/AlignedStd</text>
<text text-anchor="middle" x="1038.96" y="-244" font-family="Helvetica,sans-Serif" font-size="10.00">Vector.hpp</text>
</a>
</g>
</g>
<!-- Node13&#45;&gt;Node14 -->
<g id="edge13" class="edge"><title>Node13&#45;&gt;Node14</title>
<path fill="none" stroke="midnightblue" d="M1043.24,-304.403C1042.65,-297.341 1041.79,-286.975 1040.99,-277.399"/>
<polygon fill="midnightblue" stroke="midnightblue" points="1044.46,-276.816 1040.14,-267.141 1037.48,-277.397 1044.46,-276.816"/>
</g>
<!-- Node15 -->
<g id="node15" class="node"><title>Node15</title>
<g id="a_node15"><a xlink:href="RaCore_8hpp.html" target="_top" xlink:title="Core/RaCore.hpp">
<polygon fill="white" stroke="black" points="1196.46,-112.5 1196.46,-131.5 1289.46,-131.5 1289.46,-112.5 1196.46,-112.5"/>
<text text-anchor="middle" x="1242.96" y="-119.5" font-family="Helvetica,sans-Serif" font-size="10.00">Core/RaCore.hpp</text>
</a>
</g>
</g>
<!-- Node13&#45;&gt;Node15 -->
<g id="edge32" class="edge"><title>Node13&#45;&gt;Node15</title>
<path fill="none" stroke="midnightblue" d="M1059.99,-304.455C1075.23,-296.027 1098.51,-282.354 1116.96,-268 1133.08,-255.454 1132.7,-246.928 1149.96,-236 1188.46,-211.626 1220,-237.454 1245.96,-200 1257.84,-182.862 1254.14,-158.051 1249.43,-141.262"/>
<polygon fill="midnightblue" stroke="midnightblue" points="1252.71,-140.019 1246.34,-131.549 1246.04,-142.139 1252.71,-140.019"/>
</g>
<!-- Node17 -->
<g id="node17" class="node"><title>Node17</title>
<g id="a_node17"><a xlink:href="LinearAlgebra_8hpp.html" target="_top" xlink:title="Core/Math/LinearAlgebra.hpp">
<polygon fill="white" stroke="black" points="738.459,-242.5 738.459,-261.5 881.459,-261.5 881.459,-242.5 738.459,-242.5"/>
<text text-anchor="middle" x="809.959" y="-249.5" font-family="Helvetica,sans-Serif" font-size="10.00">Core/Math/LinearAlgebra.hpp</text>
</a>
</g>
</g>
<!-- Node13&#45;&gt;Node17 -->
<g id="edge18" class="edge"><title>Node13&#45;&gt;Node17</title>
<path fill="none" stroke="midnightblue" d="M1010.43,-304.403C969.076,-293.799 898.688,-275.751 853.275,-264.107"/>
<polygon fill="midnightblue" stroke="midnightblue" points="853.979,-260.674 843.423,-261.581 852.24,-267.455 853.979,-260.674"/>
</g>
<!-- Node14&#45;&gt;Node12 -->
<g id="edge17" class="edge"><title>Node14&#45;&gt;Node12</title>
<path fill="none" stroke="midnightblue" d="M1101.24,-236.922C1161.82,-223.231 1251.43,-202.976 1298.84,-192.261"/>
<polygon fill="midnightblue" stroke="midnightblue" points="1299.85,-195.619 1308.84,-190 1298.31,-188.791 1299.85,-195.619"/>
</g>
<!-- Node14&#45;&gt;Node15 -->
<g id="edge14" class="edge"><title>Node14&#45;&gt;Node15</title>
<path fill="none" stroke="midnightblue" d="M1101.51,-236.917C1151.33,-225.168 1214.15,-208.95 1222.96,-200 1238.14,-184.574 1242.23,-159.188 1243.12,-141.811"/>
<polygon fill="midnightblue" stroke="midnightblue" points="1246.62,-141.804 1243.32,-131.734 1239.62,-141.66 1246.62,-141.804"/>
</g>
<!-- Node16 -->
<g id="node16" class="node"><title>Node16</title>
<polygon fill="white" stroke="#bfbfbf" points="1126.96,-174.5 1126.96,-193.5 1214.96,-193.5 1214.96,-174.5 1126.96,-174.5"/>
<text text-anchor="middle" x="1170.96" y="-181.5" font-family="Helvetica,sans-Serif" font-size="10.00">Eigen/StdVector</text>
</g>
<!-- Node14&#45;&gt;Node16 -->
<g id="edge16" class="edge"><title>Node14&#45;&gt;Node16</title>
<path fill="none" stroke="midnightblue" d="M1067.28,-236.841C1090.11,-225.425 1121.99,-209.485 1144.35,-198.303"/>
<polygon fill="midnightblue" stroke="midnightblue" points="1146.22,-201.285 1153.59,-193.682 1143.09,-195.024 1146.22,-201.285"/>
</g>
<!-- Node15&#45;&gt;Node4 -->
<g id="edge15" class="edge"><title>Node15&#45;&gt;Node4</title>
<path fill="none" stroke="midnightblue" d="M1242.96,-112.083C1242.96,-105.006 1242.96,-94.8611 1242.96,-85.9865"/>
<polygon fill="midnightblue" stroke="midnightblue" points="1246.46,-85.751 1242.96,-75.7511 1239.46,-85.7511 1246.46,-85.751"/>
</g>
<!-- Node17&#45;&gt;Node15 -->
<g id="edge19" class="edge"><title>Node17&#45;&gt;Node15</title>
<path fill="none" stroke="midnightblue" d="M881.739,-247.093C937.705,-241.799 1016.2,-229.336 1078.96,-200 1099.27,-190.506 1098.46,-179.069 1117.96,-168 1143.7,-153.388 1175.04,-142.118 1199.9,-134.511"/>
<polygon fill="midnightblue" stroke="midnightblue" points="1201.19,-137.78 1209.78,-131.577 1199.19,-131.07 1201.19,-137.78"/>
</g>
<!-- Node18 -->
<g id="node18" class="node"><title>Node18</title>
<polygon fill="white" stroke="#bfbfbf" points="730.459,-174.5 730.459,-193.5 795.459,-193.5 795.459,-174.5 730.459,-174.5"/>
<text text-anchor="middle" x="762.959" y="-181.5" font-family="Helvetica,sans-Serif" font-size="10.00">Eigen/Core</text>
</g>
<!-- Node17&#45;&gt;Node18 -->
<g id="edge20" class="edge"><title>Node17&#45;&gt;Node18</title>
<path fill="none" stroke="midnightblue" d="M803.814,-242.372C796.606,-232.25 784.476,-215.215 775.3,-202.331"/>
<polygon fill="midnightblue" stroke="midnightblue" points="777.906,-199.957 769.254,-193.841 772.204,-204.017 777.906,-199.957"/>
</g>
<!-- Node19 -->
<g id="node19" class="node"><title>Node19</title>
<polygon fill="white" stroke="#bfbfbf" points="813.459,-174.5 813.459,-193.5 900.459,-193.5 900.459,-174.5 813.459,-174.5"/>
<text text-anchor="middle" x="856.959" y="-181.5" font-family="Helvetica,sans-Serif" font-size="10.00">Eigen/Geometry</text>
</g>
<!-- Node17&#45;&gt;Node19 -->
<g id="edge21" class="edge"><title>Node17&#45;&gt;Node19</title>
<path fill="none" stroke="midnightblue" d="M816.103,-242.372C823.311,-232.25 835.441,-215.215 844.617,-202.331"/>
<polygon fill="midnightblue" stroke="midnightblue" points="847.713,-204.017 850.663,-193.841 842.011,-199.957 847.713,-204.017"/>
</g>
<!-- Node20 -->
<g id="node20" class="node"><title>Node20</title>
<polygon fill="white" stroke="#bfbfbf" points="918.459,-174.5 918.459,-193.5 993.459,-193.5 993.459,-174.5 918.459,-174.5"/>
<text text-anchor="middle" x="955.959" y="-181.5" font-family="Helvetica,sans-Serif" font-size="10.00">Eigen/Sparse</text>
</g>
<!-- Node17&#45;&gt;Node20 -->
<g id="edge22" class="edge"><title>Node17&#45;&gt;Node20</title>
<path fill="none" stroke="midnightblue" d="M829.045,-242.372C854.184,-231.007 898.596,-210.931 927.652,-197.796"/>
<polygon fill="midnightblue" stroke="midnightblue" points="929.196,-200.939 936.867,-193.63 926.313,-194.56 929.196,-200.939"/>
</g>
<!-- Node21 -->
<g id="node21" class="node"><title>Node21</title>
<polygon fill="white" stroke="#bfbfbf" points="1011.46,-174.5 1011.46,-193.5 1070.46,-193.5 1070.46,-174.5 1011.46,-174.5"/>
<text text-anchor="middle" x="1040.96" y="-181.5" font-family="Helvetica,sans-Serif" font-size="10.00">functional</text>
</g>
<!-- Node17&#45;&gt;Node21 -->
<g id="edge23" class="edge"><title>Node17&#45;&gt;Node21</title>
<path fill="none" stroke="midnightblue" d="M846.75,-242.475C885.651,-233.171 948.643,-217.278 1001.96,-200 1004.74,-199.098 1007.61,-198.109 1010.48,-197.081"/>
<polygon fill="midnightblue" stroke="midnightblue" points="1011.91,-200.285 1020.06,-193.514 1009.46,-193.725 1011.91,-200.285"/>
</g>
<!-- Node22 -->
<g id="node22" class="node"><title>Node22</title>
<polygon fill="white" stroke="#bfbfbf" points="424.459,-169 424.459,-199 557.459,-199 557.459,-169 424.459,-169"/>
<text text-anchor="start" x="432.459" y="-187" font-family="Helvetica,sans-Serif" font-size="10.00">unsupported/Eigen/Aligned</text>
<text text-anchor="middle" x="490.959" y="-176" font-family="Helvetica,sans-Serif" font-size="10.00">Vector3</text>
</g>
<!-- Node17&#45;&gt;Node22 -->
<g id="edge24" class="edge"><title>Node17&#45;&gt;Node22</title>
<path fill="none" stroke="midnightblue" d="M768.582,-242.439C717.775,-231.928 630.59,-213.889 567.456,-200.827"/>
<polygon fill="midnightblue" stroke="midnightblue" points="568.041,-197.374 557.539,-198.775 566.622,-204.229 568.041,-197.374"/>
</g>
<!-- Node23 -->
<g id="node23" class="node"><title>Node23</title>
<g id="a_node23"><a xlink:href="Math_8hpp.html" target="_top" xlink:title="Core/Math/Math.hpp">
<polygon fill="white" stroke="black" points="223.959,-174.5 223.959,-193.5 329.959,-193.5 329.959,-174.5 223.959,-174.5"/>
<text text-anchor="middle" x="276.959" y="-181.5" font-family="Helvetica,sans-Serif" font-size="10.00">Core/Math/Math.hpp</text>
</a>
</g>
</g>
<!-- Node17&#45;&gt;Node23 -->
<g id="edge25" class="edge"><title>Node17&#45;&gt;Node23</title>
<path fill="none" stroke="midnightblue" d="M741.097,-242.473C636.893,-229.57 440.652,-205.27 340.001,-192.806"/>
<polygon fill="midnightblue" stroke="midnightblue" points="340.331,-189.321 329.976,-191.565 339.47,-196.268 340.331,-189.321"/>
</g>
<!-- Node27 -->
<g id="node27" class="node"><title>Node27</title>
<g id="a_node27"><a xlink:href="LinearAlgebra_8inl.html" target="_top" xlink:title="Core/Math/LinearAlgebra.inl">
<polygon fill="white" stroke="black" points="575.459,-174.5 575.459,-193.5 712.459,-193.5 712.459,-174.5 575.459,-174.5"/>
<text text-anchor="middle" x="643.959" y="-181.5" font-family="Helvetica,sans-Serif" font-size="10.00">Core/Math/LinearAlgebra.inl</text>
</a>
</g>
</g>
<!-- Node17&#45;&gt;Node27 -->
<g id="edge31" class="edge"><title>Node17&#45;&gt;Node27</title>
<path fill="none" stroke="midnightblue" d="M788.257,-242.372C759.346,-230.877 708.016,-210.469 675.012,-197.346"/>
<polygon fill="midnightblue" stroke="midnightblue" points="675.988,-193.968 665.402,-193.526 673.402,-200.473 675.988,-193.968"/>
</g>
<!-- Node23&#45;&gt;Node15 -->
<g id="edge26" class="edge"><title>Node23&#45;&gt;Node15</title>
<path fill="none" stroke="midnightblue" d="M309.812,-174.474C320.618,-171.985 332.738,-169.526 343.959,-168 660.066,-125.022 1043.69,-121.973 1186.15,-122.501"/>
<polygon fill="midnightblue" stroke="midnightblue" points="1186.37,-126.002 1196.38,-122.547 1186.4,-119.002 1186.37,-126.002"/>
</g>
<!-- Node24 -->
<g id="node24" class="node"><title>Node24</title>
<polygon fill="white" stroke="#bfbfbf" points="344.959,-112.5 344.959,-131.5 400.959,-131.5 400.959,-112.5 344.959,-112.5"/>
<text text-anchor="middle" x="372.959" y="-119.5" font-family="Helvetica,sans-Serif" font-size="10.00">algorithm</text>
</g>
<!-- Node23&#45;&gt;Node24 -->
<g id="edge27" class="edge"><title>Node23&#45;&gt;Node24</title>
<path fill="none" stroke="midnightblue" d="M290.713,-174.403C306.325,-164.646 332.022,-148.585 350.541,-137.011"/>
<polygon fill="midnightblue" stroke="midnightblue" points="352.605,-139.849 359.23,-131.581 348.895,-133.913 352.605,-139.849"/>
</g>
<!-- Node25 -->
<g id="node25" class="node"><title>Node25</title>
<polygon fill="white" stroke="#bfbfbf" points="164.959,-112.5 164.959,-131.5 208.959,-131.5 208.959,-112.5 164.959,-112.5"/>
<text text-anchor="middle" x="186.959" y="-119.5" font-family="Helvetica,sans-Serif" font-size="10.00">cmath</text>
</g>
<!-- Node23&#45;&gt;Node25 -->
<g id="edge28" class="edge"><title>Node23&#45;&gt;Node25</title>
<path fill="none" stroke="midnightblue" d="M264.064,-174.403C249.494,-164.691 225.556,-148.732 208.213,-137.17"/>
<polygon fill="midnightblue" stroke="midnightblue" points="210.091,-134.215 199.829,-131.581 206.208,-140.04 210.091,-134.215"/>
</g>
<!-- Node26 -->
<g id="node26" class="node"><title>Node26</title>
<g id="a_node26"><a xlink:href="Math_8inl.html" target="_top" xlink:title="Core/Math/Math.inl">
<polygon fill="white" stroke="black" points="226.959,-112.5 226.959,-131.5 326.959,-131.5 326.959,-112.5 226.959,-112.5"/>
<text text-anchor="middle" x="276.959" y="-119.5" font-family="Helvetica,sans-Serif" font-size="10.00">Core/Math/Math.inl</text>
</a>
</g>
</g>
<!-- Node23&#45;&gt;Node26 -->
<g id="edge29" class="edge"><title>Node23&#45;&gt;Node26</title>
<path fill="none" stroke="midnightblue" d="M272.058,-174.403C270.227,-165.938 269.756,-152.728 270.644,-141.82"/>
<polygon fill="midnightblue" stroke="midnightblue" points="274.157,-141.966 272.061,-131.581 267.223,-141.006 274.157,-141.966"/>
</g>
<!-- Node26&#45;&gt;Node23 -->
<g id="edge30" class="edge"><title>Node26&#45;&gt;Node23</title>
<path fill="none" stroke="midnightblue" d="M281.856,-131.581C283.688,-140.04 284.161,-153.248 283.275,-164.16"/>
<polygon fill="midnightblue" stroke="midnightblue" points="279.761,-164.018 281.859,-174.403 286.695,-164.977 279.761,-164.018"/>
</g>
<!-- Node28&#45;&gt;Node13 -->
<g id="edge35" class="edge"><title>Node28&#45;&gt;Node13</title>
<path fill="none" stroke="midnightblue" d="M926.343,-416.496C942.847,-408.389 967.28,-395.19 985.959,-380 1003.48,-365.754 1020.29,-346.017 1031.26,-332.039"/>
<polygon fill="midnightblue" stroke="midnightblue" points="1034.27,-333.866 1037.57,-323.8 1028.71,-329.608 1034.27,-333.866"/>
</g>
<!-- Node28&#45;&gt;Node15 -->
<g id="edge43" class="edge"><title>Node28&#45;&gt;Node15</title>
<path fill="none" stroke="midnightblue" d="M835.416,-424.358C694.173,-421.135 395.959,-403.815 395.959,-315 395.959,-315 395.959,-315 395.959,-251 395.959,-213.157 386.015,-192.38 414.959,-168 444.425,-143.18 1003.71,-128.401 1186.03,-124.227"/>
<polygon fill="midnightblue" stroke="midnightblue" points="1186.3,-127.722 1196.21,-123.996 1186.14,-120.724 1186.3,-127.722"/>
</g>
<!-- Node28&#45;&gt;Node17 -->
<g id="edge36" class="edge"><title>Node28&#45;&gt;Node17</title>
<path fill="none" stroke="midnightblue" d="M880.542,-416.433C862.948,-409.472 841.182,-397.838 828.959,-380 806.454,-347.159 806.101,-298.339 807.946,-271.812"/>
<polygon fill="midnightblue" stroke="midnightblue" points="811.452,-271.893 808.844,-261.624 804.479,-271.278 811.452,-271.893"/>
</g>
<!-- Node29 -->
<g id="node29" class="node"><title>Node29</title>
<g id="a_node29"><a xlink:href="MeshTypes_8hpp.html" target="_top" xlink:title="Core/Mesh/MeshTypes.hpp">
<polygon fill="white" stroke="black" points="230.459,-304.5 230.459,-323.5 367.459,-323.5 367.459,-304.5 230.459,-304.5"/>
<text text-anchor="middle" x="298.959" y="-311.5" font-family="Helvetica,sans-Serif" font-size="10.00">Core/Mesh/MeshTypes.hpp</text>
</a>
</g>
</g>
<!-- Node28&#45;&gt;Node29 -->
<g id="edge37" class="edge"><title>Node28&#45;&gt;Node29</title>
<path fill="none" stroke="midnightblue" d="M835.292,-423.883C710.848,-421.127 462.556,-411.712 381.959,-380 354.692,-369.272 329.069,-346.541 313.697,-331.016"/>
<polygon fill="midnightblue" stroke="midnightblue" points="316.086,-328.45 306.638,-323.655 311.034,-333.296 316.086,-328.45"/>
</g>
<!-- Node33 -->
<g id="node33" class="node"><title>Node33</title>
<g id="a_node33"><a xlink:href="Attribs_8hpp.html" target="_top" xlink:title="Core/Utils/Attribs.hpp">
<polygon fill="white" stroke="black" points="1072.46,-360.5 1072.46,-379.5 1183.46,-379.5 1183.46,-360.5 1072.46,-360.5"/>
<text text-anchor="middle" x="1127.96" y="-367.5" font-family="Helvetica,sans-Serif" font-size="10.00">Core/Utils/Attribs.hpp</text>
</a>
</g>
</g>
<!-- Node28&#45;&gt;Node33 -->
<g id="edge44" class="edge"><title>Node28&#45;&gt;Node33</title>
<path fill="none" stroke="midnightblue" d="M942.818,-416.444C980.875,-407.102 1041.92,-392.119 1083.42,-381.933"/>
<polygon fill="midnightblue" stroke="midnightblue" points="1084.38,-385.299 1093.26,-379.516 1082.72,-378.501 1084.38,-385.299"/>
</g>
<!-- Node39 -->
<g id="node39" class="node"><title>Node39</title>
<g id="a_node39"><a xlink:href="TriangleMesh_8inl.html" target="_top" xlink:title="Core/Mesh/TriangleMesh.inl">
<polygon fill="white" stroke="black" points="838.459,-360.5 838.459,-379.5 977.459,-379.5 977.459,-360.5 838.459,-360.5"/>
<text text-anchor="middle" x="907.959" y="-367.5" font-family="Helvetica,sans-Serif" font-size="10.00">Core/Mesh/TriangleMesh.inl</text>
</a>
</g>
</g>
<!-- Node28&#45;&gt;Node39 -->
<g id="edge57" class="edge"><title>Node28&#45;&gt;Node39</title>
<path fill="none" stroke="midnightblue" d="M902.792,-416.083C901.283,-408.927 900.852,-398.635 901.501,-389.691"/>
<polygon fill="midnightblue" stroke="midnightblue" points="904.974,-390.126 902.828,-379.751 898.035,-389.2 904.974,-390.126"/>
</g>
<!-- Node29&#45;&gt;Node15 -->
<g id="edge42" class="edge"><title>Node29&#45;&gt;Node15</title>
<path fill="none" stroke="midnightblue" d="M300.83,-304.478C307.034,-278.516 329.585,-200.223 381.959,-168 450.115,-126.066 1005.21,-122.79 1186.16,-122.848"/>
<polygon fill="midnightblue" stroke="midnightblue" points="1186.27,-126.348 1196.27,-122.854 1186.27,-119.348 1186.27,-126.348"/>
</g>
<!-- Node29&#45;&gt;Node17 -->
<g id="edge41" class="edge"><title>Node29&#45;&gt;Node17</title>
<path fill="none" stroke="midnightblue" d="M367.609,-304.939C461.16,-293.955 628.444,-274.313 728.314,-262.586"/>
<polygon fill="midnightblue" stroke="midnightblue" points="728.836,-266.049 738.359,-261.407 728.019,-259.097 728.836,-266.049"/>
</g>
<!-- Node30 -->
<g id="node30" class="node"><title>Node30</title>
<g id="a_node30"><a xlink:href="Index_8hpp.html" target="_top" xlink:title="Core/Index/Index.hpp">
<polygon fill="white" stroke="black" points="130.959,-242.5 130.959,-261.5 240.959,-261.5 240.959,-242.5 130.959,-242.5"/>
<text text-anchor="middle" x="185.959" y="-249.5" font-family="Helvetica,sans-Serif" font-size="10.00">Core/Index/Index.hpp</text>
</a>
</g>
</g>
<!-- Node29&#45;&gt;Node30 -->
<g id="edge38" class="edge"><title>Node29&#45;&gt;Node30</title>
<path fill="none" stroke="midnightblue" d="M282.768,-304.403C264.056,-294.468 233.035,-277.997 211.16,-266.381"/>
<polygon fill="midnightblue" stroke="midnightblue" points="212.592,-263.179 202.119,-261.581 209.309,-269.362 212.592,-263.179"/>
</g>
<!-- Node31 -->
<g id="node31" class="node"><title>Node31</title>
<polygon fill="white" stroke="#bfbfbf" points="165.959,-174.5 165.959,-193.5 205.959,-193.5 205.959,-174.5 165.959,-174.5"/>
<text text-anchor="middle" x="185.959" y="-181.5" font-family="Helvetica,sans-Serif" font-size="10.00">limits</text>
</g>
<!-- Node30&#45;&gt;Node31 -->
<g id="edge39" class="edge"><title>Node30&#45;&gt;Node31</title>
<path fill="none" stroke="midnightblue" d="M185.959,-242.372C185.959,-232.643 185.959,-216.528 185.959,-203.85"/>
<polygon fill="midnightblue" stroke="midnightblue" points="189.459,-203.841 185.959,-193.841 182.459,-203.841 189.459,-203.841"/>
</g>
<!-- Node32 -->
<g id="node32" class="node"><title>Node32</title>
<g id="a_node32"><a xlink:href="Index_8inl.html" target="_top" xlink:title="Core/Index/Index.inl">
<polygon fill="white" stroke="black" points="43.9585,-174.5 43.9585,-193.5 147.959,-193.5 147.959,-174.5 43.9585,-174.5"/>
<text text-anchor="middle" x="95.9585" y="-181.5" font-family="Helvetica,sans-Serif" font-size="10.00">Core/Index/Index.inl</text>
</a>
</g>
</g>
<!-- Node30&#45;&gt;Node32 -->
<g id="edge40" class="edge"><title>Node30&#45;&gt;Node32</title>
<path fill="none" stroke="midnightblue" d="M174.193,-242.372C159.37,-231.502 133.677,-212.66 115.796,-199.547"/>
<polygon fill="midnightblue" stroke="midnightblue" points="117.861,-196.722 107.727,-193.63 113.722,-202.367 117.861,-196.722"/>
</g>
<!-- Node33&#45;&gt;Node13 -->
<g id="edge45" class="edge"><title>Node33&#45;&gt;Node13</title>
<path fill="none" stroke="midnightblue" d="M1114.46,-360.324C1101.36,-351.9 1081.25,-338.971 1065.85,-329.074"/>
<polygon fill="midnightblue" stroke="midnightblue" points="1067.73,-326.118 1057.42,-323.655 1063.94,-332.006 1067.73,-326.118"/>
</g>
<!-- Node33&#45;&gt;Node15 -->
<g id="edge56" class="edge"><title>Node33&#45;&gt;Node15</title>
<path fill="none" stroke="midnightblue" d="M1183.49,-366.538C1270.66,-361.928 1435,-350.01 1486.96,-324 1517.88,-308.522 1528.02,-300.062 1540.96,-268 1549.26,-247.435 1540.9,-175.303 1533.96,-168 1502.76,-135.175 1375.37,-126.231 1299.87,-123.835"/>
<polygon fill="midnightblue" stroke="midnightblue" points="1299.68,-120.328 1289.58,-123.539 1299.47,-127.326 1299.68,-120.328"/>
</g>
<!-- Node34 -->
<g id="node34" class="node"><title>Node34</title>
<g id="a_node34"><a xlink:href="Log_8hpp.html" target="_top" xlink:title="Core/Log/Log.hpp">
<polygon fill="white" stroke="black" points="1383.96,-304.5 1383.96,-323.5 1477.96,-323.5 1477.96,-304.5 1383.96,-304.5"/>
<text text-anchor="middle" x="1430.96" y="-311.5" font-family="Helvetica,sans-Serif" font-size="10.00">Core/Log/Log.hpp</text>
</a>
</g>
</g>
<!-- Node33&#45;&gt;Node34 -->
<g id="edge46" class="edge"><title>Node33&#45;&gt;Node34</title>
<path fill="none" stroke="midnightblue" d="M1175.97,-360.444C1229.65,-350.877 1316.53,-335.393 1373.71,-325.203"/>
<polygon fill="midnightblue" stroke="midnightblue" points="1374.44,-328.628 1383.67,-323.428 1373.21,-321.736 1374.44,-328.628"/>
</g>
<!-- Node34&#45;&gt;Node8 -->
<g id="edge48" class="edge"><title>Node34&#45;&gt;Node8</title>
<path fill="none" stroke="midnightblue" d="M1464.33,-304.39C1514.1,-289.309 1601.96,-253.048 1601.96,-185 1601.96,-185 1601.96,-185 1601.96,-121 1601.96,-74.6136 1552.45,-41.2849 1519.27,-24.1547"/>
<polygon fill="midnightblue" stroke="midnightblue" points="1520.5,-20.8574 1509.98,-19.5583 1517.39,-27.131 1520.5,-20.8574"/>
</g>
<!-- Node34&#45;&gt;Node15 -->
<g id="edge47" class="edge"><title>Node34&#45;&gt;Node15</title>
<path fill="none" stroke="midnightblue" d="M1470.21,-304.475C1489.95,-297.99 1512.14,-286.843 1523.96,-268 1536.11,-248.622 1524.65,-178.895 1513.96,-168 1484.9,-138.399 1370.21,-128.248 1299.68,-124.782"/>
<polygon fill="midnightblue" stroke="midnightblue" points="1299.76,-121.282 1289.61,-124.318 1299.44,-128.275 1299.76,-121.282"/>
</g>
<!-- Node35 -->
<g id="node35" class="node"><title>Node35</title>
<polygon fill="white" stroke="#bfbfbf" points="1239.96,-242.5 1239.96,-261.5 1285.96,-261.5 1285.96,-242.5 1239.96,-242.5"/>
<text text-anchor="middle" x="1262.96" y="-249.5" font-family="Helvetica,sans-Serif" font-size="10.00">stdio.h</text>
</g>
<!-- Node34&#45;&gt;Node35 -->
<g id="edge49" class="edge"><title>Node34&#45;&gt;Node35</title>
<path fill="none" stroke="midnightblue" d="M1401.95,-304.496C1374.17,-296.097 1331.23,-282.445 1294.96,-268 1293.31,-267.345 1291.63,-266.646 1289.94,-265.923"/>
<polygon fill="midnightblue" stroke="midnightblue" points="1290.95,-262.541 1280.4,-261.633 1288.08,-268.925 1290.95,-262.541"/>
</g>
<!-- Node36 -->
<g id="node36" class="node"><title>Node36</title>
<polygon fill="white" stroke="#bfbfbf" points="1464.46,-174.5 1464.46,-193.5 1505.46,-193.5 1505.46,-174.5 1464.46,-174.5"/>
<text text-anchor="middle" x="1484.96" y="-181.5" font-family="Helvetica,sans-Serif" font-size="10.00">string</text>
</g>
<!-- Node34&#45;&gt;Node36 -->
<g id="edge50" class="edge"><title>Node34&#45;&gt;Node36</title>
<path fill="none" stroke="midnightblue" d="M1458.97,-304.397C1476.13,-297.515 1496.71,-285.984 1506.96,-268 1518.86,-247.129 1507.06,-219.643 1496.68,-202.142"/>
<polygon fill="midnightblue" stroke="midnightblue" points="1499.54,-200.114 1491.22,-193.551 1493.63,-203.869 1499.54,-200.114"/>
</g>
<!-- Node37 -->
<g id="node37" class="node"><title>Node37</title>
<g id="a_node37"><a xlink:href="StringUtils_8hpp.html" target="_top" xlink:title="Core/String/StringUtils.hpp">
<polygon fill="white" stroke="black" points="1363.96,-242.5 1363.96,-261.5 1497.96,-261.5 1497.96,-242.5 1363.96,-242.5"/>
<text text-anchor="middle" x="1430.96" y="-249.5" font-family="Helvetica,sans-Serif" font-size="10.00">Core/String/StringUtils.hpp</text>
</a>
</g>
</g>
<!-- Node34&#45;&gt;Node37 -->
<g id="edge51" class="edge"><title>Node34&#45;&gt;Node37</title>
<path fill="none" stroke="midnightblue" d="M1430.96,-304.403C1430.96,-295.938 1430.96,-282.728 1430.96,-271.82"/>
<polygon fill="midnightblue" stroke="midnightblue" points="1434.46,-271.581 1430.96,-261.581 1427.46,-271.581 1434.46,-271.581"/>
</g>
<!-- Node38 -->
<g id="node38" class="node"><title>Node38</title>
<polygon fill="white" stroke="#bfbfbf" points="1304.46,-242.5 1304.46,-261.5 1345.46,-261.5 1345.46,-242.5 1304.46,-242.5"/>
<text text-anchor="middle" x="1324.96" y="-249.5" font-family="Helvetica,sans-Serif" font-size="10.00">ctime</text>
</g>
<!-- Node34&#45;&gt;Node38 -->
<g id="edge55" class="edge"><title>Node34&#45;&gt;Node38</title>
<path fill="none" stroke="midnightblue" d="M1415.77,-304.403C1398.3,-294.512 1369.38,-278.144 1348.88,-266.538"/>
<polygon fill="midnightblue" stroke="midnightblue" points="1350.54,-263.461 1340.12,-261.581 1347.1,-269.553 1350.54,-263.461"/>
</g>
<!-- Node37&#45;&gt;Node12 -->
<g id="edge54" class="edge"><title>Node37&#45;&gt;Node12</title>
<path fill="none" stroke="midnightblue" d="M1417.89,-242.372C1401.27,-231.403 1372.35,-212.317 1352.46,-199.191"/>
<polygon fill="midnightblue" stroke="midnightblue" points="1354.31,-196.218 1344.03,-193.63 1350.45,-202.06 1354.31,-196.218"/>
</g>
<!-- Node37&#45;&gt;Node15 -->
<g id="edge52" class="edge"><title>Node37&#45;&gt;Node15</title>
<path fill="none" stroke="midnightblue" d="M1425.88,-242.478C1415.6,-225.918 1390.78,-189.166 1360.96,-168 1339.21,-152.566 1311.49,-141.64 1288.39,-134.422"/>
<polygon fill="midnightblue" stroke="midnightblue" points="1289.38,-131.066 1278.8,-131.553 1287.38,-137.772 1289.38,-131.066"/>
</g>
<!-- Node37&#45;&gt;Node36 -->
<g id="edge53" class="edge"><title>Node37&#45;&gt;Node36</title>
<path fill="none" stroke="midnightblue" d="M1438.02,-242.372C1446.46,-232.053 1460.78,-214.551 1471.39,-201.585"/>
<polygon fill="midnightblue" stroke="midnightblue" points="1474.1,-203.797 1477.72,-193.841 1468.68,-199.364 1474.1,-203.797"/>
</g>
<!-- Node39&#45;&gt;Node28 -->
<g id="edge58" class="edge"><title>Node39&#45;&gt;Node28</title>
<path fill="none" stroke="midnightblue" d="M913.09,-379.751C914.616,-386.858 915.063,-397.136 914.431,-406.101"/>
<polygon fill="midnightblue" stroke="midnightblue" points="910.952,-405.713 913.125,-416.083 917.893,-406.622 910.952,-405.713"/>
</g>
</g>
</svg>
