<?xml version="1.0" encoding="UTF-8" standalone="no"?>
<!DOCTYPE svg PUBLIC "-//W3C//DTD SVG 1.1//EN"
 "http://www.w3.org/Graphics/SVG/1.1/DTD/svg11.dtd">
<!-- Generated by graphviz version 2.36.0 (20140111.2315)
 -->
<!-- Title: /home/travis/build/STORM&#45;IRIT/Radium&#45;Engine/src/Core/Mesh/MeshUtils.inl Pages: 1 -->
<svg width="2214pt" height="614pt"
 viewBox="0.00 0.00 2214.21 614.00" xmlns="http://www.w3.org/2000/svg" xmlns:xlink="http://www.w3.org/1999/xlink">
<g id="graph0" class="graph" transform="scale(1 1) rotate(0) translate(4 610)">
<title>/home/travis/build/STORM&#45;IRIT/Radium&#45;Engine/src/Core/Mesh/MeshUtils.inl</title>
<polygon fill="white" stroke="none" points="-4,4 -4,-610 2210.21,-610 2210.21,4 -4,4"/>
<!-- Node1 -->
<g id="node1" class="node"><title>Node1</title>
<polygon fill="#bfbfbf" stroke="black" points="1379.21,-564.5 1379.21,-605.5 1527.21,-605.5 1527.21,-564.5 1379.21,-564.5"/>
<text text-anchor="start" x="1387.21" y="-593.5" font-family="Helvetica,sans-Serif" font-size="10.00">/home/travis/build</text>
<text text-anchor="start" x="1387.21" y="-582.5" font-family="Helvetica,sans-Serif" font-size="10.00">/STORM&#45;IRIT/Radium&#45;Engine</text>
<text text-anchor="middle" x="1453.21" y="-571.5" font-family="Helvetica,sans-Serif" font-size="10.00">/src/Core/Mesh/MeshUtils.inl</text>
</g>
<!-- Node2 -->
<g id="node2" class="node"><title>Node2</title>
<g id="a_node2"><a xlink:href="MeshUtils_8hpp.html" target="_top" xlink:title="MeshUtils.hpp">
<polygon fill="white" stroke="black" points="1362.21,-508.5 1362.21,-527.5 1442.21,-527.5 1442.21,-508.5 1362.21,-508.5"/>
<text text-anchor="middle" x="1402.21" y="-515.5" font-family="Helvetica,sans-Serif" font-size="10.00">MeshUtils.hpp</text>
</a>
</g>
</g>
<!-- Node1&#45;&gt;Node2 -->
<g id="edge1" class="edge"><title>Node1&#45;&gt;Node2</title>
<path fill="none" stroke="midnightblue" d="M1431.66,-564.498C1423.85,-555.49 1415.61,-544.888 1409.66,-536.185"/>
<polygon fill="midnightblue" stroke="midnightblue" points="1412.55,-534.213 1404.23,-527.652 1406.64,-537.969 1412.55,-534.213"/>
</g>
<!-- Node39 -->
<g id="node39" class="node"><title>Node39</title>
<g id="a_node39"><a xlink:href="PointCloud_8hpp.html" target="_top" xlink:title="Core/Geometry/PointCloud\l/PointCloud.hpp">
<polygon fill="white" stroke="black" points="1568.21,-373 1568.21,-403 1702.21,-403 1702.21,-373 1568.21,-373"/>
<text text-anchor="start" x="1576.21" y="-391" font-family="Helvetica,sans-Serif" font-size="10.00">Core/Geometry/PointCloud</text>
<text text-anchor="middle" x="1635.21" y="-380" font-family="Helvetica,sans-Serif" font-size="10.00">/PointCloud.hpp</text>
</a>
</g>
</g>
<!-- Node1&#45;&gt;Node39 -->
<g id="edge61" class="edge"><title>Node1&#45;&gt;Node39</title>
<path fill="none" stroke="midnightblue" d="M1492.01,-564.416C1526.47,-545.202 1575.93,-512.87 1606.21,-472 1619.15,-454.529 1626.66,-430.805 1630.79,-413.194"/>
<polygon fill="midnightblue" stroke="midnightblue" points="1634.27,-413.64 1632.94,-403.13 1627.43,-412.18 1634.27,-413.64"/>
</g>
<!-- Node44 -->
<g id="node44" class="node"><title>Node44</title>
<g id="a_node44"><a xlink:href="TriangleOperation_8hpp.html" target="_top" xlink:title="Core/Geometry/Triangle\l/TriangleOperation.hpp">
<polygon fill="white" stroke="black" points="1476.71,-441 1476.71,-471 1597.71,-471 1597.71,-441 1476.71,-441"/>
<text text-anchor="start" x="1484.71" y="-459" font-family="Helvetica,sans-Serif" font-size="10.00">Core/Geometry/Triangle</text>
<text text-anchor="middle" x="1537.21" y="-448" font-family="Helvetica,sans-Serif" font-size="10.00">/TriangleOperation.hpp</text>
</a>
</g>
</g>
<!-- Node1&#45;&gt;Node44 -->
<g id="edge74" class="edge"><title>Node1&#45;&gt;Node44</title>
<path fill="none" stroke="midnightblue" d="M1466.15,-564.435C1481.25,-541.607 1506.17,-503.92 1522.13,-479.791"/>
<polygon fill="midnightblue" stroke="midnightblue" points="1525.17,-481.538 1527.77,-471.267 1519.33,-477.677 1525.17,-481.538"/>
</g>
<!-- Node45 -->
<g id="node45" class="node"><title>Node45</title>
<g id="a_node45"><a xlink:href="StdUtils_8hpp.html" target="_top" xlink:title="Core/Utils/StdUtils.hpp">
<polygon fill="white" stroke="black" points="30.2056,-242.5 30.2056,-261.5 148.206,-261.5 148.206,-242.5 30.2056,-242.5"/>
<text text-anchor="middle" x="89.2056" y="-249.5" font-family="Helvetica,sans-Serif" font-size="10.00">Core/Utils/StdUtils.hpp</text>
</a>
</g>
</g>
<!-- Node1&#45;&gt;Node45 -->
<g id="edge76" class="edge"><title>Node1&#45;&gt;Node45</title>
<path fill="none" stroke="midnightblue" d="M1378.83,-580.877C1097.48,-568.582 114.206,-521.032 114.206,-457 114.206,-457 114.206,-457 114.206,-387 114.206,-345.152 102.277,-297.181 94.8995,-271.513"/>
<polygon fill="midnightblue" stroke="midnightblue" points="98.1798,-270.264 91.9766,-261.675 91.4697,-272.258 98.1798,-270.264"/>
</g>
<!-- Node46 -->
<g id="node46" class="node"><title>Node46</title>
<polygon fill="white" stroke="#bfbfbf" points="1654.21,-508.5 1654.21,-527.5 1732.21,-527.5 1732.21,-508.5 1654.21,-508.5"/>
<text text-anchor="middle" x="1693.21" y="-515.5" font-family="Helvetica,sans-Serif" font-size="10.00">unordered_set</text>
</g>
<!-- Node1&#45;&gt;Node46 -->
<g id="edge79" class="edge"><title>Node1&#45;&gt;Node46</title>
<path fill="none" stroke="midnightblue" d="M1525.21,-564.498C1566.56,-553.3 1617,-539.638 1651.76,-530.224"/>
<polygon fill="midnightblue" stroke="midnightblue" points="1652.84,-533.56 1661.57,-527.567 1651.01,-526.803 1652.84,-533.56"/>
</g>
<!-- Node2&#45;&gt;Node1 -->
<g id="edge60" class="edge"><title>Node2&#45;&gt;Node1</title>
<path fill="none" stroke="midnightblue" d="M1413.76,-527.652C1421.05,-534.963 1430.24,-545.853 1438.02,-556.116"/>
<polygon fill="midnightblue" stroke="midnightblue" points="1435.42,-558.494 1444.15,-564.498 1441.07,-554.361 1435.42,-558.494"/>
</g>
<!-- Node3 -->
<g id="node3" class="node"><title>Node3</title>
<g id="a_node3"><a xlink:href="RaCore_8hpp.html" target="_top" xlink:title="Core/RaCore.hpp">
<polygon fill="white" stroke="black" points="763.706,-112.5 763.706,-131.5 856.706,-131.5 856.706,-112.5 763.706,-112.5"/>
<text text-anchor="middle" x="810.206" y="-119.5" font-family="Helvetica,sans-Serif" font-size="10.00">Core/RaCore.hpp</text>
</a>
</g>
</g>
<!-- Node2&#45;&gt;Node3 -->
<g id="edge2" class="edge"><title>Node2&#45;&gt;Node3</title>
<path fill="none" stroke="midnightblue" d="M1406.18,-508.178C1421.22,-475.814 1477.89,-362.458 1559.21,-304 1601.66,-273.48 1624.38,-291.269 1671.21,-268 1726.65,-240.444 1810.95,-212.798 1768.21,-168 1736.98,-135.272 1068.24,-125.68 866.997,-123.53"/>
<polygon fill="midnightblue" stroke="midnightblue" points="866.967,-120.029 856.93,-123.424 866.893,-127.029 866.967,-120.029"/>
</g>
<!-- Node10 -->
<g id="node10" class="node"><title>Node10</title>
<polygon fill="white" stroke="#bfbfbf" points="1336.21,-446.5 1336.21,-465.5 1374.21,-465.5 1374.21,-446.5 1336.21,-446.5"/>
<text text-anchor="middle" x="1355.21" y="-453.5" font-family="Helvetica,sans-Serif" font-size="10.00">array</text>
</g>
<!-- Node2&#45;&gt;Node10 -->
<g id="edge9" class="edge"><title>Node2&#45;&gt;Node10</title>
<path fill="none" stroke="midnightblue" d="M1395.47,-508.403C1388.42,-499.403 1377.17,-485.041 1368.35,-473.782"/>
<polygon fill="midnightblue" stroke="midnightblue" points="1370.85,-471.295 1361.93,-465.581 1365.34,-475.611 1370.85,-471.295"/>
</g>
<!-- Node11 -->
<g id="node11" class="node"><title>Node11</title>
<polygon fill="white" stroke="#bfbfbf" points="738.206,-174.5 738.206,-193.5 782.206,-193.5 782.206,-174.5 738.206,-174.5"/>
<text text-anchor="middle" x="760.206" y="-181.5" font-family="Helvetica,sans-Serif" font-size="10.00">vector</text>
</g>
<!-- Node2&#45;&gt;Node11 -->
<g id="edge10" class="edge"><title>Node2&#45;&gt;Node11</title>
<path fill="none" stroke="midnightblue" d="M1362.1,-511.464C1268.64,-496.928 1032.3,-450.592 874.206,-336 823.788,-299.456 785.527,-234.233 769.066,-202.844"/>
<polygon fill="midnightblue" stroke="midnightblue" points="772.001,-200.897 764.333,-193.587 765.769,-204.084 772.001,-200.897"/>
</g>
<!-- Node12 -->
<g id="node12" class="node"><title>Node12</title>
<g id="a_node12"><a xlink:href="Ray_8hpp.html" target="_top" xlink:title="Core/Math/Ray.hpp">
<polygon fill="white" stroke="black" points="1334.21,-310.5 1334.21,-329.5 1436.21,-329.5 1436.21,-310.5 1334.21,-310.5"/>
<text text-anchor="middle" x="1385.21" y="-317.5" font-family="Helvetica,sans-Serif" font-size="10.00">Core/Math/Ray.hpp</text>
</a>
</g>
</g>
<!-- Node2&#45;&gt;Node12 -->
<g id="edge11" class="edge"><title>Node2&#45;&gt;Node12</title>
<path fill="none" stroke="midnightblue" d="M1401.45,-508.325C1398.88,-478.664 1390.4,-380.85 1386.82,-339.604"/>
<polygon fill="midnightblue" stroke="midnightblue" points="1390.3,-339.235 1385.95,-329.575 1383.33,-339.84 1390.3,-339.235"/>
</g>
<!-- Node24 -->
<g id="node24" class="node"><title>Node24</title>
<g id="a_node24"><a xlink:href="TriangleMesh_8hpp.html" target="_top" xlink:title="Core/Mesh/TriangleMesh.hpp">
<polygon fill="white" stroke="black" points="641.706,-446.5 641.706,-465.5 786.706,-465.5 786.706,-446.5 641.706,-446.5"/>
<text text-anchor="middle" x="714.206" y="-453.5" font-family="Helvetica,sans-Serif" font-size="10.00">Core/Mesh/TriangleMesh.hpp</text>
</a>
</g>
</g>
<!-- Node2&#45;&gt;Node24 -->
<g id="edge28" class="edge"><title>Node2&#45;&gt;Node24</title>
<path fill="none" stroke="midnightblue" d="M1361.88,-514.328C1269.38,-508.079 1034.83,-491.548 839.206,-472 823.684,-470.449 807.102,-468.597 791.257,-466.732"/>
<polygon fill="midnightblue" stroke="midnightblue" points="791.313,-463.214 780.97,-465.508 790.486,-470.165 791.313,-463.214"/>
</g>
<!-- Node4 -->
<g id="node4" class="node"><title>Node4</title>
<g id="a_node4"><a xlink:href="CoreMacros_8hpp.html" target="_top" xlink:title="Core/CoreMacros.hpp">
<polygon fill="white" stroke="black" points="568.706,-56.5 568.706,-75.5 681.706,-75.5 681.706,-56.5 568.706,-56.5"/>
<text text-anchor="middle" x="625.206" y="-63.5" font-family="Helvetica,sans-Serif" font-size="10.00">Core/CoreMacros.hpp</text>
</a>
</g>
</g>
<!-- Node3&#45;&gt;Node4 -->
<g id="edge3" class="edge"><title>Node3&#45;&gt;Node4</title>
<path fill="none" stroke="midnightblue" d="M780.892,-112.444C749.363,-103.241 699.074,-88.5617 664.22,-78.3879"/>
<polygon fill="midnightblue" stroke="midnightblue" points="664.962,-74.9587 654.382,-75.5164 663.001,-81.6783 664.962,-74.9587"/>
</g>
<!-- Node5 -->
<g id="node5" class="node"><title>Node5</title>
<polygon fill="white" stroke="#bfbfbf" points="698.706,-0.5 698.706,-19.5 747.706,-19.5 747.706,-0.5 698.706,-0.5"/>
<text text-anchor="middle" x="723.206" y="-7.5" font-family="Helvetica,sans-Serif" font-size="10.00">cassert</text>
</g>
<!-- Node4&#45;&gt;Node5 -->
<g id="edge4" class="edge"><title>Node4&#45;&gt;Node5</title>
<path fill="none" stroke="midnightblue" d="M640.951,-56.324C656.524,-47.7428 680.583,-34.486 698.665,-24.5224"/>
<polygon fill="midnightblue" stroke="midnightblue" points="700.43,-27.546 707.499,-19.6545 697.052,-21.4152 700.43,-27.546"/>
</g>
<!-- Node6 -->
<g id="node6" class="node"><title>Node6</title>
<polygon fill="white" stroke="#bfbfbf" points="502.706,-0.5 502.706,-19.5 545.706,-19.5 545.706,-0.5 502.706,-0.5"/>
<text text-anchor="middle" x="524.206" y="-7.5" font-family="Helvetica,sans-Serif" font-size="10.00">cstdio</text>
</g>
<!-- Node4&#45;&gt;Node6 -->
<g id="edge5" class="edge"><title>Node4&#45;&gt;Node6</title>
<path fill="none" stroke="midnightblue" d="M608.978,-56.324C592.855,-47.7034 567.905,-34.3643 549.242,-24.3855"/>
<polygon fill="midnightblue" stroke="midnightblue" points="550.862,-21.283 540.393,-19.6545 547.561,-27.456 550.862,-21.283"/>
</g>
<!-- Node7 -->
<g id="node7" class="node"><title>Node7</title>
<polygon fill="white" stroke="#bfbfbf" points="564.206,-0.5 564.206,-19.5 618.206,-19.5 618.206,-0.5 564.206,-0.5"/>
<text text-anchor="middle" x="591.206" y="-7.5" font-family="Helvetica,sans-Serif" font-size="10.00">iostream</text>
</g>
<!-- Node4&#45;&gt;Node7 -->
<g id="edge6" class="edge"><title>Node4&#45;&gt;Node7</title>
<path fill="none" stroke="midnightblue" d="M619.591,-56.083C614.838,-48.5341 607.888,-37.4948 602.054,-28.2298"/>
<polygon fill="midnightblue" stroke="midnightblue" points="605.006,-26.3486 596.716,-19.7511 599.082,-30.0783 605.006,-26.3486"/>
</g>
<!-- Node8 -->
<g id="node8" class="node"><title>Node8</title>
<polygon fill="white" stroke="#bfbfbf" points="280.206,-0.5 280.206,-19.5 332.206,-19.5 332.206,-0.5 280.206,-0.5"/>
<text text-anchor="middle" x="306.206" y="-7.5" font-family="Helvetica,sans-Serif" font-size="10.00">sstream</text>
</g>
<!-- Node4&#45;&gt;Node8 -->
<g id="edge7" class="edge"><title>Node4&#45;&gt;Node8</title>
<path fill="none" stroke="midnightblue" d="M574.659,-56.4435C509.992,-45.4968 399.555,-26.8022 342.582,-17.1578"/>
<polygon fill="midnightblue" stroke="midnightblue" points="343.034,-13.6845 332.59,-15.4662 341.865,-20.5863 343.034,-13.6845"/>
</g>
<!-- Node9 -->
<g id="node9" class="node"><title>Node9</title>
<polygon fill="white" stroke="#bfbfbf" points="636.206,-0.5 636.206,-19.5 680.206,-19.5 680.206,-0.5 636.206,-0.5"/>
<text text-anchor="middle" x="658.206" y="-7.5" font-family="Helvetica,sans-Serif" font-size="10.00">thread</text>
</g>
<!-- Node4&#45;&gt;Node9 -->
<g id="edge8" class="edge"><title>Node4&#45;&gt;Node9</title>
<path fill="none" stroke="midnightblue" d="M630.655,-56.083C635.22,-48.6127 641.874,-37.7244 647.499,-28.5199"/>
<polygon fill="midnightblue" stroke="midnightblue" points="650.63,-30.109 652.858,-19.7511 644.657,-26.4588 650.63,-30.109"/>
</g>
<!-- Node12&#45;&gt;Node3 -->
<g id="edge26" class="edge"><title>Node12&#45;&gt;Node3</title>
<path fill="none" stroke="midnightblue" d="M1433.43,-310.45C1523.67,-293.363 1712.38,-252.121 1750.21,-200 1758.56,-188.49 1760.02,-178.294 1750.21,-168 1719.65,-135.942 1066.26,-125.905 867.236,-123.586"/>
<polygon fill="midnightblue" stroke="midnightblue" points="867.035,-120.083 856.995,-123.469 866.955,-127.083 867.035,-120.083"/>
</g>
<!-- Node13 -->
<g id="node13" class="node"><title>Node13</title>
<g id="a_node13"><a xlink:href="LinearAlgebra_8hpp.html" target="_top" xlink:title="Core/Math/LinearAlgebra.hpp">
<polygon fill="white" stroke="black" points="1313.71,-242.5 1313.71,-261.5 1456.71,-261.5 1456.71,-242.5 1313.71,-242.5"/>
<text text-anchor="middle" x="1385.21" y="-249.5" font-family="Helvetica,sans-Serif" font-size="10.00">Core/Math/LinearAlgebra.hpp</text>
</a>
</g>
</g>
<!-- Node12&#45;&gt;Node13 -->
<g id="edge12" class="edge"><title>Node12&#45;&gt;Node13</title>
<path fill="none" stroke="midnightblue" d="M1385.21,-310.372C1385.21,-300.643 1385.21,-284.528 1385.21,-271.85"/>
<polygon fill="midnightblue" stroke="midnightblue" points="1388.71,-271.841 1385.21,-261.841 1381.71,-271.841 1388.71,-271.841"/>
</g>
<!-- Node15 -->
<g id="node15" class="node"><title>Node15</title>
<polygon fill="white" stroke="#bfbfbf" points="1133.71,-174.5 1133.71,-193.5 1220.71,-193.5 1220.71,-174.5 1133.71,-174.5"/>
<text text-anchor="middle" x="1177.21" y="-181.5" font-family="Helvetica,sans-Serif" font-size="10.00">Eigen/Geometry</text>
</g>
<!-- Node12&#45;&gt;Node15 -->
<g id="edge27" class="edge"><title>Node12&#45;&gt;Node15</title>
<path fill="none" stroke="midnightblue" d="M1371.4,-310.408C1355.24,-300.328 1327.7,-283.075 1304.21,-268 1266.89,-244.06 1223.74,-215.717 1198.56,-199.113"/>
<polygon fill="midnightblue" stroke="midnightblue" points="1200.41,-196.143 1190.14,-193.556 1196.56,-201.986 1200.41,-196.143"/>
</g>
<!-- Node13&#45;&gt;Node3 -->
<g id="edge13" class="edge"><title>Node13&#45;&gt;Node3</title>
<path fill="none" stroke="midnightblue" d="M1360.02,-242.334C1335.64,-233.417 1298.07,-218.272 1268.21,-200 1249.08,-188.298 1249.88,-176.67 1229.21,-168 1165.18,-141.153 965.808,-129.38 866.952,-125.086"/>
<polygon fill="midnightblue" stroke="midnightblue" points="866.984,-121.584 856.844,-124.658 866.687,-128.578 866.984,-121.584"/>
</g>
<!-- Node14 -->
<g id="node14" class="node"><title>Node14</title>
<polygon fill="white" stroke="#bfbfbf" points="1277.71,-174.5 1277.71,-193.5 1342.71,-193.5 1342.71,-174.5 1277.71,-174.5"/>
<text text-anchor="middle" x="1310.21" y="-181.5" font-family="Helvetica,sans-Serif" font-size="10.00">Eigen/Core</text>
</g>
<!-- Node13&#45;&gt;Node14 -->
<g id="edge14" class="edge"><title>Node13&#45;&gt;Node14</title>
<path fill="none" stroke="midnightblue" d="M1375.4,-242.372C1363.34,-231.758 1342.64,-213.545 1327.8,-200.485"/>
<polygon fill="midnightblue" stroke="midnightblue" points="1330.07,-197.82 1320.25,-193.841 1325.45,-203.075 1330.07,-197.82"/>
</g>
<!-- Node13&#45;&gt;Node15 -->
<g id="edge15" class="edge"><title>Node13&#45;&gt;Node15</title>
<path fill="none" stroke="midnightblue" d="M1358.01,-242.372C1321.08,-230.654 1254.97,-209.674 1213.74,-196.591"/>
<polygon fill="midnightblue" stroke="midnightblue" points="1214.67,-193.214 1204.08,-193.526 1212.55,-199.886 1214.67,-193.214"/>
</g>
<!-- Node16 -->
<g id="node16" class="node"><title>Node16</title>
<polygon fill="white" stroke="#bfbfbf" points="1360.71,-174.5 1360.71,-193.5 1435.71,-193.5 1435.71,-174.5 1360.71,-174.5"/>
<text text-anchor="middle" x="1398.21" y="-181.5" font-family="Helvetica,sans-Serif" font-size="10.00">Eigen/Sparse</text>
</g>
<!-- Node13&#45;&gt;Node16 -->
<g id="edge16" class="edge"><title>Node13&#45;&gt;Node16</title>
<path fill="none" stroke="midnightblue" d="M1386.91,-242.372C1388.82,-232.643 1392,-216.528 1394.49,-203.85"/>
<polygon fill="midnightblue" stroke="midnightblue" points="1397.97,-204.329 1396.46,-193.841 1391.1,-202.976 1397.97,-204.329"/>
</g>
<!-- Node17 -->
<g id="node17" class="node"><title>Node17</title>
<polygon fill="white" stroke="#bfbfbf" points="1056.71,-174.5 1056.71,-193.5 1115.71,-193.5 1115.71,-174.5 1056.71,-174.5"/>
<text text-anchor="middle" x="1086.21" y="-181.5" font-family="Helvetica,sans-Serif" font-size="10.00">functional</text>
</g>
<!-- Node13&#45;&gt;Node17 -->
<g id="edge17" class="edge"><title>Node13&#45;&gt;Node17</title>
<path fill="none" stroke="midnightblue" d="M1325.12,-242.462C1271.73,-234.123 1191.9,-219.792 1124.21,-200 1121.4,-199.179 1118.51,-198.233 1115.64,-197.224"/>
<polygon fill="midnightblue" stroke="midnightblue" points="1116.67,-193.875 1106.08,-193.638 1114.21,-200.429 1116.67,-193.875"/>
</g>
<!-- Node18 -->
<g id="node18" class="node"><title>Node18</title>
<polygon fill="white" stroke="#bfbfbf" points="1453.71,-169 1453.71,-199 1586.71,-199 1586.71,-169 1453.71,-169"/>
<text text-anchor="start" x="1461.71" y="-187" font-family="Helvetica,sans-Serif" font-size="10.00">unsupported/Eigen/Aligned</text>
<text text-anchor="middle" x="1520.21" y="-176" font-family="Helvetica,sans-Serif" font-size="10.00">Vector3</text>
</g>
<!-- Node13&#45;&gt;Node18 -->
<g id="edge18" class="edge"><title>Node13&#45;&gt;Node18</title>
<path fill="none" stroke="midnightblue" d="M1402.85,-242.372C1422.91,-232.569 1456.22,-216.283 1482.24,-203.563"/>
<polygon fill="midnightblue" stroke="midnightblue" points="1484.01,-206.593 1491.45,-199.056 1480.93,-200.304 1484.01,-206.593"/>
</g>
<!-- Node19 -->
<g id="node19" class="node"><title>Node19</title>
<g id="a_node19"><a xlink:href="Math_8hpp.html" target="_top" xlink:title="Core/Math/Math.hpp">
<polygon fill="white" stroke="black" points="2015.21,-174.5 2015.21,-193.5 2121.21,-193.5 2121.21,-174.5 2015.21,-174.5"/>
<text text-anchor="middle" x="2068.21" y="-181.5" font-family="Helvetica,sans-Serif" font-size="10.00">Core/Math/Math.hpp</text>
</a>
</g>
</g>
<!-- Node13&#45;&gt;Node19 -->
<g id="edge19" class="edge"><title>Node13&#45;&gt;Node19</title>
<path fill="none" stroke="midnightblue" d="M1457.01,-244.062C1591.06,-231.108 1877.34,-203.444 2004.76,-191.131"/>
<polygon fill="midnightblue" stroke="midnightblue" points="2005.14,-194.61 2014.76,-190.165 2004.47,-187.643 2005.14,-194.61"/>
</g>
<!-- Node23 -->
<g id="node23" class="node"><title>Node23</title>
<g id="a_node23"><a xlink:href="LinearAlgebra_8inl.html" target="_top" xlink:title="Core/Math/LinearAlgebra.inl">
<polygon fill="white" stroke="black" points="1604.71,-174.5 1604.71,-193.5 1741.71,-193.5 1741.71,-174.5 1604.71,-174.5"/>
<text text-anchor="middle" x="1673.21" y="-181.5" font-family="Helvetica,sans-Serif" font-size="10.00">Core/Math/LinearAlgebra.inl</text>
</a>
</g>
</g>
<!-- Node13&#45;&gt;Node23 -->
<g id="edge25" class="edge"><title>Node13&#45;&gt;Node23</title>
<path fill="none" stroke="midnightblue" d="M1422.56,-242.439C1474.68,-230.495 1569.2,-208.834 1626.09,-195.797"/>
<polygon fill="midnightblue" stroke="midnightblue" points="1626.95,-199.191 1635.92,-193.546 1625.39,-192.368 1626.95,-199.191"/>
</g>
<!-- Node19&#45;&gt;Node3 -->
<g id="edge20" class="edge"><title>Node19&#45;&gt;Node3</title>
<path fill="none" stroke="midnightblue" d="M2035.7,-174.471C2024.81,-171.95 2012.55,-169.472 2001.21,-168 1777.83,-139.022 1072.99,-126.786 867.164,-123.774"/>
<polygon fill="midnightblue" stroke="midnightblue" points="866.935,-120.27 856.885,-123.625 866.834,-127.27 866.935,-120.27"/>
</g>
<!-- Node20 -->
<g id="node20" class="node"><title>Node20</title>
<polygon fill="white" stroke="#bfbfbf" points="2088.21,-112.5 2088.21,-131.5 2144.21,-131.5 2144.21,-112.5 2088.21,-112.5"/>
<text text-anchor="middle" x="2116.21" y="-119.5" font-family="Helvetica,sans-Serif" font-size="10.00">algorithm</text>
</g>
<!-- Node19&#45;&gt;Node20 -->
<g id="edge21" class="edge"><title>Node19&#45;&gt;Node20</title>
<path fill="none" stroke="midnightblue" d="M2075.08,-174.403C2082.35,-165.314 2094,-150.756 2103.05,-139.449"/>
<polygon fill="midnightblue" stroke="midnightblue" points="2105.83,-141.576 2109.34,-131.581 2100.36,-137.203 2105.83,-141.576"/>
</g>
<!-- Node21 -->
<g id="node21" class="node"><title>Node21</title>
<polygon fill="white" stroke="#bfbfbf" points="2162.21,-112.5 2162.21,-131.5 2206.21,-131.5 2206.21,-112.5 2162.21,-112.5"/>
<text text-anchor="middle" x="2184.21" y="-119.5" font-family="Helvetica,sans-Serif" font-size="10.00">cmath</text>
</g>
<!-- Node19&#45;&gt;Node21 -->
<g id="edge22" class="edge"><title>Node19&#45;&gt;Node21</title>
<path fill="none" stroke="midnightblue" d="M2084.83,-174.403C2104.12,-164.423 2136.16,-147.849 2158.64,-136.225"/>
<polygon fill="midnightblue" stroke="midnightblue" points="2160.34,-139.284 2167.62,-131.581 2157.13,-133.066 2160.34,-139.284"/>
</g>
<!-- Node22 -->
<g id="node22" class="node"><title>Node22</title>
<g id="a_node22"><a xlink:href="Math_8inl.html" target="_top" xlink:title="Core/Math/Math.inl">
<polygon fill="white" stroke="black" points="1970.21,-112.5 1970.21,-131.5 2070.21,-131.5 2070.21,-112.5 1970.21,-112.5"/>
<text text-anchor="middle" x="2020.21" y="-119.5" font-family="Helvetica,sans-Serif" font-size="10.00">Core/Math/Math.inl</text>
</a>
</g>
</g>
<!-- Node19&#45;&gt;Node22 -->
<g id="edge23" class="edge"><title>Node19&#45;&gt;Node22</title>
<path fill="none" stroke="midnightblue" d="M2056.43,-174.403C2047.37,-165.493 2035.62,-151.325 2027.74,-140.118"/>
<polygon fill="midnightblue" stroke="midnightblue" points="2030.57,-138.048 2022.17,-131.581 2024.7,-141.87 2030.57,-138.048"/>
</g>
<!-- Node22&#45;&gt;Node19 -->
<g id="edge24" class="edge"><title>Node22&#45;&gt;Node19</title>
<path fill="none" stroke="midnightblue" d="M2031.97,-131.581C2041.02,-140.485 2052.78,-154.652 2060.66,-165.862"/>
<polygon fill="midnightblue" stroke="midnightblue" points="2057.84,-167.938 2066.23,-174.403 2063.7,-164.115 2057.84,-167.938"/>
</g>
<!-- Node24&#45;&gt;Node3 -->
<g id="edge44" class="edge"><title>Node24&#45;&gt;Node3</title>
<path fill="none" stroke="midnightblue" d="M674.438,-446.461C649.005,-439.12 617.002,-426.108 596.206,-404 569.33,-375.429 566.206,-360.225 566.206,-321 566.206,-321 566.206,-321 566.206,-251 566.206,-208.387 579.926,-193.314 614.206,-168 654.552,-138.206 711.336,-127.68 753.405,-124.179"/>
<polygon fill="midnightblue" stroke="midnightblue" points="753.772,-127.662 763.494,-123.449 753.267,-120.68 753.772,-127.662"/>
</g>
<!-- Node24&#45;&gt;Node13 -->
<g id="edge37" class="edge"><title>Node24&#45;&gt;Node13</title>
<path fill="none" stroke="midnightblue" d="M742.609,-446.449C849.242,-414.348 1225.77,-300.997 1347.17,-264.45"/>
<polygon fill="midnightblue" stroke="midnightblue" points="1348.23,-267.787 1356.8,-261.553 1346.21,-261.084 1348.23,-267.787"/>
</g>
<!-- Node25 -->
<g id="node25" class="node"><title>Node25</title>
<g id="a_node25"><a xlink:href="VectorArray_8hpp.html" target="_top" xlink:title="Core/Containers/VectorArray.hpp">
<polygon fill="white" stroke="black" points="663.706,-310.5 663.706,-329.5 824.706,-329.5 824.706,-310.5 663.706,-310.5"/>
<text text-anchor="middle" x="744.206" y="-317.5" font-family="Helvetica,sans-Serif" font-size="10.00">Core/Containers/VectorArray.hpp</text>
</a>
</g>
</g>
<!-- Node24&#45;&gt;Node25 -->
<g id="edge29" class="edge"><title>Node24&#45;&gt;Node25</title>
<path fill="none" stroke="midnightblue" d="M723.777,-446.339C733.336,-436.983 747.416,-421.104 753.206,-404 760.449,-382.602 755.537,-356.494 750.585,-339.343"/>
<polygon fill="midnightblue" stroke="midnightblue" points="753.822,-337.971 747.453,-329.504 747.151,-340.095 753.822,-337.971"/>
</g>
<!-- Node28 -->
<g id="node28" class="node"><title>Node28</title>
<g id="a_node28"><a xlink:href="MeshTypes_8hpp.html" target="_top" xlink:title="Core/Mesh/MeshTypes.hpp">
<polygon fill="white" stroke="black" points="883.706,-310.5 883.706,-329.5 1020.71,-329.5 1020.71,-310.5 883.706,-310.5"/>
<text text-anchor="middle" x="952.206" y="-317.5" font-family="Helvetica,sans-Serif" font-size="10.00">Core/Mesh/MeshTypes.hpp</text>
</a>
</g>
</g>
<!-- Node24&#45;&gt;Node28 -->
<g id="edge38" class="edge"><title>Node24&#45;&gt;Node28</title>
<path fill="none" stroke="midnightblue" d="M729.456,-446.414C769.757,-423.723 879.333,-362.029 928.165,-334.536"/>
<polygon fill="midnightblue" stroke="midnightblue" points="930.086,-337.471 937.083,-329.515 926.652,-331.371 930.086,-337.471"/>
</g>
<!-- Node32 -->
<g id="node32" class="node"><title>Node32</title>
<g id="a_node32"><a xlink:href="Attribs_8hpp.html" target="_top" xlink:title="Core/Utils/Attribs.hpp">
<polygon fill="white" stroke="black" points="372.706,-378.5 372.706,-397.5 483.706,-397.5 483.706,-378.5 372.706,-378.5"/>
<text text-anchor="middle" x="428.206" y="-385.5" font-family="Helvetica,sans-Serif" font-size="10.00">Core/Utils/Attribs.hpp</text>
</a>
</g>
</g>
<!-- Node24&#45;&gt;Node32 -->
<g id="edge45" class="edge"><title>Node24&#45;&gt;Node32</title>
<path fill="none" stroke="midnightblue" d="M677.109,-446.439C625.352,-434.495 531.486,-412.834 474.991,-399.797"/>
<polygon fill="midnightblue" stroke="midnightblue" points="475.767,-396.384 465.236,-397.546 474.193,-403.205 475.767,-396.384"/>
</g>
<!-- Node38 -->
<g id="node38" class="node"><title>Node38</title>
<g id="a_node38"><a xlink:href="TriangleMesh_8inl.html" target="_top" xlink:title="Core/Mesh/TriangleMesh.inl">
<polygon fill="white" stroke="black" points="605.706,-378.5 605.706,-397.5 744.706,-397.5 744.706,-378.5 605.706,-378.5"/>
<text text-anchor="middle" x="675.206" y="-385.5" font-family="Helvetica,sans-Serif" font-size="10.00">Core/Mesh/TriangleMesh.inl</text>
</a>
</g>
</g>
<!-- Node24&#45;&gt;Node38 -->
<g id="edge58" class="edge"><title>Node24&#45;&gt;Node38</title>
<path fill="none" stroke="midnightblue" d="M704.376,-446.372C696.399,-436.446 686.151,-419.874 679.797,-407.086"/>
<polygon fill="midnightblue" stroke="midnightblue" points="682.938,-405.535 675.654,-397.841 676.55,-408.398 682.938,-405.535"/>
</g>
<!-- Node25&#45;&gt;Node3 -->
<g id="edge35" class="edge"><title>Node25&#45;&gt;Node3</title>
<path fill="none" stroke="midnightblue" d="M748.123,-310.411C752.67,-300.334 760.298,-283.084 766.206,-268 777.893,-238.158 780.835,-230.649 790.206,-200 796.25,-180.231 802.063,-157.258 805.849,-141.585"/>
<polygon fill="midnightblue" stroke="midnightblue" points="809.312,-142.151 808.222,-131.612 802.502,-140.531 809.312,-142.151"/>
</g>
<!-- Node25&#45;&gt;Node11 -->
<g id="edge36" class="edge"><title>Node25&#45;&gt;Node11</title>
<path fill="none" stroke="midnightblue" d="M745.255,-310.208C747.821,-288.722 754.454,-233.167 757.959,-203.814"/>
<polygon fill="midnightblue" stroke="midnightblue" points="761.462,-203.995 759.173,-193.65 754.512,-203.165 761.462,-203.995"/>
</g>
<!-- Node25&#45;&gt;Node13 -->
<g id="edge34" class="edge"><title>Node25&#45;&gt;Node13</title>
<path fill="none" stroke="midnightblue" d="M816.384,-310.471C835.2,-308.303 855.457,-306.017 874.206,-304 1025.68,-287.703 1202.62,-270.439 1303.53,-260.76"/>
<polygon fill="midnightblue" stroke="midnightblue" points="1304.04,-264.228 1313.66,-259.79 1303.37,-257.26 1304.04,-264.228"/>
</g>
<!-- Node26 -->
<g id="node26" class="node"><title>Node26</title>
<g id="a_node26"><a xlink:href="AlignedStdVector_8hpp.html" target="_top" xlink:title="Core/Containers/AlignedStd\lVector.hpp">
<polygon fill="white" stroke="black" points="594.206,-237 594.206,-267 732.206,-267 732.206,-237 594.206,-237"/>
<text text-anchor="start" x="602.206" y="-255" font-family="Helvetica,sans-Serif" font-size="10.00">Core/Containers/AlignedStd</text>
<text text-anchor="middle" x="663.206" y="-244" font-family="Helvetica,sans-Serif" font-size="10.00">Vector.hpp</text>
</a>
</g>
</g>
<!-- Node25&#45;&gt;Node26 -->
<g id="edge30" class="edge"><title>Node25&#45;&gt;Node26</title>
<path fill="none" stroke="midnightblue" d="M733.616,-310.372C722.255,-301.114 703.798,-286.076 688.632,-273.718"/>
<polygon fill="midnightblue" stroke="midnightblue" points="690.573,-270.785 680.61,-267.181 686.152,-276.212 690.573,-270.785"/>
</g>
<!-- Node26&#45;&gt;Node3 -->
<g id="edge31" class="edge"><title>Node26&#45;&gt;Node3</title>
<path fill="none" stroke="midnightblue" d="M647.306,-236.731C629.812,-219.301 606.277,-189.485 623.206,-168 639.219,-147.676 704.376,-135.467 753.308,-128.997"/>
<polygon fill="midnightblue" stroke="midnightblue" points="754.001,-132.437 763.479,-127.703 753.117,-125.493 754.001,-132.437"/>
</g>
<!-- Node26&#45;&gt;Node11 -->
<g id="edge33" class="edge"><title>Node26&#45;&gt;Node11</title>
<path fill="none" stroke="midnightblue" d="M684.253,-236.679C700.52,-225.611 722.93,-210.363 739.189,-199.3"/>
<polygon fill="midnightblue" stroke="midnightblue" points="741.212,-202.157 747.511,-193.638 737.274,-196.37 741.212,-202.157"/>
</g>
<!-- Node27 -->
<g id="node27" class="node"><title>Node27</title>
<polygon fill="white" stroke="#bfbfbf" points="632.206,-174.5 632.206,-193.5 720.206,-193.5 720.206,-174.5 632.206,-174.5"/>
<text text-anchor="middle" x="676.206" y="-181.5" font-family="Helvetica,sans-Serif" font-size="10.00">Eigen/StdVector</text>
</g>
<!-- Node26&#45;&gt;Node27 -->
<g id="edge32" class="edge"><title>Node26&#45;&gt;Node27</title>
<path fill="none" stroke="midnightblue" d="M666.026,-236.679C667.933,-226.999 670.469,-214.123 672.533,-203.645"/>
<polygon fill="midnightblue" stroke="midnightblue" points="675.968,-204.316 674.467,-193.828 669.1,-202.963 675.968,-204.316"/>
</g>
<!-- Node28&#45;&gt;Node3 -->
<g id="edge43" class="edge"><title>Node28&#45;&gt;Node3</title>
<path fill="none" stroke="midnightblue" d="M939.823,-310.27C927.072,-300.857 907.149,-284.931 893.206,-268 859.21,-226.721 831.133,-169.697 818.081,-141.013"/>
<polygon fill="midnightblue" stroke="midnightblue" points="821.244,-139.512 813.969,-131.809 814.852,-142.367 821.244,-139.512"/>
</g>
<!-- Node28&#45;&gt;Node13 -->
<g id="edge42" class="edge"><title>Node28&#45;&gt;Node13</title>
<path fill="none" stroke="midnightblue" d="M1008.37,-310.439C1088.19,-298.273 1234.16,-276.023 1319.09,-263.077"/>
<polygon fill="midnightblue" stroke="midnightblue" points="1319.78,-266.512 1329.14,-261.546 1318.73,-259.592 1319.78,-266.512"/>
</g>
<!-- Node29 -->
<g id="node29" class="node"><title>Node29</title>
<g id="a_node29"><a xlink:href="Index_8hpp.html" target="_top" xlink:title="Core/Index/Index.hpp">
<polygon fill="white" stroke="black" points="902.206,-242.5 902.206,-261.5 1012.21,-261.5 1012.21,-242.5 902.206,-242.5"/>
<text text-anchor="middle" x="957.206" y="-249.5" font-family="Helvetica,sans-Serif" font-size="10.00">Core/Index/Index.hpp</text>
</a>
</g>
</g>
<!-- Node28&#45;&gt;Node29 -->
<g id="edge39" class="edge"><title>Node28&#45;&gt;Node29</title>
<path fill="none" stroke="midnightblue" d="M952.859,-310.372C953.596,-300.643 954.817,-284.528 955.778,-271.85"/>
<polygon fill="midnightblue" stroke="midnightblue" points="959.27,-272.077 956.536,-261.841 952.29,-271.548 959.27,-272.077"/>
</g>
<!-- Node30 -->
<g id="node30" class="node"><title>Node30</title>
<polygon fill="white" stroke="#bfbfbf" points="998.206,-174.5 998.206,-193.5 1038.21,-193.5 1038.21,-174.5 998.206,-174.5"/>
<text text-anchor="middle" x="1018.21" y="-181.5" font-family="Helvetica,sans-Serif" font-size="10.00">limits</text>
</g>
<!-- Node29&#45;&gt;Node30 -->
<g id="edge40" class="edge"><title>Node29&#45;&gt;Node30</title>
<path fill="none" stroke="midnightblue" d="M965.18,-242.372C974.808,-231.955 991.202,-214.217 1003.22,-201.216"/>
<polygon fill="midnightblue" stroke="midnightblue" points="1005.82,-203.561 1010.03,-193.841 1000.68,-198.809 1005.82,-203.561"/>
</g>
<!-- Node31 -->
<g id="node31" class="node"><title>Node31</title>
<g id="a_node31"><a xlink:href="Index_8inl.html" target="_top" xlink:title="Core/Index/Index.inl">
<polygon fill="white" stroke="black" points="876.206,-174.5 876.206,-193.5 980.206,-193.5 980.206,-174.5 876.206,-174.5"/>
<text text-anchor="middle" x="928.206" y="-181.5" font-family="Helvetica,sans-Serif" font-size="10.00">Core/Index/Index.inl</text>
</a>
</g>
</g>
<!-- Node29&#45;&gt;Node31 -->
<g id="edge41" class="edge"><title>Node29&#45;&gt;Node31</title>
<path fill="none" stroke="midnightblue" d="M953.414,-242.372C949.053,-232.446 941.772,-215.874 936.153,-203.086"/>
<polygon fill="midnightblue" stroke="midnightblue" points="939.317,-201.588 932.09,-193.841 932.909,-204.404 939.317,-201.588"/>
</g>
<!-- Node32&#45;&gt;Node3 -->
<g id="edge57" class="edge"><title>Node32&#45;&gt;Node3</title>
<path fill="none" stroke="midnightblue" d="M391.728,-378.437C324.545,-360.616 191.007,-314.534 224.206,-236 241.094,-196.049 254.761,-186.04 294.206,-168 374.777,-131.151 637.039,-124.368 753.545,-123.198"/>
<polygon fill="midnightblue" stroke="midnightblue" points="753.718,-126.696 763.686,-123.106 753.655,-119.697 753.718,-126.696"/>
</g>
<!-- Node32&#45;&gt;Node25 -->
<g id="edge46" class="edge"><title>Node32&#45;&gt;Node25</title>
<path fill="none" stroke="midnightblue" d="M469.193,-378.439C526.616,-366.446 630.951,-344.654 693.286,-331.635"/>
<polygon fill="midnightblue" stroke="midnightblue" points="694.218,-335.016 703.291,-329.546 692.786,-328.164 694.218,-335.016"/>
</g>
<!-- Node33 -->
<g id="node33" class="node"><title>Node33</title>
<g id="a_node33"><a xlink:href="Log_8hpp.html" target="_top" xlink:title="Core/Log/Log.hpp">
<polygon fill="white" stroke="black" points="326.206,-310.5 326.206,-329.5 420.206,-329.5 420.206,-310.5 326.206,-310.5"/>
<text text-anchor="middle" x="373.206" y="-317.5" font-family="Helvetica,sans-Serif" font-size="10.00">Core/Log/Log.hpp</text>
</a>
</g>
</g>
<!-- Node32&#45;&gt;Node33 -->
<g id="edge47" class="edge"><title>Node32&#45;&gt;Node33</title>
<path fill="none" stroke="midnightblue" d="M421.015,-378.372C412.416,-368.053 397.832,-350.551 387.027,-337.585"/>
<polygon fill="midnightblue" stroke="midnightblue" points="389.664,-335.283 380.573,-329.841 384.286,-339.764 389.664,-335.283"/>
</g>
<!-- Node33&#45;&gt;Node3 -->
<g id="edge48" class="edge"><title>Node33&#45;&gt;Node3</title>
<path fill="none" stroke="midnightblue" d="M420.327,-310.791C448.797,-303.699 484.115,-290.84 508.206,-268 543.443,-234.593 513.98,-197.943 552.206,-168 582.699,-144.114 686.89,-132.089 753.169,-126.718"/>
<polygon fill="midnightblue" stroke="midnightblue" points="753.768,-130.182 763.464,-125.912 753.222,-123.203 753.768,-130.182"/>
</g>
<!-- Node33&#45;&gt;Node8 -->
<g id="edge49" class="edge"><title>Node33&#45;&gt;Node8</title>
<path fill="none" stroke="midnightblue" d="M326.043,-318.558C240.538,-316.756 64.7315,-308.13 21.2056,-268 -6.61693,-242.348 2.20564,-222.843 2.20564,-185 2.20564,-185 2.20564,-185 2.20564,-121 2.20564,-64.6665 189.123,-29.044 269.823,-16.2895"/>
<polygon fill="midnightblue" stroke="midnightblue" points="270.677,-19.699 280.024,-14.71 269.606,-12.7814 270.677,-19.699"/>
</g>
<!-- Node34 -->
<g id="node34" class="node"><title>Node34</title>
<polygon fill="white" stroke="#bfbfbf" points="242.206,-242.5 242.206,-261.5 288.206,-261.5 288.206,-242.5 242.206,-242.5"/>
<text text-anchor="middle" x="265.206" y="-249.5" font-family="Helvetica,sans-Serif" font-size="10.00">stdio.h</text>
</g>
<!-- Node33&#45;&gt;Node34 -->
<g id="edge50" class="edge"><title>Node33&#45;&gt;Node34</title>
<path fill="none" stroke="midnightblue" d="M359.087,-310.372C341.057,-299.353 309.625,-280.145 288.138,-267.014"/>
<polygon fill="midnightblue" stroke="midnightblue" points="289.686,-263.859 279.328,-261.63 286.036,-269.832 289.686,-263.859"/>
</g>
<!-- Node35 -->
<g id="node35" class="node"><title>Node35</title>
<polygon fill="white" stroke="#bfbfbf" points="303.706,-174.5 303.706,-193.5 344.706,-193.5 344.706,-174.5 303.706,-174.5"/>
<text text-anchor="middle" x="324.206" y="-181.5" font-family="Helvetica,sans-Serif" font-size="10.00">string</text>
</g>
<!-- Node33&#45;&gt;Node35 -->
<g id="edge51" class="edge"><title>Node33&#45;&gt;Node35</title>
<path fill="none" stroke="midnightblue" d="M326.155,-315.406C294.182,-310.229 254.048,-297.775 233.206,-268 225.05,-256.349 226.016,-248.271 233.206,-236 246.247,-213.742 272.948,-200.464 294.071,-193.064"/>
<polygon fill="midnightblue" stroke="midnightblue" points="295.174,-196.386 303.611,-189.978 293.019,-189.726 295.174,-196.386"/>
</g>
<!-- Node36 -->
<g id="node36" class="node"><title>Node36</title>
<g id="a_node36"><a xlink:href="StringUtils_8hpp.html" target="_top" xlink:title="Core/String/StringUtils.hpp">
<polygon fill="white" stroke="black" points="306.206,-242.5 306.206,-261.5 440.206,-261.5 440.206,-242.5 306.206,-242.5"/>
<text text-anchor="middle" x="373.206" y="-249.5" font-family="Helvetica,sans-Serif" font-size="10.00">Core/String/StringUtils.hpp</text>
</a>
</g>
</g>
<!-- Node33&#45;&gt;Node36 -->
<g id="edge52" class="edge"><title>Node33&#45;&gt;Node36</title>
<path fill="none" stroke="midnightblue" d="M373.206,-310.372C373.206,-300.643 373.206,-284.528 373.206,-271.85"/>
<polygon fill="midnightblue" stroke="midnightblue" points="376.706,-271.841 373.206,-261.841 369.706,-271.841 376.706,-271.841"/>
</g>
<!-- Node37 -->
<g id="node37" class="node"><title>Node37</title>
<polygon fill="white" stroke="#bfbfbf" points="458.706,-242.5 458.706,-261.5 499.706,-261.5 499.706,-242.5 458.706,-242.5"/>
<text text-anchor="middle" x="479.206" y="-249.5" font-family="Helvetica,sans-Serif" font-size="10.00">ctime</text>
</g>
<!-- Node33&#45;&gt;Node37 -->
<g id="edge56" class="edge"><title>Node33&#45;&gt;Node37</title>
<path fill="none" stroke="midnightblue" d="M387.063,-310.372C404.759,-299.353 435.609,-280.145 456.698,-267.014"/>
<polygon fill="midnightblue" stroke="midnightblue" points="458.706,-269.887 465.345,-261.63 455.006,-263.945 458.706,-269.887"/>
</g>
<!-- Node36&#45;&gt;Node3 -->
<g id="edge53" class="edge"><title>Node36&#45;&gt;Node3</title>
<path fill="none" stroke="midnightblue" d="M384.517,-242.267C407.522,-224.997 462.013,-186.548 514.206,-168 594.189,-139.576 692.577,-129.104 753.342,-125.247"/>
<polygon fill="midnightblue" stroke="midnightblue" points="753.726,-128.731 763.5,-124.642 753.309,-121.743 753.726,-128.731"/>
</g>
<!-- Node36&#45;&gt;Node11 -->
<g id="edge55" class="edge"><title>Node36&#45;&gt;Node11</title>
<path fill="none" stroke="midnightblue" d="M413.741,-242.481C425.181,-240.218 437.657,-237.883 449.206,-236 572.605,-215.884 608.163,-234.952 728.206,-200 730.492,-199.334 732.821,-198.526 735.126,-197.633"/>
<polygon fill="midnightblue" stroke="midnightblue" points="736.534,-200.837 744.306,-193.638 733.74,-194.419 736.534,-200.837"/>
</g>
<!-- Node36&#45;&gt;Node35 -->
<g id="edge54" class="edge"><title>Node36&#45;&gt;Node35</title>
<path fill="none" stroke="midnightblue" d="M366.8,-242.372C359.212,-232.151 346.392,-214.884 336.795,-201.957"/>
<polygon fill="midnightblue" stroke="midnightblue" points="339.541,-199.784 330.77,-193.841 333.92,-203.957 339.541,-199.784"/>
</g>
<!-- Node38&#45;&gt;Node24 -->
<g id="edge59" class="edge"><title>Node38&#45;&gt;Node24</title>
<path fill="none" stroke="midnightblue" d="M685.206,-397.841C693.215,-407.861 703.45,-424.452 709.749,-437.186"/>
<polygon fill="midnightblue" stroke="midnightblue" points="706.574,-438.66 713.838,-446.372 712.969,-435.813 706.574,-438.66"/>
</g>
<!-- Node39&#45;&gt;Node3 -->
<g id="edge62" class="edge"><title>Node39&#45;&gt;Node3</title>
<path fill="none" stroke="midnightblue" d="M1702.24,-377.85C1750.97,-369.664 1810.94,-355.871 1826.21,-336 1838.83,-319.559 1873.02,-219.582 1822.21,-168 1788.51,-133.79 1075.51,-125.198 866.999,-123.413"/>
<polygon fill="midnightblue" stroke="midnightblue" points="866.904,-119.912 856.875,-123.328 866.846,-126.912 866.904,-119.912"/>
</g>
<!-- Node39&#45;&gt;Node13 -->
<g id="edge65" class="edge"><title>Node39&#45;&gt;Node13</title>
<path fill="none" stroke="midnightblue" d="M1608.92,-372.913C1560.49,-346.95 1457.75,-291.883 1410.25,-266.424"/>
<polygon fill="midnightblue" stroke="midnightblue" points="1411.72,-263.243 1401.26,-261.603 1408.42,-269.412 1411.72,-263.243"/>
</g>
<!-- Node39&#45;&gt;Node19 -->
<g id="edge66" class="edge"><title>Node39&#45;&gt;Node19</title>
<path fill="none" stroke="midnightblue" d="M1702.41,-384.181C1790.69,-379.308 1939.73,-366.696 1984.21,-336 2031.03,-303.685 2054.57,-236.384 2063.64,-203.664"/>
<polygon fill="midnightblue" stroke="midnightblue" points="2067.11,-204.207 2066.25,-193.647 2060.34,-202.438 2067.11,-204.207"/>
</g>
<!-- Node39&#45;&gt;Node25 -->
<g id="edge64" class="edge"><title>Node39&#45;&gt;Node25</title>
<path fill="none" stroke="midnightblue" d="M1568.19,-383.591C1435.54,-376.605 1130.19,-359.333 874.206,-336 857.624,-334.489 839.881,-332.613 823.002,-330.706"/>
<polygon fill="midnightblue" stroke="midnightblue" points="822.955,-327.178 812.622,-329.517 822.159,-334.132 822.955,-327.178"/>
</g>
<!-- Node40 -->
<g id="node40" class="node"><title>Node40</title>
<polygon fill="white" stroke="#bfbfbf" points="1720.21,-310.5 1720.21,-329.5 1818.21,-329.5 1818.21,-310.5 1720.21,-310.5"/>
<text text-anchor="middle" x="1769.21" y="-317.5" font-family="Helvetica,sans-Serif" font-size="10.00">Eigen/Eigenvalues</text>
</g>
<!-- Node39&#45;&gt;Node40 -->
<g id="edge63" class="edge"><title>Node39&#45;&gt;Node40</title>
<path fill="none" stroke="midnightblue" d="M1663.95,-372.841C1687.23,-361.374 1719.78,-345.342 1742.5,-334.153"/>
<polygon fill="midnightblue" stroke="midnightblue" points="1744.15,-337.24 1751.58,-329.682 1741.06,-330.961 1744.15,-337.24"/>
</g>
<!-- Node41 -->
<g id="node41" class="node"><title>Node41</title>
<g id="a_node41"><a xlink:href="Obb_8hpp.html" target="_top" xlink:title="Core/Math/Obb.hpp">
<polygon fill="white" stroke="black" points="1874.21,-310.5 1874.21,-329.5 1976.21,-329.5 1976.21,-310.5 1874.21,-310.5"/>
<text text-anchor="middle" x="1925.21" y="-317.5" font-family="Helvetica,sans-Serif" font-size="10.00">Core/Math/Obb.hpp</text>
</a>
</g>
</g>
<!-- Node39&#45;&gt;Node41 -->
<g id="edge67" class="edge"><title>Node39&#45;&gt;Node41</title>
<path fill="none" stroke="midnightblue" d="M1697.3,-372.994C1742.49,-362.784 1805.15,-348.592 1860.21,-336 1866.06,-334.66 1872.22,-333.247 1878.31,-331.846"/>
<polygon fill="midnightblue" stroke="midnightblue" points="1879.47,-335.169 1888.43,-329.513 1877.9,-328.348 1879.47,-335.169"/>
</g>
<!-- Node43 -->
<g id="node43" class="node"><title>Node43</title>
<g id="a_node43"><a xlink:href="PointCloud_8inl.html" target="_top" xlink:title="Core/Geometry/PointCloud\l/PointCloud.inl">
<polygon fill="white" stroke="black" points="1568.21,-305 1568.21,-335 1702.21,-335 1702.21,-305 1568.21,-305"/>
<text text-anchor="start" x="1576.21" y="-323" font-family="Helvetica,sans-Serif" font-size="10.00">Core/Geometry/PointCloud</text>
<text text-anchor="middle" x="1635.21" y="-312" font-family="Helvetica,sans-Serif" font-size="10.00">/PointCloud.inl</text>
</a>
</g>
</g>
<!-- Node39&#45;&gt;Node43 -->
<g id="edge72" class="edge"><title>Node39&#45;&gt;Node43</title>
<path fill="none" stroke="midnightblue" d="M1629.53,-372.679C1628.5,-364.722 1628.21,-354.605 1628.66,-345.436"/>
<polygon fill="midnightblue" stroke="midnightblue" points="1632.16,-345.555 1629.53,-335.293 1625.19,-344.958 1632.16,-345.555"/>
</g>
<!-- Node41&#45;&gt;Node3 -->
<g id="edge68" class="edge"><title>Node41&#45;&gt;Node3</title>
<path fill="none" stroke="midnightblue" d="M1939.59,-310.359C1952.7,-301.561 1971.19,-286.592 1979.21,-268 1984.84,-254.939 1986.34,-248.301 1979.21,-236 1948.63,-183.314 1918.73,-184.892 1860.21,-168 1764.79,-140.461 1072.24,-127.216 867.232,-123.871"/>
<polygon fill="midnightblue" stroke="midnightblue" points="867.041,-120.367 856.986,-123.705 866.928,-127.366 867.041,-120.367"/>
</g>
<!-- Node41&#45;&gt;Node13 -->
<g id="edge69" class="edge"><title>Node41&#45;&gt;Node13</title>
<path fill="none" stroke="midnightblue" d="M1874.13,-310.909C1858.74,-308.567 1841.8,-306.082 1826.21,-304 1700.97,-287.276 1555.29,-271.058 1466.7,-261.555"/>
<polygon fill="midnightblue" stroke="midnightblue" points="1467.03,-258.071 1456.72,-260.487 1466.29,-265.031 1467.03,-258.071"/>
</g>
<!-- Node42 -->
<g id="node42" class="node"><title>Node42</title>
<g id="a_node42"><a xlink:href="Obb_8inl.html" target="_top" xlink:title="Core/Math/Obb.inl">
<polygon fill="white" stroke="black" points="1874.21,-242.5 1874.21,-261.5 1970.21,-261.5 1970.21,-242.5 1874.21,-242.5"/>
<text text-anchor="middle" x="1922.21" y="-249.5" font-family="Helvetica,sans-Serif" font-size="10.00">Core/Math/Obb.inl</text>
</a>
</g>
</g>
<!-- Node41&#45;&gt;Node42 -->
<g id="edge70" class="edge"><title>Node41&#45;&gt;Node42</title>
<path fill="none" stroke="midnightblue" d="M1920.08,-310.372C1917.57,-300.643 1916.36,-284.528 1916.9,-271.85"/>
<polygon fill="midnightblue" stroke="midnightblue" points="1920.39,-272.123 1917.83,-261.841 1913.42,-271.473 1920.39,-272.123"/>
</g>
<!-- Node42&#45;&gt;Node41 -->
<g id="edge71" class="edge"><title>Node42&#45;&gt;Node41</title>
<path fill="none" stroke="midnightblue" d="M1927.38,-261.841C1929.85,-271.563 1931.04,-287.472 1930.52,-300.041"/>
<polygon fill="midnightblue" stroke="midnightblue" points="1927,-300.087 1929.54,-310.372 1933.97,-300.744 1927,-300.087"/>
</g>
<!-- Node43&#45;&gt;Node39 -->
<g id="edge73" class="edge"><title>Node43&#45;&gt;Node39</title>
<path fill="none" stroke="midnightblue" d="M1640.88,-335.293C1641.91,-343.245 1642.2,-353.361 1641.75,-362.532"/>
<polygon fill="midnightblue" stroke="midnightblue" points="1638.25,-362.417 1640.88,-372.679 1645.22,-363.013 1638.25,-362.417"/>
</g>
<!-- Node44&#45;&gt;Node13 -->
<g id="edge75" class="edge"><title>Node44&#45;&gt;Node13</title>
<path fill="none" stroke="midnightblue" d="M1530.29,-440.724C1516.36,-412.751 1482.91,-349.49 1444.21,-304 1432.77,-290.558 1417.68,-277.581 1405.62,-268.082"/>
<polygon fill="midnightblue" stroke="midnightblue" points="1407.54,-265.14 1397.48,-261.822 1403.28,-270.69 1407.54,-265.14"/>
</g>
<!-- Node45&#45;&gt;Node3 -->
<g id="edge77" class="edge"><title>Node45&#45;&gt;Node3</title>
<path fill="none" stroke="midnightblue" d="M93.6512,-242.477C103.358,-224.877 128.32,-184.762 162.206,-168 214.461,-142.151 605.103,-128.7 753.365,-124.484"/>
<polygon fill="midnightblue" stroke="midnightblue" points="753.715,-127.975 763.613,-124.196 753.518,-120.978 753.715,-127.975"/>
</g>
<!-- Node45&#45;&gt;Node17 -->
<g id="edge78" class="edge"><title>Node45&#45;&gt;Node17</title>
<path fill="none" stroke="midnightblue" d="M148.336,-244.038C174.337,-241.184 205.257,-238.072 233.206,-236 413.776,-222.614 869.957,-236.981 1047.21,-200 1050.72,-199.267 1054.33,-198.256 1057.88,-197.103"/>
<polygon fill="midnightblue" stroke="midnightblue" points="1059.34,-200.297 1067.53,-193.587 1056.94,-193.719 1059.34,-200.297"/>
</g>
</g>
</svg>
