<?xml version="1.0" encoding="UTF-8" standalone="no"?>
<!DOCTYPE svg PUBLIC "-//W3C//DTD SVG 1.1//EN"
 "http://www.w3.org/Graphics/SVG/1.1/DTD/svg11.dtd">
<!-- Generated by graphviz version 2.36.0 (20140111.2315)
 -->
<!-- Title: Ra::Core::copyAttribToTopo Pages: 1 -->
<svg width="308pt" height="87pt"
 viewBox="0.00 0.00 308.00 87.00" xmlns="http://www.w3.org/2000/svg" xmlns:xlink="http://www.w3.org/1999/xlink">
<g id="graph0" class="graph" transform="scale(1 1) rotate(0) translate(4 83)">
<title>Ra::Core::copyAttribToTopo</title>
<polygon fill="white" stroke="none" points="-4,4 -4,-83 304,-83 304,4 -4,4"/>
<!-- Node1 -->
<g id="node1" class="node"><title>Node1</title>
<polygon fill="#bfbfbf" stroke="black" points="0,-29.5 0,-48.5 140,-48.5 140,-29.5 0,-29.5"/>
<text text-anchor="middle" x="70" y="-36.5" font-family="Helvetica,sans-Serif" font-size="10.00">Ra::Core::copyAttribToTopo</text>
</g>
<!-- Node2 -->
<g id="node2" class="node"><title>Node2</title>
<g id="a_node2"><a xlink:href="classRa_1_1Core_1_1TriangleMesh.html#a49ec63044477bd5bdff8d57a5114f011" target="_top" xlink:title="Ra::Core::TriangleMesh\l::attribManager">
<polygon fill="white" stroke="black" points="177.5,-49 177.5,-79 298.5,-79 298.5,-49 177.5,-49"/>
<text text-anchor="start" x="185.5" y="-67" font-family="Helvetica,sans-Serif" font-size="10.00">Ra::Core::TriangleMesh</text>
<text text-anchor="middle" x="238" y="-56" font-family="Helvetica,sans-Serif" font-size="10.00">::attribManager</text>
</a>
</g>
</g>
<!-- Node1&#45;&gt;Node2 -->
<g id="edge1" class="edge"><title>Node1&#45;&gt;Node2</title>
<path fill="none" stroke="midnightblue" d="M134.231,-48.5227C145.104,-50.1603 156.458,-51.8702 167.485,-53.5309"/>
<polygon fill="midnightblue" stroke="midnightblue" points="167.088,-57.0105 177.498,-55.0388 168.131,-50.0886 167.088,-57.0105"/>
</g>
<!-- Node3 -->
<g id="node3" class="node"><title>Node3</title>
<g id="a_node3"><a xlink:href="classRa_1_1Core_1_1AttribManager.html#a2344159a1926da905e4c44cd95744d59" target="_top" xlink:title="Get attribute by handle. ">
<polygon fill="white" stroke="black" points="176.5,-0 176.5,-30 299.5,-30 299.5,-0 176.5,-0"/>
<text text-anchor="start" x="184.5" y="-18" font-family="Helvetica,sans-Serif" font-size="10.00">Ra::Core::AttribManager</text>
<text text-anchor="middle" x="238" y="-7" font-family="Helvetica,sans-Serif" font-size="10.00">::getAttrib</text>
</a>
</g>
</g>
<!-- Node1&#45;&gt;Node3 -->
<g id="edge2" class="edge"><title>Node1&#45;&gt;Node3</title>
<path fill="none" stroke="midnightblue" d="M137.085,-29.4456C146.68,-28.0582 156.591,-26.6253 166.274,-25.2254"/>
<polygon fill="midnightblue" stroke="midnightblue" points="166.864,-28.6767 176.26,-23.7817 165.862,-21.7487 166.864,-28.6767"/>
</g>
</g>
</svg>
