<?xml version="1.0" encoding="UTF-8" standalone="no"?>
<!DOCTYPE svg PUBLIC "-//W3C//DTD SVG 1.1//EN"
 "http://www.w3.org/Graphics/SVG/1.1/DTD/svg11.dtd">
<!-- Generated by graphviz version 2.36.0 (20140111.2315)
 -->
<!-- Title: Ra::Core::Animation::computeCoR Pages: 1 -->
<svg width="748pt" height="354pt"
 viewBox="0.00 0.00 748.00 354.00" xmlns="http://www.w3.org/2000/svg" xmlns:xlink="http://www.w3.org/1999/xlink">
<g id="graph0" class="graph" transform="scale(1 1) rotate(0) translate(4 350)">
<title>Ra::Core::Animation::computeCoR</title>
<polygon fill="white" stroke="none" points="-4,4 -4,-350 744,-350 744,4 -4,4"/>
<!-- Node1 -->
<g id="node1" class="node"><title>Node1</title>
<polygon fill="#bfbfbf" stroke="black" points="0,-159 0,-189 106,-189 106,-159 0,-159"/>
<text text-anchor="start" x="8" y="-177" font-family="Helvetica,sans-Serif" font-size="10.00">Ra::Core::Animation</text>
<text text-anchor="middle" x="53" y="-166" font-family="Helvetica,sans-Serif" font-size="10.00">::computeCoR</text>
</g>
<!-- Node2 -->
<g id="node2" class="node"><title>Node2</title>
<g id="a_node2"><a xlink:href="namespaceRa_1_1Core.html#a1992d0f90662705985222f69287915d0" target="_top" xlink:title="Ra::Core::convert">
<polygon fill="white" stroke="black" points="159.5,-300.5 159.5,-319.5 254.5,-319.5 254.5,-300.5 159.5,-300.5"/>
<text text-anchor="middle" x="207" y="-307.5" font-family="Helvetica,sans-Serif" font-size="10.00">Ra::Core::convert</text>
</a>
</g>
</g>
<!-- Node1&#45;&gt;Node2 -->
<g id="edge1" class="edge"><title>Node1&#45;&gt;Node2</title>
<path fill="none" stroke="midnightblue" d="M62.2541,-189.218C75.8856,-213.025 105.283,-259.128 142,-286 147.597,-290.097 153.975,-293.574 160.486,-296.501"/>
<polygon fill="midnightblue" stroke="midnightblue" points="159.462,-299.863 170.043,-300.403 162.108,-293.383 159.462,-299.863"/>
</g>
<!-- Node3 -->
<g id="node3" class="node"><title>Node3</title>
<g id="a_node3"><a xlink:href="classRa_1_1Core_1_1TriangleMesh.html#a495116f40cfec8bb6504698d786d4b8c" target="_top" xlink:title="Ra::Core::TriangleMesh\l::vertices">
<polygon fill="white" stroke="black" points="458.5,-235 458.5,-265 579.5,-265 579.5,-235 458.5,-235"/>
<text text-anchor="start" x="466.5" y="-253" font-family="Helvetica,sans-Serif" font-size="10.00">Ra::Core::TriangleMesh</text>
<text text-anchor="middle" x="519" y="-242" font-family="Helvetica,sans-Serif" font-size="10.00">::vertices</text>
</a>
</g>
</g>
<!-- Node1&#45;&gt;Node3 -->
<g id="edge9" class="edge"><title>Node1&#45;&gt;Node3</title>
<path fill="none" stroke="midnightblue" d="M106.417,-187.317C118.088,-190.056 130.431,-192.778 142,-195 248.121,-215.382 372.37,-232.198 448.106,-241.667"/>
<polygon fill="midnightblue" stroke="midnightblue" points="448.109,-245.194 458.464,-242.954 448.972,-238.248 448.109,-245.194"/>
</g>
<!-- Node6 -->
<g id="node6" class="node"><title>Node6</title>
<g id="a_node6"><a xlink:href="namespaceRa_1_1Core_1_1Algorithm.html#aea294cdb6f4f0d85955bdcccb22886ec" target="_top" xlink:title="Ra::Core::Algorithm::t">
<polygon fill="white" stroke="black" points="308.5,-262.5 308.5,-281.5 421.5,-281.5 421.5,-262.5 308.5,-262.5"/>
<text text-anchor="middle" x="365" y="-269.5" font-family="Helvetica,sans-Serif" font-size="10.00">Ra::Core::Algorithm::t</text>
</a>
</g>
</g>
<!-- Node1&#45;&gt;Node6 -->
<g id="edge10" class="edge"><title>Node1&#45;&gt;Node6</title>
<path fill="none" stroke="midnightblue" d="M66.8323,-189.242C82.5607,-206.749 110.973,-234.756 142,-248 191.555,-269.153 252.739,-274.411 298.317,-274.799"/>
<polygon fill="midnightblue" stroke="midnightblue" points="298.376,-278.299 308.379,-274.808 298.382,-271.299 298.376,-278.299"/>
</g>
<!-- Node7 -->
<g id="node7" class="node"><title>Node7</title>
<g id="a_node7"><a xlink:href="namespaceOpenMesh.html#a8205f789ce08919bc11c58383574596c" target="_top" xlink:title="OpenMesh::norm">
<polygon fill="white" stroke="black" points="473,-52.5 473,-71.5 565,-71.5 565,-52.5 473,-52.5"/>
<text text-anchor="middle" x="519" y="-59.5" font-family="Helvetica,sans-Serif" font-size="10.00">OpenMesh::norm</text>
</a>
</g>
</g>
<!-- Node1&#45;&gt;Node7 -->
<g id="edge7" class="edge"><title>Node1&#45;&gt;Node7</title>
<path fill="none" stroke="midnightblue" d="M62.4568,-158.926C75.955,-136.561 104.695,-95.3664 142,-78 246.8,-29.2131 386.338,-40.2195 462.54,-51.6731"/>
<polygon fill="midnightblue" stroke="midnightblue" points="462.441,-55.2001 472.861,-53.2861 463.522,-48.284 462.441,-55.2001"/>
</g>
<!-- Node8 -->
<g id="node8" class="node"><title>Node8</title>
<g id="a_node8"><a xlink:href="namespaceRa_1_1Core_1_1DcelOperations.html#aaded34dd44fea8859e294864900a11ed" target="_top" xlink:title="Ra::Core::DcelOperations\l::splitEdge">
<polygon fill="white" stroke="black" points="142,-137 142,-167 272,-167 272,-137 142,-137"/>
<text text-anchor="start" x="150" y="-155" font-family="Helvetica,sans-Serif" font-size="10.00">Ra::Core::DcelOperations</text>
<text text-anchor="middle" x="207" y="-144" font-family="Helvetica,sans-Serif" font-size="10.00">::splitEdge</text>
</a>
</g>
</g>
<!-- Node1&#45;&gt;Node8 -->
<g id="edge8" class="edge"><title>Node1&#45;&gt;Node8</title>
<path fill="none" stroke="midnightblue" d="M106.31,-166.429C114.519,-165.241 123.138,-163.993 131.727,-162.75"/>
<polygon fill="midnightblue" stroke="midnightblue" points="132.375,-166.193 141.771,-161.296 131.372,-159.265 132.375,-166.193"/>
</g>
<!-- Node9 -->
<g id="node9" class="node"><title>Node9</title>
<g id="a_node9"><a xlink:href="namespaceRa_1_1Core_1_1MeshUtils.html#afbee0fe3203a295fb1f93b33dfb33f81" target="_top" xlink:title="Fills the given array with the vertices of a given triangle. ">
<polygon fill="white" stroke="black" points="311.5,-175 311.5,-205 418.5,-205 418.5,-175 311.5,-175"/>
<text text-anchor="start" x="319.5" y="-193" font-family="Helvetica,sans-Serif" font-size="10.00">Ra::Core::MeshUtils</text>
<text text-anchor="middle" x="365" y="-182" font-family="Helvetica,sans-Serif" font-size="10.00">::getTriangleVertices</text>
</a>
</g>
</g>
<!-- Node1&#45;&gt;Node9 -->
<g id="edge11" class="edge"><title>Node1&#45;&gt;Node9</title>
<path fill="none" stroke="midnightblue" d="M106.237,-176.696C160.036,-179.473 243.896,-183.801 301.256,-186.762"/>
<polygon fill="midnightblue" stroke="midnightblue" points="301.122,-190.259 311.29,-187.279 301.483,-183.269 301.122,-190.259"/>
</g>
<!-- Node10 -->
<g id="node10" class="node"><title>Node10</title>
<g id="a_node10"><a xlink:href="namespaceRa_1_1Core_1_1MeshUtils.html#a746199d436bb1dc31c4bccb3953743b9" target="_top" xlink:title="Returns the area of a given triangle. ">
<polygon fill="white" stroke="black" points="153.5,-88 153.5,-118 260.5,-118 260.5,-88 153.5,-88"/>
<text text-anchor="start" x="161.5" y="-106" font-family="Helvetica,sans-Serif" font-size="10.00">Ra::Core::MeshUtils</text>
<text text-anchor="middle" x="207" y="-95" font-family="Helvetica,sans-Serif" font-size="10.00">::getTriangleArea</text>
</a>
</g>
</g>
<!-- Node1&#45;&gt;Node10 -->
<g id="edge13" class="edge"><title>Node1&#45;&gt;Node10</title>
<path fill="none" stroke="midnightblue" d="M80.9703,-158.924C98.1938,-149.541 121.131,-137.496 142,-128 146.448,-125.976 151.112,-123.959 155.808,-122"/>
<polygon fill="midnightblue" stroke="midnightblue" points="157.497,-125.091 165.434,-118.074 154.853,-118.609 157.497,-125.091"/>
</g>
<!-- Node13 -->
<g id="node13" class="node"><title>Node13</title>
<g id="a_node13"><a xlink:href="namespaceRa_1_1Core_1_1Animation.html#a71236244c5603a8a5bc63595db9b7717" target="_top" xlink:title="Computes the similarity between two weights vector. ">
<polygon fill="white" stroke="black" points="154,-0 154,-30 260,-30 260,-0 154,-0"/>
<text text-anchor="start" x="162" y="-18" font-family="Helvetica,sans-Serif" font-size="10.00">Ra::Core::Animation</text>
<text text-anchor="middle" x="207" y="-7" font-family="Helvetica,sans-Serif" font-size="10.00">::weightSimilarity</text>
</a>
</g>
</g>
<!-- Node1&#45;&gt;Node13 -->
<g id="edge18" class="edge"><title>Node1&#45;&gt;Node13</title>
<path fill="none" stroke="midnightblue" d="M60.9105,-158.942C73.6122,-132.698 102.984,-78.2138 142,-45 146.43,-41.2291 151.413,-37.8261 156.594,-34.7839"/>
<polygon fill="midnightblue" stroke="midnightblue" points="158.304,-37.8385 165.436,-30.0037 154.975,-31.6808 158.304,-37.8385"/>
</g>
<!-- Node2&#45;&gt;Node3 -->
<g id="edge2" class="edge"><title>Node2&#45;&gt;Node3</title>
<path fill="none" stroke="midnightblue" d="M254.618,-310.056C298.445,-309.13 365.567,-305.175 422,-291 441.873,-286.008 462.917,-277.428 480.222,-269.404"/>
<polygon fill="midnightblue" stroke="midnightblue" points="481.893,-272.485 489.42,-265.029 478.886,-266.163 481.893,-272.485"/>
</g>
<!-- Node5 -->
<g id="node5" class="node"><title>Node5</title>
<g id="a_node5"><a xlink:href="classRa_1_1Core_1_1TriangleMesh.html#a40d31b7b2943947d6eac5d906f0182fd" target="_top" xlink:title="Ra::Core::TriangleMesh\l::normals">
<polygon fill="white" stroke="black" points="458.5,-316 458.5,-346 579.5,-346 579.5,-316 458.5,-316"/>
<text text-anchor="start" x="466.5" y="-334" font-family="Helvetica,sans-Serif" font-size="10.00">Ra::Core::TriangleMesh</text>
<text text-anchor="middle" x="519" y="-323" font-family="Helvetica,sans-Serif" font-size="10.00">::normals</text>
</a>
</g>
</g>
<!-- Node2&#45;&gt;Node5 -->
<g id="edge4" class="edge"><title>Node2&#45;&gt;Node5</title>
<path fill="none" stroke="midnightblue" d="M254.688,-317.579C271.455,-320.024 290.535,-322.491 308,-324 354.57,-328.025 407.135,-329.774 448.024,-330.518"/>
<polygon fill="midnightblue" stroke="midnightblue" points="448.101,-334.019 458.157,-330.686 448.217,-327.02 448.101,-334.019"/>
</g>
<!-- Node2&#45;&gt;Node6 -->
<g id="edge6" class="edge"><title>Node2&#45;&gt;Node6</title>
<path fill="none" stroke="midnightblue" d="M247.365,-300.411C267.951,-295.396 293.34,-289.212 315.169,-283.895"/>
<polygon fill="midnightblue" stroke="midnightblue" points="316.03,-287.287 324.918,-281.52 314.373,-280.486 316.03,-287.287"/>
</g>
<!-- Node4 -->
<g id="node4" class="node"><title>Node4</title>
<g id="a_node4"><a xlink:href="classRa_1_1Core_1_1AttribManager.html#a2344159a1926da905e4c44cd95744d59" target="_top" xlink:title="Get attribute by handle. ">
<polygon fill="white" stroke="black" points="616.5,-275 616.5,-305 739.5,-305 739.5,-275 616.5,-275"/>
<text text-anchor="start" x="624.5" y="-293" font-family="Helvetica,sans-Serif" font-size="10.00">Ra::Core::AttribManager</text>
<text text-anchor="middle" x="678" y="-282" font-family="Helvetica,sans-Serif" font-size="10.00">::getAttrib</text>
</a>
</g>
</g>
<!-- Node3&#45;&gt;Node4 -->
<g id="edge3" class="edge"><title>Node3&#45;&gt;Node4</title>
<path fill="none" stroke="midnightblue" d="M578.908,-265.008C588.501,-267.452 598.511,-270.003 608.313,-272.5"/>
<polygon fill="midnightblue" stroke="midnightblue" points="607.469,-275.897 618.023,-274.974 609.197,-269.113 607.469,-275.897"/>
</g>
<!-- Node5&#45;&gt;Node4 -->
<g id="edge5" class="edge"><title>Node5&#45;&gt;Node4</title>
<path fill="none" stroke="midnightblue" d="M577.57,-315.966C588.022,-313.236 599.009,-310.367 609.712,-307.572"/>
<polygon fill="midnightblue" stroke="midnightblue" points="610.646,-310.945 619.437,-305.032 608.878,-304.173 610.646,-310.945"/>
</g>
<!-- Node9&#45;&gt;Node3 -->
<g id="edge12" class="edge"><title>Node9&#45;&gt;Node3</title>
<path fill="none" stroke="midnightblue" d="M404.356,-205.141C424.414,-213.058 449.152,-222.823 470.421,-231.219"/>
<polygon fill="midnightblue" stroke="midnightblue" points="469.333,-234.552 479.92,-234.968 471.903,-228.041 469.333,-234.552"/>
</g>
<!-- Node10&#45;&gt;Node9 -->
<g id="edge14" class="edge"><title>Node10&#45;&gt;Node9</title>
<path fill="none" stroke="midnightblue" d="M250.589,-118.114C257.857,-121.122 265.238,-124.456 272,-128 294.578,-139.832 318.399,-156 336.144,-168.859"/>
<polygon fill="midnightblue" stroke="midnightblue" points="334.203,-171.776 344.335,-174.873 338.346,-166.133 334.203,-171.776"/>
</g>
<!-- Node11 -->
<g id="node11" class="node"><title>Node11</title>
<g id="a_node11"><a xlink:href="namespaceRa_1_1Core_1_1Geometry.html#a178f2b7309fe2ea5bc31a3abcb25368e" target="_top" xlink:title="Ra::Core::Geometry\l::triangleArea">
<polygon fill="white" stroke="black" points="312.5,-88 312.5,-118 417.5,-118 417.5,-88 312.5,-88"/>
<text text-anchor="start" x="320.5" y="-106" font-family="Helvetica,sans-Serif" font-size="10.00">Ra::Core::Geometry</text>
<text text-anchor="middle" x="365" y="-95" font-family="Helvetica,sans-Serif" font-size="10.00">::triangleArea</text>
</a>
</g>
</g>
<!-- Node10&#45;&gt;Node11 -->
<g id="edge15" class="edge"><title>Node10&#45;&gt;Node11</title>
<path fill="none" stroke="midnightblue" d="M260.814,-103C274.057,-103 288.384,-103 302.027,-103"/>
<polygon fill="midnightblue" stroke="midnightblue" points="302.298,-106.5 312.298,-103 302.298,-99.5001 302.298,-106.5"/>
</g>
<!-- Node11&#45;&gt;Node7 -->
<g id="edge17" class="edge"><title>Node11&#45;&gt;Node7</title>
<path fill="none" stroke="midnightblue" d="M417.885,-89.0048C435.714,-84.1956 455.519,-78.8535 472.776,-74.1985"/>
<polygon fill="midnightblue" stroke="midnightblue" points="473.865,-77.53 482.608,-71.5464 472.042,-70.7715 473.865,-77.53"/>
</g>
<!-- Node12 -->
<g id="node12" class="node"><title>Node12</title>
<g id="a_node12"><a xlink:href="namespaceOpenMesh.html#a71e7f1dd3eac016d2b8245ac408a291c" target="_top" xlink:title="OpenMesh::cross">
<polygon fill="white" stroke="black" points="472,-93.5 472,-112.5 566,-112.5 566,-93.5 472,-93.5"/>
<text text-anchor="middle" x="519" y="-100.5" font-family="Helvetica,sans-Serif" font-size="10.00">OpenMesh::cross</text>
</a>
</g>
</g>
<!-- Node11&#45;&gt;Node12 -->
<g id="edge16" class="edge"><title>Node11&#45;&gt;Node12</title>
<path fill="none" stroke="midnightblue" d="M417.885,-103C432.002,-103 447.359,-103 461.708,-103"/>
<polygon fill="midnightblue" stroke="midnightblue" points="461.947,-106.5 471.947,-103 461.947,-99.5001 461.947,-106.5"/>
</g>
</g>
</svg>
