<?xml version="1.0" encoding="UTF-8" standalone="no"?>
<!DOCTYPE svg PUBLIC "-//W3C//DTD SVG 1.1//EN"
 "http://www.w3.org/Graphics/SVG/1.1/DTD/svg11.dtd">
<!-- Generated by graphviz version 2.36.0 (20140111.2315)
 -->
<!-- Title: Ra::Core::addAttribPairToTopo Pages: 1 -->
<svg width="320pt" height="136pt"
 viewBox="0.00 0.00 320.00 136.00" xmlns="http://www.w3.org/2000/svg" xmlns:xlink="http://www.w3.org/1999/xlink">
<g id="graph0" class="graph" transform="scale(1 1) rotate(0) translate(4 132)">
<title>Ra::Core::addAttribPairToTopo</title>
<polygon fill="white" stroke="none" points="-4,4 -4,-132 316,-132 316,4 -4,4"/>
<!-- Node1 -->
<g id="node1" class="node"><title>Node1</title>
<polygon fill="#bfbfbf" stroke="black" points="0,-54.5 0,-73.5 152,-73.5 152,-54.5 0,-54.5"/>
<text text-anchor="middle" x="76" y="-61.5" font-family="Helvetica,sans-Serif" font-size="10.00">Ra::Core::addAttribPairToTopo</text>
</g>
<!-- Node2 -->
<g id="node2" class="node"><title>Node2</title>
<g id="a_node2"><a xlink:href="classRa_1_1Core_1_1TriangleMesh.html#a49ec63044477bd5bdff8d57a5114f011" target="_top" xlink:title="Ra::Core::TriangleMesh\l::attribManager">
<polygon fill="white" stroke="black" points="189.5,-98 189.5,-128 310.5,-128 310.5,-98 189.5,-98"/>
<text text-anchor="start" x="197.5" y="-116" font-family="Helvetica,sans-Serif" font-size="10.00">Ra::Core::TriangleMesh</text>
<text text-anchor="middle" x="250" y="-105" font-family="Helvetica,sans-Serif" font-size="10.00">::attribManager</text>
</a>
</g>
</g>
<!-- Node1&#45;&gt;Node2 -->
<g id="edge1" class="edge"><title>Node1&#45;&gt;Node2</title>
<path fill="none" stroke="midnightblue" d="M110.572,-73.564C132.157,-79.7134 160.869,-87.8928 186.546,-95.2078"/>
<polygon fill="midnightblue" stroke="midnightblue" points="185.641,-98.5892 196.217,-97.963 187.559,-91.8571 185.641,-98.5892"/>
</g>
<!-- Node3 -->
<g id="node3" class="node"><title>Node3</title>
<g id="a_node3"><a xlink:href="classRa_1_1Core_1_1AttribManager.html#a97c505630ee31ba828c08eeb04ec3ac5" target="_top" xlink:title="getAttrib Grab an attribute handler by name ">
<polygon fill="white" stroke="black" points="188.5,-49 188.5,-79 311.5,-79 311.5,-49 188.5,-49"/>
<text text-anchor="start" x="196.5" y="-67" font-family="Helvetica,sans-Serif" font-size="10.00">Ra::Core::AttribManager</text>
<text text-anchor="middle" x="250" y="-56" font-family="Helvetica,sans-Serif" font-size="10.00">::getAttribHandle</text>
</a>
</g>
</g>
<!-- Node1&#45;&gt;Node3 -->
<g id="edge2" class="edge"><title>Node1&#45;&gt;Node3</title>
<path fill="none" stroke="midnightblue" d="M152.191,-64C160.898,-64 169.754,-64 178.396,-64"/>
<polygon fill="midnightblue" stroke="midnightblue" points="178.421,-67.5001 188.421,-64 178.421,-60.5001 178.421,-67.5001"/>
</g>
<!-- Node4 -->
<g id="node4" class="node"><title>Node4</title>
<g id="a_node4"><a xlink:href="classRa_1_1Core_1_1AttribBase.html#a8bc2827bfe23f9c6def2647a946ebdc8" target="_top" xlink:title="Ra::Core::AttribBase\l::getName">
<polygon fill="white" stroke="black" points="196,-0 196,-30 304,-30 304,-0 196,-0"/>
<text text-anchor="start" x="204" y="-18" font-family="Helvetica,sans-Serif" font-size="10.00">Ra::Core::AttribBase</text>
<text text-anchor="middle" x="250" y="-7" font-family="Helvetica,sans-Serif" font-size="10.00">::getName</text>
</a>
</g>
</g>
<!-- Node1&#45;&gt;Node4 -->
<g id="edge3" class="edge"><title>Node1&#45;&gt;Node4</title>
<path fill="none" stroke="midnightblue" d="M110.572,-54.436C132.157,-48.2866 160.869,-40.1072 186.546,-32.7922"/>
<polygon fill="midnightblue" stroke="midnightblue" points="187.559,-36.1429 196.217,-30.037 185.641,-29.4108 187.559,-36.1429"/>
</g>
</g>
</svg>
