<?xml version="1.0" encoding="UTF-8" standalone="no"?>
<!DOCTYPE svg PUBLIC "-//W3C//DTD SVG 1.1//EN"
 "http://www.w3.org/Graphics/SVG/1.1/DTD/svg11.dtd">
<!-- Generated by graphviz version 2.36.0 (20140111.2315)
 -->
<!-- Title: /home/travis/build/STORM&#45;IRIT/Radium&#45;Engine/src/Core/File/deprecated/OBJFileManager.cpp Pages: 1 -->
<svg width="1967pt" height="626pt"
 viewBox="0.00 0.00 1967.00 626.00" xmlns="http://www.w3.org/2000/svg" xmlns:xlink="http://www.w3.org/1999/xlink">
<g id="graph0" class="graph" transform="scale(1 1) rotate(0) translate(4 622)">
<title>/home/travis/build/STORM&#45;IRIT/Radium&#45;Engine/src/Core/File/deprecated/OBJFileManager.cpp</title>
<polygon fill="white" stroke="none" points="-4,4 -4,-622 1963,-622 1963,4 -4,4"/>
<!-- Node1 -->
<g id="node1" class="node"><title>Node1</title>
<polygon fill="#bfbfbf" stroke="black" points="56,-565 56,-617 204,-617 204,-565 56,-565"/>
<text text-anchor="start" x="64" y="-605" font-family="Helvetica,sans-Serif" font-size="10.00">/home/travis/build</text>
<text text-anchor="start" x="64" y="-594" font-family="Helvetica,sans-Serif" font-size="10.00">/STORM&#45;IRIT/Radium&#45;Engine</text>
<text text-anchor="start" x="64" y="-583" font-family="Helvetica,sans-Serif" font-size="10.00">/src/Core/File/deprecated</text>
<text text-anchor="middle" x="130" y="-572" font-family="Helvetica,sans-Serif" font-size="10.00">/OBJFileManager.cpp</text>
</g>
<!-- Node2 -->
<g id="node2" class="node"><title>Node2</title>
<g id="a_node2"><a xlink:href="OBJFileManager_8hpp.html" target="_top" xlink:title="Core/File/deprecated\l/OBJFileManager.hpp">
<polygon fill="white" stroke="black" points="74.5,-497 74.5,-527 185.5,-527 185.5,-497 74.5,-497"/>
<text text-anchor="start" x="82.5" y="-515" font-family="Helvetica,sans-Serif" font-size="10.00">Core/File/deprecated</text>
<text text-anchor="middle" x="130" y="-504" font-family="Helvetica,sans-Serif" font-size="10.00">/OBJFileManager.hpp</text>
</a>
</g>
</g>
<!-- Node1&#45;&gt;Node2 -->
<g id="edge1" class="edge"><title>Node1&#45;&gt;Node2</title>
<path fill="none" stroke="midnightblue" d="M130,-564.787C130,-556.029 130,-546.225 130,-537.523"/>
<polygon fill="midnightblue" stroke="midnightblue" points="133.5,-537.252 130,-527.252 126.5,-537.252 133.5,-537.252"/>
</g>
<!-- Node3 -->
<g id="node3" class="node"><title>Node3</title>
<g id="a_node3"><a xlink:href="FileManager_8hpp.html" target="_top" xlink:title="Core/File/deprecated\l/FileManager.hpp">
<polygon fill="white" stroke="black" points="76.5,-429 76.5,-459 183.5,-459 183.5,-429 76.5,-429"/>
<text text-anchor="start" x="84.5" y="-447" font-family="Helvetica,sans-Serif" font-size="10.00">Core/File/deprecated</text>
<text text-anchor="middle" x="130" y="-436" font-family="Helvetica,sans-Serif" font-size="10.00">/FileManager.hpp</text>
</a>
</g>
</g>
<!-- Node2&#45;&gt;Node3 -->
<g id="edge2" class="edge"><title>Node2&#45;&gt;Node3</title>
<path fill="none" stroke="midnightblue" d="M130,-496.679C130,-488.722 130,-478.605 130,-469.436"/>
<polygon fill="midnightblue" stroke="midnightblue" points="133.5,-469.293 130,-459.293 126.5,-469.293 133.5,-469.293"/>
</g>
<!-- Node7 -->
<g id="node7" class="node"><title>Node7</title>
<g id="a_node7"><a xlink:href="TriangleMesh_8hpp.html" target="_top" xlink:title="Core/Mesh/TriangleMesh.hpp">
<polygon fill="white" stroke="black" points="527.5,-434.5 527.5,-453.5 672.5,-453.5 672.5,-434.5 527.5,-434.5"/>
<text text-anchor="middle" x="600" y="-441.5" font-family="Helvetica,sans-Serif" font-size="10.00">Core/Mesh/TriangleMesh.hpp</text>
</a>
</g>
</g>
<!-- Node2&#45;&gt;Node7 -->
<g id="edge7" class="edge"><title>Node2&#45;&gt;Node7</title>
<path fill="none" stroke="midnightblue" d="M185.761,-503.17C271.394,-491.145 435.205,-468.141 529.134,-454.951"/>
<polygon fill="midnightblue" stroke="midnightblue" points="529.7,-458.406 539.116,-453.55 528.727,-451.474 529.7,-458.406"/>
</g>
<!-- Node10 -->
<g id="node10" class="node"><title>Node10</title>
<g id="a_node10"><a xlink:href="RaCore_8hpp.html" target="_top" xlink:title="Core/RaCore.hpp">
<polygon fill="white" stroke="black" points="613.5,-112.5 613.5,-131.5 706.5,-131.5 706.5,-112.5 613.5,-112.5"/>
<text text-anchor="middle" x="660" y="-119.5" font-family="Helvetica,sans-Serif" font-size="10.00">Core/RaCore.hpp</text>
</a>
</g>
</g>
<!-- Node2&#45;&gt;Node10 -->
<g id="edge58" class="edge"><title>Node2&#45;&gt;Node10</title>
<path fill="none" stroke="midnightblue" d="M100.501,-496.984C62.1455,-476.466 0,-434.371 0,-377 0,-377 0,-377 0,-251 0,-127.58 144.253,-193.545 265,-168 383.908,-142.844 526.129,-131.004 603.327,-126.063"/>
<polygon fill="midnightblue" stroke="midnightblue" points="603.562,-129.555 613.324,-125.439 603.126,-122.569 603.562,-129.555"/>
</g>
<!-- Node4 -->
<g id="node4" class="node"><title>Node4</title>
<polygon fill="white" stroke="#bfbfbf" points="154,-366.5 154,-385.5 204,-385.5 204,-366.5 154,-366.5"/>
<text text-anchor="middle" x="179" y="-373.5" font-family="Helvetica,sans-Serif" font-size="10.00">fstream</text>
</g>
<!-- Node3&#45;&gt;Node4 -->
<g id="edge3" class="edge"><title>Node3&#45;&gt;Node4</title>
<path fill="none" stroke="midnightblue" d="M140.632,-428.679C148.197,-418.49 158.391,-404.759 166.37,-394.011"/>
<polygon fill="midnightblue" stroke="midnightblue" points="169.295,-395.944 172.446,-385.828 163.674,-391.771 169.295,-395.944"/>
</g>
<!-- Node5 -->
<g id="node5" class="node"><title>Node5</title>
<polygon fill="white" stroke="#bfbfbf" points="298.5,-174.5 298.5,-193.5 339.5,-193.5 339.5,-174.5 298.5,-174.5"/>
<text text-anchor="middle" x="319" y="-181.5" font-family="Helvetica,sans-Serif" font-size="10.00">string</text>
</g>
<!-- Node3&#45;&gt;Node5 -->
<g id="edge4" class="edge"><title>Node3&#45;&gt;Node5</title>
<path fill="none" stroke="midnightblue" d="M161.681,-428.794C178.518,-420.041 198.643,-407.518 213,-392 266.904,-333.735 300.53,-242.883 313.233,-203.855"/>
<polygon fill="midnightblue" stroke="midnightblue" points="316.705,-204.483 316.383,-193.893 310.031,-202.373 316.705,-204.483"/>
</g>
<!-- Node6 -->
<g id="node6" class="node"><title>Node6</title>
<g id="a_node6"><a xlink:href="FileManager_8inl.html" target="_top" xlink:title="Core/File/deprecated\l/FileManager.inl">
<polygon fill="white" stroke="black" points="28.5,-361 28.5,-391 135.5,-391 135.5,-361 28.5,-361"/>
<text text-anchor="start" x="36.5" y="-379" font-family="Helvetica,sans-Serif" font-size="10.00">Core/File/deprecated</text>
<text text-anchor="middle" x="82" y="-368" font-family="Helvetica,sans-Serif" font-size="10.00">/FileManager.inl</text>
</a>
</g>
</g>
<!-- Node3&#45;&gt;Node6 -->
<g id="edge5" class="edge"><title>Node3&#45;&gt;Node6</title>
<path fill="none" stroke="midnightblue" d="M113.906,-428.679C106.721,-420.29 98.6117,-409.499 92.2268,-399.949"/>
<polygon fill="midnightblue" stroke="midnightblue" points="95.0407,-397.852 86.7202,-391.293 89.1345,-401.609 95.0407,-397.852"/>
</g>
<!-- Node6&#45;&gt;Node3 -->
<g id="edge6" class="edge"><title>Node6&#45;&gt;Node3</title>
<path fill="none" stroke="midnightblue" d="M98.0698,-391.293C105.253,-399.677 113.363,-410.467 119.752,-420.019"/>
<polygon fill="midnightblue" stroke="midnightblue" points="116.941,-422.122 125.263,-428.679 122.847,-418.363 116.941,-422.122"/>
</g>
<!-- Node8 -->
<g id="node8" class="node"><title>Node8</title>
<g id="a_node8"><a xlink:href="VectorArray_8hpp.html" target="_top" xlink:title="Core/Containers/VectorArray.hpp">
<polygon fill="white" stroke="black" points="688.5,-304.5 688.5,-323.5 849.5,-323.5 849.5,-304.5 688.5,-304.5"/>
<text text-anchor="middle" x="769" y="-311.5" font-family="Helvetica,sans-Serif" font-size="10.00">Core/Containers/VectorArray.hpp</text>
</a>
</g>
</g>
<!-- Node7&#45;&gt;Node8 -->
<g id="edge8" class="edge"><title>Node7&#45;&gt;Node8</title>
<path fill="none" stroke="midnightblue" d="M649.504,-434.468C677.858,-427.339 712.383,-414.552 736,-392 752.48,-376.263 761.149,-350.946 765.395,-333.671"/>
<polygon fill="midnightblue" stroke="midnightblue" points="768.866,-334.178 767.584,-323.661 762.028,-332.682 768.866,-334.178"/>
</g>
<!-- Node7&#45;&gt;Node10 -->
<g id="edge42" class="edge"><title>Node7&#45;&gt;Node10</title>
<path fill="none" stroke="midnightblue" d="M563.691,-434.453C532.369,-426.209 486.545,-412.024 450,-392 342.479,-333.088 207.693,-259.765 289,-168 309.467,-144.901 504.447,-131.28 603.228,-125.808"/>
<polygon fill="midnightblue" stroke="midnightblue" points="603.547,-129.296 613.342,-125.258 603.167,-122.306 603.547,-129.296"/>
</g>
<!-- Node19 -->
<g id="node19" class="node"><title>Node19</title>
<g id="a_node19"><a xlink:href="LinearAlgebra_8hpp.html" target="_top" xlink:title="Core/Math/LinearAlgebra.hpp">
<polygon fill="white" stroke="black" points="1195.5,-242.5 1195.5,-261.5 1338.5,-261.5 1338.5,-242.5 1195.5,-242.5"/>
<text text-anchor="middle" x="1267" y="-249.5" font-family="Helvetica,sans-Serif" font-size="10.00">Core/Math/LinearAlgebra.hpp</text>
</a>
</g>
</g>
<!-- Node7&#45;&gt;Node19 -->
<g id="edge35" class="edge"><title>Node7&#45;&gt;Node19</title>
<path fill="none" stroke="midnightblue" d="M629.955,-434.467C737.701,-403.775 1105.6,-298.976 1227.45,-264.267"/>
<polygon fill="midnightblue" stroke="midnightblue" points="1228.47,-267.615 1237.13,-261.51 1226.55,-260.883 1228.47,-267.615"/>
</g>
<!-- Node30 -->
<g id="node30" class="node"><title>Node30</title>
<g id="a_node30"><a xlink:href="MeshTypes_8hpp.html" target="_top" xlink:title="Core/Mesh/MeshTypes.hpp">
<polygon fill="white" stroke="black" points="1319.5,-304.5 1319.5,-323.5 1456.5,-323.5 1456.5,-304.5 1319.5,-304.5"/>
<text text-anchor="middle" x="1388" y="-311.5" font-family="Helvetica,sans-Serif" font-size="10.00">Core/Mesh/MeshTypes.hpp</text>
</a>
</g>
</g>
<!-- Node7&#45;&gt;Node30 -->
<g id="edge36" class="edge"><title>Node7&#45;&gt;Node30</title>
<path fill="none" stroke="midnightblue" d="M672.719,-441.76C780.151,-438.717 987.118,-428.218 1159,-392 1232.68,-376.475 1315.63,-344.86 1358.62,-327.355"/>
<polygon fill="midnightblue" stroke="midnightblue" points="1360,-330.573 1367.92,-323.535 1357.34,-324.099 1360,-330.573"/>
</g>
<!-- Node34 -->
<g id="node34" class="node"><title>Node34</title>
<g id="a_node34"><a xlink:href="Attribs_8hpp.html" target="_top" xlink:title="Core/Utils/Attribs.hpp">
<polygon fill="white" stroke="black" points="616.5,-366.5 616.5,-385.5 727.5,-385.5 727.5,-366.5 616.5,-366.5"/>
<text text-anchor="middle" x="672" y="-373.5" font-family="Helvetica,sans-Serif" font-size="10.00">Core/Utils/Attribs.hpp</text>
</a>
</g>
</g>
<!-- Node7&#45;&gt;Node34 -->
<g id="edge43" class="edge"><title>Node7&#45;&gt;Node34</title>
<path fill="none" stroke="midnightblue" d="M609.413,-434.372C620.884,-423.856 640.492,-405.882 654.71,-392.85"/>
<polygon fill="midnightblue" stroke="midnightblue" points="657.349,-395.178 662.355,-385.841 652.619,-390.018 657.349,-395.178"/>
</g>
<!-- Node39 -->
<g id="node39" class="node"><title>Node39</title>
<g id="a_node39"><a xlink:href="TriangleMesh_8inl.html" target="_top" xlink:title="Core/Mesh/TriangleMesh.inl">
<polygon fill="white" stroke="black" points="459.5,-366.5 459.5,-385.5 598.5,-385.5 598.5,-366.5 459.5,-366.5"/>
<text text-anchor="middle" x="529" y="-373.5" font-family="Helvetica,sans-Serif" font-size="10.00">Core/Mesh/TriangleMesh.inl</text>
</a>
</g>
</g>
<!-- Node7&#45;&gt;Node39 -->
<g id="edge56" class="edge"><title>Node7&#45;&gt;Node39</title>
<path fill="none" stroke="midnightblue" d="M585.987,-434.372C572.564,-423.955 553.092,-406.217 540.54,-393.216"/>
<polygon fill="midnightblue" stroke="midnightblue" points="543.088,-390.817 533.735,-385.841 537.944,-395.564 543.088,-390.817"/>
</g>
<!-- Node9 -->
<g id="node9" class="node"><title>Node9</title>
<g id="a_node9"><a xlink:href="AlignedStdVector_8hpp.html" target="_top" xlink:title="Core/Containers/AlignedStd\lVector.hpp">
<polygon fill="white" stroke="black" points="770,-237 770,-267 908,-267 908,-237 770,-237"/>
<text text-anchor="start" x="778" y="-255" font-family="Helvetica,sans-Serif" font-size="10.00">Core/Containers/AlignedStd</text>
<text text-anchor="middle" x="839" y="-244" font-family="Helvetica,sans-Serif" font-size="10.00">Vector.hpp</text>
</a>
</g>
</g>
<!-- Node8&#45;&gt;Node9 -->
<g id="edge9" class="edge"><title>Node8&#45;&gt;Node9</title>
<path fill="none" stroke="midnightblue" d="M779.029,-304.403C788.333,-296.429 802.547,-284.245 814.803,-273.74"/>
<polygon fill="midnightblue" stroke="midnightblue" points="817.188,-276.306 822.502,-267.141 812.632,-270.991 817.188,-276.306"/>
</g>
<!-- Node8&#45;&gt;Node10 -->
<g id="edge33" class="edge"><title>Node8&#45;&gt;Node10</title>
<path fill="none" stroke="midnightblue" d="M764.033,-304.342C747.294,-275.163 692.723,-180.04 670.035,-140.492"/>
<polygon fill="midnightblue" stroke="midnightblue" points="673.008,-138.641 664.996,-131.708 666.936,-142.124 673.008,-138.641"/>
</g>
<!-- Node18 -->
<g id="node18" class="node"><title>Node18</title>
<polygon fill="white" stroke="#bfbfbf" points="726,-174.5 726,-193.5 770,-193.5 770,-174.5 726,-174.5"/>
<text text-anchor="middle" x="748" y="-181.5" font-family="Helvetica,sans-Serif" font-size="10.00">vector</text>
</g>
<!-- Node8&#45;&gt;Node18 -->
<g id="edge34" class="edge"><title>Node8&#45;&gt;Node18</title>
<path fill="none" stroke="midnightblue" d="M767.414,-304.382C765.76,-295.331 763.12,-280.679 761,-268 757.326,-246.026 753.408,-220.724 750.845,-203.89"/>
<polygon fill="midnightblue" stroke="midnightblue" points="754.265,-203.096 749.307,-193.733 747.344,-204.144 754.265,-203.096"/>
</g>
<!-- Node8&#45;&gt;Node19 -->
<g id="edge19" class="edge"><title>Node8&#45;&gt;Node19</title>
<path fill="none" stroke="midnightblue" d="M839.559,-304.499C931.039,-293.477 1090.22,-274.299 1186.37,-262.714"/>
<polygon fill="midnightblue" stroke="midnightblue" points="1186.83,-266.184 1196.34,-261.513 1185.99,-259.235 1186.83,-266.184"/>
</g>
<!-- Node9&#45;&gt;Node10 -->
<g id="edge10" class="edge"><title>Node9&#45;&gt;Node10</title>
<path fill="none" stroke="midnightblue" d="M831.854,-236.709C822.041,-218.418 802.758,-186.848 778,-168 757.409,-152.325 730.72,-141.538 707.935,-134.464"/>
<polygon fill="midnightblue" stroke="midnightblue" points="708.69,-131.038 698.108,-131.564 706.708,-137.751 708.69,-131.038"/>
</g>
<!-- Node17 -->
<g id="node17" class="node"><title>Node17</title>
<polygon fill="white" stroke="#bfbfbf" points="826,-174.5 826,-193.5 914,-193.5 914,-174.5 826,-174.5"/>
<text text-anchor="middle" x="870" y="-181.5" font-family="Helvetica,sans-Serif" font-size="10.00">Eigen/StdVector</text>
</g>
<!-- Node9&#45;&gt;Node17 -->
<g id="edge17" class="edge"><title>Node9&#45;&gt;Node17</title>
<path fill="none" stroke="midnightblue" d="M845.727,-236.679C850.369,-226.796 856.576,-213.579 861.552,-202.986"/>
<polygon fill="midnightblue" stroke="midnightblue" points="864.77,-204.368 865.853,-193.828 858.434,-201.392 864.77,-204.368"/>
</g>
<!-- Node9&#45;&gt;Node18 -->
<g id="edge18" class="edge"><title>Node9&#45;&gt;Node18</title>
<path fill="none" stroke="midnightblue" d="M819.254,-236.679C804.135,-225.713 783.359,-210.645 768.142,-199.609"/>
<polygon fill="midnightblue" stroke="midnightblue" points="770.06,-196.676 759.91,-193.638 765.95,-202.342 770.06,-196.676"/>
</g>
<!-- Node11 -->
<g id="node11" class="node"><title>Node11</title>
<g id="a_node11"><a xlink:href="CoreMacros_8hpp.html" target="_top" xlink:title="Core/CoreMacros.hpp">
<polygon fill="white" stroke="black" points="539.5,-56.5 539.5,-75.5 652.5,-75.5 652.5,-56.5 539.5,-56.5"/>
<text text-anchor="middle" x="596" y="-63.5" font-family="Helvetica,sans-Serif" font-size="10.00">Core/CoreMacros.hpp</text>
</a>
</g>
</g>
<!-- Node10&#45;&gt;Node11 -->
<g id="edge11" class="edge"><title>Node10&#45;&gt;Node11</title>
<path fill="none" stroke="midnightblue" d="M649.717,-112.324C640.164,-104.263 625.72,-92.0765 614.216,-82.3695"/>
<polygon fill="midnightblue" stroke="midnightblue" points="616.37,-79.6076 606.47,-75.8339 611.856,-84.9577 616.37,-79.6076"/>
</g>
<!-- Node12 -->
<g id="node12" class="node"><title>Node12</title>
<polygon fill="white" stroke="#bfbfbf" points="669.5,-0.5 669.5,-19.5 718.5,-19.5 718.5,-0.5 669.5,-0.5"/>
<text text-anchor="middle" x="694" y="-7.5" font-family="Helvetica,sans-Serif" font-size="10.00">cassert</text>
</g>
<!-- Node11&#45;&gt;Node12 -->
<g id="edge12" class="edge"><title>Node11&#45;&gt;Node12</title>
<path fill="none" stroke="midnightblue" d="M611.745,-56.324C627.319,-47.7428 651.377,-34.486 669.459,-24.5224"/>
<polygon fill="midnightblue" stroke="midnightblue" points="671.224,-27.546 678.294,-19.6545 667.846,-21.4152 671.224,-27.546"/>
</g>
<!-- Node13 -->
<g id="node13" class="node"><title>Node13</title>
<polygon fill="white" stroke="#bfbfbf" points="473.5,-0.5 473.5,-19.5 516.5,-19.5 516.5,-0.5 473.5,-0.5"/>
<text text-anchor="middle" x="495" y="-7.5" font-family="Helvetica,sans-Serif" font-size="10.00">cstdio</text>
</g>
<!-- Node11&#45;&gt;Node13 -->
<g id="edge13" class="edge"><title>Node11&#45;&gt;Node13</title>
<path fill="none" stroke="midnightblue" d="M579.773,-56.324C563.649,-47.7034 538.7,-34.3643 520.036,-24.3855"/>
<polygon fill="midnightblue" stroke="midnightblue" points="521.656,-21.283 511.187,-19.6545 518.356,-27.456 521.656,-21.283"/>
</g>
<!-- Node14 -->
<g id="node14" class="node"><title>Node14</title>
<polygon fill="white" stroke="#bfbfbf" points="535,-0.5 535,-19.5 589,-19.5 589,-0.5 535,-0.5"/>
<text text-anchor="middle" x="562" y="-7.5" font-family="Helvetica,sans-Serif" font-size="10.00">iostream</text>
</g>
<!-- Node11&#45;&gt;Node14 -->
<g id="edge14" class="edge"><title>Node11&#45;&gt;Node14</title>
<path fill="none" stroke="midnightblue" d="M590.386,-56.083C585.633,-48.5341 578.682,-37.4948 572.848,-28.2298"/>
<polygon fill="midnightblue" stroke="midnightblue" points="575.8,-26.3486 567.51,-19.7511 569.876,-30.0783 575.8,-26.3486"/>
</g>
<!-- Node15 -->
<g id="node15" class="node"><title>Node15</title>
<polygon fill="white" stroke="#bfbfbf" points="308,-0.5 308,-19.5 360,-19.5 360,-0.5 308,-0.5"/>
<text text-anchor="middle" x="334" y="-7.5" font-family="Helvetica,sans-Serif" font-size="10.00">sstream</text>
</g>
<!-- Node11&#45;&gt;Node15 -->
<g id="edge15" class="edge"><title>Node11&#45;&gt;Node15</title>
<path fill="none" stroke="midnightblue" d="M554.485,-56.4435C503.672,-45.9705 418.45,-28.4057 370.192,-18.4594"/>
<polygon fill="midnightblue" stroke="midnightblue" points="370.695,-14.9896 360.195,-16.3989 369.282,-21.8455 370.695,-14.9896"/>
</g>
<!-- Node16 -->
<g id="node16" class="node"><title>Node16</title>
<polygon fill="white" stroke="#bfbfbf" points="607,-0.5 607,-19.5 651,-19.5 651,-0.5 607,-0.5"/>
<text text-anchor="middle" x="629" y="-7.5" font-family="Helvetica,sans-Serif" font-size="10.00">thread</text>
</g>
<!-- Node11&#45;&gt;Node16 -->
<g id="edge16" class="edge"><title>Node11&#45;&gt;Node16</title>
<path fill="none" stroke="midnightblue" d="M601.449,-56.083C606.014,-48.6127 612.668,-37.7244 618.293,-28.5199"/>
<polygon fill="midnightblue" stroke="midnightblue" points="621.424,-30.109 623.652,-19.7511 615.451,-26.4588 621.424,-30.109"/>
</g>
<!-- Node19&#45;&gt;Node10 -->
<g id="edge20" class="edge"><title>Node19&#45;&gt;Node10</title>
<path fill="none" stroke="midnightblue" d="M1195.32,-249.454C1131.3,-245.701 1036.28,-234.173 961,-200 940.584,-190.732 942.393,-177.318 922,-168 855.748,-137.727 771.603,-127.677 716.809,-124.422"/>
<polygon fill="midnightblue" stroke="midnightblue" points="716.766,-120.914 706.593,-123.873 716.391,-127.904 716.766,-120.914"/>
</g>
<!-- Node20 -->
<g id="node20" class="node"><title>Node20</title>
<polygon fill="white" stroke="#bfbfbf" points="1353.5,-174.5 1353.5,-193.5 1418.5,-193.5 1418.5,-174.5 1353.5,-174.5"/>
<text text-anchor="middle" x="1386" y="-181.5" font-family="Helvetica,sans-Serif" font-size="10.00">Eigen/Core</text>
</g>
<!-- Node19&#45;&gt;Node20 -->
<g id="edge21" class="edge"><title>Node19&#45;&gt;Node20</title>
<path fill="none" stroke="midnightblue" d="M1282.56,-242.372C1302.69,-231.205 1337.99,-211.627 1361.68,-198.488"/>
<polygon fill="midnightblue" stroke="midnightblue" points="1363.39,-201.541 1370.44,-193.63 1360,-195.42 1363.39,-201.541"/>
</g>
<!-- Node21 -->
<g id="node21" class="node"><title>Node21</title>
<polygon fill="white" stroke="#bfbfbf" points="1436.5,-174.5 1436.5,-193.5 1523.5,-193.5 1523.5,-174.5 1436.5,-174.5"/>
<text text-anchor="middle" x="1480" y="-181.5" font-family="Helvetica,sans-Serif" font-size="10.00">Eigen/Geometry</text>
</g>
<!-- Node19&#45;&gt;Node21 -->
<g id="edge22" class="edge"><title>Node19&#45;&gt;Node21</title>
<path fill="none" stroke="midnightblue" d="M1294.85,-242.372C1332.74,-230.629 1400.66,-209.585 1442.86,-196.508"/>
<polygon fill="midnightblue" stroke="midnightblue" points="1443.97,-199.829 1452.48,-193.526 1441.9,-193.143 1443.97,-199.829"/>
</g>
<!-- Node22 -->
<g id="node22" class="node"><title>Node22</title>
<polygon fill="white" stroke="#bfbfbf" points="1541.5,-174.5 1541.5,-193.5 1616.5,-193.5 1616.5,-174.5 1541.5,-174.5"/>
<text text-anchor="middle" x="1579" y="-181.5" font-family="Helvetica,sans-Serif" font-size="10.00">Eigen/Sparse</text>
</g>
<!-- Node19&#45;&gt;Node22 -->
<g id="edge23" class="edge"><title>Node19&#45;&gt;Node22</title>
<path fill="none" stroke="midnightblue" d="M1321.47,-242.464C1375.34,-233.566 1459.93,-218.367 1532,-200 1535.9,-199.005 1539.96,-197.87 1543.98,-196.679"/>
<polygon fill="midnightblue" stroke="midnightblue" points="1545.27,-199.944 1553.79,-193.652 1543.2,-193.255 1545.27,-199.944"/>
</g>
<!-- Node23 -->
<g id="node23" class="node"><title>Node23</title>
<polygon fill="white" stroke="#bfbfbf" points="970.5,-174.5 970.5,-193.5 1029.5,-193.5 1029.5,-174.5 970.5,-174.5"/>
<text text-anchor="middle" x="1000" y="-181.5" font-family="Helvetica,sans-Serif" font-size="10.00">functional</text>
</g>
<!-- Node19&#45;&gt;Node23 -->
<g id="edge24" class="edge"><title>Node19&#45;&gt;Node23</title>
<path fill="none" stroke="midnightblue" d="M1218.18,-242.429C1171.42,-233.682 1099.14,-218.748 1038,-200 1035.2,-199.142 1032.32,-198.171 1029.45,-197.146"/>
<polygon fill="midnightblue" stroke="midnightblue" points="1030.5,-193.8 1019.91,-193.537 1028.02,-200.347 1030.5,-193.8"/>
</g>
<!-- Node24 -->
<g id="node24" class="node"><title>Node24</title>
<polygon fill="white" stroke="#bfbfbf" points="1047.5,-169 1047.5,-199 1180.5,-199 1180.5,-169 1047.5,-169"/>
<text text-anchor="start" x="1055.5" y="-187" font-family="Helvetica,sans-Serif" font-size="10.00">unsupported/Eigen/Aligned</text>
<text text-anchor="middle" x="1114" y="-176" font-family="Helvetica,sans-Serif" font-size="10.00">Vector3</text>
</g>
<!-- Node19&#45;&gt;Node24 -->
<g id="edge25" class="edge"><title>Node19&#45;&gt;Node24</title>
<path fill="none" stroke="midnightblue" d="M1247,-242.372C1223.97,-232.44 1185.52,-215.854 1155.87,-203.063"/>
<polygon fill="midnightblue" stroke="midnightblue" points="1157.15,-199.803 1146.58,-199.056 1154.38,-206.231 1157.15,-199.803"/>
</g>
<!-- Node25 -->
<g id="node25" class="node"><title>Node25</title>
<g id="a_node25"><a xlink:href="Math_8hpp.html" target="_top" xlink:title="Core/Math/Math.hpp">
<polygon fill="white" stroke="black" points="1673,-174.5 1673,-193.5 1779,-193.5 1779,-174.5 1673,-174.5"/>
<text text-anchor="middle" x="1726" y="-181.5" font-family="Helvetica,sans-Serif" font-size="10.00">Core/Math/Math.hpp</text>
</a>
</g>
</g>
<!-- Node19&#45;&gt;Node25 -->
<g id="edge26" class="edge"><title>Node19&#45;&gt;Node25</title>
<path fill="none" stroke="midnightblue" d="M1327.51,-242.492C1398.7,-232.455 1520.47,-215.207 1625,-200 1637.25,-198.218 1650.33,-196.292 1662.88,-194.433"/>
<polygon fill="midnightblue" stroke="midnightblue" points="1663.43,-197.89 1672.81,-192.961 1662.4,-190.966 1663.43,-197.89"/>
</g>
<!-- Node29 -->
<g id="node29" class="node"><title>Node29</title>
<g id="a_node29"><a xlink:href="LinearAlgebra_8inl.html" target="_top" xlink:title="Core/Math/LinearAlgebra.inl">
<polygon fill="white" stroke="black" points="1198.5,-174.5 1198.5,-193.5 1335.5,-193.5 1335.5,-174.5 1198.5,-174.5"/>
<text text-anchor="middle" x="1267" y="-181.5" font-family="Helvetica,sans-Serif" font-size="10.00">Core/Math/LinearAlgebra.inl</text>
</a>
</g>
</g>
<!-- Node19&#45;&gt;Node29 -->
<g id="edge32" class="edge"><title>Node19&#45;&gt;Node29</title>
<path fill="none" stroke="midnightblue" d="M1267,-242.372C1267,-232.643 1267,-216.528 1267,-203.85"/>
<polygon fill="midnightblue" stroke="midnightblue" points="1270.5,-203.841 1267,-193.841 1263.5,-203.841 1270.5,-203.841"/>
</g>
<!-- Node25&#45;&gt;Node10 -->
<g id="edge27" class="edge"><title>Node25&#45;&gt;Node10</title>
<path fill="none" stroke="midnightblue" d="M1693.15,-174.441C1682.34,-171.949 1670.22,-169.498 1659,-168 1474.78,-143.423 899.984,-128.48 716.736,-124.247"/>
<polygon fill="midnightblue" stroke="midnightblue" points="716.59,-120.743 706.512,-124.013 716.429,-127.741 716.59,-120.743"/>
</g>
<!-- Node26 -->
<g id="node26" class="node"><title>Node26</title>
<polygon fill="white" stroke="#bfbfbf" points="1746,-112.5 1746,-131.5 1802,-131.5 1802,-112.5 1746,-112.5"/>
<text text-anchor="middle" x="1774" y="-119.5" font-family="Helvetica,sans-Serif" font-size="10.00">algorithm</text>
</g>
<!-- Node25&#45;&gt;Node26 -->
<g id="edge28" class="edge"><title>Node25&#45;&gt;Node26</title>
<path fill="none" stroke="midnightblue" d="M1732.88,-174.403C1740.15,-165.314 1751.8,-150.756 1760.84,-139.449"/>
<polygon fill="midnightblue" stroke="midnightblue" points="1763.62,-141.576 1767.14,-131.581 1758.16,-137.203 1763.62,-141.576"/>
</g>
<!-- Node27 -->
<g id="node27" class="node"><title>Node27</title>
<polygon fill="white" stroke="#bfbfbf" points="1820,-112.5 1820,-131.5 1864,-131.5 1864,-112.5 1820,-112.5"/>
<text text-anchor="middle" x="1842" y="-119.5" font-family="Helvetica,sans-Serif" font-size="10.00">cmath</text>
</g>
<!-- Node25&#45;&gt;Node27 -->
<g id="edge29" class="edge"><title>Node25&#45;&gt;Node27</title>
<path fill="none" stroke="midnightblue" d="M1742.62,-174.403C1761.92,-164.423 1793.96,-147.849 1816.43,-136.225"/>
<polygon fill="midnightblue" stroke="midnightblue" points="1818.14,-139.284 1825.41,-131.581 1814.92,-133.066 1818.14,-139.284"/>
</g>
<!-- Node28 -->
<g id="node28" class="node"><title>Node28</title>
<g id="a_node28"><a xlink:href="Math_8inl.html" target="_top" xlink:title="Core/Math/Math.inl">
<polygon fill="white" stroke="black" points="1628,-112.5 1628,-131.5 1728,-131.5 1728,-112.5 1628,-112.5"/>
<text text-anchor="middle" x="1678" y="-119.5" font-family="Helvetica,sans-Serif" font-size="10.00">Core/Math/Math.inl</text>
</a>
</g>
</g>
<!-- Node25&#45;&gt;Node28 -->
<g id="edge30" class="edge"><title>Node25&#45;&gt;Node28</title>
<path fill="none" stroke="midnightblue" d="M1714.22,-174.403C1705.17,-165.493 1693.41,-151.325 1685.53,-140.118"/>
<polygon fill="midnightblue" stroke="midnightblue" points="1688.36,-138.048 1679.97,-131.581 1682.49,-141.87 1688.36,-138.048"/>
</g>
<!-- Node28&#45;&gt;Node25 -->
<g id="edge31" class="edge"><title>Node28&#45;&gt;Node25</title>
<path fill="none" stroke="midnightblue" d="M1689.76,-131.581C1698.81,-140.485 1710.57,-154.652 1718.46,-165.862"/>
<polygon fill="midnightblue" stroke="midnightblue" points="1715.63,-167.938 1724.02,-174.403 1721.49,-164.115 1715.63,-167.938"/>
</g>
<!-- Node30&#45;&gt;Node10 -->
<g id="edge41" class="edge"><title>Node30&#45;&gt;Node10</title>
<path fill="none" stroke="midnightblue" d="M1430.1,-304.47C1514.45,-285.674 1690.69,-236.827 1625,-168 1593.52,-135.02 919.152,-125.599 716.863,-123.51"/>
<polygon fill="midnightblue" stroke="midnightblue" points="716.78,-120.009 706.746,-123.408 716.71,-127.009 716.78,-120.009"/>
</g>
<!-- Node30&#45;&gt;Node19 -->
<g id="edge40" class="edge"><title>Node30&#45;&gt;Node19</title>
<path fill="none" stroke="midnightblue" d="M1370.66,-304.403C1350.45,-294.379 1316.81,-277.701 1293.36,-266.07"/>
<polygon fill="midnightblue" stroke="midnightblue" points="1294.82,-262.887 1284.3,-261.581 1291.71,-269.159 1294.82,-262.887"/>
</g>
<!-- Node31 -->
<g id="node31" class="node"><title>Node31</title>
<g id="a_node31"><a xlink:href="Index_8hpp.html" target="_top" xlink:title="Core/Index/Index.hpp">
<polygon fill="white" stroke="black" points="1762,-242.5 1762,-261.5 1872,-261.5 1872,-242.5 1762,-242.5"/>
<text text-anchor="middle" x="1817" y="-249.5" font-family="Helvetica,sans-Serif" font-size="10.00">Core/Index/Index.hpp</text>
</a>
</g>
</g>
<!-- Node30&#45;&gt;Node31 -->
<g id="edge37" class="edge"><title>Node30&#45;&gt;Node31</title>
<path fill="none" stroke="midnightblue" d="M1449.01,-304.467C1529.29,-293.24 1669.79,-273.588 1752.01,-262.09"/>
<polygon fill="midnightblue" stroke="midnightblue" points="1752.56,-265.546 1761.98,-260.695 1751.59,-258.614 1752.56,-265.546"/>
</g>
<!-- Node32 -->
<g id="node32" class="node"><title>Node32</title>
<polygon fill="white" stroke="#bfbfbf" points="1797,-174.5 1797,-193.5 1837,-193.5 1837,-174.5 1797,-174.5"/>
<text text-anchor="middle" x="1817" y="-181.5" font-family="Helvetica,sans-Serif" font-size="10.00">limits</text>
</g>
<!-- Node31&#45;&gt;Node32 -->
<g id="edge38" class="edge"><title>Node31&#45;&gt;Node32</title>
<path fill="none" stroke="midnightblue" d="M1817,-242.372C1817,-232.643 1817,-216.528 1817,-203.85"/>
<polygon fill="midnightblue" stroke="midnightblue" points="1820.5,-203.841 1817,-193.841 1813.5,-203.841 1820.5,-203.841"/>
</g>
<!-- Node33 -->
<g id="node33" class="node"><title>Node33</title>
<g id="a_node33"><a xlink:href="Index_8inl.html" target="_top" xlink:title="Core/Index/Index.inl">
<polygon fill="white" stroke="black" points="1855,-174.5 1855,-193.5 1959,-193.5 1959,-174.5 1855,-174.5"/>
<text text-anchor="middle" x="1907" y="-181.5" font-family="Helvetica,sans-Serif" font-size="10.00">Core/Index/Index.inl</text>
</a>
</g>
</g>
<!-- Node31&#45;&gt;Node33 -->
<g id="edge39" class="edge"><title>Node31&#45;&gt;Node33</title>
<path fill="none" stroke="midnightblue" d="M1828.77,-242.372C1843.59,-231.502 1869.28,-212.66 1887.16,-199.547"/>
<polygon fill="midnightblue" stroke="midnightblue" points="1889.24,-202.367 1895.23,-193.63 1885.1,-196.722 1889.24,-202.367"/>
</g>
<!-- Node34&#45;&gt;Node8 -->
<g id="edge44" class="edge"><title>Node34&#45;&gt;Node8</title>
<path fill="none" stroke="midnightblue" d="M685.898,-366.403C701.744,-356.601 727.874,-340.439 746.605,-328.853"/>
<polygon fill="midnightblue" stroke="midnightblue" points="748.465,-331.818 755.128,-323.581 744.782,-325.865 748.465,-331.818"/>
</g>
<!-- Node34&#45;&gt;Node10 -->
<g id="edge55" class="edge"><title>Node34&#45;&gt;Node10</title>
<path fill="none" stroke="midnightblue" d="M671.587,-366.326C669.874,-330.355 663.307,-192.44 660.895,-141.795"/>
<polygon fill="midnightblue" stroke="midnightblue" points="664.383,-141.46 660.411,-131.638 657.391,-141.793 664.383,-141.46"/>
</g>
<!-- Node35 -->
<g id="node35" class="node"><title>Node35</title>
<g id="a_node35"><a xlink:href="Log_8hpp.html" target="_top" xlink:title="Core/Log/Log.hpp">
<polygon fill="white" stroke="black" points="374,-304.5 374,-323.5 468,-323.5 468,-304.5 374,-304.5"/>
<text text-anchor="middle" x="421" y="-311.5" font-family="Helvetica,sans-Serif" font-size="10.00">Core/Log/Log.hpp</text>
</a>
</g>
</g>
<!-- Node34&#45;&gt;Node35 -->
<g id="edge45" class="edge"><title>Node34&#45;&gt;Node35</title>
<path fill="none" stroke="midnightblue" d="M636.304,-366.467C591.7,-355.805 515.314,-337.545 466.54,-325.886"/>
<polygon fill="midnightblue" stroke="midnightblue" points="467.112,-322.424 456.572,-323.503 465.485,-329.232 467.112,-322.424"/>
</g>
<!-- Node35&#45;&gt;Node5 -->
<g id="edge49" class="edge"><title>Node35&#45;&gt;Node5</title>
<path fill="none" stroke="midnightblue" d="M383.005,-304.426C363.039,-297.876 340.064,-286.683 327,-268 313.872,-249.225 313.918,-221.946 315.866,-203.85"/>
<polygon fill="midnightblue" stroke="midnightblue" points="319.368,-204.082 317.264,-193.698 312.433,-203.127 319.368,-204.082"/>
</g>
<!-- Node35&#45;&gt;Node10 -->
<g id="edge46" class="edge"><title>Node35&#45;&gt;Node10</title>
<path fill="none" stroke="midnightblue" d="M468.279,-312.893C508.599,-310.349 565.783,-300.597 603,-268 613.001,-259.241 641.256,-178.423 653.832,-141.386"/>
<polygon fill="midnightblue" stroke="midnightblue" points="657.182,-142.403 657.065,-131.809 650.55,-140.164 657.182,-142.403"/>
</g>
<!-- Node35&#45;&gt;Node15 -->
<g id="edge47" class="edge"><title>Node35&#45;&gt;Node15</title>
<path fill="none" stroke="midnightblue" d="M383.011,-304.477C360.19,-297.75 331.83,-286.36 312,-268 281.664,-239.912 270,-226.343 270,-185 270,-185 270,-185 270,-121 270,-83.3274 298.392,-47.0403 317.354,-27.0052"/>
<polygon fill="midnightblue" stroke="midnightblue" points="320.036,-29.2705 324.557,-19.6885 315.047,-24.3599 320.036,-29.2705"/>
</g>
<!-- Node36 -->
<g id="node36" class="node"><title>Node36</title>
<polygon fill="white" stroke="#bfbfbf" points="336,-242.5 336,-261.5 382,-261.5 382,-242.5 336,-242.5"/>
<text text-anchor="middle" x="359" y="-249.5" font-family="Helvetica,sans-Serif" font-size="10.00">stdio.h</text>
</g>
<!-- Node35&#45;&gt;Node36 -->
<g id="edge48" class="edge"><title>Node35&#45;&gt;Node36</title>
<path fill="none" stroke="midnightblue" d="M412.117,-304.403C402.541,-295.136 387.089,-280.183 375.314,-268.788"/>
<polygon fill="midnightblue" stroke="midnightblue" points="377.487,-266.02 367.867,-261.581 372.619,-271.05 377.487,-266.02"/>
</g>
<!-- Node37 -->
<g id="node37" class="node"><title>Node37</title>
<g id="a_node37"><a xlink:href="StringUtils_8hpp.html" target="_top" xlink:title="Core/String/StringUtils.hpp">
<polygon fill="white" stroke="black" points="460,-242.5 460,-261.5 594,-261.5 594,-242.5 460,-242.5"/>
<text text-anchor="middle" x="527" y="-249.5" font-family="Helvetica,sans-Serif" font-size="10.00">Core/String/StringUtils.hpp</text>
</a>
</g>
</g>
<!-- Node35&#45;&gt;Node37 -->
<g id="edge50" class="edge"><title>Node35&#45;&gt;Node37</title>
<path fill="none" stroke="midnightblue" d="M436.187,-304.403C453.662,-294.512 482.579,-278.144 503.083,-266.538"/>
<polygon fill="midnightblue" stroke="midnightblue" points="504.862,-269.553 511.841,-261.581 501.414,-263.461 504.862,-269.553"/>
</g>
<!-- Node38 -->
<g id="node38" class="node"><title>Node38</title>
<polygon fill="white" stroke="#bfbfbf" points="400.5,-242.5 400.5,-261.5 441.5,-261.5 441.5,-242.5 400.5,-242.5"/>
<text text-anchor="middle" x="421" y="-249.5" font-family="Helvetica,sans-Serif" font-size="10.00">ctime</text>
</g>
<!-- Node35&#45;&gt;Node38 -->
<g id="edge54" class="edge"><title>Node35&#45;&gt;Node38</title>
<path fill="none" stroke="midnightblue" d="M421,-304.403C421,-295.938 421,-282.728 421,-271.82"/>
<polygon fill="midnightblue" stroke="midnightblue" points="424.5,-271.581 421,-261.581 417.5,-271.581 424.5,-271.581"/>
</g>
<!-- Node37&#45;&gt;Node5 -->
<g id="edge52" class="edge"><title>Node37&#45;&gt;Node5</title>
<path fill="none" stroke="midnightblue" d="M499.808,-242.372C460.927,-230.035 389.687,-207.429 349.208,-194.585"/>
<polygon fill="midnightblue" stroke="midnightblue" points="350.208,-191.231 339.618,-191.542 348.091,-197.903 350.208,-191.231"/>
</g>
<!-- Node37&#45;&gt;Node10 -->
<g id="edge51" class="edge"><title>Node37&#45;&gt;Node10</title>
<path fill="none" stroke="midnightblue" d="M535.277,-242.036C549.678,-226.55 580.445,-193.953 608,-168 618.864,-157.768 631.516,-146.799 641.62,-138.253"/>
<polygon fill="midnightblue" stroke="midnightblue" points="644.003,-140.822 649.413,-131.713 639.503,-135.46 644.003,-140.822"/>
</g>
<!-- Node37&#45;&gt;Node18 -->
<g id="edge53" class="edge"><title>Node37&#45;&gt;Node18</title>
<path fill="none" stroke="midnightblue" d="M555.892,-242.372C597.269,-230.015 673.14,-207.356 716.112,-194.523"/>
<polygon fill="midnightblue" stroke="midnightblue" points="717.198,-197.851 725.779,-191.636 715.195,-191.144 717.198,-197.851"/>
</g>
<!-- Node39&#45;&gt;Node7 -->
<g id="edge57" class="edge"><title>Node39&#45;&gt;Node7</title>
<path fill="none" stroke="midnightblue" d="M543.016,-385.63C556.514,-396.106 576.128,-413.983 588.671,-427.003"/>
<polygon fill="midnightblue" stroke="midnightblue" points="586.103,-429.381 595.449,-434.372 591.256,-424.642 586.103,-429.381"/>
</g>
</g>
</svg>
