<?xml version="1.0" encoding="UTF-8" standalone="no"?>
<!DOCTYPE svg PUBLIC "-//W3C//DTD SVG 1.1//EN"
 "http://www.w3.org/Graphics/SVG/1.1/DTD/svg11.dtd">
<!-- Generated by graphviz version 2.36.0 (20140111.2315)
 -->
<!-- Title: /home/travis/build/STORM&#45;IRIT/Radium&#45;Engine/src/Core/File/deprecated/OFFFileManager.cpp Pages: 1 -->
<svg width="1943pt" height="626pt"
 viewBox="0.00 0.00 1943.00 626.00" xmlns="http://www.w3.org/2000/svg" xmlns:xlink="http://www.w3.org/1999/xlink">
<g id="graph0" class="graph" transform="scale(1 1) rotate(0) translate(4 622)">
<title>/home/travis/build/STORM&#45;IRIT/Radium&#45;Engine/src/Core/File/deprecated/OFFFileManager.cpp</title>
<polygon fill="white" stroke="none" points="-4,4 -4,-622 1939,-622 1939,4 -4,4"/>
<!-- Node1 -->
<g id="node1" class="node"><title>Node1</title>
<polygon fill="#bfbfbf" stroke="black" points="307,-565 307,-617 455,-617 455,-565 307,-565"/>
<text text-anchor="start" x="315" y="-605" font-family="Helvetica,sans-Serif" font-size="10.00">/home/travis/build</text>
<text text-anchor="start" x="315" y="-594" font-family="Helvetica,sans-Serif" font-size="10.00">/STORM&#45;IRIT/Radium&#45;Engine</text>
<text text-anchor="start" x="315" y="-583" font-family="Helvetica,sans-Serif" font-size="10.00">/src/Core/File/deprecated</text>
<text text-anchor="middle" x="381" y="-572" font-family="Helvetica,sans-Serif" font-size="10.00">/OFFFileManager.cpp</text>
</g>
<!-- Node2 -->
<g id="node2" class="node"><title>Node2</title>
<g id="a_node2"><a xlink:href="OFFFileManager_8hpp.html" target="_top" xlink:title="Core/File/deprecated\l/OFFFileManager.hpp">
<polygon fill="white" stroke="black" points="325.5,-497 325.5,-527 436.5,-527 436.5,-497 325.5,-497"/>
<text text-anchor="start" x="333.5" y="-515" font-family="Helvetica,sans-Serif" font-size="10.00">Core/File/deprecated</text>
<text text-anchor="middle" x="381" y="-504" font-family="Helvetica,sans-Serif" font-size="10.00">/OFFFileManager.hpp</text>
</a>
</g>
</g>
<!-- Node1&#45;&gt;Node2 -->
<g id="edge1" class="edge"><title>Node1&#45;&gt;Node2</title>
<path fill="none" stroke="midnightblue" d="M381,-564.787C381,-556.029 381,-546.225 381,-537.523"/>
<polygon fill="midnightblue" stroke="midnightblue" points="384.5,-537.252 381,-527.252 377.5,-537.252 384.5,-537.252"/>
</g>
<!-- Node3 -->
<g id="node3" class="node"><title>Node3</title>
<g id="a_node3"><a xlink:href="FileManager_8hpp.html" target="_top" xlink:title="Core/File/deprecated\l/FileManager.hpp">
<polygon fill="white" stroke="black" points="68.5,-429 68.5,-459 175.5,-459 175.5,-429 68.5,-429"/>
<text text-anchor="start" x="76.5" y="-447" font-family="Helvetica,sans-Serif" font-size="10.00">Core/File/deprecated</text>
<text text-anchor="middle" x="122" y="-436" font-family="Helvetica,sans-Serif" font-size="10.00">/FileManager.hpp</text>
</a>
</g>
</g>
<!-- Node2&#45;&gt;Node3 -->
<g id="edge2" class="edge"><title>Node2&#45;&gt;Node3</title>
<path fill="none" stroke="midnightblue" d="M325.756,-496.922C284.683,-486.456 228.557,-472.154 185.611,-461.21"/>
<polygon fill="midnightblue" stroke="midnightblue" points="186.383,-457.795 175.828,-458.717 184.654,-464.578 186.383,-457.795"/>
</g>
<!-- Node7 -->
<g id="node7" class="node"><title>Node7</title>
<g id="a_node7"><a xlink:href="TriangleMesh_8hpp.html" target="_top" xlink:title="Core/Mesh/TriangleMesh.hpp">
<polygon fill="white" stroke="black" points="615.5,-434.5 615.5,-453.5 760.5,-453.5 760.5,-434.5 615.5,-434.5"/>
<text text-anchor="middle" x="688" y="-441.5" font-family="Helvetica,sans-Serif" font-size="10.00">Core/Mesh/TriangleMesh.hpp</text>
</a>
</g>
</g>
<!-- Node2&#45;&gt;Node7 -->
<g id="edge7" class="edge"><title>Node2&#45;&gt;Node7</title>
<path fill="none" stroke="midnightblue" d="M436.595,-499.048C494.179,-486.668 583.312,-467.506 638.528,-455.636"/>
<polygon fill="midnightblue" stroke="midnightblue" points="639.387,-459.031 648.428,-453.507 637.915,-452.188 639.387,-459.031"/>
</g>
<!-- Node4 -->
<g id="node4" class="node"><title>Node4</title>
<polygon fill="white" stroke="#bfbfbf" points="0,-366.5 0,-385.5 50,-385.5 50,-366.5 0,-366.5"/>
<text text-anchor="middle" x="25" y="-373.5" font-family="Helvetica,sans-Serif" font-size="10.00">fstream</text>
</g>
<!-- Node3&#45;&gt;Node4 -->
<g id="edge3" class="edge"><title>Node3&#45;&gt;Node4</title>
<path fill="none" stroke="midnightblue" d="M100.952,-428.679C84.6858,-417.611 62.2759,-402.363 46.0169,-391.3"/>
<polygon fill="midnightblue" stroke="midnightblue" points="47.9317,-388.37 37.6951,-385.638 43.9938,-394.157 47.9317,-388.37"/>
</g>
<!-- Node5 -->
<g id="node5" class="node"><title>Node5</title>
<polygon fill="white" stroke="#bfbfbf" points="345.5,-174.5 345.5,-193.5 386.5,-193.5 386.5,-174.5 345.5,-174.5"/>
<text text-anchor="middle" x="366" y="-181.5" font-family="Helvetica,sans-Serif" font-size="10.00">string</text>
</g>
<!-- Node3&#45;&gt;Node5 -->
<g id="edge4" class="edge"><title>Node3&#45;&gt;Node5</title>
<path fill="none" stroke="midnightblue" d="M145.851,-428.81C158.968,-419.83 174.468,-407.08 184,-392 222.187,-331.59 174.99,-288.94 223,-236 252.033,-203.986 302.537,-192.06 335.099,-187.622"/>
<polygon fill="midnightblue" stroke="midnightblue" points="335.885,-191.053 345.397,-186.386 335.051,-184.103 335.885,-191.053"/>
</g>
<!-- Node6 -->
<g id="node6" class="node"><title>Node6</title>
<g id="a_node6"><a xlink:href="FileManager_8inl.html" target="_top" xlink:title="Core/File/deprecated\l/FileManager.inl">
<polygon fill="white" stroke="black" points="68.5,-361 68.5,-391 175.5,-391 175.5,-361 68.5,-361"/>
<text text-anchor="start" x="76.5" y="-379" font-family="Helvetica,sans-Serif" font-size="10.00">Core/File/deprecated</text>
<text text-anchor="middle" x="122" y="-368" font-family="Helvetica,sans-Serif" font-size="10.00">/FileManager.inl</text>
</a>
</g>
</g>
<!-- Node3&#45;&gt;Node6 -->
<g id="edge5" class="edge"><title>Node3&#45;&gt;Node6</title>
<path fill="none" stroke="midnightblue" d="M116.322,-428.679C115.294,-420.722 115.005,-410.605 115.456,-401.436"/>
<polygon fill="midnightblue" stroke="midnightblue" points="118.959,-401.555 116.325,-391.293 111.984,-400.958 118.959,-401.555"/>
</g>
<!-- Node6&#45;&gt;Node3 -->
<g id="edge6" class="edge"><title>Node6&#45;&gt;Node3</title>
<path fill="none" stroke="midnightblue" d="M127.675,-391.293C128.704,-399.245 128.995,-409.361 128.545,-418.532"/>
<polygon fill="midnightblue" stroke="midnightblue" points="125.042,-418.417 127.678,-428.679 132.017,-419.013 125.042,-418.417"/>
</g>
<!-- Node8 -->
<g id="node8" class="node"><title>Node8</title>
<g id="a_node8"><a xlink:href="VectorArray_8hpp.html" target="_top" xlink:title="Core/Containers/VectorArray.hpp">
<polygon fill="white" stroke="black" points="657.5,-304.5 657.5,-323.5 818.5,-323.5 818.5,-304.5 657.5,-304.5"/>
<text text-anchor="middle" x="738" y="-311.5" font-family="Helvetica,sans-Serif" font-size="10.00">Core/Containers/VectorArray.hpp</text>
</a>
</g>
</g>
<!-- Node7&#45;&gt;Node8 -->
<g id="edge8" class="edge"><title>Node7&#45;&gt;Node8</title>
<path fill="none" stroke="midnightblue" d="M712.602,-434.352C730.971,-426.443 754.761,-412.777 766,-392 776.621,-372.365 763.697,-347.866 752.105,-331.846"/>
<polygon fill="midnightblue" stroke="midnightblue" points="754.847,-329.671 745.959,-323.903 749.31,-333.954 754.847,-329.671"/>
</g>
<!-- Node10 -->
<g id="node10" class="node"><title>Node10</title>
<g id="a_node10"><a xlink:href="RaCore_8hpp.html" target="_top" xlink:title="Core/RaCore.hpp">
<polygon fill="white" stroke="black" points="566.5,-112.5 566.5,-131.5 659.5,-131.5 659.5,-112.5 566.5,-112.5"/>
<text text-anchor="middle" x="613" y="-119.5" font-family="Helvetica,sans-Serif" font-size="10.00">Core/RaCore.hpp</text>
</a>
</g>
</g>
<!-- Node7&#45;&gt;Node10 -->
<g id="edge42" class="edge"><title>Node7&#45;&gt;Node10</title>
<path fill="none" stroke="midnightblue" d="M615.479,-442.275C504.853,-436.615 298.806,-406.948 223,-268 153.596,-140.787 432.459,-123.909 556.381,-122.561"/>
<polygon fill="midnightblue" stroke="midnightblue" points="556.481,-126.06 566.453,-122.482 556.426,-119.06 556.481,-126.06"/>
</g>
<!-- Node19 -->
<g id="node19" class="node"><title>Node19</title>
<g id="a_node19"><a xlink:href="LinearAlgebra_8hpp.html" target="_top" xlink:title="Core/Math/LinearAlgebra.hpp">
<polygon fill="white" stroke="black" points="1177.5,-242.5 1177.5,-261.5 1320.5,-261.5 1320.5,-242.5 1177.5,-242.5"/>
<text text-anchor="middle" x="1249" y="-249.5" font-family="Helvetica,sans-Serif" font-size="10.00">Core/Math/LinearAlgebra.hpp</text>
</a>
</g>
</g>
<!-- Node7&#45;&gt;Node19 -->
<g id="edge35" class="edge"><title>Node7&#45;&gt;Node19</title>
<path fill="none" stroke="midnightblue" d="M723.36,-434.487C794.218,-417.009 958.184,-374.448 1091,-324 1138.18,-306.078 1191.41,-281.138 1222.48,-266.086"/>
<polygon fill="midnightblue" stroke="midnightblue" points="1224.29,-269.094 1231.75,-261.567 1221.23,-262.802 1224.29,-269.094"/>
</g>
<!-- Node30 -->
<g id="node30" class="node"><title>Node30</title>
<g id="a_node30"><a xlink:href="MeshTypes_8hpp.html" target="_top" xlink:title="Core/Mesh/MeshTypes.hpp">
<polygon fill="white" stroke="black" points="945.5,-304.5 945.5,-323.5 1082.5,-323.5 1082.5,-304.5 945.5,-304.5"/>
<text text-anchor="middle" x="1014" y="-311.5" font-family="Helvetica,sans-Serif" font-size="10.00">Core/Mesh/MeshTypes.hpp</text>
</a>
</g>
</g>
<!-- Node7&#45;&gt;Node30 -->
<g id="edge36" class="edge"><title>Node7&#45;&gt;Node30</title>
<path fill="none" stroke="midnightblue" d="M709.896,-434.403C766.384,-412.223 917.191,-353.011 982.794,-327.253"/>
<polygon fill="midnightblue" stroke="midnightblue" points="984.17,-330.472 992.199,-323.56 981.612,-323.957 984.17,-330.472"/>
</g>
<!-- Node34 -->
<g id="node34" class="node"><title>Node34</title>
<g id="a_node34"><a xlink:href="Attribs_8hpp.html" target="_top" xlink:title="Core/Utils/Attribs.hpp">
<polygon fill="white" stroke="black" points="489.5,-366.5 489.5,-385.5 600.5,-385.5 600.5,-366.5 489.5,-366.5"/>
<text text-anchor="middle" x="545" y="-373.5" font-family="Helvetica,sans-Serif" font-size="10.00">Core/Utils/Attribs.hpp</text>
</a>
</g>
</g>
<!-- Node7&#45;&gt;Node34 -->
<g id="edge43" class="edge"><title>Node7&#45;&gt;Node34</title>
<path fill="none" stroke="midnightblue" d="M669.305,-434.372C644.79,-423.057 601.562,-403.105 573.097,-389.968"/>
<polygon fill="midnightblue" stroke="midnightblue" points="574.246,-386.643 563.699,-385.63 571.312,-392.999 574.246,-386.643"/>
</g>
<!-- Node39 -->
<g id="node39" class="node"><title>Node39</title>
<g id="a_node39"><a xlink:href="TriangleMesh_8inl.html" target="_top" xlink:title="Core/Mesh/TriangleMesh.inl">
<polygon fill="white" stroke="black" points="618.5,-366.5 618.5,-385.5 757.5,-385.5 757.5,-366.5 618.5,-366.5"/>
<text text-anchor="middle" x="688" y="-373.5" font-family="Helvetica,sans-Serif" font-size="10.00">Core/Mesh/TriangleMesh.inl</text>
</a>
</g>
</g>
<!-- Node7&#45;&gt;Node39 -->
<g id="edge56" class="edge"><title>Node7&#45;&gt;Node39</title>
<path fill="none" stroke="midnightblue" d="M683.269,-434.372C681.199,-424.643 680.721,-408.528 681.835,-395.85"/>
<polygon fill="midnightblue" stroke="midnightblue" points="685.316,-396.227 683.224,-385.841 678.382,-395.265 685.316,-396.227"/>
</g>
<!-- Node9 -->
<g id="node9" class="node"><title>Node9</title>
<g id="a_node9"><a xlink:href="AlignedStdVector_8hpp.html" target="_top" xlink:title="Core/Containers/AlignedStd\lVector.hpp">
<polygon fill="white" stroke="black" points="704,-237 704,-267 842,-267 842,-237 704,-237"/>
<text text-anchor="start" x="712" y="-255" font-family="Helvetica,sans-Serif" font-size="10.00">Core/Containers/AlignedStd</text>
<text text-anchor="middle" x="773" y="-244" font-family="Helvetica,sans-Serif" font-size="10.00">Vector.hpp</text>
</a>
</g>
</g>
<!-- Node8&#45;&gt;Node9 -->
<g id="edge9" class="edge"><title>Node8&#45;&gt;Node9</title>
<path fill="none" stroke="midnightblue" d="M743.015,-304.403C747.356,-296.961 753.837,-285.851 759.664,-275.862"/>
<polygon fill="midnightblue" stroke="midnightblue" points="762.736,-277.542 764.751,-267.141 756.689,-274.015 762.736,-277.542"/>
</g>
<!-- Node8&#45;&gt;Node10 -->
<g id="edge33" class="edge"><title>Node8&#45;&gt;Node10</title>
<path fill="none" stroke="midnightblue" d="M724.087,-304.437C711.758,-296.291 693.913,-283.067 682,-268 650.11,-227.666 628.355,-170.186 618.685,-141.202"/>
<polygon fill="midnightblue" stroke="midnightblue" points="621.982,-140.022 615.575,-131.584 615.322,-142.176 621.982,-140.022"/>
</g>
<!-- Node18 -->
<g id="node18" class="node"><title>Node18</title>
<polygon fill="white" stroke="#bfbfbf" points="660,-174.5 660,-193.5 704,-193.5 704,-174.5 660,-174.5"/>
<text text-anchor="middle" x="682" y="-181.5" font-family="Helvetica,sans-Serif" font-size="10.00">vector</text>
</g>
<!-- Node8&#45;&gt;Node18 -->
<g id="edge34" class="edge"><title>Node8&#45;&gt;Node18</title>
<path fill="none" stroke="midnightblue" d="M726.472,-304.366C716.436,-296.173 702.373,-282.918 695,-268 684.875,-247.513 682.274,-221.013 681.78,-203.535"/>
<polygon fill="midnightblue" stroke="midnightblue" points="685.28,-203.478 681.701,-193.505 678.28,-203.532 685.28,-203.478"/>
</g>
<!-- Node8&#45;&gt;Node19 -->
<g id="edge19" class="edge"><title>Node8&#45;&gt;Node19</title>
<path fill="none" stroke="midnightblue" d="M810.4,-304.499C904.535,-293.446 1068.53,-274.19 1167.11,-262.616"/>
<polygon fill="midnightblue" stroke="midnightblue" points="1167.8,-266.059 1177.32,-261.416 1166.98,-259.107 1167.8,-266.059"/>
</g>
<!-- Node9&#45;&gt;Node10 -->
<g id="edge10" class="edge"><title>Node9&#45;&gt;Node10</title>
<path fill="none" stroke="midnightblue" d="M765.67,-236.944C755.658,-218.906 736.159,-187.609 712,-168 694.068,-153.445 670.667,-142.525 651.119,-135.089"/>
<polygon fill="midnightblue" stroke="midnightblue" points="652.18,-131.751 641.586,-131.618 649.785,-138.328 652.18,-131.751"/>
</g>
<!-- Node17 -->
<g id="node17" class="node"><title>Node17</title>
<polygon fill="white" stroke="#bfbfbf" points="760,-174.5 760,-193.5 848,-193.5 848,-174.5 760,-174.5"/>
<text text-anchor="middle" x="804" y="-181.5" font-family="Helvetica,sans-Serif" font-size="10.00">Eigen/StdVector</text>
</g>
<!-- Node9&#45;&gt;Node17 -->
<g id="edge17" class="edge"><title>Node9&#45;&gt;Node17</title>
<path fill="none" stroke="midnightblue" d="M779.727,-236.679C784.369,-226.796 790.576,-213.579 795.552,-202.986"/>
<polygon fill="midnightblue" stroke="midnightblue" points="798.77,-204.368 799.853,-193.828 792.434,-201.392 798.77,-204.368"/>
</g>
<!-- Node9&#45;&gt;Node18 -->
<g id="edge18" class="edge"><title>Node9&#45;&gt;Node18</title>
<path fill="none" stroke="midnightblue" d="M753.254,-236.679C738.135,-225.713 717.359,-210.645 702.142,-199.609"/>
<polygon fill="midnightblue" stroke="midnightblue" points="704.06,-196.676 693.91,-193.638 699.95,-202.342 704.06,-196.676"/>
</g>
<!-- Node11 -->
<g id="node11" class="node"><title>Node11</title>
<g id="a_node11"><a xlink:href="CoreMacros_8hpp.html" target="_top" xlink:title="Core/CoreMacros.hpp">
<polygon fill="white" stroke="black" points="478.5,-56.5 478.5,-75.5 591.5,-75.5 591.5,-56.5 478.5,-56.5"/>
<text text-anchor="middle" x="535" y="-63.5" font-family="Helvetica,sans-Serif" font-size="10.00">Core/CoreMacros.hpp</text>
</a>
</g>
</g>
<!-- Node10&#45;&gt;Node11 -->
<g id="edge11" class="edge"><title>Node10&#45;&gt;Node11</title>
<path fill="none" stroke="midnightblue" d="M600.468,-112.324C588.414,-103.979 569.973,-91.2122 555.731,-81.3524"/>
<polygon fill="midnightblue" stroke="midnightblue" points="557.715,-78.469 547.501,-75.6545 553.731,-84.2243 557.715,-78.469"/>
</g>
<!-- Node12 -->
<g id="node12" class="node"><title>Node12</title>
<polygon fill="white" stroke="#bfbfbf" points="608.5,-0.5 608.5,-19.5 657.5,-19.5 657.5,-0.5 608.5,-0.5"/>
<text text-anchor="middle" x="633" y="-7.5" font-family="Helvetica,sans-Serif" font-size="10.00">cassert</text>
</g>
<!-- Node11&#45;&gt;Node12 -->
<g id="edge12" class="edge"><title>Node11&#45;&gt;Node12</title>
<path fill="none" stroke="midnightblue" d="M550.745,-56.324C566.319,-47.7428 590.377,-34.486 608.459,-24.5224"/>
<polygon fill="midnightblue" stroke="midnightblue" points="610.224,-27.546 617.294,-19.6545 606.846,-21.4152 610.224,-27.546"/>
</g>
<!-- Node13 -->
<g id="node13" class="node"><title>Node13</title>
<polygon fill="white" stroke="#bfbfbf" points="412.5,-0.5 412.5,-19.5 455.5,-19.5 455.5,-0.5 412.5,-0.5"/>
<text text-anchor="middle" x="434" y="-7.5" font-family="Helvetica,sans-Serif" font-size="10.00">cstdio</text>
</g>
<!-- Node11&#45;&gt;Node13 -->
<g id="edge13" class="edge"><title>Node11&#45;&gt;Node13</title>
<path fill="none" stroke="midnightblue" d="M518.773,-56.324C502.649,-47.7034 477.7,-34.3643 459.036,-24.3855"/>
<polygon fill="midnightblue" stroke="midnightblue" points="460.656,-21.283 450.187,-19.6545 457.356,-27.456 460.656,-21.283"/>
</g>
<!-- Node14 -->
<g id="node14" class="node"><title>Node14</title>
<polygon fill="white" stroke="#bfbfbf" points="474,-0.5 474,-19.5 528,-19.5 528,-0.5 474,-0.5"/>
<text text-anchor="middle" x="501" y="-7.5" font-family="Helvetica,sans-Serif" font-size="10.00">iostream</text>
</g>
<!-- Node11&#45;&gt;Node14 -->
<g id="edge14" class="edge"><title>Node11&#45;&gt;Node14</title>
<path fill="none" stroke="midnightblue" d="M529.386,-56.083C524.633,-48.5341 517.682,-37.4948 511.848,-28.2298"/>
<polygon fill="midnightblue" stroke="midnightblue" points="514.8,-26.3486 506.51,-19.7511 508.876,-30.0783 514.8,-26.3486"/>
</g>
<!-- Node15 -->
<g id="node15" class="node"><title>Node15</title>
<polygon fill="white" stroke="#bfbfbf" points="219,-0.5 219,-19.5 271,-19.5 271,-0.5 219,-0.5"/>
<text text-anchor="middle" x="245" y="-7.5" font-family="Helvetica,sans-Serif" font-size="10.00">sstream</text>
</g>
<!-- Node11&#45;&gt;Node15 -->
<g id="edge15" class="edge"><title>Node11&#45;&gt;Node15</title>
<path fill="none" stroke="midnightblue" d="M489.049,-56.4435C431.403,-45.7095 333.749,-27.5258 281.143,-17.7302"/>
<polygon fill="midnightblue" stroke="midnightblue" points="281.72,-14.2774 271.248,-15.8876 280.438,-21.1591 281.72,-14.2774"/>
</g>
<!-- Node16 -->
<g id="node16" class="node"><title>Node16</title>
<polygon fill="white" stroke="#bfbfbf" points="546,-0.5 546,-19.5 590,-19.5 590,-0.5 546,-0.5"/>
<text text-anchor="middle" x="568" y="-7.5" font-family="Helvetica,sans-Serif" font-size="10.00">thread</text>
</g>
<!-- Node11&#45;&gt;Node16 -->
<g id="edge16" class="edge"><title>Node11&#45;&gt;Node16</title>
<path fill="none" stroke="midnightblue" d="M540.449,-56.083C545.014,-48.6127 551.668,-37.7244 557.293,-28.5199"/>
<polygon fill="midnightblue" stroke="midnightblue" points="560.424,-30.109 562.652,-19.7511 554.451,-26.4588 560.424,-30.109"/>
</g>
<!-- Node19&#45;&gt;Node10 -->
<g id="edge20" class="edge"><title>Node19&#45;&gt;Node10</title>
<path fill="none" stroke="midnightblue" d="M1219.84,-242.485C1191.82,-233.729 1148.72,-218.745 1114,-200 1092.72,-188.514 1092.6,-176.597 1070,-168 998.247,-140.707 775.816,-129.011 670.023,-124.892"/>
<polygon fill="midnightblue" stroke="midnightblue" points="669.978,-121.387 659.852,-124.505 669.712,-128.382 669.978,-121.387"/>
</g>
<!-- Node20 -->
<g id="node20" class="node"><title>Node20</title>
<polygon fill="white" stroke="#bfbfbf" points="1122.5,-174.5 1122.5,-193.5 1187.5,-193.5 1187.5,-174.5 1122.5,-174.5"/>
<text text-anchor="middle" x="1155" y="-181.5" font-family="Helvetica,sans-Serif" font-size="10.00">Eigen/Core</text>
</g>
<!-- Node19&#45;&gt;Node20 -->
<g id="edge21" class="edge"><title>Node19&#45;&gt;Node20</title>
<path fill="none" stroke="midnightblue" d="M1236.71,-242.372C1221.23,-231.502 1194.39,-212.66 1175.72,-199.547"/>
<polygon fill="midnightblue" stroke="midnightblue" points="1177.49,-196.512 1167.29,-193.63 1173.46,-202.241 1177.49,-196.512"/>
</g>
<!-- Node21 -->
<g id="node21" class="node"><title>Node21</title>
<polygon fill="white" stroke="#bfbfbf" points="1205.5,-174.5 1205.5,-193.5 1292.5,-193.5 1292.5,-174.5 1205.5,-174.5"/>
<text text-anchor="middle" x="1249" y="-181.5" font-family="Helvetica,sans-Serif" font-size="10.00">Eigen/Geometry</text>
</g>
<!-- Node19&#45;&gt;Node21 -->
<g id="edge22" class="edge"><title>Node19&#45;&gt;Node21</title>
<path fill="none" stroke="midnightblue" d="M1249,-242.372C1249,-232.643 1249,-216.528 1249,-203.85"/>
<polygon fill="midnightblue" stroke="midnightblue" points="1252.5,-203.841 1249,-193.841 1245.5,-203.841 1252.5,-203.841"/>
</g>
<!-- Node22 -->
<g id="node22" class="node"><title>Node22</title>
<polygon fill="white" stroke="#bfbfbf" points="1310.5,-174.5 1310.5,-193.5 1385.5,-193.5 1385.5,-174.5 1310.5,-174.5"/>
<text text-anchor="middle" x="1348" y="-181.5" font-family="Helvetica,sans-Serif" font-size="10.00">Eigen/Sparse</text>
</g>
<!-- Node19&#45;&gt;Node22 -->
<g id="edge23" class="edge"><title>Node19&#45;&gt;Node22</title>
<path fill="none" stroke="midnightblue" d="M1261.94,-242.372C1278.4,-231.403 1307.02,-212.317 1326.71,-199.191"/>
<polygon fill="midnightblue" stroke="midnightblue" points="1328.68,-202.09 1335.05,-193.63 1324.79,-196.265 1328.68,-202.09"/>
</g>
<!-- Node23 -->
<g id="node23" class="node"><title>Node23</title>
<polygon fill="white" stroke="#bfbfbf" points="1403.5,-174.5 1403.5,-193.5 1462.5,-193.5 1462.5,-174.5 1403.5,-174.5"/>
<text text-anchor="middle" x="1433" y="-181.5" font-family="Helvetica,sans-Serif" font-size="10.00">functional</text>
</g>
<!-- Node19&#45;&gt;Node23 -->
<g id="edge24" class="edge"><title>Node19&#45;&gt;Node23</title>
<path fill="none" stroke="midnightblue" d="M1273.97,-242.465C1302.92,-232.508 1352.05,-215.44 1394,-200 1396.53,-199.069 1399.15,-198.092 1401.77,-197.103"/>
<polygon fill="midnightblue" stroke="midnightblue" points="1403.08,-200.351 1411.18,-193.521 1400.59,-193.809 1403.08,-200.351"/>
</g>
<!-- Node24 -->
<g id="node24" class="node"><title>Node24</title>
<polygon fill="white" stroke="#bfbfbf" points="1480.5,-169 1480.5,-199 1613.5,-199 1613.5,-169 1480.5,-169"/>
<text text-anchor="start" x="1488.5" y="-187" font-family="Helvetica,sans-Serif" font-size="10.00">unsupported/Eigen/Aligned</text>
<text text-anchor="middle" x="1547" y="-176" font-family="Helvetica,sans-Serif" font-size="10.00">Vector3</text>
</g>
<!-- Node19&#45;&gt;Node24 -->
<g id="edge25" class="edge"><title>Node19&#45;&gt;Node24</title>
<path fill="none" stroke="midnightblue" d="M1287.65,-242.439C1334.62,-232.037 1414.87,-214.263 1473.69,-201.236"/>
<polygon fill="midnightblue" stroke="midnightblue" points="1474.67,-204.604 1483.68,-199.025 1473.16,-197.77 1474.67,-204.604"/>
</g>
<!-- Node25 -->
<g id="node25" class="node"><title>Node25</title>
<g id="a_node25"><a xlink:href="Math_8hpp.html" target="_top" xlink:title="Core/Math/Math.hpp">
<polygon fill="white" stroke="black" points="1787,-174.5 1787,-193.5 1893,-193.5 1893,-174.5 1787,-174.5"/>
<text text-anchor="middle" x="1840" y="-181.5" font-family="Helvetica,sans-Serif" font-size="10.00">Core/Math/Math.hpp</text>
</a>
</g>
</g>
<!-- Node19&#45;&gt;Node25 -->
<g id="edge26" class="edge"><title>Node19&#45;&gt;Node25</title>
<path fill="none" stroke="midnightblue" d="M1320.72,-247.207C1422.66,-241.105 1615.07,-226.966 1777,-200 1783.78,-198.871 1790.92,-197.425 1797.85,-195.879"/>
<polygon fill="midnightblue" stroke="midnightblue" points="1798.85,-199.24 1807.8,-193.567 1797.27,-192.421 1798.85,-199.24"/>
</g>
<!-- Node29 -->
<g id="node29" class="node"><title>Node29</title>
<g id="a_node29"><a xlink:href="LinearAlgebra_8inl.html" target="_top" xlink:title="Core/Math/LinearAlgebra.inl">
<polygon fill="white" stroke="black" points="1631.5,-174.5 1631.5,-193.5 1768.5,-193.5 1768.5,-174.5 1631.5,-174.5"/>
<text text-anchor="middle" x="1700" y="-181.5" font-family="Helvetica,sans-Serif" font-size="10.00">Core/Math/LinearAlgebra.inl</text>
</a>
</g>
</g>
<!-- Node19&#45;&gt;Node29 -->
<g id="edge32" class="edge"><title>Node19&#45;&gt;Node29</title>
<path fill="none" stroke="midnightblue" d="M1319.64,-242.498C1394.78,-233.183 1517.04,-217.255 1622,-200 1630.41,-198.617 1639.31,-197.028 1647.97,-195.412"/>
<polygon fill="midnightblue" stroke="midnightblue" points="1648.8,-198.816 1657.97,-193.514 1647.5,-191.938 1648.8,-198.816"/>
</g>
<!-- Node25&#45;&gt;Node10 -->
<g id="edge27" class="edge"><title>Node25&#45;&gt;Node10</title>
<path fill="none" stroke="midnightblue" d="M1809.47,-174.463C1799.23,-171.941 1787.69,-169.465 1777,-168 1559.26,-138.161 872.218,-126.552 669.706,-123.727"/>
<polygon fill="midnightblue" stroke="midnightblue" points="669.635,-120.226 659.588,-123.588 669.538,-127.225 669.635,-120.226"/>
</g>
<!-- Node26 -->
<g id="node26" class="node"><title>Node26</title>
<polygon fill="white" stroke="#bfbfbf" points="1699,-112.5 1699,-131.5 1755,-131.5 1755,-112.5 1699,-112.5"/>
<text text-anchor="middle" x="1727" y="-119.5" font-family="Helvetica,sans-Serif" font-size="10.00">algorithm</text>
</g>
<!-- Node25&#45;&gt;Node26 -->
<g id="edge28" class="edge"><title>Node25&#45;&gt;Node26</title>
<path fill="none" stroke="midnightblue" d="M1823.81,-174.403C1805.1,-164.468 1774.08,-147.997 1752.2,-136.381"/>
<polygon fill="midnightblue" stroke="midnightblue" points="1753.63,-133.179 1743.16,-131.581 1750.35,-139.362 1753.63,-133.179"/>
</g>
<!-- Node27 -->
<g id="node27" class="node"><title>Node27</title>
<polygon fill="white" stroke="#bfbfbf" points="1773,-112.5 1773,-131.5 1817,-131.5 1817,-112.5 1773,-112.5"/>
<text text-anchor="middle" x="1795" y="-119.5" font-family="Helvetica,sans-Serif" font-size="10.00">cmath</text>
</g>
<!-- Node25&#45;&gt;Node27 -->
<g id="edge29" class="edge"><title>Node25&#45;&gt;Node27</title>
<path fill="none" stroke="midnightblue" d="M1833.55,-174.403C1826.8,-165.403 1816.03,-151.041 1807.59,-139.782"/>
<polygon fill="midnightblue" stroke="midnightblue" points="1810.24,-137.481 1801.44,-131.581 1804.64,-141.681 1810.24,-137.481"/>
</g>
<!-- Node28 -->
<g id="node28" class="node"><title>Node28</title>
<g id="a_node28"><a xlink:href="Math_8inl.html" target="_top" xlink:title="Core/Math/Math.inl">
<polygon fill="white" stroke="black" points="1835,-112.5 1835,-131.5 1935,-131.5 1935,-112.5 1835,-112.5"/>
<text text-anchor="middle" x="1885" y="-119.5" font-family="Helvetica,sans-Serif" font-size="10.00">Core/Math/Math.inl</text>
</a>
</g>
</g>
<!-- Node25&#45;&gt;Node28 -->
<g id="edge30" class="edge"><title>Node25&#45;&gt;Node28</title>
<path fill="none" stroke="midnightblue" d="M1841.55,-174.403C1846.45,-165.225 1857.12,-150.47 1866.85,-139.117"/>
<polygon fill="midnightblue" stroke="midnightblue" points="1869.56,-141.345 1873.67,-131.581 1864.36,-136.649 1869.56,-141.345"/>
</g>
<!-- Node28&#45;&gt;Node25 -->
<g id="edge31" class="edge"><title>Node28&#45;&gt;Node25</title>
<path fill="none" stroke="midnightblue" d="M1883.46,-131.581C1878.57,-140.752 1867.89,-155.506 1858.17,-166.863"/>
<polygon fill="midnightblue" stroke="midnightblue" points="1855.46,-164.639 1851.35,-174.403 1860.65,-169.334 1855.46,-164.639"/>
</g>
<!-- Node30&#45;&gt;Node10 -->
<g id="edge41" class="edge"><title>Node30&#45;&gt;Node10</title>
<path fill="none" stroke="midnightblue" d="M1019.43,-304.492C1034.39,-279.874 1072.8,-207.795 1037,-168 1012.9,-141.209 780.16,-129.139 670.114,-124.896"/>
<polygon fill="midnightblue" stroke="midnightblue" points="669.983,-121.388 659.859,-124.509 669.72,-128.383 669.983,-121.388"/>
</g>
<!-- Node30&#45;&gt;Node19 -->
<g id="edge40" class="edge"><title>Node30&#45;&gt;Node19</title>
<path fill="none" stroke="midnightblue" d="M1047.67,-304.403C1089.2,-293.799 1159.89,-275.751 1205.5,-264.107"/>
<polygon fill="midnightblue" stroke="midnightblue" points="1206.57,-267.446 1215.39,-261.581 1204.84,-260.663 1206.57,-267.446"/>
</g>
<!-- Node31 -->
<g id="node31" class="node"><title>Node31</title>
<g id="a_node31"><a xlink:href="Index_8hpp.html" target="_top" xlink:title="Core/Index/Index.hpp">
<polygon fill="white" stroke="black" points="918,-242.5 918,-261.5 1028,-261.5 1028,-242.5 918,-242.5"/>
<text text-anchor="middle" x="973" y="-249.5" font-family="Helvetica,sans-Serif" font-size="10.00">Core/Index/Index.hpp</text>
</a>
</g>
</g>
<!-- Node30&#45;&gt;Node31 -->
<g id="edge37" class="edge"><title>Node30&#45;&gt;Node31</title>
<path fill="none" stroke="midnightblue" d="M1008.13,-304.403C1002.04,-295.493 992.355,-281.325 984.697,-270.118"/>
<polygon fill="midnightblue" stroke="midnightblue" points="987.395,-267.862 978.863,-261.581 981.616,-271.812 987.395,-267.862"/>
</g>
<!-- Node32 -->
<g id="node32" class="node"><title>Node32</title>
<polygon fill="white" stroke="#bfbfbf" points="866,-174.5 866,-193.5 906,-193.5 906,-174.5 866,-174.5"/>
<text text-anchor="middle" x="886" y="-181.5" font-family="Helvetica,sans-Serif" font-size="10.00">limits</text>
</g>
<!-- Node31&#45;&gt;Node32 -->
<g id="edge38" class="edge"><title>Node31&#45;&gt;Node32</title>
<path fill="none" stroke="midnightblue" d="M961.626,-242.372C947.428,-231.6 922.912,-213.002 905.649,-199.906"/>
<polygon fill="midnightblue" stroke="midnightblue" points="907.459,-196.886 897.377,-193.63 903.228,-202.463 907.459,-196.886"/>
</g>
<!-- Node33 -->
<g id="node33" class="node"><title>Node33</title>
<g id="a_node33"><a xlink:href="Index_8inl.html" target="_top" xlink:title="Core/Index/Index.inl">
<polygon fill="white" stroke="black" points="924,-174.5 924,-193.5 1028,-193.5 1028,-174.5 924,-174.5"/>
<text text-anchor="middle" x="976" y="-181.5" font-family="Helvetica,sans-Serif" font-size="10.00">Core/Index/Index.inl</text>
</a>
</g>
</g>
<!-- Node31&#45;&gt;Node33 -->
<g id="edge39" class="edge"><title>Node31&#45;&gt;Node33</title>
<path fill="none" stroke="midnightblue" d="M973.392,-242.372C973.834,-232.643 974.567,-216.528 975.143,-203.85"/>
<polygon fill="midnightblue" stroke="midnightblue" points="978.64,-203.99 975.598,-193.841 971.648,-203.672 978.64,-203.99"/>
</g>
<!-- Node34&#45;&gt;Node8 -->
<g id="edge44" class="edge"><title>Node34&#45;&gt;Node8</title>
<path fill="none" stroke="midnightblue" d="M572.652,-366.403C606.332,-355.933 663.357,-338.205 700.847,-326.55"/>
<polygon fill="midnightblue" stroke="midnightblue" points="701.889,-329.892 710.399,-323.581 699.811,-323.207 701.889,-329.892"/>
</g>
<!-- Node34&#45;&gt;Node10 -->
<g id="edge55" class="edge"><title>Node34&#45;&gt;Node10</title>
<path fill="none" stroke="midnightblue" d="M547.341,-366.326C557.068,-330.279 594.419,-191.859 608.014,-141.476"/>
<polygon fill="midnightblue" stroke="midnightblue" points="611.443,-142.204 610.669,-131.638 604.685,-140.381 611.443,-142.204"/>
</g>
<!-- Node35 -->
<g id="node35" class="node"><title>Node35</title>
<g id="a_node35"><a xlink:href="Log_8hpp.html" target="_top" xlink:title="Core/Log/Log.hpp">
<polygon fill="white" stroke="black" points="319,-304.5 319,-323.5 413,-323.5 413,-304.5 319,-304.5"/>
<text text-anchor="middle" x="366" y="-311.5" font-family="Helvetica,sans-Serif" font-size="10.00">Core/Log/Log.hpp</text>
</a>
</g>
</g>
<!-- Node34&#45;&gt;Node35 -->
<g id="edge45" class="edge"><title>Node34&#45;&gt;Node35</title>
<path fill="none" stroke="midnightblue" d="M519.354,-366.403C488.383,-356.022 436.127,-338.506 401.349,-326.849"/>
<polygon fill="midnightblue" stroke="midnightblue" points="402.193,-323.44 391.599,-323.581 399.968,-330.077 402.193,-323.44"/>
</g>
<!-- Node35&#45;&gt;Node5 -->
<g id="edge49" class="edge"><title>Node35&#45;&gt;Node5</title>
<path fill="none" stroke="midnightblue" d="M366,-304.202C366,-283.551 366,-231.606 366,-203.594"/>
<polygon fill="midnightblue" stroke="midnightblue" points="369.5,-203.522 366,-193.522 362.5,-203.522 369.5,-203.522"/>
</g>
<!-- Node35&#45;&gt;Node10 -->
<g id="edge46" class="edge"><title>Node35&#45;&gt;Node10</title>
<path fill="none" stroke="midnightblue" d="M413.243,-311.562C450.801,-308.057 502.575,-297.65 537,-268 573.657,-236.428 555.986,-209.998 580,-168 585.651,-158.118 593.066,-147.827 599.436,-139.585"/>
<polygon fill="midnightblue" stroke="midnightblue" points="602.329,-141.57 605.805,-131.561 596.846,-137.218 602.329,-141.57"/>
</g>
<!-- Node35&#45;&gt;Node15 -->
<g id="edge47" class="edge"><title>Node35&#45;&gt;Node15</title>
<path fill="none" stroke="midnightblue" d="M319.109,-304.451C259.995,-290.657 166,-257.349 166,-185 166,-185 166,-185 166,-121 166,-80.7945 201.248,-45.221 224.656,-26.0304"/>
<polygon fill="midnightblue" stroke="midnightblue" points="226.97,-28.6628 232.656,-19.7232 222.636,-23.1655 226.97,-28.6628"/>
</g>
<!-- Node36 -->
<g id="node36" class="node"><title>Node36</title>
<polygon fill="white" stroke="#bfbfbf" points="232,-242.5 232,-261.5 278,-261.5 278,-242.5 232,-242.5"/>
<text text-anchor="middle" x="255" y="-249.5" font-family="Helvetica,sans-Serif" font-size="10.00">stdio.h</text>
</g>
<!-- Node35&#45;&gt;Node36 -->
<g id="edge48" class="edge"><title>Node35&#45;&gt;Node36</title>
<path fill="none" stroke="midnightblue" d="M350.096,-304.403C331.715,-294.468 301.244,-277.997 279.755,-266.381"/>
<polygon fill="midnightblue" stroke="midnightblue" points="281.335,-263.257 270.874,-261.581 278.007,-269.415 281.335,-263.257"/>
</g>
<!-- Node37 -->
<g id="node37" class="node"><title>Node37</title>
<g id="a_node37"><a xlink:href="StringUtils_8hpp.html" target="_top" xlink:title="Core/String/StringUtils.hpp">
<polygon fill="white" stroke="black" points="394,-242.5 394,-261.5 528,-261.5 528,-242.5 394,-242.5"/>
<text text-anchor="middle" x="461" y="-249.5" font-family="Helvetica,sans-Serif" font-size="10.00">Core/String/StringUtils.hpp</text>
</a>
</g>
</g>
<!-- Node35&#45;&gt;Node37 -->
<g id="edge50" class="edge"><title>Node35&#45;&gt;Node37</title>
<path fill="none" stroke="midnightblue" d="M379.611,-304.403C395.061,-294.646 420.49,-278.585 438.816,-267.011"/>
<polygon fill="midnightblue" stroke="midnightblue" points="440.828,-269.88 447.414,-261.581 437.09,-263.961 440.828,-269.88"/>
</g>
<!-- Node38 -->
<g id="node38" class="node"><title>Node38</title>
<polygon fill="white" stroke="#bfbfbf" points="296.5,-242.5 296.5,-261.5 337.5,-261.5 337.5,-242.5 296.5,-242.5"/>
<text text-anchor="middle" x="317" y="-249.5" font-family="Helvetica,sans-Serif" font-size="10.00">ctime</text>
</g>
<!-- Node35&#45;&gt;Node38 -->
<g id="edge54" class="edge"><title>Node35&#45;&gt;Node38</title>
<path fill="none" stroke="midnightblue" d="M358.979,-304.403C351.557,-295.314 339.667,-280.756 330.433,-269.449"/>
<polygon fill="midnightblue" stroke="midnightblue" points="333.044,-267.112 324.007,-261.581 327.622,-271.54 333.044,-267.112"/>
</g>
<!-- Node37&#45;&gt;Node5 -->
<g id="edge52" class="edge"><title>Node37&#45;&gt;Node5</title>
<path fill="none" stroke="midnightblue" d="M448.58,-242.372C432.863,-231.452 405.567,-212.489 386.683,-199.369"/>
<polygon fill="midnightblue" stroke="midnightblue" points="388.632,-196.462 378.423,-193.63 384.638,-202.21 388.632,-196.462"/>
</g>
<!-- Node37&#45;&gt;Node10 -->
<g id="edge51" class="edge"><title>Node37&#45;&gt;Node10</title>
<path fill="none" stroke="midnightblue" d="M468.237,-242.349C481.741,-226.501 512.127,-192.219 542,-168 556.6,-156.164 574.479,-144.847 588.643,-136.524"/>
<polygon fill="midnightblue" stroke="midnightblue" points="590.426,-139.536 597.343,-131.511 586.931,-133.471 590.426,-139.536"/>
</g>
<!-- Node37&#45;&gt;Node18 -->
<g id="edge53" class="edge"><title>Node37&#45;&gt;Node18</title>
<path fill="none" stroke="midnightblue" d="M489.892,-242.372C531.269,-230.015 607.14,-207.356 650.112,-194.523"/>
<polygon fill="midnightblue" stroke="midnightblue" points="651.198,-197.851 659.779,-191.636 649.195,-191.144 651.198,-197.851"/>
</g>
<!-- Node39&#45;&gt;Node7 -->
<g id="edge57" class="edge"><title>Node39&#45;&gt;Node7</title>
<path fill="none" stroke="midnightblue" d="M692.776,-385.841C694.823,-395.662 695.278,-411.798 694.141,-424.425"/>
<polygon fill="midnightblue" stroke="midnightblue" points="690.669,-423.979 692.731,-434.372 697.6,-424.962 690.669,-423.979"/>
</g>
</g>
</svg>
