<?xml version="1.0" encoding="UTF-8" standalone="no"?>
<!DOCTYPE svg PUBLIC "-//W3C//DTD SVG 1.1//EN"
 "http://www.w3.org/Graphics/SVG/1.1/DTD/svg11.dtd">
<!-- Generated by graphviz version 2.36.0 (20140111.2315)
 -->
<!-- Title: /home/travis/build/STORM&#45;IRIT/Radium&#45;Engine/src/Core/Geometry/Partition/Partition.hpp Pages: 1 -->
<svg width="1615pt" height="546pt"
 viewBox="0.00 0.00 1615.09 546.00" xmlns="http://www.w3.org/2000/svg" xmlns:xlink="http://www.w3.org/1999/xlink">
<g id="graph0" class="graph" transform="scale(1 1) rotate(0) translate(4 542)">
<title>/home/travis/build/STORM&#45;IRIT/Radium&#45;Engine/src/Core/Geometry/Partition/Partition.hpp</title>
<polygon fill="white" stroke="none" points="-4,4 -4,-542 1611.09,-542 1611.09,4 -4,4"/>
<!-- Node1 -->
<g id="node1" class="node"><title>Node1</title>
<polygon fill="#bfbfbf" stroke="black" points="694,-485 694,-537 842,-537 842,-485 694,-485"/>
<text text-anchor="start" x="702" y="-525" font-family="Helvetica,sans-Serif" font-size="10.00">/home/travis/build</text>
<text text-anchor="start" x="702" y="-514" font-family="Helvetica,sans-Serif" font-size="10.00">/STORM&#45;IRIT/Radium&#45;Engine</text>
<text text-anchor="start" x="702" y="-503" font-family="Helvetica,sans-Serif" font-size="10.00">/src/Core/Geometry/Partition</text>
<text text-anchor="middle" x="768" y="-492" font-family="Helvetica,sans-Serif" font-size="10.00">/Partition.hpp</text>
</g>
<!-- Node2 -->
<g id="node2" class="node"><title>Node2</title>
<polygon fill="white" stroke="#bfbfbf" points="634,-428.5 634,-447.5 664,-447.5 664,-428.5 634,-428.5"/>
<text text-anchor="middle" x="649" y="-435.5" font-family="Helvetica,sans-Serif" font-size="10.00">set</text>
</g>
<!-- Node1&#45;&gt;Node2 -->
<g id="edge1" class="edge"><title>Node1&#45;&gt;Node2</title>
<path fill="none" stroke="midnightblue" d="M726.045,-484.968C707.98,-474.19 687.545,-461.997 672.262,-452.879"/>
<polygon fill="midnightblue" stroke="midnightblue" points="673.86,-449.757 663.479,-447.639 670.274,-455.768 673.86,-449.757"/>
</g>
<!-- Node3 -->
<g id="node3" class="node"><title>Node3</title>
<g id="a_node3"><a xlink:href="HandleWeight_8hpp.html" target="_top" xlink:title="Core/Animation/Handle\l/HandleWeight.hpp">
<polygon fill="white" stroke="black" points="622,-305 622,-335 740,-335 740,-305 622,-305"/>
<text text-anchor="start" x="630" y="-323" font-family="Helvetica,sans-Serif" font-size="10.00">Core/Animation/Handle</text>
<text text-anchor="middle" x="681" y="-312" font-family="Helvetica,sans-Serif" font-size="10.00">/HandleWeight.hpp</text>
</a>
</g>
</g>
<!-- Node1&#45;&gt;Node3 -->
<g id="edge2" class="edge"><title>Node1&#45;&gt;Node3</title>
<path fill="none" stroke="midnightblue" d="M756.447,-484.902C739.547,-448.189 708.309,-380.327 691.83,-344.527"/>
<polygon fill="midnightblue" stroke="midnightblue" points="694.958,-342.952 687.597,-335.332 688.599,-345.879 694.958,-342.952"/>
</g>
<!-- Node4 -->
<g id="node4" class="node"><title>Node4</title>
<g id="a_node4"><a xlink:href="AlignedStdVector_8hpp.html" target="_top" xlink:title="Core/Containers/AlignedStd\lVector.hpp">
<polygon fill="white" stroke="black" points="1000,-237 1000,-267 1138,-267 1138,-237 1000,-237"/>
<text text-anchor="start" x="1008" y="-255" font-family="Helvetica,sans-Serif" font-size="10.00">Core/Containers/AlignedStd</text>
<text text-anchor="middle" x="1069" y="-244" font-family="Helvetica,sans-Serif" font-size="10.00">Vector.hpp</text>
</a>
</g>
</g>
<!-- Node1&#45;&gt;Node4 -->
<g id="edge28" class="edge"><title>Node1&#45;&gt;Node4</title>
<path fill="none" stroke="midnightblue" d="M842.298,-501.752C959.414,-487.05 1178.46,-452.085 1225,-392 1263.82,-341.88 1176.93,-295.409 1117.88,-270.964"/>
<polygon fill="midnightblue" stroke="midnightblue" points="1118.88,-267.596 1108.3,-267.09 1116.26,-274.085 1118.88,-267.596"/>
</g>
<!-- Node14 -->
<g id="node14" class="node"><title>Node14</title>
<g id="a_node14"><a xlink:href="LinearAlgebra_8hpp.html" target="_top" xlink:title="Core/Math/LinearAlgebra.hpp">
<polygon fill="white" stroke="black" points="663.5,-242.5 663.5,-261.5 806.5,-261.5 806.5,-242.5 663.5,-242.5"/>
<text text-anchor="middle" x="735" y="-249.5" font-family="Helvetica,sans-Serif" font-size="10.00">Core/Math/LinearAlgebra.hpp</text>
</a>
</g>
</g>
<!-- Node1&#45;&gt;Node14 -->
<g id="edge34" class="edge"><title>Node1&#45;&gt;Node14</title>
<path fill="none" stroke="midnightblue" d="M767.102,-484.755C765.392,-445.722 760.731,-368.488 749,-304 746.994,-292.974 743.718,-280.867 740.84,-271.218"/>
<polygon fill="midnightblue" stroke="midnightblue" points="744.149,-270.073 737.847,-261.556 737.462,-272.144 744.149,-270.073"/>
</g>
<!-- Node26 -->
<g id="node26" class="node"><title>Node26</title>
<g id="a_node26"><a xlink:href="VectorArray_8hpp.html" target="_top" xlink:title="Core/Containers/VectorArray.hpp">
<polygon fill="white" stroke="black" points="910.5,-310.5 910.5,-329.5 1071.5,-329.5 1071.5,-310.5 910.5,-310.5"/>
<text text-anchor="middle" x="991" y="-317.5" font-family="Helvetica,sans-Serif" font-size="10.00">Core/Containers/VectorArray.hpp</text>
</a>
</g>
</g>
<!-- Node1&#45;&gt;Node26 -->
<g id="edge29" class="edge"><title>Node1&#45;&gt;Node26</title>
<path fill="none" stroke="midnightblue" d="M784.035,-484.96C795.777,-467.766 812.785,-445.057 831,-428 873.403,-388.293 931.998,-353.173 965.24,-334.72"/>
<polygon fill="midnightblue" stroke="midnightblue" points="967.216,-337.628 974.304,-329.754 963.852,-331.49 967.216,-337.628"/>
</g>
<!-- Node27 -->
<g id="node27" class="node"><title>Node27</title>
<g id="a_node27"><a xlink:href="MeshTypes_8hpp.html" target="_top" xlink:title="Core/Mesh/MeshTypes.hpp">
<polygon fill="white" stroke="black" points="525.5,-372.5 525.5,-391.5 662.5,-391.5 662.5,-372.5 525.5,-372.5"/>
<text text-anchor="middle" x="594" y="-379.5" font-family="Helvetica,sans-Serif" font-size="10.00">Core/Mesh/MeshTypes.hpp</text>
</a>
</g>
</g>
<!-- Node1&#45;&gt;Node27 -->
<g id="edge35" class="edge"><title>Node1&#45;&gt;Node27</title>
<path fill="none" stroke="midnightblue" d="M741.36,-484.92C722.671,-467.919 696.704,-445.454 672,-428 655.399,-416.271 635.542,-404.849 620.017,-396.447"/>
<polygon fill="midnightblue" stroke="midnightblue" points="621.45,-393.244 610.979,-391.63 618.158,-399.422 621.45,-393.244"/>
</g>
<!-- Node31 -->
<g id="node31" class="node"><title>Node31</title>
<g id="a_node31"><a xlink:href="TriangleMesh_8hpp.html" target="_top" xlink:title="Core/Mesh/TriangleMesh.hpp">
<polygon fill="white" stroke="black" points="840.5,-428.5 840.5,-447.5 985.5,-447.5 985.5,-428.5 840.5,-428.5"/>
<text text-anchor="middle" x="913" y="-435.5" font-family="Helvetica,sans-Serif" font-size="10.00">Core/Mesh/TriangleMesh.hpp</text>
</a>
</g>
</g>
<!-- Node1&#45;&gt;Node31 -->
<g id="edge41" class="edge"><title>Node1&#45;&gt;Node31</title>
<path fill="none" stroke="midnightblue" d="M819.122,-484.968C841.757,-473.885 867.445,-461.306 886.221,-452.112"/>
<polygon fill="midnightblue" stroke="midnightblue" points="887.915,-455.18 895.357,-447.639 884.837,-448.893 887.915,-455.18"/>
</g>
<!-- Node3&#45;&gt;Node4 -->
<g id="edge3" class="edge"><title>Node3&#45;&gt;Node4</title>
<path fill="none" stroke="midnightblue" d="M740.351,-308.904C807.056,-297.558 915.669,-279.082 989.627,-266.502"/>
<polygon fill="midnightblue" stroke="midnightblue" points="990.553,-269.894 999.825,-264.767 989.379,-262.994 990.553,-269.894"/>
</g>
<!-- Node3&#45;&gt;Node14 -->
<g id="edge13" class="edge"><title>Node3&#45;&gt;Node14</title>
<path fill="none" stroke="midnightblue" d="M692.717,-304.679C701.137,-294.388 712.513,-280.484 721.345,-269.69"/>
<polygon fill="midnightblue" stroke="midnightblue" points="724.153,-271.784 727.777,-261.828 718.736,-267.352 724.153,-271.784"/>
</g>
<!-- Node25 -->
<g id="node25" class="node"><title>Node25</title>
<polygon fill="white" stroke="#bfbfbf" points="610.5,-242.5 610.5,-261.5 645.5,-261.5 645.5,-242.5 610.5,-242.5"/>
<text text-anchor="middle" x="628" y="-249.5" font-family="Helvetica,sans-Serif" font-size="10.00">map</text>
</g>
<!-- Node3&#45;&gt;Node25 -->
<g id="edge27" class="edge"><title>Node3&#45;&gt;Node25</title>
<path fill="none" stroke="midnightblue" d="M669.5,-304.679C661.236,-294.388 650.07,-280.484 641.402,-269.69"/>
<polygon fill="midnightblue" stroke="midnightblue" points="644.08,-267.434 635.089,-261.828 638.622,-271.817 644.08,-267.434"/>
</g>
<!-- Node5 -->
<g id="node5" class="node"><title>Node5</title>
<g id="a_node5"><a xlink:href="RaCore_8hpp.html" target="_top" xlink:title="Core/RaCore.hpp">
<polygon fill="white" stroke="black" points="996.5,-112.5 996.5,-131.5 1089.5,-131.5 1089.5,-112.5 996.5,-112.5"/>
<text text-anchor="middle" x="1043" y="-119.5" font-family="Helvetica,sans-Serif" font-size="10.00">Core/RaCore.hpp</text>
</a>
</g>
</g>
<!-- Node4&#45;&gt;Node5 -->
<g id="edge4" class="edge"><title>Node4&#45;&gt;Node5</title>
<path fill="none" stroke="midnightblue" d="M1079.96,-236.81C1091.54,-219.968 1106.76,-191.241 1096,-168 1090.08,-155.207 1078.53,-144.722 1067.72,-137.1"/>
<polygon fill="midnightblue" stroke="midnightblue" points="1069.62,-134.158 1059.33,-131.613 1065.79,-140.016 1069.62,-134.158"/>
</g>
<!-- Node12 -->
<g id="node12" class="node"><title>Node12</title>
<polygon fill="white" stroke="#bfbfbf" points="1000,-174.5 1000,-193.5 1088,-193.5 1088,-174.5 1000,-174.5"/>
<text text-anchor="middle" x="1044" y="-181.5" font-family="Helvetica,sans-Serif" font-size="10.00">Eigen/StdVector</text>
</g>
<!-- Node4&#45;&gt;Node12 -->
<g id="edge11" class="edge"><title>Node4&#45;&gt;Node12</title>
<path fill="none" stroke="midnightblue" d="M1063.58,-236.679C1059.87,-226.898 1054.93,-213.852 1050.94,-203.315"/>
<polygon fill="midnightblue" stroke="midnightblue" points="1054.16,-201.94 1047.34,-193.828 1047.61,-204.42 1054.16,-201.94"/>
</g>
<!-- Node13 -->
<g id="node13" class="node"><title>Node13</title>
<polygon fill="white" stroke="#bfbfbf" points="1144,-174.5 1144,-193.5 1188,-193.5 1188,-174.5 1144,-174.5"/>
<text text-anchor="middle" x="1166" y="-181.5" font-family="Helvetica,sans-Serif" font-size="10.00">vector</text>
</g>
<!-- Node4&#45;&gt;Node13 -->
<g id="edge12" class="edge"><title>Node4&#45;&gt;Node13</title>
<path fill="none" stroke="midnightblue" d="M1090.05,-236.679C1106.31,-225.611 1128.72,-210.363 1144.98,-199.3"/>
<polygon fill="midnightblue" stroke="midnightblue" points="1147.01,-202.157 1153.3,-193.638 1143.07,-196.37 1147.01,-202.157"/>
</g>
<!-- Node6 -->
<g id="node6" class="node"><title>Node6</title>
<g id="a_node6"><a xlink:href="CoreMacros_8hpp.html" target="_top" xlink:title="Core/CoreMacros.hpp">
<polygon fill="white" stroke="black" points="1057.5,-56.5 1057.5,-75.5 1170.5,-75.5 1170.5,-56.5 1057.5,-56.5"/>
<text text-anchor="middle" x="1114" y="-63.5" font-family="Helvetica,sans-Serif" font-size="10.00">Core/CoreMacros.hpp</text>
</a>
</g>
</g>
<!-- Node5&#45;&gt;Node6 -->
<g id="edge5" class="edge"><title>Node5&#45;&gt;Node6</title>
<path fill="none" stroke="midnightblue" d="M1054.41,-112.324C1065.11,-104.185 1081.34,-91.8395 1094.16,-82.0874"/>
<polygon fill="midnightblue" stroke="midnightblue" points="1096.54,-84.6734 1102.39,-75.8339 1092.31,-79.1018 1096.54,-84.6734"/>
</g>
<!-- Node7 -->
<g id="node7" class="node"><title>Node7</title>
<polygon fill="white" stroke="#bfbfbf" points="1122.5,-0.5 1122.5,-19.5 1171.5,-19.5 1171.5,-0.5 1122.5,-0.5"/>
<text text-anchor="middle" x="1147" y="-7.5" font-family="Helvetica,sans-Serif" font-size="10.00">cassert</text>
</g>
<!-- Node6&#45;&gt;Node7 -->
<g id="edge6" class="edge"><title>Node6&#45;&gt;Node7</title>
<path fill="none" stroke="midnightblue" d="M1119.45,-56.083C1124.01,-48.6127 1130.67,-37.7244 1136.29,-28.5199"/>
<polygon fill="midnightblue" stroke="midnightblue" points="1139.42,-30.109 1141.65,-19.7511 1133.45,-26.4588 1139.42,-30.109"/>
</g>
<!-- Node8 -->
<g id="node8" class="node"><title>Node8</title>
<polygon fill="white" stroke="#bfbfbf" points="1189.5,-0.5 1189.5,-19.5 1232.5,-19.5 1232.5,-0.5 1189.5,-0.5"/>
<text text-anchor="middle" x="1211" y="-7.5" font-family="Helvetica,sans-Serif" font-size="10.00">cstdio</text>
</g>
<!-- Node6&#45;&gt;Node8 -->
<g id="edge7" class="edge"><title>Node6&#45;&gt;Node8</title>
<path fill="none" stroke="midnightblue" d="M1129.58,-56.324C1145,-47.7428 1168.81,-34.486 1186.71,-24.5224"/>
<polygon fill="midnightblue" stroke="midnightblue" points="1188.42,-27.5767 1195.45,-19.6545 1185.01,-21.4606 1188.42,-27.5767"/>
</g>
<!-- Node9 -->
<g id="node9" class="node"><title>Node9</title>
<polygon fill="white" stroke="#bfbfbf" points="988,-0.5 988,-19.5 1042,-19.5 1042,-0.5 988,-0.5"/>
<text text-anchor="middle" x="1015" y="-7.5" font-family="Helvetica,sans-Serif" font-size="10.00">iostream</text>
</g>
<!-- Node6&#45;&gt;Node9 -->
<g id="edge8" class="edge"><title>Node6&#45;&gt;Node9</title>
<path fill="none" stroke="midnightblue" d="M1098.09,-56.324C1082.36,-47.7428 1058.06,-34.486 1039.79,-24.5224"/>
<polygon fill="midnightblue" stroke="midnightblue" points="1041.32,-21.3704 1030.87,-19.6545 1037.97,-27.5157 1041.32,-21.3704"/>
</g>
<!-- Node10 -->
<g id="node10" class="node"><title>Node10</title>
<polygon fill="white" stroke="#bfbfbf" points="1361,-0.5 1361,-19.5 1413,-19.5 1413,-0.5 1361,-0.5"/>
<text text-anchor="middle" x="1387" y="-7.5" font-family="Helvetica,sans-Serif" font-size="10.00">sstream</text>
</g>
<!-- Node6&#45;&gt;Node10 -->
<g id="edge9" class="edge"><title>Node6&#45;&gt;Node10</title>
<path fill="none" stroke="midnightblue" d="M1157.26,-56.4435C1210.74,-45.8653 1300.79,-28.052 1350.79,-18.1619"/>
<polygon fill="midnightblue" stroke="midnightblue" points="1351.7,-21.5512 1360.83,-16.1772 1350.34,-14.6842 1351.7,-21.5512"/>
</g>
<!-- Node11 -->
<g id="node11" class="node"><title>Node11</title>
<polygon fill="white" stroke="#bfbfbf" points="1060,-0.5 1060,-19.5 1104,-19.5 1104,-0.5 1060,-0.5"/>
<text text-anchor="middle" x="1082" y="-7.5" font-family="Helvetica,sans-Serif" font-size="10.00">thread</text>
</g>
<!-- Node6&#45;&gt;Node11 -->
<g id="edge10" class="edge"><title>Node6&#45;&gt;Node11</title>
<path fill="none" stroke="midnightblue" d="M1108.72,-56.083C1104.29,-48.6127 1097.84,-37.7244 1092.38,-28.5199"/>
<polygon fill="midnightblue" stroke="midnightblue" points="1095.29,-26.5697 1087.19,-19.7511 1089.27,-30.1383 1095.29,-26.5697"/>
</g>
<!-- Node14&#45;&gt;Node5 -->
<g id="edge14" class="edge"><title>Node14&#45;&gt;Node5</title>
<path fill="none" stroke="midnightblue" d="M766.316,-242.448C795.618,-233.811 840.13,-219.037 876,-200 897.359,-188.664 898.662,-179.375 920,-168 946.453,-153.898 978.281,-142.386 1002.93,-134.537"/>
<polygon fill="midnightblue" stroke="midnightblue" points="1004.17,-137.817 1012.68,-131.504 1002.09,-131.133 1004.17,-137.817"/>
</g>
<!-- Node15 -->
<g id="node15" class="node"><title>Node15</title>
<polygon fill="white" stroke="#bfbfbf" points="527.5,-174.5 527.5,-193.5 592.5,-193.5 592.5,-174.5 527.5,-174.5"/>
<text text-anchor="middle" x="560" y="-181.5" font-family="Helvetica,sans-Serif" font-size="10.00">Eigen/Core</text>
</g>
<!-- Node14&#45;&gt;Node15 -->
<g id="edge15" class="edge"><title>Node14&#45;&gt;Node15</title>
<path fill="none" stroke="midnightblue" d="M712.122,-242.372C681.512,-230.827 627.064,-210.293 592.288,-197.177"/>
<polygon fill="midnightblue" stroke="midnightblue" points="593.198,-193.78 582.606,-193.526 590.728,-200.33 593.198,-193.78"/>
</g>
<!-- Node16 -->
<g id="node16" class="node"><title>Node16</title>
<polygon fill="white" stroke="#bfbfbf" points="610.5,-174.5 610.5,-193.5 697.5,-193.5 697.5,-174.5 610.5,-174.5"/>
<text text-anchor="middle" x="654" y="-181.5" font-family="Helvetica,sans-Serif" font-size="10.00">Eigen/Geometry</text>
</g>
<!-- Node14&#45;&gt;Node16 -->
<g id="edge16" class="edge"><title>Node14&#45;&gt;Node16</title>
<path fill="none" stroke="midnightblue" d="M724.411,-242.372C711.313,-231.699 688.784,-213.343 672.738,-200.268"/>
<polygon fill="midnightblue" stroke="midnightblue" points="674.555,-197.234 664.592,-193.63 670.133,-202.661 674.555,-197.234"/>
</g>
<!-- Node17 -->
<g id="node17" class="node"><title>Node17</title>
<polygon fill="white" stroke="#bfbfbf" points="715.5,-174.5 715.5,-193.5 790.5,-193.5 790.5,-174.5 715.5,-174.5"/>
<text text-anchor="middle" x="753" y="-181.5" font-family="Helvetica,sans-Serif" font-size="10.00">Eigen/Sparse</text>
</g>
<!-- Node14&#45;&gt;Node17 -->
<g id="edge17" class="edge"><title>Node14&#45;&gt;Node17</title>
<path fill="none" stroke="midnightblue" d="M737.353,-242.372C740.007,-232.643 744.401,-216.528 747.859,-203.85"/>
<polygon fill="midnightblue" stroke="midnightblue" points="751.334,-204.41 750.589,-193.841 744.581,-202.568 751.334,-204.41"/>
</g>
<!-- Node18 -->
<g id="node18" class="node"><title>Node18</title>
<polygon fill="white" stroke="#bfbfbf" points="808.5,-174.5 808.5,-193.5 867.5,-193.5 867.5,-174.5 808.5,-174.5"/>
<text text-anchor="middle" x="838" y="-181.5" font-family="Helvetica,sans-Serif" font-size="10.00">functional</text>
</g>
<!-- Node14&#45;&gt;Node18 -->
<g id="edge18" class="edge"><title>Node14&#45;&gt;Node18</title>
<path fill="none" stroke="midnightblue" d="M748.465,-242.372C765.584,-231.403 795.369,-212.317 815.853,-199.191"/>
<polygon fill="midnightblue" stroke="midnightblue" points="818,-201.973 824.531,-193.63 814.223,-196.079 818,-201.973"/>
</g>
<!-- Node19 -->
<g id="node19" class="node"><title>Node19</title>
<polygon fill="white" stroke="#bfbfbf" points="221.5,-169 221.5,-199 354.5,-199 354.5,-169 221.5,-169"/>
<text text-anchor="start" x="229.5" y="-187" font-family="Helvetica,sans-Serif" font-size="10.00">unsupported/Eigen/Aligned</text>
<text text-anchor="middle" x="288" y="-176" font-family="Helvetica,sans-Serif" font-size="10.00">Vector3</text>
</g>
<!-- Node14&#45;&gt;Node19 -->
<g id="edge19" class="edge"><title>Node14&#45;&gt;Node19</title>
<path fill="none" stroke="midnightblue" d="M691.363,-242.422C679.285,-240.184 666.156,-237.876 654,-236 528.475,-216.631 493.415,-220.572 364.851,-200.229"/>
<polygon fill="midnightblue" stroke="midnightblue" points="365.037,-196.714 354.61,-198.589 363.93,-203.626 365.037,-196.714"/>
</g>
<!-- Node20 -->
<g id="node20" class="node"><title>Node20</title>
<g id="a_node20"><a xlink:href="Math_8hpp.html" target="_top" xlink:title="Core/Math/Math.hpp">
<polygon fill="white" stroke="black" points="59,-174.5 59,-193.5 165,-193.5 165,-174.5 59,-174.5"/>
<text text-anchor="middle" x="112" y="-181.5" font-family="Helvetica,sans-Serif" font-size="10.00">Core/Math/Math.hpp</text>
</a>
</g>
</g>
<!-- Node14&#45;&gt;Node20 -->
<g id="edge20" class="edge"><title>Node14&#45;&gt;Node20</title>
<path fill="none" stroke="midnightblue" d="M693.506,-242.476C680.865,-240.107 666.901,-237.715 654,-236 458.625,-210.022 407.791,-222.632 212,-200 199.874,-198.598 186.958,-196.852 174.576,-195.051"/>
<polygon fill="midnightblue" stroke="midnightblue" points="174.735,-191.536 164.33,-193.531 173.708,-198.46 174.735,-191.536"/>
</g>
<!-- Node24 -->
<g id="node24" class="node"><title>Node24</title>
<g id="a_node24"><a xlink:href="LinearAlgebra_8inl.html" target="_top" xlink:title="Core/Math/LinearAlgebra.inl">
<polygon fill="white" stroke="black" points="372.5,-174.5 372.5,-193.5 509.5,-193.5 509.5,-174.5 372.5,-174.5"/>
<text text-anchor="middle" x="441" y="-181.5" font-family="Helvetica,sans-Serif" font-size="10.00">Core/Math/LinearAlgebra.inl</text>
</a>
</g>
</g>
<!-- Node14&#45;&gt;Node24 -->
<g id="edge26" class="edge"><title>Node14&#45;&gt;Node24</title>
<path fill="none" stroke="midnightblue" d="M696.866,-242.439C643.661,-230.495 547.17,-208.834 489.094,-195.797"/>
<polygon fill="midnightblue" stroke="midnightblue" points="489.59,-192.321 479.066,-193.546 488.057,-199.151 489.59,-192.321"/>
</g>
<!-- Node20&#45;&gt;Node5 -->
<g id="edge21" class="edge"><title>Node20&#45;&gt;Node5</title>
<path fill="none" stroke="midnightblue" d="M144.856,-174.488C155.662,-171.999 167.781,-169.537 179,-168 481.035,-126.624 847.232,-122.57 986.003,-122.666"/>
<polygon fill="midnightblue" stroke="midnightblue" points="986.376,-126.167 996.381,-122.682 986.386,-119.167 986.376,-126.167"/>
</g>
<!-- Node21 -->
<g id="node21" class="node"><title>Node21</title>
<polygon fill="white" stroke="#bfbfbf" points="180,-112.5 180,-131.5 236,-131.5 236,-112.5 180,-112.5"/>
<text text-anchor="middle" x="208" y="-119.5" font-family="Helvetica,sans-Serif" font-size="10.00">algorithm</text>
</g>
<!-- Node20&#45;&gt;Node21 -->
<g id="edge22" class="edge"><title>Node20&#45;&gt;Node21</title>
<path fill="none" stroke="midnightblue" d="M125.754,-174.403C141.366,-164.646 167.063,-148.585 185.583,-137.011"/>
<polygon fill="midnightblue" stroke="midnightblue" points="187.646,-139.849 194.271,-131.581 183.936,-133.913 187.646,-139.849"/>
</g>
<!-- Node22 -->
<g id="node22" class="node"><title>Node22</title>
<polygon fill="white" stroke="#bfbfbf" points="0,-112.5 0,-131.5 44,-131.5 44,-112.5 0,-112.5"/>
<text text-anchor="middle" x="22" y="-119.5" font-family="Helvetica,sans-Serif" font-size="10.00">cmath</text>
</g>
<!-- Node20&#45;&gt;Node22 -->
<g id="edge23" class="edge"><title>Node20&#45;&gt;Node22</title>
<path fill="none" stroke="midnightblue" d="M99.1052,-174.403C84.5358,-164.691 60.5978,-148.732 43.2546,-137.17"/>
<polygon fill="midnightblue" stroke="midnightblue" points="45.1329,-134.215 34.8709,-131.581 41.2499,-140.04 45.1329,-134.215"/>
</g>
<!-- Node23 -->
<g id="node23" class="node"><title>Node23</title>
<g id="a_node23"><a xlink:href="Math_8inl.html" target="_top" xlink:title="Core/Math/Math.inl">
<polygon fill="white" stroke="black" points="62,-112.5 62,-131.5 162,-131.5 162,-112.5 62,-112.5"/>
<text text-anchor="middle" x="112" y="-119.5" font-family="Helvetica,sans-Serif" font-size="10.00">Core/Math/Math.inl</text>
</a>
</g>
</g>
<!-- Node20&#45;&gt;Node23 -->
<g id="edge24" class="edge"><title>Node20&#45;&gt;Node23</title>
<path fill="none" stroke="midnightblue" d="M107.099,-174.403C105.268,-165.938 104.797,-152.728 105.685,-141.82"/>
<polygon fill="midnightblue" stroke="midnightblue" points="109.198,-141.966 107.103,-131.581 102.264,-141.006 109.198,-141.966"/>
</g>
<!-- Node23&#45;&gt;Node20 -->
<g id="edge25" class="edge"><title>Node23&#45;&gt;Node20</title>
<path fill="none" stroke="midnightblue" d="M116.897,-131.581C118.73,-140.04 119.203,-153.248 118.317,-164.16"/>
<polygon fill="midnightblue" stroke="midnightblue" points="114.803,-164.018 116.901,-174.403 121.737,-164.977 114.803,-164.018"/>
</g>
<!-- Node26&#45;&gt;Node4 -->
<g id="edge30" class="edge"><title>Node26&#45;&gt;Node4</title>
<path fill="none" stroke="midnightblue" d="M1001.2,-310.372C1012.14,-301.114 1029.91,-286.076 1044.52,-273.718"/>
<polygon fill="midnightblue" stroke="midnightblue" points="1046.87,-276.313 1052.24,-267.181 1042.35,-270.969 1046.87,-276.313"/>
</g>
<!-- Node26&#45;&gt;Node5 -->
<g id="edge32" class="edge"><title>Node26&#45;&gt;Node5</title>
<path fill="none" stroke="midnightblue" d="M988.609,-310.295C982.5,-286.281 968.332,-217.593 991,-168 996.777,-155.36 1008.05,-144.911 1018.63,-137.274"/>
<polygon fill="midnightblue" stroke="midnightblue" points="1020.85,-140.001 1027.22,-131.533 1016.96,-134.182 1020.85,-140.001"/>
</g>
<!-- Node26&#45;&gt;Node13 -->
<g id="edge33" class="edge"><title>Node26&#45;&gt;Node13</title>
<path fill="none" stroke="midnightblue" d="M1065.93,-310.457C1094.96,-303.471 1126.16,-290.832 1147,-268 1163.01,-250.461 1166.41,-222.247 1166.72,-203.665"/>
<polygon fill="midnightblue" stroke="midnightblue" points="1170.22,-203.478 1166.6,-193.52 1163.22,-203.561 1170.22,-203.478"/>
</g>
<!-- Node26&#45;&gt;Node14 -->
<g id="edge31" class="edge"><title>Node26&#45;&gt;Node14</title>
<path fill="none" stroke="midnightblue" d="M957.795,-310.439C911.851,-298.594 828.836,-277.192 778.141,-264.122"/>
<polygon fill="midnightblue" stroke="midnightblue" points="778.703,-260.653 768.146,-261.546 776.956,-267.431 778.703,-260.653"/>
</g>
<!-- Node27&#45;&gt;Node5 -->
<g id="edge40" class="edge"><title>Node27&#45;&gt;Node5</title>
<path fill="none" stroke="midnightblue" d="M541.812,-372.462C414.304,-349.612 104.948,-281.006 212,-168 238.622,-139.897 803.202,-127.308 986.255,-123.955"/>
<polygon fill="midnightblue" stroke="midnightblue" points="986.542,-127.45 996.477,-123.77 986.415,-120.451 986.542,-127.45"/>
</g>
<!-- Node27&#45;&gt;Node14 -->
<g id="edge39" class="edge"><title>Node27&#45;&gt;Node14</title>
<path fill="none" stroke="midnightblue" d="M593.744,-372.247C593.758,-356.659 595.979,-323.867 613,-304 630,-284.157 655.999,-271.877 679.635,-264.358"/>
<polygon fill="midnightblue" stroke="midnightblue" points="680.646,-267.709 689.241,-261.514 678.658,-260.997 680.646,-267.709"/>
</g>
<!-- Node28 -->
<g id="node28" class="node"><title>Node28</title>
<g id="a_node28"><a xlink:href="Index_8hpp.html" target="_top" xlink:title="Core/Index/Index.hpp">
<polygon fill="white" stroke="black" points="55,-310.5 55,-329.5 165,-329.5 165,-310.5 55,-310.5"/>
<text text-anchor="middle" x="110" y="-317.5" font-family="Helvetica,sans-Serif" font-size="10.00">Core/Index/Index.hpp</text>
</a>
</g>
</g>
<!-- Node27&#45;&gt;Node28 -->
<g id="edge36" class="edge"><title>Node27&#45;&gt;Node28</title>
<path fill="none" stroke="midnightblue" d="M525.406,-375.805C442.869,-369.038 300.249,-355.696 179,-336 171.428,-334.77 163.435,-333.245 155.679,-331.643"/>
<polygon fill="midnightblue" stroke="midnightblue" points="156.185,-328.172 145.675,-329.51 154.725,-335.018 156.185,-328.172"/>
</g>
<!-- Node29 -->
<g id="node29" class="node"><title>Node29</title>
<polygon fill="white" stroke="#bfbfbf" points="2,-242.5 2,-261.5 42,-261.5 42,-242.5 2,-242.5"/>
<text text-anchor="middle" x="22" y="-249.5" font-family="Helvetica,sans-Serif" font-size="10.00">limits</text>
</g>
<!-- Node28&#45;&gt;Node29 -->
<g id="edge37" class="edge"><title>Node28&#45;&gt;Node29</title>
<path fill="none" stroke="midnightblue" d="M98.4955,-310.372C84.1338,-299.6 59.3362,-281.002 41.8753,-267.906"/>
<polygon fill="midnightblue" stroke="midnightblue" points="43.6073,-264.83 33.5073,-261.63 39.4073,-270.431 43.6073,-264.83"/>
</g>
<!-- Node30 -->
<g id="node30" class="node"><title>Node30</title>
<g id="a_node30"><a xlink:href="Index_8inl.html" target="_top" xlink:title="Core/Index/Index.inl">
<polygon fill="white" stroke="black" points="60,-242.5 60,-261.5 164,-261.5 164,-242.5 60,-242.5"/>
<text text-anchor="middle" x="112" y="-249.5" font-family="Helvetica,sans-Serif" font-size="10.00">Core/Index/Index.inl</text>
</a>
</g>
</g>
<!-- Node28&#45;&gt;Node30 -->
<g id="edge38" class="edge"><title>Node28&#45;&gt;Node30</title>
<path fill="none" stroke="midnightblue" d="M110.261,-310.372C110.556,-300.643 111.045,-284.528 111.429,-271.85"/>
<polygon fill="midnightblue" stroke="midnightblue" points="114.927,-271.943 111.732,-261.841 107.931,-271.73 114.927,-271.943"/>
</g>
<!-- Node31&#45;&gt;Node5 -->
<g id="edge45" class="edge"><title>Node31&#45;&gt;Node5</title>
<path fill="none" stroke="midnightblue" d="M910.224,-428.428C903.725,-407.036 888.951,-349.735 901,-304 918.695,-236.832 931.153,-219.284 978,-168 989.322,-155.605 1004.66,-144.782 1017.6,-136.858"/>
<polygon fill="midnightblue" stroke="midnightblue" points="1019.66,-139.708 1026.5,-131.62 1016.11,-133.675 1019.66,-139.708"/>
</g>
<!-- Node31&#45;&gt;Node14 -->
<g id="edge43" class="edge"><title>Node31&#45;&gt;Node14</title>
<path fill="none" stroke="midnightblue" d="M904.316,-428.429C895.212,-419.417 880.516,-404.795 868,-392 824.798,-347.834 774.588,-294.92 750.054,-268.96"/>
<polygon fill="midnightblue" stroke="midnightblue" points="752.442,-266.392 743.032,-261.524 747.353,-271.198 752.442,-266.392"/>
</g>
<!-- Node31&#45;&gt;Node26 -->
<g id="edge42" class="edge"><title>Node31&#45;&gt;Node26</title>
<path fill="none" stroke="midnightblue" d="M915.187,-428.461C918.767,-415.495 926.733,-390.408 939,-372 948.052,-358.416 961.198,-345.563 972.007,-336.158"/>
<polygon fill="midnightblue" stroke="midnightblue" points="974.307,-338.797 979.71,-329.684 969.803,-333.438 974.307,-338.797"/>
</g>
<!-- Node31&#45;&gt;Node27 -->
<g id="edge44" class="edge"><title>Node31&#45;&gt;Node27</title>
<path fill="none" stroke="midnightblue" d="M862.454,-428.444C805.988,-418.885 714.626,-403.419 654.431,-393.23"/>
<polygon fill="midnightblue" stroke="midnightblue" points="654.754,-389.735 644.31,-391.516 653.586,-396.636 654.754,-389.735"/>
</g>
<!-- Node32 -->
<g id="node32" class="node"><title>Node32</title>
<g id="a_node32"><a xlink:href="Attribs_8hpp.html" target="_top" xlink:title="Core/Utils/Attribs.hpp">
<polygon fill="white" stroke="black" points="1105.5,-372.5 1105.5,-391.5 1216.5,-391.5 1216.5,-372.5 1105.5,-372.5"/>
<text text-anchor="middle" x="1161" y="-379.5" font-family="Helvetica,sans-Serif" font-size="10.00">Core/Utils/Attribs.hpp</text>
</a>
</g>
</g>
<!-- Node31&#45;&gt;Node32 -->
<g id="edge46" class="edge"><title>Node31&#45;&gt;Node32</title>
<path fill="none" stroke="midnightblue" d="M952.296,-428.444C995.559,-419.023 1065.17,-403.866 1111.97,-393.675"/>
<polygon fill="midnightblue" stroke="midnightblue" points="1112.86,-397.064 1121.89,-391.516 1111.37,-390.224 1112.86,-397.064"/>
</g>
<!-- Node38 -->
<g id="node38" class="node"><title>Node38</title>
<g id="a_node38"><a xlink:href="TriangleMesh_8inl.html" target="_top" xlink:title="Core/Mesh/TriangleMesh.inl">
<polygon fill="white" stroke="black" points="948.5,-372.5 948.5,-391.5 1087.5,-391.5 1087.5,-372.5 948.5,-372.5"/>
<text text-anchor="middle" x="1018" y="-379.5" font-family="Helvetica,sans-Serif" font-size="10.00">Core/Mesh/TriangleMesh.inl</text>
</a>
</g>
</g>
<!-- Node31&#45;&gt;Node38 -->
<g id="edge59" class="edge"><title>Node31&#45;&gt;Node38</title>
<path fill="none" stroke="midnightblue" d="M924.755,-428.324C939.855,-419.585 966.025,-405.998 986.901,-395.977"/>
<polygon fill="midnightblue" stroke="midnightblue" points="988.512,-399.087 996.062,-391.655 985.524,-392.757 988.512,-399.087"/>
</g>
<!-- Node32&#45;&gt;Node5 -->
<g id="edge58" class="edge"><title>Node32&#45;&gt;Node5</title>
<path fill="none" stroke="midnightblue" d="M1166.58,-372.209C1185.7,-340.884 1244.72,-233.112 1196,-168 1184.2,-152.229 1138.25,-140.088 1099.76,-132.413"/>
<polygon fill="midnightblue" stroke="midnightblue" points="1100.13,-128.921 1089.65,-130.464 1098.81,-135.794 1100.13,-128.921"/>
</g>
<!-- Node32&#45;&gt;Node26 -->
<g id="edge47" class="edge"><title>Node32&#45;&gt;Node26</title>
<path fill="none" stroke="midnightblue" d="M1136.64,-372.403C1107.36,-362.067 1058.03,-344.656 1025,-332.999"/>
<polygon fill="midnightblue" stroke="midnightblue" points="1025.91,-329.608 1015.31,-329.581 1023.58,-336.209 1025.91,-329.608"/>
</g>
<!-- Node33 -->
<g id="node33" class="node"><title>Node33</title>
<g id="a_node33"><a xlink:href="Log_8hpp.html" target="_top" xlink:title="Core/Log/Log.hpp">
<polygon fill="white" stroke="black" points="1423,-310.5 1423,-329.5 1517,-329.5 1517,-310.5 1423,-310.5"/>
<text text-anchor="middle" x="1470" y="-317.5" font-family="Helvetica,sans-Serif" font-size="10.00">Core/Log/Log.hpp</text>
</a>
</g>
</g>
<!-- Node32&#45;&gt;Node33 -->
<g id="edge48" class="edge"><title>Node32&#45;&gt;Node33</title>
<path fill="none" stroke="midnightblue" d="M1204.94,-372.467C1260.54,-361.671 1356.26,-343.086 1416.18,-331.45"/>
<polygon fill="midnightblue" stroke="midnightblue" points="1417.06,-334.845 1426.21,-329.503 1415.72,-327.974 1417.06,-334.845"/>
</g>
<!-- Node33&#45;&gt;Node5 -->
<g id="edge49" class="edge"><title>Node33&#45;&gt;Node5</title>
<path fill="none" stroke="midnightblue" d="M1472.04,-310.228C1477.68,-283.489 1490.29,-202.718 1446,-168 1393.49,-126.839 1197.82,-121.96 1099.76,-122.202"/>
<polygon fill="midnightblue" stroke="midnightblue" points="1099.71,-118.702 1089.73,-122.245 1099.74,-125.702 1099.71,-118.702"/>
</g>
<!-- Node33&#45;&gt;Node10 -->
<g id="edge50" class="edge"><title>Node33&#45;&gt;Node10</title>
<path fill="none" stroke="midnightblue" d="M1511.89,-310.456C1536.88,-303.236 1567.3,-290.36 1586,-268 1610.34,-238.893 1606,-222.945 1606,-185 1606,-185 1606,-185 1606,-121 1606,-40.3576 1485.96,-18.8294 1423.62,-13.0865"/>
<polygon fill="midnightblue" stroke="midnightblue" points="1423.67,-9.57881 1413.42,-12.24 1423.09,-16.5548 1423.67,-9.57881"/>
</g>
<!-- Node34 -->
<g id="node34" class="node"><title>Node34</title>
<polygon fill="white" stroke="#bfbfbf" points="1244,-242.5 1244,-261.5 1290,-261.5 1290,-242.5 1244,-242.5"/>
<text text-anchor="middle" x="1267" y="-249.5" font-family="Helvetica,sans-Serif" font-size="10.00">stdio.h</text>
</g>
<!-- Node33&#45;&gt;Node34 -->
<g id="edge51" class="edge"><title>Node33&#45;&gt;Node34</title>
<path fill="none" stroke="midnightblue" d="M1436.09,-310.481C1401.23,-301.354 1345.61,-285.761 1299,-268 1297.15,-267.295 1295.26,-266.53 1293.37,-265.731"/>
<polygon fill="midnightblue" stroke="midnightblue" points="1294.63,-262.46 1284.07,-261.573 1291.77,-268.851 1294.63,-262.46"/>
</g>
<!-- Node35 -->
<g id="node35" class="node"><title>Node35</title>
<polygon fill="white" stroke="#bfbfbf" points="1396.5,-174.5 1396.5,-193.5 1437.5,-193.5 1437.5,-174.5 1396.5,-174.5"/>
<text text-anchor="middle" x="1417" y="-181.5" font-family="Helvetica,sans-Serif" font-size="10.00">string</text>
</g>
<!-- Node33&#45;&gt;Node35 -->
<g id="edge52" class="edge"><title>Node33&#45;&gt;Node35</title>
<path fill="none" stroke="midnightblue" d="M1469.08,-310.438C1467.19,-295.022 1462.11,-261.798 1451,-236 1445.77,-223.853 1437.61,-211.48 1430.59,-201.963"/>
<polygon fill="midnightblue" stroke="midnightblue" points="1433.2,-199.624 1424.34,-193.815 1427.65,-203.882 1433.2,-199.624"/>
</g>
<!-- Node36 -->
<g id="node36" class="node"><title>Node36</title>
<g id="a_node36"><a xlink:href="StringUtils_8hpp.html" target="_top" xlink:title="Core/String/StringUtils.hpp">
<polygon fill="white" stroke="black" points="1308,-242.5 1308,-261.5 1442,-261.5 1442,-242.5 1308,-242.5"/>
<text text-anchor="middle" x="1375" y="-249.5" font-family="Helvetica,sans-Serif" font-size="10.00">Core/String/StringUtils.hpp</text>
</a>
</g>
</g>
<!-- Node33&#45;&gt;Node36 -->
<g id="edge53" class="edge"><title>Node33&#45;&gt;Node36</title>
<path fill="none" stroke="midnightblue" d="M1457.58,-310.372C1441.86,-299.452 1414.57,-280.489 1395.68,-267.369"/>
<polygon fill="midnightblue" stroke="midnightblue" points="1397.63,-264.462 1387.42,-261.63 1393.64,-270.21 1397.63,-264.462"/>
</g>
<!-- Node37 -->
<g id="node37" class="node"><title>Node37</title>
<polygon fill="white" stroke="#bfbfbf" points="1536.5,-242.5 1536.5,-261.5 1577.5,-261.5 1577.5,-242.5 1536.5,-242.5"/>
<text text-anchor="middle" x="1557" y="-249.5" font-family="Helvetica,sans-Serif" font-size="10.00">ctime</text>
</g>
<!-- Node33&#45;&gt;Node37 -->
<g id="edge57" class="edge"><title>Node33&#45;&gt;Node37</title>
<path fill="none" stroke="midnightblue" d="M1481.37,-310.372C1495.57,-299.6 1520.09,-281.002 1537.35,-267.906"/>
<polygon fill="midnightblue" stroke="midnightblue" points="1539.77,-270.463 1545.62,-261.63 1535.54,-264.886 1539.77,-270.463"/>
</g>
<!-- Node36&#45;&gt;Node5 -->
<g id="edge54" class="edge"><title>Node36&#45;&gt;Node5</title>
<path fill="none" stroke="midnightblue" d="M1362.81,-242.408C1338.6,-225.725 1282.3,-188.769 1230,-168 1187.87,-151.271 1137.85,-139.631 1100.14,-132.387"/>
<polygon fill="midnightblue" stroke="midnightblue" points="1100.32,-128.86 1089.85,-130.459 1099.04,-135.74 1100.32,-128.86"/>
</g>
<!-- Node36&#45;&gt;Node13 -->
<g id="edge56" class="edge"><title>Node36&#45;&gt;Node13</title>
<path fill="none" stroke="midnightblue" d="M1347.68,-242.372C1309.12,-230.196 1238.89,-208.018 1197.96,-195.093"/>
<polygon fill="midnightblue" stroke="midnightblue" points="1198.81,-191.692 1188.22,-192.018 1196.71,-198.367 1198.81,-191.692"/>
</g>
<!-- Node36&#45;&gt;Node35 -->
<g id="edge55" class="edge"><title>Node36&#45;&gt;Node35</title>
<path fill="none" stroke="midnightblue" d="M1380.49,-242.372C1386.93,-232.25 1397.77,-215.215 1405.97,-202.331"/>
<polygon fill="midnightblue" stroke="midnightblue" points="1408.96,-204.157 1411.37,-193.841 1403.05,-200.399 1408.96,-204.157"/>
</g>
<!-- Node38&#45;&gt;Node31 -->
<g id="edge60" class="edge"><title>Node38&#45;&gt;Node31</title>
<path fill="none" stroke="midnightblue" d="M1006.52,-391.516C991.428,-400.27 964.975,-414.007 943.946,-424.096"/>
<polygon fill="midnightblue" stroke="midnightblue" points="942.278,-421.013 934.726,-428.444 945.264,-427.344 942.278,-421.013"/>
</g>
</g>
</svg>
