<?xml version="1.0" encoding="UTF-8" standalone="no"?>
<!DOCTYPE svg PUBLIC "-//W3C//DTD SVG 1.1//EN"
 "http://www.w3.org/Graphics/SVG/1.1/DTD/svg11.dtd">
<!-- Generated by graphviz version 2.36.0 (20140111.2315)
 -->
<!-- Title: /home/travis/build/STORM&#45;IRIT/Radium&#45;Engine/src/Core/Geometry/Partition/Partition.cpp Pages: 1 -->
<svg width="1670pt" height="614pt"
 viewBox="0.00 0.00 1670.00 614.00" xmlns="http://www.w3.org/2000/svg" xmlns:xlink="http://www.w3.org/1999/xlink">
<g id="graph0" class="graph" transform="scale(1 1) rotate(0) translate(4 610)">
<title>/home/travis/build/STORM&#45;IRIT/Radium&#45;Engine/src/Core/Geometry/Partition/Partition.cpp</title>
<polygon fill="white" stroke="none" points="-4,4 -4,-610 1666,-610 1666,4 -4,4"/>
<!-- Node1 -->
<g id="node1" class="node"><title>Node1</title>
<polygon fill="#bfbfbf" stroke="black" points="757,-553 757,-605 905,-605 905,-553 757,-553"/>
<text text-anchor="start" x="765" y="-593" font-family="Helvetica,sans-Serif" font-size="10.00">/home/travis/build</text>
<text text-anchor="start" x="765" y="-582" font-family="Helvetica,sans-Serif" font-size="10.00">/STORM&#45;IRIT/Radium&#45;Engine</text>
<text text-anchor="start" x="765" y="-571" font-family="Helvetica,sans-Serif" font-size="10.00">/src/Core/Geometry/Partition</text>
<text text-anchor="middle" x="831" y="-560" font-family="Helvetica,sans-Serif" font-size="10.00">/Partition.cpp</text>
</g>
<!-- Node2 -->
<g id="node2" class="node"><title>Node2</title>
<g id="a_node2"><a xlink:href="Partition_8hpp.html" target="_top" xlink:title="Core/Geometry/Partition\l/Partition.hpp">
<polygon fill="white" stroke="black" points="770,-485 770,-515 892,-515 892,-485 770,-485"/>
<text text-anchor="start" x="778" y="-503" font-family="Helvetica,sans-Serif" font-size="10.00">Core/Geometry/Partition</text>
<text text-anchor="middle" x="831" y="-492" font-family="Helvetica,sans-Serif" font-size="10.00">/Partition.hpp</text>
</a>
</g>
</g>
<!-- Node1&#45;&gt;Node2 -->
<g id="edge1" class="edge"><title>Node1&#45;&gt;Node2</title>
<path fill="none" stroke="midnightblue" d="M831,-552.787C831,-544.029 831,-534.225 831,-525.523"/>
<polygon fill="midnightblue" stroke="midnightblue" points="834.5,-525.252 831,-515.252 827.5,-525.252 834.5,-525.252"/>
</g>
<!-- Node22 -->
<g id="node22" class="node"><title>Node22</title>
<polygon fill="white" stroke="#bfbfbf" points="1588,-112.5 1588,-131.5 1644,-131.5 1644,-112.5 1588,-112.5"/>
<text text-anchor="middle" x="1616" y="-119.5" font-family="Helvetica,sans-Serif" font-size="10.00">algorithm</text>
</g>
<!-- Node1&#45;&gt;Node22 -->
<g id="edge62" class="edge"><title>Node1&#45;&gt;Node22</title>
<path fill="none" stroke="midnightblue" d="M905.111,-573.369C1108.78,-559.657 1662,-515.383 1662,-439 1662,-439 1662,-439 1662,-251 1662,-213.055 1656.08,-203.235 1642,-168 1638.15,-158.365 1632.51,-148.305 1627.47,-140.147"/>
<polygon fill="midnightblue" stroke="midnightblue" points="1630.32,-138.104 1621.97,-131.583 1624.43,-141.888 1630.32,-138.104"/>
</g>
<!-- Node30 -->
<g id="node30" class="node"><title>Node30</title>
<polygon fill="white" stroke="#bfbfbf" points="0,-242.5 0,-261.5 40,-261.5 40,-242.5 0,-242.5"/>
<text text-anchor="middle" x="20" y="-249.5" font-family="Helvetica,sans-Serif" font-size="10.00">limits</text>
</g>
<!-- Node1&#45;&gt;Node30 -->
<g id="edge63" class="edge"><title>Node1&#45;&gt;Node30</title>
<path fill="none" stroke="midnightblue" d="M756.702,-573.014C556.709,-558.606 22,-513.149 22,-439 22,-439 22,-439 22,-381 22,-342.244 21.072,-296.894 20.4802,-271.917"/>
<polygon fill="midnightblue" stroke="midnightblue" points="23.9736,-271.602 20.2294,-261.691 16.9758,-271.773 23.9736,-271.602"/>
</g>
<!-- Node3 -->
<g id="node3" class="node"><title>Node3</title>
<polygon fill="white" stroke="#bfbfbf" points="773,-428.5 773,-447.5 803,-447.5 803,-428.5 773,-428.5"/>
<text text-anchor="middle" x="788" y="-435.5" font-family="Helvetica,sans-Serif" font-size="10.00">set</text>
</g>
<!-- Node2&#45;&gt;Node3 -->
<g id="edge2" class="edge"><title>Node2&#45;&gt;Node3</title>
<path fill="none" stroke="midnightblue" d="M820.81,-484.781C814.626,-476.152 806.697,-465.088 800.182,-455.999"/>
<polygon fill="midnightblue" stroke="midnightblue" points="802.927,-453.82 794.257,-447.731 797.237,-457.898 802.927,-453.82"/>
</g>
<!-- Node4 -->
<g id="node4" class="node"><title>Node4</title>
<g id="a_node4"><a xlink:href="HandleWeight_8hpp.html" target="_top" xlink:title="Core/Animation/Handle\l/HandleWeight.hpp">
<polygon fill="white" stroke="black" points="996,-305 996,-335 1114,-335 1114,-305 996,-305"/>
<text text-anchor="start" x="1004" y="-323" font-family="Helvetica,sans-Serif" font-size="10.00">Core/Animation/Handle</text>
<text text-anchor="middle" x="1055" y="-312" font-family="Helvetica,sans-Serif" font-size="10.00">/HandleWeight.hpp</text>
</a>
</g>
</g>
<!-- Node2&#45;&gt;Node4 -->
<g id="edge3" class="edge"><title>Node2&#45;&gt;Node4</title>
<path fill="none" stroke="midnightblue" d="M892.045,-485.036C917.356,-477.129 945.902,-465.267 968,-448 1003.98,-419.885 1030.69,-372.729 1044.47,-344.471"/>
<polygon fill="midnightblue" stroke="midnightblue" points="1047.68,-345.862 1048.8,-335.326 1041.36,-342.866 1047.68,-345.862"/>
</g>
<!-- Node5 -->
<g id="node5" class="node"><title>Node5</title>
<g id="a_node5"><a xlink:href="AlignedStdVector_8hpp.html" target="_top" xlink:title="Core/Containers/AlignedStd\lVector.hpp">
<polygon fill="white" stroke="black" points="993,-237 993,-267 1131,-267 1131,-237 993,-237"/>
<text text-anchor="start" x="1001" y="-255" font-family="Helvetica,sans-Serif" font-size="10.00">Core/Containers/AlignedStd</text>
<text text-anchor="middle" x="1062" y="-244" font-family="Helvetica,sans-Serif" font-size="10.00">Vector.hpp</text>
</a>
</g>
</g>
<!-- Node2&#45;&gt;Node5 -->
<g id="edge29" class="edge"><title>Node2&#45;&gt;Node5</title>
<path fill="none" stroke="midnightblue" d="M840.149,-484.822C862.456,-450.934 922.561,-363.625 987,-304 999.609,-292.333 1015.09,-281.347 1028.71,-272.581"/>
<polygon fill="midnightblue" stroke="midnightblue" points="1030.74,-275.441 1037.34,-267.156 1027.01,-269.515 1030.74,-275.441"/>
</g>
<!-- Node15 -->
<g id="node15" class="node"><title>Node15</title>
<g id="a_node15"><a xlink:href="LinearAlgebra_8hpp.html" target="_top" xlink:title="Core/Math/LinearAlgebra.hpp">
<polygon fill="white" stroke="black" points="831.5,-242.5 831.5,-261.5 974.5,-261.5 974.5,-242.5 831.5,-242.5"/>
<text text-anchor="middle" x="903" y="-249.5" font-family="Helvetica,sans-Serif" font-size="10.00">Core/Math/LinearAlgebra.hpp</text>
</a>
</g>
</g>
<!-- Node2&#45;&gt;Node15 -->
<g id="edge35" class="edge"><title>Node2&#45;&gt;Node15</title>
<path fill="none" stroke="midnightblue" d="M835.431,-484.64C844.155,-456.285 864.093,-391.075 880,-336 886.399,-313.846 893.435,-288.262 898.018,-271.421"/>
<polygon fill="midnightblue" stroke="midnightblue" points="901.404,-272.308 900.645,-261.741 894.648,-270.475 901.404,-272.308"/>
</g>
<!-- Node27 -->
<g id="node27" class="node"><title>Node27</title>
<g id="a_node27"><a xlink:href="VectorArray_8hpp.html" target="_top" xlink:title="Core/Containers/VectorArray.hpp">
<polygon fill="white" stroke="black" points="684.5,-310.5 684.5,-329.5 845.5,-329.5 845.5,-310.5 684.5,-310.5"/>
<text text-anchor="middle" x="765" y="-317.5" font-family="Helvetica,sans-Serif" font-size="10.00">Core/Containers/VectorArray.hpp</text>
</a>
</g>
</g>
<!-- Node2&#45;&gt;Node27 -->
<g id="edge30" class="edge"><title>Node2&#45;&gt;Node27</title>
<path fill="none" stroke="midnightblue" d="M827.624,-484.954C824.018,-470.507 817.882,-447.436 811,-428 799.684,-396.04 783.458,-360.045 773.608,-339.01"/>
<polygon fill="midnightblue" stroke="midnightblue" points="776.655,-337.266 769.216,-329.721 770.327,-340.258 776.655,-337.266"/>
</g>
<!-- Node28 -->
<g id="node28" class="node"><title>Node28</title>
<g id="a_node28"><a xlink:href="MeshTypes_8hpp.html" target="_top" xlink:title="Core/Mesh/MeshTypes.hpp">
<polygon fill="white" stroke="black" points="106.5,-372.5 106.5,-391.5 243.5,-391.5 243.5,-372.5 106.5,-372.5"/>
<text text-anchor="middle" x="175" y="-379.5" font-family="Helvetica,sans-Serif" font-size="10.00">Core/Mesh/MeshTypes.hpp</text>
</a>
</g>
</g>
<!-- Node2&#45;&gt;Node28 -->
<g id="edge36" class="edge"><title>Node2&#45;&gt;Node28</title>
<path fill="none" stroke="midnightblue" d="M769.874,-488.191C643.959,-465.926 357.13,-415.206 233.494,-393.343"/>
<polygon fill="midnightblue" stroke="midnightblue" points="233.918,-389.864 223.461,-391.569 232.699,-396.757 233.918,-389.864"/>
</g>
<!-- Node32 -->
<g id="node32" class="node"><title>Node32</title>
<g id="a_node32"><a xlink:href="TriangleMesh_8hpp.html" target="_top" xlink:title="Core/Mesh/TriangleMesh.hpp">
<polygon fill="white" stroke="black" points="599.5,-428.5 599.5,-447.5 744.5,-447.5 744.5,-428.5 599.5,-428.5"/>
<text text-anchor="middle" x="672" y="-435.5" font-family="Helvetica,sans-Serif" font-size="10.00">Core/Mesh/TriangleMesh.hpp</text>
</a>
</g>
</g>
<!-- Node2&#45;&gt;Node32 -->
<g id="edge42" class="edge"><title>Node2&#45;&gt;Node32</title>
<path fill="none" stroke="midnightblue" d="M793.722,-484.933C766.537,-474.674 730.074,-460.915 704.163,-451.137"/>
<polygon fill="midnightblue" stroke="midnightblue" points="705.382,-447.856 694.79,-447.6 702.91,-454.405 705.382,-447.856"/>
</g>
<!-- Node4&#45;&gt;Node5 -->
<g id="edge4" class="edge"><title>Node4&#45;&gt;Node5</title>
<path fill="none" stroke="midnightblue" d="M1056.52,-304.679C1057.36,-296.722 1058.44,-286.605 1059.41,-277.436"/>
<polygon fill="midnightblue" stroke="midnightblue" points="1062.91,-277.606 1060.48,-267.293 1055.95,-276.868 1062.91,-277.606"/>
</g>
<!-- Node4&#45;&gt;Node15 -->
<g id="edge14" class="edge"><title>Node4&#45;&gt;Node15</title>
<path fill="none" stroke="midnightblue" d="M1022.39,-304.841C995.629,-293.221 958.07,-276.912 932.263,-265.706"/>
<polygon fill="midnightblue" stroke="midnightblue" points="933.561,-262.454 922.995,-261.682 930.773,-268.875 933.561,-262.454"/>
</g>
<!-- Node26 -->
<g id="node26" class="node"><title>Node26</title>
<polygon fill="white" stroke="#bfbfbf" points="1149.5,-242.5 1149.5,-261.5 1184.5,-261.5 1184.5,-242.5 1149.5,-242.5"/>
<text text-anchor="middle" x="1167" y="-249.5" font-family="Helvetica,sans-Serif" font-size="10.00">map</text>
</g>
<!-- Node4&#45;&gt;Node26 -->
<g id="edge28" class="edge"><title>Node4&#45;&gt;Node26</title>
<path fill="none" stroke="midnightblue" d="M1079.03,-304.841C1098.05,-293.63 1124.48,-278.056 1143.4,-266.91"/>
<polygon fill="midnightblue" stroke="midnightblue" points="1145.43,-269.774 1152.27,-261.682 1141.87,-263.743 1145.43,-269.774"/>
</g>
<!-- Node6 -->
<g id="node6" class="node"><title>Node6</title>
<g id="a_node6"><a xlink:href="RaCore_8hpp.html" target="_top" xlink:title="Core/RaCore.hpp">
<polygon fill="white" stroke="black" points="487.5,-112.5 487.5,-131.5 580.5,-131.5 580.5,-112.5 487.5,-112.5"/>
<text text-anchor="middle" x="534" y="-119.5" font-family="Helvetica,sans-Serif" font-size="10.00">Core/RaCore.hpp</text>
</a>
</g>
</g>
<!-- Node5&#45;&gt;Node6 -->
<g id="edge5" class="edge"><title>Node5&#45;&gt;Node6</title>
<path fill="none" stroke="midnightblue" d="M1131.3,-237.534C1134.24,-237.007 1137.15,-236.494 1140,-236 1246.72,-217.536 1448.5,-246.603 1374,-168 1347.05,-139.571 775.17,-127.185 590.767,-123.921"/>
<polygon fill="midnightblue" stroke="midnightblue" points="590.789,-120.421 580.73,-123.745 590.667,-127.42 590.789,-120.421"/>
</g>
<!-- Node13 -->
<g id="node13" class="node"><title>Node13</title>
<polygon fill="white" stroke="#bfbfbf" points="1546,-174.5 1546,-193.5 1634,-193.5 1634,-174.5 1546,-174.5"/>
<text text-anchor="middle" x="1590" y="-181.5" font-family="Helvetica,sans-Serif" font-size="10.00">Eigen/StdVector</text>
</g>
<!-- Node5&#45;&gt;Node13 -->
<g id="edge12" class="edge"><title>Node5&#45;&gt;Node13</title>
<path fill="none" stroke="midnightblue" d="M1131.26,-237.31C1134.21,-236.845 1137.13,-236.405 1140,-236 1314.99,-211.282 1362.15,-231.779 1536,-200 1541.56,-198.983 1547.38,-197.655 1553.06,-196.209"/>
<polygon fill="midnightblue" stroke="midnightblue" points="1554.28,-199.503 1563.03,-193.52 1552.46,-192.745 1554.28,-199.503"/>
</g>
<!-- Node14 -->
<g id="node14" class="node"><title>Node14</title>
<polygon fill="white" stroke="#bfbfbf" points="619,-174.5 619,-193.5 663,-193.5 663,-174.5 619,-174.5"/>
<text text-anchor="middle" x="641" y="-181.5" font-family="Helvetica,sans-Serif" font-size="10.00">vector</text>
</g>
<!-- Node5&#45;&gt;Node14 -->
<g id="edge13" class="edge"><title>Node5&#45;&gt;Node14</title>
<path fill="none" stroke="midnightblue" d="M992.677,-237.608C989.408,-237.049 986.17,-236.51 983,-236 862.167,-216.577 830.566,-221.017 710,-200 697.98,-197.905 684.876,-195.171 673.349,-192.613"/>
<polygon fill="midnightblue" stroke="midnightblue" points="673.807,-189.128 663.282,-190.335 672.263,-195.955 673.807,-189.128"/>
</g>
<!-- Node7 -->
<g id="node7" class="node"><title>Node7</title>
<g id="a_node7"><a xlink:href="CoreMacros_8hpp.html" target="_top" xlink:title="Core/CoreMacros.hpp">
<polygon fill="white" stroke="black" points="443.5,-56.5 443.5,-75.5 556.5,-75.5 556.5,-56.5 443.5,-56.5"/>
<text text-anchor="middle" x="500" y="-63.5" font-family="Helvetica,sans-Serif" font-size="10.00">Core/CoreMacros.hpp</text>
</a>
</g>
</g>
<!-- Node6&#45;&gt;Node7 -->
<g id="edge6" class="edge"><title>Node6&#45;&gt;Node7</title>
<path fill="none" stroke="midnightblue" d="M528.386,-112.083C523.633,-104.534 516.682,-93.4948 510.848,-84.2298"/>
<polygon fill="midnightblue" stroke="midnightblue" points="513.8,-82.3486 505.51,-75.7511 507.876,-86.0783 513.8,-82.3486"/>
</g>
<!-- Node8 -->
<g id="node8" class="node"><title>Node8</title>
<polygon fill="white" stroke="#bfbfbf" points="508.5,-0.5 508.5,-19.5 557.5,-19.5 557.5,-0.5 508.5,-0.5"/>
<text text-anchor="middle" x="533" y="-7.5" font-family="Helvetica,sans-Serif" font-size="10.00">cassert</text>
</g>
<!-- Node7&#45;&gt;Node8 -->
<g id="edge7" class="edge"><title>Node7&#45;&gt;Node8</title>
<path fill="none" stroke="midnightblue" d="M505.449,-56.083C510.014,-48.6127 516.668,-37.7244 522.293,-28.5199"/>
<polygon fill="midnightblue" stroke="midnightblue" points="525.424,-30.109 527.652,-19.7511 519.451,-26.4588 525.424,-30.109"/>
</g>
<!-- Node9 -->
<g id="node9" class="node"><title>Node9</title>
<polygon fill="white" stroke="#bfbfbf" points="575.5,-0.5 575.5,-19.5 618.5,-19.5 618.5,-0.5 575.5,-0.5"/>
<text text-anchor="middle" x="597" y="-7.5" font-family="Helvetica,sans-Serif" font-size="10.00">cstdio</text>
</g>
<!-- Node7&#45;&gt;Node9 -->
<g id="edge8" class="edge"><title>Node7&#45;&gt;Node9</title>
<path fill="none" stroke="midnightblue" d="M515.585,-56.324C530.999,-47.7428 554.812,-34.486 572.71,-24.5224"/>
<polygon fill="midnightblue" stroke="midnightblue" points="574.419,-27.5767 581.454,-19.6545 571.014,-21.4606 574.419,-27.5767"/>
</g>
<!-- Node10 -->
<g id="node10" class="node"><title>Node10</title>
<polygon fill="white" stroke="#bfbfbf" points="374,-0.5 374,-19.5 428,-19.5 428,-0.5 374,-0.5"/>
<text text-anchor="middle" x="401" y="-7.5" font-family="Helvetica,sans-Serif" font-size="10.00">iostream</text>
</g>
<!-- Node7&#45;&gt;Node10 -->
<g id="edge9" class="edge"><title>Node7&#45;&gt;Node10</title>
<path fill="none" stroke="midnightblue" d="M484.094,-56.324C468.362,-47.7428 444.058,-34.486 425.791,-24.5224"/>
<polygon fill="midnightblue" stroke="midnightblue" points="427.322,-21.3704 416.867,-19.6545 423.97,-27.5157 427.322,-21.3704"/>
</g>
<!-- Node11 -->
<g id="node11" class="node"><title>Node11</title>
<polygon fill="white" stroke="#bfbfbf" points="270,-0.5 270,-19.5 322,-19.5 322,-0.5 270,-0.5"/>
<text text-anchor="middle" x="296" y="-7.5" font-family="Helvetica,sans-Serif" font-size="10.00">sstream</text>
</g>
<!-- Node7&#45;&gt;Node11 -->
<g id="edge10" class="edge"><title>Node7&#45;&gt;Node11</title>
<path fill="none" stroke="midnightblue" d="M467.676,-56.4435C430.651,-46.6429 370.165,-30.6319 331.758,-20.4655"/>
<polygon fill="midnightblue" stroke="midnightblue" points="332.586,-17.0642 322.024,-17.8886 330.795,-23.8311 332.586,-17.0642"/>
</g>
<!-- Node12 -->
<g id="node12" class="node"><title>Node12</title>
<polygon fill="white" stroke="#bfbfbf" points="446,-0.5 446,-19.5 490,-19.5 490,-0.5 446,-0.5"/>
<text text-anchor="middle" x="468" y="-7.5" font-family="Helvetica,sans-Serif" font-size="10.00">thread</text>
</g>
<!-- Node7&#45;&gt;Node12 -->
<g id="edge11" class="edge"><title>Node7&#45;&gt;Node12</title>
<path fill="none" stroke="midnightblue" d="M494.716,-56.083C490.289,-48.6127 483.837,-37.7244 478.382,-28.5199"/>
<polygon fill="midnightblue" stroke="midnightblue" points="481.295,-26.5697 473.186,-19.7511 475.273,-30.1383 481.295,-26.5697"/>
</g>
<!-- Node15&#45;&gt;Node6 -->
<g id="edge15" class="edge"><title>Node15&#45;&gt;Node6</title>
<path fill="none" stroke="midnightblue" d="M845.356,-242.443C805.721,-234.99 752.736,-221.855 710,-200 690.038,-189.791 690.652,-178.793 671,-168 643.273,-152.772 609.541,-141.613 582.486,-134.217"/>
<polygon fill="midnightblue" stroke="midnightblue" points="583.033,-130.741 572.471,-131.566 581.242,-137.508 583.033,-130.741"/>
</g>
<!-- Node16 -->
<g id="node16" class="node"><title>Node16</title>
<polygon fill="white" stroke="#bfbfbf" points="874.5,-174.5 874.5,-193.5 939.5,-193.5 939.5,-174.5 874.5,-174.5"/>
<text text-anchor="middle" x="907" y="-181.5" font-family="Helvetica,sans-Serif" font-size="10.00">Eigen/Core</text>
</g>
<!-- Node15&#45;&gt;Node16 -->
<g id="edge16" class="edge"><title>Node15&#45;&gt;Node16</title>
<path fill="none" stroke="midnightblue" d="M903.523,-242.372C904.113,-232.643 905.089,-216.528 905.858,-203.85"/>
<polygon fill="midnightblue" stroke="midnightblue" points="909.353,-204.035 906.464,-193.841 902.366,-203.611 909.353,-204.035"/>
</g>
<!-- Node17 -->
<g id="node17" class="node"><title>Node17</title>
<polygon fill="white" stroke="#bfbfbf" points="957.5,-174.5 957.5,-193.5 1044.5,-193.5 1044.5,-174.5 957.5,-174.5"/>
<text text-anchor="middle" x="1001" y="-181.5" font-family="Helvetica,sans-Serif" font-size="10.00">Eigen/Geometry</text>
</g>
<!-- Node15&#45;&gt;Node17 -->
<g id="edge17" class="edge"><title>Node15&#45;&gt;Node17</title>
<path fill="none" stroke="midnightblue" d="M915.812,-242.372C932.026,-231.452 960.183,-212.489 979.664,-199.369"/>
<polygon fill="midnightblue" stroke="midnightblue" points="981.846,-202.12 988.185,-193.63 977.936,-196.313 981.846,-202.12"/>
</g>
<!-- Node18 -->
<g id="node18" class="node"><title>Node18</title>
<polygon fill="white" stroke="#bfbfbf" points="1062.5,-174.5 1062.5,-193.5 1137.5,-193.5 1137.5,-174.5 1062.5,-174.5"/>
<text text-anchor="middle" x="1100" y="-181.5" font-family="Helvetica,sans-Serif" font-size="10.00">Eigen/Sparse</text>
</g>
<!-- Node15&#45;&gt;Node18 -->
<g id="edge18" class="edge"><title>Node15&#45;&gt;Node18</title>
<path fill="none" stroke="midnightblue" d="M928.754,-242.372C963.582,-230.704 1025.82,-209.851 1064.91,-196.758"/>
<polygon fill="midnightblue" stroke="midnightblue" points="1066.18,-200.021 1074.55,-193.526 1063.96,-193.384 1066.18,-200.021"/>
</g>
<!-- Node19 -->
<g id="node19" class="node"><title>Node19</title>
<polygon fill="white" stroke="#bfbfbf" points="1155.5,-174.5 1155.5,-193.5 1214.5,-193.5 1214.5,-174.5 1155.5,-174.5"/>
<text text-anchor="middle" x="1185" y="-181.5" font-family="Helvetica,sans-Serif" font-size="10.00">functional</text>
</g>
<!-- Node15&#45;&gt;Node19 -->
<g id="edge19" class="edge"><title>Node15&#45;&gt;Node19</title>
<path fill="none" stroke="midnightblue" d="M947.94,-242.464C1007.54,-230.989 1109.46,-210.785 1146,-200 1148.97,-199.125 1152.02,-198.125 1155.06,-197.066"/>
<polygon fill="midnightblue" stroke="midnightblue" points="1156.39,-200.307 1164.57,-193.566 1153.97,-193.738 1156.39,-200.307"/>
</g>
<!-- Node20 -->
<g id="node20" class="node"><title>Node20</title>
<polygon fill="white" stroke="#bfbfbf" points="1232.5,-169 1232.5,-199 1365.5,-199 1365.5,-169 1232.5,-169"/>
<text text-anchor="start" x="1240.5" y="-187" font-family="Helvetica,sans-Serif" font-size="10.00">unsupported/Eigen/Aligned</text>
<text text-anchor="middle" x="1299" y="-176" font-family="Helvetica,sans-Serif" font-size="10.00">Vector3</text>
</g>
<!-- Node15&#45;&gt;Node20 -->
<g id="edge20" class="edge"><title>Node15&#45;&gt;Node20</title>
<path fill="none" stroke="midnightblue" d="M947.516,-242.478C959.359,-240.287 972.152,-237.989 984,-236 1086.83,-218.738 1115.5,-218.409 1222.41,-200.054"/>
<polygon fill="midnightblue" stroke="midnightblue" points="1223.05,-203.495 1232.3,-198.341 1221.85,-196.597 1223.05,-203.495"/>
</g>
<!-- Node21 -->
<g id="node21" class="node"><title>Node21</title>
<g id="a_node21"><a xlink:href="Math_8hpp.html" target="_top" xlink:title="Core/Math/Math.hpp">
<polygon fill="white" stroke="black" points="1422,-174.5 1422,-193.5 1528,-193.5 1528,-174.5 1422,-174.5"/>
<text text-anchor="middle" x="1475" y="-181.5" font-family="Helvetica,sans-Serif" font-size="10.00">Core/Math/Math.hpp</text>
</a>
</g>
</g>
<!-- Node15&#45;&gt;Node21 -->
<g id="edge21" class="edge"><title>Node15&#45;&gt;Node21</title>
<path fill="none" stroke="midnightblue" d="M944.923,-242.485C957.454,-240.143 971.25,-237.765 984,-236 1156.43,-212.127 1201.18,-220.794 1374,-200 1386.29,-198.521 1399.39,-196.733 1411.95,-194.914"/>
<polygon fill="midnightblue" stroke="midnightblue" points="1412.49,-198.373 1421.87,-193.455 1411.47,-191.447 1412.49,-198.373"/>
</g>
<!-- Node25 -->
<g id="node25" class="node"><title>Node25</title>
<g id="a_node25"><a xlink:href="LinearAlgebra_8inl.html" target="_top" xlink:title="Core/Math/LinearAlgebra.inl">
<polygon fill="white" stroke="black" points="719.5,-174.5 719.5,-193.5 856.5,-193.5 856.5,-174.5 719.5,-174.5"/>
<text text-anchor="middle" x="788" y="-181.5" font-family="Helvetica,sans-Serif" font-size="10.00">Core/Math/LinearAlgebra.inl</text>
</a>
</g>
</g>
<!-- Node15&#45;&gt;Node25 -->
<g id="edge27" class="edge"><title>Node15&#45;&gt;Node25</title>
<path fill="none" stroke="midnightblue" d="M887.966,-242.372C868.595,-231.254 834.696,-211.8 811.806,-198.662"/>
<polygon fill="midnightblue" stroke="midnightblue" points="813.453,-195.573 803.038,-193.63 809.969,-201.644 813.453,-195.573"/>
</g>
<!-- Node21&#45;&gt;Node6 -->
<g id="edge22" class="edge"><title>Node21&#45;&gt;Node6</title>
<path fill="none" stroke="midnightblue" d="M1442.14,-174.484C1431.34,-171.995 1419.22,-169.534 1408,-168 1101.79,-126.145 730.4,-122.393 590.731,-122.618"/>
<polygon fill="midnightblue" stroke="midnightblue" points="590.677,-119.118 580.686,-122.642 590.694,-126.118 590.677,-119.118"/>
</g>
<!-- Node21&#45;&gt;Node22 -->
<g id="edge23" class="edge"><title>Node21&#45;&gt;Node22</title>
<path fill="none" stroke="midnightblue" d="M1495.2,-174.403C1519.07,-164.245 1559,-147.255 1586.37,-135.607"/>
<polygon fill="midnightblue" stroke="midnightblue" points="1588,-138.717 1595.84,-131.581 1585.26,-132.276 1588,-138.717"/>
</g>
<!-- Node23 -->
<g id="node23" class="node"><title>Node23</title>
<polygon fill="white" stroke="#bfbfbf" points="1363,-112.5 1363,-131.5 1407,-131.5 1407,-112.5 1363,-112.5"/>
<text text-anchor="middle" x="1385" y="-119.5" font-family="Helvetica,sans-Serif" font-size="10.00">cmath</text>
</g>
<!-- Node21&#45;&gt;Node23 -->
<g id="edge24" class="edge"><title>Node21&#45;&gt;Node23</title>
<path fill="none" stroke="midnightblue" d="M1462.11,-174.403C1447.54,-164.691 1423.6,-148.732 1406.25,-137.17"/>
<polygon fill="midnightblue" stroke="midnightblue" points="1408.13,-134.215 1397.87,-131.581 1404.25,-140.04 1408.13,-134.215"/>
</g>
<!-- Node24 -->
<g id="node24" class="node"><title>Node24</title>
<g id="a_node24"><a xlink:href="Math_8inl.html" target="_top" xlink:title="Core/Math/Math.inl">
<polygon fill="white" stroke="black" points="1425,-112.5 1425,-131.5 1525,-131.5 1525,-112.5 1425,-112.5"/>
<text text-anchor="middle" x="1475" y="-119.5" font-family="Helvetica,sans-Serif" font-size="10.00">Core/Math/Math.inl</text>
</a>
</g>
</g>
<!-- Node21&#45;&gt;Node24 -->
<g id="edge25" class="edge"><title>Node21&#45;&gt;Node24</title>
<path fill="none" stroke="midnightblue" d="M1470.1,-174.403C1468.27,-165.938 1467.8,-152.728 1468.69,-141.82"/>
<polygon fill="midnightblue" stroke="midnightblue" points="1472.2,-141.966 1470.1,-131.581 1465.26,-141.006 1472.2,-141.966"/>
</g>
<!-- Node24&#45;&gt;Node21 -->
<g id="edge26" class="edge"><title>Node24&#45;&gt;Node21</title>
<path fill="none" stroke="midnightblue" d="M1479.9,-131.581C1481.73,-140.04 1482.2,-153.248 1481.32,-164.16"/>
<polygon fill="midnightblue" stroke="midnightblue" points="1477.8,-164.018 1479.9,-174.403 1484.74,-164.977 1477.8,-164.018"/>
</g>
<!-- Node27&#45;&gt;Node5 -->
<g id="edge31" class="edge"><title>Node27&#45;&gt;Node5</title>
<path fill="none" stroke="midnightblue" d="M803.523,-310.439C850.334,-300.037 930.316,-282.263 988.939,-269.236"/>
<polygon fill="midnightblue" stroke="midnightblue" points="989.886,-272.611 998.889,-267.025 988.368,-265.777 989.886,-272.611"/>
</g>
<!-- Node27&#45;&gt;Node6 -->
<g id="edge33" class="edge"><title>Node27&#45;&gt;Node6</title>
<path fill="none" stroke="midnightblue" d="M755.296,-310.348C732.921,-290.424 678.942,-242.509 670,-236 644.858,-217.697 634.449,-219.218 610,-200 586.359,-181.417 562.564,-155.963 548.054,-139.499"/>
<polygon fill="midnightblue" stroke="midnightblue" points="550.561,-137.049 541.362,-131.793 545.276,-141.639 550.561,-137.049"/>
</g>
<!-- Node27&#45;&gt;Node14 -->
<g id="edge34" class="edge"><title>Node27&#45;&gt;Node14</title>
<path fill="none" stroke="midnightblue" d="M760.295,-310.341C751.422,-294.48 731.025,-260.178 708,-236 694.603,-221.932 677.06,-208.727 663.286,-199.279"/>
<polygon fill="midnightblue" stroke="midnightblue" points="665.118,-196.294 654.86,-193.642 661.226,-202.112 665.118,-196.294"/>
</g>
<!-- Node27&#45;&gt;Node15 -->
<g id="edge32" class="edge"><title>Node27&#45;&gt;Node15</title>
<path fill="none" stroke="midnightblue" d="M783.041,-310.372C806.699,-299.057 848.416,-279.105 875.885,-265.968"/>
<polygon fill="midnightblue" stroke="midnightblue" points="877.443,-269.103 884.954,-261.63 874.423,-262.788 877.443,-269.103"/>
</g>
<!-- Node28&#45;&gt;Node6 -->
<g id="edge41" class="edge"><title>Node28&#45;&gt;Node6</title>
<path fill="none" stroke="midnightblue" d="M174.933,-372.487C175.188,-339.238 181.081,-217.537 252,-168 287.446,-143.241 405.5,-131.33 477.14,-126.254"/>
<polygon fill="midnightblue" stroke="midnightblue" points="477.621,-129.729 487.358,-125.554 477.142,-122.746 477.621,-129.729"/>
</g>
<!-- Node28&#45;&gt;Node15 -->
<g id="edge40" class="edge"><title>Node28&#45;&gt;Node15</title>
<path fill="none" stroke="midnightblue" d="M236.471,-372.465C296.808,-363.911 391.397,-350.031 473,-336 610.428,-312.37 771.648,-279.997 852.031,-263.537"/>
<polygon fill="midnightblue" stroke="midnightblue" points="852.8,-266.952 861.893,-261.514 851.394,-260.095 852.8,-266.952"/>
</g>
<!-- Node29 -->
<g id="node29" class="node"><title>Node29</title>
<g id="a_node29"><a xlink:href="Index_8hpp.html" target="_top" xlink:title="Core/Index/Index.hpp">
<polygon fill="white" stroke="black" points="52,-310.5 52,-329.5 162,-329.5 162,-310.5 52,-310.5"/>
<text text-anchor="middle" x="107" y="-317.5" font-family="Helvetica,sans-Serif" font-size="10.00">Core/Index/Index.hpp</text>
</a>
</g>
</g>
<!-- Node28&#45;&gt;Node29 -->
<g id="edge37" class="edge"><title>Node28&#45;&gt;Node29</title>
<path fill="none" stroke="midnightblue" d="M165.257,-372.403C154.653,-363.047 137.481,-347.895 124.521,-336.46"/>
<polygon fill="midnightblue" stroke="midnightblue" points="126.539,-333.572 116.725,-329.581 121.907,-338.821 126.539,-333.572"/>
</g>
<!-- Node29&#45;&gt;Node30 -->
<g id="edge38" class="edge"><title>Node29&#45;&gt;Node30</title>
<path fill="none" stroke="midnightblue" d="M95.6263,-310.372C81.4278,-299.6 56.9119,-281.002 39.6494,-267.906"/>
<polygon fill="midnightblue" stroke="midnightblue" points="41.4588,-264.886 31.3765,-261.63 37.2281,-270.463 41.4588,-264.886"/>
</g>
<!-- Node31 -->
<g id="node31" class="node"><title>Node31</title>
<g id="a_node31"><a xlink:href="Index_8inl.html" target="_top" xlink:title="Core/Index/Index.inl">
<polygon fill="white" stroke="black" points="58,-242.5 58,-261.5 162,-261.5 162,-242.5 58,-242.5"/>
<text text-anchor="middle" x="110" y="-249.5" font-family="Helvetica,sans-Serif" font-size="10.00">Core/Index/Index.inl</text>
</a>
</g>
</g>
<!-- Node29&#45;&gt;Node31 -->
<g id="edge39" class="edge"><title>Node29&#45;&gt;Node31</title>
<path fill="none" stroke="midnightblue" d="M107.392,-310.372C107.834,-300.643 108.567,-284.528 109.143,-271.85"/>
<polygon fill="midnightblue" stroke="midnightblue" points="112.64,-271.99 109.598,-261.841 105.648,-271.672 112.64,-271.99"/>
</g>
<!-- Node32&#45;&gt;Node6 -->
<g id="edge46" class="edge"><title>Node32&#45;&gt;Node6</title>
<path fill="none" stroke="midnightblue" d="M599.121,-431.585C505.284,-419.948 349.972,-383.312 314,-268 299.887,-222.761 313.47,-196.935 351,-168 387.153,-140.126 438.261,-129.269 477.281,-125.159"/>
<polygon fill="midnightblue" stroke="midnightblue" points="477.801,-128.626 487.432,-124.212 477.15,-121.656 477.801,-128.626"/>
</g>
<!-- Node32&#45;&gt;Node15 -->
<g id="edge44" class="edge"><title>Node32&#45;&gt;Node15</title>
<path fill="none" stroke="midnightblue" d="M697.78,-428.387C736.196,-414.418 808.778,-383.506 854,-336 872.518,-316.547 887.076,-288.862 895.361,-270.913"/>
<polygon fill="midnightblue" stroke="midnightblue" points="898.635,-272.165 899.497,-261.606 892.238,-269.323 898.635,-272.165"/>
</g>
<!-- Node32&#45;&gt;Node27 -->
<g id="edge43" class="edge"><title>Node32&#45;&gt;Node27</title>
<path fill="none" stroke="midnightblue" d="M697.986,-428.413C715.336,-421.342 737.235,-409.586 750,-392 760.969,-376.888 764.265,-355.475 765.095,-340.122"/>
<polygon fill="midnightblue" stroke="midnightblue" points="768.603,-339.848 765.336,-329.769 761.604,-339.685 768.603,-339.848"/>
</g>
<!-- Node32&#45;&gt;Node28 -->
<g id="edge45" class="edge"><title>Node32&#45;&gt;Node28</title>
<path fill="none" stroke="midnightblue" d="M599.466,-429.119C507.313,-419.106 348.854,-401.89 253.805,-391.562"/>
<polygon fill="midnightblue" stroke="midnightblue" points="253.993,-388.062 243.674,-390.462 253.237,-395.021 253.993,-388.062"/>
</g>
<!-- Node33 -->
<g id="node33" class="node"><title>Node33</title>
<g id="a_node33"><a xlink:href="Attribs_8hpp.html" target="_top" xlink:title="Core/Utils/Attribs.hpp">
<polygon fill="white" stroke="black" points="473.5,-372.5 473.5,-391.5 584.5,-391.5 584.5,-372.5 473.5,-372.5"/>
<text text-anchor="middle" x="529" y="-379.5" font-family="Helvetica,sans-Serif" font-size="10.00">Core/Utils/Attribs.hpp</text>
</a>
</g>
</g>
<!-- Node32&#45;&gt;Node33 -->
<g id="edge47" class="edge"><title>Node32&#45;&gt;Node33</title>
<path fill="none" stroke="midnightblue" d="M649.341,-428.444C625.598,-419.478 588.091,-405.314 561.262,-395.183"/>
<polygon fill="midnightblue" stroke="midnightblue" points="562.144,-391.775 551.553,-391.516 559.671,-398.324 562.144,-391.775"/>
</g>
<!-- Node39 -->
<g id="node39" class="node"><title>Node39</title>
<g id="a_node39"><a xlink:href="TriangleMesh_8inl.html" target="_top" xlink:title="Core/Mesh/TriangleMesh.inl">
<polygon fill="white" stroke="black" points="602.5,-372.5 602.5,-391.5 741.5,-391.5 741.5,-372.5 602.5,-372.5"/>
<text text-anchor="middle" x="672" y="-379.5" font-family="Helvetica,sans-Serif" font-size="10.00">Core/Mesh/TriangleMesh.inl</text>
</a>
</g>
</g>
<!-- Node32&#45;&gt;Node39 -->
<g id="edge60" class="edge"><title>Node32&#45;&gt;Node39</title>
<path fill="none" stroke="midnightblue" d="M666.834,-428.083C665.324,-420.927 664.894,-410.635 665.542,-401.691"/>
<polygon fill="midnightblue" stroke="midnightblue" points="669.015,-402.126 666.869,-391.751 662.077,-401.2 669.015,-402.126"/>
</g>
<!-- Node33&#45;&gt;Node6 -->
<g id="edge59" class="edge"><title>Node33&#45;&gt;Node6</title>
<path fill="none" stroke="midnightblue" d="M542.239,-372.411C566.553,-355.742 617.607,-316.36 637,-268 642.294,-254.8 644.22,-248.253 637,-236 620.234,-207.549 594.792,-223.898 572,-200 555.964,-183.186 545.369,-158.304 539.534,-141.411"/>
<polygon fill="midnightblue" stroke="midnightblue" points="542.779,-140.07 536.377,-131.628 536.117,-142.22 542.779,-140.07"/>
</g>
<!-- Node33&#45;&gt;Node27 -->
<g id="edge48" class="edge"><title>Node33&#45;&gt;Node27</title>
<path fill="none" stroke="midnightblue" d="M562.562,-372.467C604.325,-361.849 675.722,-343.698 721.605,-332.033"/>
<polygon fill="midnightblue" stroke="midnightblue" points="722.724,-335.36 731.553,-329.503 720.999,-328.575 722.724,-335.36"/>
</g>
<!-- Node34 -->
<g id="node34" class="node"><title>Node34</title>
<g id="a_node34"><a xlink:href="Log_8hpp.html" target="_top" xlink:title="Core/Log/Log.hpp">
<polygon fill="white" stroke="black" points="370,-310.5 370,-329.5 464,-329.5 464,-310.5 370,-310.5"/>
<text text-anchor="middle" x="417" y="-317.5" font-family="Helvetica,sans-Serif" font-size="10.00">Core/Log/Log.hpp</text>
</a>
</g>
</g>
<!-- Node33&#45;&gt;Node34 -->
<g id="edge49" class="edge"><title>Node33&#45;&gt;Node34</title>
<path fill="none" stroke="midnightblue" d="M512.953,-372.403C494.407,-362.468 463.66,-345.997 441.978,-334.381"/>
<polygon fill="midnightblue" stroke="midnightblue" points="443.485,-331.218 433.017,-329.581 440.179,-337.388 443.485,-331.218"/>
</g>
<!-- Node34&#45;&gt;Node6 -->
<g id="edge50" class="edge"><title>Node34&#45;&gt;Node6</title>
<path fill="none" stroke="midnightblue" d="M383.382,-310.354C362.015,-302.927 336.009,-289.858 323,-268 315.726,-255.778 316.001,-248.381 323,-236 355.88,-177.839 430.688,-148.162 481.789,-134.131"/>
<polygon fill="midnightblue" stroke="midnightblue" points="482.893,-137.459 491.673,-131.53 481.112,-130.69 482.893,-137.459"/>
</g>
<!-- Node34&#45;&gt;Node11 -->
<g id="edge51" class="edge"><title>Node34&#45;&gt;Node11</title>
<path fill="none" stroke="midnightblue" d="M379.261,-310.425C356.41,-303.143 328.887,-290.211 314,-268 263.495,-192.647 281.716,-75.3859 291.468,-29.9132"/>
<polygon fill="midnightblue" stroke="midnightblue" points="294.925,-30.494 293.718,-19.9682 288.097,-28.9495 294.925,-30.494"/>
</g>
<!-- Node35 -->
<g id="node35" class="node"><title>Node35</title>
<polygon fill="white" stroke="#bfbfbf" points="332,-242.5 332,-261.5 378,-261.5 378,-242.5 332,-242.5"/>
<text text-anchor="middle" x="355" y="-249.5" font-family="Helvetica,sans-Serif" font-size="10.00">stdio.h</text>
</g>
<!-- Node34&#45;&gt;Node35 -->
<g id="edge52" class="edge"><title>Node34&#45;&gt;Node35</title>
<path fill="none" stroke="midnightblue" d="M408.895,-310.372C399.109,-299.955 382.447,-282.217 370.233,-269.216"/>
<polygon fill="midnightblue" stroke="midnightblue" points="372.703,-266.733 363.305,-261.841 367.601,-271.526 372.703,-266.733"/>
</g>
<!-- Node36 -->
<g id="node36" class="node"><title>Node36</title>
<polygon fill="white" stroke="#bfbfbf" points="445.5,-174.5 445.5,-193.5 486.5,-193.5 486.5,-174.5 445.5,-174.5"/>
<text text-anchor="middle" x="466" y="-181.5" font-family="Helvetica,sans-Serif" font-size="10.00">string</text>
</g>
<!-- Node34&#45;&gt;Node36 -->
<g id="edge53" class="edge"><title>Node34&#45;&gt;Node36</title>
<path fill="none" stroke="midnightblue" d="M422.926,-310.351C429.433,-300.499 439.78,-283.722 446,-268 454.41,-246.745 459.945,-220.977 463.017,-203.848"/>
<polygon fill="midnightblue" stroke="midnightblue" points="466.471,-204.416 464.686,-193.973 459.569,-203.25 466.471,-204.416"/>
</g>
<!-- Node37 -->
<g id="node37" class="node"><title>Node37</title>
<g id="a_node37"><a xlink:href="StringUtils_8hpp.html" target="_top" xlink:title="Core/String/StringUtils.hpp">
<polygon fill="white" stroke="black" points="494,-242.5 494,-261.5 628,-261.5 628,-242.5 494,-242.5"/>
<text text-anchor="middle" x="561" y="-249.5" font-family="Helvetica,sans-Serif" font-size="10.00">Core/String/StringUtils.hpp</text>
</a>
</g>
</g>
<!-- Node34&#45;&gt;Node37 -->
<g id="edge54" class="edge"><title>Node34&#45;&gt;Node37</title>
<path fill="none" stroke="midnightblue" d="M435.825,-310.372C460.512,-299.057 504.043,-279.105 532.707,-265.968"/>
<polygon fill="midnightblue" stroke="midnightblue" points="534.538,-268.979 542.17,-261.63 531.621,-262.615 534.538,-268.979"/>
</g>
<!-- Node38 -->
<g id="node38" class="node"><title>Node38</title>
<polygon fill="white" stroke="#bfbfbf" points="396.5,-242.5 396.5,-261.5 437.5,-261.5 437.5,-242.5 396.5,-242.5"/>
<text text-anchor="middle" x="417" y="-249.5" font-family="Helvetica,sans-Serif" font-size="10.00">ctime</text>
</g>
<!-- Node34&#45;&gt;Node38 -->
<g id="edge58" class="edge"><title>Node34&#45;&gt;Node38</title>
<path fill="none" stroke="midnightblue" d="M417,-310.372C417,-300.643 417,-284.528 417,-271.85"/>
<polygon fill="midnightblue" stroke="midnightblue" points="420.5,-271.841 417,-261.841 413.5,-271.841 420.5,-271.841"/>
</g>
<!-- Node37&#45;&gt;Node6 -->
<g id="edge55" class="edge"><title>Node37&#45;&gt;Node6</title>
<path fill="none" stroke="midnightblue" d="M556.143,-242.293C550.883,-232.387 542.743,-215.563 539,-200 534.311,-180.506 533.396,-157.486 533.444,-141.727"/>
<polygon fill="midnightblue" stroke="midnightblue" points="536.944,-141.745 533.61,-131.689 529.945,-141.63 536.944,-141.745"/>
</g>
<!-- Node37&#45;&gt;Node14 -->
<g id="edge57" class="edge"><title>Node37&#45;&gt;Node14</title>
<path fill="none" stroke="midnightblue" d="M571.459,-242.372C584.395,-231.699 606.645,-213.343 622.493,-200.268"/>
<polygon fill="midnightblue" stroke="midnightblue" points="625.052,-202.694 630.539,-193.63 620.598,-197.295 625.052,-202.694"/>
</g>
<!-- Node37&#45;&gt;Node36 -->
<g id="edge56" class="edge"><title>Node37&#45;&gt;Node36</title>
<path fill="none" stroke="midnightblue" d="M548.58,-242.372C532.863,-231.452 505.567,-212.489 486.683,-199.369"/>
<polygon fill="midnightblue" stroke="midnightblue" points="488.632,-196.462 478.423,-193.63 484.638,-202.21 488.632,-196.462"/>
</g>
<!-- Node39&#45;&gt;Node32 -->
<g id="edge61" class="edge"><title>Node39&#45;&gt;Node32</title>
<path fill="none" stroke="midnightblue" d="M677.131,-391.751C678.657,-398.858 679.104,-409.136 678.472,-418.101"/>
<polygon fill="midnightblue" stroke="midnightblue" points="674.993,-417.713 677.166,-428.083 681.934,-418.622 674.993,-417.713"/>
</g>
</g>
</svg>
