<?xml version="1.0" encoding="UTF-8" standalone="no"?>
<!DOCTYPE svg PUBLIC "-//W3C//DTD SVG 1.1//EN"
 "http://www.w3.org/Graphics/SVG/1.1/DTD/svg11.dtd">
<!-- Generated by graphviz version 2.36.0 (20140111.2315)
 -->
<!-- Title: /home/travis/build/STORM&#45;IRIT/Radium&#45;Engine/src/GuiBase/Utils/PickingManager.hpp Pages: 1 -->
<svg width="3396pt" height="398pt"
 viewBox="0.00 0.00 3396.00 398.00" xmlns="http://www.w3.org/2000/svg" xmlns:xlink="http://www.w3.org/1999/xlink">
<g id="graph0" class="graph" transform="scale(1 1) rotate(0) translate(4 394)">
<title>/home/travis/build/STORM&#45;IRIT/Radium&#45;Engine/src/GuiBase/Utils/PickingManager.hpp</title>
<polygon fill="white" stroke="none" points="-4,4 -4,-394 3392,-394 3392,4 -4,4"/>
<!-- Node1 -->
<g id="node1" class="node"><title>Node1</title>
<polygon fill="#bfbfbf" stroke="black" points="2242,-348.5 2242,-389.5 2430,-389.5 2430,-348.5 2242,-348.5"/>
<text text-anchor="start" x="2250" y="-377.5" font-family="Helvetica,sans-Serif" font-size="10.00">/home/travis/build</text>
<text text-anchor="start" x="2250" y="-366.5" font-family="Helvetica,sans-Serif" font-size="10.00">/STORM&#45;IRIT/Radium&#45;Engine</text>
<text text-anchor="middle" x="2336" y="-355.5" font-family="Helvetica,sans-Serif" font-size="10.00">/src/GuiBase/Utils/PickingManager.hpp</text>
</g>
<!-- Node2 -->
<g id="node2" class="node"><title>Node2</title>
<g id="a_node2"><a xlink:href="ItemEntry_8hpp.html" target="_top" xlink:title="/home/travis/build\l/STORM&#45;IRIT/Radium&#45;Engine\l/src/Engine/ItemModel/ItemEntry.hpp">
<polygon fill="white" stroke="black" points="1261.5,-270.5 1261.5,-311.5 1440.5,-311.5 1440.5,-270.5 1261.5,-270.5"/>
<text text-anchor="start" x="1269.5" y="-299.5" font-family="Helvetica,sans-Serif" font-size="10.00">/home/travis/build</text>
<text text-anchor="start" x="1269.5" y="-288.5" font-family="Helvetica,sans-Serif" font-size="10.00">/STORM&#45;IRIT/Radium&#45;Engine</text>
<text text-anchor="middle" x="1351" y="-277.5" font-family="Helvetica,sans-Serif" font-size="10.00">/src/Engine/ItemModel/ItemEntry.hpp</text>
</a>
</g>
</g>
<!-- Node1&#45;&gt;Node2 -->
<g id="edge1" class="edge"><title>Node1&#45;&gt;Node2</title>
<path fill="none" stroke="midnightblue" d="M2231.33,-359.924C2036.83,-344.917 1622.94,-312.982 1440.52,-298.907"/>
<polygon fill="midnightblue" stroke="midnightblue" points="2231.31,-363.433 2241.55,-360.713 2231.85,-356.454 2231.31,-363.433"/>
</g>
<!-- Node12 -->
<g id="node12" class="node"><title>Node12</title>
<g id="a_node12"><a xlink:href="MeshFeatureTrackingPlugin_8cpp.html" target="_top" xlink:title="/home/travis/build\l/STORM&#45;IRIT/Radium&#45;Engine\l/Plugins/MeshFeatureTracking\l/src/MeshFeatureTrackingPlugin.cpp">
<polygon fill="white" stroke="black" points="1694,-1 1694,-53 1870,-53 1870,-1 1694,-1"/>
<text text-anchor="start" x="1702" y="-41" font-family="Helvetica,sans-Serif" font-size="10.00">/home/travis/build</text>
<text text-anchor="start" x="1702" y="-30" font-family="Helvetica,sans-Serif" font-size="10.00">/STORM&#45;IRIT/Radium&#45;Engine</text>
<text text-anchor="start" x="1702" y="-19" font-family="Helvetica,sans-Serif" font-size="10.00">/Plugins/MeshFeatureTracking</text>
<text text-anchor="middle" x="1782" y="-8" font-family="Helvetica,sans-Serif" font-size="10.00">/src/MeshFeatureTrackingPlugin.cpp</text>
</a>
</g>
</g>
<!-- Node1&#45;&gt;Node12 -->
<g id="edge36" class="edge"><title>Node1&#45;&gt;Node12</title>
<path fill="none" stroke="midnightblue" d="M2231.54,-363.891C2092.49,-351.992 1852.49,-307.468 1752,-144 1734.68,-115.824 1750.45,-77.8997 1764.88,-53.2058"/>
<polygon fill="midnightblue" stroke="midnightblue" points="2231.53,-367.402 2241.78,-364.724 2232.1,-360.425 2231.53,-367.402"/>
</g>
<!-- Node13 -->
<g id="node13" class="node"><title>Node13</title>
<g id="a_node13"><a xlink:href="MeshPaintPlugin_8cpp.html" target="_top" xlink:title="/home/travis/build\l/STORM&#45;IRIT/Radium&#45;Engine\l/Plugins/MeshPaint/src/MeshPaint\lPlugin.cpp">
<polygon fill="white" stroke="black" points="2329.5,-1 2329.5,-53 2496.5,-53 2496.5,-1 2329.5,-1"/>
<text text-anchor="start" x="2337.5" y="-41" font-family="Helvetica,sans-Serif" font-size="10.00">/home/travis/build</text>
<text text-anchor="start" x="2337.5" y="-30" font-family="Helvetica,sans-Serif" font-size="10.00">/STORM&#45;IRIT/Radium&#45;Engine</text>
<text text-anchor="start" x="2337.5" y="-19" font-family="Helvetica,sans-Serif" font-size="10.00">/Plugins/MeshPaint/src/MeshPaint</text>
<text text-anchor="middle" x="2413" y="-8" font-family="Helvetica,sans-Serif" font-size="10.00">Plugin.cpp</text>
</a>
</g>
</g>
<!-- Node1&#45;&gt;Node13 -->
<g id="edge43" class="edge"><title>Node1&#45;&gt;Node13</title>
<path fill="none" stroke="midnightblue" d="M2344.26,-338.621C2356.07,-295.979 2378.01,-214.34 2393,-144 2399.6,-113.02 2405.54,-77.0299 2409.2,-53.4539"/>
<polygon fill="midnightblue" stroke="midnightblue" points="2340.86,-337.774 2341.56,-348.346 2347.61,-339.65 2340.86,-337.774"/>
</g>
<!-- Node22 -->
<g id="node22" class="node"><title>Node22</title>
<g id="a_node22"><a xlink:href="Viewer_8cpp.html" target="_top" xlink:title="/home/travis/build\l/STORM&#45;IRIT/Radium&#45;Engine\l/src/GuiBase/Viewer/Viewer.cpp">
<polygon fill="white" stroke="black" points="3093,-6.5 3093,-47.5 3251,-47.5 3251,-6.5 3093,-6.5"/>
<text text-anchor="start" x="3101" y="-35.5" font-family="Helvetica,sans-Serif" font-size="10.00">/home/travis/build</text>
<text text-anchor="start" x="3101" y="-24.5" font-family="Helvetica,sans-Serif" font-size="10.00">/STORM&#45;IRIT/Radium&#45;Engine</text>
<text text-anchor="middle" x="3172" y="-13.5" font-family="Helvetica,sans-Serif" font-size="10.00">/src/GuiBase/Viewer/Viewer.cpp</text>
</a>
</g>
</g>
<!-- Node1&#45;&gt;Node22 -->
<g id="edge32" class="edge"><title>Node1&#45;&gt;Node22</title>
<path fill="none" stroke="midnightblue" d="M2440.29,-356.132C2571.05,-339.095 2800.67,-301.997 2987,-234 3065.84,-205.23 3104.36,-212.393 3153,-144 3173.46,-115.229 3174.94,-72.3688 3173.76,-47.6011"/>
<polygon fill="midnightblue" stroke="midnightblue" points="2439.74,-352.673 2430.27,-357.422 2440.64,-359.615 2439.74,-352.673"/>
</g>
<!-- Node27 -->
<g id="node27" class="node"><title>Node27</title>
<g id="a_node27"><a xlink:href="PickingManager_8cpp.html" target="_top" xlink:title="/home/travis/build\l/STORM&#45;IRIT/Radium&#45;Engine\l/src/GuiBase/Utils/PickingManager.cpp">
<polygon fill="white" stroke="black" points="3200,-270.5 3200,-311.5 3388,-311.5 3388,-270.5 3200,-270.5"/>
<text text-anchor="start" x="3208" y="-299.5" font-family="Helvetica,sans-Serif" font-size="10.00">/home/travis/build</text>
<text text-anchor="start" x="3208" y="-288.5" font-family="Helvetica,sans-Serif" font-size="10.00">/STORM&#45;IRIT/Radium&#45;Engine</text>
<text text-anchor="middle" x="3294" y="-277.5" font-family="Helvetica,sans-Serif" font-size="10.00">/src/GuiBase/Utils/PickingManager.cpp</text>
</a>
</g>
</g>
<!-- Node1&#45;&gt;Node27 -->
<g id="edge31" class="edge"><title>Node1&#45;&gt;Node27</title>
<path fill="none" stroke="midnightblue" d="M2440.4,-365.065C2601.11,-359.658 2918.56,-345.456 3186,-312 3190.54,-311.432 3195.18,-310.795 3199.86,-310.106"/>
<polygon fill="midnightblue" stroke="midnightblue" points="2439.92,-361.579 2430.05,-365.408 2440.16,-368.575 2439.92,-361.579"/>
</g>
<!-- Node28 -->
<g id="node28" class="node"><title>Node28</title>
<g id="a_node28"><a xlink:href="MeshFeatureTrackingComponent_8hpp.html" target="_top" xlink:title="/home/travis/build\l/STORM&#45;IRIT/Radium&#45;Engine\l/Plugins/MeshFeatureTracking\l/src/MeshFeatureTrackingComponent.hpp">
<polygon fill="white" stroke="black" points="1761,-91 1761,-143 1961,-143 1961,-91 1761,-91"/>
<text text-anchor="start" x="1769" y="-131" font-family="Helvetica,sans-Serif" font-size="10.00">/home/travis/build</text>
<text text-anchor="start" x="1769" y="-120" font-family="Helvetica,sans-Serif" font-size="10.00">/STORM&#45;IRIT/Radium&#45;Engine</text>
<text text-anchor="start" x="1769" y="-109" font-family="Helvetica,sans-Serif" font-size="10.00">/Plugins/MeshFeatureTracking</text>
<text text-anchor="middle" x="1861" y="-98" font-family="Helvetica,sans-Serif" font-size="10.00">/src/MeshFeatureTrackingComponent.hpp</text>
</a>
</g>
</g>
<!-- Node1&#45;&gt;Node28 -->
<g id="edge33" class="edge"><title>Node1&#45;&gt;Node28</title>
<path fill="none" stroke="midnightblue" d="M2276.95,-344.752C2251.93,-334.803 2222.49,-322.971 2196,-312 2114.69,-278.322 2090.07,-278.246 2014,-234 1967.75,-207.101 1919.36,-168.335 1889.68,-143.155"/>
<polygon fill="midnightblue" stroke="midnightblue" points="2275.73,-348.031 2286.31,-348.467 2278.31,-341.524 2275.73,-348.031"/>
</g>
<!-- Node30 -->
<g id="node30" class="node"><title>Node30</title>
<g id="a_node30"><a xlink:href="MeshFeatureTrackingUI_8h.html" target="_top" xlink:title="/home/travis/build\l/STORM&#45;IRIT/Radium&#45;Engine\l/Plugins/MeshFeatureTracking\l/src/UI/MeshFeatureTrackingUI.h">
<polygon fill="white" stroke="black" points="2023.5,-181 2023.5,-233 2186.5,-233 2186.5,-181 2023.5,-181"/>
<text text-anchor="start" x="2031.5" y="-221" font-family="Helvetica,sans-Serif" font-size="10.00">/home/travis/build</text>
<text text-anchor="start" x="2031.5" y="-210" font-family="Helvetica,sans-Serif" font-size="10.00">/STORM&#45;IRIT/Radium&#45;Engine</text>
<text text-anchor="start" x="2031.5" y="-199" font-family="Helvetica,sans-Serif" font-size="10.00">/Plugins/MeshFeatureTracking</text>
<text text-anchor="middle" x="2105" y="-188" font-family="Helvetica,sans-Serif" font-size="10.00">/src/UI/MeshFeatureTrackingUI.h</text>
</a>
</g>
</g>
<!-- Node1&#45;&gt;Node30 -->
<g id="edge37" class="edge"><title>Node1&#45;&gt;Node30</title>
<path fill="none" stroke="midnightblue" d="M2299.4,-342.65C2256.06,-312.627 2184.31,-262.932 2141.16,-233.044"/>
<polygon fill="midnightblue" stroke="midnightblue" points="2297.46,-345.564 2307.67,-348.381 2301.45,-339.81 2297.46,-345.564"/>
</g>
<!-- Node33 -->
<g id="node33" class="node"><title>Node33</title>
<g id="a_node33"><a xlink:href="MeshPaintUI_8h.html" target="_top" xlink:title="/home/travis/build\l/STORM&#45;IRIT/Radium&#45;Engine\l/Plugins/MeshPaint/src/UI\l/MeshPaintUI.h">
<polygon fill="white" stroke="black" points="2465,-181 2465,-233 2613,-233 2613,-181 2465,-181"/>
<text text-anchor="start" x="2473" y="-221" font-family="Helvetica,sans-Serif" font-size="10.00">/home/travis/build</text>
<text text-anchor="start" x="2473" y="-210" font-family="Helvetica,sans-Serif" font-size="10.00">/STORM&#45;IRIT/Radium&#45;Engine</text>
<text text-anchor="start" x="2473" y="-199" font-family="Helvetica,sans-Serif" font-size="10.00">/Plugins/MeshPaint/src/UI</text>
<text text-anchor="middle" x="2539" y="-188" font-family="Helvetica,sans-Serif" font-size="10.00">/MeshPaintUI.h</text>
</a>
</g>
</g>
<!-- Node1&#45;&gt;Node33 -->
<g id="edge44" class="edge"><title>Node1&#45;&gt;Node33</title>
<path fill="none" stroke="midnightblue" d="M2380.37,-343.088C2395.58,-333.928 2412.43,-323.074 2427,-312 2459.32,-287.43 2493.01,-255.081 2514.89,-233.027"/>
<polygon fill="midnightblue" stroke="midnightblue" points="2378.44,-340.16 2371.63,-348.274 2382.02,-346.18 2378.44,-340.16"/>
</g>
<!-- Node3 -->
<g id="node3" class="node"><title>Node3</title>
<g id="a_node3"><a xlink:href="ItemEntry_8cpp.html" target="_top" xlink:title="/home/travis/build\l/STORM&#45;IRIT/Radium&#45;Engine\l/src/Engine/ItemModel/ItemEntry.cpp">
<polygon fill="white" stroke="black" points="900.5,-186.5 900.5,-227.5 1079.5,-227.5 1079.5,-186.5 900.5,-186.5"/>
<text text-anchor="start" x="908.5" y="-215.5" font-family="Helvetica,sans-Serif" font-size="10.00">/home/travis/build</text>
<text text-anchor="start" x="908.5" y="-204.5" font-family="Helvetica,sans-Serif" font-size="10.00">/STORM&#45;IRIT/Radium&#45;Engine</text>
<text text-anchor="middle" x="990" y="-193.5" font-family="Helvetica,sans-Serif" font-size="10.00">/src/Engine/ItemModel/ItemEntry.cpp</text>
</a>
</g>
</g>
<!-- Node2&#45;&gt;Node3 -->
<g id="edge2" class="edge"><title>Node2&#45;&gt;Node3</title>
<path fill="none" stroke="midnightblue" d="M1251.33,-269.021C1203.65,-258.794 1145.79,-246.112 1094,-234 1085.21,-231.944 1076.02,-229.734 1066.89,-227.502"/>
<polygon fill="midnightblue" stroke="midnightblue" points="1250.84,-272.494 1261.35,-271.165 1252.3,-265.649 1250.84,-272.494"/>
</g>
<!-- Node4 -->
<g id="node4" class="node"><title>Node4</title>
<g id="a_node4"><a xlink:href="SignalManager_8hpp.html" target="_top" xlink:title="/home/travis/build\l/STORM&#45;IRIT/Radium&#45;Engine\l/src/Engine/Managers/SignalManager\l/SignalManager.hpp">
<polygon fill="white" stroke="black" points="825.5,-91 825.5,-143 1004.5,-143 1004.5,-91 825.5,-91"/>
<text text-anchor="start" x="833.5" y="-131" font-family="Helvetica,sans-Serif" font-size="10.00">/home/travis/build</text>
<text text-anchor="start" x="833.5" y="-120" font-family="Helvetica,sans-Serif" font-size="10.00">/STORM&#45;IRIT/Radium&#45;Engine</text>
<text text-anchor="start" x="833.5" y="-109" font-family="Helvetica,sans-Serif" font-size="10.00">/src/Engine/Managers/SignalManager</text>
<text text-anchor="middle" x="915" y="-98" font-family="Helvetica,sans-Serif" font-size="10.00">/SignalManager.hpp</text>
</a>
</g>
</g>
<!-- Node2&#45;&gt;Node4 -->
<g id="edge3" class="edge"><title>Node2&#45;&gt;Node4</title>
<path fill="none" stroke="midnightblue" d="M1251.16,-270.773C1218.42,-262.18 1182.6,-250.229 1152,-234 1119.12,-216.564 1120.25,-198.573 1088,-180 1062.01,-165.033 1031.78,-152.699 1003.93,-143.081"/>
<polygon fill="midnightblue" stroke="midnightblue" points="1250.66,-274.257 1261.22,-273.333 1252.39,-267.474 1250.66,-274.257"/>
</g>
<!-- Node14 -->
<g id="node14" class="node"><title>Node14</title>
<g id="a_node14"><a xlink:href="BaseApplication_8cpp.html" target="_top" xlink:title="/home/travis/build\l/STORM&#45;IRIT/Radium&#45;Engine\l/src/GuiBase/BaseApplication.cpp">
<polygon fill="white" stroke="black" points="1542,-186.5 1542,-227.5 1708,-227.5 1708,-186.5 1542,-186.5"/>
<text text-anchor="start" x="1550" y="-215.5" font-family="Helvetica,sans-Serif" font-size="10.00">/home/travis/build</text>
<text text-anchor="start" x="1550" y="-204.5" font-family="Helvetica,sans-Serif" font-size="10.00">/STORM&#45;IRIT/Radium&#45;Engine</text>
<text text-anchor="middle" x="1625" y="-193.5" font-family="Helvetica,sans-Serif" font-size="10.00">/src/GuiBase/BaseApplication.cpp</text>
</a>
</g>
</g>
<!-- Node2&#45;&gt;Node14 -->
<g id="edge13" class="edge"><title>Node2&#45;&gt;Node14</title>
<path fill="none" stroke="midnightblue" d="M1425.88,-267.59C1467.78,-255.051 1519.51,-239.569 1559.74,-227.529"/>
<polygon fill="midnightblue" stroke="midnightblue" points="1424.86,-264.243 1416.28,-270.463 1426.87,-270.949 1424.86,-264.243"/>
</g>
<!-- Node15 -->
<g id="node15" class="node"><title>Node15</title>
<g id="a_node15"><a xlink:href="SelectionManager_8hpp.html" target="_top" xlink:title="/home/travis/build\l/STORM&#45;IRIT/Radium&#45;Engine\l/src/GuiBase/SelectionManager\l/SelectionManager.hpp">
<polygon fill="white" stroke="black" points="1181.5,-91 1181.5,-143 1336.5,-143 1336.5,-91 1181.5,-91"/>
<text text-anchor="start" x="1189.5" y="-131" font-family="Helvetica,sans-Serif" font-size="10.00">/home/travis/build</text>
<text text-anchor="start" x="1189.5" y="-120" font-family="Helvetica,sans-Serif" font-size="10.00">/STORM&#45;IRIT/Radium&#45;Engine</text>
<text text-anchor="start" x="1189.5" y="-109" font-family="Helvetica,sans-Serif" font-size="10.00">/src/GuiBase/SelectionManager</text>
<text text-anchor="middle" x="1259" y="-98" font-family="Helvetica,sans-Serif" font-size="10.00">/SelectionManager.hpp</text>
</a>
</g>
</g>
<!-- Node2&#45;&gt;Node15 -->
<g id="edge14" class="edge"><title>Node2&#45;&gt;Node15</title>
<path fill="none" stroke="midnightblue" d="M1251.1,-271.105C1213.12,-261.717 1176.24,-249.125 1165,-234 1150.68,-214.738 1153.62,-201.132 1165,-180 1173.25,-164.68 1187.12,-152.518 1201.71,-143.171"/>
<polygon fill="midnightblue" stroke="midnightblue" points="1250.76,-274.621 1261.3,-273.544 1252.39,-267.813 1250.76,-274.621"/>
</g>
<!-- Node18 -->
<g id="node18" class="node"><title>Node18</title>
<g id="a_node18"><a xlink:href="TransformEditor_8hpp.html" target="_top" xlink:title="/home/travis/build\l/STORM&#45;IRIT/Radium&#45;Engine\l/src/GuiBase/TransformEditor\l/TransformEditor.hpp">
<polygon fill="white" stroke="black" points="2830,-181 2830,-233 2978,-233 2978,-181 2830,-181"/>
<text text-anchor="start" x="2838" y="-221" font-family="Helvetica,sans-Serif" font-size="10.00">/home/travis/build</text>
<text text-anchor="start" x="2838" y="-210" font-family="Helvetica,sans-Serif" font-size="10.00">/STORM&#45;IRIT/Radium&#45;Engine</text>
<text text-anchor="start" x="2838" y="-199" font-family="Helvetica,sans-Serif" font-size="10.00">/src/GuiBase/TransformEditor</text>
<text text-anchor="middle" x="2904" y="-188" font-family="Helvetica,sans-Serif" font-size="10.00">/TransformEditor.hpp</text>
</a>
</g>
</g>
<!-- Node2&#45;&gt;Node18 -->
<g id="edge20" class="edge"><title>Node2&#45;&gt;Node18</title>
<path fill="none" stroke="midnightblue" d="M1451.15,-287.219C1665.88,-280.898 2186.48,-263.655 2622,-234 2692.64,-229.19 2773.03,-221.565 2829.86,-215.813"/>
<polygon fill="midnightblue" stroke="midnightblue" points="1450.74,-283.73 1440.85,-287.521 1450.94,-290.727 1450.74,-283.73"/>
</g>
<!-- Node23 -->
<g id="node23" class="node"><title>Node23</title>
<g id="a_node23"><a xlink:href="EntityTreeModel_8hpp.html" target="_top" xlink:title="/home/travis/build\l/STORM&#45;IRIT/Radium&#45;Engine\l/src/GuiBase/TreeModel/EntityTree\lModel.hpp">
<polygon fill="white" stroke="black" points="1174,-181 1174,-233 1344,-233 1344,-181 1174,-181"/>
<text text-anchor="start" x="1182" y="-221" font-family="Helvetica,sans-Serif" font-size="10.00">/home/travis/build</text>
<text text-anchor="start" x="1182" y="-210" font-family="Helvetica,sans-Serif" font-size="10.00">/STORM&#45;IRIT/Radium&#45;Engine</text>
<text text-anchor="start" x="1182" y="-199" font-family="Helvetica,sans-Serif" font-size="10.00">/src/GuiBase/TreeModel/EntityTree</text>
<text text-anchor="middle" x="1259" y="-188" font-family="Helvetica,sans-Serif" font-size="10.00">Model.hpp</text>
</a>
</g>
</g>
<!-- Node2&#45;&gt;Node23 -->
<g id="edge25" class="edge"><title>Node2&#45;&gt;Node23</title>
<path fill="none" stroke="midnightblue" d="M1321.11,-263.362C1310.27,-253.695 1298.05,-242.807 1287.34,-233.261"/>
<polygon fill="midnightblue" stroke="midnightblue" points="1318.94,-266.109 1328.73,-270.15 1323.59,-260.884 1318.94,-266.109"/>
</g>
<!-- Node25 -->
<g id="node25" class="node"><title>Node25</title>
<g id="a_node25"><a xlink:href="AnimationSystem_8hpp.html" target="_top" xlink:title="/home/travis/build\l/STORM&#45;IRIT/Radium&#45;Engine\l/Plugins/Animation/src/Animation\lSystem.hpp">
<polygon fill="white" stroke="black" points="1362.5,-181 1362.5,-233 1523.5,-233 1523.5,-181 1362.5,-181"/>
<text text-anchor="start" x="1370.5" y="-221" font-family="Helvetica,sans-Serif" font-size="10.00">/home/travis/build</text>
<text text-anchor="start" x="1370.5" y="-210" font-family="Helvetica,sans-Serif" font-size="10.00">/STORM&#45;IRIT/Radium&#45;Engine</text>
<text text-anchor="start" x="1370.5" y="-199" font-family="Helvetica,sans-Serif" font-size="10.00">/Plugins/Animation/src/Animation</text>
<text text-anchor="middle" x="1443" y="-188" font-family="Helvetica,sans-Serif" font-size="10.00">System.hpp</text>
</a>
</g>
</g>
<!-- Node2&#45;&gt;Node25 -->
<g id="edge28" class="edge"><title>Node2&#45;&gt;Node25</title>
<path fill="none" stroke="midnightblue" d="M1380.89,-263.362C1391.73,-253.695 1403.95,-242.807 1414.66,-233.261"/>
<polygon fill="midnightblue" stroke="midnightblue" points="1378.41,-260.884 1373.27,-270.15 1383.06,-266.109 1378.41,-260.884"/>
</g>
<!-- Node5 -->
<g id="node5" class="node"><title>Node5</title>
<g id="a_node5"><a xlink:href="Component_8cpp.html" target="_top" xlink:title="/home/travis/build\l/STORM&#45;IRIT/Radium&#45;Engine\l/src/Engine/Component/Component.cpp">
<polygon fill="white" stroke="black" points="-0.5,-6.5 -0.5,-47.5 190.5,-47.5 190.5,-6.5 -0.5,-6.5"/>
<text text-anchor="start" x="7.5" y="-35.5" font-family="Helvetica,sans-Serif" font-size="10.00">/home/travis/build</text>
<text text-anchor="start" x="7.5" y="-24.5" font-family="Helvetica,sans-Serif" font-size="10.00">/STORM&#45;IRIT/Radium&#45;Engine</text>
<text text-anchor="middle" x="95" y="-13.5" font-family="Helvetica,sans-Serif" font-size="10.00">/src/Engine/Component/Component.cpp</text>
</a>
</g>
</g>
<!-- Node4&#45;&gt;Node5 -->
<g id="edge4" class="edge"><title>Node4&#45;&gt;Node5</title>
<path fill="none" stroke="midnightblue" d="M815.071,-112.264C676.275,-105.956 417.641,-90.1546 200,-54 189.44,-52.2458 178.377,-49.9838 167.559,-47.5271"/>
<polygon fill="midnightblue" stroke="midnightblue" points="815.117,-115.769 825.264,-112.719 815.43,-108.776 815.117,-115.769"/>
</g>
<!-- Node6 -->
<g id="node6" class="node"><title>Node6</title>
<g id="a_node6"><a xlink:href="Entity_8cpp.html" target="_top" xlink:title="/home/travis/build\l/STORM&#45;IRIT/Radium&#45;Engine\l/src/Engine/Entity/Entity.cpp">
<polygon fill="white" stroke="black" points="209,-6.5 209,-47.5 357,-47.5 357,-6.5 209,-6.5"/>
<text text-anchor="start" x="217" y="-35.5" font-family="Helvetica,sans-Serif" font-size="10.00">/home/travis/build</text>
<text text-anchor="start" x="217" y="-24.5" font-family="Helvetica,sans-Serif" font-size="10.00">/STORM&#45;IRIT/Radium&#45;Engine</text>
<text text-anchor="middle" x="283" y="-13.5" font-family="Helvetica,sans-Serif" font-size="10.00">/src/Engine/Entity/Entity.cpp</text>
</a>
</g>
</g>
<!-- Node4&#45;&gt;Node6 -->
<g id="edge5" class="edge"><title>Node4&#45;&gt;Node6</title>
<path fill="none" stroke="midnightblue" d="M815.101,-110.47C704.37,-103.012 520.944,-86.7034 366,-54 357.726,-52.2537 349.1,-50.0272 340.673,-47.6143"/>
<polygon fill="midnightblue" stroke="midnightblue" points="815.046,-113.974 825.255,-111.143 815.509,-106.989 815.046,-113.974"/>
</g>
<!-- Node7 -->
<g id="node7" class="node"><title>Node7</title>
<g id="a_node7"><a xlink:href="EntityManager_8cpp.html" target="_top" xlink:title="/home/travis/build\l/STORM&#45;IRIT/Radium&#45;Engine\l/src/Engine/Managers/EntityManager\l/EntityManager.cpp">
<polygon fill="white" stroke="black" points="375,-1 375,-53 553,-53 553,-1 375,-1"/>
<text text-anchor="start" x="383" y="-41" font-family="Helvetica,sans-Serif" font-size="10.00">/home/travis/build</text>
<text text-anchor="start" x="383" y="-30" font-family="Helvetica,sans-Serif" font-size="10.00">/STORM&#45;IRIT/Radium&#45;Engine</text>
<text text-anchor="start" x="383" y="-19" font-family="Helvetica,sans-Serif" font-size="10.00">/src/Engine/Managers/EntityManager</text>
<text text-anchor="middle" x="464" y="-8" font-family="Helvetica,sans-Serif" font-size="10.00">/EntityManager.cpp</text>
</a>
</g>
</g>
<!-- Node4&#45;&gt;Node7 -->
<g id="edge6" class="edge"><title>Node4&#45;&gt;Node7</title>
<path fill="none" stroke="midnightblue" d="M815.093,-100.789C744.161,-89.4204 646.853,-72.672 562,-54 559.077,-53.3569 556.111,-52.6846 553.119,-51.9897"/>
<polygon fill="midnightblue" stroke="midnightblue" points="814.936,-104.308 825.362,-102.426 816.038,-97.395 814.936,-104.308"/>
</g>
<!-- Node8 -->
<g id="node8" class="node"><title>Node8</title>
<g id="a_node8"><a xlink:href="SignalManager_8cpp.html" target="_top" xlink:title="/home/travis/build\l/STORM&#45;IRIT/Radium&#45;Engine\l/src/Engine/Managers/SignalManager\l/SignalManager.cpp">
<polygon fill="white" stroke="black" points="571.5,-1 571.5,-53 750.5,-53 750.5,-1 571.5,-1"/>
<text text-anchor="start" x="579.5" y="-41" font-family="Helvetica,sans-Serif" font-size="10.00">/home/travis/build</text>
<text text-anchor="start" x="579.5" y="-30" font-family="Helvetica,sans-Serif" font-size="10.00">/STORM&#45;IRIT/Radium&#45;Engine</text>
<text text-anchor="start" x="579.5" y="-19" font-family="Helvetica,sans-Serif" font-size="10.00">/src/Engine/Managers/SignalManager</text>
<text text-anchor="middle" x="661" y="-8" font-family="Helvetica,sans-Serif" font-size="10.00">/SignalManager.cpp</text>
</a>
</g>
</g>
<!-- Node4&#45;&gt;Node8 -->
<g id="edge7" class="edge"><title>Node4&#45;&gt;Node8</title>
<path fill="none" stroke="midnightblue" d="M832.784,-87.5157C800.82,-76.4416 764.516,-63.8637 733.543,-53.1328"/>
<polygon fill="midnightblue" stroke="midnightblue" points="831.959,-90.9339 842.554,-90.9005 834.251,-84.3196 831.959,-90.9339"/>
</g>
<!-- Node9 -->
<g id="node9" class="node"><title>Node9</title>
<g id="a_node9"><a xlink:href="RadiumEngine_8cpp.html" target="_top" xlink:title="/home/travis/build\l/STORM&#45;IRIT/Radium&#45;Engine\l/src/Engine/RadiumEngine.cpp">
<polygon fill="white" stroke="black" points="769,-6.5 769,-47.5 921,-47.5 921,-6.5 769,-6.5"/>
<text text-anchor="start" x="777" y="-35.5" font-family="Helvetica,sans-Serif" font-size="10.00">/home/travis/build</text>
<text text-anchor="start" x="777" y="-24.5" font-family="Helvetica,sans-Serif" font-size="10.00">/STORM&#45;IRIT/Radium&#45;Engine</text>
<text text-anchor="middle" x="845" y="-13.5" font-family="Helvetica,sans-Serif" font-size="10.00">/src/Engine/RadiumEngine.cpp</text>
</a>
</g>
</g>
<!-- Node4&#45;&gt;Node9 -->
<g id="edge8" class="edge"><title>Node4&#45;&gt;Node9</title>
<path fill="none" stroke="midnightblue" d="M888.41,-82.573C878.997,-70.7393 868.721,-57.821 860.531,-47.5249"/>
<polygon fill="midnightblue" stroke="midnightblue" points="885.789,-84.8996 894.753,-90.5468 891.267,-80.5419 885.789,-84.8996"/>
</g>
<!-- Node10 -->
<g id="node10" class="node"><title>Node10</title>
<g id="a_node10"><a xlink:href="RenderObjectManager_8cpp.html" target="_top" xlink:title="/home/travis/build\l/STORM&#45;IRIT/Radium&#45;Engine\l/src/Engine/Renderer/RenderObject\l/RenderObjectManager.cpp">
<polygon fill="white" stroke="black" points="939,-1 939,-53 1111,-53 1111,-1 939,-1"/>
<text text-anchor="start" x="947" y="-41" font-family="Helvetica,sans-Serif" font-size="10.00">/home/travis/build</text>
<text text-anchor="start" x="947" y="-30" font-family="Helvetica,sans-Serif" font-size="10.00">/STORM&#45;IRIT/Radium&#45;Engine</text>
<text text-anchor="start" x="947" y="-19" font-family="Helvetica,sans-Serif" font-size="10.00">/src/Engine/Renderer/RenderObject</text>
<text text-anchor="middle" x="1025" y="-8" font-family="Helvetica,sans-Serif" font-size="10.00">/RenderObjectManager.cpp</text>
</a>
</g>
</g>
<!-- Node4&#45;&gt;Node10 -->
<g id="edge9" class="edge"><title>Node4&#45;&gt;Node10</title>
<path fill="none" stroke="midnightblue" d="M954.333,-84.5335C967.182,-74.2542 981.276,-62.9791 993.474,-53.221"/>
<polygon fill="midnightblue" stroke="midnightblue" points="952.144,-81.8027 946.522,-90.7827 956.517,-87.2688 952.144,-81.8027"/>
</g>
<!-- Node11 -->
<g id="node11" class="node"><title>Node11</title>
<g id="a_node11"><a xlink:href="AnimationPlugin_8cpp.html" target="_top" xlink:title="/home/travis/build\l/STORM&#45;IRIT/Radium&#45;Engine\l/Plugins/Animation/src/Animation\lPlugin.cpp">
<polygon fill="white" stroke="black" points="1129.5,-1 1129.5,-53 1290.5,-53 1290.5,-1 1129.5,-1"/>
<text text-anchor="start" x="1137.5" y="-41" font-family="Helvetica,sans-Serif" font-size="10.00">/home/travis/build</text>
<text text-anchor="start" x="1137.5" y="-30" font-family="Helvetica,sans-Serif" font-size="10.00">/STORM&#45;IRIT/Radium&#45;Engine</text>
<text text-anchor="start" x="1137.5" y="-19" font-family="Helvetica,sans-Serif" font-size="10.00">/Plugins/Animation/src/Animation</text>
<text text-anchor="middle" x="1210" y="-8" font-family="Helvetica,sans-Serif" font-size="10.00">Plugin.cpp</text>
</a>
</g>
</g>
<!-- Node4&#45;&gt;Node11 -->
<g id="edge10" class="edge"><title>Node4&#45;&gt;Node11</title>
<path fill="none" stroke="midnightblue" d="M1008.86,-88.0015C1047.6,-76.445 1092.06,-63.1835 1129.3,-52.0718"/>
<polygon fill="midnightblue" stroke="midnightblue" points="1007.72,-84.6879 999.14,-90.9005 1009.72,-91.3958 1007.72,-84.6879"/>
</g>
<!-- Node4&#45;&gt;Node12 -->
<g id="edge11" class="edge"><title>Node4&#45;&gt;Node12</title>
<path fill="none" stroke="midnightblue" d="M1014.73,-105.19C1062.31,-100.217 1120.06,-94.4483 1172,-90 1399.73,-70.495 1459.58,-91.761 1685,-54 1687.92,-53.5103 1690.89,-52.971 1693.87,-52.3909"/>
<polygon fill="midnightblue" stroke="midnightblue" points="1014.31,-101.714 1004.73,-106.239 1015.04,-108.676 1014.31,-101.714"/>
</g>
<!-- Node4&#45;&gt;Node13 -->
<g id="edge12" class="edge"><title>Node4&#45;&gt;Node13</title>
<path fill="none" stroke="midnightblue" d="M1014.67,-104.466C1062.24,-99.3329 1120,-93.6386 1172,-90 1582.42,-61.2807 1686.33,-78.8744 2097,-54 2175.85,-49.2242 2265.59,-41.633 2329.24,-35.8833"/>
<polygon fill="midnightblue" stroke="midnightblue" points="1014.24,-100.992 1004.68,-105.552 1015,-107.951 1014.24,-100.992"/>
</g>
<!-- Node15&#45;&gt;Node11 -->
<g id="edge16" class="edge"><title>Node15&#45;&gt;Node11</title>
<path fill="none" stroke="midnightblue" d="M1239.88,-81.6708C1234.58,-72.1448 1228.92,-61.9826 1223.97,-53.0921"/>
<polygon fill="midnightblue" stroke="midnightblue" points="1236.9,-83.5126 1244.83,-90.5468 1243.02,-80.1071 1236.9,-83.5126"/>
</g>
<!-- Node15&#45;&gt;Node12 -->
<g id="edge17" class="edge"><title>Node15&#45;&gt;Node12</title>
<path fill="none" stroke="midnightblue" d="M1346.63,-90.0532C1496.38,-61.0829 1539.24,-81.1029 1685,-54 1687.91,-53.4582 1690.87,-52.8737 1693.85,-52.2545"/>
<polygon fill="midnightblue" stroke="midnightblue" points="1345.74,-86.6611 1336.61,-92.0333 1347.1,-93.5283 1345.74,-86.6611"/>
</g>
<!-- Node15&#45;&gt;Node13 -->
<g id="edge18" class="edge"><title>Node15&#45;&gt;Node13</title>
<path fill="none" stroke="midnightblue" d="M1346.91,-90.0499C1677.23,-34.5994 1766.96,-75.4815 2097,-54 2175.82,-48.8694 2265.57,-41.3212 2329.23,-35.6778"/>
<polygon fill="midnightblue" stroke="midnightblue" points="1345.84,-86.6814 1336.57,-91.8045 1347.01,-93.5828 1345.84,-86.6814"/>
</g>
<!-- Node16 -->
<g id="node16" class="node"><title>Node16</title>
<g id="a_node16"><a xlink:href="SelectionManager_8cpp.html" target="_top" xlink:title="/home/travis/build\l/STORM&#45;IRIT/Radium&#45;Engine\l/src/GuiBase/SelectionManager\l/SelectionManager.cpp">
<polygon fill="white" stroke="black" points="1308.5,-1 1308.5,-53 1463.5,-53 1463.5,-1 1308.5,-1"/>
<text text-anchor="start" x="1316.5" y="-41" font-family="Helvetica,sans-Serif" font-size="10.00">/home/travis/build</text>
<text text-anchor="start" x="1316.5" y="-30" font-family="Helvetica,sans-Serif" font-size="10.00">/STORM&#45;IRIT/Radium&#45;Engine</text>
<text text-anchor="start" x="1316.5" y="-19" font-family="Helvetica,sans-Serif" font-size="10.00">/src/GuiBase/SelectionManager</text>
<text text-anchor="middle" x="1386" y="-8" font-family="Helvetica,sans-Serif" font-size="10.00">/SelectionManager.cpp</text>
</a>
</g>
</g>
<!-- Node15&#45;&gt;Node16 -->
<g id="edge15" class="edge"><title>Node15&#45;&gt;Node16</title>
<path fill="none" stroke="midnightblue" d="M1303.99,-84.8242C1318.94,-74.4671 1335.39,-63.0712 1349.6,-53.221"/>
<polygon fill="midnightblue" stroke="midnightblue" points="1301.62,-82.2104 1295.39,-90.7827 1305.61,-87.9641 1301.62,-82.2104"/>
</g>
<!-- Node17 -->
<g id="node17" class="node"><title>Node17</title>
<g id="a_node17"><a xlink:href="SkinningPlugin_8cpp.html" target="_top" xlink:title="/home/travis/build\l/STORM&#45;IRIT/Radium&#45;Engine\l/Plugins/Skinning/src/SkinningPlugin.cpp">
<polygon fill="white" stroke="black" points="1481.5,-6.5 1481.5,-47.5 1676.5,-47.5 1676.5,-6.5 1481.5,-6.5"/>
<text text-anchor="start" x="1489.5" y="-35.5" font-family="Helvetica,sans-Serif" font-size="10.00">/home/travis/build</text>
<text text-anchor="start" x="1489.5" y="-24.5" font-family="Helvetica,sans-Serif" font-size="10.00">/STORM&#45;IRIT/Radium&#45;Engine</text>
<text text-anchor="middle" x="1579" y="-13.5" font-family="Helvetica,sans-Serif" font-size="10.00">/Plugins/Skinning/src/SkinningPlugin.cpp</text>
</a>
</g>
</g>
<!-- Node15&#45;&gt;Node17 -->
<g id="edge19" class="edge"><title>Node15&#45;&gt;Node17</title>
<path fill="none" stroke="midnightblue" d="M1346.48,-89.8935C1404.58,-73.5598 1460.04,-58.8249 1503.29,-47.5257"/>
<polygon fill="midnightblue" stroke="midnightblue" points="1345.43,-86.5534 1336.75,-92.6359 1347.33,-93.2907 1345.43,-86.5534"/>
</g>
<!-- Node19 -->
<g id="node19" class="node"><title>Node19</title>
<g id="a_node19"><a xlink:href="TransformEditor_8cpp.html" target="_top" xlink:title="/home/travis/build\l/STORM&#45;IRIT/Radium&#45;Engine\l/src/GuiBase/TransformEditor\l/TransformEditor.cpp">
<polygon fill="white" stroke="black" points="2830,-91 2830,-143 2978,-143 2978,-91 2830,-91"/>
<text text-anchor="start" x="2838" y="-131" font-family="Helvetica,sans-Serif" font-size="10.00">/home/travis/build</text>
<text text-anchor="start" x="2838" y="-120" font-family="Helvetica,sans-Serif" font-size="10.00">/STORM&#45;IRIT/Radium&#45;Engine</text>
<text text-anchor="start" x="2838" y="-109" font-family="Helvetica,sans-Serif" font-size="10.00">/src/GuiBase/TransformEditor</text>
<text text-anchor="middle" x="2904" y="-98" font-family="Helvetica,sans-Serif" font-size="10.00">/TransformEditor.cpp</text>
</a>
</g>
</g>
<!-- Node18&#45;&gt;Node19 -->
<g id="edge21" class="edge"><title>Node18&#45;&gt;Node19</title>
<path fill="none" stroke="midnightblue" d="M2904,-170.489C2904,-161.309 2904,-151.616 2904,-143.092"/>
<polygon fill="midnightblue" stroke="midnightblue" points="2900.5,-170.547 2904,-180.547 2907.5,-170.547 2900.5,-170.547"/>
</g>
<!-- Node20 -->
<g id="node20" class="node"><title>Node20</title>
<g id="a_node20"><a xlink:href="GizmoManager_8hpp.html" target="_top" xlink:title="/home/travis/build\l/STORM&#45;IRIT/Radium&#45;Engine\l/src/GuiBase/Viewer/Gizmo\l/GizmoManager.hpp">
<polygon fill="white" stroke="black" points="2996,-91 2996,-143 3144,-143 3144,-91 2996,-91"/>
<text text-anchor="start" x="3004" y="-131" font-family="Helvetica,sans-Serif" font-size="10.00">/home/travis/build</text>
<text text-anchor="start" x="3004" y="-120" font-family="Helvetica,sans-Serif" font-size="10.00">/STORM&#45;IRIT/Radium&#45;Engine</text>
<text text-anchor="start" x="3004" y="-109" font-family="Helvetica,sans-Serif" font-size="10.00">/src/GuiBase/Viewer/Gizmo</text>
<text text-anchor="middle" x="3070" y="-98" font-family="Helvetica,sans-Serif" font-size="10.00">/GizmoManager.hpp</text>
</a>
</g>
</g>
<!-- Node18&#45;&gt;Node20 -->
<g id="edge22" class="edge"><title>Node18&#45;&gt;Node20</title>
<path fill="none" stroke="midnightblue" d="M2960.67,-175.96C2980.86,-165.253 3003.38,-153.315 3022.71,-143.069"/>
<polygon fill="midnightblue" stroke="midnightblue" points="2958.76,-173.007 2951.57,-180.783 2962.04,-179.191 2958.76,-173.007"/>
</g>
<!-- Node21 -->
<g id="node21" class="node"><title>Node21</title>
<g id="a_node21"><a xlink:href="GizmoManager_8cpp.html" target="_top" xlink:title="/home/travis/build\l/STORM&#45;IRIT/Radium&#45;Engine\l/src/GuiBase/Viewer/Gizmo\l/GizmoManager.cpp">
<polygon fill="white" stroke="black" points="2927,-1 2927,-53 3075,-53 3075,-1 2927,-1"/>
<text text-anchor="start" x="2935" y="-41" font-family="Helvetica,sans-Serif" font-size="10.00">/home/travis/build</text>
<text text-anchor="start" x="2935" y="-30" font-family="Helvetica,sans-Serif" font-size="10.00">/STORM&#45;IRIT/Radium&#45;Engine</text>
<text text-anchor="start" x="2935" y="-19" font-family="Helvetica,sans-Serif" font-size="10.00">/src/GuiBase/Viewer/Gizmo</text>
<text text-anchor="middle" x="3001" y="-8" font-family="Helvetica,sans-Serif" font-size="10.00">/GizmoManager.cpp</text>
</a>
</g>
</g>
<!-- Node20&#45;&gt;Node21 -->
<g id="edge23" class="edge"><title>Node20&#45;&gt;Node21</title>
<path fill="none" stroke="midnightblue" d="M3043.77,-82.5528C3036.11,-72.7746 3027.86,-62.2575 3020.67,-53.0921"/>
<polygon fill="midnightblue" stroke="midnightblue" points="3041.12,-84.837 3050.04,-90.5468 3046.63,-80.5177 3041.12,-84.837"/>
</g>
<!-- Node20&#45;&gt;Node22 -->
<g id="edge24" class="edge"><title>Node20&#45;&gt;Node22</title>
<path fill="none" stroke="midnightblue" d="M3106.9,-84.1619C3121.06,-71.9452 3136.8,-58.371 3149.25,-47.6283"/>
<polygon fill="midnightblue" stroke="midnightblue" points="3104.51,-81.6003 3099.23,-90.7827 3109.09,-86.9004 3104.51,-81.6003"/>
</g>
<!-- Node23&#45;&gt;Node15 -->
<g id="edge26" class="edge"><title>Node23&#45;&gt;Node15</title>
<path fill="none" stroke="midnightblue" d="M1259,-170.489C1259,-161.309 1259,-151.616 1259,-143.092"/>
<polygon fill="midnightblue" stroke="midnightblue" points="1255.5,-170.547 1259,-180.547 1262.5,-170.547 1255.5,-170.547"/>
</g>
<!-- Node24 -->
<g id="node24" class="node"><title>Node24</title>
<g id="a_node24"><a xlink:href="EntityTreeModel_8cpp.html" target="_top" xlink:title="/home/travis/build\l/STORM&#45;IRIT/Radium&#45;Engine\l/src/GuiBase/TreeModel/EntityTree\lModel.cpp">
<polygon fill="white" stroke="black" points="1355,-91 1355,-143 1525,-143 1525,-91 1355,-91"/>
<text text-anchor="start" x="1363" y="-131" font-family="Helvetica,sans-Serif" font-size="10.00">/home/travis/build</text>
<text text-anchor="start" x="1363" y="-120" font-family="Helvetica,sans-Serif" font-size="10.00">/STORM&#45;IRIT/Radium&#45;Engine</text>
<text text-anchor="start" x="1363" y="-109" font-family="Helvetica,sans-Serif" font-size="10.00">/src/GuiBase/TreeModel/EntityTree</text>
<text text-anchor="middle" x="1440" y="-98" font-family="Helvetica,sans-Serif" font-size="10.00">Model.cpp</text>
</a>
</g>
</g>
<!-- Node23&#45;&gt;Node24 -->
<g id="edge27" class="edge"><title>Node23&#45;&gt;Node24</title>
<path fill="none" stroke="midnightblue" d="M1319.9,-176.394C1342.15,-165.576 1367.08,-153.453 1388.44,-143.069"/>
<polygon fill="midnightblue" stroke="midnightblue" points="1318.33,-173.262 1310.87,-180.783 1321.39,-179.558 1318.33,-173.262"/>
</g>
<!-- Node25&#45;&gt;Node11 -->
<g id="edge29" class="edge"><title>Node25&#45;&gt;Node11</title>
<path fill="none" stroke="midnightblue" d="M1352.15,-180.098C1269.55,-164.006 1222.05,-204.987 1172,-144 1150.35,-117.626 1170.97,-78.5447 1189.24,-53.1713"/>
<polygon fill="midnightblue" stroke="midnightblue" points="1351.62,-183.563 1362.13,-182.288 1353.12,-176.726 1351.62,-183.563"/>
</g>
<!-- Node26 -->
<g id="node26" class="node"><title>Node26</title>
<g id="a_node26"><a xlink:href="AnimationSystem_8cpp.html" target="_top" xlink:title="/home/travis/build\l/STORM&#45;IRIT/Radium&#45;Engine\l/Plugins/Animation/src/Animation\lSystem.cpp">
<polygon fill="white" stroke="black" points="1543.5,-91 1543.5,-143 1704.5,-143 1704.5,-91 1543.5,-91"/>
<text text-anchor="start" x="1551.5" y="-131" font-family="Helvetica,sans-Serif" font-size="10.00">/home/travis/build</text>
<text text-anchor="start" x="1551.5" y="-120" font-family="Helvetica,sans-Serif" font-size="10.00">/STORM&#45;IRIT/Radium&#45;Engine</text>
<text text-anchor="start" x="1551.5" y="-109" font-family="Helvetica,sans-Serif" font-size="10.00">/Plugins/Animation/src/Animation</text>
<text text-anchor="middle" x="1624" y="-98" font-family="Helvetica,sans-Serif" font-size="10.00">System.cpp</text>
</a>
</g>
</g>
<!-- Node25&#45;&gt;Node26 -->
<g id="edge30" class="edge"><title>Node25&#45;&gt;Node26</title>
<path fill="none" stroke="midnightblue" d="M1503.9,-176.394C1526.15,-165.576 1551.08,-153.453 1572.44,-143.069"/>
<polygon fill="midnightblue" stroke="midnightblue" points="1502.33,-173.262 1494.87,-180.783 1505.39,-179.558 1502.33,-173.262"/>
</g>
<!-- Node28&#45;&gt;Node12 -->
<g id="edge35" class="edge"><title>Node28&#45;&gt;Node12</title>
<path fill="none" stroke="midnightblue" d="M1831.24,-82.8459C1822.38,-72.9851 1812.84,-62.3492 1804.53,-53.0921"/>
<polygon fill="midnightblue" stroke="midnightblue" points="1828.87,-85.4435 1838.15,-90.5468 1834.07,-80.7673 1828.87,-85.4435"/>
</g>
<!-- Node29 -->
<g id="node29" class="node"><title>Node29</title>
<g id="a_node29"><a xlink:href="MeshFeatureTrackingComponent_8cpp.html" target="_top" xlink:title="/home/travis/build\l/STORM&#45;IRIT/Radium&#45;Engine\l/Plugins/MeshFeatureTracking\l/src/MeshFeatureTrackingComponent.cpp">
<polygon fill="white" stroke="black" points="1888,-1 1888,-53 2088,-53 2088,-1 1888,-1"/>
<text text-anchor="start" x="1896" y="-41" font-family="Helvetica,sans-Serif" font-size="10.00">/home/travis/build</text>
<text text-anchor="start" x="1896" y="-30" font-family="Helvetica,sans-Serif" font-size="10.00">/STORM&#45;IRIT/Radium&#45;Engine</text>
<text text-anchor="start" x="1896" y="-19" font-family="Helvetica,sans-Serif" font-size="10.00">/Plugins/MeshFeatureTracking</text>
<text text-anchor="middle" x="1988" y="-8" font-family="Helvetica,sans-Serif" font-size="10.00">/src/MeshFeatureTrackingComponent.cpp</text>
</a>
</g>
</g>
<!-- Node28&#45;&gt;Node29 -->
<g id="edge34" class="edge"><title>Node28&#45;&gt;Node29</title>
<path fill="none" stroke="midnightblue" d="M1905.99,-84.8242C1920.94,-74.4671 1937.39,-63.0712 1951.6,-53.221"/>
<polygon fill="midnightblue" stroke="midnightblue" points="1903.62,-82.2104 1897.39,-90.7827 1907.61,-87.9641 1903.62,-82.2104"/>
</g>
<!-- Node30&#45;&gt;Node12 -->
<g id="edge39" class="edge"><title>Node30&#45;&gt;Node12</title>
<path fill="none" stroke="midnightblue" d="M2049.14,-175.512C2034.91,-166.388 2020.2,-155.669 2008,-144 1986.79,-123.715 1993.57,-107.48 1970,-90 1960.94,-83.2829 1911.75,-67.1563 1865.97,-53.0343"/>
<polygon fill="midnightblue" stroke="midnightblue" points="2047.58,-178.663 2057.92,-180.982 2051.28,-172.722 2047.58,-178.663"/>
</g>
<!-- Node30&#45;&gt;Node28 -->
<g id="edge38" class="edge"><title>Node30&#45;&gt;Node28</title>
<path fill="none" stroke="midnightblue" d="M2025.62,-177.372C1995.01,-166.333 1960.31,-153.817 1930.69,-143.133"/>
<polygon fill="midnightblue" stroke="midnightblue" points="2024.81,-180.8 2035.41,-180.901 2027.19,-174.215 2024.81,-180.8"/>
</g>
<!-- Node31 -->
<g id="node31" class="node"><title>Node31</title>
<g id="a_node31"><a xlink:href="MeshFeatureTrackingPlugin_8hpp.html" target="_top" xlink:title="/home/travis/build\l/STORM&#45;IRIT/Radium&#45;Engine\l/Plugins/MeshFeatureTracking\l/src/MeshFeatureTrackingPlugin.hpp">
<polygon fill="white" stroke="black" points="2017,-91 2017,-143 2193,-143 2193,-91 2017,-91"/>
<text text-anchor="start" x="2025" y="-131" font-family="Helvetica,sans-Serif" font-size="10.00">/home/travis/build</text>
<text text-anchor="start" x="2025" y="-120" font-family="Helvetica,sans-Serif" font-size="10.00">/STORM&#45;IRIT/Radium&#45;Engine</text>
<text text-anchor="start" x="2025" y="-109" font-family="Helvetica,sans-Serif" font-size="10.00">/Plugins/MeshFeatureTracking</text>
<text text-anchor="middle" x="2105" y="-98" font-family="Helvetica,sans-Serif" font-size="10.00">/src/MeshFeatureTrackingPlugin.hpp</text>
</a>
</g>
</g>
<!-- Node30&#45;&gt;Node31 -->
<g id="edge40" class="edge"><title>Node30&#45;&gt;Node31</title>
<path fill="none" stroke="midnightblue" d="M2105,-170.489C2105,-161.309 2105,-151.616 2105,-143.092"/>
<polygon fill="midnightblue" stroke="midnightblue" points="2101.5,-170.547 2105,-180.547 2108.5,-170.547 2101.5,-170.547"/>
</g>
<!-- Node32 -->
<g id="node32" class="node"><title>Node32</title>
<g id="a_node32"><a xlink:href="MeshFeatureTrackingUI_8cpp.html" target="_top" xlink:title="/home/travis/build\l/STORM&#45;IRIT/Radium&#45;Engine\l/Plugins/MeshFeatureTracking\l/src/UI/MeshFeatureTrackingUI.cpp">
<polygon fill="white" stroke="black" points="2211.5,-91 2211.5,-143 2384.5,-143 2384.5,-91 2211.5,-91"/>
<text text-anchor="start" x="2219.5" y="-131" font-family="Helvetica,sans-Serif" font-size="10.00">/home/travis/build</text>
<text text-anchor="start" x="2219.5" y="-120" font-family="Helvetica,sans-Serif" font-size="10.00">/STORM&#45;IRIT/Radium&#45;Engine</text>
<text text-anchor="start" x="2219.5" y="-109" font-family="Helvetica,sans-Serif" font-size="10.00">/Plugins/MeshFeatureTracking</text>
<text text-anchor="middle" x="2298" y="-98" font-family="Helvetica,sans-Serif" font-size="10.00">/src/UI/MeshFeatureTrackingUI.cpp</text>
</a>
</g>
</g>
<!-- Node30&#45;&gt;Node32 -->
<g id="edge42" class="edge"><title>Node30&#45;&gt;Node32</title>
<path fill="none" stroke="midnightblue" d="M2169.36,-176.654C2193.18,-165.792 2219.95,-153.586 2242.88,-143.133"/>
<polygon fill="midnightblue" stroke="midnightblue" points="2167.69,-173.567 2160.05,-180.901 2170.6,-179.936 2167.69,-173.567"/>
</g>
<!-- Node31&#45;&gt;Node12 -->
<g id="edge41" class="edge"><title>Node31&#45;&gt;Node12</title>
<path fill="none" stroke="midnightblue" d="M2006.99,-89.2964C1963.41,-77.4256 1912.51,-63.5573 1870.15,-52.0173"/>
<polygon fill="midnightblue" stroke="midnightblue" points="2006.17,-92.7018 2016.74,-91.9536 2008.01,-85.948 2006.17,-92.7018"/>
</g>
<!-- Node33&#45;&gt;Node13 -->
<g id="edge45" class="edge"><title>Node33&#45;&gt;Node13</title>
<path fill="none" stroke="midnightblue" d="M2497.69,-174.264C2487.51,-165.206 2477.2,-154.831 2469,-144 2447.54,-115.647 2431.14,-77.7662 2421.79,-53.1299"/>
<polygon fill="midnightblue" stroke="midnightblue" points="2495.55,-177.039 2505.4,-180.921 2500.12,-171.739 2495.55,-177.039"/>
</g>
<!-- Node34 -->
<g id="node34" class="node"><title>Node34</title>
<g id="a_node34"><a xlink:href="MeshPaintPlugin_8hpp.html" target="_top" xlink:title="/home/travis/build\l/STORM&#45;IRIT/Radium&#45;Engine\l/Plugins/MeshPaint/src/MeshPaint\lPlugin.hpp">
<polygon fill="white" stroke="black" points="2478.5,-91 2478.5,-143 2645.5,-143 2645.5,-91 2478.5,-91"/>
<text text-anchor="start" x="2486.5" y="-131" font-family="Helvetica,sans-Serif" font-size="10.00">/home/travis/build</text>
<text text-anchor="start" x="2486.5" y="-120" font-family="Helvetica,sans-Serif" font-size="10.00">/STORM&#45;IRIT/Radium&#45;Engine</text>
<text text-anchor="start" x="2486.5" y="-109" font-family="Helvetica,sans-Serif" font-size="10.00">/Plugins/MeshPaint/src/MeshPaint</text>
<text text-anchor="middle" x="2562" y="-98" font-family="Helvetica,sans-Serif" font-size="10.00">Plugin.hpp</text>
</a>
</g>
</g>
<!-- Node33&#45;&gt;Node34 -->
<g id="edge46" class="edge"><title>Node33&#45;&gt;Node34</title>
<path fill="none" stroke="midnightblue" d="M2548.2,-170.785C2550.63,-161.517 2553.19,-151.708 2555.44,-143.092"/>
<polygon fill="midnightblue" stroke="midnightblue" points="2544.8,-169.987 2545.65,-180.547 2551.57,-171.757 2544.8,-169.987"/>
</g>
<!-- Node35 -->
<g id="node35" class="node"><title>Node35</title>
<g id="a_node35"><a xlink:href="MeshPaintUI_8cpp.html" target="_top" xlink:title="/home/travis/build\l/STORM&#45;IRIT/Radium&#45;Engine\l/Plugins/MeshPaint/src/UI\l/MeshPaintUI.cpp">
<polygon fill="white" stroke="black" points="2664,-91 2664,-143 2812,-143 2812,-91 2664,-91"/>
<text text-anchor="start" x="2672" y="-131" font-family="Helvetica,sans-Serif" font-size="10.00">/home/travis/build</text>
<text text-anchor="start" x="2672" y="-120" font-family="Helvetica,sans-Serif" font-size="10.00">/STORM&#45;IRIT/Radium&#45;Engine</text>
<text text-anchor="start" x="2672" y="-109" font-family="Helvetica,sans-Serif" font-size="10.00">/Plugins/MeshPaint/src/UI</text>
<text text-anchor="middle" x="2738" y="-98" font-family="Helvetica,sans-Serif" font-size="10.00">/MeshPaintUI.cpp</text>
</a>
</g>
</g>
<!-- Node33&#45;&gt;Node35 -->
<g id="edge48" class="edge"><title>Node33&#45;&gt;Node35</title>
<path fill="none" stroke="midnightblue" d="M2605.04,-176.798C2629.68,-165.9 2657.42,-153.632 2681.17,-143.133"/>
<polygon fill="midnightblue" stroke="midnightblue" points="2603.49,-173.655 2595.76,-180.901 2606.32,-180.057 2603.49,-173.655"/>
</g>
<!-- Node34&#45;&gt;Node13 -->
<g id="edge47" class="edge"><title>Node34&#45;&gt;Node13</title>
<path fill="none" stroke="midnightblue" d="M2510.65,-85.6704C2492.64,-75.0376 2472.64,-63.2222 2455.45,-53.0687"/>
<polygon fill="midnightblue" stroke="midnightblue" points="2508.91,-88.711 2519.3,-90.7827 2512.47,-82.6837 2508.91,-88.711"/>
</g>
</g>
</svg>
