<?xml version="1.0" encoding="UTF-8" standalone="no"?>
<!DOCTYPE svg PUBLIC "-//W3C//DTD SVG 1.1//EN"
 "http://www.w3.org/Graphics/SVG/1.1/DTD/svg11.dtd">
<!-- Generated by graphviz version 2.36.0 (20140111.2315)
 -->
<!-- Title: /home/travis/build/STORM&#45;IRIT/Radium&#45;Engine/src/IO/RaIO.hpp Pages: 1 -->
<svg width="1157pt" height="230pt"
 viewBox="0.00 0.00 1157.00 230.00" xmlns="http://www.w3.org/2000/svg" xmlns:xlink="http://www.w3.org/1999/xlink">
<g id="graph0" class="graph" transform="scale(1 1) rotate(0) translate(4 226)">
<title>/home/travis/build/STORM&#45;IRIT/Radium&#45;Engine/src/IO/RaIO.hpp</title>
<polygon fill="white" stroke="none" points="-4,4 -4,-226 1153,-226 1153,4 -4,4"/>
<!-- Node1 -->
<g id="node1" class="node"><title>Node1</title>
<polygon fill="#bfbfbf" stroke="black" points="521,-180.5 521,-221.5 669,-221.5 669,-180.5 521,-180.5"/>
<text text-anchor="start" x="529" y="-209.5" font-family="Helvetica,sans-Serif" font-size="10.00">/home/travis/build</text>
<text text-anchor="start" x="529" y="-198.5" font-family="Helvetica,sans-Serif" font-size="10.00">/STORM&#45;IRIT/Radium&#45;Engine</text>
<text text-anchor="middle" x="595" y="-187.5" font-family="Helvetica,sans-Serif" font-size="10.00">/src/IO/RaIO.hpp</text>
</g>
<!-- Node2 -->
<g id="node2" class="node"><title>Node2</title>
<g id="a_node2"><a xlink:href="AssimpAnimationDataLoader_8hpp.html" target="_top" xlink:title="/home/travis/build\l/STORM&#45;IRIT/Radium&#45;Engine\l/src/IO/AssimpLoader/AssimpAnimation\lDataLoader.hpp">
<polygon fill="white" stroke="black" points="-0.5,-91 -0.5,-143 190.5,-143 190.5,-91 -0.5,-91"/>
<text text-anchor="start" x="7.5" y="-131" font-family="Helvetica,sans-Serif" font-size="10.00">/home/travis/build</text>
<text text-anchor="start" x="7.5" y="-120" font-family="Helvetica,sans-Serif" font-size="10.00">/STORM&#45;IRIT/Radium&#45;Engine</text>
<text text-anchor="start" x="7.5" y="-109" font-family="Helvetica,sans-Serif" font-size="10.00">/src/IO/AssimpLoader/AssimpAnimation</text>
<text text-anchor="middle" x="95" y="-98" font-family="Helvetica,sans-Serif" font-size="10.00">DataLoader.hpp</text>
</a>
</g>
</g>
<!-- Node1&#45;&gt;Node2 -->
<g id="edge1" class="edge"><title>Node1&#45;&gt;Node2</title>
<path fill="none" stroke="midnightblue" d="M510.824,-190.683C430.366,-181.169 305.853,-164.853 199,-144 196.26,-143.465 193.484,-142.904 190.686,-142.321"/>
<polygon fill="midnightblue" stroke="midnightblue" points="510.561,-194.176 520.9,-191.867 511.377,-187.224 510.561,-194.176"/>
</g>
<!-- Node5 -->
<g id="node5" class="node"><title>Node5</title>
<g id="a_node5"><a xlink:href="AssimpFileLoader_8hpp.html" target="_top" xlink:title="/home/travis/build\l/STORM&#45;IRIT/Radium&#45;Engine\l/src/IO/AssimpLoader/AssimpFile\lLoader.hpp">
<polygon fill="white" stroke="black" points="418,-91 418,-143 582,-143 582,-91 418,-91"/>
<text text-anchor="start" x="426" y="-131" font-family="Helvetica,sans-Serif" font-size="10.00">/home/travis/build</text>
<text text-anchor="start" x="426" y="-120" font-family="Helvetica,sans-Serif" font-size="10.00">/STORM&#45;IRIT/Radium&#45;Engine</text>
<text text-anchor="start" x="426" y="-109" font-family="Helvetica,sans-Serif" font-size="10.00">/src/IO/AssimpLoader/AssimpFile</text>
<text text-anchor="middle" x="500" y="-98" font-family="Helvetica,sans-Serif" font-size="10.00">Loader.hpp</text>
</a>
</g>
</g>
<!-- Node1&#45;&gt;Node5 -->
<g id="edge4" class="edge"><title>Node1&#45;&gt;Node5</title>
<path fill="none" stroke="midnightblue" d="M564.139,-173.362C552.939,-163.695 540.325,-152.807 529.266,-143.261"/>
<polygon fill="midnightblue" stroke="midnightblue" points="562.146,-176.265 572.003,-180.15 566.72,-170.966 562.146,-176.265"/>
</g>
<!-- Node6 -->
<g id="node6" class="node"><title>Node6</title>
<g id="a_node6"><a xlink:href="AssimpGeometryDataLoader_8hpp.html" target="_top" xlink:title="/home/travis/build\l/STORM&#45;IRIT/Radium&#45;Engine\l/src/IO/AssimpLoader/AssimpGeometry\lDataLoader.hpp">
<polygon fill="white" stroke="black" points="208.5,-91 208.5,-143 399.5,-143 399.5,-91 208.5,-91"/>
<text text-anchor="start" x="216.5" y="-131" font-family="Helvetica,sans-Serif" font-size="10.00">/home/travis/build</text>
<text text-anchor="start" x="216.5" y="-120" font-family="Helvetica,sans-Serif" font-size="10.00">/STORM&#45;IRIT/Radium&#45;Engine</text>
<text text-anchor="start" x="216.5" y="-109" font-family="Helvetica,sans-Serif" font-size="10.00">/src/IO/AssimpLoader/AssimpGeometry</text>
<text text-anchor="middle" x="304" y="-98" font-family="Helvetica,sans-Serif" font-size="10.00">DataLoader.hpp</text>
</a>
</g>
</g>
<!-- Node1&#45;&gt;Node6 -->
<g id="edge6" class="edge"><title>Node1&#45;&gt;Node6</title>
<path fill="none" stroke="midnightblue" d="M515.681,-177.649C477.705,-166.948 432.087,-154.093 392.939,-143.062"/>
<polygon fill="midnightblue" stroke="midnightblue" points="515.093,-181.12 525.668,-180.463 516.992,-174.382 515.093,-181.12"/>
</g>
<!-- Node8 -->
<g id="node8" class="node"><title>Node8</title>
<g id="a_node8"><a xlink:href="AssimpHandleDataLoader_8hpp.html" target="_top" xlink:title="/home/travis/build\l/STORM&#45;IRIT/Radium&#45;Engine\l/src/IO/AssimpLoader/AssimpHandle\lDataLoader.hpp">
<polygon fill="white" stroke="black" points="600.5,-91 600.5,-143 779.5,-143 779.5,-91 600.5,-91"/>
<text text-anchor="start" x="608.5" y="-131" font-family="Helvetica,sans-Serif" font-size="10.00">/home/travis/build</text>
<text text-anchor="start" x="608.5" y="-120" font-family="Helvetica,sans-Serif" font-size="10.00">/STORM&#45;IRIT/Radium&#45;Engine</text>
<text text-anchor="start" x="608.5" y="-109" font-family="Helvetica,sans-Serif" font-size="10.00">/src/IO/AssimpLoader/AssimpHandle</text>
<text text-anchor="middle" x="690" y="-98" font-family="Helvetica,sans-Serif" font-size="10.00">DataLoader.hpp</text>
</a>
</g>
</g>
<!-- Node1&#45;&gt;Node8 -->
<g id="edge9" class="edge"><title>Node1&#45;&gt;Node8</title>
<path fill="none" stroke="midnightblue" d="M625.861,-173.362C637.061,-163.695 649.675,-152.807 660.734,-143.261"/>
<polygon fill="midnightblue" stroke="midnightblue" points="623.28,-170.966 617.997,-180.15 627.854,-176.265 623.28,-170.966"/>
</g>
<!-- Node10 -->
<g id="node10" class="node"><title>Node10</title>
<g id="a_node10"><a xlink:href="AssimpLightDataLoader_8hpp.html" target="_top" xlink:title="/home/travis/build\l/STORM&#45;IRIT/Radium&#45;Engine\l/src/IO/AssimpLoader/AssimpLight\lDataLoader.hpp">
<polygon fill="white" stroke="black" points="797.5,-91 797.5,-143 966.5,-143 966.5,-91 797.5,-91"/>
<text text-anchor="start" x="805.5" y="-131" font-family="Helvetica,sans-Serif" font-size="10.00">/home/travis/build</text>
<text text-anchor="start" x="805.5" y="-120" font-family="Helvetica,sans-Serif" font-size="10.00">/STORM&#45;IRIT/Radium&#45;Engine</text>
<text text-anchor="start" x="805.5" y="-109" font-family="Helvetica,sans-Serif" font-size="10.00">/src/IO/AssimpLoader/AssimpLight</text>
<text text-anchor="middle" x="882" y="-98" font-family="Helvetica,sans-Serif" font-size="10.00">DataLoader.hpp</text>
</a>
</g>
</g>
<!-- Node1&#45;&gt;Node10 -->
<g id="edge12" class="edge"><title>Node1&#45;&gt;Node10</title>
<path fill="none" stroke="midnightblue" d="M673.484,-177.576C711.922,-166.594 758.253,-153.356 797.47,-142.152"/>
<polygon fill="midnightblue" stroke="midnightblue" points="672.033,-174.351 663.379,-180.463 673.956,-181.081 672.033,-174.351"/>
</g>
<!-- Node12 -->
<g id="node12" class="node"><title>Node12</title>
<g id="a_node12"><a xlink:href="TinyPlyFileLoader_8hpp.html" target="_top" xlink:title="/home/travis/build\l/STORM&#45;IRIT/Radium&#45;Engine\l/src/IO/TinyPlyLoader/TinyPlyFile\lLoader.hpp">
<polygon fill="white" stroke="black" points="985,-91 985,-143 1149,-143 1149,-91 985,-91"/>
<text text-anchor="start" x="993" y="-131" font-family="Helvetica,sans-Serif" font-size="10.00">/home/travis/build</text>
<text text-anchor="start" x="993" y="-120" font-family="Helvetica,sans-Serif" font-size="10.00">/STORM&#45;IRIT/Radium&#45;Engine</text>
<text text-anchor="start" x="993" y="-109" font-family="Helvetica,sans-Serif" font-size="10.00">/src/IO/TinyPlyLoader/TinyPlyFile</text>
<text text-anchor="middle" x="1067" y="-98" font-family="Helvetica,sans-Serif" font-size="10.00">Loader.hpp</text>
</a>
</g>
</g>
<!-- Node1&#45;&gt;Node12 -->
<g id="edge15" class="edge"><title>Node1&#45;&gt;Node12</title>
<path fill="none" stroke="midnightblue" d="M679.236,-190.752C756.612,-181.51 874.215,-165.573 975,-144 978.246,-143.305 981.546,-142.56 984.873,-141.777"/>
<polygon fill="midnightblue" stroke="midnightblue" points="678.582,-187.305 669.063,-191.956 679.405,-194.256 678.582,-187.305"/>
</g>
<!-- Node3 -->
<g id="node3" class="node"><title>Node3</title>
<g id="a_node3"><a xlink:href="AssimpAnimationDataLoader_8cpp.html" target="_top" xlink:title="/home/travis/build\l/STORM&#45;IRIT/Radium&#45;Engine\l/src/IO/AssimpLoader/AssimpAnimation\lDataLoader.cpp">
<polygon fill="white" stroke="black" points="-0.5,-1 -0.5,-53 190.5,-53 190.5,-1 -0.5,-1"/>
<text text-anchor="start" x="7.5" y="-41" font-family="Helvetica,sans-Serif" font-size="10.00">/home/travis/build</text>
<text text-anchor="start" x="7.5" y="-30" font-family="Helvetica,sans-Serif" font-size="10.00">/STORM&#45;IRIT/Radium&#45;Engine</text>
<text text-anchor="start" x="7.5" y="-19" font-family="Helvetica,sans-Serif" font-size="10.00">/src/IO/AssimpLoader/AssimpAnimation</text>
<text text-anchor="middle" x="95" y="-8" font-family="Helvetica,sans-Serif" font-size="10.00">DataLoader.cpp</text>
</a>
</g>
</g>
<!-- Node2&#45;&gt;Node3 -->
<g id="edge2" class="edge"><title>Node2&#45;&gt;Node3</title>
<path fill="none" stroke="midnightblue" d="M95,-80.4892C95,-71.3088 95,-61.616 95,-53.0921"/>
<polygon fill="midnightblue" stroke="midnightblue" points="91.5001,-80.5467 95,-90.5468 98.5001,-80.5468 91.5001,-80.5467"/>
</g>
<!-- Node4 -->
<g id="node4" class="node"><title>Node4</title>
<g id="a_node4"><a xlink:href="AssimpFileLoader_8cpp.html" target="_top" xlink:title="/home/travis/build\l/STORM&#45;IRIT/Radium&#45;Engine\l/src/IO/AssimpLoader/AssimpFile\lLoader.cpp">
<polygon fill="white" stroke="black" points="418,-1 418,-53 582,-53 582,-1 418,-1"/>
<text text-anchor="start" x="426" y="-41" font-family="Helvetica,sans-Serif" font-size="10.00">/home/travis/build</text>
<text text-anchor="start" x="426" y="-30" font-family="Helvetica,sans-Serif" font-size="10.00">/STORM&#45;IRIT/Radium&#45;Engine</text>
<text text-anchor="start" x="426" y="-19" font-family="Helvetica,sans-Serif" font-size="10.00">/src/IO/AssimpLoader/AssimpFile</text>
<text text-anchor="middle" x="500" y="-8" font-family="Helvetica,sans-Serif" font-size="10.00">Loader.cpp</text>
</a>
</g>
</g>
<!-- Node2&#45;&gt;Node4 -->
<g id="edge3" class="edge"><title>Node2&#45;&gt;Node4</title>
<path fill="none" stroke="midnightblue" d="M200.756,-89.6987C293.006,-70.8201 319.219,-74.133 408,-54 411.237,-53.2659 414.53,-52.4877 417.851,-51.677"/>
<polygon fill="midnightblue" stroke="midnightblue" points="199.786,-86.3255 190.708,-91.7885 201.211,-93.1789 199.786,-86.3255"/>
</g>
<!-- Node5&#45;&gt;Node4 -->
<g id="edge5" class="edge"><title>Node5&#45;&gt;Node4</title>
<path fill="none" stroke="midnightblue" d="M500,-80.4892C500,-71.3088 500,-61.616 500,-53.0921"/>
<polygon fill="midnightblue" stroke="midnightblue" points="496.5,-80.5467 500,-90.5468 503.5,-80.5468 496.5,-80.5467"/>
</g>
<!-- Node6&#45;&gt;Node4 -->
<g id="edge7" class="edge"><title>Node6&#45;&gt;Node4</title>
<path fill="none" stroke="midnightblue" d="M369.042,-86.7977C393.313,-75.9004 420.637,-63.6325 444.022,-53.1328"/>
<polygon fill="midnightblue" stroke="midnightblue" points="367.593,-83.6116 359.903,-90.9005 370.46,-89.9975 367.593,-83.6116"/>
</g>
<!-- Node7 -->
<g id="node7" class="node"><title>Node7</title>
<g id="a_node7"><a xlink:href="AssimpGeometryDataLoader_8cpp.html" target="_top" xlink:title="/home/travis/build\l/STORM&#45;IRIT/Radium&#45;Engine\l/src/IO/AssimpLoader/AssimpGeometry\lDataLoader.cpp">
<polygon fill="white" stroke="black" points="208.5,-1 208.5,-53 399.5,-53 399.5,-1 208.5,-1"/>
<text text-anchor="start" x="216.5" y="-41" font-family="Helvetica,sans-Serif" font-size="10.00">/home/travis/build</text>
<text text-anchor="start" x="216.5" y="-30" font-family="Helvetica,sans-Serif" font-size="10.00">/STORM&#45;IRIT/Radium&#45;Engine</text>
<text text-anchor="start" x="216.5" y="-19" font-family="Helvetica,sans-Serif" font-size="10.00">/src/IO/AssimpLoader/AssimpGeometry</text>
<text text-anchor="middle" x="304" y="-8" font-family="Helvetica,sans-Serif" font-size="10.00">DataLoader.cpp</text>
</a>
</g>
</g>
<!-- Node6&#45;&gt;Node7 -->
<g id="edge8" class="edge"><title>Node6&#45;&gt;Node7</title>
<path fill="none" stroke="midnightblue" d="M304,-80.4892C304,-71.3088 304,-61.616 304,-53.0921"/>
<polygon fill="midnightblue" stroke="midnightblue" points="300.5,-80.5467 304,-90.5468 307.5,-80.5468 300.5,-80.5467"/>
</g>
<!-- Node8&#45;&gt;Node4 -->
<g id="edge10" class="edge"><title>Node8&#45;&gt;Node4</title>
<path fill="none" stroke="midnightblue" d="M626.638,-86.6536C603.188,-75.7923 576.834,-63.5862 554.264,-53.1328"/>
<polygon fill="midnightblue" stroke="midnightblue" points="625.263,-89.8737 635.808,-90.9005 628.205,-83.5218 625.263,-89.8737"/>
</g>
<!-- Node9 -->
<g id="node9" class="node"><title>Node9</title>
<g id="a_node9"><a xlink:href="AssimpHandleDataLoader_8cpp.html" target="_top" xlink:title="/home/travis/build\l/STORM&#45;IRIT/Radium&#45;Engine\l/src/IO/AssimpLoader/AssimpHandle\lDataLoader.cpp">
<polygon fill="white" stroke="black" points="600.5,-1 600.5,-53 779.5,-53 779.5,-1 600.5,-1"/>
<text text-anchor="start" x="608.5" y="-41" font-family="Helvetica,sans-Serif" font-size="10.00">/home/travis/build</text>
<text text-anchor="start" x="608.5" y="-30" font-family="Helvetica,sans-Serif" font-size="10.00">/STORM&#45;IRIT/Radium&#45;Engine</text>
<text text-anchor="start" x="608.5" y="-19" font-family="Helvetica,sans-Serif" font-size="10.00">/src/IO/AssimpLoader/AssimpHandle</text>
<text text-anchor="middle" x="690" y="-8" font-family="Helvetica,sans-Serif" font-size="10.00">DataLoader.cpp</text>
</a>
</g>
</g>
<!-- Node8&#45;&gt;Node9 -->
<g id="edge11" class="edge"><title>Node8&#45;&gt;Node9</title>
<path fill="none" stroke="midnightblue" d="M690,-80.4892C690,-71.3088 690,-61.616 690,-53.0921"/>
<polygon fill="midnightblue" stroke="midnightblue" points="686.5,-80.5467 690,-90.5468 693.5,-80.5468 686.5,-80.5467"/>
</g>
<!-- Node10&#45;&gt;Node4 -->
<g id="edge13" class="edge"><title>Node10&#45;&gt;Node4</title>
<path fill="none" stroke="midnightblue" d="M787.419,-89.961C699.508,-70.377 674.624,-73.538 591,-54 588.12,-53.3271 585.195,-52.6203 582.246,-51.8877"/>
<polygon fill="midnightblue" stroke="midnightblue" points="786.76,-93.4003 797.286,-92.1946 788.305,-86.573 786.76,-93.4003"/>
</g>
<!-- Node11 -->
<g id="node11" class="node"><title>Node11</title>
<g id="a_node11"><a xlink:href="AssimpLightDataLoader_8cpp.html" target="_top" xlink:title="/home/travis/build\l/STORM&#45;IRIT/Radium&#45;Engine\l/src/IO/AssimpLoader/AssimpLight\lDataLoader.cpp">
<polygon fill="white" stroke="black" points="797.5,-1 797.5,-53 966.5,-53 966.5,-1 797.5,-1"/>
<text text-anchor="start" x="805.5" y="-41" font-family="Helvetica,sans-Serif" font-size="10.00">/home/travis/build</text>
<text text-anchor="start" x="805.5" y="-30" font-family="Helvetica,sans-Serif" font-size="10.00">/STORM&#45;IRIT/Radium&#45;Engine</text>
<text text-anchor="start" x="805.5" y="-19" font-family="Helvetica,sans-Serif" font-size="10.00">/src/IO/AssimpLoader/AssimpLight</text>
<text text-anchor="middle" x="882" y="-8" font-family="Helvetica,sans-Serif" font-size="10.00">DataLoader.cpp</text>
</a>
</g>
</g>
<!-- Node10&#45;&gt;Node11 -->
<g id="edge14" class="edge"><title>Node10&#45;&gt;Node11</title>
<path fill="none" stroke="midnightblue" d="M882,-80.4892C882,-71.3088 882,-61.616 882,-53.0921"/>
<polygon fill="midnightblue" stroke="midnightblue" points="878.5,-80.5467 882,-90.5468 885.5,-80.5468 878.5,-80.5467"/>
</g>
<!-- Node13 -->
<g id="node13" class="node"><title>Node13</title>
<g id="a_node13"><a xlink:href="TinyPlyFileLoader_8cpp.html" target="_top" xlink:title="/home/travis/build\l/STORM&#45;IRIT/Radium&#45;Engine\l/src/IO/TinyPlyLoader/TinyPlyFile\lLoader.cpp">
<polygon fill="white" stroke="black" points="985,-1 985,-53 1149,-53 1149,-1 985,-1"/>
<text text-anchor="start" x="993" y="-41" font-family="Helvetica,sans-Serif" font-size="10.00">/home/travis/build</text>
<text text-anchor="start" x="993" y="-30" font-family="Helvetica,sans-Serif" font-size="10.00">/STORM&#45;IRIT/Radium&#45;Engine</text>
<text text-anchor="start" x="993" y="-19" font-family="Helvetica,sans-Serif" font-size="10.00">/src/IO/TinyPlyLoader/TinyPlyFile</text>
<text text-anchor="middle" x="1067" y="-8" font-family="Helvetica,sans-Serif" font-size="10.00">Loader.cpp</text>
</a>
</g>
</g>
<!-- Node12&#45;&gt;Node13 -->
<g id="edge16" class="edge"><title>Node12&#45;&gt;Node13</title>
<path fill="none" stroke="midnightblue" d="M1067,-80.4892C1067,-71.3088 1067,-61.616 1067,-53.0921"/>
<polygon fill="midnightblue" stroke="midnightblue" points="1063.5,-80.5467 1067,-90.5468 1070.5,-80.5468 1063.5,-80.5467"/>
</g>
</g>
</svg>
