<?xml version="1.0" encoding="UTF-8" standalone="no"?>
<!DOCTYPE svg PUBLIC "-//W3C//DTD SVG 1.1//EN"
 "http://www.w3.org/Graphics/SVG/1.1/DTD/svg11.dtd">
<!-- Generated by graphviz version 2.36.0 (20140111.2315)
 -->
<!-- Title: /home/travis/build/STORM&#45;IRIT/Radium&#45;Engine/src/Tests/CoreTests/src/RayCastTest.hpp Pages: 1 -->
<svg width="1993pt" height="590pt"
 viewBox="0.00 0.00 1992.67 590.00" xmlns="http://www.w3.org/2000/svg" xmlns:xlink="http://www.w3.org/1999/xlink">
<g id="graph0" class="graph" transform="scale(1 1) rotate(0) translate(4 586)">
<title>/home/travis/build/STORM&#45;IRIT/Radium&#45;Engine/src/Tests/CoreTests/src/RayCastTest.hpp</title>
<polygon fill="white" stroke="none" points="-4,4 -4,-586 1988.67,-586 1988.67,4 -4,4"/>
<!-- Node1 -->
<g id="node1" class="node"><title>Node1</title>
<polygon fill="#bfbfbf" stroke="black" points="1553,-529 1553,-581 1701,-581 1701,-529 1553,-529"/>
<text text-anchor="start" x="1561" y="-569" font-family="Helvetica,sans-Serif" font-size="10.00">/home/travis/build</text>
<text text-anchor="start" x="1561" y="-558" font-family="Helvetica,sans-Serif" font-size="10.00">/STORM&#45;IRIT/Radium&#45;Engine</text>
<text text-anchor="start" x="1561" y="-547" font-family="Helvetica,sans-Serif" font-size="10.00">/src/Tests/CoreTests/src</text>
<text text-anchor="middle" x="1627" y="-536" font-family="Helvetica,sans-Serif" font-size="10.00">/RayCastTest.hpp</text>
</g>
<!-- Node2 -->
<g id="node2" class="node"><title>Node2</title>
<g id="a_node2"><a xlink:href="RayCast_8hpp.html" target="_top" xlink:title="Core/Math/RayCast.hpp">
<polygon fill="white" stroke="black" points="1436.5,-472.5 1436.5,-491.5 1559.5,-491.5 1559.5,-472.5 1436.5,-472.5"/>
<text text-anchor="middle" x="1498" y="-479.5" font-family="Helvetica,sans-Serif" font-size="10.00">Core/Math/RayCast.hpp</text>
</a>
</g>
</g>
<!-- Node1&#45;&gt;Node2 -->
<g id="edge1" class="edge"><title>Node1&#45;&gt;Node2</title>
<path fill="none" stroke="midnightblue" d="M1581.52,-528.968C1561.75,-518.088 1539.37,-505.767 1522.75,-496.622"/>
<polygon fill="midnightblue" stroke="midnightblue" points="1524.14,-493.394 1513.7,-491.639 1520.77,-499.527 1524.14,-493.394"/>
</g>
<!-- Node39 -->
<g id="node39" class="node"><title>Node39</title>
<g id="a_node39"><a xlink:href="Tests_8hpp.html" target="_top" xlink:title="Tests/Tests.hpp">
<polygon fill="white" stroke="black" points="1735,-304.5 1735,-323.5 1823,-323.5 1823,-304.5 1735,-304.5"/>
<text text-anchor="middle" x="1779" y="-311.5" font-family="Helvetica,sans-Serif" font-size="10.00">Tests/Tests.hpp</text>
</a>
</g>
</g>
<!-- Node1&#45;&gt;Node39 -->
<g id="edge61" class="edge"><title>Node1&#45;&gt;Node39</title>
<path fill="none" stroke="midnightblue" d="M1645.54,-528.633C1662.58,-505.013 1688.27,-468.64 1709,-436 1731.89,-399.971 1756.36,-356.336 1769.45,-332.552"/>
<polygon fill="midnightblue" stroke="midnightblue" points="1772.59,-334.106 1774.32,-323.654 1766.45,-330.745 1772.59,-334.106"/>
</g>
<!-- Node3 -->
<g id="node3" class="node"><title>Node3</title>
<g id="a_node3"><a xlink:href="Ray_8hpp.html" target="_top" xlink:title="Core/Math/Ray.hpp">
<polygon fill="white" stroke="black" points="1534,-304.5 1534,-323.5 1636,-323.5 1636,-304.5 1534,-304.5"/>
<text text-anchor="middle" x="1585" y="-311.5" font-family="Helvetica,sans-Serif" font-size="10.00">Core/Math/Ray.hpp</text>
</a>
</g>
</g>
<!-- Node2&#45;&gt;Node3 -->
<g id="edge2" class="edge"><title>Node2&#45;&gt;Node3</title>
<path fill="none" stroke="midnightblue" d="M1518.98,-472.441C1534.25,-465.087 1554.08,-452.97 1565,-436 1585.28,-404.476 1587.12,-359.09 1586.3,-333.814"/>
<polygon fill="midnightblue" stroke="midnightblue" points="1589.79,-333.547 1585.79,-323.737 1582.8,-333.901 1589.79,-333.547"/>
</g>
<!-- Node5 -->
<g id="node5" class="node"><title>Node5</title>
<g id="a_node5"><a xlink:href="RaCore_8hpp.html" target="_top" xlink:title="Core/RaCore.hpp">
<polygon fill="white" stroke="black" points="670.5,-112.5 670.5,-131.5 763.5,-131.5 763.5,-112.5 670.5,-112.5"/>
<text text-anchor="middle" x="717" y="-119.5" font-family="Helvetica,sans-Serif" font-size="10.00">Core/RaCore.hpp</text>
</a>
</g>
</g>
<!-- Node2&#45;&gt;Node5 -->
<g id="edge57" class="edge"><title>Node2&#45;&gt;Node5</title>
<path fill="none" stroke="midnightblue" d="M1559.52,-472.799C1617.32,-461.23 1695,-433.969 1695,-371 1695,-371 1695,-371 1695,-251 1695,-210.612 1691.34,-190.792 1658,-168 1621.42,-142.993 972.23,-128.073 774.006,-124.086"/>
<polygon fill="midnightblue" stroke="midnightblue" points="773.873,-120.582 763.805,-123.882 773.734,-127.581 773.873,-120.582"/>
</g>
<!-- Node22 -->
<g id="node22" class="node"><title>Node22</title>
<g id="a_node22"><a xlink:href="TriangleMesh_8hpp.html" target="_top" xlink:title="Core/Mesh/TriangleMesh.hpp">
<polygon fill="white" stroke="black" points="797.5,-416.5 797.5,-435.5 942.5,-435.5 942.5,-416.5 797.5,-416.5"/>
<text text-anchor="middle" x="870" y="-423.5" font-family="Helvetica,sans-Serif" font-size="10.00">Core/Mesh/TriangleMesh.hpp</text>
</a>
</g>
</g>
<!-- Node2&#45;&gt;Node22 -->
<g id="edge25" class="edge"><title>Node2&#45;&gt;Node22</title>
<path fill="none" stroke="midnightblue" d="M1436.35,-475.699C1322.77,-465.932 1080.4,-445.092 952.683,-434.11"/>
<polygon fill="midnightblue" stroke="midnightblue" points="952.827,-430.609 942.564,-433.24 952.227,-437.584 952.827,-430.609"/>
</g>
<!-- Node26 -->
<g id="node26" class="node"><title>Node26</title>
<polygon fill="white" stroke="#bfbfbf" points="482,-174.5 482,-193.5 526,-193.5 526,-174.5 482,-174.5"/>
<text text-anchor="middle" x="504" y="-181.5" font-family="Helvetica,sans-Serif" font-size="10.00">vector</text>
</g>
<!-- Node2&#45;&gt;Node26 -->
<g id="edge58" class="edge"><title>Node2&#45;&gt;Node26</title>
<path fill="none" stroke="midnightblue" d="M1436.24,-481.177C1208.38,-481.028 428,-473.067 428,-371 428,-371 428,-371 428,-313 428,-266.994 464.748,-223.079 487.138,-200.591"/>
<polygon fill="midnightblue" stroke="midnightblue" points="489.64,-203.04 494.375,-193.562 484.763,-198.019 489.64,-203.04"/>
</g>
<!-- Node38 -->
<g id="node38" class="node"><title>Node38</title>
<g id="a_node38"><a xlink:href="RayCast_8inl.html" target="_top" xlink:title="Core/Math/RayCast.inl">
<polygon fill="white" stroke="black" points="1439.5,-416.5 1439.5,-435.5 1556.5,-435.5 1556.5,-416.5 1439.5,-416.5"/>
<text text-anchor="middle" x="1498" y="-423.5" font-family="Helvetica,sans-Serif" font-size="10.00">Core/Math/RayCast.inl</text>
</a>
</g>
</g>
<!-- Node2&#45;&gt;Node38 -->
<g id="edge59" class="edge"><title>Node2&#45;&gt;Node38</title>
<path fill="none" stroke="midnightblue" d="M1492.83,-472.083C1491.32,-464.927 1490.89,-454.635 1491.54,-445.691"/>
<polygon fill="midnightblue" stroke="midnightblue" points="1495.02,-446.126 1492.87,-435.751 1488.08,-445.2 1495.02,-446.126"/>
</g>
<!-- Node4 -->
<g id="node4" class="node"><title>Node4</title>
<g id="a_node4"><a xlink:href="LinearAlgebra_8hpp.html" target="_top" xlink:title="Core/Math/LinearAlgebra.hpp">
<polygon fill="white" stroke="black" points="1190.5,-242.5 1190.5,-261.5 1333.5,-261.5 1333.5,-242.5 1190.5,-242.5"/>
<text text-anchor="middle" x="1262" y="-249.5" font-family="Helvetica,sans-Serif" font-size="10.00">Core/Math/LinearAlgebra.hpp</text>
</a>
</g>
</g>
<!-- Node3&#45;&gt;Node4 -->
<g id="edge3" class="edge"><title>Node3&#45;&gt;Node4</title>
<path fill="none" stroke="midnightblue" d="M1539.07,-304.467C1480.83,-293.649 1380.48,-275.009 1317.87,-263.378"/>
<polygon fill="midnightblue" stroke="midnightblue" points="1318.25,-259.889 1307.78,-261.503 1316.97,-266.771 1318.25,-259.889"/>
</g>
<!-- Node3&#45;&gt;Node5 -->
<g id="edge23" class="edge"><title>Node3&#45;&gt;Node5</title>
<path fill="none" stroke="midnightblue" d="M1593.51,-304.225C1616.49,-279.508 1675.55,-208.477 1637,-168 1607.16,-136.66 969.786,-126.144 773.815,-123.645"/>
<polygon fill="midnightblue" stroke="midnightblue" points="773.769,-120.144 763.725,-123.518 773.681,-127.144 773.769,-120.144"/>
</g>
<!-- Node13 -->
<g id="node13" class="node"><title>Node13</title>
<polygon fill="white" stroke="#bfbfbf" points="1541.5,-174.5 1541.5,-193.5 1628.5,-193.5 1628.5,-174.5 1541.5,-174.5"/>
<text text-anchor="middle" x="1585" y="-181.5" font-family="Helvetica,sans-Serif" font-size="10.00">Eigen/Geometry</text>
</g>
<!-- Node3&#45;&gt;Node13 -->
<g id="edge24" class="edge"><title>Node3&#45;&gt;Node13</title>
<path fill="none" stroke="midnightblue" d="M1585,-304.202C1585,-283.551 1585,-231.606 1585,-203.594"/>
<polygon fill="midnightblue" stroke="midnightblue" points="1588.5,-203.522 1585,-193.522 1581.5,-203.522 1588.5,-203.522"/>
</g>
<!-- Node4&#45;&gt;Node5 -->
<g id="edge4" class="edge"><title>Node4&#45;&gt;Node5</title>
<path fill="none" stroke="midnightblue" d="M1190.3,-248.677C1129.84,-244.35 1042.35,-232.418 973,-200 952.998,-190.65 954.865,-177.638 935,-168 883.766,-143.142 819.285,-131.991 773.782,-127.004"/>
<polygon fill="midnightblue" stroke="midnightblue" points="774.103,-123.519 763.797,-125.975 773.386,-130.482 774.103,-123.519"/>
</g>
<!-- Node12 -->
<g id="node12" class="node"><title>Node12</title>
<polygon fill="white" stroke="#bfbfbf" points="1288.5,-174.5 1288.5,-193.5 1353.5,-193.5 1353.5,-174.5 1288.5,-174.5"/>
<text text-anchor="middle" x="1321" y="-181.5" font-family="Helvetica,sans-Serif" font-size="10.00">Eigen/Core</text>
</g>
<!-- Node4&#45;&gt;Node12 -->
<g id="edge11" class="edge"><title>Node4&#45;&gt;Node12</title>
<path fill="none" stroke="midnightblue" d="M1269.71,-242.372C1278.94,-232.053 1294.58,-214.551 1306.17,-201.585"/>
<polygon fill="midnightblue" stroke="midnightblue" points="1309.04,-203.629 1313.1,-193.841 1303.82,-198.964 1309.04,-203.629"/>
</g>
<!-- Node4&#45;&gt;Node13 -->
<g id="edge12" class="edge"><title>Node4&#45;&gt;Node13</title>
<path fill="none" stroke="midnightblue" d="M1314.81,-242.458C1369.45,-233.285 1457.13,-217.63 1532,-200 1536.75,-198.881 1541.72,-197.611 1546.62,-196.296"/>
<polygon fill="midnightblue" stroke="midnightblue" points="1547.81,-199.6 1556.52,-193.565 1545.94,-192.852 1547.81,-199.6"/>
</g>
<!-- Node14 -->
<g id="node14" class="node"><title>Node14</title>
<polygon fill="white" stroke="#bfbfbf" points="1371.5,-174.5 1371.5,-193.5 1446.5,-193.5 1446.5,-174.5 1371.5,-174.5"/>
<text text-anchor="middle" x="1409" y="-181.5" font-family="Helvetica,sans-Serif" font-size="10.00">Eigen/Sparse</text>
</g>
<!-- Node4&#45;&gt;Node14 -->
<g id="edge13" class="edge"><title>Node4&#45;&gt;Node14</title>
<path fill="none" stroke="midnightblue" d="M1281.22,-242.372C1306.53,-231.007 1351.24,-210.931 1380.5,-197.796"/>
<polygon fill="midnightblue" stroke="midnightblue" points="1382.09,-200.919 1389.78,-193.63 1379.22,-194.533 1382.09,-200.919"/>
</g>
<!-- Node15 -->
<g id="node15" class="node"><title>Node15</title>
<polygon fill="white" stroke="#bfbfbf" points="1464.5,-174.5 1464.5,-193.5 1523.5,-193.5 1523.5,-174.5 1464.5,-174.5"/>
<text text-anchor="middle" x="1494" y="-181.5" font-family="Helvetica,sans-Serif" font-size="10.00">functional</text>
</g>
<!-- Node4&#45;&gt;Node15 -->
<g id="edge14" class="edge"><title>Node4&#45;&gt;Node15</title>
<path fill="none" stroke="midnightblue" d="M1298.99,-242.494C1338.09,-233.207 1401.41,-217.328 1455,-200 1457.78,-199.1 1460.66,-198.112 1463.52,-197.085"/>
<polygon fill="midnightblue" stroke="midnightblue" points="1464.95,-200.289 1473.1,-193.519 1462.51,-193.728 1464.95,-200.289"/>
</g>
<!-- Node16 -->
<g id="node16" class="node"><title>Node16</title>
<polygon fill="white" stroke="#bfbfbf" points="982.5,-169 982.5,-199 1115.5,-199 1115.5,-169 982.5,-169"/>
<text text-anchor="start" x="990.5" y="-187" font-family="Helvetica,sans-Serif" font-size="10.00">unsupported/Eigen/Aligned</text>
<text text-anchor="middle" x="1049" y="-176" font-family="Helvetica,sans-Serif" font-size="10.00">Vector3</text>
</g>
<!-- Node4&#45;&gt;Node16 -->
<g id="edge15" class="edge"><title>Node4&#45;&gt;Node16</title>
<path fill="none" stroke="midnightblue" d="M1234.15,-242.372C1201.27,-232.182 1145.78,-214.988 1104.1,-202.074"/>
<polygon fill="midnightblue" stroke="midnightblue" points="1104.95,-198.673 1094.36,-199.056 1102.88,-205.359 1104.95,-198.673"/>
</g>
<!-- Node17 -->
<g id="node17" class="node"><title>Node17</title>
<g id="a_node17"><a xlink:href="Math_8hpp.html" target="_top" xlink:title="Core/Math/Math.hpp">
<polygon fill="white" stroke="black" points="1865,-174.5 1865,-193.5 1971,-193.5 1971,-174.5 1865,-174.5"/>
<text text-anchor="middle" x="1918" y="-181.5" font-family="Helvetica,sans-Serif" font-size="10.00">Core/Math/Math.hpp</text>
</a>
</g>
</g>
<!-- Node4&#45;&gt;Node17 -->
<g id="edge16" class="edge"><title>Node4&#45;&gt;Node17</title>
<path fill="none" stroke="midnightblue" d="M1333.62,-248.263C1445.51,-243.218 1668.31,-230.083 1855,-200 1861.86,-198.894 1869.08,-197.448 1876.09,-195.89"/>
<polygon fill="midnightblue" stroke="midnightblue" points="1877.19,-199.228 1886.13,-193.555 1875.6,-192.41 1877.19,-199.228"/>
</g>
<!-- Node21 -->
<g id="node21" class="node"><title>Node21</title>
<g id="a_node21"><a xlink:href="LinearAlgebra_8inl.html" target="_top" xlink:title="Core/Math/LinearAlgebra.inl">
<polygon fill="white" stroke="black" points="1133.5,-174.5 1133.5,-193.5 1270.5,-193.5 1270.5,-174.5 1133.5,-174.5"/>
<text text-anchor="middle" x="1202" y="-181.5" font-family="Helvetica,sans-Serif" font-size="10.00">Core/Math/LinearAlgebra.inl</text>
</a>
</g>
</g>
<!-- Node4&#45;&gt;Node21 -->
<g id="edge22" class="edge"><title>Node4&#45;&gt;Node21</title>
<path fill="none" stroke="midnightblue" d="M1254.16,-242.372C1244.78,-232.053 1228.86,-214.551 1217.08,-201.585"/>
<polygon fill="midnightblue" stroke="midnightblue" points="1219.35,-198.886 1210.04,-193.841 1214.17,-203.595 1219.35,-198.886"/>
</g>
<!-- Node6 -->
<g id="node6" class="node"><title>Node6</title>
<g id="a_node6"><a xlink:href="CoreMacros_8hpp.html" target="_top" xlink:title="Core/CoreMacros.hpp">
<polygon fill="white" stroke="black" points="660.5,-56.5 660.5,-75.5 773.5,-75.5 773.5,-56.5 660.5,-56.5"/>
<text text-anchor="middle" x="717" y="-63.5" font-family="Helvetica,sans-Serif" font-size="10.00">Core/CoreMacros.hpp</text>
</a>
</g>
</g>
<!-- Node5&#45;&gt;Node6 -->
<g id="edge5" class="edge"><title>Node5&#45;&gt;Node6</title>
<path fill="none" stroke="midnightblue" d="M717,-112.083C717,-105.006 717,-94.8611 717,-85.9865"/>
<polygon fill="midnightblue" stroke="midnightblue" points="720.5,-85.751 717,-75.7511 713.5,-85.7511 720.5,-85.751"/>
</g>
<!-- Node7 -->
<g id="node7" class="node"><title>Node7</title>
<polygon fill="white" stroke="#bfbfbf" points="725.5,-0.5 725.5,-19.5 774.5,-19.5 774.5,-0.5 725.5,-0.5"/>
<text text-anchor="middle" x="750" y="-7.5" font-family="Helvetica,sans-Serif" font-size="10.00">cassert</text>
</g>
<!-- Node6&#45;&gt;Node7 -->
<g id="edge6" class="edge"><title>Node6&#45;&gt;Node7</title>
<path fill="none" stroke="midnightblue" d="M722.449,-56.083C727.014,-48.6127 733.668,-37.7244 739.293,-28.5199"/>
<polygon fill="midnightblue" stroke="midnightblue" points="742.424,-30.109 744.652,-19.7511 736.451,-26.4588 742.424,-30.109"/>
</g>
<!-- Node8 -->
<g id="node8" class="node"><title>Node8</title>
<polygon fill="white" stroke="#bfbfbf" points="792.5,-0.5 792.5,-19.5 835.5,-19.5 835.5,-0.5 792.5,-0.5"/>
<text text-anchor="middle" x="814" y="-7.5" font-family="Helvetica,sans-Serif" font-size="10.00">cstdio</text>
</g>
<!-- Node6&#45;&gt;Node8 -->
<g id="edge7" class="edge"><title>Node6&#45;&gt;Node8</title>
<path fill="none" stroke="midnightblue" d="M732.585,-56.324C747.999,-47.7428 771.812,-34.486 789.71,-24.5224"/>
<polygon fill="midnightblue" stroke="midnightblue" points="791.419,-27.5767 798.454,-19.6545 788.014,-21.4606 791.419,-27.5767"/>
</g>
<!-- Node9 -->
<g id="node9" class="node"><title>Node9</title>
<polygon fill="white" stroke="#bfbfbf" points="591,-0.5 591,-19.5 645,-19.5 645,-0.5 591,-0.5"/>
<text text-anchor="middle" x="618" y="-7.5" font-family="Helvetica,sans-Serif" font-size="10.00">iostream</text>
</g>
<!-- Node6&#45;&gt;Node9 -->
<g id="edge8" class="edge"><title>Node6&#45;&gt;Node9</title>
<path fill="none" stroke="midnightblue" d="M701.094,-56.324C685.362,-47.7428 661.058,-34.486 642.791,-24.5224"/>
<polygon fill="midnightblue" stroke="midnightblue" points="644.322,-21.3704 633.867,-19.6545 640.97,-27.5157 644.322,-21.3704"/>
</g>
<!-- Node10 -->
<g id="node10" class="node"><title>Node10</title>
<polygon fill="white" stroke="#bfbfbf" points="248,-0.5 248,-19.5 300,-19.5 300,-0.5 248,-0.5"/>
<text text-anchor="middle" x="274" y="-7.5" font-family="Helvetica,sans-Serif" font-size="10.00">sstream</text>
</g>
<!-- Node6&#45;&gt;Node10 -->
<g id="edge9" class="edge"><title>Node6&#45;&gt;Node10</title>
<path fill="none" stroke="midnightblue" d="M660.444,-58.106C568.102,-46.8499 387.526,-24.8383 310.367,-15.433"/>
<polygon fill="midnightblue" stroke="midnightblue" points="310.536,-11.9277 300.186,-14.1919 309.689,-18.8763 310.536,-11.9277"/>
</g>
<!-- Node11 -->
<g id="node11" class="node"><title>Node11</title>
<polygon fill="white" stroke="#bfbfbf" points="663,-0.5 663,-19.5 707,-19.5 707,-0.5 663,-0.5"/>
<text text-anchor="middle" x="685" y="-7.5" font-family="Helvetica,sans-Serif" font-size="10.00">thread</text>
</g>
<!-- Node6&#45;&gt;Node11 -->
<g id="edge10" class="edge"><title>Node6&#45;&gt;Node11</title>
<path fill="none" stroke="midnightblue" d="M711.716,-56.083C707.289,-48.6127 700.837,-37.7244 695.382,-28.5199"/>
<polygon fill="midnightblue" stroke="midnightblue" points="698.295,-26.5697 690.186,-19.7511 692.273,-30.1383 698.295,-26.5697"/>
</g>
<!-- Node17&#45;&gt;Node5 -->
<g id="edge17" class="edge"><title>Node17&#45;&gt;Node5</title>
<path fill="none" stroke="midnightblue" d="M1887.46,-174.469C1877.23,-171.947 1865.69,-169.47 1855,-168 1642.72,-138.813 974.13,-126.791 774.088,-123.791"/>
<polygon fill="midnightblue" stroke="midnightblue" points="773.857,-120.287 763.806,-123.638 773.753,-127.286 773.857,-120.287"/>
</g>
<!-- Node18 -->
<g id="node18" class="node"><title>Node18</title>
<polygon fill="white" stroke="#bfbfbf" points="1733,-112.5 1733,-131.5 1789,-131.5 1789,-112.5 1733,-112.5"/>
<text text-anchor="middle" x="1761" y="-119.5" font-family="Helvetica,sans-Serif" font-size="10.00">algorithm</text>
</g>
<!-- Node17&#45;&gt;Node18 -->
<g id="edge18" class="edge"><title>Node17&#45;&gt;Node18</title>
<path fill="none" stroke="midnightblue" d="M1895.51,-174.403C1868.69,-164.156 1823.68,-146.956 1793.19,-135.302"/>
<polygon fill="midnightblue" stroke="midnightblue" points="1794.04,-131.881 1783.45,-131.581 1791.54,-138.42 1794.04,-131.881"/>
</g>
<!-- Node19 -->
<g id="node19" class="node"><title>Node19</title>
<polygon fill="white" stroke="#bfbfbf" points="1807,-112.5 1807,-131.5 1851,-131.5 1851,-112.5 1807,-112.5"/>
<text text-anchor="middle" x="1829" y="-119.5" font-family="Helvetica,sans-Serif" font-size="10.00">cmath</text>
</g>
<!-- Node17&#45;&gt;Node19 -->
<g id="edge19" class="edge"><title>Node17&#45;&gt;Node19</title>
<path fill="none" stroke="midnightblue" d="M1905.25,-174.403C1890.97,-164.78 1867.6,-149.024 1850.49,-137.489"/>
<polygon fill="midnightblue" stroke="midnightblue" points="1851.98,-134.268 1841.73,-131.581 1848.06,-140.073 1851.98,-134.268"/>
</g>
<!-- Node20 -->
<g id="node20" class="node"><title>Node20</title>
<g id="a_node20"><a xlink:href="Math_8inl.html" target="_top" xlink:title="Core/Math/Math.inl">
<polygon fill="white" stroke="black" points="1869,-112.5 1869,-131.5 1969,-131.5 1969,-112.5 1869,-112.5"/>
<text text-anchor="middle" x="1919" y="-119.5" font-family="Helvetica,sans-Serif" font-size="10.00">Core/Math/Math.inl</text>
</a>
</g>
</g>
<!-- Node17&#45;&gt;Node20 -->
<g id="edge20" class="edge"><title>Node17&#45;&gt;Node20</title>
<path fill="none" stroke="midnightblue" d="M1913.24,-174.403C1911.53,-165.849 1911.3,-152.45 1912.41,-141.476"/>
<polygon fill="midnightblue" stroke="midnightblue" points="1915.87,-142.003 1913.96,-131.581 1908.95,-140.916 1915.87,-142.003"/>
</g>
<!-- Node20&#45;&gt;Node17 -->
<g id="edge21" class="edge"><title>Node20&#45;&gt;Node17</title>
<path fill="none" stroke="midnightblue" d="M1923.75,-131.581C1925.46,-140.129 1925.7,-153.527 1924.6,-164.503"/>
<polygon fill="midnightblue" stroke="midnightblue" points="1921.14,-163.982 1923.04,-174.403 1928.05,-165.066 1921.14,-163.982"/>
</g>
<!-- Node22&#45;&gt;Node4 -->
<g id="edge34" class="edge"><title>Node22&#45;&gt;Node4</title>
<path fill="none" stroke="midnightblue" d="M874.694,-416.489C882.766,-402.63 900.59,-375.208 923,-360 1005.06,-304.311 1117.67,-276.375 1190.15,-263.293"/>
<polygon fill="midnightblue" stroke="midnightblue" points="1190.86,-266.722 1200.1,-261.544 1189.65,-259.828 1190.86,-266.722"/>
</g>
<!-- Node22&#45;&gt;Node5 -->
<g id="edge41" class="edge"><title>Node22&#45;&gt;Node5</title>
<path fill="none" stroke="midnightblue" d="M824.809,-416.5C773.848,-403.993 698,-375.258 698,-315 698,-315 698,-315 698,-251 698,-211.646 706.896,-166.217 712.514,-141.453"/>
<polygon fill="midnightblue" stroke="midnightblue" points="715.943,-142.161 714.82,-131.626 709.128,-140.561 715.943,-142.161"/>
</g>
<!-- Node23 -->
<g id="node23" class="node"><title>Node23</title>
<g id="a_node23"><a xlink:href="VectorArray_8hpp.html" target="_top" xlink:title="Core/Containers/VectorArray.hpp">
<polygon fill="white" stroke="black" points="502.5,-304.5 502.5,-323.5 663.5,-323.5 663.5,-304.5 502.5,-304.5"/>
<text text-anchor="middle" x="583" y="-311.5" font-family="Helvetica,sans-Serif" font-size="10.00">Core/Containers/VectorArray.hpp</text>
</a>
</g>
</g>
<!-- Node22&#45;&gt;Node23 -->
<g id="edge26" class="edge"><title>Node22&#45;&gt;Node23</title>
<path fill="none" stroke="midnightblue" d="M813.915,-416.484C776.168,-409.545 725.841,-397.918 684,-380 653.248,-366.831 621.374,-344.64 601.861,-329.907"/>
<polygon fill="midnightblue" stroke="midnightblue" points="603.876,-327.041 593.814,-323.722 599.61,-332.591 603.876,-327.041"/>
</g>
<!-- Node27 -->
<g id="node27" class="node"><title>Node27</title>
<g id="a_node27"><a xlink:href="MeshTypes_8hpp.html" target="_top" xlink:title="Core/Mesh/MeshTypes.hpp">
<polygon fill="white" stroke="black" points="738.5,-304.5 738.5,-323.5 875.5,-323.5 875.5,-304.5 738.5,-304.5"/>
<text text-anchor="middle" x="807" y="-311.5" font-family="Helvetica,sans-Serif" font-size="10.00">Core/Mesh/MeshTypes.hpp</text>
</a>
</g>
</g>
<!-- Node22&#45;&gt;Node27 -->
<g id="edge35" class="edge"><title>Node22&#45;&gt;Node27</title>
<path fill="none" stroke="midnightblue" d="M865.056,-416.368C854.706,-398.296 830.583,-356.176 816.912,-332.307"/>
<polygon fill="midnightblue" stroke="midnightblue" points="819.928,-330.53 811.921,-323.591 813.853,-334.008 819.928,-330.53"/>
</g>
<!-- Node31 -->
<g id="node31" class="node"><title>Node31</title>
<g id="a_node31"><a xlink:href="Attribs_8hpp.html" target="_top" xlink:title="Core/Utils/Attribs.hpp">
<polygon fill="white" stroke="black" points="472.5,-360.5 472.5,-379.5 583.5,-379.5 583.5,-360.5 472.5,-360.5"/>
<text text-anchor="middle" x="528" y="-367.5" font-family="Helvetica,sans-Serif" font-size="10.00">Core/Utils/Attribs.hpp</text>
</a>
</g>
</g>
<!-- Node22&#45;&gt;Node31 -->
<g id="edge42" class="edge"><title>Node22&#45;&gt;Node31</title>
<path fill="none" stroke="midnightblue" d="M815.809,-416.444C755.022,-406.846 656.513,-391.292 591.99,-381.104"/>
<polygon fill="midnightblue" stroke="midnightblue" points="592.361,-377.619 581.937,-379.516 591.269,-384.533 592.361,-377.619"/>
</g>
<!-- Node37 -->
<g id="node37" class="node"><title>Node37</title>
<g id="a_node37"><a xlink:href="TriangleMesh_8inl.html" target="_top" xlink:title="Core/Mesh/TriangleMesh.inl">
<polygon fill="white" stroke="black" points="932.5,-360.5 932.5,-379.5 1071.5,-379.5 1071.5,-360.5 932.5,-360.5"/>
<text text-anchor="middle" x="1002" y="-367.5" font-family="Helvetica,sans-Serif" font-size="10.00">Core/Mesh/TriangleMesh.inl</text>
</a>
</g>
</g>
<!-- Node22&#45;&gt;Node37 -->
<g id="edge55" class="edge"><title>Node22&#45;&gt;Node37</title>
<path fill="none" stroke="midnightblue" d="M885.827,-416.444C905.777,-407.478 940.179,-393.314 966.47,-383.183"/>
<polygon fill="midnightblue" stroke="midnightblue" points="968.001,-386.345 976.102,-379.516 965.511,-379.803 968.001,-386.345"/>
</g>
<!-- Node23&#45;&gt;Node4 -->
<g id="edge31" class="edge"><title>Node23&#45;&gt;Node4</title>
<path fill="none" stroke="midnightblue" d="M663.557,-305.882C793.828,-294.37 1049.33,-271.792 1180.32,-260.218"/>
<polygon fill="midnightblue" stroke="midnightblue" points="1180.65,-263.702 1190.3,-259.336 1180.03,-256.73 1180.65,-263.702"/>
</g>
<!-- Node23&#45;&gt;Node5 -->
<g id="edge32" class="edge"><title>Node23&#45;&gt;Node5</title>
<path fill="none" stroke="midnightblue" d="M561.074,-304.403C544.242,-296.893 521.357,-284.589 506,-268 474.206,-233.656 443.057,-203.97 473,-168 496.38,-139.914 595.953,-129.29 660.45,-125.319"/>
<polygon fill="midnightblue" stroke="midnightblue" points="660.703,-128.81 670.483,-124.737 660.297,-121.822 660.703,-128.81"/>
</g>
<!-- Node24 -->
<g id="node24" class="node"><title>Node24</title>
<g id="a_node24"><a xlink:href="AlignedStdVector_8hpp.html" target="_top" xlink:title="Core/Containers/AlignedStd\lVector.hpp">
<polygon fill="white" stroke="black" points="532,-237 532,-267 670,-267 670,-237 532,-237"/>
<text text-anchor="start" x="540" y="-255" font-family="Helvetica,sans-Serif" font-size="10.00">Core/Containers/AlignedStd</text>
<text text-anchor="middle" x="601" y="-244" font-family="Helvetica,sans-Serif" font-size="10.00">Vector.hpp</text>
</a>
</g>
</g>
<!-- Node23&#45;&gt;Node24 -->
<g id="edge27" class="edge"><title>Node23&#45;&gt;Node24</title>
<path fill="none" stroke="midnightblue" d="M585.579,-304.403C587.743,-297.189 590.942,-286.528 593.865,-276.782"/>
<polygon fill="midnightblue" stroke="midnightblue" points="597.237,-277.725 596.758,-267.141 590.532,-275.713 597.237,-277.725"/>
</g>
<!-- Node23&#45;&gt;Node26 -->
<g id="edge33" class="edge"><title>Node23&#45;&gt;Node26</title>
<path fill="none" stroke="midnightblue" d="M565.58,-304.359C551.912,-296.675 533.499,-284.16 523,-268 510.315,-248.476 506.047,-221.559 504.64,-203.736"/>
<polygon fill="midnightblue" stroke="midnightblue" points="508.121,-203.296 504.069,-193.506 501.132,-203.686 508.121,-203.296"/>
</g>
<!-- Node24&#45;&gt;Node5 -->
<g id="edge28" class="edge"><title>Node24&#45;&gt;Node5</title>
<path fill="none" stroke="midnightblue" d="M613.857,-236.813C635.586,-212.836 679.437,-164.449 702.331,-139.186"/>
<polygon fill="midnightblue" stroke="midnightblue" points="705.108,-141.334 709.23,-131.574 699.921,-136.633 705.108,-141.334"/>
</g>
<!-- Node25 -->
<g id="node25" class="node"><title>Node25</title>
<polygon fill="white" stroke="#bfbfbf" points="544,-174.5 544,-193.5 632,-193.5 632,-174.5 544,-174.5"/>
<text text-anchor="middle" x="588" y="-181.5" font-family="Helvetica,sans-Serif" font-size="10.00">Eigen/StdVector</text>
</g>
<!-- Node24&#45;&gt;Node25 -->
<g id="edge29" class="edge"><title>Node24&#45;&gt;Node25</title>
<path fill="none" stroke="midnightblue" d="M598.179,-236.679C596.273,-226.999 593.736,-214.123 591.672,-203.645"/>
<polygon fill="midnightblue" stroke="midnightblue" points="595.106,-202.963 589.739,-193.828 588.238,-204.316 595.106,-202.963"/>
</g>
<!-- Node24&#45;&gt;Node26 -->
<g id="edge30" class="edge"><title>Node24&#45;&gt;Node26</title>
<path fill="none" stroke="midnightblue" d="M579.952,-236.679C563.686,-225.611 541.276,-210.363 525.017,-199.3"/>
<polygon fill="midnightblue" stroke="midnightblue" points="526.932,-196.37 516.695,-193.638 522.994,-202.157 526.932,-196.37"/>
</g>
<!-- Node27&#45;&gt;Node4 -->
<g id="edge39" class="edge"><title>Node27&#45;&gt;Node4</title>
<path fill="none" stroke="midnightblue" d="M871.707,-304.467C955.016,-293.481 1099.49,-274.43 1187.35,-262.844"/>
<polygon fill="midnightblue" stroke="midnightblue" points="1188.06,-266.281 1197.52,-261.503 1187.14,-259.341 1188.06,-266.281"/>
</g>
<!-- Node27&#45;&gt;Node5 -->
<g id="edge40" class="edge"><title>Node27&#45;&gt;Node5</title>
<path fill="none" stroke="midnightblue" d="M792.976,-304.381C781.125,-296.381 764.591,-283.405 755,-268 729.855,-227.613 721.245,-170.964 718.376,-141.875"/>
<polygon fill="midnightblue" stroke="midnightblue" points="721.831,-141.199 717.489,-131.535 714.857,-141.797 721.831,-141.199"/>
</g>
<!-- Node28 -->
<g id="node28" class="node"><title>Node28</title>
<g id="a_node28"><a xlink:href="Index_8hpp.html" target="_top" xlink:title="Core/Index/Index.hpp">
<polygon fill="white" stroke="black" points="764,-242.5 764,-261.5 874,-261.5 874,-242.5 764,-242.5"/>
<text text-anchor="middle" x="819" y="-249.5" font-family="Helvetica,sans-Serif" font-size="10.00">Core/Index/Index.hpp</text>
</a>
</g>
</g>
<!-- Node27&#45;&gt;Node28 -->
<g id="edge36" class="edge"><title>Node27&#45;&gt;Node28</title>
<path fill="none" stroke="midnightblue" d="M808.719,-304.403C810.43,-295.849 813.11,-282.45 815.305,-271.476"/>
<polygon fill="midnightblue" stroke="midnightblue" points="818.755,-272.073 817.284,-261.581 811.891,-270.7 818.755,-272.073"/>
</g>
<!-- Node29 -->
<g id="node29" class="node"><title>Node29</title>
<polygon fill="white" stroke="#bfbfbf" points="764,-174.5 764,-193.5 804,-193.5 804,-174.5 764,-174.5"/>
<text text-anchor="middle" x="784" y="-181.5" font-family="Helvetica,sans-Serif" font-size="10.00">limits</text>
</g>
<!-- Node28&#45;&gt;Node29 -->
<g id="edge37" class="edge"><title>Node28&#45;&gt;Node29</title>
<path fill="none" stroke="midnightblue" d="M814.424,-242.372C809.109,-232.348 800.198,-215.546 793.39,-202.708"/>
<polygon fill="midnightblue" stroke="midnightblue" points="796.466,-201.036 788.688,-193.841 790.281,-204.316 796.466,-201.036"/>
</g>
<!-- Node30 -->
<g id="node30" class="node"><title>Node30</title>
<g id="a_node30"><a xlink:href="Index_8inl.html" target="_top" xlink:title="Core/Index/Index.inl">
<polygon fill="white" stroke="black" points="822,-174.5 822,-193.5 926,-193.5 926,-174.5 822,-174.5"/>
<text text-anchor="middle" x="874" y="-181.5" font-family="Helvetica,sans-Serif" font-size="10.00">Core/Index/Index.inl</text>
</a>
</g>
</g>
<!-- Node28&#45;&gt;Node30 -->
<g id="edge38" class="edge"><title>Node28&#45;&gt;Node30</title>
<path fill="none" stroke="midnightblue" d="M826.19,-242.372C834.789,-232.053 849.374,-214.551 860.179,-201.585"/>
<polygon fill="midnightblue" stroke="midnightblue" points="862.919,-203.764 866.632,-193.841 857.542,-199.283 862.919,-203.764"/>
</g>
<!-- Node31&#45;&gt;Node5 -->
<g id="edge54" class="edge"><title>Node31&#45;&gt;Node5</title>
<path fill="none" stroke="midnightblue" d="M472.183,-365.543C362.895,-357.392 127.681,-332.558 86,-268 70.8723,-244.569 95.9804,-173.906 103,-168 145.038,-132.629 515.605,-125.047 659.873,-123.433"/>
<polygon fill="midnightblue" stroke="midnightblue" points="660.308,-126.929 670.27,-123.323 660.234,-119.929 660.308,-126.929"/>
</g>
<!-- Node31&#45;&gt;Node23 -->
<g id="edge43" class="edge"><title>Node31&#45;&gt;Node23</title>
<path fill="none" stroke="midnightblue" d="M537.082,-360.083C545.171,-352.141 557.195,-340.335 566.91,-330.797"/>
<polygon fill="midnightblue" stroke="midnightblue" points="569.403,-333.254 574.087,-323.751 564.499,-328.26 569.403,-333.254"/>
</g>
<!-- Node32 -->
<g id="node32" class="node"><title>Node32</title>
<g id="a_node32"><a xlink:href="Log_8hpp.html" target="_top" xlink:title="Core/Log/Log.hpp">
<polygon fill="white" stroke="black" points="219,-304.5 219,-323.5 313,-323.5 313,-304.5 219,-304.5"/>
<text text-anchor="middle" x="266" y="-311.5" font-family="Helvetica,sans-Serif" font-size="10.00">Core/Log/Log.hpp</text>
</a>
</g>
</g>
<!-- Node31&#45;&gt;Node32 -->
<g id="edge44" class="edge"><title>Node31&#45;&gt;Node32</title>
<path fill="none" stroke="midnightblue" d="M486.485,-360.444C440.588,-350.984 366.62,-335.738 317.174,-325.547"/>
<polygon fill="midnightblue" stroke="midnightblue" points="317.821,-322.107 307.32,-323.516 316.408,-328.963 317.821,-322.107"/>
</g>
<!-- Node32&#45;&gt;Node5 -->
<g id="edge45" class="edge"><title>Node32&#45;&gt;Node5</title>
<path fill="none" stroke="midnightblue" d="M265.705,-304.213C265.658,-288.573 267.787,-255.701 285,-236 334.179,-179.714 554.373,-144.109 660.05,-129.964"/>
<polygon fill="midnightblue" stroke="midnightblue" points="660.76,-133.401 670.216,-128.623 659.844,-126.461 660.76,-133.401"/>
</g>
<!-- Node32&#45;&gt;Node10 -->
<g id="edge46" class="edge"><title>Node32&#45;&gt;Node10</title>
<path fill="none" stroke="midnightblue" d="M218.751,-311.027C142.313,-305.025 0,-280.964 0,-185 0,-185 0,-185 0,-121 0,-70.3295 163.414,-32.3175 237.842,-17.6324"/>
<polygon fill="midnightblue" stroke="midnightblue" points="238.577,-21.0553 247.728,-15.7162 237.244,-14.1832 238.577,-21.0553"/>
</g>
<!-- Node33 -->
<g id="node33" class="node"><title>Node33</title>
<polygon fill="white" stroke="#bfbfbf" points="354,-242.5 354,-261.5 400,-261.5 400,-242.5 354,-242.5"/>
<text text-anchor="middle" x="377" y="-249.5" font-family="Helvetica,sans-Serif" font-size="10.00">stdio.h</text>
</g>
<!-- Node32&#45;&gt;Node33 -->
<g id="edge47" class="edge"><title>Node32&#45;&gt;Node33</title>
<path fill="none" stroke="midnightblue" d="M281.904,-304.403C300.285,-294.468 330.756,-277.997 352.245,-266.381"/>
<polygon fill="midnightblue" stroke="midnightblue" points="353.993,-269.415 361.126,-261.581 350.665,-263.257 353.993,-269.415"/>
</g>
<!-- Node34 -->
<g id="node34" class="node"><title>Node34</title>
<polygon fill="white" stroke="#bfbfbf" points="112.5,-174.5 112.5,-193.5 153.5,-193.5 153.5,-174.5 112.5,-174.5"/>
<text text-anchor="middle" x="133" y="-181.5" font-family="Helvetica,sans-Serif" font-size="10.00">string</text>
</g>
<!-- Node32&#45;&gt;Node34 -->
<g id="edge48" class="edge"><title>Node32&#45;&gt;Node34</title>
<path fill="none" stroke="midnightblue" d="M218.643,-307.031C173.437,-300.245 110.041,-287.511 95,-268 78.9736,-247.211 99.5928,-218.578 116.147,-200.954"/>
<polygon fill="midnightblue" stroke="midnightblue" points="118.778,-203.271 123.32,-193.699 113.8,-198.349 118.778,-203.271"/>
</g>
<!-- Node35 -->
<g id="node35" class="node"><title>Node35</title>
<g id="a_node35"><a xlink:href="StringUtils_8hpp.html" target="_top" xlink:title="Core/String/StringUtils.hpp">
<polygon fill="white" stroke="black" points="104,-242.5 104,-261.5 238,-261.5 238,-242.5 104,-242.5"/>
<text text-anchor="middle" x="171" y="-249.5" font-family="Helvetica,sans-Serif" font-size="10.00">Core/String/StringUtils.hpp</text>
</a>
</g>
</g>
<!-- Node32&#45;&gt;Node35 -->
<g id="edge49" class="edge"><title>Node32&#45;&gt;Node35</title>
<path fill="none" stroke="midnightblue" d="M252.389,-304.403C236.939,-294.646 211.51,-278.585 193.184,-267.011"/>
<polygon fill="midnightblue" stroke="midnightblue" points="194.91,-263.961 184.586,-261.581 191.172,-269.88 194.91,-263.961"/>
</g>
<!-- Node36 -->
<g id="node36" class="node"><title>Node36</title>
<polygon fill="white" stroke="#bfbfbf" points="294.5,-242.5 294.5,-261.5 335.5,-261.5 335.5,-242.5 294.5,-242.5"/>
<text text-anchor="middle" x="315" y="-249.5" font-family="Helvetica,sans-Serif" font-size="10.00">ctime</text>
</g>
<!-- Node32&#45;&gt;Node36 -->
<g id="edge53" class="edge"><title>Node32&#45;&gt;Node36</title>
<path fill="none" stroke="midnightblue" d="M273.021,-304.403C280.443,-295.314 292.333,-280.756 301.567,-269.449"/>
<polygon fill="midnightblue" stroke="midnightblue" points="304.378,-271.54 307.993,-261.581 298.956,-267.112 304.378,-271.54"/>
</g>
<!-- Node35&#45;&gt;Node5 -->
<g id="edge50" class="edge"><title>Node35&#45;&gt;Node5</title>
<path fill="none" stroke="midnightblue" d="M176.398,-242.271C187.839,-224.65 216.415,-185.06 252,-168 322.851,-134.034 552.809,-125.705 660.455,-123.663"/>
<polygon fill="midnightblue" stroke="midnightblue" points="660.545,-127.162 670.481,-123.485 660.42,-120.163 660.545,-127.162"/>
</g>
<!-- Node35&#45;&gt;Node26 -->
<g id="edge52" class="edge"><title>Node35&#45;&gt;Node26</title>
<path fill="none" stroke="midnightblue" d="M214.193,-242.439C281.926,-229.015 411.597,-203.314 471.807,-191.381"/>
<polygon fill="midnightblue" stroke="midnightblue" points="472.744,-194.763 481.873,-189.386 471.383,-187.897 472.744,-194.763"/>
</g>
<!-- Node35&#45;&gt;Node34 -->
<g id="edge51" class="edge"><title>Node35&#45;&gt;Node34</title>
<path fill="none" stroke="midnightblue" d="M166.032,-242.372C160.261,-232.348 150.587,-215.546 143.195,-202.708"/>
<polygon fill="midnightblue" stroke="midnightblue" points="146.113,-200.761 138.09,-193.841 140.047,-204.254 146.113,-200.761"/>
</g>
<!-- Node37&#45;&gt;Node22 -->
<g id="edge56" class="edge"><title>Node37&#45;&gt;Node22</title>
<path fill="none" stroke="midnightblue" d="M986.262,-379.516C966.355,-388.467 931.963,-402.629 905.648,-412.772"/>
<polygon fill="midnightblue" stroke="midnightblue" points="904.105,-409.614 896.005,-416.444 906.595,-416.156 904.105,-409.614"/>
</g>
<!-- Node38&#45;&gt;Node2 -->
<g id="edge60" class="edge"><title>Node38&#45;&gt;Node2</title>
<path fill="none" stroke="midnightblue" d="M1503.13,-435.751C1504.66,-442.858 1505.1,-453.136 1504.47,-462.101"/>
<polygon fill="midnightblue" stroke="midnightblue" points="1500.99,-461.713 1503.17,-472.083 1507.93,-462.622 1500.99,-461.713"/>
</g>
<!-- Node39&#45;&gt;Node6 -->
<g id="edge62" class="edge"><title>Node39&#45;&gt;Node6</title>
<path fill="none" stroke="midnightblue" d="M1815.43,-304.439C1862.82,-291.125 1943.72,-260.451 1979,-200 1985.48,-188.897 1987.75,-121.929 1978,-112 1935.86,-69.1063 1038.27,-66.6886 783.741,-66.8688"/>
<polygon fill="midnightblue" stroke="midnightblue" points="783.528,-63.3689 773.531,-66.8777 783.535,-70.3688 783.528,-63.3689"/>
</g>
<!-- Node40 -->
<g id="node40" class="node"><title>Node40</title>
<g id="a_node40"><a xlink:href="Manager_8hpp.html" target="_top" xlink:title="Tests/Manager.hpp">
<polygon fill="white" stroke="black" points="1728.5,-242.5 1728.5,-261.5 1829.5,-261.5 1829.5,-242.5 1728.5,-242.5"/>
<text text-anchor="middle" x="1779" y="-249.5" font-family="Helvetica,sans-Serif" font-size="10.00">Tests/Manager.hpp</text>
</a>
</g>
</g>
<!-- Node39&#45;&gt;Node40 -->
<g id="edge63" class="edge"><title>Node39&#45;&gt;Node40</title>
<path fill="none" stroke="midnightblue" d="M1779,-304.403C1779,-295.938 1779,-282.728 1779,-271.82"/>
<polygon fill="midnightblue" stroke="midnightblue" points="1782.5,-271.581 1779,-261.581 1775.5,-271.581 1782.5,-271.581"/>
</g>
<!-- Node40&#45;&gt;Node26 -->
<g id="edge66" class="edge"><title>Node40&#45;&gt;Node26</title>
<path fill="none" stroke="midnightblue" d="M1728.47,-249.209C1498.93,-241.038 564.417,-207.381 535,-200 532.651,-199.411 530.27,-198.633 527.925,-197.74"/>
<polygon fill="midnightblue" stroke="midnightblue" points="529.226,-194.488 518.667,-193.617 526.379,-200.883 529.226,-194.488"/>
</g>
<!-- Node41 -->
<g id="node41" class="node"><title>Node41</title>
<g id="a_node41"><a xlink:href="Singleton_8hpp.html" target="_top" xlink:title="Core/Utils/Singleton.hpp">
<polygon fill="white" stroke="black" points="1723.5,-174.5 1723.5,-193.5 1846.5,-193.5 1846.5,-174.5 1723.5,-174.5"/>
<text text-anchor="middle" x="1785" y="-181.5" font-family="Helvetica,sans-Serif" font-size="10.00">Core/Utils/Singleton.hpp</text>
</a>
</g>
</g>
<!-- Node40&#45;&gt;Node41 -->
<g id="edge64" class="edge"><title>Node40&#45;&gt;Node41</title>
<path fill="none" stroke="midnightblue" d="M1779.78,-242.372C1780.67,-232.643 1782.13,-216.528 1783.29,-203.85"/>
<polygon fill="midnightblue" stroke="midnightblue" points="1786.78,-204.117 1784.2,-193.841 1779.81,-203.483 1786.78,-204.117"/>
</g>
<!-- Node41&#45;&gt;Node5 -->
<g id="edge65" class="edge"><title>Node41&#45;&gt;Node5</title>
<path fill="none" stroke="midnightblue" d="M1747.68,-174.48C1735.42,-171.991 1721.68,-169.531 1709,-168 1355.13,-125.296 925.818,-122.218 773.728,-122.614"/>
<polygon fill="midnightblue" stroke="midnightblue" points="773.677,-119.114 763.688,-122.646 773.699,-126.114 773.677,-119.114"/>
</g>
</g>
</svg>
