<?xml version="1.0" encoding="UTF-8" standalone="no"?>
<!DOCTYPE svg PUBLIC "-//W3C//DTD SVG 1.1//EN"
 "http://www.w3.org/Graphics/SVG/1.1/DTD/svg11.dtd">
<!-- Generated by graphviz version 2.36.0 (20140111.2315)
 -->
<!-- Title: /home/travis/build/STORM&#45;IRIT/Radium&#45;Engine/src/Core/Math/RayCast.hpp Pages: 1 -->
<svg width="1826pt" height="522pt"
 viewBox="0.00 0.00 1826.00 522.00" xmlns="http://www.w3.org/2000/svg" xmlns:xlink="http://www.w3.org/1999/xlink">
<g id="graph0" class="graph" transform="scale(1 1) rotate(0) translate(4 518)">
<title>/home/travis/build/STORM&#45;IRIT/Radium&#45;Engine/src/Core/Math/RayCast.hpp</title>
<polygon fill="white" stroke="none" points="-4,4 -4,-518 1822,-518 1822,4 -4,4"/>
<!-- Node1 -->
<g id="node1" class="node"><title>Node1</title>
<polygon fill="#bfbfbf" stroke="black" points="661,-472.5 661,-513.5 809,-513.5 809,-472.5 661,-472.5"/>
<text text-anchor="start" x="669" y="-501.5" font-family="Helvetica,sans-Serif" font-size="10.00">/home/travis/build</text>
<text text-anchor="start" x="669" y="-490.5" font-family="Helvetica,sans-Serif" font-size="10.00">/STORM&#45;IRIT/Radium&#45;Engine</text>
<text text-anchor="middle" x="735" y="-479.5" font-family="Helvetica,sans-Serif" font-size="10.00">/src/Core/Math/RayCast.hpp</text>
</g>
<!-- Node2 -->
<g id="node2" class="node"><title>Node2</title>
<g id="a_node2"><a xlink:href="Ray_8hpp.html" target="_top" xlink:title="Core/Math/Ray.hpp">
<polygon fill="white" stroke="black" points="721,-304.5 721,-323.5 823,-323.5 823,-304.5 721,-304.5"/>
<text text-anchor="middle" x="772" y="-311.5" font-family="Helvetica,sans-Serif" font-size="10.00">Core/Math/Ray.hpp</text>
</a>
</g>
</g>
<!-- Node1&#45;&gt;Node2 -->
<g id="edge1" class="edge"><title>Node1&#45;&gt;Node2</title>
<path fill="none" stroke="midnightblue" d="M718.951,-472.357C708.566,-457.219 698.009,-435.626 704,-416 714.276,-382.338 739.95,-349.739 756.645,-331.06"/>
<polygon fill="midnightblue" stroke="midnightblue" points="759.402,-333.232 763.597,-323.503 754.251,-328.493 759.402,-333.232"/>
</g>
<!-- Node4 -->
<g id="node4" class="node"><title>Node4</title>
<g id="a_node4"><a xlink:href="RaCore_8hpp.html" target="_top" xlink:title="Core/RaCore.hpp">
<polygon fill="white" stroke="black" points="483.5,-112.5 483.5,-131.5 576.5,-131.5 576.5,-112.5 483.5,-112.5"/>
<text text-anchor="middle" x="530" y="-119.5" font-family="Helvetica,sans-Serif" font-size="10.00">Core/RaCore.hpp</text>
</a>
</g>
</g>
<!-- Node1&#45;&gt;Node4 -->
<g id="edge56" class="edge"><title>Node1&#45;&gt;Node4</title>
<path fill="none" stroke="midnightblue" d="M660.82,-487.511C474.197,-475.228 0,-437.479 0,-371 0,-371 0,-371 0,-251 0,-154.477 336.347,-130.509 473.154,-124.752"/>
<polygon fill="midnightblue" stroke="midnightblue" points="473.579,-128.238 483.431,-124.339 473.298,-121.244 473.579,-128.238"/>
</g>
<!-- Node21 -->
<g id="node21" class="node"><title>Node21</title>
<g id="a_node21"><a xlink:href="TriangleMesh_8hpp.html" target="_top" xlink:title="Core/Mesh/TriangleMesh.hpp">
<polygon fill="white" stroke="black" points="713.5,-416.5 713.5,-435.5 858.5,-435.5 858.5,-416.5 713.5,-416.5"/>
<text text-anchor="middle" x="786" y="-423.5" font-family="Helvetica,sans-Serif" font-size="10.00">Core/Mesh/TriangleMesh.hpp</text>
</a>
</g>
</g>
<!-- Node1&#45;&gt;Node21 -->
<g id="edge24" class="edge"><title>Node1&#45;&gt;Node21</title>
<path fill="none" stroke="midnightblue" d="M750.302,-472.498C757.519,-463.299 766.042,-452.436 772.95,-443.632"/>
<polygon fill="midnightblue" stroke="midnightblue" points="775.792,-445.68 779.211,-435.652 770.285,-441.359 775.792,-445.68"/>
</g>
<!-- Node25 -->
<g id="node25" class="node"><title>Node25</title>
<polygon fill="white" stroke="#bfbfbf" points="508,-174.5 508,-193.5 552,-193.5 552,-174.5 508,-174.5"/>
<text text-anchor="middle" x="530" y="-181.5" font-family="Helvetica,sans-Serif" font-size="10.00">vector</text>
</g>
<!-- Node1&#45;&gt;Node25 -->
<g id="edge57" class="edge"><title>Node1&#45;&gt;Node25</title>
<path fill="none" stroke="midnightblue" d="M660.691,-489.922C583.415,-483.308 465.933,-459.76 409,-380 362.669,-315.093 462.755,-232.478 508.625,-199.523"/>
<polygon fill="midnightblue" stroke="midnightblue" points="510.855,-202.233 517.016,-193.614 506.825,-196.51 510.855,-202.233"/>
</g>
<!-- Node37 -->
<g id="node37" class="node"><title>Node37</title>
<g id="a_node37"><a xlink:href="RayCast_8inl.html" target="_top" xlink:title="Core/Math/RayCast.inl">
<polygon fill="white" stroke="black" points="876.5,-416.5 876.5,-435.5 993.5,-435.5 993.5,-416.5 876.5,-416.5"/>
<text text-anchor="middle" x="935" y="-423.5" font-family="Helvetica,sans-Serif" font-size="10.00">Core/Math/RayCast.inl</text>
</a>
</g>
</g>
<!-- Node1&#45;&gt;Node37 -->
<g id="edge58" class="edge"><title>Node1&#45;&gt;Node37</title>
<path fill="none" stroke="midnightblue" d="M788.761,-472.498C821.867,-461.444 863.578,-447.99 894.028,-438.59"/>
<polygon fill="midnightblue" stroke="midnightblue" points="895.358,-441.843 903.894,-435.567 893.307,-435.15 895.358,-441.843"/>
</g>
<!-- Node3 -->
<g id="node3" class="node"><title>Node3</title>
<g id="a_node3"><a xlink:href="LinearAlgebra_8hpp.html" target="_top" xlink:title="Core/Math/LinearAlgebra.hpp">
<polygon fill="white" stroke="black" points="973.5,-242.5 973.5,-261.5 1116.5,-261.5 1116.5,-242.5 973.5,-242.5"/>
<text text-anchor="middle" x="1045" y="-249.5" font-family="Helvetica,sans-Serif" font-size="10.00">Core/Math/LinearAlgebra.hpp</text>
</a>
</g>
</g>
<!-- Node2&#45;&gt;Node3 -->
<g id="edge2" class="edge"><title>Node2&#45;&gt;Node3</title>
<path fill="none" stroke="midnightblue" d="M810.824,-304.467C859.642,-293.738 943.464,-275.316 996.464,-263.667"/>
<polygon fill="midnightblue" stroke="midnightblue" points="997.294,-267.068 1006.31,-261.503 995.791,-260.232 997.294,-267.068"/>
</g>
<!-- Node2&#45;&gt;Node4 -->
<g id="edge22" class="edge"><title>Node2&#45;&gt;Node4</title>
<path fill="none" stroke="midnightblue" d="M773.13,-304.344C775.87,-279.326 780.074,-206.271 742,-168 720.578,-146.468 641.855,-134.196 586.627,-128.069"/>
<polygon fill="midnightblue" stroke="midnightblue" points="586.923,-124.581 576.607,-126.996 586.178,-131.541 586.923,-124.581"/>
</g>
<!-- Node12 -->
<g id="node12" class="node"><title>Node12</title>
<polygon fill="white" stroke="#bfbfbf" points="790.5,-174.5 790.5,-193.5 877.5,-193.5 877.5,-174.5 790.5,-174.5"/>
<text text-anchor="middle" x="834" y="-181.5" font-family="Helvetica,sans-Serif" font-size="10.00">Eigen/Geometry</text>
</g>
<!-- Node2&#45;&gt;Node12 -->
<g id="edge23" class="edge"><title>Node2&#45;&gt;Node12</title>
<path fill="none" stroke="midnightblue" d="M776.262,-304.202C786.353,-283.367 811.874,-230.681 825.353,-202.852"/>
<polygon fill="midnightblue" stroke="midnightblue" points="828.663,-204.048 829.872,-193.522 822.363,-200.996 828.663,-204.048"/>
</g>
<!-- Node3&#45;&gt;Node4 -->
<g id="edge3" class="edge"><title>Node3&#45;&gt;Node4</title>
<path fill="none" stroke="midnightblue" d="M1019.16,-242.446C994.134,-233.611 955.594,-218.526 925,-200 905.821,-188.386 906.595,-176.864 886,-168 833.487,-145.399 673.283,-132.075 586.798,-126.343"/>
<polygon fill="midnightblue" stroke="midnightblue" points="586.835,-122.838 576.628,-125.681 586.38,-129.823 586.835,-122.838"/>
</g>
<!-- Node11 -->
<g id="node11" class="node"><title>Node11</title>
<polygon fill="white" stroke="#bfbfbf" points="1410.5,-174.5 1410.5,-193.5 1475.5,-193.5 1475.5,-174.5 1410.5,-174.5"/>
<text text-anchor="middle" x="1443" y="-181.5" font-family="Helvetica,sans-Serif" font-size="10.00">Eigen/Core</text>
</g>
<!-- Node3&#45;&gt;Node11 -->
<g id="edge10" class="edge"><title>Node3&#45;&gt;Node11</title>
<path fill="none" stroke="midnightblue" d="M1116.73,-244.99C1189.21,-237.925 1304.03,-224.004 1401,-200 1404.59,-199.11 1408.31,-198.03 1411.98,-196.861"/>
<polygon fill="midnightblue" stroke="midnightblue" points="1413.12,-200.169 1421.46,-193.63 1410.86,-193.544 1413.12,-200.169"/>
</g>
<!-- Node3&#45;&gt;Node12 -->
<g id="edge11" class="edge"><title>Node3&#45;&gt;Node12</title>
<path fill="none" stroke="midnightblue" d="M1017.42,-242.372C979.954,-230.654 912.881,-209.674 871.057,-196.591"/>
<polygon fill="midnightblue" stroke="midnightblue" points="871.846,-193.171 861.257,-193.526 869.756,-199.852 871.846,-193.171"/>
</g>
<!-- Node13 -->
<g id="node13" class="node"><title>Node13</title>
<polygon fill="white" stroke="#bfbfbf" points="934.5,-174.5 934.5,-193.5 1009.5,-193.5 1009.5,-174.5 934.5,-174.5"/>
<text text-anchor="middle" x="972" y="-181.5" font-family="Helvetica,sans-Serif" font-size="10.00">Eigen/Sparse</text>
</g>
<!-- Node3&#45;&gt;Node13 -->
<g id="edge12" class="edge"><title>Node3&#45;&gt;Node13</title>
<path fill="none" stroke="midnightblue" d="M1035.46,-242.372C1023.83,-231.856 1003.95,-213.882 989.531,-200.85"/>
<polygon fill="midnightblue" stroke="midnightblue" points="991.544,-197.951 981.779,-193.841 986.849,-203.144 991.544,-197.951"/>
</g>
<!-- Node14 -->
<g id="node14" class="node"><title>Node14</title>
<polygon fill="white" stroke="#bfbfbf" points="1027.5,-174.5 1027.5,-193.5 1086.5,-193.5 1086.5,-174.5 1027.5,-174.5"/>
<text text-anchor="middle" x="1057" y="-181.5" font-family="Helvetica,sans-Serif" font-size="10.00">functional</text>
</g>
<!-- Node3&#45;&gt;Node14 -->
<g id="edge13" class="edge"><title>Node3&#45;&gt;Node14</title>
<path fill="none" stroke="midnightblue" d="M1046.57,-242.372C1048.34,-232.643 1051.27,-216.528 1053.57,-203.85"/>
<polygon fill="midnightblue" stroke="midnightblue" points="1057.05,-204.306 1055.39,-193.841 1050.16,-203.054 1057.05,-204.306"/>
</g>
<!-- Node15 -->
<g id="node15" class="node"><title>Node15</title>
<polygon fill="white" stroke="#bfbfbf" points="1104.5,-169 1104.5,-199 1237.5,-199 1237.5,-169 1104.5,-169"/>
<text text-anchor="start" x="1112.5" y="-187" font-family="Helvetica,sans-Serif" font-size="10.00">unsupported/Eigen/Aligned</text>
<text text-anchor="middle" x="1171" y="-176" font-family="Helvetica,sans-Serif" font-size="10.00">Vector3</text>
</g>
<!-- Node3&#45;&gt;Node15 -->
<g id="edge14" class="edge"><title>Node3&#45;&gt;Node15</title>
<path fill="none" stroke="midnightblue" d="M1061.47,-242.372C1080.05,-232.643 1110.81,-216.529 1135.01,-203.851"/>
<polygon fill="midnightblue" stroke="midnightblue" points="1136.69,-206.922 1143.93,-199.181 1133.44,-200.721 1136.69,-206.922"/>
</g>
<!-- Node16 -->
<g id="node16" class="node"><title>Node16</title>
<g id="a_node16"><a xlink:href="Math_8hpp.html" target="_top" xlink:title="Core/Math/Math.hpp">
<polygon fill="white" stroke="black" points="1532,-174.5 1532,-193.5 1638,-193.5 1638,-174.5 1532,-174.5"/>
<text text-anchor="middle" x="1585" y="-181.5" font-family="Helvetica,sans-Serif" font-size="10.00">Core/Math/Math.hpp</text>
</a>
</g>
</g>
<!-- Node3&#45;&gt;Node16 -->
<g id="edge15" class="edge"><title>Node3&#45;&gt;Node16</title>
<path fill="none" stroke="midnightblue" d="M1116.56,-243.393C1203.53,-233.985 1354.69,-217.109 1484,-200 1496.27,-198.376 1509.36,-196.522 1521.92,-194.684"/>
<polygon fill="midnightblue" stroke="midnightblue" points="1522.46,-198.142 1531.84,-193.219 1521.44,-191.217 1522.46,-198.142"/>
</g>
<!-- Node20 -->
<g id="node20" class="node"><title>Node20</title>
<g id="a_node20"><a xlink:href="LinearAlgebra_8inl.html" target="_top" xlink:title="Core/Math/LinearAlgebra.inl">
<polygon fill="white" stroke="black" points="1255.5,-174.5 1255.5,-193.5 1392.5,-193.5 1392.5,-174.5 1255.5,-174.5"/>
<text text-anchor="middle" x="1324" y="-181.5" font-family="Helvetica,sans-Serif" font-size="10.00">Core/Math/LinearAlgebra.inl</text>
</a>
</g>
</g>
<!-- Node3&#45;&gt;Node20 -->
<g id="edge21" class="edge"><title>Node3&#45;&gt;Node20</title>
<path fill="none" stroke="midnightblue" d="M1081.19,-242.439C1131.57,-230.52 1222.87,-208.924 1278.02,-195.878"/>
<polygon fill="midnightblue" stroke="midnightblue" points="1278.95,-199.254 1287.88,-193.546 1277.34,-192.442 1278.95,-199.254"/>
</g>
<!-- Node5 -->
<g id="node5" class="node"><title>Node5</title>
<g id="a_node5"><a xlink:href="CoreMacros_8hpp.html" target="_top" xlink:title="Core/CoreMacros.hpp">
<polygon fill="white" stroke="black" points="392.5,-56.5 392.5,-75.5 505.5,-75.5 505.5,-56.5 392.5,-56.5"/>
<text text-anchor="middle" x="449" y="-63.5" font-family="Helvetica,sans-Serif" font-size="10.00">Core/CoreMacros.hpp</text>
</a>
</g>
</g>
<!-- Node4&#45;&gt;Node5 -->
<g id="edge4" class="edge"><title>Node4&#45;&gt;Node5</title>
<path fill="none" stroke="midnightblue" d="M516.986,-112.324C504.468,-103.979 485.318,-91.2122 470.529,-81.3524"/>
<polygon fill="midnightblue" stroke="midnightblue" points="472.244,-78.2894 461.982,-75.6545 468.361,-84.1137 472.244,-78.2894"/>
</g>
<!-- Node6 -->
<g id="node6" class="node"><title>Node6</title>
<polygon fill="white" stroke="#bfbfbf" points="457.5,-0.5 457.5,-19.5 506.5,-19.5 506.5,-0.5 457.5,-0.5"/>
<text text-anchor="middle" x="482" y="-7.5" font-family="Helvetica,sans-Serif" font-size="10.00">cassert</text>
</g>
<!-- Node5&#45;&gt;Node6 -->
<g id="edge5" class="edge"><title>Node5&#45;&gt;Node6</title>
<path fill="none" stroke="midnightblue" d="M454.449,-56.083C459.014,-48.6127 465.668,-37.7244 471.293,-28.5199"/>
<polygon fill="midnightblue" stroke="midnightblue" points="474.424,-30.109 476.652,-19.7511 468.451,-26.4588 474.424,-30.109"/>
</g>
<!-- Node7 -->
<g id="node7" class="node"><title>Node7</title>
<polygon fill="white" stroke="#bfbfbf" points="524.5,-0.5 524.5,-19.5 567.5,-19.5 567.5,-0.5 524.5,-0.5"/>
<text text-anchor="middle" x="546" y="-7.5" font-family="Helvetica,sans-Serif" font-size="10.00">cstdio</text>
</g>
<!-- Node5&#45;&gt;Node7 -->
<g id="edge6" class="edge"><title>Node5&#45;&gt;Node7</title>
<path fill="none" stroke="midnightblue" d="M464.585,-56.324C479.999,-47.7428 503.812,-34.486 521.71,-24.5224"/>
<polygon fill="midnightblue" stroke="midnightblue" points="523.419,-27.5767 530.454,-19.6545 520.014,-21.4606 523.419,-27.5767"/>
</g>
<!-- Node8 -->
<g id="node8" class="node"><title>Node8</title>
<polygon fill="white" stroke="#bfbfbf" points="323,-0.5 323,-19.5 377,-19.5 377,-0.5 323,-0.5"/>
<text text-anchor="middle" x="350" y="-7.5" font-family="Helvetica,sans-Serif" font-size="10.00">iostream</text>
</g>
<!-- Node5&#45;&gt;Node8 -->
<g id="edge7" class="edge"><title>Node5&#45;&gt;Node8</title>
<path fill="none" stroke="midnightblue" d="M433.094,-56.324C417.362,-47.7428 393.058,-34.486 374.791,-24.5224"/>
<polygon fill="midnightblue" stroke="midnightblue" points="376.322,-21.3704 365.867,-19.6545 372.97,-27.5157 376.322,-21.3704"/>
</g>
<!-- Node9 -->
<g id="node9" class="node"><title>Node9</title>
<polygon fill="white" stroke="#bfbfbf" points="173,-0.5 173,-19.5 225,-19.5 225,-0.5 173,-0.5"/>
<text text-anchor="middle" x="199" y="-7.5" font-family="Helvetica,sans-Serif" font-size="10.00">sstream</text>
</g>
<!-- Node5&#45;&gt;Node9 -->
<g id="edge8" class="edge"><title>Node5&#45;&gt;Node9</title>
<path fill="none" stroke="midnightblue" d="M409.387,-56.4435C361.386,-46.0754 281.208,-28.7569 234.929,-18.7606"/>
<polygon fill="midnightblue" stroke="midnightblue" points="235.552,-15.3146 225.039,-16.6243 234.074,-22.1568 235.552,-15.3146"/>
</g>
<!-- Node10 -->
<g id="node10" class="node"><title>Node10</title>
<polygon fill="white" stroke="#bfbfbf" points="395,-0.5 395,-19.5 439,-19.5 439,-0.5 395,-0.5"/>
<text text-anchor="middle" x="417" y="-7.5" font-family="Helvetica,sans-Serif" font-size="10.00">thread</text>
</g>
<!-- Node5&#45;&gt;Node10 -->
<g id="edge9" class="edge"><title>Node5&#45;&gt;Node10</title>
<path fill="none" stroke="midnightblue" d="M443.716,-56.083C439.289,-48.6127 432.837,-37.7244 427.382,-28.5199"/>
<polygon fill="midnightblue" stroke="midnightblue" points="430.295,-26.5697 422.186,-19.7511 424.273,-30.1383 430.295,-26.5697"/>
</g>
<!-- Node16&#45;&gt;Node4 -->
<g id="edge16" class="edge"><title>Node16&#45;&gt;Node4</title>
<path fill="none" stroke="midnightblue" d="M1552.15,-174.444C1541.34,-171.953 1529.22,-169.5 1518,-168 1336.02,-143.675 768.644,-128.589 586.735,-124.28"/>
<polygon fill="midnightblue" stroke="midnightblue" points="586.662,-120.777 576.583,-124.041 586.498,-127.775 586.662,-120.777"/>
</g>
<!-- Node17 -->
<g id="node17" class="node"><title>Node17</title>
<polygon fill="white" stroke="#bfbfbf" points="1605,-112.5 1605,-131.5 1661,-131.5 1661,-112.5 1605,-112.5"/>
<text text-anchor="middle" x="1633" y="-119.5" font-family="Helvetica,sans-Serif" font-size="10.00">algorithm</text>
</g>
<!-- Node16&#45;&gt;Node17 -->
<g id="edge17" class="edge"><title>Node16&#45;&gt;Node17</title>
<path fill="none" stroke="midnightblue" d="M1591.88,-174.403C1599.15,-165.314 1610.8,-150.756 1619.84,-139.449"/>
<polygon fill="midnightblue" stroke="midnightblue" points="1622.62,-141.576 1626.14,-131.581 1617.16,-137.203 1622.62,-141.576"/>
</g>
<!-- Node18 -->
<g id="node18" class="node"><title>Node18</title>
<polygon fill="white" stroke="#bfbfbf" points="1679,-112.5 1679,-131.5 1723,-131.5 1723,-112.5 1679,-112.5"/>
<text text-anchor="middle" x="1701" y="-119.5" font-family="Helvetica,sans-Serif" font-size="10.00">cmath</text>
</g>
<!-- Node16&#45;&gt;Node18 -->
<g id="edge18" class="edge"><title>Node16&#45;&gt;Node18</title>
<path fill="none" stroke="midnightblue" d="M1601.62,-174.403C1620.92,-164.423 1652.96,-147.849 1675.43,-136.225"/>
<polygon fill="midnightblue" stroke="midnightblue" points="1677.14,-139.284 1684.41,-131.581 1673.92,-133.066 1677.14,-139.284"/>
</g>
<!-- Node19 -->
<g id="node19" class="node"><title>Node19</title>
<g id="a_node19"><a xlink:href="Math_8inl.html" target="_top" xlink:title="Core/Math/Math.inl">
<polygon fill="white" stroke="black" points="1487,-112.5 1487,-131.5 1587,-131.5 1587,-112.5 1487,-112.5"/>
<text text-anchor="middle" x="1537" y="-119.5" font-family="Helvetica,sans-Serif" font-size="10.00">Core/Math/Math.inl</text>
</a>
</g>
</g>
<!-- Node16&#45;&gt;Node19 -->
<g id="edge19" class="edge"><title>Node16&#45;&gt;Node19</title>
<path fill="none" stroke="midnightblue" d="M1573.22,-174.403C1564.17,-165.493 1552.41,-151.325 1544.53,-140.118"/>
<polygon fill="midnightblue" stroke="midnightblue" points="1547.36,-138.048 1538.97,-131.581 1541.49,-141.87 1547.36,-138.048"/>
</g>
<!-- Node19&#45;&gt;Node16 -->
<g id="edge20" class="edge"><title>Node19&#45;&gt;Node16</title>
<path fill="none" stroke="midnightblue" d="M1548.76,-131.581C1557.81,-140.485 1569.57,-154.652 1577.46,-165.862"/>
<polygon fill="midnightblue" stroke="midnightblue" points="1574.63,-167.938 1583.02,-174.403 1580.49,-164.115 1574.63,-167.938"/>
</g>
<!-- Node21&#45;&gt;Node3 -->
<g id="edge33" class="edge"><title>Node21&#45;&gt;Node3</title>
<path fill="none" stroke="midnightblue" d="M796.33,-416.41C811.909,-403.594 842.523,-378.946 870,-360 922.255,-323.968 986.58,-286.24 1020.84,-266.645"/>
<polygon fill="midnightblue" stroke="midnightblue" points="1022.71,-269.607 1029.66,-261.616 1019.24,-263.524 1022.71,-269.607"/>
</g>
<!-- Node21&#45;&gt;Node4 -->
<g id="edge40" class="edge"><title>Node21&#45;&gt;Node4</title>
<path fill="none" stroke="midnightblue" d="M720.636,-416.454C662.008,-405.309 577.9,-380.108 529,-324 482.612,-270.774 478.026,-235.417 499,-168 502.229,-157.622 508.776,-147.521 515.025,-139.527"/>
<polygon fill="midnightblue" stroke="midnightblue" points="517.785,-141.682 521.517,-131.766 512.416,-137.19 517.785,-141.682"/>
</g>
<!-- Node22 -->
<g id="node22" class="node"><title>Node22</title>
<g id="a_node22"><a xlink:href="VectorArray_8hpp.html" target="_top" xlink:title="Core/Containers/VectorArray.hpp">
<polygon fill="white" stroke="black" points="538.5,-304.5 538.5,-323.5 699.5,-323.5 699.5,-304.5 538.5,-304.5"/>
<text text-anchor="middle" x="619" y="-311.5" font-family="Helvetica,sans-Serif" font-size="10.00">Core/Containers/VectorArray.hpp</text>
</a>
</g>
</g>
<!-- Node21&#45;&gt;Node22 -->
<g id="edge25" class="edge"><title>Node21&#45;&gt;Node22</title>
<path fill="none" stroke="midnightblue" d="M772.896,-416.368C744.239,-397.492 675.757,-352.385 640.614,-329.237"/>
<polygon fill="midnightblue" stroke="midnightblue" points="642.32,-326.169 632.043,-323.591 638.469,-332.015 642.32,-326.169"/>
</g>
<!-- Node26 -->
<g id="node26" class="node"><title>Node26</title>
<g id="a_node26"><a xlink:href="MeshTypes_8hpp.html" target="_top" xlink:title="Core/Mesh/MeshTypes.hpp">
<polygon fill="white" stroke="black" points="1013.5,-304.5 1013.5,-323.5 1150.5,-323.5 1150.5,-304.5 1013.5,-304.5"/>
<text text-anchor="middle" x="1082" y="-311.5" font-family="Helvetica,sans-Serif" font-size="10.00">Core/Mesh/MeshTypes.hpp</text>
</a>
</g>
</g>
<!-- Node21&#45;&gt;Node26 -->
<g id="edge34" class="edge"><title>Node21&#45;&gt;Node26</title>
<path fill="none" stroke="midnightblue" d="M858.567,-416.879C918.791,-409.158 998.942,-396.311 1027,-380 1046.5,-368.665 1062.29,-347.752 1071.87,-332.704"/>
<polygon fill="midnightblue" stroke="midnightblue" points="1075.06,-334.19 1077.24,-323.822 1069.07,-330.567 1075.06,-334.19"/>
</g>
<!-- Node30 -->
<g id="node30" class="node"><title>Node30</title>
<g id="a_node30"><a xlink:href="Attribs_8hpp.html" target="_top" xlink:title="Core/Utils/Attribs.hpp">
<polygon fill="white" stroke="black" points="418.5,-360.5 418.5,-379.5 529.5,-379.5 529.5,-360.5 418.5,-360.5"/>
<text text-anchor="middle" x="474" y="-367.5" font-family="Helvetica,sans-Serif" font-size="10.00">Core/Utils/Attribs.hpp</text>
</a>
</g>
</g>
<!-- Node21&#45;&gt;Node30 -->
<g id="edge41" class="edge"><title>Node21&#45;&gt;Node30</title>
<path fill="none" stroke="midnightblue" d="M736.563,-416.444C681.336,-406.885 591.979,-391.419 533.105,-381.23"/>
<polygon fill="midnightblue" stroke="midnightblue" points="533.656,-377.773 523.206,-379.516 532.463,-384.671 533.656,-377.773"/>
</g>
<!-- Node36 -->
<g id="node36" class="node"><title>Node36</title>
<g id="a_node36"><a xlink:href="TriangleMesh_8inl.html" target="_top" xlink:title="Core/Mesh/TriangleMesh.inl">
<polygon fill="white" stroke="black" points="879.5,-360.5 879.5,-379.5 1018.5,-379.5 1018.5,-360.5 879.5,-360.5"/>
<text text-anchor="middle" x="949" y="-367.5" font-family="Helvetica,sans-Serif" font-size="10.00">Core/Mesh/TriangleMesh.inl</text>
</a>
</g>
</g>
<!-- Node21&#45;&gt;Node36 -->
<g id="edge54" class="edge"><title>Node21&#45;&gt;Node36</title>
<path fill="none" stroke="midnightblue" d="M806.739,-416.444C832.389,-407.28 876.251,-392.688 908.582,-382.519"/>
<polygon fill="midnightblue" stroke="midnightblue" points="909.708,-385.834 918.213,-379.516 907.624,-379.152 909.708,-385.834"/>
</g>
<!-- Node22&#45;&gt;Node3 -->
<g id="edge30" class="edge"><title>Node22&#45;&gt;Node3</title>
<path fill="none" stroke="midnightblue" d="M679.583,-304.467C757.424,-293.504 892.295,-274.508 974.609,-262.914"/>
<polygon fill="midnightblue" stroke="midnightblue" points="975.212,-266.364 984.626,-261.503 974.236,-259.432 975.212,-266.364"/>
</g>
<!-- Node22&#45;&gt;Node4 -->
<g id="edge31" class="edge"><title>Node22&#45;&gt;Node4</title>
<path fill="none" stroke="midnightblue" d="M615.047,-304.425C610.923,-295.408 604.33,-280.783 599,-268 580.641,-223.969 582.026,-210.316 560,-168 554.96,-158.318 548.311,-148.15 542.554,-139.933"/>
<polygon fill="midnightblue" stroke="midnightblue" points="545.249,-137.687 536.566,-131.616 539.568,-141.777 545.249,-137.687"/>
</g>
<!-- Node23 -->
<g id="node23" class="node"><title>Node23</title>
<g id="a_node23"><a xlink:href="AlignedStdVector_8hpp.html" target="_top" xlink:title="Core/Containers/AlignedStd\lVector.hpp">
<polygon fill="white" stroke="black" points="608,-237 608,-267 746,-267 746,-237 608,-237"/>
<text text-anchor="start" x="616" y="-255" font-family="Helvetica,sans-Serif" font-size="10.00">Core/Containers/AlignedStd</text>
<text text-anchor="middle" x="677" y="-244" font-family="Helvetica,sans-Serif" font-size="10.00">Vector.hpp</text>
</a>
</g>
</g>
<!-- Node22&#45;&gt;Node23 -->
<g id="edge26" class="edge"><title>Node22&#45;&gt;Node23</title>
<path fill="none" stroke="midnightblue" d="M627.31,-304.403C634.872,-296.581 646.349,-284.708 656.369,-274.342"/>
<polygon fill="midnightblue" stroke="midnightblue" points="658.897,-276.763 663.331,-267.141 653.864,-271.898 658.897,-276.763"/>
</g>
<!-- Node22&#45;&gt;Node25 -->
<g id="edge32" class="edge"><title>Node22&#45;&gt;Node25</title>
<path fill="none" stroke="midnightblue" d="M605.736,-304.372C594.003,-296.183 577.072,-282.932 566,-268 551.202,-248.044 540.947,-221.063 535.271,-203.356"/>
<polygon fill="midnightblue" stroke="midnightblue" points="538.585,-202.225 532.328,-193.675 531.888,-204.26 538.585,-202.225"/>
</g>
<!-- Node23&#45;&gt;Node4 -->
<g id="edge27" class="edge"><title>Node23&#45;&gt;Node4</title>
<path fill="none" stroke="midnightblue" d="M664.17,-236.741C648.417,-219.58 620.517,-190.294 594,-168 580.782,-156.887 564.907,-145.713 552.275,-137.279"/>
<polygon fill="midnightblue" stroke="midnightblue" points="554.013,-134.233 543.734,-131.663 550.167,-140.082 554.013,-134.233"/>
</g>
<!-- Node24 -->
<g id="node24" class="node"><title>Node24</title>
<polygon fill="white" stroke="#bfbfbf" points="646,-174.5 646,-193.5 734,-193.5 734,-174.5 646,-174.5"/>
<text text-anchor="middle" x="690" y="-181.5" font-family="Helvetica,sans-Serif" font-size="10.00">Eigen/StdVector</text>
</g>
<!-- Node23&#45;&gt;Node24 -->
<g id="edge28" class="edge"><title>Node23&#45;&gt;Node24</title>
<path fill="none" stroke="midnightblue" d="M679.821,-236.679C681.727,-226.999 684.264,-214.123 686.328,-203.645"/>
<polygon fill="midnightblue" stroke="midnightblue" points="689.762,-204.316 688.261,-193.828 682.894,-202.963 689.762,-204.316"/>
</g>
<!-- Node23&#45;&gt;Node25 -->
<g id="edge29" class="edge"><title>Node23&#45;&gt;Node25</title>
<path fill="none" stroke="midnightblue" d="M645.465,-236.841C619.696,-225.272 583.578,-209.055 558.631,-197.855"/>
<polygon fill="midnightblue" stroke="midnightblue" points="559.893,-194.585 549.337,-193.682 557.026,-200.971 559.893,-194.585"/>
</g>
<!-- Node26&#45;&gt;Node3 -->
<g id="edge38" class="edge"><title>Node26&#45;&gt;Node3</title>
<path fill="none" stroke="midnightblue" d="M1076.7,-304.403C1071.2,-295.493 1062.47,-281.325 1055.56,-270.118"/>
<polygon fill="midnightblue" stroke="midnightblue" points="1058.52,-268.255 1050.29,-261.581 1052.56,-271.929 1058.52,-268.255"/>
</g>
<!-- Node26&#45;&gt;Node4 -->
<g id="edge39" class="edge"><title>Node26&#45;&gt;Node4</title>
<path fill="none" stroke="midnightblue" d="M1150.7,-310.384C1290.21,-302.832 1585.27,-274.16 1484,-168 1452.91,-135.405 786.953,-125.72 586.555,-123.539"/>
<polygon fill="midnightblue" stroke="midnightblue" points="586.567,-120.039 576.53,-123.432 586.492,-127.038 586.567,-120.039"/>
</g>
<!-- Node27 -->
<g id="node27" class="node"><title>Node27</title>
<g id="a_node27"><a xlink:href="Index_8hpp.html" target="_top" xlink:title="Core/Index/Index.hpp">
<polygon fill="white" stroke="black" points="1653,-242.5 1653,-261.5 1763,-261.5 1763,-242.5 1653,-242.5"/>
<text text-anchor="middle" x="1708" y="-249.5" font-family="Helvetica,sans-Serif" font-size="10.00">Core/Index/Index.hpp</text>
</a>
</g>
</g>
<!-- Node26&#45;&gt;Node27 -->
<g id="edge35" class="edge"><title>Node26&#45;&gt;Node27</title>
<path fill="none" stroke="midnightblue" d="M1150.78,-306.407C1272.38,-294.753 1523.68,-270.667 1642.73,-259.256"/>
<polygon fill="midnightblue" stroke="midnightblue" points="1643.17,-262.73 1652.79,-258.292 1642.5,-255.762 1643.17,-262.73"/>
</g>
<!-- Node28 -->
<g id="node28" class="node"><title>Node28</title>
<polygon fill="white" stroke="#bfbfbf" points="1778,-174.5 1778,-193.5 1818,-193.5 1818,-174.5 1778,-174.5"/>
<text text-anchor="middle" x="1798" y="-181.5" font-family="Helvetica,sans-Serif" font-size="10.00">limits</text>
</g>
<!-- Node27&#45;&gt;Node28 -->
<g id="edge36" class="edge"><title>Node27&#45;&gt;Node28</title>
<path fill="none" stroke="midnightblue" d="M1719.77,-242.372C1734.59,-231.502 1760.28,-212.66 1778.16,-199.547"/>
<polygon fill="midnightblue" stroke="midnightblue" points="1780.24,-202.367 1786.23,-193.63 1776.1,-196.722 1780.24,-202.367"/>
</g>
<!-- Node29 -->
<g id="node29" class="node"><title>Node29</title>
<g id="a_node29"><a xlink:href="Index_8inl.html" target="_top" xlink:title="Core/Index/Index.inl">
<polygon fill="white" stroke="black" points="1656,-174.5 1656,-193.5 1760,-193.5 1760,-174.5 1656,-174.5"/>
<text text-anchor="middle" x="1708" y="-181.5" font-family="Helvetica,sans-Serif" font-size="10.00">Core/Index/Index.inl</text>
</a>
</g>
</g>
<!-- Node27&#45;&gt;Node29 -->
<g id="edge37" class="edge"><title>Node27&#45;&gt;Node29</title>
<path fill="none" stroke="midnightblue" d="M1708,-242.372C1708,-232.643 1708,-216.528 1708,-203.85"/>
<polygon fill="midnightblue" stroke="midnightblue" points="1711.5,-203.841 1708,-193.841 1704.5,-203.841 1711.5,-203.841"/>
</g>
<!-- Node30&#45;&gt;Node4 -->
<g id="edge53" class="edge"><title>Node30&#45;&gt;Node4</title>
<path fill="none" stroke="midnightblue" d="M470.787,-360.312C460.558,-331.117 431.395,-234.635 466,-168 473.153,-154.226 486.671,-143.783 499.447,-136.441"/>
<polygon fill="midnightblue" stroke="midnightblue" points="501.317,-139.412 508.517,-131.64 498.042,-133.225 501.317,-139.412"/>
</g>
<!-- Node30&#45;&gt;Node22 -->
<g id="edge42" class="edge"><title>Node30&#45;&gt;Node22</title>
<path fill="none" stroke="midnightblue" d="M496.976,-360.444C521.157,-351.438 559.418,-337.189 586.646,-327.049"/>
<polygon fill="midnightblue" stroke="midnightblue" points="587.982,-330.286 596.132,-323.516 585.539,-323.727 587.982,-330.286"/>
</g>
<!-- Node31 -->
<g id="node31" class="node"><title>Node31</title>
<g id="a_node31"><a xlink:href="Log_8hpp.html" target="_top" xlink:title="Core/Log/Log.hpp">
<polygon fill="white" stroke="black" points="162,-304.5 162,-323.5 256,-323.5 256,-304.5 162,-304.5"/>
<text text-anchor="middle" x="209" y="-311.5" font-family="Helvetica,sans-Serif" font-size="10.00">Core/Log/Log.hpp</text>
</a>
</g>
</g>
<!-- Node30&#45;&gt;Node31 -->
<g id="edge43" class="edge"><title>Node30&#45;&gt;Node31</title>
<path fill="none" stroke="midnightblue" d="M432.01,-360.444C385.588,-350.984 310.772,-335.738 260.76,-325.547"/>
<polygon fill="midnightblue" stroke="midnightblue" points="261.291,-322.084 250.794,-323.516 259.893,-328.943 261.291,-322.084"/>
</g>
<!-- Node31&#45;&gt;Node4 -->
<g id="edge44" class="edge"><title>Node31&#45;&gt;Node4</title>
<path fill="none" stroke="midnightblue" d="M176.014,-304.438C157.537,-297.769 136.048,-286.453 125,-268 112.399,-246.955 128.281,-176.205 137,-168 160.994,-145.419 369.867,-131.405 472.948,-125.803"/>
<polygon fill="midnightblue" stroke="midnightblue" points="473.384,-129.285 483.183,-125.256 473.01,-122.295 473.384,-129.285"/>
</g>
<!-- Node31&#45;&gt;Node9 -->
<g id="edge45" class="edge"><title>Node31&#45;&gt;Node9</title>
<path fill="none" stroke="midnightblue" d="M175.624,-304.39C125.859,-289.309 38,-253.048 38,-185 38,-185 38,-185 38,-121 38,-60.9196 115.381,-31.2745 162.85,-18.741"/>
<polygon fill="midnightblue" stroke="midnightblue" points="163.926,-22.0798 172.774,-16.2531 162.223,-15.2899 163.926,-22.0798"/>
</g>
<!-- Node32 -->
<g id="node32" class="node"><title>Node32</title>
<polygon fill="white" stroke="#bfbfbf" points="354,-242.5 354,-261.5 400,-261.5 400,-242.5 354,-242.5"/>
<text text-anchor="middle" x="377" y="-249.5" font-family="Helvetica,sans-Serif" font-size="10.00">stdio.h</text>
</g>
<!-- Node31&#45;&gt;Node32 -->
<g id="edge46" class="edge"><title>Node31&#45;&gt;Node32</title>
<path fill="none" stroke="midnightblue" d="M237.492,-304.457C265.03,-295.978 307.782,-282.223 344,-268 345.845,-267.275 347.736,-266.502 349.633,-265.703"/>
<polygon fill="midnightblue" stroke="midnightblue" points="351.239,-268.82 358.991,-261.598 348.427,-262.41 351.239,-268.82"/>
</g>
<!-- Node33 -->
<g id="node33" class="node"><title>Node33</title>
<polygon fill="white" stroke="#bfbfbf" points="146.5,-174.5 146.5,-193.5 187.5,-193.5 187.5,-174.5 146.5,-174.5"/>
<text text-anchor="middle" x="167" y="-181.5" font-family="Helvetica,sans-Serif" font-size="10.00">string</text>
</g>
<!-- Node31&#45;&gt;Node33 -->
<g id="edge47" class="edge"><title>Node31&#45;&gt;Node33</title>
<path fill="none" stroke="midnightblue" d="M180.985,-304.397C163.826,-297.515 143.252,-285.984 133,-268 120.523,-246.112 137.398,-218.737 151.508,-201.554"/>
<polygon fill="midnightblue" stroke="midnightblue" points="154.527,-203.417 158.464,-193.58 149.253,-198.815 154.527,-203.417"/>
</g>
<!-- Node34 -->
<g id="node34" class="node"><title>Node34</title>
<g id="a_node34"><a xlink:href="StringUtils_8hpp.html" target="_top" xlink:title="Core/String/StringUtils.hpp">
<polygon fill="white" stroke="black" points="142,-242.5 142,-261.5 276,-261.5 276,-242.5 142,-242.5"/>
<text text-anchor="middle" x="209" y="-249.5" font-family="Helvetica,sans-Serif" font-size="10.00">Core/String/StringUtils.hpp</text>
</a>
</g>
</g>
<!-- Node31&#45;&gt;Node34 -->
<g id="edge48" class="edge"><title>Node31&#45;&gt;Node34</title>
<path fill="none" stroke="midnightblue" d="M209,-304.403C209,-295.938 209,-282.728 209,-271.82"/>
<polygon fill="midnightblue" stroke="midnightblue" points="212.5,-271.581 209,-261.581 205.5,-271.581 212.5,-271.581"/>
</g>
<!-- Node35 -->
<g id="node35" class="node"><title>Node35</title>
<polygon fill="white" stroke="#bfbfbf" points="294.5,-242.5 294.5,-261.5 335.5,-261.5 335.5,-242.5 294.5,-242.5"/>
<text text-anchor="middle" x="315" y="-249.5" font-family="Helvetica,sans-Serif" font-size="10.00">ctime</text>
</g>
<!-- Node31&#45;&gt;Node35 -->
<g id="edge52" class="edge"><title>Node31&#45;&gt;Node35</title>
<path fill="none" stroke="midnightblue" d="M224.187,-304.403C241.662,-294.512 270.579,-278.144 291.083,-266.538"/>
<polygon fill="midnightblue" stroke="midnightblue" points="292.862,-269.553 299.841,-261.581 289.414,-263.461 292.862,-269.553"/>
</g>
<!-- Node34&#45;&gt;Node4 -->
<g id="edge49" class="edge"><title>Node34&#45;&gt;Node4</title>
<path fill="none" stroke="midnightblue" d="M229.912,-242.415C266.95,-227.237 346.537,-194.741 414,-168 442.465,-156.717 474.972,-144.132 498.318,-135.147"/>
<polygon fill="midnightblue" stroke="midnightblue" points="499.646,-138.386 507.724,-131.53 497.134,-131.852 499.646,-138.386"/>
</g>
<!-- Node34&#45;&gt;Node25 -->
<g id="edge51" class="edge"><title>Node34&#45;&gt;Node25</title>
<path fill="none" stroke="midnightblue" d="M250.636,-242.439C315.474,-229.108 439.189,-203.671 497.745,-191.632"/>
<polygon fill="midnightblue" stroke="midnightblue" points="498.802,-194.988 507.892,-189.546 497.392,-188.131 498.802,-194.988"/>
</g>
<!-- Node34&#45;&gt;Node33 -->
<g id="edge50" class="edge"><title>Node34&#45;&gt;Node33</title>
<path fill="none" stroke="midnightblue" d="M203.509,-242.372C197.068,-232.25 186.228,-215.215 178.029,-202.331"/>
<polygon fill="midnightblue" stroke="midnightblue" points="180.948,-200.399 172.626,-193.841 175.042,-204.157 180.948,-200.399"/>
</g>
<!-- Node36&#45;&gt;Node21 -->
<g id="edge55" class="edge"><title>Node36&#45;&gt;Node21</title>
<path fill="none" stroke="midnightblue" d="M928.373,-379.516C902.776,-388.664 858.924,-403.255 826.559,-413.436"/>
<polygon fill="midnightblue" stroke="midnightblue" points="825.421,-410.125 816.917,-416.444 827.505,-416.807 825.421,-410.125"/>
</g>
<!-- Node37&#45;&gt;Node1 -->
<g id="edge59" class="edge"><title>Node37&#45;&gt;Node1</title>
<path fill="none" stroke="midnightblue" d="M913.141,-435.652C888.54,-444.242 847.468,-457.774 810.925,-469.425"/>
<polygon fill="midnightblue" stroke="midnightblue" points="809.723,-466.134 801.252,-472.498 811.842,-472.805 809.723,-466.134"/>
</g>
</g>
</svg>
