<?xml version="1.0" encoding="UTF-8" standalone="no"?>
<!DOCTYPE svg PUBLIC "-//W3C//DTD SVG 1.1//EN"
 "http://www.w3.org/Graphics/SVG/1.1/DTD/svg11.dtd">
<!-- Generated by graphviz version 2.36.0 (20140111.2315)
 -->
<!-- Title: /home/travis/build/STORM&#45;IRIT/Radium&#45;Engine/src/Core/Math/RayCast.inl Pages: 1 -->
<svg width="1826pt" height="578pt"
 viewBox="0.00 0.00 1826.00 578.00" xmlns="http://www.w3.org/2000/svg" xmlns:xlink="http://www.w3.org/1999/xlink">
<g id="graph0" class="graph" transform="scale(1 1) rotate(0) translate(4 574)">
<title>/home/travis/build/STORM&#45;IRIT/Radium&#45;Engine/src/Core/Math/RayCast.inl</title>
<polygon fill="white" stroke="none" points="-4,4 -4,-574 1822,-574 1822,4 -4,4"/>
<!-- Node1 -->
<g id="node1" class="node"><title>Node1</title>
<polygon fill="#bfbfbf" stroke="black" points="456,-528.5 456,-569.5 604,-569.5 604,-528.5 456,-528.5"/>
<text text-anchor="start" x="464" y="-557.5" font-family="Helvetica,sans-Serif" font-size="10.00">/home/travis/build</text>
<text text-anchor="start" x="464" y="-546.5" font-family="Helvetica,sans-Serif" font-size="10.00">/STORM&#45;IRIT/Radium&#45;Engine</text>
<text text-anchor="middle" x="530" y="-535.5" font-family="Helvetica,sans-Serif" font-size="10.00">/src/Core/Math/RayCast.inl</text>
</g>
<!-- Node2 -->
<g id="node2" class="node"><title>Node2</title>
<g id="a_node2"><a xlink:href="RayCast_8hpp.html" target="_top" xlink:title="RayCast.hpp">
<polygon fill="white" stroke="black" points="493,-472.5 493,-491.5 567,-491.5 567,-472.5 493,-472.5"/>
<text text-anchor="middle" x="530" y="-479.5" font-family="Helvetica,sans-Serif" font-size="10.00">RayCast.hpp</text>
</a>
</g>
</g>
<!-- Node1&#45;&gt;Node2 -->
<g id="edge1" class="edge"><title>Node1&#45;&gt;Node2</title>
<path fill="none" stroke="midnightblue" d="M523.755,-528.498C523.057,-519.969 523.083,-510.011 523.833,-501.59"/>
<polygon fill="midnightblue" stroke="midnightblue" points="527.303,-502.044 525.236,-491.652 520.372,-501.065 527.303,-502.044"/>
</g>
<!-- Node2&#45;&gt;Node1 -->
<g id="edge59" class="edge"><title>Node2&#45;&gt;Node1</title>
<path fill="none" stroke="midnightblue" d="M534.764,-491.652C536.227,-498.524 536.881,-508.559 536.728,-518.263"/>
<polygon fill="midnightblue" stroke="midnightblue" points="533.221,-518.344 536.245,-528.498 540.213,-518.674 533.221,-518.344"/>
</g>
<!-- Node3 -->
<g id="node3" class="node"><title>Node3</title>
<g id="a_node3"><a xlink:href="Ray_8hpp.html" target="_top" xlink:title="Core/Math/Ray.hpp">
<polygon fill="white" stroke="black" points="722,-304.5 722,-323.5 824,-323.5 824,-304.5 722,-304.5"/>
<text text-anchor="middle" x="773" y="-311.5" font-family="Helvetica,sans-Serif" font-size="10.00">Core/Math/Ray.hpp</text>
</a>
</g>
</g>
<!-- Node2&#45;&gt;Node3 -->
<g id="edge2" class="edge"><title>Node2&#45;&gt;Node3</title>
<path fill="none" stroke="midnightblue" d="M542.723,-472.309C582.254,-445.304 703.222,-362.667 752.143,-329.248"/>
<polygon fill="midnightblue" stroke="midnightblue" points="754.12,-332.136 760.403,-323.605 750.172,-326.356 754.12,-332.136"/>
</g>
<!-- Node5 -->
<g id="node5" class="node"><title>Node5</title>
<g id="a_node5"><a xlink:href="RaCore_8hpp.html" target="_top" xlink:title="Core/RaCore.hpp">
<polygon fill="white" stroke="black" points="483.5,-112.5 483.5,-131.5 576.5,-131.5 576.5,-112.5 483.5,-112.5"/>
<text text-anchor="middle" x="530" y="-119.5" font-family="Helvetica,sans-Serif" font-size="10.00">Core/RaCore.hpp</text>
</a>
</g>
</g>
<!-- Node2&#45;&gt;Node5 -->
<g id="edge57" class="edge"><title>Node2&#45;&gt;Node5</title>
<path fill="none" stroke="midnightblue" d="M492.731,-481.211C372.092,-480.904 0,-471.788 0,-371 0,-371 0,-371 0,-251 0,-154.477 336.347,-130.509 473.154,-124.752"/>
<polygon fill="midnightblue" stroke="midnightblue" points="473.579,-128.238 483.431,-124.339 473.298,-121.244 473.579,-128.238"/>
</g>
<!-- Node22 -->
<g id="node22" class="node"><title>Node22</title>
<g id="a_node22"><a xlink:href="TriangleMesh_8hpp.html" target="_top" xlink:title="Core/Mesh/TriangleMesh.hpp">
<polygon fill="white" stroke="black" points="728.5,-416.5 728.5,-435.5 873.5,-435.5 873.5,-416.5 728.5,-416.5"/>
<text text-anchor="middle" x="801" y="-423.5" font-family="Helvetica,sans-Serif" font-size="10.00">Core/Mesh/TriangleMesh.hpp</text>
</a>
</g>
</g>
<!-- Node2&#45;&gt;Node22 -->
<g id="edge25" class="edge"><title>Node2&#45;&gt;Node22</title>
<path fill="none" stroke="midnightblue" d="M567.113,-473.605C613.961,-464.27 694.85,-448.152 748.144,-437.532"/>
<polygon fill="midnightblue" stroke="midnightblue" points="748.964,-440.938 758.087,-435.551 747.596,-434.073 748.964,-440.938"/>
</g>
<!-- Node26 -->
<g id="node26" class="node"><title>Node26</title>
<polygon fill="white" stroke="#bfbfbf" points="508,-174.5 508,-193.5 552,-193.5 552,-174.5 508,-174.5"/>
<text text-anchor="middle" x="530" y="-181.5" font-family="Helvetica,sans-Serif" font-size="10.00">vector</text>
</g>
<!-- Node2&#45;&gt;Node26 -->
<g id="edge58" class="edge"><title>Node2&#45;&gt;Node26</title>
<path fill="none" stroke="midnightblue" d="M508.214,-472.436C468.966,-455.5 391.964,-414.592 409,-360 429.819,-293.284 485.963,-229.59 513.841,-200.896"/>
<polygon fill="midnightblue" stroke="midnightblue" points="516.357,-203.329 520.901,-193.758 511.381,-198.406 516.357,-203.329"/>
</g>
<!-- Node4 -->
<g id="node4" class="node"><title>Node4</title>
<g id="a_node4"><a xlink:href="LinearAlgebra_8hpp.html" target="_top" xlink:title="Core/Math/LinearAlgebra.hpp">
<polygon fill="white" stroke="black" points="981.5,-242.5 981.5,-261.5 1124.5,-261.5 1124.5,-242.5 981.5,-242.5"/>
<text text-anchor="middle" x="1053" y="-249.5" font-family="Helvetica,sans-Serif" font-size="10.00">Core/Math/LinearAlgebra.hpp</text>
</a>
</g>
</g>
<!-- Node3&#45;&gt;Node4 -->
<g id="edge3" class="edge"><title>Node3&#45;&gt;Node4</title>
<path fill="none" stroke="midnightblue" d="M812.82,-304.467C862.89,-293.738 948.86,-275.316 1003.22,-263.667"/>
<polygon fill="midnightblue" stroke="midnightblue" points="1004.27,-267.021 1013.32,-261.503 1002.81,-260.176 1004.27,-267.021"/>
</g>
<!-- Node3&#45;&gt;Node5 -->
<g id="edge23" class="edge"><title>Node3&#45;&gt;Node5</title>
<path fill="none" stroke="midnightblue" d="M774.062,-304.337C776.608,-279.3 780.254,-206.198 742,-168 720.507,-146.538 641.802,-134.249 586.598,-128.098"/>
<polygon fill="midnightblue" stroke="midnightblue" points="586.9,-124.611 576.583,-127.02 586.151,-131.57 586.9,-124.611"/>
</g>
<!-- Node13 -->
<g id="node13" class="node"><title>Node13</title>
<polygon fill="white" stroke="#bfbfbf" points="790.5,-174.5 790.5,-193.5 877.5,-193.5 877.5,-174.5 790.5,-174.5"/>
<text text-anchor="middle" x="834" y="-181.5" font-family="Helvetica,sans-Serif" font-size="10.00">Eigen/Geometry</text>
</g>
<!-- Node3&#45;&gt;Node13 -->
<g id="edge24" class="edge"><title>Node3&#45;&gt;Node13</title>
<path fill="none" stroke="midnightblue" d="M777.193,-304.202C787.122,-283.367 812.23,-230.681 825.492,-202.852"/>
<polygon fill="midnightblue" stroke="midnightblue" points="828.796,-204.055 829.939,-193.522 822.477,-201.044 828.796,-204.055"/>
</g>
<!-- Node4&#45;&gt;Node5 -->
<g id="edge4" class="edge"><title>Node4&#45;&gt;Node5</title>
<path fill="none" stroke="midnightblue" d="M1024.63,-242.499C997.899,-233.85 957.241,-219.027 925,-200 905.69,-188.605 906.595,-176.864 886,-168 833.487,-145.399 673.283,-132.075 586.798,-126.343"/>
<polygon fill="midnightblue" stroke="midnightblue" points="586.835,-122.838 576.628,-125.681 586.38,-129.823 586.835,-122.838"/>
</g>
<!-- Node12 -->
<g id="node12" class="node"><title>Node12</title>
<polygon fill="white" stroke="#bfbfbf" points="1410.5,-174.5 1410.5,-193.5 1475.5,-193.5 1475.5,-174.5 1410.5,-174.5"/>
<text text-anchor="middle" x="1443" y="-181.5" font-family="Helvetica,sans-Serif" font-size="10.00">Eigen/Core</text>
</g>
<!-- Node4&#45;&gt;Node12 -->
<g id="edge11" class="edge"><title>Node4&#45;&gt;Node12</title>
<path fill="none" stroke="midnightblue" d="M1124.78,-244.662C1195.72,-237.424 1306.94,-223.444 1401,-200 1404.59,-199.105 1408.31,-198.021 1411.97,-196.849"/>
<polygon fill="midnightblue" stroke="midnightblue" points="1413.12,-200.157 1421.45,-193.616 1410.86,-193.532 1413.12,-200.157"/>
</g>
<!-- Node4&#45;&gt;Node13 -->
<g id="edge12" class="edge"><title>Node4&#45;&gt;Node13</title>
<path fill="none" stroke="midnightblue" d="M1024.37,-242.372C985.324,-230.604 915.282,-209.496 871.913,-196.426"/>
<polygon fill="midnightblue" stroke="midnightblue" points="872.875,-193.06 862.29,-193.526 870.855,-199.763 872.875,-193.06"/>
</g>
<!-- Node14 -->
<g id="node14" class="node"><title>Node14</title>
<polygon fill="white" stroke="#bfbfbf" points="934.5,-174.5 934.5,-193.5 1009.5,-193.5 1009.5,-174.5 934.5,-174.5"/>
<text text-anchor="middle" x="972" y="-181.5" font-family="Helvetica,sans-Serif" font-size="10.00">Eigen/Sparse</text>
</g>
<!-- Node4&#45;&gt;Node14 -->
<g id="edge13" class="edge"><title>Node4&#45;&gt;Node14</title>
<path fill="none" stroke="midnightblue" d="M1042.41,-242.372C1029.31,-231.699 1006.78,-213.343 990.738,-200.268"/>
<polygon fill="midnightblue" stroke="midnightblue" points="992.555,-197.234 982.592,-193.63 988.133,-202.661 992.555,-197.234"/>
</g>
<!-- Node15 -->
<g id="node15" class="node"><title>Node15</title>
<polygon fill="white" stroke="#bfbfbf" points="1027.5,-174.5 1027.5,-193.5 1086.5,-193.5 1086.5,-174.5 1027.5,-174.5"/>
<text text-anchor="middle" x="1057" y="-181.5" font-family="Helvetica,sans-Serif" font-size="10.00">functional</text>
</g>
<!-- Node4&#45;&gt;Node15 -->
<g id="edge14" class="edge"><title>Node4&#45;&gt;Node15</title>
<path fill="none" stroke="midnightblue" d="M1053.52,-242.372C1054.11,-232.643 1055.09,-216.528 1055.86,-203.85"/>
<polygon fill="midnightblue" stroke="midnightblue" points="1059.35,-204.035 1056.46,-193.841 1052.37,-203.611 1059.35,-204.035"/>
</g>
<!-- Node16 -->
<g id="node16" class="node"><title>Node16</title>
<polygon fill="white" stroke="#bfbfbf" points="1104.5,-169 1104.5,-199 1237.5,-199 1237.5,-169 1104.5,-169"/>
<text text-anchor="start" x="1112.5" y="-187" font-family="Helvetica,sans-Serif" font-size="10.00">unsupported/Eigen/Aligned</text>
<text text-anchor="middle" x="1171" y="-176" font-family="Helvetica,sans-Serif" font-size="10.00">Vector3</text>
</g>
<!-- Node4&#45;&gt;Node16 -->
<g id="edge15" class="edge"><title>Node4&#45;&gt;Node16</title>
<path fill="none" stroke="midnightblue" d="M1068.43,-242.372C1085.67,-232.729 1114.12,-216.812 1136.7,-204.187"/>
<polygon fill="midnightblue" stroke="midnightblue" points="1138.63,-207.118 1145.65,-199.181 1135.21,-201.008 1138.63,-207.118"/>
</g>
<!-- Node17 -->
<g id="node17" class="node"><title>Node17</title>
<g id="a_node17"><a xlink:href="Math_8hpp.html" target="_top" xlink:title="Core/Math/Math.hpp">
<polygon fill="white" stroke="black" points="1532,-174.5 1532,-193.5 1638,-193.5 1638,-174.5 1532,-174.5"/>
<text text-anchor="middle" x="1585" y="-181.5" font-family="Helvetica,sans-Serif" font-size="10.00">Core/Math/Math.hpp</text>
</a>
</g>
</g>
<!-- Node4&#45;&gt;Node17 -->
<g id="edge16" class="edge"><title>Node4&#45;&gt;Node17</title>
<path fill="none" stroke="midnightblue" d="M1124.77,-243.167C1210.38,-233.67 1357.78,-216.837 1484,-200 1496.27,-198.363 1509.36,-196.503 1521.91,-194.664"/>
<polygon fill="midnightblue" stroke="midnightblue" points="1522.46,-198.121 1531.84,-193.197 1521.43,-191.197 1522.46,-198.121"/>
</g>
<!-- Node21 -->
<g id="node21" class="node"><title>Node21</title>
<g id="a_node21"><a xlink:href="LinearAlgebra_8inl.html" target="_top" xlink:title="Core/Math/LinearAlgebra.inl">
<polygon fill="white" stroke="black" points="1255.5,-174.5 1255.5,-193.5 1392.5,-193.5 1392.5,-174.5 1255.5,-174.5"/>
<text text-anchor="middle" x="1324" y="-181.5" font-family="Helvetica,sans-Serif" font-size="10.00">Core/Math/LinearAlgebra.inl</text>
</a>
</g>
</g>
<!-- Node4&#45;&gt;Node21 -->
<g id="edge22" class="edge"><title>Node4&#45;&gt;Node21</title>
<path fill="none" stroke="midnightblue" d="M1088.15,-242.439C1136.99,-230.545 1225.4,-209.013 1279,-195.959"/>
<polygon fill="midnightblue" stroke="midnightblue" points="1280.02,-199.312 1288.91,-193.546 1278.37,-192.511 1280.02,-199.312"/>
</g>
<!-- Node6 -->
<g id="node6" class="node"><title>Node6</title>
<g id="a_node6"><a xlink:href="CoreMacros_8hpp.html" target="_top" xlink:title="Core/CoreMacros.hpp">
<polygon fill="white" stroke="black" points="392.5,-56.5 392.5,-75.5 505.5,-75.5 505.5,-56.5 392.5,-56.5"/>
<text text-anchor="middle" x="449" y="-63.5" font-family="Helvetica,sans-Serif" font-size="10.00">Core/CoreMacros.hpp</text>
</a>
</g>
</g>
<!-- Node5&#45;&gt;Node6 -->
<g id="edge5" class="edge"><title>Node5&#45;&gt;Node6</title>
<path fill="none" stroke="midnightblue" d="M516.986,-112.324C504.468,-103.979 485.318,-91.2122 470.529,-81.3524"/>
<polygon fill="midnightblue" stroke="midnightblue" points="472.244,-78.2894 461.982,-75.6545 468.361,-84.1137 472.244,-78.2894"/>
</g>
<!-- Node7 -->
<g id="node7" class="node"><title>Node7</title>
<polygon fill="white" stroke="#bfbfbf" points="457.5,-0.5 457.5,-19.5 506.5,-19.5 506.5,-0.5 457.5,-0.5"/>
<text text-anchor="middle" x="482" y="-7.5" font-family="Helvetica,sans-Serif" font-size="10.00">cassert</text>
</g>
<!-- Node6&#45;&gt;Node7 -->
<g id="edge6" class="edge"><title>Node6&#45;&gt;Node7</title>
<path fill="none" stroke="midnightblue" d="M454.449,-56.083C459.014,-48.6127 465.668,-37.7244 471.293,-28.5199"/>
<polygon fill="midnightblue" stroke="midnightblue" points="474.424,-30.109 476.652,-19.7511 468.451,-26.4588 474.424,-30.109"/>
</g>
<!-- Node8 -->
<g id="node8" class="node"><title>Node8</title>
<polygon fill="white" stroke="#bfbfbf" points="524.5,-0.5 524.5,-19.5 567.5,-19.5 567.5,-0.5 524.5,-0.5"/>
<text text-anchor="middle" x="546" y="-7.5" font-family="Helvetica,sans-Serif" font-size="10.00">cstdio</text>
</g>
<!-- Node6&#45;&gt;Node8 -->
<g id="edge7" class="edge"><title>Node6&#45;&gt;Node8</title>
<path fill="none" stroke="midnightblue" d="M464.585,-56.324C479.999,-47.7428 503.812,-34.486 521.71,-24.5224"/>
<polygon fill="midnightblue" stroke="midnightblue" points="523.419,-27.5767 530.454,-19.6545 520.014,-21.4606 523.419,-27.5767"/>
</g>
<!-- Node9 -->
<g id="node9" class="node"><title>Node9</title>
<polygon fill="white" stroke="#bfbfbf" points="323,-0.5 323,-19.5 377,-19.5 377,-0.5 323,-0.5"/>
<text text-anchor="middle" x="350" y="-7.5" font-family="Helvetica,sans-Serif" font-size="10.00">iostream</text>
</g>
<!-- Node6&#45;&gt;Node9 -->
<g id="edge8" class="edge"><title>Node6&#45;&gt;Node9</title>
<path fill="none" stroke="midnightblue" d="M433.094,-56.324C417.362,-47.7428 393.058,-34.486 374.791,-24.5224"/>
<polygon fill="midnightblue" stroke="midnightblue" points="376.322,-21.3704 365.867,-19.6545 372.97,-27.5157 376.322,-21.3704"/>
</g>
<!-- Node10 -->
<g id="node10" class="node"><title>Node10</title>
<polygon fill="white" stroke="#bfbfbf" points="173,-0.5 173,-19.5 225,-19.5 225,-0.5 173,-0.5"/>
<text text-anchor="middle" x="199" y="-7.5" font-family="Helvetica,sans-Serif" font-size="10.00">sstream</text>
</g>
<!-- Node6&#45;&gt;Node10 -->
<g id="edge9" class="edge"><title>Node6&#45;&gt;Node10</title>
<path fill="none" stroke="midnightblue" d="M409.387,-56.4435C361.386,-46.0754 281.208,-28.7569 234.929,-18.7606"/>
<polygon fill="midnightblue" stroke="midnightblue" points="235.552,-15.3146 225.039,-16.6243 234.074,-22.1568 235.552,-15.3146"/>
</g>
<!-- Node11 -->
<g id="node11" class="node"><title>Node11</title>
<polygon fill="white" stroke="#bfbfbf" points="395,-0.5 395,-19.5 439,-19.5 439,-0.5 395,-0.5"/>
<text text-anchor="middle" x="417" y="-7.5" font-family="Helvetica,sans-Serif" font-size="10.00">thread</text>
</g>
<!-- Node6&#45;&gt;Node11 -->
<g id="edge10" class="edge"><title>Node6&#45;&gt;Node11</title>
<path fill="none" stroke="midnightblue" d="M443.716,-56.083C439.289,-48.6127 432.837,-37.7244 427.382,-28.5199"/>
<polygon fill="midnightblue" stroke="midnightblue" points="430.295,-26.5697 422.186,-19.7511 424.273,-30.1383 430.295,-26.5697"/>
</g>
<!-- Node17&#45;&gt;Node5 -->
<g id="edge17" class="edge"><title>Node17&#45;&gt;Node5</title>
<path fill="none" stroke="midnightblue" d="M1552.15,-174.444C1541.34,-171.953 1529.22,-169.5 1518,-168 1336.02,-143.675 768.644,-128.589 586.735,-124.28"/>
<polygon fill="midnightblue" stroke="midnightblue" points="586.662,-120.777 576.583,-124.041 586.498,-127.775 586.662,-120.777"/>
</g>
<!-- Node18 -->
<g id="node18" class="node"><title>Node18</title>
<polygon fill="white" stroke="#bfbfbf" points="1605,-112.5 1605,-131.5 1661,-131.5 1661,-112.5 1605,-112.5"/>
<text text-anchor="middle" x="1633" y="-119.5" font-family="Helvetica,sans-Serif" font-size="10.00">algorithm</text>
</g>
<!-- Node17&#45;&gt;Node18 -->
<g id="edge18" class="edge"><title>Node17&#45;&gt;Node18</title>
<path fill="none" stroke="midnightblue" d="M1591.88,-174.403C1599.15,-165.314 1610.8,-150.756 1619.84,-139.449"/>
<polygon fill="midnightblue" stroke="midnightblue" points="1622.62,-141.576 1626.14,-131.581 1617.16,-137.203 1622.62,-141.576"/>
</g>
<!-- Node19 -->
<g id="node19" class="node"><title>Node19</title>
<polygon fill="white" stroke="#bfbfbf" points="1679,-112.5 1679,-131.5 1723,-131.5 1723,-112.5 1679,-112.5"/>
<text text-anchor="middle" x="1701" y="-119.5" font-family="Helvetica,sans-Serif" font-size="10.00">cmath</text>
</g>
<!-- Node17&#45;&gt;Node19 -->
<g id="edge19" class="edge"><title>Node17&#45;&gt;Node19</title>
<path fill="none" stroke="midnightblue" d="M1601.62,-174.403C1620.92,-164.423 1652.96,-147.849 1675.43,-136.225"/>
<polygon fill="midnightblue" stroke="midnightblue" points="1677.14,-139.284 1684.41,-131.581 1673.92,-133.066 1677.14,-139.284"/>
</g>
<!-- Node20 -->
<g id="node20" class="node"><title>Node20</title>
<g id="a_node20"><a xlink:href="Math_8inl.html" target="_top" xlink:title="Core/Math/Math.inl">
<polygon fill="white" stroke="black" points="1487,-112.5 1487,-131.5 1587,-131.5 1587,-112.5 1487,-112.5"/>
<text text-anchor="middle" x="1537" y="-119.5" font-family="Helvetica,sans-Serif" font-size="10.00">Core/Math/Math.inl</text>
</a>
</g>
</g>
<!-- Node17&#45;&gt;Node20 -->
<g id="edge20" class="edge"><title>Node17&#45;&gt;Node20</title>
<path fill="none" stroke="midnightblue" d="M1573.22,-174.403C1564.17,-165.493 1552.41,-151.325 1544.53,-140.118"/>
<polygon fill="midnightblue" stroke="midnightblue" points="1547.36,-138.048 1538.97,-131.581 1541.49,-141.87 1547.36,-138.048"/>
</g>
<!-- Node20&#45;&gt;Node17 -->
<g id="edge21" class="edge"><title>Node20&#45;&gt;Node17</title>
<path fill="none" stroke="midnightblue" d="M1548.76,-131.581C1557.81,-140.485 1569.57,-154.652 1577.46,-165.862"/>
<polygon fill="midnightblue" stroke="midnightblue" points="1574.63,-167.938 1583.02,-174.403 1580.49,-164.115 1574.63,-167.938"/>
</g>
<!-- Node22&#45;&gt;Node4 -->
<g id="edge34" class="edge"><title>Node22&#45;&gt;Node4</title>
<path fill="none" stroke="midnightblue" d="M809.097,-416.364C821.623,-403.273 846.789,-378.024 871,-360 923.089,-321.223 990.249,-284.87 1026.67,-266.159"/>
<polygon fill="midnightblue" stroke="midnightblue" points="1028.35,-269.234 1035.67,-261.576 1025.17,-262.997 1028.35,-269.234"/>
</g>
<!-- Node22&#45;&gt;Node5 -->
<g id="edge41" class="edge"><title>Node22&#45;&gt;Node5</title>
<path fill="none" stroke="midnightblue" d="M728.348,-416.707C666.868,-405.834 580.867,-380.896 530,-324 482.885,-271.301 478.001,-235.498 499,-168 502.229,-157.622 508.776,-147.521 515.025,-139.527"/>
<polygon fill="midnightblue" stroke="midnightblue" points="517.785,-141.682 521.517,-131.766 512.416,-137.19 517.785,-141.682"/>
</g>
<!-- Node23 -->
<g id="node23" class="node"><title>Node23</title>
<g id="a_node23"><a xlink:href="VectorArray_8hpp.html" target="_top" xlink:title="Core/Containers/VectorArray.hpp">
<polygon fill="white" stroke="black" points="539.5,-304.5 539.5,-323.5 700.5,-323.5 700.5,-304.5 539.5,-304.5"/>
<text text-anchor="middle" x="620" y="-311.5" font-family="Helvetica,sans-Serif" font-size="10.00">Core/Containers/VectorArray.hpp</text>
</a>
</g>
</g>
<!-- Node22&#45;&gt;Node23 -->
<g id="edge26" class="edge"><title>Node22&#45;&gt;Node23</title>
<path fill="none" stroke="midnightblue" d="M786.797,-416.368C755.605,-397.412 680.883,-352.001 642.942,-328.942"/>
<polygon fill="midnightblue" stroke="midnightblue" points="644.5,-325.794 634.137,-323.591 640.865,-331.776 644.5,-325.794"/>
</g>
<!-- Node27 -->
<g id="node27" class="node"><title>Node27</title>
<g id="a_node27"><a xlink:href="MeshTypes_8hpp.html" target="_top" xlink:title="Core/Mesh/MeshTypes.hpp">
<polygon fill="white" stroke="black" points="1209.5,-304.5 1209.5,-323.5 1346.5,-323.5 1346.5,-304.5 1209.5,-304.5"/>
<text text-anchor="middle" x="1278" y="-311.5" font-family="Helvetica,sans-Serif" font-size="10.00">Core/Mesh/MeshTypes.hpp</text>
</a>
</g>
</g>
<!-- Node22&#45;&gt;Node27 -->
<g id="edge35" class="edge"><title>Node22&#45;&gt;Node27</title>
<path fill="none" stroke="midnightblue" d="M848.124,-416.493C894.155,-407.986 966.121,-394.165 1028,-380 1102.43,-362.961 1188.45,-339.833 1237.71,-326.254"/>
<polygon fill="midnightblue" stroke="midnightblue" points="1238.65,-329.626 1247.35,-323.588 1236.78,-322.879 1238.65,-329.626"/>
</g>
<!-- Node31 -->
<g id="node31" class="node"><title>Node31</title>
<g id="a_node31"><a xlink:href="Attribs_8hpp.html" target="_top" xlink:title="Core/Utils/Attribs.hpp">
<polygon fill="white" stroke="black" points="418.5,-360.5 418.5,-379.5 529.5,-379.5 529.5,-360.5 418.5,-360.5"/>
<text text-anchor="middle" x="474" y="-367.5" font-family="Helvetica,sans-Serif" font-size="10.00">Core/Utils/Attribs.hpp</text>
</a>
</g>
</g>
<!-- Node22&#45;&gt;Node31 -->
<g id="edge42" class="edge"><title>Node22&#45;&gt;Node31</title>
<path fill="none" stroke="midnightblue" d="M749.186,-416.444C691.185,-406.865 597.264,-391.356 535.565,-381.167"/>
<polygon fill="midnightblue" stroke="midnightblue" points="536.008,-377.693 525.572,-379.516 534.868,-384.599 536.008,-377.693"/>
</g>
<!-- Node37 -->
<g id="node37" class="node"><title>Node37</title>
<g id="a_node37"><a xlink:href="TriangleMesh_8inl.html" target="_top" xlink:title="Core/Mesh/TriangleMesh.inl">
<polygon fill="white" stroke="black" points="880.5,-360.5 880.5,-379.5 1019.5,-379.5 1019.5,-360.5 880.5,-360.5"/>
<text text-anchor="middle" x="950" y="-367.5" font-family="Helvetica,sans-Serif" font-size="10.00">Core/Mesh/TriangleMesh.inl</text>
</a>
</g>
</g>
<!-- Node22&#45;&gt;Node37 -->
<g id="edge55" class="edge"><title>Node22&#45;&gt;Node37</title>
<path fill="none" stroke="midnightblue" d="M819.521,-416.444C842.594,-407.359 882.184,-392.939 911.798,-382.783"/>
<polygon fill="midnightblue" stroke="midnightblue" points="913.077,-386.045 921.421,-379.516 910.827,-379.417 913.077,-386.045"/>
</g>
<!-- Node23&#45;&gt;Node4 -->
<g id="edge31" class="edge"><title>Node23&#45;&gt;Node4</title>
<path fill="none" stroke="midnightblue" d="M681.578,-304.467C760.779,-293.493 898.065,-274.469 981.707,-262.879"/>
<polygon fill="midnightblue" stroke="midnightblue" points="982.209,-266.343 991.634,-261.503 981.248,-259.409 982.209,-266.343"/>
</g>
<!-- Node23&#45;&gt;Node5 -->
<g id="edge32" class="edge"><title>Node23&#45;&gt;Node5</title>
<path fill="none" stroke="midnightblue" d="M615.807,-304.448C611.444,-295.45 604.493,-280.841 599,-268 580.237,-224.14 582.026,-210.316 560,-168 554.96,-158.318 548.311,-148.15 542.554,-139.933"/>
<polygon fill="midnightblue" stroke="midnightblue" points="545.249,-137.687 536.566,-131.616 539.568,-141.777 545.249,-137.687"/>
</g>
<!-- Node24 -->
<g id="node24" class="node"><title>Node24</title>
<g id="a_node24"><a xlink:href="AlignedStdVector_8hpp.html" target="_top" xlink:title="Core/Containers/AlignedStd\lVector.hpp">
<polygon fill="white" stroke="black" points="608,-237 608,-267 746,-267 746,-237 608,-237"/>
<text text-anchor="start" x="616" y="-255" font-family="Helvetica,sans-Serif" font-size="10.00">Core/Containers/AlignedStd</text>
<text text-anchor="middle" x="677" y="-244" font-family="Helvetica,sans-Serif" font-size="10.00">Vector.hpp</text>
</a>
</g>
</g>
<!-- Node23&#45;&gt;Node24 -->
<g id="edge27" class="edge"><title>Node23&#45;&gt;Node24</title>
<path fill="none" stroke="midnightblue" d="M628.167,-304.403C635.526,-296.657 646.659,-284.938 656.438,-274.645"/>
<polygon fill="midnightblue" stroke="midnightblue" points="659.216,-276.801 663.566,-267.141 654.141,-271.98 659.216,-276.801"/>
</g>
<!-- Node23&#45;&gt;Node26 -->
<g id="edge33" class="edge"><title>Node23&#45;&gt;Node26</title>
<path fill="none" stroke="midnightblue" d="M606.478,-304.426C594.517,-296.273 577.263,-283.044 566,-268 551.111,-248.112 540.877,-221.115 535.231,-203.386"/>
<polygon fill="midnightblue" stroke="midnightblue" points="538.545,-202.254 532.307,-193.691 531.843,-204.275 538.545,-202.254"/>
</g>
<!-- Node24&#45;&gt;Node5 -->
<g id="edge28" class="edge"><title>Node24&#45;&gt;Node5</title>
<path fill="none" stroke="midnightblue" d="M664.17,-236.741C648.417,-219.58 620.517,-190.294 594,-168 580.782,-156.887 564.907,-145.713 552.275,-137.279"/>
<polygon fill="midnightblue" stroke="midnightblue" points="554.013,-134.233 543.734,-131.663 550.167,-140.082 554.013,-134.233"/>
</g>
<!-- Node25 -->
<g id="node25" class="node"><title>Node25</title>
<polygon fill="white" stroke="#bfbfbf" points="646,-174.5 646,-193.5 734,-193.5 734,-174.5 646,-174.5"/>
<text text-anchor="middle" x="690" y="-181.5" font-family="Helvetica,sans-Serif" font-size="10.00">Eigen/StdVector</text>
</g>
<!-- Node24&#45;&gt;Node25 -->
<g id="edge29" class="edge"><title>Node24&#45;&gt;Node25</title>
<path fill="none" stroke="midnightblue" d="M679.821,-236.679C681.727,-226.999 684.264,-214.123 686.328,-203.645"/>
<polygon fill="midnightblue" stroke="midnightblue" points="689.762,-204.316 688.261,-193.828 682.894,-202.963 689.762,-204.316"/>
</g>
<!-- Node24&#45;&gt;Node26 -->
<g id="edge30" class="edge"><title>Node24&#45;&gt;Node26</title>
<path fill="none" stroke="midnightblue" d="M645.465,-236.841C619.696,-225.272 583.578,-209.055 558.631,-197.855"/>
<polygon fill="midnightblue" stroke="midnightblue" points="559.893,-194.585 549.337,-193.682 557.026,-200.971 559.893,-194.585"/>
</g>
<!-- Node27&#45;&gt;Node4 -->
<g id="edge39" class="edge"><title>Node27&#45;&gt;Node4</title>
<path fill="none" stroke="midnightblue" d="M1245.76,-304.403C1206.08,-293.822 1138.6,-275.827 1094.93,-264.18"/>
<polygon fill="midnightblue" stroke="midnightblue" points="1095.74,-260.775 1085.18,-261.581 1093.94,-267.539 1095.74,-260.775"/>
</g>
<!-- Node27&#45;&gt;Node5 -->
<g id="edge40" class="edge"><title>Node27&#45;&gt;Node5</title>
<path fill="none" stroke="midnightblue" d="M1311.38,-304.456C1383.88,-284.455 1544.53,-231.449 1484,-168 1452.91,-135.405 786.953,-125.72 586.555,-123.539"/>
<polygon fill="midnightblue" stroke="midnightblue" points="586.567,-120.039 576.53,-123.432 586.492,-127.038 586.567,-120.039"/>
</g>
<!-- Node28 -->
<g id="node28" class="node"><title>Node28</title>
<g id="a_node28"><a xlink:href="Index_8hpp.html" target="_top" xlink:title="Core/Index/Index.hpp">
<polygon fill="white" stroke="black" points="1653,-242.5 1653,-261.5 1763,-261.5 1763,-242.5 1653,-242.5"/>
<text text-anchor="middle" x="1708" y="-249.5" font-family="Helvetica,sans-Serif" font-size="10.00">Core/Index/Index.hpp</text>
</a>
</g>
</g>
<!-- Node27&#45;&gt;Node28 -->
<g id="edge36" class="edge"><title>Node27&#45;&gt;Node28</title>
<path fill="none" stroke="midnightblue" d="M1339.15,-304.467C1419.62,-293.24 1560.45,-273.588 1642.86,-262.09"/>
<polygon fill="midnightblue" stroke="midnightblue" points="1643.43,-265.543 1652.85,-260.695 1642.47,-258.611 1643.43,-265.543"/>
</g>
<!-- Node29 -->
<g id="node29" class="node"><title>Node29</title>
<polygon fill="white" stroke="#bfbfbf" points="1778,-174.5 1778,-193.5 1818,-193.5 1818,-174.5 1778,-174.5"/>
<text text-anchor="middle" x="1798" y="-181.5" font-family="Helvetica,sans-Serif" font-size="10.00">limits</text>
</g>
<!-- Node28&#45;&gt;Node29 -->
<g id="edge37" class="edge"><title>Node28&#45;&gt;Node29</title>
<path fill="none" stroke="midnightblue" d="M1719.77,-242.372C1734.59,-231.502 1760.28,-212.66 1778.16,-199.547"/>
<polygon fill="midnightblue" stroke="midnightblue" points="1780.24,-202.367 1786.23,-193.63 1776.1,-196.722 1780.24,-202.367"/>
</g>
<!-- Node30 -->
<g id="node30" class="node"><title>Node30</title>
<g id="a_node30"><a xlink:href="Index_8inl.html" target="_top" xlink:title="Core/Index/Index.inl">
<polygon fill="white" stroke="black" points="1656,-174.5 1656,-193.5 1760,-193.5 1760,-174.5 1656,-174.5"/>
<text text-anchor="middle" x="1708" y="-181.5" font-family="Helvetica,sans-Serif" font-size="10.00">Core/Index/Index.inl</text>
</a>
</g>
</g>
<!-- Node28&#45;&gt;Node30 -->
<g id="edge38" class="edge"><title>Node28&#45;&gt;Node30</title>
<path fill="none" stroke="midnightblue" d="M1708,-242.372C1708,-232.643 1708,-216.528 1708,-203.85"/>
<polygon fill="midnightblue" stroke="midnightblue" points="1711.5,-203.841 1708,-193.841 1704.5,-203.841 1711.5,-203.841"/>
</g>
<!-- Node31&#45;&gt;Node5 -->
<g id="edge54" class="edge"><title>Node31&#45;&gt;Node5</title>
<path fill="none" stroke="midnightblue" d="M470.787,-360.312C460.558,-331.117 431.395,-234.635 466,-168 473.153,-154.226 486.671,-143.783 499.447,-136.441"/>
<polygon fill="midnightblue" stroke="midnightblue" points="501.317,-139.412 508.517,-131.64 498.042,-133.225 501.317,-139.412"/>
</g>
<!-- Node31&#45;&gt;Node23 -->
<g id="edge43" class="edge"><title>Node31&#45;&gt;Node23</title>
<path fill="none" stroke="midnightblue" d="M497.134,-360.444C521.482,-351.438 560.007,-337.189 587.423,-327.049"/>
<polygon fill="midnightblue" stroke="midnightblue" points="588.809,-330.268 596.974,-323.516 586.381,-323.703 588.809,-330.268"/>
</g>
<!-- Node32 -->
<g id="node32" class="node"><title>Node32</title>
<g id="a_node32"><a xlink:href="Log_8hpp.html" target="_top" xlink:title="Core/Log/Log.hpp">
<polygon fill="white" stroke="black" points="162,-304.5 162,-323.5 256,-323.5 256,-304.5 162,-304.5"/>
<text text-anchor="middle" x="209" y="-311.5" font-family="Helvetica,sans-Serif" font-size="10.00">Core/Log/Log.hpp</text>
</a>
</g>
</g>
<!-- Node31&#45;&gt;Node32 -->
<g id="edge44" class="edge"><title>Node31&#45;&gt;Node32</title>
<path fill="none" stroke="midnightblue" d="M432.01,-360.444C385.588,-350.984 310.772,-335.738 260.76,-325.547"/>
<polygon fill="midnightblue" stroke="midnightblue" points="261.291,-322.084 250.794,-323.516 259.893,-328.943 261.291,-322.084"/>
</g>
<!-- Node32&#45;&gt;Node5 -->
<g id="edge45" class="edge"><title>Node32&#45;&gt;Node5</title>
<path fill="none" stroke="midnightblue" d="M176.014,-304.438C157.537,-297.769 136.048,-286.453 125,-268 112.399,-246.955 128.281,-176.205 137,-168 160.994,-145.419 369.867,-131.405 472.948,-125.803"/>
<polygon fill="midnightblue" stroke="midnightblue" points="473.384,-129.285 483.183,-125.256 473.01,-122.295 473.384,-129.285"/>
</g>
<!-- Node32&#45;&gt;Node10 -->
<g id="edge46" class="edge"><title>Node32&#45;&gt;Node10</title>
<path fill="none" stroke="midnightblue" d="M175.624,-304.39C125.859,-289.309 38,-253.048 38,-185 38,-185 38,-185 38,-121 38,-60.9196 115.381,-31.2745 162.85,-18.741"/>
<polygon fill="midnightblue" stroke="midnightblue" points="163.926,-22.0798 172.774,-16.2531 162.223,-15.2899 163.926,-22.0798"/>
</g>
<!-- Node33 -->
<g id="node33" class="node"><title>Node33</title>
<polygon fill="white" stroke="#bfbfbf" points="354,-242.5 354,-261.5 400,-261.5 400,-242.5 354,-242.5"/>
<text text-anchor="middle" x="377" y="-249.5" font-family="Helvetica,sans-Serif" font-size="10.00">stdio.h</text>
</g>
<!-- Node32&#45;&gt;Node33 -->
<g id="edge47" class="edge"><title>Node32&#45;&gt;Node33</title>
<path fill="none" stroke="midnightblue" d="M237.492,-304.457C265.03,-295.978 307.782,-282.223 344,-268 345.845,-267.275 347.736,-266.502 349.633,-265.703"/>
<polygon fill="midnightblue" stroke="midnightblue" points="351.239,-268.82 358.991,-261.598 348.427,-262.41 351.239,-268.82"/>
</g>
<!-- Node34 -->
<g id="node34" class="node"><title>Node34</title>
<polygon fill="white" stroke="#bfbfbf" points="146.5,-174.5 146.5,-193.5 187.5,-193.5 187.5,-174.5 146.5,-174.5"/>
<text text-anchor="middle" x="167" y="-181.5" font-family="Helvetica,sans-Serif" font-size="10.00">string</text>
</g>
<!-- Node32&#45;&gt;Node34 -->
<g id="edge48" class="edge"><title>Node32&#45;&gt;Node34</title>
<path fill="none" stroke="midnightblue" d="M180.985,-304.397C163.826,-297.515 143.252,-285.984 133,-268 120.523,-246.112 137.398,-218.737 151.508,-201.554"/>
<polygon fill="midnightblue" stroke="midnightblue" points="154.527,-203.417 158.464,-193.58 149.253,-198.815 154.527,-203.417"/>
</g>
<!-- Node35 -->
<g id="node35" class="node"><title>Node35</title>
<g id="a_node35"><a xlink:href="StringUtils_8hpp.html" target="_top" xlink:title="Core/String/StringUtils.hpp">
<polygon fill="white" stroke="black" points="142,-242.5 142,-261.5 276,-261.5 276,-242.5 142,-242.5"/>
<text text-anchor="middle" x="209" y="-249.5" font-family="Helvetica,sans-Serif" font-size="10.00">Core/String/StringUtils.hpp</text>
</a>
</g>
</g>
<!-- Node32&#45;&gt;Node35 -->
<g id="edge49" class="edge"><title>Node32&#45;&gt;Node35</title>
<path fill="none" stroke="midnightblue" d="M209,-304.403C209,-295.938 209,-282.728 209,-271.82"/>
<polygon fill="midnightblue" stroke="midnightblue" points="212.5,-271.581 209,-261.581 205.5,-271.581 212.5,-271.581"/>
</g>
<!-- Node36 -->
<g id="node36" class="node"><title>Node36</title>
<polygon fill="white" stroke="#bfbfbf" points="294.5,-242.5 294.5,-261.5 335.5,-261.5 335.5,-242.5 294.5,-242.5"/>
<text text-anchor="middle" x="315" y="-249.5" font-family="Helvetica,sans-Serif" font-size="10.00">ctime</text>
</g>
<!-- Node32&#45;&gt;Node36 -->
<g id="edge53" class="edge"><title>Node32&#45;&gt;Node36</title>
<path fill="none" stroke="midnightblue" d="M224.187,-304.403C241.662,-294.512 270.579,-278.144 291.083,-266.538"/>
<polygon fill="midnightblue" stroke="midnightblue" points="292.862,-269.553 299.841,-261.581 289.414,-263.461 292.862,-269.553"/>
</g>
<!-- Node35&#45;&gt;Node5 -->
<g id="edge50" class="edge"><title>Node35&#45;&gt;Node5</title>
<path fill="none" stroke="midnightblue" d="M229.912,-242.415C266.95,-227.237 346.537,-194.741 414,-168 442.465,-156.717 474.972,-144.132 498.318,-135.147"/>
<polygon fill="midnightblue" stroke="midnightblue" points="499.646,-138.386 507.724,-131.53 497.134,-131.852 499.646,-138.386"/>
</g>
<!-- Node35&#45;&gt;Node26 -->
<g id="edge52" class="edge"><title>Node35&#45;&gt;Node26</title>
<path fill="none" stroke="midnightblue" d="M250.636,-242.439C315.474,-229.108 439.189,-203.671 497.745,-191.632"/>
<polygon fill="midnightblue" stroke="midnightblue" points="498.802,-194.988 507.892,-189.546 497.392,-188.131 498.802,-194.988"/>
</g>
<!-- Node35&#45;&gt;Node34 -->
<g id="edge51" class="edge"><title>Node35&#45;&gt;Node34</title>
<path fill="none" stroke="midnightblue" d="M203.509,-242.372C197.068,-232.25 186.228,-215.215 178.029,-202.331"/>
<polygon fill="midnightblue" stroke="midnightblue" points="180.948,-200.399 172.626,-193.841 175.042,-204.157 180.948,-200.399"/>
</g>
<!-- Node37&#45;&gt;Node22 -->
<g id="edge56" class="edge"><title>Node37&#45;&gt;Node22</title>
<path fill="none" stroke="midnightblue" d="M931.581,-379.516C908.556,-388.585 868.976,-403.004 839.332,-413.172"/>
<polygon fill="midnightblue" stroke="midnightblue" points="838.042,-409.914 829.698,-416.444 840.293,-416.542 838.042,-409.914"/>
</g>
</g>
</svg>
