<?xml version="1.0" encoding="UTF-8" standalone="no"?>
<!DOCTYPE svg PUBLIC "-//W3C//DTD SVG 1.1//EN"
 "http://www.w3.org/Graphics/SVG/1.1/DTD/svg11.dtd">
<!-- Generated by graphviz version 2.36.0 (20140111.2315)
 -->
<!-- Title: /home/travis/build/STORM&#45;IRIT/Radium&#45;Engine/src/Engine/Renderer/RenderObject/RenderObject.hpp Pages: 1 -->
<svg width="3307pt" height="332pt"
 viewBox="0.00 0.00 3307.00 332.00" xmlns="http://www.w3.org/2000/svg" xmlns:xlink="http://www.w3.org/1999/xlink">
<g id="graph0" class="graph" transform="scale(1 1) rotate(0) translate(4 328)">
<title>/home/travis/build/STORM&#45;IRIT/Radium&#45;Engine/src/Engine/Renderer/RenderObject/RenderObject.hpp</title>
<polygon fill="white" stroke="none" points="-4,4 -4,-328 3303,-328 3303,4 -4,4"/>
<!-- Node1 -->
<g id="node1" class="node"><title>Node1</title>
<polygon fill="#bfbfbf" stroke="black" points="1785,-271 1785,-323 1957,-323 1957,-271 1785,-271"/>
<text text-anchor="start" x="1793" y="-311" font-family="Helvetica,sans-Serif" font-size="10.00">/home/travis/build</text>
<text text-anchor="start" x="1793" y="-300" font-family="Helvetica,sans-Serif" font-size="10.00">/STORM&#45;IRIT/Radium&#45;Engine</text>
<text text-anchor="start" x="1793" y="-289" font-family="Helvetica,sans-Serif" font-size="10.00">/src/Engine/Renderer/RenderObject</text>
<text text-anchor="middle" x="1871" y="-278" font-family="Helvetica,sans-Serif" font-size="10.00">/RenderObject.hpp</text>
</g>
<!-- Node2 -->
<g id="node2" class="node"><title>Node2</title>
<g id="a_node2"><a xlink:href="Component_8cpp.html" target="_top" xlink:title="/home/travis/build\l/STORM&#45;IRIT/Radium&#45;Engine\l/src/Engine/Component/Component.cpp">
<polygon fill="white" stroke="black" points="-0.5,-186.5 -0.5,-227.5 190.5,-227.5 190.5,-186.5 -0.5,-186.5"/>
<text text-anchor="start" x="7.5" y="-215.5" font-family="Helvetica,sans-Serif" font-size="10.00">/home/travis/build</text>
<text text-anchor="start" x="7.5" y="-204.5" font-family="Helvetica,sans-Serif" font-size="10.00">/STORM&#45;IRIT/Radium&#45;Engine</text>
<text text-anchor="middle" x="95" y="-193.5" font-family="Helvetica,sans-Serif" font-size="10.00">/src/Engine/Component/Component.cpp</text>
</a>
</g>
</g>
<!-- Node1&#45;&gt;Node2 -->
<g id="edge1" class="edge"><title>Node1&#45;&gt;Node2</title>
<path fill="none" stroke="midnightblue" d="M1774.56,-295.057C1466.19,-291.628 506.38,-277.637 199,-234 187.852,-232.417 176.165,-230.131 164.816,-227.561"/>
<polygon fill="midnightblue" stroke="midnightblue" points="1774.78,-298.56 1784.82,-295.17 1774.86,-291.56 1774.78,-298.56"/>
</g>
<!-- Node3 -->
<g id="node3" class="node"><title>Node3</title>
<g id="a_node3"><a xlink:href="ItemEntry_8cpp.html" target="_top" xlink:title="/home/travis/build\l/STORM&#45;IRIT/Radium&#45;Engine\l/src/Engine/ItemModel/ItemEntry.cpp">
<polygon fill="white" stroke="black" points="208.5,-186.5 208.5,-227.5 387.5,-227.5 387.5,-186.5 208.5,-186.5"/>
<text text-anchor="start" x="216.5" y="-215.5" font-family="Helvetica,sans-Serif" font-size="10.00">/home/travis/build</text>
<text text-anchor="start" x="216.5" y="-204.5" font-family="Helvetica,sans-Serif" font-size="10.00">/STORM&#45;IRIT/Radium&#45;Engine</text>
<text text-anchor="middle" x="298" y="-193.5" font-family="Helvetica,sans-Serif" font-size="10.00">/src/Engine/ItemModel/ItemEntry.cpp</text>
</a>
</g>
</g>
<!-- Node1&#45;&gt;Node3 -->
<g id="edge2" class="edge"><title>Node1&#45;&gt;Node3</title>
<path fill="none" stroke="midnightblue" d="M1774.65,-294.682C1491.17,-290.372 663.201,-274.567 396,-234 385.471,-232.401 374.445,-230.106 363.746,-227.533"/>
<polygon fill="midnightblue" stroke="midnightblue" points="1774.85,-298.186 1784.91,-294.837 1774.96,-291.186 1774.85,-298.186"/>
</g>
<!-- Node4 -->
<g id="node4" class="node"><title>Node4</title>
<g id="a_node4"><a xlink:href="DefaultLightManager_8cpp.html" target="_top" xlink:title="/home/travis/build\l/STORM&#45;IRIT/Radium&#45;Engine\l/src/Engine/Managers/LightManager\l/DefaultLightManager.cpp">
<polygon fill="white" stroke="black" points="405.5,-181 405.5,-233 578.5,-233 578.5,-181 405.5,-181"/>
<text text-anchor="start" x="413.5" y="-221" font-family="Helvetica,sans-Serif" font-size="10.00">/home/travis/build</text>
<text text-anchor="start" x="413.5" y="-210" font-family="Helvetica,sans-Serif" font-size="10.00">/STORM&#45;IRIT/Radium&#45;Engine</text>
<text text-anchor="start" x="413.5" y="-199" font-family="Helvetica,sans-Serif" font-size="10.00">/src/Engine/Managers/LightManager</text>
<text text-anchor="middle" x="492" y="-188" font-family="Helvetica,sans-Serif" font-size="10.00">/DefaultLightManager.cpp</text>
</a>
</g>
</g>
<!-- Node1&#45;&gt;Node4 -->
<g id="edge3" class="edge"><title>Node1&#45;&gt;Node4</title>
<path fill="none" stroke="midnightblue" d="M1774.83,-294.046C1517.36,-288.383 816.518,-270.032 588,-234 584.93,-233.516 581.817,-232.971 578.682,-232.377"/>
<polygon fill="midnightblue" stroke="midnightblue" points="1774.83,-297.546 1784.91,-294.266 1774.98,-290.548 1774.83,-297.546"/>
</g>
<!-- Node5 -->
<g id="node5" class="node"><title>Node5</title>
<g id="a_node5"><a xlink:href="RadiumEngine_8cpp.html" target="_top" xlink:title="/home/travis/build\l/STORM&#45;IRIT/Radium&#45;Engine\l/src/Engine/RadiumEngine.cpp">
<polygon fill="white" stroke="black" points="597,-186.5 597,-227.5 749,-227.5 749,-186.5 597,-186.5"/>
<text text-anchor="start" x="605" y="-215.5" font-family="Helvetica,sans-Serif" font-size="10.00">/home/travis/build</text>
<text text-anchor="start" x="605" y="-204.5" font-family="Helvetica,sans-Serif" font-size="10.00">/STORM&#45;IRIT/Radium&#45;Engine</text>
<text text-anchor="middle" x="673" y="-193.5" font-family="Helvetica,sans-Serif" font-size="10.00">/src/Engine/RadiumEngine.cpp</text>
</a>
</g>
</g>
<!-- Node1&#45;&gt;Node5 -->
<g id="edge4" class="edge"><title>Node1&#45;&gt;Node5</title>
<path fill="none" stroke="midnightblue" d="M1774.57,-293.612C1541.39,-287.357 951.959,-268.543 758,-234 748.884,-232.377 739.372,-230.086 730.151,-227.53"/>
<polygon fill="midnightblue" stroke="midnightblue" points="1774.64,-297.115 1784.73,-293.883 1774.83,-290.118 1774.64,-297.115"/>
</g>
<!-- Node6 -->
<g id="node6" class="node"><title>Node6</title>
<g id="a_node6"><a xlink:href="Renderer_8cpp.html" target="_top" xlink:title="/home/travis/build\l/STORM&#45;IRIT/Radium&#45;Engine\l/src/Engine/Renderer/Renderer.cpp">
<polygon fill="white" stroke="black" points="767,-186.5 767,-227.5 937,-227.5 937,-186.5 767,-186.5"/>
<text text-anchor="start" x="775" y="-215.5" font-family="Helvetica,sans-Serif" font-size="10.00">/home/travis/build</text>
<text text-anchor="start" x="775" y="-204.5" font-family="Helvetica,sans-Serif" font-size="10.00">/STORM&#45;IRIT/Radium&#45;Engine</text>
<text text-anchor="middle" x="852" y="-193.5" font-family="Helvetica,sans-Serif" font-size="10.00">/src/Engine/Renderer/Renderer.cpp</text>
</a>
</g>
</g>
<!-- Node1&#45;&gt;Node6 -->
<g id="edge5" class="edge"><title>Node1&#45;&gt;Node6</title>
<path fill="none" stroke="midnightblue" d="M1774.76,-295.95C1605.8,-294.444 1245.33,-284.886 946,-234 936.151,-232.326 925.849,-230.042 915.826,-227.519"/>
<polygon fill="midnightblue" stroke="midnightblue" points="1774.85,-299.451 1784.88,-296.033 1774.9,-292.451 1774.85,-299.451"/>
</g>
<!-- Node7 -->
<g id="node7" class="node"><title>Node7</title>
<g id="a_node7"><a xlink:href="ForwardRenderer_8cpp.html" target="_top" xlink:title="/home/travis/build\l/STORM&#45;IRIT/Radium&#45;Engine\l/src/Engine/Renderer/Renderers\l/ForwardRenderer.cpp">
<polygon fill="white" stroke="black" points="955.5,-181 955.5,-233 1112.5,-233 1112.5,-181 955.5,-181"/>
<text text-anchor="start" x="963.5" y="-221" font-family="Helvetica,sans-Serif" font-size="10.00">/home/travis/build</text>
<text text-anchor="start" x="963.5" y="-210" font-family="Helvetica,sans-Serif" font-size="10.00">/STORM&#45;IRIT/Radium&#45;Engine</text>
<text text-anchor="start" x="963.5" y="-199" font-family="Helvetica,sans-Serif" font-size="10.00">/src/Engine/Renderer/Renderers</text>
<text text-anchor="middle" x="1034" y="-188" font-family="Helvetica,sans-Serif" font-size="10.00">/ForwardRenderer.cpp</text>
</a>
</g>
</g>
<!-- Node1&#45;&gt;Node7 -->
<g id="edge6" class="edge"><title>Node1&#45;&gt;Node7</title>
<path fill="none" stroke="midnightblue" d="M1774.78,-294.314C1631.41,-290.391 1353.71,-277.347 1122,-234 1119.02,-233.443 1116.01,-232.826 1112.97,-232.161"/>
<polygon fill="midnightblue" stroke="midnightblue" points="1774.78,-297.815 1784.87,-294.581 1774.97,-290.817 1774.78,-297.815"/>
</g>
<!-- Node8 -->
<g id="node8" class="node"><title>Node8</title>
<g id="a_node8"><a xlink:href="DrawPrimitives_8cpp.html" target="_top" xlink:title="/home/travis/build\l/STORM&#45;IRIT/Radium&#45;Engine\l/src/Engine/Renderer/RenderObject\l/Primitives/DrawPrimitives.cpp">
<polygon fill="white" stroke="black" points="1131,-181 1131,-233 1303,-233 1303,-181 1131,-181"/>
<text text-anchor="start" x="1139" y="-221" font-family="Helvetica,sans-Serif" font-size="10.00">/home/travis/build</text>
<text text-anchor="start" x="1139" y="-210" font-family="Helvetica,sans-Serif" font-size="10.00">/STORM&#45;IRIT/Radium&#45;Engine</text>
<text text-anchor="start" x="1139" y="-199" font-family="Helvetica,sans-Serif" font-size="10.00">/src/Engine/Renderer/RenderObject</text>
<text text-anchor="middle" x="1217" y="-188" font-family="Helvetica,sans-Serif" font-size="10.00">/Primitives/DrawPrimitives.cpp</text>
</a>
</g>
</g>
<!-- Node1&#45;&gt;Node8 -->
<g id="edge7" class="edge"><title>Node1&#45;&gt;Node8</title>
<path fill="none" stroke="midnightblue" d="M1774.41,-289.903C1662.43,-281.77 1472.67,-264.7 1312,-234 1309.06,-233.438 1306.08,-232.832 1303.08,-232.19"/>
<polygon fill="midnightblue" stroke="midnightblue" points="1774.44,-293.414 1784.67,-290.638 1774.94,-286.432 1774.44,-293.414"/>
</g>
<!-- Node9 -->
<g id="node9" class="node"><title>Node9</title>
<g id="a_node9"><a xlink:href="RenderObject_8cpp.html" target="_top" xlink:title="/home/travis/build\l/STORM&#45;IRIT/Radium&#45;Engine\l/src/Engine/Renderer/RenderObject\l/RenderObject.cpp">
<polygon fill="white" stroke="black" points="1321,-181 1321,-233 1493,-233 1493,-181 1321,-181"/>
<text text-anchor="start" x="1329" y="-221" font-family="Helvetica,sans-Serif" font-size="10.00">/home/travis/build</text>
<text text-anchor="start" x="1329" y="-210" font-family="Helvetica,sans-Serif" font-size="10.00">/STORM&#45;IRIT/Radium&#45;Engine</text>
<text text-anchor="start" x="1329" y="-199" font-family="Helvetica,sans-Serif" font-size="10.00">/src/Engine/Renderer/RenderObject</text>
<text text-anchor="middle" x="1407" y="-188" font-family="Helvetica,sans-Serif" font-size="10.00">/RenderObject.cpp</text>
</a>
</g>
</g>
<!-- Node1&#45;&gt;Node9 -->
<g id="edge8" class="edge"><title>Node1&#45;&gt;Node9</title>
<path fill="none" stroke="midnightblue" d="M1774.45,-282.497C1699.7,-271.389 1593.79,-254.219 1502,-234 1499.08,-233.356 1496.11,-232.679 1493.12,-231.976"/>
<polygon fill="midnightblue" stroke="midnightblue" points="1774.38,-286.025 1784.78,-284.024 1775.4,-279.1 1774.38,-286.025"/>
</g>
<!-- Node10 -->
<g id="node10" class="node"><title>Node10</title>
<g id="a_node10"><a xlink:href="RenderObjectManager_8cpp.html" target="_top" xlink:title="/home/travis/build\l/STORM&#45;IRIT/Radium&#45;Engine\l/src/Engine/Renderer/RenderObject\l/RenderObjectManager.cpp">
<polygon fill="white" stroke="black" points="1511,-181 1511,-233 1683,-233 1683,-181 1511,-181"/>
<text text-anchor="start" x="1519" y="-221" font-family="Helvetica,sans-Serif" font-size="10.00">/home/travis/build</text>
<text text-anchor="start" x="1519" y="-210" font-family="Helvetica,sans-Serif" font-size="10.00">/STORM&#45;IRIT/Radium&#45;Engine</text>
<text text-anchor="start" x="1519" y="-199" font-family="Helvetica,sans-Serif" font-size="10.00">/src/Engine/Renderer/RenderObject</text>
<text text-anchor="middle" x="1597" y="-188" font-family="Helvetica,sans-Serif" font-size="10.00">/RenderObjectManager.cpp</text>
</a>
</g>
</g>
<!-- Node1&#45;&gt;Node10 -->
<g id="edge9" class="edge"><title>Node1&#45;&gt;Node10</title>
<path fill="none" stroke="midnightblue" d="M1783.2,-267.802C1748.51,-256.659 1708.95,-243.956 1675.25,-233.133"/>
<polygon fill="midnightblue" stroke="midnightblue" points="1782.26,-271.175 1792.85,-270.901 1784.4,-264.51 1782.26,-271.175"/>
</g>
<!-- Node11 -->
<g id="node11" class="node"><title>Node11</title>
<g id="a_node11"><a xlink:href="BaseApplication_8cpp.html" target="_top" xlink:title="/home/travis/build\l/STORM&#45;IRIT/Radium&#45;Engine\l/src/GuiBase/BaseApplication.cpp">
<polygon fill="white" stroke="black" points="1701,-186.5 1701,-227.5 1867,-227.5 1867,-186.5 1701,-186.5"/>
<text text-anchor="start" x="1709" y="-215.5" font-family="Helvetica,sans-Serif" font-size="10.00">/home/travis/build</text>
<text text-anchor="start" x="1709" y="-204.5" font-family="Helvetica,sans-Serif" font-size="10.00">/STORM&#45;IRIT/Radium&#45;Engine</text>
<text text-anchor="middle" x="1784" y="-193.5" font-family="Helvetica,sans-Serif" font-size="10.00">/src/GuiBase/BaseApplication.cpp</text>
</a>
</g>
</g>
<!-- Node1&#45;&gt;Node11 -->
<g id="edge10" class="edge"><title>Node1&#45;&gt;Node11</title>
<path fill="none" stroke="midnightblue" d="M1838.63,-263.254C1826.75,-251.237 1813.68,-238.019 1803.3,-227.525"/>
<polygon fill="midnightblue" stroke="midnightblue" points="1836.32,-265.896 1845.84,-270.547 1841.29,-260.975 1836.32,-265.896"/>
</g>
<!-- Node12 -->
<g id="node12" class="node"><title>Node12</title>
<g id="a_node12"><a xlink:href="Gizmo_8hpp.html" target="_top" xlink:title="/home/travis/build\l/STORM&#45;IRIT/Radium&#45;Engine\l/src/GuiBase/Viewer/Gizmo\l/Gizmo.hpp">
<polygon fill="white" stroke="black" points="1885,-181 1885,-233 2033,-233 2033,-181 1885,-181"/>
<text text-anchor="start" x="1893" y="-221" font-family="Helvetica,sans-Serif" font-size="10.00">/home/travis/build</text>
<text text-anchor="start" x="1893" y="-210" font-family="Helvetica,sans-Serif" font-size="10.00">/STORM&#45;IRIT/Radium&#45;Engine</text>
<text text-anchor="start" x="1893" y="-199" font-family="Helvetica,sans-Serif" font-size="10.00">/src/GuiBase/Viewer/Gizmo</text>
<text text-anchor="middle" x="1959" y="-188" font-family="Helvetica,sans-Serif" font-size="10.00">/Gizmo.hpp</text>
</a>
</g>
</g>
<!-- Node1&#45;&gt;Node12 -->
<g id="edge11" class="edge"><title>Node1&#45;&gt;Node12</title>
<path fill="none" stroke="midnightblue" d="M1903.57,-263.431C1913.59,-253.407 1924.47,-242.533 1933.91,-233.092"/>
<polygon fill="midnightblue" stroke="midnightblue" points="1901.05,-261.001 1896.45,-270.547 1906,-265.951 1901.05,-261.001"/>
</g>
<!-- Node17 -->
<g id="node17" class="node"><title>Node17</title>
<g id="a_node17"><a xlink:href="RotateGizmo_8cpp.html" target="_top" xlink:title="/home/travis/build\l/STORM&#45;IRIT/Radium&#45;Engine\l/src/GuiBase/Viewer/Gizmo\l/RotateGizmo.cpp">
<polygon fill="white" stroke="black" points="1872,-1 1872,-53 2020,-53 2020,-1 1872,-1"/>
<text text-anchor="start" x="1880" y="-41" font-family="Helvetica,sans-Serif" font-size="10.00">/home/travis/build</text>
<text text-anchor="start" x="1880" y="-30" font-family="Helvetica,sans-Serif" font-size="10.00">/STORM&#45;IRIT/Radium&#45;Engine</text>
<text text-anchor="start" x="1880" y="-19" font-family="Helvetica,sans-Serif" font-size="10.00">/src/GuiBase/Viewer/Gizmo</text>
<text text-anchor="middle" x="1946" y="-8" font-family="Helvetica,sans-Serif" font-size="10.00">/RotateGizmo.cpp</text>
</a>
</g>
</g>
<!-- Node1&#45;&gt;Node17 -->
<g id="edge21" class="edge"><title>Node1&#45;&gt;Node17</title>
<path fill="none" stroke="midnightblue" d="M1966.98,-282.868C1995.85,-273.927 2024.49,-258.973 2042,-234 2078.74,-181.597 2072.61,-146.206 2042,-90 2033.6,-74.5797 2019.54,-62.4114 2004.73,-53.0896"/>
<polygon fill="midnightblue" stroke="midnightblue" points="1965.84,-279.554 1957.19,-285.675 1967.77,-286.282 1965.84,-279.554"/>
</g>
<!-- Node19 -->
<g id="node19" class="node"><title>Node19</title>
<g id="a_node19"><a xlink:href="TranslateGizmo_8cpp.html" target="_top" xlink:title="/home/travis/build\l/STORM&#45;IRIT/Radium&#45;Engine\l/src/GuiBase/Viewer/Gizmo\l/TranslateGizmo.cpp">
<polygon fill="white" stroke="black" points="2038,-1 2038,-53 2186,-53 2186,-1 2038,-1"/>
<text text-anchor="start" x="2046" y="-41" font-family="Helvetica,sans-Serif" font-size="10.00">/home/travis/build</text>
<text text-anchor="start" x="2046" y="-30" font-family="Helvetica,sans-Serif" font-size="10.00">/STORM&#45;IRIT/Radium&#45;Engine</text>
<text text-anchor="start" x="2046" y="-19" font-family="Helvetica,sans-Serif" font-size="10.00">/src/GuiBase/Viewer/Gizmo</text>
<text text-anchor="middle" x="2112" y="-8" font-family="Helvetica,sans-Serif" font-size="10.00">/TranslateGizmo.cpp</text>
</a>
</g>
</g>
<!-- Node1&#45;&gt;Node19 -->
<g id="edge22" class="edge"><title>Node1&#45;&gt;Node19</title>
<path fill="none" stroke="midnightblue" d="M1967.34,-286.268C2003.57,-277.85 2042.2,-262.364 2068,-234 2114.27,-183.143 2116.31,-95.8851 2114.13,-53.1176"/>
<polygon fill="midnightblue" stroke="midnightblue" points="1966.23,-282.926 1957.2,-288.459 1967.71,-289.768 1966.23,-282.926"/>
</g>
<!-- Node20 -->
<g id="node20" class="node"><title>Node20</title>
<g id="a_node20"><a xlink:href="SkeletonBoneDrawable_8hpp.html" target="_top" xlink:title="/home/travis/build\l/STORM&#45;IRIT/Radium&#45;Engine\l/Plugins/Animation/src/Drawing\l/SkeletonBoneDrawable.hpp">
<polygon fill="white" stroke="black" points="2127,-181 2127,-233 2281,-233 2281,-181 2127,-181"/>
<text text-anchor="start" x="2135" y="-221" font-family="Helvetica,sans-Serif" font-size="10.00">/home/travis/build</text>
<text text-anchor="start" x="2135" y="-210" font-family="Helvetica,sans-Serif" font-size="10.00">/STORM&#45;IRIT/Radium&#45;Engine</text>
<text text-anchor="start" x="2135" y="-199" font-family="Helvetica,sans-Serif" font-size="10.00">/Plugins/Animation/src/Drawing</text>
<text text-anchor="middle" x="2204" y="-188" font-family="Helvetica,sans-Serif" font-size="10.00">/SkeletonBoneDrawable.hpp</text>
</a>
</g>
</g>
<!-- Node1&#45;&gt;Node20 -->
<g id="edge23" class="edge"><title>Node1&#45;&gt;Node20</title>
<path fill="none" stroke="midnightblue" d="M1967.04,-272.04C2011.52,-260.777 2065.03,-246.994 2113,-234 2117.44,-232.797 2122,-231.546 2126.59,-230.272"/>
<polygon fill="midnightblue" stroke="midnightblue" points="1965.95,-268.706 1957.11,-274.55 1967.66,-275.493 1965.95,-268.706"/>
</g>
<!-- Node24 -->
<g id="node24" class="node"><title>Node24</title>
<g id="a_node24"><a xlink:href="FancyMeshComponent_8cpp.html" target="_top" xlink:title="/home/travis/build\l/STORM&#45;IRIT/Radium&#45;Engine\l/Plugins/FancyMesh/src/FancyMesh\lComponent.cpp">
<polygon fill="white" stroke="black" points="2299,-181 2299,-233 2475,-233 2475,-181 2299,-181"/>
<text text-anchor="start" x="2307" y="-221" font-family="Helvetica,sans-Serif" font-size="10.00">/home/travis/build</text>
<text text-anchor="start" x="2307" y="-210" font-family="Helvetica,sans-Serif" font-size="10.00">/STORM&#45;IRIT/Radium&#45;Engine</text>
<text text-anchor="start" x="2307" y="-199" font-family="Helvetica,sans-Serif" font-size="10.00">/Plugins/FancyMesh/src/FancyMesh</text>
<text text-anchor="middle" x="2387" y="-188" font-family="Helvetica,sans-Serif" font-size="10.00">Component.cpp</text>
</a>
</g>
</g>
<!-- Node1&#45;&gt;Node24 -->
<g id="edge27" class="edge"><title>Node1&#45;&gt;Node24</title>
<path fill="none" stroke="midnightblue" d="M1967.3,-284.946C2052.59,-274.398 2180.22,-256.756 2290,-234 2292.9,-233.398 2295.85,-232.762 2298.82,-232.098"/>
<polygon fill="midnightblue" stroke="midnightblue" points="1966.87,-281.472 1957.37,-286.165 1967.73,-288.42 1966.87,-281.472"/>
</g>
<!-- Node25 -->
<g id="node25" class="node"><title>Node25</title>
<g id="a_node25"><a xlink:href="MeshFeatureTrackingComponent_8cpp.html" target="_top" xlink:title="/home/travis/build\l/STORM&#45;IRIT/Radium&#45;Engine\l/Plugins/MeshFeatureTracking\l/src/MeshFeatureTrackingComponent.cpp">
<polygon fill="white" stroke="black" points="2493,-181 2493,-233 2693,-233 2693,-181 2493,-181"/>
<text text-anchor="start" x="2501" y="-221" font-family="Helvetica,sans-Serif" font-size="10.00">/home/travis/build</text>
<text text-anchor="start" x="2501" y="-210" font-family="Helvetica,sans-Serif" font-size="10.00">/STORM&#45;IRIT/Radium&#45;Engine</text>
<text text-anchor="start" x="2501" y="-199" font-family="Helvetica,sans-Serif" font-size="10.00">/Plugins/MeshFeatureTracking</text>
<text text-anchor="middle" x="2593" y="-188" font-family="Helvetica,sans-Serif" font-size="10.00">/src/MeshFeatureTrackingComponent.cpp</text>
</a>
</g>
</g>
<!-- Node1&#45;&gt;Node25 -->
<g id="edge28" class="edge"><title>Node1&#45;&gt;Node25</title>
<path fill="none" stroke="midnightblue" d="M1967.1,-290.178C2088.06,-281.953 2301.94,-264.434 2483,-234 2486.29,-233.447 2489.63,-232.853 2492.99,-232.225"/>
<polygon fill="midnightblue" stroke="midnightblue" points="1966.86,-286.686 1957.12,-290.849 1967.33,-293.67 1966.86,-286.686"/>
</g>
<!-- Node26 -->
<g id="node26" class="node"><title>Node26</title>
<g id="a_node26"><a xlink:href="MeshPaintComponent_8cpp.html" target="_top" xlink:title="/home/travis/build\l/STORM&#45;IRIT/Radium&#45;Engine\l/Plugins/MeshPaint/src/MeshPaint\lComponent.cpp">
<polygon fill="white" stroke="black" points="2658.5,-91 2658.5,-143 2825.5,-143 2825.5,-91 2658.5,-91"/>
<text text-anchor="start" x="2666.5" y="-131" font-family="Helvetica,sans-Serif" font-size="10.00">/home/travis/build</text>
<text text-anchor="start" x="2666.5" y="-120" font-family="Helvetica,sans-Serif" font-size="10.00">/STORM&#45;IRIT/Radium&#45;Engine</text>
<text text-anchor="start" x="2666.5" y="-109" font-family="Helvetica,sans-Serif" font-size="10.00">/Plugins/MeshPaint/src/MeshPaint</text>
<text text-anchor="middle" x="2742" y="-98" font-family="Helvetica,sans-Serif" font-size="10.00">Component.cpp</text>
</a>
</g>
</g>
<!-- Node1&#45;&gt;Node26 -->
<g id="edge29" class="edge"><title>Node1&#45;&gt;Node26</title>
<path fill="none" stroke="midnightblue" d="M1967.34,-294.69C2173.82,-291.047 2644.95,-277.966 2702,-234 2729.84,-212.544 2738.41,-170.557 2740.98,-143.419"/>
<polygon fill="midnightblue" stroke="midnightblue" points="1967.05,-291.194 1957.11,-294.866 1967.17,-298.193 1967.05,-291.194"/>
</g>
<!-- Node27 -->
<g id="node27" class="node"><title>Node27</title>
<g id="a_node27"><a xlink:href="MeshPaintComponent_8hpp.html" target="_top" xlink:title="/home/travis/build\l/STORM&#45;IRIT/Radium&#45;Engine\l/Plugins/MeshPaint/src/MeshPaint\lComponent.hpp">
<polygon fill="white" stroke="black" points="2748.5,-181 2748.5,-233 2915.5,-233 2915.5,-181 2748.5,-181"/>
<text text-anchor="start" x="2756.5" y="-221" font-family="Helvetica,sans-Serif" font-size="10.00">/home/travis/build</text>
<text text-anchor="start" x="2756.5" y="-210" font-family="Helvetica,sans-Serif" font-size="10.00">/STORM&#45;IRIT/Radium&#45;Engine</text>
<text text-anchor="start" x="2756.5" y="-199" font-family="Helvetica,sans-Serif" font-size="10.00">/Plugins/MeshPaint/src/MeshPaint</text>
<text text-anchor="middle" x="2832" y="-188" font-family="Helvetica,sans-Serif" font-size="10.00">Component.hpp</text>
</a>
</g>
</g>
<!-- Node1&#45;&gt;Node27 -->
<g id="edge30" class="edge"><title>Node1&#45;&gt;Node27</title>
<path fill="none" stroke="midnightblue" d="M1967.5,-295.045C2127.91,-292.126 2459.1,-280.44 2735,-234 2739.38,-233.262 2743.86,-232.413 2748.36,-231.483"/>
<polygon fill="midnightblue" stroke="midnightblue" points="1967.12,-291.551 1957.18,-295.224 1967.24,-298.55 1967.12,-291.551"/>
</g>
<!-- Node29 -->
<g id="node29" class="node"><title>Node29</title>
<g id="a_node29"><a xlink:href="MeshPaintPlugin_8cpp.html" target="_top" xlink:title="/home/travis/build\l/STORM&#45;IRIT/Radium&#45;Engine\l/Plugins/MeshPaint/src/MeshPaint\lPlugin.cpp">
<polygon fill="white" stroke="black" points="2933.5,-181 2933.5,-233 3100.5,-233 3100.5,-181 2933.5,-181"/>
<text text-anchor="start" x="2941.5" y="-221" font-family="Helvetica,sans-Serif" font-size="10.00">/home/travis/build</text>
<text text-anchor="start" x="2941.5" y="-210" font-family="Helvetica,sans-Serif" font-size="10.00">/STORM&#45;IRIT/Radium&#45;Engine</text>
<text text-anchor="start" x="2941.5" y="-199" font-family="Helvetica,sans-Serif" font-size="10.00">/Plugins/MeshPaint/src/MeshPaint</text>
<text text-anchor="middle" x="3017" y="-188" font-family="Helvetica,sans-Serif" font-size="10.00">Plugin.cpp</text>
</a>
</g>
</g>
<!-- Node1&#45;&gt;Node29 -->
<g id="edge33" class="edge"><title>Node1&#45;&gt;Node29</title>
<path fill="none" stroke="midnightblue" d="M1967.37,-292.963C2191.31,-285.478 2741.56,-264.513 2924,-234 2927.06,-233.488 2930.16,-232.915 2933.29,-232.291"/>
<polygon fill="midnightblue" stroke="midnightblue" points="1967.16,-289.468 1957.28,-293.298 1967.39,-296.464 1967.16,-289.468"/>
</g>
<!-- Node30 -->
<g id="node30" class="node"><title>Node30</title>
<g id="a_node30"><a xlink:href="SkinningDisplayComponent_8hpp.html" target="_top" xlink:title="/home/travis/build\l/STORM&#45;IRIT/Radium&#45;Engine\l/Plugins/Skinning/src/Display\l/SkinningDisplayComponent.hpp">
<polygon fill="white" stroke="black" points="3118.5,-181 3118.5,-233 3277.5,-233 3277.5,-181 3118.5,-181"/>
<text text-anchor="start" x="3126.5" y="-221" font-family="Helvetica,sans-Serif" font-size="10.00">/home/travis/build</text>
<text text-anchor="start" x="3126.5" y="-210" font-family="Helvetica,sans-Serif" font-size="10.00">/STORM&#45;IRIT/Radium&#45;Engine</text>
<text text-anchor="start" x="3126.5" y="-199" font-family="Helvetica,sans-Serif" font-size="10.00">/Plugins/Skinning/src/Display</text>
<text text-anchor="middle" x="3198" y="-188" font-family="Helvetica,sans-Serif" font-size="10.00">/SkinningDisplayComponent.hpp</text>
</a>
</g>
</g>
<!-- Node1&#45;&gt;Node30 -->
<g id="edge34" class="edge"><title>Node1&#45;&gt;Node30</title>
<path fill="none" stroke="midnightblue" d="M1967.34,-294.089C2218.66,-288.638 2889.89,-270.965 3109,-234 3112.02,-233.491 3115.07,-232.915 3118.15,-232.283"/>
<polygon fill="midnightblue" stroke="midnightblue" points="1967.05,-290.594 1957.13,-294.309 1967.2,-297.593 1967.05,-290.594"/>
</g>
<!-- Node13 -->
<g id="node13" class="node"><title>Node13</title>
<g id="a_node13"><a xlink:href="GizmoManager_8hpp.html" target="_top" xlink:title="/home/travis/build\l/STORM&#45;IRIT/Radium&#45;Engine\l/src/GuiBase/Viewer/Gizmo\l/GizmoManager.hpp">
<polygon fill="white" stroke="black" points="1553,-91 1553,-143 1701,-143 1701,-91 1553,-91"/>
<text text-anchor="start" x="1561" y="-131" font-family="Helvetica,sans-Serif" font-size="10.00">/home/travis/build</text>
<text text-anchor="start" x="1561" y="-120" font-family="Helvetica,sans-Serif" font-size="10.00">/STORM&#45;IRIT/Radium&#45;Engine</text>
<text text-anchor="start" x="1561" y="-109" font-family="Helvetica,sans-Serif" font-size="10.00">/src/GuiBase/Viewer/Gizmo</text>
<text text-anchor="middle" x="1627" y="-98" font-family="Helvetica,sans-Serif" font-size="10.00">/GizmoManager.hpp</text>
</a>
</g>
</g>
<!-- Node12&#45;&gt;Node13 -->
<g id="edge12" class="edge"><title>Node12&#45;&gt;Node13</title>
<path fill="none" stroke="midnightblue" d="M1875.12,-179.867C1801.28,-160.874 1779.99,-162.511 1710,-144 1707.08,-143.228 1704.11,-142.418 1701.12,-141.58"/>
<polygon fill="midnightblue" stroke="midnightblue" points="1874.32,-183.278 1884.88,-182.42 1876.09,-176.505 1874.32,-183.278"/>
</g>
<!-- Node16 -->
<g id="node16" class="node"><title>Node16</title>
<g id="a_node16"><a xlink:href="RotateGizmo_8hpp.html" target="_top" xlink:title="/home/travis/build\l/STORM&#45;IRIT/Radium&#45;Engine\l/src/GuiBase/Viewer/Gizmo\l/RotateGizmo.hpp">
<polygon fill="white" stroke="black" points="1719,-91 1719,-143 1867,-143 1867,-91 1719,-91"/>
<text text-anchor="start" x="1727" y="-131" font-family="Helvetica,sans-Serif" font-size="10.00">/home/travis/build</text>
<text text-anchor="start" x="1727" y="-120" font-family="Helvetica,sans-Serif" font-size="10.00">/STORM&#45;IRIT/Radium&#45;Engine</text>
<text text-anchor="start" x="1727" y="-109" font-family="Helvetica,sans-Serif" font-size="10.00">/src/GuiBase/Viewer/Gizmo</text>
<text text-anchor="middle" x="1793" y="-98" font-family="Helvetica,sans-Serif" font-size="10.00">/RotateGizmo.hpp</text>
</a>
</g>
</g>
<!-- Node12&#45;&gt;Node16 -->
<g id="edge15" class="edge"><title>Node12&#45;&gt;Node16</title>
<path fill="none" stroke="midnightblue" d="M1902.33,-175.96C1882.14,-165.253 1859.62,-153.315 1840.29,-143.069"/>
<polygon fill="midnightblue" stroke="midnightblue" points="1900.96,-179.191 1911.43,-180.783 1904.24,-173.007 1900.96,-179.191"/>
</g>
<!-- Node18 -->
<g id="node18" class="node"><title>Node18</title>
<g id="a_node18"><a xlink:href="TranslateGizmo_8hpp.html" target="_top" xlink:title="/home/travis/build\l/STORM&#45;IRIT/Radium&#45;Engine\l/src/GuiBase/Viewer/Gizmo\l/TranslateGizmo.hpp">
<polygon fill="white" stroke="black" points="1885,-91 1885,-143 2033,-143 2033,-91 1885,-91"/>
<text text-anchor="start" x="1893" y="-131" font-family="Helvetica,sans-Serif" font-size="10.00">/home/travis/build</text>
<text text-anchor="start" x="1893" y="-120" font-family="Helvetica,sans-Serif" font-size="10.00">/STORM&#45;IRIT/Radium&#45;Engine</text>
<text text-anchor="start" x="1893" y="-109" font-family="Helvetica,sans-Serif" font-size="10.00">/src/GuiBase/Viewer/Gizmo</text>
<text text-anchor="middle" x="1959" y="-98" font-family="Helvetica,sans-Serif" font-size="10.00">/TranslateGizmo.hpp</text>
</a>
</g>
</g>
<!-- Node12&#45;&gt;Node18 -->
<g id="edge18" class="edge"><title>Node12&#45;&gt;Node18</title>
<path fill="none" stroke="midnightblue" d="M1959,-170.489C1959,-161.309 1959,-151.616 1959,-143.092"/>
<polygon fill="midnightblue" stroke="midnightblue" points="1955.5,-170.547 1959,-180.547 1962.5,-170.547 1955.5,-170.547"/>
</g>
<!-- Node14 -->
<g id="node14" class="node"><title>Node14</title>
<g id="a_node14"><a xlink:href="GizmoManager_8cpp.html" target="_top" xlink:title="/home/travis/build\l/STORM&#45;IRIT/Radium&#45;Engine\l/src/GuiBase/Viewer/Gizmo\l/GizmoManager.cpp">
<polygon fill="white" stroke="black" points="1706,-1 1706,-53 1854,-53 1854,-1 1706,-1"/>
<text text-anchor="start" x="1714" y="-41" font-family="Helvetica,sans-Serif" font-size="10.00">/home/travis/build</text>
<text text-anchor="start" x="1714" y="-30" font-family="Helvetica,sans-Serif" font-size="10.00">/STORM&#45;IRIT/Radium&#45;Engine</text>
<text text-anchor="start" x="1714" y="-19" font-family="Helvetica,sans-Serif" font-size="10.00">/src/GuiBase/Viewer/Gizmo</text>
<text text-anchor="middle" x="1780" y="-8" font-family="Helvetica,sans-Serif" font-size="10.00">/GizmoManager.cpp</text>
</a>
</g>
</g>
<!-- Node13&#45;&gt;Node14 -->
<g id="edge13" class="edge"><title>Node13&#45;&gt;Node14</title>
<path fill="none" stroke="midnightblue" d="M1679.73,-85.6704C1698.22,-75.0376 1718.76,-63.2222 1736.41,-53.0687"/>
<polygon fill="midnightblue" stroke="midnightblue" points="1677.77,-82.7629 1670.84,-90.7827 1681.26,-88.8309 1677.77,-82.7629"/>
</g>
<!-- Node15 -->
<g id="node15" class="node"><title>Node15</title>
<g id="a_node15"><a xlink:href="Viewer_8cpp.html" target="_top" xlink:title="/home/travis/build\l/STORM&#45;IRIT/Radium&#45;Engine\l/src/GuiBase/Viewer/Viewer.cpp">
<polygon fill="white" stroke="black" points="1530,-6.5 1530,-47.5 1688,-47.5 1688,-6.5 1530,-6.5"/>
<text text-anchor="start" x="1538" y="-35.5" font-family="Helvetica,sans-Serif" font-size="10.00">/home/travis/build</text>
<text text-anchor="start" x="1538" y="-24.5" font-family="Helvetica,sans-Serif" font-size="10.00">/STORM&#45;IRIT/Radium&#45;Engine</text>
<text text-anchor="middle" x="1609" y="-13.5" font-family="Helvetica,sans-Serif" font-size="10.00">/src/GuiBase/Viewer/Viewer.cpp</text>
</a>
</g>
</g>
<!-- Node13&#45;&gt;Node15 -->
<g id="edge14" class="edge"><title>Node13&#45;&gt;Node15</title>
<path fill="none" stroke="midnightblue" d="M1619.74,-80.5147C1617.44,-69.2575 1614.98,-57.227 1612.99,-47.5249"/>
<polygon fill="midnightblue" stroke="midnightblue" points="1616.36,-81.451 1621.79,-90.5468 1623.22,-80.0482 1616.36,-81.451"/>
</g>
<!-- Node16&#45;&gt;Node14 -->
<g id="edge16" class="edge"><title>Node16&#45;&gt;Node14</title>
<path fill="none" stroke="midnightblue" d="M1787.75,-80.4892C1786.4,-71.3088 1784.97,-61.616 1783.71,-53.0921"/>
<polygon fill="midnightblue" stroke="midnightblue" points="1784.32,-81.1656 1789.24,-90.5468 1791.24,-80.1426 1784.32,-81.1656"/>
</g>
<!-- Node16&#45;&gt;Node17 -->
<g id="edge17" class="edge"><title>Node16&#45;&gt;Node17</title>
<path fill="none" stroke="midnightblue" d="M1845.73,-85.6704C1864.22,-75.0376 1884.76,-63.2222 1902.41,-53.0687"/>
<polygon fill="midnightblue" stroke="midnightblue" points="1843.77,-82.7629 1836.84,-90.7827 1847.26,-88.8309 1843.77,-82.7629"/>
</g>
<!-- Node18&#45;&gt;Node14 -->
<g id="edge19" class="edge"><title>Node18&#45;&gt;Node14</title>
<path fill="none" stroke="midnightblue" d="M1898.48,-86.2492C1876.55,-75.4678 1852.02,-63.4068 1830.99,-53.0687"/>
<polygon fill="midnightblue" stroke="midnightblue" points="1897.19,-89.5118 1907.71,-90.7827 1900.28,-83.2298 1897.19,-89.5118"/>
</g>
<!-- Node18&#45;&gt;Node19 -->
<g id="edge20" class="edge"><title>Node18&#45;&gt;Node19</title>
<path fill="none" stroke="midnightblue" d="M2011.73,-85.6704C2030.22,-75.0376 2050.76,-63.2222 2068.41,-53.0687"/>
<polygon fill="midnightblue" stroke="midnightblue" points="2009.77,-82.7629 2002.84,-90.7827 2013.26,-88.8309 2009.77,-82.7629"/>
</g>
<!-- Node21 -->
<g id="node21" class="node"><title>Node21</title>
<g id="a_node21"><a xlink:href="AnimationComponent_8cpp.html" target="_top" xlink:title="/home/travis/build\l/STORM&#45;IRIT/Radium&#45;Engine\l/Plugins/Animation/src/Animation\lComponent.cpp">
<polygon fill="white" stroke="black" points="2127.5,-91 2127.5,-143 2288.5,-143 2288.5,-91 2127.5,-91"/>
<text text-anchor="start" x="2135.5" y="-131" font-family="Helvetica,sans-Serif" font-size="10.00">/home/travis/build</text>
<text text-anchor="start" x="2135.5" y="-120" font-family="Helvetica,sans-Serif" font-size="10.00">/STORM&#45;IRIT/Radium&#45;Engine</text>
<text text-anchor="start" x="2135.5" y="-109" font-family="Helvetica,sans-Serif" font-size="10.00">/Plugins/Animation/src/Animation</text>
<text text-anchor="middle" x="2208" y="-98" font-family="Helvetica,sans-Serif" font-size="10.00">Component.cpp</text>
</a>
</g>
</g>
<!-- Node20&#45;&gt;Node21 -->
<g id="edge24" class="edge"><title>Node20&#45;&gt;Node21</title>
<path fill="none" stroke="midnightblue" d="M2205.61,-170.489C2206.03,-161.309 2206.47,-151.616 2206.86,-143.092"/>
<polygon fill="midnightblue" stroke="midnightblue" points="2202.11,-170.398 2205.16,-180.547 2209.11,-170.716 2202.11,-170.398"/>
</g>
<!-- Node22 -->
<g id="node22" class="node"><title>Node22</title>
<g id="a_node22"><a xlink:href="AnimationSystem_8cpp.html" target="_top" xlink:title="/home/travis/build\l/STORM&#45;IRIT/Radium&#45;Engine\l/Plugins/Animation/src/Animation\lSystem.cpp">
<polygon fill="white" stroke="black" points="2306.5,-91 2306.5,-143 2467.5,-143 2467.5,-91 2306.5,-91"/>
<text text-anchor="start" x="2314.5" y="-131" font-family="Helvetica,sans-Serif" font-size="10.00">/home/travis/build</text>
<text text-anchor="start" x="2314.5" y="-120" font-family="Helvetica,sans-Serif" font-size="10.00">/STORM&#45;IRIT/Radium&#45;Engine</text>
<text text-anchor="start" x="2314.5" y="-109" font-family="Helvetica,sans-Serif" font-size="10.00">/Plugins/Animation/src/Animation</text>
<text text-anchor="middle" x="2387" y="-98" font-family="Helvetica,sans-Serif" font-size="10.00">System.cpp</text>
</a>
</g>
</g>
<!-- Node20&#45;&gt;Node22 -->
<g id="edge25" class="edge"><title>Node20&#45;&gt;Node22</title>
<path fill="none" stroke="midnightblue" d="M2265.57,-176.394C2288.06,-165.576 2313.27,-153.453 2334.87,-143.069"/>
<polygon fill="midnightblue" stroke="midnightblue" points="2263.94,-173.295 2256.44,-180.783 2266.97,-179.603 2263.94,-173.295"/>
</g>
<!-- Node23 -->
<g id="node23" class="node"><title>Node23</title>
<g id="a_node23"><a xlink:href="SkeletonBoneDrawable_8cpp.html" target="_top" xlink:title="/home/travis/build\l/STORM&#45;IRIT/Radium&#45;Engine\l/Plugins/Animation/src/Drawing\l/SkeletonBoneDrawable.cpp">
<polygon fill="white" stroke="black" points="2486,-91 2486,-143 2640,-143 2640,-91 2486,-91"/>
<text text-anchor="start" x="2494" y="-131" font-family="Helvetica,sans-Serif" font-size="10.00">/home/travis/build</text>
<text text-anchor="start" x="2494" y="-120" font-family="Helvetica,sans-Serif" font-size="10.00">/STORM&#45;IRIT/Radium&#45;Engine</text>
<text text-anchor="start" x="2494" y="-109" font-family="Helvetica,sans-Serif" font-size="10.00">/Plugins/Animation/src/Drawing</text>
<text text-anchor="middle" x="2563" y="-98" font-family="Helvetica,sans-Serif" font-size="10.00">/SkeletonBoneDrawable.cpp</text>
</a>
</g>
</g>
<!-- Node20&#45;&gt;Node23 -->
<g id="edge26" class="edge"><title>Node20&#45;&gt;Node23</title>
<path fill="none" stroke="midnightblue" d="M2291.05,-179.846C2373.49,-160.075 2397.26,-163.334 2476,-144 2479.21,-143.211 2482.49,-142.376 2485.79,-141.508"/>
<polygon fill="midnightblue" stroke="midnightblue" points="2290.14,-176.466 2281.25,-182.237 2291.8,-183.267 2290.14,-176.466"/>
</g>
<!-- Node27&#45;&gt;Node26 -->
<g id="edge31" class="edge"><title>Node27&#45;&gt;Node26</title>
<path fill="none" stroke="midnightblue" d="M2798.69,-173.431C2788.44,-163.407 2777.32,-152.533 2767.66,-143.092"/>
<polygon fill="midnightblue" stroke="midnightblue" points="2796.37,-176.058 2805.97,-180.547 2801.27,-171.053 2796.37,-176.058"/>
</g>
<!-- Node28 -->
<g id="node28" class="node"><title>Node28</title>
<g id="a_node28"><a xlink:href="MeshPaintSystem_8cpp.html" target="_top" xlink:title="/home/travis/build\l/STORM&#45;IRIT/Radium&#45;Engine\l/Plugins/MeshPaint/src/MeshPaint\lSystem.cpp">
<polygon fill="white" stroke="black" points="2843.5,-91 2843.5,-143 3010.5,-143 3010.5,-91 2843.5,-91"/>
<text text-anchor="start" x="2851.5" y="-131" font-family="Helvetica,sans-Serif" font-size="10.00">/home/travis/build</text>
<text text-anchor="start" x="2851.5" y="-120" font-family="Helvetica,sans-Serif" font-size="10.00">/STORM&#45;IRIT/Radium&#45;Engine</text>
<text text-anchor="start" x="2851.5" y="-109" font-family="Helvetica,sans-Serif" font-size="10.00">/Plugins/MeshPaint/src/MeshPaint</text>
<text text-anchor="middle" x="2927" y="-98" font-family="Helvetica,sans-Serif" font-size="10.00">System.cpp</text>
</a>
</g>
</g>
<!-- Node27&#45;&gt;Node28 -->
<g id="edge32" class="edge"><title>Node27&#45;&gt;Node28</title>
<path fill="none" stroke="midnightblue" d="M2866.6,-173.951C2877.53,-163.829 2889.44,-152.795 2899.77,-143.221"/>
<polygon fill="midnightblue" stroke="midnightblue" points="2864.18,-171.419 2859.22,-180.783 2868.94,-176.555 2864.18,-171.419"/>
</g>
<!-- Node31 -->
<g id="node31" class="node"><title>Node31</title>
<g id="a_node31"><a xlink:href="SkinningSystem_8hpp.html" target="_top" xlink:title="/home/travis/build\l/STORM&#45;IRIT/Radium&#45;Engine\l/Plugins/Skinning/src/SkinningSystem.hpp">
<polygon fill="white" stroke="black" points="3097,-96.5 3097,-137.5 3299,-137.5 3299,-96.5 3097,-96.5"/>
<text text-anchor="start" x="3105" y="-125.5" font-family="Helvetica,sans-Serif" font-size="10.00">/home/travis/build</text>
<text text-anchor="start" x="3105" y="-114.5" font-family="Helvetica,sans-Serif" font-size="10.00">/STORM&#45;IRIT/Radium&#45;Engine</text>
<text text-anchor="middle" x="3198" y="-103.5" font-family="Helvetica,sans-Serif" font-size="10.00">/Plugins/Skinning/src/SkinningSystem.hpp</text>
</a>
</g>
</g>
<!-- Node30&#45;&gt;Node31 -->
<g id="edge35" class="edge"><title>Node30&#45;&gt;Node31</title>
<path fill="none" stroke="midnightblue" d="M3198,-170.515C3198,-159.257 3198,-147.227 3198,-137.525"/>
<polygon fill="midnightblue" stroke="midnightblue" points="3194.5,-170.547 3198,-180.547 3201.5,-170.547 3194.5,-170.547"/>
</g>
<!-- Node32 -->
<g id="node32" class="node"><title>Node32</title>
<g id="a_node32"><a xlink:href="SkinningPlugin_8cpp.html" target="_top" xlink:title="/home/travis/build\l/STORM&#45;IRIT/Radium&#45;Engine\l/Plugins/Skinning/src/SkinningPlugin.cpp">
<polygon fill="white" stroke="black" points="3100.5,-6.5 3100.5,-47.5 3295.5,-47.5 3295.5,-6.5 3100.5,-6.5"/>
<text text-anchor="start" x="3108.5" y="-35.5" font-family="Helvetica,sans-Serif" font-size="10.00">/home/travis/build</text>
<text text-anchor="start" x="3108.5" y="-24.5" font-family="Helvetica,sans-Serif" font-size="10.00">/STORM&#45;IRIT/Radium&#45;Engine</text>
<text text-anchor="middle" x="3198" y="-13.5" font-family="Helvetica,sans-Serif" font-size="10.00">/Plugins/Skinning/src/SkinningPlugin.cpp</text>
</a>
</g>
</g>
<!-- Node31&#45;&gt;Node32 -->
<g id="edge36" class="edge"><title>Node31&#45;&gt;Node32</title>
<path fill="none" stroke="midnightblue" d="M3198,-86.3298C3198,-73.6289 3198,-59.1399 3198,-47.7798"/>
<polygon fill="midnightblue" stroke="midnightblue" points="3194.5,-86.4699 3198,-96.4699 3201.5,-86.47 3194.5,-86.4699"/>
</g>
</g>
</svg>
