<?xml version="1.0" encoding="UTF-8" standalone="no"?>
<!DOCTYPE svg PUBLIC "-//W3C//DTD SVG 1.1//EN"
 "http://www.w3.org/Graphics/SVG/1.1/DTD/svg11.dtd">
<!-- Generated by graphviz version 2.36.0 (20140111.2315)
 -->
<!-- Title: /home/travis/build/STORM&#45;IRIT/Radium&#45;Engine/src/Engine/Renderer/RenderTechnique/RenderParameters.hpp Pages: 1 -->
<svg width="1658pt" height="332pt"
 viewBox="0.00 0.00 1658.00 332.00" xmlns="http://www.w3.org/2000/svg" xmlns:xlink="http://www.w3.org/1999/xlink">
<g id="graph0" class="graph" transform="scale(1 1) rotate(0) translate(4 328)">
<title>/home/travis/build/STORM&#45;IRIT/Radium&#45;Engine/src/Engine/Renderer/RenderTechnique/RenderParameters.hpp</title>
<polygon fill="white" stroke="none" points="-4,4 -4,-328 1654,-328 1654,4 -4,4"/>
<!-- Node1 -->
<g id="node1" class="node"><title>Node1</title>
<polygon fill="#bfbfbf" stroke="black" points="837,-271 837,-323 1025,-323 1025,-271 837,-271"/>
<text text-anchor="start" x="845" y="-311" font-family="Helvetica,sans-Serif" font-size="10.00">/home/travis/build</text>
<text text-anchor="start" x="845" y="-300" font-family="Helvetica,sans-Serif" font-size="10.00">/STORM&#45;IRIT/Radium&#45;Engine</text>
<text text-anchor="start" x="845" y="-289" font-family="Helvetica,sans-Serif" font-size="10.00">/src/Engine/Renderer/RenderTechnique</text>
<text text-anchor="middle" x="931" y="-278" font-family="Helvetica,sans-Serif" font-size="10.00">/RenderParameters.hpp</text>
</g>
<!-- Node2 -->
<g id="node2" class="node"><title>Node2</title>
<g id="a_node2"><a xlink:href="LightManager_8hpp.html" target="_top" xlink:title="/home/travis/build\l/STORM&#45;IRIT/Radium&#45;Engine\l/src/Engine/Managers/LightManager\l/LightManager.hpp">
<polygon fill="white" stroke="black" points="284.5,-181 284.5,-233 457.5,-233 457.5,-181 284.5,-181"/>
<text text-anchor="start" x="292.5" y="-221" font-family="Helvetica,sans-Serif" font-size="10.00">/home/travis/build</text>
<text text-anchor="start" x="292.5" y="-210" font-family="Helvetica,sans-Serif" font-size="10.00">/STORM&#45;IRIT/Radium&#45;Engine</text>
<text text-anchor="start" x="292.5" y="-199" font-family="Helvetica,sans-Serif" font-size="10.00">/src/Engine/Managers/LightManager</text>
<text text-anchor="middle" x="371" y="-188" font-family="Helvetica,sans-Serif" font-size="10.00">/LightManager.hpp</text>
</a>
</g>
</g>
<!-- Node1&#45;&gt;Node2 -->
<g id="edge1" class="edge"><title>Node1&#45;&gt;Node2</title>
<path fill="none" stroke="midnightblue" d="M826.837,-279.632C720.426,-262.91 557.1,-237.244 457.562,-221.603"/>
<polygon fill="midnightblue" stroke="midnightblue" points="826.531,-283.126 836.953,-281.221 827.618,-276.211 826.531,-283.126"/>
</g>
<!-- Node5 -->
<g id="node5" class="node"><title>Node5</title>
<g id="a_node5"><a xlink:href="ForwardRenderer_8cpp.html" target="_top" xlink:title="/home/travis/build\l/STORM&#45;IRIT/Radium&#45;Engine\l/src/Engine/Renderer/Renderers\l/ForwardRenderer.cpp">
<polygon fill="white" stroke="black" points="345.5,-1 345.5,-53 502.5,-53 502.5,-1 345.5,-1"/>
<text text-anchor="start" x="353.5" y="-41" font-family="Helvetica,sans-Serif" font-size="10.00">/home/travis/build</text>
<text text-anchor="start" x="353.5" y="-30" font-family="Helvetica,sans-Serif" font-size="10.00">/STORM&#45;IRIT/Radium&#45;Engine</text>
<text text-anchor="start" x="353.5" y="-19" font-family="Helvetica,sans-Serif" font-size="10.00">/src/Engine/Renderer/Renderers</text>
<text text-anchor="middle" x="424" y="-8" font-family="Helvetica,sans-Serif" font-size="10.00">/ForwardRenderer.cpp</text>
</a>
</g>
</g>
<!-- Node1&#45;&gt;Node5 -->
<g id="edge11" class="edge"><title>Node1&#45;&gt;Node5</title>
<path fill="none" stroke="midnightblue" d="M826.614,-288.569C741.967,-280.416 631.557,-264.251 599,-234 550.51,-188.944 603.738,-140.544 561,-90 545.745,-71.9584 524.154,-58.9244 502.614,-49.6122"/>
<polygon fill="midnightblue" stroke="midnightblue" points="826.519,-292.075 836.802,-289.524 827.172,-285.106 826.519,-292.075"/>
</g>
<!-- Node8 -->
<g id="node8" class="node"><title>Node8</title>
<g id="a_node8"><a xlink:href="DirLight_8cpp.html" target="_top" xlink:title="/home/travis/build\l/STORM&#45;IRIT/Radium&#45;Engine\l/src/Engine/Renderer/Light\l/DirLight.cpp">
<polygon fill="white" stroke="black" points="608,-181 608,-233 756,-233 756,-181 608,-181"/>
<text text-anchor="start" x="616" y="-221" font-family="Helvetica,sans-Serif" font-size="10.00">/home/travis/build</text>
<text text-anchor="start" x="616" y="-210" font-family="Helvetica,sans-Serif" font-size="10.00">/STORM&#45;IRIT/Radium&#45;Engine</text>
<text text-anchor="start" x="616" y="-199" font-family="Helvetica,sans-Serif" font-size="10.00">/src/Engine/Renderer/Light</text>
<text text-anchor="middle" x="682" y="-188" font-family="Helvetica,sans-Serif" font-size="10.00">/DirLight.cpp</text>
</a>
</g>
</g>
<!-- Node1&#45;&gt;Node8 -->
<g id="edge7" class="edge"><title>Node1&#45;&gt;Node8</title>
<path fill="none" stroke="midnightblue" d="M850.402,-267.516C819.068,-256.442 783.478,-243.864 753.115,-233.133"/>
<polygon fill="midnightblue" stroke="midnightblue" points="849.385,-270.868 859.98,-270.901 851.718,-264.268 849.385,-270.868"/>
</g>
<!-- Node9 -->
<g id="node9" class="node"><title>Node9</title>
<g id="a_node9"><a xlink:href="Light_8cpp.html" target="_top" xlink:title="/home/travis/build\l/STORM&#45;IRIT/Radium&#45;Engine\l/src/Engine/Renderer/Light\l/Light.cpp">
<polygon fill="white" stroke="black" points="774,-181 774,-233 922,-233 922,-181 774,-181"/>
<text text-anchor="start" x="782" y="-221" font-family="Helvetica,sans-Serif" font-size="10.00">/home/travis/build</text>
<text text-anchor="start" x="782" y="-210" font-family="Helvetica,sans-Serif" font-size="10.00">/STORM&#45;IRIT/Radium&#45;Engine</text>
<text text-anchor="start" x="782" y="-199" font-family="Helvetica,sans-Serif" font-size="10.00">/src/Engine/Renderer/Light</text>
<text text-anchor="middle" x="848" y="-188" font-family="Helvetica,sans-Serif" font-size="10.00">/Light.cpp</text>
</a>
</g>
</g>
<!-- Node1&#45;&gt;Node9 -->
<g id="edge8" class="edge"><title>Node1&#45;&gt;Node9</title>
<path fill="none" stroke="midnightblue" d="M900.006,-263.139C890.628,-253.196 880.484,-242.441 871.666,-233.092"/>
<polygon fill="midnightblue" stroke="midnightblue" points="897.585,-265.674 906.993,-270.547 902.678,-260.871 897.585,-265.674"/>
</g>
<!-- Node10 -->
<g id="node10" class="node"><title>Node10</title>
<g id="a_node10"><a xlink:href="PointLight_8cpp.html" target="_top" xlink:title="/home/travis/build\l/STORM&#45;IRIT/Radium&#45;Engine\l/src/Engine/Renderer/Light\l/PointLight.cpp">
<polygon fill="white" stroke="black" points="940,-181 940,-233 1088,-233 1088,-181 940,-181"/>
<text text-anchor="start" x="948" y="-221" font-family="Helvetica,sans-Serif" font-size="10.00">/home/travis/build</text>
<text text-anchor="start" x="948" y="-210" font-family="Helvetica,sans-Serif" font-size="10.00">/STORM&#45;IRIT/Radium&#45;Engine</text>
<text text-anchor="start" x="948" y="-199" font-family="Helvetica,sans-Serif" font-size="10.00">/src/Engine/Renderer/Light</text>
<text text-anchor="middle" x="1014" y="-188" font-family="Helvetica,sans-Serif" font-size="10.00">/PointLight.cpp</text>
</a>
</g>
</g>
<!-- Node1&#45;&gt;Node10 -->
<g id="edge9" class="edge"><title>Node1&#45;&gt;Node10</title>
<path fill="none" stroke="midnightblue" d="M961.994,-263.139C971.372,-253.196 981.516,-242.441 990.334,-233.092"/>
<polygon fill="midnightblue" stroke="midnightblue" points="959.322,-260.871 955.007,-270.547 964.415,-265.674 959.322,-260.871"/>
</g>
<!-- Node11 -->
<g id="node11" class="node"><title>Node11</title>
<g id="a_node11"><a xlink:href="SpotLight_8cpp.html" target="_top" xlink:title="/home/travis/build\l/STORM&#45;IRIT/Radium&#45;Engine\l/src/Engine/Renderer/Light\l/SpotLight.cpp">
<polygon fill="white" stroke="black" points="1106,-181 1106,-233 1254,-233 1254,-181 1106,-181"/>
<text text-anchor="start" x="1114" y="-221" font-family="Helvetica,sans-Serif" font-size="10.00">/home/travis/build</text>
<text text-anchor="start" x="1114" y="-210" font-family="Helvetica,sans-Serif" font-size="10.00">/STORM&#45;IRIT/Radium&#45;Engine</text>
<text text-anchor="start" x="1114" y="-199" font-family="Helvetica,sans-Serif" font-size="10.00">/src/Engine/Renderer/Light</text>
<text text-anchor="middle" x="1180" y="-188" font-family="Helvetica,sans-Serif" font-size="10.00">/SpotLight.cpp</text>
</a>
</g>
</g>
<!-- Node1&#45;&gt;Node11 -->
<g id="edge10" class="edge"><title>Node1&#45;&gt;Node11</title>
<path fill="none" stroke="midnightblue" d="M1011.6,-267.516C1042.93,-256.442 1078.52,-243.864 1108.89,-233.133"/>
<polygon fill="midnightblue" stroke="midnightblue" points="1010.28,-264.268 1002.02,-270.901 1012.61,-270.868 1010.28,-264.268"/>
</g>
<!-- Node12 -->
<g id="node12" class="node"><title>Node12</title>
<g id="a_node12"><a xlink:href="RenderObject_8cpp.html" target="_top" xlink:title="/home/travis/build\l/STORM&#45;IRIT/Radium&#45;Engine\l/src/Engine/Renderer/RenderObject\l/RenderObject.cpp">
<polygon fill="white" stroke="black" points="1272,-181 1272,-233 1444,-233 1444,-181 1272,-181"/>
<text text-anchor="start" x="1280" y="-221" font-family="Helvetica,sans-Serif" font-size="10.00">/home/travis/build</text>
<text text-anchor="start" x="1280" y="-210" font-family="Helvetica,sans-Serif" font-size="10.00">/STORM&#45;IRIT/Radium&#45;Engine</text>
<text text-anchor="start" x="1280" y="-199" font-family="Helvetica,sans-Serif" font-size="10.00">/src/Engine/Renderer/RenderObject</text>
<text text-anchor="middle" x="1358" y="-188" font-family="Helvetica,sans-Serif" font-size="10.00">/RenderObject.cpp</text>
</a>
</g>
</g>
<!-- Node1&#45;&gt;Node12 -->
<g id="edge12" class="edge"><title>Node1&#45;&gt;Node12</title>
<path fill="none" stroke="midnightblue" d="M1035.1,-278.831C1100.76,-267.443 1187.17,-251.425 1263,-234 1265.92,-233.33 1268.88,-232.63 1271.87,-231.907"/>
<polygon fill="midnightblue" stroke="midnightblue" points="1034.42,-275.398 1025.16,-280.548 1035.61,-282.296 1034.42,-275.398"/>
</g>
<!-- Node13 -->
<g id="node13" class="node"><title>Node13</title>
<g id="a_node13"><a xlink:href="RenderParameters_8cpp.html" target="_top" xlink:title="/home/travis/build\l/STORM&#45;IRIT/Radium&#45;Engine\l/src/Engine/Renderer/RenderTechnique\l/RenderParameters.cpp">
<polygon fill="white" stroke="black" points="1462,-181 1462,-233 1650,-233 1650,-181 1462,-181"/>
<text text-anchor="start" x="1470" y="-221" font-family="Helvetica,sans-Serif" font-size="10.00">/home/travis/build</text>
<text text-anchor="start" x="1470" y="-210" font-family="Helvetica,sans-Serif" font-size="10.00">/STORM&#45;IRIT/Radium&#45;Engine</text>
<text text-anchor="start" x="1470" y="-199" font-family="Helvetica,sans-Serif" font-size="10.00">/src/Engine/Renderer/RenderTechnique</text>
<text text-anchor="middle" x="1556" y="-188" font-family="Helvetica,sans-Serif" font-size="10.00">/RenderParameters.cpp</text>
</a>
</g>
</g>
<!-- Node1&#45;&gt;Node13 -->
<g id="edge13" class="edge"><title>Node1&#45;&gt;Node13</title>
<path fill="none" stroke="midnightblue" d="M1035.42,-287.593C1141.22,-278.139 1309.34,-260.55 1453,-234 1455.9,-233.464 1458.84,-232.893 1461.81,-232.294"/>
<polygon fill="midnightblue" stroke="midnightblue" points="1035.03,-284.113 1025.38,-288.482 1035.65,-291.086 1035.03,-284.113"/>
</g>
<!-- Node3 -->
<g id="node3" class="node"><title>Node3</title>
<g id="a_node3"><a xlink:href="DefaultLightManager_8hpp.html" target="_top" xlink:title="/home/travis/build\l/STORM&#45;IRIT/Radium&#45;Engine\l/src/Engine/Managers/LightManager\l/DefaultLightManager.hpp">
<polygon fill="white" stroke="black" points="-0.5,-91 -0.5,-143 172.5,-143 172.5,-91 -0.5,-91"/>
<text text-anchor="start" x="7.5" y="-131" font-family="Helvetica,sans-Serif" font-size="10.00">/home/travis/build</text>
<text text-anchor="start" x="7.5" y="-120" font-family="Helvetica,sans-Serif" font-size="10.00">/STORM&#45;IRIT/Radium&#45;Engine</text>
<text text-anchor="start" x="7.5" y="-109" font-family="Helvetica,sans-Serif" font-size="10.00">/src/Engine/Managers/LightManager</text>
<text text-anchor="middle" x="86" y="-98" font-family="Helvetica,sans-Serif" font-size="10.00">/DefaultLightManager.hpp</text>
</a>
</g>
</g>
<!-- Node2&#45;&gt;Node3 -->
<g id="edge2" class="edge"><title>Node2&#45;&gt;Node3</title>
<path fill="none" stroke="midnightblue" d="M280.139,-177.945C243.939,-166.767 202.599,-154.002 167.396,-143.133"/>
<polygon fill="midnightblue" stroke="midnightblue" points="279.124,-181.294 289.712,-180.901 281.19,-174.606 279.124,-181.294"/>
</g>
<!-- Node6 -->
<g id="node6" class="node"><title>Node6</title>
<g id="a_node6"><a xlink:href="LightManager_8cpp.html" target="_top" xlink:title="/home/travis/build\l/STORM&#45;IRIT/Radium&#45;Engine\l/src/Engine/Managers/LightManager\l/LightManager.cpp">
<polygon fill="white" stroke="black" points="190.5,-91 190.5,-143 363.5,-143 363.5,-91 190.5,-91"/>
<text text-anchor="start" x="198.5" y="-131" font-family="Helvetica,sans-Serif" font-size="10.00">/home/travis/build</text>
<text text-anchor="start" x="198.5" y="-120" font-family="Helvetica,sans-Serif" font-size="10.00">/STORM&#45;IRIT/Radium&#45;Engine</text>
<text text-anchor="start" x="198.5" y="-109" font-family="Helvetica,sans-Serif" font-size="10.00">/src/Engine/Managers/LightManager</text>
<text text-anchor="middle" x="277" y="-98" font-family="Helvetica,sans-Serif" font-size="10.00">/LightManager.cpp</text>
</a>
</g>
</g>
<!-- Node2&#45;&gt;Node6 -->
<g id="edge5" class="edge"><title>Node2&#45;&gt;Node6</title>
<path fill="none" stroke="midnightblue" d="M336.453,-173.658C325.727,-163.617 314.069,-152.703 303.941,-143.221"/>
<polygon fill="midnightblue" stroke="midnightblue" points="334.371,-176.504 344.063,-180.783 339.155,-171.393 334.371,-176.504"/>
</g>
<!-- Node7 -->
<g id="node7" class="node"><title>Node7</title>
<g id="a_node7"><a xlink:href="Renderer_8cpp.html" target="_top" xlink:title="/home/travis/build\l/STORM&#45;IRIT/Radium&#45;Engine\l/src/Engine/Renderer/Renderer.cpp">
<polygon fill="white" stroke="black" points="382,-96.5 382,-137.5 552,-137.5 552,-96.5 382,-96.5"/>
<text text-anchor="start" x="390" y="-125.5" font-family="Helvetica,sans-Serif" font-size="10.00">/home/travis/build</text>
<text text-anchor="start" x="390" y="-114.5" font-family="Helvetica,sans-Serif" font-size="10.00">/STORM&#45;IRIT/Radium&#45;Engine</text>
<text text-anchor="middle" x="467" y="-103.5" font-family="Helvetica,sans-Serif" font-size="10.00">/src/Engine/Renderer/Renderer.cpp</text>
</a>
</g>
</g>
<!-- Node2&#45;&gt;Node7 -->
<g id="edge6" class="edge"><title>Node2&#45;&gt;Node7</title>
<path fill="none" stroke="midnightblue" d="M406.103,-173.822C419.334,-161.694 433.977,-148.272 445.587,-137.628"/>
<polygon fill="midnightblue" stroke="midnightblue" points="403.516,-171.445 398.51,-180.783 408.246,-176.606 403.516,-171.445"/>
</g>
<!-- Node4 -->
<g id="node4" class="node"><title>Node4</title>
<g id="a_node4"><a xlink:href="DefaultLightManager_8cpp.html" target="_top" xlink:title="/home/travis/build\l/STORM&#45;IRIT/Radium&#45;Engine\l/src/Engine/Managers/LightManager\l/DefaultLightManager.cpp">
<polygon fill="white" stroke="black" points="-0.5,-1 -0.5,-53 172.5,-53 172.5,-1 -0.5,-1"/>
<text text-anchor="start" x="7.5" y="-41" font-family="Helvetica,sans-Serif" font-size="10.00">/home/travis/build</text>
<text text-anchor="start" x="7.5" y="-30" font-family="Helvetica,sans-Serif" font-size="10.00">/STORM&#45;IRIT/Radium&#45;Engine</text>
<text text-anchor="start" x="7.5" y="-19" font-family="Helvetica,sans-Serif" font-size="10.00">/src/Engine/Managers/LightManager</text>
<text text-anchor="middle" x="86" y="-8" font-family="Helvetica,sans-Serif" font-size="10.00">/DefaultLightManager.cpp</text>
</a>
</g>
</g>
<!-- Node3&#45;&gt;Node4 -->
<g id="edge3" class="edge"><title>Node3&#45;&gt;Node4</title>
<path fill="none" stroke="midnightblue" d="M86,-80.4892C86,-71.3088 86,-61.616 86,-53.0921"/>
<polygon fill="midnightblue" stroke="midnightblue" points="82.5001,-80.5467 86,-90.5468 89.5001,-80.5468 82.5001,-80.5467"/>
</g>
<!-- Node3&#45;&gt;Node5 -->
<g id="edge4" class="edge"><title>Node3&#45;&gt;Node5</title>
<path fill="none" stroke="midnightblue" d="M182.679,-89.5698C242.319,-73.8491 300.278,-59.0757 345.39,-47.6899"/>
<polygon fill="midnightblue" stroke="midnightblue" points="181.48,-86.2665 172.705,-92.2038 183.267,-93.0345 181.48,-86.2665"/>
</g>
</g>
</svg>
