<?xml version="1.0" encoding="UTF-8" standalone="no"?>
<!DOCTYPE svg PUBLIC "-//W3C//DTD SVG 1.1//EN"
 "http://www.w3.org/Graphics/SVG/1.1/DTD/svg11.dtd">
<!-- Generated by graphviz version 2.36.0 (20140111.2315)
 -->
<!-- Title: /home/travis/build/STORM&#45;IRIT/Radium&#45;Engine/src/Core/Animation/Skinning/RotationCenterSkinning.hpp Pages: 1 -->
<svg width="1868pt" height="638pt"
 viewBox="0.00 0.00 1868.00 638.00" xmlns="http://www.w3.org/2000/svg" xmlns:xlink="http://www.w3.org/1999/xlink">
<g id="graph0" class="graph" transform="scale(1 1) rotate(0) translate(4 634)">
<title>/home/travis/build/STORM&#45;IRIT/Radium&#45;Engine/src/Core/Animation/Skinning/RotationCenterSkinning.hpp</title>
<polygon fill="white" stroke="none" points="-4,4 -4,-634 1864,-634 1864,4 -4,4"/>
<!-- Node1 -->
<g id="node1" class="node"><title>Node1</title>
<polygon fill="#bfbfbf" stroke="black" points="1302,-577 1302,-629 1450,-629 1450,-577 1302,-577"/>
<text text-anchor="start" x="1310" y="-617" font-family="Helvetica,sans-Serif" font-size="10.00">/home/travis/build</text>
<text text-anchor="start" x="1310" y="-606" font-family="Helvetica,sans-Serif" font-size="10.00">/STORM&#45;IRIT/Radium&#45;Engine</text>
<text text-anchor="start" x="1310" y="-595" font-family="Helvetica,sans-Serif" font-size="10.00">/src/Core/Animation/Skinning</text>
<text text-anchor="middle" x="1376" y="-584" font-family="Helvetica,sans-Serif" font-size="10.00">/RotationCenterSkinning.hpp</text>
</g>
<!-- Node2 -->
<g id="node2" class="node"><title>Node2</title>
<g id="a_node2"><a xlink:href="RaCore_8hpp.html" target="_top" xlink:title="Core/RaCore.hpp">
<polygon fill="white" stroke="black" points="1181.5,-112.5 1181.5,-131.5 1274.5,-131.5 1274.5,-112.5 1181.5,-112.5"/>
<text text-anchor="middle" x="1228" y="-119.5" font-family="Helvetica,sans-Serif" font-size="10.00">Core/RaCore.hpp</text>
</a>
</g>
</g>
<!-- Node1&#45;&gt;Node2 -->
<g id="edge1" class="edge"><title>Node1&#45;&gt;Node2</title>
<path fill="none" stroke="midnightblue" d="M1450.04,-595.301C1585.62,-580.975 1860,-541.538 1860,-457 1860,-457 1860,-457 1860,-251 1860,-195.267 1817.26,-189.877 1766,-168 1680.56,-131.535 1404.87,-124.56 1284.79,-123.27"/>
<polygon fill="midnightblue" stroke="midnightblue" points="1284.73,-119.769 1274.69,-123.171 1284.66,-126.769 1284.73,-119.769"/>
</g>
<!-- Node9 -->
<g id="node9" class="node"><title>Node9</title>
<g id="a_node9"><a xlink:href="SkinningData_8hpp.html" target="_top" xlink:title="Core/Animation/Skinning\l/SkinningData.hpp">
<polygon fill="white" stroke="black" points="753.5,-509 753.5,-539 878.5,-539 878.5,-509 753.5,-509"/>
<text text-anchor="start" x="761.5" y="-527" font-family="Helvetica,sans-Serif" font-size="10.00">Core/Animation/Skinning</text>
<text text-anchor="middle" x="816" y="-516" font-family="Helvetica,sans-Serif" font-size="10.00">/SkinningData.hpp</text>
</a>
</g>
</g>
<!-- Node1&#45;&gt;Node9 -->
<g id="edge8" class="edge"><title>Node1&#45;&gt;Node9</title>
<path fill="none" stroke="midnightblue" d="M1301.93,-591.815C1194.22,-577.006 995.62,-549.698 888.699,-534.996"/>
<polygon fill="midnightblue" stroke="midnightblue" points="889.027,-531.508 878.644,-533.614 888.074,-538.443 889.027,-531.508"/>
</g>
<!-- Node3 -->
<g id="node3" class="node"><title>Node3</title>
<g id="a_node3"><a xlink:href="CoreMacros_8hpp.html" target="_top" xlink:title="Core/CoreMacros.hpp">
<polygon fill="white" stroke="black" points="1322.5,-56.5 1322.5,-75.5 1435.5,-75.5 1435.5,-56.5 1322.5,-56.5"/>
<text text-anchor="middle" x="1379" y="-63.5" font-family="Helvetica,sans-Serif" font-size="10.00">Core/CoreMacros.hpp</text>
</a>
</g>
</g>
<!-- Node2&#45;&gt;Node3 -->
<g id="edge2" class="edge"><title>Node2&#45;&gt;Node3</title>
<path fill="none" stroke="midnightblue" d="M1251.93,-112.444C1277.22,-103.399 1317.3,-89.064 1345.68,-78.9158"/>
<polygon fill="midnightblue" stroke="midnightblue" points="1346.95,-82.1794 1355.19,-75.5164 1344.59,-75.5882 1346.95,-82.1794"/>
</g>
<!-- Node4 -->
<g id="node4" class="node"><title>Node4</title>
<polygon fill="white" stroke="#bfbfbf" points="1453.5,-0.5 1453.5,-19.5 1502.5,-19.5 1502.5,-0.5 1453.5,-0.5"/>
<text text-anchor="middle" x="1478" y="-7.5" font-family="Helvetica,sans-Serif" font-size="10.00">cassert</text>
</g>
<!-- Node3&#45;&gt;Node4 -->
<g id="edge3" class="edge"><title>Node3&#45;&gt;Node4</title>
<path fill="none" stroke="midnightblue" d="M1394.91,-56.324C1410.64,-47.7428 1434.94,-34.486 1453.21,-24.5224"/>
<polygon fill="midnightblue" stroke="midnightblue" points="1455.03,-27.5157 1462.13,-19.6545 1451.68,-21.3704 1455.03,-27.5157"/>
</g>
<!-- Node5 -->
<g id="node5" class="node"><title>Node5</title>
<polygon fill="white" stroke="#bfbfbf" points="1257.5,-0.5 1257.5,-19.5 1300.5,-19.5 1300.5,-0.5 1257.5,-0.5"/>
<text text-anchor="middle" x="1279" y="-7.5" font-family="Helvetica,sans-Serif" font-size="10.00">cstdio</text>
</g>
<!-- Node3&#45;&gt;Node5 -->
<g id="edge4" class="edge"><title>Node3&#45;&gt;Node5</title>
<path fill="none" stroke="midnightblue" d="M1362.93,-56.324C1347.04,-47.7428 1322.49,-34.486 1304.04,-24.5224"/>
<polygon fill="midnightblue" stroke="midnightblue" points="1305.49,-21.3264 1295.03,-19.6545 1302.16,-27.4857 1305.49,-21.3264"/>
</g>
<!-- Node6 -->
<g id="node6" class="node"><title>Node6</title>
<polygon fill="white" stroke="#bfbfbf" points="1319,-0.5 1319,-19.5 1373,-19.5 1373,-0.5 1319,-0.5"/>
<text text-anchor="middle" x="1346" y="-7.5" font-family="Helvetica,sans-Serif" font-size="10.00">iostream</text>
</g>
<!-- Node3&#45;&gt;Node6 -->
<g id="edge5" class="edge"><title>Node3&#45;&gt;Node6</title>
<path fill="none" stroke="midnightblue" d="M1373.55,-56.083C1368.99,-48.6127 1362.33,-37.7244 1356.71,-28.5199"/>
<polygon fill="midnightblue" stroke="midnightblue" points="1359.55,-26.4588 1351.35,-19.7511 1353.58,-30.109 1359.55,-26.4588"/>
</g>
<!-- Node7 -->
<g id="node7" class="node"><title>Node7</title>
<polygon fill="white" stroke="#bfbfbf" points="1638,-0.5 1638,-19.5 1690,-19.5 1690,-0.5 1638,-0.5"/>
<text text-anchor="middle" x="1664" y="-7.5" font-family="Helvetica,sans-Serif" font-size="10.00">sstream</text>
</g>
<!-- Node3&#45;&gt;Node7 -->
<g id="edge6" class="edge"><title>Node3&#45;&gt;Node7</title>
<path fill="none" stroke="midnightblue" d="M1424.16,-56.4435C1480.55,-45.7597 1575.88,-27.6956 1627.75,-17.8681"/>
<polygon fill="midnightblue" stroke="midnightblue" points="1628.65,-21.2598 1637.83,-15.9593 1627.35,-14.3822 1628.65,-21.2598"/>
</g>
<!-- Node8 -->
<g id="node8" class="node"><title>Node8</title>
<polygon fill="white" stroke="#bfbfbf" points="1391,-0.5 1391,-19.5 1435,-19.5 1435,-0.5 1391,-0.5"/>
<text text-anchor="middle" x="1413" y="-7.5" font-family="Helvetica,sans-Serif" font-size="10.00">thread</text>
</g>
<!-- Node3&#45;&gt;Node8 -->
<g id="edge7" class="edge"><title>Node3&#45;&gt;Node8</title>
<path fill="none" stroke="midnightblue" d="M1384.61,-56.083C1389.37,-48.5341 1396.32,-37.4948 1402.15,-28.2298"/>
<polygon fill="midnightblue" stroke="midnightblue" points="1405.12,-30.0783 1407.49,-19.7511 1399.2,-26.3486 1405.12,-30.0783"/>
</g>
<!-- Node9&#45;&gt;Node2 -->
<g id="edge73" class="edge"><title>Node9&#45;&gt;Node2</title>
<path fill="none" stroke="midnightblue" d="M878.55,-521.285C1098.33,-514.44 1822,-484.641 1822,-389 1822,-389 1822,-389 1822,-251 1822,-141.799 1433.51,-125.508 1284.89,-123.272"/>
<polygon fill="midnightblue" stroke="midnightblue" points="1284.66,-119.768 1274.61,-123.134 1284.56,-126.768 1284.66,-119.768"/>
</g>
<!-- Node10 -->
<g id="node10" class="node"><title>Node10</title>
<g id="a_node10"><a xlink:href="HandleWeight_8hpp.html" target="_top" xlink:title="Core/Animation/Handle\l/HandleWeight.hpp">
<polygon fill="white" stroke="black" points="313,-305 313,-335 431,-335 431,-305 313,-305"/>
<text text-anchor="start" x="321" y="-323" font-family="Helvetica,sans-Serif" font-size="10.00">Core/Animation/Handle</text>
<text text-anchor="middle" x="372" y="-312" font-family="Helvetica,sans-Serif" font-size="10.00">/HandleWeight.hpp</text>
</a>
</g>
</g>
<!-- Node9&#45;&gt;Node10 -->
<g id="edge9" class="edge"><title>Node9&#45;&gt;Node10</title>
<path fill="none" stroke="midnightblue" d="M753.2,-518.224C673.035,-511.234 539.614,-496.339 497,-472 443.475,-441.43 403.118,-378.532 384.089,-344.352"/>
<polygon fill="midnightblue" stroke="midnightblue" points="386.93,-342.25 379.085,-335.129 380.777,-345.588 386.93,-342.25"/>
</g>
<!-- Node26 -->
<g id="node26" class="node"><title>Node26</title>
<g id="a_node26"><a xlink:href="Skeleton_8hpp.html" target="_top" xlink:title="Core/Animation/Handle\l/Skeleton.hpp">
<polygon fill="white" stroke="black" points="506,-441 506,-471 624,-471 624,-441 506,-441"/>
<text text-anchor="start" x="514" y="-459" font-family="Helvetica,sans-Serif" font-size="10.00">Core/Animation/Handle</text>
<text text-anchor="middle" x="565" y="-448" font-family="Helvetica,sans-Serif" font-size="10.00">/Skeleton.hpp</text>
</a>
</g>
</g>
<!-- Node9&#45;&gt;Node26 -->
<g id="edge29" class="edge"><title>Node9&#45;&gt;Node26</title>
<path fill="none" stroke="midnightblue" d="M762.462,-508.922C723.141,-498.583 669.586,-484.501 628.169,-473.61"/>
<polygon fill="midnightblue" stroke="midnightblue" points="629.017,-470.214 618.456,-471.056 627.237,-476.984 629.017,-470.214"/>
</g>
<!-- Node28 -->
<g id="node28" class="node"><title>Node28</title>
<g id="a_node28"><a xlink:href="Pose_8hpp.html" target="_top" xlink:title="Core/Animation/Pose\l/Pose.hpp">
<polygon fill="white" stroke="black" points="680,-305 680,-335 790,-335 790,-305 680,-305"/>
<text text-anchor="start" x="688" y="-323" font-family="Helvetica,sans-Serif" font-size="10.00">Core/Animation/Pose</text>
<text text-anchor="middle" x="735" y="-312" font-family="Helvetica,sans-Serif" font-size="10.00">/Pose.hpp</text>
</a>
</g>
</g>
<!-- Node9&#45;&gt;Node28 -->
<g id="edge43" class="edge"><title>Node9&#45;&gt;Node28</title>
<path fill="none" stroke="midnightblue" d="M808.996,-508.931C798.162,-486.883 777.023,-442.704 762,-404 754.444,-384.532 747.198,-361.971 742.119,-345.289"/>
<polygon fill="midnightblue" stroke="midnightblue" points="745.338,-343.84 739.112,-335.267 738.634,-345.851 745.338,-343.84"/>
</g>
<!-- Node33 -->
<g id="node33" class="node"><title>Node33</title>
<g id="a_node33"><a xlink:href="TriangleMesh_8hpp.html" target="_top" xlink:title="Core/Mesh/TriangleMesh.hpp">
<polygon fill="white" stroke="black" points="819.5,-446.5 819.5,-465.5 964.5,-465.5 964.5,-446.5 819.5,-446.5"/>
<text text-anchor="middle" x="892" y="-453.5" font-family="Helvetica,sans-Serif" font-size="10.00">Core/Mesh/TriangleMesh.hpp</text>
</a>
</g>
</g>
<!-- Node9&#45;&gt;Node33 -->
<g id="edge44" class="edge"><title>Node9&#45;&gt;Node33</title>
<path fill="none" stroke="midnightblue" d="M832.491,-508.679C844.81,-497.981 861.627,-483.377 874.241,-472.422"/>
<polygon fill="midnightblue" stroke="midnightblue" points="876.579,-475.028 881.834,-465.828 871.989,-469.743 876.579,-475.028"/>
</g>
<!-- Node11 -->
<g id="node11" class="node"><title>Node11</title>
<g id="a_node11"><a xlink:href="AlignedStdVector_8hpp.html" target="_top" xlink:title="Core/Containers/AlignedStd\lVector.hpp">
<polygon fill="white" stroke="black" points="345,-237 345,-267 483,-267 483,-237 345,-237"/>
<text text-anchor="start" x="353" y="-255" font-family="Helvetica,sans-Serif" font-size="10.00">Core/Containers/AlignedStd</text>
<text text-anchor="middle" x="414" y="-244" font-family="Helvetica,sans-Serif" font-size="10.00">Vector.hpp</text>
</a>
</g>
</g>
<!-- Node10&#45;&gt;Node11 -->
<g id="edge10" class="edge"><title>Node10&#45;&gt;Node11</title>
<path fill="none" stroke="midnightblue" d="M381.113,-304.679C386.452,-296.29 393.319,-285.499 399.396,-275.949"/>
<polygon fill="midnightblue" stroke="midnightblue" points="402.488,-277.609 404.904,-267.293 396.583,-273.851 402.488,-277.609"/>
</g>
<!-- Node14 -->
<g id="node14" class="node"><title>Node14</title>
<g id="a_node14"><a xlink:href="LinearAlgebra_8hpp.html" target="_top" xlink:title="Core/Math/LinearAlgebra.hpp">
<polygon fill="white" stroke="black" points="663.5,-242.5 663.5,-261.5 806.5,-261.5 806.5,-242.5 663.5,-242.5"/>
<text text-anchor="middle" x="735" y="-249.5" font-family="Helvetica,sans-Serif" font-size="10.00">Core/Math/LinearAlgebra.hpp</text>
</a>
</g>
</g>
<!-- Node10&#45;&gt;Node14 -->
<g id="edge14" class="edge"><title>Node10&#45;&gt;Node14</title>
<path fill="none" stroke="midnightblue" d="M431.13,-308.249C499.349,-295.846 610.74,-275.593 678.031,-263.358"/>
<polygon fill="midnightblue" stroke="midnightblue" points="678.821,-266.772 688.034,-261.539 677.569,-259.885 678.821,-266.772"/>
</g>
<!-- Node25 -->
<g id="node25" class="node"><title>Node25</title>
<polygon fill="white" stroke="#bfbfbf" points="291.5,-242.5 291.5,-261.5 326.5,-261.5 326.5,-242.5 291.5,-242.5"/>
<text text-anchor="middle" x="309" y="-249.5" font-family="Helvetica,sans-Serif" font-size="10.00">map</text>
</g>
<!-- Node10&#45;&gt;Node25 -->
<g id="edge28" class="edge"><title>Node10&#45;&gt;Node25</title>
<path fill="none" stroke="midnightblue" d="M358.33,-304.679C348.41,-294.286 334.971,-280.208 324.626,-269.37"/>
<polygon fill="midnightblue" stroke="midnightblue" points="326.864,-266.645 317.427,-261.828 321.8,-271.479 326.864,-266.645"/>
</g>
<!-- Node11&#45;&gt;Node2 -->
<g id="edge11" class="edge"><title>Node11&#45;&gt;Node2</title>
<path fill="none" stroke="midnightblue" d="M412.6,-236.988C411.578,-218.095 413.007,-184.879 433,-168 461.157,-144.228 994.066,-128.835 1171.26,-124.357"/>
<polygon fill="midnightblue" stroke="midnightblue" points="1171.51,-127.852 1181.41,-124.102 1171.33,-120.854 1171.51,-127.852"/>
</g>
<!-- Node12 -->
<g id="node12" class="node"><title>Node12</title>
<polygon fill="white" stroke="#bfbfbf" points="271,-174.5 271,-193.5 359,-193.5 359,-174.5 271,-174.5"/>
<text text-anchor="middle" x="315" y="-181.5" font-family="Helvetica,sans-Serif" font-size="10.00">Eigen/StdVector</text>
</g>
<!-- Node11&#45;&gt;Node12 -->
<g id="edge12" class="edge"><title>Node11&#45;&gt;Node12</title>
<path fill="none" stroke="midnightblue" d="M392.518,-236.679C375.916,-225.611 353.044,-210.363 336.45,-199.3"/>
<polygon fill="midnightblue" stroke="midnightblue" points="338.219,-196.273 327.957,-193.638 334.336,-202.097 338.219,-196.273"/>
</g>
<!-- Node13 -->
<g id="node13" class="node"><title>Node13</title>
<polygon fill="white" stroke="#bfbfbf" points="1156,-174.5 1156,-193.5 1200,-193.5 1200,-174.5 1156,-174.5"/>
<text text-anchor="middle" x="1178" y="-181.5" font-family="Helvetica,sans-Serif" font-size="10.00">vector</text>
</g>
<!-- Node11&#45;&gt;Node13 -->
<g id="edge13" class="edge"><title>Node11&#45;&gt;Node13</title>
<path fill="none" stroke="midnightblue" d="M483.118,-246.465C646.483,-235.667 1047.31,-208.691 1108,-200 1120.47,-198.215 1134.03,-195.493 1145.87,-192.856"/>
<polygon fill="midnightblue" stroke="midnightblue" points="1146.79,-196.234 1155.76,-190.586 1145.23,-189.412 1146.79,-196.234"/>
</g>
<!-- Node14&#45;&gt;Node2 -->
<g id="edge15" class="edge"><title>Node14&#45;&gt;Node2</title>
<path fill="none" stroke="midnightblue" d="M663.236,-248.647C586.298,-244.435 471.464,-232.696 444,-200 434.852,-189.11 434.236,-178.341 444,-168 468.922,-141.607 995.15,-127.98 1171.2,-124.148"/>
<polygon fill="midnightblue" stroke="midnightblue" points="1171.37,-127.645 1181.3,-123.931 1171.22,-120.647 1171.37,-127.645"/>
</g>
<!-- Node15 -->
<g id="node15" class="node"><title>Node15</title>
<polygon fill="white" stroke="#bfbfbf" points="608.5,-174.5 608.5,-193.5 673.5,-193.5 673.5,-174.5 608.5,-174.5"/>
<text text-anchor="middle" x="641" y="-181.5" font-family="Helvetica,sans-Serif" font-size="10.00">Eigen/Core</text>
</g>
<!-- Node14&#45;&gt;Node15 -->
<g id="edge16" class="edge"><title>Node14&#45;&gt;Node15</title>
<path fill="none" stroke="midnightblue" d="M722.711,-242.372C707.229,-231.502 680.395,-212.66 661.719,-199.547"/>
<polygon fill="midnightblue" stroke="midnightblue" points="663.487,-196.512 653.292,-193.63 659.465,-202.241 663.487,-196.512"/>
</g>
<!-- Node16 -->
<g id="node16" class="node"><title>Node16</title>
<polygon fill="white" stroke="#bfbfbf" points="691.5,-174.5 691.5,-193.5 778.5,-193.5 778.5,-174.5 691.5,-174.5"/>
<text text-anchor="middle" x="735" y="-181.5" font-family="Helvetica,sans-Serif" font-size="10.00">Eigen/Geometry</text>
</g>
<!-- Node14&#45;&gt;Node16 -->
<g id="edge17" class="edge"><title>Node14&#45;&gt;Node16</title>
<path fill="none" stroke="midnightblue" d="M735,-242.372C735,-232.643 735,-216.528 735,-203.85"/>
<polygon fill="midnightblue" stroke="midnightblue" points="738.5,-203.841 735,-193.841 731.5,-203.841 738.5,-203.841"/>
</g>
<!-- Node17 -->
<g id="node17" class="node"><title>Node17</title>
<polygon fill="white" stroke="#bfbfbf" points="796.5,-174.5 796.5,-193.5 871.5,-193.5 871.5,-174.5 796.5,-174.5"/>
<text text-anchor="middle" x="834" y="-181.5" font-family="Helvetica,sans-Serif" font-size="10.00">Eigen/Sparse</text>
</g>
<!-- Node14&#45;&gt;Node17 -->
<g id="edge18" class="edge"><title>Node14&#45;&gt;Node17</title>
<path fill="none" stroke="midnightblue" d="M747.943,-242.372C764.396,-231.403 793.025,-212.317 812.713,-199.191"/>
<polygon fill="midnightblue" stroke="midnightblue" points="814.675,-202.09 821.054,-193.63 810.792,-196.265 814.675,-202.09"/>
</g>
<!-- Node18 -->
<g id="node18" class="node"><title>Node18</title>
<polygon fill="white" stroke="#bfbfbf" points="889.5,-174.5 889.5,-193.5 948.5,-193.5 948.5,-174.5 889.5,-174.5"/>
<text text-anchor="middle" x="919" y="-181.5" font-family="Helvetica,sans-Serif" font-size="10.00">functional</text>
</g>
<!-- Node14&#45;&gt;Node18 -->
<g id="edge19" class="edge"><title>Node14&#45;&gt;Node18</title>
<path fill="none" stroke="midnightblue" d="M759.967,-242.465C788.923,-232.508 838.053,-215.44 880,-200 882.53,-199.069 885.146,-198.092 887.772,-197.103"/>
<polygon fill="midnightblue" stroke="midnightblue" points="889.078,-200.351 897.178,-193.521 886.587,-193.809 889.078,-200.351"/>
</g>
<!-- Node19 -->
<g id="node19" class="node"><title>Node19</title>
<polygon fill="white" stroke="#bfbfbf" points="966.5,-169 966.5,-199 1099.5,-199 1099.5,-169 966.5,-169"/>
<text text-anchor="start" x="974.5" y="-187" font-family="Helvetica,sans-Serif" font-size="10.00">unsupported/Eigen/Aligned</text>
<text text-anchor="middle" x="1033" y="-176" font-family="Helvetica,sans-Serif" font-size="10.00">Vector3</text>
</g>
<!-- Node14&#45;&gt;Node19 -->
<g id="edge20" class="edge"><title>Node14&#45;&gt;Node19</title>
<path fill="none" stroke="midnightblue" d="M773.653,-242.439C820.622,-232.037 900.872,-214.263 959.693,-201.236"/>
<polygon fill="midnightblue" stroke="midnightblue" points="960.67,-204.604 969.676,-199.025 959.156,-197.77 960.67,-204.604"/>
</g>
<!-- Node20 -->
<g id="node20" class="node"><title>Node20</title>
<g id="a_node20"><a xlink:href="Math_8hpp.html" target="_top" xlink:title="Core/Math/Math.hpp">
<polygon fill="white" stroke="black" points="71,-174.5 71,-193.5 177,-193.5 177,-174.5 71,-174.5"/>
<text text-anchor="middle" x="124" y="-181.5" font-family="Helvetica,sans-Serif" font-size="10.00">Core/Math/Math.hpp</text>
</a>
</g>
</g>
<!-- Node14&#45;&gt;Node20 -->
<g id="edge21" class="edge"><title>Node14&#45;&gt;Node20</title>
<path fill="none" stroke="midnightblue" d="M663.279,-243.286C570.605,-233.315 404.263,-215.401 262,-200 237.581,-197.356 210.733,-194.44 187.26,-191.888"/>
<polygon fill="midnightblue" stroke="midnightblue" points="187.399,-188.382 177.079,-190.78 186.642,-195.341 187.399,-188.382"/>
</g>
<!-- Node24 -->
<g id="node24" class="node"><title>Node24</title>
<g id="a_node24"><a xlink:href="LinearAlgebra_8inl.html" target="_top" xlink:title="Core/Math/LinearAlgebra.inl">
<polygon fill="white" stroke="black" points="453.5,-174.5 453.5,-193.5 590.5,-193.5 590.5,-174.5 453.5,-174.5"/>
<text text-anchor="middle" x="522" y="-181.5" font-family="Helvetica,sans-Serif" font-size="10.00">Core/Math/LinearAlgebra.inl</text>
</a>
</g>
</g>
<!-- Node14&#45;&gt;Node24 -->
<g id="edge27" class="edge"><title>Node14&#45;&gt;Node24</title>
<path fill="none" stroke="midnightblue" d="M707.154,-242.372C669.258,-230.629 601.342,-209.585 559.141,-196.508"/>
<polygon fill="midnightblue" stroke="midnightblue" points="560.103,-193.143 549.515,-193.526 558.031,-199.829 560.103,-193.143"/>
</g>
<!-- Node20&#45;&gt;Node2 -->
<g id="edge22" class="edge"><title>Node20&#45;&gt;Node2</title>
<path fill="none" stroke="midnightblue" d="M156.848,-174.43C167.654,-171.938 179.774,-169.488 191,-168 382.873,-142.562 982.907,-128.13 1171.01,-124.144"/>
<polygon fill="midnightblue" stroke="midnightblue" points="1171.31,-127.639 1181.23,-123.929 1171.16,-120.64 1171.31,-127.639"/>
</g>
<!-- Node21 -->
<g id="node21" class="node"><title>Node21</title>
<polygon fill="white" stroke="#bfbfbf" points="144,-112.5 144,-131.5 200,-131.5 200,-112.5 144,-112.5"/>
<text text-anchor="middle" x="172" y="-119.5" font-family="Helvetica,sans-Serif" font-size="10.00">algorithm</text>
</g>
<!-- Node20&#45;&gt;Node21 -->
<g id="edge23" class="edge"><title>Node20&#45;&gt;Node21</title>
<path fill="none" stroke="midnightblue" d="M130.877,-174.403C138.149,-165.314 149.795,-150.756 158.841,-139.449"/>
<polygon fill="midnightblue" stroke="midnightblue" points="161.622,-141.576 165.136,-131.581 156.155,-137.203 161.622,-141.576"/>
</g>
<!-- Node22 -->
<g id="node22" class="node"><title>Node22</title>
<polygon fill="white" stroke="#bfbfbf" points="218,-112.5 218,-131.5 262,-131.5 262,-112.5 218,-112.5"/>
<text text-anchor="middle" x="240" y="-119.5" font-family="Helvetica,sans-Serif" font-size="10.00">cmath</text>
</g>
<!-- Node20&#45;&gt;Node22 -->
<g id="edge24" class="edge"><title>Node20&#45;&gt;Node22</title>
<path fill="none" stroke="midnightblue" d="M140.62,-174.403C159.915,-164.423 191.959,-147.849 214.431,-136.225"/>
<polygon fill="midnightblue" stroke="midnightblue" points="216.137,-139.284 223.411,-131.581 212.921,-133.066 216.137,-139.284"/>
</g>
<!-- Node23 -->
<g id="node23" class="node"><title>Node23</title>
<g id="a_node23"><a xlink:href="Math_8inl.html" target="_top" xlink:title="Core/Math/Math.inl">
<polygon fill="white" stroke="black" points="26,-112.5 26,-131.5 126,-131.5 126,-112.5 26,-112.5"/>
<text text-anchor="middle" x="76" y="-119.5" font-family="Helvetica,sans-Serif" font-size="10.00">Core/Math/Math.inl</text>
</a>
</g>
</g>
<!-- Node20&#45;&gt;Node23 -->
<g id="edge25" class="edge"><title>Node20&#45;&gt;Node23</title>
<path fill="none" stroke="midnightblue" d="M112.222,-174.403C103.166,-165.493 91.4109,-151.325 83.5308,-140.118"/>
<polygon fill="midnightblue" stroke="midnightblue" points="86.3595,-138.048 77.9673,-131.581 80.4949,-141.87 86.3595,-138.048"/>
</g>
<!-- Node23&#45;&gt;Node20 -->
<g id="edge26" class="edge"><title>Node23&#45;&gt;Node20</title>
<path fill="none" stroke="midnightblue" d="M87.7616,-131.581C96.8145,-140.485 108.57,-154.652 116.455,-165.862"/>
<polygon fill="midnightblue" stroke="midnightblue" points="113.63,-167.938 122.023,-174.403 119.494,-164.115 113.63,-167.938"/>
</g>
<!-- Node27 -->
<g id="node27" class="node"><title>Node27</title>
<g id="a_node27"><a xlink:href="Handle_8hpp.html" target="_top" xlink:title="Core/Animation/Handle\l/Handle.hpp">
<polygon fill="white" stroke="black" points="506,-373 506,-403 624,-403 624,-373 506,-373"/>
<text text-anchor="start" x="514" y="-391" font-family="Helvetica,sans-Serif" font-size="10.00">Core/Animation/Handle</text>
<text text-anchor="middle" x="565" y="-380" font-family="Helvetica,sans-Serif" font-size="10.00">/Handle.hpp</text>
</a>
</g>
</g>
<!-- Node26&#45;&gt;Node27 -->
<g id="edge30" class="edge"><title>Node26&#45;&gt;Node27</title>
<path fill="none" stroke="midnightblue" d="M565,-440.679C565,-432.722 565,-422.605 565,-413.436"/>
<polygon fill="midnightblue" stroke="midnightblue" points="568.5,-413.293 565,-403.293 561.5,-413.293 568.5,-413.293"/>
</g>
<!-- Node30 -->
<g id="node30" class="node"><title>Node30</title>
<g id="a_node30"><a xlink:href="AdjacencyList_8hpp.html" target="_top" xlink:title="Core/Utils/Graph/Adjacency\lList.hpp">
<polygon fill="white" stroke="black" points="-0.5,-373 -0.5,-403 138.5,-403 138.5,-373 -0.5,-373"/>
<text text-anchor="start" x="7.5" y="-391" font-family="Helvetica,sans-Serif" font-size="10.00">Core/Utils/Graph/Adjacency</text>
<text text-anchor="middle" x="69" y="-380" font-family="Helvetica,sans-Serif" font-size="10.00">List.hpp</text>
</a>
</g>
</g>
<!-- Node26&#45;&gt;Node30 -->
<g id="edge38" class="edge"><title>Node26&#45;&gt;Node30</title>
<path fill="none" stroke="midnightblue" d="M505.663,-447.104C416.665,-435.262 248.447,-412.878 148.785,-399.616"/>
<polygon fill="midnightblue" stroke="midnightblue" points="149.139,-396.133 138.765,-398.283 148.216,-403.072 149.139,-396.133"/>
</g>
<!-- Node27&#45;&gt;Node2 -->
<g id="edge35" class="edge"><title>Node27&#45;&gt;Node2</title>
<path fill="none" stroke="midnightblue" d="M505.77,-382.358C438.204,-375.901 333.277,-361.96 304,-336 246.414,-284.937 208.859,-223.674 262,-168 293.512,-134.986 968.58,-125.589 1171.08,-123.508"/>
<polygon fill="midnightblue" stroke="midnightblue" points="1171.24,-127.006 1181.21,-123.406 1171.17,-120.007 1171.24,-127.006"/>
</g>
<!-- Node27&#45;&gt;Node14 -->
<g id="edge34" class="edge"><title>Node27&#45;&gt;Node14</title>
<path fill="none" stroke="midnightblue" d="M584.272,-372.995C598.007,-362.904 616.828,-348.857 633,-336 650.283,-322.26 653.92,-317.992 671,-304 686.002,-291.71 703.201,-278.027 715.989,-267.93"/>
<polygon fill="midnightblue" stroke="midnightblue" points="718.368,-270.512 724.057,-261.574 714.036,-265.013 718.368,-270.512"/>
</g>
<!-- Node27&#45;&gt;Node28 -->
<g id="edge31" class="edge"><title>Node27&#45;&gt;Node28</title>
<path fill="none" stroke="midnightblue" d="M601.469,-372.841C627.215,-362.846 661.893,-349.383 689.457,-338.682"/>
<polygon fill="midnightblue" stroke="midnightblue" points="690.828,-341.904 698.883,-335.022 688.294,-335.378 690.828,-341.904"/>
</g>
<!-- Node29 -->
<g id="node29" class="node"><title>Node29</title>
<g id="a_node29"><a xlink:href="Handle_8inl.html" target="_top" xlink:title="Core/Animation/Handle\l/Handle.inl">
<polygon fill="white" stroke="black" points="506,-305 506,-335 624,-335 624,-305 506,-305"/>
<text text-anchor="start" x="514" y="-323" font-family="Helvetica,sans-Serif" font-size="10.00">Core/Animation/Handle</text>
<text text-anchor="middle" x="565" y="-312" font-family="Helvetica,sans-Serif" font-size="10.00">/Handle.inl</text>
</a>
</g>
</g>
<!-- Node27&#45;&gt;Node29 -->
<g id="edge36" class="edge"><title>Node27&#45;&gt;Node29</title>
<path fill="none" stroke="midnightblue" d="M559.322,-372.679C558.294,-364.722 558.005,-354.605 558.456,-345.436"/>
<polygon fill="midnightblue" stroke="midnightblue" points="561.959,-345.555 559.325,-335.293 554.984,-344.958 561.959,-345.555"/>
</g>
<!-- Node28&#45;&gt;Node11 -->
<g id="edge32" class="edge"><title>Node28&#45;&gt;Node11</title>
<path fill="none" stroke="midnightblue" d="M679.818,-307.654C628.051,-297.01 550.112,-280.986 491.995,-269.036"/>
<polygon fill="midnightblue" stroke="midnightblue" points="492.617,-265.591 482.116,-267.005 491.207,-272.448 492.617,-265.591"/>
</g>
<!-- Node28&#45;&gt;Node14 -->
<g id="edge33" class="edge"><title>Node28&#45;&gt;Node14</title>
<path fill="none" stroke="midnightblue" d="M735,-304.679C735,-295.101 735,-282.394 735,-271.977"/>
<polygon fill="midnightblue" stroke="midnightblue" points="738.5,-271.828 735,-261.828 731.5,-271.828 738.5,-271.828"/>
</g>
<!-- Node29&#45;&gt;Node27 -->
<g id="edge37" class="edge"><title>Node29&#45;&gt;Node27</title>
<path fill="none" stroke="midnightblue" d="M570.675,-335.293C571.704,-343.245 571.995,-353.361 571.545,-362.532"/>
<polygon fill="midnightblue" stroke="midnightblue" points="568.042,-362.417 570.678,-372.679 575.017,-363.013 568.042,-362.417"/>
</g>
<!-- Node30&#45;&gt;Node11 -->
<g id="edge39" class="edge"><title>Node30&#45;&gt;Node11</title>
<path fill="none" stroke="midnightblue" d="M105.269,-372.913C168.553,-348.333 298.996,-297.668 368.334,-270.737"/>
<polygon fill="midnightblue" stroke="midnightblue" points="369.645,-273.983 377.699,-267.099 367.111,-267.457 369.645,-273.983"/>
</g>
<!-- Node31 -->
<g id="node31" class="node"><title>Node31</title>
<g id="a_node31"><a xlink:href="AdjacencyList_8inl.html" target="_top" xlink:title="Core/Utils/Graph/Adjacency\lList.inl">
<polygon fill="white" stroke="black" points="-0.5,-305 -0.5,-335 138.5,-335 138.5,-305 -0.5,-305"/>
<text text-anchor="start" x="7.5" y="-323" font-family="Helvetica,sans-Serif" font-size="10.00">Core/Utils/Graph/Adjacency</text>
<text text-anchor="middle" x="69" y="-312" font-family="Helvetica,sans-Serif" font-size="10.00">List.inl</text>
</a>
</g>
</g>
<!-- Node30&#45;&gt;Node31 -->
<g id="edge40" class="edge"><title>Node30&#45;&gt;Node31</title>
<path fill="none" stroke="midnightblue" d="M63.3216,-372.679C62.2938,-364.722 62.0053,-354.605 62.4562,-345.436"/>
<polygon fill="midnightblue" stroke="midnightblue" points="65.9587,-345.555 63.3252,-335.293 58.9843,-344.958 65.9587,-345.555"/>
</g>
<!-- Node31&#45;&gt;Node30 -->
<g id="edge41" class="edge"><title>Node31&#45;&gt;Node30</title>
<path fill="none" stroke="midnightblue" d="M74.6748,-335.293C75.7043,-343.245 75.9945,-353.361 75.5453,-362.532"/>
<polygon fill="midnightblue" stroke="midnightblue" points="72.0425,-362.417 74.6784,-372.679 79.0171,-363.013 72.0425,-362.417"/>
</g>
<!-- Node32 -->
<g id="node32" class="node"><title>Node32</title>
<polygon fill="white" stroke="#bfbfbf" points="54,-242.5 54,-261.5 84,-261.5 84,-242.5 54,-242.5"/>
<text text-anchor="middle" x="69" y="-249.5" font-family="Helvetica,sans-Serif" font-size="10.00">set</text>
</g>
<!-- Node31&#45;&gt;Node32 -->
<g id="edge42" class="edge"><title>Node31&#45;&gt;Node32</title>
<path fill="none" stroke="midnightblue" d="M69,-304.679C69,-295.101 69,-282.394 69,-271.977"/>
<polygon fill="midnightblue" stroke="midnightblue" points="72.5001,-271.828 69,-261.828 65.5001,-271.828 72.5001,-271.828"/>
</g>
<!-- Node33&#45;&gt;Node2 -->
<g id="edge57" class="edge"><title>Node33&#45;&gt;Node2</title>
<path fill="none" stroke="midnightblue" d="M819.454,-448.425C642.857,-431.446 205,-383.088 205,-321 205,-321 205,-321 205,-251 205,-211.302 205.666,-191.03 238,-168 276.16,-140.821 966.214,-127.313 1171.1,-123.89"/>
<polygon fill="midnightblue" stroke="midnightblue" points="1171.4,-127.386 1181.34,-123.721 1171.29,-120.386 1171.4,-127.386"/>
</g>
<!-- Node33&#45;&gt;Node14 -->
<g id="edge50" class="edge"><title>Node33&#45;&gt;Node14</title>
<path fill="none" stroke="midnightblue" d="M899.203,-446.337C911.223,-430.759 932.761,-397.289 919,-372 888.063,-315.149 816.979,-281.304 772.774,-264.995"/>
<polygon fill="midnightblue" stroke="midnightblue" points="773.83,-261.655 763.235,-261.593 771.478,-268.249 773.83,-261.655"/>
</g>
<!-- Node34 -->
<g id="node34" class="node"><title>Node34</title>
<g id="a_node34"><a xlink:href="VectorArray_8hpp.html" target="_top" xlink:title="Core/Containers/VectorArray.hpp">
<polygon fill="white" stroke="black" points="969.5,-310.5 969.5,-329.5 1130.5,-329.5 1130.5,-310.5 969.5,-310.5"/>
<text text-anchor="middle" x="1050" y="-317.5" font-family="Helvetica,sans-Serif" font-size="10.00">Core/Containers/VectorArray.hpp</text>
</a>
</g>
</g>
<!-- Node33&#45;&gt;Node34 -->
<g id="edge45" class="edge"><title>Node33&#45;&gt;Node34</title>
<path fill="none" stroke="midnightblue" d="M902.392,-446.373C914.556,-436.26 935.294,-418.976 953,-404 980.86,-380.435 1013,-352.852 1032.4,-336.165"/>
<polygon fill="midnightblue" stroke="midnightblue" points="1034.82,-338.698 1040.12,-329.521 1030.26,-333.393 1034.82,-338.698"/>
</g>
<!-- Node35 -->
<g id="node35" class="node"><title>Node35</title>
<g id="a_node35"><a xlink:href="MeshTypes_8hpp.html" target="_top" xlink:title="Core/Mesh/MeshTypes.hpp">
<polygon fill="white" stroke="black" points="1158.5,-310.5 1158.5,-329.5 1295.5,-329.5 1295.5,-310.5 1158.5,-310.5"/>
<text text-anchor="middle" x="1227" y="-317.5" font-family="Helvetica,sans-Serif" font-size="10.00">Core/Mesh/MeshTypes.hpp</text>
</a>
</g>
</g>
<!-- Node33&#45;&gt;Node35 -->
<g id="edge51" class="edge"><title>Node33&#45;&gt;Node35</title>
<path fill="none" stroke="midnightblue" d="M913.465,-446.414C971.019,-423.392 1128.95,-360.222 1196.11,-333.355"/>
<polygon fill="midnightblue" stroke="midnightblue" points="1197.73,-336.478 1205.71,-329.515 1195.13,-329.979 1197.73,-336.478"/>
</g>
<!-- Node39 -->
<g id="node39" class="node"><title>Node39</title>
<g id="a_node39"><a xlink:href="Attribs_8hpp.html" target="_top" xlink:title="Core/Utils/Attribs.hpp">
<polygon fill="white" stroke="black" points="1263.5,-378.5 1263.5,-397.5 1374.5,-397.5 1374.5,-378.5 1263.5,-378.5"/>
<text text-anchor="middle" x="1319" y="-385.5" font-family="Helvetica,sans-Serif" font-size="10.00">Core/Utils/Attribs.hpp</text>
</a>
</g>
</g>
<!-- Node33&#45;&gt;Node39 -->
<g id="edge58" class="edge"><title>Node33&#45;&gt;Node39</title>
<path fill="none" stroke="midnightblue" d="M947.385,-446.439C1026.1,-434.273 1170.05,-412.023 1253.81,-399.077"/>
<polygon fill="midnightblue" stroke="midnightblue" points="1254.37,-402.532 1263.71,-397.546 1253.3,-395.614 1254.37,-402.532"/>
</g>
<!-- Node45 -->
<g id="node45" class="node"><title>Node45</title>
<g id="a_node45"><a xlink:href="TriangleMesh_8inl.html" target="_top" xlink:title="Core/Mesh/TriangleMesh.inl">
<polygon fill="white" stroke="black" points="771.5,-378.5 771.5,-397.5 910.5,-397.5 910.5,-378.5 771.5,-378.5"/>
<text text-anchor="middle" x="841" y="-385.5" font-family="Helvetica,sans-Serif" font-size="10.00">Core/Mesh/TriangleMesh.inl</text>
</a>
</g>
</g>
<!-- Node33&#45;&gt;Node45 -->
<g id="edge71" class="edge"><title>Node33&#45;&gt;Node45</title>
<path fill="none" stroke="midnightblue" d="M880.601,-446.372C870.626,-436.25 857.033,-419.215 848.37,-406.331"/>
<polygon fill="midnightblue" stroke="midnightblue" points="851.328,-404.461 843.056,-397.841 845.395,-408.175 851.328,-404.461"/>
</g>
<!-- Node34&#45;&gt;Node2 -->
<g id="edge48" class="edge"><title>Node34&#45;&gt;Node2</title>
<path fill="none" stroke="midnightblue" d="M1053.65,-310.462C1064.58,-285.698 1099.28,-212.766 1147,-168 1161.38,-154.511 1180.56,-143.623 1196.64,-135.938"/>
<polygon fill="midnightblue" stroke="midnightblue" points="1198.55,-138.915 1206.19,-131.572 1195.64,-132.549 1198.55,-138.915"/>
</g>
<!-- Node34&#45;&gt;Node11 -->
<g id="edge46" class="edge"><title>Node34&#45;&gt;Node11</title>
<path fill="none" stroke="midnightblue" d="M969.45,-310.641C846.882,-297.922 614.97,-273.855 493.206,-261.219"/>
<polygon fill="midnightblue" stroke="midnightblue" points="493.511,-257.732 483.203,-260.181 492.788,-264.695 493.511,-257.732"/>
</g>
<!-- Node34&#45;&gt;Node13 -->
<g id="edge49" class="edge"><title>Node34&#45;&gt;Node13</title>
<path fill="none" stroke="midnightblue" d="M1074.79,-310.443C1095.17,-302.309 1123.59,-288.286 1142,-268 1158.86,-249.419 1168.7,-221.707 1173.71,-203.496"/>
<polygon fill="midnightblue" stroke="midnightblue" points="1177.11,-204.335 1176.17,-193.781 1170.32,-202.614 1177.11,-204.335"/>
</g>
<!-- Node34&#45;&gt;Node14 -->
<g id="edge47" class="edge"><title>Node34&#45;&gt;Node14</title>
<path fill="none" stroke="midnightblue" d="M1009.14,-310.439C951.901,-298.446 847.896,-276.654 785.759,-263.635"/>
<polygon fill="midnightblue" stroke="midnightblue" points="786.291,-260.171 775.785,-261.546 784.855,-267.022 786.291,-260.171"/>
</g>
<!-- Node35&#45;&gt;Node2 -->
<g id="edge56" class="edge"><title>Node35&#45;&gt;Node2</title>
<path fill="none" stroke="midnightblue" d="M1227.04,-310.325C1227.2,-280.664 1227.69,-182.85 1227.91,-141.604"/>
<polygon fill="midnightblue" stroke="midnightblue" points="1231.41,-141.592 1227.96,-131.575 1224.41,-141.557 1231.41,-141.592"/>
</g>
<!-- Node35&#45;&gt;Node14 -->
<g id="edge55" class="edge"><title>Node35&#45;&gt;Node14</title>
<path fill="none" stroke="midnightblue" d="M1179.1,-310.449C1166.11,-308.235 1152.03,-305.932 1139,-304 1027.68,-287.493 898.582,-271.795 816.866,-262.282"/>
<polygon fill="midnightblue" stroke="midnightblue" points="816.983,-258.772 806.646,-261.096 816.176,-265.726 816.983,-258.772"/>
</g>
<!-- Node36 -->
<g id="node36" class="node"><title>Node36</title>
<g id="a_node36"><a xlink:href="Index_8hpp.html" target="_top" xlink:title="Core/Index/Index.hpp">
<polygon fill="white" stroke="black" points="1256,-242.5 1256,-261.5 1366,-261.5 1366,-242.5 1256,-242.5"/>
<text text-anchor="middle" x="1311" y="-249.5" font-family="Helvetica,sans-Serif" font-size="10.00">Core/Index/Index.hpp</text>
</a>
</g>
</g>
<!-- Node35&#45;&gt;Node36 -->
<g id="edge52" class="edge"><title>Node35&#45;&gt;Node36</title>
<path fill="none" stroke="midnightblue" d="M1237.98,-310.372C1251.69,-299.6 1275.36,-281.002 1292.03,-267.906"/>
<polygon fill="midnightblue" stroke="midnightblue" points="1294.31,-270.561 1300.02,-261.63 1289.99,-265.057 1294.31,-270.561"/>
</g>
<!-- Node37 -->
<g id="node37" class="node"><title>Node37</title>
<polygon fill="white" stroke="#bfbfbf" points="1378,-174.5 1378,-193.5 1418,-193.5 1418,-174.5 1378,-174.5"/>
<text text-anchor="middle" x="1398" y="-181.5" font-family="Helvetica,sans-Serif" font-size="10.00">limits</text>
</g>
<!-- Node36&#45;&gt;Node37 -->
<g id="edge53" class="edge"><title>Node36&#45;&gt;Node37</title>
<path fill="none" stroke="midnightblue" d="M1322.37,-242.372C1336.57,-231.6 1361.09,-213.002 1378.35,-199.906"/>
<polygon fill="midnightblue" stroke="midnightblue" points="1380.77,-202.463 1386.62,-193.63 1376.54,-196.886 1380.77,-202.463"/>
</g>
<!-- Node38 -->
<g id="node38" class="node"><title>Node38</title>
<g id="a_node38"><a xlink:href="Index_8inl.html" target="_top" xlink:title="Core/Index/Index.inl">
<polygon fill="white" stroke="black" points="1256,-174.5 1256,-193.5 1360,-193.5 1360,-174.5 1256,-174.5"/>
<text text-anchor="middle" x="1308" y="-181.5" font-family="Helvetica,sans-Serif" font-size="10.00">Core/Index/Index.inl</text>
</a>
</g>
</g>
<!-- Node36&#45;&gt;Node38 -->
<g id="edge54" class="edge"><title>Node36&#45;&gt;Node38</title>
<path fill="none" stroke="midnightblue" d="M1310.61,-242.372C1310.17,-232.643 1309.43,-216.528 1308.86,-203.85"/>
<polygon fill="midnightblue" stroke="midnightblue" points="1312.35,-203.672 1308.4,-193.841 1305.36,-203.99 1312.35,-203.672"/>
</g>
<!-- Node39&#45;&gt;Node2 -->
<g id="edge70" class="edge"><title>Node39&#45;&gt;Node2</title>
<path fill="none" stroke="midnightblue" d="M1329.75,-378.304C1366.9,-347.252 1484.43,-239.865 1427,-168 1409.48,-146.079 1337.42,-134.055 1285.05,-128.075"/>
<polygon fill="midnightblue" stroke="midnightblue" points="1285.18,-124.568 1274.85,-126.958 1284.41,-131.526 1285.18,-124.568"/>
</g>
<!-- Node39&#45;&gt;Node34 -->
<g id="edge59" class="edge"><title>Node39&#45;&gt;Node34</title>
<path fill="none" stroke="midnightblue" d="M1284.11,-378.439C1235.63,-366.545 1147.87,-345.013 1094.67,-331.959"/>
<polygon fill="midnightblue" stroke="midnightblue" points="1095.38,-328.529 1084.83,-329.546 1093.71,-335.328 1095.38,-328.529"/>
</g>
<!-- Node40 -->
<g id="node40" class="node"><title>Node40</title>
<g id="a_node40"><a xlink:href="Log_8hpp.html" target="_top" xlink:title="Core/Log/Log.hpp">
<polygon fill="white" stroke="black" points="1588,-310.5 1588,-329.5 1682,-329.5 1682,-310.5 1588,-310.5"/>
<text text-anchor="middle" x="1635" y="-317.5" font-family="Helvetica,sans-Serif" font-size="10.00">Core/Log/Log.hpp</text>
</a>
</g>
</g>
<!-- Node39&#45;&gt;Node40 -->
<g id="edge60" class="edge"><title>Node39&#45;&gt;Node40</title>
<path fill="none" stroke="midnightblue" d="M1359.99,-378.439C1417.41,-366.446 1521.75,-344.654 1584.08,-331.635"/>
<polygon fill="midnightblue" stroke="midnightblue" points="1585.01,-335.016 1594.09,-329.546 1583.58,-328.164 1585.01,-335.016"/>
</g>
<!-- Node40&#45;&gt;Node2 -->
<g id="edge61" class="edge"><title>Node40&#45;&gt;Node2</title>
<path fill="none" stroke="midnightblue" d="M1587.61,-312.429C1538.77,-304.572 1467.5,-289.702 1451,-268 1423.99,-232.481 1488.39,-202.427 1460,-168 1438.22,-141.594 1346.28,-130.493 1284.89,-125.964"/>
<polygon fill="midnightblue" stroke="midnightblue" points="1284.78,-122.448 1274.56,-125.242 1284.29,-129.431 1284.78,-122.448"/>
</g>
<!-- Node40&#45;&gt;Node7 -->
<g id="edge62" class="edge"><title>Node40&#45;&gt;Node7</title>
<path fill="none" stroke="midnightblue" d="M1682.28,-313.541C1711.1,-307.503 1745.79,-294.785 1764,-268 1819.64,-186.173 1720.26,-68.9578 1679.9,-26.8301"/>
<polygon fill="midnightblue" stroke="midnightblue" points="1682.38,-24.3601 1672.89,-19.6501 1677.37,-29.2503 1682.38,-24.3601"/>
</g>
<!-- Node41 -->
<g id="node41" class="node"><title>Node41</title>
<polygon fill="white" stroke="#bfbfbf" points="1612,-242.5 1612,-261.5 1658,-261.5 1658,-242.5 1612,-242.5"/>
<text text-anchor="middle" x="1635" y="-249.5" font-family="Helvetica,sans-Serif" font-size="10.00">stdio.h</text>
</g>
<!-- Node40&#45;&gt;Node41 -->
<g id="edge63" class="edge"><title>Node40&#45;&gt;Node41</title>
<path fill="none" stroke="midnightblue" d="M1635,-310.372C1635,-300.643 1635,-284.528 1635,-271.85"/>
<polygon fill="midnightblue" stroke="midnightblue" points="1638.5,-271.841 1635,-261.841 1631.5,-271.841 1638.5,-271.841"/>
</g>
<!-- Node42 -->
<g id="node42" class="node"><title>Node42</title>
<polygon fill="white" stroke="#bfbfbf" points="1609.5,-174.5 1609.5,-193.5 1650.5,-193.5 1650.5,-174.5 1609.5,-174.5"/>
<text text-anchor="middle" x="1630" y="-181.5" font-family="Helvetica,sans-Serif" font-size="10.00">string</text>
</g>
<!-- Node40&#45;&gt;Node42 -->
<g id="edge64" class="edge"><title>Node40&#45;&gt;Node42</title>
<path fill="none" stroke="midnightblue" d="M1642.59,-310.357C1650.46,-300.771 1662.26,-284.474 1667,-268 1670.93,-254.332 1671.39,-249.528 1667,-236 1662.81,-223.095 1654,-210.723 1646.02,-201.397"/>
<polygon fill="midnightblue" stroke="midnightblue" points="1648.4,-198.813 1639.09,-193.761 1643.22,-203.518 1648.4,-198.813"/>
</g>
<!-- Node43 -->
<g id="node43" class="node"><title>Node43</title>
<g id="a_node43"><a xlink:href="StringUtils_8hpp.html" target="_top" xlink:title="Core/String/StringUtils.hpp">
<polygon fill="white" stroke="black" points="1460,-242.5 1460,-261.5 1594,-261.5 1594,-242.5 1460,-242.5"/>
<text text-anchor="middle" x="1527" y="-249.5" font-family="Helvetica,sans-Serif" font-size="10.00">Core/String/StringUtils.hpp</text>
</a>
</g>
</g>
<!-- Node40&#45;&gt;Node43 -->
<g id="edge65" class="edge"><title>Node40&#45;&gt;Node43</title>
<path fill="none" stroke="midnightblue" d="M1620.88,-310.372C1602.85,-299.353 1571.42,-280.145 1549.93,-267.014"/>
<polygon fill="midnightblue" stroke="midnightblue" points="1551.48,-263.859 1541.12,-261.63 1547.83,-269.832 1551.48,-263.859"/>
</g>
<!-- Node44 -->
<g id="node44" class="node"><title>Node44</title>
<polygon fill="white" stroke="#bfbfbf" points="1714.5,-242.5 1714.5,-261.5 1755.5,-261.5 1755.5,-242.5 1714.5,-242.5"/>
<text text-anchor="middle" x="1735" y="-249.5" font-family="Helvetica,sans-Serif" font-size="10.00">ctime</text>
</g>
<!-- Node40&#45;&gt;Node44 -->
<g id="edge69" class="edge"><title>Node40&#45;&gt;Node44</title>
<path fill="none" stroke="midnightblue" d="M1648.07,-310.372C1664.69,-299.403 1693.61,-280.317 1713.5,-267.191"/>
<polygon fill="midnightblue" stroke="midnightblue" points="1715.51,-270.06 1721.92,-261.63 1711.65,-264.218 1715.51,-270.06"/>
</g>
<!-- Node43&#45;&gt;Node2 -->
<g id="edge66" class="edge"><title>Node43&#45;&gt;Node2</title>
<path fill="none" stroke="midnightblue" d="M1526.72,-242.374C1525.68,-225.295 1520.77,-187.173 1498,-168 1466.58,-141.541 1354.47,-130.296 1284.98,-125.783"/>
<polygon fill="midnightblue" stroke="midnightblue" points="1284.83,-122.267 1274.63,-125.14 1284.39,-129.254 1284.83,-122.267"/>
</g>
<!-- Node43&#45;&gt;Node13 -->
<g id="edge68" class="edge"><title>Node43&#45;&gt;Node13</title>
<path fill="none" stroke="midnightblue" d="M1477.34,-242.478C1421.29,-232.738 1327.43,-216.063 1247,-200 1234.82,-197.568 1221.47,-194.711 1209.79,-192.147"/>
<polygon fill="midnightblue" stroke="midnightblue" points="1210.54,-188.729 1200.02,-189.987 1209.03,-195.564 1210.54,-188.729"/>
</g>
<!-- Node43&#45;&gt;Node42 -->
<g id="edge67" class="edge"><title>Node43&#45;&gt;Node42</title>
<path fill="none" stroke="midnightblue" d="M1540.47,-242.372C1557.58,-231.403 1587.37,-212.317 1607.85,-199.191"/>
<polygon fill="midnightblue" stroke="midnightblue" points="1610,-201.973 1616.53,-193.63 1606.22,-196.079 1610,-201.973"/>
</g>
<!-- Node45&#45;&gt;Node33 -->
<g id="edge72" class="edge"><title>Node45&#45;&gt;Node33</title>
<path fill="none" stroke="midnightblue" d="M852.608,-397.841C862.536,-407.96 875.953,-424.781 884.559,-437.563"/>
<polygon fill="midnightblue" stroke="midnightblue" points="881.796,-439.746 890.064,-446.372 887.732,-436.037 881.796,-439.746"/>
</g>
</g>
</svg>
