<?xml version="1.0" encoding="UTF-8" standalone="no"?>
<!DOCTYPE svg PUBLIC "-//W3C//DTD SVG 1.1//EN"
 "http://www.w3.org/Graphics/SVG/1.1/DTD/svg11.dtd">
<!-- Generated by graphviz version 2.36.0 (20140111.2315)
 -->
<!-- Title: /home/travis/build/STORM&#45;IRIT/Radium&#45;Engine/src/Engine/Renderer/RenderTechnique/ShaderProgram.hpp Pages: 1 -->
<svg width="1872pt" height="512pt"
 viewBox="0.00 0.00 1872.00 512.00" xmlns="http://www.w3.org/2000/svg" xmlns:xlink="http://www.w3.org/1999/xlink">
<g id="graph0" class="graph" transform="scale(1 1) rotate(0) translate(4 508)">
<title>/home/travis/build/STORM&#45;IRIT/Radium&#45;Engine/src/Engine/Renderer/RenderTechnique/ShaderProgram.hpp</title>
<polygon fill="white" stroke="none" points="-4,4 -4,-508 1868,-508 1868,4 -4,4"/>
<!-- Node1 -->
<g id="node1" class="node"><title>Node1</title>
<polygon fill="#bfbfbf" stroke="black" points="758,-451 758,-503 946,-503 946,-451 758,-451"/>
<text text-anchor="start" x="766" y="-491" font-family="Helvetica,sans-Serif" font-size="10.00">/home/travis/build</text>
<text text-anchor="start" x="766" y="-480" font-family="Helvetica,sans-Serif" font-size="10.00">/STORM&#45;IRIT/Radium&#45;Engine</text>
<text text-anchor="start" x="766" y="-469" font-family="Helvetica,sans-Serif" font-size="10.00">/src/Engine/Renderer/RenderTechnique</text>
<text text-anchor="middle" x="852" y="-458" font-family="Helvetica,sans-Serif" font-size="10.00">/ShaderProgram.hpp</text>
</g>
<!-- Node2 -->
<g id="node2" class="node"><title>Node2</title>
<g id="a_node2"><a xlink:href="BlinnPhongMaterial_8cpp.html" target="_top" xlink:title="/home/travis/build\l/STORM&#45;IRIT/Radium&#45;Engine\l/src/Engine/Renderer/Material\l/BlinnPhongMaterial.cpp">
<polygon fill="white" stroke="black" points="175,-361 175,-413 323,-413 323,-361 175,-361"/>
<text text-anchor="start" x="183" y="-401" font-family="Helvetica,sans-Serif" font-size="10.00">/home/travis/build</text>
<text text-anchor="start" x="183" y="-390" font-family="Helvetica,sans-Serif" font-size="10.00">/STORM&#45;IRIT/Radium&#45;Engine</text>
<text text-anchor="start" x="183" y="-379" font-family="Helvetica,sans-Serif" font-size="10.00">/src/Engine/Renderer/Material</text>
<text text-anchor="middle" x="249" y="-368" font-family="Helvetica,sans-Serif" font-size="10.00">/BlinnPhongMaterial.cpp</text>
</a>
</g>
</g>
<!-- Node1&#45;&gt;Node2 -->
<g id="edge1" class="edge"><title>Node1&#45;&gt;Node2</title>
<path fill="none" stroke="midnightblue" d="M747.484,-468.58C642.848,-459.945 477.621,-443.025 337,-414 332.475,-413.066 327.847,-412.01 323.196,-410.872"/>
<polygon fill="midnightblue" stroke="midnightblue" points="747.481,-472.091 757.733,-469.415 748.05,-465.114 747.481,-472.091"/>
</g>
<!-- Node3 -->
<g id="node3" class="node"><title>Node3</title>
<g id="a_node3"><a xlink:href="Renderer_8cpp.html" target="_top" xlink:title="/home/travis/build\l/STORM&#45;IRIT/Radium&#45;Engine\l/src/Engine/Renderer/Renderer.cpp">
<polygon fill="white" stroke="black" points="0,-96.5 0,-137.5 170,-137.5 170,-96.5 0,-96.5"/>
<text text-anchor="start" x="8" y="-125.5" font-family="Helvetica,sans-Serif" font-size="10.00">/home/travis/build</text>
<text text-anchor="start" x="8" y="-114.5" font-family="Helvetica,sans-Serif" font-size="10.00">/STORM&#45;IRIT/Radium&#45;Engine</text>
<text text-anchor="middle" x="85" y="-103.5" font-family="Helvetica,sans-Serif" font-size="10.00">/src/Engine/Renderer/Renderer.cpp</text>
</a>
</g>
</g>
<!-- Node1&#45;&gt;Node3 -->
<g id="edge2" class="edge"><title>Node1&#45;&gt;Node3</title>
<path fill="none" stroke="midnightblue" d="M747.278,-472.81C668.254,-467.177 558.674,-452.348 470,-414 308.652,-344.223 154.741,-191.759 103.181,-137.583"/>
<polygon fill="midnightblue" stroke="midnightblue" points="747.52,-476.334 757.732,-473.514 747.99,-469.35 747.52,-476.334"/>
</g>
<!-- Node4 -->
<g id="node4" class="node"><title>Node4</title>
<g id="a_node4"><a xlink:href="DebugRender_8cpp.html" target="_top" xlink:title="/home/travis/build\l/STORM&#45;IRIT/Radium&#45;Engine\l/src/Engine/Renderer/Renderers\l/DebugRender.cpp">
<polygon fill="white" stroke="black" points="479.5,-361 479.5,-413 636.5,-413 636.5,-361 479.5,-361"/>
<text text-anchor="start" x="487.5" y="-401" font-family="Helvetica,sans-Serif" font-size="10.00">/home/travis/build</text>
<text text-anchor="start" x="487.5" y="-390" font-family="Helvetica,sans-Serif" font-size="10.00">/STORM&#45;IRIT/Radium&#45;Engine</text>
<text text-anchor="start" x="487.5" y="-379" font-family="Helvetica,sans-Serif" font-size="10.00">/src/Engine/Renderer/Renderers</text>
<text text-anchor="middle" x="558" y="-368" font-family="Helvetica,sans-Serif" font-size="10.00">/DebugRender.cpp</text>
</a>
</g>
</g>
<!-- Node1&#45;&gt;Node4 -->
<g id="edge3" class="edge"><title>Node1&#45;&gt;Node4</title>
<path fill="none" stroke="midnightblue" d="M758.316,-447.959C719.13,-436.229 674.096,-422.75 636.665,-411.546"/>
<polygon fill="midnightblue" stroke="midnightblue" points="757.561,-451.386 768.145,-450.901 759.568,-444.68 757.561,-451.386"/>
</g>
<!-- Node5 -->
<g id="node5" class="node"><title>Node5</title>
<g id="a_node5"><a xlink:href="RenderParameters_8inl.html" target="_top" xlink:title="/home/travis/build\l/STORM&#45;IRIT/Radium&#45;Engine\l/src/Engine/Renderer/RenderTechnique\l/RenderParameters.inl">
<polygon fill="white" stroke="black" points="655,-361 655,-413 843,-413 843,-361 655,-361"/>
<text text-anchor="start" x="663" y="-401" font-family="Helvetica,sans-Serif" font-size="10.00">/home/travis/build</text>
<text text-anchor="start" x="663" y="-390" font-family="Helvetica,sans-Serif" font-size="10.00">/STORM&#45;IRIT/Radium&#45;Engine</text>
<text text-anchor="start" x="663" y="-379" font-family="Helvetica,sans-Serif" font-size="10.00">/src/Engine/Renderer/RenderTechnique</text>
<text text-anchor="middle" x="749" y="-368" font-family="Helvetica,sans-Serif" font-size="10.00">/RenderParameters.inl</text>
</a>
</g>
</g>
<!-- Node1&#45;&gt;Node5 -->
<g id="edge4" class="edge"><title>Node1&#45;&gt;Node5</title>
<path fill="none" stroke="midnightblue" d="M814.829,-444.242C802.89,-434.042 789.834,-422.887 778.52,-413.221"/>
<polygon fill="midnightblue" stroke="midnightblue" points="812.608,-446.948 822.484,-450.783 817.155,-441.626 812.608,-446.948"/>
</g>
<!-- Node18 -->
<g id="node18" class="node"><title>Node18</title>
<g id="a_node18"><a xlink:href="ShaderProgram_8cpp.html" target="_top" xlink:title="/home/travis/build\l/STORM&#45;IRIT/Radium&#45;Engine\l/src/Engine/Renderer/RenderTechnique\l/ShaderProgram.cpp">
<polygon fill="white" stroke="black" points="861,-361 861,-413 1049,-413 1049,-361 861,-361"/>
<text text-anchor="start" x="869" y="-401" font-family="Helvetica,sans-Serif" font-size="10.00">/home/travis/build</text>
<text text-anchor="start" x="869" y="-390" font-family="Helvetica,sans-Serif" font-size="10.00">/STORM&#45;IRIT/Radium&#45;Engine</text>
<text text-anchor="start" x="869" y="-379" font-family="Helvetica,sans-Serif" font-size="10.00">/src/Engine/Renderer/RenderTechnique</text>
<text text-anchor="middle" x="955" y="-368" font-family="Helvetica,sans-Serif" font-size="10.00">/ShaderProgram.cpp</text>
</a>
</g>
</g>
<!-- Node1&#45;&gt;Node18 -->
<g id="edge19" class="edge"><title>Node1&#45;&gt;Node18</title>
<path fill="none" stroke="midnightblue" d="M889.171,-444.242C901.11,-434.042 914.166,-422.887 925.48,-413.221"/>
<polygon fill="midnightblue" stroke="midnightblue" points="886.845,-441.626 881.516,-450.783 891.392,-446.948 886.845,-441.626"/>
</g>
<!-- Node19 -->
<g id="node19" class="node"><title>Node19</title>
<g id="a_node19"><a xlink:href="ShaderProgramManager_8cpp.html" target="_top" xlink:title="/home/travis/build\l/STORM&#45;IRIT/Radium&#45;Engine\l/src/Engine/Renderer/RenderTechnique\l/ShaderProgramManager.cpp">
<polygon fill="white" stroke="black" points="1067,-361 1067,-413 1255,-413 1255,-361 1067,-361"/>
<text text-anchor="start" x="1075" y="-401" font-family="Helvetica,sans-Serif" font-size="10.00">/home/travis/build</text>
<text text-anchor="start" x="1075" y="-390" font-family="Helvetica,sans-Serif" font-size="10.00">/STORM&#45;IRIT/Radium&#45;Engine</text>
<text text-anchor="start" x="1075" y="-379" font-family="Helvetica,sans-Serif" font-size="10.00">/src/Engine/Renderer/RenderTechnique</text>
<text text-anchor="middle" x="1161" y="-368" font-family="Helvetica,sans-Serif" font-size="10.00">/ShaderProgramManager.cpp</text>
</a>
</g>
</g>
<!-- Node1&#45;&gt;Node19 -->
<g id="edge20" class="edge"><title>Node1&#45;&gt;Node19</title>
<path fill="none" stroke="midnightblue" d="M949.783,-448.152C989.296,-436.9 1034.56,-424.01 1073.02,-413.057"/>
<polygon fill="midnightblue" stroke="midnightblue" points="948.792,-444.795 940.133,-450.901 950.71,-451.528 948.792,-444.795"/>
</g>
<!-- Node20 -->
<g id="node20" class="node"><title>Node20</title>
<g id="a_node20"><a xlink:href="FancyMeshComponent_8cpp.html" target="_top" xlink:title="/home/travis/build\l/STORM&#45;IRIT/Radium&#45;Engine\l/Plugins/FancyMesh/src/FancyMesh\lComponent.cpp">
<polygon fill="white" stroke="black" points="1273,-361 1273,-413 1449,-413 1449,-361 1273,-361"/>
<text text-anchor="start" x="1281" y="-401" font-family="Helvetica,sans-Serif" font-size="10.00">/home/travis/build</text>
<text text-anchor="start" x="1281" y="-390" font-family="Helvetica,sans-Serif" font-size="10.00">/STORM&#45;IRIT/Radium&#45;Engine</text>
<text text-anchor="start" x="1281" y="-379" font-family="Helvetica,sans-Serif" font-size="10.00">/Plugins/FancyMesh/src/FancyMesh</text>
<text text-anchor="middle" x="1361" y="-368" font-family="Helvetica,sans-Serif" font-size="10.00">Component.cpp</text>
</a>
</g>
</g>
<!-- Node1&#45;&gt;Node20 -->
<g id="edge21" class="edge"><title>Node1&#45;&gt;Node20</title>
<path fill="none" stroke="midnightblue" d="M956.229,-463.612C1039.87,-452.88 1160.06,-435.678 1264,-414 1266.9,-413.395 1269.85,-412.755 1272.81,-412.089"/>
<polygon fill="midnightblue" stroke="midnightblue" points="955.691,-460.152 946.214,-464.888 956.576,-467.096 955.691,-460.152"/>
</g>
<!-- Node21 -->
<g id="node21" class="node"><title>Node21</title>
<g id="a_node21"><a xlink:href="SkinningDisplayComponent_8hpp.html" target="_top" xlink:title="/home/travis/build\l/STORM&#45;IRIT/Radium&#45;Engine\l/Plugins/Skinning/src/Display\l/SkinningDisplayComponent.hpp">
<polygon fill="white" stroke="black" points="1576.5,-361 1576.5,-413 1735.5,-413 1735.5,-361 1576.5,-361"/>
<text text-anchor="start" x="1584.5" y="-401" font-family="Helvetica,sans-Serif" font-size="10.00">/home/travis/build</text>
<text text-anchor="start" x="1584.5" y="-390" font-family="Helvetica,sans-Serif" font-size="10.00">/STORM&#45;IRIT/Radium&#45;Engine</text>
<text text-anchor="start" x="1584.5" y="-379" font-family="Helvetica,sans-Serif" font-size="10.00">/Plugins/Skinning/src/Display</text>
<text text-anchor="middle" x="1656" y="-368" font-family="Helvetica,sans-Serif" font-size="10.00">/SkinningDisplayComponent.hpp</text>
</a>
</g>
</g>
<!-- Node1&#45;&gt;Node21 -->
<g id="edge22" class="edge"><title>Node1&#45;&gt;Node21</title>
<path fill="none" stroke="midnightblue" d="M956.115,-466.217C1076.74,-454.678 1281.42,-434.463 1457,-414 1496.28,-409.422 1539.85,-403.793 1576.18,-398.944"/>
<polygon fill="midnightblue" stroke="midnightblue" points="955.765,-462.735 946.143,-467.17 956.431,-469.703 955.765,-462.735"/>
</g>
<!-- Node6 -->
<g id="node6" class="node"><title>Node6</title>
<g id="a_node6"><a xlink:href="RenderParameters_8hpp.html" target="_top" xlink:title="/home/travis/build\l/STORM&#45;IRIT/Radium&#45;Engine\l/src/Engine/Renderer/RenderTechnique\l/RenderParameters.hpp">
<polygon fill="white" stroke="black" points="755,-271 755,-323 943,-323 943,-271 755,-271"/>
<text text-anchor="start" x="763" y="-311" font-family="Helvetica,sans-Serif" font-size="10.00">/home/travis/build</text>
<text text-anchor="start" x="763" y="-300" font-family="Helvetica,sans-Serif" font-size="10.00">/STORM&#45;IRIT/Radium&#45;Engine</text>
<text text-anchor="start" x="763" y="-289" font-family="Helvetica,sans-Serif" font-size="10.00">/src/Engine/Renderer/RenderTechnique</text>
<text text-anchor="middle" x="849" y="-278" font-family="Helvetica,sans-Serif" font-size="10.00">/RenderParameters.hpp</text>
</a>
</g>
</g>
<!-- Node5&#45;&gt;Node6 -->
<g id="edge5" class="edge"><title>Node5&#45;&gt;Node6</title>
<path fill="none" stroke="midnightblue" d="M785.42,-353.951C796.921,-343.829 809.46,-332.795 820.34,-323.221"/>
<polygon fill="midnightblue" stroke="midnightblue" points="782.851,-351.549 777.656,-360.783 787.475,-356.804 782.851,-351.549"/>
</g>
<!-- Node7 -->
<g id="node7" class="node"><title>Node7</title>
<g id="a_node7"><a xlink:href="LightManager_8hpp.html" target="_top" xlink:title="/home/travis/build\l/STORM&#45;IRIT/Radium&#45;Engine\l/src/Engine/Managers/LightManager\l/LightManager.hpp">
<polygon fill="white" stroke="black" points="379.5,-181 379.5,-233 552.5,-233 552.5,-181 379.5,-181"/>
<text text-anchor="start" x="387.5" y="-221" font-family="Helvetica,sans-Serif" font-size="10.00">/home/travis/build</text>
<text text-anchor="start" x="387.5" y="-210" font-family="Helvetica,sans-Serif" font-size="10.00">/STORM&#45;IRIT/Radium&#45;Engine</text>
<text text-anchor="start" x="387.5" y="-199" font-family="Helvetica,sans-Serif" font-size="10.00">/src/Engine/Managers/LightManager</text>
<text text-anchor="middle" x="466" y="-188" font-family="Helvetica,sans-Serif" font-size="10.00">/LightManager.hpp</text>
</a>
</g>
</g>
<!-- Node6&#45;&gt;Node7 -->
<g id="edge6" class="edge"><title>Node6&#45;&gt;Node7</title>
<path fill="none" stroke="midnightblue" d="M745.003,-274.059C691.678,-262.575 625.755,-248.017 567,-234 562.333,-232.887 557.55,-231.725 552.724,-230.537"/>
<polygon fill="midnightblue" stroke="midnightblue" points="744.297,-277.487 754.809,-276.167 745.768,-270.643 744.297,-277.487"/>
</g>
<!-- Node10 -->
<g id="node10" class="node"><title>Node10</title>
<g id="a_node10"><a xlink:href="ForwardRenderer_8cpp.html" target="_top" xlink:title="/home/travis/build\l/STORM&#45;IRIT/Radium&#45;Engine\l/src/Engine/Renderer/Renderers\l/ForwardRenderer.cpp">
<polygon fill="white" stroke="black" points="440.5,-1 440.5,-53 597.5,-53 597.5,-1 440.5,-1"/>
<text text-anchor="start" x="448.5" y="-41" font-family="Helvetica,sans-Serif" font-size="10.00">/home/travis/build</text>
<text text-anchor="start" x="448.5" y="-30" font-family="Helvetica,sans-Serif" font-size="10.00">/STORM&#45;IRIT/Radium&#45;Engine</text>
<text text-anchor="start" x="448.5" y="-19" font-family="Helvetica,sans-Serif" font-size="10.00">/src/Engine/Renderer/Renderers</text>
<text text-anchor="middle" x="519" y="-8" font-family="Helvetica,sans-Serif" font-size="10.00">/ForwardRenderer.cpp</text>
</a>
</g>
</g>
<!-- Node6&#45;&gt;Node10 -->
<g id="edge16" class="edge"><title>Node6&#45;&gt;Node10</title>
<path fill="none" stroke="midnightblue" d="M744.63,-280.848C686.185,-270.33 620.944,-254.52 600,-234 552.638,-187.597 588.638,-150.271 561,-90 555.093,-77.1185 546.602,-63.9665 538.798,-53.1095"/>
<polygon fill="midnightblue" stroke="midnightblue" points="744.24,-284.334 754.696,-282.621 745.454,-277.44 744.24,-284.334"/>
</g>
<!-- Node12 -->
<g id="node12" class="node"><title>Node12</title>
<g id="a_node12"><a xlink:href="DirLight_8cpp.html" target="_top" xlink:title="/home/travis/build\l/STORM&#45;IRIT/Radium&#45;Engine\l/src/Engine/Renderer/Light\l/DirLight.cpp">
<polygon fill="white" stroke="black" points="609,-181 609,-233 757,-233 757,-181 609,-181"/>
<text text-anchor="start" x="617" y="-221" font-family="Helvetica,sans-Serif" font-size="10.00">/home/travis/build</text>
<text text-anchor="start" x="617" y="-210" font-family="Helvetica,sans-Serif" font-size="10.00">/STORM&#45;IRIT/Radium&#45;Engine</text>
<text text-anchor="start" x="617" y="-199" font-family="Helvetica,sans-Serif" font-size="10.00">/src/Engine/Renderer/Light</text>
<text text-anchor="middle" x="683" y="-188" font-family="Helvetica,sans-Serif" font-size="10.00">/DirLight.cpp</text>
</a>
</g>
</g>
<!-- Node6&#45;&gt;Node12 -->
<g id="edge12" class="edge"><title>Node6&#45;&gt;Node12</title>
<path fill="none" stroke="midnightblue" d="M792.334,-265.96C772.136,-255.253 749.616,-243.315 730.289,-233.069"/>
<polygon fill="midnightblue" stroke="midnightblue" points="790.956,-269.191 801.431,-270.783 794.235,-263.007 790.956,-269.191"/>
</g>
<!-- Node13 -->
<g id="node13" class="node"><title>Node13</title>
<g id="a_node13"><a xlink:href="Light_8cpp.html" target="_top" xlink:title="/home/travis/build\l/STORM&#45;IRIT/Radium&#45;Engine\l/src/Engine/Renderer/Light\l/Light.cpp">
<polygon fill="white" stroke="black" points="775,-181 775,-233 923,-233 923,-181 775,-181"/>
<text text-anchor="start" x="783" y="-221" font-family="Helvetica,sans-Serif" font-size="10.00">/home/travis/build</text>
<text text-anchor="start" x="783" y="-210" font-family="Helvetica,sans-Serif" font-size="10.00">/STORM&#45;IRIT/Radium&#45;Engine</text>
<text text-anchor="start" x="783" y="-199" font-family="Helvetica,sans-Serif" font-size="10.00">/src/Engine/Renderer/Light</text>
<text text-anchor="middle" x="849" y="-188" font-family="Helvetica,sans-Serif" font-size="10.00">/Light.cpp</text>
</a>
</g>
</g>
<!-- Node6&#45;&gt;Node13 -->
<g id="edge13" class="edge"><title>Node6&#45;&gt;Node13</title>
<path fill="none" stroke="midnightblue" d="M849,-260.489C849,-251.309 849,-241.616 849,-233.092"/>
<polygon fill="midnightblue" stroke="midnightblue" points="845.5,-260.547 849,-270.547 852.5,-260.547 845.5,-260.547"/>
</g>
<!-- Node14 -->
<g id="node14" class="node"><title>Node14</title>
<g id="a_node14"><a xlink:href="PointLight_8cpp.html" target="_top" xlink:title="/home/travis/build\l/STORM&#45;IRIT/Radium&#45;Engine\l/src/Engine/Renderer/Light\l/PointLight.cpp">
<polygon fill="white" stroke="black" points="941,-181 941,-233 1089,-233 1089,-181 941,-181"/>
<text text-anchor="start" x="949" y="-221" font-family="Helvetica,sans-Serif" font-size="10.00">/home/travis/build</text>
<text text-anchor="start" x="949" y="-210" font-family="Helvetica,sans-Serif" font-size="10.00">/STORM&#45;IRIT/Radium&#45;Engine</text>
<text text-anchor="start" x="949" y="-199" font-family="Helvetica,sans-Serif" font-size="10.00">/src/Engine/Renderer/Light</text>
<text text-anchor="middle" x="1015" y="-188" font-family="Helvetica,sans-Serif" font-size="10.00">/PointLight.cpp</text>
</a>
</g>
</g>
<!-- Node6&#45;&gt;Node14 -->
<g id="edge14" class="edge"><title>Node6&#45;&gt;Node14</title>
<path fill="none" stroke="midnightblue" d="M905.666,-265.96C925.864,-255.253 948.384,-243.315 967.711,-233.069"/>
<polygon fill="midnightblue" stroke="midnightblue" points="903.765,-263.007 896.569,-270.783 907.044,-269.191 903.765,-263.007"/>
</g>
<!-- Node15 -->
<g id="node15" class="node"><title>Node15</title>
<g id="a_node15"><a xlink:href="SpotLight_8cpp.html" target="_top" xlink:title="/home/travis/build\l/STORM&#45;IRIT/Radium&#45;Engine\l/src/Engine/Renderer/Light\l/SpotLight.cpp">
<polygon fill="white" stroke="black" points="1107,-181 1107,-233 1255,-233 1255,-181 1107,-181"/>
<text text-anchor="start" x="1115" y="-221" font-family="Helvetica,sans-Serif" font-size="10.00">/home/travis/build</text>
<text text-anchor="start" x="1115" y="-210" font-family="Helvetica,sans-Serif" font-size="10.00">/STORM&#45;IRIT/Radium&#45;Engine</text>
<text text-anchor="start" x="1115" y="-199" font-family="Helvetica,sans-Serif" font-size="10.00">/src/Engine/Renderer/Light</text>
<text text-anchor="middle" x="1181" y="-188" font-family="Helvetica,sans-Serif" font-size="10.00">/SpotLight.cpp</text>
</a>
</g>
</g>
<!-- Node6&#45;&gt;Node15 -->
<g id="edge15" class="edge"><title>Node6&#45;&gt;Node15</title>
<path fill="none" stroke="midnightblue" d="M952.784,-271.621C997.609,-260.714 1050.55,-247.327 1098,-234 1100.91,-233.183 1103.87,-232.336 1106.85,-231.467"/>
<polygon fill="midnightblue" stroke="midnightblue" points="951.947,-268.222 943.053,-273.98 953.596,-275.025 951.947,-268.222"/>
</g>
<!-- Node16 -->
<g id="node16" class="node"><title>Node16</title>
<g id="a_node16"><a xlink:href="RenderObject_8cpp.html" target="_top" xlink:title="/home/travis/build\l/STORM&#45;IRIT/Radium&#45;Engine\l/src/Engine/Renderer/RenderObject\l/RenderObject.cpp">
<polygon fill="white" stroke="black" points="1273,-181 1273,-233 1445,-233 1445,-181 1273,-181"/>
<text text-anchor="start" x="1281" y="-221" font-family="Helvetica,sans-Serif" font-size="10.00">/home/travis/build</text>
<text text-anchor="start" x="1281" y="-210" font-family="Helvetica,sans-Serif" font-size="10.00">/STORM&#45;IRIT/Radium&#45;Engine</text>
<text text-anchor="start" x="1281" y="-199" font-family="Helvetica,sans-Serif" font-size="10.00">/src/Engine/Renderer/RenderObject</text>
<text text-anchor="middle" x="1359" y="-188" font-family="Helvetica,sans-Serif" font-size="10.00">/RenderObject.cpp</text>
</a>
</g>
</g>
<!-- Node6&#45;&gt;Node16 -->
<g id="edge17" class="edge"><title>Node6&#45;&gt;Node16</title>
<path fill="none" stroke="midnightblue" d="M953.196,-283.92C1037.5,-273.311 1159.03,-256.124 1264,-234 1266.93,-233.383 1269.9,-232.729 1272.9,-232.045"/>
<polygon fill="midnightblue" stroke="midnightblue" points="952.592,-280.468 943.103,-285.181 953.46,-287.414 952.592,-280.468"/>
</g>
<!-- Node17 -->
<g id="node17" class="node"><title>Node17</title>
<g id="a_node17"><a xlink:href="RenderParameters_8cpp.html" target="_top" xlink:title="/home/travis/build\l/STORM&#45;IRIT/Radium&#45;Engine\l/src/Engine/Renderer/RenderTechnique\l/RenderParameters.cpp">
<polygon fill="white" stroke="black" points="1463,-181 1463,-233 1651,-233 1651,-181 1463,-181"/>
<text text-anchor="start" x="1471" y="-221" font-family="Helvetica,sans-Serif" font-size="10.00">/home/travis/build</text>
<text text-anchor="start" x="1471" y="-210" font-family="Helvetica,sans-Serif" font-size="10.00">/STORM&#45;IRIT/Radium&#45;Engine</text>
<text text-anchor="start" x="1471" y="-199" font-family="Helvetica,sans-Serif" font-size="10.00">/src/Engine/Renderer/RenderTechnique</text>
<text text-anchor="middle" x="1557" y="-188" font-family="Helvetica,sans-Serif" font-size="10.00">/RenderParameters.cpp</text>
</a>
</g>
</g>
<!-- Node6&#45;&gt;Node17 -->
<g id="edge18" class="edge"><title>Node6&#45;&gt;Node17</title>
<path fill="none" stroke="midnightblue" d="M953.127,-289.938C1074.18,-281.828 1279.67,-264.768 1454,-234 1456.91,-233.487 1459.85,-232.937 1462.82,-232.356"/>
<polygon fill="midnightblue" stroke="midnightblue" points="952.867,-286.448 943.12,-290.601 953.33,-293.432 952.867,-286.448"/>
</g>
<!-- Node7&#45;&gt;Node3 -->
<g id="edge11" class="edge"><title>Node7&#45;&gt;Node3</title>
<path fill="none" stroke="midnightblue" d="M369.419,-181.005C367.937,-180.665 366.463,-180.33 365,-180 282.858,-161.496 260.974,-163.238 179,-144 170.593,-142.027 161.805,-139.808 153.121,-137.52"/>
<polygon fill="midnightblue" stroke="midnightblue" points="368.774,-184.449 379.309,-183.32 370.37,-177.633 368.774,-184.449"/>
</g>
<!-- Node8 -->
<g id="node8" class="node"><title>Node8</title>
<g id="a_node8"><a xlink:href="DefaultLightManager_8hpp.html" target="_top" xlink:title="/home/travis/build\l/STORM&#45;IRIT/Radium&#45;Engine\l/src/Engine/Managers/LightManager\l/DefaultLightManager.hpp">
<polygon fill="white" stroke="black" points="188.5,-91 188.5,-143 361.5,-143 361.5,-91 188.5,-91"/>
<text text-anchor="start" x="196.5" y="-131" font-family="Helvetica,sans-Serif" font-size="10.00">/home/travis/build</text>
<text text-anchor="start" x="196.5" y="-120" font-family="Helvetica,sans-Serif" font-size="10.00">/STORM&#45;IRIT/Radium&#45;Engine</text>
<text text-anchor="start" x="196.5" y="-109" font-family="Helvetica,sans-Serif" font-size="10.00">/src/Engine/Managers/LightManager</text>
<text text-anchor="middle" x="275" y="-98" font-family="Helvetica,sans-Serif" font-size="10.00">/DefaultLightManager.hpp</text>
</a>
</g>
</g>
<!-- Node7&#45;&gt;Node8 -->
<g id="edge7" class="edge"><title>Node7&#45;&gt;Node8</title>
<path fill="none" stroke="midnightblue" d="M402.305,-176.654C378.731,-165.792 352.238,-153.586 329.55,-143.133"/>
<polygon fill="midnightblue" stroke="midnightblue" points="400.976,-179.895 411.523,-180.901 403.905,-173.537 400.976,-179.895"/>
</g>
<!-- Node11 -->
<g id="node11" class="node"><title>Node11</title>
<g id="a_node11"><a xlink:href="LightManager_8cpp.html" target="_top" xlink:title="/home/travis/build\l/STORM&#45;IRIT/Radium&#45;Engine\l/src/Engine/Managers/LightManager\l/LightManager.cpp">
<polygon fill="white" stroke="black" points="379.5,-91 379.5,-143 552.5,-143 552.5,-91 379.5,-91"/>
<text text-anchor="start" x="387.5" y="-131" font-family="Helvetica,sans-Serif" font-size="10.00">/home/travis/build</text>
<text text-anchor="start" x="387.5" y="-120" font-family="Helvetica,sans-Serif" font-size="10.00">/STORM&#45;IRIT/Radium&#45;Engine</text>
<text text-anchor="start" x="387.5" y="-109" font-family="Helvetica,sans-Serif" font-size="10.00">/src/Engine/Managers/LightManager</text>
<text text-anchor="middle" x="466" y="-98" font-family="Helvetica,sans-Serif" font-size="10.00">/LightManager.cpp</text>
</a>
</g>
</g>
<!-- Node7&#45;&gt;Node11 -->
<g id="edge10" class="edge"><title>Node7&#45;&gt;Node11</title>
<path fill="none" stroke="midnightblue" d="M466,-170.489C466,-161.309 466,-151.616 466,-143.092"/>
<polygon fill="midnightblue" stroke="midnightblue" points="462.5,-170.547 466,-180.547 469.5,-170.547 462.5,-170.547"/>
</g>
<!-- Node9 -->
<g id="node9" class="node"><title>Node9</title>
<g id="a_node9"><a xlink:href="DefaultLightManager_8cpp.html" target="_top" xlink:title="/home/travis/build\l/STORM&#45;IRIT/Radium&#45;Engine\l/src/Engine/Managers/LightManager\l/DefaultLightManager.cpp">
<polygon fill="white" stroke="black" points="188.5,-1 188.5,-53 361.5,-53 361.5,-1 188.5,-1"/>
<text text-anchor="start" x="196.5" y="-41" font-family="Helvetica,sans-Serif" font-size="10.00">/home/travis/build</text>
<text text-anchor="start" x="196.5" y="-30" font-family="Helvetica,sans-Serif" font-size="10.00">/STORM&#45;IRIT/Radium&#45;Engine</text>
<text text-anchor="start" x="196.5" y="-19" font-family="Helvetica,sans-Serif" font-size="10.00">/src/Engine/Managers/LightManager</text>
<text text-anchor="middle" x="275" y="-8" font-family="Helvetica,sans-Serif" font-size="10.00">/DefaultLightManager.cpp</text>
</a>
</g>
</g>
<!-- Node8&#45;&gt;Node9 -->
<g id="edge8" class="edge"><title>Node8&#45;&gt;Node9</title>
<path fill="none" stroke="midnightblue" d="M275,-80.4892C275,-71.3088 275,-61.616 275,-53.0921"/>
<polygon fill="midnightblue" stroke="midnightblue" points="271.5,-80.5467 275,-90.5468 278.5,-80.5468 271.5,-80.5467"/>
</g>
<!-- Node8&#45;&gt;Node10 -->
<g id="edge9" class="edge"><title>Node8&#45;&gt;Node10</title>
<path fill="none" stroke="midnightblue" d="M354.376,-87.3724C384.985,-76.3332 419.688,-63.8175 449.313,-53.1328"/>
<polygon fill="midnightblue" stroke="midnightblue" points="352.814,-84.2154 344.594,-90.9005 355.188,-90.8002 352.814,-84.2154"/>
</g>
<!-- Node22 -->
<g id="node22" class="node"><title>Node22</title>
<g id="a_node22"><a xlink:href="SkinningSystem_8hpp.html" target="_top" xlink:title="/home/travis/build\l/STORM&#45;IRIT/Radium&#45;Engine\l/Plugins/Skinning/src/SkinningSystem.hpp">
<polygon fill="white" stroke="black" points="1610,-276.5 1610,-317.5 1812,-317.5 1812,-276.5 1610,-276.5"/>
<text text-anchor="start" x="1618" y="-305.5" font-family="Helvetica,sans-Serif" font-size="10.00">/home/travis/build</text>
<text text-anchor="start" x="1618" y="-294.5" font-family="Helvetica,sans-Serif" font-size="10.00">/STORM&#45;IRIT/Radium&#45;Engine</text>
<text text-anchor="middle" x="1711" y="-283.5" font-family="Helvetica,sans-Serif" font-size="10.00">/Plugins/Skinning/src/SkinningSystem.hpp</text>
</a>
</g>
</g>
<!-- Node21&#45;&gt;Node22 -->
<g id="edge23" class="edge"><title>Node21&#45;&gt;Node22</title>
<path fill="none" stroke="midnightblue" d="M1677.32,-351.889C1684.6,-340.243 1692.49,-327.623 1698.8,-317.525"/>
<polygon fill="midnightblue" stroke="midnightblue" points="1674.24,-350.212 1671.91,-360.547 1680.18,-353.922 1674.24,-350.212"/>
</g>
<!-- Node23 -->
<g id="node23" class="node"><title>Node23</title>
<g id="a_node23"><a xlink:href="SkinningPlugin_8cpp.html" target="_top" xlink:title="/home/travis/build\l/STORM&#45;IRIT/Radium&#45;Engine\l/Plugins/Skinning/src/SkinningPlugin.cpp">
<polygon fill="white" stroke="black" points="1669.5,-186.5 1669.5,-227.5 1864.5,-227.5 1864.5,-186.5 1669.5,-186.5"/>
<text text-anchor="start" x="1677.5" y="-215.5" font-family="Helvetica,sans-Serif" font-size="10.00">/home/travis/build</text>
<text text-anchor="start" x="1677.5" y="-204.5" font-family="Helvetica,sans-Serif" font-size="10.00">/STORM&#45;IRIT/Radium&#45;Engine</text>
<text text-anchor="middle" x="1767" y="-193.5" font-family="Helvetica,sans-Serif" font-size="10.00">/Plugins/Skinning/src/SkinningPlugin.cpp</text>
</a>
</g>
</g>
<!-- Node22&#45;&gt;Node23 -->
<g id="edge24" class="edge"><title>Node22&#45;&gt;Node23</title>
<path fill="none" stroke="midnightblue" d="M1728.92,-267.845C1737.22,-254.793 1746.89,-239.594 1754.41,-227.78"/>
<polygon fill="midnightblue" stroke="midnightblue" points="1725.84,-266.154 1723.43,-276.47 1731.75,-269.912 1725.84,-266.154"/>
</g>
</g>
</svg>
