<?xml version="1.0" encoding="UTF-8" standalone="no"?>
<!DOCTYPE svg PUBLIC "-//W3C//DTD SVG 1.1//EN"
 "http://www.w3.org/Graphics/SVG/1.1/DTD/svg11.dtd">
<!-- Generated by graphviz version 2.36.0 (20140111.2315)
 -->
<!-- Title: /home/travis/build/STORM&#45;IRIT/Radium&#45;Engine/src/Core/Animation/Skinning/SkinningData.hpp Pages: 1 -->
<svg width="1962pt" height="570pt"
 viewBox="0.00 0.00 1962.00 570.00" xmlns="http://www.w3.org/2000/svg" xmlns:xlink="http://www.w3.org/1999/xlink">
<g id="graph0" class="graph" transform="scale(1 1) rotate(0) translate(4 566)">
<title>/home/travis/build/STORM&#45;IRIT/Radium&#45;Engine/src/Core/Animation/Skinning/SkinningData.hpp</title>
<polygon fill="white" stroke="none" points="-4,4 -4,-566 1958,-566 1958,4 -4,4"/>
<!-- Node1 -->
<g id="node1" class="node"><title>Node1</title>
<polygon fill="#bfbfbf" stroke="black" points="882,-509 882,-561 1030,-561 1030,-509 882,-509"/>
<text text-anchor="start" x="890" y="-549" font-family="Helvetica,sans-Serif" font-size="10.00">/home/travis/build</text>
<text text-anchor="start" x="890" y="-538" font-family="Helvetica,sans-Serif" font-size="10.00">/STORM&#45;IRIT/Radium&#45;Engine</text>
<text text-anchor="start" x="890" y="-527" font-family="Helvetica,sans-Serif" font-size="10.00">/src/Core/Animation/Skinning</text>
<text text-anchor="middle" x="956" y="-516" font-family="Helvetica,sans-Serif" font-size="10.00">/SkinningData.hpp</text>
</g>
<!-- Node2 -->
<g id="node2" class="node"><title>Node2</title>
<g id="a_node2"><a xlink:href="HandleWeight_8hpp.html" target="_top" xlink:title="Core/Animation/Handle\l/HandleWeight.hpp">
<polygon fill="white" stroke="black" points="576,-305 576,-335 694,-335 694,-305 576,-305"/>
<text text-anchor="start" x="584" y="-323" font-family="Helvetica,sans-Serif" font-size="10.00">Core/Animation/Handle</text>
<text text-anchor="middle" x="635" y="-312" font-family="Helvetica,sans-Serif" font-size="10.00">/HandleWeight.hpp</text>
</a>
</g>
</g>
<!-- Node1&#45;&gt;Node2 -->
<g id="edge1" class="edge"><title>Node1&#45;&gt;Node2</title>
<path fill="none" stroke="midnightblue" d="M881.763,-525.832C836.775,-517.909 780.132,-502.374 738,-472 691.81,-438.701 659.768,-377.896 644.733,-344.504"/>
<polygon fill="midnightblue" stroke="midnightblue" points="647.828,-342.845 640.617,-335.082 641.413,-345.647 647.828,-342.845"/>
</g>
<!-- Node4 -->
<g id="node4" class="node"><title>Node4</title>
<g id="a_node4"><a xlink:href="RaCore_8hpp.html" target="_top" xlink:title="Core/RaCore.hpp">
<polygon fill="white" stroke="black" points="1236.5,-112.5 1236.5,-131.5 1329.5,-131.5 1329.5,-112.5 1236.5,-112.5"/>
<text text-anchor="middle" x="1283" y="-119.5" font-family="Helvetica,sans-Serif" font-size="10.00">Core/RaCore.hpp</text>
</a>
</g>
</g>
<!-- Node1&#45;&gt;Node4 -->
<g id="edge71" class="edge"><title>Node1&#45;&gt;Node4</title>
<path fill="none" stroke="midnightblue" d="M1030.2,-531.029C1261.49,-520.79 1954,-482.341 1954,-389 1954,-389 1954,-389 1954,-251 1954,-138.555 1824.76,-192.431 1715,-168 1582.52,-138.51 1422.77,-128.243 1339.6,-124.746"/>
<polygon fill="midnightblue" stroke="midnightblue" points="1339.73,-121.249 1329.6,-124.343 1339.45,-128.243 1339.73,-121.249"/>
</g>
<!-- Node25 -->
<g id="node25" class="node"><title>Node25</title>
<g id="a_node25"><a xlink:href="Skeleton_8hpp.html" target="_top" xlink:title="Core/Animation/Handle\l/Skeleton.hpp">
<polygon fill="white" stroke="black" points="984,-441 984,-471 1102,-471 1102,-441 984,-441"/>
<text text-anchor="start" x="992" y="-459" font-family="Helvetica,sans-Serif" font-size="10.00">Core/Animation/Handle</text>
<text text-anchor="middle" x="1043" y="-448" font-family="Helvetica,sans-Serif" font-size="10.00">/Skeleton.hpp</text>
</a>
</g>
</g>
<!-- Node1&#45;&gt;Node25 -->
<g id="edge27" class="edge"><title>Node1&#45;&gt;Node25</title>
<path fill="none" stroke="midnightblue" d="M984.487,-508.787C995.781,-498.791 1008.61,-487.433 1019.38,-477.906"/>
<polygon fill="midnightblue" stroke="midnightblue" points="1021.98,-480.279 1027.15,-471.031 1017.34,-475.037 1021.98,-480.279"/>
</g>
<!-- Node27 -->
<g id="node27" class="node"><title>Node27</title>
<g id="a_node27"><a xlink:href="Pose_8hpp.html" target="_top" xlink:title="Core/Animation/Pose\l/Pose.hpp">
<polygon fill="white" stroke="black" points="798,-305 798,-335 908,-335 908,-305 798,-305"/>
<text text-anchor="start" x="806" y="-323" font-family="Helvetica,sans-Serif" font-size="10.00">Core/Animation/Pose</text>
<text text-anchor="middle" x="853" y="-312" font-family="Helvetica,sans-Serif" font-size="10.00">/Pose.hpp</text>
</a>
</g>
</g>
<!-- Node1&#45;&gt;Node27 -->
<g id="edge41" class="edge"><title>Node1&#45;&gt;Node27</title>
<path fill="none" stroke="midnightblue" d="M950.167,-508.845C941.825,-475.851 924.505,-416.887 898,-372 891.84,-361.568 883.39,-351.307 875.475,-342.755"/>
<polygon fill="midnightblue" stroke="midnightblue" points="877.888,-340.214 868.438,-335.425 872.839,-345.063 877.888,-340.214"/>
</g>
<!-- Node32 -->
<g id="node32" class="node"><title>Node32</title>
<g id="a_node32"><a xlink:href="TriangleMesh_8hpp.html" target="_top" xlink:title="Core/Mesh/TriangleMesh.hpp">
<polygon fill="white" stroke="black" points="747.5,-446.5 747.5,-465.5 892.5,-465.5 892.5,-446.5 747.5,-446.5"/>
<text text-anchor="middle" x="820" y="-453.5" font-family="Helvetica,sans-Serif" font-size="10.00">Core/Mesh/TriangleMesh.hpp</text>
</a>
</g>
</g>
<!-- Node1&#45;&gt;Node32 -->
<g id="edge42" class="edge"><title>Node1&#45;&gt;Node32</title>
<path fill="none" stroke="midnightblue" d="M911.469,-508.787C888.936,-496.03 862.486,-481.054 843.84,-470.498"/>
<polygon fill="midnightblue" stroke="midnightblue" points="845.541,-467.439 835.115,-465.558 842.093,-473.53 845.541,-467.439"/>
</g>
<!-- Node3 -->
<g id="node3" class="node"><title>Node3</title>
<g id="a_node3"><a xlink:href="AlignedStdVector_8hpp.html" target="_top" xlink:title="Core/Containers/AlignedStd\lVector.hpp">
<polygon fill="white" stroke="black" points="1247,-237 1247,-267 1385,-267 1385,-237 1247,-237"/>
<text text-anchor="start" x="1255" y="-255" font-family="Helvetica,sans-Serif" font-size="10.00">Core/Containers/AlignedStd</text>
<text text-anchor="middle" x="1316" y="-244" font-family="Helvetica,sans-Serif" font-size="10.00">Vector.hpp</text>
</a>
</g>
</g>
<!-- Node2&#45;&gt;Node3 -->
<g id="edge2" class="edge"><title>Node2&#45;&gt;Node3</title>
<path fill="none" stroke="midnightblue" d="M694.234,-313.222C722.862,-310.431 757.718,-307.037 789,-304 947.933,-288.569 1133.83,-270.597 1236.92,-260.637"/>
<polygon fill="midnightblue" stroke="midnightblue" points="1237.32,-264.115 1246.94,-259.669 1236.65,-257.147 1237.32,-264.115"/>
</g>
<!-- Node13 -->
<g id="node13" class="node"><title>Node13</title>
<g id="a_node13"><a xlink:href="LinearAlgebra_8hpp.html" target="_top" xlink:title="Core/Math/LinearAlgebra.hpp">
<polygon fill="white" stroke="black" points="660.5,-242.5 660.5,-261.5 803.5,-261.5 803.5,-242.5 660.5,-242.5"/>
<text text-anchor="middle" x="732" y="-249.5" font-family="Helvetica,sans-Serif" font-size="10.00">Core/Math/LinearAlgebra.hpp</text>
</a>
</g>
</g>
<!-- Node2&#45;&gt;Node13 -->
<g id="edge12" class="edge"><title>Node2&#45;&gt;Node13</title>
<path fill="none" stroke="midnightblue" d="M656.048,-304.679C672.314,-293.611 694.724,-278.363 710.983,-267.3"/>
<polygon fill="midnightblue" stroke="midnightblue" points="713.006,-270.157 719.305,-261.638 709.068,-264.37 713.006,-270.157"/>
</g>
<!-- Node24 -->
<g id="node24" class="node"><title>Node24</title>
<polygon fill="white" stroke="#bfbfbf" points="607.5,-242.5 607.5,-261.5 642.5,-261.5 642.5,-242.5 607.5,-242.5"/>
<text text-anchor="middle" x="625" y="-249.5" font-family="Helvetica,sans-Serif" font-size="10.00">map</text>
</g>
<!-- Node2&#45;&gt;Node24 -->
<g id="edge26" class="edge"><title>Node2&#45;&gt;Node24</title>
<path fill="none" stroke="midnightblue" d="M632.83,-304.679C631.379,-295.101 629.454,-282.394 627.875,-271.977"/>
<polygon fill="midnightblue" stroke="midnightblue" points="631.296,-271.191 626.338,-261.828 624.375,-272.24 631.296,-271.191"/>
</g>
<!-- Node3&#45;&gt;Node4 -->
<g id="edge3" class="edge"><title>Node3&#45;&gt;Node4</title>
<path fill="none" stroke="midnightblue" d="M1326.99,-236.993C1338.83,-220.082 1354.52,-191.041 1343,-168 1336.27,-154.543 1323.39,-144.067 1311.29,-136.621"/>
<polygon fill="midnightblue" stroke="midnightblue" points="1312.72,-133.41 1302.3,-131.52 1309.27,-139.498 1312.72,-133.41"/>
</g>
<!-- Node11 -->
<g id="node11" class="node"><title>Node11</title>
<polygon fill="white" stroke="#bfbfbf" points="1247,-174.5 1247,-193.5 1335,-193.5 1335,-174.5 1247,-174.5"/>
<text text-anchor="middle" x="1291" y="-181.5" font-family="Helvetica,sans-Serif" font-size="10.00">Eigen/StdVector</text>
</g>
<!-- Node3&#45;&gt;Node11 -->
<g id="edge10" class="edge"><title>Node3&#45;&gt;Node11</title>
<path fill="none" stroke="midnightblue" d="M1310.58,-236.679C1306.87,-226.898 1301.93,-213.852 1297.94,-203.315"/>
<polygon fill="midnightblue" stroke="midnightblue" points="1301.16,-201.94 1294.34,-193.828 1294.61,-204.42 1301.16,-201.94"/>
</g>
<!-- Node12 -->
<g id="node12" class="node"><title>Node12</title>
<polygon fill="white" stroke="#bfbfbf" points="1391,-174.5 1391,-193.5 1435,-193.5 1435,-174.5 1391,-174.5"/>
<text text-anchor="middle" x="1413" y="-181.5" font-family="Helvetica,sans-Serif" font-size="10.00">vector</text>
</g>
<!-- Node3&#45;&gt;Node12 -->
<g id="edge11" class="edge"><title>Node3&#45;&gt;Node12</title>
<path fill="none" stroke="midnightblue" d="M1337.05,-236.679C1353.31,-225.611 1375.72,-210.363 1391.98,-199.3"/>
<polygon fill="midnightblue" stroke="midnightblue" points="1394.01,-202.157 1400.3,-193.638 1390.07,-196.37 1394.01,-202.157"/>
</g>
<!-- Node5 -->
<g id="node5" class="node"><title>Node5</title>
<g id="a_node5"><a xlink:href="CoreMacros_8hpp.html" target="_top" xlink:title="Core/CoreMacros.hpp">
<polygon fill="white" stroke="black" points="1291.5,-56.5 1291.5,-75.5 1404.5,-75.5 1404.5,-56.5 1291.5,-56.5"/>
<text text-anchor="middle" x="1348" y="-63.5" font-family="Helvetica,sans-Serif" font-size="10.00">Core/CoreMacros.hpp</text>
</a>
</g>
</g>
<!-- Node4&#45;&gt;Node5 -->
<g id="edge4" class="edge"><title>Node4&#45;&gt;Node5</title>
<path fill="none" stroke="midnightblue" d="M1293.44,-112.324C1303.15,-104.263 1317.82,-92.0765 1329.5,-82.3695"/>
<polygon fill="midnightblue" stroke="midnightblue" points="1331.91,-84.9163 1337.37,-75.8339 1327.44,-79.532 1331.91,-84.9163"/>
</g>
<!-- Node6 -->
<g id="node6" class="node"><title>Node6</title>
<polygon fill="white" stroke="#bfbfbf" points="1422.5,-0.5 1422.5,-19.5 1471.5,-19.5 1471.5,-0.5 1422.5,-0.5"/>
<text text-anchor="middle" x="1447" y="-7.5" font-family="Helvetica,sans-Serif" font-size="10.00">cassert</text>
</g>
<!-- Node5&#45;&gt;Node6 -->
<g id="edge5" class="edge"><title>Node5&#45;&gt;Node6</title>
<path fill="none" stroke="midnightblue" d="M1363.91,-56.324C1379.64,-47.7428 1403.94,-34.486 1422.21,-24.5224"/>
<polygon fill="midnightblue" stroke="midnightblue" points="1424.03,-27.5157 1431.13,-19.6545 1420.68,-21.3704 1424.03,-27.5157"/>
</g>
<!-- Node7 -->
<g id="node7" class="node"><title>Node7</title>
<polygon fill="white" stroke="#bfbfbf" points="1226.5,-0.5 1226.5,-19.5 1269.5,-19.5 1269.5,-0.5 1226.5,-0.5"/>
<text text-anchor="middle" x="1248" y="-7.5" font-family="Helvetica,sans-Serif" font-size="10.00">cstdio</text>
</g>
<!-- Node5&#45;&gt;Node7 -->
<g id="edge6" class="edge"><title>Node5&#45;&gt;Node7</title>
<path fill="none" stroke="midnightblue" d="M1331.93,-56.324C1316.04,-47.7428 1291.49,-34.486 1273.04,-24.5224"/>
<polygon fill="midnightblue" stroke="midnightblue" points="1274.49,-21.3264 1264.03,-19.6545 1271.16,-27.4857 1274.49,-21.3264"/>
</g>
<!-- Node8 -->
<g id="node8" class="node"><title>Node8</title>
<polygon fill="white" stroke="#bfbfbf" points="1288,-0.5 1288,-19.5 1342,-19.5 1342,-0.5 1288,-0.5"/>
<text text-anchor="middle" x="1315" y="-7.5" font-family="Helvetica,sans-Serif" font-size="10.00">iostream</text>
</g>
<!-- Node5&#45;&gt;Node8 -->
<g id="edge7" class="edge"><title>Node5&#45;&gt;Node8</title>
<path fill="none" stroke="midnightblue" d="M1342.55,-56.083C1337.99,-48.6127 1331.33,-37.7244 1325.71,-28.5199"/>
<polygon fill="midnightblue" stroke="midnightblue" points="1328.55,-26.4588 1320.35,-19.7511 1322.58,-30.109 1328.55,-26.4588"/>
</g>
<!-- Node9 -->
<g id="node9" class="node"><title>Node9</title>
<polygon fill="white" stroke="#bfbfbf" points="1586,-0.5 1586,-19.5 1638,-19.5 1638,-0.5 1586,-0.5"/>
<text text-anchor="middle" x="1612" y="-7.5" font-family="Helvetica,sans-Serif" font-size="10.00">sstream</text>
</g>
<!-- Node5&#45;&gt;Node9 -->
<g id="edge8" class="edge"><title>Node5&#45;&gt;Node9</title>
<path fill="none" stroke="midnightblue" d="M1389.83,-56.4435C1441.17,-45.9428 1527.36,-28.3128 1575.92,-18.3807"/>
<polygon fill="midnightblue" stroke="midnightblue" points="1576.87,-21.7576 1585.97,-16.3245 1575.47,-14.8996 1576.87,-21.7576"/>
</g>
<!-- Node10 -->
<g id="node10" class="node"><title>Node10</title>
<polygon fill="white" stroke="#bfbfbf" points="1360,-0.5 1360,-19.5 1404,-19.5 1404,-0.5 1360,-0.5"/>
<text text-anchor="middle" x="1382" y="-7.5" font-family="Helvetica,sans-Serif" font-size="10.00">thread</text>
</g>
<!-- Node5&#45;&gt;Node10 -->
<g id="edge9" class="edge"><title>Node5&#45;&gt;Node10</title>
<path fill="none" stroke="midnightblue" d="M1353.61,-56.083C1358.37,-48.5341 1365.32,-37.4948 1371.15,-28.2298"/>
<polygon fill="midnightblue" stroke="midnightblue" points="1374.12,-30.0783 1376.49,-19.7511 1368.2,-26.3486 1374.12,-30.0783"/>
</g>
<!-- Node13&#45;&gt;Node4 -->
<g id="edge13" class="edge"><title>Node13&#45;&gt;Node4</title>
<path fill="none" stroke="midnightblue" d="M685.663,-242.481C618.904,-229.989 502.953,-207.384 497,-200 488.073,-188.928 487.235,-178.34 497,-168 522.002,-141.526 1050.16,-127.943 1226.36,-124.136"/>
<polygon fill="midnightblue" stroke="midnightblue" points="1226.54,-127.633 1236.46,-123.92 1226.39,-120.635 1226.54,-127.633"/>
</g>
<!-- Node14 -->
<g id="node14" class="node"><title>Node14</title>
<polygon fill="white" stroke="#bfbfbf" points="506.5,-174.5 506.5,-193.5 571.5,-193.5 571.5,-174.5 506.5,-174.5"/>
<text text-anchor="middle" x="539" y="-181.5" font-family="Helvetica,sans-Serif" font-size="10.00">Eigen/Core</text>
</g>
<!-- Node13&#45;&gt;Node14 -->
<g id="edge14" class="edge"><title>Node13&#45;&gt;Node14</title>
<path fill="none" stroke="midnightblue" d="M705.837,-242.46C675.492,-232.499 623.997,-215.426 580,-200 577.251,-199.036 574.403,-198.023 571.548,-196.998"/>
<polygon fill="midnightblue" stroke="midnightblue" points="572.541,-193.636 561.946,-193.519 570.156,-200.217 572.541,-193.636"/>
</g>
<!-- Node15 -->
<g id="node15" class="node"><title>Node15</title>
<polygon fill="white" stroke="#bfbfbf" points="589.5,-174.5 589.5,-193.5 676.5,-193.5 676.5,-174.5 589.5,-174.5"/>
<text text-anchor="middle" x="633" y="-181.5" font-family="Helvetica,sans-Serif" font-size="10.00">Eigen/Geometry</text>
</g>
<!-- Node13&#45;&gt;Node15 -->
<g id="edge15" class="edge"><title>Node13&#45;&gt;Node15</title>
<path fill="none" stroke="midnightblue" d="M719.057,-242.372C702.604,-231.403 673.975,-212.317 654.287,-199.191"/>
<polygon fill="midnightblue" stroke="midnightblue" points="656.208,-196.265 645.946,-193.63 652.325,-202.09 656.208,-196.265"/>
</g>
<!-- Node16 -->
<g id="node16" class="node"><title>Node16</title>
<polygon fill="white" stroke="#bfbfbf" points="694.5,-174.5 694.5,-193.5 769.5,-193.5 769.5,-174.5 694.5,-174.5"/>
<text text-anchor="middle" x="732" y="-181.5" font-family="Helvetica,sans-Serif" font-size="10.00">Eigen/Sparse</text>
</g>
<!-- Node13&#45;&gt;Node16 -->
<g id="edge16" class="edge"><title>Node13&#45;&gt;Node16</title>
<path fill="none" stroke="midnightblue" d="M732,-242.372C732,-232.643 732,-216.528 732,-203.85"/>
<polygon fill="midnightblue" stroke="midnightblue" points="735.5,-203.841 732,-193.841 728.5,-203.841 735.5,-203.841"/>
</g>
<!-- Node17 -->
<g id="node17" class="node"><title>Node17</title>
<polygon fill="white" stroke="#bfbfbf" points="787.5,-174.5 787.5,-193.5 846.5,-193.5 846.5,-174.5 787.5,-174.5"/>
<text text-anchor="middle" x="817" y="-181.5" font-family="Helvetica,sans-Serif" font-size="10.00">functional</text>
</g>
<!-- Node13&#45;&gt;Node17 -->
<g id="edge17" class="edge"><title>Node13&#45;&gt;Node17</title>
<path fill="none" stroke="midnightblue" d="M743.112,-242.372C756.984,-231.6 780.937,-213.002 797.802,-199.906"/>
<polygon fill="midnightblue" stroke="midnightblue" points="800.133,-202.528 805.885,-193.63 795.84,-196.999 800.133,-202.528"/>
</g>
<!-- Node18 -->
<g id="node18" class="node"><title>Node18</title>
<polygon fill="white" stroke="#bfbfbf" points="864.5,-169 864.5,-199 997.5,-199 997.5,-169 864.5,-169"/>
<text text-anchor="start" x="872.5" y="-187" font-family="Helvetica,sans-Serif" font-size="10.00">unsupported/Eigen/Aligned</text>
<text text-anchor="middle" x="931" y="-176" font-family="Helvetica,sans-Serif" font-size="10.00">Vector3</text>
</g>
<!-- Node13&#45;&gt;Node18 -->
<g id="edge18" class="edge"><title>Node13&#45;&gt;Node18</title>
<path fill="none" stroke="midnightblue" d="M758.016,-242.372C788.61,-232.225 840.145,-215.133 879.026,-202.237"/>
<polygon fill="midnightblue" stroke="midnightblue" points="880.229,-205.526 888.618,-199.056 878.025,-198.882 880.229,-205.526"/>
</g>
<!-- Node19 -->
<g id="node19" class="node"><title>Node19</title>
<g id="a_node19"><a xlink:href="Math_8hpp.html" target="_top" xlink:title="Core/Math/Math.hpp">
<polygon fill="white" stroke="black" points="88,-174.5 88,-193.5 194,-193.5 194,-174.5 88,-174.5"/>
<text text-anchor="middle" x="141" y="-181.5" font-family="Helvetica,sans-Serif" font-size="10.00">Core/Math/Math.hpp</text>
</a>
</g>
</g>
<!-- Node13&#45;&gt;Node19 -->
<g id="edge19" class="edge"><title>Node13&#45;&gt;Node19</title>
<path fill="none" stroke="midnightblue" d="M690.082,-242.449C677.551,-240.106 663.754,-237.737 651,-236 469.75,-211.318 422.646,-221.578 241,-200 228.947,-198.568 216.11,-196.816 203.792,-195.02"/>
<polygon fill="midnightblue" stroke="midnightblue" points="204.001,-191.513 193.595,-193.508 202.974,-198.437 204.001,-191.513"/>
</g>
<!-- Node23 -->
<g id="node23" class="node"><title>Node23</title>
<g id="a_node23"><a xlink:href="LinearAlgebra_8inl.html" target="_top" xlink:title="Core/Math/LinearAlgebra.inl">
<polygon fill="white" stroke="black" points="1015.5,-174.5 1015.5,-193.5 1152.5,-193.5 1152.5,-174.5 1015.5,-174.5"/>
<text text-anchor="middle" x="1084" y="-181.5" font-family="Helvetica,sans-Serif" font-size="10.00">Core/Math/LinearAlgebra.inl</text>
</a>
</g>
</g>
<!-- Node13&#45;&gt;Node23 -->
<g id="edge25" class="edge"><title>Node13&#45;&gt;Node23</title>
<path fill="none" stroke="midnightblue" d="M778.558,-242.422C833.086,-232.354 926.128,-215.113 1006,-200 1013.72,-198.54 1021.86,-196.987 1029.86,-195.455"/>
<polygon fill="midnightblue" stroke="midnightblue" points="1030.71,-198.856 1039.87,-193.534 1029.39,-191.981 1030.71,-198.856"/>
</g>
<!-- Node19&#45;&gt;Node4 -->
<g id="edge20" class="edge"><title>Node19&#45;&gt;Node4</title>
<path fill="none" stroke="midnightblue" d="M173.506,-174.498C184.397,-171.978 196.655,-169.495 208,-168 407.692,-141.681 1033.82,-127.77 1226.2,-124.04"/>
<polygon fill="midnightblue" stroke="midnightblue" points="1226.44,-127.536 1236.37,-123.844 1226.31,-120.537 1226.44,-127.536"/>
</g>
<!-- Node20 -->
<g id="node20" class="node"><title>Node20</title>
<polygon fill="white" stroke="#bfbfbf" points="0,-112.5 0,-131.5 56,-131.5 56,-112.5 0,-112.5"/>
<text text-anchor="middle" x="28" y="-119.5" font-family="Helvetica,sans-Serif" font-size="10.00">algorithm</text>
</g>
<!-- Node19&#45;&gt;Node20 -->
<g id="edge21" class="edge"><title>Node19&#45;&gt;Node20</title>
<path fill="none" stroke="midnightblue" d="M124.81,-174.403C106.098,-164.468 75.0769,-147.997 53.2013,-136.381"/>
<polygon fill="midnightblue" stroke="midnightblue" points="54.6337,-133.179 44.1601,-131.581 51.3509,-139.362 54.6337,-133.179"/>
</g>
<!-- Node21 -->
<g id="node21" class="node"><title>Node21</title>
<polygon fill="white" stroke="#bfbfbf" points="74,-112.5 74,-131.5 118,-131.5 118,-112.5 74,-112.5"/>
<text text-anchor="middle" x="96" y="-119.5" font-family="Helvetica,sans-Serif" font-size="10.00">cmath</text>
</g>
<!-- Node19&#45;&gt;Node21 -->
<g id="edge22" class="edge"><title>Node19&#45;&gt;Node21</title>
<path fill="none" stroke="midnightblue" d="M134.553,-174.403C127.803,-165.403 117.031,-151.041 108.587,-139.782"/>
<polygon fill="midnightblue" stroke="midnightblue" points="111.235,-137.481 102.435,-131.581 105.635,-141.681 111.235,-137.481"/>
</g>
<!-- Node22 -->
<g id="node22" class="node"><title>Node22</title>
<g id="a_node22"><a xlink:href="Math_8inl.html" target="_top" xlink:title="Core/Math/Math.inl">
<polygon fill="white" stroke="black" points="136,-112.5 136,-131.5 236,-131.5 236,-112.5 136,-112.5"/>
<text text-anchor="middle" x="186" y="-119.5" font-family="Helvetica,sans-Serif" font-size="10.00">Core/Math/Math.inl</text>
</a>
</g>
</g>
<!-- Node19&#45;&gt;Node22 -->
<g id="edge23" class="edge"><title>Node19&#45;&gt;Node22</title>
<path fill="none" stroke="midnightblue" d="M142.547,-174.403C147.445,-165.225 158.125,-150.47 167.85,-139.117"/>
<polygon fill="midnightblue" stroke="midnightblue" points="170.555,-141.345 174.667,-131.581 165.364,-136.649 170.555,-141.345"/>
</g>
<!-- Node22&#45;&gt;Node19 -->
<g id="edge24" class="edge"><title>Node22&#45;&gt;Node19</title>
<path fill="none" stroke="midnightblue" d="M184.462,-131.581C179.57,-140.752 168.893,-155.506 159.166,-166.863"/>
<polygon fill="midnightblue" stroke="midnightblue" points="156.459,-164.639 152.348,-174.403 161.651,-169.334 156.459,-164.639"/>
</g>
<!-- Node26 -->
<g id="node26" class="node"><title>Node26</title>
<g id="a_node26"><a xlink:href="Handle_8hpp.html" target="_top" xlink:title="Core/Animation/Handle\l/Handle.hpp">
<polygon fill="white" stroke="black" points="984,-373 984,-403 1102,-403 1102,-373 984,-373"/>
<text text-anchor="start" x="992" y="-391" font-family="Helvetica,sans-Serif" font-size="10.00">Core/Animation/Handle</text>
<text text-anchor="middle" x="1043" y="-380" font-family="Helvetica,sans-Serif" font-size="10.00">/Handle.hpp</text>
</a>
</g>
</g>
<!-- Node25&#45;&gt;Node26 -->
<g id="edge28" class="edge"><title>Node25&#45;&gt;Node26</title>
<path fill="none" stroke="midnightblue" d="M1043,-440.679C1043,-432.722 1043,-422.605 1043,-413.436"/>
<polygon fill="midnightblue" stroke="midnightblue" points="1046.5,-413.293 1043,-403.293 1039.5,-413.293 1046.5,-413.293"/>
</g>
<!-- Node29 -->
<g id="node29" class="node"><title>Node29</title>
<g id="a_node29"><a xlink:href="AdjacencyList_8hpp.html" target="_top" xlink:title="Core/Utils/Graph/Adjacency\lList.hpp">
<polygon fill="white" stroke="black" points="1338.5,-373 1338.5,-403 1477.5,-403 1477.5,-373 1338.5,-373"/>
<text text-anchor="start" x="1346.5" y="-391" font-family="Helvetica,sans-Serif" font-size="10.00">Core/Utils/Graph/Adjacency</text>
<text text-anchor="middle" x="1408" y="-380" font-family="Helvetica,sans-Serif" font-size="10.00">List.hpp</text>
</a>
</g>
</g>
<!-- Node25&#45;&gt;Node29 -->
<g id="edge36" class="edge"><title>Node25&#45;&gt;Node29</title>
<path fill="none" stroke="midnightblue" d="M1102.03,-444.495C1159.49,-434.249 1249.26,-418.178 1327,-404 1327.34,-403.937 1327.69,-403.875 1328.03,-403.812"/>
<polygon fill="midnightblue" stroke="midnightblue" points="1328.99,-407.195 1338.2,-401.952 1327.73,-400.309 1328.99,-407.195"/>
</g>
<!-- Node26&#45;&gt;Node4 -->
<g id="edge33" class="edge"><title>Node26&#45;&gt;Node4</title>
<path fill="none" stroke="midnightblue" d="M1102.22,-380.926C1131.1,-378.052 1166.35,-374.673 1198,-372 1308.78,-362.645 1593.37,-376.258 1697,-336 1742.42,-318.355 1761.77,-311.857 1783,-268 1828.88,-173.234 1658.26,-174.662 1635,-168 1533.53,-138.94 1410.22,-128.622 1339.75,-124.975"/>
<polygon fill="midnightblue" stroke="midnightblue" points="1339.91,-121.478 1329.75,-124.484 1339.56,-128.47 1339.91,-121.478"/>
</g>
<!-- Node26&#45;&gt;Node13 -->
<g id="edge32" class="edge"><title>Node26&#45;&gt;Node13</title>
<path fill="none" stroke="midnightblue" d="M1016.07,-372.989C998.256,-363.338 974.648,-349.808 955,-336 936.935,-323.305 936.539,-314.283 917,-304 879.271,-284.145 833.035,-271.396 796.224,-263.61"/>
<polygon fill="midnightblue" stroke="midnightblue" points="796.604,-260.116 786.106,-261.544 795.203,-266.974 796.604,-260.116"/>
</g>
<!-- Node26&#45;&gt;Node27 -->
<g id="edge29" class="edge"><title>Node26&#45;&gt;Node27</title>
<path fill="none" stroke="midnightblue" d="M1002.24,-372.841C973.215,-362.759 934.031,-349.147 903.096,-338.402"/>
<polygon fill="midnightblue" stroke="midnightblue" points="903.961,-334.997 893.366,-335.022 901.664,-341.609 903.961,-334.997"/>
</g>
<!-- Node28 -->
<g id="node28" class="node"><title>Node28</title>
<g id="a_node28"><a xlink:href="Handle_8inl.html" target="_top" xlink:title="Core/Animation/Handle\l/Handle.inl">
<polygon fill="white" stroke="black" points="964,-305 964,-335 1082,-335 1082,-305 964,-305"/>
<text text-anchor="start" x="972" y="-323" font-family="Helvetica,sans-Serif" font-size="10.00">Core/Animation/Handle</text>
<text text-anchor="middle" x="1023" y="-312" font-family="Helvetica,sans-Serif" font-size="10.00">/Handle.inl</text>
</a>
</g>
</g>
<!-- Node26&#45;&gt;Node28 -->
<g id="edge34" class="edge"><title>Node26&#45;&gt;Node28</title>
<path fill="none" stroke="midnightblue" d="M1032.98,-372.679C1029.51,-364.636 1026.12,-354.385 1023.79,-345.137"/>
<polygon fill="midnightblue" stroke="midnightblue" points="1027.19,-344.327 1021.66,-335.293 1020.35,-345.807 1027.19,-344.327"/>
</g>
<!-- Node27&#45;&gt;Node3 -->
<g id="edge30" class="edge"><title>Node27&#45;&gt;Node3</title>
<path fill="none" stroke="midnightblue" d="M908.045,-310.847C923.254,-308.61 939.765,-306.196 955,-304 1051.93,-290.026 1163.56,-274.314 1236.72,-264.069"/>
<polygon fill="midnightblue" stroke="midnightblue" points="1237.36,-267.513 1246.78,-262.661 1236.39,-260.581 1237.36,-267.513"/>
</g>
<!-- Node27&#45;&gt;Node13 -->
<g id="edge31" class="edge"><title>Node27&#45;&gt;Node13</title>
<path fill="none" stroke="midnightblue" d="M827.042,-304.841C806.301,-293.528 777.413,-277.771 756.943,-266.605"/>
<polygon fill="midnightblue" stroke="midnightblue" points="758.372,-263.398 747.917,-261.682 755.02,-269.543 758.372,-263.398"/>
</g>
<!-- Node28&#45;&gt;Node26 -->
<g id="edge35" class="edge"><title>Node28&#45;&gt;Node26</title>
<path fill="none" stroke="midnightblue" d="M1033.01,-335.293C1036.48,-343.331 1039.87,-353.581 1042.21,-362.831"/>
<polygon fill="midnightblue" stroke="midnightblue" points="1038.8,-363.646 1044.34,-372.679 1045.64,-362.165 1038.8,-363.646"/>
</g>
<!-- Node29&#45;&gt;Node3 -->
<g id="edge37" class="edge"><title>Node29&#45;&gt;Node3</title>
<path fill="none" stroke="midnightblue" d="M1398.15,-372.66C1382.18,-349.387 1350.48,-303.215 1331.47,-275.526"/>
<polygon fill="midnightblue" stroke="midnightblue" points="1334.32,-273.5 1325.77,-267.237 1328.55,-277.462 1334.32,-273.5"/>
</g>
<!-- Node30 -->
<g id="node30" class="node"><title>Node30</title>
<g id="a_node30"><a xlink:href="AdjacencyList_8inl.html" target="_top" xlink:title="Core/Utils/Graph/Adjacency\lList.inl">
<polygon fill="white" stroke="black" points="1786.5,-305 1786.5,-335 1925.5,-335 1925.5,-305 1786.5,-305"/>
<text text-anchor="start" x="1794.5" y="-323" font-family="Helvetica,sans-Serif" font-size="10.00">Core/Utils/Graph/Adjacency</text>
<text text-anchor="middle" x="1856" y="-312" font-family="Helvetica,sans-Serif" font-size="10.00">List.inl</text>
</a>
</g>
</g>
<!-- Node29&#45;&gt;Node30 -->
<g id="edge38" class="edge"><title>Node29&#45;&gt;Node30</title>
<path fill="none" stroke="midnightblue" d="M1477.55,-377.134C1549.21,-367.42 1663.91,-351.784 1763,-336 1767.31,-335.313 1771.75,-334.585 1776.23,-333.835"/>
<polygon fill="midnightblue" stroke="midnightblue" points="1776.82,-337.285 1786.1,-332.165 1775.65,-330.383 1776.82,-337.285"/>
</g>
<!-- Node30&#45;&gt;Node29 -->
<g id="edge39" class="edge"><title>Node30&#45;&gt;Node29</title>
<path fill="none" stroke="midnightblue" d="M1786.77,-335.069C1784.83,-335.386 1782.9,-335.697 1781,-336 1680.28,-352.043 1563.45,-367.932 1487.69,-377.607"/>
<polygon fill="midnightblue" stroke="midnightblue" points="1487.22,-374.139 1477.74,-378.872 1488.1,-381.083 1487.22,-374.139"/>
</g>
<!-- Node31 -->
<g id="node31" class="node"><title>Node31</title>
<polygon fill="white" stroke="#bfbfbf" points="1869,-242.5 1869,-261.5 1899,-261.5 1899,-242.5 1869,-242.5"/>
<text text-anchor="middle" x="1884" y="-249.5" font-family="Helvetica,sans-Serif" font-size="10.00">set</text>
</g>
<!-- Node30&#45;&gt;Node31 -->
<g id="edge40" class="edge"><title>Node30&#45;&gt;Node31</title>
<path fill="none" stroke="midnightblue" d="M1862.08,-304.679C1866.23,-294.898 1871.76,-281.852 1876.23,-271.315"/>
<polygon fill="midnightblue" stroke="midnightblue" points="1879.57,-272.401 1880.25,-261.828 1873.13,-269.667 1879.57,-272.401"/>
</g>
<!-- Node32&#45;&gt;Node4 -->
<g id="edge55" class="edge"><title>Node32&#45;&gt;Node4</title>
<path fill="none" stroke="midnightblue" d="M747.271,-453.859C587.903,-449.389 222,-427.527 222,-321 222,-321 222,-321 222,-251 222,-213.157 211.921,-192.218 241,-168 279.076,-136.288 1014.1,-125.905 1226.17,-123.563"/>
<polygon fill="midnightblue" stroke="midnightblue" points="1226.5,-127.059 1236.46,-123.451 1226.42,-120.06 1226.5,-127.059"/>
</g>
<!-- Node32&#45;&gt;Node13 -->
<g id="edge48" class="edge"><title>Node32&#45;&gt;Node13</title>
<path fill="none" stroke="midnightblue" d="M795.812,-446.407C777.354,-438.463 753.101,-424.723 741,-404 716.457,-361.972 722.732,-301.66 728.067,-271.562"/>
<polygon fill="midnightblue" stroke="midnightblue" points="731.53,-272.091 730,-261.607 724.658,-270.757 731.53,-272.091"/>
</g>
<!-- Node33 -->
<g id="node33" class="node"><title>Node33</title>
<g id="a_node33"><a xlink:href="VectorArray_8hpp.html" target="_top" xlink:title="Core/Containers/VectorArray.hpp">
<polygon fill="white" stroke="black" points="1100.5,-310.5 1100.5,-329.5 1261.5,-329.5 1261.5,-310.5 1100.5,-310.5"/>
<text text-anchor="middle" x="1181" y="-317.5" font-family="Helvetica,sans-Serif" font-size="10.00">Core/Containers/VectorArray.hpp</text>
</a>
</g>
</g>
<!-- Node32&#45;&gt;Node33 -->
<g id="edge43" class="edge"><title>Node32&#45;&gt;Node33</title>
<path fill="none" stroke="midnightblue" d="M833.145,-446.494C859.214,-429.962 919.728,-393.257 975,-372 1023.13,-353.489 1080.21,-339.975 1122.06,-331.527"/>
<polygon fill="midnightblue" stroke="midnightblue" points="1122.96,-334.917 1132.09,-329.54 1121.6,-328.05 1122.96,-334.917"/>
</g>
<!-- Node34 -->
<g id="node34" class="node"><title>Node34</title>
<g id="a_node34"><a xlink:href="MeshTypes_8hpp.html" target="_top" xlink:title="Core/Mesh/MeshTypes.hpp">
<polygon fill="white" stroke="black" points="390.5,-310.5 390.5,-329.5 527.5,-329.5 527.5,-310.5 390.5,-310.5"/>
<text text-anchor="middle" x="459" y="-317.5" font-family="Helvetica,sans-Serif" font-size="10.00">Core/Mesh/MeshTypes.hpp</text>
</a>
</g>
</g>
<!-- Node32&#45;&gt;Node34 -->
<g id="edge49" class="edge"><title>Node32&#45;&gt;Node34</title>
<path fill="none" stroke="midnightblue" d="M796.869,-446.414C734.594,-423.298 563.265,-359.702 491.398,-333.026"/>
<polygon fill="midnightblue" stroke="midnightblue" points="492.532,-329.713 481.939,-329.515 490.096,-336.276 492.532,-329.713"/>
</g>
<!-- Node38 -->
<g id="node38" class="node"><title>Node38</title>
<g id="a_node38"><a xlink:href="Attribs_8hpp.html" target="_top" xlink:title="Core/Utils/Attribs.hpp">
<polygon fill="white" stroke="black" points="1207.5,-378.5 1207.5,-397.5 1318.5,-397.5 1318.5,-378.5 1207.5,-378.5"/>
<text text-anchor="middle" x="1263" y="-385.5" font-family="Helvetica,sans-Serif" font-size="10.00">Core/Utils/Attribs.hpp</text>
</a>
</g>
</g>
<!-- Node32&#45;&gt;Node38 -->
<g id="edge56" class="edge"><title>Node32&#45;&gt;Node38</title>
<path fill="none" stroke="midnightblue" d="M877.46,-446.439C959.769,-434.177 1110.83,-411.671 1197.41,-398.771"/>
<polygon fill="midnightblue" stroke="midnightblue" points="1198.01,-402.221 1207.39,-397.286 1196.98,-395.298 1198.01,-402.221"/>
</g>
<!-- Node44 -->
<g id="node44" class="node"><title>Node44</title>
<g id="a_node44"><a xlink:href="TriangleMesh_8inl.html" target="_top" xlink:title="Core/Mesh/TriangleMesh.inl">
<polygon fill="white" stroke="black" points="750.5,-378.5 750.5,-397.5 889.5,-397.5 889.5,-378.5 750.5,-378.5"/>
<text text-anchor="middle" x="820" y="-385.5" font-family="Helvetica,sans-Serif" font-size="10.00">Core/Mesh/TriangleMesh.inl</text>
</a>
</g>
</g>
<!-- Node32&#45;&gt;Node44 -->
<g id="edge69" class="edge"><title>Node32&#45;&gt;Node44</title>
<path fill="none" stroke="midnightblue" d="M815.269,-446.372C813.199,-436.643 812.721,-420.528 813.835,-407.85"/>
<polygon fill="midnightblue" stroke="midnightblue" points="817.316,-408.227 815.224,-397.841 810.382,-407.265 817.316,-408.227"/>
</g>
<!-- Node33&#45;&gt;Node3 -->
<g id="edge44" class="edge"><title>Node33&#45;&gt;Node3</title>
<path fill="none" stroke="midnightblue" d="M1198.65,-310.372C1218.7,-300.569 1252.01,-284.283 1278.03,-271.563"/>
<polygon fill="midnightblue" stroke="midnightblue" points="1279.8,-274.593 1287.25,-267.056 1276.73,-268.304 1279.8,-274.593"/>
</g>
<!-- Node33&#45;&gt;Node4 -->
<g id="edge46" class="edge"><title>Node33&#45;&gt;Node4</title>
<path fill="none" stroke="midnightblue" d="M1179.95,-310.222C1177.46,-285.427 1173.56,-213.707 1205,-168 1215.13,-153.28 1231.76,-142.735 1247.06,-135.57"/>
<polygon fill="midnightblue" stroke="midnightblue" points="1248.57,-138.73 1256.35,-131.539 1245.79,-132.309 1248.57,-138.73"/>
</g>
<!-- Node33&#45;&gt;Node12 -->
<g id="edge47" class="edge"><title>Node33&#45;&gt;Node12</title>
<path fill="none" stroke="midnightblue" d="M1249.72,-310.474C1304.02,-302.339 1373.9,-288.3 1394,-268 1410.79,-251.044 1413.96,-222.473 1414.01,-203.675"/>
<polygon fill="midnightblue" stroke="midnightblue" points="1417.51,-203.565 1413.75,-193.661 1410.51,-203.75 1417.51,-203.565"/>
</g>
<!-- Node33&#45;&gt;Node13 -->
<g id="edge45" class="edge"><title>Node33&#45;&gt;Node13</title>
<path fill="none" stroke="midnightblue" d="M1131.05,-310.455C1118.02,-308.287 1103.99,-306.005 1091,-304 992.213,-288.753 877.863,-272.8 805.258,-262.882"/>
<polygon fill="midnightblue" stroke="midnightblue" points="805.678,-259.407 795.296,-261.524 804.732,-266.343 805.678,-259.407"/>
</g>
<!-- Node34&#45;&gt;Node4 -->
<g id="edge54" class="edge"><title>Node34&#45;&gt;Node4</title>
<path fill="none" stroke="midnightblue" d="M457.374,-310.47C452.959,-284.426 443.746,-205.445 486,-168 513.648,-143.498 1048.28,-128.591 1226.06,-124.296"/>
<polygon fill="midnightblue" stroke="midnightblue" points="1226.34,-127.79 1236.26,-124.052 1226.18,-120.792 1226.34,-127.79"/>
</g>
<!-- Node34&#45;&gt;Node13 -->
<g id="edge53" class="edge"><title>Node34&#45;&gt;Node13</title>
<path fill="none" stroke="midnightblue" d="M494.41,-310.439C543.61,-298.545 632.673,-277.013 686.669,-263.959"/>
<polygon fill="midnightblue" stroke="midnightblue" points="687.755,-267.297 696.653,-261.546 686.11,-260.493 687.755,-267.297"/>
</g>
<!-- Node35 -->
<g id="node35" class="node"><title>Node35</title>
<g id="a_node35"><a xlink:href="Index_8hpp.html" target="_top" xlink:title="Core/Index/Index.hpp">
<polygon fill="white" stroke="black" points="302,-242.5 302,-261.5 412,-261.5 412,-242.5 302,-242.5"/>
<text text-anchor="middle" x="357" y="-249.5" font-family="Helvetica,sans-Serif" font-size="10.00">Core/Index/Index.hpp</text>
</a>
</g>
</g>
<!-- Node34&#45;&gt;Node35 -->
<g id="edge50" class="edge"><title>Node34&#45;&gt;Node35</title>
<path fill="none" stroke="midnightblue" d="M445.665,-310.372C428.713,-299.403 399.217,-280.317 378.932,-267.191"/>
<polygon fill="midnightblue" stroke="midnightblue" points="380.635,-264.125 370.338,-261.63 376.832,-270.002 380.635,-264.125"/>
</g>
<!-- Node36 -->
<g id="node36" class="node"><title>Node36</title>
<polygon fill="white" stroke="#bfbfbf" points="250,-174.5 250,-193.5 290,-193.5 290,-174.5 250,-174.5"/>
<text text-anchor="middle" x="270" y="-181.5" font-family="Helvetica,sans-Serif" font-size="10.00">limits</text>
</g>
<!-- Node35&#45;&gt;Node36 -->
<g id="edge51" class="edge"><title>Node35&#45;&gt;Node36</title>
<path fill="none" stroke="midnightblue" d="M345.626,-242.372C331.428,-231.6 306.912,-213.002 289.649,-199.906"/>
<polygon fill="midnightblue" stroke="midnightblue" points="291.459,-196.886 281.377,-193.63 287.228,-202.463 291.459,-196.886"/>
</g>
<!-- Node37 -->
<g id="node37" class="node"><title>Node37</title>
<g id="a_node37"><a xlink:href="Index_8inl.html" target="_top" xlink:title="Core/Index/Index.inl">
<polygon fill="white" stroke="black" points="308,-174.5 308,-193.5 412,-193.5 412,-174.5 308,-174.5"/>
<text text-anchor="middle" x="360" y="-181.5" font-family="Helvetica,sans-Serif" font-size="10.00">Core/Index/Index.inl</text>
</a>
</g>
</g>
<!-- Node35&#45;&gt;Node37 -->
<g id="edge52" class="edge"><title>Node35&#45;&gt;Node37</title>
<path fill="none" stroke="midnightblue" d="M357.392,-242.372C357.834,-232.643 358.567,-216.528 359.143,-203.85"/>
<polygon fill="midnightblue" stroke="midnightblue" points="362.64,-203.99 359.598,-193.841 355.648,-203.672 362.64,-203.99"/>
</g>
<!-- Node38&#45;&gt;Node4 -->
<g id="edge68" class="edge"><title>Node38&#45;&gt;Node4</title>
<path fill="none" stroke="midnightblue" d="M1266.1,-378.415C1271.18,-362.962 1279.76,-329.682 1270,-304 1262.39,-283.99 1245.61,-288.01 1238,-268 1222.21,-226.457 1220.99,-209.061 1238,-168 1242.92,-156.121 1252.67,-145.743 1261.83,-137.956"/>
<polygon fill="midnightblue" stroke="midnightblue" points="1264.25,-140.506 1269.94,-131.564 1259.92,-135.01 1264.25,-140.506"/>
</g>
<!-- Node38&#45;&gt;Node33 -->
<g id="edge57" class="edge"><title>Node38&#45;&gt;Node33</title>
<path fill="none" stroke="midnightblue" d="M1252.28,-378.372C1238.9,-367.6 1215.79,-349.002 1199.52,-335.906"/>
<polygon fill="midnightblue" stroke="midnightblue" points="1201.71,-333.174 1191.72,-329.63 1197.32,-338.627 1201.71,-333.174"/>
</g>
<!-- Node39 -->
<g id="node39" class="node"><title>Node39</title>
<g id="a_node39"><a xlink:href="Log_8hpp.html" target="_top" xlink:title="Core/Log/Log.hpp">
<polygon fill="white" stroke="black" points="1594,-310.5 1594,-329.5 1688,-329.5 1688,-310.5 1594,-310.5"/>
<text text-anchor="middle" x="1641" y="-317.5" font-family="Helvetica,sans-Serif" font-size="10.00">Core/Log/Log.hpp</text>
</a>
</g>
</g>
<!-- Node38&#45;&gt;Node39 -->
<g id="edge58" class="edge"><title>Node38&#45;&gt;Node39</title>
<path fill="none" stroke="midnightblue" d="M1298.88,-378.424C1308.63,-376.21 1319.2,-373.913 1329,-372 1417.53,-354.72 1520.98,-338.608 1583.71,-329.285"/>
<polygon fill="midnightblue" stroke="midnightblue" points="1584.42,-332.719 1593.8,-327.793 1583.39,-325.794 1584.42,-332.719"/>
</g>
<!-- Node39&#45;&gt;Node4 -->
<g id="edge59" class="edge"><title>Node39&#45;&gt;Node4</title>
<path fill="none" stroke="midnightblue" d="M1593.62,-317.089C1555.21,-312.995 1502.32,-301.175 1470,-268 1437.88,-235.025 1475.38,-200.722 1443,-168 1416.14,-140.862 1374.31,-129.756 1340.15,-125.358"/>
<polygon fill="midnightblue" stroke="midnightblue" points="1340.15,-121.836 1329.82,-124.199 1339.37,-128.793 1340.15,-121.836"/>
</g>
<!-- Node39&#45;&gt;Node9 -->
<g id="edge60" class="edge"><title>Node39&#45;&gt;Node9</title>
<path fill="none" stroke="midnightblue" d="M1688.31,-313.633C1719.48,-307.625 1758.86,-294.907 1783,-268 1808.34,-239.756 1803,-222.945 1803,-185 1803,-185 1803,-185 1803,-121 1803,-50.3604 1703.68,-24.3988 1648.28,-15.4122"/>
<polygon fill="midnightblue" stroke="midnightblue" points="1648.57,-11.9156 1638.16,-13.8787 1647.52,-18.8367 1648.57,-11.9156"/>
</g>
<!-- Node40 -->
<g id="node40" class="node"><title>Node40</title>
<polygon fill="white" stroke="#bfbfbf" points="1669,-242.5 1669,-261.5 1715,-261.5 1715,-242.5 1669,-242.5"/>
<text text-anchor="middle" x="1692" y="-249.5" font-family="Helvetica,sans-Serif" font-size="10.00">stdio.h</text>
</g>
<!-- Node39&#45;&gt;Node40 -->
<g id="edge61" class="edge"><title>Node39&#45;&gt;Node40</title>
<path fill="none" stroke="midnightblue" d="M1647.67,-310.372C1655.56,-300.151 1668.91,-282.884 1678.9,-269.957"/>
<polygon fill="midnightblue" stroke="midnightblue" points="1681.82,-271.894 1685.17,-261.841 1676.28,-267.614 1681.82,-271.894"/>
</g>
<!-- Node41 -->
<g id="node41" class="node"><title>Node41</title>
<polygon fill="white" stroke="#bfbfbf" points="1585.5,-174.5 1585.5,-193.5 1626.5,-193.5 1626.5,-174.5 1585.5,-174.5"/>
<text text-anchor="middle" x="1606" y="-181.5" font-family="Helvetica,sans-Serif" font-size="10.00">string</text>
</g>
<!-- Node39&#45;&gt;Node41 -->
<g id="edge62" class="edge"><title>Node39&#45;&gt;Node41</title>
<path fill="none" stroke="midnightblue" d="M1639.23,-310.22C1636.11,-295.013 1629.27,-262.824 1622,-236 1619.04,-225.067 1615.26,-212.965 1612.12,-203.295"/>
<polygon fill="midnightblue" stroke="midnightblue" points="1615.38,-202.002 1608.93,-193.602 1608.74,-204.195 1615.38,-202.002"/>
</g>
<!-- Node42 -->
<g id="node42" class="node"><title>Node42</title>
<g id="a_node42"><a xlink:href="StringUtils_8hpp.html" target="_top" xlink:title="Core/String/StringUtils.hpp">
<polygon fill="white" stroke="black" points="1479,-242.5 1479,-261.5 1613,-261.5 1613,-242.5 1479,-242.5"/>
<text text-anchor="middle" x="1546" y="-249.5" font-family="Helvetica,sans-Serif" font-size="10.00">Core/String/StringUtils.hpp</text>
</a>
</g>
</g>
<!-- Node39&#45;&gt;Node42 -->
<g id="edge63" class="edge"><title>Node39&#45;&gt;Node42</title>
<path fill="none" stroke="midnightblue" d="M1628.58,-310.372C1612.86,-299.452 1585.57,-280.489 1566.68,-267.369"/>
<polygon fill="midnightblue" stroke="midnightblue" points="1568.63,-264.462 1558.42,-261.63 1564.64,-270.21 1568.63,-264.462"/>
</g>
<!-- Node43 -->
<g id="node43" class="node"><title>Node43</title>
<polygon fill="white" stroke="#bfbfbf" points="1733.5,-242.5 1733.5,-261.5 1774.5,-261.5 1774.5,-242.5 1733.5,-242.5"/>
<text text-anchor="middle" x="1754" y="-249.5" font-family="Helvetica,sans-Serif" font-size="10.00">ctime</text>
</g>
<!-- Node39&#45;&gt;Node43 -->
<g id="edge67" class="edge"><title>Node39&#45;&gt;Node43</title>
<path fill="none" stroke="midnightblue" d="M1655.77,-310.372C1674.72,-299.304 1707.82,-279.972 1730.31,-266.838"/>
<polygon fill="midnightblue" stroke="midnightblue" points="1732.35,-269.696 1739.22,-261.63 1728.82,-263.652 1732.35,-269.696"/>
</g>
<!-- Node42&#45;&gt;Node4 -->
<g id="edge64" class="edge"><title>Node42&#45;&gt;Node4</title>
<path fill="none" stroke="midnightblue" d="M1541.41,-242.375C1531.86,-225.298 1508.1,-187.18 1477,-168 1435.36,-142.319 1380.47,-131.28 1339.71,-126.542"/>
<polygon fill="midnightblue" stroke="midnightblue" points="1339.99,-123.051 1329.67,-125.468 1339.24,-130.011 1339.99,-123.051"/>
</g>
<!-- Node42&#45;&gt;Node12 -->
<g id="edge66" class="edge"><title>Node42&#45;&gt;Node12</title>
<path fill="none" stroke="midnightblue" d="M1528.61,-242.372C1505.91,-231.106 1465.96,-211.279 1439.48,-198.14"/>
<polygon fill="midnightblue" stroke="midnightblue" points="1440.91,-194.94 1430.39,-193.63 1437.79,-201.211 1440.91,-194.94"/>
</g>
<!-- Node42&#45;&gt;Node41 -->
<g id="edge65" class="edge"><title>Node42&#45;&gt;Node41</title>
<path fill="none" stroke="midnightblue" d="M1553.84,-242.372C1563.22,-232.053 1579.14,-214.551 1590.92,-201.585"/>
<polygon fill="midnightblue" stroke="midnightblue" points="1593.83,-203.595 1597.96,-193.841 1588.65,-198.886 1593.83,-203.595"/>
</g>
<!-- Node44&#45;&gt;Node32 -->
<g id="edge70" class="edge"><title>Node44&#45;&gt;Node32</title>
<path fill="none" stroke="midnightblue" d="M824.776,-397.841C826.823,-407.662 827.278,-423.798 826.141,-436.425"/>
<polygon fill="midnightblue" stroke="midnightblue" points="822.669,-435.979 824.731,-446.372 829.6,-436.962 822.669,-435.979"/>
</g>
</g>
</svg>
