<?xml version="1.0" encoding="UTF-8" standalone="no"?>
<!DOCTYPE svg PUBLIC "-//W3C//DTD SVG 1.1//EN"
 "http://www.w3.org/Graphics/SVG/1.1/DTD/svg11.dtd">
<!-- Generated by graphviz version 2.36.0 (20140111.2315)
 -->
<!-- Title: /home/travis/build/STORM&#45;IRIT/Radium&#45;Engine/src/Core/Math/Spline.inl Pages: 1 -->
<svg width="1907pt" height="398pt"
 viewBox="0.00 0.00 1907.00 398.00" xmlns="http://www.w3.org/2000/svg" xmlns:xlink="http://www.w3.org/1999/xlink">
<g id="graph0" class="graph" transform="scale(1 1) rotate(0) translate(4 394)">
<title>/home/travis/build/STORM&#45;IRIT/Radium&#45;Engine/src/Core/Math/Spline.inl</title>
<polygon fill="white" stroke="none" points="-4,4 -4,-394 1903,-394 1903,4 -4,4"/>
<!-- Node1 -->
<g id="node1" class="node"><title>Node1</title>
<polygon fill="#bfbfbf" stroke="black" points="590,-348.5 590,-389.5 738,-389.5 738,-348.5 590,-348.5"/>
<text text-anchor="start" x="598" y="-377.5" font-family="Helvetica,sans-Serif" font-size="10.00">/home/travis/build</text>
<text text-anchor="start" x="598" y="-366.5" font-family="Helvetica,sans-Serif" font-size="10.00">/STORM&#45;IRIT/Radium&#45;Engine</text>
<text text-anchor="middle" x="664" y="-355.5" font-family="Helvetica,sans-Serif" font-size="10.00">/src/Core/Math/Spline.inl</text>
</g>
<!-- Node2 -->
<g id="node2" class="node"><title>Node2</title>
<g id="a_node2"><a xlink:href="Spline_8hpp.html" target="_top" xlink:title="/home/travis/build\l/STORM&#45;IRIT/Radium&#45;Engine\l/src/Core/Math/Spline.hpp">
<polygon fill="white" stroke="black" points="590,-270.5 590,-311.5 738,-311.5 738,-270.5 590,-270.5"/>
<text text-anchor="start" x="598" y="-299.5" font-family="Helvetica,sans-Serif" font-size="10.00">/home/travis/build</text>
<text text-anchor="start" x="598" y="-288.5" font-family="Helvetica,sans-Serif" font-size="10.00">/STORM&#45;IRIT/Radium&#45;Engine</text>
<text text-anchor="middle" x="664" y="-277.5" font-family="Helvetica,sans-Serif" font-size="10.00">/src/Core/Math/Spline.hpp</text>
</a>
</g>
</g>
<!-- Node1&#45;&gt;Node2 -->
<g id="edge1" class="edge"><title>Node1&#45;&gt;Node2</title>
<path fill="none" stroke="midnightblue" d="M657.395,-338.297C657.076,-329.301 657.283,-319.653 658.018,-311.506"/>
<polygon fill="midnightblue" stroke="midnightblue" points="653.911,-338.659 658.012,-348.428 660.898,-338.234 653.911,-338.659"/>
</g>
<!-- Node2&#45;&gt;Node1 -->
<g id="edge5" class="edge"><title>Node2&#45;&gt;Node1</title>
<path fill="none" stroke="midnightblue" d="M670.602,-321.63C670.924,-330.622 670.72,-340.272 669.988,-348.428"/>
<polygon fill="midnightblue" stroke="midnightblue" points="674.087,-321.273 669.982,-311.506 667.1,-321.701 674.087,-321.273"/>
</g>
<!-- Node3 -->
<g id="node3" class="node"><title>Node3</title>
<g id="a_node3"><a xlink:href="Curve2D_8hpp.html" target="_top" xlink:title="/home/travis/build\l/STORM&#45;IRIT/Radium&#45;Engine\l/src/Core/Math/Curve2D.hpp">
<polygon fill="white" stroke="black" points="129,-186.5 129,-227.5 277,-227.5 277,-186.5 129,-186.5"/>
<text text-anchor="start" x="137" y="-215.5" font-family="Helvetica,sans-Serif" font-size="10.00">/home/travis/build</text>
<text text-anchor="start" x="137" y="-204.5" font-family="Helvetica,sans-Serif" font-size="10.00">/STORM&#45;IRIT/Radium&#45;Engine</text>
<text text-anchor="middle" x="203" y="-193.5" font-family="Helvetica,sans-Serif" font-size="10.00">/src/Core/Math/Curve2D.hpp</text>
</a>
</g>
</g>
<!-- Node2&#45;&gt;Node3 -->
<g id="edge2" class="edge"><title>Node2&#45;&gt;Node3</title>
<path fill="none" stroke="midnightblue" d="M579.885,-275.038C493.388,-259.653 359.975,-235.922 277.266,-221.21"/>
<polygon fill="midnightblue" stroke="midnightblue" points="579.474,-278.52 589.932,-276.825 580.7,-271.628 579.474,-278.52"/>
</g>
<!-- Node5 -->
<g id="node5" class="node"><title>Node5</title>
<g id="a_node5"><a xlink:href="DrawPrimitives_8hpp.html" target="_top" xlink:title="/home/travis/build\l/STORM&#45;IRIT/Radium&#45;Engine\l/src/Engine/Renderer/RenderObject\l/Primitives/DrawPrimitives.hpp">
<polygon fill="white" stroke="black" points="1039,-181 1039,-233 1211,-233 1211,-181 1039,-181"/>
<text text-anchor="start" x="1047" y="-221" font-family="Helvetica,sans-Serif" font-size="10.00">/home/travis/build</text>
<text text-anchor="start" x="1047" y="-210" font-family="Helvetica,sans-Serif" font-size="10.00">/STORM&#45;IRIT/Radium&#45;Engine</text>
<text text-anchor="start" x="1047" y="-199" font-family="Helvetica,sans-Serif" font-size="10.00">/src/Engine/Renderer/RenderObject</text>
<text text-anchor="middle" x="1125" y="-188" font-family="Helvetica,sans-Serif" font-size="10.00">/Primitives/DrawPrimitives.hpp</text>
</a>
</g>
</g>
<!-- Node2&#45;&gt;Node5 -->
<g id="edge6" class="edge"><title>Node2&#45;&gt;Node5</title>
<path fill="none" stroke="midnightblue" d="M748.162,-275.03C830.663,-260.355 955.812,-238.094 1038.95,-223.305"/>
<polygon fill="midnightblue" stroke="midnightblue" points="747.3,-271.628 738.068,-276.825 748.526,-278.52 747.3,-271.628"/>
</g>
<!-- Node4 -->
<g id="node4" class="node"><title>Node4</title>
<g id="a_node4"><a xlink:href="Curve2D_8inl.html" target="_top" xlink:title="/home/travis/build\l/STORM&#45;IRIT/Radium&#45;Engine\l/src/Core/Math/Curve2D.inl">
<polygon fill="white" stroke="black" points="129,-96.5 129,-137.5 277,-137.5 277,-96.5 129,-96.5"/>
<text text-anchor="start" x="137" y="-125.5" font-family="Helvetica,sans-Serif" font-size="10.00">/home/travis/build</text>
<text text-anchor="start" x="137" y="-114.5" font-family="Helvetica,sans-Serif" font-size="10.00">/STORM&#45;IRIT/Radium&#45;Engine</text>
<text text-anchor="middle" x="203" y="-103.5" font-family="Helvetica,sans-Serif" font-size="10.00">/src/Core/Math/Curve2D.inl</text>
</a>
</g>
</g>
<!-- Node3&#45;&gt;Node4 -->
<g id="edge3" class="edge"><title>Node3&#45;&gt;Node4</title>
<path fill="none" stroke="midnightblue" d="M196.579,-176.33C195.976,-163.629 196.202,-149.14 197.257,-137.78"/>
<polygon fill="midnightblue" stroke="midnightblue" points="193.098,-176.735 197.28,-186.47 200.082,-176.252 193.098,-176.735"/>
</g>
<!-- Node4&#45;&gt;Node3 -->
<g id="edge4" class="edge"><title>Node4&#45;&gt;Node3</title>
<path fill="none" stroke="midnightblue" d="M209.434,-147.95C210.025,-160.677 209.787,-175.156 208.72,-186.47"/>
<polygon fill="midnightblue" stroke="midnightblue" points="212.913,-147.519 208.743,-137.78 205.929,-147.994 212.913,-147.519"/>
</g>
<!-- Node6 -->
<g id="node6" class="node"><title>Node6</title>
<g id="a_node6"><a xlink:href="BVH_8inl.html" target="_top" xlink:title="/home/travis/build\l/STORM&#45;IRIT/Radium&#45;Engine\l/src/Core/TreeStructures\l/BVH.inl">
<polygon fill="white" stroke="black" points="295,-91 295,-143 443,-143 443,-91 295,-91"/>
<text text-anchor="start" x="303" y="-131" font-family="Helvetica,sans-Serif" font-size="10.00">/home/travis/build</text>
<text text-anchor="start" x="303" y="-120" font-family="Helvetica,sans-Serif" font-size="10.00">/STORM&#45;IRIT/Radium&#45;Engine</text>
<text text-anchor="start" x="303" y="-109" font-family="Helvetica,sans-Serif" font-size="10.00">/src/Core/TreeStructures</text>
<text text-anchor="middle" x="369" y="-98" font-family="Helvetica,sans-Serif" font-size="10.00">/BVH.inl</text>
</a>
</g>
</g>
<!-- Node5&#45;&gt;Node6 -->
<g id="edge7" class="edge"><title>Node5&#45;&gt;Node6</title>
<path fill="none" stroke="midnightblue" d="M1028.33,-194.747C875.385,-176.944 580.874,-142.663 443.261,-126.644"/>
<polygon fill="midnightblue" stroke="midnightblue" points="1028.31,-198.268 1038.65,-195.948 1029.12,-191.315 1028.31,-198.268"/>
</g>
<!-- Node8 -->
<g id="node8" class="node"><title>Node8</title>
<g id="a_node8"><a xlink:href="SystemDisplay_8hpp.html" target="_top" xlink:title="/home/travis/build\l/STORM&#45;IRIT/Radium&#45;Engine\l/src/Engine/Managers/SystemDisplay\l/SystemDisplay.hpp">
<polygon fill="white" stroke="black" points="755,-91 755,-143 937,-143 937,-91 755,-91"/>
<text text-anchor="start" x="763" y="-131" font-family="Helvetica,sans-Serif" font-size="10.00">/home/travis/build</text>
<text text-anchor="start" x="763" y="-120" font-family="Helvetica,sans-Serif" font-size="10.00">/STORM&#45;IRIT/Radium&#45;Engine</text>
<text text-anchor="start" x="763" y="-109" font-family="Helvetica,sans-Serif" font-size="10.00">/src/Engine/Managers/SystemDisplay</text>
<text text-anchor="middle" x="846" y="-98" font-family="Helvetica,sans-Serif" font-size="10.00">/SystemDisplay.hpp</text>
</a>
</g>
</g>
<!-- Node5&#45;&gt;Node8 -->
<g id="edge10" class="edge"><title>Node5&#45;&gt;Node8</title>
<path fill="none" stroke="midnightblue" d="M1035.6,-177.802C1000.27,-166.659 959.998,-153.956 925.683,-143.133"/>
<polygon fill="midnightblue" stroke="midnightblue" points="1034.83,-181.23 1045.42,-180.901 1036.94,-174.554 1034.83,-181.23"/>
</g>
<!-- Node18 -->
<g id="node18" class="node"><title>Node18</title>
<g id="a_node18"><a xlink:href="DebugRender_8cpp.html" target="_top" xlink:title="/home/travis/build\l/STORM&#45;IRIT/Radium&#45;Engine\l/src/Engine/Renderer/Renderers\l/DebugRender.cpp">
<polygon fill="white" stroke="black" points="955.5,-91 955.5,-143 1112.5,-143 1112.5,-91 955.5,-91"/>
<text text-anchor="start" x="963.5" y="-131" font-family="Helvetica,sans-Serif" font-size="10.00">/home/travis/build</text>
<text text-anchor="start" x="963.5" y="-120" font-family="Helvetica,sans-Serif" font-size="10.00">/STORM&#45;IRIT/Radium&#45;Engine</text>
<text text-anchor="start" x="963.5" y="-109" font-family="Helvetica,sans-Serif" font-size="10.00">/src/Engine/Renderer/Renderers</text>
<text text-anchor="middle" x="1034" y="-98" font-family="Helvetica,sans-Serif" font-size="10.00">/DebugRender.cpp</text>
</a>
</g>
</g>
<!-- Node5&#45;&gt;Node18 -->
<g id="edge20" class="edge"><title>Node5&#45;&gt;Node18</title>
<path fill="none" stroke="midnightblue" d="M1091.32,-173.431C1080.95,-163.407 1069.71,-152.533 1059.95,-143.092"/>
<polygon fill="midnightblue" stroke="midnightblue" points="1089.06,-176.111 1098.68,-180.547 1093.92,-171.079 1089.06,-176.111"/>
</g>
<!-- Node19 -->
<g id="node19" class="node"><title>Node19</title>
<g id="a_node19"><a xlink:href="DrawPrimitives_8cpp.html" target="_top" xlink:title="/home/travis/build\l/STORM&#45;IRIT/Radium&#45;Engine\l/src/Engine/Renderer/RenderObject\l/Primitives/DrawPrimitives.cpp">
<polygon fill="white" stroke="black" points="1131,-91 1131,-143 1303,-143 1303,-91 1131,-91"/>
<text text-anchor="start" x="1139" y="-131" font-family="Helvetica,sans-Serif" font-size="10.00">/home/travis/build</text>
<text text-anchor="start" x="1139" y="-120" font-family="Helvetica,sans-Serif" font-size="10.00">/STORM&#45;IRIT/Radium&#45;Engine</text>
<text text-anchor="start" x="1139" y="-109" font-family="Helvetica,sans-Serif" font-size="10.00">/src/Engine/Renderer/RenderObject</text>
<text text-anchor="middle" x="1217" y="-98" font-family="Helvetica,sans-Serif" font-size="10.00">/Primitives/DrawPrimitives.cpp</text>
</a>
</g>
</g>
<!-- Node5&#45;&gt;Node19 -->
<g id="edge21" class="edge"><title>Node5&#45;&gt;Node19</title>
<path fill="none" stroke="midnightblue" d="M1159.05,-173.431C1169.53,-163.407 1180.9,-152.533 1190.77,-143.092"/>
<polygon fill="midnightblue" stroke="midnightblue" points="1156.42,-171.105 1151.61,-180.547 1161.26,-176.164 1156.42,-171.105"/>
</g>
<!-- Node20 -->
<g id="node20" class="node"><title>Node20</title>
<g id="a_node20"><a xlink:href="SkeletonBoneDrawable_8cpp.html" target="_top" xlink:title="/home/travis/build\l/STORM&#45;IRIT/Radium&#45;Engine\l/Plugins/Animation/src/Drawing\l/SkeletonBoneDrawable.cpp">
<polygon fill="white" stroke="black" points="1321,-91 1321,-143 1475,-143 1475,-91 1321,-91"/>
<text text-anchor="start" x="1329" y="-131" font-family="Helvetica,sans-Serif" font-size="10.00">/home/travis/build</text>
<text text-anchor="start" x="1329" y="-120" font-family="Helvetica,sans-Serif" font-size="10.00">/STORM&#45;IRIT/Radium&#45;Engine</text>
<text text-anchor="start" x="1329" y="-109" font-family="Helvetica,sans-Serif" font-size="10.00">/Plugins/Animation/src/Drawing</text>
<text text-anchor="middle" x="1398" y="-98" font-family="Helvetica,sans-Serif" font-size="10.00">/SkeletonBoneDrawable.cpp</text>
</a>
</g>
</g>
<!-- Node5&#45;&gt;Node20 -->
<g id="edge22" class="edge"><title>Node5&#45;&gt;Node20</title>
<path fill="none" stroke="midnightblue" d="M1212.56,-177.775C1247.44,-166.533 1287.22,-153.709 1320.98,-142.828"/>
<polygon fill="midnightblue" stroke="midnightblue" points="1211.31,-174.501 1202.87,-180.901 1213.46,-181.164 1211.31,-174.501"/>
</g>
<!-- Node21 -->
<g id="node21" class="node"><title>Node21</title>
<g id="a_node21"><a xlink:href="DummyComponent_8cpp.html" target="_top" xlink:title="/home/travis/build\l/STORM&#45;IRIT/Radium&#45;Engine\l/Plugins/Dummy/src/DummyComponent.cpp">
<polygon fill="white" stroke="black" points="1493,-96.5 1493,-137.5 1705,-137.5 1705,-96.5 1493,-96.5"/>
<text text-anchor="start" x="1501" y="-125.5" font-family="Helvetica,sans-Serif" font-size="10.00">/home/travis/build</text>
<text text-anchor="start" x="1501" y="-114.5" font-family="Helvetica,sans-Serif" font-size="10.00">/STORM&#45;IRIT/Radium&#45;Engine</text>
<text text-anchor="middle" x="1599" y="-103.5" font-family="Helvetica,sans-Serif" font-size="10.00">/Plugins/Dummy/src/DummyComponent.cpp</text>
</a>
</g>
</g>
<!-- Node5&#45;&gt;Node21 -->
<g id="edge23" class="edge"><title>Node5&#45;&gt;Node21</title>
<path fill="none" stroke="midnightblue" d="M1221.21,-190.761C1293.64,-178.955 1395.28,-161.677 1484,-144 1494.04,-142 1504.54,-139.789 1514.95,-137.527"/>
<polygon fill="midnightblue" stroke="midnightblue" points="1220.5,-187.331 1211.19,-192.39 1221.62,-194.24 1220.5,-187.331"/>
</g>
<!-- Node22 -->
<g id="node22" class="node"><title>Node22</title>
<g id="a_node22"><a xlink:href="FancyMeshComponent_8cpp.html" target="_top" xlink:title="/home/travis/build\l/STORM&#45;IRIT/Radium&#45;Engine\l/Plugins/FancyMesh/src/FancyMesh\lComponent.cpp">
<polygon fill="white" stroke="black" points="1723,-91 1723,-143 1899,-143 1899,-91 1723,-91"/>
<text text-anchor="start" x="1731" y="-131" font-family="Helvetica,sans-Serif" font-size="10.00">/home/travis/build</text>
<text text-anchor="start" x="1731" y="-120" font-family="Helvetica,sans-Serif" font-size="10.00">/STORM&#45;IRIT/Radium&#45;Engine</text>
<text text-anchor="start" x="1731" y="-109" font-family="Helvetica,sans-Serif" font-size="10.00">/Plugins/FancyMesh/src/FancyMesh</text>
<text text-anchor="middle" x="1811" y="-98" font-family="Helvetica,sans-Serif" font-size="10.00">Component.cpp</text>
</a>
</g>
</g>
<!-- Node5&#45;&gt;Node22 -->
<g id="edge24" class="edge"><title>Node5&#45;&gt;Node22</title>
<path fill="none" stroke="midnightblue" d="M1221.3,-200.421C1338.3,-192.593 1541.34,-175.626 1713,-144 1716.29,-143.394 1719.63,-142.735 1723,-142.034"/>
<polygon fill="midnightblue" stroke="midnightblue" points="1221.04,-196.93 1211.29,-201.082 1221.5,-203.915 1221.04,-196.93"/>
</g>
<!-- Node7 -->
<g id="node7" class="node"><title>Node7</title>
<g id="a_node7"><a xlink:href="BVH_8hpp.html" target="_top" xlink:title="/home/travis/build\l/STORM&#45;IRIT/Radium&#45;Engine\l/src/Core/TreeStructures\l/BVH.hpp">
<polygon fill="white" stroke="black" points="0,-1 0,-53 148,-53 148,-1 0,-1"/>
<text text-anchor="start" x="8" y="-41" font-family="Helvetica,sans-Serif" font-size="10.00">/home/travis/build</text>
<text text-anchor="start" x="8" y="-30" font-family="Helvetica,sans-Serif" font-size="10.00">/STORM&#45;IRIT/Radium&#45;Engine</text>
<text text-anchor="start" x="8" y="-19" font-family="Helvetica,sans-Serif" font-size="10.00">/src/Core/TreeStructures</text>
<text text-anchor="middle" x="74" y="-8" font-family="Helvetica,sans-Serif" font-size="10.00">/BVH.hpp</text>
</a>
</g>
</g>
<!-- Node6&#45;&gt;Node7 -->
<g id="edge8" class="edge"><title>Node6&#45;&gt;Node7</title>
<path fill="none" stroke="midnightblue" d="M285.269,-92.4691C282.477,-91.6293 279.715,-90.8038 277,-90 219.925,-73.1012 205.075,-70.8988 148,-54 146.986,-53.6999 145.966,-53.3968 144.941,-53.091"/>
<polygon fill="midnightblue" stroke="midnightblue" points="284.264,-95.8217 294.849,-95.3682 286.292,-89.1218 284.264,-95.8217"/>
</g>
<!-- Node7&#45;&gt;Node6 -->
<g id="edge9" class="edge"><title>Node7&#45;&gt;Node6</title>
<path fill="none" stroke="midnightblue" d="M157.731,-51.5309C160.523,-52.3707 163.285,-53.1962 166,-54 223.075,-70.8988 237.925,-73.1012 295,-90 296.014,-90.3001 297.034,-90.6032 298.059,-90.909"/>
<polygon fill="midnightblue" stroke="midnightblue" points="158.736,-48.1783 148.151,-48.6318 156.708,-54.8782 158.736,-48.1783"/>
</g>
<!-- Node9 -->
<g id="node9" class="node"><title>Node9</title>
<g id="a_node9"><a xlink:href="ItemEntry_8cpp.html" target="_top" xlink:title="/home/travis/build\l/STORM&#45;IRIT/Radium&#45;Engine\l/src/Engine/ItemModel/ItemEntry.cpp">
<polygon fill="white" stroke="black" points="166.5,-6.5 166.5,-47.5 345.5,-47.5 345.5,-6.5 166.5,-6.5"/>
<text text-anchor="start" x="174.5" y="-35.5" font-family="Helvetica,sans-Serif" font-size="10.00">/home/travis/build</text>
<text text-anchor="start" x="174.5" y="-24.5" font-family="Helvetica,sans-Serif" font-size="10.00">/STORM&#45;IRIT/Radium&#45;Engine</text>
<text text-anchor="middle" x="256" y="-13.5" font-family="Helvetica,sans-Serif" font-size="10.00">/src/Engine/ItemModel/ItemEntry.cpp</text>
</a>
</g>
</g>
<!-- Node8&#45;&gt;Node9 -->
<g id="edge11" class="edge"><title>Node8&#45;&gt;Node9</title>
<path fill="none" stroke="midnightblue" d="M744.871,-107.143C645.168,-97.4939 488.747,-79.8911 355,-54 345.492,-52.1594 335.545,-49.924 325.777,-47.5455"/>
<polygon fill="midnightblue" stroke="midnightblue" points="744.651,-110.638 754.94,-108.109 745.32,-103.67 744.651,-110.638"/>
</g>
<!-- Node10 -->
<g id="node10" class="node"><title>Node10</title>
<g id="a_node10"><a xlink:href="EntityManager_8cpp.html" target="_top" xlink:title="/home/travis/build\l/STORM&#45;IRIT/Radium&#45;Engine\l/src/Engine/Managers/EntityManager\l/EntityManager.cpp">
<polygon fill="white" stroke="black" points="364,-1 364,-53 542,-53 542,-1 364,-1"/>
<text text-anchor="start" x="372" y="-41" font-family="Helvetica,sans-Serif" font-size="10.00">/home/travis/build</text>
<text text-anchor="start" x="372" y="-30" font-family="Helvetica,sans-Serif" font-size="10.00">/STORM&#45;IRIT/Radium&#45;Engine</text>
<text text-anchor="start" x="372" y="-19" font-family="Helvetica,sans-Serif" font-size="10.00">/src/Engine/Managers/EntityManager</text>
<text text-anchor="middle" x="453" y="-8" font-family="Helvetica,sans-Serif" font-size="10.00">/EntityManager.cpp</text>
</a>
</g>
</g>
<!-- Node8&#45;&gt;Node10 -->
<g id="edge12" class="edge"><title>Node8&#45;&gt;Node10</title>
<path fill="none" stroke="midnightblue" d="M744.592,-96.0475C687.55,-84.4839 615.124,-69.2338 551,-54 548.089,-53.3083 545.132,-52.5939 542.148,-51.8627"/>
<polygon fill="midnightblue" stroke="midnightblue" points="744.199,-99.5389 754.695,-98.0897 745.586,-92.6777 744.199,-99.5389"/>
</g>
<!-- Node11 -->
<g id="node11" class="node"><title>Node11</title>
<g id="a_node11"><a xlink:href="SystemDisplay_8cpp.html" target="_top" xlink:title="/home/travis/build\l/STORM&#45;IRIT/Radium&#45;Engine\l/src/Engine/Managers/SystemDisplay\l/SystemDisplay.cpp">
<polygon fill="white" stroke="black" points="560,-1 560,-53 742,-53 742,-1 560,-1"/>
<text text-anchor="start" x="568" y="-41" font-family="Helvetica,sans-Serif" font-size="10.00">/home/travis/build</text>
<text text-anchor="start" x="568" y="-30" font-family="Helvetica,sans-Serif" font-size="10.00">/STORM&#45;IRIT/Radium&#45;Engine</text>
<text text-anchor="start" x="568" y="-19" font-family="Helvetica,sans-Serif" font-size="10.00">/src/Engine/Managers/SystemDisplay</text>
<text text-anchor="middle" x="651" y="-8" font-family="Helvetica,sans-Serif" font-size="10.00">/SystemDisplay.cpp</text>
</a>
</g>
</g>
<!-- Node8&#45;&gt;Node11 -->
<g id="edge13" class="edge"><title>Node8&#45;&gt;Node11</title>
<path fill="none" stroke="midnightblue" d="M780.971,-86.6536C756.903,-75.7923 729.856,-63.5862 706.692,-53.1328"/>
<polygon fill="midnightblue" stroke="midnightblue" points="779.827,-89.9773 790.382,-90.9005 782.707,-83.5969 779.827,-89.9773"/>
</g>
<!-- Node12 -->
<g id="node12" class="node"><title>Node12</title>
<g id="a_node12"><a xlink:href="RenderObjectManager_8cpp.html" target="_top" xlink:title="/home/travis/build\l/STORM&#45;IRIT/Radium&#45;Engine\l/src/Engine/Renderer/RenderObject\l/RenderObjectManager.cpp">
<polygon fill="white" stroke="black" points="760,-1 760,-53 932,-53 932,-1 760,-1"/>
<text text-anchor="start" x="768" y="-41" font-family="Helvetica,sans-Serif" font-size="10.00">/home/travis/build</text>
<text text-anchor="start" x="768" y="-30" font-family="Helvetica,sans-Serif" font-size="10.00">/STORM&#45;IRIT/Radium&#45;Engine</text>
<text text-anchor="start" x="768" y="-19" font-family="Helvetica,sans-Serif" font-size="10.00">/src/Engine/Renderer/RenderObject</text>
<text text-anchor="middle" x="846" y="-8" font-family="Helvetica,sans-Serif" font-size="10.00">/RenderObjectManager.cpp</text>
</a>
</g>
</g>
<!-- Node8&#45;&gt;Node12 -->
<g id="edge14" class="edge"><title>Node8&#45;&gt;Node12</title>
<path fill="none" stroke="midnightblue" d="M846,-80.4892C846,-71.3088 846,-61.616 846,-53.0921"/>
<polygon fill="midnightblue" stroke="midnightblue" points="842.5,-80.5467 846,-90.5468 849.5,-80.5468 842.5,-80.5467"/>
</g>
<!-- Node13 -->
<g id="node13" class="node"><title>Node13</title>
<g id="a_node13"><a xlink:href="BaseApplication_8cpp.html" target="_top" xlink:title="/home/travis/build\l/STORM&#45;IRIT/Radium&#45;Engine\l/src/GuiBase/BaseApplication.cpp">
<polygon fill="white" stroke="black" points="950,-6.5 950,-47.5 1116,-47.5 1116,-6.5 950,-6.5"/>
<text text-anchor="start" x="958" y="-35.5" font-family="Helvetica,sans-Serif" font-size="10.00">/home/travis/build</text>
<text text-anchor="start" x="958" y="-24.5" font-family="Helvetica,sans-Serif" font-size="10.00">/STORM&#45;IRIT/Radium&#45;Engine</text>
<text text-anchor="middle" x="1033" y="-13.5" font-family="Helvetica,sans-Serif" font-size="10.00">/src/GuiBase/BaseApplication.cpp</text>
</a>
</g>
</g>
<!-- Node8&#45;&gt;Node13 -->
<g id="edge15" class="edge"><title>Node8&#45;&gt;Node13</title>
<path fill="none" stroke="midnightblue" d="M908.435,-86.6189C935.761,-73.7593 967.082,-59.0201 991.481,-47.5384"/>
<polygon fill="midnightblue" stroke="midnightblue" points="906.894,-83.4756 899.336,-90.9005 909.875,-89.8093 906.894,-83.4756"/>
</g>
<!-- Node14 -->
<g id="node14" class="node"><title>Node14</title>
<g id="a_node14"><a xlink:href="GizmoManager_8cpp.html" target="_top" xlink:title="/home/travis/build\l/STORM&#45;IRIT/Radium&#45;Engine\l/src/GuiBase/Viewer/Gizmo\l/GizmoManager.cpp">
<polygon fill="white" stroke="black" points="1134,-1 1134,-53 1282,-53 1282,-1 1134,-1"/>
<text text-anchor="start" x="1142" y="-41" font-family="Helvetica,sans-Serif" font-size="10.00">/home/travis/build</text>
<text text-anchor="start" x="1142" y="-30" font-family="Helvetica,sans-Serif" font-size="10.00">/STORM&#45;IRIT/Radium&#45;Engine</text>
<text text-anchor="start" x="1142" y="-19" font-family="Helvetica,sans-Serif" font-size="10.00">/src/GuiBase/Viewer/Gizmo</text>
<text text-anchor="middle" x="1208" y="-8" font-family="Helvetica,sans-Serif" font-size="10.00">/GizmoManager.cpp</text>
</a>
</g>
</g>
<!-- Node8&#45;&gt;Node14 -->
<g id="edge16" class="edge"><title>Node8&#45;&gt;Node14</title>
<path fill="none" stroke="midnightblue" d="M946.694,-90.0704C946.796,-90.0469 946.898,-90.0234 947,-90 1025.66,-71.933 1046.83,-74.0909 1125,-54 1127.92,-53.2483 1130.9,-52.4553 1133.9,-51.6321"/>
<polygon fill="midnightblue" stroke="midnightblue" points="946.004,-86.6372 937.064,-92.3238 947.599,-93.4531 946.004,-86.6372"/>
</g>
<!-- Node15 -->
<g id="node15" class="node"><title>Node15</title>
<g id="a_node15"><a xlink:href="Viewer_8cpp.html" target="_top" xlink:title="/home/travis/build\l/STORM&#45;IRIT/Radium&#45;Engine\l/src/GuiBase/Viewer/Viewer.cpp">
<polygon fill="white" stroke="black" points="1300,-6.5 1300,-47.5 1458,-47.5 1458,-6.5 1300,-6.5"/>
<text text-anchor="start" x="1308" y="-35.5" font-family="Helvetica,sans-Serif" font-size="10.00">/home/travis/build</text>
<text text-anchor="start" x="1308" y="-24.5" font-family="Helvetica,sans-Serif" font-size="10.00">/STORM&#45;IRIT/Radium&#45;Engine</text>
<text text-anchor="middle" x="1379" y="-13.5" font-family="Helvetica,sans-Serif" font-size="10.00">/src/GuiBase/Viewer/Viewer.cpp</text>
</a>
</g>
</g>
<!-- Node8&#45;&gt;Node15 -->
<g id="edge17" class="edge"><title>Node8&#45;&gt;Node15</title>
<path fill="none" stroke="midnightblue" d="M947.472,-90.0577C1100.14,-63.649 1143.45,-83.2612 1291,-54 1299.91,-52.2336 1309.21,-49.9648 1318.29,-47.505"/>
<polygon fill="midnightblue" stroke="midnightblue" points="946.493,-86.6765 937.255,-91.8648 947.712,-93.5695 946.493,-86.6765"/>
</g>
<!-- Node16 -->
<g id="node16" class="node"><title>Node16</title>
<g id="a_node16"><a xlink:href="MeshFeatureTrackingComponent_8cpp.html" target="_top" xlink:title="/home/travis/build\l/STORM&#45;IRIT/Radium&#45;Engine\l/Plugins/MeshFeatureTracking\l/src/MeshFeatureTrackingComponent.cpp">
<polygon fill="white" stroke="black" points="1476,-1 1476,-53 1676,-53 1676,-1 1476,-1"/>
<text text-anchor="start" x="1484" y="-41" font-family="Helvetica,sans-Serif" font-size="10.00">/home/travis/build</text>
<text text-anchor="start" x="1484" y="-30" font-family="Helvetica,sans-Serif" font-size="10.00">/STORM&#45;IRIT/Radium&#45;Engine</text>
<text text-anchor="start" x="1484" y="-19" font-family="Helvetica,sans-Serif" font-size="10.00">/Plugins/MeshFeatureTracking</text>
<text text-anchor="middle" x="1576" y="-8" font-family="Helvetica,sans-Serif" font-size="10.00">/src/MeshFeatureTrackingComponent.cpp</text>
</a>
</g>
</g>
<!-- Node8&#45;&gt;Node16 -->
<g id="edge18" class="edge"><title>Node8&#45;&gt;Node16</title>
<path fill="none" stroke="midnightblue" d="M947.236,-90.1195C1177.04,-54.0208 1240.64,-88.2169 1466,-54 1469.2,-53.514 1472.45,-52.9826 1475.72,-52.4137"/>
<polygon fill="midnightblue" stroke="midnightblue" points="946.552,-86.6843 937.23,-91.719 947.657,-93.5966 946.552,-86.6843"/>
</g>
<!-- Node17 -->
<g id="node17" class="node"><title>Node17</title>
<g id="a_node17"><a xlink:href="MeshPaintPlugin_8cpp.html" target="_top" xlink:title="/home/travis/build\l/STORM&#45;IRIT/Radium&#45;Engine\l/Plugins/MeshPaint/src/MeshPaint\lPlugin.cpp">
<polygon fill="white" stroke="black" points="1694.5,-1 1694.5,-53 1861.5,-53 1861.5,-1 1694.5,-1"/>
<text text-anchor="start" x="1702.5" y="-41" font-family="Helvetica,sans-Serif" font-size="10.00">/home/travis/build</text>
<text text-anchor="start" x="1702.5" y="-30" font-family="Helvetica,sans-Serif" font-size="10.00">/STORM&#45;IRIT/Radium&#45;Engine</text>
<text text-anchor="start" x="1702.5" y="-19" font-family="Helvetica,sans-Serif" font-size="10.00">/Plugins/MeshPaint/src/MeshPaint</text>
<text text-anchor="middle" x="1778" y="-8" font-family="Helvetica,sans-Serif" font-size="10.00">Plugin.cpp</text>
</a>
</g>
</g>
<!-- Node8&#45;&gt;Node17 -->
<g id="edge19" class="edge"><title>Node8&#45;&gt;Node17</title>
<path fill="none" stroke="midnightblue" d="M947.429,-90.1065C1273.54,-42.1483 1364.16,-105.999 1685,-54 1688.06,-53.5038 1691.17,-52.9435 1694.29,-52.3311"/>
<polygon fill="midnightblue" stroke="midnightblue" points="946.589,-86.693 937.217,-91.6333 947.624,-93.6161 946.589,-86.693"/>
</g>
</g>
</svg>
