<?xml version="1.0" encoding="UTF-8" standalone="no"?>
<!DOCTYPE svg PUBLIC "-//W3C//DTD SVG 1.1//EN"
 "http://www.w3.org/Graphics/SVG/1.1/DTD/svg11.dtd">
<!-- Generated by graphviz version 2.36.0 (20140111.2315)
 -->
<!-- Title: /home/travis/build/STORM&#45;IRIT/Radium&#45;Engine/src/Engine/Managers/SystemDisplay/SystemDisplay.hpp Pages: 1 -->
<svg width="1759pt" height="546pt"
 viewBox="0.00 0.00 1759.00 546.00" xmlns="http://www.w3.org/2000/svg" xmlns:xlink="http://www.w3.org/1999/xlink">
<g id="graph0" class="graph" transform="scale(1 1) rotate(0) translate(4 542)">
<title>/home/travis/build/STORM&#45;IRIT/Radium&#45;Engine/src/Engine/Managers/SystemDisplay/SystemDisplay.hpp</title>
<polygon fill="white" stroke="none" points="-4,4 -4,-542 1755,-542 1755,4 -4,4"/>
<!-- Node1 -->
<g id="node1" class="node"><title>Node1</title>
<polygon fill="#bfbfbf" stroke="black" points="722,-485 722,-537 904,-537 904,-485 722,-485"/>
<text text-anchor="start" x="730" y="-525" font-family="Helvetica,sans-Serif" font-size="10.00">/home/travis/build</text>
<text text-anchor="start" x="730" y="-514" font-family="Helvetica,sans-Serif" font-size="10.00">/STORM&#45;IRIT/Radium&#45;Engine</text>
<text text-anchor="start" x="730" y="-503" font-family="Helvetica,sans-Serif" font-size="10.00">/src/Engine/Managers/SystemDisplay</text>
<text text-anchor="middle" x="813" y="-492" font-family="Helvetica,sans-Serif" font-size="10.00">/SystemDisplay.hpp</text>
</g>
<!-- Node2 -->
<g id="node2" class="node"><title>Node2</title>
<g id="a_node2"><a xlink:href="RaEngine_8hpp.html" target="_top" xlink:title="Engine/RaEngine.hpp">
<polygon fill="white" stroke="black" points="184.5,-304.5 184.5,-323.5 295.5,-323.5 295.5,-304.5 184.5,-304.5"/>
<text text-anchor="middle" x="240" y="-311.5" font-family="Helvetica,sans-Serif" font-size="10.00">Engine/RaEngine.hpp</text>
</a>
</g>
</g>
<!-- Node1&#45;&gt;Node2 -->
<g id="edge1" class="edge"><title>Node1&#45;&gt;Node2</title>
<path fill="none" stroke="midnightblue" d="M756.556,-484.93C698.378,-458.995 605.125,-417.156 525,-380 506.244,-371.302 502.666,-366.381 483,-360 450.787,-349.547 365.895,-334.874 305.546,-325.16"/>
<polygon fill="midnightblue" stroke="midnightblue" points="305.761,-321.65 295.333,-323.526 304.654,-328.562 305.761,-321.65"/>
</g>
<!-- Node9 -->
<g id="node9" class="node"><title>Node9</title>
<g id="a_node9"><a xlink:href="ColorPresets_8hpp.html" target="_top" xlink:title="Core/Math/ColorPresets.hpp">
<polygon fill="white" stroke="black" points="806.5,-422.5 806.5,-441.5 947.5,-441.5 947.5,-422.5 806.5,-422.5"/>
<text text-anchor="middle" x="877" y="-429.5" font-family="Helvetica,sans-Serif" font-size="10.00">Core/Math/ColorPresets.hpp</text>
</a>
</g>
</g>
<!-- Node1&#45;&gt;Node9 -->
<g id="edge8" class="edge"><title>Node1&#45;&gt;Node9</title>
<path fill="none" stroke="midnightblue" d="M833.956,-484.787C843.639,-473.137 854.861,-459.636 863.418,-449.341"/>
<polygon fill="midnightblue" stroke="midnightblue" points="866.187,-451.485 869.887,-441.558 860.803,-447.011 866.187,-451.485"/>
</g>
<!-- Node22 -->
<g id="node22" class="node"><title>Node22</title>
<g id="a_node22"><a xlink:href="Singleton_8hpp.html" target="_top" xlink:title="Core/Utils/Singleton.hpp">
<polygon fill="white" stroke="black" points="1341.5,-422.5 1341.5,-441.5 1464.5,-441.5 1464.5,-422.5 1341.5,-422.5"/>
<text text-anchor="middle" x="1403" y="-429.5" font-family="Helvetica,sans-Serif" font-size="10.00">Core/Utils/Singleton.hpp</text>
</a>
</g>
</g>
<!-- Node1&#45;&gt;Node22 -->
<g id="edge24" class="edge"><title>Node1&#45;&gt;Node22</title>
<path fill="none" stroke="midnightblue" d="M904.217,-498.095C1021.88,-482.739 1224.12,-456.345 1331.37,-442.348"/>
<polygon fill="midnightblue" stroke="midnightblue" points="1331.98,-445.798 1341.45,-441.033 1331.08,-438.857 1331.98,-445.798"/>
</g>
<!-- Node23 -->
<g id="node23" class="node"><title>Node23</title>
<g id="a_node23"><a xlink:href="Component_8hpp.html" target="_top" xlink:title="Engine/Component/Component.hpp">
<polygon fill="white" stroke="black" points="302,-360.5 302,-379.5 474,-379.5 474,-360.5 302,-360.5"/>
<text text-anchor="middle" x="388" y="-367.5" font-family="Helvetica,sans-Serif" font-size="10.00">Engine/Component/Component.hpp</text>
</a>
</g>
</g>
<!-- Node1&#45;&gt;Node23 -->
<g id="edge26" class="edge"><title>Node1&#45;&gt;Node23</title>
<path fill="none" stroke="midnightblue" d="M721.824,-502.358C657.031,-494.507 569.086,-478.85 497,-448 461.215,-432.685 425.456,-404.31 405.099,-386.612"/>
<polygon fill="midnightblue" stroke="midnightblue" points="407.167,-383.767 397.363,-379.75 402.522,-389.004 407.167,-383.767"/>
</g>
<!-- Node30 -->
<g id="node30" class="node"><title>Node30</title>
<g id="a_node30"><a xlink:href="Entity_8hpp.html" target="_top" xlink:title="Engine/Entity/Entity.hpp">
<polygon fill="white" stroke="black" points="674,-360.5 674,-379.5 796,-379.5 796,-360.5 674,-360.5"/>
<text text-anchor="middle" x="735" y="-367.5" font-family="Helvetica,sans-Serif" font-size="10.00">Engine/Entity/Entity.hpp</text>
</a>
</g>
</g>
<!-- Node1&#45;&gt;Node30 -->
<g id="edge40" class="edge"><title>Node1&#45;&gt;Node30</title>
<path fill="none" stroke="midnightblue" d="M798.875,-484.828C783.209,-456.911 758.354,-412.617 744.727,-388.334"/>
<polygon fill="midnightblue" stroke="midnightblue" points="747.734,-386.54 739.788,-379.532 741.629,-389.966 747.734,-386.54"/>
</g>
<!-- Node35 -->
<g id="node35" class="node"><title>Node35</title>
<g id="a_node35"><a xlink:href="DrawPrimitives_8hpp.html" target="_top" xlink:title="Engine/Renderer/RenderObject\l/Primitives/DrawPrimitives.hpp">
<polygon fill="white" stroke="black" points="980,-417 980,-447 1132,-447 1132,-417 980,-417"/>
<text text-anchor="start" x="988" y="-435" font-family="Helvetica,sans-Serif" font-size="10.00">Engine/Renderer/RenderObject</text>
<text text-anchor="middle" x="1056" y="-424" font-family="Helvetica,sans-Serif" font-size="10.00">/Primitives/DrawPrimitives.hpp</text>
</a>
</g>
</g>
<!-- Node1&#45;&gt;Node35 -->
<g id="edge51" class="edge"><title>Node1&#45;&gt;Node35</title>
<path fill="none" stroke="midnightblue" d="M892.231,-484.894C928.129,-473.519 969.65,-460.362 1001.9,-450.142"/>
<polygon fill="midnightblue" stroke="midnightblue" points="1003.12,-453.427 1011.6,-447.07 1001.01,-446.754 1003.12,-453.427"/>
</g>
<!-- Node3 -->
<g id="node3" class="node"><title>Node3</title>
<g id="a_node3"><a xlink:href="CoreMacros_8hpp.html" target="_top" xlink:title="Core/CoreMacros.hpp">
<polygon fill="white" stroke="black" points="466.5,-56.5 466.5,-75.5 579.5,-75.5 579.5,-56.5 466.5,-56.5"/>
<text text-anchor="middle" x="523" y="-63.5" font-family="Helvetica,sans-Serif" font-size="10.00">Core/CoreMacros.hpp</text>
</a>
</g>
</g>
<!-- Node2&#45;&gt;Node3 -->
<g id="edge2" class="edge"><title>Node2&#45;&gt;Node3</title>
<path fill="none" stroke="midnightblue" d="M261.386,-304.431C279.936,-296.462 307.027,-283.505 328,-268 348.426,-252.899 465.463,-128.494 507.756,-83.3154"/>
<polygon fill="midnightblue" stroke="midnightblue" points="510.468,-85.5398 514.743,-75.8458 505.356,-80.7579 510.468,-85.5398"/>
</g>
<!-- Node4 -->
<g id="node4" class="node"><title>Node4</title>
<polygon fill="white" stroke="#bfbfbf" points="567.5,-0.5 567.5,-19.5 616.5,-19.5 616.5,-0.5 567.5,-0.5"/>
<text text-anchor="middle" x="592" y="-7.5" font-family="Helvetica,sans-Serif" font-size="10.00">cassert</text>
</g>
<!-- Node3&#45;&gt;Node4 -->
<g id="edge3" class="edge"><title>Node3&#45;&gt;Node4</title>
<path fill="none" stroke="midnightblue" d="M534.086,-56.324C544.486,-48.1849 560.261,-35.8395 572.722,-26.0874"/>
<polygon fill="midnightblue" stroke="midnightblue" points="574.994,-28.7533 580.712,-19.8339 570.68,-23.2407 574.994,-28.7533"/>
</g>
<!-- Node5 -->
<g id="node5" class="node"><title>Node5</title>
<polygon fill="white" stroke="#bfbfbf" points="634.5,-0.5 634.5,-19.5 677.5,-19.5 677.5,-0.5 634.5,-0.5"/>
<text text-anchor="middle" x="656" y="-7.5" font-family="Helvetica,sans-Serif" font-size="10.00">cstdio</text>
</g>
<!-- Node3&#45;&gt;Node5 -->
<g id="edge4" class="edge"><title>Node3&#45;&gt;Node5</title>
<path fill="none" stroke="midnightblue" d="M544.074,-56.4435C566.06,-47.5171 600.734,-33.4387 625.664,-23.3168"/>
<polygon fill="midnightblue" stroke="midnightblue" points="627.076,-26.5213 635.024,-19.5164 624.442,-20.0355 627.076,-26.5213"/>
</g>
<!-- Node6 -->
<g id="node6" class="node"><title>Node6</title>
<polygon fill="white" stroke="#bfbfbf" points="425,-0.5 425,-19.5 479,-19.5 479,-0.5 425,-0.5"/>
<text text-anchor="middle" x="452" y="-7.5" font-family="Helvetica,sans-Serif" font-size="10.00">iostream</text>
</g>
<!-- Node3&#45;&gt;Node6 -->
<g id="edge5" class="edge"><title>Node3&#45;&gt;Node6</title>
<path fill="none" stroke="midnightblue" d="M511.593,-56.324C500.891,-48.1849 484.659,-35.8395 471.837,-26.0874"/>
<polygon fill="midnightblue" stroke="midnightblue" points="473.693,-23.1018 463.615,-19.8339 469.456,-28.6734 473.693,-23.1018"/>
</g>
<!-- Node7 -->
<g id="node7" class="node"><title>Node7</title>
<polygon fill="white" stroke="#bfbfbf" points="497,-0.5 497,-19.5 549,-19.5 549,-0.5 497,-0.5"/>
<text text-anchor="middle" x="523" y="-7.5" font-family="Helvetica,sans-Serif" font-size="10.00">sstream</text>
</g>
<!-- Node3&#45;&gt;Node7 -->
<g id="edge6" class="edge"><title>Node3&#45;&gt;Node7</title>
<path fill="none" stroke="midnightblue" d="M523,-56.083C523,-49.0059 523,-38.8611 523,-29.9865"/>
<polygon fill="midnightblue" stroke="midnightblue" points="526.5,-29.751 523,-19.7511 519.5,-29.7511 526.5,-29.751"/>
</g>
<!-- Node8 -->
<g id="node8" class="node"><title>Node8</title>
<polygon fill="white" stroke="#bfbfbf" points="363,-0.5 363,-19.5 407,-19.5 407,-0.5 363,-0.5"/>
<text text-anchor="middle" x="385" y="-7.5" font-family="Helvetica,sans-Serif" font-size="10.00">thread</text>
</g>
<!-- Node3&#45;&gt;Node8 -->
<g id="edge7" class="edge"><title>Node3&#45;&gt;Node8</title>
<path fill="none" stroke="midnightblue" d="M501.133,-56.4435C478.221,-47.4776 442.025,-33.314 416.134,-23.1827"/>
<polygon fill="midnightblue" stroke="midnightblue" points="417.352,-19.9011 406.764,-19.5164 414.801,-26.4198 417.352,-19.9011"/>
</g>
<!-- Node10 -->
<g id="node10" class="node"><title>Node10</title>
<g id="a_node10"><a xlink:href="LinearAlgebra_8hpp.html" target="_top" xlink:title="Core/Math/LinearAlgebra.hpp">
<polygon fill="white" stroke="black" points="842.5,-242.5 842.5,-261.5 985.5,-261.5 985.5,-242.5 842.5,-242.5"/>
<text text-anchor="middle" x="914" y="-249.5" font-family="Helvetica,sans-Serif" font-size="10.00">Core/Math/LinearAlgebra.hpp</text>
</a>
</g>
</g>
<!-- Node9&#45;&gt;Node10 -->
<g id="edge9" class="edge"><title>Node9&#45;&gt;Node10</title>
<path fill="none" stroke="midnightblue" d="M887.227,-422.289C906.002,-405.54 945.378,-366.706 960,-324 967.252,-302.819 949.559,-281.69 934.056,-268.06"/>
<polygon fill="midnightblue" stroke="midnightblue" points="936.234,-265.319 926.293,-261.655 931.779,-270.719 936.234,-265.319"/>
</g>
<!-- Node11 -->
<g id="node11" class="node"><title>Node11</title>
<g id="a_node11"><a xlink:href="RaCore_8hpp.html" target="_top" xlink:title="Core/RaCore.hpp">
<polygon fill="white" stroke="black" points="1205.5,-112.5 1205.5,-131.5 1298.5,-131.5 1298.5,-112.5 1205.5,-112.5"/>
<text text-anchor="middle" x="1252" y="-119.5" font-family="Helvetica,sans-Serif" font-size="10.00">Core/RaCore.hpp</text>
</a>
</g>
</g>
<!-- Node10&#45;&gt;Node11 -->
<g id="edge10" class="edge"><title>Node10&#45;&gt;Node11</title>
<path fill="none" stroke="midnightblue" d="M963.446,-242.483C1021.01,-232.141 1112.26,-214.308 1144,-200 1166.04,-190.063 1168.33,-182.066 1188,-168 1202.4,-157.7 1218.73,-146.222 1231.29,-137.435"/>
<polygon fill="midnightblue" stroke="midnightblue" points="1233.5,-140.165 1239.69,-131.569 1229.49,-134.427 1233.5,-140.165"/>
</g>
<!-- Node12 -->
<g id="node12" class="node"><title>Node12</title>
<polygon fill="white" stroke="#bfbfbf" points="594.5,-174.5 594.5,-193.5 659.5,-193.5 659.5,-174.5 594.5,-174.5"/>
<text text-anchor="middle" x="627" y="-181.5" font-family="Helvetica,sans-Serif" font-size="10.00">Eigen/Core</text>
</g>
<!-- Node10&#45;&gt;Node12 -->
<g id="edge12" class="edge"><title>Node10&#45;&gt;Node12</title>
<path fill="none" stroke="midnightblue" d="M861.632,-242.437C811.46,-233.695 733.857,-218.765 668,-200 664.793,-199.086 661.477,-198.043 658.184,-196.943"/>
<polygon fill="midnightblue" stroke="midnightblue" points="659.104,-193.556 648.509,-193.54 656.781,-200.16 659.104,-193.556"/>
</g>
<!-- Node13 -->
<g id="node13" class="node"><title>Node13</title>
<polygon fill="white" stroke="#bfbfbf" points="489.5,-174.5 489.5,-193.5 576.5,-193.5 576.5,-174.5 489.5,-174.5"/>
<text text-anchor="middle" x="533" y="-181.5" font-family="Helvetica,sans-Serif" font-size="10.00">Eigen/Geometry</text>
</g>
<!-- Node10&#45;&gt;Node13 -->
<g id="edge13" class="edge"><title>Node10&#45;&gt;Node13</title>
<path fill="none" stroke="midnightblue" d="M842.276,-242.551C775.298,-234.032 672.765,-219.379 585,-200 580.152,-198.929 575.089,-197.662 570.108,-196.324"/>
<polygon fill="midnightblue" stroke="midnightblue" points="570.664,-192.845 560.09,-193.52 568.777,-199.586 570.664,-192.845"/>
</g>
<!-- Node14 -->
<g id="node14" class="node"><title>Node14</title>
<polygon fill="white" stroke="#bfbfbf" points="677.5,-174.5 677.5,-193.5 752.5,-193.5 752.5,-174.5 677.5,-174.5"/>
<text text-anchor="middle" x="715" y="-181.5" font-family="Helvetica,sans-Serif" font-size="10.00">Eigen/Sparse</text>
</g>
<!-- Node10&#45;&gt;Node14 -->
<g id="edge14" class="edge"><title>Node10&#45;&gt;Node14</title>
<path fill="none" stroke="midnightblue" d="M887.984,-242.372C852.728,-230.679 789.662,-209.762 750.2,-196.674"/>
<polygon fill="midnightblue" stroke="midnightblue" points="751.3,-193.352 740.707,-193.526 749.097,-199.996 751.3,-193.352"/>
</g>
<!-- Node15 -->
<g id="node15" class="node"><title>Node15</title>
<polygon fill="white" stroke="#bfbfbf" points="770.5,-174.5 770.5,-193.5 829.5,-193.5 829.5,-174.5 770.5,-174.5"/>
<text text-anchor="middle" x="800" y="-181.5" font-family="Helvetica,sans-Serif" font-size="10.00">functional</text>
</g>
<!-- Node10&#45;&gt;Node15 -->
<g id="edge15" class="edge"><title>Node10&#45;&gt;Node15</title>
<path fill="none" stroke="midnightblue" d="M899.096,-242.372C879.894,-231.254 846.29,-211.8 823.599,-198.662"/>
<polygon fill="midnightblue" stroke="midnightblue" points="825.315,-195.612 814.907,-193.63 821.808,-201.67 825.315,-195.612"/>
</g>
<!-- Node16 -->
<g id="node16" class="node"><title>Node16</title>
<polygon fill="white" stroke="#bfbfbf" points="847.5,-169 847.5,-199 980.5,-199 980.5,-169 847.5,-169"/>
<text text-anchor="start" x="855.5" y="-187" font-family="Helvetica,sans-Serif" font-size="10.00">unsupported/Eigen/Aligned</text>
<text text-anchor="middle" x="914" y="-176" font-family="Helvetica,sans-Serif" font-size="10.00">Vector3</text>
</g>
<!-- Node10&#45;&gt;Node16 -->
<g id="edge16" class="edge"><title>Node10&#45;&gt;Node16</title>
<path fill="none" stroke="midnightblue" d="M914,-242.372C914,-233.971 914,-220.811 914,-209.213"/>
<polygon fill="midnightblue" stroke="midnightblue" points="917.5,-209.181 914,-199.181 910.5,-209.181 917.5,-209.181"/>
</g>
<!-- Node17 -->
<g id="node17" class="node"><title>Node17</title>
<g id="a_node17"><a xlink:href="Math_8hpp.html" target="_top" xlink:title="Core/Math/Math.hpp">
<polygon fill="white" stroke="black" points="1560,-174.5 1560,-193.5 1666,-193.5 1666,-174.5 1560,-174.5"/>
<text text-anchor="middle" x="1613" y="-181.5" font-family="Helvetica,sans-Serif" font-size="10.00">Core/Math/Math.hpp</text>
</a>
</g>
</g>
<!-- Node10&#45;&gt;Node17 -->
<g id="edge17" class="edge"><title>Node10&#45;&gt;Node17</title>
<path fill="none" stroke="midnightblue" d="M985.52,-244.247C1122.39,-231.324 1419.31,-203.289 1549.57,-190.989"/>
<polygon fill="midnightblue" stroke="midnightblue" points="1550.16,-194.449 1559.78,-190.025 1549.5,-187.48 1550.16,-194.449"/>
</g>
<!-- Node21 -->
<g id="node21" class="node"><title>Node21</title>
<g id="a_node21"><a xlink:href="LinearAlgebra_8inl.html" target="_top" xlink:title="Core/Math/LinearAlgebra.inl">
<polygon fill="white" stroke="black" points="998.5,-174.5 998.5,-193.5 1135.5,-193.5 1135.5,-174.5 998.5,-174.5"/>
<text text-anchor="middle" x="1067" y="-181.5" font-family="Helvetica,sans-Serif" font-size="10.00">Core/Math/LinearAlgebra.inl</text>
</a>
</g>
</g>
<!-- Node10&#45;&gt;Node21 -->
<g id="edge23" class="edge"><title>Node10&#45;&gt;Node21</title>
<path fill="none" stroke="midnightblue" d="M934.002,-242.372C960.461,-230.958 1007.29,-210.756 1037.73,-197.625"/>
<polygon fill="midnightblue" stroke="midnightblue" points="1039.2,-200.805 1046.99,-193.63 1036.42,-194.378 1039.2,-200.805"/>
</g>
<!-- Node11&#45;&gt;Node3 -->
<g id="edge11" class="edge"><title>Node11&#45;&gt;Node3</title>
<path fill="none" stroke="midnightblue" d="M1205.29,-117.54C1079.92,-108.254 735.714,-82.7566 589.791,-71.9475"/>
<polygon fill="midnightblue" stroke="midnightblue" points="589.865,-68.4434 579.633,-71.1951 589.348,-75.4243 589.865,-68.4434"/>
</g>
<!-- Node17&#45;&gt;Node11 -->
<g id="edge18" class="edge"><title>Node17&#45;&gt;Node11</title>
<path fill="none" stroke="midnightblue" d="M1576.93,-174.45C1566.94,-172.211 1556.07,-169.896 1546,-168 1463.73,-152.514 1367.75,-138.595 1308.42,-130.469"/>
<polygon fill="midnightblue" stroke="midnightblue" points="1308.88,-126.999 1298.5,-129.117 1307.94,-133.935 1308.88,-126.999"/>
</g>
<!-- Node18 -->
<g id="node18" class="node"><title>Node18</title>
<polygon fill="white" stroke="#bfbfbf" points="1633,-112.5 1633,-131.5 1689,-131.5 1689,-112.5 1633,-112.5"/>
<text text-anchor="middle" x="1661" y="-119.5" font-family="Helvetica,sans-Serif" font-size="10.00">algorithm</text>
</g>
<!-- Node17&#45;&gt;Node18 -->
<g id="edge19" class="edge"><title>Node17&#45;&gt;Node18</title>
<path fill="none" stroke="midnightblue" d="M1619.88,-174.403C1627.15,-165.314 1638.8,-150.756 1647.84,-139.449"/>
<polygon fill="midnightblue" stroke="midnightblue" points="1650.62,-141.576 1654.14,-131.581 1645.16,-137.203 1650.62,-141.576"/>
</g>
<!-- Node19 -->
<g id="node19" class="node"><title>Node19</title>
<polygon fill="white" stroke="#bfbfbf" points="1707,-112.5 1707,-131.5 1751,-131.5 1751,-112.5 1707,-112.5"/>
<text text-anchor="middle" x="1729" y="-119.5" font-family="Helvetica,sans-Serif" font-size="10.00">cmath</text>
</g>
<!-- Node17&#45;&gt;Node19 -->
<g id="edge20" class="edge"><title>Node17&#45;&gt;Node19</title>
<path fill="none" stroke="midnightblue" d="M1629.62,-174.403C1648.92,-164.423 1680.96,-147.849 1703.43,-136.225"/>
<polygon fill="midnightblue" stroke="midnightblue" points="1705.14,-139.284 1712.41,-131.581 1701.92,-133.066 1705.14,-139.284"/>
</g>
<!-- Node20 -->
<g id="node20" class="node"><title>Node20</title>
<g id="a_node20"><a xlink:href="Math_8inl.html" target="_top" xlink:title="Core/Math/Math.inl">
<polygon fill="white" stroke="black" points="1515,-112.5 1515,-131.5 1615,-131.5 1615,-112.5 1515,-112.5"/>
<text text-anchor="middle" x="1565" y="-119.5" font-family="Helvetica,sans-Serif" font-size="10.00">Core/Math/Math.inl</text>
</a>
</g>
</g>
<!-- Node17&#45;&gt;Node20 -->
<g id="edge21" class="edge"><title>Node17&#45;&gt;Node20</title>
<path fill="none" stroke="midnightblue" d="M1601.22,-174.403C1592.17,-165.493 1580.41,-151.325 1572.53,-140.118"/>
<polygon fill="midnightblue" stroke="midnightblue" points="1575.36,-138.048 1566.97,-131.581 1569.49,-141.87 1575.36,-138.048"/>
</g>
<!-- Node20&#45;&gt;Node17 -->
<g id="edge22" class="edge"><title>Node20&#45;&gt;Node17</title>
<path fill="none" stroke="midnightblue" d="M1576.76,-131.581C1585.81,-140.485 1597.57,-154.652 1605.46,-165.862"/>
<polygon fill="midnightblue" stroke="midnightblue" points="1602.63,-167.938 1611.02,-174.403 1608.49,-164.115 1602.63,-167.938"/>
</g>
<!-- Node22&#45;&gt;Node11 -->
<g id="edge25" class="edge"><title>Node22&#45;&gt;Node11</title>
<path fill="none" stroke="midnightblue" d="M1438.96,-422.411C1495.5,-406.789 1596.56,-369.171 1574,-304 1548.84,-231.323 1532.36,-208.543 1467,-168 1418.95,-138.19 1354.43,-127.816 1308.64,-124.363"/>
<polygon fill="midnightblue" stroke="midnightblue" points="1308.8,-120.866 1298.58,-123.693 1308.33,-127.851 1308.8,-120.866"/>
</g>
<!-- Node23&#45;&gt;Node2 -->
<g id="edge27" class="edge"><title>Node23&#45;&gt;Node2</title>
<path fill="none" stroke="midnightblue" d="M364.549,-360.444C339.867,-351.438 300.815,-337.189 273.023,-327.049"/>
<polygon fill="midnightblue" stroke="midnightblue" points="273.935,-323.656 263.341,-323.516 271.536,-330.232 273.935,-323.656"/>
</g>
<!-- Node23&#45;&gt;Node10 -->
<g id="edge33" class="edge"><title>Node23&#45;&gt;Node10</title>
<path fill="none" stroke="midnightblue" d="M405.149,-360.314C433.774,-346.202 493.44,-318.425 547,-304 642.957,-278.157 756.748,-264.932 831.905,-258.507"/>
<polygon fill="midnightblue" stroke="midnightblue" points="832.574,-261.964 842.248,-257.645 831.992,-254.988 832.574,-261.964"/>
</g>
<!-- Node24 -->
<g id="node24" class="node"><title>Node24</title>
<g id="a_node24"><a xlink:href="IndexedObject_8hpp.html" target="_top" xlink:title="Core/Index/IndexedObject.hpp">
<polygon fill="white" stroke="black" points="313.5,-304.5 313.5,-323.5 462.5,-323.5 462.5,-304.5 313.5,-304.5"/>
<text text-anchor="middle" x="388" y="-311.5" font-family="Helvetica,sans-Serif" font-size="10.00">Core/Index/IndexedObject.hpp</text>
</a>
</g>
</g>
<!-- Node23&#45;&gt;Node24 -->
<g id="edge28" class="edge"><title>Node23&#45;&gt;Node24</title>
<path fill="none" stroke="midnightblue" d="M388,-360.083C388,-353.006 388,-342.861 388,-333.986"/>
<polygon fill="midnightblue" stroke="midnightblue" points="391.5,-333.751 388,-323.751 384.5,-333.751 391.5,-333.751"/>
</g>
<!-- Node28 -->
<g id="node28" class="node"><title>Node28</title>
<g id="a_node28"><a xlink:href="Ray_8hpp.html" target="_top" xlink:title="Core/Math/Ray.hpp">
<polygon fill="white" stroke="black" points="556,-304.5 556,-323.5 658,-323.5 658,-304.5 556,-304.5"/>
<text text-anchor="middle" x="607" y="-311.5" font-family="Helvetica,sans-Serif" font-size="10.00">Core/Math/Ray.hpp</text>
</a>
</g>
</g>
<!-- Node23&#45;&gt;Node28 -->
<g id="edge34" class="edge"><title>Node23&#45;&gt;Node28</title>
<path fill="none" stroke="midnightblue" d="M422.701,-360.444C460.585,-351.102 521.349,-336.119 562.662,-325.933"/>
<polygon fill="midnightblue" stroke="midnightblue" points="563.59,-329.309 572.461,-323.516 561.914,-322.512 563.59,-329.309"/>
</g>
<!-- Node29 -->
<g id="node29" class="node"><title>Node29</title>
<g id="a_node29"><a xlink:href="Component_8inl.html" target="_top" xlink:title="Engine/Component/Component.inl">
<polygon fill="white" stroke="black" points="0,-304.5 0,-323.5 166,-323.5 166,-304.5 0,-304.5"/>
<text text-anchor="middle" x="83" y="-311.5" font-family="Helvetica,sans-Serif" font-size="10.00">Engine/Component/Component.inl</text>
</a>
</g>
</g>
<!-- Node23&#45;&gt;Node29 -->
<g id="edge38" class="edge"><title>Node23&#45;&gt;Node29</title>
<path fill="none" stroke="midnightblue" d="M334.583,-360.444C278.731,-350.925 191.757,-335.547 136.046,-325.356"/>
<polygon fill="midnightblue" stroke="midnightblue" points="136.49,-321.879 126.022,-323.516 135.226,-328.764 136.49,-321.879"/>
</g>
<!-- Node24&#45;&gt;Node11 -->
<g id="edge32" class="edge"><title>Node24&#45;&gt;Node11</title>
<path fill="none" stroke="midnightblue" d="M389.607,-304.142C394.889,-277.911 414.363,-200.448 465,-168 526.048,-128.881 1025.34,-123.691 1195.47,-123.064"/>
<polygon fill="midnightblue" stroke="midnightblue" points="1195.49,-126.564 1205.47,-123.031 1195.46,-119.564 1195.49,-126.564"/>
</g>
<!-- Node25 -->
<g id="node25" class="node"><title>Node25</title>
<g id="a_node25"><a xlink:href="Index_8hpp.html" target="_top" xlink:title="Core/Index/Index.hpp">
<polygon fill="white" stroke="black" points="209,-242.5 209,-261.5 319,-261.5 319,-242.5 209,-242.5"/>
<text text-anchor="middle" x="264" y="-249.5" font-family="Helvetica,sans-Serif" font-size="10.00">Core/Index/Index.hpp</text>
</a>
</g>
</g>
<!-- Node24&#45;&gt;Node25 -->
<g id="edge29" class="edge"><title>Node24&#45;&gt;Node25</title>
<path fill="none" stroke="midnightblue" d="M370.234,-304.403C349.516,-294.379 315.048,-277.701 291.011,-266.07"/>
<polygon fill="midnightblue" stroke="midnightblue" points="292.259,-262.786 281.733,-261.581 289.21,-269.087 292.259,-262.786"/>
</g>
<!-- Node26 -->
<g id="node26" class="node"><title>Node26</title>
<polygon fill="white" stroke="#bfbfbf" points="156,-174.5 156,-193.5 196,-193.5 196,-174.5 156,-174.5"/>
<text text-anchor="middle" x="176" y="-181.5" font-family="Helvetica,sans-Serif" font-size="10.00">limits</text>
</g>
<!-- Node25&#45;&gt;Node26 -->
<g id="edge30" class="edge"><title>Node25&#45;&gt;Node26</title>
<path fill="none" stroke="midnightblue" d="M252.496,-242.372C238.134,-231.6 213.336,-213.002 195.875,-199.906"/>
<polygon fill="midnightblue" stroke="midnightblue" points="197.607,-196.83 187.507,-193.63 193.407,-202.431 197.607,-196.83"/>
</g>
<!-- Node27 -->
<g id="node27" class="node"><title>Node27</title>
<g id="a_node27"><a xlink:href="Index_8inl.html" target="_top" xlink:title="Core/Index/Index.inl">
<polygon fill="white" stroke="black" points="214,-174.5 214,-193.5 318,-193.5 318,-174.5 214,-174.5"/>
<text text-anchor="middle" x="266" y="-181.5" font-family="Helvetica,sans-Serif" font-size="10.00">Core/Index/Index.inl</text>
</a>
</g>
</g>
<!-- Node25&#45;&gt;Node27 -->
<g id="edge31" class="edge"><title>Node25&#45;&gt;Node27</title>
<path fill="none" stroke="midnightblue" d="M264.261,-242.372C264.556,-232.643 265.045,-216.528 265.429,-203.85"/>
<polygon fill="midnightblue" stroke="midnightblue" points="268.927,-203.943 265.732,-193.841 261.931,-203.73 268.927,-203.943"/>
</g>
<!-- Node28&#45;&gt;Node10 -->
<g id="edge35" class="edge"><title>Node28&#45;&gt;Node10</title>
<path fill="none" stroke="midnightblue" d="M650.66,-304.467C705.9,-293.671 800.995,-275.086 860.53,-263.45"/>
<polygon fill="midnightblue" stroke="midnightblue" points="861.348,-266.857 870.491,-261.503 860.005,-259.987 861.348,-266.857"/>
</g>
<!-- Node28&#45;&gt;Node11 -->
<g id="edge36" class="edge"><title>Node28&#45;&gt;Node11</title>
<path fill="none" stroke="midnightblue" d="M589.273,-304.471C544.297,-281.786 432.579,-218.265 480,-168 504.49,-142.041 1021,-128.158 1195.21,-124.201"/>
<polygon fill="midnightblue" stroke="midnightblue" points="1195.53,-127.694 1205.45,-123.971 1195.37,-120.696 1195.53,-127.694"/>
</g>
<!-- Node28&#45;&gt;Node13 -->
<g id="edge37" class="edge"><title>Node28&#45;&gt;Node13</title>
<path fill="none" stroke="midnightblue" d="M601.914,-304.202C589.815,-283.275 559.14,-230.216 543.109,-202.486"/>
<polygon fill="midnightblue" stroke="midnightblue" points="545.962,-200.428 537.927,-193.522 539.902,-203.932 545.962,-200.428"/>
</g>
<!-- Node29&#45;&gt;Node23 -->
<g id="edge39" class="edge"><title>Node29&#45;&gt;Node23</title>
<path fill="none" stroke="midnightblue" d="M136.182,-323.516C191.947,-333.019 278.92,-348.395 334.719,-358.601"/>
<polygon fill="midnightblue" stroke="midnightblue" points="334.293,-362.081 344.761,-360.444 335.557,-355.196 334.293,-362.081"/>
</g>
<!-- Node30&#45;&gt;Node2 -->
<g id="edge41" class="edge"><title>Node30&#45;&gt;Node2</title>
<path fill="none" stroke="midnightblue" d="M673.897,-363.313C592.337,-355.567 443.125,-340.86 306.096,-324.223"/>
<polygon fill="midnightblue" stroke="midnightblue" points="306.183,-320.708 295.832,-322.971 305.335,-327.657 306.183,-320.708"/>
</g>
<!-- Node30&#45;&gt;Node8 -->
<g id="edge44" class="edge"><title>Node30&#45;&gt;Node8</title>
<path fill="none" stroke="midnightblue" d="M673.737,-362.446C635.53,-356.443 586.322,-345.122 547,-324 514.866,-306.739 507.562,-298.13 487,-268 432.237,-187.754 400.313,-73.766 389.342,-29.5382"/>
<polygon fill="midnightblue" stroke="midnightblue" points="392.702,-28.5413 386.952,-19.6424 385.898,-30.1846 392.702,-28.5413"/>
</g>
<!-- Node30&#45;&gt;Node10 -->
<g id="edge47" class="edge"><title>Node30&#45;&gt;Node10</title>
<path fill="none" stroke="midnightblue" d="M725.427,-360.306C712.086,-347.138 691.029,-321.79 705,-304 720.949,-283.691 780.649,-270.441 832.181,-262.551"/>
<polygon fill="midnightblue" stroke="midnightblue" points="832.983,-265.97 842.363,-261.044 831.958,-259.046 832.983,-265.97"/>
</g>
<!-- Node30&#45;&gt;Node24 -->
<g id="edge46" class="edge"><title>Node30&#45;&gt;Node24</title>
<path fill="none" stroke="midnightblue" d="M680.017,-360.444C618.341,-350.846 518.392,-335.292 452.926,-325.104"/>
<polygon fill="midnightblue" stroke="midnightblue" points="453.145,-321.596 442.726,-323.516 452.069,-328.513 453.145,-321.596"/>
</g>
<!-- Node30&#45;&gt;Node28 -->
<g id="edge48" class="edge"><title>Node30&#45;&gt;Node28</title>
<path fill="none" stroke="midnightblue" d="M714.718,-360.444C693.653,-351.557 660.483,-337.563 636.514,-327.451"/>
<polygon fill="midnightblue" stroke="midnightblue" points="637.761,-324.179 627.187,-323.516 635.04,-330.628 637.761,-324.179"/>
</g>
<!-- Node31 -->
<g id="node31" class="node"><title>Node31</title>
<polygon fill="white" stroke="#bfbfbf" points="908,-304.5 908,-323.5 952,-323.5 952,-304.5 908,-304.5"/>
<text text-anchor="middle" x="930" y="-311.5" font-family="Helvetica,sans-Serif" font-size="10.00">mutex</text>
</g>
<!-- Node30&#45;&gt;Node31 -->
<g id="edge42" class="edge"><title>Node30&#45;&gt;Node31</title>
<path fill="none" stroke="midnightblue" d="M766.261,-360.418C799.082,-351.396 852.187,-336.766 898,-324 898.101,-323.972 898.202,-323.944 898.303,-323.916"/>
<polygon fill="midnightblue" stroke="midnightblue" points="899.283,-327.276 907.97,-321.211 897.397,-320.535 899.283,-327.276"/>
</g>
<!-- Node32 -->
<g id="node32" class="node"><title>Node32</title>
<polygon fill="white" stroke="#bfbfbf" points="714.5,-304.5 714.5,-323.5 755.5,-323.5 755.5,-304.5 714.5,-304.5"/>
<text text-anchor="middle" x="735" y="-311.5" font-family="Helvetica,sans-Serif" font-size="10.00">string</text>
</g>
<!-- Node30&#45;&gt;Node32 -->
<g id="edge43" class="edge"><title>Node30&#45;&gt;Node32</title>
<path fill="none" stroke="midnightblue" d="M735,-360.083C735,-353.006 735,-342.861 735,-333.986"/>
<polygon fill="midnightblue" stroke="midnightblue" points="738.5,-333.751 735,-323.751 731.5,-333.751 738.5,-333.751"/>
</g>
<!-- Node33 -->
<g id="node33" class="node"><title>Node33</title>
<polygon fill="white" stroke="#bfbfbf" points="1230,-174.5 1230,-193.5 1274,-193.5 1274,-174.5 1230,-174.5"/>
<text text-anchor="middle" x="1252" y="-181.5" font-family="Helvetica,sans-Serif" font-size="10.00">vector</text>
</g>
<!-- Node30&#45;&gt;Node33 -->
<g id="edge45" class="edge"><title>Node30&#45;&gt;Node33</title>
<path fill="none" stroke="midnightblue" d="M796.374,-363.98C842.877,-358.479 907.507,-347.132 960,-324 1020.52,-297.33 1020.75,-265.391 1080,-236 1126.22,-213.072 1184.64,-198.463 1220.12,-191.006"/>
<polygon fill="midnightblue" stroke="midnightblue" points="1220.82,-194.435 1229.92,-189.006 1219.42,-187.576 1220.82,-194.435"/>
</g>
<!-- Node34 -->
<g id="node34" class="node"><title>Node34</title>
<g id="a_node34"><a xlink:href="Entity_8inl.html" target="_top" xlink:title="Engine/Entity/Entity.inl">
<polygon fill="white" stroke="black" points="774,-304.5 774,-323.5 890,-323.5 890,-304.5 774,-304.5"/>
<text text-anchor="middle" x="832" y="-311.5" font-family="Helvetica,sans-Serif" font-size="10.00">Engine/Entity/Entity.inl</text>
</a>
</g>
</g>
<!-- Node30&#45;&gt;Node34 -->
<g id="edge49" class="edge"><title>Node30&#45;&gt;Node34</title>
<path fill="none" stroke="midnightblue" d="M745.47,-360.324C759.151,-351.664 782.998,-338.242 802.298,-328.249"/>
<polygon fill="midnightblue" stroke="midnightblue" points="804.013,-331.304 811.344,-323.655 800.843,-325.063 804.013,-331.304"/>
</g>
<!-- Node34&#45;&gt;Node30 -->
<g id="edge50" class="edge"><title>Node34&#45;&gt;Node30</title>
<path fill="none" stroke="midnightblue" d="M821.564,-323.655C807.9,-332.307 784.058,-345.727 764.75,-355.726"/>
<polygon fill="midnightblue" stroke="midnightblue" points="763.03,-352.674 755.7,-360.324 766.2,-358.915 763.03,-352.674"/>
</g>
<!-- Node35&#45;&gt;Node2 -->
<g id="edge52" class="edge"><title>Node35&#45;&gt;Node2</title>
<path fill="none" stroke="midnightblue" d="M979.875,-419.286C971.82,-418.135 963.746,-417.018 956,-416 814.538,-397.414 778.19,-400.551 637,-380 586.962,-372.717 574.865,-368.388 525,-360 449.974,-347.379 363.655,-333.895 305.852,-325.013"/>
<polygon fill="midnightblue" stroke="midnightblue" points="306.172,-321.522 295.757,-323.465 305.11,-328.441 306.172,-321.522"/>
</g>
<!-- Node35&#45;&gt;Node10 -->
<g id="edge53" class="edge"><title>Node35&#45;&gt;Node10</title>
<path fill="none" stroke="midnightblue" d="M1048.76,-416.695C1035.93,-392.109 1007.46,-340.927 975,-304 963.004,-290.353 947.218,-277.257 934.71,-267.753"/>
<polygon fill="midnightblue" stroke="midnightblue" points="936.779,-264.93 926.662,-261.785 932.61,-270.553 936.779,-264.93"/>
</g>
<!-- Node35&#45;&gt;Node28 -->
<g id="edge59" class="edge"><title>Node35&#45;&gt;Node28</title>
<path fill="none" stroke="midnightblue" d="M979.863,-419.371C971.811,-418.203 963.74,-417.059 956,-416 826.884,-398.333 780.432,-440.487 665,-380 644.144,-369.071 627.204,-347.395 617.13,-332.085"/>
<polygon fill="midnightblue" stroke="midnightblue" points="620.046,-330.146 611.772,-323.529 614.113,-333.862 620.046,-330.146"/>
</g>
<!-- Node36 -->
<g id="node36" class="node"><title>Node36</title>
<g id="a_node36"><a xlink:href="Obb_8hpp.html" target="_top" xlink:title="Core/Math/Obb.hpp">
<polygon fill="white" stroke="black" points="1084,-304.5 1084,-323.5 1186,-323.5 1186,-304.5 1084,-304.5"/>
<text text-anchor="middle" x="1135" y="-311.5" font-family="Helvetica,sans-Serif" font-size="10.00">Core/Math/Obb.hpp</text>
</a>
</g>
</g>
<!-- Node35&#45;&gt;Node36 -->
<g id="edge54" class="edge"><title>Node35&#45;&gt;Node36</title>
<path fill="none" stroke="midnightblue" d="M1099.77,-416.911C1117.04,-408.963 1135.09,-397.103 1145,-380 1153.3,-365.673 1148.99,-346.717 1143.69,-332.976"/>
<polygon fill="midnightblue" stroke="midnightblue" points="1146.83,-331.424 1139.64,-323.647 1140.41,-334.213 1146.83,-331.424"/>
</g>
<!-- Node38 -->
<g id="node38" class="node"><title>Node38</title>
<g id="a_node38"><a xlink:href="Spline_8hpp.html" target="_top" xlink:title="Core/Math/Spline.hpp">
<polygon fill="white" stroke="black" points="1321.5,-360.5 1321.5,-379.5 1432.5,-379.5 1432.5,-360.5 1321.5,-360.5"/>
<text text-anchor="middle" x="1377" y="-367.5" font-family="Helvetica,sans-Serif" font-size="10.00">Core/Math/Spline.hpp</text>
</a>
</g>
</g>
<!-- Node35&#45;&gt;Node38 -->
<g id="edge60" class="edge"><title>Node35&#45;&gt;Node38</title>
<path fill="none" stroke="midnightblue" d="M1131.26,-416.933C1189.46,-406.054 1268.72,-391.239 1321.31,-381.409"/>
<polygon fill="midnightblue" stroke="midnightblue" points="1322.27,-384.791 1331.46,-379.513 1320.98,-377.91 1322.27,-384.791"/>
</g>
<!-- Node43 -->
<g id="node43" class="node"><title>Node43</title>
<polygon fill="white" stroke="#bfbfbf" points="1084,-360.5 1084,-379.5 1136,-379.5 1136,-360.5 1084,-360.5"/>
<text text-anchor="middle" x="1110" y="-367.5" font-family="Helvetica,sans-Serif" font-size="10.00">memory</text>
</g>
<!-- Node35&#45;&gt;Node43 -->
<g id="edge74" class="edge"><title>Node35&#45;&gt;Node43</title>
<path fill="none" stroke="midnightblue" d="M1068.8,-416.781C1076.72,-407.972 1086.94,-396.626 1095.21,-387.433"/>
<polygon fill="midnightblue" stroke="midnightblue" points="1098.05,-389.505 1102.14,-379.731 1092.85,-384.822 1098.05,-389.505"/>
</g>
<!-- Node36&#45;&gt;Node10 -->
<g id="edge56" class="edge"><title>Node36&#45;&gt;Node10</title>
<path fill="none" stroke="midnightblue" d="M1103.34,-304.403C1064.44,-293.844 998.358,-275.903 955.452,-264.254"/>
<polygon fill="midnightblue" stroke="midnightblue" points="956.173,-260.823 945.605,-261.581 954.339,-267.578 956.173,-260.823"/>
</g>
<!-- Node36&#45;&gt;Node11 -->
<g id="edge55" class="edge"><title>Node36&#45;&gt;Node11</title>
<path fill="none" stroke="midnightblue" d="M1117.8,-304.386C1104.75,-296.794 1087.77,-284.389 1080,-268 1073.91,-255.148 1071.82,-247.636 1080,-236 1107.16,-197.354 1140.55,-225.976 1180,-200 1204.63,-183.781 1226.79,-157.468 1239.82,-140.197"/>
<polygon fill="midnightblue" stroke="midnightblue" points="1242.99,-141.789 1246.08,-131.654 1237.34,-137.651 1242.99,-141.789"/>
</g>
<!-- Node37 -->
<g id="node37" class="node"><title>Node37</title>
<g id="a_node37"><a xlink:href="Obb_8inl.html" target="_top" xlink:title="Core/Math/Obb.inl">
<polygon fill="white" stroke="black" points="1089,-242.5 1089,-261.5 1185,-261.5 1185,-242.5 1089,-242.5"/>
<text text-anchor="middle" x="1137" y="-249.5" font-family="Helvetica,sans-Serif" font-size="10.00">Core/Math/Obb.inl</text>
</a>
</g>
</g>
<!-- Node36&#45;&gt;Node37 -->
<g id="edge57" class="edge"><title>Node36&#45;&gt;Node37</title>
<path fill="none" stroke="midnightblue" d="M1130.39,-304.403C1128.82,-295.849 1128.81,-282.45 1130.1,-271.476"/>
<polygon fill="midnightblue" stroke="midnightblue" points="1133.55,-272.032 1131.82,-261.581 1126.66,-270.834 1133.55,-272.032"/>
</g>
<!-- Node37&#45;&gt;Node36 -->
<g id="edge58" class="edge"><title>Node37&#45;&gt;Node36</title>
<path fill="none" stroke="midnightblue" d="M1141.61,-261.581C1143.18,-270.129 1143.2,-283.527 1141.9,-294.503"/>
<polygon fill="midnightblue" stroke="midnightblue" points="1138.45,-293.952 1140.19,-304.403 1145.35,-295.149 1138.45,-293.952"/>
</g>
<!-- Node38&#45;&gt;Node11 -->
<g id="edge69" class="edge"><title>Node38&#45;&gt;Node11</title>
<path fill="none" stroke="midnightblue" d="M1385.08,-360.377C1412.05,-330.572 1494.47,-230.327 1445,-168 1428.24,-146.885 1359.68,-134.758 1309.02,-128.528"/>
<polygon fill="midnightblue" stroke="midnightblue" points="1309.17,-125.021 1298.83,-127.323 1308.35,-131.973 1309.17,-125.021"/>
</g>
<!-- Node38&#45;&gt;Node33 -->
<g id="edge70" class="edge"><title>Node38&#45;&gt;Node33</title>
<path fill="none" stroke="midnightblue" d="M1321.35,-366.965C1289.99,-362.609 1253.17,-351.434 1233,-324 1206.27,-287.647 1228.18,-231.12 1242.32,-202.652"/>
<polygon fill="midnightblue" stroke="midnightblue" points="1245.56,-204.008 1247.08,-193.523 1239.36,-200.774 1245.56,-204.008"/>
</g>
<!-- Node39 -->
<g id="node39" class="node"><title>Node39</title>
<g id="a_node39"><a xlink:href="VectorArray_8hpp.html" target="_top" xlink:title="Core/Containers/VectorArray.hpp">
<polygon fill="white" stroke="black" points="1242.5,-304.5 1242.5,-323.5 1403.5,-323.5 1403.5,-304.5 1242.5,-304.5"/>
<text text-anchor="middle" x="1323" y="-311.5" font-family="Helvetica,sans-Serif" font-size="10.00">Core/Containers/VectorArray.hpp</text>
</a>
</g>
</g>
<!-- Node38&#45;&gt;Node39 -->
<g id="edge61" class="edge"><title>Node38&#45;&gt;Node39</title>
<path fill="none" stroke="midnightblue" d="M1368.08,-360.083C1360.22,-352.22 1348.57,-340.569 1339.08,-331.081"/>
<polygon fill="midnightblue" stroke="midnightblue" points="1341.3,-328.347 1331.75,-323.751 1336.35,-333.297 1341.3,-328.347"/>
</g>
<!-- Node42 -->
<g id="node42" class="node"><title>Node42</title>
<g id="a_node42"><a xlink:href="Spline_8inl.html" target="_top" xlink:title="Core/Math/Spline.inl">
<polygon fill="white" stroke="black" points="1460.5,-304.5 1460.5,-323.5 1565.5,-323.5 1565.5,-304.5 1460.5,-304.5"/>
<text text-anchor="middle" x="1513" y="-311.5" font-family="Helvetica,sans-Serif" font-size="10.00">Core/Math/Spline.inl</text>
</a>
</g>
</g>
<!-- Node38&#45;&gt;Node42 -->
<g id="edge71" class="edge"><title>Node38&#45;&gt;Node42</title>
<path fill="none" stroke="midnightblue" d="M1393.46,-360.444C1414.17,-351.438 1449.84,-337.189 1476.92,-327.049"/>
<polygon fill="midnightblue" stroke="midnightblue" points="1478.31,-330.269 1486.47,-323.516 1475.88,-323.704 1478.31,-330.269"/>
</g>
<!-- Node39&#45;&gt;Node10 -->
<g id="edge66" class="edge"><title>Node39&#45;&gt;Node10</title>
<path fill="none" stroke="midnightblue" d="M1264.83,-304.467C1190.33,-293.537 1061.4,-274.624 982.307,-263.021"/>
<polygon fill="midnightblue" stroke="midnightblue" points="982.367,-259.492 971.965,-261.503 981.351,-266.418 982.367,-259.492"/>
</g>
<!-- Node39&#45;&gt;Node11 -->
<g id="edge67" class="edge"><title>Node39&#45;&gt;Node11</title>
<path fill="none" stroke="midnightblue" d="M1371.05,-304.458C1391.94,-298.101 1414.47,-287.074 1427,-268 1435.75,-254.674 1443.06,-189.704 1426,-168 1411.48,-149.528 1353.82,-137.215 1308.81,-130.208"/>
<polygon fill="midnightblue" stroke="midnightblue" points="1309.24,-126.735 1298.83,-128.709 1308.2,-133.657 1309.24,-126.735"/>
</g>
<!-- Node39&#45;&gt;Node33 -->
<g id="edge68" class="edge"><title>Node39&#45;&gt;Node33</title>
<path fill="none" stroke="midnightblue" d="M1308.86,-304.455C1296.93,-296.501 1280.35,-283.553 1271,-268 1259.07,-248.149 1254.62,-221.507 1252.97,-203.822"/>
<polygon fill="midnightblue" stroke="midnightblue" points="1256.45,-203.378 1252.24,-193.655 1249.47,-203.881 1256.45,-203.378"/>
</g>
<!-- Node40 -->
<g id="node40" class="node"><title>Node40</title>
<g id="a_node40"><a xlink:href="AlignedStdVector_8hpp.html" target="_top" xlink:title="Core/Containers/AlignedStd\lVector.hpp">
<polygon fill="white" stroke="black" points="1280,-237 1280,-267 1418,-267 1418,-237 1280,-237"/>
<text text-anchor="start" x="1288" y="-255" font-family="Helvetica,sans-Serif" font-size="10.00">Core/Containers/AlignedStd</text>
<text text-anchor="middle" x="1349" y="-244" font-family="Helvetica,sans-Serif" font-size="10.00">Vector.hpp</text>
</a>
</g>
</g>
<!-- Node39&#45;&gt;Node40 -->
<g id="edge62" class="edge"><title>Node39&#45;&gt;Node40</title>
<path fill="none" stroke="midnightblue" d="M1326.73,-304.403C1329.88,-297.113 1334.57,-286.303 1338.83,-276.475"/>
<polygon fill="midnightblue" stroke="midnightblue" points="1342.11,-277.708 1342.87,-267.141 1335.68,-274.925 1342.11,-277.708"/>
</g>
<!-- Node40&#45;&gt;Node11 -->
<g id="edge63" class="edge"><title>Node40&#45;&gt;Node11</title>
<path fill="none" stroke="midnightblue" d="M1338.25,-236.813C1320.24,-213.044 1284.05,-165.288 1264.77,-139.85"/>
<polygon fill="midnightblue" stroke="midnightblue" points="1267.33,-137.43 1258.5,-131.574 1261.75,-141.658 1267.33,-137.43"/>
</g>
<!-- Node40&#45;&gt;Node33 -->
<g id="edge65" class="edge"><title>Node40&#45;&gt;Node33</title>
<path fill="none" stroke="midnightblue" d="M1327.95,-236.679C1311.69,-225.611 1289.28,-210.363 1273.02,-199.3"/>
<polygon fill="midnightblue" stroke="midnightblue" points="1274.93,-196.37 1264.7,-193.638 1270.99,-202.157 1274.93,-196.37"/>
</g>
<!-- Node41 -->
<g id="node41" class="node"><title>Node41</title>
<polygon fill="white" stroke="#bfbfbf" points="1330,-174.5 1330,-193.5 1418,-193.5 1418,-174.5 1330,-174.5"/>
<text text-anchor="middle" x="1374" y="-181.5" font-family="Helvetica,sans-Serif" font-size="10.00">Eigen/StdVector</text>
</g>
<!-- Node40&#45;&gt;Node41 -->
<g id="edge64" class="edge"><title>Node40&#45;&gt;Node41</title>
<path fill="none" stroke="midnightblue" d="M1354.42,-236.679C1358.13,-226.898 1363.07,-213.852 1367.06,-203.315"/>
<polygon fill="midnightblue" stroke="midnightblue" points="1370.39,-204.42 1370.66,-193.828 1363.84,-201.94 1370.39,-204.42"/>
</g>
<!-- Node42&#45;&gt;Node17 -->
<g id="edge73" class="edge"><title>Node42&#45;&gt;Node17</title>
<path fill="none" stroke="midnightblue" d="M1519.87,-304.202C1536.44,-283 1578.77,-228.814 1600.18,-201.405"/>
<polygon fill="midnightblue" stroke="midnightblue" points="1602.94,-203.557 1606.34,-193.522 1597.43,-199.248 1602.94,-203.557"/>
</g>
<!-- Node42&#45;&gt;Node38 -->
<g id="edge72" class="edge"><title>Node42&#45;&gt;Node38</title>
<path fill="none" stroke="midnightblue" d="M1496.63,-323.516C1475.97,-332.506 1440.31,-346.754 1413.2,-356.906"/>
<polygon fill="midnightblue" stroke="midnightblue" points="1411.8,-353.69 1403.64,-360.444 1414.23,-360.255 1411.8,-353.69"/>
</g>
</g>
</svg>
