<?xml version="1.0" encoding="UTF-8" standalone="no"?>
<!DOCTYPE svg PUBLIC "-//W3C//DTD SVG 1.1//EN"
 "http://www.w3.org/Graphics/SVG/1.1/DTD/svg11.dtd">
<!-- Generated by graphviz version 2.36.0 (20140111.2315)
 -->
<!-- Title: /home/travis/build/STORM&#45;IRIT/Radium&#45;Engine/src/Core/Tasks/Task.hpp Pages: 1 -->
<svg width="1561pt" height="218pt"
 viewBox="0.00 0.00 1561.00 218.00" xmlns="http://www.w3.org/2000/svg" xmlns:xlink="http://www.w3.org/1999/xlink">
<g id="graph0" class="graph" transform="scale(1 1) rotate(0) translate(4 214)">
<title>/home/travis/build/STORM&#45;IRIT/Radium&#45;Engine/src/Core/Tasks/Task.hpp</title>
<polygon fill="white" stroke="none" points="-4,4 -4,-214 1557,-214 1557,4 -4,4"/>
<!-- Node1 -->
<g id="node1" class="node"><title>Node1</title>
<polygon fill="#bfbfbf" stroke="black" points="668,-168.5 668,-209.5 816,-209.5 816,-168.5 668,-168.5"/>
<text text-anchor="start" x="676" y="-197.5" font-family="Helvetica,sans-Serif" font-size="10.00">/home/travis/build</text>
<text text-anchor="start" x="676" y="-186.5" font-family="Helvetica,sans-Serif" font-size="10.00">/STORM&#45;IRIT/Radium&#45;Engine</text>
<text text-anchor="middle" x="742" y="-175.5" font-family="Helvetica,sans-Serif" font-size="10.00">/src/Core/Tasks/Task.hpp</text>
</g>
<!-- Node2 -->
<g id="node2" class="node"><title>Node2</title>
<g id="a_node2"><a xlink:href="TaskQueue_8cpp.html" target="_top" xlink:title="/home/travis/build\l/STORM&#45;IRIT/Radium&#45;Engine\l/src/Core/Tasks/TaskQueue.cpp">
<polygon fill="white" stroke="black" points="-0.5,-84.5 -0.5,-125.5 158.5,-125.5 158.5,-84.5 -0.5,-84.5"/>
<text text-anchor="start" x="7.5" y="-113.5" font-family="Helvetica,sans-Serif" font-size="10.00">/home/travis/build</text>
<text text-anchor="start" x="7.5" y="-102.5" font-family="Helvetica,sans-Serif" font-size="10.00">/STORM&#45;IRIT/Radium&#45;Engine</text>
<text text-anchor="middle" x="79" y="-91.5" font-family="Helvetica,sans-Serif" font-size="10.00">/src/Core/Tasks/TaskQueue.cpp</text>
</a>
</g>
</g>
<!-- Node1&#45;&gt;Node2 -->
<g id="edge1" class="edge"><title>Node1&#45;&gt;Node2</title>
<path fill="none" stroke="midnightblue" d="M657.548,-184.801C544.81,-179.39 339.326,-165.532 167,-132 158.087,-130.266 148.78,-128.015 139.697,-125.563"/>
<polygon fill="midnightblue" stroke="midnightblue" points="657.678,-188.311 667.831,-185.283 658.006,-181.319 657.678,-188.311"/>
</g>
<!-- Node3 -->
<g id="node3" class="node"><title>Node3</title>
<g id="a_node3"><a xlink:href="LightManager_8cpp.html" target="_top" xlink:title="/home/travis/build\l/STORM&#45;IRIT/Radium&#45;Engine\l/src/Engine/Managers/LightManager\l/LightManager.cpp">
<polygon fill="white" stroke="black" points="176.5,-79 176.5,-131 349.5,-131 349.5,-79 176.5,-79"/>
<text text-anchor="start" x="184.5" y="-119" font-family="Helvetica,sans-Serif" font-size="10.00">/home/travis/build</text>
<text text-anchor="start" x="184.5" y="-108" font-family="Helvetica,sans-Serif" font-size="10.00">/STORM&#45;IRIT/Radium&#45;Engine</text>
<text text-anchor="start" x="184.5" y="-97" font-family="Helvetica,sans-Serif" font-size="10.00">/src/Engine/Managers/LightManager</text>
<text text-anchor="middle" x="263" y="-86" font-family="Helvetica,sans-Serif" font-size="10.00">/LightManager.cpp</text>
</a>
</g>
</g>
<!-- Node1&#45;&gt;Node3 -->
<g id="edge2" class="edge"><title>Node1&#45;&gt;Node3</title>
<path fill="none" stroke="midnightblue" d="M657.513,-178.585C579.568,-169.205 460.851,-153.16 359,-132 355.957,-131.368 352.867,-130.696 349.752,-129.993"/>
<polygon fill="midnightblue" stroke="midnightblue" points="657.416,-182.098 667.76,-179.808 658.245,-175.148 657.416,-182.098"/>
</g>
<!-- Node4 -->
<g id="node4" class="node"><title>Node4</title>
<g id="a_node4"><a xlink:href="BaseApplication_8cpp.html" target="_top" xlink:title="/home/travis/build\l/STORM&#45;IRIT/Radium&#45;Engine\l/src/GuiBase/BaseApplication.cpp">
<polygon fill="white" stroke="black" points="368,-84.5 368,-125.5 534,-125.5 534,-84.5 368,-84.5"/>
<text text-anchor="start" x="376" y="-113.5" font-family="Helvetica,sans-Serif" font-size="10.00">/home/travis/build</text>
<text text-anchor="start" x="376" y="-102.5" font-family="Helvetica,sans-Serif" font-size="10.00">/STORM&#45;IRIT/Radium&#45;Engine</text>
<text text-anchor="middle" x="451" y="-91.5" font-family="Helvetica,sans-Serif" font-size="10.00">/src/GuiBase/BaseApplication.cpp</text>
</a>
</g>
</g>
<!-- Node1&#45;&gt;Node4 -->
<g id="edge3" class="edge"><title>Node1&#45;&gt;Node4</title>
<path fill="none" stroke="midnightblue" d="M663.032,-165.748C618.436,-153.181 563.212,-137.62 520.305,-125.529"/>
<polygon fill="midnightblue" stroke="midnightblue" points="662.093,-169.12 672.668,-168.463 663.992,-162.382 662.093,-169.12"/>
</g>
<!-- Node5 -->
<g id="node5" class="node"><title>Node5</title>
<g id="a_node5"><a xlink:href="AnimationSystem_8cpp.html" target="_top" xlink:title="/home/travis/build\l/STORM&#45;IRIT/Radium&#45;Engine\l/Plugins/Animation/src/Animation\lSystem.cpp">
<polygon fill="white" stroke="black" points="552.5,-79 552.5,-131 713.5,-131 713.5,-79 552.5,-79"/>
<text text-anchor="start" x="560.5" y="-119" font-family="Helvetica,sans-Serif" font-size="10.00">/home/travis/build</text>
<text text-anchor="start" x="560.5" y="-108" font-family="Helvetica,sans-Serif" font-size="10.00">/STORM&#45;IRIT/Radium&#45;Engine</text>
<text text-anchor="start" x="560.5" y="-97" font-family="Helvetica,sans-Serif" font-size="10.00">/Plugins/Animation/src/Animation</text>
<text text-anchor="middle" x="633" y="-86" font-family="Helvetica,sans-Serif" font-size="10.00">System.cpp</text>
</a>
</g>
</g>
<!-- Node1&#45;&gt;Node5 -->
<g id="edge4" class="edge"><title>Node1&#45;&gt;Node5</title>
<path fill="none" stroke="midnightblue" d="M707.54,-162.076C694.374,-152.171 679.395,-140.902 666.335,-131.078"/>
<polygon fill="midnightblue" stroke="midnightblue" points="705.796,-165.144 715.892,-168.359 710.005,-159.55 705.796,-165.144"/>
</g>
<!-- Node6 -->
<g id="node6" class="node"><title>Node6</title>
<g id="a_node6"><a xlink:href="DummySystem_8cpp.html" target="_top" xlink:title="/home/travis/build\l/STORM&#45;IRIT/Radium&#45;Engine\l/Plugins/Dummy/src/DummySystem.cpp">
<polygon fill="white" stroke="black" points="644,-0.5 644,-41.5 840,-41.5 840,-0.5 644,-0.5"/>
<text text-anchor="start" x="652" y="-29.5" font-family="Helvetica,sans-Serif" font-size="10.00">/home/travis/build</text>
<text text-anchor="start" x="652" y="-18.5" font-family="Helvetica,sans-Serif" font-size="10.00">/STORM&#45;IRIT/Radium&#45;Engine</text>
<text text-anchor="middle" x="742" y="-7.5" font-family="Helvetica,sans-Serif" font-size="10.00">/Plugins/Dummy/src/DummySystem.cpp</text>
</a>
</g>
</g>
<!-- Node1&#45;&gt;Node6 -->
<g id="edge5" class="edge"><title>Node1&#45;&gt;Node6</title>
<path fill="none" stroke="midnightblue" d="M742,-158.122C742,-124.394 742,-70.482 742,-41.6686"/>
<polygon fill="midnightblue" stroke="midnightblue" points="738.5,-158.306 742,-168.306 745.5,-158.306 738.5,-158.306"/>
</g>
<!-- Node7 -->
<g id="node7" class="node"><title>Node7</title>
<g id="a_node7"><a xlink:href="DummyTask_8hpp.html" target="_top" xlink:title="/home/travis/build\l/STORM&#45;IRIT/Radium&#45;Engine\l/Plugins/Dummy/src/DummyTask.hpp">
<polygon fill="white" stroke="black" points="770,-84.5 770,-125.5 954,-125.5 954,-84.5 770,-84.5"/>
<text text-anchor="start" x="778" y="-113.5" font-family="Helvetica,sans-Serif" font-size="10.00">/home/travis/build</text>
<text text-anchor="start" x="778" y="-102.5" font-family="Helvetica,sans-Serif" font-size="10.00">/STORM&#45;IRIT/Radium&#45;Engine</text>
<text text-anchor="middle" x="862" y="-91.5" font-family="Helvetica,sans-Serif" font-size="10.00">/Plugins/Dummy/src/DummyTask.hpp</text>
</a>
</g>
</g>
<!-- Node1&#45;&gt;Node7 -->
<g id="edge6" class="edge"><title>Node1&#45;&gt;Node7</title>
<path fill="none" stroke="midnightblue" d="M779.007,-162.712C796.403,-150.825 816.837,-136.862 833.076,-125.765"/>
<polygon fill="midnightblue" stroke="midnightblue" points="777.025,-159.827 770.743,-168.359 780.974,-165.607 777.025,-159.827"/>
</g>
<!-- Node9 -->
<g id="node9" class="node"><title>Node9</title>
<g id="a_node9"><a xlink:href="FancyMeshSystem_8cpp.html" target="_top" xlink:title="/home/travis/build\l/STORM&#45;IRIT/Radium&#45;Engine\l/Plugins/FancyMesh/src/FancyMesh\lSystem.cpp">
<polygon fill="white" stroke="black" points="972,-79 972,-131 1148,-131 1148,-79 972,-79"/>
<text text-anchor="start" x="980" y="-119" font-family="Helvetica,sans-Serif" font-size="10.00">/home/travis/build</text>
<text text-anchor="start" x="980" y="-108" font-family="Helvetica,sans-Serif" font-size="10.00">/STORM&#45;IRIT/Radium&#45;Engine</text>
<text text-anchor="start" x="980" y="-97" font-family="Helvetica,sans-Serif" font-size="10.00">/Plugins/FancyMesh/src/FancyMesh</text>
<text text-anchor="middle" x="1060" y="-86" font-family="Helvetica,sans-Serif" font-size="10.00">System.cpp</text>
</a>
</g>
</g>
<!-- Node1&#45;&gt;Node9 -->
<g id="edge9" class="edge"><title>Node1&#45;&gt;Node9</title>
<path fill="none" stroke="midnightblue" d="M825.985,-167.007C867.288,-156.609 917.791,-143.786 963,-132 965.952,-131.23 968.954,-130.444 971.986,-129.648"/>
<polygon fill="midnightblue" stroke="midnightblue" points="825.08,-163.625 816.236,-169.459 826.788,-170.414 825.08,-163.625"/>
</g>
<!-- Node10 -->
<g id="node10" class="node"><title>Node10</title>
<g id="a_node10"><a xlink:href="MeshPaintSystem_8cpp.html" target="_top" xlink:title="/home/travis/build\l/STORM&#45;IRIT/Radium&#45;Engine\l/Plugins/MeshPaint/src/MeshPaint\lSystem.cpp">
<polygon fill="white" stroke="black" points="1165.5,-79 1165.5,-131 1332.5,-131 1332.5,-79 1165.5,-79"/>
<text text-anchor="start" x="1173.5" y="-119" font-family="Helvetica,sans-Serif" font-size="10.00">/home/travis/build</text>
<text text-anchor="start" x="1173.5" y="-108" font-family="Helvetica,sans-Serif" font-size="10.00">/STORM&#45;IRIT/Radium&#45;Engine</text>
<text text-anchor="start" x="1173.5" y="-97" font-family="Helvetica,sans-Serif" font-size="10.00">/Plugins/MeshPaint/src/MeshPaint</text>
<text text-anchor="middle" x="1249" y="-86" font-family="Helvetica,sans-Serif" font-size="10.00">System.cpp</text>
</a>
</g>
</g>
<!-- Node1&#45;&gt;Node10 -->
<g id="edge10" class="edge"><title>Node1&#45;&gt;Node10</title>
<path fill="none" stroke="midnightblue" d="M826.19,-180.058C910.249,-171.322 1042.86,-155.35 1156,-132 1159.12,-131.356 1162.29,-130.665 1165.48,-129.936"/>
<polygon fill="midnightblue" stroke="midnightblue" points="825.773,-176.582 816.184,-181.088 826.489,-183.546 825.773,-176.582"/>
</g>
<!-- Node11 -->
<g id="node11" class="node"><title>Node11</title>
<g id="a_node11"><a xlink:href="SkinningSystem_8hpp.html" target="_top" xlink:title="/home/travis/build\l/STORM&#45;IRIT/Radium&#45;Engine\l/Plugins/Skinning/src/SkinningSystem.hpp">
<polygon fill="white" stroke="black" points="1351,-84.5 1351,-125.5 1553,-125.5 1553,-84.5 1351,-84.5"/>
<text text-anchor="start" x="1359" y="-113.5" font-family="Helvetica,sans-Serif" font-size="10.00">/home/travis/build</text>
<text text-anchor="start" x="1359" y="-102.5" font-family="Helvetica,sans-Serif" font-size="10.00">/STORM&#45;IRIT/Radium&#45;Engine</text>
<text text-anchor="middle" x="1452" y="-91.5" font-family="Helvetica,sans-Serif" font-size="10.00">/Plugins/Skinning/src/SkinningSystem.hpp</text>
</a>
</g>
</g>
<!-- Node1&#45;&gt;Node11 -->
<g id="edge11" class="edge"><title>Node1&#45;&gt;Node11</title>
<path fill="none" stroke="midnightblue" d="M826.451,-183.756C942.852,-177.077 1158.88,-161.699 1341,-132 1351.94,-130.216 1363.4,-127.968 1374.64,-125.545"/>
<polygon fill="midnightblue" stroke="midnightblue" points="825.973,-180.277 816.187,-184.337 826.369,-187.266 825.973,-180.277"/>
</g>
<!-- Node7&#45;&gt;Node6 -->
<g id="edge7" class="edge"><title>Node7&#45;&gt;Node6</title>
<path fill="none" stroke="midnightblue" d="M824.993,-78.7119C807.597,-66.8249 787.163,-52.8617 770.924,-41.765"/>
<polygon fill="midnightblue" stroke="midnightblue" points="823.026,-81.6068 833.257,-84.359 826.975,-75.8272 823.026,-81.6068"/>
</g>
<!-- Node8 -->
<g id="node8" class="node"><title>Node8</title>
<g id="a_node8"><a xlink:href="DummyTask_8cpp.html" target="_top" xlink:title="/home/travis/build\l/STORM&#45;IRIT/Radium&#45;Engine\l/Plugins/Dummy/src/DummyTask.cpp">
<polygon fill="white" stroke="black" points="858,-0.5 858,-41.5 1042,-41.5 1042,-0.5 858,-0.5"/>
<text text-anchor="start" x="866" y="-29.5" font-family="Helvetica,sans-Serif" font-size="10.00">/home/travis/build</text>
<text text-anchor="start" x="866" y="-18.5" font-family="Helvetica,sans-Serif" font-size="10.00">/STORM&#45;IRIT/Radium&#45;Engine</text>
<text text-anchor="middle" x="950" y="-7.5" font-family="Helvetica,sans-Serif" font-size="10.00">/Plugins/Dummy/src/DummyTask.cpp</text>
</a>
</g>
</g>
<!-- Node7&#45;&gt;Node8 -->
<g id="edge8" class="edge"><title>Node7&#45;&gt;Node8</title>
<path fill="none" stroke="midnightblue" d="M890.76,-77.2011C903.189,-65.6197 917.469,-52.3134 928.894,-41.6671"/>
<polygon fill="midnightblue" stroke="midnightblue" points="888.232,-74.7722 883.302,-84.1501 893.005,-79.8934 888.232,-74.7722"/>
</g>
<!-- Node12 -->
<g id="node12" class="node"><title>Node12</title>
<g id="a_node12"><a xlink:href="SkinningPlugin_8cpp.html" target="_top" xlink:title="/home/travis/build\l/STORM&#45;IRIT/Radium&#45;Engine\l/Plugins/Skinning/src/SkinningPlugin.cpp">
<polygon fill="white" stroke="black" points="1354.5,-0.5 1354.5,-41.5 1549.5,-41.5 1549.5,-0.5 1354.5,-0.5"/>
<text text-anchor="start" x="1362.5" y="-29.5" font-family="Helvetica,sans-Serif" font-size="10.00">/home/travis/build</text>
<text text-anchor="start" x="1362.5" y="-18.5" font-family="Helvetica,sans-Serif" font-size="10.00">/STORM&#45;IRIT/Radium&#45;Engine</text>
<text text-anchor="middle" x="1452" y="-7.5" font-family="Helvetica,sans-Serif" font-size="10.00">/Plugins/Skinning/src/SkinningPlugin.cpp</text>
</a>
</g>
</g>
<!-- Node11&#45;&gt;Node12 -->
<g id="edge12" class="edge"><title>Node11&#45;&gt;Node12</title>
<path fill="none" stroke="midnightblue" d="M1452,-73.881C1452,-63.1328 1452,-51.309 1452,-41.6671"/>
<polygon fill="midnightblue" stroke="midnightblue" points="1448.5,-74.1501 1452,-84.1501 1455.5,-74.1501 1448.5,-74.1501"/>
</g>
</g>
</svg>
