<?xml version="1.0" encoding="UTF-8" standalone="no"?>
<!DOCTYPE svg PUBLIC "-//W3C//DTD SVG 1.1//EN"
 "http://www.w3.org/Graphics/SVG/1.1/DTD/svg11.dtd">
<!-- Generated by graphviz version 2.36.0 (20140111.2315)
 -->
<!-- Title: /home/travis/build/STORM&#45;IRIT/Radium&#45;Engine/src/Core/Tasks/TaskQueue.hpp Pages: 1 -->
<svg width="1770pt" height="308pt"
 viewBox="0.00 0.00 1770.00 308.00" xmlns="http://www.w3.org/2000/svg" xmlns:xlink="http://www.w3.org/1999/xlink">
<g id="graph0" class="graph" transform="scale(1 1) rotate(0) translate(4 304)">
<title>/home/travis/build/STORM&#45;IRIT/Radium&#45;Engine/src/Core/Tasks/TaskQueue.hpp</title>
<polygon fill="white" stroke="none" points="-4,4 -4,-304 1766,-304 1766,4 -4,4"/>
<!-- Node1 -->
<g id="node1" class="node"><title>Node1</title>
<polygon fill="#bfbfbf" stroke="black" points="701.5,-258.5 701.5,-299.5 860.5,-299.5 860.5,-258.5 701.5,-258.5"/>
<text text-anchor="start" x="709.5" y="-287.5" font-family="Helvetica,sans-Serif" font-size="10.00">/home/travis/build</text>
<text text-anchor="start" x="709.5" y="-276.5" font-family="Helvetica,sans-Serif" font-size="10.00">/STORM&#45;IRIT/Radium&#45;Engine</text>
<text text-anchor="middle" x="781" y="-265.5" font-family="Helvetica,sans-Serif" font-size="10.00">/src/Core/Tasks/TaskQueue.hpp</text>
</g>
<!-- Node2 -->
<g id="node2" class="node"><title>Node2</title>
<g id="a_node2"><a xlink:href="TaskQueue_8cpp.html" target="_top" xlink:title="/home/travis/build\l/STORM&#45;IRIT/Radium&#45;Engine\l/src/Core/Tasks/TaskQueue.cpp">
<polygon fill="white" stroke="black" points="-0.5,-174.5 -0.5,-215.5 158.5,-215.5 158.5,-174.5 -0.5,-174.5"/>
<text text-anchor="start" x="7.5" y="-203.5" font-family="Helvetica,sans-Serif" font-size="10.00">/home/travis/build</text>
<text text-anchor="start" x="7.5" y="-192.5" font-family="Helvetica,sans-Serif" font-size="10.00">/STORM&#45;IRIT/Radium&#45;Engine</text>
<text text-anchor="middle" x="79" y="-181.5" font-family="Helvetica,sans-Serif" font-size="10.00">/src/Core/Tasks/TaskQueue.cpp</text>
</a>
</g>
</g>
<!-- Node1&#45;&gt;Node2 -->
<g id="edge1" class="edge"><title>Node1&#45;&gt;Node2</title>
<path fill="none" stroke="midnightblue" d="M691.046,-275.317C570.711,-270.475 351.132,-257.244 167,-222 158.081,-220.293 148.772,-218.057 139.687,-215.613"/>
<polygon fill="midnightblue" stroke="midnightblue" points="691.182,-278.825 701.312,-275.719 691.457,-271.83 691.182,-278.825"/>
</g>
<!-- Node3 -->
<g id="node3" class="node"><title>Node3</title>
<g id="a_node3"><a xlink:href="LightManager_8cpp.html" target="_top" xlink:title="/home/travis/build\l/STORM&#45;IRIT/Radium&#45;Engine\l/src/Engine/Managers/LightManager\l/LightManager.cpp">
<polygon fill="white" stroke="black" points="176.5,-169 176.5,-221 349.5,-221 349.5,-169 176.5,-169"/>
<text text-anchor="start" x="184.5" y="-209" font-family="Helvetica,sans-Serif" font-size="10.00">/home/travis/build</text>
<text text-anchor="start" x="184.5" y="-198" font-family="Helvetica,sans-Serif" font-size="10.00">/STORM&#45;IRIT/Radium&#45;Engine</text>
<text text-anchor="start" x="184.5" y="-187" font-family="Helvetica,sans-Serif" font-size="10.00">/src/Engine/Managers/LightManager</text>
<text text-anchor="middle" x="263" y="-176" font-family="Helvetica,sans-Serif" font-size="10.00">/LightManager.cpp</text>
</a>
</g>
</g>
<!-- Node1&#45;&gt;Node3 -->
<g id="edge2" class="edge"><title>Node1&#45;&gt;Node3</title>
<path fill="none" stroke="midnightblue" d="M691.268,-269.059C606.479,-259.877 475.951,-243.847 364,-222 359.291,-221.081 354.474,-220.074 349.623,-219.006"/>
<polygon fill="midnightblue" stroke="midnightblue" points="691.061,-272.557 701.377,-270.144 691.808,-265.597 691.061,-272.557"/>
</g>
<!-- Node4 -->
<g id="node4" class="node"><title>Node4</title>
<g id="a_node4"><a xlink:href="BaseApplication_8cpp.html" target="_top" xlink:title="/home/travis/build\l/STORM&#45;IRIT/Radium&#45;Engine\l/src/GuiBase/BaseApplication.cpp">
<polygon fill="white" stroke="black" points="350,-0.5 350,-41.5 516,-41.5 516,-0.5 350,-0.5"/>
<text text-anchor="start" x="358" y="-29.5" font-family="Helvetica,sans-Serif" font-size="10.00">/home/travis/build</text>
<text text-anchor="start" x="358" y="-18.5" font-family="Helvetica,sans-Serif" font-size="10.00">/STORM&#45;IRIT/Radium&#45;Engine</text>
<text text-anchor="middle" x="433" y="-7.5" font-family="Helvetica,sans-Serif" font-size="10.00">/src/GuiBase/BaseApplication.cpp</text>
</a>
</g>
</g>
<!-- Node1&#45;&gt;Node4 -->
<g id="edge3" class="edge"><title>Node1&#45;&gt;Node4</title>
<path fill="none" stroke="midnightblue" d="M690.903,-277.911C589.563,-275.667 434.226,-265.048 397,-222 355.138,-173.59 378.965,-139.406 397,-78 400.876,-64.8035 408.927,-51.7752 416.435,-41.6102"/>
<polygon fill="midnightblue" stroke="midnightblue" points="691.079,-281.415 701.146,-278.114 691.217,-274.416 691.079,-281.415"/>
</g>
<!-- Node5 -->
<g id="node5" class="node"><title>Node5</title>
<g id="a_node5"><a xlink:href="FrameTimerData_8hpp.html" target="_top" xlink:title="/home/travis/build\l/STORM&#45;IRIT/Radium&#45;Engine\l/src/GuiBase/TimerData/FrameTimer\lData.hpp">
<polygon fill="white" stroke="black" points="406,-169 406,-221 584,-221 584,-169 406,-169"/>
<text text-anchor="start" x="414" y="-209" font-family="Helvetica,sans-Serif" font-size="10.00">/home/travis/build</text>
<text text-anchor="start" x="414" y="-198" font-family="Helvetica,sans-Serif" font-size="10.00">/STORM&#45;IRIT/Radium&#45;Engine</text>
<text text-anchor="start" x="414" y="-187" font-family="Helvetica,sans-Serif" font-size="10.00">/src/GuiBase/TimerData/FrameTimer</text>
<text text-anchor="middle" x="495" y="-176" font-family="Helvetica,sans-Serif" font-size="10.00">Data.hpp</text>
</a>
</g>
</g>
<!-- Node1&#45;&gt;Node5 -->
<g id="edge4" class="edge"><title>Node1&#45;&gt;Node5</title>
<path fill="none" stroke="midnightblue" d="M703.043,-255.649C665.721,-244.948 620.887,-232.093 582.411,-221.062"/>
<polygon fill="midnightblue" stroke="midnightblue" points="702.282,-259.071 712.859,-258.463 704.211,-252.343 702.282,-259.071"/>
</g>
<!-- Node8 -->
<g id="node8" class="node"><title>Node8</title>
<g id="a_node8"><a xlink:href="AnimationSystem_8cpp.html" target="_top" xlink:title="/home/travis/build\l/STORM&#45;IRIT/Radium&#45;Engine\l/Plugins/Animation/src/Animation\lSystem.cpp">
<polygon fill="white" stroke="black" points="602.5,-169 602.5,-221 763.5,-221 763.5,-169 602.5,-169"/>
<text text-anchor="start" x="610.5" y="-209" font-family="Helvetica,sans-Serif" font-size="10.00">/home/travis/build</text>
<text text-anchor="start" x="610.5" y="-198" font-family="Helvetica,sans-Serif" font-size="10.00">/STORM&#45;IRIT/Radium&#45;Engine</text>
<text text-anchor="start" x="610.5" y="-187" font-family="Helvetica,sans-Serif" font-size="10.00">/Plugins/Animation/src/Animation</text>
<text text-anchor="middle" x="683" y="-176" font-family="Helvetica,sans-Serif" font-size="10.00">System.cpp</text>
</a>
</g>
</g>
<!-- Node1&#45;&gt;Node8 -->
<g id="edge8" class="edge"><title>Node1&#45;&gt;Node8</title>
<path fill="none" stroke="midnightblue" d="M749.501,-251.644C737.863,-241.906 724.709,-230.9 713.19,-221.261"/>
<polygon fill="midnightblue" stroke="midnightblue" points="747.362,-254.417 757.277,-258.15 751.854,-249.049 747.362,-254.417"/>
</g>
<!-- Node9 -->
<g id="node9" class="node"><title>Node9</title>
<g id="a_node9"><a xlink:href="DummySystem_8cpp.html" target="_top" xlink:title="/home/travis/build\l/STORM&#45;IRIT/Radium&#45;Engine\l/Plugins/Dummy/src/DummySystem.cpp">
<polygon fill="white" stroke="black" points="782,-174.5 782,-215.5 978,-215.5 978,-174.5 782,-174.5"/>
<text text-anchor="start" x="790" y="-203.5" font-family="Helvetica,sans-Serif" font-size="10.00">/home/travis/build</text>
<text text-anchor="start" x="790" y="-192.5" font-family="Helvetica,sans-Serif" font-size="10.00">/STORM&#45;IRIT/Radium&#45;Engine</text>
<text text-anchor="middle" x="880" y="-181.5" font-family="Helvetica,sans-Serif" font-size="10.00">/Plugins/Dummy/src/DummySystem.cpp</text>
</a>
</g>
</g>
<!-- Node1&#45;&gt;Node9 -->
<g id="edge9" class="edge"><title>Node1&#45;&gt;Node9</title>
<path fill="none" stroke="midnightblue" d="M812.71,-251.735C826.799,-240.065 843.106,-226.559 856.137,-215.765"/>
<polygon fill="midnightblue" stroke="midnightblue" points="810.182,-249.285 804.713,-258.359 814.647,-254.676 810.182,-249.285"/>
</g>
<!-- Node10 -->
<g id="node10" class="node"><title>Node10</title>
<g id="a_node10"><a xlink:href="FancyMeshSystem_8cpp.html" target="_top" xlink:title="/home/travis/build\l/STORM&#45;IRIT/Radium&#45;Engine\l/Plugins/FancyMesh/src/FancyMesh\lSystem.cpp">
<polygon fill="white" stroke="black" points="996,-169 996,-221 1172,-221 1172,-169 996,-169"/>
<text text-anchor="start" x="1004" y="-209" font-family="Helvetica,sans-Serif" font-size="10.00">/home/travis/build</text>
<text text-anchor="start" x="1004" y="-198" font-family="Helvetica,sans-Serif" font-size="10.00">/STORM&#45;IRIT/Radium&#45;Engine</text>
<text text-anchor="start" x="1004" y="-187" font-family="Helvetica,sans-Serif" font-size="10.00">/Plugins/FancyMesh/src/FancyMesh</text>
<text text-anchor="middle" x="1084" y="-176" font-family="Helvetica,sans-Serif" font-size="10.00">System.cpp</text>
</a>
</g>
</g>
<!-- Node1&#45;&gt;Node10 -->
<g id="edge10" class="edge"><title>Node1&#45;&gt;Node10</title>
<path fill="none" stroke="midnightblue" d="M862.906,-255.834C904.036,-244.703 953.91,-231.206 995.871,-219.85"/>
<polygon fill="midnightblue" stroke="midnightblue" points="861.93,-252.472 853.191,-258.463 863.758,-259.229 861.93,-252.472"/>
</g>
<!-- Node11 -->
<g id="node11" class="node"><title>Node11</title>
<g id="a_node11"><a xlink:href="MeshPaintComponent_8cpp.html" target="_top" xlink:title="/home/travis/build\l/STORM&#45;IRIT/Radium&#45;Engine\l/Plugins/MeshPaint/src/MeshPaint\lComponent.cpp">
<polygon fill="white" stroke="black" points="1189.5,-169 1189.5,-221 1356.5,-221 1356.5,-169 1189.5,-169"/>
<text text-anchor="start" x="1197.5" y="-209" font-family="Helvetica,sans-Serif" font-size="10.00">/home/travis/build</text>
<text text-anchor="start" x="1197.5" y="-198" font-family="Helvetica,sans-Serif" font-size="10.00">/STORM&#45;IRIT/Radium&#45;Engine</text>
<text text-anchor="start" x="1197.5" y="-187" font-family="Helvetica,sans-Serif" font-size="10.00">/Plugins/MeshPaint/src/MeshPaint</text>
<text text-anchor="middle" x="1273" y="-176" font-family="Helvetica,sans-Serif" font-size="10.00">Component.cpp</text>
</a>
</g>
</g>
<!-- Node1&#45;&gt;Node11 -->
<g id="edge11" class="edge"><title>Node1&#45;&gt;Node11</title>
<path fill="none" stroke="midnightblue" d="M870.844,-268.852C952.1,-259.76 1074.78,-243.991 1180,-222 1183.12,-221.348 1186.29,-220.65 1189.48,-219.916"/>
<polygon fill="midnightblue" stroke="midnightblue" points="870.203,-265.401 860.649,-269.982 870.974,-272.359 870.203,-265.401"/>
</g>
<!-- Node12 -->
<g id="node12" class="node"><title>Node12</title>
<g id="a_node12"><a xlink:href="MeshPaintSystem_8cpp.html" target="_top" xlink:title="/home/travis/build\l/STORM&#45;IRIT/Radium&#45;Engine\l/Plugins/MeshPaint/src/MeshPaint\lSystem.cpp">
<polygon fill="white" stroke="black" points="1374.5,-169 1374.5,-221 1541.5,-221 1541.5,-169 1374.5,-169"/>
<text text-anchor="start" x="1382.5" y="-209" font-family="Helvetica,sans-Serif" font-size="10.00">/home/travis/build</text>
<text text-anchor="start" x="1382.5" y="-198" font-family="Helvetica,sans-Serif" font-size="10.00">/STORM&#45;IRIT/Radium&#45;Engine</text>
<text text-anchor="start" x="1382.5" y="-187" font-family="Helvetica,sans-Serif" font-size="10.00">/Plugins/MeshPaint/src/MeshPaint</text>
<text text-anchor="middle" x="1458" y="-176" font-family="Helvetica,sans-Serif" font-size="10.00">System.cpp</text>
</a>
</g>
</g>
<!-- Node1&#45;&gt;Node12 -->
<g id="edge12" class="edge"><title>Node1&#45;&gt;Node12</title>
<path fill="none" stroke="midnightblue" d="M871.161,-274.308C986.481,-268.456 1191.99,-254.217 1365,-222 1368.05,-221.432 1371.14,-220.811 1374.26,-220.146"/>
<polygon fill="midnightblue" stroke="midnightblue" points="870.783,-270.822 860.969,-274.815 871.131,-277.814 870.783,-270.822"/>
</g>
<!-- Node13 -->
<g id="node13" class="node"><title>Node13</title>
<g id="a_node13"><a xlink:href="SkinningSystem_8hpp.html" target="_top" xlink:title="/home/travis/build\l/STORM&#45;IRIT/Radium&#45;Engine\l/Plugins/Skinning/src/SkinningSystem.hpp">
<polygon fill="white" stroke="black" points="1560,-174.5 1560,-215.5 1762,-215.5 1762,-174.5 1560,-174.5"/>
<text text-anchor="start" x="1568" y="-203.5" font-family="Helvetica,sans-Serif" font-size="10.00">/home/travis/build</text>
<text text-anchor="start" x="1568" y="-192.5" font-family="Helvetica,sans-Serif" font-size="10.00">/STORM&#45;IRIT/Radium&#45;Engine</text>
<text text-anchor="middle" x="1661" y="-181.5" font-family="Helvetica,sans-Serif" font-size="10.00">/Plugins/Skinning/src/SkinningSystem.hpp</text>
</a>
</g>
</g>
<!-- Node1&#45;&gt;Node13 -->
<g id="edge13" class="edge"><title>Node1&#45;&gt;Node13</title>
<path fill="none" stroke="midnightblue" d="M870.725,-276.04C1014.74,-271.869 1306.08,-259.211 1550,-222 1561.25,-220.284 1573.05,-218.027 1584.58,-215.558"/>
<polygon fill="midnightblue" stroke="midnightblue" points="870.51,-272.544 860.613,-276.326 870.708,-279.541 870.51,-272.544"/>
</g>
<!-- Node6 -->
<g id="node6" class="node"><title>Node6</title>
<g id="a_node6"><a xlink:href="BaseApplication_8hpp.html" target="_top" xlink:title="/home/travis/build\l/STORM&#45;IRIT/Radium&#45;Engine\l/src/GuiBase/BaseApplication.hpp">
<polygon fill="white" stroke="black" points="406,-84.5 406,-125.5 572,-125.5 572,-84.5 406,-84.5"/>
<text text-anchor="start" x="414" y="-113.5" font-family="Helvetica,sans-Serif" font-size="10.00">/home/travis/build</text>
<text text-anchor="start" x="414" y="-102.5" font-family="Helvetica,sans-Serif" font-size="10.00">/STORM&#45;IRIT/Radium&#45;Engine</text>
<text text-anchor="middle" x="489" y="-91.5" font-family="Helvetica,sans-Serif" font-size="10.00">/src/GuiBase/BaseApplication.hpp</text>
</a>
</g>
</g>
<!-- Node5&#45;&gt;Node6 -->
<g id="edge5" class="edge"><title>Node5&#45;&gt;Node6</title>
<path fill="none" stroke="midnightblue" d="M492.581,-158.515C491.813,-147.257 490.993,-135.227 490.331,-125.525"/>
<polygon fill="midnightblue" stroke="midnightblue" points="489.092,-158.808 493.265,-168.547 496.076,-158.332 489.092,-158.808"/>
</g>
<!-- Node7 -->
<g id="node7" class="node"><title>Node7</title>
<g id="a_node7"><a xlink:href="FrameTimerData_8cpp.html" target="_top" xlink:title="/home/travis/build\l/STORM&#45;IRIT/Radium&#45;Engine\l/src/GuiBase/TimerData/FrameTimer\lData.cpp">
<polygon fill="white" stroke="black" points="590,-79 590,-131 768,-131 768,-79 590,-79"/>
<text text-anchor="start" x="598" y="-119" font-family="Helvetica,sans-Serif" font-size="10.00">/home/travis/build</text>
<text text-anchor="start" x="598" y="-108" font-family="Helvetica,sans-Serif" font-size="10.00">/STORM&#45;IRIT/Radium&#45;Engine</text>
<text text-anchor="start" x="598" y="-97" font-family="Helvetica,sans-Serif" font-size="10.00">/src/GuiBase/TimerData/FrameTimer</text>
<text text-anchor="middle" x="679" y="-86" font-family="Helvetica,sans-Serif" font-size="10.00">Data.cpp</text>
</a>
</g>
</g>
<!-- Node5&#45;&gt;Node7 -->
<g id="edge7" class="edge"><title>Node5&#45;&gt;Node7</title>
<path fill="none" stroke="midnightblue" d="M556.904,-164.394C579.524,-153.576 604.871,-141.453 626.584,-131.069"/>
<polygon fill="midnightblue" stroke="midnightblue" points="555.238,-161.311 547.727,-168.783 558.258,-167.626 555.238,-161.311"/>
</g>
<!-- Node6&#45;&gt;Node4 -->
<g id="edge6" class="edge"><title>Node6&#45;&gt;Node4</title>
<path fill="none" stroke="midnightblue" d="M469.798,-75.8829C462.106,-64.6192 453.427,-51.9117 446.431,-41.6671"/>
<polygon fill="midnightblue" stroke="midnightblue" points="466.914,-77.8659 475.444,-84.1501 472.695,-73.9182 466.914,-77.8659"/>
</g>
<!-- Node14 -->
<g id="node14" class="node"><title>Node14</title>
<g id="a_node14"><a xlink:href="SkinningPlugin_8cpp.html" target="_top" xlink:title="/home/travis/build\l/STORM&#45;IRIT/Radium&#45;Engine\l/Plugins/Skinning/src/SkinningPlugin.cpp">
<polygon fill="white" stroke="black" points="1563.5,-84.5 1563.5,-125.5 1758.5,-125.5 1758.5,-84.5 1563.5,-84.5"/>
<text text-anchor="start" x="1571.5" y="-113.5" font-family="Helvetica,sans-Serif" font-size="10.00">/home/travis/build</text>
<text text-anchor="start" x="1571.5" y="-102.5" font-family="Helvetica,sans-Serif" font-size="10.00">/STORM&#45;IRIT/Radium&#45;Engine</text>
<text text-anchor="middle" x="1661" y="-91.5" font-family="Helvetica,sans-Serif" font-size="10.00">/Plugins/Skinning/src/SkinningPlugin.cpp</text>
</a>
</g>
</g>
<!-- Node13&#45;&gt;Node14 -->
<g id="edge14" class="edge"><title>Node13&#45;&gt;Node14</title>
<path fill="none" stroke="midnightblue" d="M1661,-164.33C1661,-151.629 1661,-137.14 1661,-125.78"/>
<polygon fill="midnightblue" stroke="midnightblue" points="1657.5,-164.47 1661,-174.47 1664.5,-164.47 1657.5,-164.47"/>
</g>
</g>
</svg>
