<?xml version="1.0" encoding="UTF-8" standalone="no"?>
<!DOCTYPE svg PUBLIC "-//W3C//DTD SVG 1.1//EN"
 "http://www.w3.org/Graphics/SVG/1.1/DTD/svg11.dtd">
<!-- Generated by graphviz version 2.36.0 (20140111.2315)
 -->
<!-- Title: /home/travis/build/STORM&#45;IRIT/Radium&#45;Engine/src/Core/Mesh/TopologicalTriMesh/TopologicalMesh.inl Pages: 1 -->
<svg width="536pt" height="332pt"
 viewBox="0.00 0.00 536.00 332.00" xmlns="http://www.w3.org/2000/svg" xmlns:xlink="http://www.w3.org/1999/xlink">
<g id="graph0" class="graph" transform="scale(1 1) rotate(0) translate(4 328)">
<title>/home/travis/build/STORM&#45;IRIT/Radium&#45;Engine/src/Core/Mesh/TopologicalTriMesh/TopologicalMesh.inl</title>
<polygon fill="white" stroke="none" points="-4,4 -4,-328 532,-328 532,4 -4,4"/>
<!-- Node1 -->
<g id="node1" class="node"><title>Node1</title>
<polygon fill="#bfbfbf" stroke="black" points="190,-271 190,-323 362,-323 362,-271 190,-271"/>
<text text-anchor="start" x="198" y="-311" font-family="Helvetica,sans-Serif" font-size="10.00">/home/travis/build</text>
<text text-anchor="start" x="198" y="-300" font-family="Helvetica,sans-Serif" font-size="10.00">/STORM&#45;IRIT/Radium&#45;Engine</text>
<text text-anchor="start" x="198" y="-289" font-family="Helvetica,sans-Serif" font-size="10.00">/src/Core/Mesh/TopologicalTriMesh</text>
<text text-anchor="middle" x="276" y="-278" font-family="Helvetica,sans-Serif" font-size="10.00">/TopologicalMesh.inl</text>
</g>
<!-- Node2 -->
<g id="node2" class="node"><title>Node2</title>
<g id="a_node2"><a xlink:href="Core_2Mesh_2TopologicalTriMesh_2TopologicalMesh_8hpp.html" target="_top" xlink:title="/home/travis/build\l/STORM&#45;IRIT/Radium&#45;Engine\l/src/Core/Mesh/TopologicalTriMesh\l/TopologicalMesh.hpp">
<polygon fill="white" stroke="black" points="190,-181 190,-233 362,-233 362,-181 190,-181"/>
<text text-anchor="start" x="198" y="-221" font-family="Helvetica,sans-Serif" font-size="10.00">/home/travis/build</text>
<text text-anchor="start" x="198" y="-210" font-family="Helvetica,sans-Serif" font-size="10.00">/STORM&#45;IRIT/Radium&#45;Engine</text>
<text text-anchor="start" x="198" y="-199" font-family="Helvetica,sans-Serif" font-size="10.00">/src/Core/Mesh/TopologicalTriMesh</text>
<text text-anchor="middle" x="276" y="-188" font-family="Helvetica,sans-Serif" font-size="10.00">/TopologicalMesh.hpp</text>
</a>
</g>
</g>
<!-- Node1&#45;&gt;Node2 -->
<g id="edge1" class="edge"><title>Node1&#45;&gt;Node2</title>
<path fill="none" stroke="midnightblue" d="M269.363,-260.489C269.116,-251.309 269.274,-241.616 269.838,-233.092"/>
<polygon fill="midnightblue" stroke="midnightblue" points="265.869,-260.714 269.814,-270.547 272.862,-260.4 265.869,-260.714"/>
</g>
<!-- Node2&#45;&gt;Node1 -->
<g id="edge5" class="edge"><title>Node2&#45;&gt;Node1</title>
<path fill="none" stroke="midnightblue" d="M282.626,-243.123C282.885,-252.289 282.738,-261.99 282.186,-270.547"/>
<polygon fill="midnightblue" stroke="midnightblue" points="286.121,-242.92 282.162,-233.092 279.128,-243.243 286.121,-242.92"/>
</g>
<!-- Node3 -->
<g id="node3" class="node"><title>Node3</title>
<g id="a_node3"><a xlink:href="TopologicalTriMesh_2Operations_2EdgeSplit_8hpp.html" target="_top" xlink:title="/home/travis/build\l/STORM&#45;IRIT/Radium&#45;Engine\l/src/Core/Mesh/TopologicalTriMesh\l/Operations/EdgeSplit.hpp">
<polygon fill="white" stroke="black" points="0,-91 0,-143 172,-143 172,-91 0,-91"/>
<text text-anchor="start" x="8" y="-131" font-family="Helvetica,sans-Serif" font-size="10.00">/home/travis/build</text>
<text text-anchor="start" x="8" y="-120" font-family="Helvetica,sans-Serif" font-size="10.00">/STORM&#45;IRIT/Radium&#45;Engine</text>
<text text-anchor="start" x="8" y="-109" font-family="Helvetica,sans-Serif" font-size="10.00">/src/Core/Mesh/TopologicalTriMesh</text>
<text text-anchor="middle" x="86" y="-98" font-family="Helvetica,sans-Serif" font-size="10.00">/Operations/EdgeSplit.hpp</text>
</a>
</g>
</g>
<!-- Node2&#45;&gt;Node3 -->
<g id="edge2" class="edge"><title>Node2&#45;&gt;Node3</title>
<path fill="none" stroke="midnightblue" d="M212.638,-176.654C189.188,-165.792 162.834,-153.586 140.264,-143.133"/>
<polygon fill="midnightblue" stroke="midnightblue" points="211.263,-179.874 221.808,-180.901 214.205,-173.522 211.263,-179.874"/>
</g>
<!-- Node5 -->
<g id="node5" class="node"><title>Node5</title>
<g id="a_node5"><a xlink:href="TopologicalMesh_8cpp.html" target="_top" xlink:title="/home/travis/build\l/STORM&#45;IRIT/Radium&#45;Engine\l/src/Core/Mesh/TopologicalTriMesh\l/TopologicalMesh.cpp">
<polygon fill="white" stroke="black" points="190,-91 190,-143 362,-143 362,-91 190,-91"/>
<text text-anchor="start" x="198" y="-131" font-family="Helvetica,sans-Serif" font-size="10.00">/home/travis/build</text>
<text text-anchor="start" x="198" y="-120" font-family="Helvetica,sans-Serif" font-size="10.00">/STORM&#45;IRIT/Radium&#45;Engine</text>
<text text-anchor="start" x="198" y="-109" font-family="Helvetica,sans-Serif" font-size="10.00">/src/Core/Mesh/TopologicalTriMesh</text>
<text text-anchor="middle" x="276" y="-98" font-family="Helvetica,sans-Serif" font-size="10.00">/TopologicalMesh.cpp</text>
</a>
</g>
</g>
<!-- Node2&#45;&gt;Node5 -->
<g id="edge4" class="edge"><title>Node2&#45;&gt;Node5</title>
<path fill="none" stroke="midnightblue" d="M276,-170.489C276,-161.309 276,-151.616 276,-143.092"/>
<polygon fill="midnightblue" stroke="midnightblue" points="272.5,-170.547 276,-180.547 279.5,-170.547 272.5,-170.547"/>
</g>
<!-- Node6 -->
<g id="node6" class="node"><title>Node6</title>
<g id="a_node6"><a xlink:href="Tests_2CoreTests_2src_2TopologicalMesh_8hpp.html" target="_top" xlink:title="/home/travis/build\l/STORM&#45;IRIT/Radium&#45;Engine\l/src/Tests/CoreTests/src\l/TopologicalMesh.hpp">
<polygon fill="white" stroke="black" points="380,-91 380,-143 528,-143 528,-91 380,-91"/>
<text text-anchor="start" x="388" y="-131" font-family="Helvetica,sans-Serif" font-size="10.00">/home/travis/build</text>
<text text-anchor="start" x="388" y="-120" font-family="Helvetica,sans-Serif" font-size="10.00">/STORM&#45;IRIT/Radium&#45;Engine</text>
<text text-anchor="start" x="388" y="-109" font-family="Helvetica,sans-Serif" font-size="10.00">/src/Tests/CoreTests/src</text>
<text text-anchor="middle" x="454" y="-98" font-family="Helvetica,sans-Serif" font-size="10.00">/TopologicalMesh.hpp</text>
</a>
</g>
</g>
<!-- Node2&#45;&gt;Node6 -->
<g id="edge6" class="edge"><title>Node2&#45;&gt;Node6</title>
<path fill="none" stroke="midnightblue" d="M336.178,-176.249C357.986,-165.468 382.382,-153.407 403.293,-143.069"/>
<polygon fill="midnightblue" stroke="midnightblue" points="334.421,-173.213 327.008,-180.783 337.523,-179.488 334.421,-173.213"/>
</g>
<!-- Node4 -->
<g id="node4" class="node"><title>Node4</title>
<g id="a_node4"><a xlink:href="TopologicalTriMesh_2Operations_2EdgeSplit_8cpp.html" target="_top" xlink:title="/home/travis/build\l/STORM&#45;IRIT/Radium&#45;Engine\l/src/Core/Mesh/TopologicalTriMesh\l/Operations/EdgeSplit.cpp">
<polygon fill="white" stroke="black" points="0,-1 0,-53 172,-53 172,-1 0,-1"/>
<text text-anchor="start" x="8" y="-41" font-family="Helvetica,sans-Serif" font-size="10.00">/home/travis/build</text>
<text text-anchor="start" x="8" y="-30" font-family="Helvetica,sans-Serif" font-size="10.00">/STORM&#45;IRIT/Radium&#45;Engine</text>
<text text-anchor="start" x="8" y="-19" font-family="Helvetica,sans-Serif" font-size="10.00">/src/Core/Mesh/TopologicalTriMesh</text>
<text text-anchor="middle" x="86" y="-8" font-family="Helvetica,sans-Serif" font-size="10.00">/Operations/EdgeSplit.cpp</text>
</a>
</g>
</g>
<!-- Node3&#45;&gt;Node4 -->
<g id="edge3" class="edge"><title>Node3&#45;&gt;Node4</title>
<path fill="none" stroke="midnightblue" d="M86,-80.4892C86,-71.3088 86,-61.616 86,-53.0921"/>
<polygon fill="midnightblue" stroke="midnightblue" points="82.5001,-80.5467 86,-90.5468 89.5001,-80.5468 82.5001,-80.5467"/>
</g>
<!-- Node7 -->
<g id="node7" class="node"><title>Node7</title>
<g id="a_node7"><a xlink:href="main_8cpp.html" target="_top" xlink:title="/home/travis/build\l/STORM&#45;IRIT/Radium&#45;Engine\l/src/Tests/CoreTests/src\l/main.cpp">
<polygon fill="white" stroke="black" points="380,-1 380,-53 528,-53 528,-1 380,-1"/>
<text text-anchor="start" x="388" y="-41" font-family="Helvetica,sans-Serif" font-size="10.00">/home/travis/build</text>
<text text-anchor="start" x="388" y="-30" font-family="Helvetica,sans-Serif" font-size="10.00">/STORM&#45;IRIT/Radium&#45;Engine</text>
<text text-anchor="start" x="388" y="-19" font-family="Helvetica,sans-Serif" font-size="10.00">/src/Tests/CoreTests/src</text>
<text text-anchor="middle" x="454" y="-8" font-family="Helvetica,sans-Serif" font-size="10.00">/main.cpp</text>
</a>
</g>
</g>
<!-- Node6&#45;&gt;Node7 -->
<g id="edge7" class="edge"><title>Node6&#45;&gt;Node7</title>
<path fill="none" stroke="midnightblue" d="M454,-80.4892C454,-71.3088 454,-61.616 454,-53.0921"/>
<polygon fill="midnightblue" stroke="midnightblue" points="450.5,-80.5467 454,-90.5468 457.5,-80.5468 450.5,-80.5467"/>
</g>
</g>
</svg>
