<?xml version="1.0" encoding="UTF-8" standalone="no"?>
<!DOCTYPE svg PUBLIC "-//W3C//DTD SVG 1.1//EN"
 "http://www.w3.org/Graphics/SVG/1.1/DTD/svg11.dtd">
<!-- Generated by graphviz version 2.36.0 (20140111.2315)
 -->
<!-- Title: /home/travis/build/STORM&#45;IRIT/Radium&#45;Engine/src/Core/Mesh/TopologicalTriMesh/TopologicalMesh.cpp Pages: 1 -->
<svg width="1743pt" height="626pt"
 viewBox="0.00 0.00 1743.00 626.00" xmlns="http://www.w3.org/2000/svg" xmlns:xlink="http://www.w3.org/1999/xlink">
<g id="graph0" class="graph" transform="scale(1 1) rotate(0) translate(4 622)">
<title>/home/travis/build/STORM&#45;IRIT/Radium&#45;Engine/src/Core/Mesh/TopologicalTriMesh/TopologicalMesh.cpp</title>
<polygon fill="white" stroke="none" points="-4,4 -4,-622 1739,-622 1739,4 -4,4"/>
<!-- Node1 -->
<g id="node1" class="node"><title>Node1</title>
<polygon fill="#bfbfbf" stroke="black" points="1297,-565 1297,-617 1469,-617 1469,-565 1297,-565"/>
<text text-anchor="start" x="1305" y="-605" font-family="Helvetica,sans-Serif" font-size="10.00">/home/travis/build</text>
<text text-anchor="start" x="1305" y="-594" font-family="Helvetica,sans-Serif" font-size="10.00">/STORM&#45;IRIT/Radium&#45;Engine</text>
<text text-anchor="start" x="1305" y="-583" font-family="Helvetica,sans-Serif" font-size="10.00">/src/Core/Mesh/TopologicalTriMesh</text>
<text text-anchor="middle" x="1383" y="-572" font-family="Helvetica,sans-Serif" font-size="10.00">/TopologicalMesh.cpp</text>
</g>
<!-- Node2 -->
<g id="node2" class="node"><title>Node2</title>
<g id="a_node2"><a xlink:href="Core_2Mesh_2TopologicalTriMesh_2TopologicalMesh_8hpp.html" target="_top" xlink:title="Core/Mesh/TopologicalTri\lMesh/TopologicalMesh.hpp">
<polygon fill="white" stroke="black" points="613,-497 613,-527 749,-527 749,-497 613,-497"/>
<text text-anchor="start" x="621" y="-515" font-family="Helvetica,sans-Serif" font-size="10.00">Core/Mesh/TopologicalTri</text>
<text text-anchor="middle" x="681" y="-504" font-family="Helvetica,sans-Serif" font-size="10.00">Mesh/TopologicalMesh.hpp</text>
</a>
</g>
</g>
<!-- Node1&#45;&gt;Node2 -->
<g id="edge1" class="edge"><title>Node1&#45;&gt;Node2</title>
<path fill="none" stroke="midnightblue" d="M1296.92,-580.558C1159.28,-565.46 891.681,-536.109 759.193,-521.577"/>
<polygon fill="midnightblue" stroke="midnightblue" points="759.44,-518.083 749.118,-520.472 758.677,-525.041 759.44,-518.083"/>
</g>
<!-- Node4 -->
<g id="node4" class="node"><title>Node4</title>
<g id="a_node4"><a xlink:href="RaCore_8hpp.html" target="_top" xlink:title="Core/RaCore.hpp">
<polygon fill="white" stroke="black" points="952.5,-112.5 952.5,-131.5 1045.5,-131.5 1045.5,-112.5 952.5,-112.5"/>
<text text-anchor="middle" x="999" y="-119.5" font-family="Helvetica,sans-Serif" font-size="10.00">Core/RaCore.hpp</text>
</a>
</g>
</g>
<!-- Node1&#45;&gt;Node4 -->
<g id="edge72" class="edge"><title>Node1&#45;&gt;Node4</title>
<path fill="none" stroke="midnightblue" d="M1296.86,-589.527C1005.36,-586.801 74,-568.434 74,-445 74,-445 74,-445 74,-319 74,-281.157 66.9629,-263.462 93,-236 133.071,-193.735 164.593,-220.782 219,-200 249.453,-188.367 253.473,-176.292 285,-168 408.755,-135.45 795.865,-126.145 942.204,-123.753"/>
<polygon fill="midnightblue" stroke="midnightblue" points="942.374,-127.251 952.317,-123.593 942.263,-120.252 942.374,-127.251"/>
</g>
<!-- Node30 -->
<g id="node30" class="node"><title>Node30</title>
<polygon fill="white" stroke="#bfbfbf" points="1120,-174.5 1120,-193.5 1208,-193.5 1208,-174.5 1120,-174.5"/>
<text text-anchor="middle" x="1164" y="-181.5" font-family="Helvetica,sans-Serif" font-size="10.00">Eigen/StdVector</text>
</g>
<!-- Node1&#45;&gt;Node30 -->
<g id="edge73" class="edge"><title>Node1&#45;&gt;Node30</title>
<path fill="none" stroke="midnightblue" d="M1381.37,-564.79C1379.62,-545.587 1376.08,-518.68 1369,-496 1328.78,-367.141 1297.39,-340.548 1212,-236 1201.93,-223.665 1189.59,-210.601 1179.95,-200.784"/>
<polygon fill="midnightblue" stroke="midnightblue" points="1182.42,-198.306 1172.89,-193.682 1177.46,-203.241 1182.42,-198.306"/>
</g>
<!-- Node31 -->
<g id="node31" class="node"><title>Node31</title>
<polygon fill="white" stroke="#bfbfbf" points="1232,-174.5 1232,-193.5 1276,-193.5 1276,-174.5 1232,-174.5"/>
<text text-anchor="middle" x="1254" y="-181.5" font-family="Helvetica,sans-Serif" font-size="10.00">vector</text>
</g>
<!-- Node1&#45;&gt;Node31 -->
<g id="edge76" class="edge"><title>Node1&#45;&gt;Node31</title>
<path fill="none" stroke="midnightblue" d="M1372.21,-564.855C1360.98,-536.343 1345,-488.199 1345,-445 1345,-445 1345,-445 1345,-319 1345,-268.504 1300.23,-222.918 1273.49,-200.198"/>
<polygon fill="midnightblue" stroke="midnightblue" points="1275.47,-197.296 1265.53,-193.648 1271.03,-202.703 1275.47,-197.296"/>
</g>
<!-- Node34 -->
<g id="node34" class="node"><title>Node34</title>
<g id="a_node34"><a xlink:href="Log_8hpp.html" target="_top" xlink:title="Core/Log/Log.hpp">
<polygon fill="white" stroke="black" points="1435,-310.5 1435,-329.5 1529,-329.5 1529,-310.5 1435,-310.5"/>
<text text-anchor="middle" x="1482" y="-317.5" font-family="Helvetica,sans-Serif" font-size="10.00">Core/Log/Log.hpp</text>
</a>
</g>
</g>
<!-- Node1&#45;&gt;Node34 -->
<g id="edge71" class="edge"><title>Node1&#45;&gt;Node34</title>
<path fill="none" stroke="midnightblue" d="M1392.31,-564.693C1412.14,-510.819 1458.11,-385.9 1475.33,-339.12"/>
<polygon fill="midnightblue" stroke="midnightblue" points="1478.64,-340.274 1478.81,-329.681 1472.07,-337.857 1478.64,-340.274"/>
</g>
<!-- Node43 -->
<g id="node43" class="node"><title>Node43</title>
<polygon fill="white" stroke="#bfbfbf" points="1449.5,-502.5 1449.5,-521.5 1532.5,-521.5 1532.5,-502.5 1449.5,-502.5"/>
<text text-anchor="middle" x="1491" y="-509.5" font-family="Helvetica,sans-Serif" font-size="10.00">unordered_map</text>
</g>
<!-- Node1&#45;&gt;Node43 -->
<g id="edge74" class="edge"><title>Node1&#45;&gt;Node43</title>
<path fill="none" stroke="midnightblue" d="M1418.36,-564.787C1435.68,-552.438 1455.92,-538.01 1470.63,-527.523"/>
<polygon fill="midnightblue" stroke="midnightblue" points="1472.89,-530.213 1479,-521.558 1468.82,-524.513 1472.89,-530.213"/>
</g>
<!-- Node44 -->
<g id="node44" class="node"><title>Node44</title>
<polygon fill="white" stroke="#bfbfbf" points="1551,-502.5 1551,-521.5 1591,-521.5 1591,-502.5 1551,-502.5"/>
<text text-anchor="middle" x="1571" y="-509.5" font-family="Helvetica,sans-Serif" font-size="10.00">utility</text>
</g>
<!-- Node1&#45;&gt;Node44 -->
<g id="edge75" class="edge"><title>Node1&#45;&gt;Node44</title>
<path fill="none" stroke="midnightblue" d="M1450.82,-564.919C1478.96,-554.119 1511.79,-541.002 1541,-528 1542.4,-527.378 1543.82,-526.727 1545.26,-526.057"/>
<polygon fill="midnightblue" stroke="midnightblue" points="1547.15,-529.03 1554.62,-521.521 1544.1,-522.73 1547.15,-529.03"/>
</g>
<!-- Node3 -->
<g id="node3" class="node"><title>Node3</title>
<g id="a_node3"><a xlink:href="OpenMesh_8h.html" target="_top" xlink:title="Core/Mesh/TopologicalTri\lMesh/OpenMesh.h">
<polygon fill="white" stroke="black" points="258,-305 258,-335 386,-335 386,-305 258,-305"/>
<text text-anchor="start" x="266" y="-323" font-family="Helvetica,sans-Serif" font-size="10.00">Core/Mesh/TopologicalTri</text>
<text text-anchor="middle" x="322" y="-312" font-family="Helvetica,sans-Serif" font-size="10.00">Mesh/OpenMesh.h</text>
</a>
</g>
</g>
<!-- Node2&#45;&gt;Node3 -->
<g id="edge2" class="edge"><title>Node2&#45;&gt;Node3</title>
<path fill="none" stroke="midnightblue" d="M612.901,-509.842C559.553,-506.084 485.354,-494.347 430,-460 383.876,-431.38 349.764,-375.558 333.2,-344.06"/>
<polygon fill="midnightblue" stroke="midnightblue" points="336.299,-342.432 328.63,-335.123 330.067,-345.62 336.299,-342.432"/>
</g>
<!-- Node2&#45;&gt;Node4 -->
<g id="edge62" class="edge"><title>Node2&#45;&gt;Node4</title>
<path fill="none" stroke="midnightblue" d="M648.124,-496.843C608.738,-477.405 548,-438.441 548,-383 548,-383 548,-383 548,-319 548,-279.136 542.195,-264.181 514,-236 484.113,-206.127 449.554,-235.084 426,-200 418.073,-188.192 416.345,-178.443 426,-168 460.537,-130.644 803.684,-124.248 941.827,-123.191"/>
<polygon fill="midnightblue" stroke="midnightblue" points="942.222,-126.689 952.198,-123.119 942.173,-119.689 942.222,-126.689"/>
</g>
<!-- Node11 -->
<g id="node11" class="node"><title>Node11</title>
<polygon fill="white" stroke="#bfbfbf" points="313.5,-174.5 313.5,-193.5 378.5,-193.5 378.5,-174.5 313.5,-174.5"/>
<text text-anchor="middle" x="346" y="-181.5" font-family="Helvetica,sans-Serif" font-size="10.00">Eigen/Core</text>
</g>
<!-- Node2&#45;&gt;Node11 -->
<g id="edge67" class="edge"><title>Node2&#45;&gt;Node11</title>
<path fill="none" stroke="midnightblue" d="M612.647,-501.08C584.996,-493.873 554.769,-481.44 534,-460 509.059,-434.253 510,-418.846 510,-383 510,-383 510,-383 510,-319 510,-281.055 515.401,-264.188 490,-236 486.207,-231.791 423.297,-210.471 381.895,-196.763"/>
<polygon fill="midnightblue" stroke="midnightblue" points="382.731,-193.353 372.138,-193.541 380.536,-200 382.731,-193.353"/>
</g>
<!-- Node12 -->
<g id="node12" class="node"><title>Node12</title>
<polygon fill="white" stroke="#bfbfbf" points="-0.5,-174.5 -0.5,-193.5 86.5,-193.5 86.5,-174.5 -0.5,-174.5"/>
<text text-anchor="middle" x="43" y="-181.5" font-family="Helvetica,sans-Serif" font-size="10.00">Eigen/Geometry</text>
</g>
<!-- Node2&#45;&gt;Node12 -->
<g id="edge68" class="edge"><title>Node2&#45;&gt;Node12</title>
<path fill="none" stroke="midnightblue" d="M612.938,-511.337C540.833,-509.376 425.052,-499.501 334,-460 208.366,-405.497 183.315,-370.945 93,-268 75.2867,-247.809 60.2192,-220.518 51.3874,-202.837"/>
<polygon fill="midnightblue" stroke="midnightblue" points="54.4503,-201.132 46.9351,-193.664 48.1529,-204.189 54.4503,-201.132"/>
</g>
<!-- Node13 -->
<g id="node13" class="node"><title>Node13</title>
<g id="a_node13"><a xlink:href="LinearAlgebra_8hpp.html" target="_top" xlink:title="Core/Math/LinearAlgebra.hpp">
<polygon fill="white" stroke="black" points="756.5,-242.5 756.5,-261.5 899.5,-261.5 899.5,-242.5 756.5,-242.5"/>
<text text-anchor="middle" x="828" y="-249.5" font-family="Helvetica,sans-Serif" font-size="10.00">Core/Math/LinearAlgebra.hpp</text>
</a>
</g>
</g>
<!-- Node2&#45;&gt;Node13 -->
<g id="edge31" class="edge"><title>Node2&#45;&gt;Node13</title>
<path fill="none" stroke="midnightblue" d="M685.878,-496.857C698.231,-462.123 733.06,-370.608 779,-304 788.021,-290.92 800.443,-278.032 810.522,-268.484"/>
<polygon fill="midnightblue" stroke="midnightblue" points="813.009,-270.952 817.993,-261.603 808.266,-265.803 813.009,-270.952"/>
</g>
<!-- Node22 -->
<g id="node22" class="node"><title>Node22</title>
<polygon fill="white" stroke="#bfbfbf" points="102.5,-237 102.5,-267 217.5,-267 217.5,-237 102.5,-237"/>
<text text-anchor="start" x="110.5" y="-255" font-family="Helvetica,sans-Serif" font-size="10.00">OpenMesh/Core/Mesh</text>
<text text-anchor="middle" x="160" y="-244" font-family="Helvetica,sans-Serif" font-size="10.00">/Traits.hh</text>
</g>
<!-- Node2&#45;&gt;Node22 -->
<g id="edge64" class="edge"><title>Node2&#45;&gt;Node22</title>
<path fill="none" stroke="midnightblue" d="M612.84,-509.42C551.759,-505.65 461.097,-494.118 390,-460 295.555,-414.679 211.542,-318.297 176.866,-274.938"/>
<polygon fill="midnightblue" stroke="midnightblue" points="179.545,-272.683 170.601,-267.004 174.052,-277.021 179.545,-272.683"/>
</g>
<!-- Node23 -->
<g id="node23" class="node"><title>Node23</title>
<polygon fill="white" stroke="#bfbfbf" points="350.5,-237 350.5,-267 481.5,-267 481.5,-237 350.5,-237"/>
<text text-anchor="start" x="358.5" y="-255" font-family="Helvetica,sans-Serif" font-size="10.00">OpenMesh/Core/Mesh</text>
<text text-anchor="middle" x="416" y="-244" font-family="Helvetica,sans-Serif" font-size="10.00">/TriMesh_ArrayKernelT.hh</text>
</g>
<!-- Node2&#45;&gt;Node23 -->
<g id="edge65" class="edge"><title>Node2&#45;&gt;Node23</title>
<path fill="none" stroke="midnightblue" d="M612.665,-507.025C574.232,-501.462 527.744,-488.725 496,-460 441.73,-410.893 423.951,-320.684 418.39,-277.413"/>
<polygon fill="midnightblue" stroke="midnightblue" points="421.838,-276.763 417.199,-267.237 414.885,-277.576 421.838,-276.763"/>
</g>
<!-- Node24 -->
<g id="node24" class="node"><title>Node24</title>
<g id="a_node24"><a xlink:href="Index_8hpp.html" target="_top" xlink:title="Core/Index/Index.hpp">
<polygon fill="white" stroke="black" points="576,-310.5 576,-329.5 686,-329.5 686,-310.5 576,-310.5"/>
<text text-anchor="middle" x="631" y="-317.5" font-family="Helvetica,sans-Serif" font-size="10.00">Core/Index/Index.hpp</text>
</a>
</g>
</g>
<!-- Node2&#45;&gt;Node24 -->
<g id="edge28" class="edge"><title>Node2&#45;&gt;Node24</title>
<path fill="none" stroke="midnightblue" d="M677.242,-496.719C668.312,-462.786 645.827,-377.342 635.872,-339.514"/>
<polygon fill="midnightblue" stroke="midnightblue" points="639.245,-338.579 633.315,-329.799 632.476,-340.36 639.245,-338.579"/>
</g>
<!-- Node27 -->
<g id="node27" class="node"><title>Node27</title>
<g id="a_node27"><a xlink:href="TriangleMesh_8hpp.html" target="_top" xlink:title="Core/Mesh/TriangleMesh.hpp">
<polygon fill="white" stroke="black" points="737.5,-434.5 737.5,-453.5 882.5,-453.5 882.5,-434.5 737.5,-434.5"/>
<text text-anchor="middle" x="810" y="-441.5" font-family="Helvetica,sans-Serif" font-size="10.00">Core/Mesh/TriangleMesh.hpp</text>
</a>
</g>
</g>
<!-- Node2&#45;&gt;Node27 -->
<g id="edge32" class="edge"><title>Node2&#45;&gt;Node27</title>
<path fill="none" stroke="midnightblue" d="M708.674,-496.841C730.987,-485.425 762.143,-469.485 783.998,-458.303"/>
<polygon fill="midnightblue" stroke="midnightblue" points="785.723,-461.353 793.031,-453.682 782.534,-455.121 785.723,-461.353"/>
</g>
<!-- Node40 -->
<g id="node40" class="node"><title>Node40</title>
<polygon fill="white" stroke="#bfbfbf" points="900.5,-429 900.5,-459 1039.5,-459 1039.5,-429 900.5,-429"/>
<text text-anchor="start" x="908.5" y="-447" font-family="Helvetica,sans-Serif" font-size="10.00">OpenMesh/Core/Mesh</text>
<text text-anchor="middle" x="970" y="-436" font-family="Helvetica,sans-Serif" font-size="10.00">/PolyMesh_ArrayKernelT.hh</text>
</g>
<!-- Node2&#45;&gt;Node40 -->
<g id="edge63" class="edge"><title>Node2&#45;&gt;Node40</title>
<path fill="none" stroke="midnightblue" d="M742.643,-496.922C788.299,-486.496 850.623,-472.263 898.472,-461.335"/>
<polygon fill="midnightblue" stroke="midnightblue" points="899.482,-464.695 908.451,-459.056 897.923,-457.87 899.482,-464.695"/>
</g>
<!-- Node41 -->
<g id="node41" class="node"><title>Node41</title>
<polygon fill="white" stroke="#bfbfbf" points="1057.5,-429 1057.5,-459 1168.5,-459 1168.5,-429 1057.5,-429"/>
<text text-anchor="start" x="1065.5" y="-447" font-family="Helvetica,sans-Serif" font-size="10.00">OpenMesh/Core/Utils</text>
<text text-anchor="middle" x="1113" y="-436" font-family="Helvetica,sans-Serif" font-size="10.00">/Property.hh</text>
</g>
<!-- Node2&#45;&gt;Node41 -->
<g id="edge66" class="edge"><title>Node2&#45;&gt;Node41</title>
<path fill="none" stroke="midnightblue" d="M749.269,-503.35C821.02,-494.895 937.349,-480.015 1047.45,-459.999"/>
<polygon fill="midnightblue" stroke="midnightblue" points="1048.19,-463.421 1057.4,-458.173 1046.93,-456.536 1048.19,-463.421"/>
</g>
<!-- Node42 -->
<g id="node42" class="node"><title>Node42</title>
<g id="a_node42"><a xlink:href="TopologicalMesh_8inl.html" target="_top" xlink:title="Core/Mesh/TopologicalTri\lMesh/TopologicalMesh.inl">
<polygon fill="white" stroke="black" points="1187,-429 1187,-459 1317,-459 1317,-429 1187,-429"/>
<text text-anchor="start" x="1195" y="-447" font-family="Helvetica,sans-Serif" font-size="10.00">Core/Mesh/TopologicalTri</text>
<text text-anchor="middle" x="1252" y="-436" font-family="Helvetica,sans-Serif" font-size="10.00">Mesh/TopologicalMesh.inl</text>
</a>
</g>
</g>
<!-- Node2&#45;&gt;Node42 -->
<g id="edge69" class="edge"><title>Node2&#45;&gt;Node42</title>
<path fill="none" stroke="midnightblue" d="M749.052,-505.579C843.45,-497.974 1019.07,-482.498 1168,-460 1170.83,-459.572 1173.72,-459.11 1176.63,-458.623"/>
<polygon fill="midnightblue" stroke="midnightblue" points="1177.39,-462.044 1186.64,-456.879 1176.19,-455.148 1177.39,-462.044"/>
</g>
<!-- Node3&#45;&gt;Node4 -->
<g id="edge3" class="edge"><title>Node3&#45;&gt;Node4</title>
<path fill="none" stroke="midnightblue" d="M313.905,-304.682C298.264,-274.91 268.432,-205.946 304,-168 347.263,-121.845 784.264,-121.08 942.328,-122.338"/>
<polygon fill="midnightblue" stroke="midnightblue" points="942.3,-125.837 952.329,-122.423 942.359,-118.838 942.3,-125.837"/>
</g>
<!-- Node3&#45;&gt;Node11 -->
<g id="edge10" class="edge"><title>Node3&#45;&gt;Node11</title>
<path fill="none" stroke="midnightblue" d="M324.568,-304.66C328.928,-280.32 337.773,-230.933 342.626,-203.837"/>
<polygon fill="midnightblue" stroke="midnightblue" points="346.119,-204.188 344.437,-193.728 339.229,-202.954 346.119,-204.188"/>
</g>
<!-- Node3&#45;&gt;Node12 -->
<g id="edge11" class="edge"><title>Node3&#45;&gt;Node12</title>
<path fill="none" stroke="midnightblue" d="M307.369,-304.923C285.192,-283.839 243.773,-245.515 226,-236 173.145,-207.704 153.732,-216.163 96,-200 91.6877,-198.793 87.1797,-197.525 82.6917,-196.26"/>
<polygon fill="midnightblue" stroke="midnightblue" points="83.5578,-192.868 72.9829,-193.518 81.655,-199.604 83.5578,-192.868"/>
</g>
<!-- Node3&#45;&gt;Node13 -->
<g id="edge12" class="edge"><title>Node3&#45;&gt;Node13</title>
<path fill="none" stroke="midnightblue" d="M386.254,-312.578C469.634,-303.949 619.537,-287.43 747,-268 756.033,-266.623 765.602,-264.999 774.878,-263.337"/>
<polygon fill="midnightblue" stroke="midnightblue" points="775.579,-266.767 784.788,-261.529 774.322,-259.881 775.579,-266.767"/>
</g>
<!-- Node3&#45;&gt;Node22 -->
<g id="edge26" class="edge"><title>Node3&#45;&gt;Node22</title>
<path fill="none" stroke="midnightblue" d="M287.247,-304.841C262.82,-294.89 229.956,-281.5 203.745,-270.822"/>
<polygon fill="midnightblue" stroke="midnightblue" points="204.999,-267.554 194.417,-267.022 202.358,-274.036 204.999,-267.554"/>
</g>
<!-- Node3&#45;&gt;Node23 -->
<g id="edge27" class="edge"><title>Node3&#45;&gt;Node23</title>
<path fill="none" stroke="midnightblue" d="M342.397,-304.679C355.667,-295.361 373.157,-283.082 387.757,-272.83"/>
<polygon fill="midnightblue" stroke="midnightblue" points="389.793,-275.677 395.966,-267.066 385.771,-269.948 389.793,-275.677"/>
</g>
<!-- Node5 -->
<g id="node5" class="node"><title>Node5</title>
<g id="a_node5"><a xlink:href="CoreMacros_8hpp.html" target="_top" xlink:title="Core/CoreMacros.hpp">
<polygon fill="white" stroke="black" points="1092.5,-56.5 1092.5,-75.5 1205.5,-75.5 1205.5,-56.5 1092.5,-56.5"/>
<text text-anchor="middle" x="1149" y="-63.5" font-family="Helvetica,sans-Serif" font-size="10.00">Core/CoreMacros.hpp</text>
</a>
</g>
</g>
<!-- Node4&#45;&gt;Node5 -->
<g id="edge4" class="edge"><title>Node4&#45;&gt;Node5</title>
<path fill="none" stroke="midnightblue" d="M1022.77,-112.444C1047.89,-103.399 1087.71,-89.064 1115.9,-78.9158"/>
<polygon fill="midnightblue" stroke="midnightblue" points="1117.12,-82.1968 1125.34,-75.5164 1114.75,-75.6106 1117.12,-82.1968"/>
</g>
<!-- Node6 -->
<g id="node6" class="node"><title>Node6</title>
<polygon fill="white" stroke="#bfbfbf" points="1092.5,-0.5 1092.5,-19.5 1141.5,-19.5 1141.5,-0.5 1092.5,-0.5"/>
<text text-anchor="middle" x="1117" y="-7.5" font-family="Helvetica,sans-Serif" font-size="10.00">cassert</text>
</g>
<!-- Node5&#45;&gt;Node6 -->
<g id="edge5" class="edge"><title>Node5&#45;&gt;Node6</title>
<path fill="none" stroke="midnightblue" d="M1143.72,-56.083C1139.29,-48.6127 1132.84,-37.7244 1127.38,-28.5199"/>
<polygon fill="midnightblue" stroke="midnightblue" points="1130.29,-26.5697 1122.19,-19.7511 1124.27,-30.1383 1130.29,-26.5697"/>
</g>
<!-- Node7 -->
<g id="node7" class="node"><title>Node7</title>
<polygon fill="white" stroke="#bfbfbf" points="1159.5,-0.5 1159.5,-19.5 1202.5,-19.5 1202.5,-0.5 1159.5,-0.5"/>
<text text-anchor="middle" x="1181" y="-7.5" font-family="Helvetica,sans-Serif" font-size="10.00">cstdio</text>
</g>
<!-- Node5&#45;&gt;Node7 -->
<g id="edge6" class="edge"><title>Node5&#45;&gt;Node7</title>
<path fill="none" stroke="midnightblue" d="M1154.28,-56.083C1158.71,-48.6127 1165.16,-37.7244 1170.62,-28.5199"/>
<polygon fill="midnightblue" stroke="midnightblue" points="1173.73,-30.1383 1175.81,-19.7511 1167.71,-26.5697 1173.73,-30.1383"/>
</g>
<!-- Node8 -->
<g id="node8" class="node"><title>Node8</title>
<polygon fill="white" stroke="#bfbfbf" points="1221,-0.5 1221,-19.5 1275,-19.5 1275,-0.5 1221,-0.5"/>
<text text-anchor="middle" x="1248" y="-7.5" font-family="Helvetica,sans-Serif" font-size="10.00">iostream</text>
</g>
<!-- Node5&#45;&gt;Node8 -->
<g id="edge7" class="edge"><title>Node5&#45;&gt;Node8</title>
<path fill="none" stroke="midnightblue" d="M1164.91,-56.324C1180.64,-47.7428 1204.94,-34.486 1223.21,-24.5224"/>
<polygon fill="midnightblue" stroke="midnightblue" points="1225.03,-27.5157 1232.13,-19.6545 1221.68,-21.3704 1225.03,-27.5157"/>
</g>
<!-- Node9 -->
<g id="node9" class="node"><title>Node9</title>
<polygon fill="white" stroke="#bfbfbf" points="1442,-0.5 1442,-19.5 1494,-19.5 1494,-0.5 1442,-0.5"/>
<text text-anchor="middle" x="1468" y="-7.5" font-family="Helvetica,sans-Serif" font-size="10.00">sstream</text>
</g>
<!-- Node5&#45;&gt;Node9 -->
<g id="edge8" class="edge"><title>Node5&#45;&gt;Node9</title>
<path fill="none" stroke="midnightblue" d="M1199.55,-56.4435C1264.21,-45.4968 1374.65,-26.8022 1431.62,-17.1578"/>
<polygon fill="midnightblue" stroke="midnightblue" points="1432.34,-20.5863 1441.62,-15.4662 1431.17,-13.6845 1432.34,-20.5863"/>
</g>
<!-- Node10 -->
<g id="node10" class="node"><title>Node10</title>
<polygon fill="white" stroke="#bfbfbf" points="1030,-0.5 1030,-19.5 1074,-19.5 1074,-0.5 1030,-0.5"/>
<text text-anchor="middle" x="1052" y="-7.5" font-family="Helvetica,sans-Serif" font-size="10.00">thread</text>
</g>
<!-- Node5&#45;&gt;Node10 -->
<g id="edge9" class="edge"><title>Node5&#45;&gt;Node10</title>
<path fill="none" stroke="midnightblue" d="M1133.42,-56.324C1118,-47.7428 1094.19,-34.486 1076.29,-24.5224"/>
<polygon fill="midnightblue" stroke="midnightblue" points="1077.99,-21.4606 1067.55,-19.6545 1074.58,-27.5767 1077.99,-21.4606"/>
</g>
<!-- Node13&#45;&gt;Node4 -->
<g id="edge13" class="edge"><title>Node13&#45;&gt;Node4</title>
<path fill="none" stroke="midnightblue" d="M787.703,-242.452C728.714,-229.751 625.235,-206.674 620,-200 611.222,-188.81 610.555,-178.633 620,-168 641.011,-144.346 841.624,-130.94 942.157,-125.656"/>
<polygon fill="midnightblue" stroke="midnightblue" points="942.635,-129.136 952.442,-125.125 942.275,-122.145 942.635,-129.136"/>
</g>
<!-- Node13&#45;&gt;Node11 -->
<g id="edge14" class="edge"><title>Node13&#45;&gt;Node11</title>
<path fill="none" stroke="midnightblue" d="M785.218,-242.487C772.911,-240.198 759.449,-237.848 747,-236 604.996,-214.916 567.981,-221.243 426,-200 413.772,-198.17 400.556,-195.839 388.458,-193.563"/>
<polygon fill="midnightblue" stroke="midnightblue" points="389.083,-190.119 378.603,-191.676 387.767,-196.994 389.083,-190.119"/>
</g>
<!-- Node13&#45;&gt;Node12 -->
<g id="edge15" class="edge"><title>Node13&#45;&gt;Node12</title>
<path fill="none" stroke="midnightblue" d="M787.364,-242.424C774.507,-239.993 760.206,-237.581 747,-236 459.28,-201.547 381.815,-247.746 96,-200 90.3997,-199.064 84.5461,-197.756 78.8581,-196.298"/>
<polygon fill="midnightblue" stroke="midnightblue" points="79.4586,-192.833 68.8887,-193.56 77.6048,-199.583 79.4586,-192.833"/>
</g>
<!-- Node14 -->
<g id="node14" class="node"><title>Node14</title>
<polygon fill="white" stroke="#bfbfbf" points="629.5,-174.5 629.5,-193.5 704.5,-193.5 704.5,-174.5 629.5,-174.5"/>
<text text-anchor="middle" x="667" y="-181.5" font-family="Helvetica,sans-Serif" font-size="10.00">Eigen/Sparse</text>
</g>
<!-- Node13&#45;&gt;Node14 -->
<g id="edge16" class="edge"><title>Node13&#45;&gt;Node14</title>
<path fill="none" stroke="midnightblue" d="M806.952,-242.372C778.912,-230.877 729.128,-210.469 697.118,-197.346"/>
<polygon fill="midnightblue" stroke="midnightblue" points="698.378,-194.081 687.798,-193.526 695.723,-200.557 698.378,-194.081"/>
</g>
<!-- Node15 -->
<g id="node15" class="node"><title>Node15</title>
<polygon fill="white" stroke="#bfbfbf" points="722.5,-174.5 722.5,-193.5 781.5,-193.5 781.5,-174.5 722.5,-174.5"/>
<text text-anchor="middle" x="752" y="-181.5" font-family="Helvetica,sans-Serif" font-size="10.00">functional</text>
</g>
<!-- Node13&#45;&gt;Node15 -->
<g id="edge17" class="edge"><title>Node13&#45;&gt;Node15</title>
<path fill="none" stroke="midnightblue" d="M818.064,-242.372C805.843,-231.758 784.87,-213.545 769.832,-200.485"/>
<polygon fill="midnightblue" stroke="midnightblue" points="772.026,-197.755 762.181,-193.841 767.436,-203.041 772.026,-197.755"/>
</g>
<!-- Node16 -->
<g id="node16" class="node"><title>Node16</title>
<polygon fill="white" stroke="#bfbfbf" points="799.5,-169 799.5,-199 932.5,-199 932.5,-169 799.5,-169"/>
<text text-anchor="start" x="807.5" y="-187" font-family="Helvetica,sans-Serif" font-size="10.00">unsupported/Eigen/Aligned</text>
<text text-anchor="middle" x="866" y="-176" font-family="Helvetica,sans-Serif" font-size="10.00">Vector3</text>
</g>
<!-- Node13&#45;&gt;Node16 -->
<g id="edge18" class="edge"><title>Node13&#45;&gt;Node16</title>
<path fill="none" stroke="midnightblue" d="M832.968,-242.372C837.952,-233.714 845.848,-220.001 852.67,-208.152"/>
<polygon fill="midnightblue" stroke="midnightblue" points="855.878,-209.594 857.835,-199.181 849.812,-206.101 855.878,-209.594"/>
</g>
<!-- Node17 -->
<g id="node17" class="node"><title>Node17</title>
<g id="a_node17"><a xlink:href="Math_8hpp.html" target="_top" xlink:title="Core/Math/Math.hpp">
<polygon fill="white" stroke="black" points="105,-174.5 105,-193.5 211,-193.5 211,-174.5 105,-174.5"/>
<text text-anchor="middle" x="158" y="-181.5" font-family="Helvetica,sans-Serif" font-size="10.00">Core/Math/Math.hpp</text>
</a>
</g>
</g>
<!-- Node13&#45;&gt;Node17 -->
<g id="edge19" class="edge"><title>Node13&#45;&gt;Node17</title>
<path fill="none" stroke="midnightblue" d="M786.507,-242.475C773.865,-240.105 759.901,-237.714 747,-236 551.183,-209.981 500.707,-218.095 304,-200 276.784,-197.496 246.744,-194.457 221.024,-191.771"/>
<polygon fill="midnightblue" stroke="midnightblue" points="221.337,-188.285 211.026,-190.722 220.606,-195.247 221.337,-188.285"/>
</g>
<!-- Node21 -->
<g id="node21" class="node"><title>Node21</title>
<g id="a_node21"><a xlink:href="LinearAlgebra_8inl.html" target="_top" xlink:title="Core/Math/LinearAlgebra.inl">
<polygon fill="white" stroke="black" points="435.5,-174.5 435.5,-193.5 572.5,-193.5 572.5,-174.5 435.5,-174.5"/>
<text text-anchor="middle" x="504" y="-181.5" font-family="Helvetica,sans-Serif" font-size="10.00">Core/Math/LinearAlgebra.inl</text>
</a>
</g>
</g>
<!-- Node13&#45;&gt;Node21 -->
<g id="edge25" class="edge"><title>Node13&#45;&gt;Node21</title>
<path fill="none" stroke="midnightblue" d="M785.975,-242.439C726.977,-230.421 619.681,-208.565 555.814,-195.555"/>
<polygon fill="midnightblue" stroke="midnightblue" points="556.448,-192.112 545.951,-193.546 555.051,-198.971 556.448,-192.112"/>
</g>
<!-- Node17&#45;&gt;Node4 -->
<g id="edge20" class="edge"><title>Node17&#45;&gt;Node4</title>
<path fill="none" stroke="midnightblue" d="M191.203,-174.449C201.923,-171.989 213.904,-169.554 225,-168 491.386,-130.688 813.528,-124.208 942.052,-123.16"/>
<polygon fill="midnightblue" stroke="midnightblue" points="942.089,-126.66 952.063,-123.086 942.038,-119.66 942.089,-126.66"/>
</g>
<!-- Node18 -->
<g id="node18" class="node"><title>Node18</title>
<polygon fill="white" stroke="#bfbfbf" points="17,-112.5 17,-131.5 73,-131.5 73,-112.5 17,-112.5"/>
<text text-anchor="middle" x="45" y="-119.5" font-family="Helvetica,sans-Serif" font-size="10.00">algorithm</text>
</g>
<!-- Node17&#45;&gt;Node18 -->
<g id="edge21" class="edge"><title>Node17&#45;&gt;Node18</title>
<path fill="none" stroke="midnightblue" d="M141.81,-174.403C123.098,-164.468 92.0769,-147.997 70.2013,-136.381"/>
<polygon fill="midnightblue" stroke="midnightblue" points="71.6337,-133.179 61.1601,-131.581 68.3509,-139.362 71.6337,-133.179"/>
</g>
<!-- Node19 -->
<g id="node19" class="node"><title>Node19</title>
<polygon fill="white" stroke="#bfbfbf" points="91,-112.5 91,-131.5 135,-131.5 135,-112.5 91,-112.5"/>
<text text-anchor="middle" x="113" y="-119.5" font-family="Helvetica,sans-Serif" font-size="10.00">cmath</text>
</g>
<!-- Node17&#45;&gt;Node19 -->
<g id="edge22" class="edge"><title>Node17&#45;&gt;Node19</title>
<path fill="none" stroke="midnightblue" d="M151.553,-174.403C144.803,-165.403 134.031,-151.041 125.587,-139.782"/>
<polygon fill="midnightblue" stroke="midnightblue" points="128.235,-137.481 119.435,-131.581 122.635,-141.681 128.235,-137.481"/>
</g>
<!-- Node20 -->
<g id="node20" class="node"><title>Node20</title>
<g id="a_node20"><a xlink:href="Math_8inl.html" target="_top" xlink:title="Core/Math/Math.inl">
<polygon fill="white" stroke="black" points="153,-112.5 153,-131.5 253,-131.5 253,-112.5 153,-112.5"/>
<text text-anchor="middle" x="203" y="-119.5" font-family="Helvetica,sans-Serif" font-size="10.00">Core/Math/Math.inl</text>
</a>
</g>
</g>
<!-- Node17&#45;&gt;Node20 -->
<g id="edge23" class="edge"><title>Node17&#45;&gt;Node20</title>
<path fill="none" stroke="midnightblue" d="M159.547,-174.403C164.445,-165.225 175.125,-150.47 184.85,-139.117"/>
<polygon fill="midnightblue" stroke="midnightblue" points="187.555,-141.345 191.667,-131.581 182.364,-136.649 187.555,-141.345"/>
</g>
<!-- Node20&#45;&gt;Node17 -->
<g id="edge24" class="edge"><title>Node20&#45;&gt;Node17</title>
<path fill="none" stroke="midnightblue" d="M201.462,-131.581C196.57,-140.752 185.893,-155.506 176.166,-166.863"/>
<polygon fill="midnightblue" stroke="midnightblue" points="173.459,-164.639 169.348,-174.403 178.651,-169.334 173.459,-164.639"/>
</g>
<!-- Node25 -->
<g id="node25" class="node"><title>Node25</title>
<polygon fill="white" stroke="#bfbfbf" points="576,-242.5 576,-261.5 616,-261.5 616,-242.5 576,-242.5"/>
<text text-anchor="middle" x="596" y="-249.5" font-family="Helvetica,sans-Serif" font-size="10.00">limits</text>
</g>
<!-- Node24&#45;&gt;Node25 -->
<g id="edge29" class="edge"><title>Node24&#45;&gt;Node25</title>
<path fill="none" stroke="midnightblue" d="M626.424,-310.372C621.109,-300.348 612.198,-283.546 605.39,-270.708"/>
<polygon fill="midnightblue" stroke="midnightblue" points="608.466,-269.036 600.688,-261.841 602.281,-272.316 608.466,-269.036"/>
</g>
<!-- Node26 -->
<g id="node26" class="node"><title>Node26</title>
<g id="a_node26"><a xlink:href="Index_8inl.html" target="_top" xlink:title="Core/Index/Index.inl">
<polygon fill="white" stroke="black" points="634,-242.5 634,-261.5 738,-261.5 738,-242.5 634,-242.5"/>
<text text-anchor="middle" x="686" y="-249.5" font-family="Helvetica,sans-Serif" font-size="10.00">Core/Index/Index.inl</text>
</a>
</g>
</g>
<!-- Node24&#45;&gt;Node26 -->
<g id="edge30" class="edge"><title>Node24&#45;&gt;Node26</title>
<path fill="none" stroke="midnightblue" d="M638.19,-310.372C646.789,-300.053 661.374,-282.551 672.179,-269.585"/>
<polygon fill="midnightblue" stroke="midnightblue" points="674.919,-271.764 678.632,-261.841 669.542,-267.283 674.919,-271.764"/>
</g>
<!-- Node27&#45;&gt;Node4 -->
<g id="edge46" class="edge"><title>Node27&#45;&gt;Node4</title>
<path fill="none" stroke="midnightblue" d="M850.788,-434.485C875.84,-427.227 906.719,-414.299 926,-392 990.913,-316.929 998.67,-189.494 999.189,-141.777"/>
<polygon fill="midnightblue" stroke="midnightblue" points="1002.69,-141.677 999.197,-131.674 995.689,-141.671 1002.69,-141.677"/>
</g>
<!-- Node27&#45;&gt;Node13 -->
<g id="edge41" class="edge"><title>Node27&#45;&gt;Node13</title>
<path fill="none" stroke="midnightblue" d="M800.429,-434.339C790.87,-424.983 776.79,-409.104 771,-392 768.15,-383.58 769.031,-380.668 771,-372 779.751,-333.471 802.584,-292.842 816.551,-270.432"/>
<polygon fill="midnightblue" stroke="midnightblue" points="819.665,-272.059 822.095,-261.746 813.765,-268.292 819.665,-272.059"/>
</g>
<!-- Node28 -->
<g id="node28" class="node"><title>Node28</title>
<g id="a_node28"><a xlink:href="VectorArray_8hpp.html" target="_top" xlink:title="Core/Containers/VectorArray.hpp">
<polygon fill="white" stroke="black" points="1057.5,-310.5 1057.5,-329.5 1218.5,-329.5 1218.5,-310.5 1057.5,-310.5"/>
<text text-anchor="middle" x="1138" y="-317.5" font-family="Helvetica,sans-Serif" font-size="10.00">Core/Containers/VectorArray.hpp</text>
</a>
</g>
</g>
<!-- Node27&#45;&gt;Node28 -->
<g id="edge33" class="edge"><title>Node27&#45;&gt;Node28</title>
<path fill="none" stroke="midnightblue" d="M854.946,-434.441C866.67,-432.273 879.299,-429.995 891,-428 942.214,-419.269 1084.05,-427.484 1122,-392 1135.96,-378.944 1139.01,-356.525 1139.17,-340.368"/>
<polygon fill="midnightblue" stroke="midnightblue" points="1142.65,-339.835 1138.89,-329.933 1135.66,-340.024 1142.65,-339.835"/>
</g>
<!-- Node32 -->
<g id="node32" class="node"><title>Node32</title>
<g id="a_node32"><a xlink:href="MeshTypes_8hpp.html" target="_top" xlink:title="Core/Mesh/MeshTypes.hpp">
<polygon fill="white" stroke="black" points="780.5,-372.5 780.5,-391.5 917.5,-391.5 917.5,-372.5 780.5,-372.5"/>
<text text-anchor="middle" x="849" y="-379.5" font-family="Helvetica,sans-Serif" font-size="10.00">Core/Mesh/MeshTypes.hpp</text>
</a>
</g>
</g>
<!-- Node27&#45;&gt;Node32 -->
<g id="edge42" class="edge"><title>Node27&#45;&gt;Node32</title>
<path fill="none" stroke="midnightblue" d="M815.588,-434.403C821.38,-425.493 830.589,-411.325 837.874,-400.118"/>
<polygon fill="midnightblue" stroke="midnightblue" points="840.907,-401.873 843.423,-391.581 835.038,-398.058 840.907,-401.873"/>
</g>
<!-- Node33 -->
<g id="node33" class="node"><title>Node33</title>
<g id="a_node33"><a xlink:href="Attribs_8hpp.html" target="_top" xlink:title="Core/Utils/Attribs.hpp">
<polygon fill="white" stroke="black" points="1188.5,-372.5 1188.5,-391.5 1299.5,-391.5 1299.5,-372.5 1188.5,-372.5"/>
<text text-anchor="middle" x="1244" y="-379.5" font-family="Helvetica,sans-Serif" font-size="10.00">Core/Utils/Attribs.hpp</text>
</a>
</g>
</g>
<!-- Node27&#45;&gt;Node33 -->
<g id="edge47" class="edge"><title>Node27&#45;&gt;Node33</title>
<path fill="none" stroke="midnightblue" d="M853.642,-434.452C865.719,-432.214 878.848,-429.898 891,-428 990.777,-412.414 1107.06,-398.385 1178.08,-390.279"/>
<polygon fill="midnightblue" stroke="midnightblue" points="1178.69,-393.734 1188.23,-389.127 1177.9,-386.778 1178.69,-393.734"/>
</g>
<!-- Node39 -->
<g id="node39" class="node"><title>Node39</title>
<g id="a_node39"><a xlink:href="TriangleMesh_8inl.html" target="_top" xlink:title="Core/Mesh/TriangleMesh.inl">
<polygon fill="white" stroke="black" points="974.5,-372.5 974.5,-391.5 1113.5,-391.5 1113.5,-372.5 974.5,-372.5"/>
<text text-anchor="middle" x="1044" y="-379.5" font-family="Helvetica,sans-Serif" font-size="10.00">Core/Mesh/TriangleMesh.inl</text>
</a>
</g>
</g>
<!-- Node27&#45;&gt;Node39 -->
<g id="edge60" class="edge"><title>Node27&#45;&gt;Node39</title>
<path fill="none" stroke="midnightblue" d="M838.626,-434.403C877.852,-423.755 948.507,-405.599 995.898,-393.96"/>
<polygon fill="midnightblue" stroke="midnightblue" points="996.755,-397.354 1005.64,-391.581 995.094,-390.554 996.755,-397.354"/>
</g>
<!-- Node28&#45;&gt;Node4 -->
<g id="edge39" class="edge"><title>Node28&#45;&gt;Node4</title>
<path fill="none" stroke="midnightblue" d="M1116.83,-310.447C1098.5,-302.077 1072.42,-287.71 1056,-268 1039.29,-247.933 1015.36,-175.638 1004.61,-141.324"/>
<polygon fill="midnightblue" stroke="midnightblue" points="1007.91,-140.149 1001.6,-131.632 1001.22,-142.22 1007.91,-140.149"/>
</g>
<!-- Node28&#45;&gt;Node13 -->
<g id="edge38" class="edge"><title>Node28&#45;&gt;Node13</title>
<path fill="none" stroke="midnightblue" d="M1097.79,-310.439C1041.46,-298.446 939.104,-276.654 877.953,-263.635"/>
<polygon fill="midnightblue" stroke="midnightblue" points="878.648,-260.205 868.138,-261.546 877.19,-267.051 878.648,-260.205"/>
</g>
<!-- Node29 -->
<g id="node29" class="node"><title>Node29</title>
<g id="a_node29"><a xlink:href="AlignedStdVector_8hpp.html" target="_top" xlink:title="Core/Containers/AlignedStd\lVector.hpp">
<polygon fill="white" stroke="black" points="1065,-237 1065,-267 1203,-267 1203,-237 1065,-237"/>
<text text-anchor="start" x="1073" y="-255" font-family="Helvetica,sans-Serif" font-size="10.00">Core/Containers/AlignedStd</text>
<text text-anchor="middle" x="1134" y="-244" font-family="Helvetica,sans-Serif" font-size="10.00">Vector.hpp</text>
</a>
</g>
</g>
<!-- Node28&#45;&gt;Node29 -->
<g id="edge34" class="edge"><title>Node28&#45;&gt;Node29</title>
<path fill="none" stroke="midnightblue" d="M1137.48,-310.372C1136.97,-301.971 1136.17,-288.811 1135.47,-277.213"/>
<polygon fill="midnightblue" stroke="midnightblue" points="1138.96,-276.951 1134.86,-267.181 1131.97,-277.375 1138.96,-276.951"/>
</g>
<!-- Node28&#45;&gt;Node31 -->
<g id="edge40" class="edge"><title>Node28&#45;&gt;Node31</title>
<path fill="none" stroke="midnightblue" d="M1155.1,-310.464C1171.4,-301.643 1195.78,-286.568 1212,-268 1228.97,-248.569 1241.12,-221.068 1247.85,-203.135"/>
<polygon fill="midnightblue" stroke="midnightblue" points="1251.19,-204.184 1251.26,-193.59 1244.6,-201.828 1251.19,-204.184"/>
</g>
<!-- Node29&#45;&gt;Node4 -->
<g id="edge35" class="edge"><title>Node29&#45;&gt;Node4</title>
<path fill="none" stroke="midnightblue" d="M1120.49,-236.886C1104.31,-220.117 1076.21,-191.46 1051,-168 1040.07,-157.834 1027.42,-146.867 1017.33,-138.305"/>
<polygon fill="midnightblue" stroke="midnightblue" points="1019.46,-135.518 1009.55,-131.749 1014.94,-140.87 1019.46,-135.518"/>
</g>
<!-- Node29&#45;&gt;Node30 -->
<g id="edge36" class="edge"><title>Node29&#45;&gt;Node30</title>
<path fill="none" stroke="midnightblue" d="M1140.51,-236.679C1145,-226.796 1151.01,-213.579 1155.82,-202.986"/>
<polygon fill="midnightblue" stroke="midnightblue" points="1159.04,-204.38 1159.99,-193.828 1152.66,-201.484 1159.04,-204.38"/>
</g>
<!-- Node29&#45;&gt;Node31 -->
<g id="edge37" class="edge"><title>Node29&#45;&gt;Node31</title>
<path fill="none" stroke="midnightblue" d="M1159.74,-236.841C1180.31,-225.528 1208.96,-209.771 1229.26,-198.605"/>
<polygon fill="midnightblue" stroke="midnightblue" points="1231.14,-201.568 1238.21,-193.682 1227.77,-195.434 1231.14,-201.568"/>
</g>
<!-- Node32&#45;&gt;Node4 -->
<g id="edge45" class="edge"><title>Node32&#45;&gt;Node4</title>
<path fill="none" stroke="midnightblue" d="M853.991,-372.416C875.389,-335.611 959.617,-190.739 988.901,-140.37"/>
<polygon fill="midnightblue" stroke="midnightblue" points="991.99,-142.021 993.99,-131.616 985.938,-138.502 991.99,-142.021"/>
</g>
<!-- Node32&#45;&gt;Node13 -->
<g id="edge44" class="edge"><title>Node32&#45;&gt;Node13</title>
<path fill="none" stroke="midnightblue" d="M847.557,-372.202C844.168,-351.551 835.646,-299.606 831.051,-271.594"/>
<polygon fill="midnightblue" stroke="midnightblue" points="834.471,-270.824 829.398,-261.522 827.563,-271.957 834.471,-270.824"/>
</g>
<!-- Node32&#45;&gt;Node24 -->
<g id="edge43" class="edge"><title>Node32&#45;&gt;Node24</title>
<path fill="none" stroke="midnightblue" d="M817.766,-372.403C779.4,-361.844 714.213,-343.903 671.889,-332.254"/>
<polygon fill="midnightblue" stroke="midnightblue" points="672.746,-328.86 662.176,-329.581 670.889,-335.609 672.746,-328.86"/>
</g>
<!-- Node33&#45;&gt;Node4 -->
<g id="edge59" class="edge"><title>Node33&#45;&gt;Node4</title>
<path fill="none" stroke="midnightblue" d="M1249.9,-372.436C1270.81,-340.972 1337.29,-230.359 1284,-168 1255.25,-134.356 1130.42,-125.717 1055.84,-123.594"/>
<polygon fill="midnightblue" stroke="midnightblue" points="1055.75,-120.09 1045.66,-123.335 1055.57,-127.088 1055.75,-120.09"/>
</g>
<!-- Node33&#45;&gt;Node28 -->
<g id="edge48" class="edge"><title>Node33&#45;&gt;Node28</title>
<path fill="none" stroke="midnightblue" d="M1228.81,-372.403C1211.34,-362.512 1182.42,-346.144 1161.92,-334.538"/>
<polygon fill="midnightblue" stroke="midnightblue" points="1163.59,-331.461 1153.16,-329.581 1160.14,-337.553 1163.59,-331.461"/>
</g>
<!-- Node33&#45;&gt;Node34 -->
<g id="edge49" class="edge"><title>Node33&#45;&gt;Node34</title>
<path fill="none" stroke="midnightblue" d="M1277.85,-372.467C1320.05,-361.827 1392.27,-343.622 1438.53,-331.959"/>
<polygon fill="midnightblue" stroke="midnightblue" points="1439.43,-335.342 1448.27,-329.503 1437.72,-328.554 1439.43,-335.342"/>
</g>
<!-- Node34&#45;&gt;Node4 -->
<g id="edge50" class="edge"><title>Node34&#45;&gt;Node4</title>
<path fill="none" stroke="midnightblue" d="M1485.68,-310.347C1491.91,-294.195 1502.44,-259.016 1487,-236 1442.58,-169.795 1397.97,-188.791 1321,-168 1229.96,-143.409 1120.61,-131.75 1055.62,-126.616"/>
<polygon fill="midnightblue" stroke="midnightblue" points="1055.82,-123.121 1045.58,-125.847 1055.29,-130.101 1055.82,-123.121"/>
</g>
<!-- Node34&#45;&gt;Node9 -->
<g id="edge51" class="edge"><title>Node34&#45;&gt;Node9</title>
<path fill="none" stroke="midnightblue" d="M1529.11,-318.812C1575.7,-316.274 1646.68,-305.803 1694,-268 1726.15,-242.32 1735,-226.144 1735,-185 1735,-185 1735,-185 1735,-121 1735,-22.3262 1577.18,-10.3582 1504.21,-10.098"/>
<polygon fill="midnightblue" stroke="midnightblue" points="1504.07,-6.59837 1494.09,-10.1356 1504.1,-13.5983 1504.07,-6.59837"/>
</g>
<!-- Node35 -->
<g id="node35" class="node"><title>Node35</title>
<polygon fill="white" stroke="#bfbfbf" points="1373,-242.5 1373,-261.5 1419,-261.5 1419,-242.5 1373,-242.5"/>
<text text-anchor="middle" x="1396" y="-249.5" font-family="Helvetica,sans-Serif" font-size="10.00">stdio.h</text>
</g>
<!-- Node34&#45;&gt;Node35 -->
<g id="edge52" class="edge"><title>Node34&#45;&gt;Node35</title>
<path fill="none" stroke="midnightblue" d="M1470.76,-310.372C1456.72,-299.6 1432.49,-281.002 1415.42,-267.906"/>
<polygon fill="midnightblue" stroke="midnightblue" points="1417.31,-264.942 1407.25,-261.63 1413.05,-270.495 1417.31,-264.942"/>
</g>
<!-- Node36 -->
<g id="node36" class="node"><title>Node36</title>
<polygon fill="white" stroke="#bfbfbf" points="1607.5,-174.5 1607.5,-193.5 1648.5,-193.5 1648.5,-174.5 1607.5,-174.5"/>
<text text-anchor="middle" x="1628" y="-181.5" font-family="Helvetica,sans-Serif" font-size="10.00">string</text>
</g>
<!-- Node34&#45;&gt;Node36 -->
<g id="edge53" class="edge"><title>Node34&#45;&gt;Node36</title>
<path fill="none" stroke="midnightblue" d="M1529.15,-313.347C1581.17,-306.028 1659.94,-291.367 1678,-268 1695.18,-245.775 1668.67,-217.228 1648.16,-200.064"/>
<polygon fill="midnightblue" stroke="midnightblue" points="1650.15,-197.174 1640.15,-193.663 1645.78,-202.641 1650.15,-197.174"/>
</g>
<!-- Node37 -->
<g id="node37" class="node"><title>Node37</title>
<g id="a_node37"><a xlink:href="StringUtils_8hpp.html" target="_top" xlink:title="Core/String/StringUtils.hpp">
<polygon fill="white" stroke="black" points="1535,-242.5 1535,-261.5 1669,-261.5 1669,-242.5 1535,-242.5"/>
<text text-anchor="middle" x="1602" y="-249.5" font-family="Helvetica,sans-Serif" font-size="10.00">Core/String/StringUtils.hpp</text>
</a>
</g>
</g>
<!-- Node34&#45;&gt;Node37 -->
<g id="edge54" class="edge"><title>Node34&#45;&gt;Node37</title>
<path fill="none" stroke="midnightblue" d="M1497.69,-310.372C1517.99,-299.205 1553.59,-279.627 1577.48,-266.488"/>
<polygon fill="midnightblue" stroke="midnightblue" points="1579.23,-269.516 1586.31,-261.63 1575.86,-263.383 1579.23,-269.516"/>
</g>
<!-- Node38 -->
<g id="node38" class="node"><title>Node38</title>
<polygon fill="white" stroke="#bfbfbf" points="1437.5,-242.5 1437.5,-261.5 1478.5,-261.5 1478.5,-242.5 1437.5,-242.5"/>
<text text-anchor="middle" x="1458" y="-249.5" font-family="Helvetica,sans-Serif" font-size="10.00">ctime</text>
</g>
<!-- Node34&#45;&gt;Node38 -->
<g id="edge58" class="edge"><title>Node34&#45;&gt;Node38</title>
<path fill="none" stroke="midnightblue" d="M1478.86,-310.372C1475.29,-300.544 1469.35,-284.202 1464.72,-271.467"/>
<polygon fill="midnightblue" stroke="midnightblue" points="1467.92,-270.043 1461.21,-261.841 1461.34,-272.435 1467.92,-270.043"/>
</g>
<!-- Node37&#45;&gt;Node4 -->
<g id="edge55" class="edge"><title>Node37&#45;&gt;Node4</title>
<path fill="none" stroke="midnightblue" d="M1596.62,-242.24C1585.2,-224.562 1556.67,-184.873 1521,-168 1439.88,-129.634 1173.75,-123.676 1055.96,-122.961"/>
<polygon fill="midnightblue" stroke="midnightblue" points="1055.73,-119.46 1045.71,-122.91 1055.69,-126.46 1055.73,-119.46"/>
</g>
<!-- Node37&#45;&gt;Node31 -->
<g id="edge57" class="edge"><title>Node37&#45;&gt;Node31</title>
<path fill="none" stroke="midnightblue" d="M1556.86,-242.439C1485.58,-228.921 1348.67,-202.955 1286.34,-191.133"/>
<polygon fill="midnightblue" stroke="midnightblue" points="1286.77,-187.653 1276.29,-189.228 1285.47,-194.53 1286.77,-187.653"/>
</g>
<!-- Node37&#45;&gt;Node36 -->
<g id="edge56" class="edge"><title>Node37&#45;&gt;Node36</title>
<path fill="none" stroke="midnightblue" d="M1605.4,-242.372C1609.27,-232.544 1615.71,-216.202 1620.73,-203.467"/>
<polygon fill="midnightblue" stroke="midnightblue" points="1624.11,-204.428 1624.52,-193.841 1617.6,-201.862 1624.11,-204.428"/>
</g>
<!-- Node39&#45;&gt;Node27 -->
<g id="edge61" class="edge"><title>Node39&#45;&gt;Node27</title>
<path fill="none" stroke="midnightblue" d="M1015.72,-391.503C976.514,-402.152 905.461,-420.41 857.93,-432.082"/>
<polygon fill="midnightblue" stroke="midnightblue" points="857.049,-428.694 848.165,-434.467 858.71,-435.494 857.049,-428.694"/>
</g>
<!-- Node42&#45;&gt;Node2 -->
<g id="edge70" class="edge"><title>Node42&#45;&gt;Node2</title>
<path fill="none" stroke="midnightblue" d="M1191.98,-459.061C1189.97,-459.388 1187.97,-459.702 1186,-460 1036.01,-482.658 858.962,-498.192 759.286,-505.74"/>
<polygon fill="midnightblue" stroke="midnightblue" points="759.005,-502.251 749.295,-506.489 759.528,-509.231 759.005,-502.251"/>
</g>
</g>
</svg>
