<?xml version="1.0" encoding="UTF-8" standalone="no"?>
<!DOCTYPE svg PUBLIC "-//W3C//DTD SVG 1.1//EN"
 "http://www.w3.org/Graphics/SVG/1.1/DTD/svg11.dtd">
<!-- Generated by graphviz version 2.36.0 (20140111.2315)
 -->
<!-- Title: /home/travis/build/STORM&#45;IRIT/Radium&#45;Engine/src/GuiBase/Viewer/TrackballCamera.cpp Pages: 1 -->
<svg width="2317pt" height="558pt"
 viewBox="0.00 0.00 2317.00 558.00" xmlns="http://www.w3.org/2000/svg" xmlns:xlink="http://www.w3.org/1999/xlink">
<g id="graph0" class="graph" transform="scale(1 1) rotate(0) translate(4 554)">
<title>/home/travis/build/STORM&#45;IRIT/Radium&#45;Engine/src/GuiBase/Viewer/TrackballCamera.cpp</title>
<polygon fill="white" stroke="none" points="-4,4 -4,-554 2313,-554 2313,4 -4,4"/>
<!-- Node1 -->
<g id="node1" class="node"><title>Node1</title>
<polygon fill="#bfbfbf" stroke="black" points="957.5,-508.5 957.5,-549.5 1160.5,-549.5 1160.5,-508.5 957.5,-508.5"/>
<text text-anchor="start" x="965.5" y="-537.5" font-family="Helvetica,sans-Serif" font-size="10.00">/home/travis/build</text>
<text text-anchor="start" x="965.5" y="-526.5" font-family="Helvetica,sans-Serif" font-size="10.00">/STORM&#45;IRIT/Radium&#45;Engine</text>
<text text-anchor="middle" x="1059" y="-515.5" font-family="Helvetica,sans-Serif" font-size="10.00">/src/GuiBase/Viewer/TrackballCamera.cpp</text>
</g>
<!-- Node2 -->
<g id="node2" class="node"><title>Node2</title>
<g id="a_node2"><a xlink:href="TrackballCamera_8hpp.html" target="_top" xlink:title="GuiBase/Viewer/Trackball\lCamera.hpp">
<polygon fill="white" stroke="black" points="313,-441 313,-471 443,-471 443,-441 313,-441"/>
<text text-anchor="start" x="321" y="-459" font-family="Helvetica,sans-Serif" font-size="10.00">GuiBase/Viewer/Trackball</text>
<text text-anchor="middle" x="378" y="-448" font-family="Helvetica,sans-Serif" font-size="10.00">Camera.hpp</text>
</a>
</g>
</g>
<!-- Node1&#45;&gt;Node2 -->
<g id="edge1" class="edge"><title>Node1&#45;&gt;Node2</title>
<path fill="none" stroke="midnightblue" d="M957.411,-520.416C839.838,-511.158 640.513,-493.981 470,-472 464.583,-471.302 458.995,-470.527 453.376,-469.708"/>
<polygon fill="midnightblue" stroke="midnightblue" points="453.665,-466.212 443.257,-468.192 452.629,-473.135 453.665,-466.212"/>
</g>
<!-- Node11 -->
<g id="node11" class="node"><title>Node11</title>
<polygon fill="white" stroke="#bfbfbf" points="1620,-0.5 1620,-19.5 1674,-19.5 1674,-0.5 1620,-0.5"/>
<text text-anchor="middle" x="1647" y="-7.5" font-family="Helvetica,sans-Serif" font-size="10.00">iostream</text>
</g>
<!-- Node1&#45;&gt;Node11 -->
<g id="edge39" class="edge"><title>Node1&#45;&gt;Node11</title>
<path fill="none" stroke="midnightblue" d="M1160.73,-525.109C1424.49,-516.266 2110,-484.133 2110,-389 2110,-389 2110,-389 2110,-121 2110,-33.7471 1794.82,-15.5923 1684.55,-11.9106"/>
<polygon fill="midnightblue" stroke="midnightblue" points="1684.34,-8.4024 1674.23,-11.5889 1684.12,-15.399 1684.34,-8.4024"/>
</g>
<!-- Node13 -->
<g id="node13" class="node"><title>Node13</title>
<g id="a_node13"><a xlink:href="Log_8hpp.html" target="_top" xlink:title="Core/Log/Log.hpp">
<polygon fill="white" stroke="black" points="0,-242.5 0,-261.5 94,-261.5 94,-242.5 0,-242.5"/>
<text text-anchor="middle" x="47" y="-249.5" font-family="Helvetica,sans-Serif" font-size="10.00">Core/Log/Log.hpp</text>
</a>
</g>
</g>
<!-- Node1&#45;&gt;Node13 -->
<g id="edge47" class="edge"><title>Node1&#45;&gt;Node13</title>
<path fill="none" stroke="midnightblue" d="M957.357,-528.216C779.437,-527.318 419.494,-519.459 304,-472 192.635,-426.238 94.5378,-312.937 60.104,-269.928"/>
<polygon fill="midnightblue" stroke="midnightblue" points="62.6839,-267.547 53.7406,-261.866 57.1895,-271.884 62.6839,-267.547"/>
</g>
<!-- Node26 -->
<g id="node26" class="node"><title>Node26</title>
<g id="a_node26"><a xlink:href="Math_8hpp.html" target="_top" xlink:title="Core/Math/Math.hpp">
<polygon fill="white" stroke="black" points="372,-174.5 372,-193.5 478,-193.5 478,-174.5 372,-174.5"/>
<text text-anchor="middle" x="425" y="-181.5" font-family="Helvetica,sans-Serif" font-size="10.00">Core/Math/Math.hpp</text>
</a>
</g>
</g>
<!-- Node1&#45;&gt;Node26 -->
<g id="edge48" class="edge"><title>Node1&#45;&gt;Node26</title>
<path fill="none" stroke="midnightblue" d="M957.195,-524.132C792.043,-515.052 484,-485.219 484,-389 484,-389 484,-389 484,-319 484,-273.47 455.117,-226.053 437.768,-201.679"/>
<polygon fill="midnightblue" stroke="midnightblue" points="440.511,-199.501 431.768,-193.518 434.871,-203.648 440.511,-199.501"/>
</g>
<!-- Node31 -->
<g id="node31" class="node"><title>Node31</title>
<polygon fill="white" stroke="#bfbfbf" points="2138,-446.5 2138,-465.5 2210,-465.5 2210,-446.5 2138,-446.5"/>
<text text-anchor="middle" x="2174" y="-453.5" font-family="Helvetica,sans-Serif" font-size="10.00">QApplication</text>
</g>
<!-- Node1&#45;&gt;Node31 -->
<g id="edge37" class="edge"><title>Node1&#45;&gt;Node31</title>
<path fill="none" stroke="midnightblue" d="M1160.82,-525.745C1390.06,-520.166 1940.9,-503.807 2124,-472 2129.22,-471.093 2134.67,-469.817 2139.97,-468.388"/>
<polygon fill="midnightblue" stroke="midnightblue" points="2141.24,-471.662 2149.87,-465.509 2139.29,-464.941 2141.24,-471.662"/>
</g>
<!-- Node32 -->
<g id="node32" class="node"><title>Node32</title>
<polygon fill="white" stroke="#bfbfbf" points="2228.5,-446.5 2228.5,-465.5 2309.5,-465.5 2309.5,-446.5 2228.5,-446.5"/>
<text text-anchor="middle" x="2269" y="-453.5" font-family="Helvetica,sans-Serif" font-size="10.00">QMessageBox</text>
</g>
<!-- Node1&#45;&gt;Node32 -->
<g id="edge38" class="edge"><title>Node1&#45;&gt;Node32</title>
<path fill="none" stroke="midnightblue" d="M1160.73,-526.258C1404.57,-521.573 2017.05,-506.635 2219,-472 2224.23,-471.104 2229.67,-469.834 2234.97,-468.408"/>
<polygon fill="midnightblue" stroke="midnightblue" points="2236.24,-471.683 2244.87,-465.531 2234.29,-464.961 2236.24,-471.683"/>
</g>
<!-- Node33 -->
<g id="node33" class="node"><title>Node33</title>
<g id="a_node33"><a xlink:href="KeyEvent_8hpp.html" target="_top" xlink:title="Core/Event/KeyEvent.hpp">
<polygon fill="white" stroke="black" points="673.5,-242.5 673.5,-261.5 804.5,-261.5 804.5,-242.5 673.5,-242.5"/>
<text text-anchor="middle" x="739" y="-249.5" font-family="Helvetica,sans-Serif" font-size="10.00">Core/Event/KeyEvent.hpp</text>
</a>
</g>
</g>
<!-- Node1&#45;&gt;Node33 -->
<g id="edge40" class="edge"><title>Node1&#45;&gt;Node33</title>
<path fill="none" stroke="midnightblue" d="M1036.24,-508.443C975.658,-456.378 811.352,-315.178 756.843,-268.334"/>
<polygon fill="midnightblue" stroke="midnightblue" points="758.935,-265.517 749.07,-261.654 754.373,-270.826 758.935,-265.517"/>
</g>
<!-- Node35 -->
<g id="node35" class="node"><title>Node35</title>
<g id="a_node35"><a xlink:href="MouseEvent_8hpp.html" target="_top" xlink:title="Core/Event/MouseEvent.hpp">
<polygon fill="white" stroke="black" points="512.5,-242.5 512.5,-261.5 655.5,-261.5 655.5,-242.5 512.5,-242.5"/>
<text text-anchor="middle" x="584" y="-249.5" font-family="Helvetica,sans-Serif" font-size="10.00">Core/Event/MouseEvent.hpp</text>
</a>
</g>
</g>
<!-- Node1&#45;&gt;Node35 -->
<g id="edge44" class="edge"><title>Node1&#45;&gt;Node35</title>
<path fill="none" stroke="midnightblue" d="M1022.89,-508.248C1003.58,-497.615 979.426,-484.211 958,-472 824.552,-395.947 666.118,-301.932 607.4,-266.959"/>
<polygon fill="midnightblue" stroke="midnightblue" points="608.924,-263.793 598.542,-261.681 605.341,-269.807 608.924,-263.793"/>
</g>
<!-- Node36 -->
<g id="node36" class="node"><title>Node36</title>
<g id="a_node36"><a xlink:href="Camera_8hpp.html" target="_top" xlink:title="Engine/Renderer/Camera\l/Camera.hpp">
<polygon fill="white" stroke="black" points="995.5,-373 995.5,-403 1122.5,-403 1122.5,-373 995.5,-373"/>
<text text-anchor="start" x="1003.5" y="-391" font-family="Helvetica,sans-Serif" font-size="10.00">Engine/Renderer/Camera</text>
<text text-anchor="middle" x="1059" y="-380" font-family="Helvetica,sans-Serif" font-size="10.00">/Camera.hpp</text>
</a>
</g>
</g>
<!-- Node1&#45;&gt;Node36 -->
<g id="edge49" class="edge"><title>Node1&#45;&gt;Node36</title>
<path fill="none" stroke="midnightblue" d="M1059,-508.38C1059,-483.386 1059,-440.202 1059,-413.195"/>
<polygon fill="midnightblue" stroke="midnightblue" points="1062.5,-413.043 1059,-403.043 1055.5,-413.043 1062.5,-413.043"/>
</g>
<!-- Node40 -->
<g id="node40" class="node"><title>Node40</title>
<g id="a_node40"><a xlink:href="Light_8hpp.html" target="_top" xlink:title="Engine/Renderer/Light\l/Light.hpp">
<polygon fill="white" stroke="black" points="1241.5,-441 1241.5,-471 1354.5,-471 1354.5,-441 1241.5,-441"/>
<text text-anchor="start" x="1249.5" y="-459" font-family="Helvetica,sans-Serif" font-size="10.00">Engine/Renderer/Light</text>
<text text-anchor="middle" x="1298" y="-448" font-family="Helvetica,sans-Serif" font-size="10.00">/Light.hpp</text>
</a>
</g>
</g>
<!-- Node1&#45;&gt;Node40 -->
<g id="edge58" class="edge"><title>Node1&#45;&gt;Node40</title>
<path fill="none" stroke="midnightblue" d="M1124.94,-508.411C1161.28,-497.614 1205.96,-484.342 1240.82,-473.988"/>
<polygon fill="midnightblue" stroke="midnightblue" points="1242.24,-477.215 1250.83,-471.012 1240.25,-470.504 1242.24,-477.215"/>
</g>
<!-- Node45 -->
<g id="node45" class="node"><title>Node45</title>
<g id="a_node45"><a xlink:href="KeyMappingManager_8hpp.html" target="_top" xlink:title="GuiBase/Utils/KeyMapping\lManager.hpp">
<polygon fill="white" stroke="black" points="1772,-237 1772,-267 1906,-267 1906,-237 1772,-237"/>
<text text-anchor="start" x="1780" y="-255" font-family="Helvetica,sans-Serif" font-size="10.00">GuiBase/Utils/KeyMapping</text>
<text text-anchor="middle" x="1839" y="-244" font-family="Helvetica,sans-Serif" font-size="10.00">Manager.hpp</text>
</a>
</g>
</g>
<!-- Node1&#45;&gt;Node45 -->
<g id="edge70" class="edge"><title>Node1&#45;&gt;Node45</title>
<path fill="none" stroke="midnightblue" d="M1160.69,-513.981C1220.25,-504.604 1296.59,-490.567 1363,-472 1526.92,-426.173 1570.66,-415.806 1721,-336 1755.09,-317.905 1790.89,-291.526 1813.99,-273.388"/>
<polygon fill="midnightblue" stroke="midnightblue" points="1816.24,-276.068 1821.9,-267.11 1811.89,-270.585 1816.24,-276.068"/>
</g>
<!-- Node3 -->
<g id="node3" class="node"><title>Node3</title>
<g id="a_node3"><a xlink:href="CameraInterface_8hpp.html" target="_top" xlink:title="GuiBase/Viewer/CameraInterface.hpp">
<polygon fill="white" stroke="black" points="252,-310.5 252,-329.5 434,-329.5 434,-310.5 252,-310.5"/>
<text text-anchor="middle" x="343" y="-317.5" font-family="Helvetica,sans-Serif" font-size="10.00">GuiBase/Viewer/CameraInterface.hpp</text>
</a>
</g>
</g>
<!-- Node2&#45;&gt;Node3 -->
<g id="edge2" class="edge"><title>Node2&#45;&gt;Node3</title>
<path fill="none" stroke="midnightblue" d="M374.254,-440.66C367.869,-416.211 354.882,-366.492 347.826,-339.476"/>
<polygon fill="midnightblue" stroke="midnightblue" points="351.193,-338.518 345.28,-329.728 344.42,-340.287 351.193,-338.518"/>
</g>
<!-- Node4 -->
<g id="node4" class="node"><title>Node4</title>
<polygon fill="white" stroke="#bfbfbf" points="366,-242.5 366,-261.5 418,-261.5 418,-242.5 366,-242.5"/>
<text text-anchor="middle" x="392" y="-249.5" font-family="Helvetica,sans-Serif" font-size="10.00">memory</text>
</g>
<!-- Node3&#45;&gt;Node4 -->
<g id="edge3" class="edge"><title>Node3&#45;&gt;Node4</title>
<path fill="none" stroke="midnightblue" d="M349.406,-310.372C356.994,-300.151 369.813,-282.884 379.411,-269.957"/>
<polygon fill="midnightblue" stroke="midnightblue" points="382.285,-271.957 385.436,-261.841 376.665,-267.784 382.285,-271.957"/>
</g>
<!-- Node5 -->
<g id="node5" class="node"><title>Node5</title>
<polygon fill="white" stroke="#bfbfbf" points="112.5,-242.5 112.5,-261.5 179.5,-261.5 179.5,-242.5 112.5,-242.5"/>
<text text-anchor="middle" x="146" y="-249.5" font-family="Helvetica,sans-Serif" font-size="10.00">QKeyEvent</text>
</g>
<!-- Node3&#45;&gt;Node5 -->
<g id="edge4" class="edge"><title>Node3&#45;&gt;Node5</title>
<path fill="none" stroke="midnightblue" d="M316.328,-310.449C285.389,-300.478 232.884,-283.396 188,-268 185.091,-267.002 182.074,-265.953 179.052,-264.892"/>
<polygon fill="midnightblue" stroke="midnightblue" points="180.105,-261.552 169.51,-261.514 177.768,-268.151 180.105,-261.552"/>
</g>
<!-- Node6 -->
<g id="node6" class="node"><title>Node6</title>
<polygon fill="white" stroke="#bfbfbf" points="197.5,-242.5 197.5,-261.5 276.5,-261.5 276.5,-242.5 197.5,-242.5"/>
<text text-anchor="middle" x="237" y="-249.5" font-family="Helvetica,sans-Serif" font-size="10.00">QMouseEvent</text>
</g>
<!-- Node3&#45;&gt;Node6 -->
<g id="edge5" class="edge"><title>Node3&#45;&gt;Node6</title>
<path fill="none" stroke="midnightblue" d="M329.142,-310.372C311.446,-299.353 280.596,-280.145 259.508,-267.014"/>
<polygon fill="midnightblue" stroke="midnightblue" points="261.2,-263.945 250.861,-261.63 257.5,-269.887 261.2,-263.945"/>
</g>
<!-- Node7 -->
<g id="node7" class="node"><title>Node7</title>
<polygon fill="white" stroke="#bfbfbf" points="294.5,-242.5 294.5,-261.5 347.5,-261.5 347.5,-242.5 294.5,-242.5"/>
<text text-anchor="middle" x="321" y="-249.5" font-family="Helvetica,sans-Serif" font-size="10.00">QObject</text>
</g>
<!-- Node3&#45;&gt;Node7 -->
<g id="edge6" class="edge"><title>Node3&#45;&gt;Node7</title>
<path fill="none" stroke="midnightblue" d="M340.124,-310.372C336.848,-300.544 331.401,-284.202 327.156,-271.467"/>
<polygon fill="midnightblue" stroke="midnightblue" points="330.43,-270.221 323.947,-261.841 323.789,-272.435 330.43,-270.221"/>
</g>
<!-- Node8 -->
<g id="node8" class="node"><title>Node8</title>
<g id="a_node8"><a xlink:href="CoreMacros_8hpp.html" target="_top" xlink:title="Core/CoreMacros.hpp">
<polygon fill="white" stroke="red" points="1028.5,-56.5 1028.5,-75.5 1141.5,-75.5 1141.5,-56.5 1028.5,-56.5"/>
<text text-anchor="middle" x="1085" y="-63.5" font-family="Helvetica,sans-Serif" font-size="10.00">Core/CoreMacros.hpp</text>
</a>
</g>
</g>
<!-- Node3&#45;&gt;Node8 -->
<g id="edge7" class="edge"><title>Node3&#45;&gt;Node8</title>
<path fill="none" stroke="midnightblue" d="M370.657,-310.39C390.227,-302.683 415.035,-289.262 427,-268 433.975,-255.606 434.18,-248.277 427,-236 410.524,-207.829 379.476,-228.171 363,-200 343.255,-166.239 336.218,-140.503 363,-112 385.252,-88.3174 843.586,-73.5118 1018.22,-68.7118"/>
<polygon fill="midnightblue" stroke="midnightblue" points="1018.41,-72.2079 1028.31,-68.4368 1018.22,-65.2105 1018.41,-72.2079"/>
</g>
<!-- Node3&#45;&gt;Node13 -->
<g id="edge12" class="edge"><title>Node3&#45;&gt;Node13</title>
<path fill="none" stroke="midnightblue" d="M299.49,-310.467C251.289,-300.848 171.344,-284.403 103,-268 97.9903,-266.798 92.745,-265.476 87.5588,-264.132"/>
<polygon fill="midnightblue" stroke="midnightblue" points="88.2972,-260.707 77.7354,-261.543 86.5132,-267.476 88.2972,-260.707"/>
</g>
<!-- Node20 -->
<g id="node20" class="node"><title>Node20</title>
<g id="a_node20"><a xlink:href="LinearAlgebra_8hpp.html" target="_top" xlink:title="Core/Math/LinearAlgebra.hpp">
<polygon fill="white" stroke="black" points="1033.5,-242.5 1033.5,-261.5 1176.5,-261.5 1176.5,-242.5 1033.5,-242.5"/>
<text text-anchor="middle" x="1105" y="-249.5" font-family="Helvetica,sans-Serif" font-size="10.00">Core/Math/LinearAlgebra.hpp</text>
</a>
</g>
</g>
<!-- Node3&#45;&gt;Node20 -->
<g id="edge23" class="edge"><title>Node3&#45;&gt;Node20</title>
<path fill="none" stroke="midnightblue" d="M434.158,-311.104C583.937,-298.131 879.762,-272.509 1023.2,-260.085"/>
<polygon fill="midnightblue" stroke="midnightblue" points="1023.59,-263.564 1033.25,-259.214 1022.99,-256.59 1023.59,-263.564"/>
</g>
<!-- Node9 -->
<g id="node9" class="node"><title>Node9</title>
<polygon fill="white" stroke="#bfbfbf" points="1028.5,-0.5 1028.5,-19.5 1077.5,-19.5 1077.5,-0.5 1028.5,-0.5"/>
<text text-anchor="middle" x="1053" y="-7.5" font-family="Helvetica,sans-Serif" font-size="10.00">cassert</text>
</g>
<!-- Node8&#45;&gt;Node9 -->
<g id="edge8" class="edge"><title>Node8&#45;&gt;Node9</title>
<path fill="none" stroke="midnightblue" d="M1079.72,-56.083C1075.29,-48.6127 1068.84,-37.7244 1063.38,-28.5199"/>
<polygon fill="midnightblue" stroke="midnightblue" points="1066.29,-26.5697 1058.19,-19.7511 1060.27,-30.1383 1066.29,-26.5697"/>
</g>
<!-- Node10 -->
<g id="node10" class="node"><title>Node10</title>
<polygon fill="white" stroke="#bfbfbf" points="1095.5,-0.5 1095.5,-19.5 1138.5,-19.5 1138.5,-0.5 1095.5,-0.5"/>
<text text-anchor="middle" x="1117" y="-7.5" font-family="Helvetica,sans-Serif" font-size="10.00">cstdio</text>
</g>
<!-- Node8&#45;&gt;Node10 -->
<g id="edge9" class="edge"><title>Node8&#45;&gt;Node10</title>
<path fill="none" stroke="midnightblue" d="M1090.28,-56.083C1094.71,-48.6127 1101.16,-37.7244 1106.62,-28.5199"/>
<polygon fill="midnightblue" stroke="midnightblue" points="1109.73,-30.1383 1111.81,-19.7511 1103.71,-26.5697 1109.73,-30.1383"/>
</g>
<!-- Node8&#45;&gt;Node11 -->
<g id="edge10" class="edge"><title>Node8&#45;&gt;Node11</title>
<path fill="none" stroke="midnightblue" d="M1141.72,-59.55C1256.56,-48.5155 1513.82,-23.7966 1609.88,-14.5664"/>
<polygon fill="midnightblue" stroke="midnightblue" points="1610.37,-18.0357 1619.99,-13.5952 1609.7,-11.0678 1610.37,-18.0357"/>
</g>
<!-- Node12 -->
<g id="node12" class="node"><title>Node12</title>
<polygon fill="white" stroke="#bfbfbf" points="462,-0.5 462,-19.5 514,-19.5 514,-0.5 462,-0.5"/>
<text text-anchor="middle" x="488" y="-7.5" font-family="Helvetica,sans-Serif" font-size="10.00">sstream</text>
</g>
<!-- Node8&#45;&gt;Node12 -->
<g id="edge11" class="edge"><title>Node8&#45;&gt;Node12</title>
<path fill="none" stroke="midnightblue" d="M1028.3,-59.8711C906.981,-48.8978 625.114,-23.4022 524.501,-14.3016"/>
<polygon fill="midnightblue" stroke="midnightblue" points="524.516,-10.7887 514.241,-13.3736 523.885,-17.7603 524.516,-10.7887"/>
</g>
<!-- Node13&#45;&gt;Node12 -->
<g id="edge15" class="edge"><title>Node13&#45;&gt;Node12</title>
<path fill="none" stroke="midnightblue" d="M38.1033,-242.214C23.8244,-226.998 -1.40598,-194.796 11,-168 27.1623,-133.09 42.7418,-129.501 77,-112 204.851,-46.6873 376.964,-22.237 451.294,-14.3204"/>
<polygon fill="midnightblue" stroke="midnightblue" points="451.945,-17.7722 461.535,-13.2695 451.23,-10.8088 451.945,-17.7722"/>
</g>
<!-- Node14 -->
<g id="node14" class="node"><title>Node14</title>
<g id="a_node14"><a xlink:href="RaCore_8hpp.html" target="_top" xlink:title="Core/RaCore.hpp">
<polygon fill="white" stroke="black" points="697.5,-112.5 697.5,-131.5 790.5,-131.5 790.5,-112.5 697.5,-112.5"/>
<text text-anchor="middle" x="744" y="-119.5" font-family="Helvetica,sans-Serif" font-size="10.00">Core/RaCore.hpp</text>
</a>
</g>
</g>
<!-- Node13&#45;&gt;Node14 -->
<g id="edge13" class="edge"><title>Node13&#45;&gt;Node14</title>
<path fill="none" stroke="midnightblue" d="M75.28,-242.435C84.0904,-240.035 93.8861,-237.637 103,-236 271.28,-205.775 321.206,-245.546 486,-200 517.807,-191.209 521.873,-178.958 553,-168 597.1,-152.475 648.808,-140.664 687.293,-133.045"/>
<polygon fill="midnightblue" stroke="midnightblue" points="688.13,-136.448 697.279,-131.104 686.794,-129.577 688.13,-136.448"/>
</g>
<!-- Node15 -->
<g id="node15" class="node"><title>Node15</title>
<polygon fill="white" stroke="#bfbfbf" points="270,-174.5 270,-193.5 316,-193.5 316,-174.5 270,-174.5"/>
<text text-anchor="middle" x="293" y="-181.5" font-family="Helvetica,sans-Serif" font-size="10.00">stdio.h</text>
</g>
<!-- Node13&#45;&gt;Node15 -->
<g id="edge16" class="edge"><title>Node13&#45;&gt;Node15</title>
<path fill="none" stroke="midnightblue" d="M78.048,-242.46C86.1539,-240.292 94.8913,-238.009 103,-236 172.908,-218.68 192.892,-223.419 261,-200 262.915,-199.342 264.868,-198.604 266.817,-197.818"/>
<polygon fill="midnightblue" stroke="midnightblue" points="268.594,-200.86 276.341,-193.633 265.778,-194.451 268.594,-200.86"/>
</g>
<!-- Node16 -->
<g id="node16" class="node"><title>Node16</title>
<polygon fill="white" stroke="#bfbfbf" points="86.5,-112.5 86.5,-131.5 127.5,-131.5 127.5,-112.5 86.5,-112.5"/>
<text text-anchor="middle" x="107" y="-119.5" font-family="Helvetica,sans-Serif" font-size="10.00">string</text>
</g>
<!-- Node13&#45;&gt;Node16 -->
<g id="edge17" class="edge"><title>Node13&#45;&gt;Node16</title>
<path fill="none" stroke="midnightblue" d="M51.124,-242.202C60.8904,-221.367 85.5873,-168.681 98.6317,-140.852"/>
<polygon fill="midnightblue" stroke="midnightblue" points="101.93,-142.063 103.005,-131.522 95.5916,-139.091 101.93,-142.063"/>
</g>
<!-- Node17 -->
<g id="node17" class="node"><title>Node17</title>
<g id="a_node17"><a xlink:href="StringUtils_8hpp.html" target="_top" xlink:title="Core/String/StringUtils.hpp">
<polygon fill="white" stroke="black" points="118,-174.5 118,-193.5 252,-193.5 252,-174.5 118,-174.5"/>
<text text-anchor="middle" x="185" y="-181.5" font-family="Helvetica,sans-Serif" font-size="10.00">Core/String/StringUtils.hpp</text>
</a>
</g>
</g>
<!-- Node13&#45;&gt;Node17 -->
<g id="edge18" class="edge"><title>Node13&#45;&gt;Node17</title>
<path fill="none" stroke="midnightblue" d="M65.0411,-242.372C88.6993,-231.057 130.416,-211.105 157.885,-197.968"/>
<polygon fill="midnightblue" stroke="midnightblue" points="159.443,-201.103 166.954,-193.63 156.423,-194.788 159.443,-201.103"/>
</g>
<!-- Node19 -->
<g id="node19" class="node"><title>Node19</title>
<polygon fill="white" stroke="#bfbfbf" points="20.5,-174.5 20.5,-193.5 61.5,-193.5 61.5,-174.5 20.5,-174.5"/>
<text text-anchor="middle" x="41" y="-181.5" font-family="Helvetica,sans-Serif" font-size="10.00">ctime</text>
</g>
<!-- Node13&#45;&gt;Node19 -->
<g id="edge22" class="edge"><title>Node13&#45;&gt;Node19</title>
<path fill="none" stroke="midnightblue" d="M46.2156,-242.372C45.3311,-232.643 43.8662,-216.528 42.7137,-203.85"/>
<polygon fill="midnightblue" stroke="midnightblue" points="46.1948,-203.483 41.8037,-193.841 39.2236,-204.117 46.1948,-203.483"/>
</g>
<!-- Node14&#45;&gt;Node8 -->
<g id="edge14" class="edge"><title>Node14&#45;&gt;Node8</title>
<path fill="none" stroke="midnightblue" d="M790.7,-113.605C850.47,-104.14 954.279,-87.7007 1021.28,-77.0912"/>
<polygon fill="midnightblue" stroke="midnightblue" points="1021.96,-80.5262 1031.29,-75.5052 1020.87,-73.6124 1021.96,-80.5262"/>
</g>
<!-- Node17&#45;&gt;Node14 -->
<g id="edge19" class="edge"><title>Node17&#45;&gt;Node14</title>
<path fill="none" stroke="midnightblue" d="M224.314,-174.448C236.071,-172.105 249.021,-169.736 261,-168 341.843,-156.287 577.518,-136.485 686.945,-127.58"/>
<polygon fill="midnightblue" stroke="midnightblue" points="687.447,-131.051 697.131,-126.753 686.88,-124.074 687.447,-131.051"/>
</g>
<!-- Node17&#45;&gt;Node16 -->
<g id="edge20" class="edge"><title>Node17&#45;&gt;Node16</title>
<path fill="none" stroke="midnightblue" d="M173.825,-174.403C161.429,-164.869 141.21,-149.315 126.254,-137.811"/>
<polygon fill="midnightblue" stroke="midnightblue" points="128.215,-134.904 118.155,-131.581 123.947,-140.452 128.215,-134.904"/>
</g>
<!-- Node18 -->
<g id="node18" class="node"><title>Node18</title>
<polygon fill="white" stroke="#bfbfbf" points="163,-112.5 163,-131.5 207,-131.5 207,-112.5 163,-112.5"/>
<text text-anchor="middle" x="185" y="-119.5" font-family="Helvetica,sans-Serif" font-size="10.00">vector</text>
</g>
<!-- Node17&#45;&gt;Node18 -->
<g id="edge21" class="edge"><title>Node17&#45;&gt;Node18</title>
<path fill="none" stroke="midnightblue" d="M185,-174.403C185,-165.938 185,-152.728 185,-141.82"/>
<polygon fill="midnightblue" stroke="midnightblue" points="188.5,-141.581 185,-131.581 181.5,-141.581 188.5,-141.581"/>
</g>
<!-- Node20&#45;&gt;Node14 -->
<g id="edge24" class="edge"><title>Node20&#45;&gt;Node14</title>
<path fill="none" stroke="midnightblue" d="M1033.5,-246.794C978.216,-241.336 900.93,-228.799 839,-200 830.309,-195.958 786.607,-159.303 761.613,-138.057"/>
<polygon fill="midnightblue" stroke="midnightblue" points="763.813,-135.334 753.931,-131.512 759.273,-140.662 763.813,-135.334"/>
</g>
<!-- Node21 -->
<g id="node21" class="node"><title>Node21</title>
<polygon fill="white" stroke="#bfbfbf" points="1231.5,-174.5 1231.5,-193.5 1296.5,-193.5 1296.5,-174.5 1231.5,-174.5"/>
<text text-anchor="middle" x="1264" y="-181.5" font-family="Helvetica,sans-Serif" font-size="10.00">Eigen/Core</text>
</g>
<!-- Node20&#45;&gt;Node21 -->
<g id="edge25" class="edge"><title>Node20&#45;&gt;Node21</title>
<path fill="none" stroke="midnightblue" d="M1125.79,-242.372C1153.36,-230.927 1202.22,-210.644 1233.85,-197.517"/>
<polygon fill="midnightblue" stroke="midnightblue" points="1235.57,-200.592 1243.46,-193.526 1232.88,-194.127 1235.57,-200.592"/>
</g>
<!-- Node22 -->
<g id="node22" class="node"><title>Node22</title>
<polygon fill="white" stroke="#bfbfbf" points="1407.5,-174.5 1407.5,-193.5 1494.5,-193.5 1494.5,-174.5 1407.5,-174.5"/>
<text text-anchor="middle" x="1451" y="-181.5" font-family="Helvetica,sans-Serif" font-size="10.00">Eigen/Geometry</text>
</g>
<!-- Node20&#45;&gt;Node22 -->
<g id="edge26" class="edge"><title>Node20&#45;&gt;Node22</title>
<path fill="none" stroke="midnightblue" d="M1164.56,-242.482C1224.02,-233.545 1317.83,-218.27 1398,-200 1402.82,-198.902 1407.85,-197.637 1412.81,-196.316"/>
<polygon fill="midnightblue" stroke="midnightblue" points="1414.1,-199.592 1422.81,-193.563 1412.24,-192.843 1414.1,-199.592"/>
</g>
<!-- Node23 -->
<g id="node23" class="node"><title>Node23</title>
<polygon fill="white" stroke="#bfbfbf" points="1314.5,-174.5 1314.5,-193.5 1389.5,-193.5 1389.5,-174.5 1314.5,-174.5"/>
<text text-anchor="middle" x="1352" y="-181.5" font-family="Helvetica,sans-Serif" font-size="10.00">Eigen/Sparse</text>
</g>
<!-- Node20&#45;&gt;Node23 -->
<g id="edge27" class="edge"><title>Node20&#45;&gt;Node23</title>
<path fill="none" stroke="midnightblue" d="M1141.3,-242.428C1181.51,-232.775 1248.17,-216.3 1305,-200 1308.78,-198.915 1312.72,-197.737 1316.64,-196.533"/>
<polygon fill="midnightblue" stroke="midnightblue" points="1317.73,-199.859 1326.23,-193.529 1315.64,-193.179 1317.73,-199.859"/>
</g>
<!-- Node24 -->
<g id="node24" class="node"><title>Node24</title>
<polygon fill="white" stroke="#bfbfbf" points="848.5,-174.5 848.5,-193.5 907.5,-193.5 907.5,-174.5 848.5,-174.5"/>
<text text-anchor="middle" x="878" y="-181.5" font-family="Helvetica,sans-Serif" font-size="10.00">functional</text>
</g>
<!-- Node20&#45;&gt;Node24 -->
<g id="edge28" class="edge"><title>Node20&#45;&gt;Node24</title>
<path fill="none" stroke="midnightblue" d="M1068.41,-242.421C1030.07,-233.133 968.267,-217.307 916,-200 913.376,-199.131 910.671,-198.179 907.969,-197.19"/>
<polygon fill="midnightblue" stroke="midnightblue" points="908.946,-193.817 898.356,-193.522 906.451,-200.357 908.946,-193.817"/>
</g>
<!-- Node25 -->
<g id="node25" class="node"><title>Node25</title>
<polygon fill="white" stroke="#bfbfbf" points="925.5,-169 925.5,-199 1058.5,-199 1058.5,-169 925.5,-169"/>
<text text-anchor="start" x="933.5" y="-187" font-family="Helvetica,sans-Serif" font-size="10.00">unsupported/Eigen/Aligned</text>
<text text-anchor="middle" x="992" y="-176" font-family="Helvetica,sans-Serif" font-size="10.00">Vector3</text>
</g>
<!-- Node20&#45;&gt;Node25 -->
<g id="edge29" class="edge"><title>Node20&#45;&gt;Node25</title>
<path fill="none" stroke="midnightblue" d="M1090.23,-242.372C1073.79,-232.771 1046.71,-216.954 1025.14,-204.356"/>
<polygon fill="midnightblue" stroke="midnightblue" points="1026.68,-201.203 1016.28,-199.181 1023.15,-207.247 1026.68,-201.203"/>
</g>
<!-- Node20&#45;&gt;Node26 -->
<g id="edge30" class="edge"><title>Node20&#45;&gt;Node26</title>
<path fill="none" stroke="midnightblue" d="M1033.08,-244.565C929.24,-235.2 731.315,-217.066 563,-200 538.564,-197.522 511.712,-194.64 488.241,-192.068"/>
<polygon fill="midnightblue" stroke="midnightblue" points="488.384,-188.563 478.062,-190.949 487.619,-195.521 488.384,-188.563"/>
</g>
<!-- Node30 -->
<g id="node30" class="node"><title>Node30</title>
<g id="a_node30"><a xlink:href="LinearAlgebra_8inl.html" target="_top" xlink:title="Core/Math/LinearAlgebra.inl">
<polygon fill="white" stroke="black" points="1076.5,-174.5 1076.5,-193.5 1213.5,-193.5 1213.5,-174.5 1076.5,-174.5"/>
<text text-anchor="middle" x="1145" y="-181.5" font-family="Helvetica,sans-Serif" font-size="10.00">Core/Math/LinearAlgebra.inl</text>
</a>
</g>
</g>
<!-- Node20&#45;&gt;Node30 -->
<g id="edge36" class="edge"><title>Node20&#45;&gt;Node30</title>
<path fill="none" stroke="midnightblue" d="M1110.23,-242.372C1116.3,-232.348 1126.49,-215.546 1134.27,-202.708"/>
<polygon fill="midnightblue" stroke="midnightblue" points="1137.45,-204.207 1139.64,-193.841 1131.47,-200.579 1137.45,-204.207"/>
</g>
<!-- Node26&#45;&gt;Node14 -->
<g id="edge31" class="edge"><title>Node26&#45;&gt;Node14</title>
<path fill="none" stroke="midnightblue" d="M461.8,-174.459C471.596,-172.268 482.184,-169.974 492,-168 558.988,-154.527 636.409,-141.006 687.569,-132.354"/>
<polygon fill="midnightblue" stroke="midnightblue" points="688.161,-135.804 697.44,-130.69 686.997,-128.901 688.161,-135.804"/>
</g>
<!-- Node27 -->
<g id="node27" class="node"><title>Node27</title>
<polygon fill="white" stroke="#bfbfbf" points="552,-112.5 552,-131.5 608,-131.5 608,-112.5 552,-112.5"/>
<text text-anchor="middle" x="580" y="-119.5" font-family="Helvetica,sans-Serif" font-size="10.00">algorithm</text>
</g>
<!-- Node26&#45;&gt;Node27 -->
<g id="edge32" class="edge"><title>Node26&#45;&gt;Node27</title>
<path fill="none" stroke="midnightblue" d="M447.208,-174.403C473.681,-164.156 518.114,-146.956 548.22,-135.302"/>
<polygon fill="midnightblue" stroke="midnightblue" points="549.771,-138.455 557.833,-131.581 547.244,-131.927 549.771,-138.455"/>
</g>
<!-- Node28 -->
<g id="node28" class="node"><title>Node28</title>
<polygon fill="white" stroke="#bfbfbf" points="372,-112.5 372,-131.5 416,-131.5 416,-112.5 372,-112.5"/>
<text text-anchor="middle" x="394" y="-119.5" font-family="Helvetica,sans-Serif" font-size="10.00">cmath</text>
</g>
<!-- Node26&#45;&gt;Node28 -->
<g id="edge33" class="edge"><title>Node26&#45;&gt;Node28</title>
<path fill="none" stroke="midnightblue" d="M420.558,-174.403C416.047,-165.671 408.926,-151.889 403.193,-140.794"/>
<polygon fill="midnightblue" stroke="midnightblue" points="406.133,-138.858 398.433,-131.581 399.914,-142.071 406.133,-138.858"/>
</g>
<!-- Node29 -->
<g id="node29" class="node"><title>Node29</title>
<g id="a_node29"><a xlink:href="Math_8inl.html" target="_top" xlink:title="Core/Math/Math.inl">
<polygon fill="white" stroke="black" points="434,-112.5 434,-131.5 534,-131.5 534,-112.5 434,-112.5"/>
<text text-anchor="middle" x="484" y="-119.5" font-family="Helvetica,sans-Serif" font-size="10.00">Core/Math/Math.inl</text>
</a>
</g>
</g>
<!-- Node26&#45;&gt;Node29 -->
<g id="edge34" class="edge"><title>Node26&#45;&gt;Node29</title>
<path fill="none" stroke="midnightblue" d="M428.553,-174.403C435.729,-165.047 450.266,-149.895 462.809,-138.46"/>
<polygon fill="midnightblue" stroke="midnightblue" points="465.447,-140.801 470.665,-131.581 460.836,-135.535 465.447,-140.801"/>
</g>
<!-- Node29&#45;&gt;Node26 -->
<g id="edge35" class="edge"><title>Node29&#45;&gt;Node26</title>
<path fill="none" stroke="midnightblue" d="M480.46,-131.581C473.291,-140.93 458.757,-156.082 446.213,-167.521"/>
<polygon fill="midnightblue" stroke="midnightblue" points="443.571,-165.182 438.354,-174.403 448.183,-170.448 443.571,-165.182"/>
</g>
<!-- Node33&#45;&gt;Node14 -->
<g id="edge43" class="edge"><title>Node33&#45;&gt;Node14</title>
<path fill="none" stroke="midnightblue" d="M739.344,-242.202C740.15,-221.551 742.179,-169.606 743.274,-141.594"/>
<polygon fill="midnightblue" stroke="midnightblue" points="746.774,-141.651 743.667,-131.522 739.779,-141.378 746.774,-141.651"/>
</g>
<!-- Node34 -->
<g id="node34" class="node"><title>Node34</title>
<g id="a_node34"><a xlink:href="EventEnums_8hpp.html" target="_top" xlink:title="Core/Event/EventEnums.hpp">
<polygon fill="white" stroke="black" points="572,-174.5 572,-193.5 716,-193.5 716,-174.5 572,-174.5"/>
<text text-anchor="middle" x="644" y="-181.5" font-family="Helvetica,sans-Serif" font-size="10.00">Core/Event/EventEnums.hpp</text>
</a>
</g>
</g>
<!-- Node33&#45;&gt;Node34 -->
<g id="edge41" class="edge"><title>Node33&#45;&gt;Node34</title>
<path fill="none" stroke="midnightblue" d="M726.58,-242.372C710.863,-231.452 683.567,-212.489 664.683,-199.369"/>
<polygon fill="midnightblue" stroke="midnightblue" points="666.632,-196.462 656.423,-193.63 662.638,-202.21 666.632,-196.462"/>
</g>
<!-- Node34&#45;&gt;Node14 -->
<g id="edge42" class="edge"><title>Node34&#45;&gt;Node14</title>
<path fill="none" stroke="midnightblue" d="M658.328,-174.403C674.664,-164.601 701.602,-148.439 720.912,-136.853"/>
<polygon fill="midnightblue" stroke="midnightblue" points="722.925,-139.727 729.699,-131.581 719.323,-133.724 722.925,-139.727"/>
</g>
<!-- Node35&#45;&gt;Node14 -->
<g id="edge46" class="edge"><title>Node35&#45;&gt;Node14</title>
<path fill="none" stroke="midnightblue" d="M577.423,-242.247C566.024,-225.929 545.422,-190.483 563,-168 578.282,-148.453 640.135,-136.182 687.322,-129.481"/>
<polygon fill="midnightblue" stroke="midnightblue" points="688.014,-132.919 697.447,-128.096 687.065,-125.984 688.014,-132.919"/>
</g>
<!-- Node35&#45;&gt;Node34 -->
<g id="edge45" class="edge"><title>Node35&#45;&gt;Node34</title>
<path fill="none" stroke="midnightblue" d="M591.844,-242.372C601.225,-232.053 617.135,-214.551 628.922,-201.585"/>
<polygon fill="midnightblue" stroke="midnightblue" points="631.826,-203.595 635.963,-193.841 626.646,-198.886 631.826,-203.595"/>
</g>
<!-- Node36&#45;&gt;Node20 -->
<g id="edge52" class="edge"><title>Node36&#45;&gt;Node20</title>
<path fill="none" stroke="midnightblue" d="M1051.79,-372.827C1044.17,-355.751 1034.57,-326.548 1045,-304 1052.23,-288.373 1066.86,-275.779 1079.87,-267.015"/>
<polygon fill="midnightblue" stroke="midnightblue" points="1081.91,-269.865 1088.5,-261.57 1078.18,-263.944 1081.91,-269.865"/>
</g>
<!-- Node37 -->
<g id="node37" class="node"><title>Node37</title>
<g id="a_node37"><a xlink:href="RaEngine_8hpp.html" target="_top" xlink:title="Engine/RaEngine.hpp">
<polygon fill="white" stroke="black" points="1416.5,-310.5 1416.5,-329.5 1527.5,-329.5 1527.5,-310.5 1416.5,-310.5"/>
<text text-anchor="middle" x="1472" y="-317.5" font-family="Helvetica,sans-Serif" font-size="10.00">Engine/RaEngine.hpp</text>
</a>
</g>
</g>
<!-- Node36&#45;&gt;Node37 -->
<g id="edge50" class="edge"><title>Node36&#45;&gt;Node37</title>
<path fill="none" stroke="midnightblue" d="M1122.76,-379.237C1192.75,-370.348 1308.29,-354.591 1407,-336 1413.65,-334.747 1420.66,-333.284 1427.5,-331.773"/>
<polygon fill="midnightblue" stroke="midnightblue" points="1428.38,-335.162 1437.36,-329.542 1426.84,-328.335 1428.38,-335.162"/>
</g>
<!-- Node38 -->
<g id="node38" class="node"><title>Node38</title>
<g id="a_node38"><a xlink:href="Ray_8hpp.html" target="_top" xlink:title="Core/Math/Ray.hpp">
<polygon fill="white" stroke="black" points="1054,-310.5 1054,-329.5 1156,-329.5 1156,-310.5 1054,-310.5"/>
<text text-anchor="middle" x="1105" y="-317.5" font-family="Helvetica,sans-Serif" font-size="10.00">Core/Math/Ray.hpp</text>
</a>
</g>
</g>
<!-- Node36&#45;&gt;Node38 -->
<g id="edge53" class="edge"><title>Node36&#45;&gt;Node38</title>
<path fill="none" stroke="midnightblue" d="M1068.98,-372.679C1076.01,-362.592 1085.46,-349.033 1092.92,-338.335"/>
<polygon fill="midnightblue" stroke="midnightblue" points="1096,-340.034 1098.85,-329.828 1090.26,-336.031 1096,-340.034"/>
</g>
<!-- Node39 -->
<g id="node39" class="node"><title>Node39</title>
<g id="a_node39"><a xlink:href="Camera_8inl.html" target="_top" xlink:title="Engine/Renderer/Camera\l/Camera.inl">
<polygon fill="white" stroke="black" points="870.5,-305 870.5,-335 997.5,-335 997.5,-305 870.5,-305"/>
<text text-anchor="start" x="878.5" y="-323" font-family="Helvetica,sans-Serif" font-size="10.00">Engine/Renderer/Camera</text>
<text text-anchor="middle" x="934" y="-312" font-family="Helvetica,sans-Serif" font-size="10.00">/Camera.inl</text>
</a>
</g>
</g>
<!-- Node36&#45;&gt;Node39 -->
<g id="edge57" class="edge"><title>Node36&#45;&gt;Node39</title>
<path fill="none" stroke="midnightblue" d="M1032.18,-372.841C1013.98,-363.228 989.694,-350.407 969.833,-339.92"/>
<polygon fill="midnightblue" stroke="midnightblue" points="971.249,-336.709 960.771,-335.135 967.98,-342.899 971.249,-336.709"/>
</g>
<!-- Node37&#45;&gt;Node8 -->
<g id="edge51" class="edge"><title>Node37&#45;&gt;Node8</title>
<path fill="none" stroke="midnightblue" d="M1505.23,-310.443C1515.38,-308.072 1526.6,-305.688 1537,-304 1703.58,-276.968 1754.32,-319.597 1915,-268 1980.13,-247.086 2077.73,-218.87 2032,-168 1973.2,-102.592 1357.9,-76.1386 1151.83,-69.0712"/>
<polygon fill="midnightblue" stroke="midnightblue" points="1151.86,-65.5703 1141.74,-68.7297 1151.62,-72.5663 1151.86,-65.5703"/>
</g>
<!-- Node38&#45;&gt;Node14 -->
<g id="edge55" class="edge"><title>Node38&#45;&gt;Node14</title>
<path fill="none" stroke="midnightblue" d="M1059.26,-310.454C994.842,-296.545 876.289,-263.9 796,-200 775.848,-183.962 760.606,-157.977 751.988,-140.692"/>
<polygon fill="midnightblue" stroke="midnightblue" points="755.148,-139.188 747.692,-131.661 748.827,-142.195 755.148,-139.188"/>
</g>
<!-- Node38&#45;&gt;Node20 -->
<g id="edge54" class="edge"><title>Node38&#45;&gt;Node20</title>
<path fill="none" stroke="midnightblue" d="M1105,-310.372C1105,-300.643 1105,-284.528 1105,-271.85"/>
<polygon fill="midnightblue" stroke="midnightblue" points="1108.5,-271.841 1105,-261.841 1101.5,-271.841 1108.5,-271.841"/>
</g>
<!-- Node38&#45;&gt;Node22 -->
<g id="edge56" class="edge"><title>Node38&#45;&gt;Node22</title>
<path fill="none" stroke="midnightblue" d="M1127.17,-310.414C1186.74,-287.345 1350.4,-223.962 1419.52,-197.19"/>
<polygon fill="midnightblue" stroke="midnightblue" points="1420.95,-200.39 1429.01,-193.515 1418.43,-193.862 1420.95,-200.39"/>
</g>
<!-- Node40&#45;&gt;Node20 -->
<g id="edge59" class="edge"><title>Node40&#45;&gt;Node20</title>
<path fill="none" stroke="midnightblue" d="M1257.71,-440.931C1238.98,-432.661 1217.65,-420.534 1203,-404 1171.37,-368.292 1191.52,-342.966 1164,-304 1153.94,-289.761 1139.08,-276.945 1126.79,-267.722"/>
<polygon fill="midnightblue" stroke="midnightblue" points="1128.55,-264.681 1118.4,-261.672 1124.46,-270.359 1128.55,-264.681"/>
</g>
<!-- Node40&#45;&gt;Node37 -->
<g id="edge68" class="edge"><title>Node40&#45;&gt;Node37</title>
<path fill="none" stroke="midnightblue" d="M1354.7,-450.161C1414.58,-443.737 1503.18,-430.037 1524,-404 1541.81,-381.723 1513.96,-353.006 1492.63,-335.852"/>
<polygon fill="midnightblue" stroke="midnightblue" points="1494.67,-333.001 1484.61,-329.674 1490.4,-338.548 1494.67,-333.001"/>
</g>
<!-- Node41 -->
<g id="node41" class="node"><title>Node41</title>
<g id="a_node41"><a xlink:href="Component_8hpp.html" target="_top" xlink:title="Engine/Component/Component.hpp">
<polygon fill="white" stroke="black" points="1212,-378.5 1212,-397.5 1384,-397.5 1384,-378.5 1212,-378.5"/>
<text text-anchor="middle" x="1298" y="-385.5" font-family="Helvetica,sans-Serif" font-size="10.00">Engine/Component/Component.hpp</text>
</a>
</g>
</g>
<!-- Node40&#45;&gt;Node41 -->
<g id="edge60" class="edge"><title>Node40&#45;&gt;Node41</title>
<path fill="none" stroke="midnightblue" d="M1298,-440.679C1298,-431.101 1298,-418.394 1298,-407.977"/>
<polygon fill="midnightblue" stroke="midnightblue" points="1301.5,-407.828 1298,-397.828 1294.5,-407.828 1301.5,-407.828"/>
</g>
<!-- Node44 -->
<g id="node44" class="node"><title>Node44</title>
<g id="a_node44"><a xlink:href="Light_8inl.html" target="_top" xlink:title="Engine/Renderer/Light\l/Light.inl">
<polygon fill="white" stroke="black" points="1402.5,-373 1402.5,-403 1515.5,-403 1515.5,-373 1402.5,-373"/>
<text text-anchor="start" x="1410.5" y="-391" font-family="Helvetica,sans-Serif" font-size="10.00">Engine/Renderer/Light</text>
<text text-anchor="middle" x="1459" y="-380" font-family="Helvetica,sans-Serif" font-size="10.00">/Light.inl</text>
</a>
</g>
</g>
<!-- Node40&#45;&gt;Node44 -->
<g id="edge69" class="edge"><title>Node40&#45;&gt;Node44</title>
<path fill="none" stroke="midnightblue" d="M1332.54,-440.841C1356.81,-430.89 1389.48,-417.5 1415.53,-406.822"/>
<polygon fill="midnightblue" stroke="midnightblue" points="1416.87,-410.053 1424.8,-403.022 1414.21,-403.576 1416.87,-410.053"/>
</g>
<!-- Node41&#45;&gt;Node20 -->
<g id="edge64" class="edge"><title>Node41&#45;&gt;Node20</title>
<path fill="none" stroke="midnightblue" d="M1288.1,-378.365C1266.69,-359.775 1216.56,-316.624 1198,-304 1176.77,-289.561 1151.07,-275.721 1132.08,-266.11"/>
<polygon fill="midnightblue" stroke="midnightblue" points="1133.59,-262.952 1123.08,-261.619 1130.46,-269.216 1133.59,-262.952"/>
</g>
<!-- Node41&#45;&gt;Node37 -->
<g id="edge61" class="edge"><title>Node41&#45;&gt;Node37</title>
<path fill="none" stroke="midnightblue" d="M1320.75,-378.372C1351.18,-366.827 1405.32,-346.293 1439.9,-333.177"/>
<polygon fill="midnightblue" stroke="midnightblue" points="1441.41,-336.345 1449.52,-329.526 1438.93,-329.8 1441.41,-336.345"/>
</g>
<!-- Node41&#45;&gt;Node38 -->
<g id="edge65" class="edge"><title>Node41&#45;&gt;Node38</title>
<path fill="none" stroke="midnightblue" d="M1272.77,-378.372C1238.72,-366.728 1177.93,-345.939 1139.63,-332.841"/>
<polygon fill="midnightblue" stroke="midnightblue" points="1140.53,-329.45 1129.93,-329.526 1138.26,-336.073 1140.53,-329.45"/>
</g>
<!-- Node42 -->
<g id="node42" class="node"><title>Node42</title>
<g id="a_node42"><a xlink:href="IndexedObject_8hpp.html" target="_top" xlink:title="Core/Index/IndexedObject.hpp">
<polygon fill="white" stroke="red" points="1249.5,-310.5 1249.5,-329.5 1398.5,-329.5 1398.5,-310.5 1249.5,-310.5"/>
<text text-anchor="middle" x="1324" y="-317.5" font-family="Helvetica,sans-Serif" font-size="10.00">Core/Index/IndexedObject.hpp</text>
</a>
</g>
</g>
<!-- Node41&#45;&gt;Node42 -->
<g id="edge62" class="edge"><title>Node41&#45;&gt;Node42</title>
<path fill="none" stroke="midnightblue" d="M1301.4,-378.372C1305.27,-368.544 1311.71,-352.202 1316.73,-339.467"/>
<polygon fill="midnightblue" stroke="midnightblue" points="1320.11,-340.428 1320.52,-329.841 1313.6,-337.862 1320.11,-340.428"/>
</g>
<!-- Node43 -->
<g id="node43" class="node"><title>Node43</title>
<g id="a_node43"><a xlink:href="Component_8inl.html" target="_top" xlink:title="Engine/Component/Component.inl">
<polygon fill="white" stroke="black" points="1546,-310.5 1546,-329.5 1712,-329.5 1712,-310.5 1546,-310.5"/>
<text text-anchor="middle" x="1629" y="-317.5" font-family="Helvetica,sans-Serif" font-size="10.00">Engine/Component/Component.inl</text>
</a>
</g>
</g>
<!-- Node41&#45;&gt;Node43 -->
<g id="edge66" class="edge"><title>Node41&#45;&gt;Node43</title>
<path fill="none" stroke="midnightblue" d="M1336.22,-378.439C1394.03,-366.396 1503.85,-344.475 1571.38,-331.475"/>
<polygon fill="midnightblue" stroke="midnightblue" points="1572.27,-334.867 1581.43,-329.546 1570.95,-327.993 1572.27,-334.867"/>
</g>
<!-- Node42&#45;&gt;Node14 -->
<g id="edge63" class="edge"><title>Node42&#45;&gt;Node14</title>
<path fill="none" stroke="midnightblue" d="M1349.74,-310.472C1411.72,-288.701 1560.02,-228.506 1503,-168 1478.98,-142.509 972.864,-128.35 800.728,-124.258"/>
<polygon fill="midnightblue" stroke="midnightblue" points="800.683,-120.756 790.604,-124.02 800.519,-127.754 800.683,-120.756"/>
</g>
<!-- Node43&#45;&gt;Node41 -->
<g id="edge67" class="edge"><title>Node43&#45;&gt;Node41</title>
<path fill="none" stroke="midnightblue" d="M1590.86,-329.546C1533.08,-341.58 1423.27,-363.502 1355.71,-376.509"/>
<polygon fill="midnightblue" stroke="midnightblue" points="1354.81,-373.117 1345.65,-378.439 1356.13,-379.992 1354.81,-373.117"/>
</g>
<!-- Node46 -->
<g id="node46" class="node"><title>Node46</title>
<polygon fill="white" stroke="#bfbfbf" points="1692.5,-174.5 1692.5,-193.5 1787.5,-193.5 1787.5,-174.5 1692.5,-174.5"/>
<text text-anchor="middle" x="1740" y="-181.5" font-family="Helvetica,sans-Serif" font-size="10.00">QtGui/QKeyEvent</text>
</g>
<!-- Node45&#45;&gt;Node46 -->
<g id="edge71" class="edge"><title>Node45&#45;&gt;Node46</title>
<path fill="none" stroke="midnightblue" d="M1817.52,-236.679C1800.92,-225.611 1778.04,-210.363 1761.45,-199.3"/>
<polygon fill="midnightblue" stroke="midnightblue" points="1763.22,-196.273 1752.96,-193.638 1759.34,-202.097 1763.22,-196.273"/>
</g>
<!-- Node47 -->
<g id="node47" class="node"><title>Node47</title>
<polygon fill="white" stroke="#bfbfbf" points="1805.5,-174.5 1805.5,-193.5 1912.5,-193.5 1912.5,-174.5 1805.5,-174.5"/>
<text text-anchor="middle" x="1859" y="-181.5" font-family="Helvetica,sans-Serif" font-size="10.00">QtGui/QMouseEvent</text>
</g>
<!-- Node45&#45;&gt;Node47 -->
<g id="edge72" class="edge"><title>Node45&#45;&gt;Node47</title>
<path fill="none" stroke="midnightblue" d="M1843.34,-236.679C1846.27,-226.999 1850.17,-214.123 1853.35,-203.645"/>
<polygon fill="midnightblue" stroke="midnightblue" points="1856.77,-204.414 1856.32,-193.828 1850.08,-202.383 1856.77,-204.414"/>
</g>
<!-- Node48 -->
<g id="node48" class="node"><title>Node48</title>
<polygon fill="white" stroke="#bfbfbf" points="1930.5,-174.5 1930.5,-193.5 2005.5,-193.5 2005.5,-174.5 1930.5,-174.5"/>
<text text-anchor="middle" x="1968" y="-181.5" font-family="Helvetica,sans-Serif" font-size="10.00">QtXml/QtXml</text>
</g>
<!-- Node45&#45;&gt;Node48 -->
<g id="edge73" class="edge"><title>Node45&#45;&gt;Node48</title>
<path fill="none" stroke="midnightblue" d="M1866.67,-236.841C1888.99,-225.425 1920.14,-209.485 1942,-198.303"/>
<polygon fill="midnightblue" stroke="midnightblue" points="1943.72,-201.353 1951.03,-193.682 1940.53,-195.121 1943.72,-201.353"/>
</g>
<!-- Node49 -->
<g id="node49" class="node"><title>Node49</title>
<g id="a_node49"><a xlink:href="RaGuiBase_8hpp.html" target="_top" xlink:title="GuiBase/RaGuiBase.hpp">
<polygon fill="white" stroke="black" points="1364,-112.5 1364,-131.5 1490,-131.5 1490,-112.5 1364,-112.5"/>
<text text-anchor="middle" x="1427" y="-119.5" font-family="Helvetica,sans-Serif" font-size="10.00">GuiBase/RaGuiBase.hpp</text>
</a>
</g>
</g>
<!-- Node45&#45;&gt;Node49 -->
<g id="edge74" class="edge"><title>Node45&#45;&gt;Node49</title>
<path fill="none" stroke="midnightblue" d="M1906.25,-242.017C1970.11,-230.865 2051.25,-208.211 2014,-168 1979.76,-131.03 1649.89,-124.315 1500.22,-123.18"/>
<polygon fill="midnightblue" stroke="midnightblue" points="1500.21,-119.68 1490.19,-123.111 1500.17,-126.68 1500.21,-119.68"/>
</g>
<!-- Node50 -->
<g id="node50" class="node"><title>Node50</title>
<g id="a_node50"><a xlink:href="Singleton_8hpp.html" target="_top" xlink:title="Core/Utils/Singleton.hpp">
<polygon fill="white" stroke="black" points="1551.5,-174.5 1551.5,-193.5 1674.5,-193.5 1674.5,-174.5 1551.5,-174.5"/>
<text text-anchor="middle" x="1613" y="-181.5" font-family="Helvetica,sans-Serif" font-size="10.00">Core/Utils/Singleton.hpp</text>
</a>
</g>
</g>
<!-- Node45&#45;&gt;Node50 -->
<g id="edge76" class="edge"><title>Node45&#45;&gt;Node50</title>
<path fill="none" stroke="midnightblue" d="M1790.79,-236.922C1749.38,-224.828 1690.43,-207.613 1651.95,-196.375"/>
<polygon fill="midnightblue" stroke="midnightblue" points="1652.73,-192.957 1642.15,-193.514 1650.77,-199.677 1652.73,-192.957"/>
</g>
<!-- Node49&#45;&gt;Node8 -->
<g id="edge75" class="edge"><title>Node49&#45;&gt;Node8</title>
<path fill="none" stroke="midnightblue" d="M1372.81,-112.444C1312.02,-102.846 1213.51,-87.2916 1148.99,-77.1037"/>
<polygon fill="midnightblue" stroke="midnightblue" points="1149.36,-73.619 1138.94,-75.5164 1148.27,-80.5333 1149.36,-73.619"/>
</g>
<!-- Node50&#45;&gt;Node14 -->
<g id="edge77" class="edge"><title>Node50&#45;&gt;Node14</title>
<path fill="none" stroke="midnightblue" d="M1575.28,-174.487C1563.12,-172.03 1549.54,-169.586 1537,-168 1262.61,-133.306 931.409,-125.353 800.844,-123.536"/>
<polygon fill="midnightblue" stroke="midnightblue" points="800.729,-120.034 790.683,-123.401 800.636,-127.034 800.729,-120.034"/>
</g>
</g>
</svg>
