<?xml version="1.0" encoding="UTF-8" standalone="no"?>
<!DOCTYPE svg PUBLIC "-//W3C//DTD SVG 1.1//EN"
 "http://www.w3.org/Graphics/SVG/1.1/DTD/svg11.dtd">
<!-- Generated by graphviz version 2.36.0 (20140111.2315)
 -->
<!-- Title: /home/travis/build/STORM&#45;IRIT/Radium&#45;Engine/src/Core/Mesh/TriangleMesh.inl Pages: 1 -->
<svg width="1738pt" height="510pt"
 viewBox="0.00 0.00 1738.15 510.00" xmlns="http://www.w3.org/2000/svg" xmlns:xlink="http://www.w3.org/1999/xlink">
<g id="graph0" class="graph" transform="scale(1 1) rotate(0) translate(4 506)">
<title>/home/travis/build/STORM&#45;IRIT/Radium&#45;Engine/src/Core/Mesh/TriangleMesh.inl</title>
<polygon fill="white" stroke="none" points="-4,4 -4,-506 1734.15,-506 1734.15,4 -4,4"/>
<!-- Node1 -->
<g id="node1" class="node"><title>Node1</title>
<polygon fill="#bfbfbf" stroke="black" points="841,-460.5 841,-501.5 999,-501.5 999,-460.5 841,-460.5"/>
<text text-anchor="start" x="849" y="-489.5" font-family="Helvetica,sans-Serif" font-size="10.00">/home/travis/build</text>
<text text-anchor="start" x="849" y="-478.5" font-family="Helvetica,sans-Serif" font-size="10.00">/STORM&#45;IRIT/Radium&#45;Engine</text>
<text text-anchor="middle" x="920" y="-467.5" font-family="Helvetica,sans-Serif" font-size="10.00">/src/Core/Mesh/TriangleMesh.inl</text>
</g>
<!-- Node2 -->
<g id="node2" class="node"><title>Node2</title>
<g id="a_node2"><a xlink:href="TriangleMesh_8hpp.html" target="_top" xlink:title="TriangleMesh.hpp">
<polygon fill="white" stroke="black" points="873,-404.5 873,-423.5 967,-423.5 967,-404.5 873,-404.5"/>
<text text-anchor="middle" x="920" y="-411.5" font-family="Helvetica,sans-Serif" font-size="10.00">TriangleMesh.hpp</text>
</a>
</g>
</g>
<!-- Node1&#45;&gt;Node2 -->
<g id="edge1" class="edge"><title>Node1&#45;&gt;Node2</title>
<path fill="none" stroke="midnightblue" d="M913.755,-460.498C913.057,-451.969 913.083,-442.011 913.833,-433.59"/>
<polygon fill="midnightblue" stroke="midnightblue" points="917.303,-434.044 915.236,-423.652 910.372,-433.065 917.303,-434.044"/>
</g>
<!-- Node2&#45;&gt;Node1 -->
<g id="edge50" class="edge"><title>Node2&#45;&gt;Node1</title>
<path fill="none" stroke="midnightblue" d="M924.764,-423.652C926.227,-430.524 926.881,-440.559 926.728,-450.263"/>
<polygon fill="midnightblue" stroke="midnightblue" points="923.221,-450.344 926.245,-460.498 930.213,-450.674 923.221,-450.344"/>
</g>
<!-- Node3 -->
<g id="node3" class="node"><title>Node3</title>
<g id="a_node3"><a xlink:href="VectorArray_8hpp.html" target="_top" xlink:title="Core/Containers/VectorArray.hpp">
<polygon fill="white" stroke="black" points="1166.5,-292.5 1166.5,-311.5 1327.5,-311.5 1327.5,-292.5 1166.5,-292.5"/>
<text text-anchor="middle" x="1247" y="-299.5" font-family="Helvetica,sans-Serif" font-size="10.00">Core/Containers/VectorArray.hpp</text>
</a>
</g>
</g>
<!-- Node2&#45;&gt;Node3 -->
<g id="edge2" class="edge"><title>Node2&#45;&gt;Node3</title>
<path fill="none" stroke="midnightblue" d="M967.238,-410.438C1038.57,-405.779 1169.54,-393.901 1208,-368 1224.34,-356.997 1234.9,-336.642 1240.86,-321.631"/>
<polygon fill="midnightblue" stroke="midnightblue" points="1244.29,-322.449 1244.4,-311.855 1237.7,-320.065 1244.29,-322.449"/>
</g>
<!-- Node5 -->
<g id="node5" class="node"><title>Node5</title>
<g id="a_node5"><a xlink:href="RaCore_8hpp.html" target="_top" xlink:title="Core/RaCore.hpp">
<polygon fill="white" stroke="black" points="1110.5,-112.5 1110.5,-131.5 1203.5,-131.5 1203.5,-112.5 1110.5,-112.5"/>
<text text-anchor="middle" x="1157" y="-119.5" font-family="Helvetica,sans-Serif" font-size="10.00">Core/RaCore.hpp</text>
</a>
</g>
</g>
<!-- Node2&#45;&gt;Node5 -->
<g id="edge36" class="edge"><title>Node2&#45;&gt;Node5</title>
<path fill="none" stroke="midnightblue" d="M872.803,-410.992C709.586,-403.431 179,-373.433 179,-303 179,-303 179,-303 179,-245 179,-209.751 170.767,-190.379 198,-168 232.985,-139.25 899.826,-126.881 1100.4,-123.802"/>
<polygon fill="midnightblue" stroke="midnightblue" points="1100.49,-127.301 1110.44,-123.649 1100.39,-120.302 1100.49,-127.301"/>
</g>
<!-- Node14 -->
<g id="node14" class="node"><title>Node14</title>
<g id="a_node14"><a xlink:href="LinearAlgebra_8hpp.html" target="_top" xlink:title="Core/Math/LinearAlgebra.hpp">
<polygon fill="white" stroke="black" points="560.5,-236.5 560.5,-255.5 703.5,-255.5 703.5,-236.5 560.5,-236.5"/>
<text text-anchor="middle" x="632" y="-243.5" font-family="Helvetica,sans-Serif" font-size="10.00">Core/Math/LinearAlgebra.hpp</text>
</a>
</g>
</g>
<!-- Node2&#45;&gt;Node14 -->
<g id="edge29" class="edge"><title>Node2&#45;&gt;Node14</title>
<path fill="none" stroke="midnightblue" d="M904.921,-404.309C857.778,-377.136 712.911,-293.636 655.647,-260.63"/>
<polygon fill="midnightblue" stroke="midnightblue" points="657.341,-257.567 646.929,-255.605 653.845,-263.631 657.341,-257.567"/>
</g>
<!-- Node25 -->
<g id="node25" class="node"><title>Node25</title>
<g id="a_node25"><a xlink:href="MeshTypes_8hpp.html" target="_top" xlink:title="Core/Mesh/MeshTypes.hpp">
<polygon fill="white" stroke="black" points="851.5,-292.5 851.5,-311.5 988.5,-311.5 988.5,-292.5 851.5,-292.5"/>
<text text-anchor="middle" x="920" y="-299.5" font-family="Helvetica,sans-Serif" font-size="10.00">Core/Mesh/MeshTypes.hpp</text>
</a>
</g>
</g>
<!-- Node2&#45;&gt;Node25 -->
<g id="edge30" class="edge"><title>Node2&#45;&gt;Node25</title>
<path fill="none" stroke="midnightblue" d="M920,-404.368C920,-386.617 920,-345.666 920,-321.597"/>
<polygon fill="midnightblue" stroke="midnightblue" points="923.5,-321.591 920,-311.591 916.5,-321.591 923.5,-321.591"/>
</g>
<!-- Node29 -->
<g id="node29" class="node"><title>Node29</title>
<g id="a_node29"><a xlink:href="Attribs_8hpp.html" target="_top" xlink:title="Core/Utils/Attribs.hpp">
<polygon fill="white" stroke="black" points="1088.5,-348.5 1088.5,-367.5 1199.5,-367.5 1199.5,-348.5 1088.5,-348.5"/>
<text text-anchor="middle" x="1144" y="-355.5" font-family="Helvetica,sans-Serif" font-size="10.00">Core/Utils/Attribs.hpp</text>
</a>
</g>
</g>
<!-- Node2&#45;&gt;Node29 -->
<g id="edge37" class="edge"><title>Node2&#45;&gt;Node29</title>
<path fill="none" stroke="midnightblue" d="M955.493,-404.444C994.324,-395.083 1056.66,-380.056 1098.92,-369.868"/>
<polygon fill="midnightblue" stroke="midnightblue" points="1099.77,-373.263 1108.67,-367.516 1098.13,-366.458 1099.77,-373.263"/>
</g>
<!-- Node4 -->
<g id="node4" class="node"><title>Node4</title>
<g id="a_node4"><a xlink:href="AlignedStdVector_8hpp.html" target="_top" xlink:title="Core/Containers/AlignedStd\lVector.hpp">
<polygon fill="white" stroke="black" points="1242,-169 1242,-199 1380,-199 1380,-169 1242,-169"/>
<text text-anchor="start" x="1250" y="-187" font-family="Helvetica,sans-Serif" font-size="10.00">Core/Containers/AlignedStd</text>
<text text-anchor="middle" x="1311" y="-176" font-family="Helvetica,sans-Serif" font-size="10.00">Vector.hpp</text>
</a>
</g>
</g>
<!-- Node3&#45;&gt;Node4 -->
<g id="edge3" class="edge"><title>Node3&#45;&gt;Node4</title>
<path fill="none" stroke="midnightblue" d="M1251.81,-292.281C1261.6,-274.543 1284.1,-233.749 1298.37,-207.888"/>
<polygon fill="midnightblue" stroke="midnightblue" points="1301.45,-209.553 1303.22,-199.106 1295.32,-206.171 1301.45,-209.553"/>
</g>
<!-- Node3&#45;&gt;Node5 -->
<g id="edge27" class="edge"><title>Node3&#45;&gt;Node5</title>
<path fill="none" stroke="midnightblue" d="M1241.64,-292.258C1231.12,-274.961 1207.32,-235.012 1190,-200 1180.26,-180.299 1170.52,-157.024 1164.17,-141.261"/>
<polygon fill="midnightblue" stroke="midnightblue" points="1167.31,-139.683 1160.36,-131.684 1160.81,-142.27 1167.31,-139.683"/>
</g>
<!-- Node13 -->
<g id="node13" class="node"><title>Node13</title>
<polygon fill="white" stroke="#bfbfbf" points="1386,-112.5 1386,-131.5 1430,-131.5 1430,-112.5 1386,-112.5"/>
<text text-anchor="middle" x="1408" y="-119.5" font-family="Helvetica,sans-Serif" font-size="10.00">vector</text>
</g>
<!-- Node3&#45;&gt;Node13 -->
<g id="edge28" class="edge"><title>Node3&#45;&gt;Node13</title>
<path fill="none" stroke="midnightblue" d="M1266.95,-292.449C1298.03,-278.068 1357.7,-246.029 1389,-200 1400.83,-182.609 1405.31,-158.557 1406.99,-141.986"/>
<polygon fill="midnightblue" stroke="midnightblue" points="1410.49,-142.121 1407.77,-131.882 1403.51,-141.583 1410.49,-142.121"/>
</g>
<!-- Node3&#45;&gt;Node14 -->
<g id="edge13" class="edge"><title>Node3&#45;&gt;Node14</title>
<path fill="none" stroke="midnightblue" d="M1166.28,-293.913C1048.81,-283.598 831.891,-264.551 713.803,-254.183"/>
<polygon fill="midnightblue" stroke="midnightblue" points="714.003,-250.687 703.735,-253.299 713.39,-257.66 714.003,-250.687"/>
</g>
<!-- Node4&#45;&gt;Node5 -->
<g id="edge4" class="edge"><title>Node4&#45;&gt;Node5</title>
<path fill="none" stroke="midnightblue" d="M1274.89,-168.933C1248.68,-158.72 1213.56,-145.036 1188.48,-135.266"/>
<polygon fill="midnightblue" stroke="midnightblue" points="1189.66,-131.969 1179.07,-131.6 1187.12,-138.492 1189.66,-131.969"/>
</g>
<!-- Node12 -->
<g id="node12" class="node"><title>Node12</title>
<polygon fill="white" stroke="#bfbfbf" points="1267,-112.5 1267,-131.5 1355,-131.5 1355,-112.5 1267,-112.5"/>
<text text-anchor="middle" x="1311" y="-119.5" font-family="Helvetica,sans-Serif" font-size="10.00">Eigen/StdVector</text>
</g>
<!-- Node4&#45;&gt;Node12 -->
<g id="edge11" class="edge"><title>Node4&#45;&gt;Node12</title>
<path fill="none" stroke="midnightblue" d="M1311,-168.781C1311,-160.781 1311,-150.689 1311,-142.017"/>
<polygon fill="midnightblue" stroke="midnightblue" points="1314.5,-141.73 1311,-131.731 1307.5,-141.731 1314.5,-141.73"/>
</g>
<!-- Node4&#45;&gt;Node13 -->
<g id="edge12" class="edge"><title>Node4&#45;&gt;Node13</title>
<path fill="none" stroke="midnightblue" d="M1333.99,-168.781C1349.48,-159.196 1369.84,-146.606 1385.28,-137.056"/>
<polygon fill="midnightblue" stroke="midnightblue" points="1387.5,-139.793 1394.17,-131.556 1383.82,-133.84 1387.5,-139.793"/>
</g>
<!-- Node6 -->
<g id="node6" class="node"><title>Node6</title>
<g id="a_node6"><a xlink:href="CoreMacros_8hpp.html" target="_top" xlink:title="Core/CoreMacros.hpp">
<polygon fill="white" stroke="black" points="1249.5,-56.5 1249.5,-75.5 1362.5,-75.5 1362.5,-56.5 1249.5,-56.5"/>
<text text-anchor="middle" x="1306" y="-63.5" font-family="Helvetica,sans-Serif" font-size="10.00">Core/CoreMacros.hpp</text>
</a>
</g>
</g>
<!-- Node5&#45;&gt;Node6 -->
<g id="edge5" class="edge"><title>Node5&#45;&gt;Node6</title>
<path fill="none" stroke="midnightblue" d="M1180.61,-112.444C1205.46,-103.438 1244.77,-89.1891 1272.75,-79.049"/>
<polygon fill="midnightblue" stroke="midnightblue" points="1274.29,-82.2144 1282.5,-75.5164 1271.91,-75.6332 1274.29,-82.2144"/>
</g>
<!-- Node7 -->
<g id="node7" class="node"><title>Node7</title>
<polygon fill="white" stroke="#bfbfbf" points="1314.5,-0.5 1314.5,-19.5 1363.5,-19.5 1363.5,-0.5 1314.5,-0.5"/>
<text text-anchor="middle" x="1339" y="-7.5" font-family="Helvetica,sans-Serif" font-size="10.00">cassert</text>
</g>
<!-- Node6&#45;&gt;Node7 -->
<g id="edge6" class="edge"><title>Node6&#45;&gt;Node7</title>
<path fill="none" stroke="midnightblue" d="M1311.45,-56.083C1316.01,-48.6127 1322.67,-37.7244 1328.29,-28.5199"/>
<polygon fill="midnightblue" stroke="midnightblue" points="1331.42,-30.109 1333.65,-19.7511 1325.45,-26.4588 1331.42,-30.109"/>
</g>
<!-- Node8 -->
<g id="node8" class="node"><title>Node8</title>
<polygon fill="white" stroke="#bfbfbf" points="1381.5,-0.5 1381.5,-19.5 1424.5,-19.5 1424.5,-0.5 1381.5,-0.5"/>
<text text-anchor="middle" x="1403" y="-7.5" font-family="Helvetica,sans-Serif" font-size="10.00">cstdio</text>
</g>
<!-- Node6&#45;&gt;Node8 -->
<g id="edge7" class="edge"><title>Node6&#45;&gt;Node8</title>
<path fill="none" stroke="midnightblue" d="M1321.58,-56.324C1337,-47.7428 1360.81,-34.486 1378.71,-24.5224"/>
<polygon fill="midnightblue" stroke="midnightblue" points="1380.42,-27.5767 1387.45,-19.6545 1377.01,-21.4606 1380.42,-27.5767"/>
</g>
<!-- Node9 -->
<g id="node9" class="node"><title>Node9</title>
<polygon fill="white" stroke="#bfbfbf" points="1180,-0.5 1180,-19.5 1234,-19.5 1234,-0.5 1180,-0.5"/>
<text text-anchor="middle" x="1207" y="-7.5" font-family="Helvetica,sans-Serif" font-size="10.00">iostream</text>
</g>
<!-- Node6&#45;&gt;Node9 -->
<g id="edge8" class="edge"><title>Node6&#45;&gt;Node9</title>
<path fill="none" stroke="midnightblue" d="M1290.09,-56.324C1274.36,-47.7428 1250.06,-34.486 1231.79,-24.5224"/>
<polygon fill="midnightblue" stroke="midnightblue" points="1233.32,-21.3704 1222.87,-19.6545 1229.97,-27.5157 1233.32,-21.3704"/>
</g>
<!-- Node10 -->
<g id="node10" class="node"><title>Node10</title>
<polygon fill="white" stroke="#bfbfbf" points="1540,-0.5 1540,-19.5 1592,-19.5 1592,-0.5 1540,-0.5"/>
<text text-anchor="middle" x="1566" y="-7.5" font-family="Helvetica,sans-Serif" font-size="10.00">sstream</text>
</g>
<!-- Node6&#45;&gt;Node10 -->
<g id="edge9" class="edge"><title>Node6&#45;&gt;Node10</title>
<path fill="none" stroke="midnightblue" d="M1347.2,-56.4435C1397.49,-45.9982 1481.75,-28.4986 1529.7,-18.5385"/>
<polygon fill="midnightblue" stroke="midnightblue" points="1530.57,-21.9341 1539.65,-16.4736 1529.14,-15.0803 1530.57,-21.9341"/>
</g>
<!-- Node11 -->
<g id="node11" class="node"><title>Node11</title>
<polygon fill="white" stroke="#bfbfbf" points="1252,-0.5 1252,-19.5 1296,-19.5 1296,-0.5 1252,-0.5"/>
<text text-anchor="middle" x="1274" y="-7.5" font-family="Helvetica,sans-Serif" font-size="10.00">thread</text>
</g>
<!-- Node6&#45;&gt;Node11 -->
<g id="edge10" class="edge"><title>Node6&#45;&gt;Node11</title>
<path fill="none" stroke="midnightblue" d="M1300.72,-56.083C1296.29,-48.6127 1289.84,-37.7244 1284.38,-28.5199"/>
<polygon fill="midnightblue" stroke="midnightblue" points="1287.29,-26.5697 1279.19,-19.7511 1281.27,-30.1383 1287.29,-26.5697"/>
</g>
<!-- Node14&#45;&gt;Node5 -->
<g id="edge14" class="edge"><title>Node14&#45;&gt;Node5</title>
<path fill="none" stroke="midnightblue" d="M703.569,-239.084C750.212,-233.301 811.553,-221.986 862,-200 884.167,-190.339 883.758,-177.485 906,-168 969.184,-141.055 1047.98,-130.242 1100.25,-125.904"/>
<polygon fill="midnightblue" stroke="midnightblue" points="1100.64,-129.384 1110.34,-125.12 1100.1,-122.405 1100.64,-129.384"/>
</g>
<!-- Node15 -->
<g id="node15" class="node"><title>Node15</title>
<polygon fill="white" stroke="#bfbfbf" points="207.5,-174.5 207.5,-193.5 272.5,-193.5 272.5,-174.5 207.5,-174.5"/>
<text text-anchor="middle" x="240" y="-181.5" font-family="Helvetica,sans-Serif" font-size="10.00">Eigen/Core</text>
</g>
<!-- Node14&#45;&gt;Node15 -->
<g id="edge15" class="edge"><title>Node14&#45;&gt;Node15</title>
<path fill="none" stroke="midnightblue" d="M560.223,-240.505C488.674,-234.929 376.053,-223.172 281,-200 277.507,-199.148 273.9,-198.097 270.343,-196.95"/>
<polygon fill="midnightblue" stroke="midnightblue" points="271.174,-193.533 260.579,-193.547 268.87,-200.143 271.174,-193.533"/>
</g>
<!-- Node16 -->
<g id="node16" class="node"><title>Node16</title>
<polygon fill="white" stroke="#bfbfbf" points="290.5,-174.5 290.5,-193.5 377.5,-193.5 377.5,-174.5 290.5,-174.5"/>
<text text-anchor="middle" x="334" y="-181.5" font-family="Helvetica,sans-Serif" font-size="10.00">Eigen/Geometry</text>
</g>
<!-- Node14&#45;&gt;Node16 -->
<g id="edge16" class="edge"><title>Node14&#45;&gt;Node16</title>
<path fill="none" stroke="midnightblue" d="M576.471,-236.469C526.397,-228.391 450.877,-215.251 386,-200 381.275,-198.889 376.34,-197.616 371.472,-196.291"/>
<polygon fill="midnightblue" stroke="midnightblue" points="372.235,-192.87 361.661,-193.535 370.341,-199.609 372.235,-192.87"/>
</g>
<!-- Node17 -->
<g id="node17" class="node"><title>Node17</title>
<polygon fill="white" stroke="#bfbfbf" points="395.5,-174.5 395.5,-193.5 470.5,-193.5 470.5,-174.5 395.5,-174.5"/>
<text text-anchor="middle" x="433" y="-181.5" font-family="Helvetica,sans-Serif" font-size="10.00">Eigen/Sparse</text>
</g>
<!-- Node14&#45;&gt;Node17 -->
<g id="edge17" class="edge"><title>Node14&#45;&gt;Node17</title>
<path fill="none" stroke="midnightblue" d="M602.019,-236.462C571.116,-227.596 521.578,-213.2 479,-200 475.608,-198.948 472.081,-197.835 468.557,-196.709"/>
<polygon fill="midnightblue" stroke="midnightblue" points="469.338,-193.283 458.747,-193.542 467.188,-199.945 469.338,-193.283"/>
</g>
<!-- Node18 -->
<g id="node18" class="node"><title>Node18</title>
<polygon fill="white" stroke="#bfbfbf" points="488.5,-174.5 488.5,-193.5 547.5,-193.5 547.5,-174.5 488.5,-174.5"/>
<text text-anchor="middle" x="518" y="-181.5" font-family="Helvetica,sans-Serif" font-size="10.00">functional</text>
</g>
<!-- Node14&#45;&gt;Node18 -->
<g id="edge18" class="edge"><title>Node14&#45;&gt;Node18</title>
<path fill="none" stroke="midnightblue" d="M615.667,-236.403C596.789,-226.468 565.493,-209.997 543.424,-198.381"/>
<polygon fill="midnightblue" stroke="midnightblue" points="544.782,-195.141 534.303,-193.581 541.522,-201.335 544.782,-195.141"/>
</g>
<!-- Node19 -->
<g id="node19" class="node"><title>Node19</title>
<polygon fill="white" stroke="#bfbfbf" points="565.5,-169 565.5,-199 698.5,-199 698.5,-169 565.5,-169"/>
<text text-anchor="start" x="573.5" y="-187" font-family="Helvetica,sans-Serif" font-size="10.00">unsupported/Eigen/Aligned</text>
<text text-anchor="middle" x="632" y="-176" font-family="Helvetica,sans-Serif" font-size="10.00">Vector3</text>
</g>
<!-- Node14&#45;&gt;Node19 -->
<g id="edge19" class="edge"><title>Node14&#45;&gt;Node19</title>
<path fill="none" stroke="midnightblue" d="M632,-236.403C632,-229.341 632,-218.975 632,-209.399"/>
<polygon fill="midnightblue" stroke="midnightblue" points="635.5,-209.141 632,-199.141 628.5,-209.141 635.5,-209.141"/>
</g>
<!-- Node20 -->
<g id="node20" class="node"><title>Node20</title>
<g id="a_node20"><a xlink:href="Math_8hpp.html" target="_top" xlink:title="Core/Math/Math.hpp">
<polygon fill="white" stroke="black" points="45,-174.5 45,-193.5 151,-193.5 151,-174.5 45,-174.5"/>
<text text-anchor="middle" x="98" y="-181.5" font-family="Helvetica,sans-Serif" font-size="10.00">Core/Math/Math.hpp</text>
</a>
</g>
</g>
<!-- Node14&#45;&gt;Node20 -->
<g id="edge20" class="edge"><title>Node14&#45;&gt;Node20</title>
<path fill="none" stroke="midnightblue" d="M560.464,-238.59C474.341,-230.64 325.379,-216.149 198,-200 186.095,-198.491 173.417,-196.718 161.228,-194.93"/>
<polygon fill="midnightblue" stroke="midnightblue" points="161.538,-191.438 151.133,-193.43 160.51,-198.362 161.538,-191.438"/>
</g>
<!-- Node24 -->
<g id="node24" class="node"><title>Node24</title>
<g id="a_node24"><a xlink:href="LinearAlgebra_8inl.html" target="_top" xlink:title="Core/Math/LinearAlgebra.inl">
<polygon fill="white" stroke="black" points="716.5,-174.5 716.5,-193.5 853.5,-193.5 853.5,-174.5 716.5,-174.5"/>
<text text-anchor="middle" x="785" y="-181.5" font-family="Helvetica,sans-Serif" font-size="10.00">Core/Math/LinearAlgebra.inl</text>
</a>
</g>
</g>
<!-- Node14&#45;&gt;Node24 -->
<g id="edge26" class="edge"><title>Node14&#45;&gt;Node24</title>
<path fill="none" stroke="midnightblue" d="M653.921,-236.403C680.052,-226.156 723.912,-208.956 753.63,-197.302"/>
<polygon fill="midnightblue" stroke="midnightblue" points="755.088,-200.49 763.119,-193.581 752.532,-193.973 755.088,-200.49"/>
</g>
<!-- Node20&#45;&gt;Node5 -->
<g id="edge21" class="edge"><title>Node20&#45;&gt;Node5</title>
<path fill="none" stroke="midnightblue" d="M130.85,-174.443C141.655,-171.951 153.776,-169.499 165,-168 347.714,-143.594 917.39,-128.562 1100.04,-124.273"/>
<polygon fill="midnightblue" stroke="midnightblue" points="1100.31,-127.768 1110.23,-124.036 1100.15,-120.77 1100.31,-127.768"/>
</g>
<!-- Node21 -->
<g id="node21" class="node"><title>Node21</title>
<polygon fill="white" stroke="#bfbfbf" points="118,-112.5 118,-131.5 174,-131.5 174,-112.5 118,-112.5"/>
<text text-anchor="middle" x="146" y="-119.5" font-family="Helvetica,sans-Serif" font-size="10.00">algorithm</text>
</g>
<!-- Node20&#45;&gt;Node21 -->
<g id="edge22" class="edge"><title>Node20&#45;&gt;Node21</title>
<path fill="none" stroke="midnightblue" d="M104.877,-174.403C112.149,-165.314 123.795,-150.756 132.841,-139.449"/>
<polygon fill="midnightblue" stroke="midnightblue" points="135.622,-141.576 139.136,-131.581 130.155,-137.203 135.622,-141.576"/>
</g>
<!-- Node22 -->
<g id="node22" class="node"><title>Node22</title>
<polygon fill="white" stroke="#bfbfbf" points="192,-112.5 192,-131.5 236,-131.5 236,-112.5 192,-112.5"/>
<text text-anchor="middle" x="214" y="-119.5" font-family="Helvetica,sans-Serif" font-size="10.00">cmath</text>
</g>
<!-- Node20&#45;&gt;Node22 -->
<g id="edge23" class="edge"><title>Node20&#45;&gt;Node22</title>
<path fill="none" stroke="midnightblue" d="M114.62,-174.403C133.915,-164.423 165.959,-147.849 188.431,-136.225"/>
<polygon fill="midnightblue" stroke="midnightblue" points="190.137,-139.284 197.411,-131.581 186.921,-133.066 190.137,-139.284"/>
</g>
<!-- Node23 -->
<g id="node23" class="node"><title>Node23</title>
<g id="a_node23"><a xlink:href="Math_8inl.html" target="_top" xlink:title="Core/Math/Math.inl">
<polygon fill="white" stroke="black" points="0,-112.5 0,-131.5 100,-131.5 100,-112.5 0,-112.5"/>
<text text-anchor="middle" x="50" y="-119.5" font-family="Helvetica,sans-Serif" font-size="10.00">Core/Math/Math.inl</text>
</a>
</g>
</g>
<!-- Node20&#45;&gt;Node23 -->
<g id="edge24" class="edge"><title>Node20&#45;&gt;Node23</title>
<path fill="none" stroke="midnightblue" d="M86.2222,-174.403C77.1661,-165.493 65.4109,-151.325 57.5308,-140.118"/>
<polygon fill="midnightblue" stroke="midnightblue" points="60.3595,-138.048 51.9673,-131.581 54.4949,-141.87 60.3595,-138.048"/>
</g>
<!-- Node23&#45;&gt;Node20 -->
<g id="edge25" class="edge"><title>Node23&#45;&gt;Node20</title>
<path fill="none" stroke="midnightblue" d="M61.7616,-131.581C70.8145,-140.485 82.5704,-154.652 90.4551,-165.862"/>
<polygon fill="midnightblue" stroke="midnightblue" points="87.6301,-167.938 96.0234,-174.403 93.494,-164.115 87.6301,-167.938"/>
</g>
<!-- Node25&#45;&gt;Node5 -->
<g id="edge35" class="edge"><title>Node25&#45;&gt;Node5</title>
<path fill="none" stroke="midnightblue" d="M918.249,-292.454C913.995,-269.056 905.768,-203.347 939,-168 960.6,-145.025 1043.26,-133.055 1100.35,-127.395"/>
<polygon fill="midnightblue" stroke="midnightblue" points="1100.71,-130.877 1110.33,-126.443 1100.05,-123.908 1100.71,-130.877"/>
</g>
<!-- Node25&#45;&gt;Node14 -->
<g id="edge34" class="edge"><title>Node25&#45;&gt;Node14</title>
<path fill="none" stroke="midnightblue" d="M874.366,-292.444C823.703,-282.944 741.925,-267.611 687.572,-257.42"/>
<polygon fill="midnightblue" stroke="midnightblue" points="687.895,-253.919 677.421,-255.516 686.605,-260.799 687.895,-253.919"/>
</g>
<!-- Node26 -->
<g id="node26" class="node"><title>Node26</title>
<g id="a_node26"><a xlink:href="Index_8hpp.html" target="_top" xlink:title="Core/Index/Index.hpp">
<polygon fill="white" stroke="black" points="948,-236.5 948,-255.5 1058,-255.5 1058,-236.5 948,-236.5"/>
<text text-anchor="middle" x="1003" y="-243.5" font-family="Helvetica,sans-Serif" font-size="10.00">Core/Index/Index.hpp</text>
</a>
</g>
</g>
<!-- Node25&#45;&gt;Node26 -->
<g id="edge31" class="edge"><title>Node25&#45;&gt;Node26</title>
<path fill="none" stroke="midnightblue" d="M933.335,-292.324C946.162,-283.979 965.785,-271.212 980.94,-261.352"/>
<polygon fill="midnightblue" stroke="midnightblue" points="983.224,-264.042 989.698,-255.655 979.407,-258.174 983.224,-264.042"/>
</g>
<!-- Node27 -->
<g id="node27" class="node"><title>Node27</title>
<polygon fill="white" stroke="#bfbfbf" points="1070,-174.5 1070,-193.5 1110,-193.5 1110,-174.5 1070,-174.5"/>
<text text-anchor="middle" x="1090" y="-181.5" font-family="Helvetica,sans-Serif" font-size="10.00">limits</text>
</g>
<!-- Node26&#45;&gt;Node27 -->
<g id="edge32" class="edge"><title>Node26&#45;&gt;Node27</title>
<path fill="none" stroke="midnightblue" d="M1015.46,-236.403C1029.42,-226.78 1052.26,-211.024 1068.99,-199.489"/>
<polygon fill="midnightblue" stroke="midnightblue" points="1071.31,-202.139 1077.56,-193.581 1067.34,-196.377 1071.31,-202.139"/>
</g>
<!-- Node28 -->
<g id="node28" class="node"><title>Node28</title>
<g id="a_node28"><a xlink:href="Index_8inl.html" target="_top" xlink:title="Core/Index/Index.inl">
<polygon fill="white" stroke="black" points="948,-174.5 948,-193.5 1052,-193.5 1052,-174.5 948,-174.5"/>
<text text-anchor="middle" x="1000" y="-181.5" font-family="Helvetica,sans-Serif" font-size="10.00">Core/Index/Index.inl</text>
</a>
</g>
</g>
<!-- Node26&#45;&gt;Node28 -->
<g id="edge33" class="edge"><title>Node26&#45;&gt;Node28</title>
<path fill="none" stroke="midnightblue" d="M1002.57,-236.403C1002.15,-227.938 1001.49,-214.728 1000.94,-203.82"/>
<polygon fill="midnightblue" stroke="midnightblue" points="1004.42,-203.393 1000.43,-193.581 997.433,-203.743 1004.42,-203.393"/>
</g>
<!-- Node29&#45;&gt;Node3 -->
<g id="edge38" class="edge"><title>Node29&#45;&gt;Node3</title>
<path fill="none" stroke="midnightblue" d="M1160.55,-348.324C1176.99,-339.703 1202.43,-326.364 1221.47,-316.386"/>
<polygon fill="midnightblue" stroke="midnightblue" points="1223.26,-319.398 1230.49,-311.655 1220.01,-313.198 1223.26,-319.398"/>
</g>
<!-- Node29&#45;&gt;Node5 -->
<g id="edge49" class="edge"><title>Node29&#45;&gt;Node5</title>
<path fill="none" stroke="midnightblue" d="M1144.48,-348.394C1146.36,-314.573 1153.26,-190.281 1155.93,-142.184"/>
<polygon fill="midnightblue" stroke="midnightblue" points="1159.44,-142.113 1156.5,-131.934 1152.45,-141.724 1159.44,-142.113"/>
</g>
<!-- Node30 -->
<g id="node30" class="node"><title>Node30</title>
<g id="a_node30"><a xlink:href="Log_8hpp.html" target="_top" xlink:title="Core/Log/Log.hpp">
<polygon fill="white" stroke="black" points="1520,-236.5 1520,-255.5 1614,-255.5 1614,-236.5 1520,-236.5"/>
<text text-anchor="middle" x="1567" y="-243.5" font-family="Helvetica,sans-Serif" font-size="10.00">Core/Log/Log.hpp</text>
</a>
</g>
</g>
<!-- Node29&#45;&gt;Node30 -->
<g id="edge39" class="edge"><title>Node29&#45;&gt;Node30</title>
<path fill="none" stroke="midnightblue" d="M1182.74,-348.448C1221.6,-339.744 1283.12,-325.629 1336,-312 1404.07,-294.454 1482.77,-271.799 1528.51,-258.392"/>
<polygon fill="midnightblue" stroke="midnightblue" points="1529.69,-261.692 1538.3,-255.516 1527.72,-254.976 1529.69,-261.692"/>
</g>
<!-- Node30&#45;&gt;Node5 -->
<g id="edge40" class="edge"><title>Node30&#45;&gt;Node5</title>
<path fill="none" stroke="midnightblue" d="M1519.87,-242.401C1440.11,-237.385 1282.34,-224.626 1233,-200 1205.38,-186.214 1181.9,-158.393 1168.63,-140.24"/>
<polygon fill="midnightblue" stroke="midnightblue" points="1171.27,-137.913 1162.65,-131.753 1165.55,-141.944 1171.27,-137.913"/>
</g>
<!-- Node30&#45;&gt;Node10 -->
<g id="edge41" class="edge"><title>Node30&#45;&gt;Node10</title>
<path fill="none" stroke="midnightblue" d="M1614.18,-244.892C1649,-242.014 1694.29,-231.801 1718,-200 1768.32,-132.503 1647.33,-55.1553 1591.92,-24.5129"/>
<polygon fill="midnightblue" stroke="midnightblue" points="1593.47,-21.3699 1583.01,-19.6747 1590.13,-27.5218 1593.47,-21.3699"/>
</g>
<!-- Node31 -->
<g id="node31" class="node"><title>Node31</title>
<polygon fill="white" stroke="#bfbfbf" points="1436,-174.5 1436,-193.5 1482,-193.5 1482,-174.5 1436,-174.5"/>
<text text-anchor="middle" x="1459" y="-181.5" font-family="Helvetica,sans-Serif" font-size="10.00">stdio.h</text>
</g>
<!-- Node30&#45;&gt;Node31 -->
<g id="edge42" class="edge"><title>Node30&#45;&gt;Node31</title>
<path fill="none" stroke="midnightblue" d="M1551.53,-236.403C1533.72,-226.512 1504.26,-210.144 1483.37,-198.538"/>
<polygon fill="midnightblue" stroke="midnightblue" points="1484.89,-195.378 1474.45,-193.581 1481.49,-201.497 1484.89,-195.378"/>
</g>
<!-- Node32 -->
<g id="node32" class="node"><title>Node32</title>
<polygon fill="white" stroke="#bfbfbf" points="1618.5,-112.5 1618.5,-131.5 1659.5,-131.5 1659.5,-112.5 1618.5,-112.5"/>
<text text-anchor="middle" x="1639" y="-119.5" font-family="Helvetica,sans-Serif" font-size="10.00">string</text>
</g>
<!-- Node30&#45;&gt;Node32 -->
<g id="edge43" class="edge"><title>Node30&#45;&gt;Node32</title>
<path fill="none" stroke="midnightblue" d="M1614.23,-242.714C1644.67,-238.494 1682.14,-227.558 1702,-200 1710.32,-188.462 1708.51,-180.646 1702,-168 1694.87,-154.151 1681.29,-143.62 1668.56,-136.24"/>
<polygon fill="midnightblue" stroke="midnightblue" points="1670.01,-133.047 1659.54,-131.421 1666.71,-139.221 1670.01,-133.047"/>
</g>
<!-- Node33 -->
<g id="node33" class="node"><title>Node33</title>
<g id="a_node33"><a xlink:href="StringUtils_8hpp.html" target="_top" xlink:title="Core/String/StringUtils.hpp">
<polygon fill="white" stroke="black" points="1500,-174.5 1500,-193.5 1634,-193.5 1634,-174.5 1500,-174.5"/>
<text text-anchor="middle" x="1567" y="-181.5" font-family="Helvetica,sans-Serif" font-size="10.00">Core/String/StringUtils.hpp</text>
</a>
</g>
</g>
<!-- Node30&#45;&gt;Node33 -->
<g id="edge44" class="edge"><title>Node30&#45;&gt;Node33</title>
<path fill="none" stroke="midnightblue" d="M1567,-236.403C1567,-227.938 1567,-214.728 1567,-203.82"/>
<polygon fill="midnightblue" stroke="midnightblue" points="1570.5,-203.581 1567,-193.581 1563.5,-203.581 1570.5,-203.581"/>
</g>
<!-- Node34 -->
<g id="node34" class="node"><title>Node34</title>
<polygon fill="white" stroke="#bfbfbf" points="1652.5,-174.5 1652.5,-193.5 1693.5,-193.5 1693.5,-174.5 1652.5,-174.5"/>
<text text-anchor="middle" x="1673" y="-181.5" font-family="Helvetica,sans-Serif" font-size="10.00">ctime</text>
</g>
<!-- Node30&#45;&gt;Node34 -->
<g id="edge48" class="edge"><title>Node30&#45;&gt;Node34</title>
<path fill="none" stroke="midnightblue" d="M1582.19,-236.403C1599.66,-226.512 1628.58,-210.144 1649.08,-198.538"/>
<polygon fill="midnightblue" stroke="midnightblue" points="1650.86,-201.553 1657.84,-193.581 1647.41,-195.461 1650.86,-201.553"/>
</g>
<!-- Node33&#45;&gt;Node5 -->
<g id="edge45" class="edge"><title>Node33&#45;&gt;Node5</title>
<path fill="none" stroke="midnightblue" d="M1526.06,-174.445C1514.73,-172.207 1502.41,-169.893 1491,-168 1394.02,-151.912 1280.47,-137.558 1213.88,-129.592"/>
<polygon fill="midnightblue" stroke="midnightblue" points="1213.95,-126.076 1203.6,-128.369 1213.12,-133.027 1213.95,-126.076"/>
</g>
<!-- Node33&#45;&gt;Node13 -->
<g id="edge47" class="edge"><title>Node33&#45;&gt;Node13</title>
<path fill="none" stroke="midnightblue" d="M1544.22,-174.403C1516.79,-164.053 1470.57,-146.609 1439.67,-134.952"/>
<polygon fill="midnightblue" stroke="midnightblue" points="1440.82,-131.643 1430.23,-131.387 1438.35,-138.192 1440.82,-131.643"/>
</g>
<!-- Node33&#45;&gt;Node32 -->
<g id="edge46" class="edge"><title>Node33&#45;&gt;Node32</title>
<path fill="none" stroke="midnightblue" d="M1577.32,-174.403C1588.65,-164.958 1607.07,-149.606 1620.84,-138.134"/>
<polygon fill="midnightblue" stroke="midnightblue" points="1623.26,-140.671 1628.7,-131.581 1618.78,-135.294 1623.26,-140.671"/>
</g>
</g>
</svg>
