<?xml version="1.0" encoding="UTF-8" standalone="no"?>
<!DOCTYPE svg PUBLIC "-//W3C//DTD SVG 1.1//EN"
 "http://www.w3.org/Graphics/SVG/1.1/DTD/svg11.dtd">
<!-- Generated by graphviz version 2.36.0 (20140111.2315)
 -->
<!-- Title: /home/travis/build/STORM&#45;IRIT/Radium&#45;Engine/src/Core/Geometry/Approximation/VariationalShapeApproximation.hpp Pages: 1 -->
<svg width="1737pt" height="558pt"
 viewBox="0.00 0.00 1736.59 558.00" xmlns="http://www.w3.org/2000/svg" xmlns:xlink="http://www.w3.org/1999/xlink">
<g id="graph0" class="graph" transform="scale(1 1) rotate(0) translate(4 554)">
<title>/home/travis/build/STORM&#45;IRIT/Radium&#45;Engine/src/Core/Geometry/Approximation/VariationalShapeApproximation.hpp</title>
<polygon fill="white" stroke="none" points="-4,4 -4,-554 1732.59,-554 1732.59,4 -4,4"/>
<!-- Node1 -->
<g id="node1" class="node"><title>Node1</title>
<polygon fill="#bfbfbf" stroke="black" points="1324,-497 1324,-549 1498,-549 1498,-497 1324,-497"/>
<text text-anchor="start" x="1332" y="-537" font-family="Helvetica,sans-Serif" font-size="10.00">/home/travis/build</text>
<text text-anchor="start" x="1332" y="-526" font-family="Helvetica,sans-Serif" font-size="10.00">/STORM&#45;IRIT/Radium&#45;Engine</text>
<text text-anchor="start" x="1332" y="-515" font-family="Helvetica,sans-Serif" font-size="10.00">/src/Core/Geometry/Approximation</text>
<text text-anchor="middle" x="1411" y="-504" font-family="Helvetica,sans-Serif" font-size="10.00">/VariationalShapeApproximation.hpp</text>
</g>
<!-- Node2 -->
<g id="node2" class="node"><title>Node2</title>
<g id="a_node2"><a xlink:href="VectorArray_8hpp.html" target="_top" xlink:title="Core/Containers/VectorArray.hpp">
<polygon fill="white" stroke="black" points="1050.5,-310.5 1050.5,-329.5 1211.5,-329.5 1211.5,-310.5 1050.5,-310.5"/>
<text text-anchor="middle" x="1131" y="-317.5" font-family="Helvetica,sans-Serif" font-size="10.00">Core/Containers/VectorArray.hpp</text>
</a>
</g>
</g>
<!-- Node1&#45;&gt;Node2 -->
<g id="edge1" class="edge"><title>Node1&#45;&gt;Node2</title>
<path fill="none" stroke="midnightblue" d="M1323.86,-499.145C1266.48,-479.738 1194.08,-446.195 1150,-392 1137.95,-377.184 1133.49,-355.423 1131.87,-339.902"/>
<polygon fill="midnightblue" stroke="midnightblue" points="1135.36,-339.604 1131.13,-329.893 1128.38,-340.126 1135.36,-339.604"/>
</g>
<!-- Node12 -->
<g id="node12" class="node"><title>Node12</title>
<polygon fill="white" stroke="#bfbfbf" points="1265,-174.5 1265,-193.5 1309,-193.5 1309,-174.5 1265,-174.5"/>
<text text-anchor="middle" x="1287" y="-181.5" font-family="Helvetica,sans-Serif" font-size="10.00">vector</text>
</g>
<!-- Node1&#45;&gt;Node12 -->
<g id="edge55" class="edge"><title>Node1&#45;&gt;Node12</title>
<path fill="none" stroke="midnightblue" d="M1359,-496.871C1343.81,-487.25 1328.48,-474.926 1318,-460 1297.74,-431.156 1299,-418.249 1299,-383 1299,-383 1299,-383 1299,-319 1299,-277.697 1293.27,-229.518 1289.73,-203.669"/>
<polygon fill="midnightblue" stroke="midnightblue" points="1293.2,-203.166 1288.33,-193.755 1286.27,-204.147 1293.2,-203.166"/>
</g>
<!-- Node24 -->
<g id="node24" class="node"><title>Node24</title>
<g id="a_node24"><a xlink:href="TriangleMesh_8hpp.html" target="_top" xlink:title="Core/Mesh/TriangleMesh.hpp">
<polygon fill="white" stroke="black" points="844.5,-434.5 844.5,-453.5 989.5,-453.5 989.5,-434.5 844.5,-434.5"/>
<text text-anchor="middle" x="917" y="-441.5" font-family="Helvetica,sans-Serif" font-size="10.00">Core/Mesh/TriangleMesh.hpp</text>
</a>
</g>
</g>
<!-- Node1&#45;&gt;Node24 -->
<g id="edge28" class="edge"><title>Node1&#45;&gt;Node24</title>
<path fill="none" stroke="midnightblue" d="M1323.82,-508.411C1225.9,-493.149 1069.27,-468.734 981.67,-455.08"/>
<polygon fill="midnightblue" stroke="midnightblue" points="982.017,-451.592 971.597,-453.51 980.939,-458.509 982.017,-451.592"/>
</g>
<!-- Node36 -->
<g id="node36" class="node"><title>Node36</title>
<polygon fill="white" stroke="#bfbfbf" points="1513,-434.5 1513,-453.5 1551,-453.5 1551,-434.5 1513,-434.5"/>
<text text-anchor="middle" x="1532" y="-441.5" font-family="Helvetica,sans-Serif" font-size="10.00">array</text>
</g>
<!-- Node1&#45;&gt;Node36 -->
<g id="edge53" class="edge"><title>Node1&#45;&gt;Node36</title>
<path fill="none" stroke="midnightblue" d="M1450.62,-496.787C1470.39,-484.205 1493.56,-469.464 1510.1,-458.934"/>
<polygon fill="midnightblue" stroke="midnightblue" points="1511.99,-461.879 1518.55,-453.558 1508.24,-455.974 1511.99,-461.879"/>
</g>
<!-- Node37 -->
<g id="node37" class="node"><title>Node37</title>
<polygon fill="white" stroke="#bfbfbf" points="1569.5,-434.5 1569.5,-453.5 1612.5,-453.5 1612.5,-434.5 1569.5,-434.5"/>
<text text-anchor="middle" x="1591" y="-441.5" font-family="Helvetica,sans-Serif" font-size="10.00">queue</text>
</g>
<!-- Node1&#45;&gt;Node37 -->
<g id="edge54" class="edge"><title>Node1&#45;&gt;Node37</title>
<path fill="none" stroke="midnightblue" d="M1473.32,-496.984C1500.14,-485.982 1531.76,-472.695 1560,-460 1561.4,-459.372 1562.83,-458.719 1564.26,-458.053"/>
<polygon fill="midnightblue" stroke="midnightblue" points="1566.16,-461.027 1573.7,-453.583 1563.17,-454.701 1566.16,-461.027"/>
</g>
<!-- Node38 -->
<g id="node38" class="node"><title>Node38</title>
<g id="a_node38"><a xlink:href="VariationalShapeApproximation_8inl.html" target="_top" xlink:title="Core/Geometry/Approximation\l/VariationalShapeApproximation.inl">
<polygon fill="white" stroke="black" points="1327,-429 1327,-459 1495,-459 1495,-429 1327,-429"/>
<text text-anchor="start" x="1335" y="-447" font-family="Helvetica,sans-Serif" font-size="10.00">Core/Geometry/Approximation</text>
<text text-anchor="middle" x="1411" y="-436" font-family="Helvetica,sans-Serif" font-size="10.00">/VariationalShapeApproximation.inl</text>
</a>
</g>
</g>
<!-- Node1&#45;&gt;Node38 -->
<g id="edge56" class="edge"><title>Node1&#45;&gt;Node38</title>
<path fill="none" stroke="midnightblue" d="M1404.62,-496.787C1404.11,-487.932 1404.13,-478.007 1404.68,-469.234"/>
<polygon fill="midnightblue" stroke="midnightblue" points="1408.17,-469.536 1405.62,-459.252 1401.2,-468.88 1408.17,-469.536"/>
</g>
<!-- Node3 -->
<g id="node3" class="node"><title>Node3</title>
<g id="a_node3"><a xlink:href="AlignedStdVector_8hpp.html" target="_top" xlink:title="Core/Containers/AlignedStd\lVector.hpp">
<polygon fill="white" stroke="black" points="1057,-237 1057,-267 1195,-267 1195,-237 1057,-237"/>
<text text-anchor="start" x="1065" y="-255" font-family="Helvetica,sans-Serif" font-size="10.00">Core/Containers/AlignedStd</text>
<text text-anchor="middle" x="1126" y="-244" font-family="Helvetica,sans-Serif" font-size="10.00">Vector.hpp</text>
</a>
</g>
</g>
<!-- Node2&#45;&gt;Node3 -->
<g id="edge2" class="edge"><title>Node2&#45;&gt;Node3</title>
<path fill="none" stroke="midnightblue" d="M1130.35,-310.372C1129.71,-301.971 1128.71,-288.811 1127.83,-277.213"/>
<polygon fill="midnightblue" stroke="midnightblue" points="1131.32,-276.888 1127.07,-267.181 1124.34,-277.417 1131.32,-276.888"/>
</g>
<!-- Node4 -->
<g id="node4" class="node"><title>Node4</title>
<g id="a_node4"><a xlink:href="RaCore_8hpp.html" target="_top" xlink:title="Core/RaCore.hpp">
<polygon fill="white" stroke="black" points="1171.5,-112.5 1171.5,-131.5 1264.5,-131.5 1264.5,-112.5 1171.5,-112.5"/>
<text text-anchor="middle" x="1218" y="-119.5" font-family="Helvetica,sans-Serif" font-size="10.00">Core/RaCore.hpp</text>
</a>
</g>
</g>
<!-- Node2&#45;&gt;Node4 -->
<g id="edge26" class="edge"><title>Node2&#45;&gt;Node4</title>
<path fill="none" stroke="midnightblue" d="M1151.83,-310.473C1168.94,-302.28 1192.23,-288.158 1204,-268 1227.42,-227.899 1224.45,-170.723 1220.89,-141.6"/>
<polygon fill="midnightblue" stroke="midnightblue" points="1224.34,-141.016 1219.51,-131.591 1217.41,-141.976 1224.34,-141.016"/>
</g>
<!-- Node2&#45;&gt;Node12 -->
<g id="edge27" class="edge"><title>Node2&#45;&gt;Node12</title>
<path fill="none" stroke="midnightblue" d="M1159.28,-310.455C1182.28,-302.401 1214.5,-288.485 1237,-268 1257.06,-249.739 1271.69,-221.552 1279.77,-203.189"/>
<polygon fill="midnightblue" stroke="midnightblue" points="1283.02,-204.467 1283.67,-193.892 1276.57,-201.759 1283.02,-204.467"/>
</g>
<!-- Node13 -->
<g id="node13" class="node"><title>Node13</title>
<g id="a_node13"><a xlink:href="LinearAlgebra_8hpp.html" target="_top" xlink:title="Core/Math/LinearAlgebra.hpp">
<polygon fill="white" stroke="black" points="744.5,-242.5 744.5,-261.5 887.5,-261.5 887.5,-242.5 744.5,-242.5"/>
<text text-anchor="middle" x="816" y="-249.5" font-family="Helvetica,sans-Serif" font-size="10.00">Core/Math/LinearAlgebra.hpp</text>
</a>
</g>
</g>
<!-- Node2&#45;&gt;Node13 -->
<g id="edge12" class="edge"><title>Node2&#45;&gt;Node13</title>
<path fill="none" stroke="midnightblue" d="M1090.14,-310.439C1032.9,-298.446 928.896,-276.654 866.759,-263.635"/>
<polygon fill="midnightblue" stroke="midnightblue" points="867.291,-260.171 856.785,-261.546 865.855,-267.022 867.291,-260.171"/>
</g>
<!-- Node3&#45;&gt;Node4 -->
<g id="edge3" class="edge"><title>Node3&#45;&gt;Node4</title>
<path fill="none" stroke="midnightblue" d="M1143.71,-236.666C1154.78,-227.087 1168.83,-213.758 1179,-200 1192.74,-181.419 1204.08,-157.281 1210.92,-141.025"/>
<polygon fill="midnightblue" stroke="midnightblue" points="1214.22,-142.199 1214.75,-131.618 1207.74,-139.561 1214.22,-142.199"/>
</g>
<!-- Node11 -->
<g id="node11" class="node"><title>Node11</title>
<polygon fill="white" stroke="#bfbfbf" points="1083,-174.5 1083,-193.5 1171,-193.5 1171,-174.5 1083,-174.5"/>
<text text-anchor="middle" x="1127" y="-181.5" font-family="Helvetica,sans-Serif" font-size="10.00">Eigen/StdVector</text>
</g>
<!-- Node3&#45;&gt;Node11 -->
<g id="edge10" class="edge"><title>Node3&#45;&gt;Node11</title>
<path fill="none" stroke="midnightblue" d="M1126.22,-236.679C1126.36,-227.101 1126.55,-214.394 1126.71,-203.977"/>
<polygon fill="midnightblue" stroke="midnightblue" points="1130.21,-203.88 1126.87,-193.828 1123.22,-203.774 1130.21,-203.88"/>
</g>
<!-- Node3&#45;&gt;Node12 -->
<g id="edge11" class="edge"><title>Node3&#45;&gt;Node12</title>
<path fill="none" stroke="midnightblue" d="M1160.54,-236.841C1189.01,-225.169 1229.02,-208.768 1256.36,-197.558"/>
<polygon fill="midnightblue" stroke="midnightblue" points="1257.9,-200.713 1265.82,-193.682 1255.24,-194.237 1257.9,-200.713"/>
</g>
<!-- Node5 -->
<g id="node5" class="node"><title>Node5</title>
<g id="a_node5"><a xlink:href="CoreMacros_8hpp.html" target="_top" xlink:title="Core/CoreMacros.hpp">
<polygon fill="white" stroke="black" points="1271.5,-56.5 1271.5,-75.5 1384.5,-75.5 1384.5,-56.5 1271.5,-56.5"/>
<text text-anchor="middle" x="1328" y="-63.5" font-family="Helvetica,sans-Serif" font-size="10.00">Core/CoreMacros.hpp</text>
</a>
</g>
</g>
<!-- Node4&#45;&gt;Node5 -->
<g id="edge4" class="edge"><title>Node4&#45;&gt;Node5</title>
<path fill="none" stroke="midnightblue" d="M1235.67,-112.324C1253.39,-103.625 1280.9,-90.1202 1301.29,-80.113"/>
<polygon fill="midnightblue" stroke="midnightblue" points="1302.94,-83.2031 1310.37,-75.6545 1299.85,-76.9195 1302.94,-83.2031"/>
</g>
<!-- Node6 -->
<g id="node6" class="node"><title>Node6</title>
<polygon fill="white" stroke="#bfbfbf" points="1402.5,-0.5 1402.5,-19.5 1451.5,-19.5 1451.5,-0.5 1402.5,-0.5"/>
<text text-anchor="middle" x="1427" y="-7.5" font-family="Helvetica,sans-Serif" font-size="10.00">cassert</text>
</g>
<!-- Node5&#45;&gt;Node6 -->
<g id="edge5" class="edge"><title>Node5&#45;&gt;Node6</title>
<path fill="none" stroke="midnightblue" d="M1343.91,-56.324C1359.64,-47.7428 1383.94,-34.486 1402.21,-24.5224"/>
<polygon fill="midnightblue" stroke="midnightblue" points="1404.03,-27.5157 1411.13,-19.6545 1400.68,-21.3704 1404.03,-27.5157"/>
</g>
<!-- Node7 -->
<g id="node7" class="node"><title>Node7</title>
<polygon fill="white" stroke="#bfbfbf" points="1206.5,-0.5 1206.5,-19.5 1249.5,-19.5 1249.5,-0.5 1206.5,-0.5"/>
<text text-anchor="middle" x="1228" y="-7.5" font-family="Helvetica,sans-Serif" font-size="10.00">cstdio</text>
</g>
<!-- Node5&#45;&gt;Node7 -->
<g id="edge6" class="edge"><title>Node5&#45;&gt;Node7</title>
<path fill="none" stroke="midnightblue" d="M1311.93,-56.324C1296.04,-47.7428 1271.49,-34.486 1253.04,-24.5224"/>
<polygon fill="midnightblue" stroke="midnightblue" points="1254.49,-21.3264 1244.03,-19.6545 1251.16,-27.4857 1254.49,-21.3264"/>
</g>
<!-- Node8 -->
<g id="node8" class="node"><title>Node8</title>
<polygon fill="white" stroke="#bfbfbf" points="1268,-0.5 1268,-19.5 1322,-19.5 1322,-0.5 1268,-0.5"/>
<text text-anchor="middle" x="1295" y="-7.5" font-family="Helvetica,sans-Serif" font-size="10.00">iostream</text>
</g>
<!-- Node5&#45;&gt;Node8 -->
<g id="edge7" class="edge"><title>Node5&#45;&gt;Node8</title>
<path fill="none" stroke="midnightblue" d="M1322.55,-56.083C1317.99,-48.6127 1311.33,-37.7244 1305.71,-28.5199"/>
<polygon fill="midnightblue" stroke="midnightblue" points="1308.55,-26.4588 1300.35,-19.7511 1302.58,-30.109 1308.55,-26.4588"/>
</g>
<!-- Node9 -->
<g id="node9" class="node"><title>Node9</title>
<polygon fill="white" stroke="#bfbfbf" points="1547,-0.5 1547,-19.5 1599,-19.5 1599,-0.5 1547,-0.5"/>
<text text-anchor="middle" x="1573" y="-7.5" font-family="Helvetica,sans-Serif" font-size="10.00">sstream</text>
</g>
<!-- Node5&#45;&gt;Node9 -->
<g id="edge8" class="edge"><title>Node5&#45;&gt;Node9</title>
<path fill="none" stroke="midnightblue" d="M1366.82,-56.4435C1413.51,-46.1524 1491.27,-29.0136 1536.77,-18.9844"/>
<polygon fill="midnightblue" stroke="midnightblue" points="1537.78,-22.3472 1546.79,-16.7767 1536.27,-15.5113 1537.78,-22.3472"/>
</g>
<!-- Node10 -->
<g id="node10" class="node"><title>Node10</title>
<polygon fill="white" stroke="#bfbfbf" points="1340,-0.5 1340,-19.5 1384,-19.5 1384,-0.5 1340,-0.5"/>
<text text-anchor="middle" x="1362" y="-7.5" font-family="Helvetica,sans-Serif" font-size="10.00">thread</text>
</g>
<!-- Node5&#45;&gt;Node10 -->
<g id="edge9" class="edge"><title>Node5&#45;&gt;Node10</title>
<path fill="none" stroke="midnightblue" d="M1333.61,-56.083C1338.37,-48.5341 1345.32,-37.4948 1351.15,-28.2298"/>
<polygon fill="midnightblue" stroke="midnightblue" points="1354.12,-30.0783 1356.49,-19.7511 1348.2,-26.3486 1354.12,-30.0783"/>
</g>
<!-- Node13&#45;&gt;Node4 -->
<g id="edge13" class="edge"><title>Node13&#45;&gt;Node4</title>
<path fill="none" stroke="midnightblue" d="M887.585,-242.771C931.783,-235.679 988.692,-222.826 1035,-200 1055.11,-190.087 1054.27,-178.651 1074,-168 1102.97,-152.362 1138.2,-141.233 1166.56,-133.954"/>
<polygon fill="midnightblue" stroke="midnightblue" points="1167.43,-137.346 1176.29,-131.539 1165.74,-130.553 1167.43,-137.346"/>
</g>
<!-- Node14 -->
<g id="node14" class="node"><title>Node14</title>
<polygon fill="white" stroke="#bfbfbf" points="686.5,-174.5 686.5,-193.5 751.5,-193.5 751.5,-174.5 686.5,-174.5"/>
<text text-anchor="middle" x="719" y="-181.5" font-family="Helvetica,sans-Serif" font-size="10.00">Eigen/Core</text>
</g>
<!-- Node13&#45;&gt;Node14 -->
<g id="edge14" class="edge"><title>Node13&#45;&gt;Node14</title>
<path fill="none" stroke="midnightblue" d="M803.319,-242.372C787.271,-231.452 759.4,-212.489 740.118,-199.369"/>
<polygon fill="midnightblue" stroke="midnightblue" points="741.921,-196.362 731.684,-193.63 737.983,-202.15 741.921,-196.362"/>
</g>
<!-- Node15 -->
<g id="node15" class="node"><title>Node15</title>
<polygon fill="white" stroke="#bfbfbf" points="769.5,-174.5 769.5,-193.5 856.5,-193.5 856.5,-174.5 769.5,-174.5"/>
<text text-anchor="middle" x="813" y="-181.5" font-family="Helvetica,sans-Serif" font-size="10.00">Eigen/Geometry</text>
</g>
<!-- Node13&#45;&gt;Node15 -->
<g id="edge15" class="edge"><title>Node13&#45;&gt;Node15</title>
<path fill="none" stroke="midnightblue" d="M815.608,-242.372C815.166,-232.643 814.433,-216.528 813.857,-203.85"/>
<polygon fill="midnightblue" stroke="midnightblue" points="817.352,-203.672 813.402,-193.841 810.36,-203.99 817.352,-203.672"/>
</g>
<!-- Node16 -->
<g id="node16" class="node"><title>Node16</title>
<polygon fill="white" stroke="#bfbfbf" points="874.5,-174.5 874.5,-193.5 949.5,-193.5 949.5,-174.5 874.5,-174.5"/>
<text text-anchor="middle" x="912" y="-181.5" font-family="Helvetica,sans-Serif" font-size="10.00">Eigen/Sparse</text>
</g>
<!-- Node13&#45;&gt;Node16 -->
<g id="edge16" class="edge"><title>Node13&#45;&gt;Node16</title>
<path fill="none" stroke="midnightblue" d="M828.55,-242.372C844.433,-231.452 872.016,-212.489 891.1,-199.369"/>
<polygon fill="midnightblue" stroke="midnightblue" points="893.189,-202.18 899.447,-193.63 889.223,-196.412 893.189,-202.18"/>
</g>
<!-- Node17 -->
<g id="node17" class="node"><title>Node17</title>
<polygon fill="white" stroke="#bfbfbf" points="967.5,-174.5 967.5,-193.5 1026.5,-193.5 1026.5,-174.5 967.5,-174.5"/>
<text text-anchor="middle" x="997" y="-181.5" font-family="Helvetica,sans-Serif" font-size="10.00">functional</text>
</g>
<!-- Node13&#45;&gt;Node17 -->
<g id="edge17" class="edge"><title>Node13&#45;&gt;Node17</title>
<path fill="none" stroke="midnightblue" d="M840.433,-242.412C868.775,-232.406 916.875,-215.292 958,-200 960.38,-199.115 962.838,-198.192 965.308,-197.257"/>
<polygon fill="midnightblue" stroke="midnightblue" points="966.662,-200.487 974.759,-193.653 964.168,-193.946 966.662,-200.487"/>
</g>
<!-- Node18 -->
<g id="node18" class="node"><title>Node18</title>
<polygon fill="white" stroke="#bfbfbf" points="380.5,-169 380.5,-199 513.5,-199 513.5,-169 380.5,-169"/>
<text text-anchor="start" x="388.5" y="-187" font-family="Helvetica,sans-Serif" font-size="10.00">unsupported/Eigen/Aligned</text>
<text text-anchor="middle" x="447" y="-176" font-family="Helvetica,sans-Serif" font-size="10.00">Vector3</text>
</g>
<!-- Node13&#45;&gt;Node18 -->
<g id="edge18" class="edge"><title>Node13&#45;&gt;Node18</title>
<path fill="none" stroke="midnightblue" d="M764.412,-242.463C707.716,-232.987 613.69,-217.004 523.483,-200.254"/>
<polygon fill="midnightblue" stroke="midnightblue" points="524.111,-196.811 513.639,-198.42 522.829,-203.692 524.111,-196.811"/>
</g>
<!-- Node19 -->
<g id="node19" class="node"><title>Node19</title>
<g id="a_node19"><a xlink:href="Math_8hpp.html" target="_top" xlink:title="Core/Math/Math.hpp">
<polygon fill="white" stroke="black" points="180,-174.5 180,-193.5 286,-193.5 286,-174.5 180,-174.5"/>
<text text-anchor="middle" x="233" y="-181.5" font-family="Helvetica,sans-Serif" font-size="10.00">Core/Math/Math.hpp</text>
</a>
</g>
</g>
<!-- Node13&#45;&gt;Node19 -->
<g id="edge19" class="edge"><title>Node13&#45;&gt;Node19</title>
<path fill="none" stroke="midnightblue" d="M744.221,-242.874C629.231,-229.856 405.577,-204.537 296.243,-192.16"/>
<polygon fill="midnightblue" stroke="midnightblue" points="296.357,-188.65 286.027,-191.003 295.57,-195.606 296.357,-188.65"/>
</g>
<!-- Node23 -->
<g id="node23" class="node"><title>Node23</title>
<g id="a_node23"><a xlink:href="LinearAlgebra_8inl.html" target="_top" xlink:title="Core/Math/LinearAlgebra.inl">
<polygon fill="white" stroke="black" points="531.5,-174.5 531.5,-193.5 668.5,-193.5 668.5,-174.5 531.5,-174.5"/>
<text text-anchor="middle" x="600" y="-181.5" font-family="Helvetica,sans-Serif" font-size="10.00">Core/Math/LinearAlgebra.inl</text>
</a>
</g>
</g>
<!-- Node13&#45;&gt;Node23 -->
<g id="edge25" class="edge"><title>Node13&#45;&gt;Node23</title>
<path fill="none" stroke="midnightblue" d="M787.762,-242.372C749.332,-230.629 680.46,-209.585 637.664,-196.508"/>
<polygon fill="midnightblue" stroke="midnightblue" points="638.489,-193.101 627.903,-193.526 636.444,-199.795 638.489,-193.101"/>
</g>
<!-- Node19&#45;&gt;Node4 -->
<g id="edge20" class="edge"><title>Node19&#45;&gt;Node4</title>
<path fill="none" stroke="midnightblue" d="M265.853,-174.467C276.659,-171.977 288.779,-169.52 300,-168 623.565,-124.178 1016.4,-121.661 1161.03,-122.415"/>
<polygon fill="midnightblue" stroke="midnightblue" points="1161.39,-125.917 1171.41,-122.477 1161.43,-118.917 1161.39,-125.917"/>
</g>
<!-- Node20 -->
<g id="node20" class="node"><title>Node20</title>
<polygon fill="white" stroke="#bfbfbf" points="92,-112.5 92,-131.5 148,-131.5 148,-112.5 92,-112.5"/>
<text text-anchor="middle" x="120" y="-119.5" font-family="Helvetica,sans-Serif" font-size="10.00">algorithm</text>
</g>
<!-- Node19&#45;&gt;Node20 -->
<g id="edge21" class="edge"><title>Node19&#45;&gt;Node20</title>
<path fill="none" stroke="midnightblue" d="M216.81,-174.403C198.098,-164.468 167.077,-147.997 145.201,-136.381"/>
<polygon fill="midnightblue" stroke="midnightblue" points="146.634,-133.179 136.16,-131.581 143.351,-139.362 146.634,-133.179"/>
</g>
<!-- Node21 -->
<g id="node21" class="node"><title>Node21</title>
<polygon fill="white" stroke="#bfbfbf" points="166,-112.5 166,-131.5 210,-131.5 210,-112.5 166,-112.5"/>
<text text-anchor="middle" x="188" y="-119.5" font-family="Helvetica,sans-Serif" font-size="10.00">cmath</text>
</g>
<!-- Node19&#45;&gt;Node21 -->
<g id="edge22" class="edge"><title>Node19&#45;&gt;Node21</title>
<path fill="none" stroke="midnightblue" d="M226.553,-174.403C219.803,-165.403 209.031,-151.041 200.587,-139.782"/>
<polygon fill="midnightblue" stroke="midnightblue" points="203.235,-137.481 194.435,-131.581 197.635,-141.681 203.235,-137.481"/>
</g>
<!-- Node22 -->
<g id="node22" class="node"><title>Node22</title>
<g id="a_node22"><a xlink:href="Math_8inl.html" target="_top" xlink:title="Core/Math/Math.inl">
<polygon fill="white" stroke="black" points="228,-112.5 228,-131.5 328,-131.5 328,-112.5 228,-112.5"/>
<text text-anchor="middle" x="278" y="-119.5" font-family="Helvetica,sans-Serif" font-size="10.00">Core/Math/Math.inl</text>
</a>
</g>
</g>
<!-- Node19&#45;&gt;Node22 -->
<g id="edge23" class="edge"><title>Node19&#45;&gt;Node22</title>
<path fill="none" stroke="midnightblue" d="M234.547,-174.403C239.445,-165.225 250.125,-150.47 259.85,-139.117"/>
<polygon fill="midnightblue" stroke="midnightblue" points="262.555,-141.345 266.667,-131.581 257.364,-136.649 262.555,-141.345"/>
</g>
<!-- Node22&#45;&gt;Node19 -->
<g id="edge24" class="edge"><title>Node22&#45;&gt;Node19</title>
<path fill="none" stroke="midnightblue" d="M276.462,-131.581C271.57,-140.752 260.893,-155.506 251.166,-166.863"/>
<polygon fill="midnightblue" stroke="midnightblue" points="248.459,-164.639 244.348,-174.403 253.651,-169.334 248.459,-164.639"/>
</g>
<!-- Node24&#45;&gt;Node2 -->
<g id="edge29" class="edge"><title>Node24&#45;&gt;Node2</title>
<path fill="none" stroke="midnightblue" d="M932.048,-434.421C968.654,-413.552 1062.6,-359.995 1107.03,-334.665"/>
<polygon fill="midnightblue" stroke="midnightblue" points="1109.01,-337.563 1115.97,-329.569 1105.55,-331.481 1109.01,-337.563"/>
</g>
<!-- Node24&#45;&gt;Node4 -->
<g id="edge37" class="edge"><title>Node24&#45;&gt;Node4</title>
<path fill="none" stroke="midnightblue" d="M844.264,-443.382C683.885,-442.263 314,-428.076 314,-321 314,-321 314,-321 314,-251 314,-210.051 319.903,-190.676 354,-168 420.904,-123.506 979.562,-121.953 1161.19,-122.643"/>
<polygon fill="midnightblue" stroke="midnightblue" points="1161.32,-126.143 1171.34,-122.685 1161.35,-119.143 1161.32,-126.143"/>
</g>
<!-- Node24&#45;&gt;Node13 -->
<g id="edge30" class="edge"><title>Node24&#45;&gt;Node13</title>
<path fill="none" stroke="midnightblue" d="M894.091,-434.402C875.859,-426.316 851.274,-412.383 838,-392 813.742,-354.752 812.852,-300.243 814.367,-271.819"/>
<polygon fill="midnightblue" stroke="midnightblue" points="817.871,-271.889 815.076,-261.67 810.888,-271.402 817.871,-271.889"/>
</g>
<!-- Node25 -->
<g id="node25" class="node"><title>Node25</title>
<g id="a_node25"><a xlink:href="MeshTypes_8hpp.html" target="_top" xlink:title="Core/Mesh/MeshTypes.hpp">
<polygon fill="white" stroke="black" points="499.5,-310.5 499.5,-329.5 636.5,-329.5 636.5,-310.5 499.5,-310.5"/>
<text text-anchor="middle" x="568" y="-317.5" font-family="Helvetica,sans-Serif" font-size="10.00">Core/Mesh/MeshTypes.hpp</text>
</a>
</g>
</g>
<!-- Node24&#45;&gt;Node25 -->
<g id="edge31" class="edge"><title>Node24&#45;&gt;Node25</title>
<path fill="none" stroke="midnightblue" d="M892.459,-434.421C831.383,-413.071 672.434,-357.507 602.209,-332.958"/>
<polygon fill="midnightblue" stroke="midnightblue" points="603.109,-329.565 592.514,-329.569 600.799,-336.173 603.109,-329.565"/>
</g>
<!-- Node29 -->
<g id="node29" class="node"><title>Node29</title>
<g id="a_node29"><a xlink:href="Attribs_8hpp.html" target="_top" xlink:title="Core/Utils/Attribs.hpp">
<polygon fill="white" stroke="black" points="1159.5,-372.5 1159.5,-391.5 1270.5,-391.5 1270.5,-372.5 1159.5,-372.5"/>
<text text-anchor="middle" x="1215" y="-379.5" font-family="Helvetica,sans-Serif" font-size="10.00">Core/Utils/Attribs.hpp</text>
</a>
</g>
</g>
<!-- Node24&#45;&gt;Node29 -->
<g id="edge38" class="edge"><title>Node24&#45;&gt;Node29</title>
<path fill="none" stroke="midnightblue" d="M959.38,-434.467C1012.89,-423.693 1104.93,-405.162 1162.74,-393.522"/>
<polygon fill="midnightblue" stroke="midnightblue" points="1163.65,-396.908 1172.77,-391.503 1162.27,-390.046 1163.65,-396.908"/>
</g>
<!-- Node35 -->
<g id="node35" class="node"><title>Node35</title>
<g id="a_node35"><a xlink:href="TriangleMesh_8inl.html" target="_top" xlink:title="Core/Mesh/TriangleMesh.inl">
<polygon fill="white" stroke="black" points="847.5,-372.5 847.5,-391.5 986.5,-391.5 986.5,-372.5 847.5,-372.5"/>
<text text-anchor="middle" x="917" y="-379.5" font-family="Helvetica,sans-Serif" font-size="10.00">Core/Mesh/TriangleMesh.inl</text>
</a>
</g>
</g>
<!-- Node24&#45;&gt;Node35 -->
<g id="edge51" class="edge"><title>Node24&#45;&gt;Node35</title>
<path fill="none" stroke="midnightblue" d="M912.099,-434.403C910.268,-425.938 909.797,-412.728 910.685,-401.82"/>
<polygon fill="midnightblue" stroke="midnightblue" points="914.198,-401.966 912.103,-391.581 907.264,-401.006 914.198,-401.966"/>
</g>
<!-- Node25&#45;&gt;Node4 -->
<g id="edge36" class="edge"><title>Node25&#45;&gt;Node4</title>
<path fill="none" stroke="midnightblue" d="M538.425,-310.426C469.95,-289.232 310.807,-231.476 371,-168 398.208,-139.308 976.141,-127.083 1161.4,-123.892"/>
<polygon fill="midnightblue" stroke="midnightblue" points="1161.54,-127.39 1171.48,-123.72 1161.42,-120.391 1161.54,-127.39"/>
</g>
<!-- Node25&#45;&gt;Node13 -->
<g id="edge35" class="edge"><title>Node25&#45;&gt;Node13</title>
<path fill="none" stroke="midnightblue" d="M600.167,-310.439C644.676,-298.594 725.096,-277.192 774.207,-264.122"/>
<polygon fill="midnightblue" stroke="midnightblue" points="775.126,-267.5 783.89,-261.546 773.326,-260.735 775.126,-267.5"/>
</g>
<!-- Node26 -->
<g id="node26" class="node"><title>Node26</title>
<g id="a_node26"><a xlink:href="Index_8hpp.html" target="_top" xlink:title="Core/Index/Index.hpp">
<polygon fill="white" stroke="black" points="87,-242.5 87,-261.5 197,-261.5 197,-242.5 87,-242.5"/>
<text text-anchor="middle" x="142" y="-249.5" font-family="Helvetica,sans-Serif" font-size="10.00">Core/Index/Index.hpp</text>
</a>
</g>
</g>
<!-- Node25&#45;&gt;Node26 -->
<g id="edge32" class="edge"><title>Node25&#45;&gt;Node26</title>
<path fill="none" stroke="midnightblue" d="M512.745,-310.439C434.216,-298.273 290.605,-276.023 207.042,-263.077"/>
<polygon fill="midnightblue" stroke="midnightblue" points="207.575,-259.618 197.157,-261.546 206.504,-266.535 207.575,-259.618"/>
</g>
<!-- Node27 -->
<g id="node27" class="node"><title>Node27</title>
<polygon fill="white" stroke="#bfbfbf" points="122,-174.5 122,-193.5 162,-193.5 162,-174.5 122,-174.5"/>
<text text-anchor="middle" x="142" y="-181.5" font-family="Helvetica,sans-Serif" font-size="10.00">limits</text>
</g>
<!-- Node26&#45;&gt;Node27 -->
<g id="edge33" class="edge"><title>Node26&#45;&gt;Node27</title>
<path fill="none" stroke="midnightblue" d="M142,-242.372C142,-232.643 142,-216.528 142,-203.85"/>
<polygon fill="midnightblue" stroke="midnightblue" points="145.5,-203.841 142,-193.841 138.5,-203.841 145.5,-203.841"/>
</g>
<!-- Node28 -->
<g id="node28" class="node"><title>Node28</title>
<g id="a_node28"><a xlink:href="Index_8inl.html" target="_top" xlink:title="Core/Index/Index.inl">
<polygon fill="white" stroke="black" points="0,-174.5 0,-193.5 104,-193.5 104,-174.5 0,-174.5"/>
<text text-anchor="middle" x="52" y="-181.5" font-family="Helvetica,sans-Serif" font-size="10.00">Core/Index/Index.inl</text>
</a>
</g>
</g>
<!-- Node26&#45;&gt;Node28 -->
<g id="edge34" class="edge"><title>Node26&#45;&gt;Node28</title>
<path fill="none" stroke="midnightblue" d="M130.234,-242.372C115.411,-231.502 89.7185,-212.66 71.8374,-199.547"/>
<polygon fill="midnightblue" stroke="midnightblue" points="73.9027,-196.722 63.7688,-193.63 69.7631,-202.367 73.9027,-196.722"/>
</g>
<!-- Node29&#45;&gt;Node2 -->
<g id="edge39" class="edge"><title>Node29&#45;&gt;Node2</title>
<path fill="none" stroke="midnightblue" d="M1202.96,-372.403C1189.49,-362.78 1167.43,-347.024 1151.28,-335.489"/>
<polygon fill="midnightblue" stroke="midnightblue" points="1153.18,-332.545 1143.01,-329.581 1149.12,-338.241 1153.18,-332.545"/>
</g>
<!-- Node29&#45;&gt;Node4 -->
<g id="edge50" class="edge"><title>Node29&#45;&gt;Node4</title>
<path fill="none" stroke="midnightblue" d="M1222.12,-372.311C1241.99,-347.414 1297.87,-272.918 1317,-200 1320.61,-186.243 1324.7,-179.958 1317,-168 1306.69,-151.995 1289.15,-141.617 1271.67,-134.916"/>
<polygon fill="midnightblue" stroke="midnightblue" points="1272.6,-131.535 1262.01,-131.559 1270.3,-138.147 1272.6,-131.535"/>
</g>
<!-- Node30 -->
<g id="node30" class="node"><title>Node30</title>
<g id="a_node30"><a xlink:href="Log_8hpp.html" target="_top" xlink:title="Core/Log/Log.hpp">
<polygon fill="white" stroke="black" points="1477,-310.5 1477,-329.5 1571,-329.5 1571,-310.5 1477,-310.5"/>
<text text-anchor="middle" x="1524" y="-317.5" font-family="Helvetica,sans-Serif" font-size="10.00">Core/Log/Log.hpp</text>
</a>
</g>
</g>
<!-- Node29&#45;&gt;Node30 -->
<g id="edge40" class="edge"><title>Node29&#45;&gt;Node30</title>
<path fill="none" stroke="midnightblue" d="M1258.94,-372.467C1314.54,-361.671 1410.26,-343.086 1470.18,-331.45"/>
<polygon fill="midnightblue" stroke="midnightblue" points="1471.06,-334.845 1480.21,-329.503 1469.72,-327.974 1471.06,-334.845"/>
</g>
<!-- Node30&#45;&gt;Node4 -->
<g id="edge41" class="edge"><title>Node30&#45;&gt;Node4</title>
<path fill="none" stroke="midnightblue" d="M1478.54,-310.446C1451.09,-303.222 1417.08,-290.346 1394,-268 1359.24,-234.347 1386.55,-200.817 1351,-168 1330.13,-148.732 1300.7,-137.681 1274.83,-131.359"/>
<polygon fill="midnightblue" stroke="midnightblue" points="1275.27,-127.87 1264.74,-129.083 1273.73,-134.699 1275.27,-127.87"/>
</g>
<!-- Node30&#45;&gt;Node9 -->
<g id="edge42" class="edge"><title>Node30&#45;&gt;Node9</title>
<path fill="none" stroke="midnightblue" d="M1571.2,-318.567C1612.67,-315.577 1671.73,-304.544 1707,-268 1733.35,-240.699 1727,-222.945 1727,-185 1727,-185 1727,-185 1727,-121 1727,-63.2682 1654.45,-32.9657 1608.94,-19.6369"/>
<polygon fill="midnightblue" stroke="midnightblue" points="1609.7,-16.2138 1599.12,-16.8995 1607.82,-22.9567 1609.7,-16.2138"/>
</g>
<!-- Node31 -->
<g id="node31" class="node"><title>Node31</title>
<polygon fill="white" stroke="#bfbfbf" points="1555,-242.5 1555,-261.5 1601,-261.5 1601,-242.5 1555,-242.5"/>
<text text-anchor="middle" x="1578" y="-249.5" font-family="Helvetica,sans-Serif" font-size="10.00">stdio.h</text>
</g>
<!-- Node30&#45;&gt;Node31 -->
<g id="edge43" class="edge"><title>Node30&#45;&gt;Node31</title>
<path fill="none" stroke="midnightblue" d="M1531.06,-310.372C1539.5,-300.053 1553.82,-282.551 1564.43,-269.585"/>
<polygon fill="midnightblue" stroke="midnightblue" points="1567.14,-271.797 1570.77,-261.841 1561.73,-267.364 1567.14,-271.797"/>
</g>
<!-- Node32 -->
<g id="node32" class="node"><title>Node32</title>
<polygon fill="white" stroke="#bfbfbf" points="1539.5,-174.5 1539.5,-193.5 1580.5,-193.5 1580.5,-174.5 1539.5,-174.5"/>
<text text-anchor="middle" x="1560" y="-181.5" font-family="Helvetica,sans-Serif" font-size="10.00">string</text>
</g>
<!-- Node30&#45;&gt;Node32 -->
<g id="edge44" class="edge"><title>Node30&#45;&gt;Node32</title>
<path fill="none" stroke="midnightblue" d="M1552.72,-310.409C1572.67,-302.767 1597.8,-289.418 1610,-268 1617.04,-255.642 1615.38,-249.166 1610,-236 1604.1,-221.547 1591.91,-208.974 1581.04,-199.928"/>
<polygon fill="midnightblue" stroke="midnightblue" points="1583.15,-197.133 1573.12,-193.726 1578.83,-202.645 1583.15,-197.133"/>
</g>
<!-- Node33 -->
<g id="node33" class="node"><title>Node33</title>
<g id="a_node33"><a xlink:href="StringUtils_8hpp.html" target="_top" xlink:title="Core/String/StringUtils.hpp">
<polygon fill="white" stroke="black" points="1403,-242.5 1403,-261.5 1537,-261.5 1537,-242.5 1403,-242.5"/>
<text text-anchor="middle" x="1470" y="-249.5" font-family="Helvetica,sans-Serif" font-size="10.00">Core/String/StringUtils.hpp</text>
</a>
</g>
</g>
<!-- Node30&#45;&gt;Node33 -->
<g id="edge45" class="edge"><title>Node30&#45;&gt;Node33</title>
<path fill="none" stroke="midnightblue" d="M1516.94,-310.372C1508.5,-300.053 1494.18,-282.551 1483.57,-269.585"/>
<polygon fill="midnightblue" stroke="midnightblue" points="1486.27,-267.364 1477.23,-261.841 1480.86,-271.797 1486.27,-267.364"/>
</g>
<!-- Node34 -->
<g id="node34" class="node"><title>Node34</title>
<polygon fill="white" stroke="#bfbfbf" points="1657.5,-242.5 1657.5,-261.5 1698.5,-261.5 1698.5,-242.5 1657.5,-242.5"/>
<text text-anchor="middle" x="1678" y="-249.5" font-family="Helvetica,sans-Serif" font-size="10.00">ctime</text>
</g>
<!-- Node30&#45;&gt;Node34 -->
<g id="edge49" class="edge"><title>Node30&#45;&gt;Node34</title>
<path fill="none" stroke="midnightblue" d="M1544.13,-310.372C1570.76,-298.958 1617.9,-278.756 1648.54,-265.625"/>
<polygon fill="midnightblue" stroke="midnightblue" points="1650.05,-268.787 1657.86,-261.63 1647.29,-262.353 1650.05,-268.787"/>
</g>
<!-- Node33&#45;&gt;Node4 -->
<g id="edge46" class="edge"><title>Node33&#45;&gt;Node4</title>
<path fill="none" stroke="midnightblue" d="M1464.17,-242.474C1452.17,-225.576 1422.93,-187.762 1389,-168 1353.87,-147.538 1309.33,-136.204 1274.51,-130.03"/>
<polygon fill="midnightblue" stroke="midnightblue" points="1274.94,-126.554 1264.5,-128.348 1273.78,-133.457 1274.94,-126.554"/>
</g>
<!-- Node33&#45;&gt;Node12 -->
<g id="edge48" class="edge"><title>Node33&#45;&gt;Node12</title>
<path fill="none" stroke="midnightblue" d="M1446.08,-242.372C1413.49,-230.618 1355.06,-209.545 1318.81,-196.471"/>
<polygon fill="midnightblue" stroke="midnightblue" points="1319.81,-193.111 1309.21,-193.01 1317.43,-199.696 1319.81,-193.111"/>
</g>
<!-- Node33&#45;&gt;Node32 -->
<g id="edge47" class="edge"><title>Node33&#45;&gt;Node32</title>
<path fill="none" stroke="midnightblue" d="M1481.77,-242.372C1496.59,-231.502 1522.28,-212.66 1540.16,-199.547"/>
<polygon fill="midnightblue" stroke="midnightblue" points="1542.24,-202.367 1548.23,-193.63 1538.1,-196.722 1542.24,-202.367"/>
</g>
<!-- Node35&#45;&gt;Node24 -->
<g id="edge52" class="edge"><title>Node35&#45;&gt;Node24</title>
<path fill="none" stroke="midnightblue" d="M921.897,-391.581C923.73,-400.04 924.203,-413.248 923.317,-424.16"/>
<polygon fill="midnightblue" stroke="midnightblue" points="919.803,-424.018 921.901,-434.403 926.737,-424.977 919.803,-424.018"/>
</g>
<!-- Node38&#45;&gt;Node1 -->
<g id="edge57" class="edge"><title>Node38&#45;&gt;Node1</title>
<path fill="none" stroke="midnightblue" d="M1416.38,-459.252C1417.4,-466.969 1417.85,-476.877 1417.73,-486.529"/>
<polygon fill="midnightblue" stroke="midnightblue" points="1414.22,-486.673 1417.38,-496.787 1421.22,-486.913 1414.22,-486.673"/>
</g>
<!-- Node38&#45;&gt;Node30 -->
<g id="edge60" class="edge"><title>Node38&#45;&gt;Node30</title>
<path fill="none" stroke="midnightblue" d="M1422.84,-428.877C1435.13,-414.368 1455.01,-391.249 1473,-372 1484.2,-360.017 1497.29,-346.945 1507.4,-337.036"/>
<polygon fill="midnightblue" stroke="midnightblue" points="1510.06,-339.332 1514.78,-329.847 1505.18,-334.317 1510.06,-339.332"/>
</g>
<!-- Node39 -->
<g id="node39" class="node"><title>Node39</title>
<g id="a_node39"><a xlink:href="TriangleOperation_8hpp.html" target="_top" xlink:title="Core/Geometry/Triangle\l/TriangleOperation.hpp">
<polygon fill="white" stroke="black" points="876.5,-305 876.5,-335 997.5,-335 997.5,-305 876.5,-305"/>
<text text-anchor="start" x="884.5" y="-323" font-family="Helvetica,sans-Serif" font-size="10.00">Core/Geometry/Triangle</text>
<text text-anchor="middle" x="937" y="-312" font-family="Helvetica,sans-Serif" font-size="10.00">/TriangleOperation.hpp</text>
</a>
</g>
</g>
<!-- Node38&#45;&gt;Node39 -->
<g id="edge58" class="edge"><title>Node38&#45;&gt;Node39</title>
<path fill="none" stroke="midnightblue" d="M1326.92,-429.407C1275.46,-420.388 1208.49,-407.394 1150,-392 1091.95,-376.721 1026.66,-354.13 983.846,-338.554"/>
<polygon fill="midnightblue" stroke="midnightblue" points="984.859,-335.198 974.265,-335.049 982.454,-341.772 984.859,-335.198"/>
</g>
<!-- Node40 -->
<g id="node40" class="node"><title>Node40</title>
<polygon fill="white" stroke="#bfbfbf" points="1482,-372.5 1482,-391.5 1580,-391.5 1580,-372.5 1482,-372.5"/>
<text text-anchor="middle" x="1531" y="-379.5" font-family="Helvetica,sans-Serif" font-size="10.00">Eigen/Eigenvalues</text>
</g>
<!-- Node38&#45;&gt;Node40 -->
<g id="edge61" class="edge"><title>Node38&#45;&gt;Node40</title>
<path fill="none" stroke="midnightblue" d="M1439.13,-428.933C1458.93,-419.036 1485.24,-405.88 1504.63,-396.185"/>
<polygon fill="midnightblue" stroke="midnightblue" points="1506.42,-399.203 1513.8,-391.6 1503.29,-392.942 1506.42,-399.203"/>
</g>
<!-- Node41 -->
<g id="node41" class="node"><title>Node41</title>
<polygon fill="white" stroke="#bfbfbf" points="1329.5,-372.5 1329.5,-391.5 1378.5,-391.5 1378.5,-372.5 1329.5,-372.5"/>
<text text-anchor="middle" x="1354" y="-379.5" font-family="Helvetica,sans-Serif" font-size="10.00">random</text>
</g>
<!-- Node38&#45;&gt;Node41 -->
<g id="edge62" class="edge"><title>Node38&#45;&gt;Node41</title>
<path fill="none" stroke="midnightblue" d="M1397.49,-428.781C1389.04,-419.882 1378.12,-408.394 1369.34,-399.152"/>
<polygon fill="midnightblue" stroke="midnightblue" points="1371.72,-396.57 1362.29,-391.731 1366.64,-401.391 1371.72,-396.57"/>
</g>
<!-- Node42 -->
<g id="node42" class="node"><title>Node42</title>
<polygon fill="white" stroke="#bfbfbf" points="1396,-372.5 1396,-391.5 1426,-391.5 1426,-372.5 1396,-372.5"/>
<text text-anchor="middle" x="1411" y="-379.5" font-family="Helvetica,sans-Serif" font-size="10.00">set</text>
</g>
<!-- Node38&#45;&gt;Node42 -->
<g id="edge63" class="edge"><title>Node38&#45;&gt;Node42</title>
<path fill="none" stroke="midnightblue" d="M1411,-428.781C1411,-420.781 1411,-410.689 1411,-402.017"/>
<polygon fill="midnightblue" stroke="midnightblue" points="1414.5,-401.73 1411,-391.731 1407.5,-401.731 1414.5,-401.73"/>
</g>
<!-- Node39&#45;&gt;Node13 -->
<g id="edge59" class="edge"><title>Node39&#45;&gt;Node13</title>
<path fill="none" stroke="midnightblue" d="M911.042,-304.841C890.301,-293.528 861.413,-277.771 840.943,-266.605"/>
<polygon fill="midnightblue" stroke="midnightblue" points="842.372,-263.398 831.917,-261.682 839.02,-269.543 842.372,-263.398"/>
</g>
</g>
</svg>
