<?xml version="1.0" encoding="UTF-8" standalone="no"?>
<!DOCTYPE svg PUBLIC "-//W3C//DTD SVG 1.1//EN"
 "http://www.w3.org/Graphics/SVG/1.1/DTD/svg11.dtd">
<!-- Generated by graphviz version 2.36.0 (20140111.2315)
 -->
<!-- Title: /home/travis/build/STORM&#45;IRIT/Radium&#45;Engine/src/Core/Geometry/Approximation/VariationalShapeApproximation.inl Pages: 1 -->
<svg width="1800pt" height="614pt"
 viewBox="0.00 0.00 1800.00 614.00" xmlns="http://www.w3.org/2000/svg" xmlns:xlink="http://www.w3.org/1999/xlink">
<g id="graph0" class="graph" transform="scale(1 1) rotate(0) translate(4 610)">
<title>/home/travis/build/STORM&#45;IRIT/Radium&#45;Engine/src/Core/Geometry/Approximation/VariationalShapeApproximation.inl</title>
<polygon fill="white" stroke="none" points="-4,4 -4,-610 1796,-610 1796,4 -4,4"/>
<!-- Node1 -->
<g id="node1" class="node"><title>Node1</title>
<polygon fill="#bfbfbf" stroke="black" points="1356,-553 1356,-605 1524,-605 1524,-553 1356,-553"/>
<text text-anchor="start" x="1364" y="-593" font-family="Helvetica,sans-Serif" font-size="10.00">/home/travis/build</text>
<text text-anchor="start" x="1364" y="-582" font-family="Helvetica,sans-Serif" font-size="10.00">/STORM&#45;IRIT/Radium&#45;Engine</text>
<text text-anchor="start" x="1364" y="-571" font-family="Helvetica,sans-Serif" font-size="10.00">/src/Core/Geometry/Approximation</text>
<text text-anchor="middle" x="1440" y="-560" font-family="Helvetica,sans-Serif" font-size="10.00">/VariationalShapeApproximation.inl</text>
</g>
<!-- Node2 -->
<g id="node2" class="node"><title>Node2</title>
<g id="a_node2"><a xlink:href="VariationalShapeApproximation_8hpp.html" target="_top" xlink:title="Core/Geometry/Approximation\l/VariationalShapeApproximation.hpp">
<polygon fill="white" stroke="black" points="1139,-485 1139,-515 1313,-515 1313,-485 1139,-485"/>
<text text-anchor="start" x="1147" y="-503" font-family="Helvetica,sans-Serif" font-size="10.00">Core/Geometry/Approximation</text>
<text text-anchor="middle" x="1226" y="-492" font-family="Helvetica,sans-Serif" font-size="10.00">/VariationalShapeApproximation.hpp</text>
</a>
</g>
</g>
<!-- Node1&#45;&gt;Node2 -->
<g id="edge1" class="edge"><title>Node1&#45;&gt;Node2</title>
<path fill="none" stroke="midnightblue" d="M1363.85,-552.894C1332.13,-541.715 1296.47,-528.815 1269.34,-518.673"/>
<polygon fill="midnightblue" stroke="midnightblue" points="1270.34,-515.311 1259.75,-515.07 1267.88,-521.864 1270.34,-515.311"/>
</g>
<!-- Node31 -->
<g id="node31" class="node"><title>Node31</title>
<g id="a_node31"><a xlink:href="Log_8hpp.html" target="_top" xlink:title="Core/Log/Log.hpp">
<polygon fill="white" stroke="black" points="1542,-304.5 1542,-323.5 1636,-323.5 1636,-304.5 1542,-304.5"/>
<text text-anchor="middle" x="1589" y="-311.5" font-family="Helvetica,sans-Serif" font-size="10.00">Core/Log/Log.hpp</text>
</a>
</g>
</g>
<!-- Node1&#45;&gt;Node31 -->
<g id="edge60" class="edge"><title>Node1&#45;&gt;Node31</title>
<path fill="none" stroke="midnightblue" d="M1441.97,-552.699C1444.22,-533.207 1448.99,-505.968 1459,-484 1487.92,-420.538 1544.68,-358.952 1572.64,-330.853"/>
<polygon fill="midnightblue" stroke="midnightblue" points="1575.38,-333.064 1580.03,-323.541 1570.46,-328.09 1575.38,-333.064"/>
</g>
<!-- Node39 -->
<g id="node39" class="node"><title>Node39</title>
<g id="a_node39"><a xlink:href="TriangleOperation_8hpp.html" target="_top" xlink:title="Core/Geometry/Triangle\l/TriangleOperation.hpp">
<polygon fill="white" stroke="black" points="595.5,-361 595.5,-391 716.5,-391 716.5,-361 595.5,-361"/>
<text text-anchor="start" x="603.5" y="-379" font-family="Helvetica,sans-Serif" font-size="10.00">Core/Geometry/Triangle</text>
<text text-anchor="middle" x="656" y="-368" font-family="Helvetica,sans-Serif" font-size="10.00">/TriangleOperation.hpp</text>
</a>
</g>
</g>
<!-- Node1&#45;&gt;Node39 -->
<g id="edge58" class="edge"><title>Node1&#45;&gt;Node39</title>
<path fill="none" stroke="midnightblue" d="M1355.68,-563.207C1293.09,-551.725 1205.81,-534.659 1130,-516 975.45,-477.962 795.855,-422.019 708.763,-394.125"/>
<polygon fill="midnightblue" stroke="midnightblue" points="709.704,-390.751 699.113,-391.028 707.565,-397.417 709.704,-390.751"/>
</g>
<!-- Node40 -->
<g id="node40" class="node"><title>Node40</title>
<polygon fill="white" stroke="#bfbfbf" points="1468,-490.5 1468,-509.5 1566,-509.5 1566,-490.5 1468,-490.5"/>
<text text-anchor="middle" x="1517" y="-497.5" font-family="Helvetica,sans-Serif" font-size="10.00">Eigen/Eigenvalues</text>
</g>
<!-- Node1&#45;&gt;Node40 -->
<g id="edge61" class="edge"><title>Node1&#45;&gt;Node40</title>
<path fill="none" stroke="midnightblue" d="M1465.21,-552.787C1477.1,-540.904 1490.9,-527.096 1501.27,-516.727"/>
<polygon fill="midnightblue" stroke="midnightblue" points="1503.85,-519.104 1508.44,-509.558 1498.9,-514.154 1503.85,-519.104"/>
</g>
<!-- Node41 -->
<g id="node41" class="node"><title>Node41</title>
<polygon fill="white" stroke="#bfbfbf" points="1583.5,-490.5 1583.5,-509.5 1632.5,-509.5 1632.5,-490.5 1583.5,-490.5"/>
<text text-anchor="middle" x="1608" y="-497.5" font-family="Helvetica,sans-Serif" font-size="10.00">random</text>
</g>
<!-- Node1&#45;&gt;Node41 -->
<g id="edge62" class="edge"><title>Node1&#45;&gt;Node41</title>
<path fill="none" stroke="midnightblue" d="M1495.01,-552.787C1523.48,-539.739 1557.01,-524.369 1580.11,-513.782"/>
<polygon fill="midnightblue" stroke="midnightblue" points="1581.7,-516.906 1589.33,-509.558 1578.78,-510.543 1581.7,-516.906"/>
</g>
<!-- Node42 -->
<g id="node42" class="node"><title>Node42</title>
<polygon fill="white" stroke="#bfbfbf" points="1650,-490.5 1650,-509.5 1680,-509.5 1680,-490.5 1650,-490.5"/>
<text text-anchor="middle" x="1665" y="-497.5" font-family="Helvetica,sans-Serif" font-size="10.00">set</text>
</g>
<!-- Node1&#45;&gt;Node42 -->
<g id="edge63" class="edge"><title>Node1&#45;&gt;Node42</title>
<path fill="none" stroke="midnightblue" d="M1524.43,-557.224C1561.07,-546.878 1603.97,-532.933 1641,-516 1641.98,-515.55 1642.97,-515.067 1643.97,-514.56"/>
<polygon fill="midnightblue" stroke="midnightblue" points="1645.71,-517.594 1652.64,-509.578 1642.22,-511.524 1645.71,-517.594"/>
</g>
<!-- Node2&#45;&gt;Node1 -->
<g id="edge57" class="edge"><title>Node2&#45;&gt;Node1</title>
<path fill="none" stroke="midnightblue" d="M1270.46,-515.07C1298.31,-524.632 1334.81,-537.619 1366.82,-549.312"/>
<polygon fill="midnightblue" stroke="midnightblue" points="1366,-552.74 1376.6,-552.894 1368.41,-546.167 1366,-552.74"/>
</g>
<!-- Node3 -->
<g id="node3" class="node"><title>Node3</title>
<g id="a_node3"><a xlink:href="VectorArray_8hpp.html" target="_top" xlink:title="Core/Containers/VectorArray.hpp">
<polygon fill="white" stroke="black" points="1145.5,-304.5 1145.5,-323.5 1306.5,-323.5 1306.5,-304.5 1145.5,-304.5"/>
<text text-anchor="middle" x="1226" y="-311.5" font-family="Helvetica,sans-Serif" font-size="10.00">Core/Containers/VectorArray.hpp</text>
</a>
</g>
</g>
<!-- Node2&#45;&gt;Node3 -->
<g id="edge2" class="edge"><title>Node2&#45;&gt;Node3</title>
<path fill="none" stroke="midnightblue" d="M1226,-484.867C1226,-452.216 1226,-371.497 1226,-334.317"/>
<polygon fill="midnightblue" stroke="midnightblue" points="1229.5,-333.891 1226,-323.891 1222.5,-333.891 1229.5,-333.891"/>
</g>
<!-- Node13 -->
<g id="node13" class="node"><title>Node13</title>
<polygon fill="white" stroke="#bfbfbf" points="1368,-174.5 1368,-193.5 1412,-193.5 1412,-174.5 1368,-174.5"/>
<text text-anchor="middle" x="1390" y="-181.5" font-family="Helvetica,sans-Serif" font-size="10.00">vector</text>
</g>
<!-- Node2&#45;&gt;Node13 -->
<g id="edge56" class="edge"><title>Node2&#45;&gt;Node13</title>
<path fill="none" stroke="midnightblue" d="M1283.63,-484.878C1334.96,-468.447 1402,-435.742 1402,-377 1402,-377 1402,-377 1402,-313 1402,-274.078 1396.43,-228.789 1392.88,-203.867"/>
<polygon fill="midnightblue" stroke="midnightblue" points="1396.3,-203.047 1391.38,-193.665 1389.37,-204.069 1396.3,-203.047"/>
</g>
<!-- Node25 -->
<g id="node25" class="node"><title>Node25</title>
<g id="a_node25"><a xlink:href="TriangleMesh_8hpp.html" target="_top" xlink:title="Core/Mesh/TriangleMesh.hpp">
<polygon fill="white" stroke="black" points="1051.5,-428.5 1051.5,-447.5 1196.5,-447.5 1196.5,-428.5 1051.5,-428.5"/>
<text text-anchor="middle" x="1124" y="-435.5" font-family="Helvetica,sans-Serif" font-size="10.00">Core/Mesh/TriangleMesh.hpp</text>
</a>
</g>
</g>
<!-- Node2&#45;&gt;Node25 -->
<g id="edge29" class="edge"><title>Node2&#45;&gt;Node25</title>
<path fill="none" stroke="midnightblue" d="M1202.09,-484.933C1185.65,-475.262 1163.91,-462.479 1147.55,-452.855"/>
<polygon fill="midnightblue" stroke="midnightblue" points="1149.01,-449.654 1138.62,-447.6 1145.46,-455.687 1149.01,-449.654"/>
</g>
<!-- Node37 -->
<g id="node37" class="node"><title>Node37</title>
<polygon fill="white" stroke="#bfbfbf" points="934,-428.5 934,-447.5 972,-447.5 972,-428.5 934,-428.5"/>
<text text-anchor="middle" x="953" y="-435.5" font-family="Helvetica,sans-Serif" font-size="10.00">array</text>
</g>
<!-- Node2&#45;&gt;Node37 -->
<g id="edge54" class="edge"><title>Node2&#45;&gt;Node37</title>
<path fill="none" stroke="midnightblue" d="M1148.27,-484.999C1102.31,-476.211 1042.85,-463.96 981.98,-448.051"/>
<polygon fill="midnightblue" stroke="midnightblue" points="982.763,-444.638 972.201,-445.467 980.974,-451.406 982.763,-444.638"/>
</g>
<!-- Node38 -->
<g id="node38" class="node"><title>Node38</title>
<polygon fill="white" stroke="#bfbfbf" points="990.5,-428.5 990.5,-447.5 1033.5,-447.5 1033.5,-428.5 990.5,-428.5"/>
<text text-anchor="middle" x="1012" y="-435.5" font-family="Helvetica,sans-Serif" font-size="10.00">queue</text>
</g>
<!-- Node2&#45;&gt;Node38 -->
<g id="edge55" class="edge"><title>Node2&#45;&gt;Node38</title>
<path fill="none" stroke="midnightblue" d="M1173.97,-484.892C1139.38,-475.442 1092.71,-462.554 1043.49,-448.392"/>
<polygon fill="midnightblue" stroke="midnightblue" points="1044.19,-444.952 1033.61,-445.543 1042.25,-451.678 1044.19,-444.952"/>
</g>
<!-- Node4 -->
<g id="node4" class="node"><title>Node4</title>
<g id="a_node4"><a xlink:href="AlignedStdVector_8hpp.html" target="_top" xlink:title="Core/Containers/AlignedStd\lVector.hpp">
<polygon fill="white" stroke="black" points="1122,-237 1122,-267 1260,-267 1260,-237 1122,-237"/>
<text text-anchor="start" x="1130" y="-255" font-family="Helvetica,sans-Serif" font-size="10.00">Core/Containers/AlignedStd</text>
<text text-anchor="middle" x="1191" y="-244" font-family="Helvetica,sans-Serif" font-size="10.00">Vector.hpp</text>
</a>
</g>
</g>
<!-- Node3&#45;&gt;Node4 -->
<g id="edge3" class="edge"><title>Node3&#45;&gt;Node4</title>
<path fill="none" stroke="midnightblue" d="M1220.99,-304.403C1216.64,-296.961 1210.16,-285.851 1204.34,-275.862"/>
<polygon fill="midnightblue" stroke="midnightblue" points="1207.31,-274.015 1199.25,-267.141 1201.26,-277.542 1207.31,-274.015"/>
</g>
<!-- Node5 -->
<g id="node5" class="node"><title>Node5</title>
<g id="a_node5"><a xlink:href="RaCore_8hpp.html" target="_top" xlink:title="Core/RaCore.hpp">
<polygon fill="white" stroke="black" points="1222.5,-112.5 1222.5,-131.5 1315.5,-131.5 1315.5,-112.5 1222.5,-112.5"/>
<text text-anchor="middle" x="1269" y="-119.5" font-family="Helvetica,sans-Serif" font-size="10.00">Core/RaCore.hpp</text>
</a>
</g>
</g>
<!-- Node3&#45;&gt;Node5 -->
<g id="edge27" class="edge"><title>Node3&#45;&gt;Node5</title>
<path fill="none" stroke="midnightblue" d="M1238.5,-304.302C1248.87,-296.251 1262.89,-283.245 1269,-268 1286.04,-225.491 1278.86,-170.168 1273.28,-141.714"/>
<polygon fill="midnightblue" stroke="midnightblue" points="1276.63,-140.643 1271.13,-131.587 1269.78,-142.096 1276.63,-140.643"/>
</g>
<!-- Node3&#45;&gt;Node13 -->
<g id="edge28" class="edge"><title>Node3&#45;&gt;Node13</title>
<path fill="none" stroke="midnightblue" d="M1242.98,-304.352C1258.85,-295.951 1282.89,-282.388 1302,-268 1329.54,-247.265 1357.94,-218.998 1374.78,-201.382"/>
<polygon fill="midnightblue" stroke="midnightblue" points="1377.74,-203.343 1382.06,-193.669 1372.65,-198.537 1377.74,-203.343"/>
</g>
<!-- Node14 -->
<g id="node14" class="node"><title>Node14</title>
<g id="a_node14"><a xlink:href="LinearAlgebra_8hpp.html" target="_top" xlink:title="Core/Math/LinearAlgebra.hpp">
<polygon fill="white" stroke="black" points="523.5,-242.5 523.5,-261.5 666.5,-261.5 666.5,-242.5 523.5,-242.5"/>
<text text-anchor="middle" x="595" y="-249.5" font-family="Helvetica,sans-Serif" font-size="10.00">Core/Math/LinearAlgebra.hpp</text>
</a>
</g>
</g>
<!-- Node3&#45;&gt;Node14 -->
<g id="edge13" class="edge"><title>Node3&#45;&gt;Node14</title>
<path fill="none" stroke="midnightblue" d="M1145.44,-305.34C1024.74,-293.863 798.204,-272.322 676.788,-260.777"/>
<polygon fill="midnightblue" stroke="midnightblue" points="677.089,-257.29 666.802,-259.827 676.426,-264.258 677.089,-257.29"/>
</g>
<!-- Node4&#45;&gt;Node5 -->
<g id="edge4" class="edge"><title>Node4&#45;&gt;Node5</title>
<path fill="none" stroke="midnightblue" d="M1203,-236.785C1211.12,-226.828 1221.82,-213.026 1230,-200 1242.16,-180.639 1253.68,-157.004 1261,-141.068"/>
<polygon fill="midnightblue" stroke="midnightblue" points="1264.25,-142.383 1265.17,-131.829 1257.87,-139.503 1264.25,-142.383"/>
</g>
<!-- Node12 -->
<g id="node12" class="node"><title>Node12</title>
<polygon fill="white" stroke="#bfbfbf" points="1134,-174.5 1134,-193.5 1222,-193.5 1222,-174.5 1134,-174.5"/>
<text text-anchor="middle" x="1178" y="-181.5" font-family="Helvetica,sans-Serif" font-size="10.00">Eigen/StdVector</text>
</g>
<!-- Node4&#45;&gt;Node12 -->
<g id="edge11" class="edge"><title>Node4&#45;&gt;Node12</title>
<path fill="none" stroke="midnightblue" d="M1188.18,-236.679C1186.27,-226.999 1183.74,-214.123 1181.67,-203.645"/>
<polygon fill="midnightblue" stroke="midnightblue" points="1185.11,-202.963 1179.74,-193.828 1178.24,-204.316 1185.11,-202.963"/>
</g>
<!-- Node4&#45;&gt;Node13 -->
<g id="edge12" class="edge"><title>Node4&#45;&gt;Node13</title>
<path fill="none" stroke="midnightblue" d="M1233.69,-236.841C1271.05,-224.45 1324.49,-206.728 1358.2,-195.547"/>
<polygon fill="midnightblue" stroke="midnightblue" points="1359.6,-198.77 1367.99,-192.3 1357.4,-192.126 1359.6,-198.77"/>
</g>
<!-- Node6 -->
<g id="node6" class="node"><title>Node6</title>
<g id="a_node6"><a xlink:href="CoreMacros_8hpp.html" target="_top" xlink:title="Core/CoreMacros.hpp">
<polygon fill="white" stroke="black" points="1326.5,-56.5 1326.5,-75.5 1439.5,-75.5 1439.5,-56.5 1326.5,-56.5"/>
<text text-anchor="middle" x="1383" y="-63.5" font-family="Helvetica,sans-Serif" font-size="10.00">Core/CoreMacros.hpp</text>
</a>
</g>
</g>
<!-- Node5&#45;&gt;Node6 -->
<g id="edge5" class="edge"><title>Node5&#45;&gt;Node6</title>
<path fill="none" stroke="midnightblue" d="M1287.06,-112.444C1305.57,-103.675 1334.58,-89.9355 1355.86,-79.8579"/>
<polygon fill="midnightblue" stroke="midnightblue" points="1357.48,-82.9604 1365.02,-75.5164 1354.49,-76.6343 1357.48,-82.9604"/>
</g>
<!-- Node7 -->
<g id="node7" class="node"><title>Node7</title>
<polygon fill="white" stroke="#bfbfbf" points="1457.5,-0.5 1457.5,-19.5 1506.5,-19.5 1506.5,-0.5 1457.5,-0.5"/>
<text text-anchor="middle" x="1482" y="-7.5" font-family="Helvetica,sans-Serif" font-size="10.00">cassert</text>
</g>
<!-- Node6&#45;&gt;Node7 -->
<g id="edge6" class="edge"><title>Node6&#45;&gt;Node7</title>
<path fill="none" stroke="midnightblue" d="M1398.91,-56.324C1414.64,-47.7428 1438.94,-34.486 1457.21,-24.5224"/>
<polygon fill="midnightblue" stroke="midnightblue" points="1459.03,-27.5157 1466.13,-19.6545 1455.68,-21.3704 1459.03,-27.5157"/>
</g>
<!-- Node8 -->
<g id="node8" class="node"><title>Node8</title>
<polygon fill="white" stroke="#bfbfbf" points="1261.5,-0.5 1261.5,-19.5 1304.5,-19.5 1304.5,-0.5 1261.5,-0.5"/>
<text text-anchor="middle" x="1283" y="-7.5" font-family="Helvetica,sans-Serif" font-size="10.00">cstdio</text>
</g>
<!-- Node6&#45;&gt;Node8 -->
<g id="edge7" class="edge"><title>Node6&#45;&gt;Node8</title>
<path fill="none" stroke="midnightblue" d="M1366.93,-56.324C1351.04,-47.7428 1326.49,-34.486 1308.04,-24.5224"/>
<polygon fill="midnightblue" stroke="midnightblue" points="1309.49,-21.3264 1299.03,-19.6545 1306.16,-27.4857 1309.49,-21.3264"/>
</g>
<!-- Node9 -->
<g id="node9" class="node"><title>Node9</title>
<polygon fill="white" stroke="#bfbfbf" points="1323,-0.5 1323,-19.5 1377,-19.5 1377,-0.5 1323,-0.5"/>
<text text-anchor="middle" x="1350" y="-7.5" font-family="Helvetica,sans-Serif" font-size="10.00">iostream</text>
</g>
<!-- Node6&#45;&gt;Node9 -->
<g id="edge8" class="edge"><title>Node6&#45;&gt;Node9</title>
<path fill="none" stroke="midnightblue" d="M1377.55,-56.083C1372.99,-48.6127 1366.33,-37.7244 1360.71,-28.5199"/>
<polygon fill="midnightblue" stroke="midnightblue" points="1363.55,-26.4588 1355.35,-19.7511 1357.58,-30.109 1363.55,-26.4588"/>
</g>
<!-- Node10 -->
<g id="node10" class="node"><title>Node10</title>
<polygon fill="white" stroke="#bfbfbf" points="1605,-0.5 1605,-19.5 1657,-19.5 1657,-0.5 1605,-0.5"/>
<text text-anchor="middle" x="1631" y="-7.5" font-family="Helvetica,sans-Serif" font-size="10.00">sstream</text>
</g>
<!-- Node6&#45;&gt;Node10 -->
<g id="edge9" class="edge"><title>Node6&#45;&gt;Node10</title>
<path fill="none" stroke="midnightblue" d="M1422.3,-56.4435C1469.79,-46.1031 1549.03,-28.8492 1594.99,-18.8407"/>
<polygon fill="midnightblue" stroke="midnightblue" points="1595.79,-22.2479 1604.82,-16.7003 1594.3,-15.4081 1595.79,-22.2479"/>
</g>
<!-- Node11 -->
<g id="node11" class="node"><title>Node11</title>
<polygon fill="white" stroke="#bfbfbf" points="1395,-0.5 1395,-19.5 1439,-19.5 1439,-0.5 1395,-0.5"/>
<text text-anchor="middle" x="1417" y="-7.5" font-family="Helvetica,sans-Serif" font-size="10.00">thread</text>
</g>
<!-- Node6&#45;&gt;Node11 -->
<g id="edge10" class="edge"><title>Node6&#45;&gt;Node11</title>
<path fill="none" stroke="midnightblue" d="M1388.61,-56.083C1393.37,-48.5341 1400.32,-37.4948 1406.15,-28.2298"/>
<polygon fill="midnightblue" stroke="midnightblue" points="1409.12,-30.0783 1411.49,-19.7511 1403.2,-26.3486 1409.12,-30.0783"/>
</g>
<!-- Node14&#45;&gt;Node5 -->
<g id="edge14" class="edge"><title>Node14&#45;&gt;Node5</title>
<path fill="none" stroke="midnightblue" d="M666.724,-243.761C713.357,-236.986 774.471,-224.117 824,-200 844.159,-190.184 842.338,-176.706 863,-168 924.638,-142.03 1115.86,-129.9 1212.25,-125.314"/>
<polygon fill="midnightblue" stroke="midnightblue" points="1212.57,-128.803 1222.4,-124.842 1212.24,-121.81 1212.57,-128.803"/>
</g>
<!-- Node15 -->
<g id="node15" class="node"><title>Node15</title>
<polygon fill="white" stroke="#bfbfbf" points="169.5,-174.5 169.5,-193.5 234.5,-193.5 234.5,-174.5 169.5,-174.5"/>
<text text-anchor="middle" x="202" y="-181.5" font-family="Helvetica,sans-Serif" font-size="10.00">Eigen/Core</text>
</g>
<!-- Node14&#45;&gt;Node15 -->
<g id="edge15" class="edge"><title>Node14&#45;&gt;Node15</title>
<path fill="none" stroke="midnightblue" d="M523.364,-245.001C451.635,-237.974 338.493,-224.11 243,-200 239.59,-199.139 236.068,-198.097 232.589,-196.969"/>
<polygon fill="midnightblue" stroke="midnightblue" points="233.613,-193.619 223.018,-193.635 231.31,-200.23 233.613,-193.619"/>
</g>
<!-- Node16 -->
<g id="node16" class="node"><title>Node16</title>
<polygon fill="white" stroke="#bfbfbf" points="252.5,-174.5 252.5,-193.5 339.5,-193.5 339.5,-174.5 252.5,-174.5"/>
<text text-anchor="middle" x="296" y="-181.5" font-family="Helvetica,sans-Serif" font-size="10.00">Eigen/Geometry</text>
</g>
<!-- Node14&#45;&gt;Node16 -->
<g id="edge16" class="edge"><title>Node14&#45;&gt;Node16</title>
<path fill="none" stroke="midnightblue" d="M548.324,-242.476C498.479,-233.114 417.288,-217.12 348,-200 343.518,-198.892 338.84,-197.657 334.207,-196.385"/>
<polygon fill="midnightblue" stroke="midnightblue" points="334.805,-192.917 324.231,-193.573 332.906,-199.654 334.805,-192.917"/>
</g>
<!-- Node17 -->
<g id="node17" class="node"><title>Node17</title>
<polygon fill="white" stroke="#bfbfbf" points="357.5,-174.5 357.5,-193.5 432.5,-193.5 432.5,-174.5 357.5,-174.5"/>
<text text-anchor="middle" x="395" y="-181.5" font-family="Helvetica,sans-Serif" font-size="10.00">Eigen/Sparse</text>
</g>
<!-- Node14&#45;&gt;Node17 -->
<g id="edge17" class="edge"><title>Node14&#45;&gt;Node17</title>
<path fill="none" stroke="midnightblue" d="M568.853,-242.372C533.421,-230.679 470.037,-209.762 430.377,-196.674"/>
<polygon fill="midnightblue" stroke="midnightblue" points="431.429,-193.336 420.836,-193.526 429.235,-199.983 431.429,-193.336"/>
</g>
<!-- Node18 -->
<g id="node18" class="node"><title>Node18</title>
<polygon fill="white" stroke="#bfbfbf" points="450.5,-174.5 450.5,-193.5 509.5,-193.5 509.5,-174.5 450.5,-174.5"/>
<text text-anchor="middle" x="480" y="-181.5" font-family="Helvetica,sans-Serif" font-size="10.00">functional</text>
</g>
<!-- Node14&#45;&gt;Node18 -->
<g id="edge18" class="edge"><title>Node14&#45;&gt;Node18</title>
<path fill="none" stroke="midnightblue" d="M579.966,-242.372C560.595,-231.254 526.696,-211.8 503.806,-198.662"/>
<polygon fill="midnightblue" stroke="midnightblue" points="505.453,-195.573 495.038,-193.63 501.969,-201.644 505.453,-195.573"/>
</g>
<!-- Node19 -->
<g id="node19" class="node"><title>Node19</title>
<polygon fill="white" stroke="#bfbfbf" points="527.5,-169 527.5,-199 660.5,-199 660.5,-169 527.5,-169"/>
<text text-anchor="start" x="535.5" y="-187" font-family="Helvetica,sans-Serif" font-size="10.00">unsupported/Eigen/Aligned</text>
<text text-anchor="middle" x="594" y="-176" font-family="Helvetica,sans-Serif" font-size="10.00">Vector3</text>
</g>
<!-- Node14&#45;&gt;Node19 -->
<g id="edge19" class="edge"><title>Node14&#45;&gt;Node19</title>
<path fill="none" stroke="midnightblue" d="M594.869,-242.372C594.742,-233.971 594.543,-220.811 594.367,-209.213"/>
<polygon fill="midnightblue" stroke="midnightblue" points="597.866,-209.127 594.215,-199.181 590.867,-209.233 597.866,-209.127"/>
</g>
<!-- Node20 -->
<g id="node20" class="node"><title>Node20</title>
<g id="a_node20"><a xlink:href="Math_8hpp.html" target="_top" xlink:title="Core/Math/Math.hpp">
<polygon fill="white" stroke="black" points="45,-174.5 45,-193.5 151,-193.5 151,-174.5 45,-174.5"/>
<text text-anchor="middle" x="98" y="-181.5" font-family="Helvetica,sans-Serif" font-size="10.00">Core/Math/Math.hpp</text>
</a>
</g>
</g>
<!-- Node14&#45;&gt;Node20 -->
<g id="edge20" class="edge"><title>Node14&#45;&gt;Node20</title>
<path fill="none" stroke="midnightblue" d="M523.407,-245.275C436.877,-237.742 287.057,-222.732 160,-200 153.561,-198.848 146.794,-197.429 140.191,-195.928"/>
<polygon fill="midnightblue" stroke="midnightblue" points="140.56,-192.419 130.023,-193.527 138.951,-199.232 140.56,-192.419"/>
</g>
<!-- Node24 -->
<g id="node24" class="node"><title>Node24</title>
<g id="a_node24"><a xlink:href="LinearAlgebra_8inl.html" target="_top" xlink:title="Core/Math/LinearAlgebra.inl">
<polygon fill="white" stroke="black" points="678.5,-174.5 678.5,-193.5 815.5,-193.5 815.5,-174.5 678.5,-174.5"/>
<text text-anchor="middle" x="747" y="-181.5" font-family="Helvetica,sans-Serif" font-size="10.00">Core/Math/LinearAlgebra.inl</text>
</a>
</g>
</g>
<!-- Node14&#45;&gt;Node24 -->
<g id="edge26" class="edge"><title>Node14&#45;&gt;Node24</title>
<path fill="none" stroke="midnightblue" d="M614.871,-242.372C641.157,-230.958 687.683,-210.756 717.924,-197.625"/>
<polygon fill="midnightblue" stroke="midnightblue" points="719.345,-200.824 727.124,-193.63 716.557,-194.403 719.345,-200.824"/>
</g>
<!-- Node20&#45;&gt;Node5 -->
<g id="edge21" class="edge"><title>Node20&#45;&gt;Node5</title>
<path fill="none" stroke="midnightblue" d="M128.044,-174.472C138.12,-171.95 149.471,-169.473 160,-168 366.464,-139.123 1016.19,-126.913 1212.36,-123.825"/>
<polygon fill="midnightblue" stroke="midnightblue" points="1212.51,-127.323 1222.45,-123.668 1212.4,-120.324 1212.51,-127.323"/>
</g>
<!-- Node21 -->
<g id="node21" class="node"><title>Node21</title>
<polygon fill="white" stroke="#bfbfbf" points="118,-112.5 118,-131.5 174,-131.5 174,-112.5 118,-112.5"/>
<text text-anchor="middle" x="146" y="-119.5" font-family="Helvetica,sans-Serif" font-size="10.00">algorithm</text>
</g>
<!-- Node20&#45;&gt;Node21 -->
<g id="edge22" class="edge"><title>Node20&#45;&gt;Node21</title>
<path fill="none" stroke="midnightblue" d="M104.877,-174.403C112.149,-165.314 123.795,-150.756 132.841,-139.449"/>
<polygon fill="midnightblue" stroke="midnightblue" points="135.622,-141.576 139.136,-131.581 130.155,-137.203 135.622,-141.576"/>
</g>
<!-- Node22 -->
<g id="node22" class="node"><title>Node22</title>
<polygon fill="white" stroke="#bfbfbf" points="192,-112.5 192,-131.5 236,-131.5 236,-112.5 192,-112.5"/>
<text text-anchor="middle" x="214" y="-119.5" font-family="Helvetica,sans-Serif" font-size="10.00">cmath</text>
</g>
<!-- Node20&#45;&gt;Node22 -->
<g id="edge23" class="edge"><title>Node20&#45;&gt;Node22</title>
<path fill="none" stroke="midnightblue" d="M114.62,-174.403C133.915,-164.423 165.959,-147.849 188.431,-136.225"/>
<polygon fill="midnightblue" stroke="midnightblue" points="190.137,-139.284 197.411,-131.581 186.921,-133.066 190.137,-139.284"/>
</g>
<!-- Node23 -->
<g id="node23" class="node"><title>Node23</title>
<g id="a_node23"><a xlink:href="Math_8inl.html" target="_top" xlink:title="Core/Math/Math.inl">
<polygon fill="white" stroke="black" points="0,-112.5 0,-131.5 100,-131.5 100,-112.5 0,-112.5"/>
<text text-anchor="middle" x="50" y="-119.5" font-family="Helvetica,sans-Serif" font-size="10.00">Core/Math/Math.inl</text>
</a>
</g>
</g>
<!-- Node20&#45;&gt;Node23 -->
<g id="edge24" class="edge"><title>Node20&#45;&gt;Node23</title>
<path fill="none" stroke="midnightblue" d="M86.2222,-174.403C77.1661,-165.493 65.4109,-151.325 57.5308,-140.118"/>
<polygon fill="midnightblue" stroke="midnightblue" points="60.3595,-138.048 51.9673,-131.581 54.4949,-141.87 60.3595,-138.048"/>
</g>
<!-- Node23&#45;&gt;Node20 -->
<g id="edge25" class="edge"><title>Node23&#45;&gt;Node20</title>
<path fill="none" stroke="midnightblue" d="M61.7616,-131.581C70.8145,-140.485 82.5704,-154.652 90.4551,-165.862"/>
<polygon fill="midnightblue" stroke="midnightblue" points="87.6301,-167.938 96.0234,-174.403 93.494,-164.115 87.6301,-167.938"/>
</g>
<!-- Node25&#45;&gt;Node3 -->
<g id="edge30" class="edge"><title>Node25&#45;&gt;Node3</title>
<path fill="none" stroke="midnightblue" d="M1131.34,-428.226C1148.24,-408.002 1190.18,-357.84 1212.12,-331.599"/>
<polygon fill="midnightblue" stroke="midnightblue" points="1215,-333.611 1218.73,-323.694 1209.63,-329.121 1215,-333.611"/>
</g>
<!-- Node25&#45;&gt;Node5 -->
<g id="edge38" class="edge"><title>Node25&#45;&gt;Node5</title>
<path fill="none" stroke="midnightblue" d="M1122.6,-428.416C1116.05,-386.936 1090.15,-207.63 1125,-168 1146.83,-143.172 1182.15,-131.887 1212.34,-126.827"/>
<polygon fill="midnightblue" stroke="midnightblue" points="1212.98,-130.27 1222.35,-125.339 1211.95,-123.346 1212.98,-130.27"/>
</g>
<!-- Node25&#45;&gt;Node14 -->
<g id="edge31" class="edge"><title>Node25&#45;&gt;Node14</title>
<path fill="none" stroke="midnightblue" d="M1075.76,-428.477C1035.28,-420.745 976.181,-408.103 926,-392 809.553,-354.631 677.155,-292.886 621.67,-266.086"/>
<polygon fill="midnightblue" stroke="midnightblue" points="623.052,-262.867 612.527,-261.65 619.996,-269.164 623.052,-262.867"/>
</g>
<!-- Node26 -->
<g id="node26" class="node"><title>Node26</title>
<g id="a_node26"><a xlink:href="MeshTypes_8hpp.html" target="_top" xlink:title="Core/Mesh/MeshTypes.hpp">
<polygon fill="white" stroke="black" points="858.5,-304.5 858.5,-323.5 995.5,-323.5 995.5,-304.5 858.5,-304.5"/>
<text text-anchor="middle" x="927" y="-311.5" font-family="Helvetica,sans-Serif" font-size="10.00">Core/Mesh/MeshTypes.hpp</text>
</a>
</g>
</g>
<!-- Node25&#45;&gt;Node26 -->
<g id="edge32" class="edge"><title>Node25&#45;&gt;Node26</title>
<path fill="none" stroke="midnightblue" d="M1063.2,-428.432C1018.38,-420.901 962.463,-408.557 946,-392 930.709,-376.622 927.042,-351.021 926.483,-333.596"/>
<polygon fill="midnightblue" stroke="midnightblue" points="929.983,-333.513 926.474,-323.516 922.983,-333.519 929.983,-333.513"/>
</g>
<!-- Node30 -->
<g id="node30" class="node"><title>Node30</title>
<g id="a_node30"><a xlink:href="Attribs_8hpp.html" target="_top" xlink:title="Core/Utils/Attribs.hpp">
<polygon fill="white" stroke="black" points="1259.5,-366.5 1259.5,-385.5 1370.5,-385.5 1370.5,-366.5 1259.5,-366.5"/>
<text text-anchor="middle" x="1315" y="-373.5" font-family="Helvetica,sans-Serif" font-size="10.00">Core/Utils/Attribs.hpp</text>
</a>
</g>
</g>
<!-- Node25&#45;&gt;Node30 -->
<g id="edge39" class="edge"><title>Node25&#45;&gt;Node30</title>
<path fill="none" stroke="midnightblue" d="M1151.37,-428.403C1184.55,-417.978 1240.65,-400.356 1277.76,-388.699"/>
<polygon fill="midnightblue" stroke="midnightblue" points="1279.19,-391.917 1287.69,-385.581 1277.1,-385.239 1279.19,-391.917"/>
</g>
<!-- Node36 -->
<g id="node36" class="node"><title>Node36</title>
<g id="a_node36"><a xlink:href="TriangleMesh_8inl.html" target="_top" xlink:title="Core/Mesh/TriangleMesh.inl">
<polygon fill="white" stroke="black" points="955.5,-366.5 955.5,-385.5 1094.5,-385.5 1094.5,-366.5 955.5,-366.5"/>
<text text-anchor="middle" x="1025" y="-373.5" font-family="Helvetica,sans-Serif" font-size="10.00">Core/Mesh/TriangleMesh.inl</text>
</a>
</g>
</g>
<!-- Node25&#45;&gt;Node36 -->
<g id="edge52" class="edge"><title>Node25&#45;&gt;Node36</title>
<path fill="none" stroke="midnightblue" d="M1104.92,-428.403C1086.95,-418.78 1060.63,-403.024 1043.03,-391.489"/>
<polygon fill="midnightblue" stroke="midnightblue" points="1044.51,-388.264 1034.26,-385.581 1040.6,-394.07 1044.51,-388.264"/>
</g>
<!-- Node26&#45;&gt;Node5 -->
<g id="edge37" class="edge"><title>Node26&#45;&gt;Node5</title>
<path fill="none" stroke="midnightblue" d="M940.813,-304.429C954.181,-295.876 974.752,-282.02 991,-268 1037.41,-227.951 1032.99,-198.783 1086,-168 1124.66,-145.55 1174.19,-134.245 1211.97,-128.584"/>
<polygon fill="midnightblue" stroke="midnightblue" points="1212.88,-131.99 1222.3,-127.132 1211.91,-125.059 1212.88,-131.99"/>
</g>
<!-- Node26&#45;&gt;Node14 -->
<g id="edge36" class="edge"><title>Node26&#45;&gt;Node14</title>
<path fill="none" stroke="midnightblue" d="M879.785,-304.467C819.799,-293.626 716.356,-274.932 652.028,-263.306"/>
<polygon fill="midnightblue" stroke="midnightblue" points="652.515,-259.838 642.052,-261.503 651.27,-266.726 652.515,-259.838"/>
</g>
<!-- Node27 -->
<g id="node27" class="node"><title>Node27</title>
<g id="a_node27"><a xlink:href="Index_8hpp.html" target="_top" xlink:title="Core/Index/Index.hpp">
<polygon fill="white" stroke="black" points="872,-242.5 872,-261.5 982,-261.5 982,-242.5 872,-242.5"/>
<text text-anchor="middle" x="927" y="-249.5" font-family="Helvetica,sans-Serif" font-size="10.00">Core/Index/Index.hpp</text>
</a>
</g>
</g>
<!-- Node26&#45;&gt;Node27 -->
<g id="edge33" class="edge"><title>Node26&#45;&gt;Node27</title>
<path fill="none" stroke="midnightblue" d="M927,-304.403C927,-295.938 927,-282.728 927,-271.82"/>
<polygon fill="midnightblue" stroke="midnightblue" points="930.5,-271.581 927,-261.581 923.5,-271.581 930.5,-271.581"/>
</g>
<!-- Node28 -->
<g id="node28" class="node"><title>Node28</title>
<polygon fill="white" stroke="#bfbfbf" points="994,-174.5 994,-193.5 1034,-193.5 1034,-174.5 994,-174.5"/>
<text text-anchor="middle" x="1014" y="-181.5" font-family="Helvetica,sans-Serif" font-size="10.00">limits</text>
</g>
<!-- Node27&#45;&gt;Node28 -->
<g id="edge34" class="edge"><title>Node27&#45;&gt;Node28</title>
<path fill="none" stroke="midnightblue" d="M938.374,-242.372C952.572,-231.6 977.088,-213.002 994.351,-199.906"/>
<polygon fill="midnightblue" stroke="midnightblue" points="996.772,-202.463 1002.62,-193.63 992.541,-196.886 996.772,-202.463"/>
</g>
<!-- Node29 -->
<g id="node29" class="node"><title>Node29</title>
<g id="a_node29"><a xlink:href="Index_8inl.html" target="_top" xlink:title="Core/Index/Index.inl">
<polygon fill="white" stroke="black" points="872,-174.5 872,-193.5 976,-193.5 976,-174.5 872,-174.5"/>
<text text-anchor="middle" x="924" y="-181.5" font-family="Helvetica,sans-Serif" font-size="10.00">Core/Index/Index.inl</text>
</a>
</g>
</g>
<!-- Node27&#45;&gt;Node29 -->
<g id="edge35" class="edge"><title>Node27&#45;&gt;Node29</title>
<path fill="none" stroke="midnightblue" d="M926.608,-242.372C926.166,-232.643 925.433,-216.528 924.857,-203.85"/>
<polygon fill="midnightblue" stroke="midnightblue" points="928.352,-203.672 924.402,-193.841 921.36,-203.99 928.352,-203.672"/>
</g>
<!-- Node30&#45;&gt;Node3 -->
<g id="edge40" class="edge"><title>Node30&#45;&gt;Node3</title>
<path fill="none" stroke="midnightblue" d="M1302.25,-366.403C1287.97,-356.78 1264.6,-341.024 1247.49,-329.489"/>
<polygon fill="midnightblue" stroke="midnightblue" points="1248.98,-326.268 1238.73,-323.581 1245.06,-332.073 1248.98,-326.268"/>
</g>
<!-- Node30&#45;&gt;Node5 -->
<g id="edge51" class="edge"><title>Node30&#45;&gt;Node5</title>
<path fill="none" stroke="midnightblue" d="M1315.4,-366.438C1316.47,-337.589 1317.82,-241.629 1293,-168 1289.75,-158.351 1284.57,-148.29 1279.86,-140.135"/>
<polygon fill="midnightblue" stroke="midnightblue" points="1282.85,-138.32 1274.68,-131.575 1276.86,-141.943 1282.85,-138.32"/>
</g>
<!-- Node30&#45;&gt;Node31 -->
<g id="edge41" class="edge"><title>Node30&#45;&gt;Node31</title>
<path fill="none" stroke="midnightblue" d="M1353.97,-366.467C1402.96,-355.738 1487.09,-337.316 1540.29,-325.667"/>
<polygon fill="midnightblue" stroke="midnightblue" points="1541.15,-329.062 1550.17,-323.503 1539.65,-322.224 1541.15,-329.062"/>
</g>
<!-- Node31&#45;&gt;Node5 -->
<g id="edge42" class="edge"><title>Node31&#45;&gt;Node5</title>
<path fill="none" stroke="midnightblue" d="M1541.78,-306.672C1514.55,-300.795 1481.37,-289.527 1459,-268 1424.62,-234.925 1455.09,-200.318 1420,-168 1394.31,-144.339 1356.68,-133.086 1325.42,-127.75"/>
<polygon fill="midnightblue" stroke="midnightblue" points="1325.93,-124.288 1315.51,-126.217 1324.86,-131.205 1325.93,-124.288"/>
</g>
<!-- Node31&#45;&gt;Node10 -->
<g id="edge43" class="edge"><title>Node31&#45;&gt;Node10</title>
<path fill="none" stroke="midnightblue" d="M1636.3,-310.088C1671.41,-305.691 1718.62,-294.803 1751,-268 1782.69,-241.764 1792,-226.144 1792,-185 1792,-185 1792,-185 1792,-121 1792,-60.9196 1714.62,-31.2745 1667.15,-18.741"/>
<polygon fill="midnightblue" stroke="midnightblue" points="1667.78,-15.2899 1657.23,-16.2531 1666.07,-22.0798 1667.78,-15.2899"/>
</g>
<!-- Node32 -->
<g id="node32" class="node"><title>Node32</title>
<polygon fill="white" stroke="#bfbfbf" points="1620,-242.5 1620,-261.5 1666,-261.5 1666,-242.5 1620,-242.5"/>
<text text-anchor="middle" x="1643" y="-249.5" font-family="Helvetica,sans-Serif" font-size="10.00">stdio.h</text>
</g>
<!-- Node31&#45;&gt;Node32 -->
<g id="edge44" class="edge"><title>Node31&#45;&gt;Node32</title>
<path fill="none" stroke="midnightblue" d="M1596.74,-304.403C1605,-295.225 1618.28,-280.47 1628.49,-269.117"/>
<polygon fill="midnightblue" stroke="midnightblue" points="1631.19,-271.355 1635.28,-261.581 1625.99,-266.672 1631.19,-271.355"/>
</g>
<!-- Node33 -->
<g id="node33" class="node"><title>Node33</title>
<polygon fill="white" stroke="#bfbfbf" points="1629.5,-174.5 1629.5,-193.5 1670.5,-193.5 1670.5,-174.5 1629.5,-174.5"/>
<text text-anchor="middle" x="1650" y="-181.5" font-family="Helvetica,sans-Serif" font-size="10.00">string</text>
</g>
<!-- Node31&#45;&gt;Node33 -->
<g id="edge45" class="edge"><title>Node31&#45;&gt;Node33</title>
<path fill="none" stroke="midnightblue" d="M1636.1,-312.14C1669.32,-308.758 1711.72,-298.24 1734,-268 1742.44,-256.55 1740.97,-248.394 1734,-236 1722.53,-215.615 1699.25,-202.437 1680.1,-194.593"/>
<polygon fill="midnightblue" stroke="midnightblue" points="1681.14,-191.244 1670.55,-190.968 1678.66,-197.789 1681.14,-191.244"/>
</g>
<!-- Node34 -->
<g id="node34" class="node"><title>Node34</title>
<g id="a_node34"><a xlink:href="StringUtils_8hpp.html" target="_top" xlink:title="Core/String/StringUtils.hpp">
<polygon fill="white" stroke="black" points="1468,-242.5 1468,-261.5 1602,-261.5 1602,-242.5 1468,-242.5"/>
<text text-anchor="middle" x="1535" y="-249.5" font-family="Helvetica,sans-Serif" font-size="10.00">Core/String/StringUtils.hpp</text>
</a>
</g>
</g>
<!-- Node31&#45;&gt;Node34 -->
<g id="edge46" class="edge"><title>Node31&#45;&gt;Node34</title>
<path fill="none" stroke="midnightblue" d="M1581.26,-304.403C1573,-295.225 1559.72,-280.47 1549.51,-269.117"/>
<polygon fill="midnightblue" stroke="midnightblue" points="1552.01,-266.672 1542.72,-261.581 1546.81,-271.355 1552.01,-266.672"/>
</g>
<!-- Node35 -->
<g id="node35" class="node"><title>Node35</title>
<polygon fill="white" stroke="#bfbfbf" points="1684.5,-242.5 1684.5,-261.5 1725.5,-261.5 1725.5,-242.5 1684.5,-242.5"/>
<text text-anchor="middle" x="1705" y="-249.5" font-family="Helvetica,sans-Serif" font-size="10.00">ctime</text>
</g>
<!-- Node31&#45;&gt;Node35 -->
<g id="edge50" class="edge"><title>Node31&#45;&gt;Node35</title>
<path fill="none" stroke="midnightblue" d="M1605.62,-304.403C1624.92,-294.423 1656.96,-277.849 1679.43,-266.225"/>
<polygon fill="midnightblue" stroke="midnightblue" points="1681.14,-269.284 1688.41,-261.581 1677.92,-263.066 1681.14,-269.284"/>
</g>
<!-- Node34&#45;&gt;Node5 -->
<g id="edge47" class="edge"><title>Node34&#45;&gt;Node5</title>
<path fill="none" stroke="midnightblue" d="M1529.2,-242.42C1517.25,-225.424 1488.11,-187.444 1454,-168 1414.46,-145.46 1363.93,-134.148 1325.68,-128.507"/>
<polygon fill="midnightblue" stroke="midnightblue" points="1326.12,-125.035 1315.73,-127.127 1325.16,-131.969 1326.12,-125.035"/>
</g>
<!-- Node34&#45;&gt;Node13 -->
<g id="edge49" class="edge"><title>Node34&#45;&gt;Node13</title>
<path fill="none" stroke="midnightblue" d="M1516.04,-242.372C1491.08,-231.007 1446.97,-210.931 1418.11,-197.796"/>
<polygon fill="midnightblue" stroke="midnightblue" points="1419.51,-194.588 1408.96,-193.63 1416.61,-200.959 1419.51,-194.588"/>
</g>
<!-- Node34&#45;&gt;Node33 -->
<g id="edge48" class="edge"><title>Node34&#45;&gt;Node33</title>
<path fill="none" stroke="midnightblue" d="M1550.03,-242.372C1569.41,-231.254 1603.3,-211.8 1626.19,-198.662"/>
<polygon fill="midnightblue" stroke="midnightblue" points="1628.03,-201.644 1634.96,-193.63 1624.55,-195.573 1628.03,-201.644"/>
</g>
<!-- Node36&#45;&gt;Node25 -->
<g id="edge53" class="edge"><title>Node36&#45;&gt;Node25</title>
<path fill="none" stroke="midnightblue" d="M1044.06,-385.581C1062.17,-395.287 1088.82,-411.244 1106.42,-422.811"/>
<polygon fill="midnightblue" stroke="midnightblue" points="1104.47,-425.714 1114.72,-428.403 1108.38,-419.91 1104.47,-425.714"/>
</g>
<!-- Node39&#45;&gt;Node14 -->
<g id="edge59" class="edge"><title>Node39&#45;&gt;Node14</title>
<path fill="none" stroke="midnightblue" d="M648.763,-360.526C637.552,-338.103 616.015,-295.031 603.879,-270.759"/>
<polygon fill="midnightblue" stroke="midnightblue" points="606.914,-269.002 599.311,-261.623 600.653,-272.132 606.914,-269.002"/>
</g>
</g>
</svg>
